  0
SECTION
  2
HEADER
  9
$ACADVER
  1
AC1009
  9
$FILLMODE
 70
0
  9
$EXTMIN
 10
-0.875951
 20
-1.479331
 30
0.000000
  9
$EXTMAX
 10
5.106500
 20
2.797086
 30
0.000000
  0
ENDSEC
  0
SECTION
  2
TABLES
  0
TABLE
  2
LTYPE
 70
1
  0
LTYPE
  2
CONTINUOUS
 70
64
  3
Solid line
 72
65
 73
0
 40
0
  0
ENDTAB
  0
TABLE
  2
LAYER
 70
255
  0
LAYER
  2
1
 70
64
 62
22
  6
CONTINUOUS
  0
LAYER
  2
16
 70
64
 62
175
  6
CONTINUOUS
  0
LAYER
  2
17
 70
64
 62
82
  6
CONTINUOUS
  0
LAYER
  2
18
 70
64
 62
82
  6
CONTINUOUS
  0
LAYER
  2
19
 70
64
 62
53
  6
CONTINUOUS
  0
LAYER
  2
20
 70
64
 62
7
  6
CONTINUOUS
  0
LAYER
  2
51
 70
64
 62
253
  6
CONTINUOUS
  0
LAYER
  2
52
 70
64
 62
253
  6
CONTINUOUS
  0
ENDTAB
  0
ENDSEC
  0
SECTION
  2
BLOCKS
  0
BLOCK
  8
0
  2
RECT
 70
64
 10
0.000000
 20
0.000000
 30
0.000000
  3
RECT
  0
SOLID
  8
0
 10
-0.500000
 20
-0.500000
 30
0.000000
 11
0.500000
 21
-0.500000
 31
0.000000
 12
-0.500000
 22
0.500000
 32
0.000000
 13
0.500000
 23
0.500000
 33
0.000000
  0
ENDBLK
  8
0
  0
BLOCK
  8
0
  2
PIE
 70
64
 10
0.000000
 20
0.000000
 30
0.000000
  3
PIE
  0
CIRCLE
  8
0
 10
0.000000
 20
0.000000
 30
0.000000
 40
0.500000
  0
ENDBLK
  8
0
  0
BLOCK
  8
0
  2
OCTAGONP
 70
64
 10
0.000000
 20
0.000000
 30
0.000000
  3
OCTAGONP
  0
POLYLINE
  8
0
 66
1
 10
0.000000
 20
0.000000
 30
0.000000
 40
0.000000
 41
0.000000
 70
1
  0
VERTEX
  8
0
 10
-0.500000
 20
-0.207107
 30
0.000000
  0
VERTEX
  8
0
 10
-0.500000
 20
0.207107
 30
0.000000
  0
VERTEX
  8
0
 10
-0.207107
 20
0.500000
 30
0.000000
  0
VERTEX
  8
0
 10
0.207107
 20
0.500000
 30
0.000000
  0
VERTEX
  8
0
 10
0.500000
 20
0.207107
 30
0.000000
  0
VERTEX
  8
0
 10
0.500000
 20
-0.207107
 30
0.000000
  0
VERTEX
  8
0
 10
0.207107
 20
-0.500000
 30
0.000000
  0
VERTEX
  8
0
 10
-0.207107
 20
-0.500000
 30
0.000000
  0
SEQEND
  8
0
  0
ENDBLK
  8
0
  0
BLOCK
  8
0
  2
SQUAREP
 70
64
 10
0.000000
 20
0.000000
 30
0.000000
  3
SQUAREP
  0
SOLID
  8
0
 10
-0.500000
 20
-0.500000
 30
0.000000
 11
0.500000
 21
-0.500000
 31
0.000000
 12
-0.500000
 22
0.500000
 32
0.000000
 13
0.500000
 23
0.500000
 33
0.000000
  0
ENDBLK
  8
0
  0
BLOCK
  8
0
  2
ROUNDP
 70
64
 10
0.000000
 20
0.000000
 30
0.000000
  3
ROUNDP
  0
CIRCLE
  8
0
 10
0.000000
 20
0.000000
 30
0.000000
 40
0.500000
  0
ENDBLK
  8
0
  0
BLOCK
  8
0
  2
ANNULUSP
 70
64
 10
0.000000
 20
0.000000
 30
0.000000
  3
ANNULUSP
  0
CIRCLE
  8
0
 10
0.000000
 20
0.000000
 30
0.000000
 40
0.500000
  0
ENDBLK
  8
0
  0
BLOCK
  8
0
  2
THERMALP
 70
64
 10
0.000000
 20
0.000000
 30
0.000000
  3
THERMALP
  0
LINE
  8
0
 10
-0.237868
 20
0.450000
 30
0.000000
 11
0.237868
 21
0.450000
 31
0.000000
  0
LINE
  8
0
 10
0.450000
 20
0.237868
 30
0.000000
 11
0.450000
 21
-0.237868
 31
0.000000
  0
LINE
  8
0
 10
0.237868
 20
-0.450000
 30
0.000000
 11
-0.237868
 21
-0.450000
 31
0.000000
  0
LINE
  8
0
 10
-0.450000
 20
-0.237868
 30
0.000000
 11
-0.450000
 21
0.237868
 31
0.000000
  0
ENDBLK
  8
0
  0
BLOCK
  8
0
  2
OCTAGONV
 70
64
 10
0.000000
 20
0.000000
 30
0.000000
  3
OCTAGONV
  0
POLYLINE
  8
0
 66
1
 10
0.000000
 20
0.000000
 30
0.000000
 40
0.000000
 41
0.000000
 70
1
  0
VERTEX
  8
0
 10
-0.500000
 20
-0.207107
 30
0.000000
  0
VERTEX
  8
0
 10
-0.500000
 20
0.207107
 30
0.000000
  0
VERTEX
  8
0
 10
-0.207107
 20
0.500000
 30
0.000000
  0
VERTEX
  8
0
 10
0.207107
 20
0.500000
 30
0.000000
  0
VERTEX
  8
0
 10
0.500000
 20
0.207107
 30
0.000000
  0
VERTEX
  8
0
 10
0.500000
 20
-0.207107
 30
0.000000
  0
VERTEX
  8
0
 10
0.207107
 20
-0.500000
 30
0.000000
  0
VERTEX
  8
0
 10
-0.207107
 20
-0.500000
 30
0.000000
  0
SEQEND
  8
0
  0
ENDBLK
  8
0
  0
BLOCK
  8
0
  2
SQUAREV
 70
64
 10
0.000000
 20
0.000000
 30
0.000000
  3
SQUAREV
  0
SOLID
  8
0
 10
-0.500000
 20
-0.500000
 30
0.000000
 11
0.500000
 21
-0.500000
 31
0.000000
 12
-0.500000
 22
0.500000
 32
0.000000
 13
0.500000
 23
0.500000
 33
0.000000
  0
ENDBLK
  8
0
  0
BLOCK
  8
0
  2
ROUNDV
 70
64
 10
0.000000
 20
0.000000
 30
0.000000
  3
ROUNDV
  0
CIRCLE
  8
0
 10
0.000000
 20
0.000000
 30
0.000000
 40
0.500000
  0
ENDBLK
  8
0
  0
BLOCK
  8
0
  2
ANNULUSV
 70
64
 10
0.000000
 20
0.000000
 30
0.000000
  3
ANNULUSV
  0
CIRCLE
  8
0
 10
0.000000
 20
0.000000
 30
0.000000
 40
0.500000
  0
ENDBLK
  8
0
  0
BLOCK
  8
0
  2
THERMALV
 70
64
 10
0.000000
 20
0.000000
 30
0.000000
  3
THERMALV
  0
LINE
  8
0
 10
-0.237868
 20
0.450000
 30
0.000000
 11
0.237868
 21
0.450000
 31
0.000000
  0
LINE
  8
0
 10
0.450000
 20
0.237868
 30
0.000000
 11
0.450000
 21
-0.237868
 31
0.000000
  0
LINE
  8
0
 10
0.237868
 20
-0.450000
 30
0.000000
 11
-0.237868
 21
-0.450000
 31
0.000000
  0
LINE
  8
0
 10
-0.450000
 20
-0.237868
 30
0.000000
 11
-0.450000
 21
0.237868
 31
0.000000
  0
ENDBLK
  8
0
  0
ENDSEC
  0
SECTION
  2
ENTITIES
  0
LINE
  8
20
 10
1.370000
 20
0.270000
 30
0.000000
 11
4.910000
 21
0.270000
 31
0.000000
  0
LINE
  8
20
 10
4.910000
 20
0.270000
 30
0.000000
 11
4.910000
 21
2.230000
 31
0.000000
  0
LINE
  8
20
 10
4.910000
 20
2.230000
 30
0.000000
 11
1.370000
 21
2.230000
 31
0.000000
  0
LINE
  8
20
 10
1.370000
 20
2.230000
 30
0.000000
 11
1.370000
 21
0.270000
 31
0.000000
  0
LINE
  8
51
 10
4.060000
 20
0.520000
 30
0.000000
 11
4.060000
 21
0.830000
 31
0.000000
  0
LINE
  8
51
 10
4.060000
 20
0.830000
 30
0.000000
 11
4.370000
 21
0.830000
 31
0.000000
  0
LINE
  8
51
 10
4.370000
 20
0.830000
 30
0.000000
 11
4.370000
 21
0.520000
 31
0.000000
  0
LINE
  8
51
 10
4.370000
 20
0.520000
 30
0.000000
 11
4.060000
 21
0.520000
 31
0.000000
  0
INSERT
  8
17
  2
ROUNDP
 10
4.215000
 20
0.645000
 30
0.000000
 41
0.200000
 42
0.200000
 43
1.000000
 50
0.000000
  0
INSERT
  8
17
  2
ROUNDP
 10
4.215000
 20
0.645000
 30
0.000000
 41
0.200000
 42
0.200000
 43
1.000000
 50
0.000000
  0
LINE
  8
51
 10
4.370000
 20
0.520000
 30
0.000000
 11
4.370000
 21
0.830000
 31
0.000000
  0
LINE
  8
51
 10
4.370000
 20
0.830000
 30
0.000000
 11
4.680000
 21
0.830000
 31
0.000000
  0
LINE
  8
51
 10
4.680000
 20
0.830000
 30
0.000000
 11
4.680000
 21
0.520000
 31
0.000000
  0
LINE
  8
51
 10
4.680000
 20
0.520000
 30
0.000000
 11
4.370000
 21
0.520000
 31
0.000000
  0
INSERT
  8
17
  2
ROUNDP
 10
4.525000
 20
0.645000
 30
0.000000
 41
0.200000
 42
0.200000
 43
1.000000
 50
0.000000
  0
INSERT
  8
17
  2
ROUNDP
 10
4.525000
 20
0.645000
 30
0.000000
 41
0.200000
 42
0.200000
 43
1.000000
 50
0.000000
  0
LINE
  8
51
 10
3.264016
 20
0.742992
 30
0.000000
 11
3.235984
 21
0.742992
 31
0.000000
  0
LINE
  8
51
 10
3.264016
 20
0.776496
 30
0.000000
 11
3.235984
 21
0.776496
 31
0.000000
  0
INSERT
  8
51
  2
RECT
 10
3.273156
 20
0.759799
 30
0.000000
 41
0.019689
 42
0.037402
 43
1.000000
 50
180.000000
  0
INSERT
  8
51
  2
RECT
 10
3.227156
 20
0.759799
 30
0.000000
 41
0.019689
 42
0.037402
 43
1.000000
 50
180.000000
  0
INSERT
  8
1
  2
RECT
 10
3.283465
 20
0.760000
 30
0.000000
 41
0.043307
 42
0.039370
 43
1.000000
 50
180.000000
  0
INSERT
  8
1
  2
RECT
 10
3.216535
 20
0.760000
 30
0.000000
 41
0.043307
 42
0.039370
 43
1.000000
 50
180.000000
  0
LINE
  8
51
 10
2.982913
 20
0.593543
 30
0.000000
 11
2.982913
 21
0.463622
 31
0.000000
  0
LINE
  8
51
 10
2.982913
 20
0.463622
 30
0.000000
 11
2.982913
 21
0.443937
 31
0.000000
  0
LINE
  8
51
 10
2.982913
 20
0.443937
 30
0.000000
 11
2.793937
 21
0.443937
 31
0.000000
  0
LINE
  8
51
 10
2.793937
 20
0.443937
 30
0.000000
 11
2.793937
 21
0.463622
 31
0.000000
  0
LINE
  8
51
 10
2.793937
 20
0.463622
 30
0.000000
 11
2.793937
 21
0.593543
 31
0.000000
  0
LINE
  8
51
 10
2.793937
 20
0.593543
 30
0.000000
 11
2.982913
 21
0.593543
 31
0.000000
  0
LINE
  8
51
 10
2.982913
 20
0.463622
 30
0.000000
 11
2.793937
 21
0.463622
 31
0.000000
  0
INSERT
  8
51
  2
RECT
 10
2.813425
 20
0.418344
 30
0.000000
 41
0.019299
 42
0.043311
 43
1.000000
 50
0.000000
  0
INSERT
  8
51
  2
RECT
 10
2.863425
 20
0.418344
 30
0.000000
 41
0.019299
 42
0.043311
 43
1.000000
 50
0.000000
  0
INSERT
  8
51
  2
RECT
 10
2.913425
 20
0.418344
 30
0.000000
 41
0.019299
 42
0.043311
 43
1.000000
 50
0.000000
  0
INSERT
  8
51
  2
RECT
 10
2.963425
 20
0.418344
 30
0.000000
 41
0.019299
 42
0.043311
 43
1.000000
 50
0.000000
  0
INSERT
  8
51
  2
RECT
 10
2.963425
 20
0.619136
 30
0.000000
 41
0.019299
 42
0.043311
 43
1.000000
 50
0.000000
  0
INSERT
  8
51
  2
RECT
 10
2.913425
 20
0.619136
 30
0.000000
 41
0.019299
 42
0.043311
 43
1.000000
 50
0.000000
  0
INSERT
  8
51
  2
RECT
 10
2.863425
 20
0.619136
 30
0.000000
 41
0.019299
 42
0.043311
 43
1.000000
 50
0.000000
  0
INSERT
  8
51
  2
RECT
 10
2.813425
 20
0.619136
 30
0.000000
 41
0.019299
 42
0.043311
 43
1.000000
 50
0.000000
  0
INSERT
  8
1
  2
RECT
 10
2.813425
 20
0.416378
 30
0.000000
 41
0.023622
 42
0.086614
 43
1.000000
 50
0.000000
  0
INSERT
  8
1
  2
RECT
 10
2.863425
 20
0.416378
 30
0.000000
 41
0.023622
 42
0.086614
 43
1.000000
 50
0.000000
  0
INSERT
  8
1
  2
RECT
 10
2.913425
 20
0.416378
 30
0.000000
 41
0.023622
 42
0.086614
 43
1.000000
 50
0.000000
  0
INSERT
  8
1
  2
RECT
 10
2.963425
 20
0.416378
 30
0.000000
 41
0.023622
 42
0.086614
 43
1.000000
 50
0.000000
  0
INSERT
  8
1
  2
RECT
 10
2.963425
 20
0.621102
 30
0.000000
 41
0.023622
 42
0.086614
 43
1.000000
 50
0.000000
  0
INSERT
  8
1
  2
RECT
 10
2.913425
 20
0.621102
 30
0.000000
 41
0.023622
 42
0.086614
 43
1.000000
 50
0.000000
  0
INSERT
  8
1
  2
RECT
 10
2.863425
 20
0.621102
 30
0.000000
 41
0.023622
 42
0.086614
 43
1.000000
 50
0.000000
  0
INSERT
  8
1
  2
RECT
 10
2.813425
 20
0.621102
 30
0.000000
 41
0.023622
 42
0.086614
 43
1.000000
 50
0.000000
  0
LINE
  8
51
 10
3.222913
 20
0.593543
 30
0.000000
 11
3.222913
 21
0.463622
 31
0.000000
  0
LINE
  8
51
 10
3.222913
 20
0.463622
 30
0.000000
 11
3.222913
 21
0.443937
 31
0.000000
  0
LINE
  8
51
 10
3.222913
 20
0.443937
 30
0.000000
 11
3.033937
 21
0.443937
 31
0.000000
  0
LINE
  8
51
 10
3.033937
 20
0.443937
 30
0.000000
 11
3.033937
 21
0.463622
 31
0.000000
  0
LINE
  8
51
 10
3.033937
 20
0.463622
 30
0.000000
 11
3.033937
 21
0.593543
 31
0.000000
  0
LINE
  8
51
 10
3.033937
 20
0.593543
 30
0.000000
 11
3.222913
 21
0.593543
 31
0.000000
  0
LINE
  8
51
 10
3.222913
 20
0.463622
 30
0.000000
 11
3.033937
 21
0.463622
 31
0.000000
  0
INSERT
  8
51
  2
RECT
 10
3.053425
 20
0.418344
 30
0.000000
 41
0.019299
 42
0.043311
 43
1.000000
 50
0.000000
  0
INSERT
  8
51
  2
RECT
 10
3.103425
 20
0.418344
 30
0.000000
 41
0.019299
 42
0.043311
 43
1.000000
 50
0.000000
  0
INSERT
  8
51
  2
RECT
 10
3.153425
 20
0.418344
 30
0.000000
 41
0.019299
 42
0.043311
 43
1.000000
 50
0.000000
  0
INSERT
  8
51
  2
RECT
 10
3.203425
 20
0.418344
 30
0.000000
 41
0.019299
 42
0.043311
 43
1.000000
 50
0.000000
  0
INSERT
  8
51
  2
RECT
 10
3.203425
 20
0.619136
 30
0.000000
 41
0.019299
 42
0.043311
 43
1.000000
 50
0.000000
  0
INSERT
  8
51
  2
RECT
 10
3.153425
 20
0.619136
 30
0.000000
 41
0.019299
 42
0.043311
 43
1.000000
 50
0.000000
  0
INSERT
  8
51
  2
RECT
 10
3.103425
 20
0.619136
 30
0.000000
 41
0.019299
 42
0.043311
 43
1.000000
 50
0.000000
  0
INSERT
  8
51
  2
RECT
 10
3.053425
 20
0.619136
 30
0.000000
 41
0.019299
 42
0.043311
 43
1.000000
 50
0.000000
  0
INSERT
  8
1
  2
RECT
 10
3.053425
 20
0.416378
 30
0.000000
 41
0.023622
 42
0.086614
 43
1.000000
 50
0.000000
  0
INSERT
  8
1
  2
RECT
 10
3.103425
 20
0.416378
 30
0.000000
 41
0.023622
 42
0.086614
 43
1.000000
 50
0.000000
  0
INSERT
  8
1
  2
RECT
 10
3.153425
 20
0.416378
 30
0.000000
 41
0.023622
 42
0.086614
 43
1.000000
 50
0.000000
  0
INSERT
  8
1
  2
RECT
 10
3.203425
 20
0.416378
 30
0.000000
 41
0.023622
 42
0.086614
 43
1.000000
 50
0.000000
  0
INSERT
  8
1
  2
RECT
 10
3.203425
 20
0.621102
 30
0.000000
 41
0.023622
 42
0.086614
 43
1.000000
 50
0.000000
  0
INSERT
  8
1
  2
RECT
 10
3.153425
 20
0.621102
 30
0.000000
 41
0.023622
 42
0.086614
 43
1.000000
 50
0.000000
  0
INSERT
  8
1
  2
RECT
 10
3.103425
 20
0.621102
 30
0.000000
 41
0.023622
 42
0.086614
 43
1.000000
 50
0.000000
  0
INSERT
  8
1
  2
RECT
 10
3.053425
 20
0.621102
 30
0.000000
 41
0.023622
 42
0.086614
 43
1.000000
 50
0.000000
  0
LINE
  8
51
 10
1.680000
 20
0.560000
 30
0.000000
 11
1.680000
 21
0.870000
 31
0.000000
  0
LINE
  8
51
 10
1.680000
 20
0.870000
 30
0.000000
 11
1.990000
 21
0.870000
 31
0.000000
  0
LINE
  8
51
 10
1.990000
 20
0.870000
 30
0.000000
 11
1.990000
 21
0.560000
 31
0.000000
  0
LINE
  8
51
 10
1.990000
 20
0.560000
 30
0.000000
 11
1.680000
 21
0.560000
 31
0.000000
  0
INSERT
  8
17
  2
ROUNDP
 10
1.835000
 20
0.685000
 30
0.000000
 41
0.200000
 42
0.200000
 43
1.000000
 50
0.000000
  0
INSERT
  8
17
  2
ROUNDP
 10
1.835000
 20
0.685000
 30
0.000000
 41
0.200000
 42
0.200000
 43
1.000000
 50
0.000000
  0
LINE
  8
51
 10
3.275512
 20
0.445197
 30
0.000000
 11
3.275512
 21
0.575118
 31
0.000000
  0
LINE
  8
51
 10
3.275512
 20
0.575118
 30
0.000000
 11
3.275512
 21
0.594803
 31
0.000000
  0
LINE
  8
51
 10
3.275512
 20
0.594803
 30
0.000000
 11
3.464488
 21
0.594803
 31
0.000000
  0
LINE
  8
51
 10
3.464488
 20
0.594803
 30
0.000000
 11
3.464488
 21
0.575118
 31
0.000000
  0
LINE
  8
51
 10
3.464488
 20
0.575118
 30
0.000000
 11
3.464488
 21
0.445197
 31
0.000000
  0
LINE
  8
51
 10
3.464488
 20
0.445197
 30
0.000000
 11
3.275512
 21
0.445197
 31
0.000000
  0
LINE
  8
51
 10
3.275512
 20
0.575118
 30
0.000000
 11
3.464488
 21
0.575118
 31
0.000000
  0
INSERT
  8
51
  2
RECT
 10
3.445000
 20
0.620396
 30
0.000000
 41
0.019299
 42
0.043311
 43
1.000000
 50
180.000000
  0
INSERT
  8
51
  2
RECT
 10
3.395000
 20
0.620396
 30
0.000000
 41
0.019299
 42
0.043311
 43
1.000000
 50
180.000000
  0
INSERT
  8
51
  2
RECT
 10
3.345000
 20
0.620396
 30
0.000000
 41
0.019299
 42
0.043311
 43
1.000000
 50
180.000000
  0
INSERT
  8
51
  2
RECT
 10
3.295000
 20
0.620396
 30
0.000000
 41
0.019299
 42
0.043311
 43
1.000000
 50
180.000000
  0
INSERT
  8
51
  2
RECT
 10
3.295000
 20
0.419604
 30
0.000000
 41
0.019299
 42
0.043311
 43
1.000000
 50
180.000000
  0
INSERT
  8
51
  2
RECT
 10
3.345000
 20
0.419604
 30
0.000000
 41
0.019299
 42
0.043311
 43
1.000000
 50
180.000000
  0
INSERT
  8
51
  2
RECT
 10
3.395000
 20
0.419604
 30
0.000000
 41
0.019299
 42
0.043311
 43
1.000000
 50
180.000000
  0
INSERT
  8
51
  2
RECT
 10
3.445000
 20
0.419604
 30
0.000000
 41
0.019299
 42
0.043311
 43
1.000000
 50
180.000000
  0
INSERT
  8
1
  2
RECT
 10
3.445000
 20
0.622362
 30
0.000000
 41
0.023622
 42
0.086614
 43
1.000000
 50
180.000000
  0
INSERT
  8
1
  2
RECT
 10
3.395000
 20
0.622362
 30
0.000000
 41
0.023622
 42
0.086614
 43
1.000000
 50
180.000000
  0
INSERT
  8
1
  2
RECT
 10
3.345000
 20
0.622362
 30
0.000000
 41
0.023622
 42
0.086614
 43
1.000000
 50
180.000000
  0
INSERT
  8
1
  2
RECT
 10
3.295000
 20
0.622362
 30
0.000000
 41
0.023622
 42
0.086614
 43
1.000000
 50
180.000000
  0
INSERT
  8
1
  2
RECT
 10
3.295000
 20
0.417638
 30
0.000000
 41
0.023622
 42
0.086614
 43
1.000000
 50
180.000000
  0
INSERT
  8
1
  2
RECT
 10
3.345000
 20
0.417638
 30
0.000000
 41
0.023622
 42
0.086614
 43
1.000000
 50
180.000000
  0
INSERT
  8
1
  2
RECT
 10
3.395000
 20
0.417638
 30
0.000000
 41
0.023622
 42
0.086614
 43
1.000000
 50
180.000000
  0
INSERT
  8
1
  2
RECT
 10
3.445000
 20
0.417638
 30
0.000000
 41
0.023622
 42
0.086614
 43
1.000000
 50
180.000000
  0
LINE
  8
51
 10
3.515512
 20
0.445197
 30
0.000000
 11
3.515512
 21
0.575118
 31
0.000000
  0
LINE
  8
51
 10
3.515512
 20
0.575118
 30
0.000000
 11
3.515512
 21
0.594803
 31
0.000000
  0
LINE
  8
51
 10
3.515512
 20
0.594803
 30
0.000000
 11
3.704488
 21
0.594803
 31
0.000000
  0
LINE
  8
51
 10
3.704488
 20
0.594803
 30
0.000000
 11
3.704488
 21
0.575118
 31
0.000000
  0
LINE
  8
51
 10
3.704488
 20
0.575118
 30
0.000000
 11
3.704488
 21
0.445197
 31
0.000000
  0
LINE
  8
51
 10
3.704488
 20
0.445197
 30
0.000000
 11
3.515512
 21
0.445197
 31
0.000000
  0
LINE
  8
51
 10
3.515512
 20
0.575118
 30
0.000000
 11
3.704488
 21
0.575118
 31
0.000000
  0
INSERT
  8
51
  2
RECT
 10
3.685000
 20
0.620396
 30
0.000000
 41
0.019299
 42
0.043311
 43
1.000000
 50
180.000000
  0
INSERT
  8
51
  2
RECT
 10
3.635000
 20
0.620396
 30
0.000000
 41
0.019299
 42
0.043311
 43
1.000000
 50
180.000000
  0
INSERT
  8
51
  2
RECT
 10
3.585000
 20
0.620396
 30
0.000000
 41
0.019299
 42
0.043311
 43
1.000000
 50
180.000000
  0
INSERT
  8
51
  2
RECT
 10
3.535000
 20
0.620396
 30
0.000000
 41
0.019299
 42
0.043311
 43
1.000000
 50
180.000000
  0
INSERT
  8
51
  2
RECT
 10
3.535000
 20
0.419604
 30
0.000000
 41
0.019299
 42
0.043311
 43
1.000000
 50
180.000000
  0
INSERT
  8
51
  2
RECT
 10
3.585000
 20
0.419604
 30
0.000000
 41
0.019299
 42
0.043311
 43
1.000000
 50
180.000000
  0
INSERT
  8
51
  2
RECT
 10
3.635000
 20
0.419604
 30
0.000000
 41
0.019299
 42
0.043311
 43
1.000000
 50
180.000000
  0
INSERT
  8
51
  2
RECT
 10
3.685000
 20
0.419604
 30
0.000000
 41
0.019299
 42
0.043311
 43
1.000000
 50
180.000000
  0
INSERT
  8
1
  2
RECT
 10
3.685000
 20
0.622362
 30
0.000000
 41
0.023622
 42
0.086614
 43
1.000000
 50
180.000000
  0
INSERT
  8
1
  2
RECT
 10
3.635000
 20
0.622362
 30
0.000000
 41
0.023622
 42
0.086614
 43
1.000000
 50
180.000000
  0
INSERT
  8
1
  2
RECT
 10
3.585000
 20
0.622362
 30
0.000000
 41
0.023622
 42
0.086614
 43
1.000000
 50
180.000000
  0
INSERT
  8
1
  2
RECT
 10
3.535000
 20
0.622362
 30
0.000000
 41
0.023622
 42
0.086614
 43
1.000000
 50
180.000000
  0
INSERT
  8
1
  2
RECT
 10
3.535000
 20
0.417638
 30
0.000000
 41
0.023622
 42
0.086614
 43
1.000000
 50
180.000000
  0
INSERT
  8
1
  2
RECT
 10
3.585000
 20
0.417638
 30
0.000000
 41
0.023622
 42
0.086614
 43
1.000000
 50
180.000000
  0
INSERT
  8
1
  2
RECT
 10
3.635000
 20
0.417638
 30
0.000000
 41
0.023622
 42
0.086614
 43
1.000000
 50
180.000000
  0
INSERT
  8
1
  2
RECT
 10
3.685000
 20
0.417638
 30
0.000000
 41
0.023622
 42
0.086614
 43
1.000000
 50
180.000000
  0
LINE
  8
51
 10
3.475984
 20
0.777008
 30
0.000000
 11
3.504016
 21
0.777008
 31
0.000000
  0
LINE
  8
51
 10
3.475984
 20
0.743504
 30
0.000000
 11
3.504016
 21
0.743504
 31
0.000000
  0
INSERT
  8
51
  2
RECT
 10
3.466844
 20
0.760201
 30
0.000000
 41
0.019689
 42
0.037402
 43
1.000000
 50
0.000000
  0
INSERT
  8
51
  2
RECT
 10
3.512844
 20
0.760201
 30
0.000000
 41
0.019689
 42
0.037402
 43
1.000000
 50
0.000000
  0
INSERT
  8
1
  2
RECT
 10
3.456535
 20
0.760000
 30
0.000000
 41
0.043307
 42
0.039370
 43
1.000000
 50
0.000000
  0
INSERT
  8
1
  2
RECT
 10
3.523465
 20
0.760000
 30
0.000000
 41
0.043307
 42
0.039370
 43
1.000000
 50
0.000000
  0
INSERT
  8
51
  2
RECT
 10
2.753071
 20
2.055827
 30
0.000000
 41
0.020000
 42
0.020000
 43
1.000000
 50
0.000000
  0
INSERT
  8
51
  2
RECT
 10
2.653071
 20
2.055827
 30
0.000000
 41
0.020000
 42
0.020000
 43
1.000000
 50
0.000000
  0
INSERT
  8
51
  2
RECT
 10
2.553071
 20
2.055827
 30
0.000000
 41
0.020000
 42
0.020000
 43
1.000000
 50
0.000000
  0
INSERT
  8
17
  2
ROUNDP
 10
2.553071
 20
2.055827
 30
0.000000
 41
0.074000
 42
0.074000
 43
1.000000
 50
90.000000
  0
INSERT
  8
17
  2
ROUNDP
 10
2.553071
 20
2.055827
 30
0.000000
 41
0.074000
 42
0.074000
 43
1.000000
 50
90.000000
  0
INSERT
  8
17
  2
ROUNDP
 10
2.753071
 20
2.055827
 30
0.000000
 41
0.074000
 42
0.074000
 43
1.000000
 50
90.000000
  0
INSERT
  8
17
  2
ROUNDP
 10
2.753071
 20
2.055827
 30
0.000000
 41
0.074000
 42
0.074000
 43
1.000000
 50
90.000000
  0
INSERT
  8
17
  2
ROUNDP
 10
2.653071
 20
2.055827
 30
0.000000
 41
0.074000
 42
0.074000
 43
1.000000
 50
90.000000
  0
INSERT
  8
17
  2
ROUNDP
 10
2.653071
 20
2.055827
 30
0.000000
 41
0.074000
 42
0.074000
 43
1.000000
 50
90.000000
  0
INSERT
  8
51
  2
RECT
 10
2.753071
 20
1.825827
 30
0.000000
 41
0.020000
 42
0.020000
 43
1.000000
 50
0.000000
  0
INSERT
  8
51
  2
RECT
 10
2.653071
 20
1.825827
 30
0.000000
 41
0.020000
 42
0.020000
 43
1.000000
 50
0.000000
  0
INSERT
  8
51
  2
RECT
 10
2.553071
 20
1.825827
 30
0.000000
 41
0.020000
 42
0.020000
 43
1.000000
 50
0.000000
  0
INSERT
  8
17
  2
ROUNDP
 10
2.553071
 20
1.825827
 30
0.000000
 41
0.074000
 42
0.074000
 43
1.000000
 50
90.000000
  0
INSERT
  8
17
  2
ROUNDP
 10
2.553071
 20
1.825827
 30
0.000000
 41
0.074000
 42
0.074000
 43
1.000000
 50
90.000000
  0
INSERT
  8
17
  2
ROUNDP
 10
2.753071
 20
1.825827
 30
0.000000
 41
0.074000
 42
0.074000
 43
1.000000
 50
90.000000
  0
INSERT
  8
17
  2
ROUNDP
 10
2.753071
 20
1.825827
 30
0.000000
 41
0.074000
 42
0.074000
 43
1.000000
 50
90.000000
  0
INSERT
  8
17
  2
ROUNDP
 10
2.653071
 20
1.825827
 30
0.000000
 41
0.074000
 42
0.074000
 43
1.000000
 50
90.000000
  0
INSERT
  8
17
  2
ROUNDP
 10
2.653071
 20
1.825827
 30
0.000000
 41
0.074000
 42
0.074000
 43
1.000000
 50
90.000000
  0
INSERT
  8
51
  2
RECT
 10
2.753071
 20
1.595827
 30
0.000000
 41
0.020000
 42
0.020000
 43
1.000000
 50
0.000000
  0
INSERT
  8
51
  2
RECT
 10
2.653071
 20
1.595827
 30
0.000000
 41
0.020000
 42
0.020000
 43
1.000000
 50
0.000000
  0
INSERT
  8
51
  2
RECT
 10
2.553071
 20
1.595827
 30
0.000000
 41
0.020000
 42
0.020000
 43
1.000000
 50
0.000000
  0
INSERT
  8
17
  2
ROUNDP
 10
2.553071
 20
1.595827
 30
0.000000
 41
0.074000
 42
0.074000
 43
1.000000
 50
90.000000
  0
INSERT
  8
17
  2
ROUNDP
 10
2.553071
 20
1.595827
 30
0.000000
 41
0.074000
 42
0.074000
 43
1.000000
 50
90.000000
  0
INSERT
  8
17
  2
ROUNDP
 10
2.753071
 20
1.595827
 30
0.000000
 41
0.074000
 42
0.074000
 43
1.000000
 50
90.000000
  0
INSERT
  8
17
  2
ROUNDP
 10
2.753071
 20
1.595827
 30
0.000000
 41
0.074000
 42
0.074000
 43
1.000000
 50
90.000000
  0
INSERT
  8
17
  2
ROUNDP
 10
2.653071
 20
1.595827
 30
0.000000
 41
0.074000
 42
0.074000
 43
1.000000
 50
90.000000
  0
INSERT
  8
17
  2
ROUNDP
 10
2.653071
 20
1.595827
 30
0.000000
 41
0.074000
 42
0.074000
 43
1.000000
 50
90.000000
  0
INSERT
  8
51
  2
RECT
 10
2.753071
 20
1.365827
 30
0.000000
 41
0.020000
 42
0.020000
 43
1.000000
 50
0.000000
  0
INSERT
  8
51
  2
RECT
 10
2.653071
 20
1.365827
 30
0.000000
 41
0.020000
 42
0.020000
 43
1.000000
 50
0.000000
  0
INSERT
  8
51
  2
RECT
 10
2.553071
 20
1.365827
 30
0.000000
 41
0.020000
 42
0.020000
 43
1.000000
 50
0.000000
  0
INSERT
  8
17
  2
ROUNDP
 10
2.553071
 20
1.365827
 30
0.000000
 41
0.074000
 42
0.074000
 43
1.000000
 50
90.000000
  0
INSERT
  8
17
  2
ROUNDP
 10
2.553071
 20
1.365827
 30
0.000000
 41
0.074000
 42
0.074000
 43
1.000000
 50
90.000000
  0
INSERT
  8
17
  2
ROUNDP
 10
2.753071
 20
1.365827
 30
0.000000
 41
0.074000
 42
0.074000
 43
1.000000
 50
90.000000
  0
INSERT
  8
17
  2
ROUNDP
 10
2.753071
 20
1.365827
 30
0.000000
 41
0.074000
 42
0.074000
 43
1.000000
 50
90.000000
  0
INSERT
  8
17
  2
ROUNDP
 10
2.653071
 20
1.365827
 30
0.000000
 41
0.074000
 42
0.074000
 43
1.000000
 50
90.000000
  0
INSERT
  8
17
  2
ROUNDP
 10
2.653071
 20
1.365827
 30
0.000000
 41
0.074000
 42
0.074000
 43
1.000000
 50
90.000000
  0
INSERT
  8
51
  2
RECT
 10
3.083071
 20
2.055827
 30
0.000000
 41
0.020000
 42
0.020000
 43
1.000000
 50
0.000000
  0
INSERT
  8
51
  2
RECT
 10
2.983071
 20
2.055827
 30
0.000000
 41
0.020000
 42
0.020000
 43
1.000000
 50
0.000000
  0
INSERT
  8
51
  2
RECT
 10
2.883071
 20
2.055827
 30
0.000000
 41
0.020000
 42
0.020000
 43
1.000000
 50
0.000000
  0
INSERT
  8
17
  2
ROUNDP
 10
2.883071
 20
2.055827
 30
0.000000
 41
0.074000
 42
0.074000
 43
1.000000
 50
90.000000
  0
INSERT
  8
17
  2
ROUNDP
 10
2.883071
 20
2.055827
 30
0.000000
 41
0.074000
 42
0.074000
 43
1.000000
 50
90.000000
  0
INSERT
  8
17
  2
ROUNDP
 10
3.083071
 20
2.055827
 30
0.000000
 41
0.074000
 42
0.074000
 43
1.000000
 50
90.000000
  0
INSERT
  8
17
  2
ROUNDP
 10
3.083071
 20
2.055827
 30
0.000000
 41
0.074000
 42
0.074000
 43
1.000000
 50
90.000000
  0
INSERT
  8
17
  2
ROUNDP
 10
2.983071
 20
2.055827
 30
0.000000
 41
0.074000
 42
0.074000
 43
1.000000
 50
90.000000
  0
INSERT
  8
17
  2
ROUNDP
 10
2.983071
 20
2.055827
 30
0.000000
 41
0.074000
 42
0.074000
 43
1.000000
 50
90.000000
  0
INSERT
  8
51
  2
RECT
 10
3.083071
 20
1.825827
 30
0.000000
 41
0.020000
 42
0.020000
 43
1.000000
 50
0.000000
  0
INSERT
  8
51
  2
RECT
 10
2.983071
 20
1.825827
 30
0.000000
 41
0.020000
 42
0.020000
 43
1.000000
 50
0.000000
  0
INSERT
  8
51
  2
RECT
 10
2.883071
 20
1.825827
 30
0.000000
 41
0.020000
 42
0.020000
 43
1.000000
 50
0.000000
  0
INSERT
  8
17
  2
ROUNDP
 10
2.883071
 20
1.825827
 30
0.000000
 41
0.074000
 42
0.074000
 43
1.000000
 50
90.000000
  0
INSERT
  8
17
  2
ROUNDP
 10
2.883071
 20
1.825827
 30
0.000000
 41
0.074000
 42
0.074000
 43
1.000000
 50
90.000000
  0
INSERT
  8
17
  2
ROUNDP
 10
3.083071
 20
1.825827
 30
0.000000
 41
0.074000
 42
0.074000
 43
1.000000
 50
90.000000
  0
INSERT
  8
17
  2
ROUNDP
 10
3.083071
 20
1.825827
 30
0.000000
 41
0.074000
 42
0.074000
 43
1.000000
 50
90.000000
  0
INSERT
  8
17
  2
ROUNDP
 10
2.983071
 20
1.825827
 30
0.000000
 41
0.074000
 42
0.074000
 43
1.000000
 50
90.000000
  0
INSERT
  8
17
  2
ROUNDP
 10
2.983071
 20
1.825827
 30
0.000000
 41
0.074000
 42
0.074000
 43
1.000000
 50
90.000000
  0
INSERT
  8
51
  2
RECT
 10
3.083071
 20
1.595827
 30
0.000000
 41
0.020000
 42
0.020000
 43
1.000000
 50
0.000000
  0
INSERT
  8
51
  2
RECT
 10
2.983071
 20
1.595827
 30
0.000000
 41
0.020000
 42
0.020000
 43
1.000000
 50
0.000000
  0
INSERT
  8
51
  2
RECT
 10
2.883071
 20
1.595827
 30
0.000000
 41
0.020000
 42
0.020000
 43
1.000000
 50
0.000000
  0
INSERT
  8
17
  2
ROUNDP
 10
2.883071
 20
1.595827
 30
0.000000
 41
0.074000
 42
0.074000
 43
1.000000
 50
90.000000
  0
INSERT
  8
17
  2
ROUNDP
 10
2.883071
 20
1.595827
 30
0.000000
 41
0.074000
 42
0.074000
 43
1.000000
 50
90.000000
  0
INSERT
  8
17
  2
ROUNDP
 10
3.083071
 20
1.595827
 30
0.000000
 41
0.074000
 42
0.074000
 43
1.000000
 50
90.000000
  0
INSERT
  8
17
  2
ROUNDP
 10
3.083071
 20
1.595827
 30
0.000000
 41
0.074000
 42
0.074000
 43
1.000000
 50
90.000000
  0
INSERT
  8
17
  2
ROUNDP
 10
2.983071
 20
1.595827
 30
0.000000
 41
0.074000
 42
0.074000
 43
1.000000
 50
90.000000
  0
INSERT
  8
17
  2
ROUNDP
 10
2.983071
 20
1.595827
 30
0.000000
 41
0.074000
 42
0.074000
 43
1.000000
 50
90.000000
  0
INSERT
  8
51
  2
RECT
 10
3.083071
 20
1.365827
 30
0.000000
 41
0.020000
 42
0.020000
 43
1.000000
 50
0.000000
  0
INSERT
  8
51
  2
RECT
 10
2.983071
 20
1.365827
 30
0.000000
 41
0.020000
 42
0.020000
 43
1.000000
 50
0.000000
  0
INSERT
  8
51
  2
RECT
 10
2.883071
 20
1.365827
 30
0.000000
 41
0.020000
 42
0.020000
 43
1.000000
 50
0.000000
  0
INSERT
  8
17
  2
ROUNDP
 10
2.883071
 20
1.365827
 30
0.000000
 41
0.074000
 42
0.074000
 43
1.000000
 50
90.000000
  0
INSERT
  8
17
  2
ROUNDP
 10
2.883071
 20
1.365827
 30
0.000000
 41
0.074000
 42
0.074000
 43
1.000000
 50
90.000000
  0
INSERT
  8
17
  2
ROUNDP
 10
3.083071
 20
1.365827
 30
0.000000
 41
0.074000
 42
0.074000
 43
1.000000
 50
90.000000
  0
INSERT
  8
17
  2
ROUNDP
 10
3.083071
 20
1.365827
 30
0.000000
 41
0.074000
 42
0.074000
 43
1.000000
 50
90.000000
  0
INSERT
  8
17
  2
ROUNDP
 10
2.983071
 20
1.365827
 30
0.000000
 41
0.074000
 42
0.074000
 43
1.000000
 50
90.000000
  0
INSERT
  8
17
  2
ROUNDP
 10
2.983071
 20
1.365827
 30
0.000000
 41
0.074000
 42
0.074000
 43
1.000000
 50
90.000000
  0
INSERT
  8
51
  2
RECT
 10
3.413071
 20
2.055827
 30
0.000000
 41
0.020000
 42
0.020000
 43
1.000000
 50
0.000000
  0
INSERT
  8
51
  2
RECT
 10
3.313071
 20
2.055827
 30
0.000000
 41
0.020000
 42
0.020000
 43
1.000000
 50
0.000000
  0
INSERT
  8
51
  2
RECT
 10
3.213071
 20
2.055827
 30
0.000000
 41
0.020000
 42
0.020000
 43
1.000000
 50
0.000000
  0
INSERT
  8
17
  2
ROUNDP
 10
3.213071
 20
2.055827
 30
0.000000
 41
0.074000
 42
0.074000
 43
1.000000
 50
90.000000
  0
INSERT
  8
17
  2
ROUNDP
 10
3.213071
 20
2.055827
 30
0.000000
 41
0.074000
 42
0.074000
 43
1.000000
 50
90.000000
  0
INSERT
  8
17
  2
ROUNDP
 10
3.413071
 20
2.055827
 30
0.000000
 41
0.074000
 42
0.074000
 43
1.000000
 50
90.000000
  0
INSERT
  8
17
  2
ROUNDP
 10
3.413071
 20
2.055827
 30
0.000000
 41
0.074000
 42
0.074000
 43
1.000000
 50
90.000000
  0
INSERT
  8
17
  2
ROUNDP
 10
3.313071
 20
2.055827
 30
0.000000
 41
0.074000
 42
0.074000
 43
1.000000
 50
90.000000
  0
INSERT
  8
17
  2
ROUNDP
 10
3.313071
 20
2.055827
 30
0.000000
 41
0.074000
 42
0.074000
 43
1.000000
 50
90.000000
  0
INSERT
  8
51
  2
RECT
 10
3.413071
 20
1.825827
 30
0.000000
 41
0.020000
 42
0.020000
 43
1.000000
 50
0.000000
  0
INSERT
  8
51
  2
RECT
 10
3.313071
 20
1.825827
 30
0.000000
 41
0.020000
 42
0.020000
 43
1.000000
 50
0.000000
  0
INSERT
  8
51
  2
RECT
 10
3.213071
 20
1.825827
 30
0.000000
 41
0.020000
 42
0.020000
 43
1.000000
 50
0.000000
  0
INSERT
  8
17
  2
ROUNDP
 10
3.213071
 20
1.825827
 30
0.000000
 41
0.074000
 42
0.074000
 43
1.000000
 50
90.000000
  0
INSERT
  8
17
  2
ROUNDP
 10
3.213071
 20
1.825827
 30
0.000000
 41
0.074000
 42
0.074000
 43
1.000000
 50
90.000000
  0
INSERT
  8
17
  2
ROUNDP
 10
3.413071
 20
1.825827
 30
0.000000
 41
0.074000
 42
0.074000
 43
1.000000
 50
90.000000
  0
INSERT
  8
17
  2
ROUNDP
 10
3.413071
 20
1.825827
 30
0.000000
 41
0.074000
 42
0.074000
 43
1.000000
 50
90.000000
  0
INSERT
  8
17
  2
ROUNDP
 10
3.313071
 20
1.825827
 30
0.000000
 41
0.074000
 42
0.074000
 43
1.000000
 50
90.000000
  0
INSERT
  8
17
  2
ROUNDP
 10
3.313071
 20
1.825827
 30
0.000000
 41
0.074000
 42
0.074000
 43
1.000000
 50
90.000000
  0
INSERT
  8
51
  2
RECT
 10
3.413071
 20
1.595827
 30
0.000000
 41
0.020000
 42
0.020000
 43
1.000000
 50
0.000000
  0
INSERT
  8
51
  2
RECT
 10
3.313071
 20
1.595827
 30
0.000000
 41
0.020000
 42
0.020000
 43
1.000000
 50
0.000000
  0
INSERT
  8
51
  2
RECT
 10
3.213071
 20
1.595827
 30
0.000000
 41
0.020000
 42
0.020000
 43
1.000000
 50
0.000000
  0
INSERT
  8
17
  2
ROUNDP
 10
3.213071
 20
1.595827
 30
0.000000
 41
0.074000
 42
0.074000
 43
1.000000
 50
90.000000
  0
INSERT
  8
17
  2
ROUNDP
 10
3.213071
 20
1.595827
 30
0.000000
 41
0.074000
 42
0.074000
 43
1.000000
 50
90.000000
  0
INSERT
  8
17
  2
ROUNDP
 10
3.413071
 20
1.595827
 30
0.000000
 41
0.074000
 42
0.074000
 43
1.000000
 50
90.000000
  0
INSERT
  8
17
  2
ROUNDP
 10
3.413071
 20
1.595827
 30
0.000000
 41
0.074000
 42
0.074000
 43
1.000000
 50
90.000000
  0
INSERT
  8
17
  2
ROUNDP
 10
3.313071
 20
1.595827
 30
0.000000
 41
0.074000
 42
0.074000
 43
1.000000
 50
90.000000
  0
INSERT
  8
17
  2
ROUNDP
 10
3.313071
 20
1.595827
 30
0.000000
 41
0.074000
 42
0.074000
 43
1.000000
 50
90.000000
  0
INSERT
  8
51
  2
RECT
 10
3.413071
 20
1.365827
 30
0.000000
 41
0.020000
 42
0.020000
 43
1.000000
 50
0.000000
  0
INSERT
  8
51
  2
RECT
 10
3.313071
 20
1.365827
 30
0.000000
 41
0.020000
 42
0.020000
 43
1.000000
 50
0.000000
  0
INSERT
  8
51
  2
RECT
 10
3.213071
 20
1.365827
 30
0.000000
 41
0.020000
 42
0.020000
 43
1.000000
 50
0.000000
  0
INSERT
  8
17
  2
ROUNDP
 10
3.213071
 20
1.365827
 30
0.000000
 41
0.074000
 42
0.074000
 43
1.000000
 50
90.000000
  0
INSERT
  8
17
  2
ROUNDP
 10
3.213071
 20
1.365827
 30
0.000000
 41
0.074000
 42
0.074000
 43
1.000000
 50
90.000000
  0
INSERT
  8
17
  2
ROUNDP
 10
3.413071
 20
1.365827
 30
0.000000
 41
0.074000
 42
0.074000
 43
1.000000
 50
90.000000
  0
INSERT
  8
17
  2
ROUNDP
 10
3.413071
 20
1.365827
 30
0.000000
 41
0.074000
 42
0.074000
 43
1.000000
 50
90.000000
  0
INSERT
  8
17
  2
ROUNDP
 10
3.313071
 20
1.365827
 30
0.000000
 41
0.074000
 42
0.074000
 43
1.000000
 50
90.000000
  0
INSERT
  8
17
  2
ROUNDP
 10
3.313071
 20
1.365827
 30
0.000000
 41
0.074000
 42
0.074000
 43
1.000000
 50
90.000000
  0
INSERT
  8
51
  2
RECT
 10
3.743071
 20
2.055827
 30
0.000000
 41
0.020000
 42
0.020000
 43
1.000000
 50
0.000000
  0
INSERT
  8
51
  2
RECT
 10
3.643071
 20
2.055827
 30
0.000000
 41
0.020000
 42
0.020000
 43
1.000000
 50
0.000000
  0
INSERT
  8
51
  2
RECT
 10
3.543071
 20
2.055827
 30
0.000000
 41
0.020000
 42
0.020000
 43
1.000000
 50
0.000000
  0
INSERT
  8
17
  2
ROUNDP
 10
3.543071
 20
2.055827
 30
0.000000
 41
0.074000
 42
0.074000
 43
1.000000
 50
90.000000
  0
INSERT
  8
17
  2
ROUNDP
 10
3.543071
 20
2.055827
 30
0.000000
 41
0.074000
 42
0.074000
 43
1.000000
 50
90.000000
  0
INSERT
  8
17
  2
ROUNDP
 10
3.743071
 20
2.055827
 30
0.000000
 41
0.074000
 42
0.074000
 43
1.000000
 50
90.000000
  0
INSERT
  8
17
  2
ROUNDP
 10
3.743071
 20
2.055827
 30
0.000000
 41
0.074000
 42
0.074000
 43
1.000000
 50
90.000000
  0
INSERT
  8
17
  2
ROUNDP
 10
3.643071
 20
2.055827
 30
0.000000
 41
0.074000
 42
0.074000
 43
1.000000
 50
90.000000
  0
INSERT
  8
17
  2
ROUNDP
 10
3.643071
 20
2.055827
 30
0.000000
 41
0.074000
 42
0.074000
 43
1.000000
 50
90.000000
  0
INSERT
  8
51
  2
RECT
 10
3.743071
 20
1.825827
 30
0.000000
 41
0.020000
 42
0.020000
 43
1.000000
 50
0.000000
  0
INSERT
  8
51
  2
RECT
 10
3.643071
 20
1.825827
 30
0.000000
 41
0.020000
 42
0.020000
 43
1.000000
 50
0.000000
  0
INSERT
  8
51
  2
RECT
 10
3.543071
 20
1.825827
 30
0.000000
 41
0.020000
 42
0.020000
 43
1.000000
 50
0.000000
  0
INSERT
  8
17
  2
ROUNDP
 10
3.543071
 20
1.825827
 30
0.000000
 41
0.074000
 42
0.074000
 43
1.000000
 50
90.000000
  0
INSERT
  8
17
  2
ROUNDP
 10
3.543071
 20
1.825827
 30
0.000000
 41
0.074000
 42
0.074000
 43
1.000000
 50
90.000000
  0
INSERT
  8
17
  2
ROUNDP
 10
3.743071
 20
1.825827
 30
0.000000
 41
0.074000
 42
0.074000
 43
1.000000
 50
90.000000
  0
INSERT
  8
17
  2
ROUNDP
 10
3.743071
 20
1.825827
 30
0.000000
 41
0.074000
 42
0.074000
 43
1.000000
 50
90.000000
  0
INSERT
  8
17
  2
ROUNDP
 10
3.643071
 20
1.825827
 30
0.000000
 41
0.074000
 42
0.074000
 43
1.000000
 50
90.000000
  0
INSERT
  8
17
  2
ROUNDP
 10
3.643071
 20
1.825827
 30
0.000000
 41
0.074000
 42
0.074000
 43
1.000000
 50
90.000000
  0
INSERT
  8
51
  2
RECT
 10
3.743071
 20
1.595827
 30
0.000000
 41
0.020000
 42
0.020000
 43
1.000000
 50
0.000000
  0
INSERT
  8
51
  2
RECT
 10
3.643071
 20
1.595827
 30
0.000000
 41
0.020000
 42
0.020000
 43
1.000000
 50
0.000000
  0
INSERT
  8
51
  2
RECT
 10
3.543071
 20
1.595827
 30
0.000000
 41
0.020000
 42
0.020000
 43
1.000000
 50
0.000000
  0
INSERT
  8
17
  2
ROUNDP
 10
3.543071
 20
1.595827
 30
0.000000
 41
0.074000
 42
0.074000
 43
1.000000
 50
90.000000
  0
INSERT
  8
17
  2
ROUNDP
 10
3.543071
 20
1.595827
 30
0.000000
 41
0.074000
 42
0.074000
 43
1.000000
 50
90.000000
  0
INSERT
  8
17
  2
ROUNDP
 10
3.743071
 20
1.595827
 30
0.000000
 41
0.074000
 42
0.074000
 43
1.000000
 50
90.000000
  0
INSERT
  8
17
  2
ROUNDP
 10
3.743071
 20
1.595827
 30
0.000000
 41
0.074000
 42
0.074000
 43
1.000000
 50
90.000000
  0
INSERT
  8
17
  2
ROUNDP
 10
3.643071
 20
1.595827
 30
0.000000
 41
0.074000
 42
0.074000
 43
1.000000
 50
90.000000
  0
INSERT
  8
17
  2
ROUNDP
 10
3.643071
 20
1.595827
 30
0.000000
 41
0.074000
 42
0.074000
 43
1.000000
 50
90.000000
  0
INSERT
  8
51
  2
RECT
 10
3.743071
 20
1.365827
 30
0.000000
 41
0.020000
 42
0.020000
 43
1.000000
 50
0.000000
  0
INSERT
  8
51
  2
RECT
 10
3.643071
 20
1.365827
 30
0.000000
 41
0.020000
 42
0.020000
 43
1.000000
 50
0.000000
  0
INSERT
  8
51
  2
RECT
 10
3.543071
 20
1.365827
 30
0.000000
 41
0.020000
 42
0.020000
 43
1.000000
 50
0.000000
  0
INSERT
  8
17
  2
ROUNDP
 10
3.543071
 20
1.365827
 30
0.000000
 41
0.074000
 42
0.074000
 43
1.000000
 50
90.000000
  0
INSERT
  8
17
  2
ROUNDP
 10
3.543071
 20
1.365827
 30
0.000000
 41
0.074000
 42
0.074000
 43
1.000000
 50
90.000000
  0
INSERT
  8
17
  2
ROUNDP
 10
3.743071
 20
1.365827
 30
0.000000
 41
0.074000
 42
0.074000
 43
1.000000
 50
90.000000
  0
INSERT
  8
17
  2
ROUNDP
 10
3.743071
 20
1.365827
 30
0.000000
 41
0.074000
 42
0.074000
 43
1.000000
 50
90.000000
  0
INSERT
  8
17
  2
ROUNDP
 10
3.643071
 20
1.365827
 30
0.000000
 41
0.074000
 42
0.074000
 43
1.000000
 50
90.000000
  0
INSERT
  8
17
  2
ROUNDP
 10
3.643071
 20
1.365827
 30
0.000000
 41
0.074000
 42
0.074000
 43
1.000000
 50
90.000000
  0
INSERT
  8
1
  2
RECT
 10
4.296299
 20
1.350000
 30
0.000000
 41
0.059055
 42
0.023622
 43
1.000000
 50
180.000000
  0
INSERT
  8
1
  2
RECT
 10
4.296299
 20
1.400000
 30
0.000000
 41
0.059055
 42
0.023622
 43
1.000000
 50
180.000000
  0
INSERT
  8
1
  2
RECT
 10
4.296299
 20
1.450000
 30
0.000000
 41
0.059055
 42
0.023622
 43
1.000000
 50
180.000000
  0
INSERT
  8
1
  2
RECT
 10
4.296299
 20
1.500000
 30
0.000000
 41
0.059055
 42
0.023622
 43
1.000000
 50
180.000000
  0
INSERT
  8
1
  2
RECT
 10
4.296299
 20
1.550000
 30
0.000000
 41
0.059055
 42
0.023622
 43
1.000000
 50
180.000000
  0
INSERT
  8
1
  2
RECT
 10
4.296299
 20
1.600000
 30
0.000000
 41
0.059055
 42
0.023622
 43
1.000000
 50
180.000000
  0
INSERT
  8
1
  2
RECT
 10
4.296299
 20
1.650000
 30
0.000000
 41
0.059055
 42
0.023622
 43
1.000000
 50
180.000000
  0
INSERT
  8
1
  2
RECT
 10
4.083701
 20
1.650000
 30
0.000000
 41
0.059055
 42
0.023622
 43
1.000000
 50
180.000000
  0
INSERT
  8
1
  2
RECT
 10
4.083701
 20
1.600000
 30
0.000000
 41
0.059055
 42
0.023622
 43
1.000000
 50
180.000000
  0
INSERT
  8
1
  2
RECT
 10
4.083701
 20
1.550000
 30
0.000000
 41
0.059055
 42
0.023622
 43
1.000000
 50
180.000000
  0
INSERT
  8
1
  2
RECT
 10
4.083701
 20
1.500000
 30
0.000000
 41
0.059055
 42
0.023622
 43
1.000000
 50
180.000000
  0
INSERT
  8
1
  2
RECT
 10
4.083701
 20
1.450000
 30
0.000000
 41
0.059055
 42
0.023622
 43
1.000000
 50
180.000000
  0
INSERT
  8
1
  2
RECT
 10
4.083701
 20
1.400000
 30
0.000000
 41
0.059055
 42
0.023622
 43
1.000000
 50
180.000000
  0
INSERT
  8
1
  2
RECT
 10
4.083701
 20
1.350000
 30
0.000000
 41
0.059055
 42
0.023622
 43
1.000000
 50
180.000000
  0
LINE
  8
51
 10
3.900000
 20
2.000000
 30
0.000000
 11
3.900000
 21
2.100000
 31
0.000000
  0
LINE
  8
51
 10
3.900000
 20
2.100000
 30
0.000000
 11
3.900000
 21
2.200000
 31
0.000000
  0
LINE
  8
51
 10
3.900000
 20
2.200000
 30
0.000000
 11
3.985000
 21
2.200000
 31
0.000000
  0
LINE
  8
51
 10
3.985000
 20
2.200000
 30
0.000000
 11
4.000000
 21
2.185000
 31
0.000000
  0
LINE
  8
51
 10
4.000000
 20
2.185000
 30
0.000000
 11
4.015000
 21
2.200000
 31
0.000000
  0
LINE
  8
51
 10
4.015000
 20
2.200000
 30
0.000000
 11
4.085000
 21
2.200000
 31
0.000000
  0
LINE
  8
51
 10
4.900000
 20
2.200000
 30
0.000000
 11
4.900000
 21
2.100000
 31
0.000000
  0
LINE
  8
51
 10
4.900000
 20
2.100000
 30
0.000000
 11
4.900000
 21
2.000000
 31
0.000000
  0
LINE
  8
51
 10
3.985000
 20
2.100000
 30
0.000000
 11
4.000000
 21
2.115000
 31
0.000000
  0
LINE
  8
51
 10
4.000000
 20
2.115000
 30
0.000000
 11
4.015000
 21
2.100000
 31
0.000000
  0
LINE
  8
51
 10
4.085000
 20
2.100000
 30
0.000000
 11
4.100000
 21
2.115000
 31
0.000000
  0
LINE
  8
51
 10
4.100000
 20
2.115000
 30
0.000000
 11
4.115000
 21
2.100000
 31
0.000000
  0
LINE
  8
51
 10
4.185000
 20
2.100000
 30
0.000000
 11
4.200000
 21
2.115000
 31
0.000000
  0
LINE
  8
51
 10
4.200000
 20
2.115000
 30
0.000000
 11
4.215000
 21
2.100000
 31
0.000000
  0
LINE
  8
51
 10
4.285000
 20
2.100000
 30
0.000000
 11
4.300000
 21
2.115000
 31
0.000000
  0
LINE
  8
51
 10
4.300000
 20
2.115000
 30
0.000000
 11
4.315000
 21
2.100000
 31
0.000000
  0
LINE
  8
51
 10
4.385000
 20
2.100000
 30
0.000000
 11
4.400000
 21
2.115000
 31
0.000000
  0
LINE
  8
51
 10
4.400000
 20
2.115000
 30
0.000000
 11
4.415000
 21
2.100000
 31
0.000000
  0
LINE
  8
51
 10
4.485000
 20
2.100000
 30
0.000000
 11
4.500000
 21
2.115000
 31
0.000000
  0
LINE
  8
51
 10
4.500000
 20
2.115000
 30
0.000000
 11
4.515000
 21
2.100000
 31
0.000000
  0
LINE
  8
51
 10
4.585000
 20
2.100000
 30
0.000000
 11
4.600000
 21
2.115000
 31
0.000000
  0
LINE
  8
51
 10
4.600000
 20
2.115000
 30
0.000000
 11
4.615000
 21
2.100000
 31
0.000000
  0
LINE
  8
51
 10
4.685000
 20
2.100000
 30
0.000000
 11
4.700000
 21
2.115000
 31
0.000000
  0
LINE
  8
51
 10
4.700000
 20
2.115000
 30
0.000000
 11
4.715000
 21
2.100000
 31
0.000000
  0
LINE
  8
51
 10
4.785000
 20
2.100000
 30
0.000000
 11
4.800000
 21
2.115000
 31
0.000000
  0
LINE
  8
51
 10
4.800000
 20
2.115000
 30
0.000000
 11
4.815000
 21
2.100000
 31
0.000000
  0
LINE
  8
51
 10
4.085000
 20
2.200000
 30
0.000000
 11
4.100000
 21
2.185000
 31
0.000000
  0
LINE
  8
51
 10
4.100000
 20
2.185000
 30
0.000000
 11
4.115000
 21
2.200000
 31
0.000000
  0
LINE
  8
51
 10
4.115000
 20
2.200000
 30
0.000000
 11
4.185000
 21
2.200000
 31
0.000000
  0
LINE
  8
51
 10
4.185000
 20
2.200000
 30
0.000000
 11
4.200000
 21
2.185000
 31
0.000000
  0
LINE
  8
51
 10
4.200000
 20
2.185000
 30
0.000000
 11
4.215000
 21
2.200000
 31
0.000000
  0
LINE
  8
51
 10
4.215000
 20
2.200000
 30
0.000000
 11
4.285000
 21
2.200000
 31
0.000000
  0
LINE
  8
51
 10
4.285000
 20
2.200000
 30
0.000000
 11
4.300000
 21
2.185000
 31
0.000000
  0
LINE
  8
51
 10
4.300000
 20
2.185000
 30
0.000000
 11
4.315000
 21
2.200000
 31
0.000000
  0
LINE
  8
51
 10
4.315000
 20
2.200000
 30
0.000000
 11
4.385000
 21
2.200000
 31
0.000000
  0
LINE
  8
51
 10
4.385000
 20
2.200000
 30
0.000000
 11
4.400000
 21
2.185000
 31
0.000000
  0
LINE
  8
51
 10
4.400000
 20
2.185000
 30
0.000000
 11
4.415000
 21
2.200000
 31
0.000000
  0
LINE
  8
51
 10
4.415000
 20
2.200000
 30
0.000000
 11
4.485000
 21
2.200000
 31
0.000000
  0
LINE
  8
51
 10
4.485000
 20
2.200000
 30
0.000000
 11
4.500000
 21
2.185000
 31
0.000000
  0
LINE
  8
51
 10
4.500000
 20
2.185000
 30
0.000000
 11
4.515000
 21
2.200000
 31
0.000000
  0
LINE
  8
51
 10
4.515000
 20
2.200000
 30
0.000000
 11
4.585000
 21
2.200000
 31
0.000000
  0
LINE
  8
51
 10
4.585000
 20
2.200000
 30
0.000000
 11
4.600000
 21
2.185000
 31
0.000000
  0
LINE
  8
51
 10
4.600000
 20
2.185000
 30
0.000000
 11
4.615000
 21
2.200000
 31
0.000000
  0
LINE
  8
51
 10
4.615000
 20
2.200000
 30
0.000000
 11
4.685000
 21
2.200000
 31
0.000000
  0
LINE
  8
51
 10
4.685000
 20
2.200000
 30
0.000000
 11
4.700000
 21
2.185000
 31
0.000000
  0
LINE
  8
51
 10
4.700000
 20
2.185000
 30
0.000000
 11
4.715000
 21
2.200000
 31
0.000000
  0
LINE
  8
51
 10
4.715000
 20
2.200000
 30
0.000000
 11
4.785000
 21
2.200000
 31
0.000000
  0
LINE
  8
51
 10
4.785000
 20
2.200000
 30
0.000000
 11
4.800000
 21
2.185000
 31
0.000000
  0
LINE
  8
51
 10
4.800000
 20
2.185000
 30
0.000000
 11
4.815000
 21
2.200000
 31
0.000000
  0
LINE
  8
51
 10
4.815000
 20
2.200000
 30
0.000000
 11
4.900000
 21
2.200000
 31
0.000000
  0
LINE
  8
51
 10
4.900000
 20
2.000000
 30
0.000000
 11
4.815000
 21
2.000000
 31
0.000000
  0
LINE
  8
51
 10
4.815000
 20
2.000000
 30
0.000000
 11
4.800000
 21
2.015000
 31
0.000000
  0
LINE
  8
51
 10
4.800000
 20
2.015000
 30
0.000000
 11
4.785000
 21
2.000000
 31
0.000000
  0
LINE
  8
51
 10
4.785000
 20
2.000000
 30
0.000000
 11
4.715000
 21
2.000000
 31
0.000000
  0
LINE
  8
51
 10
4.715000
 20
2.000000
 30
0.000000
 11
4.700000
 21
2.015000
 31
0.000000
  0
LINE
  8
51
 10
4.700000
 20
2.015000
 30
0.000000
 11
4.685000
 21
2.000000
 31
0.000000
  0
LINE
  8
51
 10
4.685000
 20
2.000000
 30
0.000000
 11
4.615000
 21
2.000000
 31
0.000000
  0
LINE
  8
51
 10
4.615000
 20
2.000000
 30
0.000000
 11
4.600000
 21
2.015000
 31
0.000000
  0
LINE
  8
51
 10
4.600000
 20
2.015000
 30
0.000000
 11
4.585000
 21
2.000000
 31
0.000000
  0
LINE
  8
51
 10
4.585000
 20
2.000000
 30
0.000000
 11
4.515000
 21
2.000000
 31
0.000000
  0
LINE
  8
51
 10
4.515000
 20
2.000000
 30
0.000000
 11
4.500000
 21
2.015000
 31
0.000000
  0
LINE
  8
51
 10
4.500000
 20
2.015000
 30
0.000000
 11
4.485000
 21
2.000000
 31
0.000000
  0
LINE
  8
51
 10
4.485000
 20
2.000000
 30
0.000000
 11
4.415000
 21
2.000000
 31
0.000000
  0
LINE
  8
51
 10
4.415000
 20
2.000000
 30
0.000000
 11
4.400000
 21
2.015000
 31
0.000000
  0
LINE
  8
51
 10
4.400000
 20
2.015000
 30
0.000000
 11
4.385000
 21
2.000000
 31
0.000000
  0
LINE
  8
51
 10
4.385000
 20
2.000000
 30
0.000000
 11
4.315000
 21
2.000000
 31
0.000000
  0
LINE
  8
51
 10
4.315000
 20
2.000000
 30
0.000000
 11
4.300000
 21
2.015000
 31
0.000000
  0
LINE
  8
51
 10
4.300000
 20
2.015000
 30
0.000000
 11
4.285000
 21
2.000000
 31
0.000000
  0
LINE
  8
51
 10
4.285000
 20
2.000000
 30
0.000000
 11
4.215000
 21
2.000000
 31
0.000000
  0
LINE
  8
51
 10
4.215000
 20
2.000000
 30
0.000000
 11
4.200000
 21
2.015000
 31
0.000000
  0
LINE
  8
51
 10
4.200000
 20
2.015000
 30
0.000000
 11
4.185000
 21
2.000000
 31
0.000000
  0
LINE
  8
51
 10
4.185000
 20
2.000000
 30
0.000000
 11
4.115000
 21
2.000000
 31
0.000000
  0
LINE
  8
51
 10
4.115000
 20
2.000000
 30
0.000000
 11
4.100000
 21
2.015000
 31
0.000000
  0
LINE
  8
51
 10
4.100000
 20
2.015000
 30
0.000000
 11
4.085000
 21
2.000000
 31
0.000000
  0
LINE
  8
51
 10
4.085000
 20
2.000000
 30
0.000000
 11
4.015000
 21
2.000000
 31
0.000000
  0
LINE
  8
51
 10
4.015000
 20
2.000000
 30
0.000000
 11
4.000000
 21
2.015000
 31
0.000000
  0
LINE
  8
51
 10
4.000000
 20
2.015000
 30
0.000000
 11
3.985000
 21
2.000000
 31
0.000000
  0
LINE
  8
51
 10
3.985000
 20
2.000000
 30
0.000000
 11
3.900000
 21
2.000000
 31
0.000000
  0
LINE
  8
51
 10
3.900000
 20
2.100000
 30
0.000000
 11
3.985000
 21
2.100000
 31
0.000000
  0
LINE
  8
51
 10
3.985000
 20
2.100000
 30
0.000000
 11
4.000000
 21
2.085000
 31
0.000000
  0
LINE
  8
51
 10
4.000000
 20
2.085000
 30
0.000000
 11
4.015000
 21
2.100000
 31
0.000000
  0
LINE
  8
51
 10
4.015000
 20
2.100000
 30
0.000000
 11
4.085000
 21
2.100000
 31
0.000000
  0
LINE
  8
51
 10
4.085000
 20
2.100000
 30
0.000000
 11
4.100000
 21
2.085000
 31
0.000000
  0
LINE
  8
51
 10
4.100000
 20
2.085000
 30
0.000000
 11
4.115000
 21
2.100000
 31
0.000000
  0
LINE
  8
51
 10
4.115000
 20
2.100000
 30
0.000000
 11
4.185000
 21
2.100000
 31
0.000000
  0
LINE
  8
51
 10
4.185000
 20
2.100000
 30
0.000000
 11
4.200000
 21
2.085000
 31
0.000000
  0
LINE
  8
51
 10
4.200000
 20
2.085000
 30
0.000000
 11
4.215000
 21
2.100000
 31
0.000000
  0
LINE
  8
51
 10
4.215000
 20
2.100000
 30
0.000000
 11
4.285000
 21
2.100000
 31
0.000000
  0
LINE
  8
51
 10
4.285000
 20
2.100000
 30
0.000000
 11
4.300000
 21
2.085000
 31
0.000000
  0
LINE
  8
51
 10
4.300000
 20
2.085000
 30
0.000000
 11
4.315000
 21
2.100000
 31
0.000000
  0
LINE
  8
51
 10
4.315000
 20
2.100000
 30
0.000000
 11
4.385000
 21
2.100000
 31
0.000000
  0
LINE
  8
51
 10
4.385000
 20
2.100000
 30
0.000000
 11
4.400000
 21
2.085000
 31
0.000000
  0
LINE
  8
51
 10
4.400000
 20
2.085000
 30
0.000000
 11
4.415000
 21
2.100000
 31
0.000000
  0
LINE
  8
51
 10
4.415000
 20
2.100000
 30
0.000000
 11
4.485000
 21
2.100000
 31
0.000000
  0
LINE
  8
51
 10
4.485000
 20
2.100000
 30
0.000000
 11
4.500000
 21
2.085000
 31
0.000000
  0
LINE
  8
51
 10
4.500000
 20
2.085000
 30
0.000000
 11
4.515000
 21
2.100000
 31
0.000000
  0
LINE
  8
51
 10
4.515000
 20
2.100000
 30
0.000000
 11
4.585000
 21
2.100000
 31
0.000000
  0
LINE
  8
51
 10
4.585000
 20
2.100000
 30
0.000000
 11
4.600000
 21
2.085000
 31
0.000000
  0
LINE
  8
51
 10
4.600000
 20
2.085000
 30
0.000000
 11
4.615000
 21
2.100000
 31
0.000000
  0
LINE
  8
51
 10
4.615000
 20
2.100000
 30
0.000000
 11
4.685000
 21
2.100000
 31
0.000000
  0
LINE
  8
51
 10
4.685000
 20
2.100000
 30
0.000000
 11
4.700000
 21
2.085000
 31
0.000000
  0
LINE
  8
51
 10
4.700000
 20
2.085000
 30
0.000000
 11
4.715000
 21
2.100000
 31
0.000000
  0
LINE
  8
51
 10
4.715000
 20
2.100000
 30
0.000000
 11
4.785000
 21
2.100000
 31
0.000000
  0
LINE
  8
51
 10
4.785000
 20
2.100000
 30
0.000000
 11
4.800000
 21
2.085000
 31
0.000000
  0
LINE
  8
51
 10
4.800000
 20
2.085000
 30
0.000000
 11
4.815000
 21
2.100000
 31
0.000000
  0
LINE
  8
51
 10
4.815000
 20
2.100000
 30
0.000000
 11
4.900000
 21
2.100000
 31
0.000000
  0
LINE
  8
51
 10
1.400000
 20
2.000000
 30
0.000000
 11
1.400000
 21
2.100000
 31
0.000000
  0
LINE
  8
51
 10
1.400000
 20
2.100000
 30
0.000000
 11
1.400000
 21
2.200000
 31
0.000000
  0
LINE
  8
51
 10
1.400000
 20
2.200000
 30
0.000000
 11
1.485000
 21
2.200000
 31
0.000000
  0
LINE
  8
51
 10
1.485000
 20
2.200000
 30
0.000000
 11
1.500000
 21
2.185000
 31
0.000000
  0
LINE
  8
51
 10
1.500000
 20
2.185000
 30
0.000000
 11
1.515000
 21
2.200000
 31
0.000000
  0
LINE
  8
51
 10
1.515000
 20
2.200000
 30
0.000000
 11
1.585000
 21
2.200000
 31
0.000000
  0
LINE
  8
51
 10
2.400000
 20
2.200000
 30
0.000000
 11
2.400000
 21
2.100000
 31
0.000000
  0
LINE
  8
51
 10
2.400000
 20
2.100000
 30
0.000000
 11
2.400000
 21
2.000000
 31
0.000000
  0
LINE
  8
51
 10
1.485000
 20
2.100000
 30
0.000000
 11
1.500000
 21
2.115000
 31
0.000000
  0
LINE
  8
51
 10
1.500000
 20
2.115000
 30
0.000000
 11
1.515000
 21
2.100000
 31
0.000000
  0
LINE
  8
51
 10
1.585000
 20
2.100000
 30
0.000000
 11
1.600000
 21
2.115000
 31
0.000000
  0
LINE
  8
51
 10
1.600000
 20
2.115000
 30
0.000000
 11
1.615000
 21
2.100000
 31
0.000000
  0
LINE
  8
51
 10
1.685000
 20
2.100000
 30
0.000000
 11
1.700000
 21
2.115000
 31
0.000000
  0
LINE
  8
51
 10
1.700000
 20
2.115000
 30
0.000000
 11
1.715000
 21
2.100000
 31
0.000000
  0
LINE
  8
51
 10
1.785000
 20
2.100000
 30
0.000000
 11
1.800000
 21
2.115000
 31
0.000000
  0
LINE
  8
51
 10
1.800000
 20
2.115000
 30
0.000000
 11
1.815000
 21
2.100000
 31
0.000000
  0
LINE
  8
51
 10
1.885000
 20
2.100000
 30
0.000000
 11
1.900000
 21
2.115000
 31
0.000000
  0
LINE
  8
51
 10
1.900000
 20
2.115000
 30
0.000000
 11
1.915000
 21
2.100000
 31
0.000000
  0
LINE
  8
51
 10
1.985000
 20
2.100000
 30
0.000000
 11
2.000000
 21
2.115000
 31
0.000000
  0
LINE
  8
51
 10
2.000000
 20
2.115000
 30
0.000000
 11
2.015000
 21
2.100000
 31
0.000000
  0
LINE
  8
51
 10
2.085000
 20
2.100000
 30
0.000000
 11
2.100000
 21
2.115000
 31
0.000000
  0
LINE
  8
51
 10
2.100000
 20
2.115000
 30
0.000000
 11
2.115000
 21
2.100000
 31
0.000000
  0
LINE
  8
51
 10
2.185000
 20
2.100000
 30
0.000000
 11
2.200000
 21
2.115000
 31
0.000000
  0
LINE
  8
51
 10
2.200000
 20
2.115000
 30
0.000000
 11
2.215000
 21
2.100000
 31
0.000000
  0
LINE
  8
51
 10
2.285000
 20
2.100000
 30
0.000000
 11
2.300000
 21
2.115000
 31
0.000000
  0
LINE
  8
51
 10
2.300000
 20
2.115000
 30
0.000000
 11
2.315000
 21
2.100000
 31
0.000000
  0
LINE
  8
51
 10
1.585000
 20
2.200000
 30
0.000000
 11
1.600000
 21
2.185000
 31
0.000000
  0
LINE
  8
51
 10
1.600000
 20
2.185000
 30
0.000000
 11
1.615000
 21
2.200000
 31
0.000000
  0
LINE
  8
51
 10
1.615000
 20
2.200000
 30
0.000000
 11
1.685000
 21
2.200000
 31
0.000000
  0
LINE
  8
51
 10
1.685000
 20
2.200000
 30
0.000000
 11
1.700000
 21
2.185000
 31
0.000000
  0
LINE
  8
51
 10
1.700000
 20
2.185000
 30
0.000000
 11
1.715000
 21
2.200000
 31
0.000000
  0
LINE
  8
51
 10
1.715000
 20
2.200000
 30
0.000000
 11
1.785000
 21
2.200000
 31
0.000000
  0
LINE
  8
51
 10
1.785000
 20
2.200000
 30
0.000000
 11
1.800000
 21
2.185000
 31
0.000000
  0
LINE
  8
51
 10
1.800000
 20
2.185000
 30
0.000000
 11
1.815000
 21
2.200000
 31
0.000000
  0
LINE
  8
51
 10
1.815000
 20
2.200000
 30
0.000000
 11
1.885000
 21
2.200000
 31
0.000000
  0
LINE
  8
51
 10
1.885000
 20
2.200000
 30
0.000000
 11
1.900000
 21
2.185000
 31
0.000000
  0
LINE
  8
51
 10
1.900000
 20
2.185000
 30
0.000000
 11
1.915000
 21
2.200000
 31
0.000000
  0
LINE
  8
51
 10
1.915000
 20
2.200000
 30
0.000000
 11
1.985000
 21
2.200000
 31
0.000000
  0
LINE
  8
51
 10
1.985000
 20
2.200000
 30
0.000000
 11
2.000000
 21
2.185000
 31
0.000000
  0
LINE
  8
51
 10
2.000000
 20
2.185000
 30
0.000000
 11
2.015000
 21
2.200000
 31
0.000000
  0
LINE
  8
51
 10
2.015000
 20
2.200000
 30
0.000000
 11
2.085000
 21
2.200000
 31
0.000000
  0
LINE
  8
51
 10
2.085000
 20
2.200000
 30
0.000000
 11
2.100000
 21
2.185000
 31
0.000000
  0
LINE
  8
51
 10
2.100000
 20
2.185000
 30
0.000000
 11
2.115000
 21
2.200000
 31
0.000000
  0
LINE
  8
51
 10
2.115000
 20
2.200000
 30
0.000000
 11
2.185000
 21
2.200000
 31
0.000000
  0
LINE
  8
51
 10
2.185000
 20
2.200000
 30
0.000000
 11
2.200000
 21
2.185000
 31
0.000000
  0
LINE
  8
51
 10
2.200000
 20
2.185000
 30
0.000000
 11
2.215000
 21
2.200000
 31
0.000000
  0
LINE
  8
51
 10
2.215000
 20
2.200000
 30
0.000000
 11
2.285000
 21
2.200000
 31
0.000000
  0
LINE
  8
51
 10
2.285000
 20
2.200000
 30
0.000000
 11
2.300000
 21
2.185000
 31
0.000000
  0
LINE
  8
51
 10
2.300000
 20
2.185000
 30
0.000000
 11
2.315000
 21
2.200000
 31
0.000000
  0
LINE
  8
51
 10
2.315000
 20
2.200000
 30
0.000000
 11
2.400000
 21
2.200000
 31
0.000000
  0
LINE
  8
51
 10
2.400000
 20
2.000000
 30
0.000000
 11
2.315000
 21
2.000000
 31
0.000000
  0
LINE
  8
51
 10
2.315000
 20
2.000000
 30
0.000000
 11
2.300000
 21
2.015000
 31
0.000000
  0
LINE
  8
51
 10
2.300000
 20
2.015000
 30
0.000000
 11
2.285000
 21
2.000000
 31
0.000000
  0
LINE
  8
51
 10
2.285000
 20
2.000000
 30
0.000000
 11
2.215000
 21
2.000000
 31
0.000000
  0
LINE
  8
51
 10
2.215000
 20
2.000000
 30
0.000000
 11
2.200000
 21
2.015000
 31
0.000000
  0
LINE
  8
51
 10
2.200000
 20
2.015000
 30
0.000000
 11
2.185000
 21
2.000000
 31
0.000000
  0
LINE
  8
51
 10
2.185000
 20
2.000000
 30
0.000000
 11
2.115000
 21
2.000000
 31
0.000000
  0
LINE
  8
51
 10
2.115000
 20
2.000000
 30
0.000000
 11
2.100000
 21
2.015000
 31
0.000000
  0
LINE
  8
51
 10
2.100000
 20
2.015000
 30
0.000000
 11
2.085000
 21
2.000000
 31
0.000000
  0
LINE
  8
51
 10
2.085000
 20
2.000000
 30
0.000000
 11
2.015000
 21
2.000000
 31
0.000000
  0
LINE
  8
51
 10
2.015000
 20
2.000000
 30
0.000000
 11
2.000000
 21
2.015000
 31
0.000000
  0
LINE
  8
51
 10
2.000000
 20
2.015000
 30
0.000000
 11
1.985000
 21
2.000000
 31
0.000000
  0
LINE
  8
51
 10
1.985000
 20
2.000000
 30
0.000000
 11
1.915000
 21
2.000000
 31
0.000000
  0
LINE
  8
51
 10
1.915000
 20
2.000000
 30
0.000000
 11
1.900000
 21
2.015000
 31
0.000000
  0
LINE
  8
51
 10
1.900000
 20
2.015000
 30
0.000000
 11
1.885000
 21
2.000000
 31
0.000000
  0
LINE
  8
51
 10
1.885000
 20
2.000000
 30
0.000000
 11
1.815000
 21
2.000000
 31
0.000000
  0
LINE
  8
51
 10
1.815000
 20
2.000000
 30
0.000000
 11
1.800000
 21
2.015000
 31
0.000000
  0
LINE
  8
51
 10
1.800000
 20
2.015000
 30
0.000000
 11
1.785000
 21
2.000000
 31
0.000000
  0
LINE
  8
51
 10
1.785000
 20
2.000000
 30
0.000000
 11
1.715000
 21
2.000000
 31
0.000000
  0
LINE
  8
51
 10
1.715000
 20
2.000000
 30
0.000000
 11
1.700000
 21
2.015000
 31
0.000000
  0
LINE
  8
51
 10
1.700000
 20
2.015000
 30
0.000000
 11
1.685000
 21
2.000000
 31
0.000000
  0
LINE
  8
51
 10
1.685000
 20
2.000000
 30
0.000000
 11
1.615000
 21
2.000000
 31
0.000000
  0
LINE
  8
51
 10
1.615000
 20
2.000000
 30
0.000000
 11
1.600000
 21
2.015000
 31
0.000000
  0
LINE
  8
51
 10
1.600000
 20
2.015000
 30
0.000000
 11
1.585000
 21
2.000000
 31
0.000000
  0
LINE
  8
51
 10
1.585000
 20
2.000000
 30
0.000000
 11
1.515000
 21
2.000000
 31
0.000000
  0
LINE
  8
51
 10
1.515000
 20
2.000000
 30
0.000000
 11
1.500000
 21
2.015000
 31
0.000000
  0
LINE
  8
51
 10
1.500000
 20
2.015000
 30
0.000000
 11
1.485000
 21
2.000000
 31
0.000000
  0
LINE
  8
51
 10
1.485000
 20
2.000000
 30
0.000000
 11
1.400000
 21
2.000000
 31
0.000000
  0
LINE
  8
51
 10
1.400000
 20
2.100000
 30
0.000000
 11
1.485000
 21
2.100000
 31
0.000000
  0
LINE
  8
51
 10
1.485000
 20
2.100000
 30
0.000000
 11
1.500000
 21
2.085000
 31
0.000000
  0
LINE
  8
51
 10
1.500000
 20
2.085000
 30
0.000000
 11
1.515000
 21
2.100000
 31
0.000000
  0
LINE
  8
51
 10
1.515000
 20
2.100000
 30
0.000000
 11
1.585000
 21
2.100000
 31
0.000000
  0
LINE
  8
51
 10
1.585000
 20
2.100000
 30
0.000000
 11
1.600000
 21
2.085000
 31
0.000000
  0
LINE
  8
51
 10
1.600000
 20
2.085000
 30
0.000000
 11
1.615000
 21
2.100000
 31
0.000000
  0
LINE
  8
51
 10
1.615000
 20
2.100000
 30
0.000000
 11
1.685000
 21
2.100000
 31
0.000000
  0
LINE
  8
51
 10
1.685000
 20
2.100000
 30
0.000000
 11
1.700000
 21
2.085000
 31
0.000000
  0
LINE
  8
51
 10
1.700000
 20
2.085000
 30
0.000000
 11
1.715000
 21
2.100000
 31
0.000000
  0
LINE
  8
51
 10
1.715000
 20
2.100000
 30
0.000000
 11
1.785000
 21
2.100000
 31
0.000000
  0
LINE
  8
51
 10
1.785000
 20
2.100000
 30
0.000000
 11
1.800000
 21
2.085000
 31
0.000000
  0
LINE
  8
51
 10
1.800000
 20
2.085000
 30
0.000000
 11
1.815000
 21
2.100000
 31
0.000000
  0
LINE
  8
51
 10
1.815000
 20
2.100000
 30
0.000000
 11
1.885000
 21
2.100000
 31
0.000000
  0
LINE
  8
51
 10
1.885000
 20
2.100000
 30
0.000000
 11
1.900000
 21
2.085000
 31
0.000000
  0
LINE
  8
51
 10
1.900000
 20
2.085000
 30
0.000000
 11
1.915000
 21
2.100000
 31
0.000000
  0
LINE
  8
51
 10
1.915000
 20
2.100000
 30
0.000000
 11
1.985000
 21
2.100000
 31
0.000000
  0
LINE
  8
51
 10
1.985000
 20
2.100000
 30
0.000000
 11
2.000000
 21
2.085000
 31
0.000000
  0
LINE
  8
51
 10
2.000000
 20
2.085000
 30
0.000000
 11
2.015000
 21
2.100000
 31
0.000000
  0
LINE
  8
51
 10
2.015000
 20
2.100000
 30
0.000000
 11
2.085000
 21
2.100000
 31
0.000000
  0
LINE
  8
51
 10
2.085000
 20
2.100000
 30
0.000000
 11
2.100000
 21
2.085000
 31
0.000000
  0
LINE
  8
51
 10
2.100000
 20
2.085000
 30
0.000000
 11
2.115000
 21
2.100000
 31
0.000000
  0
LINE
  8
51
 10
2.115000
 20
2.100000
 30
0.000000
 11
2.185000
 21
2.100000
 31
0.000000
  0
LINE
  8
51
 10
2.185000
 20
2.100000
 30
0.000000
 11
2.200000
 21
2.085000
 31
0.000000
  0
LINE
  8
51
 10
2.200000
 20
2.085000
 30
0.000000
 11
2.215000
 21
2.100000
 31
0.000000
  0
LINE
  8
51
 10
2.215000
 20
2.100000
 30
0.000000
 11
2.285000
 21
2.100000
 31
0.000000
  0
LINE
  8
51
 10
2.285000
 20
2.100000
 30
0.000000
 11
2.300000
 21
2.085000
 31
0.000000
  0
LINE
  8
51
 10
2.300000
 20
2.085000
 30
0.000000
 11
2.315000
 21
2.100000
 31
0.000000
  0
LINE
  8
51
 10
2.315000
 20
2.100000
 30
0.000000
 11
2.400000
 21
2.100000
 31
0.000000
  0
LINE
  8
51
 10
1.400000
 20
0.300000
 30
0.000000
 11
1.400000
 21
0.400000
 31
0.000000
  0
LINE
  8
51
 10
1.400000
 20
0.400000
 30
0.000000
 11
1.400000
 21
0.500000
 31
0.000000
  0
LINE
  8
51
 10
1.400000
 20
0.500000
 30
0.000000
 11
1.485000
 21
0.500000
 31
0.000000
  0
LINE
  8
51
 10
1.485000
 20
0.500000
 30
0.000000
 11
1.500000
 21
0.485000
 31
0.000000
  0
LINE
  8
51
 10
1.500000
 20
0.485000
 30
0.000000
 11
1.515000
 21
0.500000
 31
0.000000
  0
LINE
  8
51
 10
1.515000
 20
0.500000
 30
0.000000
 11
1.585000
 21
0.500000
 31
0.000000
  0
LINE
  8
51
 10
2.400000
 20
0.500000
 30
0.000000
 11
2.400000
 21
0.400000
 31
0.000000
  0
LINE
  8
51
 10
2.400000
 20
0.400000
 30
0.000000
 11
2.400000
 21
0.300000
 31
0.000000
  0
LINE
  8
51
 10
1.485000
 20
0.400000
 30
0.000000
 11
1.500000
 21
0.415000
 31
0.000000
  0
LINE
  8
51
 10
1.500000
 20
0.415000
 30
0.000000
 11
1.515000
 21
0.400000
 31
0.000000
  0
LINE
  8
51
 10
1.585000
 20
0.400000
 30
0.000000
 11
1.600000
 21
0.415000
 31
0.000000
  0
LINE
  8
51
 10
1.600000
 20
0.415000
 30
0.000000
 11
1.615000
 21
0.400000
 31
0.000000
  0
LINE
  8
51
 10
1.685000
 20
0.400000
 30
0.000000
 11
1.700000
 21
0.415000
 31
0.000000
  0
LINE
  8
51
 10
1.700000
 20
0.415000
 30
0.000000
 11
1.715000
 21
0.400000
 31
0.000000
  0
LINE
  8
51
 10
1.785000
 20
0.400000
 30
0.000000
 11
1.800000
 21
0.415000
 31
0.000000
  0
LINE
  8
51
 10
1.800000
 20
0.415000
 30
0.000000
 11
1.815000
 21
0.400000
 31
0.000000
  0
LINE
  8
51
 10
1.885000
 20
0.400000
 30
0.000000
 11
1.900000
 21
0.415000
 31
0.000000
  0
LINE
  8
51
 10
1.900000
 20
0.415000
 30
0.000000
 11
1.915000
 21
0.400000
 31
0.000000
  0
LINE
  8
51
 10
1.985000
 20
0.400000
 30
0.000000
 11
2.000000
 21
0.415000
 31
0.000000
  0
LINE
  8
51
 10
2.000000
 20
0.415000
 30
0.000000
 11
2.015000
 21
0.400000
 31
0.000000
  0
LINE
  8
51
 10
2.085000
 20
0.400000
 30
0.000000
 11
2.100000
 21
0.415000
 31
0.000000
  0
LINE
  8
51
 10
2.100000
 20
0.415000
 30
0.000000
 11
2.115000
 21
0.400000
 31
0.000000
  0
LINE
  8
51
 10
2.185000
 20
0.400000
 30
0.000000
 11
2.200000
 21
0.415000
 31
0.000000
  0
LINE
  8
51
 10
2.200000
 20
0.415000
 30
0.000000
 11
2.215000
 21
0.400000
 31
0.000000
  0
LINE
  8
51
 10
2.285000
 20
0.400000
 30
0.000000
 11
2.300000
 21
0.415000
 31
0.000000
  0
LINE
  8
51
 10
2.300000
 20
0.415000
 30
0.000000
 11
2.315000
 21
0.400000
 31
0.000000
  0
LINE
  8
51
 10
1.585000
 20
0.500000
 30
0.000000
 11
1.600000
 21
0.485000
 31
0.000000
  0
LINE
  8
51
 10
1.600000
 20
0.485000
 30
0.000000
 11
1.615000
 21
0.500000
 31
0.000000
  0
LINE
  8
51
 10
1.615000
 20
0.500000
 30
0.000000
 11
1.685000
 21
0.500000
 31
0.000000
  0
LINE
  8
51
 10
1.685000
 20
0.500000
 30
0.000000
 11
1.700000
 21
0.485000
 31
0.000000
  0
LINE
  8
51
 10
1.700000
 20
0.485000
 30
0.000000
 11
1.715000
 21
0.500000
 31
0.000000
  0
LINE
  8
51
 10
1.715000
 20
0.500000
 30
0.000000
 11
1.785000
 21
0.500000
 31
0.000000
  0
LINE
  8
51
 10
1.785000
 20
0.500000
 30
0.000000
 11
1.800000
 21
0.485000
 31
0.000000
  0
LINE
  8
51
 10
1.800000
 20
0.485000
 30
0.000000
 11
1.815000
 21
0.500000
 31
0.000000
  0
LINE
  8
51
 10
1.815000
 20
0.500000
 30
0.000000
 11
1.885000
 21
0.500000
 31
0.000000
  0
LINE
  8
51
 10
1.885000
 20
0.500000
 30
0.000000
 11
1.900000
 21
0.485000
 31
0.000000
  0
LINE
  8
51
 10
1.900000
 20
0.485000
 30
0.000000
 11
1.915000
 21
0.500000
 31
0.000000
  0
LINE
  8
51
 10
1.915000
 20
0.500000
 30
0.000000
 11
1.985000
 21
0.500000
 31
0.000000
  0
LINE
  8
51
 10
1.985000
 20
0.500000
 30
0.000000
 11
2.000000
 21
0.485000
 31
0.000000
  0
LINE
  8
51
 10
2.000000
 20
0.485000
 30
0.000000
 11
2.015000
 21
0.500000
 31
0.000000
  0
LINE
  8
51
 10
2.015000
 20
0.500000
 30
0.000000
 11
2.085000
 21
0.500000
 31
0.000000
  0
LINE
  8
51
 10
2.085000
 20
0.500000
 30
0.000000
 11
2.100000
 21
0.485000
 31
0.000000
  0
LINE
  8
51
 10
2.100000
 20
0.485000
 30
0.000000
 11
2.115000
 21
0.500000
 31
0.000000
  0
LINE
  8
51
 10
2.115000
 20
0.500000
 30
0.000000
 11
2.185000
 21
0.500000
 31
0.000000
  0
LINE
  8
51
 10
2.185000
 20
0.500000
 30
0.000000
 11
2.200000
 21
0.485000
 31
0.000000
  0
LINE
  8
51
 10
2.200000
 20
0.485000
 30
0.000000
 11
2.215000
 21
0.500000
 31
0.000000
  0
LINE
  8
51
 10
2.215000
 20
0.500000
 30
0.000000
 11
2.285000
 21
0.500000
 31
0.000000
  0
LINE
  8
51
 10
2.285000
 20
0.500000
 30
0.000000
 11
2.300000
 21
0.485000
 31
0.000000
  0
LINE
  8
51
 10
2.300000
 20
0.485000
 30
0.000000
 11
2.315000
 21
0.500000
 31
0.000000
  0
LINE
  8
51
 10
2.315000
 20
0.500000
 30
0.000000
 11
2.400000
 21
0.500000
 31
0.000000
  0
LINE
  8
51
 10
2.400000
 20
0.300000
 30
0.000000
 11
2.315000
 21
0.300000
 31
0.000000
  0
LINE
  8
51
 10
2.315000
 20
0.300000
 30
0.000000
 11
2.300000
 21
0.315000
 31
0.000000
  0
LINE
  8
51
 10
2.300000
 20
0.315000
 30
0.000000
 11
2.285000
 21
0.300000
 31
0.000000
  0
LINE
  8
51
 10
2.285000
 20
0.300000
 30
0.000000
 11
2.215000
 21
0.300000
 31
0.000000
  0
LINE
  8
51
 10
2.215000
 20
0.300000
 30
0.000000
 11
2.200000
 21
0.315000
 31
0.000000
  0
LINE
  8
51
 10
2.200000
 20
0.315000
 30
0.000000
 11
2.185000
 21
0.300000
 31
0.000000
  0
LINE
  8
51
 10
2.185000
 20
0.300000
 30
0.000000
 11
2.115000
 21
0.300000
 31
0.000000
  0
LINE
  8
51
 10
2.115000
 20
0.300000
 30
0.000000
 11
2.100000
 21
0.315000
 31
0.000000
  0
LINE
  8
51
 10
2.100000
 20
0.315000
 30
0.000000
 11
2.085000
 21
0.300000
 31
0.000000
  0
LINE
  8
51
 10
2.085000
 20
0.300000
 30
0.000000
 11
2.015000
 21
0.300000
 31
0.000000
  0
LINE
  8
51
 10
2.015000
 20
0.300000
 30
0.000000
 11
2.000000
 21
0.315000
 31
0.000000
  0
LINE
  8
51
 10
2.000000
 20
0.315000
 30
0.000000
 11
1.985000
 21
0.300000
 31
0.000000
  0
LINE
  8
51
 10
1.985000
 20
0.300000
 30
0.000000
 11
1.915000
 21
0.300000
 31
0.000000
  0
LINE
  8
51
 10
1.915000
 20
0.300000
 30
0.000000
 11
1.900000
 21
0.315000
 31
0.000000
  0
LINE
  8
51
 10
1.900000
 20
0.315000
 30
0.000000
 11
1.885000
 21
0.300000
 31
0.000000
  0
LINE
  8
51
 10
1.885000
 20
0.300000
 30
0.000000
 11
1.815000
 21
0.300000
 31
0.000000
  0
LINE
  8
51
 10
1.815000
 20
0.300000
 30
0.000000
 11
1.800000
 21
0.315000
 31
0.000000
  0
LINE
  8
51
 10
1.800000
 20
0.315000
 30
0.000000
 11
1.785000
 21
0.300000
 31
0.000000
  0
LINE
  8
51
 10
1.785000
 20
0.300000
 30
0.000000
 11
1.715000
 21
0.300000
 31
0.000000
  0
LINE
  8
51
 10
1.715000
 20
0.300000
 30
0.000000
 11
1.700000
 21
0.315000
 31
0.000000
  0
LINE
  8
51
 10
1.700000
 20
0.315000
 30
0.000000
 11
1.685000
 21
0.300000
 31
0.000000
  0
LINE
  8
51
 10
1.685000
 20
0.300000
 30
0.000000
 11
1.615000
 21
0.300000
 31
0.000000
  0
LINE
  8
51
 10
1.615000
 20
0.300000
 30
0.000000
 11
1.600000
 21
0.315000
 31
0.000000
  0
LINE
  8
51
 10
1.600000
 20
0.315000
 30
0.000000
 11
1.585000
 21
0.300000
 31
0.000000
  0
LINE
  8
51
 10
1.585000
 20
0.300000
 30
0.000000
 11
1.515000
 21
0.300000
 31
0.000000
  0
LINE
  8
51
 10
1.515000
 20
0.300000
 30
0.000000
 11
1.500000
 21
0.315000
 31
0.000000
  0
LINE
  8
51
 10
1.500000
 20
0.315000
 30
0.000000
 11
1.485000
 21
0.300000
 31
0.000000
  0
LINE
  8
51
 10
1.485000
 20
0.300000
 30
0.000000
 11
1.400000
 21
0.300000
 31
0.000000
  0
LINE
  8
51
 10
1.400000
 20
0.400000
 30
0.000000
 11
1.485000
 21
0.400000
 31
0.000000
  0
LINE
  8
51
 10
1.485000
 20
0.400000
 30
0.000000
 11
1.500000
 21
0.385000
 31
0.000000
  0
LINE
  8
51
 10
1.500000
 20
0.385000
 30
0.000000
 11
1.515000
 21
0.400000
 31
0.000000
  0
LINE
  8
51
 10
1.515000
 20
0.400000
 30
0.000000
 11
1.585000
 21
0.400000
 31
0.000000
  0
LINE
  8
51
 10
1.585000
 20
0.400000
 30
0.000000
 11
1.600000
 21
0.385000
 31
0.000000
  0
LINE
  8
51
 10
1.600000
 20
0.385000
 30
0.000000
 11
1.615000
 21
0.400000
 31
0.000000
  0
LINE
  8
51
 10
1.615000
 20
0.400000
 30
0.000000
 11
1.685000
 21
0.400000
 31
0.000000
  0
LINE
  8
51
 10
1.685000
 20
0.400000
 30
0.000000
 11
1.700000
 21
0.385000
 31
0.000000
  0
LINE
  8
51
 10
1.700000
 20
0.385000
 30
0.000000
 11
1.715000
 21
0.400000
 31
0.000000
  0
LINE
  8
51
 10
1.715000
 20
0.400000
 30
0.000000
 11
1.785000
 21
0.400000
 31
0.000000
  0
LINE
  8
51
 10
1.785000
 20
0.400000
 30
0.000000
 11
1.800000
 21
0.385000
 31
0.000000
  0
LINE
  8
51
 10
1.800000
 20
0.385000
 30
0.000000
 11
1.815000
 21
0.400000
 31
0.000000
  0
LINE
  8
51
 10
1.815000
 20
0.400000
 30
0.000000
 11
1.885000
 21
0.400000
 31
0.000000
  0
LINE
  8
51
 10
1.885000
 20
0.400000
 30
0.000000
 11
1.900000
 21
0.385000
 31
0.000000
  0
LINE
  8
51
 10
1.900000
 20
0.385000
 30
0.000000
 11
1.915000
 21
0.400000
 31
0.000000
  0
LINE
  8
51
 10
1.915000
 20
0.400000
 30
0.000000
 11
1.985000
 21
0.400000
 31
0.000000
  0
LINE
  8
51
 10
1.985000
 20
0.400000
 30
0.000000
 11
2.000000
 21
0.385000
 31
0.000000
  0
LINE
  8
51
 10
2.000000
 20
0.385000
 30
0.000000
 11
2.015000
 21
0.400000
 31
0.000000
  0
LINE
  8
51
 10
2.015000
 20
0.400000
 30
0.000000
 11
2.085000
 21
0.400000
 31
0.000000
  0
LINE
  8
51
 10
2.085000
 20
0.400000
 30
0.000000
 11
2.100000
 21
0.385000
 31
0.000000
  0
LINE
  8
51
 10
2.100000
 20
0.385000
 30
0.000000
 11
2.115000
 21
0.400000
 31
0.000000
  0
LINE
  8
51
 10
2.115000
 20
0.400000
 30
0.000000
 11
2.185000
 21
0.400000
 31
0.000000
  0
LINE
  8
51
 10
2.185000
 20
0.400000
 30
0.000000
 11
2.200000
 21
0.385000
 31
0.000000
  0
LINE
  8
51
 10
2.200000
 20
0.385000
 30
0.000000
 11
2.215000
 21
0.400000
 31
0.000000
  0
LINE
  8
51
 10
2.215000
 20
0.400000
 30
0.000000
 11
2.285000
 21
0.400000
 31
0.000000
  0
LINE
  8
51
 10
2.285000
 20
0.400000
 30
0.000000
 11
2.300000
 21
0.385000
 31
0.000000
  0
LINE
  8
51
 10
2.300000
 20
0.385000
 30
0.000000
 11
2.315000
 21
0.400000
 31
0.000000
  0
LINE
  8
51
 10
2.315000
 20
0.400000
 30
0.000000
 11
2.400000
 21
0.400000
 31
0.000000
  0
LINE
  8
51
 10
3.900000
 20
0.300000
 30
0.000000
 11
3.900000
 21
0.400000
 31
0.000000
  0
LINE
  8
51
 10
3.900000
 20
0.400000
 30
0.000000
 11
3.900000
 21
0.500000
 31
0.000000
  0
LINE
  8
51
 10
3.900000
 20
0.500000
 30
0.000000
 11
3.985000
 21
0.500000
 31
0.000000
  0
LINE
  8
51
 10
3.985000
 20
0.500000
 30
0.000000
 11
4.000000
 21
0.485000
 31
0.000000
  0
LINE
  8
51
 10
4.000000
 20
0.485000
 30
0.000000
 11
4.015000
 21
0.500000
 31
0.000000
  0
LINE
  8
51
 10
4.015000
 20
0.500000
 30
0.000000
 11
4.085000
 21
0.500000
 31
0.000000
  0
LINE
  8
51
 10
4.900000
 20
0.500000
 30
0.000000
 11
4.900000
 21
0.400000
 31
0.000000
  0
LINE
  8
51
 10
4.900000
 20
0.400000
 30
0.000000
 11
4.900000
 21
0.300000
 31
0.000000
  0
LINE
  8
51
 10
3.985000
 20
0.400000
 30
0.000000
 11
4.000000
 21
0.415000
 31
0.000000
  0
LINE
  8
51
 10
4.000000
 20
0.415000
 30
0.000000
 11
4.015000
 21
0.400000
 31
0.000000
  0
LINE
  8
51
 10
4.085000
 20
0.400000
 30
0.000000
 11
4.100000
 21
0.415000
 31
0.000000
  0
LINE
  8
51
 10
4.100000
 20
0.415000
 30
0.000000
 11
4.115000
 21
0.400000
 31
0.000000
  0
LINE
  8
51
 10
4.185000
 20
0.400000
 30
0.000000
 11
4.200000
 21
0.415000
 31
0.000000
  0
LINE
  8
51
 10
4.200000
 20
0.415000
 30
0.000000
 11
4.215000
 21
0.400000
 31
0.000000
  0
LINE
  8
51
 10
4.285000
 20
0.400000
 30
0.000000
 11
4.300000
 21
0.415000
 31
0.000000
  0
LINE
  8
51
 10
4.300000
 20
0.415000
 30
0.000000
 11
4.315000
 21
0.400000
 31
0.000000
  0
LINE
  8
51
 10
4.385000
 20
0.400000
 30
0.000000
 11
4.400000
 21
0.415000
 31
0.000000
  0
LINE
  8
51
 10
4.400000
 20
0.415000
 30
0.000000
 11
4.415000
 21
0.400000
 31
0.000000
  0
LINE
  8
51
 10
4.485000
 20
0.400000
 30
0.000000
 11
4.500000
 21
0.415000
 31
0.000000
  0
LINE
  8
51
 10
4.500000
 20
0.415000
 30
0.000000
 11
4.515000
 21
0.400000
 31
0.000000
  0
LINE
  8
51
 10
4.585000
 20
0.400000
 30
0.000000
 11
4.600000
 21
0.415000
 31
0.000000
  0
LINE
  8
51
 10
4.600000
 20
0.415000
 30
0.000000
 11
4.615000
 21
0.400000
 31
0.000000
  0
LINE
  8
51
 10
4.685000
 20
0.400000
 30
0.000000
 11
4.700000
 21
0.415000
 31
0.000000
  0
LINE
  8
51
 10
4.700000
 20
0.415000
 30
0.000000
 11
4.715000
 21
0.400000
 31
0.000000
  0
LINE
  8
51
 10
4.785000
 20
0.400000
 30
0.000000
 11
4.800000
 21
0.415000
 31
0.000000
  0
LINE
  8
51
 10
4.800000
 20
0.415000
 30
0.000000
 11
4.815000
 21
0.400000
 31
0.000000
  0
LINE
  8
51
 10
4.085000
 20
0.500000
 30
0.000000
 11
4.100000
 21
0.485000
 31
0.000000
  0
LINE
  8
51
 10
4.100000
 20
0.485000
 30
0.000000
 11
4.115000
 21
0.500000
 31
0.000000
  0
LINE
  8
51
 10
4.115000
 20
0.500000
 30
0.000000
 11
4.185000
 21
0.500000
 31
0.000000
  0
LINE
  8
51
 10
4.185000
 20
0.500000
 30
0.000000
 11
4.200000
 21
0.485000
 31
0.000000
  0
LINE
  8
51
 10
4.200000
 20
0.485000
 30
0.000000
 11
4.215000
 21
0.500000
 31
0.000000
  0
LINE
  8
51
 10
4.215000
 20
0.500000
 30
0.000000
 11
4.285000
 21
0.500000
 31
0.000000
  0
LINE
  8
51
 10
4.285000
 20
0.500000
 30
0.000000
 11
4.300000
 21
0.485000
 31
0.000000
  0
LINE
  8
51
 10
4.300000
 20
0.485000
 30
0.000000
 11
4.315000
 21
0.500000
 31
0.000000
  0
LINE
  8
51
 10
4.315000
 20
0.500000
 30
0.000000
 11
4.385000
 21
0.500000
 31
0.000000
  0
LINE
  8
51
 10
4.385000
 20
0.500000
 30
0.000000
 11
4.400000
 21
0.485000
 31
0.000000
  0
LINE
  8
51
 10
4.400000
 20
0.485000
 30
0.000000
 11
4.415000
 21
0.500000
 31
0.000000
  0
LINE
  8
51
 10
4.415000
 20
0.500000
 30
0.000000
 11
4.485000
 21
0.500000
 31
0.000000
  0
LINE
  8
51
 10
4.485000
 20
0.500000
 30
0.000000
 11
4.500000
 21
0.485000
 31
0.000000
  0
LINE
  8
51
 10
4.500000
 20
0.485000
 30
0.000000
 11
4.515000
 21
0.500000
 31
0.000000
  0
LINE
  8
51
 10
4.515000
 20
0.500000
 30
0.000000
 11
4.585000
 21
0.500000
 31
0.000000
  0
LINE
  8
51
 10
4.585000
 20
0.500000
 30
0.000000
 11
4.600000
 21
0.485000
 31
0.000000
  0
LINE
  8
51
 10
4.600000
 20
0.485000
 30
0.000000
 11
4.615000
 21
0.500000
 31
0.000000
  0
LINE
  8
51
 10
4.615000
 20
0.500000
 30
0.000000
 11
4.685000
 21
0.500000
 31
0.000000
  0
LINE
  8
51
 10
4.685000
 20
0.500000
 30
0.000000
 11
4.700000
 21
0.485000
 31
0.000000
  0
LINE
  8
51
 10
4.700000
 20
0.485000
 30
0.000000
 11
4.715000
 21
0.500000
 31
0.000000
  0
LINE
  8
51
 10
4.715000
 20
0.500000
 30
0.000000
 11
4.785000
 21
0.500000
 31
0.000000
  0
LINE
  8
51
 10
4.785000
 20
0.500000
 30
0.000000
 11
4.800000
 21
0.485000
 31
0.000000
  0
LINE
  8
51
 10
4.800000
 20
0.485000
 30
0.000000
 11
4.815000
 21
0.500000
 31
0.000000
  0
LINE
  8
51
 10
4.815000
 20
0.500000
 30
0.000000
 11
4.900000
 21
0.500000
 31
0.000000
  0
LINE
  8
51
 10
4.900000
 20
0.300000
 30
0.000000
 11
4.815000
 21
0.300000
 31
0.000000
  0
LINE
  8
51
 10
4.815000
 20
0.300000
 30
0.000000
 11
4.800000
 21
0.315000
 31
0.000000
  0
LINE
  8
51
 10
4.800000
 20
0.315000
 30
0.000000
 11
4.785000
 21
0.300000
 31
0.000000
  0
LINE
  8
51
 10
4.785000
 20
0.300000
 30
0.000000
 11
4.715000
 21
0.300000
 31
0.000000
  0
LINE
  8
51
 10
4.715000
 20
0.300000
 30
0.000000
 11
4.700000
 21
0.315000
 31
0.000000
  0
LINE
  8
51
 10
4.700000
 20
0.315000
 30
0.000000
 11
4.685000
 21
0.300000
 31
0.000000
  0
LINE
  8
51
 10
4.685000
 20
0.300000
 30
0.000000
 11
4.615000
 21
0.300000
 31
0.000000
  0
LINE
  8
51
 10
4.615000
 20
0.300000
 30
0.000000
 11
4.600000
 21
0.315000
 31
0.000000
  0
LINE
  8
51
 10
4.600000
 20
0.315000
 30
0.000000
 11
4.585000
 21
0.300000
 31
0.000000
  0
LINE
  8
51
 10
4.585000
 20
0.300000
 30
0.000000
 11
4.515000
 21
0.300000
 31
0.000000
  0
LINE
  8
51
 10
4.515000
 20
0.300000
 30
0.000000
 11
4.500000
 21
0.315000
 31
0.000000
  0
LINE
  8
51
 10
4.500000
 20
0.315000
 30
0.000000
 11
4.485000
 21
0.300000
 31
0.000000
  0
LINE
  8
51
 10
4.485000
 20
0.300000
 30
0.000000
 11
4.415000
 21
0.300000
 31
0.000000
  0
LINE
  8
51
 10
4.415000
 20
0.300000
 30
0.000000
 11
4.400000
 21
0.315000
 31
0.000000
  0
LINE
  8
51
 10
4.400000
 20
0.315000
 30
0.000000
 11
4.385000
 21
0.300000
 31
0.000000
  0
LINE
  8
51
 10
4.385000
 20
0.300000
 30
0.000000
 11
4.315000
 21
0.300000
 31
0.000000
  0
LINE
  8
51
 10
4.315000
 20
0.300000
 30
0.000000
 11
4.300000
 21
0.315000
 31
0.000000
  0
LINE
  8
51
 10
4.300000
 20
0.315000
 30
0.000000
 11
4.285000
 21
0.300000
 31
0.000000
  0
LINE
  8
51
 10
4.285000
 20
0.300000
 30
0.000000
 11
4.215000
 21
0.300000
 31
0.000000
  0
LINE
  8
51
 10
4.215000
 20
0.300000
 30
0.000000
 11
4.200000
 21
0.315000
 31
0.000000
  0
LINE
  8
51
 10
4.200000
 20
0.315000
 30
0.000000
 11
4.185000
 21
0.300000
 31
0.000000
  0
LINE
  8
51
 10
4.185000
 20
0.300000
 30
0.000000
 11
4.115000
 21
0.300000
 31
0.000000
  0
LINE
  8
51
 10
4.115000
 20
0.300000
 30
0.000000
 11
4.100000
 21
0.315000
 31
0.000000
  0
LINE
  8
51
 10
4.100000
 20
0.315000
 30
0.000000
 11
4.085000
 21
0.300000
 31
0.000000
  0
LINE
  8
51
 10
4.085000
 20
0.300000
 30
0.000000
 11
4.015000
 21
0.300000
 31
0.000000
  0
LINE
  8
51
 10
4.015000
 20
0.300000
 30
0.000000
 11
4.000000
 21
0.315000
 31
0.000000
  0
LINE
  8
51
 10
4.000000
 20
0.315000
 30
0.000000
 11
3.985000
 21
0.300000
 31
0.000000
  0
LINE
  8
51
 10
3.985000
 20
0.300000
 30
0.000000
 11
3.900000
 21
0.300000
 31
0.000000
  0
LINE
  8
51
 10
3.900000
 20
0.400000
 30
0.000000
 11
3.985000
 21
0.400000
 31
0.000000
  0
LINE
  8
51
 10
3.985000
 20
0.400000
 30
0.000000
 11
4.000000
 21
0.385000
 31
0.000000
  0
LINE
  8
51
 10
4.000000
 20
0.385000
 30
0.000000
 11
4.015000
 21
0.400000
 31
0.000000
  0
LINE
  8
51
 10
4.015000
 20
0.400000
 30
0.000000
 11
4.085000
 21
0.400000
 31
0.000000
  0
LINE
  8
51
 10
4.085000
 20
0.400000
 30
0.000000
 11
4.100000
 21
0.385000
 31
0.000000
  0
LINE
  8
51
 10
4.100000
 20
0.385000
 30
0.000000
 11
4.115000
 21
0.400000
 31
0.000000
  0
LINE
  8
51
 10
4.115000
 20
0.400000
 30
0.000000
 11
4.185000
 21
0.400000
 31
0.000000
  0
LINE
  8
51
 10
4.185000
 20
0.400000
 30
0.000000
 11
4.200000
 21
0.385000
 31
0.000000
  0
LINE
  8
51
 10
4.200000
 20
0.385000
 30
0.000000
 11
4.215000
 21
0.400000
 31
0.000000
  0
LINE
  8
51
 10
4.215000
 20
0.400000
 30
0.000000
 11
4.285000
 21
0.400000
 31
0.000000
  0
LINE
  8
51
 10
4.285000
 20
0.400000
 30
0.000000
 11
4.300000
 21
0.385000
 31
0.000000
  0
LINE
  8
51
 10
4.300000
 20
0.385000
 30
0.000000
 11
4.315000
 21
0.400000
 31
0.000000
  0
LINE
  8
51
 10
4.315000
 20
0.400000
 30
0.000000
 11
4.385000
 21
0.400000
 31
0.000000
  0
LINE
  8
51
 10
4.385000
 20
0.400000
 30
0.000000
 11
4.400000
 21
0.385000
 31
0.000000
  0
LINE
  8
51
 10
4.400000
 20
0.385000
 30
0.000000
 11
4.415000
 21
0.400000
 31
0.000000
  0
LINE
  8
51
 10
4.415000
 20
0.400000
 30
0.000000
 11
4.485000
 21
0.400000
 31
0.000000
  0
LINE
  8
51
 10
4.485000
 20
0.400000
 30
0.000000
 11
4.500000
 21
0.385000
 31
0.000000
  0
LINE
  8
51
 10
4.500000
 20
0.385000
 30
0.000000
 11
4.515000
 21
0.400000
 31
0.000000
  0
LINE
  8
51
 10
4.515000
 20
0.400000
 30
0.000000
 11
4.585000
 21
0.400000
 31
0.000000
  0
LINE
  8
51
 10
4.585000
 20
0.400000
 30
0.000000
 11
4.600000
 21
0.385000
 31
0.000000
  0
LINE
  8
51
 10
4.600000
 20
0.385000
 30
0.000000
 11
4.615000
 21
0.400000
 31
0.000000
  0
LINE
  8
51
 10
4.615000
 20
0.400000
 30
0.000000
 11
4.685000
 21
0.400000
 31
0.000000
  0
LINE
  8
51
 10
4.685000
 20
0.400000
 30
0.000000
 11
4.700000
 21
0.385000
 31
0.000000
  0
LINE
  8
51
 10
4.700000
 20
0.385000
 30
0.000000
 11
4.715000
 21
0.400000
 31
0.000000
  0
LINE
  8
51
 10
4.715000
 20
0.400000
 30
0.000000
 11
4.785000
 21
0.400000
 31
0.000000
  0
LINE
  8
51
 10
4.785000
 20
0.400000
 30
0.000000
 11
4.800000
 21
0.385000
 31
0.000000
  0
LINE
  8
51
 10
4.800000
 20
0.385000
 30
0.000000
 11
4.815000
 21
0.400000
 31
0.000000
  0
LINE
  8
51
 10
4.815000
 20
0.400000
 30
0.000000
 11
4.900000
 21
0.400000
 31
0.000000
  0
INSERT
  8
51
  2
RECT
 10
1.450000
 20
0.450000
 30
0.000000
 41
0.020000
 42
0.020000
 43
1.000000
 50
0.000000
  0
INSERT
  8
51
  2
RECT
 10
1.450000
 20
0.450000
 30
0.000000
 41
0.020000
 42
0.020000
 43
1.000000
 50
0.000000
  0
INSERT
  8
51
  2
RECT
 10
1.450000
 20
0.450000
 30
0.000000
 41
0.020000
 42
0.020000
 43
1.000000
 50
0.000000
  0
INSERT
  8
51
  2
RECT
 10
1.550000
 20
0.450000
 30
0.000000
 41
0.020000
 42
0.020000
 43
1.000000
 50
0.000000
  0
INSERT
  8
51
  2
RECT
 10
1.650000
 20
0.450000
 30
0.000000
 41
0.020000
 42
0.020000
 43
1.000000
 50
0.000000
  0
INSERT
  8
51
  2
RECT
 10
1.750000
 20
0.450000
 30
0.000000
 41
0.020000
 42
0.020000
 43
1.000000
 50
0.000000
  0
INSERT
  8
51
  2
RECT
 10
1.850000
 20
0.450000
 30
0.000000
 41
0.020000
 42
0.020000
 43
1.000000
 50
0.000000
  0
INSERT
  8
51
  2
RECT
 10
1.950000
 20
0.450000
 30
0.000000
 41
0.020000
 42
0.020000
 43
1.000000
 50
0.000000
  0
INSERT
  8
51
  2
RECT
 10
2.050000
 20
0.450000
 30
0.000000
 41
0.020000
 42
0.020000
 43
1.000000
 50
0.000000
  0
INSERT
  8
51
  2
RECT
 10
2.150000
 20
0.450000
 30
0.000000
 41
0.020000
 42
0.020000
 43
1.000000
 50
0.000000
  0
INSERT
  8
51
  2
RECT
 10
2.250000
 20
0.450000
 30
0.000000
 41
0.020000
 42
0.020000
 43
1.000000
 50
0.000000
  0
INSERT
  8
51
  2
RECT
 10
2.350000
 20
0.450000
 30
0.000000
 41
0.020000
 42
0.020000
 43
1.000000
 50
0.000000
  0
INSERT
  8
51
  2
RECT
 10
2.350000
 20
0.350000
 30
0.000000
 41
0.020000
 42
0.020000
 43
1.000000
 50
0.000000
  0
INSERT
  8
51
  2
RECT
 10
2.250000
 20
0.350000
 30
0.000000
 41
0.020000
 42
0.020000
 43
1.000000
 50
0.000000
  0
INSERT
  8
51
  2
RECT
 10
2.150000
 20
0.350000
 30
0.000000
 41
0.020000
 42
0.020000
 43
1.000000
 50
0.000000
  0
INSERT
  8
51
  2
RECT
 10
2.050000
 20
0.350000
 30
0.000000
 41
0.020000
 42
0.020000
 43
1.000000
 50
0.000000
  0
INSERT
  8
51
  2
RECT
 10
1.950000
 20
0.350000
 30
0.000000
 41
0.020000
 42
0.020000
 43
1.000000
 50
0.000000
  0
INSERT
  8
51
  2
RECT
 10
1.850000
 20
0.350000
 30
0.000000
 41
0.020000
 42
0.020000
 43
1.000000
 50
0.000000
  0
INSERT
  8
51
  2
RECT
 10
1.750000
 20
0.350000
 30
0.000000
 41
0.020000
 42
0.020000
 43
1.000000
 50
0.000000
  0
INSERT
  8
51
  2
RECT
 10
1.650000
 20
0.350000
 30
0.000000
 41
0.020000
 42
0.020000
 43
1.000000
 50
0.000000
  0
INSERT
  8
51
  2
RECT
 10
1.550000
 20
0.350000
 30
0.000000
 41
0.020000
 42
0.020000
 43
1.000000
 50
0.000000
  0
INSERT
  8
51
  2
RECT
 10
1.450000
 20
0.350000
 30
0.000000
 41
0.020000
 42
0.020000
 43
1.000000
 50
0.000000
  0
INSERT
  8
51
  2
RECT
 10
1.450000
 20
2.150000
 30
0.000000
 41
0.020000
 42
0.020000
 43
1.000000
 50
0.000000
  0
INSERT
  8
51
  2
RECT
 10
1.450000
 20
2.050000
 30
0.000000
 41
0.020000
 42
0.020000
 43
1.000000
 50
0.000000
  0
INSERT
  8
51
  2
RECT
 10
1.550000
 20
2.050000
 30
0.000000
 41
0.020000
 42
0.020000
 43
1.000000
 50
0.000000
  0
INSERT
  8
51
  2
RECT
 10
1.550000
 20
2.150000
 30
0.000000
 41
0.020000
 42
0.020000
 43
1.000000
 50
0.000000
  0
INSERT
  8
51
  2
RECT
 10
1.650000
 20
2.150000
 30
0.000000
 41
0.020000
 42
0.020000
 43
1.000000
 50
0.000000
  0
INSERT
  8
51
  2
RECT
 10
1.650000
 20
2.050000
 30
0.000000
 41
0.020000
 42
0.020000
 43
1.000000
 50
0.000000
  0
INSERT
  8
51
  2
RECT
 10
1.750000
 20
2.050000
 30
0.000000
 41
0.020000
 42
0.020000
 43
1.000000
 50
0.000000
  0
INSERT
  8
51
  2
RECT
 10
1.750000
 20
2.150000
 30
0.000000
 41
0.020000
 42
0.020000
 43
1.000000
 50
0.000000
  0
INSERT
  8
51
  2
RECT
 10
1.850000
 20
2.150000
 30
0.000000
 41
0.020000
 42
0.020000
 43
1.000000
 50
0.000000
  0
INSERT
  8
51
  2
RECT
 10
1.850000
 20
2.050000
 30
0.000000
 41
0.020000
 42
0.020000
 43
1.000000
 50
0.000000
  0
INSERT
  8
51
  2
RECT
 10
1.950000
 20
2.050000
 30
0.000000
 41
0.020000
 42
0.020000
 43
1.000000
 50
0.000000
  0
INSERT
  8
51
  2
RECT
 10
1.950000
 20
2.150000
 30
0.000000
 41
0.020000
 42
0.020000
 43
1.000000
 50
0.000000
  0
INSERT
  8
51
  2
RECT
 10
2.050000
 20
2.150000
 30
0.000000
 41
0.020000
 42
0.020000
 43
1.000000
 50
0.000000
  0
INSERT
  8
51
  2
RECT
 10
2.050000
 20
2.050000
 30
0.000000
 41
0.020000
 42
0.020000
 43
1.000000
 50
0.000000
  0
INSERT
  8
51
  2
RECT
 10
2.150000
 20
2.050000
 30
0.000000
 41
0.020000
 42
0.020000
 43
1.000000
 50
0.000000
  0
INSERT
  8
51
  2
RECT
 10
2.150000
 20
2.150000
 30
0.000000
 41
0.020000
 42
0.020000
 43
1.000000
 50
0.000000
  0
INSERT
  8
51
  2
RECT
 10
2.250000
 20
2.150000
 30
0.000000
 41
0.020000
 42
0.020000
 43
1.000000
 50
0.000000
  0
INSERT
  8
51
  2
RECT
 10
2.250000
 20
2.050000
 30
0.000000
 41
0.020000
 42
0.020000
 43
1.000000
 50
0.000000
  0
INSERT
  8
51
  2
RECT
 10
2.350000
 20
2.050000
 30
0.000000
 41
0.020000
 42
0.020000
 43
1.000000
 50
0.000000
  0
INSERT
  8
51
  2
RECT
 10
2.350000
 20
2.150000
 30
0.000000
 41
0.020000
 42
0.020000
 43
1.000000
 50
0.000000
  0
INSERT
  8
51
  2
RECT
 10
3.950000
 20
2.150000
 30
0.000000
 41
0.020000
 42
0.020000
 43
1.000000
 50
0.000000
  0
INSERT
  8
51
  2
RECT
 10
3.950000
 20
2.050000
 30
0.000000
 41
0.020000
 42
0.020000
 43
1.000000
 50
0.000000
  0
INSERT
  8
51
  2
RECT
 10
4.050000
 20
2.050000
 30
0.000000
 41
0.020000
 42
0.020000
 43
1.000000
 50
0.000000
  0
INSERT
  8
51
  2
RECT
 10
4.050000
 20
2.150000
 30
0.000000
 41
0.020000
 42
0.020000
 43
1.000000
 50
0.000000
  0
INSERT
  8
51
  2
RECT
 10
4.150000
 20
2.150000
 30
0.000000
 41
0.020000
 42
0.020000
 43
1.000000
 50
0.000000
  0
INSERT
  8
51
  2
RECT
 10
4.150000
 20
2.050000
 30
0.000000
 41
0.020000
 42
0.020000
 43
1.000000
 50
0.000000
  0
INSERT
  8
51
  2
RECT
 10
4.250000
 20
2.150000
 30
0.000000
 41
0.020000
 42
0.020000
 43
1.000000
 50
0.000000
  0
INSERT
  8
51
  2
RECT
 10
4.250000
 20
2.050000
 30
0.000000
 41
0.020000
 42
0.020000
 43
1.000000
 50
0.000000
  0
INSERT
  8
51
  2
RECT
 10
4.350000
 20
2.050000
 30
0.000000
 41
0.020000
 42
0.020000
 43
1.000000
 50
0.000000
  0
INSERT
  8
51
  2
RECT
 10
4.350000
 20
2.150000
 30
0.000000
 41
0.020000
 42
0.020000
 43
1.000000
 50
0.000000
  0
INSERT
  8
51
  2
RECT
 10
4.450000
 20
2.150000
 30
0.000000
 41
0.020000
 42
0.020000
 43
1.000000
 50
0.000000
  0
INSERT
  8
51
  2
RECT
 10
4.450000
 20
2.050000
 30
0.000000
 41
0.020000
 42
0.020000
 43
1.000000
 50
0.000000
  0
INSERT
  8
51
  2
RECT
 10
4.550000
 20
2.050000
 30
0.000000
 41
0.020000
 42
0.020000
 43
1.000000
 50
0.000000
  0
INSERT
  8
51
  2
RECT
 10
4.550000
 20
2.150000
 30
0.000000
 41
0.020000
 42
0.020000
 43
1.000000
 50
0.000000
  0
INSERT
  8
51
  2
RECT
 10
4.650000
 20
2.150000
 30
0.000000
 41
0.020000
 42
0.020000
 43
1.000000
 50
0.000000
  0
INSERT
  8
51
  2
RECT
 10
4.650000
 20
2.050000
 30
0.000000
 41
0.020000
 42
0.020000
 43
1.000000
 50
0.000000
  0
INSERT
  8
51
  2
RECT
 10
4.750000
 20
2.050000
 30
0.000000
 41
0.020000
 42
0.020000
 43
1.000000
 50
0.000000
  0
INSERT
  8
51
  2
RECT
 10
4.750000
 20
2.150000
 30
0.000000
 41
0.020000
 42
0.020000
 43
1.000000
 50
0.000000
  0
INSERT
  8
51
  2
RECT
 10
4.850000
 20
2.150000
 30
0.000000
 41
0.020000
 42
0.020000
 43
1.000000
 50
0.000000
  0
INSERT
  8
51
  2
RECT
 10
4.850000
 20
2.050000
 30
0.000000
 41
0.020000
 42
0.020000
 43
1.000000
 50
0.000000
  0
INSERT
  8
51
  2
RECT
 10
3.950000
 20
0.450000
 30
0.000000
 41
0.020000
 42
0.020000
 43
1.000000
 50
0.000000
  0
INSERT
  8
51
  2
RECT
 10
3.950000
 20
0.350000
 30
0.000000
 41
0.020000
 42
0.020000
 43
1.000000
 50
0.000000
  0
INSERT
  8
51
  2
RECT
 10
4.050000
 20
0.350000
 30
0.000000
 41
0.020000
 42
0.020000
 43
1.000000
 50
0.000000
  0
INSERT
  8
51
  2
RECT
 10
4.050000
 20
0.450000
 30
0.000000
 41
0.020000
 42
0.020000
 43
1.000000
 50
0.000000
  0
INSERT
  8
51
  2
RECT
 10
4.150000
 20
0.450000
 30
0.000000
 41
0.020000
 42
0.020000
 43
1.000000
 50
0.000000
  0
INSERT
  8
51
  2
RECT
 10
4.150000
 20
0.350000
 30
0.000000
 41
0.020000
 42
0.020000
 43
1.000000
 50
0.000000
  0
INSERT
  8
51
  2
RECT
 10
4.250000
 20
0.350000
 30
0.000000
 41
0.020000
 42
0.020000
 43
1.000000
 50
0.000000
  0
INSERT
  8
51
  2
RECT
 10
4.250000
 20
0.450000
 30
0.000000
 41
0.020000
 42
0.020000
 43
1.000000
 50
0.000000
  0
INSERT
  8
51
  2
RECT
 10
4.350000
 20
0.450000
 30
0.000000
 41
0.020000
 42
0.020000
 43
1.000000
 50
0.000000
  0
INSERT
  8
51
  2
RECT
 10
4.350000
 20
0.350000
 30
0.000000
 41
0.020000
 42
0.020000
 43
1.000000
 50
0.000000
  0
INSERT
  8
51
  2
RECT
 10
4.450000
 20
0.350000
 30
0.000000
 41
0.020000
 42
0.020000
 43
1.000000
 50
0.000000
  0
INSERT
  8
51
  2
RECT
 10
4.450000
 20
0.450000
 30
0.000000
 41
0.020000
 42
0.020000
 43
1.000000
 50
0.000000
  0
INSERT
  8
51
  2
RECT
 10
4.550000
 20
0.450000
 30
0.000000
 41
0.020000
 42
0.020000
 43
1.000000
 50
0.000000
  0
INSERT
  8
51
  2
RECT
 10
4.550000
 20
0.350000
 30
0.000000
 41
0.020000
 42
0.020000
 43
1.000000
 50
0.000000
  0
INSERT
  8
51
  2
RECT
 10
4.650000
 20
0.350000
 30
0.000000
 41
0.020000
 42
0.020000
 43
1.000000
 50
0.000000
  0
INSERT
  8
51
  2
RECT
 10
4.650000
 20
0.450000
 30
0.000000
 41
0.020000
 42
0.020000
 43
1.000000
 50
0.000000
  0
INSERT
  8
51
  2
RECT
 10
4.750000
 20
0.450000
 30
0.000000
 41
0.020000
 42
0.020000
 43
1.000000
 50
0.000000
  0
INSERT
  8
51
  2
RECT
 10
4.750000
 20
0.350000
 30
0.000000
 41
0.020000
 42
0.020000
 43
1.000000
 50
0.000000
  0
INSERT
  8
51
  2
RECT
 10
4.850000
 20
0.350000
 30
0.000000
 41
0.020000
 42
0.020000
 43
1.000000
 50
0.000000
  0
INSERT
  8
51
  2
RECT
 10
4.850000
 20
0.450000
 30
0.000000
 41
0.020000
 42
0.020000
 43
1.000000
 50
0.000000
  0
INSERT
  8
17
  2
OCTAGONP
 10
2.350000
 20
2.150000
 30
0.000000
 41
0.060000
 42
0.060000
 43
1.000000
 50
0.000000
  0
INSERT
  8
17
  2
OCTAGONP
 10
2.350000
 20
2.150000
 30
0.000000
 41
0.060000
 42
0.060000
 43
1.000000
 50
0.000000
  0
INSERT
  8
17
  2
OCTAGONP
 10
4.850000
 20
2.150000
 30
0.000000
 41
0.060000
 42
0.060000
 43
1.000000
 50
0.000000
  0
INSERT
  8
17
  2
OCTAGONP
 10
4.850000
 20
2.150000
 30
0.000000
 41
0.060000
 42
0.060000
 43
1.000000
 50
0.000000
  0
INSERT
  8
17
  2
OCTAGONP
 10
2.350000
 20
2.050000
 30
0.000000
 41
0.060000
 42
0.060000
 43
1.000000
 50
0.000000
  0
INSERT
  8
17
  2
OCTAGONP
 10
2.350000
 20
2.050000
 30
0.000000
 41
0.060000
 42
0.060000
 43
1.000000
 50
0.000000
  0
INSERT
  8
17
  2
OCTAGONP
 10
4.850000
 20
2.050000
 30
0.000000
 41
0.060000
 42
0.060000
 43
1.000000
 50
0.000000
  0
INSERT
  8
17
  2
OCTAGONP
 10
4.850000
 20
2.050000
 30
0.000000
 41
0.060000
 42
0.060000
 43
1.000000
 50
0.000000
  0
INSERT
  8
17
  2
OCTAGONP
 10
2.250000
 20
2.050000
 30
0.000000
 41
0.060000
 42
0.060000
 43
1.000000
 50
0.000000
  0
INSERT
  8
17
  2
OCTAGONP
 10
2.250000
 20
2.050000
 30
0.000000
 41
0.060000
 42
0.060000
 43
1.000000
 50
0.000000
  0
INSERT
  8
17
  2
OCTAGONP
 10
2.350000
 20
0.350000
 30
0.000000
 41
0.060000
 42
0.060000
 43
1.000000
 50
0.000000
  0
INSERT
  8
17
  2
OCTAGONP
 10
2.350000
 20
0.350000
 30
0.000000
 41
0.060000
 42
0.060000
 43
1.000000
 50
0.000000
  0
INSERT
  8
17
  2
OCTAGONP
 10
4.750000
 20
2.050000
 30
0.000000
 41
0.060000
 42
0.060000
 43
1.000000
 50
0.000000
  0
INSERT
  8
17
  2
OCTAGONP
 10
4.750000
 20
2.050000
 30
0.000000
 41
0.060000
 42
0.060000
 43
1.000000
 50
0.000000
  0
INSERT
  8
17
  2
OCTAGONP
 10
4.850000
 20
0.350000
 30
0.000000
 41
0.060000
 42
0.060000
 43
1.000000
 50
0.000000
  0
INSERT
  8
17
  2
OCTAGONP
 10
4.850000
 20
0.350000
 30
0.000000
 41
0.060000
 42
0.060000
 43
1.000000
 50
0.000000
  0
INSERT
  8
17
  2
OCTAGONP
 10
1.550000
 20
2.050000
 30
0.000000
 41
0.060000
 42
0.060000
 43
1.000000
 50
0.000000
  0
INSERT
  8
17
  2
OCTAGONP
 10
1.550000
 20
2.050000
 30
0.000000
 41
0.060000
 42
0.060000
 43
1.000000
 50
0.000000
  0
INSERT
  8
17
  2
OCTAGONP
 10
1.450000
 20
2.050000
 30
0.000000
 41
0.060000
 42
0.060000
 43
1.000000
 50
0.000000
  0
INSERT
  8
17
  2
OCTAGONP
 10
1.450000
 20
2.050000
 30
0.000000
 41
0.060000
 42
0.060000
 43
1.000000
 50
0.000000
  0
INSERT
  8
17
  2
OCTAGONP
 10
4.150000
 20
2.050000
 30
0.000000
 41
0.060000
 42
0.060000
 43
1.000000
 50
0.000000
  0
INSERT
  8
17
  2
OCTAGONP
 10
4.150000
 20
2.050000
 30
0.000000
 41
0.060000
 42
0.060000
 43
1.000000
 50
0.000000
  0
INSERT
  8
17
  2
OCTAGONP
 10
2.050000
 20
0.350000
 30
0.000000
 41
0.060000
 42
0.060000
 43
1.000000
 50
0.000000
  0
INSERT
  8
17
  2
OCTAGONP
 10
2.050000
 20
0.350000
 30
0.000000
 41
0.060000
 42
0.060000
 43
1.000000
 50
0.000000
  0
INSERT
  8
17
  2
OCTAGONP
 10
4.050000
 20
2.150000
 30
0.000000
 41
0.060000
 42
0.060000
 43
1.000000
 50
0.000000
  0
INSERT
  8
17
  2
OCTAGONP
 10
4.050000
 20
2.150000
 30
0.000000
 41
0.060000
 42
0.060000
 43
1.000000
 50
0.000000
  0
INSERT
  8
17
  2
OCTAGONP
 10
3.950000
 20
2.150000
 30
0.000000
 41
0.060000
 42
0.060000
 43
1.000000
 50
0.000000
  0
INSERT
  8
17
  2
OCTAGONP
 10
3.950000
 20
2.150000
 30
0.000000
 41
0.060000
 42
0.060000
 43
1.000000
 50
0.000000
  0
INSERT
  8
17
  2
OCTAGONP
 10
2.150000
 20
2.050000
 30
0.000000
 41
0.060000
 42
0.060000
 43
1.000000
 50
0.000000
  0
INSERT
  8
17
  2
OCTAGONP
 10
2.150000
 20
2.050000
 30
0.000000
 41
0.060000
 42
0.060000
 43
1.000000
 50
0.000000
  0
INSERT
  8
17
  2
OCTAGONP
 10
2.050000
 20
2.050000
 30
0.000000
 41
0.060000
 42
0.060000
 43
1.000000
 50
0.000000
  0
INSERT
  8
17
  2
OCTAGONP
 10
2.050000
 20
2.050000
 30
0.000000
 41
0.060000
 42
0.060000
 43
1.000000
 50
0.000000
  0
INSERT
  8
17
  2
OCTAGONP
 10
4.650000
 20
2.150000
 30
0.000000
 41
0.060000
 42
0.060000
 43
1.000000
 50
0.000000
  0
INSERT
  8
17
  2
OCTAGONP
 10
4.650000
 20
2.150000
 30
0.000000
 41
0.060000
 42
0.060000
 43
1.000000
 50
0.000000
  0
INSERT
  8
17
  2
OCTAGONP
 10
4.550000
 20
2.150000
 30
0.000000
 41
0.060000
 42
0.060000
 43
1.000000
 50
0.000000
  0
INSERT
  8
17
  2
OCTAGONP
 10
4.550000
 20
2.150000
 30
0.000000
 41
0.060000
 42
0.060000
 43
1.000000
 50
0.000000
  0
INSERT
  8
17
  2
OCTAGONP
 10
4.450000
 20
2.150000
 30
0.000000
 41
0.060000
 42
0.060000
 43
1.000000
 50
0.000000
  0
INSERT
  8
17
  2
OCTAGONP
 10
4.450000
 20
2.150000
 30
0.000000
 41
0.060000
 42
0.060000
 43
1.000000
 50
0.000000
  0
INSERT
  8
17
  2
OCTAGONP
 10
4.150000
 20
2.150000
 30
0.000000
 41
0.060000
 42
0.060000
 43
1.000000
 50
0.000000
  0
INSERT
  8
17
  2
OCTAGONP
 10
4.150000
 20
2.150000
 30
0.000000
 41
0.060000
 42
0.060000
 43
1.000000
 50
0.000000
  0
INSERT
  8
17
  2
OCTAGONP
 10
4.250000
 20
0.350000
 30
0.000000
 41
0.060000
 42
0.060000
 43
1.000000
 50
0.000000
  0
INSERT
  8
17
  2
OCTAGONP
 10
4.250000
 20
0.350000
 30
0.000000
 41
0.060000
 42
0.060000
 43
1.000000
 50
0.000000
  0
INSERT
  8
17
  2
OCTAGONP
 10
4.350000
 20
0.350000
 30
0.000000
 41
0.060000
 42
0.060000
 43
1.000000
 50
0.000000
  0
INSERT
  8
17
  2
OCTAGONP
 10
4.350000
 20
0.350000
 30
0.000000
 41
0.060000
 42
0.060000
 43
1.000000
 50
0.000000
  0
INSERT
  8
17
  2
OCTAGONP
 10
2.250000
 20
2.150000
 30
0.000000
 41
0.060000
 42
0.060000
 43
1.000000
 50
0.000000
  0
INSERT
  8
17
  2
OCTAGONP
 10
2.250000
 20
2.150000
 30
0.000000
 41
0.060000
 42
0.060000
 43
1.000000
 50
0.000000
  0
INSERT
  8
17
  2
OCTAGONP
 10
4.250000
 20
2.150000
 30
0.000000
 41
0.060000
 42
0.060000
 43
1.000000
 50
0.000000
  0
INSERT
  8
17
  2
OCTAGONP
 10
4.250000
 20
2.150000
 30
0.000000
 41
0.060000
 42
0.060000
 43
1.000000
 50
0.000000
  0
INSERT
  8
17
  2
OCTAGONP
 10
1.950000
 20
2.150000
 30
0.000000
 41
0.060000
 42
0.060000
 43
1.000000
 50
0.000000
  0
INSERT
  8
17
  2
OCTAGONP
 10
1.950000
 20
2.150000
 30
0.000000
 41
0.060000
 42
0.060000
 43
1.000000
 50
0.000000
  0
INSERT
  8
17
  2
OCTAGONP
 10
1.850000
 20
2.150000
 30
0.000000
 41
0.060000
 42
0.060000
 43
1.000000
 50
0.000000
  0
INSERT
  8
17
  2
OCTAGONP
 10
1.850000
 20
2.150000
 30
0.000000
 41
0.060000
 42
0.060000
 43
1.000000
 50
0.000000
  0
INSERT
  8
17
  2
OCTAGONP
 10
4.250000
 20
2.050000
 30
0.000000
 41
0.060000
 42
0.060000
 43
1.000000
 50
0.000000
  0
INSERT
  8
17
  2
OCTAGONP
 10
4.250000
 20
2.050000
 30
0.000000
 41
0.060000
 42
0.060000
 43
1.000000
 50
0.000000
  0
INSERT
  8
17
  2
OCTAGONP
 10
4.650000
 20
2.050000
 30
0.000000
 41
0.060000
 42
0.060000
 43
1.000000
 50
0.000000
  0
INSERT
  8
17
  2
OCTAGONP
 10
4.650000
 20
2.050000
 30
0.000000
 41
0.060000
 42
0.060000
 43
1.000000
 50
0.000000
  0
INSERT
  8
17
  2
OCTAGONP
 10
4.550000
 20
2.050000
 30
0.000000
 41
0.060000
 42
0.060000
 43
1.000000
 50
0.000000
  0
INSERT
  8
17
  2
OCTAGONP
 10
4.550000
 20
2.050000
 30
0.000000
 41
0.060000
 42
0.060000
 43
1.000000
 50
0.000000
  0
INSERT
  8
17
  2
OCTAGONP
 10
4.450000
 20
2.050000
 30
0.000000
 41
0.060000
 42
0.060000
 43
1.000000
 50
0.000000
  0
INSERT
  8
17
  2
OCTAGONP
 10
4.450000
 20
2.050000
 30
0.000000
 41
0.060000
 42
0.060000
 43
1.000000
 50
0.000000
  0
INSERT
  8
17
  2
OCTAGONP
 10
4.350000
 20
2.050000
 30
0.000000
 41
0.060000
 42
0.060000
 43
1.000000
 50
0.000000
  0
INSERT
  8
17
  2
OCTAGONP
 10
4.350000
 20
2.050000
 30
0.000000
 41
0.060000
 42
0.060000
 43
1.000000
 50
0.000000
  0
INSERT
  8
17
  2
OCTAGONP
 10
4.750000
 20
2.150000
 30
0.000000
 41
0.060000
 42
0.060000
 43
1.000000
 50
0.000000
  0
INSERT
  8
17
  2
OCTAGONP
 10
4.750000
 20
2.150000
 30
0.000000
 41
0.060000
 42
0.060000
 43
1.000000
 50
0.000000
  0
INSERT
  8
17
  2
OCTAGONP
 10
4.350000
 20
2.150000
 30
0.000000
 41
0.060000
 42
0.060000
 43
1.000000
 50
0.000000
  0
INSERT
  8
17
  2
OCTAGONP
 10
4.350000
 20
2.150000
 30
0.000000
 41
0.060000
 42
0.060000
 43
1.000000
 50
0.000000
  0
INSERT
  8
17
  2
OCTAGONP
 10
4.850000
 20
0.450000
 30
0.000000
 41
0.060000
 42
0.060000
 43
1.000000
 50
0.000000
  0
INSERT
  8
17
  2
OCTAGONP
 10
4.850000
 20
0.450000
 30
0.000000
 41
0.060000
 42
0.060000
 43
1.000000
 50
0.000000
  0
INSERT
  8
17
  2
OCTAGONP
 10
4.750000
 20
0.450000
 30
0.000000
 41
0.060000
 42
0.060000
 43
1.000000
 50
0.000000
  0
INSERT
  8
17
  2
OCTAGONP
 10
4.750000
 20
0.450000
 30
0.000000
 41
0.060000
 42
0.060000
 43
1.000000
 50
0.000000
  0
INSERT
  8
17
  2
OCTAGONP
 10
4.650000
 20
0.450000
 30
0.000000
 41
0.060000
 42
0.060000
 43
1.000000
 50
0.000000
  0
INSERT
  8
17
  2
OCTAGONP
 10
4.650000
 20
0.450000
 30
0.000000
 41
0.060000
 42
0.060000
 43
1.000000
 50
0.000000
  0
INSERT
  8
17
  2
OCTAGONP
 10
4.550000
 20
0.450000
 30
0.000000
 41
0.060000
 42
0.060000
 43
1.000000
 50
0.000000
  0
INSERT
  8
17
  2
OCTAGONP
 10
4.550000
 20
0.450000
 30
0.000000
 41
0.060000
 42
0.060000
 43
1.000000
 50
0.000000
  0
INSERT
  8
17
  2
OCTAGONP
 10
2.350000
 20
0.450000
 30
0.000000
 41
0.060000
 42
0.060000
 43
1.000000
 50
0.000000
  0
INSERT
  8
17
  2
OCTAGONP
 10
2.350000
 20
0.450000
 30
0.000000
 41
0.060000
 42
0.060000
 43
1.000000
 50
0.000000
  0
INSERT
  8
17
  2
OCTAGONP
 10
1.750000
 20
0.450000
 30
0.000000
 41
0.060000
 42
0.060000
 43
1.000000
 50
0.000000
  0
INSERT
  8
17
  2
OCTAGONP
 10
1.750000
 20
0.450000
 30
0.000000
 41
0.060000
 42
0.060000
 43
1.000000
 50
0.000000
  0
INSERT
  8
17
  2
OCTAGONP
 10
1.650000
 20
0.450000
 30
0.000000
 41
0.060000
 42
0.060000
 43
1.000000
 50
0.000000
  0
INSERT
  8
17
  2
OCTAGONP
 10
1.650000
 20
0.450000
 30
0.000000
 41
0.060000
 42
0.060000
 43
1.000000
 50
0.000000
  0
INSERT
  8
17
  2
OCTAGONP
 10
4.650000
 20
0.350000
 30
0.000000
 41
0.060000
 42
0.060000
 43
1.000000
 50
0.000000
  0
INSERT
  8
17
  2
OCTAGONP
 10
4.650000
 20
0.350000
 30
0.000000
 41
0.060000
 42
0.060000
 43
1.000000
 50
0.000000
  0
INSERT
  8
17
  2
OCTAGONP
 10
4.550000
 20
0.350000
 30
0.000000
 41
0.060000
 42
0.060000
 43
1.000000
 50
0.000000
  0
INSERT
  8
17
  2
OCTAGONP
 10
4.550000
 20
0.350000
 30
0.000000
 41
0.060000
 42
0.060000
 43
1.000000
 50
0.000000
  0
INSERT
  8
17
  2
OCTAGONP
 10
1.950000
 20
2.050000
 30
0.000000
 41
0.060000
 42
0.060000
 43
1.000000
 50
0.000000
  0
INSERT
  8
17
  2
OCTAGONP
 10
1.950000
 20
2.050000
 30
0.000000
 41
0.060000
 42
0.060000
 43
1.000000
 50
0.000000
  0
INSERT
  8
17
  2
OCTAGONP
 10
1.850000
 20
2.050000
 30
0.000000
 41
0.060000
 42
0.060000
 43
1.000000
 50
0.000000
  0
INSERT
  8
17
  2
OCTAGONP
 10
1.850000
 20
2.050000
 30
0.000000
 41
0.060000
 42
0.060000
 43
1.000000
 50
0.000000
  0
INSERT
  8
17
  2
OCTAGONP
 10
1.750000
 20
2.050000
 30
0.000000
 41
0.060000
 42
0.060000
 43
1.000000
 50
0.000000
  0
INSERT
  8
17
  2
OCTAGONP
 10
1.750000
 20
2.050000
 30
0.000000
 41
0.060000
 42
0.060000
 43
1.000000
 50
0.000000
  0
INSERT
  8
17
  2
OCTAGONP
 10
1.650000
 20
2.050000
 30
0.000000
 41
0.060000
 42
0.060000
 43
1.000000
 50
0.000000
  0
INSERT
  8
17
  2
OCTAGONP
 10
1.650000
 20
2.050000
 30
0.000000
 41
0.060000
 42
0.060000
 43
1.000000
 50
0.000000
  0
INSERT
  8
17
  2
OCTAGONP
 10
2.250000
 20
0.450000
 30
0.000000
 41
0.060000
 42
0.060000
 43
1.000000
 50
0.000000
  0
INSERT
  8
17
  2
OCTAGONP
 10
2.250000
 20
0.450000
 30
0.000000
 41
0.060000
 42
0.060000
 43
1.000000
 50
0.000000
  0
INSERT
  8
17
  2
OCTAGONP
 10
2.150000
 20
0.450000
 30
0.000000
 41
0.060000
 42
0.060000
 43
1.000000
 50
0.000000
  0
INSERT
  8
17
  2
OCTAGONP
 10
2.150000
 20
0.450000
 30
0.000000
 41
0.060000
 42
0.060000
 43
1.000000
 50
0.000000
  0
INSERT
  8
17
  2
OCTAGONP
 10
1.550000
 20
0.450000
 30
0.000000
 41
0.060000
 42
0.060000
 43
1.000000
 50
0.000000
  0
INSERT
  8
17
  2
OCTAGONP
 10
1.550000
 20
0.450000
 30
0.000000
 41
0.060000
 42
0.060000
 43
1.000000
 50
0.000000
  0
INSERT
  8
17
  2
OCTAGONP
 10
1.450000
 20
0.450000
 30
0.000000
 41
0.060000
 42
0.060000
 43
1.000000
 50
0.000000
  0
INSERT
  8
17
  2
OCTAGONP
 10
1.450000
 20
0.450000
 30
0.000000
 41
0.060000
 42
0.060000
 43
1.000000
 50
0.000000
  0
INSERT
  8
17
  2
OCTAGONP
 10
4.250000
 20
0.450000
 30
0.000000
 41
0.060000
 42
0.060000
 43
1.000000
 50
0.000000
  0
INSERT
  8
17
  2
OCTAGONP
 10
4.250000
 20
0.450000
 30
0.000000
 41
0.060000
 42
0.060000
 43
1.000000
 50
0.000000
  0
INSERT
  8
17
  2
OCTAGONP
 10
4.150000
 20
0.450000
 30
0.000000
 41
0.060000
 42
0.060000
 43
1.000000
 50
0.000000
  0
INSERT
  8
17
  2
OCTAGONP
 10
4.150000
 20
0.450000
 30
0.000000
 41
0.060000
 42
0.060000
 43
1.000000
 50
0.000000
  0
INSERT
  8
17
  2
OCTAGONP
 10
4.050000
 20
0.450000
 30
0.000000
 41
0.060000
 42
0.060000
 43
1.000000
 50
0.000000
  0
INSERT
  8
17
  2
OCTAGONP
 10
4.050000
 20
0.450000
 30
0.000000
 41
0.060000
 42
0.060000
 43
1.000000
 50
0.000000
  0
INSERT
  8
17
  2
OCTAGONP
 10
3.950000
 20
0.450000
 30
0.000000
 41
0.060000
 42
0.060000
 43
1.000000
 50
0.000000
  0
INSERT
  8
17
  2
OCTAGONP
 10
3.950000
 20
0.450000
 30
0.000000
 41
0.060000
 42
0.060000
 43
1.000000
 50
0.000000
  0
INSERT
  8
17
  2
OCTAGONP
 10
4.450000
 20
0.450000
 30
0.000000
 41
0.060000
 42
0.060000
 43
1.000000
 50
0.000000
  0
INSERT
  8
17
  2
OCTAGONP
 10
4.450000
 20
0.450000
 30
0.000000
 41
0.060000
 42
0.060000
 43
1.000000
 50
0.000000
  0
INSERT
  8
17
  2
OCTAGONP
 10
4.350000
 20
0.450000
 30
0.000000
 41
0.060000
 42
0.060000
 43
1.000000
 50
0.000000
  0
INSERT
  8
17
  2
OCTAGONP
 10
4.350000
 20
0.450000
 30
0.000000
 41
0.060000
 42
0.060000
 43
1.000000
 50
0.000000
  0
INSERT
  8
17
  2
OCTAGONP
 10
2.050000
 20
0.450000
 30
0.000000
 41
0.060000
 42
0.060000
 43
1.000000
 50
0.000000
  0
INSERT
  8
17
  2
OCTAGONP
 10
2.050000
 20
0.450000
 30
0.000000
 41
0.060000
 42
0.060000
 43
1.000000
 50
0.000000
  0
INSERT
  8
17
  2
OCTAGONP
 10
1.950000
 20
0.450000
 30
0.000000
 41
0.060000
 42
0.060000
 43
1.000000
 50
0.000000
  0
INSERT
  8
17
  2
OCTAGONP
 10
1.950000
 20
0.450000
 30
0.000000
 41
0.060000
 42
0.060000
 43
1.000000
 50
0.000000
  0
INSERT
  8
17
  2
OCTAGONP
 10
1.850000
 20
0.450000
 30
0.000000
 41
0.060000
 42
0.060000
 43
1.000000
 50
0.000000
  0
INSERT
  8
17
  2
OCTAGONP
 10
1.850000
 20
0.450000
 30
0.000000
 41
0.060000
 42
0.060000
 43
1.000000
 50
0.000000
  0
INSERT
  8
17
  2
OCTAGONP
 10
4.750000
 20
0.350000
 30
0.000000
 41
0.060000
 42
0.060000
 43
1.000000
 50
0.000000
  0
INSERT
  8
17
  2
OCTAGONP
 10
4.750000
 20
0.350000
 30
0.000000
 41
0.060000
 42
0.060000
 43
1.000000
 50
0.000000
  0
INSERT
  8
17
  2
OCTAGONP
 10
4.050000
 20
2.050000
 30
0.000000
 41
0.060000
 42
0.060000
 43
1.000000
 50
0.000000
  0
INSERT
  8
17
  2
OCTAGONP
 10
4.050000
 20
2.050000
 30
0.000000
 41
0.060000
 42
0.060000
 43
1.000000
 50
0.000000
  0
INSERT
  8
17
  2
OCTAGONP
 10
3.950000
 20
2.050000
 30
0.000000
 41
0.060000
 42
0.060000
 43
1.000000
 50
0.000000
  0
INSERT
  8
17
  2
OCTAGONP
 10
3.950000
 20
2.050000
 30
0.000000
 41
0.060000
 42
0.060000
 43
1.000000
 50
0.000000
  0
INSERT
  8
17
  2
OCTAGONP
 10
1.450000
 20
0.350000
 30
0.000000
 41
0.060000
 42
0.060000
 43
1.000000
 50
0.000000
  0
INSERT
  8
17
  2
OCTAGONP
 10
1.450000
 20
0.350000
 30
0.000000
 41
0.060000
 42
0.060000
 43
1.000000
 50
0.000000
  0
INSERT
  8
17
  2
OCTAGONP
 10
2.250000
 20
0.350000
 30
0.000000
 41
0.060000
 42
0.060000
 43
1.000000
 50
0.000000
  0
INSERT
  8
17
  2
OCTAGONP
 10
2.250000
 20
0.350000
 30
0.000000
 41
0.060000
 42
0.060000
 43
1.000000
 50
0.000000
  0
INSERT
  8
17
  2
OCTAGONP
 10
4.150000
 20
0.350000
 30
0.000000
 41
0.060000
 42
0.060000
 43
1.000000
 50
0.000000
  0
INSERT
  8
17
  2
OCTAGONP
 10
4.150000
 20
0.350000
 30
0.000000
 41
0.060000
 42
0.060000
 43
1.000000
 50
0.000000
  0
INSERT
  8
17
  2
OCTAGONP
 10
4.050000
 20
0.350000
 30
0.000000
 41
0.060000
 42
0.060000
 43
1.000000
 50
0.000000
  0
INSERT
  8
17
  2
OCTAGONP
 10
4.050000
 20
0.350000
 30
0.000000
 41
0.060000
 42
0.060000
 43
1.000000
 50
0.000000
  0
INSERT
  8
17
  2
OCTAGONP
 10
1.450000
 20
2.150000
 30
0.000000
 41
0.060000
 42
0.060000
 43
1.000000
 50
0.000000
  0
INSERT
  8
17
  2
OCTAGONP
 10
1.450000
 20
2.150000
 30
0.000000
 41
0.060000
 42
0.060000
 43
1.000000
 50
0.000000
  0
INSERT
  8
17
  2
OCTAGONP
 10
1.550000
 20
2.150000
 30
0.000000
 41
0.060000
 42
0.060000
 43
1.000000
 50
0.000000
  0
INSERT
  8
17
  2
OCTAGONP
 10
1.550000
 20
2.150000
 30
0.000000
 41
0.060000
 42
0.060000
 43
1.000000
 50
0.000000
  0
INSERT
  8
17
  2
OCTAGONP
 10
2.150000
 20
2.150000
 30
0.000000
 41
0.060000
 42
0.060000
 43
1.000000
 50
0.000000
  0
INSERT
  8
17
  2
OCTAGONP
 10
2.150000
 20
2.150000
 30
0.000000
 41
0.060000
 42
0.060000
 43
1.000000
 50
0.000000
  0
INSERT
  8
17
  2
OCTAGONP
 10
2.050000
 20
2.150000
 30
0.000000
 41
0.060000
 42
0.060000
 43
1.000000
 50
0.000000
  0
INSERT
  8
17
  2
OCTAGONP
 10
2.050000
 20
2.150000
 30
0.000000
 41
0.060000
 42
0.060000
 43
1.000000
 50
0.000000
  0
INSERT
  8
17
  2
OCTAGONP
 10
3.950000
 20
0.350000
 30
0.000000
 41
0.060000
 42
0.060000
 43
1.000000
 50
0.000000
  0
INSERT
  8
17
  2
OCTAGONP
 10
3.950000
 20
0.350000
 30
0.000000
 41
0.060000
 42
0.060000
 43
1.000000
 50
0.000000
  0
INSERT
  8
17
  2
OCTAGONP
 10
1.650000
 20
0.350000
 30
0.000000
 41
0.060000
 42
0.060000
 43
1.000000
 50
0.000000
  0
INSERT
  8
17
  2
OCTAGONP
 10
1.650000
 20
0.350000
 30
0.000000
 41
0.060000
 42
0.060000
 43
1.000000
 50
0.000000
  0
INSERT
  8
17
  2
OCTAGONP
 10
1.650000
 20
2.150000
 30
0.000000
 41
0.060000
 42
0.060000
 43
1.000000
 50
0.000000
  0
INSERT
  8
17
  2
OCTAGONP
 10
1.650000
 20
2.150000
 30
0.000000
 41
0.060000
 42
0.060000
 43
1.000000
 50
0.000000
  0
INSERT
  8
17
  2
OCTAGONP
 10
2.150000
 20
0.350000
 30
0.000000
 41
0.060000
 42
0.060000
 43
1.000000
 50
0.000000
  0
INSERT
  8
17
  2
OCTAGONP
 10
2.150000
 20
0.350000
 30
0.000000
 41
0.060000
 42
0.060000
 43
1.000000
 50
0.000000
  0
INSERT
  8
17
  2
OCTAGONP
 10
1.750000
 20
2.150000
 30
0.000000
 41
0.060000
 42
0.060000
 43
1.000000
 50
0.000000
  0
INSERT
  8
17
  2
OCTAGONP
 10
1.750000
 20
2.150000
 30
0.000000
 41
0.060000
 42
0.060000
 43
1.000000
 50
0.000000
  0
INSERT
  8
17
  2
OCTAGONP
 10
1.550000
 20
0.350000
 30
0.000000
 41
0.060000
 42
0.060000
 43
1.000000
 50
0.000000
  0
INSERT
  8
17
  2
OCTAGONP
 10
1.550000
 20
0.350000
 30
0.000000
 41
0.060000
 42
0.060000
 43
1.000000
 50
0.000000
  0
INSERT
  8
17
  2
OCTAGONP
 10
1.850000
 20
0.350000
 30
0.000000
 41
0.060000
 42
0.060000
 43
1.000000
 50
0.000000
  0
INSERT
  8
17
  2
OCTAGONP
 10
1.850000
 20
0.350000
 30
0.000000
 41
0.060000
 42
0.060000
 43
1.000000
 50
0.000000
  0
INSERT
  8
17
  2
OCTAGONP
 10
1.750000
 20
0.350000
 30
0.000000
 41
0.060000
 42
0.060000
 43
1.000000
 50
0.000000
  0
INSERT
  8
17
  2
OCTAGONP
 10
1.750000
 20
0.350000
 30
0.000000
 41
0.060000
 42
0.060000
 43
1.000000
 50
0.000000
  0
INSERT
  8
17
  2
OCTAGONP
 10
1.950000
 20
0.350000
 30
0.000000
 41
0.060000
 42
0.060000
 43
1.000000
 50
0.000000
  0
INSERT
  8
17
  2
OCTAGONP
 10
1.950000
 20
0.350000
 30
0.000000
 41
0.060000
 42
0.060000
 43
1.000000
 50
0.000000
  0
INSERT
  8
17
  2
OCTAGONP
 10
4.450000
 20
0.350000
 30
0.000000
 41
0.060000
 42
0.060000
 43
1.000000
 50
0.000000
  0
INSERT
  8
17
  2
OCTAGONP
 10
4.450000
 20
0.350000
 30
0.000000
 41
0.060000
 42
0.060000
 43
1.000000
 50
0.000000
  0
LINE
  8
51
 10
1.990000
 20
0.560000
 30
0.000000
 11
1.990000
 21
0.870000
 31
0.000000
  0
LINE
  8
51
 10
1.990000
 20
0.870000
 30
0.000000
 11
2.300000
 21
0.870000
 31
0.000000
  0
LINE
  8
51
 10
2.300000
 20
0.870000
 30
0.000000
 11
2.300000
 21
0.560000
 31
0.000000
  0
LINE
  8
51
 10
2.300000
 20
0.560000
 30
0.000000
 11
1.990000
 21
0.560000
 31
0.000000
  0
INSERT
  8
17
  2
ROUNDP
 10
2.145000
 20
0.685000
 30
0.000000
 41
0.200000
 42
0.200000
 43
1.000000
 50
0.000000
  0
INSERT
  8
17
  2
ROUNDP
 10
2.145000
 20
0.685000
 30
0.000000
 41
0.200000
 42
0.200000
 43
1.000000
 50
0.000000
  0
LINE
  8
51
 10
4.553000
 20
0.924000
 30
0.000000
 11
4.553000
 21
1.894000
 31
0.000000
  0
LINE
  8
51
 10
4.553000
 20
1.894000
 30
0.000000
 11
4.883000
 21
1.894000
 31
0.000000
  0
LINE
  8
51
 10
4.883000
 20
1.894000
 30
0.000000
 11
4.943000
 21
1.834000
 31
0.000000
  0
LINE
  8
51
 10
4.553000
 20
0.924000
 30
0.000000
 11
4.883000
 21
0.924000
 31
0.000000
  0
LINE
  8
51
 10
4.883000
 20
0.924000
 30
0.000000
 11
4.943000
 21
0.984000
 31
0.000000
  0
LINE
  8
51
 10
4.943000
 20
0.984000
 30
0.000000
 11
4.943000
 21
1.834000
 31
0.000000
  0
INSERT
  8
1
  2
RECT
 10
4.790000
 20
0.900000
 30
0.000000
 41
0.130000
 42
0.060000
 43
1.000000
 50
90.000000
  0
INSERT
  8
1
  2
RECT
 10
4.790000
 20
1.918000
 30
0.000000
 41
0.130000
 42
0.060000
 43
1.000000
 50
90.000000
  0
INSERT
  8
1
  2
RECT
 10
4.579000
 20
1.763000
 30
0.000000
 41
0.110000
 42
0.050000
 43
1.000000
 50
180.000000
  0
INSERT
  8
1
  2
RECT
 10
4.579000
 20
1.645000
 30
0.000000
 41
0.110000
 42
0.050000
 43
1.000000
 50
180.000000
  0
INSERT
  8
1
  2
RECT
 10
4.579000
 20
1.527000
 30
0.000000
 41
0.110000
 42
0.050000
 43
1.000000
 50
180.000000
  0
INSERT
  8
1
  2
RECT
 10
4.579000
 20
1.409000
 30
0.000000
 41
0.110000
 42
0.050000
 43
1.000000
 50
180.000000
  0
INSERT
  8
1
  2
RECT
 10
4.579000
 20
1.291000
 30
0.000000
 41
0.110000
 42
0.050000
 43
1.000000
 50
180.000000
  0
INSERT
  8
1
  2
RECT
 10
4.579000
 20
1.173000
 30
0.000000
 41
0.110000
 42
0.050000
 43
1.000000
 50
180.000000
  0
INSERT
  8
1
  2
RECT
 10
4.579000
 20
1.055000
 30
0.000000
 41
0.110000
 42
0.050000
 43
1.000000
 50
180.000000
  0
CIRCLE
  8
51
 10
3.751000
 20
0.849000
 30
0.000000
 40
0.132500
  0
CIRCLE
  8
20
 10
3.751000
 20
0.849000
 30
0.000000
 40
0.085000
  0
CIRCLE
  8
51
 10
1.849000
 20
2.558000
 30
0.000000
 40
0.132500
  0
CIRCLE
  8
20
 10
1.849000
 20
2.558000
 30
0.000000
 40
0.085000
  0
INSERT
  8
1
  2
RECT
 10
1.893701
 20
1.660000
 30
0.000000
 41
0.059055
 42
0.023622
 43
1.000000
 50
0.000000
  0
INSERT
  8
1
  2
RECT
 10
1.893701
 20
1.610000
 30
0.000000
 41
0.059055
 42
0.023622
 43
1.000000
 50
0.000000
  0
INSERT
  8
1
  2
RECT
 10
1.893701
 20
1.560000
 30
0.000000
 41
0.059055
 42
0.023622
 43
1.000000
 50
0.000000
  0
INSERT
  8
1
  2
RECT
 10
1.893701
 20
1.510000
 30
0.000000
 41
0.059055
 42
0.023622
 43
1.000000
 50
0.000000
  0
INSERT
  8
1
  2
RECT
 10
1.893701
 20
1.460000
 30
0.000000
 41
0.059055
 42
0.023622
 43
1.000000
 50
0.000000
  0
INSERT
  8
1
  2
RECT
 10
1.893701
 20
1.410000
 30
0.000000
 41
0.059055
 42
0.023622
 43
1.000000
 50
0.000000
  0
INSERT
  8
1
  2
RECT
 10
1.893701
 20
1.360000
 30
0.000000
 41
0.059055
 42
0.023622
 43
1.000000
 50
0.000000
  0
INSERT
  8
1
  2
RECT
 10
2.106299
 20
1.360000
 30
0.000000
 41
0.059055
 42
0.023622
 43
1.000000
 50
0.000000
  0
INSERT
  8
1
  2
RECT
 10
2.106299
 20
1.410000
 30
0.000000
 41
0.059055
 42
0.023622
 43
1.000000
 50
0.000000
  0
INSERT
  8
1
  2
RECT
 10
2.106299
 20
1.460000
 30
0.000000
 41
0.059055
 42
0.023622
 43
1.000000
 50
0.000000
  0
INSERT
  8
1
  2
RECT
 10
2.106299
 20
1.510000
 30
0.000000
 41
0.059055
 42
0.023622
 43
1.000000
 50
0.000000
  0
INSERT
  8
1
  2
RECT
 10
2.106299
 20
1.560000
 30
0.000000
 41
0.059055
 42
0.023622
 43
1.000000
 50
0.000000
  0
INSERT
  8
1
  2
RECT
 10
2.106299
 20
1.610000
 30
0.000000
 41
0.059055
 42
0.023622
 43
1.000000
 50
0.000000
  0
INSERT
  8
1
  2
RECT
 10
2.106299
 20
1.660000
 30
0.000000
 41
0.059055
 42
0.023622
 43
1.000000
 50
0.000000
  0
LINE
  8
51
 10
1.707000
 20
1.886000
 30
0.000000
 11
1.707000
 21
0.916000
 31
0.000000
  0
LINE
  8
51
 10
1.707000
 20
0.916000
 30
0.000000
 11
1.377000
 21
0.916000
 31
0.000000
  0
LINE
  8
51
 10
1.377000
 20
0.916000
 30
0.000000
 11
1.317000
 21
0.976000
 31
0.000000
  0
LINE
  8
51
 10
1.707000
 20
1.886000
 30
0.000000
 11
1.377000
 21
1.886000
 31
0.000000
  0
LINE
  8
51
 10
1.377000
 20
1.886000
 30
0.000000
 11
1.317000
 21
1.826000
 31
0.000000
  0
LINE
  8
51
 10
1.317000
 20
1.826000
 30
0.000000
 11
1.317000
 21
0.976000
 31
0.000000
  0
INSERT
  8
1
  2
RECT
 10
1.470000
 20
1.910000
 30
0.000000
 41
0.130000
 42
0.060000
 43
1.000000
 50
270.000000
  0
INSERT
  8
1
  2
RECT
 10
1.470000
 20
0.892000
 30
0.000000
 41
0.130000
 42
0.060000
 43
1.000000
 50
270.000000
  0
INSERT
  8
1
  2
RECT
 10
1.681000
 20
1.047000
 30
0.000000
 41
0.110000
 42
0.050000
 43
1.000000
 50
0.000000
  0
INSERT
  8
1
  2
RECT
 10
1.681000
 20
1.165000
 30
0.000000
 41
0.110000
 42
0.050000
 43
1.000000
 50
0.000000
  0
INSERT
  8
1
  2
RECT
 10
1.681000
 20
1.283000
 30
0.000000
 41
0.110000
 42
0.050000
 43
1.000000
 50
0.000000
  0
INSERT
  8
1
  2
RECT
 10
1.681000
 20
1.401000
 30
0.000000
 41
0.110000
 42
0.050000
 43
1.000000
 50
0.000000
  0
INSERT
  8
1
  2
RECT
 10
1.681000
 20
1.519000
 30
0.000000
 41
0.110000
 42
0.050000
 43
1.000000
 50
0.000000
  0
INSERT
  8
1
  2
RECT
 10
1.681000
 20
1.637000
 30
0.000000
 41
0.110000
 42
0.050000
 43
1.000000
 50
0.000000
  0
INSERT
  8
1
  2
RECT
 10
1.681000
 20
1.755000
 30
0.000000
 41
0.110000
 42
0.050000
 43
1.000000
 50
0.000000
  0
LINE
  8
51
 10
2.560000
 20
0.450000
 30
0.000000
 11
2.745984
 21
0.450000
 31
0.000000
  0
LINE
  8
51
 10
2.745984
 20
0.591969
 30
0.000000
 11
2.560000
 21
0.591969
 31
0.000000
  0
INSERT
  8
51
  2
RECT
 10
2.577992
 20
0.427984
 30
0.000000
 41
0.014000
 42
0.040000
 43
1.000000
 50
0.000000
  0
INSERT
  8
51
  2
RECT
 10
2.627992
 20
0.427984
 30
0.000000
 41
0.014000
 42
0.040000
 43
1.000000
 50
0.000000
  0
INSERT
  8
51
  2
RECT
 10
2.677992
 20
0.427984
 30
0.000000
 41
0.014000
 42
0.040000
 43
1.000000
 50
0.000000
  0
INSERT
  8
51
  2
RECT
 10
2.727992
 20
0.427984
 30
0.000000
 41
0.014000
 42
0.040000
 43
1.000000
 50
0.000000
  0
INSERT
  8
51
  2
RECT
 10
2.577992
 20
0.613984
 30
0.000000
 41
0.014000
 42
0.040000
 43
1.000000
 50
0.000000
  0
INSERT
  8
51
  2
RECT
 10
2.627992
 20
0.613984
 30
0.000000
 41
0.014000
 42
0.040000
 43
1.000000
 50
0.000000
  0
INSERT
  8
51
  2
RECT
 10
2.677992
 20
0.613984
 30
0.000000
 41
0.014000
 42
0.040000
 43
1.000000
 50
0.000000
  0
INSERT
  8
51
  2
RECT
 10
2.727992
 20
0.613984
 30
0.000000
 41
0.014000
 42
0.040000
 43
1.000000
 50
0.000000
  0
INSERT
  8
1
  2
RECT
 10
2.577992
 20
0.417984
 30
0.000000
 41
0.024000
 42
0.087000
 43
1.000000
 50
0.000000
  0
INSERT
  8
1
  2
RECT
 10
2.627992
 20
0.417984
 30
0.000000
 41
0.024000
 42
0.087000
 43
1.000000
 50
0.000000
  0
INSERT
  8
1
  2
RECT
 10
2.677992
 20
0.417984
 30
0.000000
 41
0.024000
 42
0.087000
 43
1.000000
 50
0.000000
  0
INSERT
  8
1
  2
RECT
 10
2.727992
 20
0.417984
 30
0.000000
 41
0.024000
 42
0.087000
 43
1.000000
 50
0.000000
  0
INSERT
  8
1
  2
RECT
 10
2.727992
 20
0.623984
 30
0.000000
 41
0.024000
 42
0.087000
 43
1.000000
 50
0.000000
  0
INSERT
  8
1
  2
RECT
 10
2.677992
 20
0.623984
 30
0.000000
 41
0.024000
 42
0.087000
 43
1.000000
 50
0.000000
  0
INSERT
  8
1
  2
RECT
 10
2.627992
 20
0.623984
 30
0.000000
 41
0.024000
 42
0.087000
 43
1.000000
 50
0.000000
  0
INSERT
  8
1
  2
RECT
 10
2.577992
 20
0.623984
 30
0.000000
 41
0.024000
 42
0.087000
 43
1.000000
 50
0.000000
  0
LINE
  8
51
 10
4.060000
 20
0.830000
 30
0.000000
 11
4.060000
 21
1.140000
 31
0.000000
  0
LINE
  8
51
 10
4.060000
 20
1.140000
 30
0.000000
 11
4.370000
 21
1.140000
 31
0.000000
  0
LINE
  8
51
 10
4.370000
 20
1.140000
 30
0.000000
 11
4.370000
 21
0.830000
 31
0.000000
  0
LINE
  8
51
 10
4.370000
 20
0.830000
 30
0.000000
 11
4.060000
 21
0.830000
 31
0.000000
  0
INSERT
  8
17
  2
ROUNDP
 10
4.215000
 20
0.955000
 30
0.000000
 41
0.200000
 42
0.200000
 43
1.000000
 50
0.000000
  0
INSERT
  8
17
  2
ROUNDP
 10
4.215000
 20
0.955000
 30
0.000000
 41
0.200000
 42
0.200000
 43
1.000000
 50
0.000000
  0
LINE
  8
1
 10
-0.140000
 20
-0.050000
 30
0.000000
 11
-0.140000
 21
2.380000
 31
0.000000
  0
LINE
  8
1
 10
-0.140000
 20
2.380000
 30
0.000000
 11
5.030000
 21
2.380000
 31
0.000000
  0
LINE
  8
1
 10
5.030000
 20
2.380000
 30
0.000000
 11
5.030000
 21
-0.050000
 31
0.000000
  0
LINE
  8
1
 10
5.030000
 20
-0.050000
 30
0.000000
 11
-0.140000
 21
-0.050000
 31
0.000000
  0
LINE
  8
16
 10
3.643071
 20
1.595827
 30
0.000000
 11
3.643071
 21
1.593071
 31
0.000000
  0
LINE
  8
16
 10
3.643071
 20
1.593071
 30
0.000000
 11
3.640000
 21
1.590000
 31
0.000000
  0
LINE
  8
16
 10
3.640000
 20
1.590000
 30
0.000000
 11
3.640000
 21
1.510000
 31
0.000000
  0
LINE
  8
1
 10
3.640000
 20
1.510000
 30
0.000000
 11
3.640000
 21
1.368898
 31
0.000000
  0
LINE
  8
1
 10
3.640000
 20
1.368898
 30
0.000000
 11
3.643071
 21
1.365827
 31
0.000000
  0
INSERT
  8
18
  2
ROUNDV
 10
3.640000
 20
1.510000
 30
0.000000
 41
0.033685
 42
0.033685
 43
1.000000
 50
0.000000
  0
INSERT
  8
18
  2
ROUNDV
 10
3.640000
 20
1.510000
 30
0.000000
 41
0.033685
 42
0.033685
 43
1.000000
 50
0.000000
  0
LINE
  8
1
 10
1.681000
 20
1.637000
 30
0.000000
 11
1.607000
 21
1.637000
 31
0.000000
  0
LINE
  8
1
 10
1.607000
 20
1.637000
 30
0.000000
 11
1.580000
 21
1.610000
 31
0.000000
  0
LINE
  8
1
 10
1.580000
 20
1.610000
 30
0.000000
 11
1.580000
 21
0.960000
 31
0.000000
  0
LINE
  8
1
 10
1.580000
 20
0.960000
 30
0.000000
 11
1.650000
 21
0.890000
 31
0.000000
  0
LINE
  8
1
 10
1.650000
 20
0.890000
 30
0.000000
 11
2.160000
 21
0.890000
 31
0.000000
  0
LINE
  8
1
 10
2.160000
 20
0.890000
 30
0.000000
 11
2.540000
 21
0.510000
 31
0.000000
  0
LINE
  8
1
 10
2.540000
 20
0.510000
 30
0.000000
 11
2.650000
 21
0.510000
 31
0.000000
  0
LINE
  8
1
 10
2.650000
 20
0.510000
 30
0.000000
 11
2.680000
 21
0.480000
 31
0.000000
  0
LINE
  8
1
 10
2.680000
 20
0.480000
 30
0.000000
 11
2.680000
 21
0.419992
 31
0.000000
  0
LINE
  8
1
 10
2.680000
 20
0.419992
 30
0.000000
 11
2.677992
 21
0.417984
 31
0.000000
  0
LINE
  8
1
 10
2.677992
 20
0.417984
 30
0.000000
 11
2.727992
 21
0.417984
 31
0.000000
  0
LINE
  8
1
 10
2.727992
 20
0.417984
 30
0.000000
 11
2.727992
 21
0.467992
 31
0.000000
  0
LINE
  8
1
 10
2.727992
 20
0.467992
 30
0.000000
 11
2.770000
 21
0.510000
 31
0.000000
  0
LINE
  8
1
 10
2.770000
 20
0.510000
 30
0.000000
 11
2.942323
 21
0.510000
 31
0.000000
  0
LINE
  8
1
 10
2.942323
 20
0.510000
 30
0.000000
 11
3.053425
 21
0.621102
 31
0.000000
  0
LINE
  8
1
 10
3.053425
 20
0.621102
 30
0.000000
 11
3.103425
 21
0.621102
 31
0.000000
  0
LINE
  8
1
 10
3.103425
 20
0.621102
 30
0.000000
 11
3.153425
 21
0.621102
 31
0.000000
  0
LINE
  8
1
 10
3.153425
 20
0.621102
 30
0.000000
 11
3.203425
 21
0.621102
 31
0.000000
  0
LINE
  8
1
 10
3.203425
 20
0.621102
 30
0.000000
 11
3.203425
 21
0.746890
 31
0.000000
  0
LINE
  8
1
 10
3.203425
 20
0.746890
 30
0.000000
 11
3.216535
 21
0.760000
 31
0.000000
  0
LINE
  8
1
 10
3.203425
 20
0.621102
 30
0.000000
 11
3.203425
 21
0.596575
 31
0.000000
  0
LINE
  8
1
 10
3.203425
 20
0.596575
 30
0.000000
 11
3.290000
 21
0.510000
 31
0.000000
  0
LINE
  8
1
 10
3.290000
 20
0.510000
 30
0.000000
 11
3.320000
 21
0.510000
 31
0.000000
  0
LINE
  8
1
 10
3.320000
 20
0.510000
 30
0.000000
 11
3.350000
 21
0.480000
 31
0.000000
  0
LINE
  8
1
 10
3.445000
 20
0.417638
 30
0.000000
 11
3.445000
 21
0.465000
 31
0.000000
  0
LINE
  8
1
 10
3.445000
 20
0.465000
 30
0.000000
 11
3.430000
 21
0.480000
 31
0.000000
  0
LINE
  8
1
 10
3.430000
 20
0.480000
 30
0.000000
 11
3.350000
 21
0.480000
 31
0.000000
  0
LINE
  8
1
 10
3.345000
 20
0.417638
 30
0.000000
 11
3.345000
 21
0.475000
 31
0.000000
  0
LINE
  8
1
 10
3.345000
 20
0.475000
 30
0.000000
 11
3.350000
 21
0.480000
 31
0.000000
  0
LINE
  8
1
 10
3.445000
 20
0.465000
 30
0.000000
 11
3.480000
 21
0.500000
 31
0.000000
  0
LINE
  8
1
 10
3.480000
 20
0.500000
 30
0.000000
 11
3.860000
 21
0.500000
 31
0.000000
  0
LINE
  8
1
 10
3.860000
 20
0.500000
 30
0.000000
 11
4.130000
 21
0.770000
 31
0.000000
  0
LINE
  8
1
 10
4.130000
 20
0.770000
 30
0.000000
 11
4.390000
 21
0.770000
 31
0.000000
  0
LINE
  8
1
 10
4.390000
 20
0.770000
 30
0.000000
 11
4.460000
 21
0.840000
 31
0.000000
  0
LINE
  8
16
 10
4.460000
 20
0.840000
 30
0.000000
 11
4.570000
 21
0.950000
 31
0.000000
  0
LINE
  8
1
 10
4.570000
 20
0.950000
 30
0.000000
 11
4.610000
 21
0.950000
 31
0.000000
  0
LINE
  8
1
 10
4.610000
 20
0.950000
 30
0.000000
 11
4.700000
 21
1.040000
 31
0.000000
  0
LINE
  8
1
 10
4.700000
 20
1.040000
 30
0.000000
 11
4.700000
 21
1.130000
 31
0.000000
  0
LINE
  8
1
 10
4.700000
 20
1.130000
 30
0.000000
 11
4.670000
 21
1.160000
 31
0.000000
  0
LINE
  8
1
 10
4.670000
 20
1.160000
 30
0.000000
 11
4.592000
 21
1.160000
 31
0.000000
  0
LINE
  8
1
 10
4.592000
 20
1.160000
 30
0.000000
 11
4.579000
 21
1.173000
 31
0.000000
  0
INSERT
  8
18
  2
ROUNDV
 10
4.460000
 20
0.840000
 30
0.000000
 41
0.033685
 42
0.033685
 43
1.000000
 50
0.000000
  0
INSERT
  8
18
  2
ROUNDV
 10
4.460000
 20
0.840000
 30
0.000000
 41
0.033685
 42
0.033685
 43
1.000000
 50
0.000000
  0
INSERT
  8
18
  2
ROUNDV
 10
4.570000
 20
0.950000
 30
0.000000
 41
0.033685
 42
0.033685
 43
1.000000
 50
0.000000
  0
INSERT
  8
18
  2
ROUNDV
 10
4.570000
 20
0.950000
 30
0.000000
 41
0.033685
 42
0.033685
 43
1.000000
 50
0.000000
  0
LINE
  8
16
 10
1.800000
 20
1.790000
 30
0.000000
 11
1.990000
 21
1.790000
 31
0.000000
  0
LINE
  8
1
 10
1.990000
 20
1.790000
 30
0.000000
 11
2.020000
 21
1.790000
 31
0.000000
  0
LINE
  8
1
 10
2.020000
 20
1.790000
 30
0.000000
 11
2.040000
 21
1.770000
 31
0.000000
  0
LINE
  8
1
 10
2.040000
 20
1.770000
 30
0.000000
 11
2.040000
 21
1.580000
 31
0.000000
  0
LINE
  8
1
 10
2.040000
 20
1.580000
 30
0.000000
 11
2.060000
 21
1.560000
 31
0.000000
  0
LINE
  8
1
 10
2.060000
 20
1.560000
 30
0.000000
 11
2.106299
 21
1.560000
 31
0.000000
  0
LINE
  8
16
 10
1.800000
 20
1.790000
 30
0.000000
 11
1.700000
 21
1.890000
 31
0.000000
  0
LINE
  8
16
 10
1.700000
 20
1.890000
 30
0.000000
 11
1.610000
 21
1.890000
 31
0.000000
  0
LINE
  8
16
 10
1.610000
 20
1.890000
 30
0.000000
 11
1.450000
 21
2.050000
 31
0.000000
  0
INSERT
  8
18
  2
ROUNDV
 10
1.990000
 20
1.790000
 30
0.000000
 41
0.033685
 42
0.033685
 43
1.000000
 50
0.000000
  0
INSERT
  8
18
  2
ROUNDV
 10
1.990000
 20
1.790000
 30
0.000000
 41
0.033685
 42
0.033685
 43
1.000000
 50
0.000000
  0
LINE
  8
16
 10
2.040000
 20
1.470000
 30
0.000000
 11
2.040000
 21
1.620000
 31
0.000000
  0
LINE
  8
16
 10
2.040000
 20
1.620000
 30
0.000000
 11
1.900000
 21
1.760000
 31
0.000000
  0
LINE
  8
1
 10
1.900000
 20
1.760000
 30
0.000000
 11
1.900000
 21
1.790000
 31
0.000000
  0
LINE
  8
1
 10
1.900000
 20
1.790000
 30
0.000000
 11
1.870000
 21
1.820000
 31
0.000000
  0
LINE
  8
1
 10
1.870000
 20
1.820000
 30
0.000000
 11
1.870000
 21
1.920000
 31
0.000000
  0
LINE
  8
1
 10
1.870000
 20
1.920000
 30
0.000000
 11
1.830000
 21
1.960000
 31
0.000000
  0
LINE
  8
16
 10
1.830000
 20
1.960000
 30
0.000000
 11
1.660000
 21
1.960000
 31
0.000000
  0
LINE
  8
16
 10
1.660000
 20
1.960000
 30
0.000000
 11
1.620000
 21
2.000000
 31
0.000000
  0
LINE
  8
16
 10
1.620000
 20
2.000000
 30
0.000000
 11
1.600000
 21
2.000000
 31
0.000000
  0
LINE
  8
16
 10
1.600000
 20
2.000000
 30
0.000000
 11
1.550000
 21
2.050000
 31
0.000000
  0
LINE
  8
1
 10
2.040000
 20
1.470000
 30
0.000000
 11
2.040000
 21
1.450000
 31
0.000000
  0
LINE
  8
1
 10
2.040000
 20
1.450000
 30
0.000000
 11
2.080000
 21
1.410000
 31
0.000000
  0
LINE
  8
1
 10
2.080000
 20
1.410000
 30
0.000000
 11
2.106299
 21
1.410000
 31
0.000000
  0
INSERT
  8
18
  2
ROUNDV
 10
2.040000
 20
1.470000
 30
0.000000
 41
0.033685
 42
0.033685
 43
1.000000
 50
0.000000
  0
INSERT
  8
18
  2
ROUNDV
 10
2.040000
 20
1.470000
 30
0.000000
 41
0.033685
 42
0.033685
 43
1.000000
 50
0.000000
  0
INSERT
  8
18
  2
ROUNDV
 10
1.900000
 20
1.760000
 30
0.000000
 41
0.033685
 42
0.033685
 43
1.000000
 50
0.000000
  0
INSERT
  8
18
  2
ROUNDV
 10
1.900000
 20
1.760000
 30
0.000000
 41
0.033685
 42
0.033685
 43
1.000000
 50
0.000000
  0
INSERT
  8
18
  2
ROUNDV
 10
1.830000
 20
1.960000
 30
0.000000
 41
0.033685
 42
0.033685
 43
1.000000
 50
0.000000
  0
INSERT
  8
18
  2
ROUNDV
 10
1.830000
 20
1.960000
 30
0.000000
 41
0.033685
 42
0.033685
 43
1.000000
 50
0.000000
  0
LINE
  8
1
 10
1.850000
 20
2.150000
 30
0.000000
 11
1.850000
 21
2.140000
 31
0.000000
  0
LINE
  8
1
 10
1.850000
 20
2.140000
 30
0.000000
 11
1.800000
 21
2.090000
 31
0.000000
  0
LINE
  8
1
 10
1.800000
 20
2.090000
 30
0.000000
 11
1.800000
 21
1.900000
 31
0.000000
  0
LINE
  8
1
 10
1.800000
 20
1.900000
 30
0.000000
 11
1.830000
 21
1.870000
 31
0.000000
  0
LINE
  8
1
 10
1.830000
 20
1.870000
 30
0.000000
 11
1.830000
 21
1.490000
 31
0.000000
  0
LINE
  8
1
 10
1.830000
 20
1.490000
 30
0.000000
 11
1.860000
 21
1.460000
 31
0.000000
  0
LINE
  8
1
 10
1.860000
 20
1.460000
 30
0.000000
 11
1.893701
 21
1.460000
 31
0.000000
  0
LINE
  8
1
 10
1.950000
 20
2.150000
 30
0.000000
 11
1.950000
 21
2.140000
 31
0.000000
  0
LINE
  8
1
 10
1.950000
 20
2.140000
 30
0.000000
 11
1.900000
 21
2.090000
 31
0.000000
  0
LINE
  8
1
 10
1.900000
 20
2.090000
 30
0.000000
 11
1.900000
 21
1.840000
 31
0.000000
  0
LINE
  8
1
 10
1.900000
 20
1.840000
 30
0.000000
 11
1.950000
 21
1.790000
 31
0.000000
  0
LINE
  8
1
 10
1.950000
 20
1.790000
 30
0.000000
 11
1.950000
 21
1.640000
 31
0.000000
  0
LINE
  8
1
 10
1.950000
 20
1.640000
 30
0.000000
 11
1.920000
 21
1.610000
 31
0.000000
  0
LINE
  8
1
 10
1.920000
 20
1.610000
 30
0.000000
 11
1.893701
 21
1.610000
 31
0.000000
  0
LINE
  8
1
 10
4.579000
 20
1.291000
 30
0.000000
 11
4.621000
 21
1.291000
 31
0.000000
  0
LINE
  8
1
 10
4.621000
 20
1.291000
 30
0.000000
 11
4.700000
 21
1.370000
 31
0.000000
  0
LINE
  8
1
 10
4.700000
 20
1.370000
 30
0.000000
 11
4.700000
 21
2.100000
 31
0.000000
  0
LINE
  8
1
 10
4.700000
 20
2.100000
 30
0.000000
 11
4.650000
 21
2.150000
 31
0.000000
  0
LINE
  8
1
 10
4.650000
 20
2.150000
 30
0.000000
 11
4.550000
 21
2.150000
 31
0.000000
  0
LINE
  8
1
 10
4.579000
 20
1.291000
 30
0.000000
 11
4.401000
 21
1.291000
 31
0.000000
  0
LINE
  8
1
 10
4.401000
 20
1.291000
 30
0.000000
 11
4.320000
 21
1.210000
 31
0.000000
  0
LINE
  8
16
 10
4.320000
 20
1.210000
 30
0.000000
 11
4.230000
 21
1.210000
 31
0.000000
  0
LINE
  8
16
 10
4.230000
 20
1.210000
 30
0.000000
 11
4.130000
 21
1.110000
 31
0.000000
  0
LINE
  8
16
 10
4.130000
 20
1.110000
 30
0.000000
 11
4.090000
 21
1.110000
 31
0.000000
  0
LINE
  8
16
 10
4.090000
 20
1.110000
 30
0.000000
 11
4.070000
 21
1.130000
 31
0.000000
  0
LINE
  8
16
 10
4.070000
 20
1.130000
 30
0.000000
 11
4.070000
 21
1.230000
 31
0.000000
  0
LINE
  8
16
 10
4.070000
 20
1.230000
 30
0.000000
 11
3.920000
 21
1.380000
 31
0.000000
  0
LINE
  8
16
 10
3.920000
 20
1.380000
 30
0.000000
 11
3.920000
 21
1.950000
 31
0.000000
  0
LINE
  8
16
 10
3.920000
 20
1.950000
 30
0.000000
 11
3.860000
 21
2.010000
 31
0.000000
  0
LINE
  8
16
 10
3.860000
 20
2.010000
 30
0.000000
 11
3.860000
 21
2.040000
 31
0.000000
  0
LINE
  8
16
 10
3.860000
 20
2.040000
 30
0.000000
 11
3.740000
 21
2.160000
 31
0.000000
  0
LINE
  8
16
 10
3.740000
 20
2.160000
 30
0.000000
 11
2.430000
 21
2.160000
 31
0.000000
  0
LINE
  8
16
 10
2.430000
 20
2.160000
 30
0.000000
 11
2.390000
 21
2.200000
 31
0.000000
  0
LINE
  8
16
 10
2.390000
 20
2.200000
 30
0.000000
 11
1.430000
 21
2.200000
 31
0.000000
  0
LINE
  8
16
 10
1.430000
 20
2.200000
 30
0.000000
 11
1.400000
 21
2.170000
 31
0.000000
  0
LINE
  8
16
 10
1.400000
 20
2.170000
 30
0.000000
 11
1.400000
 21
1.740000
 31
0.000000
  0
LINE
  8
16
 10
1.400000
 20
1.740000
 30
0.000000
 11
1.460000
 21
1.680000
 31
0.000000
  0
LINE
  8
1
 10
1.460000
 20
1.680000
 30
0.000000
 11
1.560000
 21
1.680000
 31
0.000000
  0
LINE
  8
1
 10
1.560000
 20
1.680000
 30
0.000000
 11
1.580000
 21
1.700000
 31
0.000000
  0
LINE
  8
1
 10
1.580000
 20
1.700000
 30
0.000000
 11
1.740000
 21
1.700000
 31
0.000000
  0
LINE
  8
1
 10
1.740000
 20
1.700000
 30
0.000000
 11
1.780000
 21
1.660000
 31
0.000000
  0
LINE
  8
1
 10
1.780000
 20
1.660000
 30
0.000000
 11
1.780000
 21
1.570000
 31
0.000000
  0
LINE
  8
1
 10
1.780000
 20
1.570000
 30
0.000000
 11
1.730000
 21
1.520000
 31
0.000000
  0
LINE
  8
1
 10
1.730000
 20
1.520000
 30
0.000000
 11
1.682000
 21
1.520000
 31
0.000000
  0
LINE
  8
1
 10
1.682000
 20
1.520000
 30
0.000000
 11
1.681000
 21
1.519000
 31
0.000000
  0
INSERT
  8
18
  2
ROUNDV
 10
4.320000
 20
1.210000
 30
0.000000
 41
0.033685
 42
0.033685
 43
1.000000
 50
0.000000
  0
INSERT
  8
18
  2
ROUNDV
 10
4.320000
 20
1.210000
 30
0.000000
 41
0.033685
 42
0.033685
 43
1.000000
 50
0.000000
  0
INSERT
  8
18
  2
ROUNDV
 10
1.460000
 20
1.680000
 30
0.000000
 41
0.033685
 42
0.033685
 43
1.000000
 50
0.000000
  0
INSERT
  8
18
  2
ROUNDV
 10
1.460000
 20
1.680000
 30
0.000000
 41
0.033685
 42
0.033685
 43
1.000000
 50
0.000000
  0
LINE
  8
1
 10
3.203425
 20
0.416378
 30
0.000000
 11
3.293740
 21
0.416378
 31
0.000000
  0
LINE
  8
1
 10
3.293740
 20
0.416378
 30
0.000000
 11
3.295000
 21
0.417638
 31
0.000000
  0
LINE
  8
1
 10
3.535000
 20
0.417638
 30
0.000000
 11
3.535000
 21
0.385000
 31
0.000000
  0
LINE
  8
1
 10
3.535000
 20
0.385000
 30
0.000000
 11
3.500000
 21
0.350000
 31
0.000000
  0
LINE
  8
1
 10
3.500000
 20
0.350000
 30
0.000000
 11
2.980000
 21
0.350000
 31
0.000000
  0
LINE
  8
1
 10
2.980000
 20
0.350000
 30
0.000000
 11
2.960000
 21
0.370000
 31
0.000000
  0
LINE
  8
1
 10
2.960000
 20
0.370000
 30
0.000000
 11
2.960000
 21
0.412953
 31
0.000000
  0
LINE
  8
1
 10
2.960000
 20
0.412953
 30
0.000000
 11
2.963425
 21
0.416378
 31
0.000000
  0
LINE
  8
16
 10
0.000000
 20
-0.400000
 30
0.000000
 11
5.000000
 21
-0.400000
 31
0.000000
  0
LINE
  8
16
 10
5.000000
 20
-0.400000
 30
0.000000
 11
5.000000
 21
2.300000
 31
0.000000
  0
LINE
  8
16
 10
5.000000
 20
2.300000
 30
0.000000
 11
0.000000
 21
2.300000
 31
0.000000
  0
LINE
  8
16
 10
0.000000
 20
2.300000
 30
0.000000
 11
0.000000
 21
-0.400000
 31
0.000000
  0
LINE
  8
1
 10
4.579000
 20
1.055000
 30
0.000000
 11
4.575000
 21
1.055000
 31
0.000000
  0
LINE
  8
1
 10
4.575000
 20
1.055000
 30
0.000000
 11
4.570000
 21
1.060000
 31
0.000000
  0
LINE
  8
1
 10
4.570000
 20
1.060000
 30
0.000000
 11
4.470000
 21
1.060000
 31
0.000000
  0
LINE
  8
1
 10
4.083701
 20
1.400000
 30
0.000000
 11
4.030000
 21
1.400000
 31
0.000000
  0
LINE
  8
1
 10
4.083701
 20
1.550000
 30
0.000000
 11
4.030000
 21
1.550000
 31
0.000000
  0
LINE
  8
1
 10
4.296299
 20
1.350000
 30
0.000000
 11
4.240000
 21
1.350000
 31
0.000000
  0
LINE
  8
1
 10
4.296299
 20
1.650000
 30
0.000000
 11
4.370000
 21
1.650000
 31
0.000000
  0
LINE
  8
16
 10
4.370000
 20
1.650000
 30
0.000000
 11
4.370000
 21
1.490000
 31
0.000000
  0
LINE
  8
16
 10
4.370000
 20
1.490000
 30
0.000000
 11
4.350000
 21
1.480000
 31
0.000000
  0
LINE
  8
1
 10
4.350000
 20
1.480000
 30
0.000000
 11
4.316299
 21
1.480000
 31
0.000000
  0
LINE
  8
1
 10
4.316299
 20
1.480000
 30
0.000000
 11
4.296299
 21
1.500000
 31
0.000000
  0
LINE
  8
1
 10
1.681000
 20
1.755000
 30
0.000000
 11
1.665000
 21
1.755000
 31
0.000000
  0
LINE
  8
1
 10
1.665000
 20
1.755000
 30
0.000000
 11
1.660000
 21
1.750000
 31
0.000000
  0
LINE
  8
1
 10
1.660000
 20
1.750000
 30
0.000000
 11
1.680000
 21
1.750000
 31
0.000000
  0
LINE
  8
1
 10
1.660000
 20
1.750000
 30
0.000000
 11
1.580000
 21
1.750000
 31
0.000000
  0
LINE
  8
16
 10
1.580000
 20
1.750000
 30
0.000000
 11
1.570000
 21
1.750000
 31
0.000000
  0
LINE
  8
1
 10
2.106299
 20
1.610000
 30
0.000000
 11
2.170000
 21
1.610000
 31
0.000000
  0
LINE
  8
16
 10
2.170000
 20
1.610000
 30
0.000000
 11
2.180000
 21
1.610000
 31
0.000000
  0
LINE
  8
1
 10
2.106299
 20
1.460000
 30
0.000000
 11
2.170000
 21
1.460000
 31
0.000000
  0
LINE
  8
16
 10
2.170000
 20
1.460000
 30
0.000000
 11
2.180000
 21
1.460000
 31
0.000000
  0
LINE
  8
1
 10
1.893701
 20
1.660000
 30
0.000000
 11
1.890000
 21
1.660000
 31
0.000000
  0
LINE
  8
1
 10
1.890000
 20
1.660000
 30
0.000000
 11
1.890000
 21
1.710000
 31
0.000000
  0
LINE
  8
16
 10
1.890000
 20
1.710000
 30
0.000000
 11
1.870000
 21
1.730000
 31
0.000000
  0
LINE
  8
16
 10
1.870000
 20
1.730000
 30
0.000000
 11
1.790000
 21
1.730000
 31
0.000000
  0
LINE
  8
1
 10
1.790000
 20
1.730000
 30
0.000000
 11
1.780000
 21
1.730000
 31
0.000000
  0
LINE
  8
1
 10
1.893701
 20
1.360000
 30
0.000000
 11
1.840000
 21
1.360000
 31
0.000000
  0
LINE
  8
16
 10
1.840000
 20
1.360000
 30
0.000000
 11
1.830000
 21
1.360000
 31
0.000000
  0
LINE
  8
1
 10
1.893701
 20
1.510000
 30
0.000000
 11
1.950000
 21
1.510000
 31
0.000000
  0
LINE
  8
16
 10
1.950000
 20
1.510000
 30
0.000000
 11
1.960000
 21
1.510000
 31
0.000000
  0
LINE
  8
1
 10
3.370000
 20
0.760000
 30
0.000000
 11
3.456535
 21
0.760000
 31
0.000000
  0
LINE
  8
1
 10
3.283465
 20
0.760000
 30
0.000000
 11
3.370000
 21
0.760000
 31
0.000000
  0
LINE
  8
16
 10
3.370000
 20
0.760000
 30
0.000000
 11
3.370000
 21
0.770000
 31
0.000000
  0
LINE
  8
1
 10
3.445000
 20
0.622362
 30
0.000000
 11
3.445000
 21
0.748465
 31
0.000000
  0
LINE
  8
1
 10
3.445000
 20
0.748465
 30
0.000000
 11
3.456535
 21
0.760000
 31
0.000000
  0
LINE
  8
1
 10
2.677992
 20
0.623984
 30
0.000000
 11
2.727992
 21
0.623984
 31
0.000000
  0
LINE
  8
1
 10
2.677992
 20
0.623984
 30
0.000000
 11
2.677992
 21
0.597992
 31
0.000000
  0
LINE
  8
1
 10
2.677992
 20
0.597992
 30
0.000000
 11
2.620000
 21
0.540000
 31
0.000000
  0
LINE
  8
1
 10
3.685000
 20
0.622362
 30
0.000000
 11
3.685000
 21
0.655000
 31
0.000000
  0
LINE
  8
1
 10
3.685000
 20
0.655000
 30
0.000000
 11
3.640000
 21
0.700000
 31
0.000000
  0
LINE
  8
16
 10
3.640000
 20
0.700000
 30
0.000000
 11
3.630000
 21
0.700000
 31
0.000000
  0
LINE
  8
16
 10
3.543071
 20
1.595827
 30
0.000000
 11
3.543071
 21
1.816929
 31
0.000000
  0
LINE
  8
16
 10
3.543071
 20
1.816929
 30
0.000000
 11
3.540000
 21
1.820000
 31
0.000000
  0
LINE
  8
16
 10
3.543071
 20
1.595827
 30
0.000000
 11
3.543071
 21
1.523071
 31
0.000000
  0
LINE
  8
16
 10
3.543071
 20
1.523071
 30
0.000000
 11
3.530000
 21
1.510000
 31
0.000000
  0
LINE
  8
1
 10
3.530000
 20
1.510000
 30
0.000000
 11
3.530000
 21
1.470000
 31
0.000000
  0
LINE
  8
1
 10
3.530000
 20
1.470000
 30
0.000000
 11
3.580000
 21
1.420000
 31
0.000000
  0
LINE
  8
1
 10
3.580000
 20
1.420000
 30
0.000000
 11
3.580000
 21
1.402756
 31
0.000000
  0
LINE
  8
1
 10
3.580000
 20
1.402756
 30
0.000000
 11
3.543071
 21
1.365827
 31
0.000000
  0
LINE
  8
1
 10
2.553071
 20
2.055827
 30
0.000000
 11
2.553071
 21
2.053071
 31
0.000000
  0
LINE
  8
1
 10
2.553071
 20
2.053071
 30
0.000000
 11
2.550000
 21
2.050000
 31
0.000000
  0
LINE
  8
1
 10
2.550000
 20
2.050000
 30
0.000000
 11
2.550000
 21
1.930000
 31
0.000000
  0
LINE
  8
16
 10
2.550000
 20
1.930000
 30
0.000000
 11
2.550000
 21
1.828898
 31
0.000000
  0
LINE
  8
16
 10
2.550000
 20
1.828898
 30
0.000000
 11
2.553071
 21
1.825827
 31
0.000000
  0
INSERT
  8
18
  2
ROUNDV
 10
4.470000
 20
1.060000
 30
0.000000
 41
0.029000
 42
0.029000
 43
1.000000
 50
0.000000
  0
INSERT
  8
18
  2
ROUNDV
 10
4.470000
 20
1.060000
 30
0.000000
 41
0.029000
 42
0.029000
 43
1.000000
 50
0.000000
  0
INSERT
  8
18
  2
ROUNDV
 10
4.030000
 20
1.400000
 30
0.000000
 41
0.029000
 42
0.029000
 43
1.000000
 50
0.000000
  0
INSERT
  8
18
  2
ROUNDV
 10
4.030000
 20
1.400000
 30
0.000000
 41
0.029000
 42
0.029000
 43
1.000000
 50
0.000000
  0
INSERT
  8
18
  2
ROUNDV
 10
4.240000
 20
1.350000
 30
0.000000
 41
0.029000
 42
0.029000
 43
1.000000
 50
0.000000
  0
INSERT
  8
18
  2
ROUNDV
 10
4.240000
 20
1.350000
 30
0.000000
 41
0.029000
 42
0.029000
 43
1.000000
 50
0.000000
  0
INSERT
  8
18
  2
ROUNDV
 10
4.030000
 20
1.550000
 30
0.000000
 41
0.029000
 42
0.029000
 43
1.000000
 50
0.000000
  0
INSERT
  8
18
  2
ROUNDV
 10
4.030000
 20
1.550000
 30
0.000000
 41
0.029000
 42
0.029000
 43
1.000000
 50
0.000000
  0
INSERT
  8
18
  2
ROUNDV
 10
4.370000
 20
1.650000
 30
0.000000
 41
0.033685
 42
0.033685
 43
1.000000
 50
0.000000
  0
INSERT
  8
18
  2
ROUNDV
 10
4.370000
 20
1.650000
 30
0.000000
 41
0.033685
 42
0.033685
 43
1.000000
 50
0.000000
  0
INSERT
  8
18
  2
ROUNDV
 10
4.350000
 20
1.480000
 30
0.000000
 41
0.033685
 42
0.033685
 43
1.000000
 50
0.000000
  0
INSERT
  8
18
  2
ROUNDV
 10
4.350000
 20
1.480000
 30
0.000000
 41
0.033685
 42
0.033685
 43
1.000000
 50
0.000000
  0
INSERT
  8
18
  2
ROUNDV
 10
1.580000
 20
1.750000
 30
0.000000
 41
0.033685
 42
0.033685
 43
1.000000
 50
0.000000
  0
INSERT
  8
18
  2
ROUNDV
 10
1.580000
 20
1.750000
 30
0.000000
 41
0.033685
 42
0.033685
 43
1.000000
 50
0.000000
  0
INSERT
  8
18
  2
ROUNDV
 10
2.170000
 20
1.610000
 30
0.000000
 41
0.033685
 42
0.033685
 43
1.000000
 50
0.000000
  0
INSERT
  8
18
  2
ROUNDV
 10
2.170000
 20
1.610000
 30
0.000000
 41
0.033685
 42
0.033685
 43
1.000000
 50
0.000000
  0
INSERT
  8
18
  2
ROUNDV
 10
2.170000
 20
1.460000
 30
0.000000
 41
0.033685
 42
0.033685
 43
1.000000
 50
0.000000
  0
INSERT
  8
18
  2
ROUNDV
 10
2.170000
 20
1.460000
 30
0.000000
 41
0.033685
 42
0.033685
 43
1.000000
 50
0.000000
  0
INSERT
  8
18
  2
ROUNDV
 10
1.890000
 20
1.710000
 30
0.000000
 41
0.033685
 42
0.033685
 43
1.000000
 50
0.000000
  0
INSERT
  8
18
  2
ROUNDV
 10
1.890000
 20
1.710000
 30
0.000000
 41
0.033685
 42
0.033685
 43
1.000000
 50
0.000000
  0
INSERT
  8
18
  2
ROUNDV
 10
1.790000
 20
1.730000
 30
0.000000
 41
0.033685
 42
0.033685
 43
1.000000
 50
0.000000
  0
INSERT
  8
18
  2
ROUNDV
 10
1.790000
 20
1.730000
 30
0.000000
 41
0.033685
 42
0.033685
 43
1.000000
 50
0.000000
  0
INSERT
  8
18
  2
ROUNDV
 10
1.840000
 20
1.360000
 30
0.000000
 41
0.033685
 42
0.033685
 43
1.000000
 50
0.000000
  0
INSERT
  8
18
  2
ROUNDV
 10
1.840000
 20
1.360000
 30
0.000000
 41
0.033685
 42
0.033685
 43
1.000000
 50
0.000000
  0
INSERT
  8
18
  2
ROUNDV
 10
1.950000
 20
1.510000
 30
0.000000
 41
0.033685
 42
0.033685
 43
1.000000
 50
0.000000
  0
INSERT
  8
18
  2
ROUNDV
 10
1.950000
 20
1.510000
 30
0.000000
 41
0.033685
 42
0.033685
 43
1.000000
 50
0.000000
  0
INSERT
  8
18
  2
ROUNDV
 10
3.370000
 20
0.760000
 30
0.000000
 41
0.033685
 42
0.033685
 43
1.000000
 50
0.000000
  0
INSERT
  8
18
  2
ROUNDV
 10
3.370000
 20
0.760000
 30
0.000000
 41
0.033685
 42
0.033685
 43
1.000000
 50
0.000000
  0
INSERT
  8
18
  2
ROUNDV
 10
2.620000
 20
0.540000
 30
0.000000
 41
0.033685
 42
0.033685
 43
1.000000
 50
0.000000
  0
INSERT
  8
18
  2
ROUNDV
 10
2.620000
 20
0.540000
 30
0.000000
 41
0.033685
 42
0.033685
 43
1.000000
 50
0.000000
  0
INSERT
  8
18
  2
ROUNDV
 10
3.640000
 20
0.700000
 30
0.000000
 41
0.033685
 42
0.033685
 43
1.000000
 50
0.000000
  0
INSERT
  8
18
  2
ROUNDV
 10
3.640000
 20
0.700000
 30
0.000000
 41
0.033685
 42
0.033685
 43
1.000000
 50
0.000000
  0
INSERT
  8
18
  2
ROUNDV
 10
3.530000
 20
1.510000
 30
0.000000
 41
0.033685
 42
0.033685
 43
1.000000
 50
0.000000
  0
INSERT
  8
18
  2
ROUNDV
 10
3.530000
 20
1.510000
 30
0.000000
 41
0.033685
 42
0.033685
 43
1.000000
 50
0.000000
  0
INSERT
  8
18
  2
ROUNDV
 10
2.550000
 20
1.930000
 30
0.000000
 41
0.029000
 42
0.029000
 43
1.000000
 50
0.000000
  0
INSERT
  8
18
  2
ROUNDV
 10
2.550000
 20
1.930000
 30
0.000000
 41
0.029000
 42
0.029000
 43
1.000000
 50
0.000000
  0
LINE
  8
1
 10
2.150000
 20
2.050000
 30
0.000000
 11
2.150000
 21
1.940000
 31
0.000000
  0
LINE
  8
16
 10
2.150000
 20
1.940000
 30
0.000000
 11
2.150000
 21
1.750000
 31
0.000000
  0
LINE
  8
16
 10
2.150000
 20
1.750000
 30
0.000000
 11
2.240000
 21
1.660000
 31
0.000000
  0
LINE
  8
16
 10
2.240000
 20
1.660000
 30
0.000000
 11
2.240000
 21
1.180000
 31
0.000000
  0
LINE
  8
16
 10
2.240000
 20
1.180000
 30
0.000000
 11
2.630000
 21
0.790000
 31
0.000000
  0
LINE
  8
1
 10
2.630000
 20
0.790000
 30
0.000000
 11
2.630000
 21
0.625992
 31
0.000000
  0
LINE
  8
1
 10
2.630000
 20
0.625992
 30
0.000000
 11
2.627992
 21
0.623984
 31
0.000000
  0
INSERT
  8
18
  2
ROUNDV
 10
2.150000
 20
1.940000
 30
0.000000
 41
0.033685
 42
0.033685
 43
1.000000
 50
0.000000
  0
INSERT
  8
18
  2
ROUNDV
 10
2.150000
 20
1.940000
 30
0.000000
 41
0.033685
 42
0.033685
 43
1.000000
 50
0.000000
  0
INSERT
  8
18
  2
ROUNDV
 10
2.630000
 20
0.790000
 30
0.000000
 41
0.033685
 42
0.033685
 43
1.000000
 50
0.000000
  0
INSERT
  8
18
  2
ROUNDV
 10
2.630000
 20
0.790000
 30
0.000000
 41
0.033685
 42
0.033685
 43
1.000000
 50
0.000000
  0
LINE
  8
1
 10
2.813425
 20
0.621102
 30
0.000000
 11
2.863425
 21
0.621102
 31
0.000000
  0
LINE
  8
1
 10
2.863425
 20
0.621102
 30
0.000000
 11
2.913425
 21
0.621102
 31
0.000000
  0
LINE
  8
1
 10
2.913425
 20
0.621102
 30
0.000000
 11
2.963425
 21
0.621102
 31
0.000000
  0
LINE
  8
1
 10
2.963425
 20
0.621102
 30
0.000000
 11
2.963425
 21
0.673425
 31
0.000000
  0
LINE
  8
1
 10
2.963425
 20
0.673425
 30
0.000000
 11
2.980000
 21
0.690000
 31
0.000000
  0
LINE
  8
1
 10
2.980000
 20
0.690000
 30
0.000000
 11
3.050000
 21
0.690000
 31
0.000000
  0
LINE
  8
1
 10
3.050000
 20
0.690000
 30
0.000000
 11
3.180000
 21
0.820000
 31
0.000000
  0
LINE
  8
1
 10
3.180000
 20
0.820000
 30
0.000000
 11
3.490000
 21
0.820000
 31
0.000000
  0
LINE
  8
1
 10
3.490000
 20
0.820000
 30
0.000000
 11
3.510000
 21
0.800000
 31
0.000000
  0
LINE
  8
1
 10
3.510000
 20
0.800000
 30
0.000000
 11
3.510000
 21
0.773465
 31
0.000000
  0
LINE
  8
1
 10
3.510000
 20
0.773465
 30
0.000000
 11
3.523465
 21
0.760000
 31
0.000000
  0
LINE
  8
1
 10
3.523465
 20
0.760000
 30
0.000000
 11
3.630000
 21
0.760000
 31
0.000000
  0
LINE
  8
1
 10
3.630000
 20
0.760000
 30
0.000000
 11
3.750000
 21
0.640000
 31
0.000000
  0
LINE
  8
16
 10
3.750000
 20
0.640000
 30
0.000000
 11
3.750000
 21
0.410000
 31
0.000000
  0
LINE
  8
1
 10
3.750000
 20
0.410000
 30
0.000000
 11
3.750000
 21
0.400000
 31
0.000000
  0
LINE
  8
1
 10
3.750000
 20
0.400000
 30
0.000000
 11
3.730000
 21
0.380000
 31
0.000000
  0
LINE
  8
1
 10
3.730000
 20
0.380000
 30
0.000000
 11
3.690000
 21
0.380000
 31
0.000000
  0
LINE
  8
1
 10
3.690000
 20
0.380000
 30
0.000000
 11
3.690000
 21
0.412638
 31
0.000000
  0
LINE
  8
1
 10
3.690000
 20
0.412638
 30
0.000000
 11
3.685000
 21
0.417638
 31
0.000000
  0
LINE
  8
1
 10
3.685000
 20
0.417638
 30
0.000000
 11
3.685000
 21
0.355000
 31
0.000000
  0
LINE
  8
1
 10
3.685000
 20
0.355000
 30
0.000000
 11
3.680000
 21
0.350000
 31
0.000000
  0
LINE
  8
1
 10
3.680000
 20
0.350000
 30
0.000000
 11
3.600000
 21
0.350000
 31
0.000000
  0
LINE
  8
1
 10
3.600000
 20
0.350000
 30
0.000000
 11
3.590000
 21
0.360000
 31
0.000000
  0
LINE
  8
1
 10
3.590000
 20
0.360000
 30
0.000000
 11
3.590000
 21
0.412638
 31
0.000000
  0
LINE
  8
1
 10
3.590000
 20
0.412638
 30
0.000000
 11
3.585000
 21
0.417638
 31
0.000000
  0
LINE
  8
16
 10
4.525000
 20
0.645000
 30
0.000000
 11
4.555000
 21
0.645000
 31
0.000000
  0
LINE
  8
16
 10
4.555000
 20
0.645000
 30
0.000000
 11
4.700000
 21
0.500000
 31
0.000000
  0
LINE
  8
16
 10
4.700000
 20
0.500000
 30
0.000000
 11
4.700000
 21
0.320000
 31
0.000000
  0
LINE
  8
16
 10
4.700000
 20
0.320000
 30
0.000000
 11
4.680000
 21
0.300000
 31
0.000000
  0
LINE
  8
16
 10
4.680000
 20
0.300000
 30
0.000000
 11
3.860000
 21
0.300000
 31
0.000000
  0
LINE
  8
16
 10
3.860000
 20
0.300000
 30
0.000000
 11
3.750000
 21
0.410000
 31
0.000000
  0
INSERT
  8
18
  2
ROUNDV
 10
3.750000
 20
0.640000
 30
0.000000
 41
0.033685
 42
0.033685
 43
1.000000
 50
0.000000
  0
INSERT
  8
18
  2
ROUNDV
 10
3.750000
 20
0.640000
 30
0.000000
 41
0.033685
 42
0.033685
 43
1.000000
 50
0.000000
  0
INSERT
  8
18
  2
ROUNDV
 10
3.750000
 20
0.410000
 30
0.000000
 41
0.033685
 42
0.033685
 43
1.000000
 50
0.000000
  0
INSERT
  8
18
  2
ROUNDV
 10
3.750000
 20
0.410000
 30
0.000000
 41
0.033685
 42
0.033685
 43
1.000000
 50
0.000000
  0
LINE
  8
16
 10
2.753071
 20
2.055827
 30
0.000000
 11
2.753071
 21
2.053071
 31
0.000000
  0
LINE
  8
16
 10
2.753071
 20
2.053071
 30
0.000000
 11
2.700000
 21
2.000000
 31
0.000000
  0
LINE
  8
16
 10
2.700000
 20
2.000000
 30
0.000000
 11
2.000000
 21
2.000000
 31
0.000000
  0
LINE
  8
16
 10
2.000000
 20
2.000000
 30
0.000000
 11
1.950000
 21
2.050000
 31
0.000000
  0
LINE
  8
16
 10
1.850000
 20
2.050000
 30
0.000000
 11
1.930000
 21
1.970000
 31
0.000000
  0
LINE
  8
16
 10
1.930000
 20
1.970000
 30
0.000000
 11
2.610000
 21
1.970000
 31
0.000000
  0
LINE
  8
16
 10
2.753071
 20
1.825827
 30
0.000000
 11
2.753071
 21
1.826929
 31
0.000000
  0
LINE
  8
16
 10
2.753071
 20
1.826929
 30
0.000000
 11
2.610000
 21
1.970000
 31
0.000000
  0
LINE
  8
16
 10
1.750000
 20
2.050000
 30
0.000000
 11
1.770000
 21
2.050000
 31
0.000000
  0
LINE
  8
16
 10
1.770000
 20
2.050000
 30
0.000000
 11
1.820000
 21
2.000000
 31
0.000000
  0
LINE
  8
16
 10
1.820000
 20
2.000000
 30
0.000000
 11
1.850000
 21
2.000000
 31
0.000000
  0
LINE
  8
16
 10
1.850000
 20
2.000000
 30
0.000000
 11
1.990000
 21
1.860000
 31
0.000000
  0
LINE
  8
16
 10
2.430000
 20
1.860000
 30
0.000000
 11
2.530000
 21
1.760000
 31
0.000000
  0
LINE
  8
16
 10
2.530000
 20
1.760000
 30
0.000000
 11
2.588898
 21
1.760000
 31
0.000000
  0
LINE
  8
16
 10
2.588898
 20
1.760000
 30
0.000000
 11
2.753071
 21
1.595827
 31
0.000000
  0
LINE
  8
16
 10
1.990000
 20
1.860000
 30
0.000000
 11
2.080000
 21
1.860000
 31
0.000000
  0
LINE
  8
1
 10
2.080000
 20
1.860000
 30
0.000000
 11
2.230000
 21
1.860000
 31
0.000000
  0
LINE
  8
16
 10
2.230000
 20
1.860000
 30
0.000000
 11
2.430000
 21
1.860000
 31
0.000000
  0
INSERT
  8
18
  2
ROUNDV
 10
2.080000
 20
1.860000
 30
0.000000
 41
0.033685
 42
0.033685
 43
1.000000
 50
0.000000
  0
INSERT
  8
18
  2
ROUNDV
 10
2.080000
 20
1.860000
 30
0.000000
 41
0.033685
 42
0.033685
 43
1.000000
 50
0.000000
  0
INSERT
  8
18
  2
ROUNDV
 10
2.230000
 20
1.860000
 30
0.000000
 41
0.033685
 42
0.033685
 43
1.000000
 50
0.000000
  0
INSERT
  8
18
  2
ROUNDV
 10
2.230000
 20
1.860000
 30
0.000000
 41
0.033685
 42
0.033685
 43
1.000000
 50
0.000000
  0
LINE
  8
1
 10
1.650000
 20
2.050000
 30
0.000000
 11
1.650000
 21
2.010000
 31
0.000000
  0
LINE
  8
1
 10
1.650000
 20
2.010000
 30
0.000000
 11
1.750000
 21
1.910000
 31
0.000000
  0
LINE
  8
16
 10
1.750000
 20
1.910000
 30
0.000000
 11
1.890000
 21
1.910000
 31
0.000000
  0
LINE
  8
16
 10
1.890000
 20
1.910000
 30
0.000000
 11
1.970000
 21
1.830000
 31
0.000000
  0
LINE
  8
16
 10
1.970000
 20
1.830000
 30
0.000000
 11
2.040000
 21
1.830000
 31
0.000000
  0
LINE
  8
16
 10
2.040000
 20
1.830000
 30
0.000000
 11
2.090000
 21
1.780000
 31
0.000000
  0
LINE
  8
1
 10
2.090000
 20
1.780000
 30
0.000000
 11
2.250000
 21
1.780000
 31
0.000000
  0
LINE
  8
1
 10
2.250000
 20
1.780000
 30
0.000000
 11
2.520000
 21
1.510000
 31
0.000000
  0
LINE
  8
1
 10
2.520000
 20
1.510000
 30
0.000000
 11
2.608898
 21
1.510000
 31
0.000000
  0
LINE
  8
1
 10
2.608898
 20
1.510000
 30
0.000000
 11
2.753071
 21
1.365827
 31
0.000000
  0
INSERT
  8
18
  2
ROUNDV
 10
1.750000
 20
1.910000
 30
0.000000
 41
0.033685
 42
0.033685
 43
1.000000
 50
0.000000
  0
INSERT
  8
18
  2
ROUNDV
 10
1.750000
 20
1.910000
 30
0.000000
 41
0.033685
 42
0.033685
 43
1.000000
 50
0.000000
  0
INSERT
  8
18
  2
ROUNDV
 10
2.090000
 20
1.780000
 30
0.000000
 41
0.033685
 42
0.033685
 43
1.000000
 50
0.000000
  0
INSERT
  8
18
  2
ROUNDV
 10
2.090000
 20
1.780000
 30
0.000000
 41
0.033685
 42
0.033685
 43
1.000000
 50
0.000000
  0
LINE
  8
16
 10
2.150000
 20
2.150000
 30
0.000000
 11
2.170000
 21
2.150000
 31
0.000000
  0
LINE
  8
16
 10
2.170000
 20
2.150000
 30
0.000000
 11
2.220000
 21
2.100000
 31
0.000000
  0
LINE
  8
16
 10
2.220000
 20
2.100000
 30
0.000000
 11
2.410000
 21
2.100000
 31
0.000000
  0
LINE
  8
16
 10
2.410000
 20
2.100000
 30
0.000000
 11
2.430000
 21
2.120000
 31
0.000000
  0
LINE
  8
16
 10
2.430000
 20
2.120000
 30
0.000000
 11
3.018898
 21
2.120000
 31
0.000000
  0
LINE
  8
16
 10
3.018898
 20
2.120000
 30
0.000000
 11
3.083071
 21
2.055827
 31
0.000000
  0
LINE
  8
1
 10
2.050000
 20
2.150000
 30
0.000000
 11
2.100000
 21
2.100000
 31
0.000000
  0
LINE
  8
1
 10
2.100000
 20
2.100000
 30
0.000000
 11
2.460000
 21
2.100000
 31
0.000000
  0
LINE
  8
1
 10
2.460000
 20
2.100000
 30
0.000000
 11
2.480000
 21
2.120000
 31
0.000000
  0
LINE
  8
1
 10
2.480000
 20
2.120000
 30
0.000000
 11
2.790000
 21
2.120000
 31
0.000000
  0
LINE
  8
1
 10
2.790000
 20
2.120000
 30
0.000000
 11
2.820000
 21
2.090000
 31
0.000000
  0
LINE
  8
1
 10
2.820000
 20
2.090000
 30
0.000000
 11
2.820000
 21
2.030000
 31
0.000000
  0
LINE
  8
1
 10
2.820000
 20
2.030000
 30
0.000000
 11
2.860000
 21
1.990000
 31
0.000000
  0
LINE
  8
1
 10
2.860000
 20
1.990000
 30
0.000000
 11
3.040000
 21
1.990000
 31
0.000000
  0
LINE
  8
1
 10
3.040000
 20
1.990000
 30
0.000000
 11
3.080000
 21
1.950000
 31
0.000000
  0
LINE
  8
1
 10
3.080000
 20
1.950000
 30
0.000000
 11
3.080000
 21
1.828898
 31
0.000000
  0
LINE
  8
1
 10
3.080000
 20
1.828898
 30
0.000000
 11
3.083071
 21
1.825827
 31
0.000000
  0
LINE
  8
16
 10
1.450000
 20
2.150000
 30
0.000000
 11
1.500000
 21
2.100000
 31
0.000000
  0
LINE
  8
16
 10
1.500000
 20
2.100000
 30
0.000000
 11
1.990000
 21
2.100000
 31
0.000000
  0
LINE
  8
16
 10
1.990000
 20
2.100000
 30
0.000000
 11
2.000000
 21
2.090000
 31
0.000000
  0
LINE
  8
1
 10
2.000000
 20
2.090000
 30
0.000000
 11
2.000000
 21
1.950000
 31
0.000000
  0
LINE
  8
1
 10
2.820000
 20
1.770000
 30
0.000000
 11
2.860000
 21
1.730000
 31
0.000000
  0
LINE
  8
1
 10
2.860000
 20
1.730000
 30
0.000000
 11
2.948898
 21
1.730000
 31
0.000000
  0
LINE
  8
1
 10
2.948898
 20
1.730000
 30
0.000000
 11
3.083071
 21
1.595827
 31
0.000000
  0
LINE
  8
1
 10
2.820000
 20
1.770000
 30
0.000000
 11
2.820000
 21
1.850000
 31
0.000000
  0
LINE
  8
1
 10
2.820000
 20
1.850000
 30
0.000000
 11
2.780000
 21
1.890000
 31
0.000000
  0
LINE
  8
1
 10
2.780000
 20
1.890000
 30
0.000000
 11
2.060000
 21
1.890000
 31
0.000000
  0
LINE
  8
1
 10
2.060000
 20
1.890000
 30
0.000000
 11
2.000000
 21
1.950000
 31
0.000000
  0
INSERT
  8
18
  2
ROUNDV
 10
2.000000
 20
2.090000
 30
0.000000
 41
0.033685
 42
0.033685
 43
1.000000
 50
0.000000
  0
INSERT
  8
18
  2
ROUNDV
 10
2.000000
 20
2.090000
 30
0.000000
 41
0.033685
 42
0.033685
 43
1.000000
 50
0.000000
  0
LINE
  8
16
 10
3.083071
 20
1.365827
 30
0.000000
 11
3.083071
 21
1.363071
 31
0.000000
  0
LINE
  8
16
 10
3.083071
 20
1.363071
 30
0.000000
 11
3.000000
 21
1.280000
 31
0.000000
  0
LINE
  8
16
 10
3.000000
 20
1.280000
 30
0.000000
 11
2.310000
 21
1.280000
 31
0.000000
  0
LINE
  8
16
 10
2.170000
 20
1.280000
 30
0.000000
 11
2.030000
 21
1.280000
 31
0.000000
  0
LINE
  8
16
 10
2.030000
 20
1.280000
 30
0.000000
 11
1.840000
 21
1.090000
 31
0.000000
  0
LINE
  8
16
 10
1.840000
 20
1.090000
 30
0.000000
 11
1.620000
 21
1.090000
 31
0.000000
  0
LINE
  8
16
 10
1.620000
 20
1.090000
 30
0.000000
 11
1.520000
 21
1.190000
 31
0.000000
  0
LINE
  8
1
 10
1.600000
 20
1.870000
 30
0.000000
 11
1.520000
 21
1.790000
 31
0.000000
  0
LINE
  8
16
 10
1.520000
 20
1.790000
 30
0.000000
 11
1.520000
 21
1.190000
 31
0.000000
  0
LINE
  8
1
 10
1.550000
 20
2.150000
 30
0.000000
 11
1.600000
 21
2.100000
 31
0.000000
  0
LINE
  8
1
 10
1.600000
 20
2.100000
 30
0.000000
 11
1.600000
 21
1.870000
 31
0.000000
  0
LINE
  8
1
 10
2.170000
 20
1.280000
 30
0.000000
 11
2.310000
 21
1.280000
 31
0.000000
  0
INSERT
  8
18
  2
ROUNDV
 10
1.520000
 20
1.790000
 30
0.000000
 41
0.033685
 42
0.033685
 43
1.000000
 50
0.000000
  0
INSERT
  8
18
  2
ROUNDV
 10
1.520000
 20
1.790000
 30
0.000000
 41
0.033685
 42
0.033685
 43
1.000000
 50
0.000000
  0
INSERT
  8
18
  2
ROUNDV
 10
2.170000
 20
1.280000
 30
0.000000
 41
0.029000
 42
0.029000
 43
1.000000
 50
0.000000
  0
INSERT
  8
18
  2
ROUNDV
 10
2.170000
 20
1.280000
 30
0.000000
 41
0.029000
 42
0.029000
 43
1.000000
 50
0.000000
  0
INSERT
  8
18
  2
ROUNDV
 10
2.310000
 20
1.280000
 30
0.000000
 41
0.029000
 42
0.029000
 43
1.000000
 50
0.000000
  0
INSERT
  8
18
  2
ROUNDV
 10
2.310000
 20
1.280000
 30
0.000000
 41
0.029000
 42
0.029000
 43
1.000000
 50
0.000000
  0
LINE
  8
1
 10
3.413071
 20
2.055827
 30
0.000000
 11
3.413071
 21
1.906929
 31
0.000000
  0
LINE
  8
1
 10
3.413071
 20
1.906929
 30
0.000000
 11
3.480000
 21
1.840000
 31
0.000000
  0
LINE
  8
1
 10
3.480000
 20
1.840000
 30
0.000000
 11
3.480000
 21
1.570000
 31
0.000000
  0
LINE
  8
1
 10
3.480000
 20
1.570000
 30
0.000000
 11
3.510000
 21
1.540000
 31
0.000000
  0
LINE
  8
1
 10
3.510000
 20
1.540000
 30
0.000000
 11
3.740000
 21
1.540000
 31
0.000000
  0
LINE
  8
1
 10
3.740000
 20
1.540000
 30
0.000000
 11
3.870000
 21
1.410000
 31
0.000000
  0
LINE
  8
1
 10
3.870000
 20
1.410000
 30
0.000000
 11
3.870000
 21
1.330000
 31
0.000000
  0
LINE
  8
1
 10
3.870000
 20
1.330000
 30
0.000000
 11
4.010000
 21
1.190000
 31
0.000000
  0
LINE
  8
1
 10
4.010000
 20
1.190000
 30
0.000000
 11
4.010000
 21
0.740000
 31
0.000000
  0
LINE
  8
16
 10
4.010000
 20
0.740000
 30
0.000000
 11
4.010000
 21
0.640000
 31
0.000000
  0
LINE
  8
16
 10
4.010000
 20
0.640000
 30
0.000000
 11
4.130000
 21
0.520000
 31
0.000000
  0
LINE
  8
16
 10
4.130000
 20
0.520000
 30
0.000000
 11
4.180000
 21
0.520000
 31
0.000000
  0
LINE
  8
16
 10
4.180000
 20
0.520000
 30
0.000000
 11
4.250000
 21
0.450000
 31
0.000000
  0
INSERT
  8
18
  2
ROUNDV
 10
4.010000
 20
0.740000
 30
0.000000
 41
0.033685
 42
0.033685
 43
1.000000
 50
0.000000
  0
INSERT
  8
18
  2
ROUNDV
 10
4.010000
 20
0.740000
 30
0.000000
 41
0.033685
 42
0.033685
 43
1.000000
 50
0.000000
  0
LINE
  8
16
 10
3.413071
 20
1.825827
 30
0.000000
 11
3.413071
 21
1.736929
 31
0.000000
  0
LINE
  8
16
 10
3.413071
 20
1.736929
 30
0.000000
 11
3.480000
 21
1.670000
 31
0.000000
  0
LINE
  8
16
 10
3.480000
 20
1.670000
 30
0.000000
 11
3.480000
 21
1.450000
 31
0.000000
  0
LINE
  8
1
 10
3.480000
 20
1.450000
 30
0.000000
 11
3.480000
 21
1.270000
 31
0.000000
  0
LINE
  8
1
 10
3.480000
 20
1.270000
 30
0.000000
 11
3.690000
 21
1.060000
 31
0.000000
  0
LINE
  8
1
 10
3.690000
 20
1.060000
 30
0.000000
 11
3.760000
 21
1.060000
 31
0.000000
  0
LINE
  8
1
 10
3.760000
 20
1.060000
 30
0.000000
 11
3.920000
 21
0.900000
 31
0.000000
  0
LINE
  8
1
 10
3.920000
 20
0.900000
 30
0.000000
 11
3.920000
 21
0.630000
 31
0.000000
  0
LINE
  8
1
 10
3.920000
 20
0.630000
 30
0.000000
 11
3.850000
 21
0.560000
 31
0.000000
  0
LINE
  8
16
 10
3.850000
 20
0.560000
 30
0.000000
 11
3.850000
 21
0.450000
 31
0.000000
  0
LINE
  8
16
 10
3.850000
 20
0.450000
 30
0.000000
 11
3.900000
 21
0.400000
 31
0.000000
  0
LINE
  8
16
 10
3.900000
 20
0.400000
 30
0.000000
 11
4.000000
 21
0.400000
 31
0.000000
  0
LINE
  8
1
 10
4.150000
 20
0.450000
 30
0.000000
 11
4.100000
 21
0.400000
 31
0.000000
  0
LINE
  8
1
 10
4.100000
 20
0.400000
 30
0.000000
 11
4.000000
 21
0.400000
 31
0.000000
  0
INSERT
  8
18
  2
ROUNDV
 10
3.480000
 20
1.450000
 30
0.000000
 41
0.033685
 42
0.033685
 43
1.000000
 50
0.000000
  0
INSERT
  8
18
  2
ROUNDV
 10
3.480000
 20
1.450000
 30
0.000000
 41
0.033685
 42
0.033685
 43
1.000000
 50
0.000000
  0
INSERT
  8
18
  2
ROUNDV
 10
3.850000
 20
0.560000
 30
0.000000
 41
0.033685
 42
0.033685
 43
1.000000
 50
0.000000
  0
INSERT
  8
18
  2
ROUNDV
 10
3.850000
 20
0.560000
 30
0.000000
 41
0.033685
 42
0.033685
 43
1.000000
 50
0.000000
  0
INSERT
  8
18
  2
ROUNDV
 10
4.000000
 20
0.400000
 30
0.000000
 41
0.033685
 42
0.033685
 43
1.000000
 50
0.000000
  0
INSERT
  8
18
  2
ROUNDV
 10
4.000000
 20
0.400000
 30
0.000000
 41
0.033685
 42
0.033685
 43
1.000000
 50
0.000000
  0
LINE
  8
16
 10
4.050000
 20
0.450000
 30
0.000000
 11
4.050000
 21
0.500000
 31
0.000000
  0
LINE
  8
16
 10
4.050000
 20
0.500000
 30
0.000000
 11
3.940000
 21
0.610000
 31
0.000000
  0
LINE
  8
16
 10
3.940000
 20
0.610000
 30
0.000000
 11
3.940000
 21
1.250000
 31
0.000000
  0
LINE
  8
16
 10
3.940000
 20
1.250000
 30
0.000000
 11
3.720000
 21
1.470000
 31
0.000000
  0
LINE
  8
16
 10
3.720000
 20
1.470000
 30
0.000000
 11
3.560000
 21
1.470000
 31
0.000000
  0
LINE
  8
16
 10
3.560000
 20
1.470000
 30
0.000000
 11
3.510000
 21
1.420000
 31
0.000000
  0
LINE
  8
16
 10
3.510000
 20
1.420000
 30
0.000000
 11
3.440000
 21
1.420000
 31
0.000000
  0
LINE
  8
16
 10
3.440000
 20
1.420000
 30
0.000000
 11
3.410000
 21
1.450000
 31
0.000000
  0
LINE
  8
16
 10
3.410000
 20
1.450000
 30
0.000000
 11
3.410000
 21
1.592756
 31
0.000000
  0
LINE
  8
16
 10
3.410000
 20
1.592756
 30
0.000000
 11
3.413071
 21
1.595827
 31
0.000000
  0
LINE
  8
16
 10
3.413071
 20
1.365827
 30
0.000000
 11
3.414173
 21
1.365827
 31
0.000000
  0
LINE
  8
16
 10
3.414173
 20
1.365827
 30
0.000000
 11
3.770000
 21
1.010000
 31
0.000000
  0
LINE
  8
16
 10
3.770000
 20
1.010000
 30
0.000000
 11
3.800000
 21
1.010000
 31
0.000000
  0
LINE
  8
16
 10
3.800000
 20
1.010000
 30
0.000000
 11
3.920000
 21
0.890000
 31
0.000000
  0
LINE
  8
16
 10
3.920000
 20
0.890000
 30
0.000000
 11
3.920000
 21
0.480000
 31
0.000000
  0
LINE
  8
16
 10
3.920000
 20
0.480000
 30
0.000000
 11
3.950000
 21
0.450000
 31
0.000000
  0
LINE
  8
1
 10
3.743071
 20
2.055827
 30
0.000000
 11
3.743071
 21
1.946929
 31
0.000000
  0
LINE
  8
1
 10
3.743071
 20
1.946929
 30
0.000000
 11
3.960000
 21
1.730000
 31
0.000000
  0
LINE
  8
1
 10
3.960000
 20
1.730000
 30
0.000000
 11
3.960000
 21
1.360000
 31
0.000000
  0
LINE
  8
1
 10
3.960000
 20
1.360000
 30
0.000000
 11
4.050000
 21
1.270000
 31
0.000000
  0
LINE
  8
1
 10
4.050000
 20
1.270000
 30
0.000000
 11
4.180000
 21
1.270000
 31
0.000000
  0
LINE
  8
1
 10
4.180000
 20
1.270000
 30
0.000000
 11
4.650000
 21
0.800000
 31
0.000000
  0
LINE
  8
1
 10
4.650000
 20
0.800000
 30
0.000000
 11
4.700000
 21
0.800000
 31
0.000000
  0
LINE
  8
1
 10
4.700000
 20
0.800000
 30
0.000000
 11
4.850000
 21
0.650000
 31
0.000000
  0
LINE
  8
1
 10
4.850000
 20
0.650000
 30
0.000000
 11
4.850000
 21
0.450000
 31
0.000000
  0
LINE
  8
1
 10
3.743071
 20
1.825827
 30
0.000000
 11
3.804173
 21
1.825827
 31
0.000000
  0
LINE
  8
1
 10
3.804173
 20
1.825827
 30
0.000000
 11
3.930000
 21
1.700000
 31
0.000000
  0
LINE
  8
1
 10
3.930000
 20
1.700000
 30
0.000000
 11
3.930000
 21
1.350000
 31
0.000000
  0
LINE
  8
1
 10
3.930000
 20
1.350000
 30
0.000000
 11
4.040000
 21
1.240000
 31
0.000000
  0
LINE
  8
1
 10
4.040000
 20
1.240000
 30
0.000000
 11
4.170000
 21
1.240000
 31
0.000000
  0
LINE
  8
1
 10
4.170000
 20
1.240000
 30
0.000000
 11
4.750000
 21
0.660000
 31
0.000000
  0
LINE
  8
1
 10
4.750000
 20
0.660000
 30
0.000000
 11
4.750000
 21
0.450000
 31
0.000000
  0
LINE
  8
1
 10
3.743071
 20
1.595827
 30
0.000000
 11
3.743071
 21
1.576929
 31
0.000000
  0
LINE
  8
1
 10
3.743071
 20
1.576929
 30
0.000000
 11
3.900000
 21
1.420000
 31
0.000000
  0
LINE
  8
1
 10
3.900000
 20
1.420000
 30
0.000000
 11
3.900000
 21
1.340000
 31
0.000000
  0
LINE
  8
1
 10
3.900000
 20
1.340000
 30
0.000000
 11
4.030000
 21
1.210000
 31
0.000000
  0
LINE
  8
1
 10
4.030000
 20
1.210000
 30
0.000000
 11
4.160000
 21
1.210000
 31
0.000000
  0
LINE
  8
1
 10
4.160000
 20
1.210000
 30
0.000000
 11
4.660000
 21
0.710000
 31
0.000000
  0
LINE
  8
1
 10
4.660000
 20
0.710000
 30
0.000000
 11
4.660000
 21
0.460000
 31
0.000000
  0
LINE
  8
1
 10
4.660000
 20
0.460000
 30
0.000000
 11
4.650000
 21
0.450000
 31
0.000000
  0
LINE
  8
1
 10
3.743071
 20
1.365827
 30
0.000000
 11
3.794173
 21
1.365827
 31
0.000000
  0
LINE
  8
1
 10
3.794173
 20
1.365827
 30
0.000000
 11
3.980000
 21
1.180000
 31
0.000000
  0
LINE
  8
1
 10
3.980000
 20
1.180000
 30
0.000000
 11
3.980000
 21
0.790000
 31
0.000000
  0
LINE
  8
1
 10
3.980000
 20
0.790000
 30
0.000000
 11
3.970000
 21
0.780000
 31
0.000000
  0
LINE
  8
1
 10
3.970000
 20
0.780000
 30
0.000000
 11
3.970000
 21
0.690000
 31
0.000000
  0
LINE
  8
16
 10
3.970000
 20
0.690000
 30
0.000000
 11
3.970000
 21
0.620000
 31
0.000000
  0
LINE
  8
16
 10
3.970000
 20
0.620000
 30
0.000000
 11
4.100000
 21
0.490000
 31
0.000000
  0
LINE
  8
16
 10
4.100000
 20
0.490000
 30
0.000000
 11
4.100000
 21
0.420000
 31
0.000000
  0
LINE
  8
16
 10
4.100000
 20
0.420000
 30
0.000000
 11
4.120000
 21
0.400000
 31
0.000000
  0
LINE
  8
16
 10
4.120000
 20
0.400000
 30
0.000000
 11
4.600000
 21
0.400000
 31
0.000000
  0
LINE
  8
16
 10
4.600000
 20
0.400000
 30
0.000000
 11
4.650000
 21
0.350000
 31
0.000000
  0
INSERT
  8
18
  2
ROUNDV
 10
3.970000
 20
0.690000
 30
0.000000
 41
0.033685
 42
0.033685
 43
1.000000
 50
0.000000
  0
INSERT
  8
18
  2
ROUNDV
 10
3.970000
 20
0.690000
 30
0.000000
 41
0.033685
 42
0.033685
 43
1.000000
 50
0.000000
  0
LINE
  8
1
 10
2.106299
 20
1.510000
 30
0.000000
 11
2.040000
 21
1.510000
 31
0.000000
  0
LINE
  8
1
 10
2.040000
 20
1.510000
 30
0.000000
 11
1.960000
 21
1.590000
 31
0.000000
  0
LINE
  8
16
 10
1.960000
 20
1.590000
 30
0.000000
 11
1.900000
 21
1.590000
 31
0.000000
  0
LINE
  8
16
 10
1.900000
 20
1.590000
 30
0.000000
 11
1.780000
 21
1.470000
 31
0.000000
  0
LINE
  8
1
 10
1.780000
 20
1.470000
 30
0.000000
 11
1.750000
 21
1.470000
 31
0.000000
  0
LINE
  8
1
 10
1.750000
 20
1.470000
 30
0.000000
 11
1.681000
 21
1.401000
 31
0.000000
  0
INSERT
  8
18
  2
ROUNDV
 10
1.960000
 20
1.590000
 30
0.000000
 41
0.033685
 42
0.033685
 43
1.000000
 50
0.000000
  0
INSERT
  8
18
  2
ROUNDV
 10
1.960000
 20
1.590000
 30
0.000000
 41
0.033685
 42
0.033685
 43
1.000000
 50
0.000000
  0
INSERT
  8
18
  2
ROUNDV
 10
1.780000
 20
1.470000
 30
0.000000
 41
0.033685
 42
0.033685
 43
1.000000
 50
0.000000
  0
INSERT
  8
18
  2
ROUNDV
 10
1.780000
 20
1.470000
 30
0.000000
 41
0.033685
 42
0.033685
 43
1.000000
 50
0.000000
  0
LINE
  8
1
 10
4.083701
 20
1.450000
 30
0.000000
 11
4.060000
 21
1.450000
 31
0.000000
  0
LINE
  8
1
 10
4.060000
 20
1.450000
 30
0.000000
 11
3.990000
 21
1.520000
 31
0.000000
  0
LINE
  8
1
 10
3.990000
 20
1.520000
 30
0.000000
 11
3.990000
 21
1.690000
 31
0.000000
  0
LINE
  8
1
 10
3.990000
 20
1.690000
 30
0.000000
 11
4.350000
 21
2.050000
 31
0.000000
  0
LINE
  8
1
 10
4.579000
 20
1.409000
 30
0.000000
 11
4.471000
 21
1.409000
 31
0.000000
  0
LINE
  8
1
 10
4.471000
 20
1.409000
 30
0.000000
 11
4.355000
 21
1.525000
 31
0.000000
  0
LINE
  8
1
 10
4.355000
 20
1.525000
 30
0.000000
 11
4.165000
 21
1.525000
 31
0.000000
  0
LINE
  8
1
 10
4.165000
 20
1.525000
 30
0.000000
 11
4.140000
 21
1.500000
 31
0.000000
  0
LINE
  8
1
 10
4.140000
 20
1.500000
 30
0.000000
 11
4.083701
 21
1.500000
 31
0.000000
  0
LINE
  8
1
 10
2.106299
 20
1.360000
 30
0.000000
 11
1.990000
 21
1.360000
 31
0.000000
  0
LINE
  8
1
 10
1.990000
 20
1.360000
 30
0.000000
 11
1.910000
 21
1.280000
 31
0.000000
  0
LINE
  8
1
 10
1.910000
 20
1.280000
 30
0.000000
 11
1.880000
 21
1.280000
 31
0.000000
  0
LINE
  8
16
 10
1.880000
 20
1.280000
 30
0.000000
 11
1.830000
 21
1.280000
 31
0.000000
  0
LINE
  8
16
 10
1.830000
 20
1.280000
 30
0.000000
 11
1.790000
 21
1.320000
 31
0.000000
  0
LINE
  8
1
 10
1.790000
 20
1.320000
 30
0.000000
 11
1.718000
 21
1.320000
 31
0.000000
  0
LINE
  8
1
 10
1.718000
 20
1.320000
 30
0.000000
 11
1.681000
 21
1.283000
 31
0.000000
  0
INSERT
  8
18
  2
ROUNDV
 10
1.880000
 20
1.280000
 30
0.000000
 41
0.033685
 42
0.033685
 43
1.000000
 50
0.000000
  0
INSERT
  8
18
  2
ROUNDV
 10
1.880000
 20
1.280000
 30
0.000000
 41
0.033685
 42
0.033685
 43
1.000000
 50
0.000000
  0
INSERT
  8
18
  2
ROUNDV
 10
1.790000
 20
1.320000
 30
0.000000
 41
0.033685
 42
0.033685
 43
1.000000
 50
0.000000
  0
INSERT
  8
18
  2
ROUNDV
 10
1.790000
 20
1.320000
 30
0.000000
 41
0.033685
 42
0.033685
 43
1.000000
 50
0.000000
  0
LINE
  8
1
 10
4.083701
 20
1.600000
 30
0.000000
 11
4.140000
 21
1.600000
 31
0.000000
  0
LINE
  8
16
 10
4.140000
 20
1.600000
 30
0.000000
 11
4.140000
 21
1.690000
 31
0.000000
  0
LINE
  8
16
 10
4.140000
 20
1.690000
 30
0.000000
 11
4.290000
 21
1.840000
 31
0.000000
  0
LINE
  8
16
 10
4.290000
 20
1.840000
 30
0.000000
 11
4.290000
 21
1.890000
 31
0.000000
  0
LINE
  8
16
 10
4.290000
 20
1.890000
 30
0.000000
 11
4.450000
 21
2.050000
 31
0.000000
  0
INSERT
  8
18
  2
ROUNDV
 10
4.140000
 20
1.600000
 30
0.000000
 41
0.029000
 42
0.029000
 43
1.000000
 50
0.000000
  0
INSERT
  8
18
  2
ROUNDV
 10
4.140000
 20
1.600000
 30
0.000000
 41
0.029000
 42
0.029000
 43
1.000000
 50
0.000000
  0
LINE
  8
1
 10
4.579000
 20
1.527000
 30
0.000000
 11
4.413000
 21
1.527000
 31
0.000000
  0
LINE
  8
1
 10
4.413000
 20
1.527000
 30
0.000000
 11
4.365000
 21
1.575000
 31
0.000000
  0
LINE
  8
1
 10
4.365000
 20
1.575000
 30
0.000000
 11
4.215000
 21
1.575000
 31
0.000000
  0
LINE
  8
1
 10
4.215000
 20
1.575000
 30
0.000000
 11
4.140000
 21
1.650000
 31
0.000000
  0
LINE
  8
1
 10
4.140000
 20
1.650000
 30
0.000000
 11
4.083701
 21
1.650000
 31
0.000000
  0
LINE
  8
1
 10
1.893701
 20
1.410000
 30
0.000000
 11
1.930000
 21
1.410000
 31
0.000000
  0
LINE
  8
1
 10
1.930000
 20
1.410000
 30
0.000000
 11
1.940000
 21
1.400000
 31
0.000000
  0
LINE
  8
1
 10
1.940000
 20
1.400000
 30
0.000000
 11
1.940000
 21
1.340000
 31
0.000000
  0
LINE
  8
1
 10
1.940000
 20
1.340000
 30
0.000000
 11
1.920000
 21
1.320000
 31
0.000000
  0
LINE
  8
1
 10
1.920000
 20
1.320000
 30
0.000000
 11
1.836000
 21
1.320000
 31
0.000000
  0
LINE
  8
1
 10
1.836000
 20
1.320000
 30
0.000000
 11
1.681000
 21
1.165000
 31
0.000000
  0
LINE
  8
1
 10
4.296299
 20
1.550000
 30
0.000000
 11
4.360000
 21
1.550000
 31
0.000000
  0
LINE
  8
1
 10
4.360000
 20
1.550000
 30
0.000000
 11
4.420000
 21
1.490000
 31
0.000000
  0
LINE
  8
1
 10
4.420000
 20
1.490000
 30
0.000000
 11
4.460000
 21
1.490000
 31
0.000000
  0
LINE
  8
16
 10
4.460000
 20
1.490000
 30
0.000000
 11
4.480000
 21
1.510000
 31
0.000000
  0
LINE
  8
16
 10
4.480000
 20
1.510000
 30
0.000000
 11
4.480000
 21
1.820000
 31
0.000000
  0
LINE
  8
1
 10
4.480000
 20
1.820000
 30
0.000000
 11
4.480000
 21
1.980000
 31
0.000000
  0
LINE
  8
1
 10
4.480000
 20
1.980000
 30
0.000000
 11
4.550000
 21
2.050000
 31
0.000000
  0
INSERT
  8
18
  2
ROUNDV
 10
4.460000
 20
1.490000
 30
0.000000
 41
0.037622
 42
0.037622
 43
1.000000
 50
0.000000
  0
INSERT
  8
18
  2
ROUNDV
 10
4.460000
 20
1.490000
 30
0.000000
 41
0.037622
 42
0.037622
 43
1.000000
 50
0.000000
  0
INSERT
  8
18
  2
ROUNDV
 10
4.480000
 20
1.820000
 30
0.000000
 41
0.029000
 42
0.029000
 43
1.000000
 50
0.000000
  0
INSERT
  8
18
  2
ROUNDV
 10
4.480000
 20
1.820000
 30
0.000000
 41
0.029000
 42
0.029000
 43
1.000000
 50
0.000000
  0
LINE
  8
1
 10
4.579000
 20
1.645000
 30
0.000000
 11
4.455000
 21
1.645000
 31
0.000000
  0
LINE
  8
1
 10
4.455000
 20
1.645000
 30
0.000000
 11
4.410000
 21
1.600000
 31
0.000000
  0
LINE
  8
1
 10
4.410000
 20
1.600000
 30
0.000000
 11
4.296299
 21
1.600000
 31
0.000000
  0
LINE
  8
1
 10
1.893701
 20
1.560000
 30
0.000000
 11
1.960000
 21
1.560000
 31
0.000000
  0
LINE
  8
1
 10
1.960000
 20
1.560000
 30
0.000000
 11
2.000000
 21
1.520000
 31
0.000000
  0
LINE
  8
1
 10
2.000000
 20
1.520000
 30
0.000000
 11
2.000000
 21
1.390000
 31
0.000000
  0
LINE
  8
16
 10
2.000000
 20
1.390000
 30
0.000000
 11
2.000000
 21
1.320000
 31
0.000000
  0
LINE
  8
1
 10
2.000000
 20
1.320000
 30
0.000000
 11
1.730000
 21
1.050000
 31
0.000000
  0
LINE
  8
1
 10
1.730000
 20
1.050000
 30
0.000000
 11
1.684000
 21
1.050000
 31
0.000000
  0
LINE
  8
1
 10
1.684000
 20
1.050000
 30
0.000000
 11
1.681000
 21
1.047000
 31
0.000000
  0
INSERT
  8
18
  2
ROUNDV
 10
2.000000
 20
1.390000
 30
0.000000
 41
0.033685
 42
0.033685
 43
1.000000
 50
0.000000
  0
INSERT
  8
18
  2
ROUNDV
 10
2.000000
 20
1.390000
 30
0.000000
 41
0.033685
 42
0.033685
 43
1.000000
 50
0.000000
  0
INSERT
  8
18
  2
ROUNDV
 10
2.000000
 20
1.320000
 30
0.000000
 41
0.033685
 42
0.033685
 43
1.000000
 50
0.000000
  0
INSERT
  8
18
  2
ROUNDV
 10
2.000000
 20
1.320000
 30
0.000000
 41
0.033685
 42
0.033685
 43
1.000000
 50
0.000000
  0
LINE
  8
1
 10
4.296299
 20
1.400000
 30
0.000000
 11
4.240000
 21
1.400000
 31
0.000000
  0
LINE
  8
16
 10
4.240000
 20
1.400000
 30
0.000000
 11
4.210000
 21
1.430000
 31
0.000000
  0
LINE
  8
16
 10
4.210000
 20
1.430000
 30
0.000000
 11
4.210000
 21
1.680000
 31
0.000000
  0
LINE
  8
16
 10
4.210000
 20
1.680000
 30
0.000000
 11
4.330000
 21
1.800000
 31
0.000000
  0
LINE
  8
16
 10
4.330000
 20
1.800000
 30
0.000000
 11
4.400000
 21
1.800000
 31
0.000000
  0
LINE
  8
16
 10
4.400000
 20
1.800000
 30
0.000000
 11
4.650000
 21
2.050000
 31
0.000000
  0
INSERT
  8
18
  2
ROUNDV
 10
4.240000
 20
1.400000
 30
0.000000
 41
0.029000
 42
0.029000
 43
1.000000
 50
0.000000
  0
INSERT
  8
18
  2
ROUNDV
 10
4.240000
 20
1.400000
 30
0.000000
 41
0.029000
 42
0.029000
 43
1.000000
 50
0.000000
  0
LINE
  8
1
 10
4.579000
 20
1.763000
 30
0.000000
 11
4.657000
 21
1.763000
 31
0.000000
  0
LINE
  8
1
 10
4.657000
 20
1.763000
 30
0.000000
 11
4.670000
 21
1.750000
 31
0.000000
  0
LINE
  8
1
 10
4.670000
 20
1.750000
 30
0.000000
 11
4.670000
 21
1.380000
 31
0.000000
  0
LINE
  8
1
 10
4.670000
 20
1.380000
 30
0.000000
 11
4.640000
 21
1.350000
 31
0.000000
  0
LINE
  8
1
 10
4.640000
 20
1.350000
 30
0.000000
 11
4.480000
 21
1.350000
 31
0.000000
  0
LINE
  8
1
 10
4.480000
 20
1.350000
 30
0.000000
 11
4.380000
 21
1.450000
 31
0.000000
  0
LINE
  8
1
 10
4.380000
 20
1.450000
 30
0.000000
 11
4.296299
 21
1.450000
 31
0.000000
  0
LINE
  8
1
 10
3.535000
 20
0.622362
 30
0.000000
 11
3.535000
 21
0.615000
 31
0.000000
  0
LINE
  8
1
 10
3.535000
 20
0.615000
 30
0.000000
 11
3.530000
 21
0.610000
 31
0.000000
  0
LINE
  8
1
 10
3.530000
 20
0.610000
 30
0.000000
 11
3.530000
 21
0.540000
 31
0.000000
  0
LINE
  8
16
 10
3.530000
 20
0.540000
 30
0.000000
 11
3.530000
 21
0.520000
 31
0.000000
  0
LINE
  8
16
 10
3.530000
 20
0.520000
 30
0.000000
 11
3.500000
 21
0.490000
 31
0.000000
  0
LINE
  8
16
 10
3.500000
 20
0.490000
 30
0.000000
 11
3.500000
 21
0.380000
 31
0.000000
  0
LINE
  8
16
 10
3.500000
 20
0.380000
 30
0.000000
 11
3.470000
 21
0.350000
 31
0.000000
  0
LINE
  8
16
 10
3.470000
 20
0.350000
 30
0.000000
 11
2.450000
 21
0.350000
 31
0.000000
  0
LINE
  8
16
 10
2.450000
 20
0.350000
 30
0.000000
 11
2.400000
 21
0.400000
 31
0.000000
  0
LINE
  8
16
 10
2.400000
 20
0.400000
 30
0.000000
 11
1.500000
 21
0.400000
 31
0.000000
  0
LINE
  8
16
 10
1.500000
 20
0.400000
 30
0.000000
 11
1.450000
 21
0.350000
 31
0.000000
  0
INSERT
  8
18
  2
ROUNDV
 10
3.530000
 20
0.540000
 30
0.000000
 41
0.033685
 42
0.033685
 43
1.000000
 50
0.000000
  0
INSERT
  8
18
  2
ROUNDV
 10
3.530000
 20
0.540000
 30
0.000000
 41
0.033685
 42
0.033685
 43
1.000000
 50
0.000000
  0
LINE
  8
1
 10
2.913425
 20
0.416378
 30
0.000000
 11
2.863425
 21
0.416378
 31
0.000000
  0
LINE
  8
1
 10
2.863425
 20
0.416378
 30
0.000000
 11
2.813425
 21
0.416378
 31
0.000000
  0
LINE
  8
1
 10
2.813425
 20
0.416378
 30
0.000000
 11
2.813425
 21
0.373425
 31
0.000000
  0
LINE
  8
1
 10
2.813425
 20
0.373425
 30
0.000000
 11
2.790000
 21
0.350000
 31
0.000000
  0
LINE
  8
1
 10
2.790000
 20
0.350000
 30
0.000000
 11
2.650000
 21
0.350000
 31
0.000000
  0
LINE
  8
1
 10
2.650000
 20
0.350000
 30
0.000000
 11
2.630000
 21
0.370000
 31
0.000000
  0
LINE
  8
1
 10
2.630000
 20
0.370000
 30
0.000000
 11
2.630000
 21
0.415976
 31
0.000000
  0
LINE
  8
1
 10
2.630000
 20
0.415976
 30
0.000000
 11
2.627992
 21
0.417984
 31
0.000000
  0
LINE
  8
1
 10
2.627992
 20
0.417984
 30
0.000000
 11
2.577992
 21
0.417984
 31
0.000000
  0
LINE
  8
1
 10
3.053425
 20
0.416378
 30
0.000000
 11
3.103425
 21
0.416378
 31
0.000000
  0
LINE
  8
1
 10
3.103425
 20
0.416378
 30
0.000000
 11
3.153425
 21
0.416378
 31
0.000000
  0
LINE
  8
16
 10
2.145000
 20
0.685000
 30
0.000000
 11
2.295000
 21
0.685000
 31
0.000000
  0
LINE
  8
16
 10
2.295000
 20
0.685000
 30
0.000000
 11
2.490000
 21
0.490000
 31
0.000000
  0
LINE
  8
16
 10
2.490000
 20
0.490000
 30
0.000000
 11
3.100000
 21
0.490000
 31
0.000000
  0
LINE
  8
1
 10
3.100000
 20
0.490000
 30
0.000000
 11
3.100000
 21
0.419803
 31
0.000000
  0
LINE
  8
1
 10
3.100000
 20
0.419803
 30
0.000000
 11
3.103425
 21
0.416378
 31
0.000000
  0
INSERT
  8
18
  2
ROUNDV
 10
3.100000
 20
0.490000
 30
0.000000
 41
0.033685
 42
0.033685
 43
1.000000
 50
0.000000
  0
INSERT
  8
18
  2
ROUNDV
 10
3.100000
 20
0.490000
 30
0.000000
 41
0.033685
 42
0.033685
 43
1.000000
 50
0.000000
  0
ENDSEC
  0
EOF
