G75*
%MOIN*%
%OFA0B0*%
%FSLAX25Y25*%
%IPPOS*%
%LPD*%
%AMOC8*
5,1,8,0,0,1.08239X$1,22.5*
%
%ADD10R,0.03162X0.03162*%
%ADD11C,0.04343*%
%ADD12R,0.14186X0.08280*%
%ADD13R,0.08400X0.21800*%
%ADD14R,0.02965X0.05524*%
%ADD15C,0.04769*%
%ADD16C,0.03778*%
D10*
X0088772Y0060531D03*
X0088772Y0064469D03*
X0093772Y0067531D03*
X0093772Y0071469D03*
X0056772Y0095531D03*
X0056772Y0099469D03*
X0049741Y0087500D03*
X0045804Y0087500D03*
D11*
X0052772Y0066161D03*
X0052772Y0048839D03*
D12*
X0081772Y0049177D03*
X0081772Y0033823D03*
D13*
X0108772Y0045500D03*
X0108772Y0083500D03*
D14*
X0051512Y0092382D03*
X0047772Y0092382D03*
X0044032Y0092382D03*
X0044032Y0102618D03*
X0047772Y0102618D03*
X0051512Y0102618D03*
D15*
X0191233Y0089598D03*
X0196233Y0089598D03*
X0196233Y0084598D03*
X0196233Y0079598D03*
X0191233Y0079598D03*
X0191233Y0084598D03*
X0191233Y0074598D03*
X0191233Y0069598D03*
X0196233Y0069598D03*
X0196233Y0074598D03*
D16*
X0064772Y0028500D03*
X0068772Y0047500D03*
X0084772Y0061500D03*
X0072772Y0063500D03*
X0078772Y0071500D03*
X0081772Y0074500D03*
X0069772Y0084500D03*
X0064772Y0099500D03*
X0064772Y0107500D03*
X0058772Y0108500D03*
X0054772Y0106500D03*
X0064772Y0119500D03*
X0070772Y0127500D03*
X0090772Y0135500D03*
X0126772Y0124500D03*
X0128772Y0113500D03*
X0128772Y0101500D03*
X0122772Y0095500D03*
X0126772Y0089500D03*
X0128772Y0083500D03*
X0129772Y0070500D03*
X0128772Y0060500D03*
X0113772Y0065500D03*
X0101772Y0074531D03*
X0094772Y0051500D03*
X0103772Y0032500D03*
X0103772Y0014500D03*
X0109772Y0014500D03*
X0128772Y0038500D03*
X0128772Y0045500D03*
X0180772Y0045500D03*
X0180772Y0038500D03*
X0180772Y0074500D03*
X0173772Y0079500D03*
X0180772Y0088500D03*
X0185772Y0113500D03*
X0180772Y0118500D03*
X0040772Y0127500D03*
X0034772Y0102500D03*
X0038772Y0094500D03*
M02*
