G75*
%MOIN*%
%OFA0B0*%
%FSLAX25Y25*%
%IPPOS*%
%LPD*%
%AMOC8*
5,1,8,0,0,1.08239X$1,22.5*
%
%ADD10C,0.00000*%
%ADD11C,0.00600*%
%ADD12C,0.00300*%
%ADD13C,0.00800*%
%ADD14C,0.00400*%
%ADD15R,0.01181X0.00591*%
%ADD16R,0.01181X0.01181*%
%ADD17C,0.00500*%
D10*
X0029688Y0018985D02*
X0028928Y0124656D01*
X0028930Y0125064D01*
X0028942Y0125470D01*
X0028964Y0125877D01*
X0028996Y0126283D01*
X0029037Y0126688D01*
X0029089Y0127092D01*
X0029150Y0127494D01*
X0029220Y0127895D01*
X0029301Y0128294D01*
X0029391Y0128691D01*
X0029491Y0129086D01*
X0029600Y0129478D01*
X0029719Y0129868D01*
X0029848Y0130254D01*
X0029985Y0130637D01*
X0030132Y0131017D01*
X0030288Y0131393D01*
X0030453Y0131765D01*
X0030627Y0132133D01*
X0030810Y0132497D01*
X0031002Y0132856D01*
X0031203Y0133210D01*
X0031412Y0133560D01*
X0031629Y0133904D01*
X0031855Y0134243D01*
X0032089Y0134576D01*
X0032330Y0134904D01*
X0032580Y0135225D01*
X0032838Y0135540D01*
X0033103Y0135850D01*
X0033375Y0136152D01*
X0033655Y0136448D01*
X0033942Y0136737D01*
X0034236Y0137019D01*
X0034536Y0137293D01*
X0034843Y0137561D01*
X0035157Y0137820D01*
X0035477Y0138072D01*
X0035802Y0138317D01*
X0036134Y0138553D01*
X0036471Y0138781D01*
X0036814Y0139001D01*
X0037162Y0139212D01*
X0037515Y0139415D01*
X0037872Y0139610D01*
X0038235Y0139795D01*
X0038601Y0139972D01*
X0038972Y0140140D01*
X0039347Y0140299D01*
X0039726Y0140448D01*
X0040108Y0140589D01*
X0040494Y0140720D01*
X0040882Y0140841D01*
X0041273Y0140954D01*
X0041667Y0141056D01*
X0042064Y0141149D01*
X0042462Y0141233D01*
X0042863Y0141306D01*
X0043265Y0141370D01*
X0043668Y0141425D01*
X0044073Y0141469D01*
X0044479Y0141504D01*
X0044885Y0141528D01*
X0045292Y0141543D01*
X0045699Y0141548D01*
X0193835Y0141548D01*
X0194237Y0141543D01*
X0194639Y0141529D01*
X0195040Y0141504D01*
X0195441Y0141470D01*
X0195840Y0141427D01*
X0196239Y0141373D01*
X0196636Y0141311D01*
X0197032Y0141238D01*
X0197425Y0141156D01*
X0197817Y0141065D01*
X0198206Y0140964D01*
X0198593Y0140853D01*
X0198976Y0140734D01*
X0199357Y0140605D01*
X0199735Y0140467D01*
X0200109Y0140320D01*
X0200480Y0140164D01*
X0200846Y0139999D01*
X0201209Y0139825D01*
X0201567Y0139642D01*
X0201921Y0139451D01*
X0202270Y0139251D01*
X0202614Y0139043D01*
X0202953Y0138827D01*
X0203286Y0138603D01*
X0203615Y0138370D01*
X0203937Y0138130D01*
X0204253Y0137882D01*
X0204564Y0137627D01*
X0204868Y0137364D01*
X0205166Y0137093D01*
X0205457Y0136816D01*
X0205741Y0136532D01*
X0206018Y0136241D01*
X0206289Y0135943D01*
X0206552Y0135639D01*
X0206807Y0135328D01*
X0207055Y0135012D01*
X0207295Y0134690D01*
X0207528Y0134361D01*
X0207752Y0134028D01*
X0207968Y0133689D01*
X0208176Y0133345D01*
X0208376Y0132996D01*
X0208567Y0132642D01*
X0208750Y0132284D01*
X0208924Y0131921D01*
X0209089Y0131555D01*
X0209245Y0131184D01*
X0209392Y0130810D01*
X0209530Y0130432D01*
X0209659Y0130051D01*
X0209778Y0129668D01*
X0209889Y0129281D01*
X0209990Y0128892D01*
X0210081Y0128500D01*
X0210163Y0128107D01*
X0210236Y0127711D01*
X0210298Y0127314D01*
X0210352Y0126915D01*
X0210395Y0126516D01*
X0210429Y0126115D01*
X0210454Y0125714D01*
X0210468Y0125312D01*
X0210473Y0124910D01*
X0210473Y0019057D01*
X0210468Y0018657D01*
X0210454Y0018257D01*
X0210430Y0017858D01*
X0210396Y0017459D01*
X0210352Y0017061D01*
X0210299Y0016665D01*
X0210237Y0016270D01*
X0210165Y0015876D01*
X0210083Y0015484D01*
X0209992Y0015095D01*
X0209891Y0014707D01*
X0209782Y0014323D01*
X0209663Y0013941D01*
X0209534Y0013562D01*
X0209397Y0013186D01*
X0209251Y0012813D01*
X0209095Y0012445D01*
X0208931Y0012080D01*
X0208758Y0011719D01*
X0208576Y0011363D01*
X0208386Y0011011D01*
X0208188Y0010663D01*
X0207981Y0010321D01*
X0207765Y0009984D01*
X0207542Y0009652D01*
X0207311Y0009325D01*
X0207072Y0009004D01*
X0206825Y0008689D01*
X0206571Y0008380D01*
X0206309Y0008078D01*
X0206040Y0007781D01*
X0205764Y0007492D01*
X0205481Y0007209D01*
X0205192Y0006933D01*
X0204895Y0006664D01*
X0204593Y0006402D01*
X0204284Y0006148D01*
X0203969Y0005901D01*
X0203648Y0005662D01*
X0203321Y0005431D01*
X0202989Y0005208D01*
X0202652Y0004992D01*
X0202310Y0004785D01*
X0201962Y0004587D01*
X0201610Y0004397D01*
X0201254Y0004215D01*
X0200893Y0004042D01*
X0200528Y0003878D01*
X0200160Y0003722D01*
X0199787Y0003576D01*
X0199411Y0003439D01*
X0199032Y0003310D01*
X0198650Y0003191D01*
X0198266Y0003082D01*
X0197878Y0002981D01*
X0197489Y0002890D01*
X0197097Y0002808D01*
X0196703Y0002736D01*
X0196308Y0002674D01*
X0195912Y0002621D01*
X0195514Y0002577D01*
X0195115Y0002543D01*
X0194716Y0002519D01*
X0194316Y0002505D01*
X0193916Y0002500D01*
X0046292Y0002500D01*
X0045887Y0002505D01*
X0045481Y0002520D01*
X0045076Y0002545D01*
X0044672Y0002579D01*
X0044269Y0002624D01*
X0043867Y0002678D01*
X0043466Y0002742D01*
X0043068Y0002816D01*
X0042671Y0002900D01*
X0042276Y0002993D01*
X0041883Y0003096D01*
X0041494Y0003208D01*
X0041107Y0003330D01*
X0040723Y0003462D01*
X0040343Y0003602D01*
X0039966Y0003752D01*
X0039593Y0003912D01*
X0039223Y0004080D01*
X0038858Y0004257D01*
X0038498Y0004443D01*
X0038142Y0004638D01*
X0037791Y0004841D01*
X0037445Y0005053D01*
X0037105Y0005273D01*
X0036770Y0005502D01*
X0036440Y0005739D01*
X0036117Y0005983D01*
X0035799Y0006236D01*
X0035488Y0006496D01*
X0035183Y0006764D01*
X0034885Y0007039D01*
X0034594Y0007321D01*
X0034309Y0007610D01*
X0034032Y0007906D01*
X0033762Y0008209D01*
X0033500Y0008519D01*
X0033245Y0008834D01*
X0032998Y0009156D01*
X0032759Y0009484D01*
X0032528Y0009817D01*
X0032305Y0010156D01*
X0032091Y0010501D01*
X0031885Y0010850D01*
X0031688Y0011204D01*
X0031499Y0011564D01*
X0031319Y0011927D01*
X0031148Y0012295D01*
X0030986Y0012667D01*
X0030834Y0013043D01*
X0030690Y0013422D01*
X0030556Y0013805D01*
X0030431Y0014191D01*
X0030316Y0014580D01*
X0030210Y0014972D01*
X0030114Y0015366D01*
X0030028Y0015762D01*
X0029951Y0016160D01*
X0029884Y0016561D01*
X0029827Y0016962D01*
X0029779Y0017365D01*
X0029742Y0017769D01*
X0029714Y0018174D01*
X0029696Y0018579D01*
X0029688Y0018984D01*
X0051000Y0048839D02*
X0051002Y0048923D01*
X0051008Y0049006D01*
X0051018Y0049089D01*
X0051032Y0049172D01*
X0051049Y0049254D01*
X0051071Y0049335D01*
X0051096Y0049414D01*
X0051125Y0049493D01*
X0051158Y0049570D01*
X0051194Y0049645D01*
X0051234Y0049719D01*
X0051277Y0049791D01*
X0051324Y0049860D01*
X0051374Y0049927D01*
X0051427Y0049992D01*
X0051483Y0050054D01*
X0051541Y0050114D01*
X0051603Y0050171D01*
X0051667Y0050224D01*
X0051734Y0050275D01*
X0051803Y0050322D01*
X0051874Y0050367D01*
X0051947Y0050407D01*
X0052022Y0050444D01*
X0052099Y0050478D01*
X0052177Y0050508D01*
X0052256Y0050534D01*
X0052337Y0050557D01*
X0052419Y0050575D01*
X0052501Y0050590D01*
X0052584Y0050601D01*
X0052667Y0050608D01*
X0052751Y0050611D01*
X0052835Y0050610D01*
X0052918Y0050605D01*
X0053002Y0050596D01*
X0053084Y0050583D01*
X0053166Y0050567D01*
X0053247Y0050546D01*
X0053328Y0050522D01*
X0053406Y0050494D01*
X0053484Y0050462D01*
X0053560Y0050426D01*
X0053634Y0050387D01*
X0053706Y0050345D01*
X0053776Y0050299D01*
X0053844Y0050250D01*
X0053909Y0050198D01*
X0053972Y0050143D01*
X0054032Y0050085D01*
X0054090Y0050024D01*
X0054144Y0049960D01*
X0054196Y0049894D01*
X0054244Y0049826D01*
X0054289Y0049755D01*
X0054330Y0049682D01*
X0054369Y0049608D01*
X0054403Y0049532D01*
X0054434Y0049454D01*
X0054461Y0049375D01*
X0054485Y0049294D01*
X0054504Y0049213D01*
X0054520Y0049131D01*
X0054532Y0049048D01*
X0054540Y0048964D01*
X0054544Y0048881D01*
X0054544Y0048797D01*
X0054540Y0048714D01*
X0054532Y0048630D01*
X0054520Y0048547D01*
X0054504Y0048465D01*
X0054485Y0048384D01*
X0054461Y0048303D01*
X0054434Y0048224D01*
X0054403Y0048146D01*
X0054369Y0048070D01*
X0054330Y0047996D01*
X0054289Y0047923D01*
X0054244Y0047852D01*
X0054196Y0047784D01*
X0054144Y0047718D01*
X0054090Y0047654D01*
X0054032Y0047593D01*
X0053972Y0047535D01*
X0053909Y0047480D01*
X0053844Y0047428D01*
X0053776Y0047379D01*
X0053706Y0047333D01*
X0053634Y0047291D01*
X0053560Y0047252D01*
X0053484Y0047216D01*
X0053406Y0047184D01*
X0053328Y0047156D01*
X0053247Y0047132D01*
X0053166Y0047111D01*
X0053084Y0047095D01*
X0053002Y0047082D01*
X0052918Y0047073D01*
X0052835Y0047068D01*
X0052751Y0047067D01*
X0052667Y0047070D01*
X0052584Y0047077D01*
X0052501Y0047088D01*
X0052419Y0047103D01*
X0052337Y0047121D01*
X0052256Y0047144D01*
X0052177Y0047170D01*
X0052099Y0047200D01*
X0052022Y0047234D01*
X0051947Y0047271D01*
X0051874Y0047311D01*
X0051803Y0047356D01*
X0051734Y0047403D01*
X0051667Y0047454D01*
X0051603Y0047507D01*
X0051541Y0047564D01*
X0051483Y0047624D01*
X0051427Y0047686D01*
X0051374Y0047751D01*
X0051324Y0047818D01*
X0051277Y0047887D01*
X0051234Y0047959D01*
X0051194Y0048033D01*
X0051158Y0048108D01*
X0051125Y0048185D01*
X0051096Y0048264D01*
X0051071Y0048343D01*
X0051049Y0048424D01*
X0051032Y0048506D01*
X0051018Y0048589D01*
X0051008Y0048672D01*
X0051002Y0048755D01*
X0051000Y0048839D01*
X0051000Y0066161D02*
X0051002Y0066245D01*
X0051008Y0066328D01*
X0051018Y0066411D01*
X0051032Y0066494D01*
X0051049Y0066576D01*
X0051071Y0066657D01*
X0051096Y0066736D01*
X0051125Y0066815D01*
X0051158Y0066892D01*
X0051194Y0066967D01*
X0051234Y0067041D01*
X0051277Y0067113D01*
X0051324Y0067182D01*
X0051374Y0067249D01*
X0051427Y0067314D01*
X0051483Y0067376D01*
X0051541Y0067436D01*
X0051603Y0067493D01*
X0051667Y0067546D01*
X0051734Y0067597D01*
X0051803Y0067644D01*
X0051874Y0067689D01*
X0051947Y0067729D01*
X0052022Y0067766D01*
X0052099Y0067800D01*
X0052177Y0067830D01*
X0052256Y0067856D01*
X0052337Y0067879D01*
X0052419Y0067897D01*
X0052501Y0067912D01*
X0052584Y0067923D01*
X0052667Y0067930D01*
X0052751Y0067933D01*
X0052835Y0067932D01*
X0052918Y0067927D01*
X0053002Y0067918D01*
X0053084Y0067905D01*
X0053166Y0067889D01*
X0053247Y0067868D01*
X0053328Y0067844D01*
X0053406Y0067816D01*
X0053484Y0067784D01*
X0053560Y0067748D01*
X0053634Y0067709D01*
X0053706Y0067667D01*
X0053776Y0067621D01*
X0053844Y0067572D01*
X0053909Y0067520D01*
X0053972Y0067465D01*
X0054032Y0067407D01*
X0054090Y0067346D01*
X0054144Y0067282D01*
X0054196Y0067216D01*
X0054244Y0067148D01*
X0054289Y0067077D01*
X0054330Y0067004D01*
X0054369Y0066930D01*
X0054403Y0066854D01*
X0054434Y0066776D01*
X0054461Y0066697D01*
X0054485Y0066616D01*
X0054504Y0066535D01*
X0054520Y0066453D01*
X0054532Y0066370D01*
X0054540Y0066286D01*
X0054544Y0066203D01*
X0054544Y0066119D01*
X0054540Y0066036D01*
X0054532Y0065952D01*
X0054520Y0065869D01*
X0054504Y0065787D01*
X0054485Y0065706D01*
X0054461Y0065625D01*
X0054434Y0065546D01*
X0054403Y0065468D01*
X0054369Y0065392D01*
X0054330Y0065318D01*
X0054289Y0065245D01*
X0054244Y0065174D01*
X0054196Y0065106D01*
X0054144Y0065040D01*
X0054090Y0064976D01*
X0054032Y0064915D01*
X0053972Y0064857D01*
X0053909Y0064802D01*
X0053844Y0064750D01*
X0053776Y0064701D01*
X0053706Y0064655D01*
X0053634Y0064613D01*
X0053560Y0064574D01*
X0053484Y0064538D01*
X0053406Y0064506D01*
X0053328Y0064478D01*
X0053247Y0064454D01*
X0053166Y0064433D01*
X0053084Y0064417D01*
X0053002Y0064404D01*
X0052918Y0064395D01*
X0052835Y0064390D01*
X0052751Y0064389D01*
X0052667Y0064392D01*
X0052584Y0064399D01*
X0052501Y0064410D01*
X0052419Y0064425D01*
X0052337Y0064443D01*
X0052256Y0064466D01*
X0052177Y0064492D01*
X0052099Y0064522D01*
X0052022Y0064556D01*
X0051947Y0064593D01*
X0051874Y0064633D01*
X0051803Y0064678D01*
X0051734Y0064725D01*
X0051667Y0064776D01*
X0051603Y0064829D01*
X0051541Y0064886D01*
X0051483Y0064946D01*
X0051427Y0065008D01*
X0051374Y0065073D01*
X0051324Y0065140D01*
X0051277Y0065209D01*
X0051234Y0065281D01*
X0051194Y0065355D01*
X0051158Y0065430D01*
X0051125Y0065507D01*
X0051096Y0065586D01*
X0051071Y0065665D01*
X0051049Y0065746D01*
X0051032Y0065828D01*
X0051018Y0065911D01*
X0051008Y0065994D01*
X0051002Y0066077D01*
X0051000Y0066161D01*
D11*
X0080201Y0056382D02*
X0081343Y0056382D01*
X0081343Y0054618D02*
X0080201Y0054618D01*
X0080201Y0051382D02*
X0081343Y0051382D01*
X0081343Y0049618D02*
X0080201Y0049618D01*
X0087201Y0040382D02*
X0088343Y0040382D01*
X0088343Y0038618D02*
X0087201Y0038618D01*
X0087201Y0035382D02*
X0088343Y0035382D01*
X0088343Y0033618D02*
X0087201Y0033618D01*
X0097890Y0042929D02*
X0097890Y0044071D01*
X0099654Y0044071D02*
X0099654Y0042929D01*
X0102890Y0042929D02*
X0102890Y0044071D01*
X0104654Y0044071D02*
X0104654Y0042929D01*
X0107890Y0042929D02*
X0107890Y0044071D01*
X0109654Y0044071D02*
X0109654Y0042929D01*
X0112890Y0042929D02*
X0112890Y0044071D01*
X0114654Y0044071D02*
X0114654Y0042929D01*
X0107343Y0051618D02*
X0106201Y0051618D01*
X0106201Y0053382D02*
X0107343Y0053382D01*
X0089654Y0072929D02*
X0089654Y0074071D01*
X0087890Y0074071D02*
X0087890Y0072929D01*
X0037343Y0105618D02*
X0036201Y0105618D01*
X0036201Y0107382D02*
X0037343Y0107382D01*
X0048201Y0110618D02*
X0049343Y0110618D01*
X0049343Y0112382D02*
X0048201Y0112382D01*
X0048201Y0115618D02*
X0049343Y0115618D01*
X0049343Y0117382D02*
X0048201Y0117382D01*
X0048890Y0124929D02*
X0048890Y0126071D01*
X0050654Y0126071D02*
X0050654Y0124929D01*
X0053890Y0124929D02*
X0053890Y0126071D01*
X0055654Y0126071D02*
X0055654Y0124929D01*
X0058890Y0124929D02*
X0058890Y0126071D01*
X0060654Y0126071D02*
X0060654Y0124929D01*
X0045654Y0124929D02*
X0045654Y0126071D01*
X0043890Y0126071D02*
X0043890Y0124929D01*
X0110890Y0127929D02*
X0110890Y0129071D01*
X0112654Y0129071D02*
X0112654Y0127929D01*
X0183693Y0104500D02*
X0203772Y0104500D01*
X0203772Y0088850D01*
X0208772Y0088850D01*
X0208772Y0070346D01*
X0203772Y0070346D01*
X0203772Y0054697D01*
X0183693Y0054697D01*
X0183693Y0104500D01*
X0203772Y0088850D02*
X0203772Y0070346D01*
X0104343Y0011382D02*
X0103201Y0011382D01*
X0103201Y0009618D02*
X0104343Y0009618D01*
D12*
X0110422Y0009150D02*
X0110422Y0012050D01*
X0111228Y0012050D01*
X0111283Y0012048D01*
X0111338Y0012042D01*
X0111392Y0012033D01*
X0111445Y0012020D01*
X0111498Y0012003D01*
X0111549Y0011983D01*
X0111599Y0011960D01*
X0111647Y0011933D01*
X0111693Y0011902D01*
X0111737Y0011869D01*
X0111778Y0011833D01*
X0111817Y0011794D01*
X0111853Y0011753D01*
X0111886Y0011709D01*
X0111917Y0011663D01*
X0111944Y0011615D01*
X0111967Y0011565D01*
X0111987Y0011514D01*
X0112004Y0011461D01*
X0112017Y0011408D01*
X0112026Y0011354D01*
X0112032Y0011299D01*
X0112034Y0011244D01*
X0112032Y0011189D01*
X0112026Y0011134D01*
X0112017Y0011080D01*
X0112004Y0011027D01*
X0111987Y0010974D01*
X0111967Y0010923D01*
X0111944Y0010873D01*
X0111917Y0010825D01*
X0111886Y0010779D01*
X0111853Y0010735D01*
X0111817Y0010694D01*
X0111778Y0010655D01*
X0111737Y0010619D01*
X0111693Y0010586D01*
X0111647Y0010555D01*
X0111599Y0010528D01*
X0111549Y0010505D01*
X0111498Y0010485D01*
X0111445Y0010468D01*
X0111392Y0010455D01*
X0111338Y0010446D01*
X0111283Y0010440D01*
X0111228Y0010438D01*
X0111228Y0010439D02*
X0110422Y0010439D01*
X0111389Y0010439D02*
X0112033Y0009150D01*
X0113282Y0009794D02*
X0114893Y0009794D01*
X0114410Y0010439D02*
X0114410Y0009150D01*
X0113282Y0009794D02*
X0113926Y0012050D01*
X0116162Y0012050D02*
X0117773Y0012050D01*
X0116968Y0009150D01*
X0116162Y0011728D02*
X0116162Y0012050D01*
X0093772Y0012126D02*
X0092161Y0012126D01*
X0092805Y0014381D01*
X0089925Y0014381D02*
X0089281Y0012126D01*
X0090892Y0012126D01*
X0090408Y0012770D02*
X0090408Y0011481D01*
X0088160Y0011481D02*
X0087516Y0011481D01*
X0087516Y0011482D02*
X0087468Y0011484D01*
X0087420Y0011489D01*
X0087373Y0011498D01*
X0087326Y0011511D01*
X0087281Y0011527D01*
X0087237Y0011546D01*
X0087194Y0011568D01*
X0087153Y0011594D01*
X0087114Y0011623D01*
X0087078Y0011654D01*
X0087044Y0011688D01*
X0087013Y0011724D01*
X0086984Y0011763D01*
X0086958Y0011804D01*
X0086936Y0011847D01*
X0086917Y0011891D01*
X0086901Y0011936D01*
X0086888Y0011983D01*
X0086879Y0012030D01*
X0086874Y0012078D01*
X0086872Y0012126D01*
X0086872Y0013737D01*
X0086874Y0013788D01*
X0086880Y0013838D01*
X0086890Y0013887D01*
X0086904Y0013936D01*
X0086921Y0013983D01*
X0086942Y0014029D01*
X0086967Y0014073D01*
X0086995Y0014116D01*
X0087026Y0014155D01*
X0087061Y0014192D01*
X0087098Y0014227D01*
X0087137Y0014258D01*
X0087180Y0014286D01*
X0087224Y0014311D01*
X0087270Y0014332D01*
X0087317Y0014349D01*
X0087366Y0014363D01*
X0087415Y0014373D01*
X0087465Y0014379D01*
X0087516Y0014381D01*
X0088160Y0014381D01*
X0093288Y0012770D02*
X0093288Y0011481D01*
X0082673Y0012263D02*
X0082673Y0012585D01*
X0082672Y0012585D02*
X0082670Y0012633D01*
X0082665Y0012681D01*
X0082656Y0012728D01*
X0082643Y0012775D01*
X0082627Y0012820D01*
X0082608Y0012864D01*
X0082586Y0012907D01*
X0082560Y0012948D01*
X0082531Y0012987D01*
X0082500Y0013023D01*
X0082466Y0013057D01*
X0082430Y0013088D01*
X0082391Y0013117D01*
X0082350Y0013143D01*
X0082307Y0013165D01*
X0082263Y0013184D01*
X0082218Y0013200D01*
X0082171Y0013213D01*
X0082124Y0013222D01*
X0082076Y0013227D01*
X0082028Y0013229D01*
X0082028Y0013230D02*
X0081062Y0013230D01*
X0081062Y0014519D01*
X0082673Y0014519D01*
X0078826Y0014519D02*
X0078182Y0012263D01*
X0079793Y0012263D01*
X0079309Y0012907D02*
X0079309Y0011619D01*
X0081062Y0011619D02*
X0082028Y0011619D01*
X0082076Y0011621D01*
X0082124Y0011626D01*
X0082171Y0011635D01*
X0082218Y0011648D01*
X0082263Y0011664D01*
X0082307Y0011683D01*
X0082350Y0011705D01*
X0082391Y0011731D01*
X0082430Y0011760D01*
X0082466Y0011791D01*
X0082500Y0011825D01*
X0082531Y0011861D01*
X0082560Y0011900D01*
X0082586Y0011941D01*
X0082608Y0011984D01*
X0082627Y0012028D01*
X0082643Y0012073D01*
X0082656Y0012120D01*
X0082665Y0012167D01*
X0082670Y0012215D01*
X0082672Y0012263D01*
X0077061Y0011619D02*
X0076417Y0011619D01*
X0076369Y0011621D01*
X0076321Y0011626D01*
X0076274Y0011635D01*
X0076227Y0011648D01*
X0076182Y0011664D01*
X0076138Y0011683D01*
X0076095Y0011705D01*
X0076054Y0011731D01*
X0076015Y0011760D01*
X0075979Y0011791D01*
X0075945Y0011825D01*
X0075914Y0011861D01*
X0075885Y0011900D01*
X0075859Y0011941D01*
X0075837Y0011984D01*
X0075818Y0012028D01*
X0075802Y0012073D01*
X0075789Y0012120D01*
X0075780Y0012167D01*
X0075775Y0012215D01*
X0075773Y0012263D01*
X0075773Y0013874D01*
X0075775Y0013925D01*
X0075781Y0013975D01*
X0075791Y0014024D01*
X0075805Y0014073D01*
X0075822Y0014120D01*
X0075843Y0014166D01*
X0075868Y0014210D01*
X0075896Y0014253D01*
X0075927Y0014292D01*
X0075962Y0014329D01*
X0075999Y0014364D01*
X0076038Y0014395D01*
X0076081Y0014423D01*
X0076125Y0014448D01*
X0076171Y0014469D01*
X0076218Y0014486D01*
X0076267Y0014500D01*
X0076316Y0014510D01*
X0076366Y0014516D01*
X0076417Y0014518D01*
X0076417Y0014519D02*
X0077061Y0014519D01*
X0102226Y0031035D02*
X0102226Y0033130D01*
X0102511Y0033950D02*
X0104122Y0033950D01*
X0103317Y0033950D02*
X0103317Y0036850D01*
X0102511Y0036206D01*
X0100117Y0036850D02*
X0100117Y0033950D01*
X0101406Y0033950D01*
X0103837Y0033130D02*
X0103837Y0031035D01*
X0103835Y0030980D01*
X0103829Y0030925D01*
X0103820Y0030871D01*
X0103807Y0030818D01*
X0103790Y0030765D01*
X0103770Y0030714D01*
X0103747Y0030664D01*
X0103720Y0030616D01*
X0103689Y0030570D01*
X0103656Y0030526D01*
X0103620Y0030485D01*
X0103581Y0030446D01*
X0103540Y0030410D01*
X0103496Y0030377D01*
X0103450Y0030346D01*
X0103402Y0030319D01*
X0103352Y0030296D01*
X0103301Y0030276D01*
X0103248Y0030259D01*
X0103195Y0030246D01*
X0103141Y0030237D01*
X0103086Y0030231D01*
X0103031Y0030229D01*
X0102976Y0030231D01*
X0102921Y0030237D01*
X0102867Y0030246D01*
X0102814Y0030259D01*
X0102761Y0030276D01*
X0102710Y0030296D01*
X0102660Y0030319D01*
X0102612Y0030346D01*
X0102566Y0030377D01*
X0102522Y0030410D01*
X0102481Y0030446D01*
X0102442Y0030485D01*
X0102406Y0030526D01*
X0102373Y0030570D01*
X0102342Y0030616D01*
X0102315Y0030664D01*
X0102292Y0030714D01*
X0102272Y0030765D01*
X0102255Y0030818D01*
X0102242Y0030871D01*
X0102233Y0030925D01*
X0102227Y0030980D01*
X0102225Y0031035D01*
X0105202Y0030230D02*
X0106813Y0030230D01*
X0106007Y0030230D02*
X0106007Y0033130D01*
X0105202Y0032485D01*
X0107117Y0033950D02*
X0108406Y0033950D01*
X0108082Y0033130D02*
X0109693Y0033130D01*
X0108887Y0030230D01*
X0108082Y0032807D02*
X0108082Y0033130D01*
X0107117Y0033950D02*
X0107117Y0036850D01*
X0110880Y0035561D02*
X0110917Y0035598D01*
X0110951Y0035638D01*
X0110983Y0035680D01*
X0111011Y0035725D01*
X0111037Y0035771D01*
X0111059Y0035818D01*
X0111078Y0035867D01*
X0111094Y0035917D01*
X0111106Y0035968D01*
X0111115Y0036020D01*
X0111120Y0036072D01*
X0111122Y0036125D01*
X0110880Y0035561D02*
X0109511Y0033950D01*
X0111122Y0033950D01*
X0109511Y0036206D02*
X0109531Y0036261D01*
X0109554Y0036315D01*
X0109581Y0036367D01*
X0109611Y0036417D01*
X0109643Y0036466D01*
X0109679Y0036512D01*
X0109718Y0036556D01*
X0109759Y0036597D01*
X0109803Y0036636D01*
X0109849Y0036672D01*
X0109898Y0036705D01*
X0109948Y0036735D01*
X0110000Y0036761D01*
X0110054Y0036785D01*
X0110109Y0036804D01*
X0110165Y0036821D01*
X0110222Y0036833D01*
X0110280Y0036843D01*
X0110338Y0036848D01*
X0110397Y0036850D01*
X0110449Y0036848D01*
X0110500Y0036843D01*
X0110551Y0036833D01*
X0110601Y0036821D01*
X0110650Y0036804D01*
X0110698Y0036784D01*
X0110744Y0036761D01*
X0110789Y0036735D01*
X0110831Y0036705D01*
X0110872Y0036673D01*
X0110910Y0036638D01*
X0110945Y0036600D01*
X0110977Y0036559D01*
X0111007Y0036517D01*
X0111033Y0036472D01*
X0111056Y0036426D01*
X0111076Y0036378D01*
X0111093Y0036329D01*
X0111105Y0036279D01*
X0111115Y0036228D01*
X0111120Y0036177D01*
X0111122Y0036125D01*
X0116422Y0039499D02*
X0116422Y0040305D01*
X0116424Y0040360D01*
X0116430Y0040415D01*
X0116439Y0040469D01*
X0116452Y0040522D01*
X0116469Y0040575D01*
X0116489Y0040626D01*
X0116512Y0040676D01*
X0116539Y0040724D01*
X0116570Y0040770D01*
X0116603Y0040814D01*
X0116639Y0040855D01*
X0116678Y0040894D01*
X0116719Y0040930D01*
X0116763Y0040963D01*
X0116809Y0040994D01*
X0116857Y0041021D01*
X0116907Y0041044D01*
X0116958Y0041064D01*
X0117011Y0041081D01*
X0117064Y0041094D01*
X0117118Y0041103D01*
X0117173Y0041109D01*
X0117228Y0041111D01*
X0117283Y0041109D01*
X0117338Y0041103D01*
X0117392Y0041094D01*
X0117445Y0041081D01*
X0117498Y0041064D01*
X0117549Y0041044D01*
X0117599Y0041021D01*
X0117647Y0040994D01*
X0117693Y0040963D01*
X0117737Y0040930D01*
X0117778Y0040894D01*
X0117817Y0040855D01*
X0117853Y0040814D01*
X0117886Y0040770D01*
X0117917Y0040724D01*
X0117944Y0040676D01*
X0117967Y0040626D01*
X0117987Y0040575D01*
X0118004Y0040522D01*
X0118017Y0040469D01*
X0118026Y0040415D01*
X0118032Y0040360D01*
X0118034Y0040305D01*
X0118033Y0040305D02*
X0118033Y0039499D01*
X0118033Y0040466D02*
X0119322Y0041110D01*
X0119322Y0042359D02*
X0119322Y0043970D01*
X0119322Y0045239D02*
X0119322Y0046850D01*
X0119322Y0045239D02*
X0117711Y0046608D01*
X0116423Y0046125D02*
X0116425Y0046066D01*
X0116430Y0046008D01*
X0116440Y0045950D01*
X0116452Y0045893D01*
X0116469Y0045837D01*
X0116488Y0045782D01*
X0116512Y0045728D01*
X0116538Y0045676D01*
X0116568Y0045626D01*
X0116601Y0045577D01*
X0116637Y0045531D01*
X0116676Y0045487D01*
X0116717Y0045446D01*
X0116761Y0045407D01*
X0116807Y0045371D01*
X0116856Y0045339D01*
X0116906Y0045309D01*
X0116958Y0045282D01*
X0117012Y0045259D01*
X0117067Y0045239D01*
X0117711Y0046608D02*
X0117674Y0046645D01*
X0117634Y0046679D01*
X0117592Y0046711D01*
X0117547Y0046739D01*
X0117501Y0046765D01*
X0117454Y0046787D01*
X0117405Y0046806D01*
X0117355Y0046822D01*
X0117304Y0046834D01*
X0117252Y0046843D01*
X0117200Y0046848D01*
X0117147Y0046850D01*
X0117095Y0046848D01*
X0117044Y0046843D01*
X0116993Y0046833D01*
X0116943Y0046821D01*
X0116894Y0046804D01*
X0116846Y0046784D01*
X0116800Y0046761D01*
X0116755Y0046735D01*
X0116713Y0046705D01*
X0116672Y0046673D01*
X0116634Y0046638D01*
X0116599Y0046600D01*
X0116567Y0046559D01*
X0116537Y0046517D01*
X0116511Y0046472D01*
X0116488Y0046426D01*
X0116468Y0046378D01*
X0116451Y0046329D01*
X0116439Y0046279D01*
X0116429Y0046228D01*
X0116424Y0046177D01*
X0116422Y0046125D01*
X0117711Y0043728D02*
X0119322Y0042359D01*
X0117067Y0042359D02*
X0117012Y0042379D01*
X0116958Y0042402D01*
X0116906Y0042429D01*
X0116856Y0042459D01*
X0116807Y0042491D01*
X0116761Y0042527D01*
X0116717Y0042566D01*
X0116676Y0042607D01*
X0116637Y0042651D01*
X0116601Y0042697D01*
X0116568Y0042746D01*
X0116538Y0042796D01*
X0116512Y0042848D01*
X0116488Y0042902D01*
X0116469Y0042957D01*
X0116452Y0043013D01*
X0116440Y0043070D01*
X0116430Y0043128D01*
X0116425Y0043186D01*
X0116423Y0043245D01*
X0116422Y0043245D02*
X0116424Y0043297D01*
X0116429Y0043348D01*
X0116439Y0043399D01*
X0116451Y0043449D01*
X0116468Y0043498D01*
X0116488Y0043546D01*
X0116511Y0043592D01*
X0116537Y0043637D01*
X0116567Y0043679D01*
X0116599Y0043720D01*
X0116634Y0043758D01*
X0116672Y0043793D01*
X0116713Y0043825D01*
X0116755Y0043855D01*
X0116800Y0043881D01*
X0116846Y0043904D01*
X0116894Y0043924D01*
X0116943Y0043941D01*
X0116993Y0043953D01*
X0117044Y0043963D01*
X0117095Y0043968D01*
X0117147Y0043970D01*
X0117200Y0043968D01*
X0117252Y0043963D01*
X0117304Y0043954D01*
X0117355Y0043942D01*
X0117405Y0043926D01*
X0117454Y0043907D01*
X0117501Y0043885D01*
X0117547Y0043859D01*
X0117592Y0043831D01*
X0117634Y0043799D01*
X0117674Y0043765D01*
X0117711Y0043728D01*
X0116422Y0039499D02*
X0119322Y0039499D01*
X0125849Y0032947D02*
X0123799Y0030896D01*
X0124710Y0029985D01*
X0126061Y0028634D02*
X0128681Y0030115D01*
X0127542Y0031254D01*
X0127314Y0031027D01*
X0121317Y0050950D02*
X0121363Y0050952D01*
X0121409Y0050957D01*
X0121454Y0050966D01*
X0121499Y0050978D01*
X0121542Y0050994D01*
X0121584Y0051013D01*
X0121625Y0051036D01*
X0121663Y0051061D01*
X0121700Y0051089D01*
X0121734Y0051120D01*
X0121766Y0051154D01*
X0121795Y0051190D01*
X0121821Y0051228D01*
X0121844Y0051268D01*
X0121864Y0051310D01*
X0121881Y0051353D01*
X0121317Y0050950D02*
X0121271Y0050952D01*
X0121225Y0050957D01*
X0121180Y0050966D01*
X0121135Y0050978D01*
X0121092Y0050994D01*
X0121050Y0051013D01*
X0121009Y0051036D01*
X0120971Y0051061D01*
X0120934Y0051089D01*
X0120900Y0051120D01*
X0120868Y0051154D01*
X0120839Y0051190D01*
X0120813Y0051228D01*
X0120790Y0051268D01*
X0120770Y0051310D01*
X0120753Y0051353D01*
X0120672Y0051594D02*
X0121961Y0053206D01*
X0121881Y0053447D02*
X0121864Y0053490D01*
X0121844Y0053532D01*
X0121821Y0053572D01*
X0121795Y0053610D01*
X0121766Y0053646D01*
X0121734Y0053680D01*
X0121700Y0053711D01*
X0121663Y0053739D01*
X0121625Y0053764D01*
X0121584Y0053787D01*
X0121542Y0053806D01*
X0121499Y0053822D01*
X0121454Y0053834D01*
X0121409Y0053843D01*
X0121363Y0053848D01*
X0121317Y0053850D01*
X0121271Y0053848D01*
X0121225Y0053843D01*
X0121180Y0053834D01*
X0121135Y0053822D01*
X0121092Y0053806D01*
X0121050Y0053787D01*
X0121009Y0053764D01*
X0120971Y0053739D01*
X0120934Y0053711D01*
X0120900Y0053680D01*
X0120868Y0053646D01*
X0120839Y0053610D01*
X0120813Y0053572D01*
X0120790Y0053532D01*
X0120770Y0053490D01*
X0120753Y0053447D01*
X0121880Y0053447D02*
X0121918Y0053365D01*
X0121953Y0053282D01*
X0121985Y0053197D01*
X0122014Y0053112D01*
X0122039Y0053025D01*
X0122061Y0052937D01*
X0122079Y0052849D01*
X0122095Y0052760D01*
X0122107Y0052670D01*
X0122115Y0052581D01*
X0122120Y0052490D01*
X0122122Y0052400D01*
X0120511Y0052400D02*
X0120513Y0052490D01*
X0120518Y0052581D01*
X0120526Y0052670D01*
X0120538Y0052760D01*
X0120554Y0052849D01*
X0120572Y0052937D01*
X0120594Y0053025D01*
X0120619Y0053112D01*
X0120648Y0053197D01*
X0120680Y0053282D01*
X0120715Y0053365D01*
X0120753Y0053447D01*
X0122122Y0052400D02*
X0122120Y0052310D01*
X0122115Y0052219D01*
X0122107Y0052130D01*
X0122095Y0052040D01*
X0122079Y0051951D01*
X0122061Y0051863D01*
X0122039Y0051775D01*
X0122014Y0051688D01*
X0121985Y0051603D01*
X0121953Y0051518D01*
X0121918Y0051435D01*
X0121880Y0051353D01*
X0120753Y0051353D02*
X0120715Y0051435D01*
X0120680Y0051518D01*
X0120648Y0051603D01*
X0120619Y0051688D01*
X0120594Y0051775D01*
X0120572Y0051863D01*
X0120554Y0051951D01*
X0120538Y0052040D01*
X0120526Y0052130D01*
X0120518Y0052219D01*
X0120513Y0052310D01*
X0120511Y0052400D01*
X0119242Y0050950D02*
X0117631Y0050950D01*
X0118437Y0050950D02*
X0118437Y0053850D01*
X0117631Y0053206D01*
X0116511Y0053850D02*
X0115866Y0053850D01*
X0115815Y0053848D01*
X0115765Y0053842D01*
X0115716Y0053832D01*
X0115667Y0053818D01*
X0115620Y0053801D01*
X0115574Y0053780D01*
X0115530Y0053755D01*
X0115487Y0053727D01*
X0115448Y0053696D01*
X0115411Y0053661D01*
X0115376Y0053624D01*
X0115345Y0053585D01*
X0115317Y0053542D01*
X0115292Y0053498D01*
X0115271Y0053452D01*
X0115254Y0053405D01*
X0115240Y0053356D01*
X0115230Y0053307D01*
X0115224Y0053257D01*
X0115222Y0053206D01*
X0115222Y0051594D01*
X0115224Y0051546D01*
X0115229Y0051498D01*
X0115238Y0051451D01*
X0115251Y0051404D01*
X0115267Y0051359D01*
X0115286Y0051315D01*
X0115308Y0051272D01*
X0115334Y0051231D01*
X0115363Y0051192D01*
X0115394Y0051156D01*
X0115428Y0051122D01*
X0115464Y0051091D01*
X0115503Y0051062D01*
X0115544Y0051036D01*
X0115587Y0051014D01*
X0115631Y0050995D01*
X0115676Y0050979D01*
X0115723Y0050966D01*
X0115770Y0050957D01*
X0115818Y0050952D01*
X0115866Y0050950D01*
X0116511Y0050950D01*
X0096122Y0048050D02*
X0096122Y0046439D01*
X0096122Y0047245D02*
X0093222Y0047245D01*
X0093867Y0046439D01*
X0096122Y0045170D02*
X0096122Y0043559D01*
X0096122Y0044365D02*
X0093222Y0044365D01*
X0093867Y0043559D01*
X0093222Y0042439D02*
X0093222Y0041794D01*
X0093223Y0041794D02*
X0093225Y0041743D01*
X0093231Y0041693D01*
X0093241Y0041644D01*
X0093255Y0041595D01*
X0093272Y0041548D01*
X0093293Y0041502D01*
X0093318Y0041457D01*
X0093346Y0041415D01*
X0093377Y0041376D01*
X0093412Y0041339D01*
X0093449Y0041304D01*
X0093488Y0041273D01*
X0093531Y0041245D01*
X0093575Y0041220D01*
X0093621Y0041199D01*
X0093668Y0041182D01*
X0093717Y0041168D01*
X0093766Y0041158D01*
X0093816Y0041152D01*
X0093867Y0041150D01*
X0095478Y0041150D01*
X0095526Y0041152D01*
X0095574Y0041157D01*
X0095621Y0041166D01*
X0095668Y0041179D01*
X0095713Y0041195D01*
X0095757Y0041214D01*
X0095800Y0041236D01*
X0095841Y0041262D01*
X0095880Y0041291D01*
X0095916Y0041322D01*
X0095950Y0041356D01*
X0095981Y0041392D01*
X0096010Y0041431D01*
X0096036Y0041472D01*
X0096058Y0041515D01*
X0096077Y0041559D01*
X0096093Y0041604D01*
X0096106Y0041651D01*
X0096115Y0041698D01*
X0096120Y0041746D01*
X0096122Y0041794D01*
X0096122Y0042439D01*
X0091968Y0050150D02*
X0091162Y0050150D01*
X0091968Y0050150D02*
X0092023Y0050152D01*
X0092078Y0050158D01*
X0092132Y0050167D01*
X0092185Y0050180D01*
X0092238Y0050197D01*
X0092289Y0050217D01*
X0092339Y0050240D01*
X0092387Y0050267D01*
X0092433Y0050298D01*
X0092477Y0050331D01*
X0092518Y0050367D01*
X0092557Y0050406D01*
X0092593Y0050447D01*
X0092626Y0050491D01*
X0092657Y0050537D01*
X0092684Y0050585D01*
X0092707Y0050635D01*
X0092727Y0050686D01*
X0092744Y0050739D01*
X0092757Y0050792D01*
X0092766Y0050846D01*
X0092772Y0050901D01*
X0092774Y0050956D01*
X0092772Y0051011D01*
X0092766Y0051066D01*
X0092757Y0051120D01*
X0092744Y0051173D01*
X0092727Y0051226D01*
X0092707Y0051277D01*
X0092684Y0051327D01*
X0092657Y0051375D01*
X0092626Y0051421D01*
X0092593Y0051465D01*
X0092557Y0051506D01*
X0092518Y0051545D01*
X0092477Y0051581D01*
X0092433Y0051614D01*
X0092387Y0051645D01*
X0092339Y0051672D01*
X0092289Y0051695D01*
X0092238Y0051715D01*
X0092185Y0051732D01*
X0092132Y0051745D01*
X0092078Y0051754D01*
X0092023Y0051760D01*
X0091968Y0051762D01*
X0092129Y0051761D02*
X0091484Y0051761D01*
X0092129Y0051762D02*
X0092178Y0051764D01*
X0092227Y0051770D01*
X0092276Y0051779D01*
X0092323Y0051792D01*
X0092370Y0051809D01*
X0092415Y0051829D01*
X0092458Y0051852D01*
X0092500Y0051879D01*
X0092539Y0051909D01*
X0092576Y0051942D01*
X0092610Y0051978D01*
X0092641Y0052016D01*
X0092670Y0052056D01*
X0092695Y0052098D01*
X0092717Y0052143D01*
X0092735Y0052188D01*
X0092750Y0052235D01*
X0092761Y0052283D01*
X0092769Y0052332D01*
X0092773Y0052381D01*
X0092773Y0052431D01*
X0092769Y0052480D01*
X0092761Y0052529D01*
X0092750Y0052577D01*
X0092735Y0052624D01*
X0092717Y0052669D01*
X0092695Y0052714D01*
X0092670Y0052756D01*
X0092641Y0052796D01*
X0092610Y0052834D01*
X0092576Y0052870D01*
X0092539Y0052903D01*
X0092500Y0052933D01*
X0092458Y0052960D01*
X0092415Y0052983D01*
X0092370Y0053003D01*
X0092323Y0053020D01*
X0092276Y0053033D01*
X0092227Y0053042D01*
X0092178Y0053048D01*
X0092129Y0053050D01*
X0091162Y0053050D01*
X0089249Y0053050D02*
X0088282Y0053050D01*
X0089249Y0053050D02*
X0089298Y0053048D01*
X0089347Y0053042D01*
X0089396Y0053033D01*
X0089443Y0053020D01*
X0089490Y0053003D01*
X0089535Y0052983D01*
X0089578Y0052960D01*
X0089620Y0052933D01*
X0089659Y0052903D01*
X0089696Y0052870D01*
X0089730Y0052834D01*
X0089761Y0052796D01*
X0089790Y0052756D01*
X0089815Y0052714D01*
X0089837Y0052669D01*
X0089855Y0052624D01*
X0089870Y0052577D01*
X0089881Y0052529D01*
X0089889Y0052480D01*
X0089893Y0052431D01*
X0089893Y0052381D01*
X0089889Y0052332D01*
X0089881Y0052283D01*
X0089870Y0052235D01*
X0089855Y0052188D01*
X0089837Y0052143D01*
X0089815Y0052098D01*
X0089790Y0052056D01*
X0089761Y0052016D01*
X0089730Y0051978D01*
X0089696Y0051942D01*
X0089659Y0051909D01*
X0089620Y0051879D01*
X0089578Y0051852D01*
X0089535Y0051829D01*
X0089490Y0051809D01*
X0089443Y0051792D01*
X0089396Y0051779D01*
X0089347Y0051770D01*
X0089298Y0051764D01*
X0089249Y0051762D01*
X0089249Y0051761D02*
X0088604Y0051761D01*
X0089088Y0051762D02*
X0089143Y0051760D01*
X0089198Y0051754D01*
X0089252Y0051745D01*
X0089305Y0051732D01*
X0089358Y0051715D01*
X0089409Y0051695D01*
X0089459Y0051672D01*
X0089507Y0051645D01*
X0089553Y0051614D01*
X0089597Y0051581D01*
X0089638Y0051545D01*
X0089677Y0051506D01*
X0089713Y0051465D01*
X0089746Y0051421D01*
X0089777Y0051375D01*
X0089804Y0051327D01*
X0089827Y0051277D01*
X0089847Y0051226D01*
X0089864Y0051173D01*
X0089877Y0051120D01*
X0089886Y0051066D01*
X0089892Y0051011D01*
X0089894Y0050956D01*
X0089892Y0050901D01*
X0089886Y0050846D01*
X0089877Y0050792D01*
X0089864Y0050739D01*
X0089847Y0050686D01*
X0089827Y0050635D01*
X0089804Y0050585D01*
X0089777Y0050537D01*
X0089746Y0050491D01*
X0089713Y0050447D01*
X0089677Y0050406D01*
X0089638Y0050367D01*
X0089597Y0050331D01*
X0089553Y0050298D01*
X0089507Y0050267D01*
X0089459Y0050240D01*
X0089409Y0050217D01*
X0089358Y0050197D01*
X0089305Y0050180D01*
X0089252Y0050167D01*
X0089198Y0050158D01*
X0089143Y0050152D01*
X0089088Y0050150D01*
X0088282Y0050150D01*
X0087033Y0050150D02*
X0086389Y0051439D01*
X0086228Y0051439D02*
X0085422Y0051439D01*
X0086228Y0051438D02*
X0086283Y0051440D01*
X0086338Y0051446D01*
X0086392Y0051455D01*
X0086445Y0051468D01*
X0086498Y0051485D01*
X0086549Y0051505D01*
X0086599Y0051528D01*
X0086647Y0051555D01*
X0086693Y0051586D01*
X0086737Y0051619D01*
X0086778Y0051655D01*
X0086817Y0051694D01*
X0086853Y0051735D01*
X0086886Y0051779D01*
X0086917Y0051825D01*
X0086944Y0051873D01*
X0086967Y0051923D01*
X0086987Y0051974D01*
X0087004Y0052027D01*
X0087017Y0052080D01*
X0087026Y0052134D01*
X0087032Y0052189D01*
X0087034Y0052244D01*
X0087032Y0052299D01*
X0087026Y0052354D01*
X0087017Y0052408D01*
X0087004Y0052461D01*
X0086987Y0052514D01*
X0086967Y0052565D01*
X0086944Y0052615D01*
X0086917Y0052663D01*
X0086886Y0052709D01*
X0086853Y0052753D01*
X0086817Y0052794D01*
X0086778Y0052833D01*
X0086737Y0052869D01*
X0086693Y0052902D01*
X0086647Y0052933D01*
X0086599Y0052960D01*
X0086549Y0052983D01*
X0086498Y0053003D01*
X0086445Y0053020D01*
X0086392Y0053033D01*
X0086338Y0053042D01*
X0086283Y0053048D01*
X0086228Y0053050D01*
X0085422Y0053050D01*
X0085422Y0050150D01*
X0085422Y0056150D02*
X0085422Y0059050D01*
X0086228Y0059050D01*
X0086283Y0059048D01*
X0086338Y0059042D01*
X0086392Y0059033D01*
X0086445Y0059020D01*
X0086498Y0059003D01*
X0086549Y0058983D01*
X0086599Y0058960D01*
X0086647Y0058933D01*
X0086693Y0058902D01*
X0086737Y0058869D01*
X0086778Y0058833D01*
X0086817Y0058794D01*
X0086853Y0058753D01*
X0086886Y0058709D01*
X0086917Y0058663D01*
X0086944Y0058615D01*
X0086967Y0058565D01*
X0086987Y0058514D01*
X0087004Y0058461D01*
X0087017Y0058408D01*
X0087026Y0058354D01*
X0087032Y0058299D01*
X0087034Y0058244D01*
X0087032Y0058189D01*
X0087026Y0058134D01*
X0087017Y0058080D01*
X0087004Y0058027D01*
X0086987Y0057974D01*
X0086967Y0057923D01*
X0086944Y0057873D01*
X0086917Y0057825D01*
X0086886Y0057779D01*
X0086853Y0057735D01*
X0086817Y0057694D01*
X0086778Y0057655D01*
X0086737Y0057619D01*
X0086693Y0057586D01*
X0086647Y0057555D01*
X0086599Y0057528D01*
X0086549Y0057505D01*
X0086498Y0057485D01*
X0086445Y0057468D01*
X0086392Y0057455D01*
X0086338Y0057446D01*
X0086283Y0057440D01*
X0086228Y0057438D01*
X0086228Y0057439D02*
X0085422Y0057439D01*
X0086389Y0057439D02*
X0087033Y0056150D01*
X0088282Y0056150D02*
X0089893Y0056150D01*
X0089088Y0056150D02*
X0089088Y0059050D01*
X0088282Y0058406D01*
X0091162Y0059050D02*
X0092773Y0059050D01*
X0092129Y0057761D02*
X0091162Y0057761D01*
X0091162Y0059050D01*
X0092129Y0057761D02*
X0092177Y0057759D01*
X0092225Y0057754D01*
X0092272Y0057745D01*
X0092319Y0057732D01*
X0092364Y0057716D01*
X0092408Y0057697D01*
X0092451Y0057675D01*
X0092492Y0057649D01*
X0092531Y0057620D01*
X0092567Y0057589D01*
X0092601Y0057555D01*
X0092632Y0057519D01*
X0092661Y0057480D01*
X0092687Y0057439D01*
X0092709Y0057396D01*
X0092728Y0057352D01*
X0092744Y0057307D01*
X0092757Y0057260D01*
X0092766Y0057213D01*
X0092771Y0057165D01*
X0092773Y0057117D01*
X0092773Y0056794D01*
X0092771Y0056746D01*
X0092766Y0056698D01*
X0092757Y0056651D01*
X0092744Y0056604D01*
X0092728Y0056559D01*
X0092709Y0056515D01*
X0092687Y0056472D01*
X0092661Y0056431D01*
X0092632Y0056392D01*
X0092601Y0056356D01*
X0092567Y0056322D01*
X0092531Y0056291D01*
X0092492Y0056262D01*
X0092451Y0056236D01*
X0092408Y0056214D01*
X0092364Y0056195D01*
X0092319Y0056179D01*
X0092272Y0056166D01*
X0092225Y0056157D01*
X0092177Y0056152D01*
X0092129Y0056150D01*
X0091162Y0056150D01*
X0089122Y0064150D02*
X0086222Y0064150D01*
X0086222Y0064956D01*
X0086224Y0065011D01*
X0086230Y0065066D01*
X0086239Y0065120D01*
X0086252Y0065173D01*
X0086269Y0065226D01*
X0086289Y0065277D01*
X0086312Y0065327D01*
X0086339Y0065375D01*
X0086370Y0065421D01*
X0086403Y0065465D01*
X0086439Y0065506D01*
X0086478Y0065545D01*
X0086519Y0065581D01*
X0086563Y0065614D01*
X0086609Y0065645D01*
X0086657Y0065672D01*
X0086707Y0065695D01*
X0086758Y0065715D01*
X0086811Y0065732D01*
X0086864Y0065745D01*
X0086918Y0065754D01*
X0086973Y0065760D01*
X0087028Y0065762D01*
X0087083Y0065760D01*
X0087138Y0065754D01*
X0087192Y0065745D01*
X0087245Y0065732D01*
X0087298Y0065715D01*
X0087349Y0065695D01*
X0087399Y0065672D01*
X0087447Y0065645D01*
X0087493Y0065614D01*
X0087537Y0065581D01*
X0087578Y0065545D01*
X0087617Y0065506D01*
X0087653Y0065465D01*
X0087686Y0065421D01*
X0087717Y0065375D01*
X0087744Y0065327D01*
X0087767Y0065277D01*
X0087787Y0065226D01*
X0087804Y0065173D01*
X0087817Y0065120D01*
X0087826Y0065066D01*
X0087832Y0065011D01*
X0087834Y0064956D01*
X0087833Y0064956D02*
X0087833Y0064150D01*
X0087833Y0065117D02*
X0089122Y0065761D01*
X0089122Y0067010D02*
X0089122Y0068621D01*
X0088478Y0069890D02*
X0088478Y0071501D01*
X0087833Y0071018D02*
X0089122Y0071018D01*
X0088478Y0069890D02*
X0086222Y0070534D01*
X0087511Y0068379D02*
X0089122Y0067010D01*
X0086867Y0067010D02*
X0086812Y0067030D01*
X0086758Y0067053D01*
X0086706Y0067080D01*
X0086656Y0067110D01*
X0086607Y0067142D01*
X0086561Y0067178D01*
X0086517Y0067217D01*
X0086476Y0067258D01*
X0086437Y0067302D01*
X0086401Y0067348D01*
X0086368Y0067397D01*
X0086338Y0067447D01*
X0086312Y0067499D01*
X0086288Y0067553D01*
X0086269Y0067608D01*
X0086252Y0067664D01*
X0086240Y0067721D01*
X0086230Y0067779D01*
X0086225Y0067837D01*
X0086223Y0067896D01*
X0086222Y0067896D02*
X0086224Y0067948D01*
X0086229Y0067999D01*
X0086239Y0068050D01*
X0086251Y0068100D01*
X0086268Y0068149D01*
X0086288Y0068197D01*
X0086311Y0068243D01*
X0086337Y0068288D01*
X0086367Y0068330D01*
X0086399Y0068371D01*
X0086434Y0068409D01*
X0086472Y0068444D01*
X0086513Y0068476D01*
X0086555Y0068506D01*
X0086600Y0068532D01*
X0086646Y0068555D01*
X0086694Y0068575D01*
X0086743Y0068592D01*
X0086793Y0068604D01*
X0086844Y0068614D01*
X0086895Y0068619D01*
X0086947Y0068621D01*
X0087000Y0068619D01*
X0087052Y0068614D01*
X0087104Y0068605D01*
X0087155Y0068593D01*
X0087205Y0068577D01*
X0087254Y0068558D01*
X0087301Y0068536D01*
X0087347Y0068510D01*
X0087392Y0068482D01*
X0087434Y0068450D01*
X0087474Y0068416D01*
X0087511Y0068379D01*
X0072370Y0087686D02*
X0072370Y0087847D01*
X0072368Y0087895D01*
X0072363Y0087943D01*
X0072354Y0087990D01*
X0072341Y0088037D01*
X0072325Y0088082D01*
X0072306Y0088126D01*
X0072284Y0088169D01*
X0072258Y0088210D01*
X0072229Y0088249D01*
X0072198Y0088285D01*
X0072164Y0088319D01*
X0072128Y0088350D01*
X0072089Y0088379D01*
X0072048Y0088405D01*
X0072005Y0088427D01*
X0071961Y0088446D01*
X0071916Y0088462D01*
X0071869Y0088475D01*
X0071822Y0088484D01*
X0071774Y0088489D01*
X0071726Y0088491D01*
X0071726Y0088492D02*
X0070759Y0088492D01*
X0070759Y0087686D01*
X0070761Y0087631D01*
X0070767Y0087576D01*
X0070776Y0087522D01*
X0070789Y0087469D01*
X0070806Y0087416D01*
X0070826Y0087365D01*
X0070849Y0087315D01*
X0070876Y0087267D01*
X0070907Y0087221D01*
X0070940Y0087177D01*
X0070976Y0087136D01*
X0071015Y0087097D01*
X0071056Y0087061D01*
X0071100Y0087028D01*
X0071146Y0086997D01*
X0071194Y0086970D01*
X0071244Y0086947D01*
X0071295Y0086927D01*
X0071348Y0086910D01*
X0071401Y0086897D01*
X0071455Y0086888D01*
X0071510Y0086882D01*
X0071565Y0086880D01*
X0071620Y0086882D01*
X0071675Y0086888D01*
X0071729Y0086897D01*
X0071782Y0086910D01*
X0071835Y0086927D01*
X0071886Y0086947D01*
X0071936Y0086970D01*
X0071984Y0086997D01*
X0072030Y0087028D01*
X0072074Y0087061D01*
X0072115Y0087097D01*
X0072154Y0087136D01*
X0072190Y0087177D01*
X0072223Y0087221D01*
X0072254Y0087267D01*
X0072281Y0087315D01*
X0072304Y0087365D01*
X0072324Y0087416D01*
X0072341Y0087469D01*
X0072354Y0087522D01*
X0072363Y0087576D01*
X0072369Y0087631D01*
X0072371Y0087686D01*
X0070759Y0088492D02*
X0070761Y0088562D01*
X0070767Y0088631D01*
X0070776Y0088701D01*
X0070789Y0088769D01*
X0070806Y0088837D01*
X0070826Y0088904D01*
X0070851Y0088969D01*
X0070878Y0089033D01*
X0070909Y0089096D01*
X0070944Y0089157D01*
X0070981Y0089215D01*
X0071022Y0089272D01*
X0071066Y0089326D01*
X0071112Y0089378D01*
X0071162Y0089428D01*
X0071214Y0089474D01*
X0071268Y0089518D01*
X0071325Y0089559D01*
X0071383Y0089596D01*
X0071444Y0089631D01*
X0071507Y0089662D01*
X0071571Y0089689D01*
X0071636Y0089714D01*
X0071703Y0089734D01*
X0071771Y0089751D01*
X0071839Y0089764D01*
X0071909Y0089773D01*
X0071978Y0089779D01*
X0072048Y0089781D01*
X0069394Y0089781D02*
X0069394Y0087686D01*
X0069395Y0087686D02*
X0069393Y0087631D01*
X0069387Y0087576D01*
X0069378Y0087522D01*
X0069365Y0087469D01*
X0069348Y0087416D01*
X0069328Y0087365D01*
X0069305Y0087315D01*
X0069278Y0087267D01*
X0069247Y0087221D01*
X0069214Y0087177D01*
X0069178Y0087136D01*
X0069139Y0087097D01*
X0069098Y0087061D01*
X0069054Y0087028D01*
X0069008Y0086997D01*
X0068960Y0086970D01*
X0068910Y0086947D01*
X0068859Y0086927D01*
X0068806Y0086910D01*
X0068753Y0086897D01*
X0068699Y0086888D01*
X0068644Y0086882D01*
X0068589Y0086880D01*
X0068534Y0086882D01*
X0068479Y0086888D01*
X0068425Y0086897D01*
X0068372Y0086910D01*
X0068319Y0086927D01*
X0068268Y0086947D01*
X0068218Y0086970D01*
X0068170Y0086997D01*
X0068124Y0087028D01*
X0068080Y0087061D01*
X0068039Y0087097D01*
X0068000Y0087136D01*
X0067964Y0087177D01*
X0067931Y0087221D01*
X0067900Y0087267D01*
X0067873Y0087315D01*
X0067850Y0087365D01*
X0067830Y0087416D01*
X0067813Y0087469D01*
X0067800Y0087522D01*
X0067791Y0087576D01*
X0067785Y0087631D01*
X0067783Y0087686D01*
X0067783Y0089781D01*
X0056589Y0079050D02*
X0056589Y0076150D01*
X0057394Y0076150D02*
X0055783Y0076150D01*
X0054418Y0076150D02*
X0054418Y0079050D01*
X0055783Y0078406D02*
X0056589Y0079050D01*
X0054418Y0076150D02*
X0052807Y0079050D01*
X0052807Y0076150D01*
X0051442Y0076956D02*
X0051442Y0078244D01*
X0051443Y0078244D02*
X0051441Y0078299D01*
X0051435Y0078354D01*
X0051426Y0078408D01*
X0051413Y0078461D01*
X0051396Y0078514D01*
X0051376Y0078565D01*
X0051353Y0078615D01*
X0051326Y0078663D01*
X0051295Y0078709D01*
X0051262Y0078753D01*
X0051226Y0078794D01*
X0051187Y0078833D01*
X0051146Y0078869D01*
X0051102Y0078902D01*
X0051056Y0078933D01*
X0051008Y0078960D01*
X0050958Y0078983D01*
X0050907Y0079003D01*
X0050854Y0079020D01*
X0050801Y0079033D01*
X0050747Y0079042D01*
X0050692Y0079048D01*
X0050637Y0079050D01*
X0050582Y0079048D01*
X0050527Y0079042D01*
X0050473Y0079033D01*
X0050420Y0079020D01*
X0050367Y0079003D01*
X0050316Y0078983D01*
X0050266Y0078960D01*
X0050218Y0078933D01*
X0050172Y0078902D01*
X0050128Y0078869D01*
X0050087Y0078833D01*
X0050048Y0078794D01*
X0050012Y0078753D01*
X0049979Y0078709D01*
X0049948Y0078663D01*
X0049921Y0078615D01*
X0049898Y0078565D01*
X0049878Y0078514D01*
X0049861Y0078461D01*
X0049848Y0078408D01*
X0049839Y0078354D01*
X0049833Y0078299D01*
X0049831Y0078244D01*
X0049831Y0076956D01*
X0049833Y0076901D01*
X0049839Y0076846D01*
X0049848Y0076792D01*
X0049861Y0076739D01*
X0049878Y0076686D01*
X0049898Y0076635D01*
X0049921Y0076585D01*
X0049948Y0076537D01*
X0049979Y0076491D01*
X0050012Y0076447D01*
X0050048Y0076406D01*
X0050087Y0076367D01*
X0050128Y0076331D01*
X0050172Y0076298D01*
X0050218Y0076267D01*
X0050266Y0076240D01*
X0050316Y0076217D01*
X0050367Y0076197D01*
X0050420Y0076180D01*
X0050473Y0076167D01*
X0050527Y0076158D01*
X0050582Y0076152D01*
X0050637Y0076150D01*
X0050692Y0076152D01*
X0050747Y0076158D01*
X0050801Y0076167D01*
X0050854Y0076180D01*
X0050907Y0076197D01*
X0050958Y0076217D01*
X0051008Y0076240D01*
X0051056Y0076267D01*
X0051102Y0076298D01*
X0051146Y0076331D01*
X0051187Y0076367D01*
X0051226Y0076406D01*
X0051262Y0076447D01*
X0051295Y0076491D01*
X0051326Y0076537D01*
X0051353Y0076585D01*
X0051376Y0076635D01*
X0051396Y0076686D01*
X0051413Y0076739D01*
X0051426Y0076792D01*
X0051435Y0076846D01*
X0051441Y0076901D01*
X0051443Y0076956D01*
X0048711Y0076150D02*
X0048067Y0076150D01*
X0048019Y0076152D01*
X0047971Y0076157D01*
X0047924Y0076166D01*
X0047877Y0076179D01*
X0047832Y0076195D01*
X0047788Y0076214D01*
X0047745Y0076236D01*
X0047704Y0076262D01*
X0047665Y0076291D01*
X0047629Y0076322D01*
X0047595Y0076356D01*
X0047564Y0076392D01*
X0047535Y0076431D01*
X0047509Y0076472D01*
X0047487Y0076515D01*
X0047468Y0076559D01*
X0047452Y0076604D01*
X0047439Y0076651D01*
X0047430Y0076698D01*
X0047425Y0076746D01*
X0047423Y0076794D01*
X0047422Y0076794D02*
X0047422Y0078406D01*
X0047423Y0078406D02*
X0047425Y0078457D01*
X0047431Y0078507D01*
X0047441Y0078556D01*
X0047455Y0078605D01*
X0047472Y0078652D01*
X0047493Y0078698D01*
X0047518Y0078742D01*
X0047546Y0078785D01*
X0047577Y0078824D01*
X0047612Y0078861D01*
X0047649Y0078896D01*
X0047688Y0078927D01*
X0047731Y0078955D01*
X0047775Y0078980D01*
X0047821Y0079001D01*
X0047868Y0079018D01*
X0047917Y0079032D01*
X0047966Y0079042D01*
X0048016Y0079048D01*
X0048067Y0079050D01*
X0048711Y0079050D01*
X0047442Y0105150D02*
X0045831Y0105150D01*
X0046637Y0105150D02*
X0046637Y0108050D01*
X0045831Y0107406D01*
X0044711Y0108050D02*
X0044067Y0108050D01*
X0044016Y0108048D01*
X0043966Y0108042D01*
X0043917Y0108032D01*
X0043868Y0108018D01*
X0043821Y0108001D01*
X0043775Y0107980D01*
X0043731Y0107955D01*
X0043688Y0107927D01*
X0043649Y0107896D01*
X0043612Y0107861D01*
X0043577Y0107824D01*
X0043546Y0107785D01*
X0043518Y0107742D01*
X0043493Y0107698D01*
X0043472Y0107652D01*
X0043455Y0107605D01*
X0043441Y0107556D01*
X0043431Y0107507D01*
X0043425Y0107457D01*
X0043423Y0107406D01*
X0043422Y0107406D02*
X0043422Y0105794D01*
X0043423Y0105794D02*
X0043425Y0105746D01*
X0043430Y0105698D01*
X0043439Y0105651D01*
X0043452Y0105604D01*
X0043468Y0105559D01*
X0043487Y0105515D01*
X0043509Y0105472D01*
X0043535Y0105431D01*
X0043564Y0105392D01*
X0043595Y0105356D01*
X0043629Y0105322D01*
X0043665Y0105291D01*
X0043704Y0105262D01*
X0043745Y0105236D01*
X0043788Y0105214D01*
X0043832Y0105195D01*
X0043877Y0105179D01*
X0043924Y0105166D01*
X0043971Y0105157D01*
X0044019Y0105152D01*
X0044067Y0105150D01*
X0044711Y0105150D01*
X0048711Y0105956D02*
X0048711Y0106761D01*
X0049678Y0106761D01*
X0048711Y0106761D02*
X0048713Y0106831D01*
X0048719Y0106900D01*
X0048728Y0106970D01*
X0048741Y0107038D01*
X0048758Y0107106D01*
X0048778Y0107173D01*
X0048803Y0107238D01*
X0048830Y0107302D01*
X0048861Y0107365D01*
X0048896Y0107426D01*
X0048933Y0107484D01*
X0048974Y0107541D01*
X0049018Y0107595D01*
X0049064Y0107647D01*
X0049114Y0107697D01*
X0049166Y0107743D01*
X0049220Y0107787D01*
X0049277Y0107828D01*
X0049335Y0107865D01*
X0049396Y0107900D01*
X0049459Y0107931D01*
X0049523Y0107958D01*
X0049588Y0107983D01*
X0049655Y0108003D01*
X0049723Y0108020D01*
X0049791Y0108033D01*
X0049861Y0108042D01*
X0049930Y0108048D01*
X0050000Y0108050D01*
X0049678Y0106761D02*
X0049726Y0106759D01*
X0049774Y0106754D01*
X0049821Y0106745D01*
X0049868Y0106732D01*
X0049913Y0106716D01*
X0049957Y0106697D01*
X0050000Y0106675D01*
X0050041Y0106649D01*
X0050080Y0106620D01*
X0050116Y0106589D01*
X0050150Y0106555D01*
X0050181Y0106519D01*
X0050210Y0106480D01*
X0050236Y0106439D01*
X0050258Y0106396D01*
X0050277Y0106352D01*
X0050293Y0106307D01*
X0050306Y0106260D01*
X0050315Y0106213D01*
X0050320Y0106165D01*
X0050322Y0106117D01*
X0050322Y0105956D01*
X0050323Y0105956D02*
X0050321Y0105901D01*
X0050315Y0105846D01*
X0050306Y0105792D01*
X0050293Y0105739D01*
X0050276Y0105686D01*
X0050256Y0105635D01*
X0050233Y0105585D01*
X0050206Y0105537D01*
X0050175Y0105491D01*
X0050142Y0105447D01*
X0050106Y0105406D01*
X0050067Y0105367D01*
X0050026Y0105331D01*
X0049982Y0105298D01*
X0049936Y0105267D01*
X0049888Y0105240D01*
X0049838Y0105217D01*
X0049787Y0105197D01*
X0049734Y0105180D01*
X0049681Y0105167D01*
X0049627Y0105158D01*
X0049572Y0105152D01*
X0049517Y0105150D01*
X0049462Y0105152D01*
X0049407Y0105158D01*
X0049353Y0105167D01*
X0049300Y0105180D01*
X0049247Y0105197D01*
X0049196Y0105217D01*
X0049146Y0105240D01*
X0049098Y0105267D01*
X0049052Y0105298D01*
X0049008Y0105331D01*
X0048967Y0105367D01*
X0048928Y0105406D01*
X0048892Y0105447D01*
X0048859Y0105491D01*
X0048828Y0105537D01*
X0048801Y0105585D01*
X0048778Y0105635D01*
X0048758Y0105686D01*
X0048741Y0105739D01*
X0048728Y0105792D01*
X0048719Y0105846D01*
X0048713Y0105901D01*
X0048711Y0105956D01*
X0055771Y0109950D02*
X0055771Y0112850D01*
X0056577Y0112850D01*
X0056632Y0112848D01*
X0056687Y0112842D01*
X0056741Y0112833D01*
X0056794Y0112820D01*
X0056847Y0112803D01*
X0056898Y0112783D01*
X0056948Y0112760D01*
X0056996Y0112733D01*
X0057042Y0112702D01*
X0057086Y0112669D01*
X0057127Y0112633D01*
X0057166Y0112594D01*
X0057202Y0112553D01*
X0057235Y0112509D01*
X0057266Y0112463D01*
X0057293Y0112415D01*
X0057316Y0112365D01*
X0057336Y0112314D01*
X0057353Y0112261D01*
X0057366Y0112208D01*
X0057375Y0112154D01*
X0057381Y0112099D01*
X0057383Y0112044D01*
X0057381Y0111989D01*
X0057375Y0111934D01*
X0057366Y0111880D01*
X0057353Y0111827D01*
X0057336Y0111774D01*
X0057316Y0111723D01*
X0057293Y0111673D01*
X0057266Y0111625D01*
X0057235Y0111579D01*
X0057202Y0111535D01*
X0057166Y0111494D01*
X0057127Y0111455D01*
X0057086Y0111419D01*
X0057042Y0111386D01*
X0056996Y0111355D01*
X0056948Y0111328D01*
X0056898Y0111305D01*
X0056847Y0111285D01*
X0056794Y0111268D01*
X0056741Y0111255D01*
X0056687Y0111246D01*
X0056632Y0111240D01*
X0056577Y0111238D01*
X0056577Y0111239D02*
X0055771Y0111239D01*
X0056738Y0111239D02*
X0057382Y0109950D01*
X0058631Y0109950D02*
X0060242Y0109950D01*
X0058631Y0109950D02*
X0060000Y0111561D01*
X0059517Y0112850D02*
X0059458Y0112848D01*
X0059400Y0112843D01*
X0059342Y0112833D01*
X0059285Y0112821D01*
X0059229Y0112804D01*
X0059174Y0112785D01*
X0059120Y0112761D01*
X0059068Y0112735D01*
X0059018Y0112705D01*
X0058969Y0112672D01*
X0058923Y0112636D01*
X0058879Y0112597D01*
X0058838Y0112556D01*
X0058799Y0112512D01*
X0058763Y0112466D01*
X0058731Y0112417D01*
X0058701Y0112367D01*
X0058674Y0112315D01*
X0058651Y0112261D01*
X0058631Y0112206D01*
X0060000Y0111561D02*
X0060037Y0111598D01*
X0060071Y0111638D01*
X0060103Y0111680D01*
X0060131Y0111725D01*
X0060157Y0111771D01*
X0060179Y0111818D01*
X0060198Y0111867D01*
X0060214Y0111917D01*
X0060226Y0111968D01*
X0060235Y0112020D01*
X0060240Y0112072D01*
X0060242Y0112125D01*
X0060240Y0112177D01*
X0060235Y0112228D01*
X0060225Y0112279D01*
X0060213Y0112329D01*
X0060196Y0112378D01*
X0060176Y0112426D01*
X0060153Y0112472D01*
X0060127Y0112517D01*
X0060097Y0112559D01*
X0060065Y0112600D01*
X0060030Y0112638D01*
X0059992Y0112673D01*
X0059951Y0112705D01*
X0059909Y0112735D01*
X0059864Y0112761D01*
X0059818Y0112784D01*
X0059770Y0112804D01*
X0059721Y0112821D01*
X0059671Y0112833D01*
X0059620Y0112843D01*
X0059569Y0112848D01*
X0059517Y0112850D01*
X0061511Y0112850D02*
X0063122Y0112850D01*
X0062317Y0109950D01*
X0061511Y0112528D02*
X0061511Y0112850D01*
X0062123Y0115756D02*
X0062121Y0115701D01*
X0062115Y0115646D01*
X0062106Y0115592D01*
X0062093Y0115539D01*
X0062076Y0115486D01*
X0062056Y0115435D01*
X0062033Y0115385D01*
X0062006Y0115337D01*
X0061975Y0115291D01*
X0061942Y0115247D01*
X0061906Y0115206D01*
X0061867Y0115167D01*
X0061826Y0115131D01*
X0061782Y0115098D01*
X0061736Y0115067D01*
X0061688Y0115040D01*
X0061638Y0115017D01*
X0061587Y0114997D01*
X0061534Y0114980D01*
X0061481Y0114967D01*
X0061427Y0114958D01*
X0061372Y0114952D01*
X0061317Y0114950D01*
X0061262Y0114952D01*
X0061207Y0114958D01*
X0061153Y0114967D01*
X0061100Y0114980D01*
X0061047Y0114997D01*
X0060996Y0115017D01*
X0060946Y0115040D01*
X0060898Y0115067D01*
X0060852Y0115098D01*
X0060808Y0115131D01*
X0060767Y0115167D01*
X0060728Y0115206D01*
X0060692Y0115247D01*
X0060659Y0115291D01*
X0060628Y0115337D01*
X0060601Y0115385D01*
X0060578Y0115435D01*
X0060558Y0115486D01*
X0060541Y0115539D01*
X0060528Y0115592D01*
X0060519Y0115646D01*
X0060513Y0115701D01*
X0060511Y0115756D01*
X0060511Y0116561D01*
X0061478Y0116561D01*
X0060511Y0116561D02*
X0060513Y0116631D01*
X0060519Y0116700D01*
X0060528Y0116770D01*
X0060541Y0116838D01*
X0060558Y0116906D01*
X0060578Y0116973D01*
X0060603Y0117038D01*
X0060630Y0117102D01*
X0060661Y0117165D01*
X0060696Y0117226D01*
X0060733Y0117284D01*
X0060774Y0117341D01*
X0060818Y0117395D01*
X0060864Y0117447D01*
X0060914Y0117497D01*
X0060966Y0117543D01*
X0061020Y0117587D01*
X0061077Y0117628D01*
X0061135Y0117665D01*
X0061196Y0117700D01*
X0061259Y0117731D01*
X0061323Y0117758D01*
X0061388Y0117783D01*
X0061455Y0117803D01*
X0061523Y0117820D01*
X0061591Y0117833D01*
X0061661Y0117842D01*
X0061730Y0117848D01*
X0061800Y0117850D01*
X0059000Y0116561D02*
X0057631Y0114950D01*
X0059242Y0114950D01*
X0057631Y0117206D02*
X0057651Y0117261D01*
X0057674Y0117315D01*
X0057701Y0117367D01*
X0057731Y0117417D01*
X0057763Y0117466D01*
X0057799Y0117512D01*
X0057838Y0117556D01*
X0057879Y0117597D01*
X0057923Y0117636D01*
X0057969Y0117672D01*
X0058018Y0117705D01*
X0058068Y0117735D01*
X0058120Y0117761D01*
X0058174Y0117785D01*
X0058229Y0117804D01*
X0058285Y0117821D01*
X0058342Y0117833D01*
X0058400Y0117843D01*
X0058458Y0117848D01*
X0058517Y0117850D01*
X0058569Y0117848D01*
X0058620Y0117843D01*
X0058671Y0117833D01*
X0058721Y0117821D01*
X0058770Y0117804D01*
X0058818Y0117784D01*
X0058864Y0117761D01*
X0058909Y0117735D01*
X0058951Y0117705D01*
X0058992Y0117673D01*
X0059030Y0117638D01*
X0059065Y0117600D01*
X0059097Y0117559D01*
X0059127Y0117517D01*
X0059153Y0117472D01*
X0059176Y0117426D01*
X0059196Y0117378D01*
X0059213Y0117329D01*
X0059225Y0117279D01*
X0059235Y0117228D01*
X0059240Y0117177D01*
X0059242Y0117125D01*
X0059240Y0117072D01*
X0059235Y0117020D01*
X0059226Y0116968D01*
X0059214Y0116917D01*
X0059198Y0116867D01*
X0059179Y0116818D01*
X0059157Y0116771D01*
X0059131Y0116725D01*
X0059103Y0116680D01*
X0059071Y0116638D01*
X0059037Y0116598D01*
X0059000Y0116561D01*
X0061478Y0116561D02*
X0061526Y0116559D01*
X0061574Y0116554D01*
X0061621Y0116545D01*
X0061668Y0116532D01*
X0061713Y0116516D01*
X0061757Y0116497D01*
X0061800Y0116475D01*
X0061841Y0116449D01*
X0061880Y0116420D01*
X0061916Y0116389D01*
X0061950Y0116355D01*
X0061981Y0116319D01*
X0062010Y0116280D01*
X0062036Y0116239D01*
X0062058Y0116196D01*
X0062077Y0116152D01*
X0062093Y0116107D01*
X0062106Y0116060D01*
X0062115Y0116013D01*
X0062120Y0115965D01*
X0062122Y0115917D01*
X0062122Y0115756D01*
X0056382Y0114950D02*
X0055738Y0116239D01*
X0055577Y0116239D02*
X0054771Y0116239D01*
X0055577Y0116238D02*
X0055632Y0116240D01*
X0055687Y0116246D01*
X0055741Y0116255D01*
X0055794Y0116268D01*
X0055847Y0116285D01*
X0055898Y0116305D01*
X0055948Y0116328D01*
X0055996Y0116355D01*
X0056042Y0116386D01*
X0056086Y0116419D01*
X0056127Y0116455D01*
X0056166Y0116494D01*
X0056202Y0116535D01*
X0056235Y0116579D01*
X0056266Y0116625D01*
X0056293Y0116673D01*
X0056316Y0116723D01*
X0056336Y0116774D01*
X0056353Y0116827D01*
X0056366Y0116880D01*
X0056375Y0116934D01*
X0056381Y0116989D01*
X0056383Y0117044D01*
X0056381Y0117099D01*
X0056375Y0117154D01*
X0056366Y0117208D01*
X0056353Y0117261D01*
X0056336Y0117314D01*
X0056316Y0117365D01*
X0056293Y0117415D01*
X0056266Y0117463D01*
X0056235Y0117509D01*
X0056202Y0117553D01*
X0056166Y0117594D01*
X0056127Y0117633D01*
X0056086Y0117669D01*
X0056042Y0117702D01*
X0055996Y0117733D01*
X0055948Y0117760D01*
X0055898Y0117783D01*
X0055847Y0117803D01*
X0055794Y0117820D01*
X0055741Y0117833D01*
X0055687Y0117842D01*
X0055632Y0117848D01*
X0055577Y0117850D01*
X0054771Y0117850D01*
X0054771Y0114950D01*
X0050678Y0131950D02*
X0049067Y0131950D01*
X0049016Y0131952D01*
X0048966Y0131958D01*
X0048917Y0131968D01*
X0048868Y0131982D01*
X0048821Y0131999D01*
X0048775Y0132020D01*
X0048731Y0132045D01*
X0048688Y0132073D01*
X0048649Y0132104D01*
X0048612Y0132139D01*
X0048577Y0132176D01*
X0048546Y0132215D01*
X0048518Y0132257D01*
X0048493Y0132302D01*
X0048472Y0132348D01*
X0048455Y0132395D01*
X0048441Y0132444D01*
X0048431Y0132493D01*
X0048425Y0132543D01*
X0048423Y0132594D01*
X0048422Y0132594D02*
X0048422Y0133239D01*
X0049067Y0134359D02*
X0048422Y0135164D01*
X0051322Y0135164D01*
X0051322Y0134359D02*
X0051322Y0135970D01*
X0051322Y0137239D02*
X0051322Y0138044D01*
X0051323Y0138044D02*
X0051321Y0138099D01*
X0051315Y0138154D01*
X0051306Y0138208D01*
X0051293Y0138261D01*
X0051276Y0138314D01*
X0051256Y0138365D01*
X0051233Y0138415D01*
X0051206Y0138463D01*
X0051175Y0138509D01*
X0051142Y0138553D01*
X0051106Y0138594D01*
X0051067Y0138633D01*
X0051026Y0138669D01*
X0050982Y0138702D01*
X0050936Y0138733D01*
X0050888Y0138760D01*
X0050838Y0138783D01*
X0050787Y0138803D01*
X0050734Y0138820D01*
X0050681Y0138833D01*
X0050627Y0138842D01*
X0050572Y0138848D01*
X0050517Y0138850D01*
X0050462Y0138848D01*
X0050407Y0138842D01*
X0050353Y0138833D01*
X0050300Y0138820D01*
X0050247Y0138803D01*
X0050196Y0138783D01*
X0050146Y0138760D01*
X0050098Y0138733D01*
X0050052Y0138702D01*
X0050008Y0138669D01*
X0049967Y0138633D01*
X0049928Y0138594D01*
X0049892Y0138553D01*
X0049859Y0138509D01*
X0049828Y0138463D01*
X0049801Y0138415D01*
X0049778Y0138365D01*
X0049758Y0138314D01*
X0049741Y0138261D01*
X0049728Y0138208D01*
X0049719Y0138154D01*
X0049713Y0138099D01*
X0049711Y0138044D01*
X0049711Y0138206D02*
X0049711Y0137561D01*
X0049711Y0138206D02*
X0049709Y0138255D01*
X0049703Y0138304D01*
X0049694Y0138353D01*
X0049681Y0138400D01*
X0049664Y0138447D01*
X0049644Y0138492D01*
X0049621Y0138535D01*
X0049594Y0138577D01*
X0049564Y0138616D01*
X0049531Y0138653D01*
X0049495Y0138687D01*
X0049457Y0138718D01*
X0049417Y0138747D01*
X0049375Y0138772D01*
X0049330Y0138794D01*
X0049285Y0138812D01*
X0049238Y0138827D01*
X0049190Y0138838D01*
X0049141Y0138846D01*
X0049092Y0138850D01*
X0049042Y0138850D01*
X0048993Y0138846D01*
X0048944Y0138838D01*
X0048896Y0138827D01*
X0048849Y0138812D01*
X0048804Y0138794D01*
X0048759Y0138772D01*
X0048717Y0138747D01*
X0048677Y0138718D01*
X0048639Y0138687D01*
X0048603Y0138653D01*
X0048570Y0138616D01*
X0048540Y0138577D01*
X0048513Y0138535D01*
X0048490Y0138492D01*
X0048470Y0138447D01*
X0048453Y0138400D01*
X0048440Y0138353D01*
X0048431Y0138304D01*
X0048425Y0138255D01*
X0048423Y0138206D01*
X0048422Y0138206D02*
X0048422Y0137239D01*
X0046122Y0137439D02*
X0046122Y0139050D01*
X0046122Y0137439D02*
X0044511Y0138809D01*
X0043223Y0138325D02*
X0043225Y0138266D01*
X0043230Y0138208D01*
X0043240Y0138150D01*
X0043252Y0138093D01*
X0043269Y0138037D01*
X0043288Y0137982D01*
X0043312Y0137928D01*
X0043338Y0137876D01*
X0043368Y0137826D01*
X0043401Y0137777D01*
X0043437Y0137731D01*
X0043476Y0137687D01*
X0043517Y0137646D01*
X0043561Y0137607D01*
X0043607Y0137571D01*
X0043656Y0137539D01*
X0043706Y0137509D01*
X0043758Y0137482D01*
X0043812Y0137459D01*
X0043867Y0137439D01*
X0044511Y0138809D02*
X0044474Y0138846D01*
X0044434Y0138880D01*
X0044392Y0138912D01*
X0044347Y0138940D01*
X0044301Y0138966D01*
X0044254Y0138988D01*
X0044205Y0139007D01*
X0044155Y0139023D01*
X0044104Y0139035D01*
X0044052Y0139044D01*
X0044000Y0139049D01*
X0043947Y0139051D01*
X0043947Y0139050D02*
X0043895Y0139048D01*
X0043844Y0139043D01*
X0043793Y0139033D01*
X0043743Y0139021D01*
X0043694Y0139004D01*
X0043646Y0138984D01*
X0043600Y0138961D01*
X0043555Y0138935D01*
X0043513Y0138905D01*
X0043472Y0138873D01*
X0043434Y0138838D01*
X0043399Y0138800D01*
X0043367Y0138759D01*
X0043337Y0138717D01*
X0043311Y0138672D01*
X0043288Y0138626D01*
X0043268Y0138578D01*
X0043251Y0138529D01*
X0043239Y0138479D01*
X0043229Y0138428D01*
X0043224Y0138377D01*
X0043222Y0138325D01*
X0043222Y0135365D02*
X0046122Y0135365D01*
X0046122Y0136170D02*
X0046122Y0134559D01*
X0046122Y0133439D02*
X0046122Y0132794D01*
X0046120Y0132746D01*
X0046115Y0132698D01*
X0046106Y0132651D01*
X0046093Y0132604D01*
X0046077Y0132559D01*
X0046058Y0132515D01*
X0046036Y0132472D01*
X0046010Y0132431D01*
X0045981Y0132392D01*
X0045950Y0132356D01*
X0045916Y0132322D01*
X0045880Y0132291D01*
X0045841Y0132262D01*
X0045800Y0132236D01*
X0045757Y0132214D01*
X0045713Y0132195D01*
X0045668Y0132179D01*
X0045621Y0132166D01*
X0045574Y0132157D01*
X0045526Y0132152D01*
X0045478Y0132150D01*
X0043867Y0132150D01*
X0043816Y0132152D01*
X0043766Y0132158D01*
X0043717Y0132168D01*
X0043668Y0132182D01*
X0043621Y0132199D01*
X0043575Y0132220D01*
X0043531Y0132245D01*
X0043488Y0132273D01*
X0043449Y0132304D01*
X0043412Y0132339D01*
X0043377Y0132376D01*
X0043346Y0132415D01*
X0043318Y0132457D01*
X0043293Y0132502D01*
X0043272Y0132548D01*
X0043255Y0132595D01*
X0043241Y0132644D01*
X0043231Y0132693D01*
X0043225Y0132743D01*
X0043223Y0132794D01*
X0043222Y0132794D02*
X0043222Y0133439D01*
X0043867Y0134559D02*
X0043222Y0135365D01*
X0050678Y0131950D02*
X0050726Y0131952D01*
X0050774Y0131957D01*
X0050821Y0131966D01*
X0050868Y0131979D01*
X0050913Y0131995D01*
X0050957Y0132014D01*
X0051000Y0132036D01*
X0051041Y0132062D01*
X0051080Y0132091D01*
X0051116Y0132122D01*
X0051150Y0132156D01*
X0051181Y0132192D01*
X0051210Y0132231D01*
X0051236Y0132272D01*
X0051258Y0132315D01*
X0051277Y0132359D01*
X0051293Y0132404D01*
X0051306Y0132451D01*
X0051315Y0132498D01*
X0051320Y0132546D01*
X0051322Y0132594D01*
X0051322Y0133239D01*
X0053222Y0133439D02*
X0053222Y0132794D01*
X0053223Y0132794D02*
X0053225Y0132743D01*
X0053231Y0132693D01*
X0053241Y0132644D01*
X0053255Y0132595D01*
X0053272Y0132548D01*
X0053293Y0132502D01*
X0053318Y0132457D01*
X0053346Y0132415D01*
X0053377Y0132376D01*
X0053412Y0132339D01*
X0053449Y0132304D01*
X0053488Y0132273D01*
X0053531Y0132245D01*
X0053575Y0132220D01*
X0053621Y0132199D01*
X0053668Y0132182D01*
X0053717Y0132168D01*
X0053766Y0132158D01*
X0053816Y0132152D01*
X0053867Y0132150D01*
X0055478Y0132150D01*
X0055526Y0132152D01*
X0055574Y0132157D01*
X0055621Y0132166D01*
X0055668Y0132179D01*
X0055713Y0132195D01*
X0055757Y0132214D01*
X0055800Y0132236D01*
X0055841Y0132262D01*
X0055880Y0132291D01*
X0055916Y0132322D01*
X0055950Y0132356D01*
X0055981Y0132392D01*
X0056010Y0132431D01*
X0056036Y0132472D01*
X0056058Y0132515D01*
X0056077Y0132559D01*
X0056093Y0132604D01*
X0056106Y0132651D01*
X0056115Y0132698D01*
X0056120Y0132746D01*
X0056122Y0132794D01*
X0056122Y0133439D01*
X0056122Y0134559D02*
X0056122Y0136170D01*
X0056122Y0135365D02*
X0053222Y0135365D01*
X0053867Y0134559D01*
X0055478Y0137439D02*
X0055478Y0139050D01*
X0054833Y0138567D02*
X0056122Y0138567D01*
X0055478Y0137439D02*
X0053222Y0138084D01*
X0058222Y0137439D02*
X0058222Y0139050D01*
X0059511Y0138406D02*
X0059511Y0137439D01*
X0058222Y0137439D01*
X0058222Y0135365D02*
X0061122Y0135365D01*
X0061122Y0136170D02*
X0061122Y0134559D01*
X0061122Y0133439D02*
X0061122Y0132794D01*
X0061120Y0132746D01*
X0061115Y0132698D01*
X0061106Y0132651D01*
X0061093Y0132604D01*
X0061077Y0132559D01*
X0061058Y0132515D01*
X0061036Y0132472D01*
X0061010Y0132431D01*
X0060981Y0132392D01*
X0060950Y0132356D01*
X0060916Y0132322D01*
X0060880Y0132291D01*
X0060841Y0132262D01*
X0060800Y0132236D01*
X0060757Y0132214D01*
X0060713Y0132195D01*
X0060668Y0132179D01*
X0060621Y0132166D01*
X0060574Y0132157D01*
X0060526Y0132152D01*
X0060478Y0132150D01*
X0058867Y0132150D01*
X0058816Y0132152D01*
X0058766Y0132158D01*
X0058717Y0132168D01*
X0058668Y0132182D01*
X0058621Y0132199D01*
X0058575Y0132220D01*
X0058531Y0132245D01*
X0058488Y0132273D01*
X0058449Y0132304D01*
X0058412Y0132339D01*
X0058377Y0132376D01*
X0058346Y0132415D01*
X0058318Y0132457D01*
X0058293Y0132502D01*
X0058272Y0132548D01*
X0058255Y0132595D01*
X0058241Y0132644D01*
X0058231Y0132693D01*
X0058225Y0132743D01*
X0058223Y0132794D01*
X0058222Y0132794D02*
X0058222Y0133439D01*
X0058867Y0134559D02*
X0058222Y0135365D01*
X0061122Y0137439D02*
X0061122Y0138406D01*
X0061120Y0138454D01*
X0061115Y0138502D01*
X0061106Y0138549D01*
X0061093Y0138596D01*
X0061077Y0138641D01*
X0061058Y0138685D01*
X0061036Y0138728D01*
X0061010Y0138769D01*
X0060981Y0138808D01*
X0060950Y0138844D01*
X0060916Y0138878D01*
X0060880Y0138909D01*
X0060841Y0138938D01*
X0060800Y0138964D01*
X0060757Y0138986D01*
X0060713Y0139005D01*
X0060668Y0139021D01*
X0060621Y0139034D01*
X0060574Y0139043D01*
X0060526Y0139048D01*
X0060478Y0139050D01*
X0060155Y0139050D01*
X0060104Y0139048D01*
X0060054Y0139042D01*
X0060005Y0139032D01*
X0059956Y0139018D01*
X0059909Y0139001D01*
X0059863Y0138980D01*
X0059819Y0138955D01*
X0059776Y0138927D01*
X0059737Y0138896D01*
X0059700Y0138861D01*
X0059665Y0138824D01*
X0059634Y0138785D01*
X0059606Y0138742D01*
X0059581Y0138698D01*
X0059560Y0138652D01*
X0059543Y0138605D01*
X0059529Y0138556D01*
X0059519Y0138507D01*
X0059513Y0138457D01*
X0059511Y0138406D01*
X0032122Y0119932D02*
X0029222Y0120737D01*
X0029222Y0119126D01*
X0029544Y0119126D01*
X0030028Y0117761D02*
X0031317Y0117761D01*
X0031317Y0117762D02*
X0031372Y0117760D01*
X0031427Y0117754D01*
X0031481Y0117745D01*
X0031534Y0117732D01*
X0031587Y0117715D01*
X0031638Y0117695D01*
X0031688Y0117672D01*
X0031736Y0117645D01*
X0031782Y0117614D01*
X0031826Y0117581D01*
X0031867Y0117545D01*
X0031906Y0117506D01*
X0031942Y0117465D01*
X0031975Y0117421D01*
X0032006Y0117375D01*
X0032033Y0117327D01*
X0032056Y0117277D01*
X0032076Y0117226D01*
X0032093Y0117173D01*
X0032106Y0117120D01*
X0032115Y0117066D01*
X0032121Y0117011D01*
X0032123Y0116956D01*
X0032122Y0116956D02*
X0032122Y0116150D01*
X0029222Y0116150D01*
X0029222Y0116956D01*
X0029224Y0117011D01*
X0029230Y0117066D01*
X0029239Y0117120D01*
X0029252Y0117173D01*
X0029269Y0117226D01*
X0029289Y0117277D01*
X0029312Y0117327D01*
X0029339Y0117375D01*
X0029370Y0117421D01*
X0029403Y0117465D01*
X0029439Y0117506D01*
X0029478Y0117545D01*
X0029519Y0117581D01*
X0029563Y0117614D01*
X0029609Y0117645D01*
X0029657Y0117672D01*
X0029707Y0117695D01*
X0029758Y0117715D01*
X0029811Y0117732D01*
X0029864Y0117745D01*
X0029918Y0117754D01*
X0029973Y0117760D01*
X0030028Y0117762D01*
X0029867Y0113576D02*
X0029916Y0113574D01*
X0029965Y0113568D01*
X0030014Y0113559D01*
X0030061Y0113546D01*
X0030108Y0113529D01*
X0030153Y0113509D01*
X0030196Y0113486D01*
X0030238Y0113459D01*
X0030277Y0113429D01*
X0030314Y0113396D01*
X0030348Y0113360D01*
X0030379Y0113322D01*
X0030408Y0113282D01*
X0030433Y0113240D01*
X0030455Y0113195D01*
X0030473Y0113150D01*
X0030488Y0113103D01*
X0030499Y0113055D01*
X0030507Y0113006D01*
X0030511Y0112957D01*
X0030511Y0112907D01*
X0030507Y0112858D01*
X0030499Y0112809D01*
X0030488Y0112761D01*
X0030473Y0112714D01*
X0030455Y0112669D01*
X0030433Y0112624D01*
X0030408Y0112582D01*
X0030379Y0112542D01*
X0030348Y0112504D01*
X0030314Y0112468D01*
X0030277Y0112435D01*
X0030238Y0112405D01*
X0030196Y0112378D01*
X0030153Y0112355D01*
X0030108Y0112335D01*
X0030061Y0112318D01*
X0030014Y0112305D01*
X0029965Y0112296D01*
X0029916Y0112290D01*
X0029867Y0112288D01*
X0029818Y0112290D01*
X0029769Y0112296D01*
X0029720Y0112305D01*
X0029673Y0112318D01*
X0029626Y0112335D01*
X0029581Y0112355D01*
X0029538Y0112378D01*
X0029496Y0112405D01*
X0029457Y0112435D01*
X0029420Y0112468D01*
X0029386Y0112504D01*
X0029355Y0112542D01*
X0029326Y0112582D01*
X0029301Y0112624D01*
X0029279Y0112669D01*
X0029261Y0112714D01*
X0029246Y0112761D01*
X0029235Y0112809D01*
X0029227Y0112858D01*
X0029223Y0112907D01*
X0029223Y0112957D01*
X0029227Y0113006D01*
X0029235Y0113055D01*
X0029246Y0113103D01*
X0029261Y0113150D01*
X0029279Y0113195D01*
X0029301Y0113240D01*
X0029326Y0113282D01*
X0029355Y0113322D01*
X0029386Y0113360D01*
X0029420Y0113396D01*
X0029457Y0113429D01*
X0029496Y0113459D01*
X0029538Y0113486D01*
X0029581Y0113509D01*
X0029626Y0113529D01*
X0029673Y0113546D01*
X0029720Y0113559D01*
X0029769Y0113568D01*
X0029818Y0113574D01*
X0029867Y0113576D01*
X0031317Y0113738D02*
X0031372Y0113736D01*
X0031427Y0113730D01*
X0031481Y0113721D01*
X0031534Y0113708D01*
X0031587Y0113691D01*
X0031638Y0113671D01*
X0031688Y0113648D01*
X0031736Y0113621D01*
X0031782Y0113590D01*
X0031826Y0113557D01*
X0031867Y0113521D01*
X0031906Y0113482D01*
X0031942Y0113441D01*
X0031975Y0113397D01*
X0032006Y0113351D01*
X0032033Y0113303D01*
X0032056Y0113253D01*
X0032076Y0113202D01*
X0032093Y0113149D01*
X0032106Y0113096D01*
X0032115Y0113042D01*
X0032121Y0112987D01*
X0032123Y0112932D01*
X0032121Y0112877D01*
X0032115Y0112822D01*
X0032106Y0112768D01*
X0032093Y0112715D01*
X0032076Y0112662D01*
X0032056Y0112611D01*
X0032033Y0112561D01*
X0032006Y0112513D01*
X0031975Y0112467D01*
X0031942Y0112423D01*
X0031906Y0112382D01*
X0031867Y0112343D01*
X0031826Y0112307D01*
X0031782Y0112274D01*
X0031736Y0112243D01*
X0031688Y0112216D01*
X0031638Y0112193D01*
X0031587Y0112173D01*
X0031534Y0112156D01*
X0031481Y0112143D01*
X0031427Y0112134D01*
X0031372Y0112128D01*
X0031317Y0112126D01*
X0031262Y0112128D01*
X0031207Y0112134D01*
X0031153Y0112143D01*
X0031100Y0112156D01*
X0031047Y0112173D01*
X0030996Y0112193D01*
X0030946Y0112216D01*
X0030898Y0112243D01*
X0030852Y0112274D01*
X0030808Y0112307D01*
X0030767Y0112343D01*
X0030728Y0112382D01*
X0030692Y0112423D01*
X0030659Y0112467D01*
X0030628Y0112513D01*
X0030601Y0112561D01*
X0030578Y0112611D01*
X0030558Y0112662D01*
X0030541Y0112715D01*
X0030528Y0112768D01*
X0030519Y0112822D01*
X0030513Y0112877D01*
X0030511Y0112932D01*
X0030513Y0112987D01*
X0030519Y0113042D01*
X0030528Y0113096D01*
X0030541Y0113149D01*
X0030558Y0113202D01*
X0030578Y0113253D01*
X0030601Y0113303D01*
X0030628Y0113351D01*
X0030659Y0113397D01*
X0030692Y0113441D01*
X0030728Y0113482D01*
X0030767Y0113521D01*
X0030808Y0113557D01*
X0030852Y0113590D01*
X0030898Y0113621D01*
X0030946Y0113648D01*
X0030996Y0113671D01*
X0031047Y0113691D01*
X0031100Y0113708D01*
X0031153Y0113721D01*
X0031207Y0113730D01*
X0031262Y0113736D01*
X0031317Y0113738D01*
X0031317Y0110761D02*
X0030028Y0110761D01*
X0030028Y0110762D02*
X0029973Y0110760D01*
X0029918Y0110754D01*
X0029864Y0110745D01*
X0029811Y0110732D01*
X0029758Y0110715D01*
X0029707Y0110695D01*
X0029657Y0110672D01*
X0029609Y0110645D01*
X0029563Y0110614D01*
X0029519Y0110581D01*
X0029478Y0110545D01*
X0029439Y0110506D01*
X0029403Y0110465D01*
X0029370Y0110421D01*
X0029339Y0110375D01*
X0029312Y0110327D01*
X0029289Y0110277D01*
X0029269Y0110226D01*
X0029252Y0110173D01*
X0029239Y0110120D01*
X0029230Y0110066D01*
X0029224Y0110011D01*
X0029222Y0109956D01*
X0029222Y0109150D01*
X0032122Y0109150D01*
X0032122Y0109956D01*
X0032123Y0109956D02*
X0032121Y0110011D01*
X0032115Y0110066D01*
X0032106Y0110120D01*
X0032093Y0110173D01*
X0032076Y0110226D01*
X0032056Y0110277D01*
X0032033Y0110327D01*
X0032006Y0110375D01*
X0031975Y0110421D01*
X0031942Y0110465D01*
X0031906Y0110506D01*
X0031867Y0110545D01*
X0031826Y0110581D01*
X0031782Y0110614D01*
X0031736Y0110645D01*
X0031688Y0110672D01*
X0031638Y0110695D01*
X0031587Y0110715D01*
X0031534Y0110732D01*
X0031481Y0110745D01*
X0031427Y0110754D01*
X0031372Y0110760D01*
X0031317Y0110762D01*
X0114222Y0126150D02*
X0114222Y0126956D01*
X0114224Y0127011D01*
X0114230Y0127066D01*
X0114239Y0127120D01*
X0114252Y0127173D01*
X0114269Y0127226D01*
X0114289Y0127277D01*
X0114312Y0127327D01*
X0114339Y0127375D01*
X0114370Y0127421D01*
X0114403Y0127465D01*
X0114439Y0127506D01*
X0114478Y0127545D01*
X0114519Y0127581D01*
X0114563Y0127614D01*
X0114609Y0127645D01*
X0114657Y0127672D01*
X0114707Y0127695D01*
X0114758Y0127715D01*
X0114811Y0127732D01*
X0114864Y0127745D01*
X0114918Y0127754D01*
X0114973Y0127760D01*
X0115028Y0127762D01*
X0115083Y0127760D01*
X0115138Y0127754D01*
X0115192Y0127745D01*
X0115245Y0127732D01*
X0115298Y0127715D01*
X0115349Y0127695D01*
X0115399Y0127672D01*
X0115447Y0127645D01*
X0115493Y0127614D01*
X0115537Y0127581D01*
X0115578Y0127545D01*
X0115617Y0127506D01*
X0115653Y0127465D01*
X0115686Y0127421D01*
X0115717Y0127375D01*
X0115744Y0127327D01*
X0115767Y0127277D01*
X0115787Y0127226D01*
X0115804Y0127173D01*
X0115817Y0127120D01*
X0115826Y0127066D01*
X0115832Y0127011D01*
X0115834Y0126956D01*
X0115833Y0126956D02*
X0115833Y0126150D01*
X0115833Y0127117D02*
X0117122Y0127761D01*
X0117122Y0129010D02*
X0117122Y0130621D01*
X0117122Y0131890D02*
X0117122Y0132695D01*
X0117123Y0132695D02*
X0117121Y0132750D01*
X0117115Y0132805D01*
X0117106Y0132859D01*
X0117093Y0132912D01*
X0117076Y0132965D01*
X0117056Y0133016D01*
X0117033Y0133066D01*
X0117006Y0133114D01*
X0116975Y0133160D01*
X0116942Y0133204D01*
X0116906Y0133245D01*
X0116867Y0133284D01*
X0116826Y0133320D01*
X0116782Y0133353D01*
X0116736Y0133384D01*
X0116688Y0133411D01*
X0116638Y0133434D01*
X0116587Y0133454D01*
X0116534Y0133471D01*
X0116481Y0133484D01*
X0116427Y0133493D01*
X0116372Y0133499D01*
X0116317Y0133501D01*
X0116262Y0133499D01*
X0116207Y0133493D01*
X0116153Y0133484D01*
X0116100Y0133471D01*
X0116047Y0133454D01*
X0115996Y0133434D01*
X0115946Y0133411D01*
X0115898Y0133384D01*
X0115852Y0133353D01*
X0115808Y0133320D01*
X0115767Y0133284D01*
X0115728Y0133245D01*
X0115692Y0133204D01*
X0115659Y0133160D01*
X0115628Y0133114D01*
X0115601Y0133066D01*
X0115578Y0133016D01*
X0115558Y0132965D01*
X0115541Y0132912D01*
X0115528Y0132859D01*
X0115519Y0132805D01*
X0115513Y0132750D01*
X0115511Y0132695D01*
X0115511Y0132857D02*
X0115511Y0132212D01*
X0115511Y0132857D02*
X0115509Y0132906D01*
X0115503Y0132955D01*
X0115494Y0133004D01*
X0115481Y0133051D01*
X0115464Y0133098D01*
X0115444Y0133143D01*
X0115421Y0133186D01*
X0115394Y0133228D01*
X0115364Y0133267D01*
X0115331Y0133304D01*
X0115295Y0133338D01*
X0115257Y0133369D01*
X0115217Y0133398D01*
X0115175Y0133423D01*
X0115130Y0133445D01*
X0115085Y0133463D01*
X0115038Y0133478D01*
X0114990Y0133489D01*
X0114941Y0133497D01*
X0114892Y0133501D01*
X0114842Y0133501D01*
X0114793Y0133497D01*
X0114744Y0133489D01*
X0114696Y0133478D01*
X0114649Y0133463D01*
X0114604Y0133445D01*
X0114559Y0133423D01*
X0114517Y0133398D01*
X0114477Y0133369D01*
X0114439Y0133338D01*
X0114403Y0133304D01*
X0114370Y0133267D01*
X0114340Y0133228D01*
X0114313Y0133186D01*
X0114290Y0133143D01*
X0114270Y0133098D01*
X0114253Y0133051D01*
X0114240Y0133004D01*
X0114231Y0132955D01*
X0114225Y0132906D01*
X0114223Y0132857D01*
X0114222Y0132857D02*
X0114222Y0131890D01*
X0115511Y0130379D02*
X0117122Y0129010D01*
X0114867Y0129010D02*
X0114812Y0129030D01*
X0114758Y0129053D01*
X0114706Y0129080D01*
X0114656Y0129110D01*
X0114607Y0129142D01*
X0114561Y0129178D01*
X0114517Y0129217D01*
X0114476Y0129258D01*
X0114437Y0129302D01*
X0114401Y0129348D01*
X0114368Y0129397D01*
X0114338Y0129447D01*
X0114312Y0129499D01*
X0114288Y0129553D01*
X0114269Y0129608D01*
X0114252Y0129664D01*
X0114240Y0129721D01*
X0114230Y0129779D01*
X0114225Y0129837D01*
X0114223Y0129896D01*
X0114222Y0129896D02*
X0114224Y0129948D01*
X0114229Y0129999D01*
X0114239Y0130050D01*
X0114251Y0130100D01*
X0114268Y0130149D01*
X0114288Y0130197D01*
X0114311Y0130243D01*
X0114337Y0130288D01*
X0114367Y0130330D01*
X0114399Y0130371D01*
X0114434Y0130409D01*
X0114472Y0130444D01*
X0114513Y0130476D01*
X0114555Y0130506D01*
X0114600Y0130532D01*
X0114646Y0130555D01*
X0114694Y0130575D01*
X0114743Y0130592D01*
X0114793Y0130604D01*
X0114844Y0130614D01*
X0114895Y0130619D01*
X0114947Y0130621D01*
X0115000Y0130619D01*
X0115052Y0130614D01*
X0115104Y0130605D01*
X0115155Y0130593D01*
X0115205Y0130577D01*
X0115254Y0130558D01*
X0115301Y0130536D01*
X0115347Y0130510D01*
X0115392Y0130482D01*
X0115434Y0130450D01*
X0115474Y0130416D01*
X0115511Y0130379D01*
X0114222Y0126150D02*
X0117122Y0126150D01*
X0173422Y0126550D02*
X0173422Y0124456D01*
X0173424Y0124401D01*
X0173430Y0124346D01*
X0173439Y0124292D01*
X0173452Y0124239D01*
X0173469Y0124186D01*
X0173489Y0124135D01*
X0173512Y0124085D01*
X0173539Y0124037D01*
X0173570Y0123991D01*
X0173603Y0123947D01*
X0173639Y0123906D01*
X0173678Y0123867D01*
X0173719Y0123831D01*
X0173763Y0123798D01*
X0173809Y0123767D01*
X0173857Y0123740D01*
X0173907Y0123717D01*
X0173958Y0123697D01*
X0174011Y0123680D01*
X0174064Y0123667D01*
X0174118Y0123658D01*
X0174173Y0123652D01*
X0174228Y0123650D01*
X0174283Y0123652D01*
X0174338Y0123658D01*
X0174392Y0123667D01*
X0174445Y0123680D01*
X0174498Y0123697D01*
X0174549Y0123717D01*
X0174599Y0123740D01*
X0174647Y0123767D01*
X0174693Y0123798D01*
X0174737Y0123831D01*
X0174778Y0123867D01*
X0174817Y0123906D01*
X0174853Y0123947D01*
X0174886Y0123991D01*
X0174917Y0124037D01*
X0174944Y0124085D01*
X0174967Y0124135D01*
X0174987Y0124186D01*
X0175004Y0124239D01*
X0175017Y0124292D01*
X0175026Y0124346D01*
X0175032Y0124401D01*
X0175034Y0124456D01*
X0175033Y0124456D02*
X0175033Y0126550D01*
X0176398Y0126550D02*
X0176398Y0126228D01*
X0176398Y0126550D02*
X0178009Y0126550D01*
X0177204Y0123650D01*
X0176009Y0080550D02*
X0174398Y0080550D01*
X0174398Y0079261D01*
X0175365Y0079261D01*
X0175413Y0079259D01*
X0175461Y0079254D01*
X0175508Y0079245D01*
X0175555Y0079232D01*
X0175600Y0079216D01*
X0175644Y0079197D01*
X0175687Y0079175D01*
X0175728Y0079149D01*
X0175767Y0079120D01*
X0175803Y0079089D01*
X0175837Y0079055D01*
X0175868Y0079019D01*
X0175897Y0078980D01*
X0175923Y0078939D01*
X0175945Y0078896D01*
X0175964Y0078852D01*
X0175980Y0078807D01*
X0175993Y0078760D01*
X0176002Y0078713D01*
X0176007Y0078665D01*
X0176009Y0078617D01*
X0176009Y0078294D01*
X0176007Y0078246D01*
X0176002Y0078198D01*
X0175993Y0078151D01*
X0175980Y0078104D01*
X0175964Y0078059D01*
X0175945Y0078015D01*
X0175923Y0077972D01*
X0175897Y0077931D01*
X0175868Y0077892D01*
X0175837Y0077856D01*
X0175803Y0077822D01*
X0175767Y0077791D01*
X0175728Y0077762D01*
X0175687Y0077736D01*
X0175644Y0077714D01*
X0175600Y0077695D01*
X0175555Y0077679D01*
X0175508Y0077666D01*
X0175461Y0077657D01*
X0175413Y0077652D01*
X0175365Y0077650D01*
X0174398Y0077650D01*
X0173033Y0078456D02*
X0173033Y0080550D01*
X0171422Y0080550D02*
X0171422Y0078456D01*
X0171424Y0078401D01*
X0171430Y0078346D01*
X0171439Y0078292D01*
X0171452Y0078239D01*
X0171469Y0078186D01*
X0171489Y0078135D01*
X0171512Y0078085D01*
X0171539Y0078037D01*
X0171570Y0077991D01*
X0171603Y0077947D01*
X0171639Y0077906D01*
X0171678Y0077867D01*
X0171719Y0077831D01*
X0171763Y0077798D01*
X0171809Y0077767D01*
X0171857Y0077740D01*
X0171907Y0077717D01*
X0171958Y0077697D01*
X0172011Y0077680D01*
X0172064Y0077667D01*
X0172118Y0077658D01*
X0172173Y0077652D01*
X0172228Y0077650D01*
X0172283Y0077652D01*
X0172338Y0077658D01*
X0172392Y0077667D01*
X0172445Y0077680D01*
X0172498Y0077697D01*
X0172549Y0077717D01*
X0172599Y0077740D01*
X0172647Y0077767D01*
X0172693Y0077798D01*
X0172737Y0077831D01*
X0172778Y0077867D01*
X0172817Y0077906D01*
X0172853Y0077947D01*
X0172886Y0077991D01*
X0172917Y0078037D01*
X0172944Y0078085D01*
X0172967Y0078135D01*
X0172987Y0078186D01*
X0173004Y0078239D01*
X0173017Y0078292D01*
X0173026Y0078346D01*
X0173032Y0078401D01*
X0173034Y0078456D01*
X0081773Y0039117D02*
X0081773Y0038956D01*
X0081773Y0039117D02*
X0081771Y0039165D01*
X0081766Y0039213D01*
X0081757Y0039260D01*
X0081744Y0039307D01*
X0081728Y0039352D01*
X0081709Y0039396D01*
X0081687Y0039439D01*
X0081661Y0039480D01*
X0081632Y0039519D01*
X0081601Y0039555D01*
X0081567Y0039589D01*
X0081531Y0039620D01*
X0081492Y0039649D01*
X0081451Y0039675D01*
X0081408Y0039697D01*
X0081364Y0039716D01*
X0081319Y0039732D01*
X0081272Y0039745D01*
X0081225Y0039754D01*
X0081177Y0039759D01*
X0081129Y0039761D01*
X0080162Y0039761D01*
X0080162Y0038956D01*
X0080164Y0038901D01*
X0080170Y0038846D01*
X0080179Y0038792D01*
X0080192Y0038739D01*
X0080209Y0038686D01*
X0080229Y0038635D01*
X0080252Y0038585D01*
X0080279Y0038537D01*
X0080310Y0038491D01*
X0080343Y0038447D01*
X0080379Y0038406D01*
X0080418Y0038367D01*
X0080459Y0038331D01*
X0080503Y0038298D01*
X0080549Y0038267D01*
X0080597Y0038240D01*
X0080647Y0038217D01*
X0080698Y0038197D01*
X0080751Y0038180D01*
X0080804Y0038167D01*
X0080858Y0038158D01*
X0080913Y0038152D01*
X0080968Y0038150D01*
X0081023Y0038152D01*
X0081078Y0038158D01*
X0081132Y0038167D01*
X0081185Y0038180D01*
X0081238Y0038197D01*
X0081289Y0038217D01*
X0081339Y0038240D01*
X0081387Y0038267D01*
X0081433Y0038298D01*
X0081477Y0038331D01*
X0081518Y0038367D01*
X0081557Y0038406D01*
X0081593Y0038447D01*
X0081626Y0038491D01*
X0081657Y0038537D01*
X0081684Y0038585D01*
X0081707Y0038635D01*
X0081727Y0038686D01*
X0081744Y0038739D01*
X0081757Y0038792D01*
X0081766Y0038846D01*
X0081772Y0038901D01*
X0081774Y0038956D01*
X0080162Y0039761D02*
X0080164Y0039831D01*
X0080170Y0039900D01*
X0080179Y0039970D01*
X0080192Y0040038D01*
X0080209Y0040106D01*
X0080229Y0040173D01*
X0080254Y0040238D01*
X0080281Y0040302D01*
X0080312Y0040365D01*
X0080347Y0040426D01*
X0080384Y0040484D01*
X0080425Y0040541D01*
X0080469Y0040595D01*
X0080515Y0040647D01*
X0080565Y0040697D01*
X0080617Y0040743D01*
X0080671Y0040787D01*
X0080728Y0040828D01*
X0080786Y0040865D01*
X0080847Y0040900D01*
X0080910Y0040931D01*
X0080974Y0040958D01*
X0081039Y0040983D01*
X0081106Y0041003D01*
X0081174Y0041020D01*
X0081242Y0041033D01*
X0081312Y0041042D01*
X0081381Y0041048D01*
X0081451Y0041050D01*
X0078893Y0038794D02*
X0077282Y0038794D01*
X0077926Y0041050D01*
X0078410Y0039439D02*
X0078410Y0038150D01*
X0076033Y0038150D02*
X0075389Y0039439D01*
X0075228Y0039439D02*
X0074422Y0039439D01*
X0075228Y0039438D02*
X0075283Y0039440D01*
X0075338Y0039446D01*
X0075392Y0039455D01*
X0075445Y0039468D01*
X0075498Y0039485D01*
X0075549Y0039505D01*
X0075599Y0039528D01*
X0075647Y0039555D01*
X0075693Y0039586D01*
X0075737Y0039619D01*
X0075778Y0039655D01*
X0075817Y0039694D01*
X0075853Y0039735D01*
X0075886Y0039779D01*
X0075917Y0039825D01*
X0075944Y0039873D01*
X0075967Y0039923D01*
X0075987Y0039974D01*
X0076004Y0040027D01*
X0076017Y0040080D01*
X0076026Y0040134D01*
X0076032Y0040189D01*
X0076034Y0040244D01*
X0076032Y0040299D01*
X0076026Y0040354D01*
X0076017Y0040408D01*
X0076004Y0040461D01*
X0075987Y0040514D01*
X0075967Y0040565D01*
X0075944Y0040615D01*
X0075917Y0040663D01*
X0075886Y0040709D01*
X0075853Y0040753D01*
X0075817Y0040794D01*
X0075778Y0040833D01*
X0075737Y0040869D01*
X0075693Y0040902D01*
X0075647Y0040933D01*
X0075599Y0040960D01*
X0075549Y0040983D01*
X0075498Y0041003D01*
X0075445Y0041020D01*
X0075392Y0041033D01*
X0075338Y0041042D01*
X0075283Y0041048D01*
X0075228Y0041050D01*
X0074422Y0041050D01*
X0074422Y0038150D01*
X0074866Y0035850D02*
X0075511Y0035850D01*
X0074866Y0035850D02*
X0074815Y0035848D01*
X0074765Y0035842D01*
X0074716Y0035832D01*
X0074667Y0035818D01*
X0074620Y0035801D01*
X0074574Y0035780D01*
X0074530Y0035755D01*
X0074487Y0035727D01*
X0074448Y0035696D01*
X0074411Y0035661D01*
X0074376Y0035624D01*
X0074345Y0035585D01*
X0074317Y0035542D01*
X0074292Y0035498D01*
X0074271Y0035452D01*
X0074254Y0035405D01*
X0074240Y0035356D01*
X0074230Y0035307D01*
X0074224Y0035257D01*
X0074222Y0035206D01*
X0074222Y0033594D01*
X0074224Y0033546D01*
X0074229Y0033498D01*
X0074238Y0033451D01*
X0074251Y0033404D01*
X0074267Y0033359D01*
X0074286Y0033315D01*
X0074308Y0033272D01*
X0074334Y0033231D01*
X0074363Y0033192D01*
X0074394Y0033156D01*
X0074428Y0033122D01*
X0074464Y0033091D01*
X0074503Y0033062D01*
X0074544Y0033036D01*
X0074587Y0033014D01*
X0074631Y0032995D01*
X0074676Y0032979D01*
X0074723Y0032966D01*
X0074770Y0032957D01*
X0074818Y0032952D01*
X0074866Y0032950D01*
X0075511Y0032950D01*
X0076631Y0033594D02*
X0078242Y0033594D01*
X0077759Y0034239D02*
X0077759Y0032950D01*
X0076631Y0033594D02*
X0077275Y0035850D01*
X0079511Y0035850D02*
X0080478Y0035850D01*
X0080527Y0035848D01*
X0080576Y0035842D01*
X0080625Y0035833D01*
X0080672Y0035820D01*
X0080719Y0035803D01*
X0080764Y0035783D01*
X0080807Y0035760D01*
X0080849Y0035733D01*
X0080888Y0035703D01*
X0080925Y0035670D01*
X0080959Y0035634D01*
X0080990Y0035596D01*
X0081019Y0035556D01*
X0081044Y0035514D01*
X0081066Y0035469D01*
X0081084Y0035424D01*
X0081099Y0035377D01*
X0081110Y0035329D01*
X0081118Y0035280D01*
X0081122Y0035231D01*
X0081122Y0035181D01*
X0081118Y0035132D01*
X0081110Y0035083D01*
X0081099Y0035035D01*
X0081084Y0034988D01*
X0081066Y0034943D01*
X0081044Y0034898D01*
X0081019Y0034856D01*
X0080990Y0034816D01*
X0080959Y0034778D01*
X0080925Y0034742D01*
X0080888Y0034709D01*
X0080849Y0034679D01*
X0080807Y0034652D01*
X0080764Y0034629D01*
X0080719Y0034609D01*
X0080672Y0034592D01*
X0080625Y0034579D01*
X0080576Y0034570D01*
X0080527Y0034564D01*
X0080478Y0034562D01*
X0080478Y0034561D02*
X0079833Y0034561D01*
X0080317Y0034562D02*
X0080372Y0034560D01*
X0080427Y0034554D01*
X0080481Y0034545D01*
X0080534Y0034532D01*
X0080587Y0034515D01*
X0080638Y0034495D01*
X0080688Y0034472D01*
X0080736Y0034445D01*
X0080782Y0034414D01*
X0080826Y0034381D01*
X0080867Y0034345D01*
X0080906Y0034306D01*
X0080942Y0034265D01*
X0080975Y0034221D01*
X0081006Y0034175D01*
X0081033Y0034127D01*
X0081056Y0034077D01*
X0081076Y0034026D01*
X0081093Y0033973D01*
X0081106Y0033920D01*
X0081115Y0033866D01*
X0081121Y0033811D01*
X0081123Y0033756D01*
X0081121Y0033701D01*
X0081115Y0033646D01*
X0081106Y0033592D01*
X0081093Y0033539D01*
X0081076Y0033486D01*
X0081056Y0033435D01*
X0081033Y0033385D01*
X0081006Y0033337D01*
X0080975Y0033291D01*
X0080942Y0033247D01*
X0080906Y0033206D01*
X0080867Y0033167D01*
X0080826Y0033131D01*
X0080782Y0033098D01*
X0080736Y0033067D01*
X0080688Y0033040D01*
X0080638Y0033017D01*
X0080587Y0032997D01*
X0080534Y0032980D01*
X0080481Y0032967D01*
X0080427Y0032958D01*
X0080372Y0032952D01*
X0080317Y0032950D01*
X0079511Y0032950D01*
X0075639Y0041950D02*
X0075639Y0043239D01*
X0076122Y0042594D02*
X0074511Y0042594D01*
X0075155Y0044850D01*
X0073146Y0044044D02*
X0073146Y0042756D01*
X0073147Y0042756D02*
X0073145Y0042701D01*
X0073139Y0042646D01*
X0073130Y0042592D01*
X0073117Y0042539D01*
X0073100Y0042486D01*
X0073080Y0042435D01*
X0073057Y0042385D01*
X0073030Y0042337D01*
X0072999Y0042291D01*
X0072966Y0042247D01*
X0072930Y0042206D01*
X0072891Y0042167D01*
X0072850Y0042131D01*
X0072806Y0042098D01*
X0072760Y0042067D01*
X0072712Y0042040D01*
X0072662Y0042017D01*
X0072611Y0041997D01*
X0072558Y0041980D01*
X0072505Y0041967D01*
X0072451Y0041958D01*
X0072396Y0041952D01*
X0072341Y0041950D01*
X0071535Y0041950D01*
X0071535Y0044850D01*
X0072341Y0044850D01*
X0072396Y0044848D01*
X0072451Y0044842D01*
X0072505Y0044833D01*
X0072558Y0044820D01*
X0072611Y0044803D01*
X0072662Y0044783D01*
X0072712Y0044760D01*
X0072760Y0044733D01*
X0072806Y0044702D01*
X0072850Y0044669D01*
X0072891Y0044633D01*
X0072930Y0044594D01*
X0072966Y0044553D01*
X0072999Y0044509D01*
X0073030Y0044463D01*
X0073057Y0044415D01*
X0073080Y0044365D01*
X0073100Y0044314D01*
X0073117Y0044261D01*
X0073130Y0044208D01*
X0073139Y0044154D01*
X0073145Y0044099D01*
X0073147Y0044044D01*
X0061300Y0034550D02*
X0060494Y0034550D01*
X0060494Y0031650D01*
X0061300Y0031650D01*
X0061355Y0031652D01*
X0061410Y0031658D01*
X0061464Y0031667D01*
X0061517Y0031680D01*
X0061570Y0031697D01*
X0061621Y0031717D01*
X0061671Y0031740D01*
X0061719Y0031767D01*
X0061765Y0031798D01*
X0061809Y0031831D01*
X0061850Y0031867D01*
X0061889Y0031906D01*
X0061925Y0031947D01*
X0061958Y0031991D01*
X0061989Y0032037D01*
X0062016Y0032085D01*
X0062039Y0032135D01*
X0062059Y0032186D01*
X0062076Y0032239D01*
X0062089Y0032292D01*
X0062098Y0032346D01*
X0062104Y0032401D01*
X0062106Y0032456D01*
X0062105Y0032456D02*
X0062105Y0033744D01*
X0062106Y0033744D02*
X0062104Y0033799D01*
X0062098Y0033854D01*
X0062089Y0033908D01*
X0062076Y0033961D01*
X0062059Y0034014D01*
X0062039Y0034065D01*
X0062016Y0034115D01*
X0061989Y0034163D01*
X0061958Y0034209D01*
X0061925Y0034253D01*
X0061889Y0034294D01*
X0061850Y0034333D01*
X0061809Y0034369D01*
X0061765Y0034402D01*
X0061719Y0034433D01*
X0061671Y0034460D01*
X0061621Y0034483D01*
X0061570Y0034503D01*
X0061517Y0034520D01*
X0061464Y0034533D01*
X0061410Y0034542D01*
X0061355Y0034548D01*
X0061300Y0034550D01*
X0059033Y0034550D02*
X0059033Y0031650D01*
X0057422Y0034550D01*
X0057422Y0031650D01*
X0055961Y0032456D02*
X0055961Y0034550D01*
X0054350Y0034550D02*
X0054350Y0032456D01*
X0054352Y0032401D01*
X0054358Y0032346D01*
X0054367Y0032292D01*
X0054380Y0032239D01*
X0054397Y0032186D01*
X0054417Y0032135D01*
X0054440Y0032085D01*
X0054467Y0032037D01*
X0054498Y0031991D01*
X0054531Y0031947D01*
X0054567Y0031906D01*
X0054606Y0031867D01*
X0054647Y0031831D01*
X0054691Y0031798D01*
X0054737Y0031767D01*
X0054785Y0031740D01*
X0054835Y0031717D01*
X0054886Y0031697D01*
X0054939Y0031680D01*
X0054992Y0031667D01*
X0055046Y0031658D01*
X0055101Y0031652D01*
X0055156Y0031650D01*
X0055211Y0031652D01*
X0055266Y0031658D01*
X0055320Y0031667D01*
X0055373Y0031680D01*
X0055426Y0031697D01*
X0055477Y0031717D01*
X0055527Y0031740D01*
X0055575Y0031767D01*
X0055621Y0031798D01*
X0055665Y0031831D01*
X0055706Y0031867D01*
X0055745Y0031906D01*
X0055781Y0031947D01*
X0055814Y0031991D01*
X0055845Y0032037D01*
X0055872Y0032085D01*
X0055895Y0032135D01*
X0055915Y0032186D01*
X0055932Y0032239D01*
X0055945Y0032292D01*
X0055954Y0032346D01*
X0055960Y0032401D01*
X0055962Y0032456D01*
X0052985Y0032456D02*
X0052985Y0033744D01*
X0052986Y0033744D02*
X0052984Y0033799D01*
X0052978Y0033854D01*
X0052969Y0033908D01*
X0052956Y0033961D01*
X0052939Y0034014D01*
X0052919Y0034065D01*
X0052896Y0034115D01*
X0052869Y0034163D01*
X0052838Y0034209D01*
X0052805Y0034253D01*
X0052769Y0034294D01*
X0052730Y0034333D01*
X0052689Y0034369D01*
X0052645Y0034402D01*
X0052599Y0034433D01*
X0052551Y0034460D01*
X0052501Y0034483D01*
X0052450Y0034503D01*
X0052397Y0034520D01*
X0052344Y0034533D01*
X0052290Y0034542D01*
X0052235Y0034548D01*
X0052180Y0034550D01*
X0052125Y0034548D01*
X0052070Y0034542D01*
X0052016Y0034533D01*
X0051963Y0034520D01*
X0051910Y0034503D01*
X0051859Y0034483D01*
X0051809Y0034460D01*
X0051761Y0034433D01*
X0051715Y0034402D01*
X0051671Y0034369D01*
X0051630Y0034333D01*
X0051591Y0034294D01*
X0051555Y0034253D01*
X0051522Y0034209D01*
X0051491Y0034163D01*
X0051464Y0034115D01*
X0051441Y0034065D01*
X0051421Y0034014D01*
X0051404Y0033961D01*
X0051391Y0033908D01*
X0051382Y0033854D01*
X0051376Y0033799D01*
X0051374Y0033744D01*
X0051374Y0032456D01*
X0051376Y0032401D01*
X0051382Y0032346D01*
X0051391Y0032292D01*
X0051404Y0032239D01*
X0051421Y0032186D01*
X0051441Y0032135D01*
X0051464Y0032085D01*
X0051491Y0032037D01*
X0051522Y0031991D01*
X0051555Y0031947D01*
X0051591Y0031906D01*
X0051630Y0031867D01*
X0051671Y0031831D01*
X0051715Y0031798D01*
X0051761Y0031767D01*
X0051809Y0031740D01*
X0051859Y0031717D01*
X0051910Y0031697D01*
X0051963Y0031680D01*
X0052016Y0031667D01*
X0052070Y0031658D01*
X0052125Y0031652D01*
X0052180Y0031650D01*
X0052235Y0031652D01*
X0052290Y0031658D01*
X0052344Y0031667D01*
X0052397Y0031680D01*
X0052450Y0031697D01*
X0052501Y0031717D01*
X0052551Y0031740D01*
X0052599Y0031767D01*
X0052645Y0031798D01*
X0052689Y0031831D01*
X0052730Y0031867D01*
X0052769Y0031906D01*
X0052805Y0031947D01*
X0052838Y0031991D01*
X0052869Y0032037D01*
X0052896Y0032085D01*
X0052919Y0032135D01*
X0052939Y0032186D01*
X0052956Y0032239D01*
X0052969Y0032292D01*
X0052978Y0032346D01*
X0052984Y0032401D01*
X0052986Y0032456D01*
X0050125Y0031650D02*
X0049481Y0032939D01*
X0049320Y0032939D02*
X0048514Y0032939D01*
X0049320Y0032938D02*
X0049375Y0032940D01*
X0049430Y0032946D01*
X0049484Y0032955D01*
X0049537Y0032968D01*
X0049590Y0032985D01*
X0049641Y0033005D01*
X0049691Y0033028D01*
X0049739Y0033055D01*
X0049785Y0033086D01*
X0049829Y0033119D01*
X0049870Y0033155D01*
X0049909Y0033194D01*
X0049945Y0033235D01*
X0049978Y0033279D01*
X0050009Y0033325D01*
X0050036Y0033373D01*
X0050059Y0033423D01*
X0050079Y0033474D01*
X0050096Y0033527D01*
X0050109Y0033580D01*
X0050118Y0033634D01*
X0050124Y0033689D01*
X0050126Y0033744D01*
X0050124Y0033799D01*
X0050118Y0033854D01*
X0050109Y0033908D01*
X0050096Y0033961D01*
X0050079Y0034014D01*
X0050059Y0034065D01*
X0050036Y0034115D01*
X0050009Y0034163D01*
X0049978Y0034209D01*
X0049945Y0034253D01*
X0049909Y0034294D01*
X0049870Y0034333D01*
X0049829Y0034369D01*
X0049785Y0034402D01*
X0049739Y0034433D01*
X0049691Y0034460D01*
X0049641Y0034483D01*
X0049590Y0034503D01*
X0049537Y0034520D01*
X0049484Y0034533D01*
X0049430Y0034542D01*
X0049375Y0034548D01*
X0049320Y0034550D01*
X0048514Y0034550D01*
X0048514Y0031650D01*
X0047033Y0031650D02*
X0047033Y0033261D01*
X0046550Y0033261D01*
X0045423Y0033906D02*
X0045425Y0033957D01*
X0045431Y0034007D01*
X0045441Y0034056D01*
X0045455Y0034105D01*
X0045472Y0034152D01*
X0045493Y0034198D01*
X0045518Y0034242D01*
X0045546Y0034285D01*
X0045577Y0034324D01*
X0045612Y0034361D01*
X0045649Y0034396D01*
X0045688Y0034427D01*
X0045731Y0034455D01*
X0045775Y0034480D01*
X0045821Y0034501D01*
X0045868Y0034518D01*
X0045917Y0034532D01*
X0045966Y0034542D01*
X0046016Y0034548D01*
X0046067Y0034550D01*
X0047033Y0034550D01*
X0045422Y0033906D02*
X0045422Y0032294D01*
X0045423Y0032294D02*
X0045425Y0032246D01*
X0045430Y0032198D01*
X0045439Y0032151D01*
X0045452Y0032104D01*
X0045468Y0032059D01*
X0045487Y0032015D01*
X0045509Y0031972D01*
X0045535Y0031931D01*
X0045564Y0031892D01*
X0045595Y0031856D01*
X0045629Y0031822D01*
X0045665Y0031791D01*
X0045704Y0031762D01*
X0045745Y0031736D01*
X0045788Y0031714D01*
X0045832Y0031695D01*
X0045877Y0031679D01*
X0045924Y0031666D01*
X0045971Y0031657D01*
X0046019Y0031652D01*
X0046067Y0031650D01*
X0047033Y0031650D01*
X0047141Y0024550D02*
X0048108Y0021650D01*
X0049074Y0024550D01*
X0050182Y0024550D02*
X0051149Y0024550D01*
X0051198Y0024548D01*
X0051247Y0024542D01*
X0051296Y0024533D01*
X0051343Y0024520D01*
X0051390Y0024503D01*
X0051435Y0024483D01*
X0051478Y0024460D01*
X0051520Y0024433D01*
X0051559Y0024403D01*
X0051596Y0024370D01*
X0051630Y0024334D01*
X0051661Y0024296D01*
X0051690Y0024256D01*
X0051715Y0024214D01*
X0051737Y0024169D01*
X0051755Y0024124D01*
X0051770Y0024077D01*
X0051781Y0024029D01*
X0051789Y0023980D01*
X0051793Y0023931D01*
X0051793Y0023881D01*
X0051789Y0023832D01*
X0051781Y0023783D01*
X0051770Y0023735D01*
X0051755Y0023688D01*
X0051737Y0023643D01*
X0051715Y0023598D01*
X0051690Y0023556D01*
X0051661Y0023516D01*
X0051630Y0023478D01*
X0051596Y0023442D01*
X0051559Y0023409D01*
X0051520Y0023379D01*
X0051478Y0023352D01*
X0051435Y0023329D01*
X0051390Y0023309D01*
X0051343Y0023292D01*
X0051296Y0023279D01*
X0051247Y0023270D01*
X0051198Y0023264D01*
X0051149Y0023262D01*
X0051149Y0023261D02*
X0050504Y0023261D01*
X0050988Y0023262D02*
X0051043Y0023260D01*
X0051098Y0023254D01*
X0051152Y0023245D01*
X0051205Y0023232D01*
X0051258Y0023215D01*
X0051309Y0023195D01*
X0051359Y0023172D01*
X0051407Y0023145D01*
X0051453Y0023114D01*
X0051497Y0023081D01*
X0051538Y0023045D01*
X0051577Y0023006D01*
X0051613Y0022965D01*
X0051646Y0022921D01*
X0051677Y0022875D01*
X0051704Y0022827D01*
X0051727Y0022777D01*
X0051747Y0022726D01*
X0051764Y0022673D01*
X0051777Y0022620D01*
X0051786Y0022566D01*
X0051792Y0022511D01*
X0051794Y0022456D01*
X0051792Y0022401D01*
X0051786Y0022346D01*
X0051777Y0022292D01*
X0051764Y0022239D01*
X0051747Y0022186D01*
X0051727Y0022135D01*
X0051704Y0022085D01*
X0051677Y0022037D01*
X0051646Y0021991D01*
X0051613Y0021947D01*
X0051577Y0021906D01*
X0051538Y0021867D01*
X0051497Y0021831D01*
X0051453Y0021798D01*
X0051407Y0021767D01*
X0051359Y0021740D01*
X0051309Y0021717D01*
X0051258Y0021697D01*
X0051205Y0021680D01*
X0051152Y0021667D01*
X0051098Y0021658D01*
X0051043Y0021652D01*
X0050988Y0021650D01*
X0050182Y0021650D01*
X0045228Y0021650D02*
X0044422Y0021650D01*
X0045228Y0021650D02*
X0045283Y0021652D01*
X0045338Y0021658D01*
X0045392Y0021667D01*
X0045445Y0021680D01*
X0045498Y0021697D01*
X0045549Y0021717D01*
X0045599Y0021740D01*
X0045647Y0021767D01*
X0045693Y0021798D01*
X0045737Y0021831D01*
X0045778Y0021867D01*
X0045817Y0021906D01*
X0045853Y0021947D01*
X0045886Y0021991D01*
X0045917Y0022037D01*
X0045944Y0022085D01*
X0045967Y0022135D01*
X0045987Y0022186D01*
X0046004Y0022239D01*
X0046017Y0022292D01*
X0046026Y0022346D01*
X0046032Y0022401D01*
X0046034Y0022456D01*
X0046032Y0022511D01*
X0046026Y0022566D01*
X0046017Y0022620D01*
X0046004Y0022673D01*
X0045987Y0022726D01*
X0045967Y0022777D01*
X0045944Y0022827D01*
X0045917Y0022875D01*
X0045886Y0022921D01*
X0045853Y0022965D01*
X0045817Y0023006D01*
X0045778Y0023045D01*
X0045737Y0023081D01*
X0045693Y0023114D01*
X0045647Y0023145D01*
X0045599Y0023172D01*
X0045549Y0023195D01*
X0045498Y0023215D01*
X0045445Y0023232D01*
X0045392Y0023245D01*
X0045338Y0023254D01*
X0045283Y0023260D01*
X0045228Y0023262D01*
X0045389Y0023261D02*
X0044744Y0023261D01*
X0045389Y0023262D02*
X0045438Y0023264D01*
X0045487Y0023270D01*
X0045536Y0023279D01*
X0045583Y0023292D01*
X0045630Y0023309D01*
X0045675Y0023329D01*
X0045718Y0023352D01*
X0045760Y0023379D01*
X0045799Y0023409D01*
X0045836Y0023442D01*
X0045870Y0023478D01*
X0045901Y0023516D01*
X0045930Y0023556D01*
X0045955Y0023598D01*
X0045977Y0023643D01*
X0045995Y0023688D01*
X0046010Y0023735D01*
X0046021Y0023783D01*
X0046029Y0023832D01*
X0046033Y0023881D01*
X0046033Y0023931D01*
X0046029Y0023980D01*
X0046021Y0024029D01*
X0046010Y0024077D01*
X0045995Y0024124D01*
X0045977Y0024169D01*
X0045955Y0024214D01*
X0045930Y0024256D01*
X0045901Y0024296D01*
X0045870Y0024334D01*
X0045836Y0024370D01*
X0045799Y0024403D01*
X0045760Y0024433D01*
X0045718Y0024460D01*
X0045675Y0024483D01*
X0045630Y0024503D01*
X0045583Y0024520D01*
X0045536Y0024533D01*
X0045487Y0024542D01*
X0045438Y0024548D01*
X0045389Y0024550D01*
X0044422Y0024550D01*
D13*
X0073654Y0029799D02*
X0073654Y0017201D01*
X0083890Y0017201D02*
X0083890Y0029799D01*
X0085654Y0029799D02*
X0085654Y0017201D01*
X0095890Y0017201D02*
X0095890Y0029799D01*
X0140205Y0036067D02*
X0169339Y0036067D01*
X0169339Y0076933D01*
X0142174Y0076933D01*
X0142174Y0036067D01*
X0140205Y0036067D02*
X0140205Y0076933D01*
X0142174Y0076933D01*
X0142174Y0081067D02*
X0142174Y0121933D01*
X0169339Y0121933D01*
X0169339Y0081067D01*
X0140205Y0081067D01*
X0140205Y0121933D01*
X0142174Y0121933D01*
D14*
X0066466Y0069354D02*
X0066466Y0065471D01*
X0066261Y0065472D02*
X0058903Y0065472D01*
X0056859Y0064654D02*
X0056859Y0050347D01*
X0056859Y0050347D01*
X0056857Y0050292D01*
X0056851Y0050236D01*
X0056842Y0050181D01*
X0056829Y0050127D01*
X0056812Y0050074D01*
X0056791Y0050022D01*
X0056767Y0049971D01*
X0056740Y0049923D01*
X0056710Y0049876D01*
X0056676Y0049831D01*
X0056639Y0049789D01*
X0056600Y0049750D01*
X0056558Y0049713D01*
X0056513Y0049679D01*
X0056466Y0049649D01*
X0056418Y0049622D01*
X0056367Y0049598D01*
X0056315Y0049577D01*
X0056262Y0049560D01*
X0056208Y0049547D01*
X0056153Y0049538D01*
X0056097Y0049532D01*
X0056042Y0049530D01*
X0055980Y0049532D01*
X0055919Y0049538D01*
X0055858Y0049547D01*
X0055797Y0049560D01*
X0055738Y0049577D01*
X0055680Y0049597D01*
X0055623Y0049620D01*
X0055567Y0049647D01*
X0055513Y0049678D01*
X0055462Y0049711D01*
X0055412Y0049748D01*
X0055365Y0049787D01*
X0055320Y0049830D01*
X0055277Y0049875D01*
X0055238Y0049922D01*
X0055201Y0049972D01*
X0055168Y0050023D01*
X0055137Y0050077D01*
X0055110Y0050133D01*
X0055087Y0050190D01*
X0055067Y0050248D01*
X0055050Y0050307D01*
X0055037Y0050368D01*
X0055028Y0050429D01*
X0055022Y0050490D01*
X0055020Y0050552D01*
X0055020Y0050551D01*
X0055020Y0050552D02*
X0055020Y0064449D01*
X0055022Y0064511D01*
X0055027Y0064573D01*
X0055037Y0064634D01*
X0055050Y0064694D01*
X0055066Y0064753D01*
X0055086Y0064812D01*
X0055110Y0064869D01*
X0055137Y0064924D01*
X0055167Y0064978D01*
X0055201Y0065030D01*
X0055238Y0065079D01*
X0055277Y0065127D01*
X0055319Y0065172D01*
X0055364Y0065214D01*
X0055412Y0065253D01*
X0055461Y0065290D01*
X0055513Y0065324D01*
X0055567Y0065354D01*
X0055622Y0065381D01*
X0055679Y0065405D01*
X0055738Y0065425D01*
X0055797Y0065441D01*
X0055857Y0065454D01*
X0055918Y0065464D01*
X0055980Y0065469D01*
X0056042Y0065471D01*
X0056041Y0065471D01*
X0056042Y0065471D02*
X0056097Y0065469D01*
X0056153Y0065463D01*
X0056208Y0065454D01*
X0056262Y0065441D01*
X0056315Y0065424D01*
X0056367Y0065403D01*
X0056418Y0065379D01*
X0056466Y0065352D01*
X0056513Y0065322D01*
X0056558Y0065288D01*
X0056600Y0065251D01*
X0056639Y0065212D01*
X0056676Y0065170D01*
X0056710Y0065125D01*
X0056740Y0065078D01*
X0056767Y0065030D01*
X0056791Y0064979D01*
X0056812Y0064927D01*
X0056829Y0064874D01*
X0056842Y0064820D01*
X0056851Y0064765D01*
X0056857Y0064709D01*
X0056859Y0064654D01*
X0051545Y0060770D02*
X0051545Y0054231D01*
X0051540Y0054174D01*
X0051531Y0054117D01*
X0051518Y0054061D01*
X0051502Y0054005D01*
X0051482Y0053951D01*
X0051459Y0053899D01*
X0051432Y0053848D01*
X0051402Y0053799D01*
X0051368Y0053752D01*
X0051332Y0053708D01*
X0051293Y0053666D01*
X0051251Y0053626D01*
X0051206Y0053590D01*
X0051159Y0053557D01*
X0051110Y0053526D01*
X0051059Y0053500D01*
X0051007Y0053476D01*
X0050953Y0053456D01*
X0050898Y0053440D01*
X0050842Y0053427D01*
X0050785Y0053418D01*
X0050728Y0053413D01*
X0034786Y0052596D01*
X0034730Y0052598D01*
X0034675Y0052604D01*
X0034620Y0052613D01*
X0034566Y0052626D01*
X0034512Y0052643D01*
X0034461Y0052664D01*
X0034410Y0052688D01*
X0034361Y0052715D01*
X0034315Y0052746D01*
X0034270Y0052779D01*
X0034228Y0052816D01*
X0034189Y0052855D01*
X0034152Y0052897D01*
X0034119Y0052942D01*
X0034088Y0052988D01*
X0034061Y0053037D01*
X0034037Y0053088D01*
X0034016Y0053139D01*
X0033999Y0053193D01*
X0033986Y0053247D01*
X0033977Y0053302D01*
X0033971Y0053357D01*
X0033969Y0053413D01*
X0033971Y0053469D01*
X0033977Y0053524D01*
X0033986Y0053579D01*
X0033999Y0053633D01*
X0034016Y0053687D01*
X0034037Y0053738D01*
X0034061Y0053789D01*
X0034088Y0053838D01*
X0034119Y0053884D01*
X0034152Y0053929D01*
X0034189Y0053971D01*
X0034228Y0054010D01*
X0034270Y0054047D01*
X0034315Y0054080D01*
X0034361Y0054111D01*
X0034410Y0054138D01*
X0034461Y0054162D01*
X0034512Y0054183D01*
X0034566Y0054200D01*
X0034620Y0054213D01*
X0034675Y0054222D01*
X0034730Y0054228D01*
X0034786Y0054230D01*
X0034786Y0054231D02*
X0048275Y0055048D01*
X0048275Y0059954D01*
X0048275Y0059953D02*
X0034786Y0060770D01*
X0034730Y0060772D01*
X0034675Y0060778D01*
X0034620Y0060787D01*
X0034566Y0060800D01*
X0034512Y0060817D01*
X0034461Y0060838D01*
X0034410Y0060862D01*
X0034361Y0060889D01*
X0034315Y0060920D01*
X0034270Y0060953D01*
X0034228Y0060990D01*
X0034189Y0061029D01*
X0034152Y0061071D01*
X0034119Y0061116D01*
X0034088Y0061162D01*
X0034061Y0061211D01*
X0034037Y0061262D01*
X0034016Y0061313D01*
X0033999Y0061367D01*
X0033986Y0061421D01*
X0033977Y0061476D01*
X0033971Y0061531D01*
X0033969Y0061587D01*
X0033969Y0061588D01*
X0033971Y0061644D01*
X0033977Y0061699D01*
X0033986Y0061754D01*
X0033999Y0061808D01*
X0034016Y0061862D01*
X0034037Y0061913D01*
X0034061Y0061964D01*
X0034088Y0062013D01*
X0034119Y0062059D01*
X0034152Y0062104D01*
X0034189Y0062146D01*
X0034228Y0062185D01*
X0034270Y0062222D01*
X0034315Y0062255D01*
X0034361Y0062286D01*
X0034410Y0062313D01*
X0034461Y0062337D01*
X0034512Y0062358D01*
X0034566Y0062375D01*
X0034620Y0062388D01*
X0034675Y0062397D01*
X0034730Y0062403D01*
X0034786Y0062405D01*
X0050728Y0061588D01*
X0051545Y0060770D02*
X0051545Y0060770D01*
X0051546Y0060770D02*
X0051541Y0060828D01*
X0051532Y0060884D01*
X0051519Y0060941D01*
X0051503Y0060996D01*
X0051483Y0061050D01*
X0051460Y0061102D01*
X0051433Y0061153D01*
X0051402Y0061202D01*
X0051369Y0061249D01*
X0051333Y0061293D01*
X0051293Y0061335D01*
X0051251Y0061375D01*
X0051207Y0061411D01*
X0051160Y0061444D01*
X0051111Y0061475D01*
X0051060Y0061502D01*
X0051008Y0061525D01*
X0050954Y0061545D01*
X0050899Y0061561D01*
X0050842Y0061574D01*
X0050786Y0061583D01*
X0050728Y0061588D01*
X0045618Y0063427D02*
X0045618Y0064245D01*
X0036217Y0065267D01*
X0036217Y0067311D01*
X0045618Y0068332D01*
X0045618Y0069150D01*
X0034786Y0068332D01*
X0034720Y0068325D01*
X0034655Y0068314D01*
X0034590Y0068300D01*
X0034527Y0068282D01*
X0034464Y0068260D01*
X0034403Y0068235D01*
X0034343Y0068207D01*
X0034285Y0068175D01*
X0034229Y0068139D01*
X0034175Y0068101D01*
X0034124Y0068060D01*
X0034075Y0068016D01*
X0034028Y0067969D01*
X0033984Y0067919D01*
X0033943Y0067867D01*
X0033905Y0067813D01*
X0033870Y0067757D01*
X0033839Y0067699D01*
X0033811Y0067639D01*
X0033786Y0067577D01*
X0033765Y0067515D01*
X0033765Y0065266D02*
X0033786Y0065204D01*
X0033811Y0065142D01*
X0033839Y0065082D01*
X0033870Y0065024D01*
X0033905Y0064968D01*
X0033943Y0064914D01*
X0033984Y0064862D01*
X0034028Y0064812D01*
X0034075Y0064765D01*
X0034124Y0064721D01*
X0034175Y0064680D01*
X0034229Y0064642D01*
X0034285Y0064606D01*
X0034343Y0064574D01*
X0034403Y0064546D01*
X0034464Y0064521D01*
X0034527Y0064499D01*
X0034590Y0064481D01*
X0034655Y0064467D01*
X0034720Y0064456D01*
X0034786Y0064449D01*
X0045618Y0063427D01*
X0033765Y0065267D02*
X0033731Y0065382D01*
X0033701Y0065499D01*
X0033675Y0065616D01*
X0033653Y0065734D01*
X0033634Y0065852D01*
X0033619Y0065972D01*
X0033608Y0066091D01*
X0033600Y0066211D01*
X0033596Y0066331D01*
X0033596Y0066451D01*
X0033600Y0066571D01*
X0033608Y0066691D01*
X0033619Y0066810D01*
X0033634Y0066930D01*
X0033653Y0067048D01*
X0033675Y0067166D01*
X0033701Y0067283D01*
X0033731Y0067400D01*
X0033765Y0067515D01*
X0035391Y0072624D02*
X0029472Y0072624D01*
X0029472Y0042376D01*
X0029472Y0042376D01*
X0035392Y0042376D01*
X0034786Y0046669D02*
X0045618Y0045851D01*
X0045618Y0046669D01*
X0036217Y0047690D01*
X0036217Y0049734D01*
X0045618Y0050756D01*
X0045618Y0051574D01*
X0034786Y0050552D01*
X0034786Y0050551D02*
X0034720Y0050544D01*
X0034655Y0050533D01*
X0034590Y0050519D01*
X0034527Y0050501D01*
X0034464Y0050479D01*
X0034403Y0050454D01*
X0034343Y0050426D01*
X0034285Y0050394D01*
X0034229Y0050358D01*
X0034175Y0050320D01*
X0034124Y0050279D01*
X0034075Y0050235D01*
X0034028Y0050188D01*
X0033984Y0050138D01*
X0033943Y0050086D01*
X0033905Y0050032D01*
X0033870Y0049976D01*
X0033839Y0049918D01*
X0033811Y0049858D01*
X0033786Y0049796D01*
X0033765Y0049734D01*
X0033765Y0047486D02*
X0033786Y0047424D01*
X0033811Y0047362D01*
X0033839Y0047302D01*
X0033870Y0047244D01*
X0033905Y0047188D01*
X0033943Y0047134D01*
X0033984Y0047082D01*
X0034028Y0047032D01*
X0034075Y0046985D01*
X0034124Y0046941D01*
X0034175Y0046900D01*
X0034229Y0046862D01*
X0034285Y0046826D01*
X0034343Y0046794D01*
X0034403Y0046766D01*
X0034464Y0046741D01*
X0034527Y0046719D01*
X0034590Y0046701D01*
X0034655Y0046687D01*
X0034720Y0046676D01*
X0034786Y0046669D01*
X0033765Y0047486D02*
X0033731Y0047601D01*
X0033701Y0047718D01*
X0033675Y0047835D01*
X0033653Y0047953D01*
X0033634Y0048071D01*
X0033619Y0048191D01*
X0033608Y0048310D01*
X0033600Y0048430D01*
X0033596Y0048550D01*
X0033596Y0048670D01*
X0033600Y0048790D01*
X0033608Y0048910D01*
X0033619Y0049029D01*
X0033634Y0049149D01*
X0033653Y0049267D01*
X0033675Y0049385D01*
X0033701Y0049502D01*
X0033731Y0049619D01*
X0033765Y0049734D01*
X0046541Y0042376D02*
X0055633Y0042376D01*
X0055577Y0042374D01*
X0055522Y0042368D01*
X0055467Y0042359D01*
X0055413Y0042346D01*
X0055359Y0042329D01*
X0055308Y0042308D01*
X0055257Y0042284D01*
X0055208Y0042257D01*
X0055162Y0042226D01*
X0055117Y0042193D01*
X0055075Y0042156D01*
X0055036Y0042117D01*
X0054999Y0042075D01*
X0054966Y0042030D01*
X0054935Y0041984D01*
X0054908Y0041935D01*
X0054884Y0041884D01*
X0054863Y0041833D01*
X0054846Y0041779D01*
X0054833Y0041725D01*
X0054824Y0041670D01*
X0054818Y0041615D01*
X0054816Y0041559D01*
X0054815Y0041559D02*
X0054815Y0040946D01*
X0064830Y0045646D02*
X0066261Y0045646D01*
X0066465Y0045646D02*
X0066465Y0049530D01*
X0066261Y0049529D02*
X0058903Y0049529D01*
X0064830Y0069354D02*
X0066261Y0069354D01*
X0055633Y0072624D02*
X0046542Y0072624D01*
X0054815Y0073442D02*
X0054815Y0074055D01*
X0054816Y0073442D02*
X0054818Y0073386D01*
X0054824Y0073331D01*
X0054833Y0073276D01*
X0054846Y0073222D01*
X0054863Y0073168D01*
X0054884Y0073117D01*
X0054908Y0073066D01*
X0054935Y0073017D01*
X0054966Y0072971D01*
X0054999Y0072926D01*
X0055036Y0072884D01*
X0055075Y0072845D01*
X0055117Y0072808D01*
X0055162Y0072775D01*
X0055208Y0072744D01*
X0055257Y0072717D01*
X0055308Y0072693D01*
X0055359Y0072672D01*
X0055413Y0072655D01*
X0055467Y0072642D01*
X0055522Y0072633D01*
X0055577Y0072627D01*
X0055633Y0072625D01*
D15*
X0081182Y0044976D03*
X0081182Y0042024D03*
X0038363Y0110024D03*
X0038363Y0112976D03*
X0038363Y0115024D03*
X0038363Y0117976D03*
D16*
X0038363Y0116500D03*
X0038363Y0111500D03*
X0081182Y0043500D03*
D17*
X0098686Y0027894D02*
X0098882Y0027894D01*
X0098686Y0027894D02*
X0098686Y0019232D01*
X0099079Y0019232D01*
X0106560Y0019232D02*
X0106953Y0019232D01*
X0106953Y0027894D01*
X0110933Y0025975D02*
X0110933Y0021025D01*
X0115883Y0016075D01*
X0115883Y0017490D02*
X0112347Y0021025D01*
X0112347Y0025975D01*
X0115883Y0029510D01*
X0115883Y0030925D02*
X0110933Y0025975D01*
X0105378Y0030256D02*
X0105380Y0030295D01*
X0105386Y0030334D01*
X0105396Y0030372D01*
X0105409Y0030409D01*
X0105426Y0030444D01*
X0105446Y0030478D01*
X0105470Y0030509D01*
X0105497Y0030538D01*
X0105526Y0030564D01*
X0105558Y0030587D01*
X0105592Y0030607D01*
X0105628Y0030623D01*
X0105665Y0030635D01*
X0105704Y0030644D01*
X0105743Y0030649D01*
X0105782Y0030650D01*
X0105821Y0030647D01*
X0105860Y0030640D01*
X0105897Y0030629D01*
X0105934Y0030615D01*
X0105969Y0030597D01*
X0106002Y0030576D01*
X0106033Y0030551D01*
X0106061Y0030524D01*
X0106086Y0030494D01*
X0106108Y0030461D01*
X0106127Y0030427D01*
X0106142Y0030391D01*
X0106154Y0030353D01*
X0106162Y0030315D01*
X0106166Y0030276D01*
X0106166Y0030236D01*
X0106162Y0030197D01*
X0106154Y0030159D01*
X0106142Y0030121D01*
X0106127Y0030085D01*
X0106108Y0030051D01*
X0106086Y0030018D01*
X0106061Y0029988D01*
X0106033Y0029961D01*
X0106002Y0029936D01*
X0105969Y0029915D01*
X0105934Y0029897D01*
X0105897Y0029883D01*
X0105860Y0029872D01*
X0105821Y0029865D01*
X0105782Y0029862D01*
X0105743Y0029863D01*
X0105704Y0029868D01*
X0105665Y0029877D01*
X0105628Y0029889D01*
X0105592Y0029905D01*
X0105558Y0029925D01*
X0105526Y0029948D01*
X0105497Y0029974D01*
X0105470Y0030003D01*
X0105446Y0030034D01*
X0105426Y0030068D01*
X0105409Y0030103D01*
X0105396Y0030140D01*
X0105386Y0030178D01*
X0105380Y0030217D01*
X0105378Y0030256D01*
X0119772Y0025621D02*
X0119720Y0025619D01*
X0119669Y0025613D01*
X0119618Y0025604D01*
X0119568Y0025591D01*
X0119519Y0025574D01*
X0119472Y0025554D01*
X0119426Y0025531D01*
X0119382Y0025504D01*
X0119340Y0025474D01*
X0119300Y0025441D01*
X0119263Y0025405D01*
X0119229Y0025366D01*
X0119197Y0025325D01*
X0119169Y0025282D01*
X0119143Y0025237D01*
X0119121Y0025191D01*
X0119103Y0025142D01*
X0119088Y0025093D01*
X0119077Y0025042D01*
X0119069Y0024991D01*
X0119065Y0024940D01*
X0119065Y0024888D01*
X0119069Y0024837D01*
X0119077Y0024786D01*
X0119088Y0024735D01*
X0119103Y0024686D01*
X0119121Y0024637D01*
X0119143Y0024591D01*
X0119169Y0024546D01*
X0119197Y0024503D01*
X0119229Y0024462D01*
X0119263Y0024423D01*
X0119300Y0024387D01*
X0119340Y0024354D01*
X0119382Y0024324D01*
X0119426Y0024297D01*
X0119472Y0024274D01*
X0119519Y0024254D01*
X0119568Y0024237D01*
X0119618Y0024224D01*
X0119669Y0024215D01*
X0119720Y0024209D01*
X0119772Y0024207D01*
X0117079Y0023500D02*
X0117081Y0023603D01*
X0117087Y0023706D01*
X0117097Y0023809D01*
X0117111Y0023911D01*
X0117128Y0024013D01*
X0117150Y0024114D01*
X0117175Y0024214D01*
X0117205Y0024313D01*
X0117238Y0024410D01*
X0117274Y0024507D01*
X0117315Y0024602D01*
X0117359Y0024695D01*
X0117406Y0024786D01*
X0117457Y0024876D01*
X0117512Y0024964D01*
X0117569Y0025049D01*
X0117630Y0025133D01*
X0117694Y0025213D01*
X0117762Y0025292D01*
X0117832Y0025367D01*
X0117905Y0025440D01*
X0117980Y0025510D01*
X0118059Y0025578D01*
X0118139Y0025642D01*
X0118223Y0025703D01*
X0118308Y0025760D01*
X0118396Y0025815D01*
X0118486Y0025866D01*
X0118577Y0025913D01*
X0118670Y0025957D01*
X0118765Y0025998D01*
X0118862Y0026034D01*
X0118959Y0026067D01*
X0119058Y0026097D01*
X0119158Y0026122D01*
X0119259Y0026144D01*
X0119361Y0026161D01*
X0119463Y0026175D01*
X0119566Y0026185D01*
X0119669Y0026191D01*
X0119772Y0026193D01*
X0119875Y0026191D01*
X0119978Y0026185D01*
X0120081Y0026175D01*
X0120183Y0026161D01*
X0120285Y0026144D01*
X0120386Y0026122D01*
X0120486Y0026097D01*
X0120585Y0026067D01*
X0120682Y0026034D01*
X0120779Y0025998D01*
X0120874Y0025957D01*
X0120967Y0025913D01*
X0121058Y0025866D01*
X0121148Y0025815D01*
X0121236Y0025760D01*
X0121321Y0025703D01*
X0121405Y0025642D01*
X0121485Y0025578D01*
X0121564Y0025510D01*
X0121639Y0025440D01*
X0121712Y0025367D01*
X0121782Y0025292D01*
X0121850Y0025213D01*
X0121914Y0025133D01*
X0121975Y0025049D01*
X0122032Y0024964D01*
X0122087Y0024876D01*
X0122138Y0024786D01*
X0122185Y0024695D01*
X0122229Y0024602D01*
X0122270Y0024507D01*
X0122306Y0024410D01*
X0122339Y0024313D01*
X0122369Y0024214D01*
X0122394Y0024114D01*
X0122416Y0024013D01*
X0122433Y0023911D01*
X0122447Y0023809D01*
X0122457Y0023706D01*
X0122463Y0023603D01*
X0122465Y0023500D01*
X0122463Y0023397D01*
X0122457Y0023294D01*
X0122447Y0023191D01*
X0122433Y0023089D01*
X0122416Y0022987D01*
X0122394Y0022886D01*
X0122369Y0022786D01*
X0122339Y0022687D01*
X0122306Y0022590D01*
X0122270Y0022493D01*
X0122229Y0022398D01*
X0122185Y0022305D01*
X0122138Y0022214D01*
X0122087Y0022124D01*
X0122032Y0022036D01*
X0121975Y0021951D01*
X0121914Y0021867D01*
X0121850Y0021787D01*
X0121782Y0021708D01*
X0121712Y0021633D01*
X0121639Y0021560D01*
X0121564Y0021490D01*
X0121485Y0021422D01*
X0121405Y0021358D01*
X0121321Y0021297D01*
X0121236Y0021240D01*
X0121148Y0021185D01*
X0121058Y0021134D01*
X0120967Y0021087D01*
X0120874Y0021043D01*
X0120779Y0021002D01*
X0120682Y0020966D01*
X0120585Y0020933D01*
X0120486Y0020903D01*
X0120386Y0020878D01*
X0120285Y0020856D01*
X0120183Y0020839D01*
X0120081Y0020825D01*
X0119978Y0020815D01*
X0119875Y0020809D01*
X0119772Y0020807D01*
X0119669Y0020809D01*
X0119566Y0020815D01*
X0119463Y0020825D01*
X0119361Y0020839D01*
X0119259Y0020856D01*
X0119158Y0020878D01*
X0119058Y0020903D01*
X0118959Y0020933D01*
X0118862Y0020966D01*
X0118765Y0021002D01*
X0118670Y0021043D01*
X0118577Y0021087D01*
X0118486Y0021134D01*
X0118396Y0021185D01*
X0118308Y0021240D01*
X0118223Y0021297D01*
X0118139Y0021358D01*
X0118059Y0021422D01*
X0117980Y0021490D01*
X0117905Y0021560D01*
X0117832Y0021633D01*
X0117762Y0021708D01*
X0117694Y0021787D01*
X0117630Y0021867D01*
X0117569Y0021951D01*
X0117512Y0022036D01*
X0117457Y0022124D01*
X0117406Y0022214D01*
X0117359Y0022305D01*
X0117315Y0022398D01*
X0117274Y0022493D01*
X0117238Y0022590D01*
X0117205Y0022687D01*
X0117175Y0022786D01*
X0117150Y0022886D01*
X0117128Y0022987D01*
X0117111Y0023089D01*
X0117097Y0023191D01*
X0117087Y0023294D01*
X0117081Y0023397D01*
X0117079Y0023500D01*
X0119772Y0024207D02*
X0119720Y0024205D01*
X0119669Y0024199D01*
X0119618Y0024190D01*
X0119568Y0024177D01*
X0119519Y0024160D01*
X0119472Y0024140D01*
X0119426Y0024117D01*
X0119382Y0024090D01*
X0119340Y0024060D01*
X0119300Y0024027D01*
X0119263Y0023991D01*
X0119229Y0023952D01*
X0119197Y0023911D01*
X0119169Y0023868D01*
X0119143Y0023823D01*
X0119121Y0023777D01*
X0119103Y0023728D01*
X0119088Y0023679D01*
X0119077Y0023628D01*
X0119069Y0023577D01*
X0119065Y0023526D01*
X0119065Y0023474D01*
X0119069Y0023423D01*
X0119077Y0023372D01*
X0119088Y0023321D01*
X0119103Y0023272D01*
X0119121Y0023223D01*
X0119143Y0023177D01*
X0119169Y0023132D01*
X0119197Y0023089D01*
X0119229Y0023048D01*
X0119263Y0023009D01*
X0119300Y0022973D01*
X0119340Y0022940D01*
X0119382Y0022910D01*
X0119426Y0022883D01*
X0119472Y0022860D01*
X0119519Y0022840D01*
X0119568Y0022823D01*
X0119618Y0022810D01*
X0119669Y0022801D01*
X0119720Y0022795D01*
X0119772Y0022793D01*
X0119720Y0022791D01*
X0119669Y0022785D01*
X0119618Y0022776D01*
X0119568Y0022763D01*
X0119519Y0022746D01*
X0119472Y0022726D01*
X0119426Y0022703D01*
X0119382Y0022676D01*
X0119340Y0022646D01*
X0119300Y0022613D01*
X0119263Y0022577D01*
X0119229Y0022538D01*
X0119197Y0022497D01*
X0119169Y0022454D01*
X0119143Y0022409D01*
X0119121Y0022363D01*
X0119103Y0022314D01*
X0119088Y0022265D01*
X0119077Y0022214D01*
X0119069Y0022163D01*
X0119065Y0022112D01*
X0119065Y0022060D01*
X0119069Y0022009D01*
X0119077Y0021958D01*
X0119088Y0021907D01*
X0119103Y0021858D01*
X0119121Y0021809D01*
X0119143Y0021763D01*
X0119169Y0021718D01*
X0119197Y0021675D01*
X0119229Y0021634D01*
X0119263Y0021595D01*
X0119300Y0021559D01*
X0119340Y0021526D01*
X0119382Y0021496D01*
X0119426Y0021469D01*
X0119472Y0021446D01*
X0119519Y0021426D01*
X0119568Y0021409D01*
X0119618Y0021396D01*
X0119669Y0021387D01*
X0119720Y0021381D01*
X0119772Y0021379D01*
X0122601Y0017136D02*
X0128965Y0023500D01*
X0122954Y0029510D01*
X0122954Y0030925D02*
X0130379Y0023500D01*
X0122954Y0016075D01*
X0111489Y0088783D02*
X0078024Y0088783D01*
X0076056Y0088783D01*
X0076056Y0090752D02*
X0075968Y0090750D01*
X0075881Y0090744D01*
X0075794Y0090735D01*
X0075708Y0090721D01*
X0075622Y0090704D01*
X0075537Y0090682D01*
X0075453Y0090657D01*
X0075370Y0090629D01*
X0075289Y0090596D01*
X0075209Y0090561D01*
X0075131Y0090521D01*
X0075055Y0090478D01*
X0074980Y0090432D01*
X0074908Y0090383D01*
X0074838Y0090330D01*
X0074771Y0090275D01*
X0074706Y0090216D01*
X0074643Y0090155D01*
X0074584Y0090090D01*
X0074527Y0090024D01*
X0074473Y0089954D01*
X0074423Y0089883D01*
X0074376Y0089809D01*
X0074332Y0089734D01*
X0074291Y0089656D01*
X0074254Y0089577D01*
X0074221Y0089496D01*
X0074191Y0089414D01*
X0074165Y0089330D01*
X0074142Y0089245D01*
X0074123Y0089160D01*
X0074109Y0089074D01*
X0074098Y0088987D01*
X0074090Y0088900D01*
X0074087Y0088812D01*
X0074088Y0088725D01*
X0074092Y0088637D01*
X0074101Y0088550D01*
X0074113Y0088463D01*
X0074129Y0088377D01*
X0074149Y0088292D01*
X0074173Y0088208D01*
X0074200Y0088125D01*
X0074231Y0088043D01*
X0074266Y0087963D01*
X0074304Y0087884D01*
X0074346Y0087807D01*
X0074391Y0087732D01*
X0074439Y0087659D01*
X0074491Y0087588D01*
X0074546Y0087520D01*
X0074603Y0087454D01*
X0074664Y0087391D01*
X0074727Y0087330D01*
X0074793Y0087273D01*
X0074861Y0087218D01*
X0074932Y0087166D01*
X0075005Y0087118D01*
X0075080Y0087073D01*
X0075157Y0087031D01*
X0075236Y0086993D01*
X0075316Y0086958D01*
X0075398Y0086927D01*
X0075481Y0086900D01*
X0075565Y0086876D01*
X0075650Y0086856D01*
X0075736Y0086840D01*
X0075823Y0086828D01*
X0075910Y0086819D01*
X0075998Y0086815D01*
X0076085Y0086814D01*
X0076173Y0086817D01*
X0076260Y0086825D01*
X0076347Y0086836D01*
X0076433Y0086850D01*
X0076518Y0086869D01*
X0076603Y0086892D01*
X0076687Y0086918D01*
X0076769Y0086948D01*
X0076850Y0086981D01*
X0076929Y0087018D01*
X0077007Y0087059D01*
X0077082Y0087103D01*
X0077156Y0087150D01*
X0077227Y0087200D01*
X0077297Y0087254D01*
X0077363Y0087311D01*
X0077428Y0087370D01*
X0077489Y0087433D01*
X0077548Y0087498D01*
X0077603Y0087565D01*
X0077656Y0087635D01*
X0077705Y0087707D01*
X0077751Y0087782D01*
X0077794Y0087858D01*
X0077834Y0087936D01*
X0077869Y0088016D01*
X0077902Y0088097D01*
X0077930Y0088180D01*
X0077955Y0088264D01*
X0077977Y0088349D01*
X0077994Y0088435D01*
X0078008Y0088521D01*
X0078017Y0088608D01*
X0078023Y0088695D01*
X0078025Y0088783D01*
X0076056Y0088783D02*
X0076056Y0090752D01*
X0076056Y0124217D01*
X0111489Y0124217D01*
X0111489Y0088783D01*
M02*
