G75*
%MOIN*%
%OFA0B0*%
%FSLAX25Y25*%
%IPPOS*%
%LPD*%
%AMOC8*
5,1,8,0,0,1.08239X$1,22.5*
%
%ADD10R,0.02362X0.02362*%
%ADD11R,0.13386X0.07480*%
%ADD12R,0.07600X0.21000*%
%ADD13R,0.02165X0.04724*%
%ADD14C,0.03969*%
%ADD15C,0.02978*%
%ADD16C,0.01600*%
%ADD17C,0.01000*%
%ADD18C,0.02000*%
%ADD19C,0.00600*%
D10*
X0088772Y0060531D03*
X0088772Y0064469D03*
X0093772Y0067531D03*
X0093772Y0071469D03*
X0056772Y0095531D03*
X0056772Y0099469D03*
X0049741Y0087500D03*
X0045804Y0087500D03*
D11*
X0081772Y0049177D03*
X0081772Y0033823D03*
D12*
X0108772Y0045500D03*
X0108772Y0083500D03*
D13*
X0051512Y0092382D03*
X0047772Y0092382D03*
X0044032Y0092382D03*
X0044032Y0102618D03*
X0047772Y0102618D03*
X0051512Y0102618D03*
D14*
X0191233Y0089598D03*
X0196233Y0089598D03*
X0196233Y0084598D03*
X0196233Y0079598D03*
X0191233Y0079598D03*
X0191233Y0084598D03*
X0191233Y0074598D03*
X0191233Y0069598D03*
X0196233Y0069598D03*
X0196233Y0074598D03*
D15*
X0180772Y0074500D03*
X0173772Y0079500D03*
X0180772Y0088500D03*
X0185772Y0113500D03*
X0180772Y0118500D03*
X0128772Y0113500D03*
X0126772Y0124500D03*
X0128772Y0101500D03*
X0122772Y0095500D03*
X0126772Y0089500D03*
X0128772Y0083500D03*
X0129772Y0070500D03*
X0128772Y0060500D03*
X0113772Y0065500D03*
X0101772Y0074531D03*
X0081772Y0074500D03*
X0078772Y0071500D03*
X0072772Y0063500D03*
X0084772Y0061500D03*
X0094772Y0051500D03*
X0068772Y0047500D03*
X0064772Y0028500D03*
X0103772Y0032500D03*
X0103772Y0014500D03*
X0109772Y0014500D03*
X0128772Y0038500D03*
X0128772Y0045500D03*
X0180772Y0045500D03*
X0180772Y0038500D03*
X0069772Y0084500D03*
X0064772Y0099500D03*
X0064772Y0107500D03*
X0058772Y0108500D03*
X0054772Y0106500D03*
X0064772Y0119500D03*
X0070772Y0127500D03*
X0090772Y0135500D03*
X0040772Y0127500D03*
X0034772Y0102500D03*
X0038772Y0094500D03*
D16*
X0083772Y0035500D02*
X0100772Y0035500D01*
X0103772Y0032500D01*
X0083772Y0035500D02*
X0082095Y0033823D01*
D17*
X0081772Y0033823D01*
X0092772Y0051500D02*
X0094772Y0051500D01*
X0092772Y0051500D02*
X0084772Y0059500D01*
X0084772Y0061500D01*
X0081772Y0064500D02*
X0088741Y0064500D01*
X0088772Y0064469D01*
X0099804Y0064469D01*
X0108772Y0055500D01*
X0108772Y0045500D01*
X0128772Y0041500D02*
X0129772Y0041500D01*
X0128772Y0060500D02*
X0128772Y0063500D01*
X0123772Y0068500D01*
X0123772Y0094500D01*
X0122772Y0095500D01*
X0127772Y0089500D02*
X0128772Y0090500D01*
X0128772Y0101500D01*
X0127772Y0089500D02*
X0126772Y0089500D01*
X0108772Y0083500D02*
X0106772Y0073500D01*
X0100804Y0067531D01*
X0093772Y0067531D01*
X0093741Y0067500D01*
X0082772Y0067500D01*
X0081772Y0068500D01*
X0081772Y0074500D01*
X0078772Y0071500D02*
X0078772Y0067500D01*
X0081772Y0064500D01*
X0059772Y0091500D02*
X0052772Y0084500D01*
X0047772Y0084500D01*
X0045804Y0086469D01*
X0045804Y0087500D01*
X0044772Y0089500D01*
X0044032Y0092382D01*
X0046215Y0093939D02*
X0046215Y0095200D01*
X0045570Y0095844D01*
X0042494Y0095844D01*
X0041150Y0094500D01*
X0038772Y0094500D01*
X0038772Y0098500D02*
X0049772Y0098500D01*
X0051272Y0100000D01*
X0053772Y0100000D01*
X0053788Y0099984D01*
X0057288Y0099984D01*
X0056772Y0099469D01*
X0057288Y0099984D02*
X0064772Y0107469D01*
X0064772Y0107500D01*
X0063772Y0108500D01*
X0063772Y0118500D01*
X0064772Y0119500D01*
X0064772Y0129500D01*
X0071772Y0136500D01*
X0089772Y0136500D01*
X0090772Y0135500D01*
X0091772Y0136500D01*
X0114772Y0136500D01*
X0126772Y0124500D01*
X0180772Y0118500D02*
X0181772Y0117500D01*
X0181772Y0089500D01*
X0180772Y0088500D01*
X0181772Y0087500D01*
X0181772Y0075500D01*
X0180772Y0074500D01*
X0181772Y0073500D01*
X0182772Y0062500D02*
X0181772Y0061500D01*
X0181772Y0046500D01*
X0180772Y0045500D01*
X0109772Y0014500D02*
X0108772Y0013500D01*
X0104772Y0013500D01*
X0103772Y0014500D01*
X0049741Y0087500D02*
X0050772Y0089500D01*
X0051512Y0092382D01*
X0054772Y0092500D01*
X0056772Y0095531D01*
X0059772Y0095500D02*
X0059772Y0091500D01*
X0059772Y0095500D02*
X0063772Y0099500D01*
X0064772Y0099500D01*
X0054272Y0100000D02*
X0053772Y0100000D01*
X0051512Y0100240D02*
X0051272Y0100000D01*
X0051512Y0100240D02*
X0051512Y0102618D01*
X0047772Y0102618D02*
X0047772Y0104500D01*
X0049772Y0106500D01*
X0054772Y0106500D01*
X0053111Y0108500D02*
X0046772Y0108500D01*
X0043772Y0105500D01*
X0044032Y0102618D01*
X0038772Y0098500D02*
X0034772Y0102500D01*
X0046215Y0093939D02*
X0047772Y0092382D01*
X0047772Y0094500D01*
X0053111Y0108500D02*
X0053700Y0109089D01*
X0055845Y0109089D01*
X0056433Y0108500D01*
X0058772Y0108500D01*
D18*
X0072772Y0063500D02*
X0081772Y0054500D01*
X0081772Y0049177D01*
X0128772Y0045500D02*
X0132772Y0049500D01*
X0132772Y0064500D01*
X0129772Y0067500D01*
X0129772Y0070500D01*
X0181772Y0073500D02*
X0181772Y0063500D01*
X0182772Y0062500D01*
X0190772Y0062500D01*
X0196233Y0067961D01*
X0196233Y0069598D01*
D19*
X0034104Y0017418D02*
X0034950Y0014334D01*
X0036562Y0011573D01*
X0038831Y0009320D01*
X0038831Y0009320D01*
X0041604Y0007728D01*
X0044693Y0006904D01*
X0046292Y0006800D01*
X0047147Y0006800D01*
X0047147Y0006800D01*
X0193916Y0006800D01*
X0195516Y0006905D01*
X0198606Y0007733D01*
X0201377Y0009333D01*
X0203640Y0011595D01*
X0205240Y0014366D01*
X0206068Y0017457D01*
X0206173Y0019057D01*
X0206173Y0124910D01*
X0206067Y0126521D01*
X0205234Y0129632D01*
X0203623Y0132421D01*
X0201346Y0134698D01*
X0198557Y0136309D01*
X0195446Y0137142D01*
X0193835Y0137248D01*
X0116004Y0137248D01*
X0116172Y0137080D01*
X0126363Y0126889D01*
X0127762Y0126889D01*
X0129161Y0125490D01*
X0129161Y0123510D01*
X0127762Y0122111D01*
X0125783Y0122111D01*
X0124383Y0123510D01*
X0124383Y0124909D01*
X0114192Y0135100D01*
X0093161Y0135100D01*
X0093161Y0134510D01*
X0091762Y0133111D01*
X0089783Y0133111D01*
X0088383Y0134510D01*
X0088383Y0135100D01*
X0072352Y0135100D01*
X0066172Y0128920D01*
X0066172Y0121479D01*
X0067161Y0120490D01*
X0067161Y0118510D01*
X0065762Y0117111D01*
X0065172Y0117111D01*
X0065172Y0109889D01*
X0065762Y0109889D01*
X0067161Y0108490D01*
X0067161Y0106510D01*
X0065762Y0105111D01*
X0064395Y0105111D01*
X0058853Y0099570D01*
X0058853Y0097915D01*
X0058439Y0097500D01*
X0058853Y0097085D01*
X0058853Y0096561D01*
X0059192Y0096900D01*
X0062383Y0100091D01*
X0062383Y0100490D01*
X0063783Y0101889D01*
X0065762Y0101889D01*
X0067161Y0100490D01*
X0067161Y0098510D01*
X0065762Y0097111D01*
X0063783Y0097111D01*
X0063573Y0097321D01*
X0061172Y0094920D01*
X0061172Y0090920D01*
X0054172Y0083920D01*
X0053352Y0083100D01*
X0047192Y0083100D01*
X0045224Y0085069D01*
X0044873Y0085419D01*
X0044250Y0085419D01*
X0043723Y0085946D01*
X0043723Y0088481D01*
X0043713Y0088500D01*
X0043560Y0088590D01*
X0043455Y0088999D01*
X0043393Y0089120D01*
X0042576Y0089120D01*
X0042049Y0089647D01*
X0042049Y0095117D01*
X0042576Y0095644D01*
X0045487Y0095644D01*
X0046015Y0095117D01*
X0046015Y0090290D01*
X0046089Y0090001D01*
X0046306Y0089581D01*
X0047358Y0089581D01*
X0047772Y0089166D01*
X0048187Y0089581D01*
X0049239Y0089581D01*
X0049455Y0090001D01*
X0049530Y0090290D01*
X0049530Y0095117D01*
X0050057Y0095644D01*
X0052968Y0095644D01*
X0053495Y0095117D01*
X0053495Y0093855D01*
X0054001Y0093873D01*
X0054691Y0094919D01*
X0054691Y0097085D01*
X0055106Y0097500D01*
X0054691Y0097915D01*
X0054691Y0098584D01*
X0053208Y0098584D01*
X0053192Y0098600D01*
X0051852Y0098600D01*
X0051172Y0097920D01*
X0051172Y0097920D01*
X0050352Y0097100D01*
X0038192Y0097100D01*
X0037372Y0097920D01*
X0035181Y0100111D01*
X0033783Y0100111D01*
X0033402Y0100492D01*
X0033988Y0019016D01*
X0034104Y0017418D01*
X0034091Y0017596D02*
X0206077Y0017596D01*
X0206116Y0018195D02*
X0034047Y0018195D01*
X0034004Y0018793D02*
X0206156Y0018793D01*
X0206173Y0019392D02*
X0033985Y0019392D01*
X0033981Y0019990D02*
X0206173Y0019990D01*
X0206173Y0020589D02*
X0033977Y0020589D01*
X0033972Y0021187D02*
X0206173Y0021187D01*
X0206173Y0021786D02*
X0033968Y0021786D01*
X0033964Y0022384D02*
X0206173Y0022384D01*
X0206173Y0022983D02*
X0033959Y0022983D01*
X0033955Y0023581D02*
X0206173Y0023581D01*
X0206173Y0024180D02*
X0033951Y0024180D01*
X0033946Y0024778D02*
X0206173Y0024778D01*
X0206173Y0025377D02*
X0033942Y0025377D01*
X0033938Y0025975D02*
X0206173Y0025975D01*
X0206173Y0026574D02*
X0033934Y0026574D01*
X0033929Y0027172D02*
X0206173Y0027172D01*
X0206173Y0027771D02*
X0033925Y0027771D01*
X0033921Y0028370D02*
X0206173Y0028370D01*
X0206173Y0028968D02*
X0033916Y0028968D01*
X0033912Y0029567D02*
X0074323Y0029567D01*
X0074179Y0029710D02*
X0074706Y0029183D01*
X0088838Y0029183D01*
X0089365Y0029710D01*
X0089365Y0033800D01*
X0100068Y0033800D01*
X0101383Y0032485D01*
X0101383Y0031510D01*
X0102783Y0030111D01*
X0104762Y0030111D01*
X0106161Y0031510D01*
X0106161Y0033490D01*
X0105551Y0034100D01*
X0112945Y0034100D01*
X0113472Y0034627D01*
X0113472Y0056373D01*
X0112945Y0056900D01*
X0109352Y0056900D01*
X0100384Y0065868D01*
X0095744Y0065868D01*
X0095853Y0065978D01*
X0095853Y0066131D01*
X0101384Y0066131D01*
X0107352Y0072100D01*
X0112945Y0072100D01*
X0113472Y0072627D01*
X0113472Y0094373D01*
X0112945Y0094900D01*
X0104599Y0094900D01*
X0104072Y0094373D01*
X0104072Y0072780D01*
X0100224Y0068931D01*
X0095853Y0068931D01*
X0095853Y0069085D01*
X0095326Y0069613D01*
X0092218Y0069613D01*
X0091691Y0069085D01*
X0091691Y0068900D01*
X0083352Y0068900D01*
X0083172Y0069080D01*
X0083172Y0072521D01*
X0084161Y0073510D01*
X0084161Y0075490D01*
X0082762Y0076889D01*
X0080783Y0076889D01*
X0079383Y0075490D01*
X0079383Y0073889D01*
X0077783Y0073889D01*
X0076383Y0072490D01*
X0076383Y0070510D01*
X0077372Y0069521D01*
X0077372Y0066920D01*
X0080372Y0063920D01*
X0081192Y0063100D01*
X0082994Y0063100D01*
X0082383Y0062490D01*
X0082383Y0060510D01*
X0083372Y0059521D01*
X0083372Y0058920D01*
X0088475Y0053817D01*
X0083672Y0053817D01*
X0083672Y0055287D01*
X0082559Y0056400D01*
X0075161Y0063798D01*
X0075161Y0064490D01*
X0073762Y0065889D01*
X0071783Y0065889D01*
X0070383Y0064490D01*
X0070383Y0062510D01*
X0071783Y0061111D01*
X0072474Y0061111D01*
X0079768Y0053817D01*
X0074706Y0053817D01*
X0074179Y0053290D01*
X0074179Y0045064D01*
X0074706Y0044537D01*
X0088838Y0044537D01*
X0089365Y0045064D01*
X0089365Y0052927D01*
X0091372Y0050920D01*
X0092192Y0050100D01*
X0092794Y0050100D01*
X0093783Y0049111D01*
X0095762Y0049111D01*
X0097161Y0050510D01*
X0097161Y0052490D01*
X0095762Y0053889D01*
X0093783Y0053889D01*
X0093073Y0053179D01*
X0086451Y0059801D01*
X0087161Y0060510D01*
X0087161Y0062445D01*
X0087218Y0062387D01*
X0090326Y0062387D01*
X0090853Y0062915D01*
X0090853Y0063069D01*
X0099224Y0063069D01*
X0105392Y0056900D01*
X0104599Y0056900D01*
X0104072Y0056373D01*
X0104072Y0034889D01*
X0103787Y0034889D01*
X0102472Y0036204D01*
X0101476Y0037200D01*
X0089365Y0037200D01*
X0089365Y0037936D01*
X0088838Y0038463D01*
X0074706Y0038463D01*
X0074179Y0037936D01*
X0074179Y0029710D01*
X0074179Y0030165D02*
X0033908Y0030165D01*
X0033903Y0030764D02*
X0074179Y0030764D01*
X0074179Y0031362D02*
X0033899Y0031362D01*
X0033895Y0031961D02*
X0074179Y0031961D01*
X0074179Y0032559D02*
X0033890Y0032559D01*
X0033886Y0033158D02*
X0074179Y0033158D01*
X0074179Y0033756D02*
X0033882Y0033756D01*
X0033878Y0034355D02*
X0074179Y0034355D01*
X0074179Y0034953D02*
X0033873Y0034953D01*
X0033869Y0035552D02*
X0074179Y0035552D01*
X0074179Y0036150D02*
X0033865Y0036150D01*
X0033860Y0036749D02*
X0074179Y0036749D01*
X0074179Y0037347D02*
X0033856Y0037347D01*
X0033852Y0037946D02*
X0074189Y0037946D01*
X0074179Y0045128D02*
X0057648Y0045128D01*
X0057919Y0045399D02*
X0058844Y0047631D01*
X0058844Y0050046D01*
X0057919Y0052278D01*
X0056211Y0053986D01*
X0053980Y0054910D01*
X0051564Y0054910D01*
X0049333Y0053986D01*
X0047625Y0052278D01*
X0046700Y0050046D01*
X0046700Y0047631D01*
X0047625Y0045399D01*
X0049333Y0043691D01*
X0051564Y0042767D01*
X0053980Y0042767D01*
X0056211Y0043691D01*
X0057919Y0045399D01*
X0058055Y0045726D02*
X0074179Y0045726D01*
X0074179Y0046325D02*
X0058303Y0046325D01*
X0058551Y0046923D02*
X0074179Y0046923D01*
X0074179Y0047522D02*
X0058799Y0047522D01*
X0058844Y0048120D02*
X0074179Y0048120D01*
X0074179Y0048719D02*
X0058844Y0048719D01*
X0058844Y0049317D02*
X0074179Y0049317D01*
X0074179Y0049916D02*
X0058844Y0049916D01*
X0058650Y0050514D02*
X0074179Y0050514D01*
X0074179Y0051113D02*
X0058402Y0051113D01*
X0058154Y0051711D02*
X0074179Y0051711D01*
X0074179Y0052310D02*
X0057887Y0052310D01*
X0057289Y0052908D02*
X0074179Y0052908D01*
X0074396Y0053507D02*
X0056690Y0053507D01*
X0055923Y0054105D02*
X0079480Y0054105D01*
X0078881Y0054704D02*
X0054478Y0054704D01*
X0051067Y0054704D02*
X0033731Y0054704D01*
X0033736Y0054105D02*
X0049622Y0054105D01*
X0048854Y0053507D02*
X0033740Y0053507D01*
X0033744Y0052908D02*
X0048255Y0052908D01*
X0047657Y0052310D02*
X0033748Y0052310D01*
X0033753Y0051711D02*
X0047390Y0051711D01*
X0047142Y0051113D02*
X0033757Y0051113D01*
X0033761Y0050514D02*
X0046894Y0050514D01*
X0046700Y0049916D02*
X0033766Y0049916D01*
X0033770Y0049317D02*
X0046700Y0049317D01*
X0046700Y0048719D02*
X0033774Y0048719D01*
X0033779Y0048120D02*
X0046700Y0048120D01*
X0046746Y0047522D02*
X0033783Y0047522D01*
X0033787Y0046923D02*
X0046994Y0046923D01*
X0047241Y0046325D02*
X0033791Y0046325D01*
X0033796Y0045726D02*
X0047489Y0045726D01*
X0047896Y0045128D02*
X0033800Y0045128D01*
X0033804Y0044529D02*
X0048495Y0044529D01*
X0049093Y0043931D02*
X0033809Y0043931D01*
X0033813Y0043332D02*
X0050199Y0043332D01*
X0055345Y0043332D02*
X0104072Y0043332D01*
X0104072Y0042734D02*
X0033817Y0042734D01*
X0033822Y0042135D02*
X0104072Y0042135D01*
X0104072Y0041537D02*
X0033826Y0041537D01*
X0033830Y0040938D02*
X0104072Y0040938D01*
X0104072Y0040340D02*
X0033835Y0040340D01*
X0033839Y0039741D02*
X0104072Y0039741D01*
X0104072Y0039143D02*
X0033843Y0039143D01*
X0033847Y0038544D02*
X0104072Y0038544D01*
X0104072Y0037946D02*
X0089355Y0037946D01*
X0089365Y0037347D02*
X0104072Y0037347D01*
X0104072Y0036749D02*
X0101928Y0036749D01*
X0102526Y0036150D02*
X0104072Y0036150D01*
X0104072Y0035552D02*
X0103125Y0035552D01*
X0103723Y0034953D02*
X0104072Y0034953D01*
X0105895Y0033756D02*
X0206173Y0033756D01*
X0206173Y0033158D02*
X0106161Y0033158D01*
X0106161Y0032559D02*
X0206173Y0032559D01*
X0206173Y0031961D02*
X0106161Y0031961D01*
X0106013Y0031362D02*
X0206173Y0031362D01*
X0206173Y0030764D02*
X0105414Y0030764D01*
X0104816Y0030165D02*
X0206173Y0030165D01*
X0206173Y0029567D02*
X0089222Y0029567D01*
X0089365Y0030165D02*
X0102729Y0030165D01*
X0102130Y0030764D02*
X0089365Y0030764D01*
X0089365Y0031362D02*
X0101532Y0031362D01*
X0101383Y0031961D02*
X0089365Y0031961D01*
X0089365Y0032559D02*
X0101309Y0032559D01*
X0100710Y0033158D02*
X0089365Y0033158D01*
X0089365Y0033756D02*
X0100112Y0033756D01*
X0113200Y0034355D02*
X0206173Y0034355D01*
X0206173Y0034953D02*
X0113472Y0034953D01*
X0113472Y0035552D02*
X0206173Y0035552D01*
X0206173Y0036150D02*
X0113472Y0036150D01*
X0113472Y0036749D02*
X0206173Y0036749D01*
X0206173Y0037347D02*
X0113472Y0037347D01*
X0113472Y0037946D02*
X0206173Y0037946D01*
X0206173Y0038544D02*
X0113472Y0038544D01*
X0113472Y0039143D02*
X0206173Y0039143D01*
X0206173Y0039741D02*
X0113472Y0039741D01*
X0113472Y0040340D02*
X0206173Y0040340D01*
X0206173Y0040938D02*
X0113472Y0040938D01*
X0113472Y0041537D02*
X0206173Y0041537D01*
X0206173Y0042135D02*
X0113472Y0042135D01*
X0113472Y0042734D02*
X0206173Y0042734D01*
X0206173Y0043332D02*
X0181983Y0043332D01*
X0181762Y0043111D02*
X0183161Y0044510D01*
X0183161Y0045909D01*
X0183172Y0045920D01*
X0183172Y0060600D01*
X0191559Y0060600D01*
X0197020Y0066061D01*
X0198133Y0067174D01*
X0198133Y0067419D01*
X0198678Y0067965D01*
X0199117Y0069025D01*
X0199117Y0070172D01*
X0198678Y0071232D01*
X0197867Y0072044D01*
X0196806Y0072483D01*
X0195659Y0072483D01*
X0194599Y0072044D01*
X0193788Y0071232D01*
X0193733Y0071100D01*
X0193678Y0071232D01*
X0192867Y0072044D01*
X0192734Y0072098D01*
X0192867Y0072153D01*
X0193678Y0072965D01*
X0194117Y0074025D01*
X0194117Y0075172D01*
X0193678Y0076232D01*
X0192867Y0077044D01*
X0192734Y0077098D01*
X0192867Y0077153D01*
X0193678Y0077965D01*
X0194117Y0079025D01*
X0194117Y0080172D01*
X0193678Y0081232D01*
X0192867Y0082044D01*
X0192734Y0082098D01*
X0192867Y0082153D01*
X0193678Y0082965D01*
X0194117Y0084025D01*
X0194117Y0085172D01*
X0193678Y0086232D01*
X0192867Y0087044D01*
X0192734Y0087098D01*
X0192867Y0087153D01*
X0193678Y0087965D01*
X0194117Y0089025D01*
X0194117Y0090172D01*
X0193678Y0091232D01*
X0192867Y0092044D01*
X0191806Y0092483D01*
X0190659Y0092483D01*
X0189599Y0092044D01*
X0188788Y0091232D01*
X0188348Y0090172D01*
X0188348Y0089025D01*
X0188788Y0087965D01*
X0189599Y0087153D01*
X0189731Y0087098D01*
X0189599Y0087044D01*
X0188788Y0086232D01*
X0188348Y0085172D01*
X0188348Y0084025D01*
X0188788Y0082965D01*
X0189599Y0082153D01*
X0189731Y0082098D01*
X0189599Y0082044D01*
X0188788Y0081232D01*
X0188348Y0080172D01*
X0188348Y0079025D01*
X0188788Y0077965D01*
X0189599Y0077153D01*
X0189731Y0077098D01*
X0189599Y0077044D01*
X0188788Y0076232D01*
X0188348Y0075172D01*
X0188348Y0074025D01*
X0188788Y0072965D01*
X0189599Y0072153D01*
X0189731Y0072098D01*
X0189599Y0072044D01*
X0188788Y0071232D01*
X0188348Y0070172D01*
X0188348Y0069025D01*
X0188788Y0067965D01*
X0189599Y0067153D01*
X0190659Y0066714D01*
X0191806Y0066714D01*
X0192648Y0067063D01*
X0189985Y0064400D01*
X0183672Y0064400D01*
X0183672Y0074287D01*
X0183161Y0074798D01*
X0183161Y0074909D01*
X0183172Y0074920D01*
X0183172Y0088080D01*
X0183161Y0088091D01*
X0183161Y0088909D01*
X0183172Y0088920D01*
X0183172Y0118080D01*
X0183161Y0118091D01*
X0183161Y0119490D01*
X0181762Y0120889D01*
X0179783Y0120889D01*
X0178383Y0119490D01*
X0178383Y0117510D01*
X0179783Y0116111D01*
X0180372Y0116111D01*
X0180372Y0090889D01*
X0179783Y0090889D01*
X0178383Y0089490D01*
X0178383Y0087510D01*
X0179783Y0086111D01*
X0180372Y0086111D01*
X0180372Y0076889D01*
X0179783Y0076889D01*
X0178383Y0075490D01*
X0178383Y0073510D01*
X0179783Y0072111D01*
X0179872Y0072111D01*
X0179872Y0062713D01*
X0180439Y0062146D01*
X0180372Y0062080D01*
X0180372Y0047889D01*
X0179783Y0047889D01*
X0178383Y0046490D01*
X0178383Y0044510D01*
X0179783Y0043111D01*
X0181762Y0043111D01*
X0182581Y0043931D02*
X0206173Y0043931D01*
X0206173Y0044529D02*
X0183161Y0044529D01*
X0183161Y0045128D02*
X0206173Y0045128D01*
X0206173Y0045726D02*
X0183161Y0045726D01*
X0183172Y0046325D02*
X0206173Y0046325D01*
X0206173Y0046923D02*
X0183172Y0046923D01*
X0183172Y0047522D02*
X0206173Y0047522D01*
X0206173Y0048120D02*
X0183172Y0048120D01*
X0183172Y0048719D02*
X0206173Y0048719D01*
X0206173Y0049317D02*
X0183172Y0049317D01*
X0183172Y0049916D02*
X0206173Y0049916D01*
X0206173Y0050514D02*
X0183172Y0050514D01*
X0183172Y0051113D02*
X0206173Y0051113D01*
X0206173Y0051711D02*
X0183172Y0051711D01*
X0183172Y0052310D02*
X0206173Y0052310D01*
X0206173Y0052908D02*
X0183172Y0052908D01*
X0183172Y0053507D02*
X0206173Y0053507D01*
X0206173Y0054105D02*
X0183172Y0054105D01*
X0183172Y0054704D02*
X0206173Y0054704D01*
X0206173Y0055303D02*
X0183172Y0055303D01*
X0183172Y0055901D02*
X0206173Y0055901D01*
X0206173Y0056500D02*
X0183172Y0056500D01*
X0183172Y0057098D02*
X0206173Y0057098D01*
X0206173Y0057697D02*
X0183172Y0057697D01*
X0183172Y0058295D02*
X0206173Y0058295D01*
X0206173Y0058894D02*
X0183172Y0058894D01*
X0183172Y0059492D02*
X0206173Y0059492D01*
X0206173Y0060091D02*
X0183172Y0060091D01*
X0180372Y0060091D02*
X0134672Y0060091D01*
X0134672Y0060689D02*
X0180372Y0060689D01*
X0180372Y0061288D02*
X0134672Y0061288D01*
X0134672Y0061886D02*
X0180372Y0061886D01*
X0180100Y0062485D02*
X0134672Y0062485D01*
X0134672Y0063083D02*
X0179872Y0063083D01*
X0179872Y0063682D02*
X0134672Y0063682D01*
X0134672Y0064280D02*
X0179872Y0064280D01*
X0179872Y0064879D02*
X0134672Y0064879D01*
X0134672Y0065287D02*
X0133559Y0066400D01*
X0131672Y0068287D01*
X0131672Y0069021D01*
X0132161Y0069510D01*
X0132161Y0071490D01*
X0130762Y0072889D01*
X0128783Y0072889D01*
X0127383Y0071490D01*
X0127383Y0069510D01*
X0127872Y0069021D01*
X0127872Y0066713D01*
X0128985Y0065600D01*
X0130872Y0063713D01*
X0130872Y0061778D01*
X0130172Y0062479D01*
X0130172Y0064080D01*
X0129352Y0064900D01*
X0125172Y0069080D01*
X0125172Y0087721D01*
X0125783Y0087111D01*
X0127762Y0087111D01*
X0129161Y0088510D01*
X0129161Y0088909D01*
X0129352Y0089100D01*
X0130172Y0089920D01*
X0130172Y0099521D01*
X0131161Y0100510D01*
X0131161Y0102490D01*
X0129762Y0103889D01*
X0127783Y0103889D01*
X0126383Y0102490D01*
X0126383Y0100510D01*
X0127372Y0099521D01*
X0127372Y0091889D01*
X0125783Y0091889D01*
X0125172Y0091278D01*
X0125172Y0095080D01*
X0125161Y0095091D01*
X0125161Y0096490D01*
X0123762Y0097889D01*
X0121783Y0097889D01*
X0120383Y0096490D01*
X0120383Y0094510D01*
X0121783Y0093111D01*
X0122372Y0093111D01*
X0122372Y0067920D01*
X0127372Y0062920D01*
X0127372Y0062479D01*
X0126383Y0061490D01*
X0126383Y0059510D01*
X0127783Y0058111D01*
X0129762Y0058111D01*
X0130872Y0059221D01*
X0130872Y0050287D01*
X0128474Y0047889D01*
X0127783Y0047889D01*
X0126383Y0046490D01*
X0126383Y0044510D01*
X0127783Y0043111D01*
X0129762Y0043111D01*
X0131161Y0044510D01*
X0131161Y0045202D01*
X0133559Y0047600D01*
X0133559Y0047600D01*
X0134672Y0048713D01*
X0134672Y0065287D01*
X0134482Y0065477D02*
X0179872Y0065477D01*
X0179872Y0066076D02*
X0133883Y0066076D01*
X0133285Y0066674D02*
X0179872Y0066674D01*
X0179872Y0067273D02*
X0132686Y0067273D01*
X0132088Y0067871D02*
X0179872Y0067871D01*
X0179872Y0068470D02*
X0131672Y0068470D01*
X0131719Y0069068D02*
X0179872Y0069068D01*
X0179872Y0069667D02*
X0132161Y0069667D01*
X0132161Y0070265D02*
X0179872Y0070265D01*
X0179872Y0070864D02*
X0132161Y0070864D01*
X0132161Y0071462D02*
X0179872Y0071462D01*
X0179872Y0072061D02*
X0131590Y0072061D01*
X0130991Y0072659D02*
X0179234Y0072659D01*
X0178636Y0073258D02*
X0125172Y0073258D01*
X0125172Y0073856D02*
X0178383Y0073856D01*
X0178383Y0074455D02*
X0125172Y0074455D01*
X0125172Y0075053D02*
X0178383Y0075053D01*
X0178546Y0075652D02*
X0125172Y0075652D01*
X0125172Y0076250D02*
X0179144Y0076250D01*
X0179743Y0076849D02*
X0125172Y0076849D01*
X0125172Y0077447D02*
X0180372Y0077447D01*
X0180372Y0078046D02*
X0125172Y0078046D01*
X0125172Y0078644D02*
X0180372Y0078644D01*
X0180372Y0079243D02*
X0125172Y0079243D01*
X0125172Y0079841D02*
X0180372Y0079841D01*
X0180372Y0080440D02*
X0125172Y0080440D01*
X0125172Y0081039D02*
X0180372Y0081039D01*
X0180372Y0081637D02*
X0125172Y0081637D01*
X0125172Y0082236D02*
X0180372Y0082236D01*
X0180372Y0082834D02*
X0125172Y0082834D01*
X0125172Y0083433D02*
X0180372Y0083433D01*
X0180372Y0084031D02*
X0125172Y0084031D01*
X0125172Y0084630D02*
X0180372Y0084630D01*
X0180372Y0085228D02*
X0125172Y0085228D01*
X0125172Y0085827D02*
X0180372Y0085827D01*
X0179468Y0086425D02*
X0125172Y0086425D01*
X0125172Y0087024D02*
X0178870Y0087024D01*
X0178383Y0087622D02*
X0128273Y0087622D01*
X0128871Y0088221D02*
X0178383Y0088221D01*
X0178383Y0088819D02*
X0129161Y0088819D01*
X0129670Y0089418D02*
X0178383Y0089418D01*
X0178910Y0090016D02*
X0130172Y0090016D01*
X0130172Y0090615D02*
X0179508Y0090615D01*
X0180372Y0091213D02*
X0130172Y0091213D01*
X0130172Y0091812D02*
X0180372Y0091812D01*
X0180372Y0092410D02*
X0130172Y0092410D01*
X0130172Y0093009D02*
X0180372Y0093009D01*
X0180372Y0093607D02*
X0130172Y0093607D01*
X0130172Y0094206D02*
X0180372Y0094206D01*
X0180372Y0094804D02*
X0130172Y0094804D01*
X0130172Y0095403D02*
X0180372Y0095403D01*
X0180372Y0096001D02*
X0130172Y0096001D01*
X0130172Y0096600D02*
X0180372Y0096600D01*
X0180372Y0097198D02*
X0130172Y0097198D01*
X0130172Y0097797D02*
X0180372Y0097797D01*
X0180372Y0098395D02*
X0130172Y0098395D01*
X0130172Y0098994D02*
X0180372Y0098994D01*
X0180372Y0099592D02*
X0130243Y0099592D01*
X0130842Y0100191D02*
X0180372Y0100191D01*
X0180372Y0100789D02*
X0131161Y0100789D01*
X0131161Y0101388D02*
X0180372Y0101388D01*
X0180372Y0101986D02*
X0131161Y0101986D01*
X0131066Y0102585D02*
X0180372Y0102585D01*
X0180372Y0103183D02*
X0130467Y0103183D01*
X0129869Y0103782D02*
X0180372Y0103782D01*
X0180372Y0104380D02*
X0063664Y0104380D01*
X0063065Y0103782D02*
X0127676Y0103782D01*
X0127077Y0103183D02*
X0062467Y0103183D01*
X0061868Y0102585D02*
X0126479Y0102585D01*
X0126383Y0101986D02*
X0061270Y0101986D01*
X0060671Y0101388D02*
X0063281Y0101388D01*
X0062683Y0100789D02*
X0060073Y0100789D01*
X0059474Y0100191D02*
X0062383Y0100191D01*
X0061885Y0099592D02*
X0058876Y0099592D01*
X0058853Y0098994D02*
X0061286Y0098994D01*
X0060688Y0098395D02*
X0058853Y0098395D01*
X0058735Y0097797D02*
X0060089Y0097797D01*
X0059491Y0097198D02*
X0058740Y0097198D01*
X0058853Y0096600D02*
X0058892Y0096600D01*
X0061172Y0094804D02*
X0104504Y0094804D01*
X0104072Y0094206D02*
X0061172Y0094206D01*
X0061172Y0093607D02*
X0104072Y0093607D01*
X0104072Y0093009D02*
X0061172Y0093009D01*
X0061172Y0092410D02*
X0104072Y0092410D01*
X0104072Y0091812D02*
X0061172Y0091812D01*
X0061172Y0091213D02*
X0104072Y0091213D01*
X0104072Y0090615D02*
X0060867Y0090615D01*
X0060268Y0090016D02*
X0104072Y0090016D01*
X0104072Y0089418D02*
X0059670Y0089418D01*
X0059071Y0088819D02*
X0104072Y0088819D01*
X0104072Y0088221D02*
X0058473Y0088221D01*
X0057874Y0087622D02*
X0104072Y0087622D01*
X0104072Y0087024D02*
X0057276Y0087024D01*
X0056677Y0086425D02*
X0104072Y0086425D01*
X0104072Y0085827D02*
X0056079Y0085827D01*
X0055480Y0085228D02*
X0104072Y0085228D01*
X0104072Y0084630D02*
X0054882Y0084630D01*
X0054283Y0084031D02*
X0104072Y0084031D01*
X0104072Y0083433D02*
X0053685Y0083433D01*
X0046860Y0083433D02*
X0033525Y0083433D01*
X0033520Y0084031D02*
X0046261Y0084031D01*
X0045663Y0084630D02*
X0033516Y0084630D01*
X0033512Y0085228D02*
X0045064Y0085228D01*
X0043842Y0085827D02*
X0033507Y0085827D01*
X0033503Y0086425D02*
X0043723Y0086425D01*
X0043723Y0087024D02*
X0033499Y0087024D01*
X0033494Y0087622D02*
X0043723Y0087622D01*
X0043723Y0088221D02*
X0033490Y0088221D01*
X0033486Y0088819D02*
X0043502Y0088819D01*
X0042279Y0089418D02*
X0033482Y0089418D01*
X0033477Y0090016D02*
X0042049Y0090016D01*
X0042049Y0090615D02*
X0033473Y0090615D01*
X0033469Y0091213D02*
X0042049Y0091213D01*
X0042049Y0091812D02*
X0033464Y0091812D01*
X0033460Y0092410D02*
X0042049Y0092410D01*
X0042049Y0093009D02*
X0033456Y0093009D01*
X0033451Y0093607D02*
X0042049Y0093607D01*
X0042049Y0094206D02*
X0033447Y0094206D01*
X0033443Y0094804D02*
X0042049Y0094804D01*
X0042335Y0095403D02*
X0033439Y0095403D01*
X0033434Y0096001D02*
X0054691Y0096001D01*
X0054691Y0095403D02*
X0053209Y0095403D01*
X0053495Y0094804D02*
X0054615Y0094804D01*
X0054220Y0094206D02*
X0053495Y0094206D01*
X0054691Y0096600D02*
X0033430Y0096600D01*
X0033426Y0097198D02*
X0038094Y0097198D01*
X0037495Y0097797D02*
X0033421Y0097797D01*
X0033417Y0098395D02*
X0036897Y0098395D01*
X0036298Y0098994D02*
X0033413Y0098994D01*
X0033408Y0099592D02*
X0035700Y0099592D01*
X0033703Y0100191D02*
X0033404Y0100191D01*
X0037161Y0102091D02*
X0037161Y0103490D01*
X0035762Y0104889D01*
X0033783Y0104889D01*
X0033373Y0104480D01*
X0033234Y0123832D01*
X0033230Y0124339D01*
X0033228Y0124687D01*
X0033297Y0126090D01*
X0033904Y0128829D01*
X0035109Y0131363D01*
X0036849Y0133563D01*
X0039037Y0135319D01*
X0041562Y0136542D01*
X0044296Y0137169D01*
X0045699Y0137248D01*
X0070540Y0137248D01*
X0070372Y0137080D01*
X0070372Y0137080D01*
X0064192Y0130900D01*
X0064192Y0130900D01*
X0063372Y0130080D01*
X0063372Y0121479D01*
X0062383Y0120490D01*
X0062383Y0119091D01*
X0062372Y0119080D01*
X0062372Y0107920D01*
X0062383Y0107909D01*
X0062383Y0107059D01*
X0056873Y0101550D01*
X0055218Y0101550D01*
X0055053Y0101384D01*
X0054868Y0101384D01*
X0054852Y0101400D01*
X0053495Y0101400D01*
X0053495Y0104399D01*
X0053783Y0104111D01*
X0055762Y0104111D01*
X0057161Y0105510D01*
X0057161Y0106733D01*
X0057783Y0106111D01*
X0059762Y0106111D01*
X0061161Y0107510D01*
X0061161Y0109490D01*
X0059762Y0110889D01*
X0057783Y0110889D01*
X0056903Y0110010D01*
X0056424Y0110489D01*
X0053120Y0110489D01*
X0052531Y0109900D01*
X0046192Y0109900D01*
X0045372Y0109080D01*
X0045372Y0109080D01*
X0043141Y0106849D01*
X0043069Y0106842D01*
X0042738Y0106445D01*
X0042372Y0106080D01*
X0042372Y0106007D01*
X0042326Y0105952D01*
X0042352Y0105656D01*
X0042049Y0105353D01*
X0042049Y0099900D01*
X0039352Y0099900D01*
X0037161Y0102091D01*
X0037266Y0101986D02*
X0042049Y0101986D01*
X0042049Y0101388D02*
X0037864Y0101388D01*
X0038463Y0100789D02*
X0042049Y0100789D01*
X0042049Y0100191D02*
X0039061Y0100191D01*
X0037161Y0102585D02*
X0042049Y0102585D01*
X0042049Y0103183D02*
X0037161Y0103183D01*
X0036869Y0103782D02*
X0042049Y0103782D01*
X0042049Y0104380D02*
X0036270Y0104380D01*
X0033370Y0104979D02*
X0042049Y0104979D01*
X0042274Y0105577D02*
X0033365Y0105577D01*
X0033361Y0106176D02*
X0042468Y0106176D01*
X0043012Y0106774D02*
X0033357Y0106774D01*
X0033352Y0107373D02*
X0043665Y0107373D01*
X0044264Y0107972D02*
X0033348Y0107972D01*
X0033344Y0108570D02*
X0044862Y0108570D01*
X0045461Y0109169D02*
X0033340Y0109169D01*
X0033335Y0109767D02*
X0046059Y0109767D01*
X0052996Y0110366D02*
X0033331Y0110366D01*
X0033327Y0110964D02*
X0062372Y0110964D01*
X0062372Y0110366D02*
X0060285Y0110366D01*
X0060884Y0109767D02*
X0062372Y0109767D01*
X0062372Y0109169D02*
X0061161Y0109169D01*
X0061161Y0108570D02*
X0062372Y0108570D01*
X0062372Y0107972D02*
X0061161Y0107972D01*
X0061024Y0107373D02*
X0062383Y0107373D01*
X0062098Y0106774D02*
X0060425Y0106774D01*
X0059827Y0106176D02*
X0061500Y0106176D01*
X0060901Y0105577D02*
X0057161Y0105577D01*
X0057161Y0106176D02*
X0057718Y0106176D01*
X0056630Y0104979D02*
X0060303Y0104979D01*
X0059704Y0104380D02*
X0056031Y0104380D01*
X0053513Y0104380D02*
X0053495Y0104380D01*
X0053495Y0103782D02*
X0059106Y0103782D01*
X0058507Y0103183D02*
X0053495Y0103183D01*
X0053495Y0102585D02*
X0057909Y0102585D01*
X0057310Y0101986D02*
X0053495Y0101986D01*
X0054864Y0101388D02*
X0055057Y0101388D01*
X0054691Y0098395D02*
X0051647Y0098395D01*
X0051049Y0097797D02*
X0054809Y0097797D01*
X0054804Y0097198D02*
X0050450Y0097198D01*
X0049816Y0095403D02*
X0045729Y0095403D01*
X0046015Y0094804D02*
X0049530Y0094804D01*
X0049530Y0094206D02*
X0046015Y0094206D01*
X0046015Y0093607D02*
X0049530Y0093607D01*
X0049530Y0093009D02*
X0046015Y0093009D01*
X0046015Y0092410D02*
X0049530Y0092410D01*
X0049530Y0091812D02*
X0046015Y0091812D01*
X0046015Y0091213D02*
X0049530Y0091213D01*
X0049530Y0090615D02*
X0046015Y0090615D01*
X0046085Y0090016D02*
X0049459Y0090016D01*
X0048023Y0089418D02*
X0047521Y0089418D01*
X0033529Y0082834D02*
X0104072Y0082834D01*
X0104072Y0082236D02*
X0033533Y0082236D01*
X0033538Y0081637D02*
X0104072Y0081637D01*
X0104072Y0081039D02*
X0033542Y0081039D01*
X0033546Y0080440D02*
X0104072Y0080440D01*
X0104072Y0079841D02*
X0033550Y0079841D01*
X0033555Y0079243D02*
X0104072Y0079243D01*
X0104072Y0078644D02*
X0033559Y0078644D01*
X0033563Y0078046D02*
X0104072Y0078046D01*
X0104072Y0077447D02*
X0033568Y0077447D01*
X0033572Y0076849D02*
X0080743Y0076849D01*
X0080144Y0076250D02*
X0033576Y0076250D01*
X0033581Y0075652D02*
X0079546Y0075652D01*
X0079383Y0075053D02*
X0033585Y0075053D01*
X0033589Y0074455D02*
X0079383Y0074455D01*
X0077750Y0073856D02*
X0033593Y0073856D01*
X0033598Y0073258D02*
X0077151Y0073258D01*
X0076553Y0072659D02*
X0033602Y0072659D01*
X0033606Y0072061D02*
X0051149Y0072061D01*
X0051564Y0072233D02*
X0049333Y0071309D01*
X0047625Y0069601D01*
X0046700Y0067369D01*
X0046700Y0064954D01*
X0047625Y0062722D01*
X0049333Y0061014D01*
X0051564Y0060090D01*
X0053980Y0060090D01*
X0056211Y0061014D01*
X0057919Y0062722D01*
X0058844Y0064954D01*
X0058844Y0067369D01*
X0057919Y0069601D01*
X0056211Y0071309D01*
X0053980Y0072233D01*
X0051564Y0072233D01*
X0049704Y0071462D02*
X0033611Y0071462D01*
X0033615Y0070864D02*
X0048888Y0070864D01*
X0048289Y0070265D02*
X0033619Y0070265D01*
X0033624Y0069667D02*
X0047691Y0069667D01*
X0047404Y0069068D02*
X0033628Y0069068D01*
X0033632Y0068470D02*
X0047156Y0068470D01*
X0046908Y0067871D02*
X0033637Y0067871D01*
X0033641Y0067273D02*
X0046700Y0067273D01*
X0046700Y0066674D02*
X0033645Y0066674D01*
X0033649Y0066076D02*
X0046700Y0066076D01*
X0046700Y0065477D02*
X0033654Y0065477D01*
X0033658Y0064879D02*
X0046732Y0064879D01*
X0046979Y0064280D02*
X0033662Y0064280D01*
X0033667Y0063682D02*
X0047227Y0063682D01*
X0047475Y0063083D02*
X0033671Y0063083D01*
X0033675Y0062485D02*
X0047862Y0062485D01*
X0048461Y0061886D02*
X0033680Y0061886D01*
X0033684Y0061288D02*
X0049059Y0061288D01*
X0050117Y0060689D02*
X0033688Y0060689D01*
X0033692Y0060091D02*
X0051562Y0060091D01*
X0053982Y0060091D02*
X0073495Y0060091D01*
X0074093Y0059492D02*
X0033697Y0059492D01*
X0033701Y0058894D02*
X0074692Y0058894D01*
X0075290Y0058295D02*
X0033705Y0058295D01*
X0033710Y0057697D02*
X0075889Y0057697D01*
X0076487Y0057098D02*
X0033714Y0057098D01*
X0033718Y0056500D02*
X0077086Y0056500D01*
X0077684Y0055901D02*
X0033723Y0055901D01*
X0033727Y0055303D02*
X0078283Y0055303D01*
X0081263Y0057697D02*
X0084596Y0057697D01*
X0083997Y0058295D02*
X0080664Y0058295D01*
X0080066Y0058894D02*
X0083399Y0058894D01*
X0083372Y0059492D02*
X0079467Y0059492D01*
X0078868Y0060091D02*
X0082803Y0060091D01*
X0082383Y0060689D02*
X0078270Y0060689D01*
X0077671Y0061288D02*
X0082383Y0061288D01*
X0082383Y0061886D02*
X0077073Y0061886D01*
X0076474Y0062485D02*
X0082383Y0062485D01*
X0082977Y0063083D02*
X0075876Y0063083D01*
X0075277Y0063682D02*
X0080611Y0063682D01*
X0080012Y0064280D02*
X0075161Y0064280D01*
X0074772Y0064879D02*
X0079414Y0064879D01*
X0078815Y0065477D02*
X0074173Y0065477D01*
X0077618Y0066674D02*
X0058844Y0066674D01*
X0058844Y0066076D02*
X0078216Y0066076D01*
X0077372Y0067273D02*
X0058844Y0067273D01*
X0058636Y0067871D02*
X0077372Y0067871D01*
X0077372Y0068470D02*
X0058388Y0068470D01*
X0058140Y0069068D02*
X0077372Y0069068D01*
X0077227Y0069667D02*
X0057853Y0069667D01*
X0057255Y0070265D02*
X0076628Y0070265D01*
X0076383Y0070864D02*
X0056656Y0070864D01*
X0055841Y0071462D02*
X0076383Y0071462D01*
X0076383Y0072061D02*
X0054396Y0072061D01*
X0058844Y0065477D02*
X0071371Y0065477D01*
X0070772Y0064879D02*
X0058813Y0064879D01*
X0058565Y0064280D02*
X0070383Y0064280D01*
X0070383Y0063682D02*
X0058317Y0063682D01*
X0058069Y0063083D02*
X0070383Y0063083D01*
X0070409Y0062485D02*
X0057682Y0062485D01*
X0057083Y0061886D02*
X0071007Y0061886D01*
X0071606Y0061288D02*
X0056485Y0061288D01*
X0055427Y0060689D02*
X0072896Y0060689D01*
X0081861Y0057098D02*
X0085194Y0057098D01*
X0085793Y0056500D02*
X0082460Y0056500D01*
X0083058Y0055901D02*
X0086391Y0055901D01*
X0086990Y0055303D02*
X0083657Y0055303D01*
X0083672Y0054704D02*
X0087588Y0054704D01*
X0088187Y0054105D02*
X0083672Y0054105D01*
X0089154Y0057098D02*
X0105194Y0057098D01*
X0104596Y0057697D02*
X0088555Y0057697D01*
X0087957Y0058295D02*
X0103997Y0058295D01*
X0103399Y0058894D02*
X0087358Y0058894D01*
X0086760Y0059492D02*
X0102800Y0059492D01*
X0102202Y0060091D02*
X0086741Y0060091D01*
X0087161Y0060689D02*
X0101603Y0060689D01*
X0101005Y0061288D02*
X0087161Y0061288D01*
X0087161Y0061886D02*
X0100406Y0061886D01*
X0099808Y0062485D02*
X0090423Y0062485D01*
X0095853Y0066076D02*
X0124216Y0066076D01*
X0123618Y0066674D02*
X0101926Y0066674D01*
X0102525Y0067273D02*
X0123019Y0067273D01*
X0122421Y0067871D02*
X0103123Y0067871D01*
X0103722Y0068470D02*
X0122372Y0068470D01*
X0122372Y0069068D02*
X0104320Y0069068D01*
X0104919Y0069667D02*
X0122372Y0069667D01*
X0122372Y0070265D02*
X0105517Y0070265D01*
X0106116Y0070864D02*
X0122372Y0070864D01*
X0122372Y0071462D02*
X0106714Y0071462D01*
X0107313Y0072061D02*
X0122372Y0072061D01*
X0122372Y0072659D02*
X0113472Y0072659D01*
X0113472Y0073258D02*
X0122372Y0073258D01*
X0122372Y0073856D02*
X0113472Y0073856D01*
X0113472Y0074455D02*
X0122372Y0074455D01*
X0122372Y0075053D02*
X0113472Y0075053D01*
X0113472Y0075652D02*
X0122372Y0075652D01*
X0122372Y0076250D02*
X0113472Y0076250D01*
X0113472Y0076849D02*
X0122372Y0076849D01*
X0122372Y0077447D02*
X0113472Y0077447D01*
X0113472Y0078046D02*
X0122372Y0078046D01*
X0122372Y0078644D02*
X0113472Y0078644D01*
X0113472Y0079243D02*
X0122372Y0079243D01*
X0122372Y0079841D02*
X0113472Y0079841D01*
X0113472Y0080440D02*
X0122372Y0080440D01*
X0122372Y0081039D02*
X0113472Y0081039D01*
X0113472Y0081637D02*
X0122372Y0081637D01*
X0122372Y0082236D02*
X0113472Y0082236D01*
X0113472Y0082834D02*
X0122372Y0082834D01*
X0122372Y0083433D02*
X0113472Y0083433D01*
X0113472Y0084031D02*
X0122372Y0084031D01*
X0122372Y0084630D02*
X0113472Y0084630D01*
X0113472Y0085228D02*
X0122372Y0085228D01*
X0122372Y0085827D02*
X0113472Y0085827D01*
X0113472Y0086425D02*
X0122372Y0086425D01*
X0122372Y0087024D02*
X0113472Y0087024D01*
X0113472Y0087622D02*
X0122372Y0087622D01*
X0122372Y0088221D02*
X0113472Y0088221D01*
X0113472Y0088819D02*
X0122372Y0088819D01*
X0122372Y0089418D02*
X0113472Y0089418D01*
X0113472Y0090016D02*
X0122372Y0090016D01*
X0122372Y0090615D02*
X0113472Y0090615D01*
X0113472Y0091213D02*
X0122372Y0091213D01*
X0122372Y0091812D02*
X0113472Y0091812D01*
X0113472Y0092410D02*
X0122372Y0092410D01*
X0122372Y0093009D02*
X0113472Y0093009D01*
X0113472Y0093607D02*
X0121286Y0093607D01*
X0120688Y0094206D02*
X0113472Y0094206D01*
X0113041Y0094804D02*
X0120383Y0094804D01*
X0120383Y0095403D02*
X0061655Y0095403D01*
X0062253Y0096001D02*
X0120383Y0096001D01*
X0120493Y0096600D02*
X0062852Y0096600D01*
X0063450Y0097198D02*
X0063695Y0097198D01*
X0065849Y0097198D02*
X0121092Y0097198D01*
X0121690Y0097797D02*
X0066447Y0097797D01*
X0067046Y0098395D02*
X0127372Y0098395D01*
X0127372Y0097797D02*
X0123854Y0097797D01*
X0124452Y0097198D02*
X0127372Y0097198D01*
X0127372Y0096600D02*
X0125051Y0096600D01*
X0125161Y0096001D02*
X0127372Y0096001D01*
X0127372Y0095403D02*
X0125161Y0095403D01*
X0125172Y0094804D02*
X0127372Y0094804D01*
X0127372Y0094206D02*
X0125172Y0094206D01*
X0125172Y0093607D02*
X0127372Y0093607D01*
X0127372Y0093009D02*
X0125172Y0093009D01*
X0125172Y0092410D02*
X0127372Y0092410D01*
X0125705Y0091812D02*
X0125172Y0091812D01*
X0125172Y0087622D02*
X0125271Y0087622D01*
X0127372Y0098994D02*
X0067161Y0098994D01*
X0067161Y0099592D02*
X0127301Y0099592D01*
X0126703Y0100191D02*
X0067161Y0100191D01*
X0066861Y0100789D02*
X0126383Y0100789D01*
X0126383Y0101388D02*
X0066263Y0101388D01*
X0064262Y0104979D02*
X0180372Y0104979D01*
X0180372Y0105577D02*
X0066228Y0105577D01*
X0066827Y0106176D02*
X0180372Y0106176D01*
X0180372Y0106774D02*
X0067161Y0106774D01*
X0067161Y0107373D02*
X0180372Y0107373D01*
X0180372Y0107972D02*
X0067161Y0107972D01*
X0067081Y0108570D02*
X0180372Y0108570D01*
X0180372Y0109169D02*
X0066482Y0109169D01*
X0065884Y0109767D02*
X0180372Y0109767D01*
X0180372Y0110366D02*
X0065172Y0110366D01*
X0065172Y0110964D02*
X0180372Y0110964D01*
X0180372Y0111563D02*
X0065172Y0111563D01*
X0065172Y0112161D02*
X0180372Y0112161D01*
X0180372Y0112760D02*
X0065172Y0112760D01*
X0065172Y0113358D02*
X0180372Y0113358D01*
X0180372Y0113957D02*
X0065172Y0113957D01*
X0065172Y0114555D02*
X0180372Y0114555D01*
X0180372Y0115154D02*
X0065172Y0115154D01*
X0065172Y0115752D02*
X0180372Y0115752D01*
X0179543Y0116351D02*
X0065172Y0116351D01*
X0065172Y0116949D02*
X0178944Y0116949D01*
X0178383Y0117548D02*
X0066198Y0117548D01*
X0066797Y0118146D02*
X0178383Y0118146D01*
X0178383Y0118745D02*
X0067161Y0118745D01*
X0067161Y0119343D02*
X0178383Y0119343D01*
X0178835Y0119942D02*
X0067161Y0119942D01*
X0067110Y0120540D02*
X0179434Y0120540D01*
X0182110Y0120540D02*
X0206173Y0120540D01*
X0206173Y0119942D02*
X0182709Y0119942D01*
X0183161Y0119343D02*
X0206173Y0119343D01*
X0206173Y0118745D02*
X0183161Y0118745D01*
X0183161Y0118146D02*
X0206173Y0118146D01*
X0206173Y0117548D02*
X0183172Y0117548D01*
X0183172Y0116949D02*
X0206173Y0116949D01*
X0206173Y0116351D02*
X0183172Y0116351D01*
X0183172Y0115752D02*
X0206173Y0115752D01*
X0206173Y0115154D02*
X0183172Y0115154D01*
X0183172Y0114555D02*
X0206173Y0114555D01*
X0206173Y0113957D02*
X0183172Y0113957D01*
X0183172Y0113358D02*
X0206173Y0113358D01*
X0206173Y0112760D02*
X0183172Y0112760D01*
X0183172Y0112161D02*
X0206173Y0112161D01*
X0206173Y0111563D02*
X0183172Y0111563D01*
X0183172Y0110964D02*
X0206173Y0110964D01*
X0206173Y0110366D02*
X0183172Y0110366D01*
X0183172Y0109767D02*
X0206173Y0109767D01*
X0206173Y0109169D02*
X0183172Y0109169D01*
X0183172Y0108570D02*
X0206173Y0108570D01*
X0206173Y0107972D02*
X0183172Y0107972D01*
X0183172Y0107373D02*
X0206173Y0107373D01*
X0206173Y0106774D02*
X0183172Y0106774D01*
X0183172Y0106176D02*
X0206173Y0106176D01*
X0206173Y0105577D02*
X0183172Y0105577D01*
X0183172Y0104979D02*
X0206173Y0104979D01*
X0206173Y0104380D02*
X0183172Y0104380D01*
X0183172Y0103782D02*
X0206173Y0103782D01*
X0206173Y0103183D02*
X0183172Y0103183D01*
X0183172Y0102585D02*
X0206173Y0102585D01*
X0206173Y0101986D02*
X0183172Y0101986D01*
X0183172Y0101388D02*
X0206173Y0101388D01*
X0206173Y0100789D02*
X0183172Y0100789D01*
X0183172Y0100191D02*
X0206173Y0100191D01*
X0206173Y0099592D02*
X0183172Y0099592D01*
X0183172Y0098994D02*
X0206173Y0098994D01*
X0206173Y0098395D02*
X0183172Y0098395D01*
X0183172Y0097797D02*
X0206173Y0097797D01*
X0206173Y0097198D02*
X0183172Y0097198D01*
X0183172Y0096600D02*
X0206173Y0096600D01*
X0206173Y0096001D02*
X0183172Y0096001D01*
X0183172Y0095403D02*
X0206173Y0095403D01*
X0206173Y0094804D02*
X0183172Y0094804D01*
X0183172Y0094206D02*
X0206173Y0094206D01*
X0206173Y0093607D02*
X0183172Y0093607D01*
X0183172Y0093009D02*
X0206173Y0093009D01*
X0206173Y0092410D02*
X0191981Y0092410D01*
X0193098Y0091812D02*
X0206173Y0091812D01*
X0206173Y0091213D02*
X0193686Y0091213D01*
X0193934Y0090615D02*
X0206173Y0090615D01*
X0206173Y0090016D02*
X0194117Y0090016D01*
X0194117Y0089418D02*
X0206173Y0089418D01*
X0206173Y0088819D02*
X0194032Y0088819D01*
X0193784Y0088221D02*
X0206173Y0088221D01*
X0206173Y0087622D02*
X0193335Y0087622D01*
X0192886Y0087024D02*
X0206173Y0087024D01*
X0206173Y0086425D02*
X0193485Y0086425D01*
X0193846Y0085827D02*
X0206173Y0085827D01*
X0206173Y0085228D02*
X0194094Y0085228D01*
X0194117Y0084630D02*
X0206173Y0084630D01*
X0206173Y0084031D02*
X0194117Y0084031D01*
X0193872Y0083433D02*
X0206173Y0083433D01*
X0206173Y0082834D02*
X0193547Y0082834D01*
X0192949Y0082236D02*
X0206173Y0082236D01*
X0206173Y0081637D02*
X0193273Y0081637D01*
X0193758Y0081039D02*
X0206173Y0081039D01*
X0206173Y0080440D02*
X0194006Y0080440D01*
X0194117Y0079841D02*
X0206173Y0079841D01*
X0206173Y0079243D02*
X0194117Y0079243D01*
X0193959Y0078644D02*
X0206173Y0078644D01*
X0206173Y0078046D02*
X0193712Y0078046D01*
X0193161Y0077447D02*
X0206173Y0077447D01*
X0206173Y0076849D02*
X0193061Y0076849D01*
X0193660Y0076250D02*
X0206173Y0076250D01*
X0206173Y0075652D02*
X0193918Y0075652D01*
X0194117Y0075053D02*
X0206173Y0075053D01*
X0206173Y0074455D02*
X0194117Y0074455D01*
X0194047Y0073856D02*
X0206173Y0073856D01*
X0206173Y0073258D02*
X0193799Y0073258D01*
X0193373Y0072659D02*
X0206173Y0072659D01*
X0206173Y0072061D02*
X0197825Y0072061D01*
X0198448Y0071462D02*
X0206173Y0071462D01*
X0206173Y0070864D02*
X0198830Y0070864D01*
X0199078Y0070265D02*
X0206173Y0070265D01*
X0206173Y0069667D02*
X0199117Y0069667D01*
X0199117Y0069068D02*
X0206173Y0069068D01*
X0206173Y0068470D02*
X0198887Y0068470D01*
X0198585Y0067871D02*
X0206173Y0067871D01*
X0206173Y0067273D02*
X0198133Y0067273D01*
X0197633Y0066674D02*
X0206173Y0066674D01*
X0206173Y0066076D02*
X0197035Y0066076D01*
X0196436Y0065477D02*
X0206173Y0065477D01*
X0206173Y0064879D02*
X0195838Y0064879D01*
X0195239Y0064280D02*
X0206173Y0064280D01*
X0206173Y0063682D02*
X0194641Y0063682D01*
X0194042Y0063083D02*
X0206173Y0063083D01*
X0206173Y0062485D02*
X0193444Y0062485D01*
X0192845Y0061886D02*
X0206173Y0061886D01*
X0206173Y0061288D02*
X0192247Y0061288D01*
X0191648Y0060689D02*
X0206173Y0060689D01*
X0192259Y0066674D02*
X0183672Y0066674D01*
X0183672Y0066076D02*
X0191661Y0066076D01*
X0191062Y0065477D02*
X0183672Y0065477D01*
X0183672Y0064879D02*
X0190464Y0064879D01*
X0189479Y0067273D02*
X0183672Y0067273D01*
X0183672Y0067871D02*
X0188881Y0067871D01*
X0188578Y0068470D02*
X0183672Y0068470D01*
X0183672Y0069068D02*
X0188348Y0069068D01*
X0188348Y0069667D02*
X0183672Y0069667D01*
X0183672Y0070265D02*
X0188387Y0070265D01*
X0188635Y0070864D02*
X0183672Y0070864D01*
X0183672Y0071462D02*
X0189018Y0071462D01*
X0189641Y0072061D02*
X0183672Y0072061D01*
X0183672Y0072659D02*
X0189093Y0072659D01*
X0188666Y0073258D02*
X0183672Y0073258D01*
X0183672Y0073856D02*
X0188418Y0073856D01*
X0188348Y0074455D02*
X0183504Y0074455D01*
X0183172Y0075053D02*
X0188348Y0075053D01*
X0188547Y0075652D02*
X0183172Y0075652D01*
X0183172Y0076250D02*
X0188806Y0076250D01*
X0189404Y0076849D02*
X0183172Y0076849D01*
X0183172Y0077447D02*
X0189305Y0077447D01*
X0188754Y0078046D02*
X0183172Y0078046D01*
X0183172Y0078644D02*
X0188506Y0078644D01*
X0188348Y0079243D02*
X0183172Y0079243D01*
X0183172Y0079841D02*
X0188348Y0079841D01*
X0188459Y0080440D02*
X0183172Y0080440D01*
X0183172Y0081039D02*
X0188707Y0081039D01*
X0189192Y0081637D02*
X0183172Y0081637D01*
X0183172Y0082236D02*
X0189517Y0082236D01*
X0188918Y0082834D02*
X0183172Y0082834D01*
X0183172Y0083433D02*
X0188594Y0083433D01*
X0188348Y0084031D02*
X0183172Y0084031D01*
X0183172Y0084630D02*
X0188348Y0084630D01*
X0188372Y0085228D02*
X0183172Y0085228D01*
X0183172Y0085827D02*
X0188620Y0085827D01*
X0188980Y0086425D02*
X0183172Y0086425D01*
X0183172Y0087024D02*
X0189579Y0087024D01*
X0189130Y0087622D02*
X0183172Y0087622D01*
X0183161Y0088221D02*
X0188682Y0088221D01*
X0188434Y0088819D02*
X0183161Y0088819D01*
X0183172Y0089418D02*
X0188348Y0089418D01*
X0188348Y0090016D02*
X0183172Y0090016D01*
X0183172Y0090615D02*
X0188532Y0090615D01*
X0188780Y0091213D02*
X0183172Y0091213D01*
X0183172Y0091812D02*
X0189367Y0091812D01*
X0190484Y0092410D02*
X0183172Y0092410D01*
X0192825Y0072061D02*
X0194641Y0072061D01*
X0194018Y0071462D02*
X0193448Y0071462D01*
X0180372Y0059492D02*
X0134672Y0059492D01*
X0134672Y0058894D02*
X0180372Y0058894D01*
X0180372Y0058295D02*
X0134672Y0058295D01*
X0134672Y0057697D02*
X0180372Y0057697D01*
X0180372Y0057098D02*
X0134672Y0057098D01*
X0134672Y0056500D02*
X0180372Y0056500D01*
X0180372Y0055901D02*
X0134672Y0055901D01*
X0134672Y0055303D02*
X0180372Y0055303D01*
X0180372Y0054704D02*
X0134672Y0054704D01*
X0134672Y0054105D02*
X0180372Y0054105D01*
X0180372Y0053507D02*
X0134672Y0053507D01*
X0134672Y0052908D02*
X0180372Y0052908D01*
X0180372Y0052310D02*
X0134672Y0052310D01*
X0134672Y0051711D02*
X0180372Y0051711D01*
X0180372Y0051113D02*
X0134672Y0051113D01*
X0134672Y0050514D02*
X0180372Y0050514D01*
X0180372Y0049916D02*
X0134672Y0049916D01*
X0134672Y0049317D02*
X0180372Y0049317D01*
X0180372Y0048719D02*
X0134672Y0048719D01*
X0134080Y0048120D02*
X0180372Y0048120D01*
X0179415Y0047522D02*
X0133481Y0047522D01*
X0132882Y0046923D02*
X0178817Y0046923D01*
X0178383Y0046325D02*
X0132284Y0046325D01*
X0131685Y0045726D02*
X0178383Y0045726D01*
X0178383Y0045128D02*
X0131161Y0045128D01*
X0131161Y0044529D02*
X0178383Y0044529D01*
X0178963Y0043931D02*
X0130581Y0043931D01*
X0129983Y0043332D02*
X0179561Y0043332D01*
X0205945Y0016998D02*
X0034219Y0016998D01*
X0034383Y0016399D02*
X0102293Y0016399D01*
X0102783Y0016889D02*
X0101383Y0015490D01*
X0101383Y0013510D01*
X0102783Y0012111D01*
X0104181Y0012111D01*
X0104192Y0012100D01*
X0109352Y0012100D01*
X0109363Y0012111D01*
X0110762Y0012111D01*
X0112161Y0013510D01*
X0112161Y0015490D01*
X0110762Y0016889D01*
X0108783Y0016889D01*
X0107383Y0015490D01*
X0107383Y0014900D01*
X0106161Y0014900D01*
X0106161Y0015490D01*
X0104762Y0016889D01*
X0102783Y0016889D01*
X0101694Y0015801D02*
X0034547Y0015801D01*
X0034712Y0015202D02*
X0101383Y0015202D01*
X0101383Y0014604D02*
X0034876Y0014604D01*
X0035142Y0014005D02*
X0101383Y0014005D01*
X0101487Y0013407D02*
X0035491Y0013407D01*
X0035841Y0012808D02*
X0102085Y0012808D01*
X0102684Y0012210D02*
X0036190Y0012210D01*
X0036539Y0011611D02*
X0203649Y0011611D01*
X0203995Y0012210D02*
X0110860Y0012210D01*
X0111459Y0012808D02*
X0204340Y0012808D01*
X0204686Y0013407D02*
X0112057Y0013407D01*
X0112161Y0014005D02*
X0205031Y0014005D01*
X0205303Y0014604D02*
X0112161Y0014604D01*
X0112161Y0015202D02*
X0205464Y0015202D01*
X0205624Y0015801D02*
X0111850Y0015801D01*
X0111251Y0016399D02*
X0205785Y0016399D01*
X0203057Y0011013D02*
X0037126Y0011013D01*
X0037729Y0010414D02*
X0202459Y0010414D01*
X0201860Y0009816D02*
X0038332Y0009816D01*
X0039010Y0009217D02*
X0201177Y0009217D01*
X0200140Y0008619D02*
X0040053Y0008619D01*
X0041095Y0008020D02*
X0199104Y0008020D01*
X0197444Y0007422D02*
X0042753Y0007422D01*
X0045937Y0006823D02*
X0194269Y0006823D01*
X0130501Y0049916D02*
X0113472Y0049916D01*
X0113472Y0050514D02*
X0130872Y0050514D01*
X0130872Y0051113D02*
X0113472Y0051113D01*
X0113472Y0051711D02*
X0130872Y0051711D01*
X0130872Y0052310D02*
X0113472Y0052310D01*
X0113472Y0052908D02*
X0130872Y0052908D01*
X0130872Y0053507D02*
X0113472Y0053507D01*
X0113472Y0054105D02*
X0130872Y0054105D01*
X0130872Y0054704D02*
X0113472Y0054704D01*
X0113472Y0055303D02*
X0130872Y0055303D01*
X0130872Y0055901D02*
X0113472Y0055901D01*
X0113345Y0056500D02*
X0130872Y0056500D01*
X0130872Y0057098D02*
X0109154Y0057098D01*
X0108555Y0057697D02*
X0130872Y0057697D01*
X0130872Y0058295D02*
X0129946Y0058295D01*
X0130544Y0058894D02*
X0130872Y0058894D01*
X0130872Y0061886D02*
X0130764Y0061886D01*
X0130872Y0062485D02*
X0130172Y0062485D01*
X0130172Y0063083D02*
X0130872Y0063083D01*
X0130872Y0063682D02*
X0130172Y0063682D01*
X0130305Y0064280D02*
X0129972Y0064280D01*
X0129706Y0064879D02*
X0129373Y0064879D01*
X0129108Y0065477D02*
X0128775Y0065477D01*
X0128509Y0066076D02*
X0128176Y0066076D01*
X0127911Y0066674D02*
X0127578Y0066674D01*
X0127872Y0067273D02*
X0126979Y0067273D01*
X0126381Y0067871D02*
X0127872Y0067871D01*
X0127872Y0068470D02*
X0125782Y0068470D01*
X0125184Y0069068D02*
X0127825Y0069068D01*
X0127383Y0069667D02*
X0125172Y0069667D01*
X0125172Y0070265D02*
X0127383Y0070265D01*
X0127383Y0070864D02*
X0125172Y0070864D01*
X0125172Y0071462D02*
X0127383Y0071462D01*
X0127954Y0072061D02*
X0125172Y0072061D01*
X0125172Y0072659D02*
X0128553Y0072659D01*
X0124815Y0065477D02*
X0100775Y0065477D01*
X0101373Y0064879D02*
X0125414Y0064879D01*
X0126012Y0064280D02*
X0101972Y0064280D01*
X0102570Y0063682D02*
X0126611Y0063682D01*
X0127209Y0063083D02*
X0103169Y0063083D01*
X0103767Y0062485D02*
X0127372Y0062485D01*
X0126780Y0061886D02*
X0104366Y0061886D01*
X0104964Y0061288D02*
X0126383Y0061288D01*
X0126383Y0060689D02*
X0105563Y0060689D01*
X0106161Y0060091D02*
X0126383Y0060091D01*
X0126401Y0059492D02*
X0106760Y0059492D01*
X0107358Y0058894D02*
X0127000Y0058894D01*
X0127599Y0058295D02*
X0107957Y0058295D01*
X0104199Y0056500D02*
X0089752Y0056500D01*
X0090351Y0055901D02*
X0104072Y0055901D01*
X0104072Y0055303D02*
X0090949Y0055303D01*
X0091548Y0054704D02*
X0104072Y0054704D01*
X0104072Y0054105D02*
X0092147Y0054105D01*
X0092745Y0053507D02*
X0093401Y0053507D01*
X0090581Y0051711D02*
X0089365Y0051711D01*
X0089365Y0051113D02*
X0091179Y0051113D01*
X0091778Y0050514D02*
X0089365Y0050514D01*
X0089365Y0049916D02*
X0092978Y0049916D01*
X0093576Y0049317D02*
X0089365Y0049317D01*
X0089365Y0048719D02*
X0104072Y0048719D01*
X0104072Y0049317D02*
X0095968Y0049317D01*
X0096567Y0049916D02*
X0104072Y0049916D01*
X0104072Y0050514D02*
X0097161Y0050514D01*
X0097161Y0051113D02*
X0104072Y0051113D01*
X0104072Y0051711D02*
X0097161Y0051711D01*
X0097161Y0052310D02*
X0104072Y0052310D01*
X0104072Y0052908D02*
X0096742Y0052908D01*
X0096144Y0053507D02*
X0104072Y0053507D01*
X0104072Y0048120D02*
X0089365Y0048120D01*
X0089365Y0047522D02*
X0104072Y0047522D01*
X0104072Y0046923D02*
X0089365Y0046923D01*
X0089365Y0046325D02*
X0104072Y0046325D01*
X0104072Y0045726D02*
X0089365Y0045726D01*
X0089365Y0045128D02*
X0104072Y0045128D01*
X0104072Y0044529D02*
X0057049Y0044529D01*
X0056451Y0043931D02*
X0104072Y0043931D01*
X0113472Y0043931D02*
X0126963Y0043931D01*
X0126383Y0044529D02*
X0113472Y0044529D01*
X0113472Y0045128D02*
X0126383Y0045128D01*
X0126383Y0045726D02*
X0113472Y0045726D01*
X0113472Y0046325D02*
X0126383Y0046325D01*
X0126817Y0046923D02*
X0113472Y0046923D01*
X0113472Y0047522D02*
X0127415Y0047522D01*
X0128706Y0048120D02*
X0113472Y0048120D01*
X0113472Y0048719D02*
X0129304Y0048719D01*
X0129903Y0049317D02*
X0113472Y0049317D01*
X0113472Y0043332D02*
X0127561Y0043332D01*
X0089982Y0052310D02*
X0089365Y0052310D01*
X0089365Y0052908D02*
X0089384Y0052908D01*
X0091691Y0069068D02*
X0083184Y0069068D01*
X0083172Y0069667D02*
X0100959Y0069667D01*
X0101558Y0070265D02*
X0083172Y0070265D01*
X0083172Y0070864D02*
X0102156Y0070864D01*
X0102755Y0071462D02*
X0083172Y0071462D01*
X0083172Y0072061D02*
X0103353Y0072061D01*
X0103952Y0072659D02*
X0083310Y0072659D01*
X0083909Y0073258D02*
X0104072Y0073258D01*
X0104072Y0073856D02*
X0084161Y0073856D01*
X0084161Y0074455D02*
X0104072Y0074455D01*
X0104072Y0075053D02*
X0084161Y0075053D01*
X0083999Y0075652D02*
X0104072Y0075652D01*
X0104072Y0076250D02*
X0083400Y0076250D01*
X0082802Y0076849D02*
X0104072Y0076849D01*
X0100361Y0069068D02*
X0095853Y0069068D01*
X0057259Y0110366D02*
X0056548Y0110366D01*
X0062372Y0111563D02*
X0033322Y0111563D01*
X0033318Y0112161D02*
X0062372Y0112161D01*
X0062372Y0112760D02*
X0033314Y0112760D01*
X0033309Y0113358D02*
X0062372Y0113358D01*
X0062372Y0113957D02*
X0033305Y0113957D01*
X0033301Y0114555D02*
X0062372Y0114555D01*
X0062372Y0115154D02*
X0033296Y0115154D01*
X0033292Y0115752D02*
X0062372Y0115752D01*
X0062372Y0116351D02*
X0033288Y0116351D01*
X0033284Y0116949D02*
X0062372Y0116949D01*
X0062372Y0117548D02*
X0033279Y0117548D01*
X0033275Y0118146D02*
X0062372Y0118146D01*
X0062372Y0118745D02*
X0033271Y0118745D01*
X0033266Y0119343D02*
X0062383Y0119343D01*
X0062383Y0119942D02*
X0033262Y0119942D01*
X0033258Y0120540D02*
X0062434Y0120540D01*
X0063032Y0121139D02*
X0033253Y0121139D01*
X0033249Y0121737D02*
X0063372Y0121737D01*
X0063372Y0122336D02*
X0033245Y0122336D01*
X0033241Y0122934D02*
X0063372Y0122934D01*
X0063372Y0123533D02*
X0033236Y0123533D01*
X0033232Y0124131D02*
X0063372Y0124131D01*
X0063372Y0124730D02*
X0033230Y0124730D01*
X0033259Y0125328D02*
X0063372Y0125328D01*
X0063372Y0125927D02*
X0033289Y0125927D01*
X0033393Y0126525D02*
X0063372Y0126525D01*
X0063372Y0127124D02*
X0033526Y0127124D01*
X0033659Y0127722D02*
X0063372Y0127722D01*
X0063372Y0128321D02*
X0033792Y0128321D01*
X0033947Y0128919D02*
X0063372Y0128919D01*
X0063372Y0129518D02*
X0034232Y0129518D01*
X0034516Y0130116D02*
X0063409Y0130116D01*
X0064007Y0130715D02*
X0034801Y0130715D01*
X0035085Y0131313D02*
X0064606Y0131313D01*
X0065204Y0131912D02*
X0035543Y0131912D01*
X0036016Y0132510D02*
X0065803Y0132510D01*
X0066401Y0133109D02*
X0036489Y0133109D01*
X0037028Y0133708D02*
X0067000Y0133708D01*
X0067598Y0134306D02*
X0037774Y0134306D01*
X0038520Y0134905D02*
X0068197Y0134905D01*
X0068795Y0135503D02*
X0039416Y0135503D01*
X0040652Y0136102D02*
X0069394Y0136102D01*
X0069992Y0136700D02*
X0042252Y0136700D01*
X0066172Y0128919D02*
X0120373Y0128919D01*
X0120971Y0128321D02*
X0066172Y0128321D01*
X0066172Y0127722D02*
X0121570Y0127722D01*
X0122168Y0127124D02*
X0066172Y0127124D01*
X0066172Y0126525D02*
X0122767Y0126525D01*
X0123365Y0125927D02*
X0066172Y0125927D01*
X0066172Y0125328D02*
X0123964Y0125328D01*
X0124383Y0124730D02*
X0066172Y0124730D01*
X0066172Y0124131D02*
X0124383Y0124131D01*
X0124383Y0123533D02*
X0066172Y0123533D01*
X0066172Y0122934D02*
X0124959Y0122934D01*
X0125558Y0122336D02*
X0066172Y0122336D01*
X0066172Y0121737D02*
X0206173Y0121737D01*
X0206173Y0121139D02*
X0066512Y0121139D01*
X0066770Y0129518D02*
X0119774Y0129518D01*
X0119176Y0130116D02*
X0067368Y0130116D01*
X0067967Y0130715D02*
X0118577Y0130715D01*
X0117979Y0131313D02*
X0068565Y0131313D01*
X0069164Y0131912D02*
X0117380Y0131912D01*
X0116782Y0132510D02*
X0069762Y0132510D01*
X0070361Y0133109D02*
X0116183Y0133109D01*
X0115585Y0133708D02*
X0092358Y0133708D01*
X0092957Y0134306D02*
X0114986Y0134306D01*
X0114388Y0134905D02*
X0093161Y0134905D01*
X0089186Y0133708D02*
X0070960Y0133708D01*
X0071558Y0134306D02*
X0088588Y0134306D01*
X0088383Y0134905D02*
X0072157Y0134905D01*
X0116552Y0136700D02*
X0197096Y0136700D01*
X0198915Y0136102D02*
X0117150Y0136102D01*
X0117749Y0135503D02*
X0199952Y0135503D01*
X0200989Y0134905D02*
X0118347Y0134905D01*
X0118946Y0134306D02*
X0201738Y0134306D01*
X0202337Y0133708D02*
X0119545Y0133708D01*
X0120143Y0133109D02*
X0202935Y0133109D01*
X0203534Y0132510D02*
X0120742Y0132510D01*
X0121340Y0131912D02*
X0203917Y0131912D01*
X0204263Y0131313D02*
X0121939Y0131313D01*
X0122537Y0130715D02*
X0204608Y0130715D01*
X0204954Y0130116D02*
X0123136Y0130116D01*
X0123734Y0129518D02*
X0205264Y0129518D01*
X0205425Y0128919D02*
X0124333Y0128919D01*
X0124931Y0128321D02*
X0205585Y0128321D01*
X0205745Y0127722D02*
X0125530Y0127722D01*
X0126128Y0127124D02*
X0205906Y0127124D01*
X0206066Y0126525D02*
X0128125Y0126525D01*
X0128724Y0125927D02*
X0206106Y0125927D01*
X0206145Y0125328D02*
X0129161Y0125328D01*
X0129161Y0124730D02*
X0206173Y0124730D01*
X0206173Y0124131D02*
X0129161Y0124131D01*
X0129161Y0123533D02*
X0206173Y0123533D01*
X0206173Y0122934D02*
X0128585Y0122934D01*
X0127986Y0122336D02*
X0206173Y0122336D01*
X0108293Y0016399D02*
X0105251Y0016399D01*
X0105850Y0015801D02*
X0107694Y0015801D01*
X0107383Y0015202D02*
X0106161Y0015202D01*
M02*
