G75*
%MOIN*%
%OFA0B0*%
%FSLAX25Y25*%
%IPPOS*%
%LPD*%
%AMOC8*
5,1,8,0,0,1.08239X$1,22.5*
%
%ADD10R,0.03162X0.03162*%
%ADD11R,0.08674X0.05524*%
%ADD12R,0.13005X0.02769*%
%ADD13R,0.10643X0.08674*%
%ADD14R,0.13792X0.08674*%
%ADD15C,0.04343*%
%ADD16R,0.03950X0.03950*%
%ADD17R,0.06706X0.05800*%
%ADD18R,0.07099X0.07898*%
%ADD19R,0.01863X0.03300*%
%ADD20R,0.07099X0.04343*%
%ADD21R,0.09461X0.03162*%
%ADD22C,0.00450*%
%ADD23C,0.04481*%
%ADD24C,0.05800*%
%ADD25C,0.04769*%
%ADD26C,0.03778*%
D10*
X0078804Y0050500D03*
X0082741Y0050500D03*
X0082741Y0055500D03*
X0078804Y0055500D03*
X0098772Y0045469D03*
X0103772Y0045469D03*
X0108772Y0045469D03*
X0108772Y0041531D03*
X0103772Y0041531D03*
X0098772Y0041531D03*
X0089741Y0039500D03*
X0085804Y0039500D03*
X0085804Y0034500D03*
X0089741Y0034500D03*
X0113772Y0041531D03*
X0113772Y0045469D03*
X0108741Y0052500D03*
X0104804Y0052500D03*
X0088772Y0071531D03*
X0088772Y0075469D03*
X0038741Y0106500D03*
X0034804Y0106500D03*
X0046804Y0111500D03*
X0050741Y0111500D03*
X0050741Y0116500D03*
X0046804Y0116500D03*
X0044772Y0123531D03*
X0044772Y0127469D03*
X0049772Y0127469D03*
X0049772Y0123531D03*
X0054772Y0123531D03*
X0054772Y0127469D03*
X0059772Y0127469D03*
X0059772Y0123531D03*
X0111772Y0126531D03*
X0111772Y0130469D03*
X0105741Y0010500D03*
X0101804Y0010500D03*
D11*
X0090772Y0017201D03*
X0078772Y0017201D03*
X0078772Y0029799D03*
X0090772Y0029799D03*
D12*
X0064583Y0051201D03*
X0064583Y0054350D03*
X0064583Y0057500D03*
X0064583Y0060650D03*
X0064583Y0063799D03*
D13*
X0040961Y0075020D03*
X0040961Y0039980D03*
D14*
X0064189Y0039980D03*
X0064189Y0075020D03*
D15*
X0052772Y0066161D03*
X0052772Y0048839D03*
D16*
X0078819Y0043500D03*
X0084725Y0043500D03*
X0040725Y0111500D03*
X0034819Y0111500D03*
X0034819Y0116500D03*
X0040725Y0116500D03*
D17*
X0119297Y0029646D03*
X0119297Y0017646D03*
D18*
X0150174Y0052500D03*
X0161371Y0052500D03*
X0161371Y0062500D03*
X0150174Y0062500D03*
X0150174Y0086500D03*
X0161371Y0086500D03*
X0161371Y0096500D03*
X0150174Y0096500D03*
X0150174Y0106500D03*
X0161371Y0106500D03*
X0161371Y0116500D03*
X0150174Y0116500D03*
D19*
X0105772Y0027697D03*
X0103804Y0027697D03*
X0101835Y0027697D03*
X0099867Y0027697D03*
X0099867Y0019429D03*
X0101835Y0019429D03*
X0103804Y0019429D03*
X0105772Y0019429D03*
D20*
X0102819Y0023563D03*
D21*
X0136662Y0039000D03*
X0136662Y0044000D03*
X0136662Y0049000D03*
X0136662Y0054000D03*
X0136662Y0059000D03*
X0136662Y0064000D03*
X0136662Y0069000D03*
X0136662Y0074000D03*
X0136662Y0084000D03*
X0136662Y0089000D03*
X0136662Y0094000D03*
X0136662Y0099000D03*
X0136662Y0104000D03*
X0136662Y0109000D03*
X0136662Y0114000D03*
X0136662Y0119000D03*
X0172882Y0119000D03*
X0172882Y0114000D03*
X0172882Y0109000D03*
X0172882Y0104000D03*
X0172882Y0099000D03*
X0172882Y0094000D03*
X0172882Y0089000D03*
X0172882Y0084000D03*
X0172882Y0074000D03*
X0172882Y0069000D03*
X0172882Y0064000D03*
X0172882Y0059000D03*
X0172882Y0054000D03*
X0172882Y0049000D03*
X0172882Y0044000D03*
X0172882Y0039000D03*
D22*
X0109211Y0087606D02*
X0107861Y0087606D01*
X0109211Y0087606D02*
X0109211Y0080256D01*
X0107861Y0080256D01*
X0107861Y0087606D01*
X0107861Y0080705D02*
X0109211Y0080705D01*
X0109211Y0081154D02*
X0107861Y0081154D01*
X0107861Y0081603D02*
X0109211Y0081603D01*
X0109211Y0082052D02*
X0107861Y0082052D01*
X0107861Y0082501D02*
X0109211Y0082501D01*
X0109211Y0082950D02*
X0107861Y0082950D01*
X0107861Y0083399D02*
X0109211Y0083399D01*
X0109211Y0083848D02*
X0107861Y0083848D01*
X0107861Y0084297D02*
X0109211Y0084297D01*
X0109211Y0084746D02*
X0107861Y0084746D01*
X0107861Y0085195D02*
X0109211Y0085195D01*
X0109211Y0085644D02*
X0107861Y0085644D01*
X0107861Y0086093D02*
X0109211Y0086093D01*
X0109211Y0086542D02*
X0107861Y0086542D01*
X0107861Y0086991D02*
X0109211Y0086991D01*
X0109211Y0087440D02*
X0107861Y0087440D01*
X0107242Y0087606D02*
X0105892Y0087606D01*
X0107242Y0087606D02*
X0107242Y0080256D01*
X0105892Y0080256D01*
X0105892Y0087606D01*
X0105892Y0080705D02*
X0107242Y0080705D01*
X0107242Y0081154D02*
X0105892Y0081154D01*
X0105892Y0081603D02*
X0107242Y0081603D01*
X0107242Y0082052D02*
X0105892Y0082052D01*
X0105892Y0082501D02*
X0107242Y0082501D01*
X0107242Y0082950D02*
X0105892Y0082950D01*
X0105892Y0083399D02*
X0107242Y0083399D01*
X0107242Y0083848D02*
X0105892Y0083848D01*
X0105892Y0084297D02*
X0107242Y0084297D01*
X0107242Y0084746D02*
X0105892Y0084746D01*
X0105892Y0085195D02*
X0107242Y0085195D01*
X0107242Y0085644D02*
X0105892Y0085644D01*
X0105892Y0086093D02*
X0107242Y0086093D01*
X0107242Y0086542D02*
X0105892Y0086542D01*
X0105892Y0086991D02*
X0107242Y0086991D01*
X0107242Y0087440D02*
X0105892Y0087440D01*
X0105274Y0087606D02*
X0103924Y0087606D01*
X0105274Y0087606D02*
X0105274Y0080256D01*
X0103924Y0080256D01*
X0103924Y0087606D01*
X0103924Y0080705D02*
X0105274Y0080705D01*
X0105274Y0081154D02*
X0103924Y0081154D01*
X0103924Y0081603D02*
X0105274Y0081603D01*
X0105274Y0082052D02*
X0103924Y0082052D01*
X0103924Y0082501D02*
X0105274Y0082501D01*
X0105274Y0082950D02*
X0103924Y0082950D01*
X0103924Y0083399D02*
X0105274Y0083399D01*
X0105274Y0083848D02*
X0103924Y0083848D01*
X0103924Y0084297D02*
X0105274Y0084297D01*
X0105274Y0084746D02*
X0103924Y0084746D01*
X0103924Y0085195D02*
X0105274Y0085195D01*
X0105274Y0085644D02*
X0103924Y0085644D01*
X0103924Y0086093D02*
X0105274Y0086093D01*
X0105274Y0086542D02*
X0103924Y0086542D01*
X0103924Y0086991D02*
X0105274Y0086991D01*
X0105274Y0087440D02*
X0103924Y0087440D01*
X0103305Y0087606D02*
X0101955Y0087606D01*
X0103305Y0087606D02*
X0103305Y0080256D01*
X0101955Y0080256D01*
X0101955Y0087606D01*
X0101955Y0080705D02*
X0103305Y0080705D01*
X0103305Y0081154D02*
X0101955Y0081154D01*
X0101955Y0081603D02*
X0103305Y0081603D01*
X0103305Y0082052D02*
X0101955Y0082052D01*
X0101955Y0082501D02*
X0103305Y0082501D01*
X0103305Y0082950D02*
X0101955Y0082950D01*
X0101955Y0083399D02*
X0103305Y0083399D01*
X0103305Y0083848D02*
X0101955Y0083848D01*
X0101955Y0084297D02*
X0103305Y0084297D01*
X0103305Y0084746D02*
X0101955Y0084746D01*
X0101955Y0085195D02*
X0103305Y0085195D01*
X0103305Y0085644D02*
X0101955Y0085644D01*
X0101955Y0086093D02*
X0103305Y0086093D01*
X0103305Y0086542D02*
X0101955Y0086542D01*
X0101955Y0086991D02*
X0103305Y0086991D01*
X0103305Y0087440D02*
X0101955Y0087440D01*
X0101337Y0087606D02*
X0099987Y0087606D01*
X0101337Y0087606D02*
X0101337Y0080256D01*
X0099987Y0080256D01*
X0099987Y0087606D01*
X0099987Y0080705D02*
X0101337Y0080705D01*
X0101337Y0081154D02*
X0099987Y0081154D01*
X0099987Y0081603D02*
X0101337Y0081603D01*
X0101337Y0082052D02*
X0099987Y0082052D01*
X0099987Y0082501D02*
X0101337Y0082501D01*
X0101337Y0082950D02*
X0099987Y0082950D01*
X0099987Y0083399D02*
X0101337Y0083399D01*
X0101337Y0083848D02*
X0099987Y0083848D01*
X0099987Y0084297D02*
X0101337Y0084297D01*
X0101337Y0084746D02*
X0099987Y0084746D01*
X0099987Y0085195D02*
X0101337Y0085195D01*
X0101337Y0085644D02*
X0099987Y0085644D01*
X0099987Y0086093D02*
X0101337Y0086093D01*
X0101337Y0086542D02*
X0099987Y0086542D01*
X0099987Y0086991D02*
X0101337Y0086991D01*
X0101337Y0087440D02*
X0099987Y0087440D01*
X0099368Y0087606D02*
X0098018Y0087606D01*
X0099368Y0087606D02*
X0099368Y0080256D01*
X0098018Y0080256D01*
X0098018Y0087606D01*
X0098018Y0080705D02*
X0099368Y0080705D01*
X0099368Y0081154D02*
X0098018Y0081154D01*
X0098018Y0081603D02*
X0099368Y0081603D01*
X0099368Y0082052D02*
X0098018Y0082052D01*
X0098018Y0082501D02*
X0099368Y0082501D01*
X0099368Y0082950D02*
X0098018Y0082950D01*
X0098018Y0083399D02*
X0099368Y0083399D01*
X0099368Y0083848D02*
X0098018Y0083848D01*
X0098018Y0084297D02*
X0099368Y0084297D01*
X0099368Y0084746D02*
X0098018Y0084746D01*
X0098018Y0085195D02*
X0099368Y0085195D01*
X0099368Y0085644D02*
X0098018Y0085644D01*
X0098018Y0086093D02*
X0099368Y0086093D01*
X0099368Y0086542D02*
X0098018Y0086542D01*
X0098018Y0086991D02*
X0099368Y0086991D01*
X0099368Y0087440D02*
X0098018Y0087440D01*
X0097400Y0087606D02*
X0096050Y0087606D01*
X0097400Y0087606D02*
X0097400Y0080256D01*
X0096050Y0080256D01*
X0096050Y0087606D01*
X0096050Y0080705D02*
X0097400Y0080705D01*
X0097400Y0081154D02*
X0096050Y0081154D01*
X0096050Y0081603D02*
X0097400Y0081603D01*
X0097400Y0082052D02*
X0096050Y0082052D01*
X0096050Y0082501D02*
X0097400Y0082501D01*
X0097400Y0082950D02*
X0096050Y0082950D01*
X0096050Y0083399D02*
X0097400Y0083399D01*
X0097400Y0083848D02*
X0096050Y0083848D01*
X0096050Y0084297D02*
X0097400Y0084297D01*
X0097400Y0084746D02*
X0096050Y0084746D01*
X0096050Y0085195D02*
X0097400Y0085195D01*
X0097400Y0085644D02*
X0096050Y0085644D01*
X0096050Y0086093D02*
X0097400Y0086093D01*
X0097400Y0086542D02*
X0096050Y0086542D01*
X0096050Y0086991D02*
X0097400Y0086991D01*
X0097400Y0087440D02*
X0096050Y0087440D01*
X0095431Y0087606D02*
X0094081Y0087606D01*
X0095431Y0087606D02*
X0095431Y0080256D01*
X0094081Y0080256D01*
X0094081Y0087606D01*
X0094081Y0080705D02*
X0095431Y0080705D01*
X0095431Y0081154D02*
X0094081Y0081154D01*
X0094081Y0081603D02*
X0095431Y0081603D01*
X0095431Y0082052D02*
X0094081Y0082052D01*
X0094081Y0082501D02*
X0095431Y0082501D01*
X0095431Y0082950D02*
X0094081Y0082950D01*
X0094081Y0083399D02*
X0095431Y0083399D01*
X0095431Y0083848D02*
X0094081Y0083848D01*
X0094081Y0084297D02*
X0095431Y0084297D01*
X0095431Y0084746D02*
X0094081Y0084746D01*
X0094081Y0085195D02*
X0095431Y0085195D01*
X0095431Y0085644D02*
X0094081Y0085644D01*
X0094081Y0086093D02*
X0095431Y0086093D01*
X0095431Y0086542D02*
X0094081Y0086542D01*
X0094081Y0086991D02*
X0095431Y0086991D01*
X0095431Y0087440D02*
X0094081Y0087440D01*
X0093463Y0087606D02*
X0092113Y0087606D01*
X0093463Y0087606D02*
X0093463Y0080256D01*
X0092113Y0080256D01*
X0092113Y0087606D01*
X0092113Y0080705D02*
X0093463Y0080705D01*
X0093463Y0081154D02*
X0092113Y0081154D01*
X0092113Y0081603D02*
X0093463Y0081603D01*
X0093463Y0082052D02*
X0092113Y0082052D01*
X0092113Y0082501D02*
X0093463Y0082501D01*
X0093463Y0082950D02*
X0092113Y0082950D01*
X0092113Y0083399D02*
X0093463Y0083399D01*
X0093463Y0083848D02*
X0092113Y0083848D01*
X0092113Y0084297D02*
X0093463Y0084297D01*
X0093463Y0084746D02*
X0092113Y0084746D01*
X0092113Y0085195D02*
X0093463Y0085195D01*
X0093463Y0085644D02*
X0092113Y0085644D01*
X0092113Y0086093D02*
X0093463Y0086093D01*
X0093463Y0086542D02*
X0092113Y0086542D01*
X0092113Y0086991D02*
X0093463Y0086991D01*
X0093463Y0087440D02*
X0092113Y0087440D01*
X0091494Y0087606D02*
X0090144Y0087606D01*
X0091494Y0087606D02*
X0091494Y0080256D01*
X0090144Y0080256D01*
X0090144Y0087606D01*
X0090144Y0080705D02*
X0091494Y0080705D01*
X0091494Y0081154D02*
X0090144Y0081154D01*
X0090144Y0081603D02*
X0091494Y0081603D01*
X0091494Y0082052D02*
X0090144Y0082052D01*
X0090144Y0082501D02*
X0091494Y0082501D01*
X0091494Y0082950D02*
X0090144Y0082950D01*
X0090144Y0083399D02*
X0091494Y0083399D01*
X0091494Y0083848D02*
X0090144Y0083848D01*
X0090144Y0084297D02*
X0091494Y0084297D01*
X0091494Y0084746D02*
X0090144Y0084746D01*
X0090144Y0085195D02*
X0091494Y0085195D01*
X0091494Y0085644D02*
X0090144Y0085644D01*
X0090144Y0086093D02*
X0091494Y0086093D01*
X0091494Y0086542D02*
X0090144Y0086542D01*
X0090144Y0086991D02*
X0091494Y0086991D01*
X0091494Y0087440D02*
X0090144Y0087440D01*
X0089526Y0087606D02*
X0088176Y0087606D01*
X0089526Y0087606D02*
X0089526Y0080256D01*
X0088176Y0080256D01*
X0088176Y0087606D01*
X0088176Y0080705D02*
X0089526Y0080705D01*
X0089526Y0081154D02*
X0088176Y0081154D01*
X0088176Y0081603D02*
X0089526Y0081603D01*
X0089526Y0082052D02*
X0088176Y0082052D01*
X0088176Y0082501D02*
X0089526Y0082501D01*
X0089526Y0082950D02*
X0088176Y0082950D01*
X0088176Y0083399D02*
X0089526Y0083399D01*
X0089526Y0083848D02*
X0088176Y0083848D01*
X0088176Y0084297D02*
X0089526Y0084297D01*
X0089526Y0084746D02*
X0088176Y0084746D01*
X0088176Y0085195D02*
X0089526Y0085195D01*
X0089526Y0085644D02*
X0088176Y0085644D01*
X0088176Y0086093D02*
X0089526Y0086093D01*
X0089526Y0086542D02*
X0088176Y0086542D01*
X0088176Y0086991D02*
X0089526Y0086991D01*
X0089526Y0087440D02*
X0088176Y0087440D01*
X0087557Y0087606D02*
X0086207Y0087606D01*
X0087557Y0087606D02*
X0087557Y0080256D01*
X0086207Y0080256D01*
X0086207Y0087606D01*
X0086207Y0080705D02*
X0087557Y0080705D01*
X0087557Y0081154D02*
X0086207Y0081154D01*
X0086207Y0081603D02*
X0087557Y0081603D01*
X0087557Y0082052D02*
X0086207Y0082052D01*
X0086207Y0082501D02*
X0087557Y0082501D01*
X0087557Y0082950D02*
X0086207Y0082950D01*
X0086207Y0083399D02*
X0087557Y0083399D01*
X0087557Y0083848D02*
X0086207Y0083848D01*
X0086207Y0084297D02*
X0087557Y0084297D01*
X0087557Y0084746D02*
X0086207Y0084746D01*
X0086207Y0085195D02*
X0087557Y0085195D01*
X0087557Y0085644D02*
X0086207Y0085644D01*
X0086207Y0086093D02*
X0087557Y0086093D01*
X0087557Y0086542D02*
X0086207Y0086542D01*
X0086207Y0086991D02*
X0087557Y0086991D01*
X0087557Y0087440D02*
X0086207Y0087440D01*
X0085589Y0087606D02*
X0084239Y0087606D01*
X0085589Y0087606D02*
X0085589Y0080256D01*
X0084239Y0080256D01*
X0084239Y0087606D01*
X0084239Y0080705D02*
X0085589Y0080705D01*
X0085589Y0081154D02*
X0084239Y0081154D01*
X0084239Y0081603D02*
X0085589Y0081603D01*
X0085589Y0082052D02*
X0084239Y0082052D01*
X0084239Y0082501D02*
X0085589Y0082501D01*
X0085589Y0082950D02*
X0084239Y0082950D01*
X0084239Y0083399D02*
X0085589Y0083399D01*
X0085589Y0083848D02*
X0084239Y0083848D01*
X0084239Y0084297D02*
X0085589Y0084297D01*
X0085589Y0084746D02*
X0084239Y0084746D01*
X0084239Y0085195D02*
X0085589Y0085195D01*
X0085589Y0085644D02*
X0084239Y0085644D01*
X0084239Y0086093D02*
X0085589Y0086093D01*
X0085589Y0086542D02*
X0084239Y0086542D01*
X0084239Y0086991D02*
X0085589Y0086991D01*
X0085589Y0087440D02*
X0084239Y0087440D01*
X0083620Y0087606D02*
X0082270Y0087606D01*
X0083620Y0087606D02*
X0083620Y0080256D01*
X0082270Y0080256D01*
X0082270Y0087606D01*
X0082270Y0080705D02*
X0083620Y0080705D01*
X0083620Y0081154D02*
X0082270Y0081154D01*
X0082270Y0081603D02*
X0083620Y0081603D01*
X0083620Y0082052D02*
X0082270Y0082052D01*
X0082270Y0082501D02*
X0083620Y0082501D01*
X0083620Y0082950D02*
X0082270Y0082950D01*
X0082270Y0083399D02*
X0083620Y0083399D01*
X0083620Y0083848D02*
X0082270Y0083848D01*
X0082270Y0084297D02*
X0083620Y0084297D01*
X0083620Y0084746D02*
X0082270Y0084746D01*
X0082270Y0085195D02*
X0083620Y0085195D01*
X0083620Y0085644D02*
X0082270Y0085644D01*
X0082270Y0086093D02*
X0083620Y0086093D01*
X0083620Y0086542D02*
X0082270Y0086542D01*
X0082270Y0086991D02*
X0083620Y0086991D01*
X0083620Y0087440D02*
X0082270Y0087440D01*
X0081652Y0087606D02*
X0080302Y0087606D01*
X0081652Y0087606D02*
X0081652Y0080256D01*
X0080302Y0080256D01*
X0080302Y0087606D01*
X0080302Y0080705D02*
X0081652Y0080705D01*
X0081652Y0081154D02*
X0080302Y0081154D01*
X0080302Y0081603D02*
X0081652Y0081603D01*
X0081652Y0082052D02*
X0080302Y0082052D01*
X0080302Y0082501D02*
X0081652Y0082501D01*
X0081652Y0082950D02*
X0080302Y0082950D01*
X0080302Y0083399D02*
X0081652Y0083399D01*
X0081652Y0083848D02*
X0080302Y0083848D01*
X0080302Y0084297D02*
X0081652Y0084297D01*
X0081652Y0084746D02*
X0080302Y0084746D01*
X0080302Y0085195D02*
X0081652Y0085195D01*
X0081652Y0085644D02*
X0080302Y0085644D01*
X0080302Y0086093D02*
X0081652Y0086093D01*
X0081652Y0086542D02*
X0080302Y0086542D01*
X0080302Y0086991D02*
X0081652Y0086991D01*
X0081652Y0087440D02*
X0080302Y0087440D01*
X0079683Y0087606D02*
X0078333Y0087606D01*
X0079683Y0087606D02*
X0079683Y0080256D01*
X0078333Y0080256D01*
X0078333Y0087606D01*
X0078333Y0080705D02*
X0079683Y0080705D01*
X0079683Y0081154D02*
X0078333Y0081154D01*
X0078333Y0081603D02*
X0079683Y0081603D01*
X0079683Y0082052D02*
X0078333Y0082052D01*
X0078333Y0082501D02*
X0079683Y0082501D01*
X0079683Y0082950D02*
X0078333Y0082950D01*
X0078333Y0083399D02*
X0079683Y0083399D01*
X0079683Y0083848D02*
X0078333Y0083848D01*
X0078333Y0084297D02*
X0079683Y0084297D01*
X0079683Y0084746D02*
X0078333Y0084746D01*
X0078333Y0085195D02*
X0079683Y0085195D01*
X0079683Y0085644D02*
X0078333Y0085644D01*
X0078333Y0086093D02*
X0079683Y0086093D01*
X0079683Y0086542D02*
X0078333Y0086542D01*
X0078333Y0086991D02*
X0079683Y0086991D01*
X0079683Y0087440D02*
X0078333Y0087440D01*
X0074878Y0091061D02*
X0074878Y0092411D01*
X0074878Y0091061D02*
X0067528Y0091061D01*
X0067528Y0092411D01*
X0074878Y0092411D01*
X0074878Y0091510D02*
X0067528Y0091510D01*
X0067528Y0091959D02*
X0074878Y0091959D01*
X0074878Y0092408D02*
X0067528Y0092408D01*
X0074878Y0093030D02*
X0074878Y0094380D01*
X0074878Y0093030D02*
X0067528Y0093030D01*
X0067528Y0094380D01*
X0074878Y0094380D01*
X0074878Y0093479D02*
X0067528Y0093479D01*
X0067528Y0093928D02*
X0074878Y0093928D01*
X0074878Y0094377D02*
X0067528Y0094377D01*
X0074878Y0094998D02*
X0074878Y0096348D01*
X0074878Y0094998D02*
X0067528Y0094998D01*
X0067528Y0096348D01*
X0074878Y0096348D01*
X0074878Y0095447D02*
X0067528Y0095447D01*
X0067528Y0095896D02*
X0074878Y0095896D01*
X0074878Y0096345D02*
X0067528Y0096345D01*
X0074878Y0096967D02*
X0074878Y0098317D01*
X0074878Y0096967D02*
X0067528Y0096967D01*
X0067528Y0098317D01*
X0074878Y0098317D01*
X0074878Y0097416D02*
X0067528Y0097416D01*
X0067528Y0097865D02*
X0074878Y0097865D01*
X0074878Y0098314D02*
X0067528Y0098314D01*
X0074878Y0098935D02*
X0074878Y0100285D01*
X0074878Y0098935D02*
X0067528Y0098935D01*
X0067528Y0100285D01*
X0074878Y0100285D01*
X0074878Y0099384D02*
X0067528Y0099384D01*
X0067528Y0099833D02*
X0074878Y0099833D01*
X0074878Y0100282D02*
X0067528Y0100282D01*
X0074878Y0100904D02*
X0074878Y0102254D01*
X0074878Y0100904D02*
X0067528Y0100904D01*
X0067528Y0102254D01*
X0074878Y0102254D01*
X0074878Y0101353D02*
X0067528Y0101353D01*
X0067528Y0101802D02*
X0074878Y0101802D01*
X0074878Y0102251D02*
X0067528Y0102251D01*
X0074878Y0102872D02*
X0074878Y0104222D01*
X0074878Y0102872D02*
X0067528Y0102872D01*
X0067528Y0104222D01*
X0074878Y0104222D01*
X0074878Y0103321D02*
X0067528Y0103321D01*
X0067528Y0103770D02*
X0074878Y0103770D01*
X0074878Y0104219D02*
X0067528Y0104219D01*
X0074878Y0104841D02*
X0074878Y0106191D01*
X0074878Y0104841D02*
X0067528Y0104841D01*
X0067528Y0106191D01*
X0074878Y0106191D01*
X0074878Y0105290D02*
X0067528Y0105290D01*
X0067528Y0105739D02*
X0074878Y0105739D01*
X0074878Y0106188D02*
X0067528Y0106188D01*
X0074878Y0106809D02*
X0074878Y0108159D01*
X0074878Y0106809D02*
X0067528Y0106809D01*
X0067528Y0108159D01*
X0074878Y0108159D01*
X0074878Y0107258D02*
X0067528Y0107258D01*
X0067528Y0107707D02*
X0074878Y0107707D01*
X0074878Y0108156D02*
X0067528Y0108156D01*
X0074878Y0108778D02*
X0074878Y0110128D01*
X0074878Y0108778D02*
X0067528Y0108778D01*
X0067528Y0110128D01*
X0074878Y0110128D01*
X0074878Y0109227D02*
X0067528Y0109227D01*
X0067528Y0109676D02*
X0074878Y0109676D01*
X0074878Y0110125D02*
X0067528Y0110125D01*
X0074878Y0110746D02*
X0074878Y0112096D01*
X0074878Y0110746D02*
X0067528Y0110746D01*
X0067528Y0112096D01*
X0074878Y0112096D01*
X0074878Y0111195D02*
X0067528Y0111195D01*
X0067528Y0111644D02*
X0074878Y0111644D01*
X0074878Y0112093D02*
X0067528Y0112093D01*
X0074878Y0112715D02*
X0074878Y0114065D01*
X0074878Y0112715D02*
X0067528Y0112715D01*
X0067528Y0114065D01*
X0074878Y0114065D01*
X0074878Y0113164D02*
X0067528Y0113164D01*
X0067528Y0113613D02*
X0074878Y0113613D01*
X0074878Y0114062D02*
X0067528Y0114062D01*
X0074878Y0114683D02*
X0074878Y0116033D01*
X0074878Y0114683D02*
X0067528Y0114683D01*
X0067528Y0116033D01*
X0074878Y0116033D01*
X0074878Y0115132D02*
X0067528Y0115132D01*
X0067528Y0115581D02*
X0074878Y0115581D01*
X0074878Y0116030D02*
X0067528Y0116030D01*
X0074878Y0116652D02*
X0074878Y0118002D01*
X0074878Y0116652D02*
X0067528Y0116652D01*
X0067528Y0118002D01*
X0074878Y0118002D01*
X0074878Y0117101D02*
X0067528Y0117101D01*
X0067528Y0117550D02*
X0074878Y0117550D01*
X0074878Y0117999D02*
X0067528Y0117999D01*
X0074878Y0118620D02*
X0074878Y0119970D01*
X0074878Y0118620D02*
X0067528Y0118620D01*
X0067528Y0119970D01*
X0074878Y0119970D01*
X0074878Y0119069D02*
X0067528Y0119069D01*
X0067528Y0119518D02*
X0074878Y0119518D01*
X0074878Y0119967D02*
X0067528Y0119967D01*
X0074878Y0120589D02*
X0074878Y0121939D01*
X0074878Y0120589D02*
X0067528Y0120589D01*
X0067528Y0121939D01*
X0074878Y0121939D01*
X0074878Y0121038D02*
X0067528Y0121038D01*
X0067528Y0121487D02*
X0074878Y0121487D01*
X0074878Y0121936D02*
X0067528Y0121936D01*
X0078333Y0125394D02*
X0079683Y0125394D01*
X0078333Y0125394D02*
X0078333Y0132744D01*
X0079683Y0132744D01*
X0079683Y0125394D01*
X0079683Y0125843D02*
X0078333Y0125843D01*
X0078333Y0126292D02*
X0079683Y0126292D01*
X0079683Y0126741D02*
X0078333Y0126741D01*
X0078333Y0127190D02*
X0079683Y0127190D01*
X0079683Y0127639D02*
X0078333Y0127639D01*
X0078333Y0128088D02*
X0079683Y0128088D01*
X0079683Y0128537D02*
X0078333Y0128537D01*
X0078333Y0128986D02*
X0079683Y0128986D01*
X0079683Y0129435D02*
X0078333Y0129435D01*
X0078333Y0129884D02*
X0079683Y0129884D01*
X0079683Y0130333D02*
X0078333Y0130333D01*
X0078333Y0130782D02*
X0079683Y0130782D01*
X0079683Y0131231D02*
X0078333Y0131231D01*
X0078333Y0131680D02*
X0079683Y0131680D01*
X0079683Y0132129D02*
X0078333Y0132129D01*
X0078333Y0132578D02*
X0079683Y0132578D01*
X0080302Y0125394D02*
X0081652Y0125394D01*
X0080302Y0125394D02*
X0080302Y0132744D01*
X0081652Y0132744D01*
X0081652Y0125394D01*
X0081652Y0125843D02*
X0080302Y0125843D01*
X0080302Y0126292D02*
X0081652Y0126292D01*
X0081652Y0126741D02*
X0080302Y0126741D01*
X0080302Y0127190D02*
X0081652Y0127190D01*
X0081652Y0127639D02*
X0080302Y0127639D01*
X0080302Y0128088D02*
X0081652Y0128088D01*
X0081652Y0128537D02*
X0080302Y0128537D01*
X0080302Y0128986D02*
X0081652Y0128986D01*
X0081652Y0129435D02*
X0080302Y0129435D01*
X0080302Y0129884D02*
X0081652Y0129884D01*
X0081652Y0130333D02*
X0080302Y0130333D01*
X0080302Y0130782D02*
X0081652Y0130782D01*
X0081652Y0131231D02*
X0080302Y0131231D01*
X0080302Y0131680D02*
X0081652Y0131680D01*
X0081652Y0132129D02*
X0080302Y0132129D01*
X0080302Y0132578D02*
X0081652Y0132578D01*
X0082270Y0125394D02*
X0083620Y0125394D01*
X0082270Y0125394D02*
X0082270Y0132744D01*
X0083620Y0132744D01*
X0083620Y0125394D01*
X0083620Y0125843D02*
X0082270Y0125843D01*
X0082270Y0126292D02*
X0083620Y0126292D01*
X0083620Y0126741D02*
X0082270Y0126741D01*
X0082270Y0127190D02*
X0083620Y0127190D01*
X0083620Y0127639D02*
X0082270Y0127639D01*
X0082270Y0128088D02*
X0083620Y0128088D01*
X0083620Y0128537D02*
X0082270Y0128537D01*
X0082270Y0128986D02*
X0083620Y0128986D01*
X0083620Y0129435D02*
X0082270Y0129435D01*
X0082270Y0129884D02*
X0083620Y0129884D01*
X0083620Y0130333D02*
X0082270Y0130333D01*
X0082270Y0130782D02*
X0083620Y0130782D01*
X0083620Y0131231D02*
X0082270Y0131231D01*
X0082270Y0131680D02*
X0083620Y0131680D01*
X0083620Y0132129D02*
X0082270Y0132129D01*
X0082270Y0132578D02*
X0083620Y0132578D01*
X0084239Y0125394D02*
X0085589Y0125394D01*
X0084239Y0125394D02*
X0084239Y0132744D01*
X0085589Y0132744D01*
X0085589Y0125394D01*
X0085589Y0125843D02*
X0084239Y0125843D01*
X0084239Y0126292D02*
X0085589Y0126292D01*
X0085589Y0126741D02*
X0084239Y0126741D01*
X0084239Y0127190D02*
X0085589Y0127190D01*
X0085589Y0127639D02*
X0084239Y0127639D01*
X0084239Y0128088D02*
X0085589Y0128088D01*
X0085589Y0128537D02*
X0084239Y0128537D01*
X0084239Y0128986D02*
X0085589Y0128986D01*
X0085589Y0129435D02*
X0084239Y0129435D01*
X0084239Y0129884D02*
X0085589Y0129884D01*
X0085589Y0130333D02*
X0084239Y0130333D01*
X0084239Y0130782D02*
X0085589Y0130782D01*
X0085589Y0131231D02*
X0084239Y0131231D01*
X0084239Y0131680D02*
X0085589Y0131680D01*
X0085589Y0132129D02*
X0084239Y0132129D01*
X0084239Y0132578D02*
X0085589Y0132578D01*
X0086207Y0125394D02*
X0087557Y0125394D01*
X0086207Y0125394D02*
X0086207Y0132744D01*
X0087557Y0132744D01*
X0087557Y0125394D01*
X0087557Y0125843D02*
X0086207Y0125843D01*
X0086207Y0126292D02*
X0087557Y0126292D01*
X0087557Y0126741D02*
X0086207Y0126741D01*
X0086207Y0127190D02*
X0087557Y0127190D01*
X0087557Y0127639D02*
X0086207Y0127639D01*
X0086207Y0128088D02*
X0087557Y0128088D01*
X0087557Y0128537D02*
X0086207Y0128537D01*
X0086207Y0128986D02*
X0087557Y0128986D01*
X0087557Y0129435D02*
X0086207Y0129435D01*
X0086207Y0129884D02*
X0087557Y0129884D01*
X0087557Y0130333D02*
X0086207Y0130333D01*
X0086207Y0130782D02*
X0087557Y0130782D01*
X0087557Y0131231D02*
X0086207Y0131231D01*
X0086207Y0131680D02*
X0087557Y0131680D01*
X0087557Y0132129D02*
X0086207Y0132129D01*
X0086207Y0132578D02*
X0087557Y0132578D01*
X0088176Y0125394D02*
X0089526Y0125394D01*
X0088176Y0125394D02*
X0088176Y0132744D01*
X0089526Y0132744D01*
X0089526Y0125394D01*
X0089526Y0125843D02*
X0088176Y0125843D01*
X0088176Y0126292D02*
X0089526Y0126292D01*
X0089526Y0126741D02*
X0088176Y0126741D01*
X0088176Y0127190D02*
X0089526Y0127190D01*
X0089526Y0127639D02*
X0088176Y0127639D01*
X0088176Y0128088D02*
X0089526Y0128088D01*
X0089526Y0128537D02*
X0088176Y0128537D01*
X0088176Y0128986D02*
X0089526Y0128986D01*
X0089526Y0129435D02*
X0088176Y0129435D01*
X0088176Y0129884D02*
X0089526Y0129884D01*
X0089526Y0130333D02*
X0088176Y0130333D01*
X0088176Y0130782D02*
X0089526Y0130782D01*
X0089526Y0131231D02*
X0088176Y0131231D01*
X0088176Y0131680D02*
X0089526Y0131680D01*
X0089526Y0132129D02*
X0088176Y0132129D01*
X0088176Y0132578D02*
X0089526Y0132578D01*
X0090144Y0125394D02*
X0091494Y0125394D01*
X0090144Y0125394D02*
X0090144Y0132744D01*
X0091494Y0132744D01*
X0091494Y0125394D01*
X0091494Y0125843D02*
X0090144Y0125843D01*
X0090144Y0126292D02*
X0091494Y0126292D01*
X0091494Y0126741D02*
X0090144Y0126741D01*
X0090144Y0127190D02*
X0091494Y0127190D01*
X0091494Y0127639D02*
X0090144Y0127639D01*
X0090144Y0128088D02*
X0091494Y0128088D01*
X0091494Y0128537D02*
X0090144Y0128537D01*
X0090144Y0128986D02*
X0091494Y0128986D01*
X0091494Y0129435D02*
X0090144Y0129435D01*
X0090144Y0129884D02*
X0091494Y0129884D01*
X0091494Y0130333D02*
X0090144Y0130333D01*
X0090144Y0130782D02*
X0091494Y0130782D01*
X0091494Y0131231D02*
X0090144Y0131231D01*
X0090144Y0131680D02*
X0091494Y0131680D01*
X0091494Y0132129D02*
X0090144Y0132129D01*
X0090144Y0132578D02*
X0091494Y0132578D01*
X0092113Y0125394D02*
X0093463Y0125394D01*
X0092113Y0125394D02*
X0092113Y0132744D01*
X0093463Y0132744D01*
X0093463Y0125394D01*
X0093463Y0125843D02*
X0092113Y0125843D01*
X0092113Y0126292D02*
X0093463Y0126292D01*
X0093463Y0126741D02*
X0092113Y0126741D01*
X0092113Y0127190D02*
X0093463Y0127190D01*
X0093463Y0127639D02*
X0092113Y0127639D01*
X0092113Y0128088D02*
X0093463Y0128088D01*
X0093463Y0128537D02*
X0092113Y0128537D01*
X0092113Y0128986D02*
X0093463Y0128986D01*
X0093463Y0129435D02*
X0092113Y0129435D01*
X0092113Y0129884D02*
X0093463Y0129884D01*
X0093463Y0130333D02*
X0092113Y0130333D01*
X0092113Y0130782D02*
X0093463Y0130782D01*
X0093463Y0131231D02*
X0092113Y0131231D01*
X0092113Y0131680D02*
X0093463Y0131680D01*
X0093463Y0132129D02*
X0092113Y0132129D01*
X0092113Y0132578D02*
X0093463Y0132578D01*
X0094081Y0125394D02*
X0095431Y0125394D01*
X0094081Y0125394D02*
X0094081Y0132744D01*
X0095431Y0132744D01*
X0095431Y0125394D01*
X0095431Y0125843D02*
X0094081Y0125843D01*
X0094081Y0126292D02*
X0095431Y0126292D01*
X0095431Y0126741D02*
X0094081Y0126741D01*
X0094081Y0127190D02*
X0095431Y0127190D01*
X0095431Y0127639D02*
X0094081Y0127639D01*
X0094081Y0128088D02*
X0095431Y0128088D01*
X0095431Y0128537D02*
X0094081Y0128537D01*
X0094081Y0128986D02*
X0095431Y0128986D01*
X0095431Y0129435D02*
X0094081Y0129435D01*
X0094081Y0129884D02*
X0095431Y0129884D01*
X0095431Y0130333D02*
X0094081Y0130333D01*
X0094081Y0130782D02*
X0095431Y0130782D01*
X0095431Y0131231D02*
X0094081Y0131231D01*
X0094081Y0131680D02*
X0095431Y0131680D01*
X0095431Y0132129D02*
X0094081Y0132129D01*
X0094081Y0132578D02*
X0095431Y0132578D01*
X0096050Y0125394D02*
X0097400Y0125394D01*
X0096050Y0125394D02*
X0096050Y0132744D01*
X0097400Y0132744D01*
X0097400Y0125394D01*
X0097400Y0125843D02*
X0096050Y0125843D01*
X0096050Y0126292D02*
X0097400Y0126292D01*
X0097400Y0126741D02*
X0096050Y0126741D01*
X0096050Y0127190D02*
X0097400Y0127190D01*
X0097400Y0127639D02*
X0096050Y0127639D01*
X0096050Y0128088D02*
X0097400Y0128088D01*
X0097400Y0128537D02*
X0096050Y0128537D01*
X0096050Y0128986D02*
X0097400Y0128986D01*
X0097400Y0129435D02*
X0096050Y0129435D01*
X0096050Y0129884D02*
X0097400Y0129884D01*
X0097400Y0130333D02*
X0096050Y0130333D01*
X0096050Y0130782D02*
X0097400Y0130782D01*
X0097400Y0131231D02*
X0096050Y0131231D01*
X0096050Y0131680D02*
X0097400Y0131680D01*
X0097400Y0132129D02*
X0096050Y0132129D01*
X0096050Y0132578D02*
X0097400Y0132578D01*
X0098018Y0125394D02*
X0099368Y0125394D01*
X0098018Y0125394D02*
X0098018Y0132744D01*
X0099368Y0132744D01*
X0099368Y0125394D01*
X0099368Y0125843D02*
X0098018Y0125843D01*
X0098018Y0126292D02*
X0099368Y0126292D01*
X0099368Y0126741D02*
X0098018Y0126741D01*
X0098018Y0127190D02*
X0099368Y0127190D01*
X0099368Y0127639D02*
X0098018Y0127639D01*
X0098018Y0128088D02*
X0099368Y0128088D01*
X0099368Y0128537D02*
X0098018Y0128537D01*
X0098018Y0128986D02*
X0099368Y0128986D01*
X0099368Y0129435D02*
X0098018Y0129435D01*
X0098018Y0129884D02*
X0099368Y0129884D01*
X0099368Y0130333D02*
X0098018Y0130333D01*
X0098018Y0130782D02*
X0099368Y0130782D01*
X0099368Y0131231D02*
X0098018Y0131231D01*
X0098018Y0131680D02*
X0099368Y0131680D01*
X0099368Y0132129D02*
X0098018Y0132129D01*
X0098018Y0132578D02*
X0099368Y0132578D01*
X0099987Y0125394D02*
X0101337Y0125394D01*
X0099987Y0125394D02*
X0099987Y0132744D01*
X0101337Y0132744D01*
X0101337Y0125394D01*
X0101337Y0125843D02*
X0099987Y0125843D01*
X0099987Y0126292D02*
X0101337Y0126292D01*
X0101337Y0126741D02*
X0099987Y0126741D01*
X0099987Y0127190D02*
X0101337Y0127190D01*
X0101337Y0127639D02*
X0099987Y0127639D01*
X0099987Y0128088D02*
X0101337Y0128088D01*
X0101337Y0128537D02*
X0099987Y0128537D01*
X0099987Y0128986D02*
X0101337Y0128986D01*
X0101337Y0129435D02*
X0099987Y0129435D01*
X0099987Y0129884D02*
X0101337Y0129884D01*
X0101337Y0130333D02*
X0099987Y0130333D01*
X0099987Y0130782D02*
X0101337Y0130782D01*
X0101337Y0131231D02*
X0099987Y0131231D01*
X0099987Y0131680D02*
X0101337Y0131680D01*
X0101337Y0132129D02*
X0099987Y0132129D01*
X0099987Y0132578D02*
X0101337Y0132578D01*
X0101955Y0125394D02*
X0103305Y0125394D01*
X0101955Y0125394D02*
X0101955Y0132744D01*
X0103305Y0132744D01*
X0103305Y0125394D01*
X0103305Y0125843D02*
X0101955Y0125843D01*
X0101955Y0126292D02*
X0103305Y0126292D01*
X0103305Y0126741D02*
X0101955Y0126741D01*
X0101955Y0127190D02*
X0103305Y0127190D01*
X0103305Y0127639D02*
X0101955Y0127639D01*
X0101955Y0128088D02*
X0103305Y0128088D01*
X0103305Y0128537D02*
X0101955Y0128537D01*
X0101955Y0128986D02*
X0103305Y0128986D01*
X0103305Y0129435D02*
X0101955Y0129435D01*
X0101955Y0129884D02*
X0103305Y0129884D01*
X0103305Y0130333D02*
X0101955Y0130333D01*
X0101955Y0130782D02*
X0103305Y0130782D01*
X0103305Y0131231D02*
X0101955Y0131231D01*
X0101955Y0131680D02*
X0103305Y0131680D01*
X0103305Y0132129D02*
X0101955Y0132129D01*
X0101955Y0132578D02*
X0103305Y0132578D01*
X0103924Y0125394D02*
X0105274Y0125394D01*
X0103924Y0125394D02*
X0103924Y0132744D01*
X0105274Y0132744D01*
X0105274Y0125394D01*
X0105274Y0125843D02*
X0103924Y0125843D01*
X0103924Y0126292D02*
X0105274Y0126292D01*
X0105274Y0126741D02*
X0103924Y0126741D01*
X0103924Y0127190D02*
X0105274Y0127190D01*
X0105274Y0127639D02*
X0103924Y0127639D01*
X0103924Y0128088D02*
X0105274Y0128088D01*
X0105274Y0128537D02*
X0103924Y0128537D01*
X0103924Y0128986D02*
X0105274Y0128986D01*
X0105274Y0129435D02*
X0103924Y0129435D01*
X0103924Y0129884D02*
X0105274Y0129884D01*
X0105274Y0130333D02*
X0103924Y0130333D01*
X0103924Y0130782D02*
X0105274Y0130782D01*
X0105274Y0131231D02*
X0103924Y0131231D01*
X0103924Y0131680D02*
X0105274Y0131680D01*
X0105274Y0132129D02*
X0103924Y0132129D01*
X0103924Y0132578D02*
X0105274Y0132578D01*
X0105892Y0125394D02*
X0107242Y0125394D01*
X0105892Y0125394D02*
X0105892Y0132744D01*
X0107242Y0132744D01*
X0107242Y0125394D01*
X0107242Y0125843D02*
X0105892Y0125843D01*
X0105892Y0126292D02*
X0107242Y0126292D01*
X0107242Y0126741D02*
X0105892Y0126741D01*
X0105892Y0127190D02*
X0107242Y0127190D01*
X0107242Y0127639D02*
X0105892Y0127639D01*
X0105892Y0128088D02*
X0107242Y0128088D01*
X0107242Y0128537D02*
X0105892Y0128537D01*
X0105892Y0128986D02*
X0107242Y0128986D01*
X0107242Y0129435D02*
X0105892Y0129435D01*
X0105892Y0129884D02*
X0107242Y0129884D01*
X0107242Y0130333D02*
X0105892Y0130333D01*
X0105892Y0130782D02*
X0107242Y0130782D01*
X0107242Y0131231D02*
X0105892Y0131231D01*
X0105892Y0131680D02*
X0107242Y0131680D01*
X0107242Y0132129D02*
X0105892Y0132129D01*
X0105892Y0132578D02*
X0107242Y0132578D01*
X0107861Y0125394D02*
X0109211Y0125394D01*
X0107861Y0125394D02*
X0107861Y0132744D01*
X0109211Y0132744D01*
X0109211Y0125394D01*
X0109211Y0125843D02*
X0107861Y0125843D01*
X0107861Y0126292D02*
X0109211Y0126292D01*
X0109211Y0126741D02*
X0107861Y0126741D01*
X0107861Y0127190D02*
X0109211Y0127190D01*
X0109211Y0127639D02*
X0107861Y0127639D01*
X0107861Y0128088D02*
X0109211Y0128088D01*
X0109211Y0128537D02*
X0107861Y0128537D01*
X0107861Y0128986D02*
X0109211Y0128986D01*
X0109211Y0129435D02*
X0107861Y0129435D01*
X0107861Y0129884D02*
X0109211Y0129884D01*
X0109211Y0130333D02*
X0107861Y0130333D01*
X0107861Y0130782D02*
X0109211Y0130782D01*
X0109211Y0131231D02*
X0107861Y0131231D01*
X0107861Y0131680D02*
X0109211Y0131680D01*
X0109211Y0132129D02*
X0107861Y0132129D01*
X0107861Y0132578D02*
X0109211Y0132578D01*
X0112666Y0121939D02*
X0112666Y0120589D01*
X0112666Y0121939D02*
X0120016Y0121939D01*
X0120016Y0120589D01*
X0112666Y0120589D01*
X0112666Y0121038D02*
X0120016Y0121038D01*
X0120016Y0121487D02*
X0112666Y0121487D01*
X0112666Y0121936D02*
X0120016Y0121936D01*
X0112666Y0119970D02*
X0112666Y0118620D01*
X0112666Y0119970D02*
X0120016Y0119970D01*
X0120016Y0118620D01*
X0112666Y0118620D01*
X0112666Y0119069D02*
X0120016Y0119069D01*
X0120016Y0119518D02*
X0112666Y0119518D01*
X0112666Y0119967D02*
X0120016Y0119967D01*
X0112666Y0118002D02*
X0112666Y0116652D01*
X0112666Y0118002D02*
X0120016Y0118002D01*
X0120016Y0116652D01*
X0112666Y0116652D01*
X0112666Y0117101D02*
X0120016Y0117101D01*
X0120016Y0117550D02*
X0112666Y0117550D01*
X0112666Y0117999D02*
X0120016Y0117999D01*
X0112666Y0116033D02*
X0112666Y0114683D01*
X0112666Y0116033D02*
X0120016Y0116033D01*
X0120016Y0114683D01*
X0112666Y0114683D01*
X0112666Y0115132D02*
X0120016Y0115132D01*
X0120016Y0115581D02*
X0112666Y0115581D01*
X0112666Y0116030D02*
X0120016Y0116030D01*
X0112666Y0114065D02*
X0112666Y0112715D01*
X0112666Y0114065D02*
X0120016Y0114065D01*
X0120016Y0112715D01*
X0112666Y0112715D01*
X0112666Y0113164D02*
X0120016Y0113164D01*
X0120016Y0113613D02*
X0112666Y0113613D01*
X0112666Y0114062D02*
X0120016Y0114062D01*
X0112666Y0112096D02*
X0112666Y0110746D01*
X0112666Y0112096D02*
X0120016Y0112096D01*
X0120016Y0110746D01*
X0112666Y0110746D01*
X0112666Y0111195D02*
X0120016Y0111195D01*
X0120016Y0111644D02*
X0112666Y0111644D01*
X0112666Y0112093D02*
X0120016Y0112093D01*
X0112666Y0110128D02*
X0112666Y0108778D01*
X0112666Y0110128D02*
X0120016Y0110128D01*
X0120016Y0108778D01*
X0112666Y0108778D01*
X0112666Y0109227D02*
X0120016Y0109227D01*
X0120016Y0109676D02*
X0112666Y0109676D01*
X0112666Y0110125D02*
X0120016Y0110125D01*
X0112666Y0108159D02*
X0112666Y0106809D01*
X0112666Y0108159D02*
X0120016Y0108159D01*
X0120016Y0106809D01*
X0112666Y0106809D01*
X0112666Y0107258D02*
X0120016Y0107258D01*
X0120016Y0107707D02*
X0112666Y0107707D01*
X0112666Y0108156D02*
X0120016Y0108156D01*
X0112666Y0106191D02*
X0112666Y0104841D01*
X0112666Y0106191D02*
X0120016Y0106191D01*
X0120016Y0104841D01*
X0112666Y0104841D01*
X0112666Y0105290D02*
X0120016Y0105290D01*
X0120016Y0105739D02*
X0112666Y0105739D01*
X0112666Y0106188D02*
X0120016Y0106188D01*
X0112666Y0104222D02*
X0112666Y0102872D01*
X0112666Y0104222D02*
X0120016Y0104222D01*
X0120016Y0102872D01*
X0112666Y0102872D01*
X0112666Y0103321D02*
X0120016Y0103321D01*
X0120016Y0103770D02*
X0112666Y0103770D01*
X0112666Y0104219D02*
X0120016Y0104219D01*
X0112666Y0102254D02*
X0112666Y0100904D01*
X0112666Y0102254D02*
X0120016Y0102254D01*
X0120016Y0100904D01*
X0112666Y0100904D01*
X0112666Y0101353D02*
X0120016Y0101353D01*
X0120016Y0101802D02*
X0112666Y0101802D01*
X0112666Y0102251D02*
X0120016Y0102251D01*
X0112666Y0100285D02*
X0112666Y0098935D01*
X0112666Y0100285D02*
X0120016Y0100285D01*
X0120016Y0098935D01*
X0112666Y0098935D01*
X0112666Y0099384D02*
X0120016Y0099384D01*
X0120016Y0099833D02*
X0112666Y0099833D01*
X0112666Y0100282D02*
X0120016Y0100282D01*
X0112666Y0098317D02*
X0112666Y0096967D01*
X0112666Y0098317D02*
X0120016Y0098317D01*
X0120016Y0096967D01*
X0112666Y0096967D01*
X0112666Y0097416D02*
X0120016Y0097416D01*
X0120016Y0097865D02*
X0112666Y0097865D01*
X0112666Y0098314D02*
X0120016Y0098314D01*
X0112666Y0096348D02*
X0112666Y0094998D01*
X0112666Y0096348D02*
X0120016Y0096348D01*
X0120016Y0094998D01*
X0112666Y0094998D01*
X0112666Y0095447D02*
X0120016Y0095447D01*
X0120016Y0095896D02*
X0112666Y0095896D01*
X0112666Y0096345D02*
X0120016Y0096345D01*
X0112666Y0094380D02*
X0112666Y0093030D01*
X0112666Y0094380D02*
X0120016Y0094380D01*
X0120016Y0093030D01*
X0112666Y0093030D01*
X0112666Y0093479D02*
X0120016Y0093479D01*
X0120016Y0093928D02*
X0112666Y0093928D01*
X0112666Y0094377D02*
X0120016Y0094377D01*
X0112666Y0092411D02*
X0112666Y0091061D01*
X0112666Y0092411D02*
X0120016Y0092411D01*
X0120016Y0091061D01*
X0112666Y0091061D01*
X0112666Y0091510D02*
X0120016Y0091510D01*
X0120016Y0091959D02*
X0112666Y0091959D01*
X0112666Y0092408D02*
X0120016Y0092408D01*
D23*
X0100495Y0099777D02*
X0100495Y0113223D01*
X0100495Y0099777D02*
X0087049Y0099777D01*
X0087049Y0113223D01*
X0100495Y0113223D01*
X0100495Y0104257D02*
X0087049Y0104257D01*
X0087049Y0108737D02*
X0100495Y0108737D01*
X0100495Y0113217D02*
X0087049Y0113217D01*
D24*
X0040772Y0021500D03*
X0040772Y0031500D03*
D25*
X0191233Y0069598D03*
X0196233Y0069598D03*
X0196233Y0074598D03*
X0191233Y0074598D03*
X0191233Y0079598D03*
X0196233Y0079598D03*
X0196233Y0084598D03*
X0191233Y0084598D03*
X0191233Y0089598D03*
X0196233Y0089598D03*
D26*
X0180772Y0088500D03*
X0173772Y0079500D03*
X0180772Y0074500D03*
X0180772Y0045500D03*
X0180772Y0038500D03*
X0128772Y0038500D03*
X0128772Y0045500D03*
X0128772Y0060500D03*
X0129772Y0070500D03*
X0113772Y0065500D03*
X0101772Y0074531D03*
X0081772Y0074500D03*
X0078772Y0071500D03*
X0072772Y0063500D03*
X0084772Y0061500D03*
X0094772Y0051500D03*
X0068772Y0047500D03*
X0064772Y0028500D03*
X0103772Y0032500D03*
X0103772Y0014500D03*
X0109772Y0014500D03*
X0128772Y0083500D03*
X0126772Y0089500D03*
X0122772Y0095500D03*
X0128772Y0101500D03*
X0128772Y0113500D03*
X0126772Y0124500D03*
X0090772Y0135500D03*
X0070772Y0127500D03*
X0064772Y0119500D03*
X0058772Y0108500D03*
X0054772Y0106500D03*
X0064772Y0107500D03*
X0064772Y0099500D03*
X0069772Y0084500D03*
X0038772Y0094500D03*
X0034772Y0102500D03*
X0040772Y0127500D03*
X0180772Y0118500D03*
X0185772Y0113500D03*
M02*
