%
M48
M72
T01C0.01378
T02C0.01969
T03C0.03543
%
T01
X64772Y28500
X68772Y47500
X84772Y61500
X72772Y63500
X78772Y71500
X81772Y74500
X69772Y84500
X64772Y99500
X64772Y107500
X58772Y108500
X54772Y106500
X64772Y119500
X70772Y127500
X90772Y135500
X126772Y124500
X128772Y113500
X128772Y101500
X122772Y95500
X126772Y89500
X128772Y83500
X129772Y70500
X128772Y60500
X113772Y65500
X101772Y74531
X94772Y51500
X103772Y32500
X103772Y14500
X109772Y14500
X128772Y38500
X128772Y45500
X180772Y45500
X180772Y38500
X180772Y74500
X173772Y79500
X180772Y88500
X185772Y113500
X180772Y118500
X40772Y127500
X34772Y102500
X38772Y94500
T02
X191233Y89598
X196233Y89598
X196233Y84598
X196233Y79598
X191233Y79598
X191233Y84598
X191233Y74598
X191233Y69598
X196233Y69598
X196233Y74598
T03
X52772Y66161
X52772Y48839
M30
