%
M48
M72
T01C0.01378
T02C0.01969
T03C0.03543
%
T01
X64772Y28500
X68772Y44500
X72772Y60500
X81772Y61500
X75772Y71500
X78772Y74500
X69772Y81500
X64772Y96500
X54772Y103500
X58772Y105500
X64772Y104500
X64772Y116500
X70772Y124500
X87772Y129500
X120772Y121500
X122772Y110500
X122772Y98500
X116772Y92500
X120772Y86500
X122772Y80500
X120772Y70500
X110772Y65500
X120772Y60500
X98772Y74531
X91772Y51500
X100772Y32500
X122772Y35500
X122772Y42500
X106772Y14500
X100772Y14500
X174772Y35500
X174772Y42500
X174772Y71500
X167772Y76500
X174772Y85500
X179772Y110500
X174772Y115500
X40772Y124500
X34772Y99500
X38772Y91500
T02
X185233Y86598
X190233Y86598
X190233Y81598
X185233Y81598
X185233Y76598
X190233Y76598
X190233Y71598
X185233Y71598
X185233Y66598
X190233Y66598
T03
X52772Y63161
X52772Y45839
M30
