G75*
%MOIN*%
%OFA0B0*%
%FSLAX25Y25*%
%IPPOS*%
%LPD*%
%AMOC8*
5,1,8,0,0,1.08239X$1,22.5*
%
%ADD10R,0.03162X0.03162*%
%ADD11C,0.04343*%
%ADD12R,0.14186X0.08280*%
%ADD13R,0.08400X0.21800*%
%ADD14R,0.02965X0.05524*%
%ADD15C,0.04769*%
%ADD16C,0.03778*%
D10*
X0085772Y0060531D03*
X0085772Y0064469D03*
X0090772Y0067531D03*
X0090772Y0071469D03*
X0056772Y0092531D03*
X0056772Y0096469D03*
X0049741Y0084500D03*
X0045804Y0084500D03*
D11*
X0052772Y0063161D03*
X0052772Y0045839D03*
D12*
X0078772Y0049177D03*
X0078772Y0033823D03*
D13*
X0105772Y0045500D03*
X0105772Y0083500D03*
D14*
X0051512Y0089382D03*
X0047772Y0089382D03*
X0044032Y0089382D03*
X0044032Y0099618D03*
X0047772Y0099618D03*
X0051512Y0099618D03*
D15*
X0185233Y0086598D03*
X0190233Y0086598D03*
X0190233Y0081598D03*
X0185233Y0081598D03*
X0185233Y0076598D03*
X0190233Y0076598D03*
X0190233Y0071598D03*
X0185233Y0071598D03*
X0185233Y0066598D03*
X0190233Y0066598D03*
D16*
X0064772Y0028500D03*
X0091772Y0051500D03*
X0081772Y0061500D03*
X0072772Y0060500D03*
X0075772Y0071500D03*
X0078772Y0074500D03*
X0064772Y0096500D03*
X0054772Y0103500D03*
X0058772Y0105500D03*
X0064772Y0104500D03*
X0064772Y0116500D03*
X0070772Y0124500D03*
X0087772Y0129500D03*
X0120772Y0121500D03*
X0122772Y0110500D03*
X0122772Y0098500D03*
X0116772Y0092500D03*
X0120772Y0086500D03*
X0122772Y0080500D03*
X0120772Y0070500D03*
X0120772Y0060500D03*
X0122772Y0042500D03*
X0122772Y0035500D03*
X0100772Y0032500D03*
X0100772Y0014500D03*
X0106772Y0014500D03*
X0174772Y0035500D03*
X0174772Y0042500D03*
X0174772Y0071500D03*
X0167772Y0076500D03*
X0174772Y0085500D03*
X0179772Y0110500D03*
X0174772Y0115500D03*
X0038772Y0091500D03*
X0034772Y0099500D03*
M02*
