G75*
%MOIN*%
%OFA0B0*%
%FSLAX25Y25*%
%IPPOS*%
%LPD*%
%AMOC8*
5,1,8,0,0,1.08239X$1,22.5*
%
%ADD10R,0.03162X0.03162*%
%ADD11R,0.08674X0.05524*%
%ADD12R,0.13005X0.02769*%
%ADD13R,0.10643X0.08674*%
%ADD14R,0.13792X0.08674*%
%ADD15C,0.04343*%
%ADD16R,0.03950X0.03950*%
%ADD17R,0.06706X0.05800*%
%ADD18R,0.07099X0.07898*%
%ADD19R,0.01863X0.03300*%
%ADD20R,0.07099X0.04343*%
%ADD21R,0.09461X0.03162*%
%ADD22C,0.00450*%
%ADD23C,0.04481*%
%ADD24C,0.05800*%
%ADD25C,0.04769*%
%ADD26C,0.03778*%
D10*
X0075804Y0050500D03*
X0079741Y0050500D03*
X0079741Y0055500D03*
X0075804Y0055500D03*
X0095772Y0045469D03*
X0100772Y0045469D03*
X0105772Y0045469D03*
X0105772Y0041531D03*
X0100772Y0041531D03*
X0095772Y0041531D03*
X0086741Y0039500D03*
X0082804Y0039500D03*
X0082804Y0034500D03*
X0086741Y0034500D03*
X0110772Y0041531D03*
X0110772Y0045469D03*
X0105741Y0052500D03*
X0101804Y0052500D03*
X0085772Y0071531D03*
X0085772Y0075469D03*
X0038741Y0103500D03*
X0034804Y0103500D03*
X0046804Y0108500D03*
X0050741Y0108500D03*
X0050741Y0113500D03*
X0046804Y0113500D03*
X0044772Y0120531D03*
X0049772Y0120531D03*
X0049772Y0124469D03*
X0044772Y0124469D03*
X0054772Y0124469D03*
X0059772Y0124469D03*
X0059772Y0120531D03*
X0054772Y0120531D03*
X0111772Y0123531D03*
X0111772Y0127469D03*
X0102741Y0010500D03*
X0098804Y0010500D03*
D11*
X0087772Y0017201D03*
X0075772Y0017201D03*
X0075772Y0029799D03*
X0087772Y0029799D03*
D12*
X0064583Y0048201D03*
X0064583Y0051350D03*
X0064583Y0054500D03*
X0064583Y0057650D03*
X0064583Y0060799D03*
D13*
X0040961Y0072020D03*
X0040961Y0036980D03*
D14*
X0064189Y0036980D03*
X0064189Y0072020D03*
D15*
X0052772Y0063161D03*
X0052772Y0045839D03*
D16*
X0075819Y0043500D03*
X0081725Y0043500D03*
X0040725Y0108500D03*
X0040725Y0113500D03*
X0034819Y0113500D03*
X0034819Y0108500D03*
D17*
X0116297Y0029646D03*
X0116297Y0017646D03*
D18*
X0144174Y0049500D03*
X0155371Y0049500D03*
X0155371Y0059500D03*
X0144174Y0059500D03*
X0144174Y0083500D03*
X0155371Y0083500D03*
X0155371Y0093500D03*
X0144174Y0093500D03*
X0144174Y0103500D03*
X0155371Y0103500D03*
X0155371Y0113500D03*
X0144174Y0113500D03*
D19*
X0102772Y0027697D03*
X0100804Y0027697D03*
X0098835Y0027697D03*
X0096867Y0027697D03*
X0096867Y0019429D03*
X0098835Y0019429D03*
X0100804Y0019429D03*
X0102772Y0019429D03*
D20*
X0099819Y0023563D03*
D21*
X0130662Y0036000D03*
X0130662Y0041000D03*
X0130662Y0046000D03*
X0130662Y0051000D03*
X0130662Y0056000D03*
X0130662Y0061000D03*
X0130662Y0066000D03*
X0130662Y0071000D03*
X0130662Y0081000D03*
X0130662Y0086000D03*
X0130662Y0091000D03*
X0130662Y0096000D03*
X0130662Y0101000D03*
X0130662Y0106000D03*
X0130662Y0111000D03*
X0130662Y0116000D03*
X0166882Y0116000D03*
X0166882Y0111000D03*
X0166882Y0106000D03*
X0166882Y0101000D03*
X0166882Y0096000D03*
X0166882Y0091000D03*
X0166882Y0086000D03*
X0166882Y0081000D03*
X0166882Y0071000D03*
X0166882Y0066000D03*
X0166882Y0061000D03*
X0166882Y0056000D03*
X0166882Y0051000D03*
X0166882Y0046000D03*
X0166882Y0041000D03*
X0166882Y0036000D03*
D22*
X0106211Y0087558D02*
X0104861Y0087558D01*
X0106211Y0087558D02*
X0106211Y0080208D01*
X0104861Y0080208D01*
X0104861Y0087558D01*
X0104861Y0080657D02*
X0106211Y0080657D01*
X0106211Y0081106D02*
X0104861Y0081106D01*
X0104861Y0081555D02*
X0106211Y0081555D01*
X0106211Y0082004D02*
X0104861Y0082004D01*
X0104861Y0082453D02*
X0106211Y0082453D01*
X0106211Y0082902D02*
X0104861Y0082902D01*
X0104861Y0083351D02*
X0106211Y0083351D01*
X0106211Y0083800D02*
X0104861Y0083800D01*
X0104861Y0084249D02*
X0106211Y0084249D01*
X0106211Y0084698D02*
X0104861Y0084698D01*
X0104861Y0085147D02*
X0106211Y0085147D01*
X0106211Y0085596D02*
X0104861Y0085596D01*
X0104861Y0086045D02*
X0106211Y0086045D01*
X0106211Y0086494D02*
X0104861Y0086494D01*
X0104861Y0086943D02*
X0106211Y0086943D01*
X0106211Y0087392D02*
X0104861Y0087392D01*
X0104242Y0087558D02*
X0102892Y0087558D01*
X0104242Y0087558D02*
X0104242Y0080208D01*
X0102892Y0080208D01*
X0102892Y0087558D01*
X0102892Y0080657D02*
X0104242Y0080657D01*
X0104242Y0081106D02*
X0102892Y0081106D01*
X0102892Y0081555D02*
X0104242Y0081555D01*
X0104242Y0082004D02*
X0102892Y0082004D01*
X0102892Y0082453D02*
X0104242Y0082453D01*
X0104242Y0082902D02*
X0102892Y0082902D01*
X0102892Y0083351D02*
X0104242Y0083351D01*
X0104242Y0083800D02*
X0102892Y0083800D01*
X0102892Y0084249D02*
X0104242Y0084249D01*
X0104242Y0084698D02*
X0102892Y0084698D01*
X0102892Y0085147D02*
X0104242Y0085147D01*
X0104242Y0085596D02*
X0102892Y0085596D01*
X0102892Y0086045D02*
X0104242Y0086045D01*
X0104242Y0086494D02*
X0102892Y0086494D01*
X0102892Y0086943D02*
X0104242Y0086943D01*
X0104242Y0087392D02*
X0102892Y0087392D01*
X0102274Y0087558D02*
X0100924Y0087558D01*
X0102274Y0087558D02*
X0102274Y0080208D01*
X0100924Y0080208D01*
X0100924Y0087558D01*
X0100924Y0080657D02*
X0102274Y0080657D01*
X0102274Y0081106D02*
X0100924Y0081106D01*
X0100924Y0081555D02*
X0102274Y0081555D01*
X0102274Y0082004D02*
X0100924Y0082004D01*
X0100924Y0082453D02*
X0102274Y0082453D01*
X0102274Y0082902D02*
X0100924Y0082902D01*
X0100924Y0083351D02*
X0102274Y0083351D01*
X0102274Y0083800D02*
X0100924Y0083800D01*
X0100924Y0084249D02*
X0102274Y0084249D01*
X0102274Y0084698D02*
X0100924Y0084698D01*
X0100924Y0085147D02*
X0102274Y0085147D01*
X0102274Y0085596D02*
X0100924Y0085596D01*
X0100924Y0086045D02*
X0102274Y0086045D01*
X0102274Y0086494D02*
X0100924Y0086494D01*
X0100924Y0086943D02*
X0102274Y0086943D01*
X0102274Y0087392D02*
X0100924Y0087392D01*
X0100305Y0087558D02*
X0098955Y0087558D01*
X0100305Y0087558D02*
X0100305Y0080208D01*
X0098955Y0080208D01*
X0098955Y0087558D01*
X0098955Y0080657D02*
X0100305Y0080657D01*
X0100305Y0081106D02*
X0098955Y0081106D01*
X0098955Y0081555D02*
X0100305Y0081555D01*
X0100305Y0082004D02*
X0098955Y0082004D01*
X0098955Y0082453D02*
X0100305Y0082453D01*
X0100305Y0082902D02*
X0098955Y0082902D01*
X0098955Y0083351D02*
X0100305Y0083351D01*
X0100305Y0083800D02*
X0098955Y0083800D01*
X0098955Y0084249D02*
X0100305Y0084249D01*
X0100305Y0084698D02*
X0098955Y0084698D01*
X0098955Y0085147D02*
X0100305Y0085147D01*
X0100305Y0085596D02*
X0098955Y0085596D01*
X0098955Y0086045D02*
X0100305Y0086045D01*
X0100305Y0086494D02*
X0098955Y0086494D01*
X0098955Y0086943D02*
X0100305Y0086943D01*
X0100305Y0087392D02*
X0098955Y0087392D01*
X0098337Y0087558D02*
X0096987Y0087558D01*
X0098337Y0087558D02*
X0098337Y0080208D01*
X0096987Y0080208D01*
X0096987Y0087558D01*
X0096987Y0080657D02*
X0098337Y0080657D01*
X0098337Y0081106D02*
X0096987Y0081106D01*
X0096987Y0081555D02*
X0098337Y0081555D01*
X0098337Y0082004D02*
X0096987Y0082004D01*
X0096987Y0082453D02*
X0098337Y0082453D01*
X0098337Y0082902D02*
X0096987Y0082902D01*
X0096987Y0083351D02*
X0098337Y0083351D01*
X0098337Y0083800D02*
X0096987Y0083800D01*
X0096987Y0084249D02*
X0098337Y0084249D01*
X0098337Y0084698D02*
X0096987Y0084698D01*
X0096987Y0085147D02*
X0098337Y0085147D01*
X0098337Y0085596D02*
X0096987Y0085596D01*
X0096987Y0086045D02*
X0098337Y0086045D01*
X0098337Y0086494D02*
X0096987Y0086494D01*
X0096987Y0086943D02*
X0098337Y0086943D01*
X0098337Y0087392D02*
X0096987Y0087392D01*
X0096368Y0087558D02*
X0095018Y0087558D01*
X0096368Y0087558D02*
X0096368Y0080208D01*
X0095018Y0080208D01*
X0095018Y0087558D01*
X0095018Y0080657D02*
X0096368Y0080657D01*
X0096368Y0081106D02*
X0095018Y0081106D01*
X0095018Y0081555D02*
X0096368Y0081555D01*
X0096368Y0082004D02*
X0095018Y0082004D01*
X0095018Y0082453D02*
X0096368Y0082453D01*
X0096368Y0082902D02*
X0095018Y0082902D01*
X0095018Y0083351D02*
X0096368Y0083351D01*
X0096368Y0083800D02*
X0095018Y0083800D01*
X0095018Y0084249D02*
X0096368Y0084249D01*
X0096368Y0084698D02*
X0095018Y0084698D01*
X0095018Y0085147D02*
X0096368Y0085147D01*
X0096368Y0085596D02*
X0095018Y0085596D01*
X0095018Y0086045D02*
X0096368Y0086045D01*
X0096368Y0086494D02*
X0095018Y0086494D01*
X0095018Y0086943D02*
X0096368Y0086943D01*
X0096368Y0087392D02*
X0095018Y0087392D01*
X0094400Y0087558D02*
X0093050Y0087558D01*
X0094400Y0087558D02*
X0094400Y0080208D01*
X0093050Y0080208D01*
X0093050Y0087558D01*
X0093050Y0080657D02*
X0094400Y0080657D01*
X0094400Y0081106D02*
X0093050Y0081106D01*
X0093050Y0081555D02*
X0094400Y0081555D01*
X0094400Y0082004D02*
X0093050Y0082004D01*
X0093050Y0082453D02*
X0094400Y0082453D01*
X0094400Y0082902D02*
X0093050Y0082902D01*
X0093050Y0083351D02*
X0094400Y0083351D01*
X0094400Y0083800D02*
X0093050Y0083800D01*
X0093050Y0084249D02*
X0094400Y0084249D01*
X0094400Y0084698D02*
X0093050Y0084698D01*
X0093050Y0085147D02*
X0094400Y0085147D01*
X0094400Y0085596D02*
X0093050Y0085596D01*
X0093050Y0086045D02*
X0094400Y0086045D01*
X0094400Y0086494D02*
X0093050Y0086494D01*
X0093050Y0086943D02*
X0094400Y0086943D01*
X0094400Y0087392D02*
X0093050Y0087392D01*
X0092431Y0087558D02*
X0091081Y0087558D01*
X0092431Y0087558D02*
X0092431Y0080208D01*
X0091081Y0080208D01*
X0091081Y0087558D01*
X0091081Y0080657D02*
X0092431Y0080657D01*
X0092431Y0081106D02*
X0091081Y0081106D01*
X0091081Y0081555D02*
X0092431Y0081555D01*
X0092431Y0082004D02*
X0091081Y0082004D01*
X0091081Y0082453D02*
X0092431Y0082453D01*
X0092431Y0082902D02*
X0091081Y0082902D01*
X0091081Y0083351D02*
X0092431Y0083351D01*
X0092431Y0083800D02*
X0091081Y0083800D01*
X0091081Y0084249D02*
X0092431Y0084249D01*
X0092431Y0084698D02*
X0091081Y0084698D01*
X0091081Y0085147D02*
X0092431Y0085147D01*
X0092431Y0085596D02*
X0091081Y0085596D01*
X0091081Y0086045D02*
X0092431Y0086045D01*
X0092431Y0086494D02*
X0091081Y0086494D01*
X0091081Y0086943D02*
X0092431Y0086943D01*
X0092431Y0087392D02*
X0091081Y0087392D01*
X0090463Y0087558D02*
X0089113Y0087558D01*
X0090463Y0087558D02*
X0090463Y0080208D01*
X0089113Y0080208D01*
X0089113Y0087558D01*
X0089113Y0080657D02*
X0090463Y0080657D01*
X0090463Y0081106D02*
X0089113Y0081106D01*
X0089113Y0081555D02*
X0090463Y0081555D01*
X0090463Y0082004D02*
X0089113Y0082004D01*
X0089113Y0082453D02*
X0090463Y0082453D01*
X0090463Y0082902D02*
X0089113Y0082902D01*
X0089113Y0083351D02*
X0090463Y0083351D01*
X0090463Y0083800D02*
X0089113Y0083800D01*
X0089113Y0084249D02*
X0090463Y0084249D01*
X0090463Y0084698D02*
X0089113Y0084698D01*
X0089113Y0085147D02*
X0090463Y0085147D01*
X0090463Y0085596D02*
X0089113Y0085596D01*
X0089113Y0086045D02*
X0090463Y0086045D01*
X0090463Y0086494D02*
X0089113Y0086494D01*
X0089113Y0086943D02*
X0090463Y0086943D01*
X0090463Y0087392D02*
X0089113Y0087392D01*
X0088494Y0087558D02*
X0087144Y0087558D01*
X0088494Y0087558D02*
X0088494Y0080208D01*
X0087144Y0080208D01*
X0087144Y0087558D01*
X0087144Y0080657D02*
X0088494Y0080657D01*
X0088494Y0081106D02*
X0087144Y0081106D01*
X0087144Y0081555D02*
X0088494Y0081555D01*
X0088494Y0082004D02*
X0087144Y0082004D01*
X0087144Y0082453D02*
X0088494Y0082453D01*
X0088494Y0082902D02*
X0087144Y0082902D01*
X0087144Y0083351D02*
X0088494Y0083351D01*
X0088494Y0083800D02*
X0087144Y0083800D01*
X0087144Y0084249D02*
X0088494Y0084249D01*
X0088494Y0084698D02*
X0087144Y0084698D01*
X0087144Y0085147D02*
X0088494Y0085147D01*
X0088494Y0085596D02*
X0087144Y0085596D01*
X0087144Y0086045D02*
X0088494Y0086045D01*
X0088494Y0086494D02*
X0087144Y0086494D01*
X0087144Y0086943D02*
X0088494Y0086943D01*
X0088494Y0087392D02*
X0087144Y0087392D01*
X0086526Y0087558D02*
X0085176Y0087558D01*
X0086526Y0087558D02*
X0086526Y0080208D01*
X0085176Y0080208D01*
X0085176Y0087558D01*
X0085176Y0080657D02*
X0086526Y0080657D01*
X0086526Y0081106D02*
X0085176Y0081106D01*
X0085176Y0081555D02*
X0086526Y0081555D01*
X0086526Y0082004D02*
X0085176Y0082004D01*
X0085176Y0082453D02*
X0086526Y0082453D01*
X0086526Y0082902D02*
X0085176Y0082902D01*
X0085176Y0083351D02*
X0086526Y0083351D01*
X0086526Y0083800D02*
X0085176Y0083800D01*
X0085176Y0084249D02*
X0086526Y0084249D01*
X0086526Y0084698D02*
X0085176Y0084698D01*
X0085176Y0085147D02*
X0086526Y0085147D01*
X0086526Y0085596D02*
X0085176Y0085596D01*
X0085176Y0086045D02*
X0086526Y0086045D01*
X0086526Y0086494D02*
X0085176Y0086494D01*
X0085176Y0086943D02*
X0086526Y0086943D01*
X0086526Y0087392D02*
X0085176Y0087392D01*
X0084557Y0087558D02*
X0083207Y0087558D01*
X0084557Y0087558D02*
X0084557Y0080208D01*
X0083207Y0080208D01*
X0083207Y0087558D01*
X0083207Y0080657D02*
X0084557Y0080657D01*
X0084557Y0081106D02*
X0083207Y0081106D01*
X0083207Y0081555D02*
X0084557Y0081555D01*
X0084557Y0082004D02*
X0083207Y0082004D01*
X0083207Y0082453D02*
X0084557Y0082453D01*
X0084557Y0082902D02*
X0083207Y0082902D01*
X0083207Y0083351D02*
X0084557Y0083351D01*
X0084557Y0083800D02*
X0083207Y0083800D01*
X0083207Y0084249D02*
X0084557Y0084249D01*
X0084557Y0084698D02*
X0083207Y0084698D01*
X0083207Y0085147D02*
X0084557Y0085147D01*
X0084557Y0085596D02*
X0083207Y0085596D01*
X0083207Y0086045D02*
X0084557Y0086045D01*
X0084557Y0086494D02*
X0083207Y0086494D01*
X0083207Y0086943D02*
X0084557Y0086943D01*
X0084557Y0087392D02*
X0083207Y0087392D01*
X0082589Y0087558D02*
X0081239Y0087558D01*
X0082589Y0087558D02*
X0082589Y0080208D01*
X0081239Y0080208D01*
X0081239Y0087558D01*
X0081239Y0080657D02*
X0082589Y0080657D01*
X0082589Y0081106D02*
X0081239Y0081106D01*
X0081239Y0081555D02*
X0082589Y0081555D01*
X0082589Y0082004D02*
X0081239Y0082004D01*
X0081239Y0082453D02*
X0082589Y0082453D01*
X0082589Y0082902D02*
X0081239Y0082902D01*
X0081239Y0083351D02*
X0082589Y0083351D01*
X0082589Y0083800D02*
X0081239Y0083800D01*
X0081239Y0084249D02*
X0082589Y0084249D01*
X0082589Y0084698D02*
X0081239Y0084698D01*
X0081239Y0085147D02*
X0082589Y0085147D01*
X0082589Y0085596D02*
X0081239Y0085596D01*
X0081239Y0086045D02*
X0082589Y0086045D01*
X0082589Y0086494D02*
X0081239Y0086494D01*
X0081239Y0086943D02*
X0082589Y0086943D01*
X0082589Y0087392D02*
X0081239Y0087392D01*
X0080620Y0087558D02*
X0079270Y0087558D01*
X0080620Y0087558D02*
X0080620Y0080208D01*
X0079270Y0080208D01*
X0079270Y0087558D01*
X0079270Y0080657D02*
X0080620Y0080657D01*
X0080620Y0081106D02*
X0079270Y0081106D01*
X0079270Y0081555D02*
X0080620Y0081555D01*
X0080620Y0082004D02*
X0079270Y0082004D01*
X0079270Y0082453D02*
X0080620Y0082453D01*
X0080620Y0082902D02*
X0079270Y0082902D01*
X0079270Y0083351D02*
X0080620Y0083351D01*
X0080620Y0083800D02*
X0079270Y0083800D01*
X0079270Y0084249D02*
X0080620Y0084249D01*
X0080620Y0084698D02*
X0079270Y0084698D01*
X0079270Y0085147D02*
X0080620Y0085147D01*
X0080620Y0085596D02*
X0079270Y0085596D01*
X0079270Y0086045D02*
X0080620Y0086045D01*
X0080620Y0086494D02*
X0079270Y0086494D01*
X0079270Y0086943D02*
X0080620Y0086943D01*
X0080620Y0087392D02*
X0079270Y0087392D01*
X0078652Y0087558D02*
X0077302Y0087558D01*
X0078652Y0087558D02*
X0078652Y0080208D01*
X0077302Y0080208D01*
X0077302Y0087558D01*
X0077302Y0080657D02*
X0078652Y0080657D01*
X0078652Y0081106D02*
X0077302Y0081106D01*
X0077302Y0081555D02*
X0078652Y0081555D01*
X0078652Y0082004D02*
X0077302Y0082004D01*
X0077302Y0082453D02*
X0078652Y0082453D01*
X0078652Y0082902D02*
X0077302Y0082902D01*
X0077302Y0083351D02*
X0078652Y0083351D01*
X0078652Y0083800D02*
X0077302Y0083800D01*
X0077302Y0084249D02*
X0078652Y0084249D01*
X0078652Y0084698D02*
X0077302Y0084698D01*
X0077302Y0085147D02*
X0078652Y0085147D01*
X0078652Y0085596D02*
X0077302Y0085596D01*
X0077302Y0086045D02*
X0078652Y0086045D01*
X0078652Y0086494D02*
X0077302Y0086494D01*
X0077302Y0086943D02*
X0078652Y0086943D01*
X0078652Y0087392D02*
X0077302Y0087392D01*
X0076683Y0087558D02*
X0075333Y0087558D01*
X0076683Y0087558D02*
X0076683Y0080208D01*
X0075333Y0080208D01*
X0075333Y0087558D01*
X0075333Y0080657D02*
X0076683Y0080657D01*
X0076683Y0081106D02*
X0075333Y0081106D01*
X0075333Y0081555D02*
X0076683Y0081555D01*
X0076683Y0082004D02*
X0075333Y0082004D01*
X0075333Y0082453D02*
X0076683Y0082453D01*
X0076683Y0082902D02*
X0075333Y0082902D01*
X0075333Y0083351D02*
X0076683Y0083351D01*
X0076683Y0083800D02*
X0075333Y0083800D01*
X0075333Y0084249D02*
X0076683Y0084249D01*
X0076683Y0084698D02*
X0075333Y0084698D01*
X0075333Y0085147D02*
X0076683Y0085147D01*
X0076683Y0085596D02*
X0075333Y0085596D01*
X0075333Y0086045D02*
X0076683Y0086045D01*
X0076683Y0086494D02*
X0075333Y0086494D01*
X0075333Y0086943D02*
X0076683Y0086943D01*
X0076683Y0087392D02*
X0075333Y0087392D01*
X0074831Y0088061D02*
X0074831Y0089411D01*
X0074831Y0088061D02*
X0067481Y0088061D01*
X0067481Y0089411D01*
X0074831Y0089411D01*
X0074831Y0088510D02*
X0067481Y0088510D01*
X0067481Y0088959D02*
X0074831Y0088959D01*
X0074831Y0089408D02*
X0067481Y0089408D01*
X0074831Y0090030D02*
X0074831Y0091380D01*
X0074831Y0090030D02*
X0067481Y0090030D01*
X0067481Y0091380D01*
X0074831Y0091380D01*
X0074831Y0090479D02*
X0067481Y0090479D01*
X0067481Y0090928D02*
X0074831Y0090928D01*
X0074831Y0091377D02*
X0067481Y0091377D01*
X0074831Y0091998D02*
X0074831Y0093348D01*
X0074831Y0091998D02*
X0067481Y0091998D01*
X0067481Y0093348D01*
X0074831Y0093348D01*
X0074831Y0092447D02*
X0067481Y0092447D01*
X0067481Y0092896D02*
X0074831Y0092896D01*
X0074831Y0093345D02*
X0067481Y0093345D01*
X0074831Y0093967D02*
X0074831Y0095317D01*
X0074831Y0093967D02*
X0067481Y0093967D01*
X0067481Y0095317D01*
X0074831Y0095317D01*
X0074831Y0094416D02*
X0067481Y0094416D01*
X0067481Y0094865D02*
X0074831Y0094865D01*
X0074831Y0095314D02*
X0067481Y0095314D01*
X0074831Y0095935D02*
X0074831Y0097285D01*
X0074831Y0095935D02*
X0067481Y0095935D01*
X0067481Y0097285D01*
X0074831Y0097285D01*
X0074831Y0096384D02*
X0067481Y0096384D01*
X0067481Y0096833D02*
X0074831Y0096833D01*
X0074831Y0097282D02*
X0067481Y0097282D01*
X0074831Y0097904D02*
X0074831Y0099254D01*
X0074831Y0097904D02*
X0067481Y0097904D01*
X0067481Y0099254D01*
X0074831Y0099254D01*
X0074831Y0098353D02*
X0067481Y0098353D01*
X0067481Y0098802D02*
X0074831Y0098802D01*
X0074831Y0099251D02*
X0067481Y0099251D01*
X0074831Y0099872D02*
X0074831Y0101222D01*
X0074831Y0099872D02*
X0067481Y0099872D01*
X0067481Y0101222D01*
X0074831Y0101222D01*
X0074831Y0100321D02*
X0067481Y0100321D01*
X0067481Y0100770D02*
X0074831Y0100770D01*
X0074831Y0101219D02*
X0067481Y0101219D01*
X0074831Y0101841D02*
X0074831Y0103191D01*
X0074831Y0101841D02*
X0067481Y0101841D01*
X0067481Y0103191D01*
X0074831Y0103191D01*
X0074831Y0102290D02*
X0067481Y0102290D01*
X0067481Y0102739D02*
X0074831Y0102739D01*
X0074831Y0103188D02*
X0067481Y0103188D01*
X0074831Y0103809D02*
X0074831Y0105159D01*
X0074831Y0103809D02*
X0067481Y0103809D01*
X0067481Y0105159D01*
X0074831Y0105159D01*
X0074831Y0104258D02*
X0067481Y0104258D01*
X0067481Y0104707D02*
X0074831Y0104707D01*
X0074831Y0105156D02*
X0067481Y0105156D01*
X0074831Y0105778D02*
X0074831Y0107128D01*
X0074831Y0105778D02*
X0067481Y0105778D01*
X0067481Y0107128D01*
X0074831Y0107128D01*
X0074831Y0106227D02*
X0067481Y0106227D01*
X0067481Y0106676D02*
X0074831Y0106676D01*
X0074831Y0107125D02*
X0067481Y0107125D01*
X0074831Y0107746D02*
X0074831Y0109096D01*
X0074831Y0107746D02*
X0067481Y0107746D01*
X0067481Y0109096D01*
X0074831Y0109096D01*
X0074831Y0108195D02*
X0067481Y0108195D01*
X0067481Y0108644D02*
X0074831Y0108644D01*
X0074831Y0109093D02*
X0067481Y0109093D01*
X0074831Y0109715D02*
X0074831Y0111065D01*
X0074831Y0109715D02*
X0067481Y0109715D01*
X0067481Y0111065D01*
X0074831Y0111065D01*
X0074831Y0110164D02*
X0067481Y0110164D01*
X0067481Y0110613D02*
X0074831Y0110613D01*
X0074831Y0111062D02*
X0067481Y0111062D01*
X0074831Y0111683D02*
X0074831Y0113033D01*
X0074831Y0111683D02*
X0067481Y0111683D01*
X0067481Y0113033D01*
X0074831Y0113033D01*
X0074831Y0112132D02*
X0067481Y0112132D01*
X0067481Y0112581D02*
X0074831Y0112581D01*
X0074831Y0113030D02*
X0067481Y0113030D01*
X0074831Y0113652D02*
X0074831Y0115002D01*
X0074831Y0113652D02*
X0067481Y0113652D01*
X0067481Y0115002D01*
X0074831Y0115002D01*
X0074831Y0114101D02*
X0067481Y0114101D01*
X0067481Y0114550D02*
X0074831Y0114550D01*
X0074831Y0114999D02*
X0067481Y0114999D01*
X0074831Y0115620D02*
X0074831Y0116970D01*
X0074831Y0115620D02*
X0067481Y0115620D01*
X0067481Y0116970D01*
X0074831Y0116970D01*
X0074831Y0116069D02*
X0067481Y0116069D01*
X0067481Y0116518D02*
X0074831Y0116518D01*
X0074831Y0116967D02*
X0067481Y0116967D01*
X0074831Y0117589D02*
X0074831Y0118939D01*
X0074831Y0117589D02*
X0067481Y0117589D01*
X0067481Y0118939D01*
X0074831Y0118939D01*
X0074831Y0118038D02*
X0067481Y0118038D01*
X0067481Y0118487D02*
X0074831Y0118487D01*
X0074831Y0118936D02*
X0067481Y0118936D01*
X0075333Y0119442D02*
X0076683Y0119442D01*
X0075333Y0119442D02*
X0075333Y0126792D01*
X0076683Y0126792D01*
X0076683Y0119442D01*
X0076683Y0119891D02*
X0075333Y0119891D01*
X0075333Y0120340D02*
X0076683Y0120340D01*
X0076683Y0120789D02*
X0075333Y0120789D01*
X0075333Y0121238D02*
X0076683Y0121238D01*
X0076683Y0121687D02*
X0075333Y0121687D01*
X0075333Y0122136D02*
X0076683Y0122136D01*
X0076683Y0122585D02*
X0075333Y0122585D01*
X0075333Y0123034D02*
X0076683Y0123034D01*
X0076683Y0123483D02*
X0075333Y0123483D01*
X0075333Y0123932D02*
X0076683Y0123932D01*
X0076683Y0124381D02*
X0075333Y0124381D01*
X0075333Y0124830D02*
X0076683Y0124830D01*
X0076683Y0125279D02*
X0075333Y0125279D01*
X0075333Y0125728D02*
X0076683Y0125728D01*
X0076683Y0126177D02*
X0075333Y0126177D01*
X0075333Y0126626D02*
X0076683Y0126626D01*
X0077302Y0119442D02*
X0078652Y0119442D01*
X0077302Y0119442D02*
X0077302Y0126792D01*
X0078652Y0126792D01*
X0078652Y0119442D01*
X0078652Y0119891D02*
X0077302Y0119891D01*
X0077302Y0120340D02*
X0078652Y0120340D01*
X0078652Y0120789D02*
X0077302Y0120789D01*
X0077302Y0121238D02*
X0078652Y0121238D01*
X0078652Y0121687D02*
X0077302Y0121687D01*
X0077302Y0122136D02*
X0078652Y0122136D01*
X0078652Y0122585D02*
X0077302Y0122585D01*
X0077302Y0123034D02*
X0078652Y0123034D01*
X0078652Y0123483D02*
X0077302Y0123483D01*
X0077302Y0123932D02*
X0078652Y0123932D01*
X0078652Y0124381D02*
X0077302Y0124381D01*
X0077302Y0124830D02*
X0078652Y0124830D01*
X0078652Y0125279D02*
X0077302Y0125279D01*
X0077302Y0125728D02*
X0078652Y0125728D01*
X0078652Y0126177D02*
X0077302Y0126177D01*
X0077302Y0126626D02*
X0078652Y0126626D01*
X0079270Y0119442D02*
X0080620Y0119442D01*
X0079270Y0119442D02*
X0079270Y0126792D01*
X0080620Y0126792D01*
X0080620Y0119442D01*
X0080620Y0119891D02*
X0079270Y0119891D01*
X0079270Y0120340D02*
X0080620Y0120340D01*
X0080620Y0120789D02*
X0079270Y0120789D01*
X0079270Y0121238D02*
X0080620Y0121238D01*
X0080620Y0121687D02*
X0079270Y0121687D01*
X0079270Y0122136D02*
X0080620Y0122136D01*
X0080620Y0122585D02*
X0079270Y0122585D01*
X0079270Y0123034D02*
X0080620Y0123034D01*
X0080620Y0123483D02*
X0079270Y0123483D01*
X0079270Y0123932D02*
X0080620Y0123932D01*
X0080620Y0124381D02*
X0079270Y0124381D01*
X0079270Y0124830D02*
X0080620Y0124830D01*
X0080620Y0125279D02*
X0079270Y0125279D01*
X0079270Y0125728D02*
X0080620Y0125728D01*
X0080620Y0126177D02*
X0079270Y0126177D01*
X0079270Y0126626D02*
X0080620Y0126626D01*
X0081239Y0119442D02*
X0082589Y0119442D01*
X0081239Y0119442D02*
X0081239Y0126792D01*
X0082589Y0126792D01*
X0082589Y0119442D01*
X0082589Y0119891D02*
X0081239Y0119891D01*
X0081239Y0120340D02*
X0082589Y0120340D01*
X0082589Y0120789D02*
X0081239Y0120789D01*
X0081239Y0121238D02*
X0082589Y0121238D01*
X0082589Y0121687D02*
X0081239Y0121687D01*
X0081239Y0122136D02*
X0082589Y0122136D01*
X0082589Y0122585D02*
X0081239Y0122585D01*
X0081239Y0123034D02*
X0082589Y0123034D01*
X0082589Y0123483D02*
X0081239Y0123483D01*
X0081239Y0123932D02*
X0082589Y0123932D01*
X0082589Y0124381D02*
X0081239Y0124381D01*
X0081239Y0124830D02*
X0082589Y0124830D01*
X0082589Y0125279D02*
X0081239Y0125279D01*
X0081239Y0125728D02*
X0082589Y0125728D01*
X0082589Y0126177D02*
X0081239Y0126177D01*
X0081239Y0126626D02*
X0082589Y0126626D01*
X0083207Y0119442D02*
X0084557Y0119442D01*
X0083207Y0119442D02*
X0083207Y0126792D01*
X0084557Y0126792D01*
X0084557Y0119442D01*
X0084557Y0119891D02*
X0083207Y0119891D01*
X0083207Y0120340D02*
X0084557Y0120340D01*
X0084557Y0120789D02*
X0083207Y0120789D01*
X0083207Y0121238D02*
X0084557Y0121238D01*
X0084557Y0121687D02*
X0083207Y0121687D01*
X0083207Y0122136D02*
X0084557Y0122136D01*
X0084557Y0122585D02*
X0083207Y0122585D01*
X0083207Y0123034D02*
X0084557Y0123034D01*
X0084557Y0123483D02*
X0083207Y0123483D01*
X0083207Y0123932D02*
X0084557Y0123932D01*
X0084557Y0124381D02*
X0083207Y0124381D01*
X0083207Y0124830D02*
X0084557Y0124830D01*
X0084557Y0125279D02*
X0083207Y0125279D01*
X0083207Y0125728D02*
X0084557Y0125728D01*
X0084557Y0126177D02*
X0083207Y0126177D01*
X0083207Y0126626D02*
X0084557Y0126626D01*
X0085176Y0119442D02*
X0086526Y0119442D01*
X0085176Y0119442D02*
X0085176Y0126792D01*
X0086526Y0126792D01*
X0086526Y0119442D01*
X0086526Y0119891D02*
X0085176Y0119891D01*
X0085176Y0120340D02*
X0086526Y0120340D01*
X0086526Y0120789D02*
X0085176Y0120789D01*
X0085176Y0121238D02*
X0086526Y0121238D01*
X0086526Y0121687D02*
X0085176Y0121687D01*
X0085176Y0122136D02*
X0086526Y0122136D01*
X0086526Y0122585D02*
X0085176Y0122585D01*
X0085176Y0123034D02*
X0086526Y0123034D01*
X0086526Y0123483D02*
X0085176Y0123483D01*
X0085176Y0123932D02*
X0086526Y0123932D01*
X0086526Y0124381D02*
X0085176Y0124381D01*
X0085176Y0124830D02*
X0086526Y0124830D01*
X0086526Y0125279D02*
X0085176Y0125279D01*
X0085176Y0125728D02*
X0086526Y0125728D01*
X0086526Y0126177D02*
X0085176Y0126177D01*
X0085176Y0126626D02*
X0086526Y0126626D01*
X0087144Y0119442D02*
X0088494Y0119442D01*
X0087144Y0119442D02*
X0087144Y0126792D01*
X0088494Y0126792D01*
X0088494Y0119442D01*
X0088494Y0119891D02*
X0087144Y0119891D01*
X0087144Y0120340D02*
X0088494Y0120340D01*
X0088494Y0120789D02*
X0087144Y0120789D01*
X0087144Y0121238D02*
X0088494Y0121238D01*
X0088494Y0121687D02*
X0087144Y0121687D01*
X0087144Y0122136D02*
X0088494Y0122136D01*
X0088494Y0122585D02*
X0087144Y0122585D01*
X0087144Y0123034D02*
X0088494Y0123034D01*
X0088494Y0123483D02*
X0087144Y0123483D01*
X0087144Y0123932D02*
X0088494Y0123932D01*
X0088494Y0124381D02*
X0087144Y0124381D01*
X0087144Y0124830D02*
X0088494Y0124830D01*
X0088494Y0125279D02*
X0087144Y0125279D01*
X0087144Y0125728D02*
X0088494Y0125728D01*
X0088494Y0126177D02*
X0087144Y0126177D01*
X0087144Y0126626D02*
X0088494Y0126626D01*
X0089113Y0119442D02*
X0090463Y0119442D01*
X0089113Y0119442D02*
X0089113Y0126792D01*
X0090463Y0126792D01*
X0090463Y0119442D01*
X0090463Y0119891D02*
X0089113Y0119891D01*
X0089113Y0120340D02*
X0090463Y0120340D01*
X0090463Y0120789D02*
X0089113Y0120789D01*
X0089113Y0121238D02*
X0090463Y0121238D01*
X0090463Y0121687D02*
X0089113Y0121687D01*
X0089113Y0122136D02*
X0090463Y0122136D01*
X0090463Y0122585D02*
X0089113Y0122585D01*
X0089113Y0123034D02*
X0090463Y0123034D01*
X0090463Y0123483D02*
X0089113Y0123483D01*
X0089113Y0123932D02*
X0090463Y0123932D01*
X0090463Y0124381D02*
X0089113Y0124381D01*
X0089113Y0124830D02*
X0090463Y0124830D01*
X0090463Y0125279D02*
X0089113Y0125279D01*
X0089113Y0125728D02*
X0090463Y0125728D01*
X0090463Y0126177D02*
X0089113Y0126177D01*
X0089113Y0126626D02*
X0090463Y0126626D01*
X0091081Y0119442D02*
X0092431Y0119442D01*
X0091081Y0119442D02*
X0091081Y0126792D01*
X0092431Y0126792D01*
X0092431Y0119442D01*
X0092431Y0119891D02*
X0091081Y0119891D01*
X0091081Y0120340D02*
X0092431Y0120340D01*
X0092431Y0120789D02*
X0091081Y0120789D01*
X0091081Y0121238D02*
X0092431Y0121238D01*
X0092431Y0121687D02*
X0091081Y0121687D01*
X0091081Y0122136D02*
X0092431Y0122136D01*
X0092431Y0122585D02*
X0091081Y0122585D01*
X0091081Y0123034D02*
X0092431Y0123034D01*
X0092431Y0123483D02*
X0091081Y0123483D01*
X0091081Y0123932D02*
X0092431Y0123932D01*
X0092431Y0124381D02*
X0091081Y0124381D01*
X0091081Y0124830D02*
X0092431Y0124830D01*
X0092431Y0125279D02*
X0091081Y0125279D01*
X0091081Y0125728D02*
X0092431Y0125728D01*
X0092431Y0126177D02*
X0091081Y0126177D01*
X0091081Y0126626D02*
X0092431Y0126626D01*
X0093050Y0119442D02*
X0094400Y0119442D01*
X0093050Y0119442D02*
X0093050Y0126792D01*
X0094400Y0126792D01*
X0094400Y0119442D01*
X0094400Y0119891D02*
X0093050Y0119891D01*
X0093050Y0120340D02*
X0094400Y0120340D01*
X0094400Y0120789D02*
X0093050Y0120789D01*
X0093050Y0121238D02*
X0094400Y0121238D01*
X0094400Y0121687D02*
X0093050Y0121687D01*
X0093050Y0122136D02*
X0094400Y0122136D01*
X0094400Y0122585D02*
X0093050Y0122585D01*
X0093050Y0123034D02*
X0094400Y0123034D01*
X0094400Y0123483D02*
X0093050Y0123483D01*
X0093050Y0123932D02*
X0094400Y0123932D01*
X0094400Y0124381D02*
X0093050Y0124381D01*
X0093050Y0124830D02*
X0094400Y0124830D01*
X0094400Y0125279D02*
X0093050Y0125279D01*
X0093050Y0125728D02*
X0094400Y0125728D01*
X0094400Y0126177D02*
X0093050Y0126177D01*
X0093050Y0126626D02*
X0094400Y0126626D01*
X0095018Y0119442D02*
X0096368Y0119442D01*
X0095018Y0119442D02*
X0095018Y0126792D01*
X0096368Y0126792D01*
X0096368Y0119442D01*
X0096368Y0119891D02*
X0095018Y0119891D01*
X0095018Y0120340D02*
X0096368Y0120340D01*
X0096368Y0120789D02*
X0095018Y0120789D01*
X0095018Y0121238D02*
X0096368Y0121238D01*
X0096368Y0121687D02*
X0095018Y0121687D01*
X0095018Y0122136D02*
X0096368Y0122136D01*
X0096368Y0122585D02*
X0095018Y0122585D01*
X0095018Y0123034D02*
X0096368Y0123034D01*
X0096368Y0123483D02*
X0095018Y0123483D01*
X0095018Y0123932D02*
X0096368Y0123932D01*
X0096368Y0124381D02*
X0095018Y0124381D01*
X0095018Y0124830D02*
X0096368Y0124830D01*
X0096368Y0125279D02*
X0095018Y0125279D01*
X0095018Y0125728D02*
X0096368Y0125728D01*
X0096368Y0126177D02*
X0095018Y0126177D01*
X0095018Y0126626D02*
X0096368Y0126626D01*
X0096987Y0119442D02*
X0098337Y0119442D01*
X0096987Y0119442D02*
X0096987Y0126792D01*
X0098337Y0126792D01*
X0098337Y0119442D01*
X0098337Y0119891D02*
X0096987Y0119891D01*
X0096987Y0120340D02*
X0098337Y0120340D01*
X0098337Y0120789D02*
X0096987Y0120789D01*
X0096987Y0121238D02*
X0098337Y0121238D01*
X0098337Y0121687D02*
X0096987Y0121687D01*
X0096987Y0122136D02*
X0098337Y0122136D01*
X0098337Y0122585D02*
X0096987Y0122585D01*
X0096987Y0123034D02*
X0098337Y0123034D01*
X0098337Y0123483D02*
X0096987Y0123483D01*
X0096987Y0123932D02*
X0098337Y0123932D01*
X0098337Y0124381D02*
X0096987Y0124381D01*
X0096987Y0124830D02*
X0098337Y0124830D01*
X0098337Y0125279D02*
X0096987Y0125279D01*
X0096987Y0125728D02*
X0098337Y0125728D01*
X0098337Y0126177D02*
X0096987Y0126177D01*
X0096987Y0126626D02*
X0098337Y0126626D01*
X0098955Y0119442D02*
X0100305Y0119442D01*
X0098955Y0119442D02*
X0098955Y0126792D01*
X0100305Y0126792D01*
X0100305Y0119442D01*
X0100305Y0119891D02*
X0098955Y0119891D01*
X0098955Y0120340D02*
X0100305Y0120340D01*
X0100305Y0120789D02*
X0098955Y0120789D01*
X0098955Y0121238D02*
X0100305Y0121238D01*
X0100305Y0121687D02*
X0098955Y0121687D01*
X0098955Y0122136D02*
X0100305Y0122136D01*
X0100305Y0122585D02*
X0098955Y0122585D01*
X0098955Y0123034D02*
X0100305Y0123034D01*
X0100305Y0123483D02*
X0098955Y0123483D01*
X0098955Y0123932D02*
X0100305Y0123932D01*
X0100305Y0124381D02*
X0098955Y0124381D01*
X0098955Y0124830D02*
X0100305Y0124830D01*
X0100305Y0125279D02*
X0098955Y0125279D01*
X0098955Y0125728D02*
X0100305Y0125728D01*
X0100305Y0126177D02*
X0098955Y0126177D01*
X0098955Y0126626D02*
X0100305Y0126626D01*
X0100924Y0119442D02*
X0102274Y0119442D01*
X0100924Y0119442D02*
X0100924Y0126792D01*
X0102274Y0126792D01*
X0102274Y0119442D01*
X0102274Y0119891D02*
X0100924Y0119891D01*
X0100924Y0120340D02*
X0102274Y0120340D01*
X0102274Y0120789D02*
X0100924Y0120789D01*
X0100924Y0121238D02*
X0102274Y0121238D01*
X0102274Y0121687D02*
X0100924Y0121687D01*
X0100924Y0122136D02*
X0102274Y0122136D01*
X0102274Y0122585D02*
X0100924Y0122585D01*
X0100924Y0123034D02*
X0102274Y0123034D01*
X0102274Y0123483D02*
X0100924Y0123483D01*
X0100924Y0123932D02*
X0102274Y0123932D01*
X0102274Y0124381D02*
X0100924Y0124381D01*
X0100924Y0124830D02*
X0102274Y0124830D01*
X0102274Y0125279D02*
X0100924Y0125279D01*
X0100924Y0125728D02*
X0102274Y0125728D01*
X0102274Y0126177D02*
X0100924Y0126177D01*
X0100924Y0126626D02*
X0102274Y0126626D01*
X0102892Y0119442D02*
X0104242Y0119442D01*
X0102892Y0119442D02*
X0102892Y0126792D01*
X0104242Y0126792D01*
X0104242Y0119442D01*
X0104242Y0119891D02*
X0102892Y0119891D01*
X0102892Y0120340D02*
X0104242Y0120340D01*
X0104242Y0120789D02*
X0102892Y0120789D01*
X0102892Y0121238D02*
X0104242Y0121238D01*
X0104242Y0121687D02*
X0102892Y0121687D01*
X0102892Y0122136D02*
X0104242Y0122136D01*
X0104242Y0122585D02*
X0102892Y0122585D01*
X0102892Y0123034D02*
X0104242Y0123034D01*
X0104242Y0123483D02*
X0102892Y0123483D01*
X0102892Y0123932D02*
X0104242Y0123932D01*
X0104242Y0124381D02*
X0102892Y0124381D01*
X0102892Y0124830D02*
X0104242Y0124830D01*
X0104242Y0125279D02*
X0102892Y0125279D01*
X0102892Y0125728D02*
X0104242Y0125728D01*
X0104242Y0126177D02*
X0102892Y0126177D01*
X0102892Y0126626D02*
X0104242Y0126626D01*
X0104861Y0119442D02*
X0106211Y0119442D01*
X0104861Y0119442D02*
X0104861Y0126792D01*
X0106211Y0126792D01*
X0106211Y0119442D01*
X0106211Y0119891D02*
X0104861Y0119891D01*
X0104861Y0120340D02*
X0106211Y0120340D01*
X0106211Y0120789D02*
X0104861Y0120789D01*
X0104861Y0121238D02*
X0106211Y0121238D01*
X0106211Y0121687D02*
X0104861Y0121687D01*
X0104861Y0122136D02*
X0106211Y0122136D01*
X0106211Y0122585D02*
X0104861Y0122585D01*
X0104861Y0123034D02*
X0106211Y0123034D01*
X0106211Y0123483D02*
X0104861Y0123483D01*
X0104861Y0123932D02*
X0106211Y0123932D01*
X0106211Y0124381D02*
X0104861Y0124381D01*
X0104861Y0124830D02*
X0106211Y0124830D01*
X0106211Y0125279D02*
X0104861Y0125279D01*
X0104861Y0125728D02*
X0106211Y0125728D01*
X0106211Y0126177D02*
X0104861Y0126177D01*
X0104861Y0126626D02*
X0106211Y0126626D01*
X0106714Y0118939D02*
X0106714Y0117589D01*
X0106714Y0118939D02*
X0114064Y0118939D01*
X0114064Y0117589D01*
X0106714Y0117589D01*
X0106714Y0118038D02*
X0114064Y0118038D01*
X0114064Y0118487D02*
X0106714Y0118487D01*
X0106714Y0118936D02*
X0114064Y0118936D01*
X0106714Y0116970D02*
X0106714Y0115620D01*
X0106714Y0116970D02*
X0114064Y0116970D01*
X0114064Y0115620D01*
X0106714Y0115620D01*
X0106714Y0116069D02*
X0114064Y0116069D01*
X0114064Y0116518D02*
X0106714Y0116518D01*
X0106714Y0116967D02*
X0114064Y0116967D01*
X0106714Y0115002D02*
X0106714Y0113652D01*
X0106714Y0115002D02*
X0114064Y0115002D01*
X0114064Y0113652D01*
X0106714Y0113652D01*
X0106714Y0114101D02*
X0114064Y0114101D01*
X0114064Y0114550D02*
X0106714Y0114550D01*
X0106714Y0114999D02*
X0114064Y0114999D01*
X0106714Y0113033D02*
X0106714Y0111683D01*
X0106714Y0113033D02*
X0114064Y0113033D01*
X0114064Y0111683D01*
X0106714Y0111683D01*
X0106714Y0112132D02*
X0114064Y0112132D01*
X0114064Y0112581D02*
X0106714Y0112581D01*
X0106714Y0113030D02*
X0114064Y0113030D01*
X0106714Y0111065D02*
X0106714Y0109715D01*
X0106714Y0111065D02*
X0114064Y0111065D01*
X0114064Y0109715D01*
X0106714Y0109715D01*
X0106714Y0110164D02*
X0114064Y0110164D01*
X0114064Y0110613D02*
X0106714Y0110613D01*
X0106714Y0111062D02*
X0114064Y0111062D01*
X0106714Y0109096D02*
X0106714Y0107746D01*
X0106714Y0109096D02*
X0114064Y0109096D01*
X0114064Y0107746D01*
X0106714Y0107746D01*
X0106714Y0108195D02*
X0114064Y0108195D01*
X0114064Y0108644D02*
X0106714Y0108644D01*
X0106714Y0109093D02*
X0114064Y0109093D01*
X0106714Y0107128D02*
X0106714Y0105778D01*
X0106714Y0107128D02*
X0114064Y0107128D01*
X0114064Y0105778D01*
X0106714Y0105778D01*
X0106714Y0106227D02*
X0114064Y0106227D01*
X0114064Y0106676D02*
X0106714Y0106676D01*
X0106714Y0107125D02*
X0114064Y0107125D01*
X0106714Y0105159D02*
X0106714Y0103809D01*
X0106714Y0105159D02*
X0114064Y0105159D01*
X0114064Y0103809D01*
X0106714Y0103809D01*
X0106714Y0104258D02*
X0114064Y0104258D01*
X0114064Y0104707D02*
X0106714Y0104707D01*
X0106714Y0105156D02*
X0114064Y0105156D01*
X0106714Y0103191D02*
X0106714Y0101841D01*
X0106714Y0103191D02*
X0114064Y0103191D01*
X0114064Y0101841D01*
X0106714Y0101841D01*
X0106714Y0102290D02*
X0114064Y0102290D01*
X0114064Y0102739D02*
X0106714Y0102739D01*
X0106714Y0103188D02*
X0114064Y0103188D01*
X0106714Y0101222D02*
X0106714Y0099872D01*
X0106714Y0101222D02*
X0114064Y0101222D01*
X0114064Y0099872D01*
X0106714Y0099872D01*
X0106714Y0100321D02*
X0114064Y0100321D01*
X0114064Y0100770D02*
X0106714Y0100770D01*
X0106714Y0101219D02*
X0114064Y0101219D01*
X0106714Y0099254D02*
X0106714Y0097904D01*
X0106714Y0099254D02*
X0114064Y0099254D01*
X0114064Y0097904D01*
X0106714Y0097904D01*
X0106714Y0098353D02*
X0114064Y0098353D01*
X0114064Y0098802D02*
X0106714Y0098802D01*
X0106714Y0099251D02*
X0114064Y0099251D01*
X0106714Y0097285D02*
X0106714Y0095935D01*
X0106714Y0097285D02*
X0114064Y0097285D01*
X0114064Y0095935D01*
X0106714Y0095935D01*
X0106714Y0096384D02*
X0114064Y0096384D01*
X0114064Y0096833D02*
X0106714Y0096833D01*
X0106714Y0097282D02*
X0114064Y0097282D01*
X0106714Y0095317D02*
X0106714Y0093967D01*
X0106714Y0095317D02*
X0114064Y0095317D01*
X0114064Y0093967D01*
X0106714Y0093967D01*
X0106714Y0094416D02*
X0114064Y0094416D01*
X0114064Y0094865D02*
X0106714Y0094865D01*
X0106714Y0095314D02*
X0114064Y0095314D01*
X0106714Y0093348D02*
X0106714Y0091998D01*
X0106714Y0093348D02*
X0114064Y0093348D01*
X0114064Y0091998D01*
X0106714Y0091998D01*
X0106714Y0092447D02*
X0114064Y0092447D01*
X0114064Y0092896D02*
X0106714Y0092896D01*
X0106714Y0093345D02*
X0114064Y0093345D01*
X0106714Y0091380D02*
X0106714Y0090030D01*
X0106714Y0091380D02*
X0114064Y0091380D01*
X0114064Y0090030D01*
X0106714Y0090030D01*
X0106714Y0090479D02*
X0114064Y0090479D01*
X0114064Y0090928D02*
X0106714Y0090928D01*
X0106714Y0091377D02*
X0114064Y0091377D01*
X0106714Y0089411D02*
X0106714Y0088061D01*
X0106714Y0089411D02*
X0114064Y0089411D01*
X0114064Y0088061D01*
X0106714Y0088061D01*
X0106714Y0088510D02*
X0114064Y0088510D01*
X0114064Y0088959D02*
X0106714Y0088959D01*
X0106714Y0089408D02*
X0114064Y0089408D01*
D23*
X0097495Y0096777D02*
X0097495Y0110223D01*
X0097495Y0096777D02*
X0084049Y0096777D01*
X0084049Y0110223D01*
X0097495Y0110223D01*
X0097495Y0101257D02*
X0084049Y0101257D01*
X0084049Y0105737D02*
X0097495Y0105737D01*
X0097495Y0110217D02*
X0084049Y0110217D01*
D24*
X0040772Y0018500D03*
X0040772Y0028500D03*
D25*
X0185233Y0066598D03*
X0190233Y0066598D03*
X0190233Y0071598D03*
X0185233Y0071598D03*
X0185233Y0076598D03*
X0190233Y0076598D03*
X0190233Y0081598D03*
X0185233Y0081598D03*
X0185233Y0086598D03*
X0190233Y0086598D03*
D26*
X0174772Y0085500D03*
X0167772Y0076500D03*
X0174772Y0071500D03*
X0174772Y0042500D03*
X0174772Y0035500D03*
X0122772Y0035500D03*
X0122772Y0042500D03*
X0100772Y0032500D03*
X0100772Y0014500D03*
X0106772Y0014500D03*
X0064772Y0028500D03*
X0068772Y0044500D03*
X0072772Y0060500D03*
X0081772Y0061500D03*
X0075772Y0071500D03*
X0078772Y0074500D03*
X0069772Y0081500D03*
X0064772Y0096500D03*
X0054772Y0103500D03*
X0058772Y0105500D03*
X0064772Y0104500D03*
X0064772Y0116500D03*
X0070772Y0124500D03*
X0087772Y0129500D03*
X0120772Y0121500D03*
X0122772Y0110500D03*
X0122772Y0098500D03*
X0116772Y0092500D03*
X0120772Y0086500D03*
X0122772Y0080500D03*
X0120772Y0070500D03*
X0110772Y0065500D03*
X0120772Y0060500D03*
X0098772Y0074531D03*
X0091772Y0051500D03*
X0038772Y0091500D03*
X0034772Y0099500D03*
X0040772Y0124500D03*
X0174772Y0115500D03*
X0179772Y0110500D03*
M02*
