G75*
%MOIN*%
%OFA0B0*%
%FSLAX25Y25*%
%IPPOS*%
%LPD*%
%AMOC8*
5,1,8,0,0,1.08239X$1,22.5*
%
%ADD10R,0.02362X0.02362*%
%ADD11R,0.13386X0.07480*%
%ADD12R,0.07600X0.21000*%
%ADD13R,0.02165X0.04724*%
%ADD14C,0.03969*%
%ADD15C,0.02978*%
%ADD16C,0.01600*%
%ADD17C,0.01000*%
%ADD18C,0.02000*%
%ADD19C,0.00600*%
D10*
X0085772Y0060531D03*
X0085772Y0064469D03*
X0090772Y0067531D03*
X0090772Y0071469D03*
X0056772Y0092531D03*
X0056772Y0096469D03*
X0049741Y0084500D03*
X0045804Y0084500D03*
D11*
X0078772Y0049177D03*
X0078772Y0033823D03*
D12*
X0105772Y0045500D03*
X0105772Y0083500D03*
D13*
X0051512Y0089382D03*
X0047772Y0089382D03*
X0044032Y0089382D03*
X0044032Y0099618D03*
X0047772Y0099618D03*
X0051512Y0099618D03*
D14*
X0185233Y0086598D03*
X0190233Y0086598D03*
X0190233Y0081598D03*
X0185233Y0081598D03*
X0185233Y0076598D03*
X0190233Y0076598D03*
X0190233Y0071598D03*
X0185233Y0071598D03*
X0185233Y0066598D03*
X0190233Y0066598D03*
D15*
X0174772Y0071500D03*
X0167772Y0076500D03*
X0174772Y0085500D03*
X0179772Y0110500D03*
X0174772Y0115500D03*
X0122772Y0110500D03*
X0120772Y0121500D03*
X0087772Y0129500D03*
X0070772Y0124500D03*
X0064772Y0116500D03*
X0064772Y0104500D03*
X0058772Y0105500D03*
X0054772Y0103500D03*
X0064772Y0096500D03*
X0069772Y0081500D03*
X0078772Y0074500D03*
X0075772Y0071500D03*
X0081772Y0061500D03*
X0072772Y0060500D03*
X0091772Y0051500D03*
X0110772Y0065500D03*
X0120772Y0060500D03*
X0120772Y0070500D03*
X0122772Y0080500D03*
X0120772Y0086500D03*
X0116772Y0092500D03*
X0122772Y0098500D03*
X0098772Y0074531D03*
X0068772Y0044500D03*
X0064772Y0028500D03*
X0100772Y0032500D03*
X0122772Y0035500D03*
X0122772Y0042500D03*
X0106772Y0014500D03*
X0100772Y0014500D03*
X0174772Y0035500D03*
X0174772Y0042500D03*
X0040772Y0124500D03*
X0034772Y0099500D03*
X0038772Y0091500D03*
D16*
X0080772Y0035500D02*
X0097772Y0035500D01*
X0100772Y0032500D01*
X0080772Y0035500D02*
X0079095Y0033823D01*
D17*
X0078772Y0033823D01*
X0089772Y0051500D02*
X0091772Y0051500D01*
X0089772Y0051500D02*
X0081772Y0059500D01*
X0081772Y0061500D01*
X0078772Y0064500D02*
X0085741Y0064500D01*
X0085772Y0064469D01*
X0096804Y0064469D01*
X0105772Y0055500D01*
X0105772Y0045500D01*
X0122772Y0038500D02*
X0123772Y0038500D01*
X0120772Y0060500D02*
X0120772Y0062500D01*
X0117772Y0065500D01*
X0117772Y0091500D01*
X0116772Y0092500D01*
X0120772Y0086500D02*
X0121772Y0086500D01*
X0122772Y0087500D01*
X0122772Y0098500D01*
X0105772Y0083500D02*
X0102772Y0072500D01*
X0097804Y0067531D01*
X0090772Y0067531D01*
X0090741Y0067500D01*
X0079772Y0067500D01*
X0078772Y0068500D01*
X0078772Y0074500D01*
X0075772Y0071500D02*
X0075772Y0067500D01*
X0078772Y0064500D01*
X0059772Y0088500D02*
X0052772Y0081500D01*
X0047772Y0081500D01*
X0045804Y0083469D01*
X0045804Y0084500D01*
X0044772Y0086500D01*
X0044032Y0089382D01*
X0046215Y0090939D02*
X0046215Y0092200D01*
X0045570Y0092844D01*
X0042494Y0092844D01*
X0041150Y0091500D01*
X0038772Y0091500D01*
X0037772Y0095500D02*
X0049772Y0095500D01*
X0051272Y0097000D01*
X0053772Y0097000D01*
X0053788Y0096984D01*
X0057288Y0096984D01*
X0056772Y0096469D01*
X0057288Y0096984D02*
X0064772Y0104469D01*
X0064772Y0104500D01*
X0063772Y0105500D01*
X0063772Y0115500D01*
X0064772Y0116500D01*
X0064772Y0125500D01*
X0069772Y0130500D01*
X0086772Y0130500D01*
X0087772Y0129500D01*
X0088772Y0130500D01*
X0111772Y0130500D01*
X0120772Y0121500D01*
X0174772Y0115500D02*
X0175772Y0114500D01*
X0175772Y0086500D01*
X0174772Y0085500D01*
X0175772Y0084500D01*
X0175772Y0072500D01*
X0174772Y0071500D01*
X0175772Y0070500D01*
X0176772Y0059500D02*
X0175772Y0058500D01*
X0175772Y0043500D01*
X0174772Y0042500D01*
X0106772Y0014500D02*
X0105772Y0013500D01*
X0101772Y0013500D01*
X0100772Y0014500D01*
X0049741Y0084500D02*
X0050772Y0086500D01*
X0051512Y0089382D01*
X0054772Y0089500D01*
X0056772Y0092531D01*
X0059772Y0092500D02*
X0059772Y0088500D01*
X0059772Y0092500D02*
X0063772Y0096500D01*
X0064772Y0096500D01*
X0054272Y0097000D02*
X0053772Y0097000D01*
X0051512Y0097240D02*
X0051272Y0097000D01*
X0051512Y0097240D02*
X0051512Y0099618D01*
X0047772Y0099618D02*
X0047772Y0101500D01*
X0049772Y0103500D01*
X0054772Y0103500D01*
X0053111Y0105500D02*
X0046772Y0105500D01*
X0043772Y0102500D01*
X0044032Y0099618D01*
X0037772Y0095500D02*
X0034772Y0099500D01*
X0046215Y0090939D02*
X0047772Y0089382D01*
X0047772Y0091500D01*
X0053111Y0105500D02*
X0053700Y0106089D01*
X0055845Y0106089D01*
X0056433Y0105500D01*
X0058772Y0105500D01*
D18*
X0120772Y0070500D02*
X0120772Y0067500D01*
X0124772Y0063500D01*
X0124772Y0044500D01*
X0122772Y0042500D01*
X0078772Y0049177D02*
X0078772Y0054500D01*
X0072772Y0060500D01*
X0175772Y0060500D02*
X0175772Y0070500D01*
X0175772Y0060500D02*
X0176772Y0059500D01*
X0184772Y0059500D01*
X0190233Y0064961D01*
X0190233Y0066598D01*
D19*
X0033198Y0016058D02*
X0033917Y0013373D01*
X0035307Y0010966D01*
X0037273Y0009000D01*
X0039680Y0007611D01*
X0042365Y0006891D01*
X0043755Y0006800D01*
X0188262Y0006800D01*
X0189819Y0006887D01*
X0192856Y0007581D01*
X0195663Y0008932D01*
X0198098Y0010875D01*
X0200041Y0013310D01*
X0201392Y0016117D01*
X0202085Y0019154D01*
X0202173Y0020711D01*
X0202173Y0120629D01*
X0202074Y0122140D01*
X0201294Y0125060D01*
X0199787Y0127681D01*
X0197656Y0129824D01*
X0195044Y0131345D01*
X0192129Y0132141D01*
X0190619Y0132248D01*
X0046465Y0132248D01*
X0046462Y0132247D01*
X0045608Y0132248D01*
X0045607Y0132248D01*
X0044205Y0132171D01*
X0041471Y0131549D01*
X0038945Y0130333D01*
X0036754Y0128583D01*
X0035008Y0126389D01*
X0033797Y0123860D01*
X0033181Y0121125D01*
X0033107Y0119723D01*
X0033107Y0119716D01*
X0033109Y0118868D01*
X0033107Y0118861D01*
X0033107Y0101213D01*
X0033783Y0101889D01*
X0035762Y0101889D01*
X0037161Y0100490D01*
X0037161Y0098648D01*
X0038472Y0096900D01*
X0042049Y0096900D01*
X0042049Y0102353D01*
X0042352Y0102656D01*
X0042326Y0102952D01*
X0042372Y0103007D01*
X0042372Y0103080D01*
X0042738Y0103445D01*
X0043069Y0103842D01*
X0043141Y0103849D01*
X0045372Y0106080D01*
X0045372Y0106080D01*
X0046192Y0106900D01*
X0052531Y0106900D01*
X0053120Y0107489D01*
X0056424Y0107489D01*
X0056903Y0107010D01*
X0057783Y0107889D01*
X0059762Y0107889D01*
X0061161Y0106490D01*
X0061161Y0104510D01*
X0059762Y0103111D01*
X0057783Y0103111D01*
X0057161Y0103733D01*
X0057161Y0102510D01*
X0055762Y0101111D01*
X0053783Y0101111D01*
X0053495Y0101399D01*
X0053495Y0098400D01*
X0054852Y0098400D01*
X0054868Y0098384D01*
X0055053Y0098384D01*
X0055218Y0098550D01*
X0056873Y0098550D01*
X0062383Y0104059D01*
X0062383Y0104909D01*
X0062372Y0104920D01*
X0062372Y0116080D01*
X0062383Y0116091D01*
X0062383Y0117490D01*
X0063372Y0118479D01*
X0063372Y0126080D01*
X0064192Y0126900D01*
X0064192Y0126900D01*
X0069192Y0131900D01*
X0087352Y0131900D01*
X0087363Y0131889D01*
X0088181Y0131889D01*
X0088192Y0131900D01*
X0112352Y0131900D01*
X0113172Y0131080D01*
X0120363Y0123889D01*
X0121762Y0123889D01*
X0123161Y0122490D01*
X0123161Y0120510D01*
X0121762Y0119111D01*
X0119783Y0119111D01*
X0118383Y0120510D01*
X0118383Y0121909D01*
X0111192Y0129100D01*
X0090161Y0129100D01*
X0090161Y0128510D01*
X0088762Y0127111D01*
X0086783Y0127111D01*
X0085383Y0128510D01*
X0085383Y0129100D01*
X0070352Y0129100D01*
X0066172Y0124920D01*
X0066172Y0118479D01*
X0067161Y0117490D01*
X0067161Y0115510D01*
X0065762Y0114111D01*
X0065172Y0114111D01*
X0065172Y0106889D01*
X0065762Y0106889D01*
X0067161Y0105490D01*
X0067161Y0103510D01*
X0065762Y0102111D01*
X0064395Y0102111D01*
X0058853Y0096570D01*
X0058853Y0094915D01*
X0058439Y0094500D01*
X0058853Y0094085D01*
X0058853Y0093561D01*
X0059192Y0093900D01*
X0062383Y0097091D01*
X0062383Y0097490D01*
X0063783Y0098889D01*
X0065762Y0098889D01*
X0067161Y0097490D01*
X0067161Y0095510D01*
X0065762Y0094111D01*
X0063783Y0094111D01*
X0063573Y0094321D01*
X0061172Y0091920D01*
X0061172Y0087920D01*
X0054172Y0080920D01*
X0053352Y0080100D01*
X0047192Y0080100D01*
X0045224Y0082069D01*
X0044873Y0082419D01*
X0044250Y0082419D01*
X0043723Y0082946D01*
X0043723Y0085481D01*
X0043713Y0085500D01*
X0043560Y0085590D01*
X0043455Y0085999D01*
X0043393Y0086120D01*
X0042576Y0086120D01*
X0042049Y0086647D01*
X0042049Y0092117D01*
X0042576Y0092644D01*
X0045487Y0092644D01*
X0046015Y0092117D01*
X0046015Y0087290D01*
X0046089Y0087001D01*
X0046306Y0086581D01*
X0047358Y0086581D01*
X0047772Y0086166D01*
X0048187Y0086581D01*
X0049239Y0086581D01*
X0049455Y0087001D01*
X0049530Y0087290D01*
X0049530Y0092117D01*
X0050057Y0092644D01*
X0052968Y0092644D01*
X0053495Y0092117D01*
X0053495Y0090855D01*
X0054001Y0090873D01*
X0054691Y0091919D01*
X0054691Y0094085D01*
X0055106Y0094500D01*
X0054691Y0094915D01*
X0054691Y0095584D01*
X0053208Y0095584D01*
X0053192Y0095600D01*
X0051852Y0095600D01*
X0051172Y0094920D01*
X0051172Y0094920D01*
X0050352Y0094100D01*
X0038239Y0094100D01*
X0038148Y0094032D01*
X0037673Y0094100D01*
X0037192Y0094100D01*
X0037112Y0094180D01*
X0037000Y0094196D01*
X0036712Y0094580D01*
X0036372Y0094920D01*
X0036372Y0095033D01*
X0034814Y0097111D01*
X0033783Y0097111D01*
X0033107Y0097787D01*
X0033107Y0017448D01*
X0033198Y0016058D01*
X0033269Y0015793D02*
X0098687Y0015793D01*
X0098383Y0015490D02*
X0098383Y0013510D01*
X0099783Y0012111D01*
X0101181Y0012111D01*
X0101192Y0012100D01*
X0106352Y0012100D01*
X0106363Y0012111D01*
X0107762Y0012111D01*
X0109161Y0013510D01*
X0109161Y0015490D01*
X0107762Y0016889D01*
X0105783Y0016889D01*
X0104383Y0015490D01*
X0104383Y0014900D01*
X0103161Y0014900D01*
X0103161Y0015490D01*
X0101762Y0016889D01*
X0099783Y0016889D01*
X0098383Y0015490D01*
X0098383Y0015195D02*
X0033429Y0015195D01*
X0033589Y0014596D02*
X0098383Y0014596D01*
X0098383Y0013998D02*
X0033750Y0013998D01*
X0033910Y0013399D02*
X0098494Y0013399D01*
X0099093Y0012801D02*
X0034248Y0012801D01*
X0034593Y0012202D02*
X0099691Y0012202D01*
X0103161Y0015195D02*
X0104383Y0015195D01*
X0104687Y0015793D02*
X0102857Y0015793D01*
X0102259Y0016392D02*
X0105285Y0016392D01*
X0108259Y0016392D02*
X0201455Y0016392D01*
X0201592Y0016990D02*
X0033137Y0016990D01*
X0033176Y0016392D02*
X0099285Y0016392D01*
X0107853Y0012202D02*
X0199157Y0012202D01*
X0198680Y0011604D02*
X0034939Y0011604D01*
X0035284Y0011005D02*
X0198203Y0011005D01*
X0197512Y0010407D02*
X0035866Y0010407D01*
X0036465Y0009808D02*
X0196761Y0009808D01*
X0196011Y0009210D02*
X0037063Y0009210D01*
X0037947Y0008611D02*
X0194996Y0008611D01*
X0193753Y0008013D02*
X0038983Y0008013D01*
X0040413Y0007414D02*
X0192127Y0007414D01*
X0188541Y0006816D02*
X0043516Y0006816D01*
X0033107Y0017589D02*
X0201728Y0017589D01*
X0201865Y0018187D02*
X0033107Y0018187D01*
X0033107Y0018786D02*
X0202001Y0018786D01*
X0202098Y0019384D02*
X0033107Y0019384D01*
X0033107Y0019983D02*
X0202132Y0019983D01*
X0202166Y0020581D02*
X0033107Y0020581D01*
X0033107Y0021180D02*
X0202173Y0021180D01*
X0202173Y0021778D02*
X0033107Y0021778D01*
X0033107Y0022377D02*
X0202173Y0022377D01*
X0202173Y0022975D02*
X0033107Y0022975D01*
X0033107Y0023574D02*
X0202173Y0023574D01*
X0202173Y0024172D02*
X0033107Y0024172D01*
X0033107Y0024771D02*
X0202173Y0024771D01*
X0202173Y0025370D02*
X0033107Y0025370D01*
X0033107Y0025968D02*
X0202173Y0025968D01*
X0202173Y0026567D02*
X0033107Y0026567D01*
X0033107Y0027165D02*
X0202173Y0027165D01*
X0202173Y0027764D02*
X0033107Y0027764D01*
X0033107Y0028362D02*
X0202173Y0028362D01*
X0202173Y0028961D02*
X0033107Y0028961D01*
X0033107Y0029559D02*
X0071330Y0029559D01*
X0071179Y0029710D02*
X0071706Y0029183D01*
X0085838Y0029183D01*
X0086365Y0029710D01*
X0086365Y0033800D01*
X0097068Y0033800D01*
X0098383Y0032485D01*
X0098383Y0031510D01*
X0099783Y0030111D01*
X0101762Y0030111D01*
X0103161Y0031510D01*
X0103161Y0033490D01*
X0102551Y0034100D01*
X0109945Y0034100D01*
X0110472Y0034627D01*
X0110472Y0056373D01*
X0109945Y0056900D01*
X0106352Y0056900D01*
X0097384Y0065868D01*
X0092744Y0065868D01*
X0092853Y0065978D01*
X0092853Y0066131D01*
X0098384Y0066131D01*
X0103630Y0071377D01*
X0103970Y0071572D01*
X0104025Y0071773D01*
X0104172Y0071920D01*
X0104172Y0072100D01*
X0109945Y0072100D01*
X0110472Y0072627D01*
X0110472Y0094373D01*
X0109945Y0094900D01*
X0101599Y0094900D01*
X0101072Y0094373D01*
X0101072Y0072780D01*
X0097224Y0068931D01*
X0092853Y0068931D01*
X0092853Y0069085D01*
X0092326Y0069613D01*
X0089218Y0069613D01*
X0088691Y0069085D01*
X0088691Y0068900D01*
X0080352Y0068900D01*
X0080172Y0069080D01*
X0080172Y0072521D01*
X0081161Y0073510D01*
X0081161Y0075490D01*
X0079762Y0076889D01*
X0077783Y0076889D01*
X0076383Y0075490D01*
X0076383Y0073889D01*
X0074783Y0073889D01*
X0073383Y0072490D01*
X0073383Y0070510D01*
X0074372Y0069521D01*
X0074372Y0066920D01*
X0077372Y0063920D01*
X0078192Y0063100D01*
X0079994Y0063100D01*
X0079383Y0062490D01*
X0079383Y0060510D01*
X0080372Y0059521D01*
X0080372Y0058920D01*
X0085475Y0053817D01*
X0080672Y0053817D01*
X0080672Y0055287D01*
X0079559Y0056400D01*
X0075161Y0060798D01*
X0075161Y0061490D01*
X0073762Y0062889D01*
X0071783Y0062889D01*
X0070383Y0061490D01*
X0070383Y0059510D01*
X0071783Y0058111D01*
X0072474Y0058111D01*
X0076768Y0053817D01*
X0071706Y0053817D01*
X0071179Y0053290D01*
X0071179Y0045064D01*
X0071706Y0044537D01*
X0085838Y0044537D01*
X0086365Y0045064D01*
X0086365Y0052927D01*
X0088372Y0050920D01*
X0089192Y0050100D01*
X0089794Y0050100D01*
X0090783Y0049111D01*
X0092762Y0049111D01*
X0094161Y0050510D01*
X0094161Y0052490D01*
X0092762Y0053889D01*
X0090783Y0053889D01*
X0090073Y0053179D01*
X0083451Y0059801D01*
X0084161Y0060510D01*
X0084161Y0062445D01*
X0084218Y0062387D01*
X0087326Y0062387D01*
X0087853Y0062915D01*
X0087853Y0063069D01*
X0096224Y0063069D01*
X0102392Y0056900D01*
X0101599Y0056900D01*
X0101072Y0056373D01*
X0101072Y0034889D01*
X0100787Y0034889D01*
X0099472Y0036204D01*
X0098476Y0037200D01*
X0086365Y0037200D01*
X0086365Y0037936D01*
X0085838Y0038463D01*
X0071706Y0038463D01*
X0071179Y0037936D01*
X0071179Y0029710D01*
X0071179Y0030158D02*
X0033107Y0030158D01*
X0033107Y0030756D02*
X0071179Y0030756D01*
X0071179Y0031355D02*
X0033107Y0031355D01*
X0033107Y0031953D02*
X0071179Y0031953D01*
X0071179Y0032552D02*
X0033107Y0032552D01*
X0033107Y0033150D02*
X0071179Y0033150D01*
X0071179Y0033749D02*
X0033107Y0033749D01*
X0033107Y0034347D02*
X0071179Y0034347D01*
X0071179Y0034946D02*
X0033107Y0034946D01*
X0033107Y0035544D02*
X0071179Y0035544D01*
X0071179Y0036143D02*
X0033107Y0036143D01*
X0033107Y0036741D02*
X0071179Y0036741D01*
X0071179Y0037340D02*
X0033107Y0037340D01*
X0033107Y0037938D02*
X0071182Y0037938D01*
X0071179Y0045120D02*
X0058844Y0045120D01*
X0058844Y0044631D02*
X0057919Y0042399D01*
X0056211Y0040691D01*
X0053980Y0039767D01*
X0051564Y0039767D01*
X0049333Y0040691D01*
X0047625Y0042399D01*
X0046700Y0044631D01*
X0046700Y0047046D01*
X0047625Y0049278D01*
X0049333Y0050986D01*
X0051564Y0051910D01*
X0053980Y0051910D01*
X0056211Y0050986D01*
X0057919Y0049278D01*
X0058844Y0047046D01*
X0058844Y0044631D01*
X0058799Y0044522D02*
X0101072Y0044522D01*
X0101072Y0045120D02*
X0086365Y0045120D01*
X0086365Y0045719D02*
X0101072Y0045719D01*
X0101072Y0046317D02*
X0086365Y0046317D01*
X0086365Y0046916D02*
X0101072Y0046916D01*
X0101072Y0047514D02*
X0086365Y0047514D01*
X0086365Y0048113D02*
X0101072Y0048113D01*
X0101072Y0048711D02*
X0086365Y0048711D01*
X0086365Y0049310D02*
X0090584Y0049310D01*
X0089985Y0049908D02*
X0086365Y0049908D01*
X0086365Y0050507D02*
X0088785Y0050507D01*
X0088187Y0051105D02*
X0086365Y0051105D01*
X0086365Y0051704D02*
X0087588Y0051704D01*
X0086990Y0052303D02*
X0086365Y0052303D01*
X0086365Y0052901D02*
X0086391Y0052901D01*
X0085194Y0054098D02*
X0080672Y0054098D01*
X0080672Y0054697D02*
X0084596Y0054697D01*
X0083997Y0055295D02*
X0080664Y0055295D01*
X0080066Y0055894D02*
X0083399Y0055894D01*
X0082800Y0056492D02*
X0079467Y0056492D01*
X0078868Y0057091D02*
X0082202Y0057091D01*
X0081603Y0057689D02*
X0078270Y0057689D01*
X0077671Y0058288D02*
X0081005Y0058288D01*
X0080406Y0058886D02*
X0077073Y0058886D01*
X0076474Y0059485D02*
X0080372Y0059485D01*
X0079810Y0060083D02*
X0075876Y0060083D01*
X0075277Y0060682D02*
X0079383Y0060682D01*
X0079383Y0061280D02*
X0075161Y0061280D01*
X0074772Y0061879D02*
X0079383Y0061879D01*
X0079383Y0062477D02*
X0074173Y0062477D01*
X0071371Y0062477D02*
X0058844Y0062477D01*
X0058844Y0061954D02*
X0057919Y0059722D01*
X0056211Y0058014D01*
X0053980Y0057090D01*
X0051564Y0057090D01*
X0049333Y0058014D01*
X0047625Y0059722D01*
X0046700Y0061954D01*
X0046700Y0064369D01*
X0047625Y0066601D01*
X0049333Y0068309D01*
X0051564Y0069233D01*
X0053980Y0069233D01*
X0056211Y0068309D01*
X0057919Y0066601D01*
X0058844Y0064369D01*
X0058844Y0061954D01*
X0058813Y0061879D02*
X0070772Y0061879D01*
X0070383Y0061280D02*
X0058565Y0061280D01*
X0058317Y0060682D02*
X0070383Y0060682D01*
X0070383Y0060083D02*
X0058069Y0060083D01*
X0057682Y0059485D02*
X0070409Y0059485D01*
X0071007Y0058886D02*
X0057083Y0058886D01*
X0056485Y0058288D02*
X0071606Y0058288D01*
X0072896Y0057689D02*
X0055427Y0057689D01*
X0053982Y0057091D02*
X0073495Y0057091D01*
X0074093Y0056492D02*
X0033107Y0056492D01*
X0033107Y0055894D02*
X0074692Y0055894D01*
X0075290Y0055295D02*
X0033107Y0055295D01*
X0033107Y0054697D02*
X0075889Y0054697D01*
X0076487Y0054098D02*
X0033107Y0054098D01*
X0033107Y0053500D02*
X0071389Y0053500D01*
X0071179Y0052901D02*
X0033107Y0052901D01*
X0033107Y0052303D02*
X0071179Y0052303D01*
X0071179Y0051704D02*
X0054478Y0051704D01*
X0055923Y0051105D02*
X0071179Y0051105D01*
X0071179Y0050507D02*
X0056690Y0050507D01*
X0057289Y0049908D02*
X0071179Y0049908D01*
X0071179Y0049310D02*
X0057887Y0049310D01*
X0058154Y0048711D02*
X0071179Y0048711D01*
X0071179Y0048113D02*
X0058402Y0048113D01*
X0058650Y0047514D02*
X0071179Y0047514D01*
X0071179Y0046916D02*
X0058844Y0046916D01*
X0058844Y0046317D02*
X0071179Y0046317D01*
X0071179Y0045719D02*
X0058844Y0045719D01*
X0058551Y0043923D02*
X0101072Y0043923D01*
X0101072Y0043325D02*
X0058303Y0043325D01*
X0058055Y0042726D02*
X0101072Y0042726D01*
X0101072Y0042128D02*
X0057648Y0042128D01*
X0057049Y0041529D02*
X0101072Y0041529D01*
X0101072Y0040931D02*
X0056451Y0040931D01*
X0055345Y0040332D02*
X0101072Y0040332D01*
X0101072Y0039734D02*
X0033107Y0039734D01*
X0033107Y0040332D02*
X0050199Y0040332D01*
X0049093Y0040931D02*
X0033107Y0040931D01*
X0033107Y0041529D02*
X0048495Y0041529D01*
X0047896Y0042128D02*
X0033107Y0042128D01*
X0033107Y0042726D02*
X0047489Y0042726D01*
X0047241Y0043325D02*
X0033107Y0043325D01*
X0033107Y0043923D02*
X0046994Y0043923D01*
X0046746Y0044522D02*
X0033107Y0044522D01*
X0033107Y0045120D02*
X0046700Y0045120D01*
X0046700Y0045719D02*
X0033107Y0045719D01*
X0033107Y0046317D02*
X0046700Y0046317D01*
X0046700Y0046916D02*
X0033107Y0046916D01*
X0033107Y0047514D02*
X0046894Y0047514D01*
X0047142Y0048113D02*
X0033107Y0048113D01*
X0033107Y0048711D02*
X0047390Y0048711D01*
X0047657Y0049310D02*
X0033107Y0049310D01*
X0033107Y0049908D02*
X0048255Y0049908D01*
X0048854Y0050507D02*
X0033107Y0050507D01*
X0033107Y0051105D02*
X0049622Y0051105D01*
X0051067Y0051704D02*
X0033107Y0051704D01*
X0033107Y0057091D02*
X0051562Y0057091D01*
X0050117Y0057689D02*
X0033107Y0057689D01*
X0033107Y0058288D02*
X0049059Y0058288D01*
X0048461Y0058886D02*
X0033107Y0058886D01*
X0033107Y0059485D02*
X0047862Y0059485D01*
X0047475Y0060083D02*
X0033107Y0060083D01*
X0033107Y0060682D02*
X0047227Y0060682D01*
X0046979Y0061280D02*
X0033107Y0061280D01*
X0033107Y0061879D02*
X0046732Y0061879D01*
X0046700Y0062477D02*
X0033107Y0062477D01*
X0033107Y0063076D02*
X0046700Y0063076D01*
X0046700Y0063674D02*
X0033107Y0063674D01*
X0033107Y0064273D02*
X0046700Y0064273D01*
X0046908Y0064871D02*
X0033107Y0064871D01*
X0033107Y0065470D02*
X0047156Y0065470D01*
X0047404Y0066068D02*
X0033107Y0066068D01*
X0033107Y0066667D02*
X0047691Y0066667D01*
X0048289Y0067265D02*
X0033107Y0067265D01*
X0033107Y0067864D02*
X0048888Y0067864D01*
X0049704Y0068462D02*
X0033107Y0068462D01*
X0033107Y0069061D02*
X0051149Y0069061D01*
X0054396Y0069061D02*
X0074372Y0069061D01*
X0074372Y0068462D02*
X0055841Y0068462D01*
X0056656Y0067864D02*
X0074372Y0067864D01*
X0074372Y0067265D02*
X0057255Y0067265D01*
X0057853Y0066667D02*
X0074625Y0066667D01*
X0075224Y0066068D02*
X0058140Y0066068D01*
X0058388Y0065470D02*
X0075822Y0065470D01*
X0076421Y0064871D02*
X0058636Y0064871D01*
X0058844Y0064273D02*
X0077019Y0064273D01*
X0077618Y0063674D02*
X0058844Y0063674D01*
X0058844Y0063076D02*
X0079969Y0063076D01*
X0084161Y0061879D02*
X0097414Y0061879D01*
X0098012Y0061280D02*
X0084161Y0061280D01*
X0084161Y0060682D02*
X0098611Y0060682D01*
X0099209Y0060083D02*
X0083734Y0060083D01*
X0083767Y0059485D02*
X0099808Y0059485D01*
X0100406Y0058886D02*
X0084366Y0058886D01*
X0084964Y0058288D02*
X0101005Y0058288D01*
X0101603Y0057689D02*
X0085563Y0057689D01*
X0086161Y0057091D02*
X0102202Y0057091D01*
X0101191Y0056492D02*
X0086760Y0056492D01*
X0087358Y0055894D02*
X0101072Y0055894D01*
X0101072Y0055295D02*
X0087957Y0055295D01*
X0088555Y0054697D02*
X0101072Y0054697D01*
X0101072Y0054098D02*
X0089154Y0054098D01*
X0089752Y0053500D02*
X0090393Y0053500D01*
X0093151Y0053500D02*
X0101072Y0053500D01*
X0101072Y0052901D02*
X0093750Y0052901D01*
X0094161Y0052303D02*
X0101072Y0052303D01*
X0101072Y0051704D02*
X0094161Y0051704D01*
X0094161Y0051105D02*
X0101072Y0051105D01*
X0101072Y0050507D02*
X0094158Y0050507D01*
X0093559Y0049908D02*
X0101072Y0049908D01*
X0101072Y0049310D02*
X0092961Y0049310D01*
X0104964Y0058288D02*
X0119606Y0058288D01*
X0119783Y0058111D02*
X0121762Y0058111D01*
X0122872Y0059221D01*
X0122872Y0045287D01*
X0122474Y0044889D01*
X0121783Y0044889D01*
X0120383Y0043490D01*
X0120383Y0041510D01*
X0121783Y0040111D01*
X0123762Y0040111D01*
X0125161Y0041510D01*
X0125161Y0042202D01*
X0125559Y0042600D01*
X0125559Y0042600D01*
X0126672Y0043713D01*
X0126672Y0064287D01*
X0125559Y0065400D01*
X0122672Y0068287D01*
X0122672Y0069021D01*
X0123161Y0069510D01*
X0123161Y0071490D01*
X0121762Y0072889D01*
X0119783Y0072889D01*
X0119172Y0072278D01*
X0119172Y0084721D01*
X0119783Y0084111D01*
X0121762Y0084111D01*
X0123161Y0085510D01*
X0123161Y0085909D01*
X0123352Y0086100D01*
X0124172Y0086920D01*
X0124172Y0096521D01*
X0125161Y0097510D01*
X0125161Y0099490D01*
X0123762Y0100889D01*
X0121783Y0100889D01*
X0120383Y0099490D01*
X0120383Y0097510D01*
X0121372Y0096521D01*
X0121372Y0088889D01*
X0119783Y0088889D01*
X0119172Y0088278D01*
X0119172Y0092080D01*
X0119161Y0092091D01*
X0119161Y0093490D01*
X0117762Y0094889D01*
X0115783Y0094889D01*
X0114383Y0093490D01*
X0114383Y0091510D01*
X0115783Y0090111D01*
X0116372Y0090111D01*
X0116372Y0064920D01*
X0119093Y0062199D01*
X0118383Y0061490D01*
X0118383Y0059510D01*
X0119783Y0058111D01*
X0119007Y0058886D02*
X0104366Y0058886D01*
X0103767Y0059485D02*
X0118409Y0059485D01*
X0118383Y0060083D02*
X0103169Y0060083D01*
X0102570Y0060682D02*
X0118383Y0060682D01*
X0118383Y0061280D02*
X0101972Y0061280D01*
X0101373Y0061879D02*
X0118772Y0061879D01*
X0118815Y0062477D02*
X0100775Y0062477D01*
X0100176Y0063076D02*
X0118216Y0063076D01*
X0117618Y0063674D02*
X0099578Y0063674D01*
X0098979Y0064273D02*
X0117019Y0064273D01*
X0116421Y0064871D02*
X0098381Y0064871D01*
X0097782Y0065470D02*
X0116372Y0065470D01*
X0116372Y0066068D02*
X0092853Y0066068D01*
X0092853Y0069061D02*
X0097353Y0069061D01*
X0097952Y0069659D02*
X0080172Y0069659D01*
X0080191Y0069061D02*
X0088691Y0069061D01*
X0080172Y0070258D02*
X0098550Y0070258D01*
X0099149Y0070856D02*
X0080172Y0070856D01*
X0080172Y0071455D02*
X0099747Y0071455D01*
X0100346Y0072053D02*
X0080172Y0072053D01*
X0080303Y0072652D02*
X0100944Y0072652D01*
X0101072Y0073250D02*
X0080901Y0073250D01*
X0081161Y0073849D02*
X0101072Y0073849D01*
X0101072Y0074447D02*
X0081161Y0074447D01*
X0081161Y0075046D02*
X0101072Y0075046D01*
X0101072Y0075644D02*
X0081006Y0075644D01*
X0080408Y0076243D02*
X0101072Y0076243D01*
X0101072Y0076841D02*
X0079809Y0076841D01*
X0077735Y0076841D02*
X0033107Y0076841D01*
X0033107Y0076243D02*
X0077137Y0076243D01*
X0076538Y0075644D02*
X0033107Y0075644D01*
X0033107Y0075046D02*
X0076383Y0075046D01*
X0076383Y0074447D02*
X0033107Y0074447D01*
X0033107Y0073849D02*
X0074743Y0073849D01*
X0074144Y0073250D02*
X0033107Y0073250D01*
X0033107Y0072652D02*
X0073546Y0072652D01*
X0073383Y0072053D02*
X0033107Y0072053D01*
X0033107Y0071455D02*
X0073383Y0071455D01*
X0073383Y0070856D02*
X0033107Y0070856D01*
X0033107Y0070258D02*
X0073636Y0070258D01*
X0074234Y0069659D02*
X0033107Y0069659D01*
X0033107Y0077440D02*
X0101072Y0077440D01*
X0101072Y0078039D02*
X0033107Y0078039D01*
X0033107Y0078637D02*
X0101072Y0078637D01*
X0101072Y0079236D02*
X0033107Y0079236D01*
X0033107Y0079834D02*
X0101072Y0079834D01*
X0101072Y0080433D02*
X0053685Y0080433D01*
X0054283Y0081031D02*
X0101072Y0081031D01*
X0101072Y0081630D02*
X0054882Y0081630D01*
X0055480Y0082228D02*
X0101072Y0082228D01*
X0101072Y0082827D02*
X0056079Y0082827D01*
X0056677Y0083425D02*
X0101072Y0083425D01*
X0101072Y0084024D02*
X0057276Y0084024D01*
X0057874Y0084622D02*
X0101072Y0084622D01*
X0101072Y0085221D02*
X0058473Y0085221D01*
X0059071Y0085819D02*
X0101072Y0085819D01*
X0101072Y0086418D02*
X0059670Y0086418D01*
X0060268Y0087016D02*
X0101072Y0087016D01*
X0101072Y0087615D02*
X0060867Y0087615D01*
X0061172Y0088213D02*
X0101072Y0088213D01*
X0101072Y0088812D02*
X0061172Y0088812D01*
X0061172Y0089410D02*
X0101072Y0089410D01*
X0101072Y0090009D02*
X0061172Y0090009D01*
X0061172Y0090607D02*
X0101072Y0090607D01*
X0101072Y0091206D02*
X0061172Y0091206D01*
X0061172Y0091804D02*
X0101072Y0091804D01*
X0101072Y0092403D02*
X0061655Y0092403D01*
X0062253Y0093001D02*
X0101072Y0093001D01*
X0101072Y0093600D02*
X0062852Y0093600D01*
X0063450Y0094198D02*
X0063695Y0094198D01*
X0065849Y0094198D02*
X0101072Y0094198D01*
X0101496Y0094797D02*
X0066447Y0094797D01*
X0067046Y0095395D02*
X0121372Y0095395D01*
X0121372Y0094797D02*
X0117854Y0094797D01*
X0118452Y0094198D02*
X0121372Y0094198D01*
X0121372Y0093600D02*
X0119051Y0093600D01*
X0119161Y0093001D02*
X0121372Y0093001D01*
X0121372Y0092403D02*
X0119161Y0092403D01*
X0119172Y0091804D02*
X0121372Y0091804D01*
X0121372Y0091206D02*
X0119172Y0091206D01*
X0119172Y0090607D02*
X0121372Y0090607D01*
X0121372Y0090009D02*
X0119172Y0090009D01*
X0119172Y0089410D02*
X0121372Y0089410D01*
X0119705Y0088812D02*
X0119172Y0088812D01*
X0116372Y0088812D02*
X0110472Y0088812D01*
X0110472Y0089410D02*
X0116372Y0089410D01*
X0116372Y0090009D02*
X0110472Y0090009D01*
X0110472Y0090607D02*
X0115286Y0090607D01*
X0114688Y0091206D02*
X0110472Y0091206D01*
X0110472Y0091804D02*
X0114383Y0091804D01*
X0114383Y0092403D02*
X0110472Y0092403D01*
X0110472Y0093001D02*
X0114383Y0093001D01*
X0114493Y0093600D02*
X0110472Y0093600D01*
X0110472Y0094198D02*
X0115092Y0094198D01*
X0115690Y0094797D02*
X0110048Y0094797D01*
X0110472Y0088213D02*
X0116372Y0088213D01*
X0116372Y0087615D02*
X0110472Y0087615D01*
X0110472Y0087016D02*
X0116372Y0087016D01*
X0116372Y0086418D02*
X0110472Y0086418D01*
X0110472Y0085819D02*
X0116372Y0085819D01*
X0116372Y0085221D02*
X0110472Y0085221D01*
X0110472Y0084622D02*
X0116372Y0084622D01*
X0116372Y0084024D02*
X0110472Y0084024D01*
X0110472Y0083425D02*
X0116372Y0083425D01*
X0116372Y0082827D02*
X0110472Y0082827D01*
X0110472Y0082228D02*
X0116372Y0082228D01*
X0116372Y0081630D02*
X0110472Y0081630D01*
X0110472Y0081031D02*
X0116372Y0081031D01*
X0116372Y0080433D02*
X0110472Y0080433D01*
X0110472Y0079834D02*
X0116372Y0079834D01*
X0116372Y0079236D02*
X0110472Y0079236D01*
X0110472Y0078637D02*
X0116372Y0078637D01*
X0116372Y0078039D02*
X0110472Y0078039D01*
X0110472Y0077440D02*
X0116372Y0077440D01*
X0116372Y0076841D02*
X0110472Y0076841D01*
X0110472Y0076243D02*
X0116372Y0076243D01*
X0116372Y0075644D02*
X0110472Y0075644D01*
X0110472Y0075046D02*
X0116372Y0075046D01*
X0116372Y0074447D02*
X0110472Y0074447D01*
X0110472Y0073849D02*
X0116372Y0073849D01*
X0116372Y0073250D02*
X0110472Y0073250D01*
X0110472Y0072652D02*
X0116372Y0072652D01*
X0116372Y0072053D02*
X0104172Y0072053D01*
X0103765Y0071455D02*
X0116372Y0071455D01*
X0116372Y0070856D02*
X0103108Y0070856D01*
X0102510Y0070258D02*
X0116372Y0070258D01*
X0116372Y0069659D02*
X0101911Y0069659D01*
X0101313Y0069061D02*
X0116372Y0069061D01*
X0116372Y0068462D02*
X0100714Y0068462D01*
X0100116Y0067864D02*
X0116372Y0067864D01*
X0116372Y0067265D02*
X0099517Y0067265D01*
X0098919Y0066667D02*
X0116372Y0066667D01*
X0122672Y0068462D02*
X0173872Y0068462D01*
X0173872Y0067864D02*
X0123095Y0067864D01*
X0123694Y0067265D02*
X0173872Y0067265D01*
X0173872Y0066667D02*
X0124292Y0066667D01*
X0124891Y0066068D02*
X0173872Y0066068D01*
X0173872Y0065470D02*
X0125489Y0065470D01*
X0126088Y0064871D02*
X0173872Y0064871D01*
X0173872Y0064273D02*
X0126672Y0064273D01*
X0126672Y0063674D02*
X0173872Y0063674D01*
X0173872Y0063076D02*
X0126672Y0063076D01*
X0126672Y0062477D02*
X0173872Y0062477D01*
X0173872Y0061879D02*
X0126672Y0061879D01*
X0126672Y0061280D02*
X0173872Y0061280D01*
X0173872Y0060682D02*
X0126672Y0060682D01*
X0126672Y0060083D02*
X0173872Y0060083D01*
X0173872Y0059713D02*
X0174439Y0059146D01*
X0174372Y0059080D01*
X0174372Y0044889D01*
X0173783Y0044889D01*
X0172383Y0043490D01*
X0172383Y0041510D01*
X0173783Y0040111D01*
X0175762Y0040111D01*
X0177161Y0041510D01*
X0177161Y0042909D01*
X0177172Y0042920D01*
X0177172Y0057600D01*
X0185559Y0057600D01*
X0191020Y0063061D01*
X0192133Y0064174D01*
X0192133Y0064419D01*
X0192678Y0064965D01*
X0193117Y0066025D01*
X0193117Y0067172D01*
X0192678Y0068232D01*
X0191867Y0069044D01*
X0190806Y0069483D01*
X0189659Y0069483D01*
X0188599Y0069044D01*
X0187788Y0068232D01*
X0187733Y0068100D01*
X0187678Y0068232D01*
X0186867Y0069044D01*
X0186734Y0069098D01*
X0186867Y0069153D01*
X0187678Y0069965D01*
X0188117Y0071025D01*
X0188117Y0072172D01*
X0187678Y0073232D01*
X0186867Y0074044D01*
X0186734Y0074098D01*
X0186867Y0074153D01*
X0187678Y0074965D01*
X0188117Y0076025D01*
X0188117Y0077172D01*
X0187678Y0078232D01*
X0186867Y0079044D01*
X0186734Y0079098D01*
X0186867Y0079153D01*
X0187678Y0079965D01*
X0188117Y0081025D01*
X0188117Y0082172D01*
X0187678Y0083232D01*
X0186867Y0084044D01*
X0186734Y0084098D01*
X0186867Y0084153D01*
X0187678Y0084965D01*
X0188117Y0086025D01*
X0188117Y0087172D01*
X0187678Y0088232D01*
X0186867Y0089044D01*
X0185806Y0089483D01*
X0184659Y0089483D01*
X0183599Y0089044D01*
X0182788Y0088232D01*
X0182348Y0087172D01*
X0182348Y0086025D01*
X0182788Y0084965D01*
X0183599Y0084153D01*
X0183731Y0084098D01*
X0183599Y0084044D01*
X0182788Y0083232D01*
X0182348Y0082172D01*
X0182348Y0081025D01*
X0182788Y0079965D01*
X0183599Y0079153D01*
X0183731Y0079098D01*
X0183599Y0079044D01*
X0182788Y0078232D01*
X0182348Y0077172D01*
X0182348Y0076025D01*
X0182788Y0074965D01*
X0183599Y0074153D01*
X0183731Y0074098D01*
X0183599Y0074044D01*
X0182788Y0073232D01*
X0182348Y0072172D01*
X0182348Y0071025D01*
X0182788Y0069965D01*
X0183599Y0069153D01*
X0183731Y0069098D01*
X0183599Y0069044D01*
X0182788Y0068232D01*
X0182348Y0067172D01*
X0182348Y0066025D01*
X0182788Y0064965D01*
X0183599Y0064153D01*
X0184659Y0063714D01*
X0185806Y0063714D01*
X0186648Y0064063D01*
X0183985Y0061400D01*
X0177672Y0061400D01*
X0177672Y0071287D01*
X0177161Y0071798D01*
X0177161Y0071909D01*
X0177172Y0071920D01*
X0177172Y0085080D01*
X0177161Y0085091D01*
X0177161Y0085909D01*
X0177172Y0085920D01*
X0177172Y0115080D01*
X0177161Y0115091D01*
X0177161Y0116490D01*
X0175762Y0117889D01*
X0173783Y0117889D01*
X0172383Y0116490D01*
X0172383Y0114510D01*
X0173783Y0113111D01*
X0174372Y0113111D01*
X0174372Y0087889D01*
X0173783Y0087889D01*
X0172383Y0086490D01*
X0172383Y0084510D01*
X0173783Y0083111D01*
X0174372Y0083111D01*
X0174372Y0073889D01*
X0173783Y0073889D01*
X0172383Y0072490D01*
X0172383Y0070510D01*
X0173783Y0069111D01*
X0173872Y0069111D01*
X0173872Y0059713D01*
X0174100Y0059485D02*
X0126672Y0059485D01*
X0126672Y0058886D02*
X0174372Y0058886D01*
X0174372Y0058288D02*
X0126672Y0058288D01*
X0126672Y0057689D02*
X0174372Y0057689D01*
X0174372Y0057091D02*
X0126672Y0057091D01*
X0126672Y0056492D02*
X0174372Y0056492D01*
X0174372Y0055894D02*
X0126672Y0055894D01*
X0126672Y0055295D02*
X0174372Y0055295D01*
X0174372Y0054697D02*
X0126672Y0054697D01*
X0126672Y0054098D02*
X0174372Y0054098D01*
X0174372Y0053500D02*
X0126672Y0053500D01*
X0126672Y0052901D02*
X0174372Y0052901D01*
X0174372Y0052303D02*
X0126672Y0052303D01*
X0126672Y0051704D02*
X0174372Y0051704D01*
X0174372Y0051105D02*
X0126672Y0051105D01*
X0126672Y0050507D02*
X0174372Y0050507D01*
X0174372Y0049908D02*
X0126672Y0049908D01*
X0126672Y0049310D02*
X0174372Y0049310D01*
X0174372Y0048711D02*
X0126672Y0048711D01*
X0126672Y0048113D02*
X0174372Y0048113D01*
X0174372Y0047514D02*
X0126672Y0047514D01*
X0126672Y0046916D02*
X0174372Y0046916D01*
X0174372Y0046317D02*
X0126672Y0046317D01*
X0126672Y0045719D02*
X0174372Y0045719D01*
X0174372Y0045120D02*
X0126672Y0045120D01*
X0126672Y0044522D02*
X0173415Y0044522D01*
X0172817Y0043923D02*
X0126672Y0043923D01*
X0126284Y0043325D02*
X0172383Y0043325D01*
X0172383Y0042726D02*
X0125685Y0042726D01*
X0125161Y0042128D02*
X0172383Y0042128D01*
X0172383Y0041529D02*
X0125161Y0041529D01*
X0124581Y0040931D02*
X0172963Y0040931D01*
X0173561Y0040332D02*
X0123983Y0040332D01*
X0121561Y0040332D02*
X0110472Y0040332D01*
X0110472Y0039734D02*
X0202173Y0039734D01*
X0202173Y0040332D02*
X0175983Y0040332D01*
X0176581Y0040931D02*
X0202173Y0040931D01*
X0202173Y0041529D02*
X0177161Y0041529D01*
X0177161Y0042128D02*
X0202173Y0042128D01*
X0202173Y0042726D02*
X0177161Y0042726D01*
X0177172Y0043325D02*
X0202173Y0043325D01*
X0202173Y0043923D02*
X0177172Y0043923D01*
X0177172Y0044522D02*
X0202173Y0044522D01*
X0202173Y0045120D02*
X0177172Y0045120D01*
X0177172Y0045719D02*
X0202173Y0045719D01*
X0202173Y0046317D02*
X0177172Y0046317D01*
X0177172Y0046916D02*
X0202173Y0046916D01*
X0202173Y0047514D02*
X0177172Y0047514D01*
X0177172Y0048113D02*
X0202173Y0048113D01*
X0202173Y0048711D02*
X0177172Y0048711D01*
X0177172Y0049310D02*
X0202173Y0049310D01*
X0202173Y0049908D02*
X0177172Y0049908D01*
X0177172Y0050507D02*
X0202173Y0050507D01*
X0202173Y0051105D02*
X0177172Y0051105D01*
X0177172Y0051704D02*
X0202173Y0051704D01*
X0202173Y0052303D02*
X0177172Y0052303D01*
X0177172Y0052901D02*
X0202173Y0052901D01*
X0202173Y0053500D02*
X0177172Y0053500D01*
X0177172Y0054098D02*
X0202173Y0054098D01*
X0202173Y0054697D02*
X0177172Y0054697D01*
X0177172Y0055295D02*
X0202173Y0055295D01*
X0202173Y0055894D02*
X0177172Y0055894D01*
X0177172Y0056492D02*
X0202173Y0056492D01*
X0202173Y0057091D02*
X0177172Y0057091D01*
X0177672Y0061879D02*
X0184464Y0061879D01*
X0185062Y0062477D02*
X0177672Y0062477D01*
X0177672Y0063076D02*
X0185661Y0063076D01*
X0186259Y0063674D02*
X0177672Y0063674D01*
X0177672Y0064273D02*
X0183479Y0064273D01*
X0182881Y0064871D02*
X0177672Y0064871D01*
X0177672Y0065470D02*
X0182578Y0065470D01*
X0182348Y0066068D02*
X0177672Y0066068D01*
X0177672Y0066667D02*
X0182348Y0066667D01*
X0182387Y0067265D02*
X0177672Y0067265D01*
X0177672Y0067864D02*
X0182635Y0067864D01*
X0183018Y0068462D02*
X0177672Y0068462D01*
X0177672Y0069061D02*
X0183641Y0069061D01*
X0183093Y0069659D02*
X0177672Y0069659D01*
X0177672Y0070258D02*
X0182666Y0070258D01*
X0182418Y0070856D02*
X0177672Y0070856D01*
X0177504Y0071455D02*
X0182348Y0071455D01*
X0182348Y0072053D02*
X0177172Y0072053D01*
X0177172Y0072652D02*
X0182547Y0072652D01*
X0182806Y0073250D02*
X0177172Y0073250D01*
X0177172Y0073849D02*
X0183404Y0073849D01*
X0183305Y0074447D02*
X0177172Y0074447D01*
X0177172Y0075046D02*
X0182754Y0075046D01*
X0182506Y0075644D02*
X0177172Y0075644D01*
X0177172Y0076243D02*
X0182348Y0076243D01*
X0182348Y0076841D02*
X0177172Y0076841D01*
X0177172Y0077440D02*
X0182459Y0077440D01*
X0182707Y0078039D02*
X0177172Y0078039D01*
X0177172Y0078637D02*
X0183192Y0078637D01*
X0183517Y0079236D02*
X0177172Y0079236D01*
X0177172Y0079834D02*
X0182918Y0079834D01*
X0182594Y0080433D02*
X0177172Y0080433D01*
X0177172Y0081031D02*
X0182348Y0081031D01*
X0182348Y0081630D02*
X0177172Y0081630D01*
X0177172Y0082228D02*
X0182372Y0082228D01*
X0182620Y0082827D02*
X0177172Y0082827D01*
X0177172Y0083425D02*
X0182980Y0083425D01*
X0183579Y0084024D02*
X0177172Y0084024D01*
X0177172Y0084622D02*
X0183130Y0084622D01*
X0182682Y0085221D02*
X0177161Y0085221D01*
X0177161Y0085819D02*
X0182434Y0085819D01*
X0182348Y0086418D02*
X0177172Y0086418D01*
X0177172Y0087016D02*
X0182348Y0087016D01*
X0182532Y0087615D02*
X0177172Y0087615D01*
X0177172Y0088213D02*
X0182780Y0088213D01*
X0183367Y0088812D02*
X0177172Y0088812D01*
X0177172Y0089410D02*
X0184484Y0089410D01*
X0185981Y0089410D02*
X0202173Y0089410D01*
X0202173Y0088812D02*
X0187098Y0088812D01*
X0187686Y0088213D02*
X0202173Y0088213D01*
X0202173Y0087615D02*
X0187934Y0087615D01*
X0188117Y0087016D02*
X0202173Y0087016D01*
X0202173Y0086418D02*
X0188117Y0086418D01*
X0188032Y0085819D02*
X0202173Y0085819D01*
X0202173Y0085221D02*
X0187784Y0085221D01*
X0187335Y0084622D02*
X0202173Y0084622D01*
X0202173Y0084024D02*
X0186886Y0084024D01*
X0187485Y0083425D02*
X0202173Y0083425D01*
X0202173Y0082827D02*
X0187846Y0082827D01*
X0188094Y0082228D02*
X0202173Y0082228D01*
X0202173Y0081630D02*
X0188117Y0081630D01*
X0188117Y0081031D02*
X0202173Y0081031D01*
X0202173Y0080433D02*
X0187872Y0080433D01*
X0187547Y0079834D02*
X0202173Y0079834D01*
X0202173Y0079236D02*
X0186949Y0079236D01*
X0187273Y0078637D02*
X0202173Y0078637D01*
X0202173Y0078039D02*
X0187758Y0078039D01*
X0188006Y0077440D02*
X0202173Y0077440D01*
X0202173Y0076841D02*
X0188117Y0076841D01*
X0188117Y0076243D02*
X0202173Y0076243D01*
X0202173Y0075644D02*
X0187959Y0075644D01*
X0187712Y0075046D02*
X0202173Y0075046D01*
X0202173Y0074447D02*
X0187161Y0074447D01*
X0187061Y0073849D02*
X0202173Y0073849D01*
X0202173Y0073250D02*
X0187660Y0073250D01*
X0187918Y0072652D02*
X0202173Y0072652D01*
X0202173Y0072053D02*
X0188117Y0072053D01*
X0188117Y0071455D02*
X0202173Y0071455D01*
X0202173Y0070856D02*
X0188047Y0070856D01*
X0187799Y0070258D02*
X0202173Y0070258D01*
X0202173Y0069659D02*
X0187373Y0069659D01*
X0186825Y0069061D02*
X0188641Y0069061D01*
X0188018Y0068462D02*
X0187448Y0068462D01*
X0191825Y0069061D02*
X0202173Y0069061D01*
X0202173Y0068462D02*
X0192448Y0068462D01*
X0192830Y0067864D02*
X0202173Y0067864D01*
X0202173Y0067265D02*
X0193078Y0067265D01*
X0193117Y0066667D02*
X0202173Y0066667D01*
X0202173Y0066068D02*
X0193117Y0066068D01*
X0192887Y0065470D02*
X0202173Y0065470D01*
X0202173Y0064871D02*
X0192585Y0064871D01*
X0192133Y0064273D02*
X0202173Y0064273D01*
X0202173Y0063674D02*
X0191633Y0063674D01*
X0191035Y0063076D02*
X0202173Y0063076D01*
X0202173Y0062477D02*
X0190436Y0062477D01*
X0189838Y0061879D02*
X0202173Y0061879D01*
X0202173Y0061280D02*
X0189239Y0061280D01*
X0188641Y0060682D02*
X0202173Y0060682D01*
X0202173Y0060083D02*
X0188042Y0060083D01*
X0187444Y0059485D02*
X0202173Y0059485D01*
X0202173Y0058886D02*
X0186845Y0058886D01*
X0186247Y0058288D02*
X0202173Y0058288D01*
X0202173Y0057689D02*
X0185648Y0057689D01*
X0173872Y0069061D02*
X0122711Y0069061D01*
X0123161Y0069659D02*
X0173234Y0069659D01*
X0172636Y0070258D02*
X0123161Y0070258D01*
X0123161Y0070856D02*
X0172383Y0070856D01*
X0172383Y0071455D02*
X0123161Y0071455D01*
X0122597Y0072053D02*
X0172383Y0072053D01*
X0172546Y0072652D02*
X0121999Y0072652D01*
X0119546Y0072652D02*
X0119172Y0072652D01*
X0119172Y0073250D02*
X0173144Y0073250D01*
X0173743Y0073849D02*
X0119172Y0073849D01*
X0119172Y0074447D02*
X0174372Y0074447D01*
X0174372Y0075046D02*
X0119172Y0075046D01*
X0119172Y0075644D02*
X0174372Y0075644D01*
X0174372Y0076243D02*
X0119172Y0076243D01*
X0119172Y0076841D02*
X0174372Y0076841D01*
X0174372Y0077440D02*
X0119172Y0077440D01*
X0119172Y0078039D02*
X0174372Y0078039D01*
X0174372Y0078637D02*
X0119172Y0078637D01*
X0119172Y0079236D02*
X0174372Y0079236D01*
X0174372Y0079834D02*
X0119172Y0079834D01*
X0119172Y0080433D02*
X0174372Y0080433D01*
X0174372Y0081031D02*
X0119172Y0081031D01*
X0119172Y0081630D02*
X0174372Y0081630D01*
X0174372Y0082228D02*
X0119172Y0082228D01*
X0119172Y0082827D02*
X0174372Y0082827D01*
X0173468Y0083425D02*
X0119172Y0083425D01*
X0119172Y0084024D02*
X0172870Y0084024D01*
X0172383Y0084622D02*
X0122273Y0084622D01*
X0122871Y0085221D02*
X0172383Y0085221D01*
X0172383Y0085819D02*
X0123161Y0085819D01*
X0123670Y0086418D02*
X0172383Y0086418D01*
X0172910Y0087016D02*
X0124172Y0087016D01*
X0124172Y0087615D02*
X0173508Y0087615D01*
X0174372Y0088213D02*
X0124172Y0088213D01*
X0124172Y0088812D02*
X0174372Y0088812D01*
X0174372Y0089410D02*
X0124172Y0089410D01*
X0124172Y0090009D02*
X0174372Y0090009D01*
X0174372Y0090607D02*
X0124172Y0090607D01*
X0124172Y0091206D02*
X0174372Y0091206D01*
X0174372Y0091804D02*
X0124172Y0091804D01*
X0124172Y0092403D02*
X0174372Y0092403D01*
X0174372Y0093001D02*
X0124172Y0093001D01*
X0124172Y0093600D02*
X0174372Y0093600D01*
X0174372Y0094198D02*
X0124172Y0094198D01*
X0124172Y0094797D02*
X0174372Y0094797D01*
X0174372Y0095395D02*
X0124172Y0095395D01*
X0124172Y0095994D02*
X0174372Y0095994D01*
X0174372Y0096592D02*
X0124243Y0096592D01*
X0124842Y0097191D02*
X0174372Y0097191D01*
X0174372Y0097789D02*
X0125161Y0097789D01*
X0125161Y0098388D02*
X0174372Y0098388D01*
X0174372Y0098986D02*
X0125161Y0098986D01*
X0125066Y0099585D02*
X0174372Y0099585D01*
X0174372Y0100183D02*
X0124467Y0100183D01*
X0123869Y0100782D02*
X0174372Y0100782D01*
X0174372Y0101380D02*
X0063664Y0101380D01*
X0063065Y0100782D02*
X0121676Y0100782D01*
X0121077Y0100183D02*
X0062467Y0100183D01*
X0061868Y0099585D02*
X0120479Y0099585D01*
X0120383Y0098986D02*
X0061270Y0098986D01*
X0060671Y0098388D02*
X0063281Y0098388D01*
X0062683Y0097789D02*
X0060073Y0097789D01*
X0059474Y0097191D02*
X0062383Y0097191D01*
X0061885Y0096592D02*
X0058876Y0096592D01*
X0058853Y0095994D02*
X0061286Y0095994D01*
X0060688Y0095395D02*
X0058853Y0095395D01*
X0058735Y0094797D02*
X0060089Y0094797D01*
X0059491Y0094198D02*
X0058740Y0094198D01*
X0058853Y0093600D02*
X0058892Y0093600D01*
X0054804Y0094198D02*
X0050450Y0094198D01*
X0051049Y0094797D02*
X0054809Y0094797D01*
X0054691Y0095395D02*
X0051647Y0095395D01*
X0053209Y0092403D02*
X0054691Y0092403D01*
X0054691Y0093001D02*
X0033107Y0093001D01*
X0033107Y0092403D02*
X0042335Y0092403D01*
X0042049Y0091804D02*
X0033107Y0091804D01*
X0033107Y0091206D02*
X0042049Y0091206D01*
X0042049Y0090607D02*
X0033107Y0090607D01*
X0033107Y0090009D02*
X0042049Y0090009D01*
X0042049Y0089410D02*
X0033107Y0089410D01*
X0033107Y0088812D02*
X0042049Y0088812D01*
X0042049Y0088213D02*
X0033107Y0088213D01*
X0033107Y0087615D02*
X0042049Y0087615D01*
X0042049Y0087016D02*
X0033107Y0087016D01*
X0033107Y0086418D02*
X0042279Y0086418D01*
X0043502Y0085819D02*
X0033107Y0085819D01*
X0033107Y0085221D02*
X0043723Y0085221D01*
X0043723Y0084622D02*
X0033107Y0084622D01*
X0033107Y0084024D02*
X0043723Y0084024D01*
X0043723Y0083425D02*
X0033107Y0083425D01*
X0033107Y0082827D02*
X0043842Y0082827D01*
X0045064Y0082228D02*
X0033107Y0082228D01*
X0033107Y0081630D02*
X0045663Y0081630D01*
X0046261Y0081031D02*
X0033107Y0081031D01*
X0033107Y0080433D02*
X0046860Y0080433D01*
X0047521Y0086418D02*
X0048023Y0086418D01*
X0049459Y0087016D02*
X0046085Y0087016D01*
X0046015Y0087615D02*
X0049530Y0087615D01*
X0049530Y0088213D02*
X0046015Y0088213D01*
X0046015Y0088812D02*
X0049530Y0088812D01*
X0049530Y0089410D02*
X0046015Y0089410D01*
X0046015Y0090009D02*
X0049530Y0090009D01*
X0049530Y0090607D02*
X0046015Y0090607D01*
X0046015Y0091206D02*
X0049530Y0091206D01*
X0049530Y0091804D02*
X0046015Y0091804D01*
X0045729Y0092403D02*
X0049816Y0092403D01*
X0053495Y0091804D02*
X0054615Y0091804D01*
X0054220Y0091206D02*
X0053495Y0091206D01*
X0054691Y0093600D02*
X0033107Y0093600D01*
X0033107Y0094198D02*
X0036998Y0094198D01*
X0036495Y0094797D02*
X0033107Y0094797D01*
X0033107Y0095395D02*
X0036101Y0095395D01*
X0035652Y0095994D02*
X0033107Y0095994D01*
X0033107Y0096592D02*
X0035203Y0096592D01*
X0033703Y0097191D02*
X0033107Y0097191D01*
X0037356Y0098388D02*
X0042049Y0098388D01*
X0042049Y0098986D02*
X0037161Y0098986D01*
X0037161Y0099585D02*
X0042049Y0099585D01*
X0042049Y0100183D02*
X0037161Y0100183D01*
X0036869Y0100782D02*
X0042049Y0100782D01*
X0042049Y0101380D02*
X0036270Y0101380D01*
X0033274Y0101380D02*
X0033107Y0101380D01*
X0033107Y0101979D02*
X0042049Y0101979D01*
X0042274Y0102577D02*
X0033107Y0102577D01*
X0033107Y0103176D02*
X0042468Y0103176D01*
X0043012Y0103774D02*
X0033107Y0103774D01*
X0033107Y0104373D02*
X0043665Y0104373D01*
X0044264Y0104972D02*
X0033107Y0104972D01*
X0033107Y0105570D02*
X0044862Y0105570D01*
X0045461Y0106169D02*
X0033107Y0106169D01*
X0033107Y0106767D02*
X0046059Y0106767D01*
X0052996Y0107366D02*
X0033107Y0107366D01*
X0033107Y0107964D02*
X0062372Y0107964D01*
X0062372Y0107366D02*
X0060285Y0107366D01*
X0060884Y0106767D02*
X0062372Y0106767D01*
X0062372Y0106169D02*
X0061161Y0106169D01*
X0061161Y0105570D02*
X0062372Y0105570D01*
X0062372Y0104972D02*
X0061161Y0104972D01*
X0061024Y0104373D02*
X0062383Y0104373D01*
X0062098Y0103774D02*
X0060425Y0103774D01*
X0059827Y0103176D02*
X0061500Y0103176D01*
X0060901Y0102577D02*
X0057161Y0102577D01*
X0057161Y0103176D02*
X0057718Y0103176D01*
X0056630Y0101979D02*
X0060303Y0101979D01*
X0059704Y0101380D02*
X0056031Y0101380D01*
X0053513Y0101380D02*
X0053495Y0101380D01*
X0053495Y0100782D02*
X0059106Y0100782D01*
X0058507Y0100183D02*
X0053495Y0100183D01*
X0053495Y0099585D02*
X0057909Y0099585D01*
X0057310Y0098986D02*
X0053495Y0098986D01*
X0054864Y0098388D02*
X0055057Y0098388D01*
X0064262Y0101979D02*
X0174372Y0101979D01*
X0174372Y0102577D02*
X0066228Y0102577D01*
X0066827Y0103176D02*
X0174372Y0103176D01*
X0174372Y0103774D02*
X0067161Y0103774D01*
X0067161Y0104373D02*
X0174372Y0104373D01*
X0174372Y0104972D02*
X0067161Y0104972D01*
X0067081Y0105570D02*
X0174372Y0105570D01*
X0174372Y0106169D02*
X0066482Y0106169D01*
X0065884Y0106767D02*
X0174372Y0106767D01*
X0174372Y0107366D02*
X0065172Y0107366D01*
X0065172Y0107964D02*
X0174372Y0107964D01*
X0174372Y0108563D02*
X0065172Y0108563D01*
X0065172Y0109161D02*
X0174372Y0109161D01*
X0174372Y0109760D02*
X0065172Y0109760D01*
X0065172Y0110358D02*
X0174372Y0110358D01*
X0174372Y0110957D02*
X0065172Y0110957D01*
X0065172Y0111555D02*
X0174372Y0111555D01*
X0174372Y0112154D02*
X0065172Y0112154D01*
X0065172Y0112752D02*
X0174372Y0112752D01*
X0173543Y0113351D02*
X0065172Y0113351D01*
X0065172Y0113949D02*
X0172944Y0113949D01*
X0172383Y0114548D02*
X0066198Y0114548D01*
X0066797Y0115146D02*
X0172383Y0115146D01*
X0172383Y0115745D02*
X0067161Y0115745D01*
X0067161Y0116343D02*
X0172383Y0116343D01*
X0172835Y0116942D02*
X0067161Y0116942D01*
X0067110Y0117540D02*
X0173434Y0117540D01*
X0176110Y0117540D02*
X0202173Y0117540D01*
X0202173Y0116942D02*
X0176709Y0116942D01*
X0177161Y0116343D02*
X0202173Y0116343D01*
X0202173Y0115745D02*
X0177161Y0115745D01*
X0177161Y0115146D02*
X0202173Y0115146D01*
X0202173Y0114548D02*
X0177172Y0114548D01*
X0177172Y0113949D02*
X0202173Y0113949D01*
X0202173Y0113351D02*
X0177172Y0113351D01*
X0177172Y0112752D02*
X0202173Y0112752D01*
X0202173Y0112154D02*
X0177172Y0112154D01*
X0177172Y0111555D02*
X0202173Y0111555D01*
X0202173Y0110957D02*
X0177172Y0110957D01*
X0177172Y0110358D02*
X0202173Y0110358D01*
X0202173Y0109760D02*
X0177172Y0109760D01*
X0177172Y0109161D02*
X0202173Y0109161D01*
X0202173Y0108563D02*
X0177172Y0108563D01*
X0177172Y0107964D02*
X0202173Y0107964D01*
X0202173Y0107366D02*
X0177172Y0107366D01*
X0177172Y0106767D02*
X0202173Y0106767D01*
X0202173Y0106169D02*
X0177172Y0106169D01*
X0177172Y0105570D02*
X0202173Y0105570D01*
X0202173Y0104972D02*
X0177172Y0104972D01*
X0177172Y0104373D02*
X0202173Y0104373D01*
X0202173Y0103774D02*
X0177172Y0103774D01*
X0177172Y0103176D02*
X0202173Y0103176D01*
X0202173Y0102577D02*
X0177172Y0102577D01*
X0177172Y0101979D02*
X0202173Y0101979D01*
X0202173Y0101380D02*
X0177172Y0101380D01*
X0177172Y0100782D02*
X0202173Y0100782D01*
X0202173Y0100183D02*
X0177172Y0100183D01*
X0177172Y0099585D02*
X0202173Y0099585D01*
X0202173Y0098986D02*
X0177172Y0098986D01*
X0177172Y0098388D02*
X0202173Y0098388D01*
X0202173Y0097789D02*
X0177172Y0097789D01*
X0177172Y0097191D02*
X0202173Y0097191D01*
X0202173Y0096592D02*
X0177172Y0096592D01*
X0177172Y0095994D02*
X0202173Y0095994D01*
X0202173Y0095395D02*
X0177172Y0095395D01*
X0177172Y0094797D02*
X0202173Y0094797D01*
X0202173Y0094198D02*
X0177172Y0094198D01*
X0177172Y0093600D02*
X0202173Y0093600D01*
X0202173Y0093001D02*
X0177172Y0093001D01*
X0177172Y0092403D02*
X0202173Y0092403D01*
X0202173Y0091804D02*
X0177172Y0091804D01*
X0177172Y0091206D02*
X0202173Y0091206D01*
X0202173Y0090607D02*
X0177172Y0090607D01*
X0177172Y0090009D02*
X0202173Y0090009D01*
X0202173Y0118139D02*
X0066512Y0118139D01*
X0066172Y0118737D02*
X0202173Y0118737D01*
X0202173Y0119336D02*
X0121986Y0119336D01*
X0122585Y0119934D02*
X0202173Y0119934D01*
X0202173Y0120533D02*
X0123161Y0120533D01*
X0123161Y0121131D02*
X0202140Y0121131D01*
X0202101Y0121730D02*
X0123161Y0121730D01*
X0123161Y0122328D02*
X0202024Y0122328D01*
X0201864Y0122927D02*
X0122724Y0122927D01*
X0122125Y0123525D02*
X0201704Y0123525D01*
X0201544Y0124124D02*
X0120128Y0124124D01*
X0119530Y0124722D02*
X0201384Y0124722D01*
X0201144Y0125321D02*
X0118931Y0125321D01*
X0118333Y0125919D02*
X0200800Y0125919D01*
X0200456Y0126518D02*
X0117734Y0126518D01*
X0117136Y0127116D02*
X0200112Y0127116D01*
X0199753Y0127715D02*
X0116537Y0127715D01*
X0115939Y0128313D02*
X0199158Y0128313D01*
X0198563Y0128912D02*
X0115340Y0128912D01*
X0114742Y0129510D02*
X0197968Y0129510D01*
X0197166Y0130109D02*
X0114143Y0130109D01*
X0113545Y0130708D02*
X0196139Y0130708D01*
X0195111Y0131306D02*
X0112946Y0131306D01*
X0111380Y0128912D02*
X0090161Y0128912D01*
X0089964Y0128313D02*
X0111979Y0128313D01*
X0112577Y0127715D02*
X0089366Y0127715D01*
X0088767Y0127116D02*
X0113176Y0127116D01*
X0113774Y0126518D02*
X0067770Y0126518D01*
X0068368Y0127116D02*
X0086777Y0127116D01*
X0086179Y0127715D02*
X0068967Y0127715D01*
X0069565Y0128313D02*
X0085580Y0128313D01*
X0085383Y0128912D02*
X0070164Y0128912D01*
X0067401Y0130109D02*
X0038664Y0130109D01*
X0037915Y0129510D02*
X0066803Y0129510D01*
X0066204Y0128912D02*
X0037165Y0128912D01*
X0036539Y0128313D02*
X0065606Y0128313D01*
X0065007Y0127715D02*
X0036063Y0127715D01*
X0035587Y0127116D02*
X0064409Y0127116D01*
X0063810Y0126518D02*
X0035111Y0126518D01*
X0034783Y0125919D02*
X0063372Y0125919D01*
X0063372Y0125321D02*
X0034497Y0125321D01*
X0034210Y0124722D02*
X0063372Y0124722D01*
X0063372Y0124124D02*
X0033923Y0124124D01*
X0033722Y0123525D02*
X0063372Y0123525D01*
X0063372Y0122927D02*
X0033587Y0122927D01*
X0033452Y0122328D02*
X0063372Y0122328D01*
X0063372Y0121730D02*
X0033317Y0121730D01*
X0033182Y0121131D02*
X0063372Y0121131D01*
X0063372Y0120533D02*
X0033149Y0120533D01*
X0033118Y0119934D02*
X0063372Y0119934D01*
X0063372Y0119336D02*
X0033108Y0119336D01*
X0033107Y0118737D02*
X0063372Y0118737D01*
X0063032Y0118139D02*
X0033107Y0118139D01*
X0033107Y0117540D02*
X0062434Y0117540D01*
X0062383Y0116942D02*
X0033107Y0116942D01*
X0033107Y0116343D02*
X0062383Y0116343D01*
X0062372Y0115745D02*
X0033107Y0115745D01*
X0033107Y0115146D02*
X0062372Y0115146D01*
X0062372Y0114548D02*
X0033107Y0114548D01*
X0033107Y0113949D02*
X0062372Y0113949D01*
X0062372Y0113351D02*
X0033107Y0113351D01*
X0033107Y0112752D02*
X0062372Y0112752D01*
X0062372Y0112154D02*
X0033107Y0112154D01*
X0033107Y0111555D02*
X0062372Y0111555D01*
X0062372Y0110957D02*
X0033107Y0110957D01*
X0033107Y0110358D02*
X0062372Y0110358D01*
X0062372Y0109760D02*
X0033107Y0109760D01*
X0033107Y0109161D02*
X0062372Y0109161D01*
X0062372Y0108563D02*
X0033107Y0108563D01*
X0037805Y0097789D02*
X0042049Y0097789D01*
X0042049Y0097191D02*
X0038254Y0097191D01*
X0056548Y0107366D02*
X0057259Y0107366D01*
X0066263Y0098388D02*
X0120383Y0098388D01*
X0120383Y0097789D02*
X0066861Y0097789D01*
X0067161Y0097191D02*
X0120703Y0097191D01*
X0121301Y0096592D02*
X0067161Y0096592D01*
X0067161Y0095994D02*
X0121372Y0095994D01*
X0119271Y0084622D02*
X0119172Y0084622D01*
X0096815Y0062477D02*
X0087416Y0062477D01*
X0105563Y0057689D02*
X0122872Y0057689D01*
X0122872Y0057091D02*
X0106161Y0057091D01*
X0110353Y0056492D02*
X0122872Y0056492D01*
X0122872Y0055894D02*
X0110472Y0055894D01*
X0110472Y0055295D02*
X0122872Y0055295D01*
X0122872Y0054697D02*
X0110472Y0054697D01*
X0110472Y0054098D02*
X0122872Y0054098D01*
X0122872Y0053500D02*
X0110472Y0053500D01*
X0110472Y0052901D02*
X0122872Y0052901D01*
X0122872Y0052303D02*
X0110472Y0052303D01*
X0110472Y0051704D02*
X0122872Y0051704D01*
X0122872Y0051105D02*
X0110472Y0051105D01*
X0110472Y0050507D02*
X0122872Y0050507D01*
X0122872Y0049908D02*
X0110472Y0049908D01*
X0110472Y0049310D02*
X0122872Y0049310D01*
X0122872Y0048711D02*
X0110472Y0048711D01*
X0110472Y0048113D02*
X0122872Y0048113D01*
X0122872Y0047514D02*
X0110472Y0047514D01*
X0110472Y0046916D02*
X0122872Y0046916D01*
X0122872Y0046317D02*
X0110472Y0046317D01*
X0110472Y0045719D02*
X0122872Y0045719D01*
X0122706Y0045120D02*
X0110472Y0045120D01*
X0110472Y0044522D02*
X0121415Y0044522D01*
X0120817Y0043923D02*
X0110472Y0043923D01*
X0110472Y0043325D02*
X0120383Y0043325D01*
X0120383Y0042726D02*
X0110472Y0042726D01*
X0110472Y0042128D02*
X0120383Y0042128D01*
X0120383Y0041529D02*
X0110472Y0041529D01*
X0110472Y0040931D02*
X0120963Y0040931D01*
X0110472Y0039135D02*
X0202173Y0039135D01*
X0202173Y0038537D02*
X0110472Y0038537D01*
X0110472Y0037938D02*
X0202173Y0037938D01*
X0202173Y0037340D02*
X0110472Y0037340D01*
X0110472Y0036741D02*
X0202173Y0036741D01*
X0202173Y0036143D02*
X0110472Y0036143D01*
X0110472Y0035544D02*
X0202173Y0035544D01*
X0202173Y0034946D02*
X0110472Y0034946D01*
X0110192Y0034347D02*
X0202173Y0034347D01*
X0202173Y0033749D02*
X0102902Y0033749D01*
X0103161Y0033150D02*
X0202173Y0033150D01*
X0202173Y0032552D02*
X0103161Y0032552D01*
X0103161Y0031953D02*
X0202173Y0031953D01*
X0202173Y0031355D02*
X0103005Y0031355D01*
X0102407Y0030756D02*
X0202173Y0030756D01*
X0202173Y0030158D02*
X0101808Y0030158D01*
X0099736Y0030158D02*
X0086365Y0030158D01*
X0086365Y0030756D02*
X0099137Y0030756D01*
X0098539Y0031355D02*
X0086365Y0031355D01*
X0086365Y0031953D02*
X0098383Y0031953D01*
X0098316Y0032552D02*
X0086365Y0032552D01*
X0086365Y0033150D02*
X0097718Y0033150D01*
X0097119Y0033749D02*
X0086365Y0033749D01*
X0086365Y0037340D02*
X0101072Y0037340D01*
X0101072Y0037938D02*
X0086363Y0037938D01*
X0086214Y0029559D02*
X0202173Y0029559D01*
X0201237Y0015793D02*
X0108857Y0015793D01*
X0109161Y0015195D02*
X0200948Y0015195D01*
X0200660Y0014596D02*
X0109161Y0014596D01*
X0109161Y0013998D02*
X0200372Y0013998D01*
X0200084Y0013399D02*
X0109050Y0013399D01*
X0108451Y0012801D02*
X0199634Y0012801D01*
X0122872Y0058288D02*
X0121938Y0058288D01*
X0122537Y0058886D02*
X0122872Y0058886D01*
X0101072Y0039135D02*
X0033107Y0039135D01*
X0033107Y0038537D02*
X0101072Y0038537D01*
X0101072Y0036741D02*
X0098935Y0036741D01*
X0099534Y0036143D02*
X0101072Y0036143D01*
X0101072Y0035544D02*
X0100132Y0035544D01*
X0100731Y0034946D02*
X0101072Y0034946D01*
X0119558Y0119336D02*
X0066172Y0119336D01*
X0066172Y0119934D02*
X0118959Y0119934D01*
X0118383Y0120533D02*
X0066172Y0120533D01*
X0066172Y0121131D02*
X0118383Y0121131D01*
X0118383Y0121730D02*
X0066172Y0121730D01*
X0066172Y0122328D02*
X0117964Y0122328D01*
X0117365Y0122927D02*
X0066172Y0122927D01*
X0066172Y0123525D02*
X0116767Y0123525D01*
X0116168Y0124124D02*
X0066172Y0124124D01*
X0066172Y0124722D02*
X0115570Y0124722D01*
X0114971Y0125321D02*
X0066573Y0125321D01*
X0067171Y0125919D02*
X0114373Y0125919D01*
X0068598Y0131306D02*
X0040966Y0131306D01*
X0039723Y0130708D02*
X0068000Y0130708D01*
X0043033Y0131905D02*
X0192994Y0131905D01*
M02*
