G04 #@! TF.FileFunction,Copper,L2,Bot,Signal*
%FSLAX46Y46*%
G04 Gerber Fmt 4.6, Leading zero omitted, Abs format (unit mm)*
G04 Created by KiCad (PCBNEW 4.0.7) date 04/29/18 15:58:17*
%MOMM*%
%LPD*%
G01*
G04 APERTURE LIST*
%ADD10C,0.100000*%
%ADD11C,1.524000*%
%ADD12R,1.524000X1.524000*%
%ADD13C,5.080000*%
%ADD14C,0.600000*%
%ADD15C,0.406400*%
%ADD16C,0.254000*%
G04 APERTURE END LIST*
D10*
D11*
X208343500Y-130365500D03*
X208343500Y-127825500D03*
X208343500Y-125285500D03*
X208343500Y-122745500D03*
X208343500Y-120205500D03*
X205803500Y-120205500D03*
X203263500Y-120205500D03*
X200723500Y-120205500D03*
D12*
X198183500Y-120205500D03*
D11*
X205803500Y-130365500D03*
X203263500Y-130365500D03*
X200723500Y-130365500D03*
X198183500Y-130365500D03*
X202311000Y-101854000D03*
X204851000Y-101854000D03*
X207391000Y-101854000D03*
D13*
X223647000Y-95631000D03*
X231648000Y-95631000D03*
D11*
X221107000Y-132778500D03*
X218567000Y-132778500D03*
X216027000Y-132778500D03*
X213487000Y-132778500D03*
X232791000Y-132778500D03*
X230251000Y-132778500D03*
X227711000Y-132778500D03*
X212153500Y-105918000D03*
X212153500Y-108458000D03*
X212153500Y-110998000D03*
X212153500Y-113538000D03*
X212153500Y-116078000D03*
X212153500Y-118618000D03*
X212153500Y-121158000D03*
X212153500Y-123698000D03*
X235013500Y-105918000D03*
X235013500Y-108458000D03*
X235013500Y-110998000D03*
X235013500Y-113538000D03*
X235013500Y-116078000D03*
X235013500Y-118618000D03*
X235013500Y-121158000D03*
X235013500Y-123698000D03*
D14*
X216027000Y-105918000D03*
X220599000Y-118618000D03*
X218186000Y-116078000D03*
D15*
X223647000Y-95631000D02*
X203898500Y-95631000D01*
X202311000Y-97218500D02*
X202311000Y-101854000D01*
X203898500Y-95631000D02*
X202311000Y-97218500D01*
X201358500Y-103568500D02*
X205676500Y-103568500D01*
X205676500Y-103568500D02*
X207391000Y-101854000D01*
X200723500Y-104203500D02*
X201358500Y-103568500D01*
X200723500Y-120205500D02*
X200723500Y-104203500D01*
X208343500Y-125285500D02*
X208343500Y-127825500D01*
X208343500Y-127825500D02*
X208343500Y-130365500D01*
X216027000Y-131700870D02*
X216027000Y-105918000D01*
X216027000Y-132778500D02*
X216027000Y-131700870D01*
X219773500Y-135572500D02*
X221107000Y-134239000D01*
X221107000Y-134239000D02*
X221107000Y-132778500D01*
X204852870Y-135572500D02*
X219773500Y-135572500D01*
X200723500Y-130365500D02*
X200723500Y-131443130D01*
X200723500Y-131443130D02*
X204852870Y-135572500D01*
X221107000Y-132778500D02*
X221107000Y-119126000D01*
X221107000Y-119126000D02*
X220599000Y-118618000D01*
X203263500Y-130365500D02*
X203263500Y-131443130D01*
X203263500Y-131443130D02*
X206059370Y-134239000D01*
X206059370Y-134239000D02*
X217106500Y-134239000D01*
X217106500Y-134239000D02*
X218567000Y-132778500D01*
X218567000Y-132778500D02*
X218567000Y-116459000D01*
X218567000Y-116459000D02*
X218186000Y-116078000D01*
X232791000Y-114046000D02*
X233299000Y-113538000D01*
X233299000Y-113538000D02*
X235013500Y-113538000D01*
X232791000Y-132778500D02*
X232791000Y-114046000D01*
X208343500Y-120205500D02*
X208343500Y-122745500D01*
D16*
G36*
X241417326Y-80196699D02*
X242483624Y-80909176D01*
X243196101Y-81975476D01*
X243460200Y-83303191D01*
X243460200Y-141956640D01*
X243193561Y-143297124D01*
X242481084Y-144363424D01*
X241414786Y-145075901D01*
X240087069Y-145340000D01*
X199635191Y-145340000D01*
X198307476Y-145075901D01*
X197241176Y-144363424D01*
X196528699Y-143297126D01*
X196360042Y-142449227D01*
X197464315Y-142449227D01*
X197784593Y-143224359D01*
X198377121Y-143817923D01*
X199151693Y-144139553D01*
X199990387Y-144140285D01*
X200765519Y-143820007D01*
X201359083Y-143227479D01*
X201680713Y-142452907D01*
X201681211Y-141881873D01*
X209856591Y-141881873D01*
X210215123Y-142749586D01*
X210878422Y-143414044D01*
X211745508Y-143774089D01*
X212684373Y-143774909D01*
X213552086Y-143416377D01*
X214216544Y-142753078D01*
X214576589Y-141885992D01*
X214576592Y-141881873D01*
X220016591Y-141881873D01*
X220375123Y-142749586D01*
X221038422Y-143414044D01*
X221905508Y-143774089D01*
X222844373Y-143774909D01*
X223712086Y-143416377D01*
X224376544Y-142753078D01*
X224408634Y-142675797D01*
X224439123Y-142749586D01*
X225102422Y-143414044D01*
X225969508Y-143774089D01*
X226908373Y-143774909D01*
X227776086Y-143416377D01*
X228440544Y-142753078D01*
X228800589Y-141885992D01*
X228800592Y-141881873D01*
X231700591Y-141881873D01*
X232059123Y-142749586D01*
X232722422Y-143414044D01*
X233589508Y-143774089D01*
X234528373Y-143774909D01*
X235396086Y-143416377D01*
X236060544Y-142753078D01*
X236186713Y-142449227D01*
X238043355Y-142449227D01*
X238363633Y-143224359D01*
X238956161Y-143817923D01*
X239730733Y-144139553D01*
X240569427Y-144140285D01*
X241344559Y-143820007D01*
X241938123Y-143227479D01*
X242259753Y-142452907D01*
X242260485Y-141614213D01*
X241940207Y-140839081D01*
X241347679Y-140245517D01*
X240573107Y-139923887D01*
X239734413Y-139923155D01*
X238959281Y-140243433D01*
X238365717Y-140835961D01*
X238044087Y-141610533D01*
X238043355Y-142449227D01*
X236186713Y-142449227D01*
X236420589Y-141885992D01*
X236421409Y-140947127D01*
X236062877Y-140079414D01*
X235399578Y-139414956D01*
X234532492Y-139054911D01*
X233593627Y-139054091D01*
X232725914Y-139412623D01*
X232061456Y-140075922D01*
X231701411Y-140943008D01*
X231700591Y-141881873D01*
X228800592Y-141881873D01*
X228801409Y-140947127D01*
X228442877Y-140079414D01*
X227779578Y-139414956D01*
X226912492Y-139054911D01*
X225973627Y-139054091D01*
X225105914Y-139412623D01*
X224441456Y-140075922D01*
X224409366Y-140153203D01*
X224378877Y-140079414D01*
X223715578Y-139414956D01*
X222848492Y-139054911D01*
X221909627Y-139054091D01*
X221041914Y-139412623D01*
X220377456Y-140075922D01*
X220017411Y-140943008D01*
X220016591Y-141881873D01*
X214576592Y-141881873D01*
X214577409Y-140947127D01*
X214218877Y-140079414D01*
X213555578Y-139414956D01*
X212688492Y-139054911D01*
X211749627Y-139054091D01*
X210881914Y-139412623D01*
X210217456Y-140075922D01*
X209857411Y-140943008D01*
X209856591Y-141881873D01*
X201681211Y-141881873D01*
X201681445Y-141614213D01*
X201361167Y-140839081D01*
X200768639Y-140245517D01*
X199994067Y-139923887D01*
X199155373Y-139923155D01*
X198380241Y-140243433D01*
X197786677Y-140835961D01*
X197465047Y-141610533D01*
X197464315Y-142449227D01*
X196360042Y-142449227D01*
X196264600Y-141969409D01*
X196264600Y-130642161D01*
X196786258Y-130642161D01*
X196998490Y-131155803D01*
X197391130Y-131549129D01*
X197904400Y-131762257D01*
X198460161Y-131762742D01*
X198973803Y-131550510D01*
X199367129Y-131157870D01*
X199453449Y-130949988D01*
X199538490Y-131155803D01*
X199900227Y-131518172D01*
X199949104Y-131763896D01*
X200130803Y-132035827D01*
X204260173Y-136165197D01*
X204532104Y-136346896D01*
X204852870Y-136410700D01*
X219773500Y-136410700D01*
X220094266Y-136346896D01*
X220366197Y-136165197D01*
X221699697Y-134831697D01*
X221881396Y-134559765D01*
X221945200Y-134239000D01*
X221945200Y-133915697D01*
X222290629Y-133570870D01*
X222503757Y-133057600D01*
X222503759Y-133055161D01*
X228853758Y-133055161D01*
X229065990Y-133568803D01*
X229458630Y-133962129D01*
X229971900Y-134175257D01*
X230527661Y-134175742D01*
X231041303Y-133963510D01*
X231434629Y-133570870D01*
X231520949Y-133362988D01*
X231605990Y-133568803D01*
X231998630Y-133962129D01*
X232511900Y-134175257D01*
X233067661Y-134175742D01*
X233581303Y-133963510D01*
X233974629Y-133570870D01*
X234187757Y-133057600D01*
X234188242Y-132501839D01*
X233976010Y-131988197D01*
X233629200Y-131640781D01*
X233629200Y-124005983D01*
X233828490Y-124488303D01*
X234221130Y-124881629D01*
X234734400Y-125094757D01*
X235290161Y-125095242D01*
X235803803Y-124883010D01*
X236197129Y-124490370D01*
X236410257Y-123977100D01*
X236410742Y-123421339D01*
X236198510Y-122907697D01*
X235805870Y-122514371D01*
X235597988Y-122428051D01*
X235803803Y-122343010D01*
X236197129Y-121950370D01*
X236410257Y-121437100D01*
X236410742Y-120881339D01*
X236198510Y-120367697D01*
X235805870Y-119974371D01*
X235597988Y-119888051D01*
X235803803Y-119803010D01*
X236197129Y-119410370D01*
X236410257Y-118897100D01*
X236410742Y-118341339D01*
X236198510Y-117827697D01*
X235805870Y-117434371D01*
X235597988Y-117348051D01*
X235803803Y-117263010D01*
X236197129Y-116870370D01*
X236410257Y-116357100D01*
X236410742Y-115801339D01*
X236198510Y-115287697D01*
X235805870Y-114894371D01*
X235597988Y-114808051D01*
X235803803Y-114723010D01*
X236197129Y-114330370D01*
X236410257Y-113817100D01*
X236410742Y-113261339D01*
X236198510Y-112747697D01*
X235805870Y-112354371D01*
X235597988Y-112268051D01*
X235803803Y-112183010D01*
X236197129Y-111790370D01*
X236410257Y-111277100D01*
X236410742Y-110721339D01*
X236198510Y-110207697D01*
X235805870Y-109814371D01*
X235597988Y-109728051D01*
X235803803Y-109643010D01*
X236197129Y-109250370D01*
X236410257Y-108737100D01*
X236410742Y-108181339D01*
X236198510Y-107667697D01*
X235805870Y-107274371D01*
X235597988Y-107188051D01*
X235803803Y-107103010D01*
X236197129Y-106710370D01*
X236410257Y-106197100D01*
X236410742Y-105641339D01*
X236198510Y-105127697D01*
X235805870Y-104734371D01*
X235292600Y-104521243D01*
X234736839Y-104520758D01*
X234223197Y-104732990D01*
X233829871Y-105125630D01*
X233616743Y-105638900D01*
X233616258Y-106194661D01*
X233828490Y-106708303D01*
X234221130Y-107101629D01*
X234429012Y-107187949D01*
X234223197Y-107272990D01*
X233829871Y-107665630D01*
X233616743Y-108178900D01*
X233616258Y-108734661D01*
X233828490Y-109248303D01*
X234221130Y-109641629D01*
X234429012Y-109727949D01*
X234223197Y-109812990D01*
X233829871Y-110205630D01*
X233616743Y-110718900D01*
X233616258Y-111274661D01*
X233828490Y-111788303D01*
X234221130Y-112181629D01*
X234429012Y-112267949D01*
X234223197Y-112352990D01*
X233875781Y-112699800D01*
X233299000Y-112699800D01*
X232978235Y-112763604D01*
X232978233Y-112763605D01*
X232978234Y-112763605D01*
X232706303Y-112945303D01*
X232198303Y-113453303D01*
X232016604Y-113725234D01*
X232016604Y-113725235D01*
X231952800Y-114046000D01*
X231952800Y-131641303D01*
X231607371Y-131986130D01*
X231521051Y-132194012D01*
X231436010Y-131988197D01*
X231043370Y-131594871D01*
X230530100Y-131381743D01*
X229974339Y-131381258D01*
X229460697Y-131593490D01*
X229067371Y-131986130D01*
X228854243Y-132499400D01*
X228853758Y-133055161D01*
X222503759Y-133055161D01*
X222504242Y-132501839D01*
X222292010Y-131988197D01*
X221945200Y-131640781D01*
X221945200Y-119126000D01*
X221881396Y-118805235D01*
X221699697Y-118533303D01*
X221488348Y-118321954D01*
X221392117Y-118089057D01*
X221129327Y-117825808D01*
X220785799Y-117683162D01*
X220413833Y-117682838D01*
X220070057Y-117824883D01*
X219806808Y-118087673D01*
X219664162Y-118431201D01*
X219663838Y-118803167D01*
X219805883Y-119146943D01*
X220068673Y-119410192D01*
X220268800Y-119493292D01*
X220268800Y-131641303D01*
X219923371Y-131986130D01*
X219837051Y-132194012D01*
X219752010Y-131988197D01*
X219405200Y-131640781D01*
X219405200Y-116459000D01*
X219366571Y-116264799D01*
X219341396Y-116138234D01*
X219159697Y-115866303D01*
X219075348Y-115781954D01*
X218979117Y-115549057D01*
X218716327Y-115285808D01*
X218372799Y-115143162D01*
X218000833Y-115142838D01*
X217657057Y-115284883D01*
X217393808Y-115547673D01*
X217251162Y-115891201D01*
X217250838Y-116263167D01*
X217392883Y-116606943D01*
X217655673Y-116870192D01*
X217728800Y-116900557D01*
X217728800Y-131641303D01*
X217383371Y-131986130D01*
X217297051Y-132194012D01*
X217212010Y-131988197D01*
X216865200Y-131640781D01*
X216865200Y-106337528D01*
X216961838Y-106104799D01*
X216962162Y-105732833D01*
X216820117Y-105389057D01*
X216557327Y-105125808D01*
X216213799Y-104983162D01*
X215841833Y-104982838D01*
X215498057Y-105124883D01*
X215234808Y-105387673D01*
X215092162Y-105731201D01*
X215091838Y-106103167D01*
X215188800Y-106337834D01*
X215188800Y-131641303D01*
X214843371Y-131986130D01*
X214630243Y-132499400D01*
X214629758Y-133055161D01*
X214772573Y-133400800D01*
X206406564Y-133400800D01*
X204305258Y-131299494D01*
X204447129Y-131157870D01*
X204533449Y-130949988D01*
X204618490Y-131155803D01*
X205011130Y-131549129D01*
X205524400Y-131762257D01*
X206080161Y-131762742D01*
X206593803Y-131550510D01*
X206987129Y-131157870D01*
X207073449Y-130949988D01*
X207158490Y-131155803D01*
X207551130Y-131549129D01*
X208064400Y-131762257D01*
X208620161Y-131762742D01*
X209133803Y-131550510D01*
X209527129Y-131157870D01*
X209740257Y-130644600D01*
X209740742Y-130088839D01*
X209528510Y-129575197D01*
X209181700Y-129227781D01*
X209181700Y-128962697D01*
X209527129Y-128617870D01*
X209740257Y-128104600D01*
X209740742Y-127548839D01*
X209528510Y-127035197D01*
X209181700Y-126687781D01*
X209181700Y-126422697D01*
X209527129Y-126077870D01*
X209740257Y-125564600D01*
X209740742Y-125008839D01*
X209528510Y-124495197D01*
X209135870Y-124101871D01*
X208927988Y-124015551D01*
X209133803Y-123930510D01*
X209527129Y-123537870D01*
X209740257Y-123024600D01*
X209740742Y-122468839D01*
X209528510Y-121955197D01*
X209181700Y-121607781D01*
X209181700Y-121342697D01*
X209527129Y-120997870D01*
X209740257Y-120484600D01*
X209740742Y-119928839D01*
X209528510Y-119415197D01*
X209135870Y-119021871D01*
X208622600Y-118808743D01*
X208066839Y-118808258D01*
X207553197Y-119020490D01*
X207159871Y-119413130D01*
X207073551Y-119621012D01*
X206988510Y-119415197D01*
X206595870Y-119021871D01*
X206082600Y-118808743D01*
X205526839Y-118808258D01*
X205013197Y-119020490D01*
X204619871Y-119413130D01*
X204533551Y-119621012D01*
X204448510Y-119415197D01*
X204055870Y-119021871D01*
X203542600Y-118808743D01*
X202986839Y-118808258D01*
X202473197Y-119020490D01*
X202079871Y-119413130D01*
X201993551Y-119621012D01*
X201908510Y-119415197D01*
X201561700Y-119067781D01*
X201561700Y-111274661D01*
X210756258Y-111274661D01*
X210968490Y-111788303D01*
X211361130Y-112181629D01*
X211569012Y-112267949D01*
X211363197Y-112352990D01*
X210969871Y-112745630D01*
X210756743Y-113258900D01*
X210756258Y-113814661D01*
X210968490Y-114328303D01*
X211361130Y-114721629D01*
X211569012Y-114807949D01*
X211363197Y-114892990D01*
X210969871Y-115285630D01*
X210756743Y-115798900D01*
X210756258Y-116354661D01*
X210968490Y-116868303D01*
X211361130Y-117261629D01*
X211569012Y-117347949D01*
X211363197Y-117432990D01*
X210969871Y-117825630D01*
X210756743Y-118338900D01*
X210756258Y-118894661D01*
X210968490Y-119408303D01*
X211361130Y-119801629D01*
X211569012Y-119887949D01*
X211363197Y-119972990D01*
X210969871Y-120365630D01*
X210756743Y-120878900D01*
X210756258Y-121434661D01*
X210968490Y-121948303D01*
X211361130Y-122341629D01*
X211569012Y-122427949D01*
X211363197Y-122512990D01*
X210969871Y-122905630D01*
X210756743Y-123418900D01*
X210756258Y-123974661D01*
X210968490Y-124488303D01*
X211361130Y-124881629D01*
X211874400Y-125094757D01*
X212430161Y-125095242D01*
X212943803Y-124883010D01*
X213337129Y-124490370D01*
X213550257Y-123977100D01*
X213550742Y-123421339D01*
X213338510Y-122907697D01*
X212945870Y-122514371D01*
X212737988Y-122428051D01*
X212943803Y-122343010D01*
X213337129Y-121950370D01*
X213550257Y-121437100D01*
X213550742Y-120881339D01*
X213338510Y-120367697D01*
X212945870Y-119974371D01*
X212737988Y-119888051D01*
X212943803Y-119803010D01*
X213337129Y-119410370D01*
X213550257Y-118897100D01*
X213550742Y-118341339D01*
X213338510Y-117827697D01*
X212945870Y-117434371D01*
X212737988Y-117348051D01*
X212943803Y-117263010D01*
X213337129Y-116870370D01*
X213550257Y-116357100D01*
X213550742Y-115801339D01*
X213338510Y-115287697D01*
X212945870Y-114894371D01*
X212737988Y-114808051D01*
X212943803Y-114723010D01*
X213337129Y-114330370D01*
X213550257Y-113817100D01*
X213550742Y-113261339D01*
X213338510Y-112747697D01*
X212945870Y-112354371D01*
X212737988Y-112268051D01*
X212943803Y-112183010D01*
X213337129Y-111790370D01*
X213550257Y-111277100D01*
X213550742Y-110721339D01*
X213338510Y-110207697D01*
X212945870Y-109814371D01*
X212432600Y-109601243D01*
X211876839Y-109600758D01*
X211363197Y-109812990D01*
X210969871Y-110205630D01*
X210756743Y-110718900D01*
X210756258Y-111274661D01*
X201561700Y-111274661D01*
X201561700Y-106194661D01*
X210756258Y-106194661D01*
X210968490Y-106708303D01*
X211361130Y-107101629D01*
X211874400Y-107314757D01*
X212430161Y-107315242D01*
X212943803Y-107103010D01*
X213337129Y-106710370D01*
X213550257Y-106197100D01*
X213550742Y-105641339D01*
X213338510Y-105127697D01*
X212945870Y-104734371D01*
X212432600Y-104521243D01*
X211876839Y-104520758D01*
X211363197Y-104732990D01*
X210969871Y-105125630D01*
X210756743Y-105638900D01*
X210756258Y-106194661D01*
X201561700Y-106194661D01*
X201561700Y-104550694D01*
X201705694Y-104406700D01*
X205676500Y-104406700D01*
X205997266Y-104342896D01*
X206269197Y-104161197D01*
X207179578Y-103250816D01*
X207667661Y-103251242D01*
X208181303Y-103039010D01*
X208574629Y-102646370D01*
X208787757Y-102133100D01*
X208788242Y-101577339D01*
X208576010Y-101063697D01*
X208183370Y-100670371D01*
X207670100Y-100457243D01*
X207114339Y-100456758D01*
X206600697Y-100668990D01*
X206207371Y-101061630D01*
X205994243Y-101574900D01*
X205993815Y-102065791D01*
X205329306Y-102730300D01*
X203410552Y-102730300D01*
X203494629Y-102646370D01*
X203707757Y-102133100D01*
X203708242Y-101577339D01*
X203496010Y-101063697D01*
X203149200Y-100716281D01*
X203149200Y-97565694D01*
X204245694Y-96469200D01*
X220557982Y-96469200D01*
X220953796Y-97427143D01*
X221846159Y-98321065D01*
X223012683Y-98805448D01*
X224275776Y-98806550D01*
X225443143Y-98324204D01*
X226337065Y-97431841D01*
X226821448Y-96265317D01*
X226822550Y-95002224D01*
X226340204Y-93834857D01*
X225447841Y-92940935D01*
X224281317Y-92456552D01*
X223018224Y-92455450D01*
X221850857Y-92937796D01*
X220956935Y-93830159D01*
X220557212Y-94792800D01*
X203898500Y-94792800D01*
X203577734Y-94856604D01*
X203305803Y-95038303D01*
X201718303Y-96625803D01*
X201536604Y-96897734D01*
X201536604Y-96897735D01*
X201472800Y-97218500D01*
X201472800Y-100716803D01*
X201127371Y-101061630D01*
X200914243Y-101574900D01*
X200913758Y-102130661D01*
X201125990Y-102644303D01*
X201236135Y-102754640D01*
X201037735Y-102794104D01*
X200765803Y-102975803D01*
X200130803Y-103610803D01*
X199949104Y-103882734D01*
X199949104Y-103882735D01*
X199885300Y-104203500D01*
X199885300Y-119068303D01*
X199539871Y-119413130D01*
X199326743Y-119926400D01*
X199326258Y-120482161D01*
X199538490Y-120995803D01*
X199931130Y-121389129D01*
X200444400Y-121602257D01*
X201000161Y-121602742D01*
X201513803Y-121390510D01*
X201907129Y-120997870D01*
X201993449Y-120789988D01*
X202078490Y-120995803D01*
X202471130Y-121389129D01*
X202984400Y-121602257D01*
X203540161Y-121602742D01*
X204053803Y-121390510D01*
X204447129Y-120997870D01*
X204533449Y-120789988D01*
X204618490Y-120995803D01*
X205011130Y-121389129D01*
X205524400Y-121602257D01*
X206080161Y-121602742D01*
X206593803Y-121390510D01*
X206987129Y-120997870D01*
X207073449Y-120789988D01*
X207158490Y-120995803D01*
X207505300Y-121343219D01*
X207505300Y-121608303D01*
X207159871Y-121953130D01*
X206946743Y-122466400D01*
X206946258Y-123022161D01*
X207158490Y-123535803D01*
X207551130Y-123929129D01*
X207759012Y-124015449D01*
X207553197Y-124100490D01*
X207159871Y-124493130D01*
X206946743Y-125006400D01*
X206946258Y-125562161D01*
X207158490Y-126075803D01*
X207505300Y-126423219D01*
X207505300Y-126688303D01*
X207159871Y-127033130D01*
X206946743Y-127546400D01*
X206946258Y-128102161D01*
X207158490Y-128615803D01*
X207505300Y-128963219D01*
X207505300Y-129228303D01*
X207159871Y-129573130D01*
X207073551Y-129781012D01*
X206988510Y-129575197D01*
X206595870Y-129181871D01*
X206082600Y-128968743D01*
X205526839Y-128968258D01*
X205013197Y-129180490D01*
X204619871Y-129573130D01*
X204533551Y-129781012D01*
X204448510Y-129575197D01*
X204055870Y-129181871D01*
X203542600Y-128968743D01*
X202986839Y-128968258D01*
X202473197Y-129180490D01*
X202079871Y-129573130D01*
X201993551Y-129781012D01*
X201908510Y-129575197D01*
X201515870Y-129181871D01*
X201002600Y-128968743D01*
X200446839Y-128968258D01*
X199933197Y-129180490D01*
X199539871Y-129573130D01*
X199453551Y-129781012D01*
X199368510Y-129575197D01*
X198975870Y-129181871D01*
X198462600Y-128968743D01*
X197906839Y-128968258D01*
X197393197Y-129180490D01*
X196999871Y-129573130D01*
X196786743Y-130086400D01*
X196786258Y-130642161D01*
X196264600Y-130642161D01*
X196264600Y-83658387D01*
X197464315Y-83658387D01*
X197784593Y-84433519D01*
X198377121Y-85027083D01*
X199151693Y-85348713D01*
X199990387Y-85349445D01*
X200765519Y-85029167D01*
X201359083Y-84436639D01*
X201680713Y-83662067D01*
X201680716Y-83658387D01*
X238043355Y-83658387D01*
X238363633Y-84433519D01*
X238956161Y-85027083D01*
X239730733Y-85348713D01*
X240569427Y-85349445D01*
X241344559Y-85029167D01*
X241938123Y-84436639D01*
X242259753Y-83662067D01*
X242260485Y-82823373D01*
X241940207Y-82048241D01*
X241347679Y-81454677D01*
X240573107Y-81133047D01*
X239734413Y-81132315D01*
X238959281Y-81452593D01*
X238365717Y-82045121D01*
X238044087Y-82819693D01*
X238043355Y-83658387D01*
X201680716Y-83658387D01*
X201681445Y-82823373D01*
X201361167Y-82048241D01*
X200768639Y-81454677D01*
X199994067Y-81133047D01*
X199155373Y-81132315D01*
X198380241Y-81452593D01*
X197786677Y-82045121D01*
X197465047Y-82819693D01*
X197464315Y-83658387D01*
X196264600Y-83658387D01*
X196264600Y-83303191D01*
X196528699Y-81975474D01*
X197241176Y-80909176D01*
X198307476Y-80196699D01*
X199635191Y-79932600D01*
X240089609Y-79932600D01*
X241417326Y-80196699D01*
X241417326Y-80196699D01*
G37*
X241417326Y-80196699D02*
X242483624Y-80909176D01*
X243196101Y-81975476D01*
X243460200Y-83303191D01*
X243460200Y-141956640D01*
X243193561Y-143297124D01*
X242481084Y-144363424D01*
X241414786Y-145075901D01*
X240087069Y-145340000D01*
X199635191Y-145340000D01*
X198307476Y-145075901D01*
X197241176Y-144363424D01*
X196528699Y-143297126D01*
X196360042Y-142449227D01*
X197464315Y-142449227D01*
X197784593Y-143224359D01*
X198377121Y-143817923D01*
X199151693Y-144139553D01*
X199990387Y-144140285D01*
X200765519Y-143820007D01*
X201359083Y-143227479D01*
X201680713Y-142452907D01*
X201681211Y-141881873D01*
X209856591Y-141881873D01*
X210215123Y-142749586D01*
X210878422Y-143414044D01*
X211745508Y-143774089D01*
X212684373Y-143774909D01*
X213552086Y-143416377D01*
X214216544Y-142753078D01*
X214576589Y-141885992D01*
X214576592Y-141881873D01*
X220016591Y-141881873D01*
X220375123Y-142749586D01*
X221038422Y-143414044D01*
X221905508Y-143774089D01*
X222844373Y-143774909D01*
X223712086Y-143416377D01*
X224376544Y-142753078D01*
X224408634Y-142675797D01*
X224439123Y-142749586D01*
X225102422Y-143414044D01*
X225969508Y-143774089D01*
X226908373Y-143774909D01*
X227776086Y-143416377D01*
X228440544Y-142753078D01*
X228800589Y-141885992D01*
X228800592Y-141881873D01*
X231700591Y-141881873D01*
X232059123Y-142749586D01*
X232722422Y-143414044D01*
X233589508Y-143774089D01*
X234528373Y-143774909D01*
X235396086Y-143416377D01*
X236060544Y-142753078D01*
X236186713Y-142449227D01*
X238043355Y-142449227D01*
X238363633Y-143224359D01*
X238956161Y-143817923D01*
X239730733Y-144139553D01*
X240569427Y-144140285D01*
X241344559Y-143820007D01*
X241938123Y-143227479D01*
X242259753Y-142452907D01*
X242260485Y-141614213D01*
X241940207Y-140839081D01*
X241347679Y-140245517D01*
X240573107Y-139923887D01*
X239734413Y-139923155D01*
X238959281Y-140243433D01*
X238365717Y-140835961D01*
X238044087Y-141610533D01*
X238043355Y-142449227D01*
X236186713Y-142449227D01*
X236420589Y-141885992D01*
X236421409Y-140947127D01*
X236062877Y-140079414D01*
X235399578Y-139414956D01*
X234532492Y-139054911D01*
X233593627Y-139054091D01*
X232725914Y-139412623D01*
X232061456Y-140075922D01*
X231701411Y-140943008D01*
X231700591Y-141881873D01*
X228800592Y-141881873D01*
X228801409Y-140947127D01*
X228442877Y-140079414D01*
X227779578Y-139414956D01*
X226912492Y-139054911D01*
X225973627Y-139054091D01*
X225105914Y-139412623D01*
X224441456Y-140075922D01*
X224409366Y-140153203D01*
X224378877Y-140079414D01*
X223715578Y-139414956D01*
X222848492Y-139054911D01*
X221909627Y-139054091D01*
X221041914Y-139412623D01*
X220377456Y-140075922D01*
X220017411Y-140943008D01*
X220016591Y-141881873D01*
X214576592Y-141881873D01*
X214577409Y-140947127D01*
X214218877Y-140079414D01*
X213555578Y-139414956D01*
X212688492Y-139054911D01*
X211749627Y-139054091D01*
X210881914Y-139412623D01*
X210217456Y-140075922D01*
X209857411Y-140943008D01*
X209856591Y-141881873D01*
X201681211Y-141881873D01*
X201681445Y-141614213D01*
X201361167Y-140839081D01*
X200768639Y-140245517D01*
X199994067Y-139923887D01*
X199155373Y-139923155D01*
X198380241Y-140243433D01*
X197786677Y-140835961D01*
X197465047Y-141610533D01*
X197464315Y-142449227D01*
X196360042Y-142449227D01*
X196264600Y-141969409D01*
X196264600Y-130642161D01*
X196786258Y-130642161D01*
X196998490Y-131155803D01*
X197391130Y-131549129D01*
X197904400Y-131762257D01*
X198460161Y-131762742D01*
X198973803Y-131550510D01*
X199367129Y-131157870D01*
X199453449Y-130949988D01*
X199538490Y-131155803D01*
X199900227Y-131518172D01*
X199949104Y-131763896D01*
X200130803Y-132035827D01*
X204260173Y-136165197D01*
X204532104Y-136346896D01*
X204852870Y-136410700D01*
X219773500Y-136410700D01*
X220094266Y-136346896D01*
X220366197Y-136165197D01*
X221699697Y-134831697D01*
X221881396Y-134559765D01*
X221945200Y-134239000D01*
X221945200Y-133915697D01*
X222290629Y-133570870D01*
X222503757Y-133057600D01*
X222503759Y-133055161D01*
X228853758Y-133055161D01*
X229065990Y-133568803D01*
X229458630Y-133962129D01*
X229971900Y-134175257D01*
X230527661Y-134175742D01*
X231041303Y-133963510D01*
X231434629Y-133570870D01*
X231520949Y-133362988D01*
X231605990Y-133568803D01*
X231998630Y-133962129D01*
X232511900Y-134175257D01*
X233067661Y-134175742D01*
X233581303Y-133963510D01*
X233974629Y-133570870D01*
X234187757Y-133057600D01*
X234188242Y-132501839D01*
X233976010Y-131988197D01*
X233629200Y-131640781D01*
X233629200Y-124005983D01*
X233828490Y-124488303D01*
X234221130Y-124881629D01*
X234734400Y-125094757D01*
X235290161Y-125095242D01*
X235803803Y-124883010D01*
X236197129Y-124490370D01*
X236410257Y-123977100D01*
X236410742Y-123421339D01*
X236198510Y-122907697D01*
X235805870Y-122514371D01*
X235597988Y-122428051D01*
X235803803Y-122343010D01*
X236197129Y-121950370D01*
X236410257Y-121437100D01*
X236410742Y-120881339D01*
X236198510Y-120367697D01*
X235805870Y-119974371D01*
X235597988Y-119888051D01*
X235803803Y-119803010D01*
X236197129Y-119410370D01*
X236410257Y-118897100D01*
X236410742Y-118341339D01*
X236198510Y-117827697D01*
X235805870Y-117434371D01*
X235597988Y-117348051D01*
X235803803Y-117263010D01*
X236197129Y-116870370D01*
X236410257Y-116357100D01*
X236410742Y-115801339D01*
X236198510Y-115287697D01*
X235805870Y-114894371D01*
X235597988Y-114808051D01*
X235803803Y-114723010D01*
X236197129Y-114330370D01*
X236410257Y-113817100D01*
X236410742Y-113261339D01*
X236198510Y-112747697D01*
X235805870Y-112354371D01*
X235597988Y-112268051D01*
X235803803Y-112183010D01*
X236197129Y-111790370D01*
X236410257Y-111277100D01*
X236410742Y-110721339D01*
X236198510Y-110207697D01*
X235805870Y-109814371D01*
X235597988Y-109728051D01*
X235803803Y-109643010D01*
X236197129Y-109250370D01*
X236410257Y-108737100D01*
X236410742Y-108181339D01*
X236198510Y-107667697D01*
X235805870Y-107274371D01*
X235597988Y-107188051D01*
X235803803Y-107103010D01*
X236197129Y-106710370D01*
X236410257Y-106197100D01*
X236410742Y-105641339D01*
X236198510Y-105127697D01*
X235805870Y-104734371D01*
X235292600Y-104521243D01*
X234736839Y-104520758D01*
X234223197Y-104732990D01*
X233829871Y-105125630D01*
X233616743Y-105638900D01*
X233616258Y-106194661D01*
X233828490Y-106708303D01*
X234221130Y-107101629D01*
X234429012Y-107187949D01*
X234223197Y-107272990D01*
X233829871Y-107665630D01*
X233616743Y-108178900D01*
X233616258Y-108734661D01*
X233828490Y-109248303D01*
X234221130Y-109641629D01*
X234429012Y-109727949D01*
X234223197Y-109812990D01*
X233829871Y-110205630D01*
X233616743Y-110718900D01*
X233616258Y-111274661D01*
X233828490Y-111788303D01*
X234221130Y-112181629D01*
X234429012Y-112267949D01*
X234223197Y-112352990D01*
X233875781Y-112699800D01*
X233299000Y-112699800D01*
X232978235Y-112763604D01*
X232978233Y-112763605D01*
X232978234Y-112763605D01*
X232706303Y-112945303D01*
X232198303Y-113453303D01*
X232016604Y-113725234D01*
X232016604Y-113725235D01*
X231952800Y-114046000D01*
X231952800Y-131641303D01*
X231607371Y-131986130D01*
X231521051Y-132194012D01*
X231436010Y-131988197D01*
X231043370Y-131594871D01*
X230530100Y-131381743D01*
X229974339Y-131381258D01*
X229460697Y-131593490D01*
X229067371Y-131986130D01*
X228854243Y-132499400D01*
X228853758Y-133055161D01*
X222503759Y-133055161D01*
X222504242Y-132501839D01*
X222292010Y-131988197D01*
X221945200Y-131640781D01*
X221945200Y-119126000D01*
X221881396Y-118805235D01*
X221699697Y-118533303D01*
X221488348Y-118321954D01*
X221392117Y-118089057D01*
X221129327Y-117825808D01*
X220785799Y-117683162D01*
X220413833Y-117682838D01*
X220070057Y-117824883D01*
X219806808Y-118087673D01*
X219664162Y-118431201D01*
X219663838Y-118803167D01*
X219805883Y-119146943D01*
X220068673Y-119410192D01*
X220268800Y-119493292D01*
X220268800Y-131641303D01*
X219923371Y-131986130D01*
X219837051Y-132194012D01*
X219752010Y-131988197D01*
X219405200Y-131640781D01*
X219405200Y-116459000D01*
X219366571Y-116264799D01*
X219341396Y-116138234D01*
X219159697Y-115866303D01*
X219075348Y-115781954D01*
X218979117Y-115549057D01*
X218716327Y-115285808D01*
X218372799Y-115143162D01*
X218000833Y-115142838D01*
X217657057Y-115284883D01*
X217393808Y-115547673D01*
X217251162Y-115891201D01*
X217250838Y-116263167D01*
X217392883Y-116606943D01*
X217655673Y-116870192D01*
X217728800Y-116900557D01*
X217728800Y-131641303D01*
X217383371Y-131986130D01*
X217297051Y-132194012D01*
X217212010Y-131988197D01*
X216865200Y-131640781D01*
X216865200Y-106337528D01*
X216961838Y-106104799D01*
X216962162Y-105732833D01*
X216820117Y-105389057D01*
X216557327Y-105125808D01*
X216213799Y-104983162D01*
X215841833Y-104982838D01*
X215498057Y-105124883D01*
X215234808Y-105387673D01*
X215092162Y-105731201D01*
X215091838Y-106103167D01*
X215188800Y-106337834D01*
X215188800Y-131641303D01*
X214843371Y-131986130D01*
X214630243Y-132499400D01*
X214629758Y-133055161D01*
X214772573Y-133400800D01*
X206406564Y-133400800D01*
X204305258Y-131299494D01*
X204447129Y-131157870D01*
X204533449Y-130949988D01*
X204618490Y-131155803D01*
X205011130Y-131549129D01*
X205524400Y-131762257D01*
X206080161Y-131762742D01*
X206593803Y-131550510D01*
X206987129Y-131157870D01*
X207073449Y-130949988D01*
X207158490Y-131155803D01*
X207551130Y-131549129D01*
X208064400Y-131762257D01*
X208620161Y-131762742D01*
X209133803Y-131550510D01*
X209527129Y-131157870D01*
X209740257Y-130644600D01*
X209740742Y-130088839D01*
X209528510Y-129575197D01*
X209181700Y-129227781D01*
X209181700Y-128962697D01*
X209527129Y-128617870D01*
X209740257Y-128104600D01*
X209740742Y-127548839D01*
X209528510Y-127035197D01*
X209181700Y-126687781D01*
X209181700Y-126422697D01*
X209527129Y-126077870D01*
X209740257Y-125564600D01*
X209740742Y-125008839D01*
X209528510Y-124495197D01*
X209135870Y-124101871D01*
X208927988Y-124015551D01*
X209133803Y-123930510D01*
X209527129Y-123537870D01*
X209740257Y-123024600D01*
X209740742Y-122468839D01*
X209528510Y-121955197D01*
X209181700Y-121607781D01*
X209181700Y-121342697D01*
X209527129Y-120997870D01*
X209740257Y-120484600D01*
X209740742Y-119928839D01*
X209528510Y-119415197D01*
X209135870Y-119021871D01*
X208622600Y-118808743D01*
X208066839Y-118808258D01*
X207553197Y-119020490D01*
X207159871Y-119413130D01*
X207073551Y-119621012D01*
X206988510Y-119415197D01*
X206595870Y-119021871D01*
X206082600Y-118808743D01*
X205526839Y-118808258D01*
X205013197Y-119020490D01*
X204619871Y-119413130D01*
X204533551Y-119621012D01*
X204448510Y-119415197D01*
X204055870Y-119021871D01*
X203542600Y-118808743D01*
X202986839Y-118808258D01*
X202473197Y-119020490D01*
X202079871Y-119413130D01*
X201993551Y-119621012D01*
X201908510Y-119415197D01*
X201561700Y-119067781D01*
X201561700Y-111274661D01*
X210756258Y-111274661D01*
X210968490Y-111788303D01*
X211361130Y-112181629D01*
X211569012Y-112267949D01*
X211363197Y-112352990D01*
X210969871Y-112745630D01*
X210756743Y-113258900D01*
X210756258Y-113814661D01*
X210968490Y-114328303D01*
X211361130Y-114721629D01*
X211569012Y-114807949D01*
X211363197Y-114892990D01*
X210969871Y-115285630D01*
X210756743Y-115798900D01*
X210756258Y-116354661D01*
X210968490Y-116868303D01*
X211361130Y-117261629D01*
X211569012Y-117347949D01*
X211363197Y-117432990D01*
X210969871Y-117825630D01*
X210756743Y-118338900D01*
X210756258Y-118894661D01*
X210968490Y-119408303D01*
X211361130Y-119801629D01*
X211569012Y-119887949D01*
X211363197Y-119972990D01*
X210969871Y-120365630D01*
X210756743Y-120878900D01*
X210756258Y-121434661D01*
X210968490Y-121948303D01*
X211361130Y-122341629D01*
X211569012Y-122427949D01*
X211363197Y-122512990D01*
X210969871Y-122905630D01*
X210756743Y-123418900D01*
X210756258Y-123974661D01*
X210968490Y-124488303D01*
X211361130Y-124881629D01*
X211874400Y-125094757D01*
X212430161Y-125095242D01*
X212943803Y-124883010D01*
X213337129Y-124490370D01*
X213550257Y-123977100D01*
X213550742Y-123421339D01*
X213338510Y-122907697D01*
X212945870Y-122514371D01*
X212737988Y-122428051D01*
X212943803Y-122343010D01*
X213337129Y-121950370D01*
X213550257Y-121437100D01*
X213550742Y-120881339D01*
X213338510Y-120367697D01*
X212945870Y-119974371D01*
X212737988Y-119888051D01*
X212943803Y-119803010D01*
X213337129Y-119410370D01*
X213550257Y-118897100D01*
X213550742Y-118341339D01*
X213338510Y-117827697D01*
X212945870Y-117434371D01*
X212737988Y-117348051D01*
X212943803Y-117263010D01*
X213337129Y-116870370D01*
X213550257Y-116357100D01*
X213550742Y-115801339D01*
X213338510Y-115287697D01*
X212945870Y-114894371D01*
X212737988Y-114808051D01*
X212943803Y-114723010D01*
X213337129Y-114330370D01*
X213550257Y-113817100D01*
X213550742Y-113261339D01*
X213338510Y-112747697D01*
X212945870Y-112354371D01*
X212737988Y-112268051D01*
X212943803Y-112183010D01*
X213337129Y-111790370D01*
X213550257Y-111277100D01*
X213550742Y-110721339D01*
X213338510Y-110207697D01*
X212945870Y-109814371D01*
X212432600Y-109601243D01*
X211876839Y-109600758D01*
X211363197Y-109812990D01*
X210969871Y-110205630D01*
X210756743Y-110718900D01*
X210756258Y-111274661D01*
X201561700Y-111274661D01*
X201561700Y-106194661D01*
X210756258Y-106194661D01*
X210968490Y-106708303D01*
X211361130Y-107101629D01*
X211874400Y-107314757D01*
X212430161Y-107315242D01*
X212943803Y-107103010D01*
X213337129Y-106710370D01*
X213550257Y-106197100D01*
X213550742Y-105641339D01*
X213338510Y-105127697D01*
X212945870Y-104734371D01*
X212432600Y-104521243D01*
X211876839Y-104520758D01*
X211363197Y-104732990D01*
X210969871Y-105125630D01*
X210756743Y-105638900D01*
X210756258Y-106194661D01*
X201561700Y-106194661D01*
X201561700Y-104550694D01*
X201705694Y-104406700D01*
X205676500Y-104406700D01*
X205997266Y-104342896D01*
X206269197Y-104161197D01*
X207179578Y-103250816D01*
X207667661Y-103251242D01*
X208181303Y-103039010D01*
X208574629Y-102646370D01*
X208787757Y-102133100D01*
X208788242Y-101577339D01*
X208576010Y-101063697D01*
X208183370Y-100670371D01*
X207670100Y-100457243D01*
X207114339Y-100456758D01*
X206600697Y-100668990D01*
X206207371Y-101061630D01*
X205994243Y-101574900D01*
X205993815Y-102065791D01*
X205329306Y-102730300D01*
X203410552Y-102730300D01*
X203494629Y-102646370D01*
X203707757Y-102133100D01*
X203708242Y-101577339D01*
X203496010Y-101063697D01*
X203149200Y-100716281D01*
X203149200Y-97565694D01*
X204245694Y-96469200D01*
X220557982Y-96469200D01*
X220953796Y-97427143D01*
X221846159Y-98321065D01*
X223012683Y-98805448D01*
X224275776Y-98806550D01*
X225443143Y-98324204D01*
X226337065Y-97431841D01*
X226821448Y-96265317D01*
X226822550Y-95002224D01*
X226340204Y-93834857D01*
X225447841Y-92940935D01*
X224281317Y-92456552D01*
X223018224Y-92455450D01*
X221850857Y-92937796D01*
X220956935Y-93830159D01*
X220557212Y-94792800D01*
X203898500Y-94792800D01*
X203577734Y-94856604D01*
X203305803Y-95038303D01*
X201718303Y-96625803D01*
X201536604Y-96897734D01*
X201536604Y-96897735D01*
X201472800Y-97218500D01*
X201472800Y-100716803D01*
X201127371Y-101061630D01*
X200914243Y-101574900D01*
X200913758Y-102130661D01*
X201125990Y-102644303D01*
X201236135Y-102754640D01*
X201037735Y-102794104D01*
X200765803Y-102975803D01*
X200130803Y-103610803D01*
X199949104Y-103882734D01*
X199949104Y-103882735D01*
X199885300Y-104203500D01*
X199885300Y-119068303D01*
X199539871Y-119413130D01*
X199326743Y-119926400D01*
X199326258Y-120482161D01*
X199538490Y-120995803D01*
X199931130Y-121389129D01*
X200444400Y-121602257D01*
X201000161Y-121602742D01*
X201513803Y-121390510D01*
X201907129Y-120997870D01*
X201993449Y-120789988D01*
X202078490Y-120995803D01*
X202471130Y-121389129D01*
X202984400Y-121602257D01*
X203540161Y-121602742D01*
X204053803Y-121390510D01*
X204447129Y-120997870D01*
X204533449Y-120789988D01*
X204618490Y-120995803D01*
X205011130Y-121389129D01*
X205524400Y-121602257D01*
X206080161Y-121602742D01*
X206593803Y-121390510D01*
X206987129Y-120997870D01*
X207073449Y-120789988D01*
X207158490Y-120995803D01*
X207505300Y-121343219D01*
X207505300Y-121608303D01*
X207159871Y-121953130D01*
X206946743Y-122466400D01*
X206946258Y-123022161D01*
X207158490Y-123535803D01*
X207551130Y-123929129D01*
X207759012Y-124015449D01*
X207553197Y-124100490D01*
X207159871Y-124493130D01*
X206946743Y-125006400D01*
X206946258Y-125562161D01*
X207158490Y-126075803D01*
X207505300Y-126423219D01*
X207505300Y-126688303D01*
X207159871Y-127033130D01*
X206946743Y-127546400D01*
X206946258Y-128102161D01*
X207158490Y-128615803D01*
X207505300Y-128963219D01*
X207505300Y-129228303D01*
X207159871Y-129573130D01*
X207073551Y-129781012D01*
X206988510Y-129575197D01*
X206595870Y-129181871D01*
X206082600Y-128968743D01*
X205526839Y-128968258D01*
X205013197Y-129180490D01*
X204619871Y-129573130D01*
X204533551Y-129781012D01*
X204448510Y-129575197D01*
X204055870Y-129181871D01*
X203542600Y-128968743D01*
X202986839Y-128968258D01*
X202473197Y-129180490D01*
X202079871Y-129573130D01*
X201993551Y-129781012D01*
X201908510Y-129575197D01*
X201515870Y-129181871D01*
X201002600Y-128968743D01*
X200446839Y-128968258D01*
X199933197Y-129180490D01*
X199539871Y-129573130D01*
X199453551Y-129781012D01*
X199368510Y-129575197D01*
X198975870Y-129181871D01*
X198462600Y-128968743D01*
X197906839Y-128968258D01*
X197393197Y-129180490D01*
X196999871Y-129573130D01*
X196786743Y-130086400D01*
X196786258Y-130642161D01*
X196264600Y-130642161D01*
X196264600Y-83658387D01*
X197464315Y-83658387D01*
X197784593Y-84433519D01*
X198377121Y-85027083D01*
X199151693Y-85348713D01*
X199990387Y-85349445D01*
X200765519Y-85029167D01*
X201359083Y-84436639D01*
X201680713Y-83662067D01*
X201680716Y-83658387D01*
X238043355Y-83658387D01*
X238363633Y-84433519D01*
X238956161Y-85027083D01*
X239730733Y-85348713D01*
X240569427Y-85349445D01*
X241344559Y-85029167D01*
X241938123Y-84436639D01*
X242259753Y-83662067D01*
X242260485Y-82823373D01*
X241940207Y-82048241D01*
X241347679Y-81454677D01*
X240573107Y-81133047D01*
X239734413Y-81132315D01*
X238959281Y-81452593D01*
X238365717Y-82045121D01*
X238044087Y-82819693D01*
X238043355Y-83658387D01*
X201680716Y-83658387D01*
X201681445Y-82823373D01*
X201361167Y-82048241D01*
X200768639Y-81454677D01*
X199994067Y-81133047D01*
X199155373Y-81132315D01*
X198380241Y-81452593D01*
X197786677Y-82045121D01*
X197465047Y-82819693D01*
X197464315Y-83658387D01*
X196264600Y-83658387D01*
X196264600Y-83303191D01*
X196528699Y-81975474D01*
X197241176Y-80909176D01*
X198307476Y-80196699D01*
X199635191Y-79932600D01*
X240089609Y-79932600D01*
X241417326Y-80196699D01*
M02*
