M48
;DRILL file {KiCad 4.0.7} date 04/29/18 15:58:19
;FORMAT={-:-/ absolute / inch / decimal}
FMAT,2
INCH,TZ
T1C0.016
T2C0.030
T3C0.035
T4C0.039
T5C0.160
%
G90
G05
M72
T1
X8.505Y-4.17
X8.59Y-4.57
X8.685Y-4.67
T2
X7.8025Y-4.7325
X8.3525Y-4.17
X8.3525Y-4.27
X8.3525Y-4.37
X8.3525Y-4.47
X8.3525Y-4.57
X8.3525Y-4.67
X8.3525Y-4.77
X8.3525Y-4.87
X8.405Y-5.2275
X8.505Y-5.2275
X8.605Y-5.2275
X8.705Y-5.2275
X8.965Y-5.2275
X9.065Y-5.2275
X9.165Y-5.2275
X9.2525Y-4.17
X9.2525Y-4.27
X9.2525Y-4.37
X9.2525Y-4.47
X9.2525Y-4.57
X9.2525Y-4.67
X9.2525Y-4.77
X9.2525Y-4.87
T3
X7.965Y-4.01
X8.065Y-4.01
X8.165Y-4.01
T4
X7.8025Y-5.1325
X7.9025Y-4.7325
X7.9025Y-5.1325
X8.0025Y-4.7325
X8.0025Y-5.1325
X8.1025Y-4.7325
X8.1025Y-5.1325
X8.2025Y-4.7325
X8.2025Y-4.8325
X8.2025Y-4.9325
X8.2025Y-5.0325
X8.2025Y-5.1325
T5
X8.805Y-3.765
X9.12Y-3.765
T0
M30
