G04 #@! TF.FileFunction,Legend,Bot*
%FSLAX46Y46*%
G04 Gerber Fmt 4.6, Leading zero omitted, Abs format (unit mm)*
G04 Created by KiCad (PCBNEW 4.0.7) date 04/29/18 15:58:17*
%MOMM*%
%LPD*%
G01*
G04 APERTURE LIST*
%ADD10C,0.100000*%
%ADD11C,0.300000*%
%ADD12C,0.010000*%
G04 APERTURE END LIST*
D10*
D11*
X233068857Y-81562571D02*
X233068857Y-80062571D01*
X232568857Y-81134000D01*
X232068857Y-80062571D01*
X232068857Y-81562571D01*
X230711714Y-81562571D02*
X230711714Y-80776857D01*
X230783143Y-80634000D01*
X230926000Y-80562571D01*
X231211714Y-80562571D01*
X231354571Y-80634000D01*
X230711714Y-81491143D02*
X230854571Y-81562571D01*
X231211714Y-81562571D01*
X231354571Y-81491143D01*
X231426000Y-81348286D01*
X231426000Y-81205429D01*
X231354571Y-81062571D01*
X231211714Y-80991143D01*
X230854571Y-80991143D01*
X230711714Y-80919714D01*
X230068857Y-81491143D02*
X229926000Y-81562571D01*
X229640285Y-81562571D01*
X229497428Y-81491143D01*
X229426000Y-81348286D01*
X229426000Y-81276857D01*
X229497428Y-81134000D01*
X229640285Y-81062571D01*
X229854571Y-81062571D01*
X229997428Y-80991143D01*
X230068857Y-80848286D01*
X230068857Y-80776857D01*
X229997428Y-80634000D01*
X229854571Y-80562571D01*
X229640285Y-80562571D01*
X229497428Y-80634000D01*
X228997428Y-80562571D02*
X228425999Y-80562571D01*
X228783142Y-80062571D02*
X228783142Y-81348286D01*
X228711714Y-81491143D01*
X228568856Y-81562571D01*
X228425999Y-81562571D01*
X227925999Y-81562571D02*
X227925999Y-80062571D01*
X227925999Y-80634000D02*
X227783142Y-80562571D01*
X227497428Y-80562571D01*
X227354571Y-80634000D01*
X227283142Y-80705429D01*
X227211713Y-80848286D01*
X227211713Y-81276857D01*
X227283142Y-81419714D01*
X227354571Y-81491143D01*
X227497428Y-81562571D01*
X227783142Y-81562571D01*
X227925999Y-81491143D01*
X226354570Y-81562571D02*
X226497428Y-81491143D01*
X226568856Y-81419714D01*
X226640285Y-81276857D01*
X226640285Y-80848286D01*
X226568856Y-80705429D01*
X226497428Y-80634000D01*
X226354570Y-80562571D01*
X226140285Y-80562571D01*
X225997428Y-80634000D01*
X225925999Y-80705429D01*
X225854570Y-80848286D01*
X225854570Y-81276857D01*
X225925999Y-81419714D01*
X225997428Y-81491143D01*
X226140285Y-81562571D01*
X226354570Y-81562571D01*
X224568856Y-81562571D02*
X224568856Y-80776857D01*
X224640285Y-80634000D01*
X224783142Y-80562571D01*
X225068856Y-80562571D01*
X225211713Y-80634000D01*
X224568856Y-81491143D02*
X224711713Y-81562571D01*
X225068856Y-81562571D01*
X225211713Y-81491143D01*
X225283142Y-81348286D01*
X225283142Y-81205429D01*
X225211713Y-81062571D01*
X225068856Y-80991143D01*
X224711713Y-80991143D01*
X224568856Y-80919714D01*
X223854570Y-81562571D02*
X223854570Y-80562571D01*
X223854570Y-80848286D02*
X223783142Y-80705429D01*
X223711713Y-80634000D01*
X223568856Y-80562571D01*
X223425999Y-80562571D01*
X222283142Y-81562571D02*
X222283142Y-80062571D01*
X222283142Y-81491143D02*
X222425999Y-81562571D01*
X222711713Y-81562571D01*
X222854571Y-81491143D01*
X222925999Y-81419714D01*
X222997428Y-81276857D01*
X222997428Y-80848286D01*
X222925999Y-80705429D01*
X222854571Y-80634000D01*
X222711713Y-80562571D01*
X222425999Y-80562571D01*
X222283142Y-80634000D01*
X219568856Y-81562571D02*
X220068856Y-80848286D01*
X220425999Y-81562571D02*
X220425999Y-80062571D01*
X219854571Y-80062571D01*
X219711713Y-80134000D01*
X219640285Y-80205429D01*
X219568856Y-80348286D01*
X219568856Y-80562571D01*
X219640285Y-80705429D01*
X219711713Y-80776857D01*
X219854571Y-80848286D01*
X220425999Y-80848286D01*
X218354571Y-81491143D02*
X218497428Y-81562571D01*
X218783142Y-81562571D01*
X218925999Y-81491143D01*
X218997428Y-81348286D01*
X218997428Y-80776857D01*
X218925999Y-80634000D01*
X218783142Y-80562571D01*
X218497428Y-80562571D01*
X218354571Y-80634000D01*
X218283142Y-80776857D01*
X218283142Y-80919714D01*
X218997428Y-81062571D01*
X217783142Y-80562571D02*
X217425999Y-81562571D01*
X217068857Y-80562571D01*
X215497428Y-80062571D02*
X214568857Y-80062571D01*
X215068857Y-80634000D01*
X214854571Y-80634000D01*
X214711714Y-80705429D01*
X214640285Y-80776857D01*
X214568857Y-80919714D01*
X214568857Y-81276857D01*
X214640285Y-81419714D01*
X214711714Y-81491143D01*
X214854571Y-81562571D01*
X215283143Y-81562571D01*
X215426000Y-81491143D01*
X215497428Y-81419714D01*
X233068857Y-84112571D02*
X233068857Y-82612571D01*
X232568857Y-83684000D01*
X232068857Y-82612571D01*
X232068857Y-84112571D01*
X230711714Y-84112571D02*
X230711714Y-83326857D01*
X230783143Y-83184000D01*
X230926000Y-83112571D01*
X231211714Y-83112571D01*
X231354571Y-83184000D01*
X230711714Y-84041143D02*
X230854571Y-84112571D01*
X231211714Y-84112571D01*
X231354571Y-84041143D01*
X231426000Y-83898286D01*
X231426000Y-83755429D01*
X231354571Y-83612571D01*
X231211714Y-83541143D01*
X230854571Y-83541143D01*
X230711714Y-83469714D01*
X229997428Y-84112571D02*
X229997428Y-83112571D01*
X229997428Y-83398286D02*
X229926000Y-83255429D01*
X229854571Y-83184000D01*
X229711714Y-83112571D01*
X229568857Y-83112571D01*
X227068857Y-84112571D02*
X227568857Y-83398286D01*
X227926000Y-84112571D02*
X227926000Y-82612571D01*
X227354572Y-82612571D01*
X227211714Y-82684000D01*
X227140286Y-82755429D01*
X227068857Y-82898286D01*
X227068857Y-83112571D01*
X227140286Y-83255429D01*
X227211714Y-83326857D01*
X227354572Y-83398286D01*
X227926000Y-83398286D01*
X226211714Y-84112571D02*
X226354572Y-84041143D01*
X226426000Y-83969714D01*
X226497429Y-83826857D01*
X226497429Y-83398286D01*
X226426000Y-83255429D01*
X226354572Y-83184000D01*
X226211714Y-83112571D01*
X225997429Y-83112571D01*
X225854572Y-83184000D01*
X225783143Y-83255429D01*
X225711714Y-83398286D01*
X225711714Y-83826857D01*
X225783143Y-83969714D01*
X225854572Y-84041143D01*
X225997429Y-84112571D01*
X226211714Y-84112571D01*
X225211714Y-83112571D02*
X224854571Y-84112571D01*
X224497429Y-83112571D01*
X223354572Y-84041143D02*
X223497429Y-84112571D01*
X223783143Y-84112571D01*
X223926000Y-84041143D01*
X223997429Y-83898286D01*
X223997429Y-83326857D01*
X223926000Y-83184000D01*
X223783143Y-83112571D01*
X223497429Y-83112571D01*
X223354572Y-83184000D01*
X223283143Y-83326857D01*
X223283143Y-83469714D01*
X223997429Y-83612571D01*
X222640286Y-84112571D02*
X222640286Y-83112571D01*
X222640286Y-83398286D02*
X222568858Y-83255429D01*
X222497429Y-83184000D01*
X222354572Y-83112571D01*
X222211715Y-83112571D01*
X220640287Y-82755429D02*
X220568858Y-82684000D01*
X220426001Y-82612571D01*
X220068858Y-82612571D01*
X219926001Y-82684000D01*
X219854572Y-82755429D01*
X219783144Y-82898286D01*
X219783144Y-83041143D01*
X219854572Y-83255429D01*
X220711715Y-84112571D01*
X219783144Y-84112571D01*
X218854573Y-82612571D02*
X218711716Y-82612571D01*
X218568859Y-82684000D01*
X218497430Y-82755429D01*
X218426001Y-82898286D01*
X218354573Y-83184000D01*
X218354573Y-83541143D01*
X218426001Y-83826857D01*
X218497430Y-83969714D01*
X218568859Y-84041143D01*
X218711716Y-84112571D01*
X218854573Y-84112571D01*
X218997430Y-84041143D01*
X219068859Y-83969714D01*
X219140287Y-83826857D01*
X219211716Y-83541143D01*
X219211716Y-83184000D01*
X219140287Y-82898286D01*
X219068859Y-82755429D01*
X218997430Y-82684000D01*
X218854573Y-82612571D01*
X216926002Y-84112571D02*
X217783145Y-84112571D01*
X217354573Y-84112571D02*
X217354573Y-82612571D01*
X217497430Y-82826857D01*
X217640288Y-82969714D01*
X217783145Y-83041143D01*
X216068859Y-83255429D02*
X216211717Y-83184000D01*
X216283145Y-83112571D01*
X216354574Y-82969714D01*
X216354574Y-82898286D01*
X216283145Y-82755429D01*
X216211717Y-82684000D01*
X216068859Y-82612571D01*
X215783145Y-82612571D01*
X215640288Y-82684000D01*
X215568859Y-82755429D01*
X215497431Y-82898286D01*
X215497431Y-82969714D01*
X215568859Y-83112571D01*
X215640288Y-83184000D01*
X215783145Y-83255429D01*
X216068859Y-83255429D01*
X216211717Y-83326857D01*
X216283145Y-83398286D01*
X216354574Y-83541143D01*
X216354574Y-83826857D01*
X216283145Y-83969714D01*
X216211717Y-84041143D01*
X216068859Y-84112571D01*
X215783145Y-84112571D01*
X215640288Y-84041143D01*
X215568859Y-83969714D01*
X215497431Y-83826857D01*
X215497431Y-83541143D01*
X215568859Y-83398286D01*
X215640288Y-83326857D01*
X215783145Y-83255429D01*
X233068857Y-86662571D02*
X233068857Y-85162571D01*
X232568857Y-86234000D01*
X232068857Y-85162571D01*
X232068857Y-86662571D01*
X231354571Y-86662571D02*
X231354571Y-85662571D01*
X231354571Y-85162571D02*
X231426000Y-85234000D01*
X231354571Y-85305429D01*
X231283143Y-85234000D01*
X231354571Y-85162571D01*
X231354571Y-85305429D01*
X230711714Y-86591143D02*
X230568857Y-86662571D01*
X230283142Y-86662571D01*
X230140285Y-86591143D01*
X230068857Y-86448286D01*
X230068857Y-86376857D01*
X230140285Y-86234000D01*
X230283142Y-86162571D01*
X230497428Y-86162571D01*
X230640285Y-86091143D01*
X230711714Y-85948286D01*
X230711714Y-85876857D01*
X230640285Y-85734000D01*
X230497428Y-85662571D01*
X230283142Y-85662571D01*
X230140285Y-85734000D01*
X229497428Y-86591143D02*
X229354571Y-86662571D01*
X229068856Y-86662571D01*
X228925999Y-86591143D01*
X228854571Y-86448286D01*
X228854571Y-86376857D01*
X228925999Y-86234000D01*
X229068856Y-86162571D01*
X229283142Y-86162571D01*
X229425999Y-86091143D01*
X229497428Y-85948286D01*
X229497428Y-85876857D01*
X229425999Y-85734000D01*
X229283142Y-85662571D01*
X229068856Y-85662571D01*
X228925999Y-85734000D01*
X227997427Y-86662571D02*
X228140285Y-86591143D01*
X228211713Y-86519714D01*
X228283142Y-86376857D01*
X228283142Y-85948286D01*
X228211713Y-85805429D01*
X228140285Y-85734000D01*
X227997427Y-85662571D01*
X227783142Y-85662571D01*
X227640285Y-85734000D01*
X227568856Y-85805429D01*
X227497427Y-85948286D01*
X227497427Y-86376857D01*
X227568856Y-86519714D01*
X227640285Y-86591143D01*
X227783142Y-86662571D01*
X227997427Y-86662571D01*
X226211713Y-85662571D02*
X226211713Y-86662571D01*
X226854570Y-85662571D02*
X226854570Y-86448286D01*
X226783142Y-86591143D01*
X226640284Y-86662571D01*
X226425999Y-86662571D01*
X226283142Y-86591143D01*
X226211713Y-86519714D01*
X225497427Y-86662571D02*
X225497427Y-85662571D01*
X225497427Y-85948286D02*
X225425999Y-85805429D01*
X225354570Y-85734000D01*
X225211713Y-85662571D01*
X225068856Y-85662571D01*
X224568856Y-86662571D02*
X224568856Y-85662571D01*
X224568856Y-85162571D02*
X224640285Y-85234000D01*
X224568856Y-85305429D01*
X224497428Y-85234000D01*
X224568856Y-85162571D01*
X224568856Y-85305429D01*
X222783142Y-86591143D02*
X222568856Y-86662571D01*
X222211713Y-86662571D01*
X222068856Y-86591143D01*
X221997427Y-86519714D01*
X221925999Y-86376857D01*
X221925999Y-86234000D01*
X221997427Y-86091143D01*
X222068856Y-86019714D01*
X222211713Y-85948286D01*
X222497427Y-85876857D01*
X222640285Y-85805429D01*
X222711713Y-85734000D01*
X222783142Y-85591143D01*
X222783142Y-85448286D01*
X222711713Y-85305429D01*
X222640285Y-85234000D01*
X222497427Y-85162571D01*
X222140285Y-85162571D01*
X221925999Y-85234000D01*
X220068856Y-86662571D02*
X220140285Y-86662571D01*
X220283142Y-86591143D01*
X220497428Y-86376857D01*
X220854571Y-85948286D01*
X220997428Y-85734000D01*
X221068856Y-85519714D01*
X221068856Y-85376857D01*
X220997428Y-85234000D01*
X220854571Y-85162571D01*
X220783142Y-85162571D01*
X220640285Y-85234000D01*
X220568856Y-85376857D01*
X220568856Y-85448286D01*
X220640285Y-85591143D01*
X220711714Y-85662571D01*
X221140285Y-85948286D01*
X221211714Y-86019714D01*
X221283142Y-86162571D01*
X221283142Y-86376857D01*
X221211714Y-86519714D01*
X221140285Y-86591143D01*
X220997428Y-86662571D01*
X220783142Y-86662571D01*
X220640285Y-86591143D01*
X220568856Y-86519714D01*
X220354571Y-86234000D01*
X220283142Y-86019714D01*
X220283142Y-85876857D01*
X219640285Y-85162571D02*
X218783142Y-85162571D01*
X219211713Y-86662571D02*
X219211713Y-85162571D01*
X233140286Y-88784000D02*
X232426000Y-88784000D01*
X233283143Y-89212571D02*
X232783143Y-87712571D01*
X232283143Y-89212571D01*
X231783143Y-88212571D02*
X231783143Y-89212571D01*
X231783143Y-88355429D02*
X231711715Y-88284000D01*
X231568857Y-88212571D01*
X231354572Y-88212571D01*
X231211715Y-88284000D01*
X231140286Y-88426857D01*
X231140286Y-89212571D01*
X229783143Y-89212571D02*
X229783143Y-87712571D01*
X229783143Y-89141143D02*
X229926000Y-89212571D01*
X230211714Y-89212571D01*
X230354572Y-89141143D01*
X230426000Y-89069714D01*
X230497429Y-88926857D01*
X230497429Y-88498286D01*
X230426000Y-88355429D01*
X230354572Y-88284000D01*
X230211714Y-88212571D01*
X229926000Y-88212571D01*
X229783143Y-88284000D01*
X229068857Y-89212571D02*
X229068857Y-88212571D01*
X229068857Y-88498286D02*
X228997429Y-88355429D01*
X228926000Y-88284000D01*
X228783143Y-88212571D01*
X228640286Y-88212571D01*
X227568858Y-89141143D02*
X227711715Y-89212571D01*
X227997429Y-89212571D01*
X228140286Y-89141143D01*
X228211715Y-88998286D01*
X228211715Y-88426857D01*
X228140286Y-88284000D01*
X227997429Y-88212571D01*
X227711715Y-88212571D01*
X227568858Y-88284000D01*
X227497429Y-88426857D01*
X227497429Y-88569714D01*
X228211715Y-88712571D01*
X226997429Y-88212571D02*
X226711715Y-89212571D01*
X226426001Y-88498286D01*
X226140286Y-89212571D01*
X225854572Y-88212571D01*
X224354572Y-87712571D02*
X223854572Y-89212571D01*
X223354572Y-87712571D01*
X222211715Y-89212571D02*
X222211715Y-88426857D01*
X222283144Y-88284000D01*
X222426001Y-88212571D01*
X222711715Y-88212571D01*
X222854572Y-88284000D01*
X222211715Y-89141143D02*
X222354572Y-89212571D01*
X222711715Y-89212571D01*
X222854572Y-89141143D01*
X222926001Y-88998286D01*
X222926001Y-88855429D01*
X222854572Y-88712571D01*
X222711715Y-88641143D01*
X222354572Y-88641143D01*
X222211715Y-88569714D01*
X221497429Y-88212571D02*
X221497429Y-89212571D01*
X221497429Y-88355429D02*
X221426001Y-88284000D01*
X221283143Y-88212571D01*
X221068858Y-88212571D01*
X220926001Y-88284000D01*
X220854572Y-88426857D01*
X220854572Y-89212571D01*
X218997429Y-89212571D02*
X218997429Y-87712571D01*
X218997429Y-88426857D02*
X218140286Y-88426857D01*
X218140286Y-89212571D02*
X218140286Y-87712571D01*
X217211714Y-89212571D02*
X217354572Y-89141143D01*
X217426000Y-89069714D01*
X217497429Y-88926857D01*
X217497429Y-88498286D01*
X217426000Y-88355429D01*
X217354572Y-88284000D01*
X217211714Y-88212571D01*
X216997429Y-88212571D01*
X216854572Y-88284000D01*
X216783143Y-88355429D01*
X216711714Y-88498286D01*
X216711714Y-88926857D01*
X216783143Y-89069714D01*
X216854572Y-89141143D01*
X216997429Y-89212571D01*
X217211714Y-89212571D01*
X216068857Y-89212571D02*
X216068857Y-88212571D01*
X216068857Y-88498286D02*
X215997429Y-88355429D01*
X215926000Y-88284000D01*
X215783143Y-88212571D01*
X215640286Y-88212571D01*
X215140286Y-88212571D02*
X215140286Y-89212571D01*
X215140286Y-88355429D02*
X215068858Y-88284000D01*
X214926000Y-88212571D01*
X214711715Y-88212571D01*
X214568858Y-88284000D01*
X214497429Y-88426857D01*
X214497429Y-89212571D01*
X233469571Y-134290857D02*
X231969571Y-134290857D01*
X231969571Y-134862285D01*
X232041000Y-135005143D01*
X232112429Y-135076571D01*
X232255286Y-135148000D01*
X232469571Y-135148000D01*
X232612429Y-135076571D01*
X232683857Y-135005143D01*
X232755286Y-134862285D01*
X232755286Y-134290857D01*
X231969571Y-135648000D02*
X233469571Y-136005143D01*
X232398143Y-136290857D01*
X233469571Y-136576571D01*
X231969571Y-136933714D01*
X233469571Y-137505143D02*
X231969571Y-137505143D01*
X233041000Y-138005143D01*
X231969571Y-138505143D01*
X233469571Y-138505143D01*
X226961000Y-135191643D02*
X226889571Y-135048786D01*
X226889571Y-134834500D01*
X226961000Y-134620215D01*
X227103857Y-134477357D01*
X227246714Y-134405929D01*
X227532429Y-134334500D01*
X227746714Y-134334500D01*
X228032429Y-134405929D01*
X228175286Y-134477357D01*
X228318143Y-134620215D01*
X228389571Y-134834500D01*
X228389571Y-134977357D01*
X228318143Y-135191643D01*
X228246714Y-135263072D01*
X227746714Y-135263072D01*
X227746714Y-134977357D01*
X228389571Y-135905929D02*
X226889571Y-135905929D01*
X228389571Y-136763072D01*
X226889571Y-136763072D01*
X228389571Y-137477358D02*
X226889571Y-137477358D01*
X226889571Y-137834501D01*
X226961000Y-138048786D01*
X227103857Y-138191644D01*
X227246714Y-138263072D01*
X227532429Y-138334501D01*
X227746714Y-138334501D01*
X228032429Y-138263072D01*
X228175286Y-138191644D01*
X228318143Y-138048786D01*
X228389571Y-137834501D01*
X228389571Y-137477358D01*
X230358143Y-134390144D02*
X230358143Y-135533001D01*
X230929571Y-134961572D02*
X229786714Y-134961572D01*
X229429571Y-136104430D02*
X229429571Y-137033001D01*
X230001000Y-136533001D01*
X230001000Y-136747287D01*
X230072429Y-136890144D01*
X230143857Y-136961573D01*
X230286714Y-137033001D01*
X230643857Y-137033001D01*
X230786714Y-136961573D01*
X230858143Y-136890144D01*
X230929571Y-136747287D01*
X230929571Y-136318715D01*
X230858143Y-136175858D01*
X230786714Y-136104430D01*
X229429571Y-137461572D02*
X230929571Y-137961572D01*
X229429571Y-138461572D01*
X229429571Y-138818715D02*
X229429571Y-139747286D01*
X230001000Y-139247286D01*
X230001000Y-139461572D01*
X230072429Y-139604429D01*
X230143857Y-139675858D01*
X230286714Y-139747286D01*
X230643857Y-139747286D01*
X230786714Y-139675858D01*
X230858143Y-139604429D01*
X230929571Y-139461572D01*
X230929571Y-139033000D01*
X230858143Y-138890143D01*
X230786714Y-138818715D01*
X212737000Y-135128143D02*
X212665571Y-134985286D01*
X212665571Y-134771000D01*
X212737000Y-134556715D01*
X212879857Y-134413857D01*
X213022714Y-134342429D01*
X213308429Y-134271000D01*
X213522714Y-134271000D01*
X213808429Y-134342429D01*
X213951286Y-134413857D01*
X214094143Y-134556715D01*
X214165571Y-134771000D01*
X214165571Y-134913857D01*
X214094143Y-135128143D01*
X214022714Y-135199572D01*
X213522714Y-135199572D01*
X213522714Y-134913857D01*
X214165571Y-135842429D02*
X212665571Y-135842429D01*
X214165571Y-136699572D01*
X212665571Y-136699572D01*
X214165571Y-137413858D02*
X212665571Y-137413858D01*
X212665571Y-137771001D01*
X212737000Y-137985286D01*
X212879857Y-138128144D01*
X213022714Y-138199572D01*
X213308429Y-138271001D01*
X213522714Y-138271001D01*
X213808429Y-138199572D01*
X213951286Y-138128144D01*
X214094143Y-137985286D01*
X214165571Y-137771001D01*
X214165571Y-137413858D01*
X216134143Y-134390144D02*
X216134143Y-135533001D01*
X216705571Y-134961572D02*
X215562714Y-134961572D01*
X215205571Y-136104430D02*
X215205571Y-137033001D01*
X215777000Y-136533001D01*
X215777000Y-136747287D01*
X215848429Y-136890144D01*
X215919857Y-136961573D01*
X216062714Y-137033001D01*
X216419857Y-137033001D01*
X216562714Y-136961573D01*
X216634143Y-136890144D01*
X216705571Y-136747287D01*
X216705571Y-136318715D01*
X216634143Y-136175858D01*
X216562714Y-136104430D01*
X215205571Y-137461572D02*
X216705571Y-137961572D01*
X215205571Y-138461572D01*
X215205571Y-138818715D02*
X215205571Y-139747286D01*
X215777000Y-139247286D01*
X215777000Y-139461572D01*
X215848429Y-139604429D01*
X215919857Y-139675858D01*
X216062714Y-139747286D01*
X216419857Y-139747286D01*
X216562714Y-139675858D01*
X216634143Y-139604429D01*
X216705571Y-139461572D01*
X216705571Y-139033000D01*
X216634143Y-138890143D01*
X216562714Y-138818715D01*
X219174143Y-134513072D02*
X219245571Y-134727358D01*
X219245571Y-135084501D01*
X219174143Y-135227358D01*
X219102714Y-135298787D01*
X218959857Y-135370215D01*
X218817000Y-135370215D01*
X218674143Y-135298787D01*
X218602714Y-135227358D01*
X218531286Y-135084501D01*
X218459857Y-134798787D01*
X218388429Y-134655929D01*
X218317000Y-134584501D01*
X218174143Y-134513072D01*
X218031286Y-134513072D01*
X217888429Y-134584501D01*
X217817000Y-134655929D01*
X217745571Y-134798787D01*
X217745571Y-135155929D01*
X217817000Y-135370215D01*
X219245571Y-136013072D02*
X217745571Y-136013072D01*
X217745571Y-136370215D01*
X217817000Y-136584500D01*
X217959857Y-136727358D01*
X218102714Y-136798786D01*
X218388429Y-136870215D01*
X218602714Y-136870215D01*
X218888429Y-136798786D01*
X219031286Y-136727358D01*
X219174143Y-136584500D01*
X219245571Y-136370215D01*
X219245571Y-136013072D01*
X218817000Y-137441643D02*
X218817000Y-138155929D01*
X219245571Y-137298786D02*
X217745571Y-137798786D01*
X219245571Y-138298786D01*
X221714143Y-134612286D02*
X221785571Y-134826572D01*
X221785571Y-135183715D01*
X221714143Y-135326572D01*
X221642714Y-135398001D01*
X221499857Y-135469429D01*
X221357000Y-135469429D01*
X221214143Y-135398001D01*
X221142714Y-135326572D01*
X221071286Y-135183715D01*
X220999857Y-134898001D01*
X220928429Y-134755143D01*
X220857000Y-134683715D01*
X220714143Y-134612286D01*
X220571286Y-134612286D01*
X220428429Y-134683715D01*
X220357000Y-134755143D01*
X220285571Y-134898001D01*
X220285571Y-135255143D01*
X220357000Y-135469429D01*
X221642714Y-136969429D02*
X221714143Y-136898000D01*
X221785571Y-136683714D01*
X221785571Y-136540857D01*
X221714143Y-136326572D01*
X221571286Y-136183714D01*
X221428429Y-136112286D01*
X221142714Y-136040857D01*
X220928429Y-136040857D01*
X220642714Y-136112286D01*
X220499857Y-136183714D01*
X220357000Y-136326572D01*
X220285571Y-136540857D01*
X220285571Y-136683714D01*
X220357000Y-136898000D01*
X220428429Y-136969429D01*
X221785571Y-138326572D02*
X221785571Y-137612286D01*
X220285571Y-137612286D01*
D12*
G36*
X214432213Y-90689291D02*
X214324741Y-90700168D01*
X214239846Y-90721606D01*
X214175850Y-90754655D01*
X214131076Y-90800368D01*
X214103846Y-90859795D01*
X214095508Y-90900390D01*
X214085353Y-90961562D01*
X214074700Y-90997204D01*
X214063116Y-91007838D01*
X214050164Y-90993986D01*
X214039285Y-90967820D01*
X214023018Y-90938568D01*
X213997791Y-90928902D01*
X213992421Y-90928744D01*
X213966396Y-90934727D01*
X213959179Y-90954026D01*
X213951484Y-90981808D01*
X213931458Y-90988093D01*
X213906176Y-90973518D01*
X213884589Y-90957998D01*
X213874263Y-90961925D01*
X213874799Y-90986774D01*
X213885797Y-91034019D01*
X213887816Y-91041319D01*
X213911906Y-91127966D01*
X213930492Y-91196505D01*
X213945362Y-91253835D01*
X213958306Y-91306859D01*
X213971110Y-91362477D01*
X213971701Y-91365103D01*
X214001729Y-91488725D01*
X214035691Y-91607307D01*
X214075831Y-91729820D01*
X214096913Y-91796627D01*
X214117722Y-91871539D01*
X214133729Y-91938231D01*
X214148739Y-91997525D01*
X214167560Y-92055914D01*
X214186320Y-92101492D01*
X214187746Y-92104314D01*
X214205907Y-92143059D01*
X214217479Y-92174606D01*
X214219692Y-92186183D01*
X214226241Y-92212264D01*
X214237485Y-92235022D01*
X214245319Y-92253632D01*
X214255185Y-92288089D01*
X214267438Y-92340072D01*
X214282435Y-92411260D01*
X214300531Y-92503331D01*
X214322080Y-92617964D01*
X214344269Y-92739308D01*
X214355126Y-92794688D01*
X214366262Y-92844024D01*
X214375696Y-92878728D01*
X214377825Y-92884816D01*
X214386203Y-92918999D01*
X214386188Y-92943431D01*
X214377916Y-92951215D01*
X214362702Y-92937222D01*
X214342250Y-92904248D01*
X214318265Y-92855091D01*
X214292453Y-92792548D01*
X214289548Y-92784897D01*
X214269538Y-92736310D01*
X214249348Y-92694654D01*
X214233171Y-92668534D01*
X214232435Y-92667667D01*
X214210525Y-92634079D01*
X214200044Y-92609051D01*
X214189570Y-92580127D01*
X214172013Y-92537691D01*
X214154528Y-92498333D01*
X214128649Y-92441826D01*
X214100807Y-92380787D01*
X214085230Y-92346506D01*
X214066017Y-92306719D01*
X214049672Y-92277405D01*
X214040997Y-92266136D01*
X214031148Y-92251640D01*
X214014893Y-92219333D01*
X213995411Y-92175629D01*
X213991415Y-92166104D01*
X213964372Y-92108269D01*
X213935857Y-92066116D01*
X213898929Y-92029855D01*
X213889093Y-92021781D01*
X213852674Y-91994895D01*
X213822115Y-91976420D01*
X213806395Y-91970795D01*
X213781541Y-91976285D01*
X213741920Y-91990631D01*
X213695864Y-92010644D01*
X213672615Y-92021988D01*
X213658964Y-92041220D01*
X213647358Y-92080891D01*
X213642626Y-92108827D01*
X213634377Y-92159613D01*
X213624485Y-92206996D01*
X213618496Y-92229411D01*
X213612451Y-92267350D01*
X213610538Y-92326689D01*
X213612867Y-92403090D01*
X213613743Y-92418283D01*
X213617336Y-92480699D01*
X213618683Y-92520618D01*
X213617445Y-92541523D01*
X213613278Y-92546901D01*
X213605842Y-92540234D01*
X213602251Y-92535492D01*
X213581888Y-92501958D01*
X213557232Y-92453501D01*
X213532247Y-92398905D01*
X213510897Y-92346954D01*
X213497144Y-92306433D01*
X213495152Y-92298123D01*
X213481016Y-92260073D01*
X213462757Y-92232754D01*
X213444546Y-92209041D01*
X213438153Y-92193698D01*
X213428172Y-92180059D01*
X213402405Y-92158076D01*
X213376976Y-92139762D01*
X213318400Y-92110339D01*
X213263776Y-92105547D01*
X213209008Y-92125239D01*
X213195801Y-92133320D01*
X213183457Y-92142294D01*
X213174561Y-92153112D01*
X213168889Y-92169421D01*
X213166214Y-92194869D01*
X213166310Y-92233104D01*
X213168950Y-92287774D01*
X213173910Y-92362526D01*
X213178023Y-92420179D01*
X213185302Y-92521498D01*
X213190796Y-92599795D01*
X213194555Y-92658036D01*
X213196632Y-92699185D01*
X213197076Y-92726208D01*
X213195941Y-92742069D01*
X213193277Y-92749734D01*
X213189135Y-92752167D01*
X213183776Y-92752333D01*
X213165990Y-92741543D01*
X213158528Y-92727625D01*
X213145128Y-92703591D01*
X213120345Y-92671460D01*
X213107382Y-92657001D01*
X213074441Y-92617312D01*
X213040694Y-92569473D01*
X213027546Y-92548196D01*
X213001612Y-92507454D01*
X212975564Y-92472584D01*
X212963315Y-92459153D01*
X212946323Y-92438377D01*
X212919643Y-92400252D01*
X212897533Y-92366447D01*
X212666466Y-92366447D01*
X212649172Y-92393198D01*
X212615364Y-92413477D01*
X212582345Y-92408740D01*
X212553450Y-92379896D01*
X212545187Y-92364820D01*
X212525973Y-92310800D01*
X212516734Y-92255216D01*
X212518126Y-92206409D01*
X212530165Y-92173544D01*
X212542184Y-92160216D01*
X212551853Y-92161880D01*
X212563880Y-92181953D01*
X212575019Y-92206108D01*
X212598430Y-92248573D01*
X212626059Y-92285899D01*
X212635307Y-92295450D01*
X212663805Y-92332189D01*
X212666466Y-92366447D01*
X212897533Y-92366447D01*
X212886724Y-92349922D01*
X212851018Y-92292534D01*
X212845437Y-92283307D01*
X212794993Y-92202627D01*
X212752137Y-92141727D01*
X212713551Y-92096724D01*
X212675922Y-92063738D01*
X212637313Y-92039610D01*
X212594465Y-92024562D01*
X212550957Y-92021012D01*
X212516832Y-92029313D01*
X212508943Y-92035103D01*
X212482869Y-92049593D01*
X212460188Y-92038873D01*
X212442164Y-92003696D01*
X212439175Y-91993590D01*
X212412279Y-91904905D01*
X212380566Y-91817605D01*
X212347593Y-91741009D01*
X212328519Y-91703769D01*
X212305645Y-91661145D01*
X212274328Y-91600388D01*
X212237252Y-91526923D01*
X212197101Y-91446172D01*
X212156558Y-91363559D01*
X212118308Y-91284507D01*
X212085035Y-91214439D01*
X212065838Y-91172974D01*
X212042963Y-91127094D01*
X212021774Y-91092115D01*
X212005789Y-91073594D01*
X212001929Y-91072026D01*
X211979908Y-91079966D01*
X211948743Y-91099790D01*
X211915947Y-91125503D01*
X211889032Y-91151110D01*
X211875512Y-91170616D01*
X211875076Y-91173250D01*
X211878384Y-91199512D01*
X211886685Y-91240341D01*
X211897551Y-91285335D01*
X211908551Y-91324091D01*
X211913807Y-91339051D01*
X211923671Y-91367569D01*
X211935886Y-91408038D01*
X211940201Y-91423490D01*
X211955895Y-91471221D01*
X211977267Y-91524622D01*
X211987225Y-91546415D01*
X212004747Y-91586206D01*
X212016130Y-91618699D01*
X212018555Y-91631310D01*
X212023067Y-91657537D01*
X212033791Y-91694120D01*
X212047011Y-91730122D01*
X212059012Y-91754608D01*
X212061534Y-91757799D01*
X212068651Y-91776711D01*
X212070461Y-91796351D01*
X212075601Y-91823065D01*
X212083487Y-91834026D01*
X212092382Y-91851390D01*
X212096481Y-91882795D01*
X212096512Y-91885841D01*
X212102292Y-91929258D01*
X212114868Y-91966483D01*
X212128170Y-91997558D01*
X212145394Y-92043571D01*
X212162805Y-92094538D01*
X212183040Y-92150183D01*
X212210373Y-92216578D01*
X212239692Y-92281459D01*
X212246945Y-92296436D01*
X212275997Y-92355873D01*
X212296203Y-92399258D01*
X212310429Y-92433807D01*
X212321541Y-92466738D01*
X212332404Y-92505269D01*
X212337459Y-92524385D01*
X212345625Y-92562316D01*
X212354336Y-92613837D01*
X212362918Y-92673254D01*
X212370696Y-92734876D01*
X212376997Y-92793012D01*
X212381148Y-92841968D01*
X212382473Y-92876055D01*
X212380668Y-92889340D01*
X212362170Y-92890323D01*
X212331638Y-92868986D01*
X212289560Y-92825852D01*
X212236423Y-92761445D01*
X212172717Y-92676290D01*
X212142102Y-92633292D01*
X212105295Y-92582218D01*
X212062594Y-92524811D01*
X212030180Y-92482462D01*
X211996031Y-92434087D01*
X211965490Y-92382950D01*
X211946362Y-92342908D01*
X211923473Y-92297697D01*
X211892766Y-92268023D01*
X211849752Y-92251970D01*
X211789938Y-92247620D01*
X211730901Y-92250925D01*
X211659172Y-92253678D01*
X211608148Y-92246583D01*
X211574067Y-92228747D01*
X211558557Y-92209867D01*
X211527394Y-92180099D01*
X211482177Y-92163309D01*
X211433075Y-92162892D01*
X211424023Y-92164978D01*
X211374331Y-92188436D01*
X211346989Y-92223316D01*
X211342654Y-92266619D01*
X211361982Y-92315343D01*
X211384596Y-92345244D01*
X211425572Y-92409537D01*
X211447696Y-92485406D01*
X211448675Y-92561828D01*
X211442001Y-92612298D01*
X211378245Y-92604746D01*
X211326468Y-92592676D01*
X211272583Y-92570545D01*
X211223215Y-92542236D01*
X211184987Y-92511635D01*
X211164521Y-92482623D01*
X211163425Y-92478795D01*
X211137928Y-92380851D01*
X211105738Y-92283477D01*
X211069177Y-92192161D01*
X211030562Y-92112390D01*
X210992215Y-92049652D01*
X210970701Y-92022897D01*
X210944517Y-91990791D01*
X210925338Y-91961026D01*
X210908388Y-91939135D01*
X210884851Y-91933475D01*
X210849311Y-91943888D01*
X210819671Y-91957937D01*
X210775938Y-91984602D01*
X210748431Y-92014833D01*
X210734366Y-92054754D01*
X210730959Y-92110490D01*
X210732584Y-92149524D01*
X210739459Y-92215760D01*
X210752935Y-92269692D01*
X210776568Y-92324888D01*
X210780713Y-92333142D01*
X210800283Y-92374650D01*
X210812533Y-92406717D01*
X210815021Y-92422871D01*
X210814721Y-92423287D01*
X210804025Y-92423464D01*
X210784731Y-92409406D01*
X210755556Y-92379703D01*
X210715218Y-92332944D01*
X210662436Y-92267720D01*
X210595927Y-92182620D01*
X210595694Y-92182319D01*
X210536527Y-92107215D01*
X210489745Y-92051788D01*
X210453088Y-92014172D01*
X210424296Y-91992497D01*
X210401108Y-91984896D01*
X210381265Y-91989502D01*
X210370950Y-91996568D01*
X210350754Y-92022421D01*
X210344190Y-92037099D01*
X210329576Y-92057588D01*
X210317635Y-92061974D01*
X210303329Y-92064996D01*
X210301731Y-92076773D01*
X210313933Y-92101374D01*
X210338288Y-92138832D01*
X210360321Y-92174465D01*
X210374396Y-92203215D01*
X210377128Y-92213693D01*
X210382825Y-92231911D01*
X210398243Y-92267577D01*
X210420869Y-92315140D01*
X210442114Y-92357329D01*
X210468015Y-92408669D01*
X210488194Y-92450763D01*
X210500381Y-92478731D01*
X210502802Y-92487719D01*
X210491226Y-92482456D01*
X210464255Y-92464669D01*
X210427056Y-92437828D01*
X210415021Y-92428792D01*
X210327198Y-92352600D01*
X210247128Y-92264842D01*
X210183017Y-92174610D01*
X210178020Y-92166179D01*
X210152824Y-92129235D01*
X210115796Y-92082531D01*
X210073740Y-92034509D01*
X210060888Y-92020824D01*
X210021099Y-91980010D01*
X209993629Y-91955108D01*
X209973145Y-91942872D01*
X209954315Y-91940054D01*
X209933257Y-91943113D01*
X209896422Y-91957831D01*
X209869133Y-91988964D01*
X209862820Y-91999969D01*
X209836974Y-92047798D01*
X209874694Y-92119895D01*
X209899765Y-92161843D01*
X209925769Y-92196083D01*
X209942415Y-92211650D01*
X209970727Y-92236415D01*
X209986359Y-92257359D01*
X209993978Y-92278209D01*
X209987068Y-92282860D01*
X209968946Y-92274091D01*
X209942930Y-92254679D01*
X209912335Y-92227406D01*
X209880480Y-92195048D01*
X209850681Y-92160386D01*
X209826255Y-92126198D01*
X209822601Y-92120166D01*
X209785910Y-92071456D01*
X209745044Y-92046848D01*
X209695845Y-92044394D01*
X209671819Y-92049467D01*
X209643353Y-92055635D01*
X209619023Y-92054988D01*
X209590908Y-92045592D01*
X209551086Y-92025517D01*
X209532871Y-92015585D01*
X209483207Y-91986376D01*
X209436594Y-91955730D01*
X209403094Y-91930264D01*
X209403008Y-91930189D01*
X209358991Y-91900321D01*
X209322801Y-91892933D01*
X209296962Y-91907379D01*
X209284001Y-91943017D01*
X209282974Y-91960816D01*
X209292263Y-91991376D01*
X209316287Y-92030654D01*
X209349281Y-92071294D01*
X209385480Y-92105939D01*
X209409974Y-92122869D01*
X209437553Y-92140118D01*
X209451781Y-92153210D01*
X209452307Y-92154887D01*
X209463187Y-92164454D01*
X209491451Y-92181065D01*
X209530535Y-92201511D01*
X209573874Y-92222581D01*
X209614904Y-92241066D01*
X209647061Y-92253756D01*
X209662318Y-92257587D01*
X209680161Y-92266083D01*
X209710286Y-92288233D01*
X209746429Y-92319394D01*
X209749338Y-92322086D01*
X209797099Y-92365283D01*
X209849785Y-92411097D01*
X209886107Y-92441476D01*
X209931256Y-92480295D01*
X209982533Y-92527413D01*
X210025251Y-92569059D01*
X210061033Y-92602912D01*
X210091395Y-92627254D01*
X210110801Y-92637750D01*
X210113026Y-92637776D01*
X210136664Y-92640512D01*
X210156418Y-92648517D01*
X210191196Y-92655280D01*
X210220989Y-92640142D01*
X210241039Y-92607251D01*
X210246871Y-92569674D01*
X210248287Y-92541523D01*
X210253811Y-92523579D01*
X210265361Y-92516962D01*
X210284853Y-92522790D01*
X210314206Y-92542183D01*
X210355335Y-92576257D01*
X210410157Y-92626133D01*
X210480590Y-92692928D01*
X210515313Y-92726321D01*
X210545001Y-92750602D01*
X210570437Y-92764263D01*
X210576416Y-92765359D01*
X210599379Y-92772625D01*
X210605076Y-92778385D01*
X210624787Y-92789205D01*
X210656213Y-92790524D01*
X210687102Y-92783056D01*
X210702048Y-92772740D01*
X210710437Y-92749206D01*
X210711692Y-92705572D01*
X210708473Y-92662022D01*
X210705066Y-92607716D01*
X210708397Y-92577534D01*
X210719060Y-92570281D01*
X210737648Y-92584767D01*
X210743507Y-92591531D01*
X210768013Y-92612411D01*
X210800461Y-92631388D01*
X210858161Y-92660446D01*
X210894578Y-92684032D01*
X210913289Y-92704464D01*
X210913342Y-92704559D01*
X210931854Y-92717466D01*
X210967116Y-92728699D01*
X210990266Y-92732923D01*
X211032284Y-92736896D01*
X211059108Y-92732875D01*
X211080908Y-92718822D01*
X211086669Y-92713591D01*
X211109492Y-92695156D01*
X211128806Y-92693294D01*
X211155602Y-92705159D01*
X211188133Y-92724607D01*
X211229474Y-92752712D01*
X211254737Y-92771309D01*
X211290807Y-92796436D01*
X211320909Y-92813198D01*
X211334625Y-92817462D01*
X211351895Y-92823978D01*
X211354051Y-92829452D01*
X211365507Y-92843187D01*
X211395198Y-92850101D01*
X211436114Y-92849791D01*
X211481239Y-92841852D01*
X211495484Y-92837614D01*
X211560260Y-92805524D01*
X211606561Y-92757806D01*
X211634830Y-92693389D01*
X211645510Y-92611206D01*
X211639046Y-92510185D01*
X211637068Y-92496271D01*
X211627009Y-92429080D01*
X211678426Y-92420393D01*
X211724103Y-92418754D01*
X211760681Y-92428474D01*
X211781472Y-92447182D01*
X211783897Y-92457783D01*
X211792092Y-92477678D01*
X211812487Y-92506010D01*
X211819717Y-92514314D01*
X211843712Y-92544330D01*
X211874967Y-92588326D01*
X211907522Y-92637836D01*
X211914153Y-92648444D01*
X211953508Y-92707001D01*
X212000644Y-92769926D01*
X212045445Y-92823721D01*
X212045992Y-92824328D01*
X212083534Y-92867566D01*
X212116774Y-92908737D01*
X212139582Y-92940185D01*
X212142461Y-92944817D01*
X212167951Y-92975904D01*
X212204850Y-93007978D01*
X212220699Y-93018930D01*
X212262621Y-93048680D01*
X212301724Y-93081545D01*
X212312282Y-93091883D01*
X212333924Y-93116063D01*
X212338002Y-93127211D01*
X212326007Y-93130065D01*
X212324293Y-93130077D01*
X212308196Y-93133470D01*
X212314791Y-93145156D01*
X212333138Y-93153474D01*
X212348096Y-93145108D01*
X212374287Y-93136332D01*
X212405459Y-93137810D01*
X212458756Y-93136370D01*
X212505818Y-93110202D01*
X212545434Y-93060141D01*
X212559879Y-93031470D01*
X212577465Y-92993872D01*
X212591295Y-92968221D01*
X212597377Y-92960744D01*
X212607500Y-92970769D01*
X212618595Y-92988770D01*
X212627201Y-93008522D01*
X212620090Y-93011283D01*
X212612541Y-93008717D01*
X212596133Y-93004148D01*
X212593205Y-93011775D01*
X212602909Y-93036631D01*
X212606499Y-93044570D01*
X212618622Y-93066285D01*
X212628840Y-93066088D01*
X212636689Y-93056763D01*
X212648218Y-93046261D01*
X212661437Y-93051340D01*
X212682376Y-93074796D01*
X212686329Y-93079785D01*
X212713184Y-93113281D01*
X212736610Y-93141505D01*
X212740806Y-93146359D01*
X212756956Y-93174088D01*
X212760820Y-93191862D01*
X212753919Y-93197249D01*
X212733007Y-93181482D01*
X212702409Y-93149529D01*
X212673365Y-93118981D01*
X212652385Y-93100333D01*
X212643818Y-93097427D01*
X212643794Y-93097745D01*
X212652277Y-93122179D01*
X212673998Y-93155637D01*
X212702563Y-93190017D01*
X212731581Y-93217218D01*
X212744912Y-93225928D01*
X212786365Y-93237553D01*
X212840759Y-93240940D01*
X212897201Y-93236564D01*
X212944802Y-93224902D01*
X212961964Y-93216435D01*
X213002112Y-93175934D01*
X213031160Y-93117641D01*
X213046063Y-93048536D01*
X213047384Y-93020647D01*
X213049242Y-92979976D01*
X213054022Y-92951096D01*
X213058417Y-92942437D01*
X213073308Y-92946704D01*
X213097490Y-92965552D01*
X213107263Y-92975200D01*
X213130150Y-93000831D01*
X213136251Y-93015798D01*
X213127538Y-93027509D01*
X213122282Y-93031532D01*
X213102431Y-93050150D01*
X213106195Y-93060800D01*
X213134453Y-93064821D01*
X213144229Y-93064949D01*
X213184936Y-93068325D01*
X213219126Y-93076312D01*
X213254724Y-93081108D01*
X213277907Y-93076984D01*
X213304812Y-93056464D01*
X213329504Y-93021528D01*
X213344930Y-92983355D01*
X213346974Y-92967485D01*
X213352144Y-92942873D01*
X213361348Y-92917568D01*
X212836654Y-92917568D01*
X212831614Y-92944358D01*
X212818265Y-92947038D01*
X212797154Y-92926925D01*
X212779753Y-92907106D01*
X212750679Y-92875618D01*
X212718275Y-92841426D01*
X212681594Y-92799174D01*
X212645356Y-92750680D01*
X212613528Y-92702092D01*
X212590079Y-92659555D01*
X212578975Y-92629216D01*
X212578583Y-92625011D01*
X212589272Y-92608193D01*
X212608503Y-92596985D01*
X212638014Y-92581135D01*
X212672987Y-92556389D01*
X212680336Y-92550397D01*
X212710175Y-92529928D01*
X212734247Y-92521275D01*
X212739374Y-92521850D01*
X212758028Y-92539625D01*
X212779034Y-92575279D01*
X212799255Y-92621223D01*
X212815556Y-92669870D01*
X212824802Y-92713631D01*
X212825806Y-92731002D01*
X212826657Y-92774497D01*
X212830113Y-92829289D01*
X212833603Y-92866308D01*
X212836654Y-92917568D01*
X213361348Y-92917568D01*
X213364967Y-92907621D01*
X213368976Y-92898453D01*
X213383287Y-92864717D01*
X213391710Y-92840611D01*
X213392458Y-92837000D01*
X213397322Y-92817165D01*
X213407590Y-92783953D01*
X213411011Y-92773709D01*
X213420198Y-92737387D01*
X213420752Y-92700378D01*
X213412738Y-92651178D01*
X213411720Y-92646327D01*
X213401305Y-92604284D01*
X213390909Y-92573561D01*
X213384190Y-92562311D01*
X213375182Y-92545163D01*
X213373025Y-92527234D01*
X213374121Y-92507929D01*
X213381538Y-92508979D01*
X213396843Y-92524746D01*
X213413432Y-92549336D01*
X213434699Y-92589896D01*
X213456241Y-92637981D01*
X213457729Y-92641615D01*
X213482003Y-92697664D01*
X213512926Y-92764034D01*
X213544628Y-92828203D01*
X213551142Y-92840815D01*
X213575769Y-92889383D01*
X213594936Y-92929757D01*
X213605916Y-92956068D01*
X213607487Y-92962211D01*
X213615855Y-92987285D01*
X213636813Y-93020215D01*
X213664136Y-93053482D01*
X213691602Y-93079566D01*
X213712988Y-93090948D01*
X213714063Y-93091000D01*
X213748047Y-93086946D01*
X213789080Y-93076804D01*
X213827452Y-93063607D01*
X213853453Y-93050386D01*
X213858031Y-93046044D01*
X213864013Y-93023032D01*
X213866611Y-92979736D01*
X213865982Y-92921683D01*
X213862282Y-92854399D01*
X213855668Y-92783410D01*
X213849145Y-92732795D01*
X213841378Y-92676841D01*
X213838100Y-92640800D01*
X213839589Y-92618874D01*
X213846123Y-92605266D01*
X213855712Y-92596026D01*
X213867594Y-92583318D01*
X213873273Y-92565867D01*
X213873388Y-92537108D01*
X213868578Y-92490474D01*
X213867128Y-92478795D01*
X213859359Y-92421703D01*
X213850876Y-92366500D01*
X213843630Y-92325744D01*
X213838352Y-92288756D01*
X213842382Y-92272226D01*
X213847887Y-92270385D01*
X213861397Y-92281236D01*
X213882854Y-92310114D01*
X213909048Y-92351502D01*
X213936771Y-92399883D01*
X213962816Y-92449741D01*
X213983973Y-92495560D01*
X213993855Y-92521365D01*
X214007361Y-92556308D01*
X214029166Y-92606842D01*
X214055878Y-92665280D01*
X214075666Y-92706744D01*
X214102454Y-92762972D01*
X214125514Y-92813527D01*
X214142002Y-92852047D01*
X214148448Y-92869564D01*
X214159503Y-92896593D01*
X214179887Y-92937538D01*
X214205414Y-92984044D01*
X214208314Y-92989067D01*
X214232323Y-93031584D01*
X214250135Y-93065311D01*
X214258511Y-93084061D01*
X214258769Y-93085461D01*
X214264092Y-93101400D01*
X214277891Y-93133035D01*
X214292861Y-93164599D01*
X214319712Y-93210774D01*
X214342948Y-93232577D01*
X214350391Y-93234282D01*
X214372622Y-93241047D01*
X214378541Y-93248420D01*
X214392616Y-93251975D01*
X214426190Y-93242596D01*
X214455387Y-93230656D01*
X214498579Y-93209173D01*
X214507796Y-93201718D01*
X214362974Y-93201718D01*
X214356461Y-93208231D01*
X214349948Y-93201718D01*
X214356461Y-93195205D01*
X214362974Y-93201718D01*
X214507796Y-93201718D01*
X214523602Y-93188934D01*
X214537289Y-93163873D01*
X214539878Y-93155668D01*
X214552150Y-93125186D01*
X214565615Y-93108262D01*
X214566915Y-93107686D01*
X214582776Y-93113621D01*
X214611745Y-93133740D01*
X214648253Y-93164060D01*
X214657899Y-93172762D01*
X214741555Y-93239680D01*
X214821888Y-93282716D01*
X214902340Y-93303147D01*
X214986352Y-93302249D01*
X215001230Y-93300068D01*
X215102316Y-93270793D01*
X215197904Y-93218816D01*
X215282570Y-93147487D01*
X215321916Y-93102002D01*
X215350486Y-93060616D01*
X215378072Y-93013475D01*
X215401882Y-92966428D01*
X215419122Y-92925325D01*
X215426998Y-92896016D01*
X215425298Y-92885495D01*
X215427039Y-92871643D01*
X215437283Y-92841990D01*
X215446610Y-92819522D01*
X215465961Y-92764851D01*
X215485870Y-92689376D01*
X215486327Y-92687205D01*
X215303706Y-92687205D01*
X215298302Y-92749972D01*
X215280769Y-92820073D01*
X215254195Y-92889892D01*
X215221669Y-92951813D01*
X215186278Y-92998218D01*
X215172778Y-93010156D01*
X215134749Y-93041217D01*
X215098786Y-93074471D01*
X215070309Y-93104464D01*
X215054738Y-93125738D01*
X215053333Y-93130382D01*
X215042562Y-93142212D01*
X215016568Y-93157657D01*
X214984831Y-93172058D01*
X214956831Y-93180756D01*
X214949128Y-93181597D01*
X214925754Y-93176459D01*
X214890464Y-93163556D01*
X214876691Y-93157581D01*
X214834680Y-93132742D01*
X214792962Y-93098724D01*
X214757416Y-93061497D01*
X214733925Y-93027034D01*
X214727750Y-93006333D01*
X214721935Y-92980343D01*
X214707215Y-92942003D01*
X214695073Y-92916203D01*
X214676938Y-92877708D01*
X214665137Y-92847384D01*
X214662564Y-92836067D01*
X214657178Y-92819208D01*
X214642344Y-92783457D01*
X214620042Y-92733329D01*
X214592257Y-92673342D01*
X214577401Y-92642050D01*
X214546125Y-92574284D01*
X214518295Y-92509503D01*
X214496359Y-92453739D01*
X214482766Y-92413019D01*
X214480357Y-92403058D01*
X214468921Y-92357856D01*
X214451237Y-92302201D01*
X214434699Y-92257359D01*
X214420276Y-92220064D01*
X214406374Y-92181191D01*
X214391835Y-92136920D01*
X214375498Y-92083432D01*
X214356203Y-92016910D01*
X214332791Y-91933533D01*
X214304101Y-91829483D01*
X214298208Y-91807974D01*
X214264960Y-91686772D01*
X214237685Y-91587916D01*
X214215584Y-91508596D01*
X214197857Y-91446002D01*
X214183705Y-91397326D01*
X214172328Y-91359758D01*
X214162926Y-91330488D01*
X214159209Y-91319513D01*
X214143683Y-91271088D01*
X214127244Y-91214847D01*
X214120314Y-91189256D01*
X214108695Y-91145408D01*
X214098844Y-91109381D01*
X214094647Y-91094820D01*
X214096393Y-91075626D01*
X214108355Y-91072026D01*
X214132732Y-91064949D01*
X214166843Y-91047419D01*
X214201850Y-91024987D01*
X214228914Y-91003204D01*
X214238880Y-90990059D01*
X214243527Y-90968199D01*
X214249407Y-90931789D01*
X214251664Y-90915718D01*
X214260490Y-90866794D01*
X214274249Y-90838361D01*
X214298428Y-90824866D01*
X214338512Y-90820753D01*
X214345598Y-90820611D01*
X214384835Y-90822908D01*
X214423252Y-90832907D01*
X214469230Y-90853348D01*
X214506756Y-90873322D01*
X214546601Y-90898258D01*
X214593981Y-90932359D01*
X214644500Y-90971884D01*
X214693761Y-91013091D01*
X214737370Y-91052240D01*
X214770930Y-91085589D01*
X214790047Y-91109399D01*
X214792820Y-91116786D01*
X214800498Y-91132403D01*
X214819533Y-91158463D01*
X214825384Y-91165581D01*
X214846512Y-91194646D01*
X214857505Y-91217494D01*
X214857948Y-91220727D01*
X214866927Y-91238577D01*
X214889719Y-91265228D01*
X214904519Y-91279551D01*
X214924659Y-91299339D01*
X214942285Y-91321159D01*
X214959216Y-91348761D01*
X214977269Y-91385894D01*
X214998261Y-91436307D01*
X215024010Y-91503751D01*
X215056334Y-91591975D01*
X215057445Y-91595038D01*
X215083611Y-91666009D01*
X215110837Y-91737821D01*
X215135817Y-91801863D01*
X215154436Y-91847622D01*
X215204670Y-91976928D01*
X215243989Y-92100074D01*
X215271703Y-92213781D01*
X215287120Y-92314770D01*
X215289550Y-92399760D01*
X215282007Y-92452744D01*
X215279871Y-92481928D01*
X215282248Y-92526833D01*
X215288446Y-92576487D01*
X215295873Y-92624777D01*
X215301345Y-92664419D01*
X215303699Y-92686977D01*
X215303706Y-92687205D01*
X215486327Y-92687205D01*
X215505082Y-92598282D01*
X215518071Y-92524121D01*
X215516253Y-92486357D01*
X215497280Y-92460230D01*
X215477999Y-92432758D01*
X215470464Y-92391773D01*
X215470077Y-92375827D01*
X215466903Y-92315824D01*
X215458474Y-92242703D01*
X215446233Y-92164999D01*
X215431620Y-92091248D01*
X215416079Y-92029986D01*
X215407138Y-92003359D01*
X215391733Y-91957639D01*
X215375052Y-91898527D01*
X215360527Y-91838252D01*
X215359621Y-91834026D01*
X215339586Y-91743082D01*
X215322602Y-91674662D01*
X215307559Y-91625571D01*
X215293347Y-91592614D01*
X215278859Y-91572598D01*
X215265646Y-91563441D01*
X215238086Y-91537293D01*
X215220982Y-91496470D01*
X215208561Y-91451522D01*
X215196668Y-91409589D01*
X215194960Y-91403708D01*
X215181048Y-91372681D01*
X215156276Y-91331130D01*
X215129618Y-91292990D01*
X215097169Y-91248572D01*
X215057585Y-91192248D01*
X215017850Y-91134005D01*
X215005468Y-91115421D01*
X214969775Y-91064981D01*
X214929653Y-91013872D01*
X214889006Y-90966440D01*
X214851738Y-90927034D01*
X214821754Y-90899998D01*
X214802959Y-90889680D01*
X214802680Y-90889674D01*
X214789692Y-90881531D01*
X214761474Y-90859365D01*
X214722177Y-90826555D01*
X214675956Y-90786485D01*
X214675780Y-90786329D01*
X214558558Y-90682992D01*
X214432213Y-90689291D01*
X214432213Y-90689291D01*
G37*
X214432213Y-90689291D02*
X214324741Y-90700168D01*
X214239846Y-90721606D01*
X214175850Y-90754655D01*
X214131076Y-90800368D01*
X214103846Y-90859795D01*
X214095508Y-90900390D01*
X214085353Y-90961562D01*
X214074700Y-90997204D01*
X214063116Y-91007838D01*
X214050164Y-90993986D01*
X214039285Y-90967820D01*
X214023018Y-90938568D01*
X213997791Y-90928902D01*
X213992421Y-90928744D01*
X213966396Y-90934727D01*
X213959179Y-90954026D01*
X213951484Y-90981808D01*
X213931458Y-90988093D01*
X213906176Y-90973518D01*
X213884589Y-90957998D01*
X213874263Y-90961925D01*
X213874799Y-90986774D01*
X213885797Y-91034019D01*
X213887816Y-91041319D01*
X213911906Y-91127966D01*
X213930492Y-91196505D01*
X213945362Y-91253835D01*
X213958306Y-91306859D01*
X213971110Y-91362477D01*
X213971701Y-91365103D01*
X214001729Y-91488725D01*
X214035691Y-91607307D01*
X214075831Y-91729820D01*
X214096913Y-91796627D01*
X214117722Y-91871539D01*
X214133729Y-91938231D01*
X214148739Y-91997525D01*
X214167560Y-92055914D01*
X214186320Y-92101492D01*
X214187746Y-92104314D01*
X214205907Y-92143059D01*
X214217479Y-92174606D01*
X214219692Y-92186183D01*
X214226241Y-92212264D01*
X214237485Y-92235022D01*
X214245319Y-92253632D01*
X214255185Y-92288089D01*
X214267438Y-92340072D01*
X214282435Y-92411260D01*
X214300531Y-92503331D01*
X214322080Y-92617964D01*
X214344269Y-92739308D01*
X214355126Y-92794688D01*
X214366262Y-92844024D01*
X214375696Y-92878728D01*
X214377825Y-92884816D01*
X214386203Y-92918999D01*
X214386188Y-92943431D01*
X214377916Y-92951215D01*
X214362702Y-92937222D01*
X214342250Y-92904248D01*
X214318265Y-92855091D01*
X214292453Y-92792548D01*
X214289548Y-92784897D01*
X214269538Y-92736310D01*
X214249348Y-92694654D01*
X214233171Y-92668534D01*
X214232435Y-92667667D01*
X214210525Y-92634079D01*
X214200044Y-92609051D01*
X214189570Y-92580127D01*
X214172013Y-92537691D01*
X214154528Y-92498333D01*
X214128649Y-92441826D01*
X214100807Y-92380787D01*
X214085230Y-92346506D01*
X214066017Y-92306719D01*
X214049672Y-92277405D01*
X214040997Y-92266136D01*
X214031148Y-92251640D01*
X214014893Y-92219333D01*
X213995411Y-92175629D01*
X213991415Y-92166104D01*
X213964372Y-92108269D01*
X213935857Y-92066116D01*
X213898929Y-92029855D01*
X213889093Y-92021781D01*
X213852674Y-91994895D01*
X213822115Y-91976420D01*
X213806395Y-91970795D01*
X213781541Y-91976285D01*
X213741920Y-91990631D01*
X213695864Y-92010644D01*
X213672615Y-92021988D01*
X213658964Y-92041220D01*
X213647358Y-92080891D01*
X213642626Y-92108827D01*
X213634377Y-92159613D01*
X213624485Y-92206996D01*
X213618496Y-92229411D01*
X213612451Y-92267350D01*
X213610538Y-92326689D01*
X213612867Y-92403090D01*
X213613743Y-92418283D01*
X213617336Y-92480699D01*
X213618683Y-92520618D01*
X213617445Y-92541523D01*
X213613278Y-92546901D01*
X213605842Y-92540234D01*
X213602251Y-92535492D01*
X213581888Y-92501958D01*
X213557232Y-92453501D01*
X213532247Y-92398905D01*
X213510897Y-92346954D01*
X213497144Y-92306433D01*
X213495152Y-92298123D01*
X213481016Y-92260073D01*
X213462757Y-92232754D01*
X213444546Y-92209041D01*
X213438153Y-92193698D01*
X213428172Y-92180059D01*
X213402405Y-92158076D01*
X213376976Y-92139762D01*
X213318400Y-92110339D01*
X213263776Y-92105547D01*
X213209008Y-92125239D01*
X213195801Y-92133320D01*
X213183457Y-92142294D01*
X213174561Y-92153112D01*
X213168889Y-92169421D01*
X213166214Y-92194869D01*
X213166310Y-92233104D01*
X213168950Y-92287774D01*
X213173910Y-92362526D01*
X213178023Y-92420179D01*
X213185302Y-92521498D01*
X213190796Y-92599795D01*
X213194555Y-92658036D01*
X213196632Y-92699185D01*
X213197076Y-92726208D01*
X213195941Y-92742069D01*
X213193277Y-92749734D01*
X213189135Y-92752167D01*
X213183776Y-92752333D01*
X213165990Y-92741543D01*
X213158528Y-92727625D01*
X213145128Y-92703591D01*
X213120345Y-92671460D01*
X213107382Y-92657001D01*
X213074441Y-92617312D01*
X213040694Y-92569473D01*
X213027546Y-92548196D01*
X213001612Y-92507454D01*
X212975564Y-92472584D01*
X212963315Y-92459153D01*
X212946323Y-92438377D01*
X212919643Y-92400252D01*
X212897533Y-92366447D01*
X212666466Y-92366447D01*
X212649172Y-92393198D01*
X212615364Y-92413477D01*
X212582345Y-92408740D01*
X212553450Y-92379896D01*
X212545187Y-92364820D01*
X212525973Y-92310800D01*
X212516734Y-92255216D01*
X212518126Y-92206409D01*
X212530165Y-92173544D01*
X212542184Y-92160216D01*
X212551853Y-92161880D01*
X212563880Y-92181953D01*
X212575019Y-92206108D01*
X212598430Y-92248573D01*
X212626059Y-92285899D01*
X212635307Y-92295450D01*
X212663805Y-92332189D01*
X212666466Y-92366447D01*
X212897533Y-92366447D01*
X212886724Y-92349922D01*
X212851018Y-92292534D01*
X212845437Y-92283307D01*
X212794993Y-92202627D01*
X212752137Y-92141727D01*
X212713551Y-92096724D01*
X212675922Y-92063738D01*
X212637313Y-92039610D01*
X212594465Y-92024562D01*
X212550957Y-92021012D01*
X212516832Y-92029313D01*
X212508943Y-92035103D01*
X212482869Y-92049593D01*
X212460188Y-92038873D01*
X212442164Y-92003696D01*
X212439175Y-91993590D01*
X212412279Y-91904905D01*
X212380566Y-91817605D01*
X212347593Y-91741009D01*
X212328519Y-91703769D01*
X212305645Y-91661145D01*
X212274328Y-91600388D01*
X212237252Y-91526923D01*
X212197101Y-91446172D01*
X212156558Y-91363559D01*
X212118308Y-91284507D01*
X212085035Y-91214439D01*
X212065838Y-91172974D01*
X212042963Y-91127094D01*
X212021774Y-91092115D01*
X212005789Y-91073594D01*
X212001929Y-91072026D01*
X211979908Y-91079966D01*
X211948743Y-91099790D01*
X211915947Y-91125503D01*
X211889032Y-91151110D01*
X211875512Y-91170616D01*
X211875076Y-91173250D01*
X211878384Y-91199512D01*
X211886685Y-91240341D01*
X211897551Y-91285335D01*
X211908551Y-91324091D01*
X211913807Y-91339051D01*
X211923671Y-91367569D01*
X211935886Y-91408038D01*
X211940201Y-91423490D01*
X211955895Y-91471221D01*
X211977267Y-91524622D01*
X211987225Y-91546415D01*
X212004747Y-91586206D01*
X212016130Y-91618699D01*
X212018555Y-91631310D01*
X212023067Y-91657537D01*
X212033791Y-91694120D01*
X212047011Y-91730122D01*
X212059012Y-91754608D01*
X212061534Y-91757799D01*
X212068651Y-91776711D01*
X212070461Y-91796351D01*
X212075601Y-91823065D01*
X212083487Y-91834026D01*
X212092382Y-91851390D01*
X212096481Y-91882795D01*
X212096512Y-91885841D01*
X212102292Y-91929258D01*
X212114868Y-91966483D01*
X212128170Y-91997558D01*
X212145394Y-92043571D01*
X212162805Y-92094538D01*
X212183040Y-92150183D01*
X212210373Y-92216578D01*
X212239692Y-92281459D01*
X212246945Y-92296436D01*
X212275997Y-92355873D01*
X212296203Y-92399258D01*
X212310429Y-92433807D01*
X212321541Y-92466738D01*
X212332404Y-92505269D01*
X212337459Y-92524385D01*
X212345625Y-92562316D01*
X212354336Y-92613837D01*
X212362918Y-92673254D01*
X212370696Y-92734876D01*
X212376997Y-92793012D01*
X212381148Y-92841968D01*
X212382473Y-92876055D01*
X212380668Y-92889340D01*
X212362170Y-92890323D01*
X212331638Y-92868986D01*
X212289560Y-92825852D01*
X212236423Y-92761445D01*
X212172717Y-92676290D01*
X212142102Y-92633292D01*
X212105295Y-92582218D01*
X212062594Y-92524811D01*
X212030180Y-92482462D01*
X211996031Y-92434087D01*
X211965490Y-92382950D01*
X211946362Y-92342908D01*
X211923473Y-92297697D01*
X211892766Y-92268023D01*
X211849752Y-92251970D01*
X211789938Y-92247620D01*
X211730901Y-92250925D01*
X211659172Y-92253678D01*
X211608148Y-92246583D01*
X211574067Y-92228747D01*
X211558557Y-92209867D01*
X211527394Y-92180099D01*
X211482177Y-92163309D01*
X211433075Y-92162892D01*
X211424023Y-92164978D01*
X211374331Y-92188436D01*
X211346989Y-92223316D01*
X211342654Y-92266619D01*
X211361982Y-92315343D01*
X211384596Y-92345244D01*
X211425572Y-92409537D01*
X211447696Y-92485406D01*
X211448675Y-92561828D01*
X211442001Y-92612298D01*
X211378245Y-92604746D01*
X211326468Y-92592676D01*
X211272583Y-92570545D01*
X211223215Y-92542236D01*
X211184987Y-92511635D01*
X211164521Y-92482623D01*
X211163425Y-92478795D01*
X211137928Y-92380851D01*
X211105738Y-92283477D01*
X211069177Y-92192161D01*
X211030562Y-92112390D01*
X210992215Y-92049652D01*
X210970701Y-92022897D01*
X210944517Y-91990791D01*
X210925338Y-91961026D01*
X210908388Y-91939135D01*
X210884851Y-91933475D01*
X210849311Y-91943888D01*
X210819671Y-91957937D01*
X210775938Y-91984602D01*
X210748431Y-92014833D01*
X210734366Y-92054754D01*
X210730959Y-92110490D01*
X210732584Y-92149524D01*
X210739459Y-92215760D01*
X210752935Y-92269692D01*
X210776568Y-92324888D01*
X210780713Y-92333142D01*
X210800283Y-92374650D01*
X210812533Y-92406717D01*
X210815021Y-92422871D01*
X210814721Y-92423287D01*
X210804025Y-92423464D01*
X210784731Y-92409406D01*
X210755556Y-92379703D01*
X210715218Y-92332944D01*
X210662436Y-92267720D01*
X210595927Y-92182620D01*
X210595694Y-92182319D01*
X210536527Y-92107215D01*
X210489745Y-92051788D01*
X210453088Y-92014172D01*
X210424296Y-91992497D01*
X210401108Y-91984896D01*
X210381265Y-91989502D01*
X210370950Y-91996568D01*
X210350754Y-92022421D01*
X210344190Y-92037099D01*
X210329576Y-92057588D01*
X210317635Y-92061974D01*
X210303329Y-92064996D01*
X210301731Y-92076773D01*
X210313933Y-92101374D01*
X210338288Y-92138832D01*
X210360321Y-92174465D01*
X210374396Y-92203215D01*
X210377128Y-92213693D01*
X210382825Y-92231911D01*
X210398243Y-92267577D01*
X210420869Y-92315140D01*
X210442114Y-92357329D01*
X210468015Y-92408669D01*
X210488194Y-92450763D01*
X210500381Y-92478731D01*
X210502802Y-92487719D01*
X210491226Y-92482456D01*
X210464255Y-92464669D01*
X210427056Y-92437828D01*
X210415021Y-92428792D01*
X210327198Y-92352600D01*
X210247128Y-92264842D01*
X210183017Y-92174610D01*
X210178020Y-92166179D01*
X210152824Y-92129235D01*
X210115796Y-92082531D01*
X210073740Y-92034509D01*
X210060888Y-92020824D01*
X210021099Y-91980010D01*
X209993629Y-91955108D01*
X209973145Y-91942872D01*
X209954315Y-91940054D01*
X209933257Y-91943113D01*
X209896422Y-91957831D01*
X209869133Y-91988964D01*
X209862820Y-91999969D01*
X209836974Y-92047798D01*
X209874694Y-92119895D01*
X209899765Y-92161843D01*
X209925769Y-92196083D01*
X209942415Y-92211650D01*
X209970727Y-92236415D01*
X209986359Y-92257359D01*
X209993978Y-92278209D01*
X209987068Y-92282860D01*
X209968946Y-92274091D01*
X209942930Y-92254679D01*
X209912335Y-92227406D01*
X209880480Y-92195048D01*
X209850681Y-92160386D01*
X209826255Y-92126198D01*
X209822601Y-92120166D01*
X209785910Y-92071456D01*
X209745044Y-92046848D01*
X209695845Y-92044394D01*
X209671819Y-92049467D01*
X209643353Y-92055635D01*
X209619023Y-92054988D01*
X209590908Y-92045592D01*
X209551086Y-92025517D01*
X209532871Y-92015585D01*
X209483207Y-91986376D01*
X209436594Y-91955730D01*
X209403094Y-91930264D01*
X209403008Y-91930189D01*
X209358991Y-91900321D01*
X209322801Y-91892933D01*
X209296962Y-91907379D01*
X209284001Y-91943017D01*
X209282974Y-91960816D01*
X209292263Y-91991376D01*
X209316287Y-92030654D01*
X209349281Y-92071294D01*
X209385480Y-92105939D01*
X209409974Y-92122869D01*
X209437553Y-92140118D01*
X209451781Y-92153210D01*
X209452307Y-92154887D01*
X209463187Y-92164454D01*
X209491451Y-92181065D01*
X209530535Y-92201511D01*
X209573874Y-92222581D01*
X209614904Y-92241066D01*
X209647061Y-92253756D01*
X209662318Y-92257587D01*
X209680161Y-92266083D01*
X209710286Y-92288233D01*
X209746429Y-92319394D01*
X209749338Y-92322086D01*
X209797099Y-92365283D01*
X209849785Y-92411097D01*
X209886107Y-92441476D01*
X209931256Y-92480295D01*
X209982533Y-92527413D01*
X210025251Y-92569059D01*
X210061033Y-92602912D01*
X210091395Y-92627254D01*
X210110801Y-92637750D01*
X210113026Y-92637776D01*
X210136664Y-92640512D01*
X210156418Y-92648517D01*
X210191196Y-92655280D01*
X210220989Y-92640142D01*
X210241039Y-92607251D01*
X210246871Y-92569674D01*
X210248287Y-92541523D01*
X210253811Y-92523579D01*
X210265361Y-92516962D01*
X210284853Y-92522790D01*
X210314206Y-92542183D01*
X210355335Y-92576257D01*
X210410157Y-92626133D01*
X210480590Y-92692928D01*
X210515313Y-92726321D01*
X210545001Y-92750602D01*
X210570437Y-92764263D01*
X210576416Y-92765359D01*
X210599379Y-92772625D01*
X210605076Y-92778385D01*
X210624787Y-92789205D01*
X210656213Y-92790524D01*
X210687102Y-92783056D01*
X210702048Y-92772740D01*
X210710437Y-92749206D01*
X210711692Y-92705572D01*
X210708473Y-92662022D01*
X210705066Y-92607716D01*
X210708397Y-92577534D01*
X210719060Y-92570281D01*
X210737648Y-92584767D01*
X210743507Y-92591531D01*
X210768013Y-92612411D01*
X210800461Y-92631388D01*
X210858161Y-92660446D01*
X210894578Y-92684032D01*
X210913289Y-92704464D01*
X210913342Y-92704559D01*
X210931854Y-92717466D01*
X210967116Y-92728699D01*
X210990266Y-92732923D01*
X211032284Y-92736896D01*
X211059108Y-92732875D01*
X211080908Y-92718822D01*
X211086669Y-92713591D01*
X211109492Y-92695156D01*
X211128806Y-92693294D01*
X211155602Y-92705159D01*
X211188133Y-92724607D01*
X211229474Y-92752712D01*
X211254737Y-92771309D01*
X211290807Y-92796436D01*
X211320909Y-92813198D01*
X211334625Y-92817462D01*
X211351895Y-92823978D01*
X211354051Y-92829452D01*
X211365507Y-92843187D01*
X211395198Y-92850101D01*
X211436114Y-92849791D01*
X211481239Y-92841852D01*
X211495484Y-92837614D01*
X211560260Y-92805524D01*
X211606561Y-92757806D01*
X211634830Y-92693389D01*
X211645510Y-92611206D01*
X211639046Y-92510185D01*
X211637068Y-92496271D01*
X211627009Y-92429080D01*
X211678426Y-92420393D01*
X211724103Y-92418754D01*
X211760681Y-92428474D01*
X211781472Y-92447182D01*
X211783897Y-92457783D01*
X211792092Y-92477678D01*
X211812487Y-92506010D01*
X211819717Y-92514314D01*
X211843712Y-92544330D01*
X211874967Y-92588326D01*
X211907522Y-92637836D01*
X211914153Y-92648444D01*
X211953508Y-92707001D01*
X212000644Y-92769926D01*
X212045445Y-92823721D01*
X212045992Y-92824328D01*
X212083534Y-92867566D01*
X212116774Y-92908737D01*
X212139582Y-92940185D01*
X212142461Y-92944817D01*
X212167951Y-92975904D01*
X212204850Y-93007978D01*
X212220699Y-93018930D01*
X212262621Y-93048680D01*
X212301724Y-93081545D01*
X212312282Y-93091883D01*
X212333924Y-93116063D01*
X212338002Y-93127211D01*
X212326007Y-93130065D01*
X212324293Y-93130077D01*
X212308196Y-93133470D01*
X212314791Y-93145156D01*
X212333138Y-93153474D01*
X212348096Y-93145108D01*
X212374287Y-93136332D01*
X212405459Y-93137810D01*
X212458756Y-93136370D01*
X212505818Y-93110202D01*
X212545434Y-93060141D01*
X212559879Y-93031470D01*
X212577465Y-92993872D01*
X212591295Y-92968221D01*
X212597377Y-92960744D01*
X212607500Y-92970769D01*
X212618595Y-92988770D01*
X212627201Y-93008522D01*
X212620090Y-93011283D01*
X212612541Y-93008717D01*
X212596133Y-93004148D01*
X212593205Y-93011775D01*
X212602909Y-93036631D01*
X212606499Y-93044570D01*
X212618622Y-93066285D01*
X212628840Y-93066088D01*
X212636689Y-93056763D01*
X212648218Y-93046261D01*
X212661437Y-93051340D01*
X212682376Y-93074796D01*
X212686329Y-93079785D01*
X212713184Y-93113281D01*
X212736610Y-93141505D01*
X212740806Y-93146359D01*
X212756956Y-93174088D01*
X212760820Y-93191862D01*
X212753919Y-93197249D01*
X212733007Y-93181482D01*
X212702409Y-93149529D01*
X212673365Y-93118981D01*
X212652385Y-93100333D01*
X212643818Y-93097427D01*
X212643794Y-93097745D01*
X212652277Y-93122179D01*
X212673998Y-93155637D01*
X212702563Y-93190017D01*
X212731581Y-93217218D01*
X212744912Y-93225928D01*
X212786365Y-93237553D01*
X212840759Y-93240940D01*
X212897201Y-93236564D01*
X212944802Y-93224902D01*
X212961964Y-93216435D01*
X213002112Y-93175934D01*
X213031160Y-93117641D01*
X213046063Y-93048536D01*
X213047384Y-93020647D01*
X213049242Y-92979976D01*
X213054022Y-92951096D01*
X213058417Y-92942437D01*
X213073308Y-92946704D01*
X213097490Y-92965552D01*
X213107263Y-92975200D01*
X213130150Y-93000831D01*
X213136251Y-93015798D01*
X213127538Y-93027509D01*
X213122282Y-93031532D01*
X213102431Y-93050150D01*
X213106195Y-93060800D01*
X213134453Y-93064821D01*
X213144229Y-93064949D01*
X213184936Y-93068325D01*
X213219126Y-93076312D01*
X213254724Y-93081108D01*
X213277907Y-93076984D01*
X213304812Y-93056464D01*
X213329504Y-93021528D01*
X213344930Y-92983355D01*
X213346974Y-92967485D01*
X213352144Y-92942873D01*
X213361348Y-92917568D01*
X212836654Y-92917568D01*
X212831614Y-92944358D01*
X212818265Y-92947038D01*
X212797154Y-92926925D01*
X212779753Y-92907106D01*
X212750679Y-92875618D01*
X212718275Y-92841426D01*
X212681594Y-92799174D01*
X212645356Y-92750680D01*
X212613528Y-92702092D01*
X212590079Y-92659555D01*
X212578975Y-92629216D01*
X212578583Y-92625011D01*
X212589272Y-92608193D01*
X212608503Y-92596985D01*
X212638014Y-92581135D01*
X212672987Y-92556389D01*
X212680336Y-92550397D01*
X212710175Y-92529928D01*
X212734247Y-92521275D01*
X212739374Y-92521850D01*
X212758028Y-92539625D01*
X212779034Y-92575279D01*
X212799255Y-92621223D01*
X212815556Y-92669870D01*
X212824802Y-92713631D01*
X212825806Y-92731002D01*
X212826657Y-92774497D01*
X212830113Y-92829289D01*
X212833603Y-92866308D01*
X212836654Y-92917568D01*
X213361348Y-92917568D01*
X213364967Y-92907621D01*
X213368976Y-92898453D01*
X213383287Y-92864717D01*
X213391710Y-92840611D01*
X213392458Y-92837000D01*
X213397322Y-92817165D01*
X213407590Y-92783953D01*
X213411011Y-92773709D01*
X213420198Y-92737387D01*
X213420752Y-92700378D01*
X213412738Y-92651178D01*
X213411720Y-92646327D01*
X213401305Y-92604284D01*
X213390909Y-92573561D01*
X213384190Y-92562311D01*
X213375182Y-92545163D01*
X213373025Y-92527234D01*
X213374121Y-92507929D01*
X213381538Y-92508979D01*
X213396843Y-92524746D01*
X213413432Y-92549336D01*
X213434699Y-92589896D01*
X213456241Y-92637981D01*
X213457729Y-92641615D01*
X213482003Y-92697664D01*
X213512926Y-92764034D01*
X213544628Y-92828203D01*
X213551142Y-92840815D01*
X213575769Y-92889383D01*
X213594936Y-92929757D01*
X213605916Y-92956068D01*
X213607487Y-92962211D01*
X213615855Y-92987285D01*
X213636813Y-93020215D01*
X213664136Y-93053482D01*
X213691602Y-93079566D01*
X213712988Y-93090948D01*
X213714063Y-93091000D01*
X213748047Y-93086946D01*
X213789080Y-93076804D01*
X213827452Y-93063607D01*
X213853453Y-93050386D01*
X213858031Y-93046044D01*
X213864013Y-93023032D01*
X213866611Y-92979736D01*
X213865982Y-92921683D01*
X213862282Y-92854399D01*
X213855668Y-92783410D01*
X213849145Y-92732795D01*
X213841378Y-92676841D01*
X213838100Y-92640800D01*
X213839589Y-92618874D01*
X213846123Y-92605266D01*
X213855712Y-92596026D01*
X213867594Y-92583318D01*
X213873273Y-92565867D01*
X213873388Y-92537108D01*
X213868578Y-92490474D01*
X213867128Y-92478795D01*
X213859359Y-92421703D01*
X213850876Y-92366500D01*
X213843630Y-92325744D01*
X213838352Y-92288756D01*
X213842382Y-92272226D01*
X213847887Y-92270385D01*
X213861397Y-92281236D01*
X213882854Y-92310114D01*
X213909048Y-92351502D01*
X213936771Y-92399883D01*
X213962816Y-92449741D01*
X213983973Y-92495560D01*
X213993855Y-92521365D01*
X214007361Y-92556308D01*
X214029166Y-92606842D01*
X214055878Y-92665280D01*
X214075666Y-92706744D01*
X214102454Y-92762972D01*
X214125514Y-92813527D01*
X214142002Y-92852047D01*
X214148448Y-92869564D01*
X214159503Y-92896593D01*
X214179887Y-92937538D01*
X214205414Y-92984044D01*
X214208314Y-92989067D01*
X214232323Y-93031584D01*
X214250135Y-93065311D01*
X214258511Y-93084061D01*
X214258769Y-93085461D01*
X214264092Y-93101400D01*
X214277891Y-93133035D01*
X214292861Y-93164599D01*
X214319712Y-93210774D01*
X214342948Y-93232577D01*
X214350391Y-93234282D01*
X214372622Y-93241047D01*
X214378541Y-93248420D01*
X214392616Y-93251975D01*
X214426190Y-93242596D01*
X214455387Y-93230656D01*
X214498579Y-93209173D01*
X214507796Y-93201718D01*
X214362974Y-93201718D01*
X214356461Y-93208231D01*
X214349948Y-93201718D01*
X214356461Y-93195205D01*
X214362974Y-93201718D01*
X214507796Y-93201718D01*
X214523602Y-93188934D01*
X214537289Y-93163873D01*
X214539878Y-93155668D01*
X214552150Y-93125186D01*
X214565615Y-93108262D01*
X214566915Y-93107686D01*
X214582776Y-93113621D01*
X214611745Y-93133740D01*
X214648253Y-93164060D01*
X214657899Y-93172762D01*
X214741555Y-93239680D01*
X214821888Y-93282716D01*
X214902340Y-93303147D01*
X214986352Y-93302249D01*
X215001230Y-93300068D01*
X215102316Y-93270793D01*
X215197904Y-93218816D01*
X215282570Y-93147487D01*
X215321916Y-93102002D01*
X215350486Y-93060616D01*
X215378072Y-93013475D01*
X215401882Y-92966428D01*
X215419122Y-92925325D01*
X215426998Y-92896016D01*
X215425298Y-92885495D01*
X215427039Y-92871643D01*
X215437283Y-92841990D01*
X215446610Y-92819522D01*
X215465961Y-92764851D01*
X215485870Y-92689376D01*
X215486327Y-92687205D01*
X215303706Y-92687205D01*
X215298302Y-92749972D01*
X215280769Y-92820073D01*
X215254195Y-92889892D01*
X215221669Y-92951813D01*
X215186278Y-92998218D01*
X215172778Y-93010156D01*
X215134749Y-93041217D01*
X215098786Y-93074471D01*
X215070309Y-93104464D01*
X215054738Y-93125738D01*
X215053333Y-93130382D01*
X215042562Y-93142212D01*
X215016568Y-93157657D01*
X214984831Y-93172058D01*
X214956831Y-93180756D01*
X214949128Y-93181597D01*
X214925754Y-93176459D01*
X214890464Y-93163556D01*
X214876691Y-93157581D01*
X214834680Y-93132742D01*
X214792962Y-93098724D01*
X214757416Y-93061497D01*
X214733925Y-93027034D01*
X214727750Y-93006333D01*
X214721935Y-92980343D01*
X214707215Y-92942003D01*
X214695073Y-92916203D01*
X214676938Y-92877708D01*
X214665137Y-92847384D01*
X214662564Y-92836067D01*
X214657178Y-92819208D01*
X214642344Y-92783457D01*
X214620042Y-92733329D01*
X214592257Y-92673342D01*
X214577401Y-92642050D01*
X214546125Y-92574284D01*
X214518295Y-92509503D01*
X214496359Y-92453739D01*
X214482766Y-92413019D01*
X214480357Y-92403058D01*
X214468921Y-92357856D01*
X214451237Y-92302201D01*
X214434699Y-92257359D01*
X214420276Y-92220064D01*
X214406374Y-92181191D01*
X214391835Y-92136920D01*
X214375498Y-92083432D01*
X214356203Y-92016910D01*
X214332791Y-91933533D01*
X214304101Y-91829483D01*
X214298208Y-91807974D01*
X214264960Y-91686772D01*
X214237685Y-91587916D01*
X214215584Y-91508596D01*
X214197857Y-91446002D01*
X214183705Y-91397326D01*
X214172328Y-91359758D01*
X214162926Y-91330488D01*
X214159209Y-91319513D01*
X214143683Y-91271088D01*
X214127244Y-91214847D01*
X214120314Y-91189256D01*
X214108695Y-91145408D01*
X214098844Y-91109381D01*
X214094647Y-91094820D01*
X214096393Y-91075626D01*
X214108355Y-91072026D01*
X214132732Y-91064949D01*
X214166843Y-91047419D01*
X214201850Y-91024987D01*
X214228914Y-91003204D01*
X214238880Y-90990059D01*
X214243527Y-90968199D01*
X214249407Y-90931789D01*
X214251664Y-90915718D01*
X214260490Y-90866794D01*
X214274249Y-90838361D01*
X214298428Y-90824866D01*
X214338512Y-90820753D01*
X214345598Y-90820611D01*
X214384835Y-90822908D01*
X214423252Y-90832907D01*
X214469230Y-90853348D01*
X214506756Y-90873322D01*
X214546601Y-90898258D01*
X214593981Y-90932359D01*
X214644500Y-90971884D01*
X214693761Y-91013091D01*
X214737370Y-91052240D01*
X214770930Y-91085589D01*
X214790047Y-91109399D01*
X214792820Y-91116786D01*
X214800498Y-91132403D01*
X214819533Y-91158463D01*
X214825384Y-91165581D01*
X214846512Y-91194646D01*
X214857505Y-91217494D01*
X214857948Y-91220727D01*
X214866927Y-91238577D01*
X214889719Y-91265228D01*
X214904519Y-91279551D01*
X214924659Y-91299339D01*
X214942285Y-91321159D01*
X214959216Y-91348761D01*
X214977269Y-91385894D01*
X214998261Y-91436307D01*
X215024010Y-91503751D01*
X215056334Y-91591975D01*
X215057445Y-91595038D01*
X215083611Y-91666009D01*
X215110837Y-91737821D01*
X215135817Y-91801863D01*
X215154436Y-91847622D01*
X215204670Y-91976928D01*
X215243989Y-92100074D01*
X215271703Y-92213781D01*
X215287120Y-92314770D01*
X215289550Y-92399760D01*
X215282007Y-92452744D01*
X215279871Y-92481928D01*
X215282248Y-92526833D01*
X215288446Y-92576487D01*
X215295873Y-92624777D01*
X215301345Y-92664419D01*
X215303699Y-92686977D01*
X215303706Y-92687205D01*
X215486327Y-92687205D01*
X215505082Y-92598282D01*
X215518071Y-92524121D01*
X215516253Y-92486357D01*
X215497280Y-92460230D01*
X215477999Y-92432758D01*
X215470464Y-92391773D01*
X215470077Y-92375827D01*
X215466903Y-92315824D01*
X215458474Y-92242703D01*
X215446233Y-92164999D01*
X215431620Y-92091248D01*
X215416079Y-92029986D01*
X215407138Y-92003359D01*
X215391733Y-91957639D01*
X215375052Y-91898527D01*
X215360527Y-91838252D01*
X215359621Y-91834026D01*
X215339586Y-91743082D01*
X215322602Y-91674662D01*
X215307559Y-91625571D01*
X215293347Y-91592614D01*
X215278859Y-91572598D01*
X215265646Y-91563441D01*
X215238086Y-91537293D01*
X215220982Y-91496470D01*
X215208561Y-91451522D01*
X215196668Y-91409589D01*
X215194960Y-91403708D01*
X215181048Y-91372681D01*
X215156276Y-91331130D01*
X215129618Y-91292990D01*
X215097169Y-91248572D01*
X215057585Y-91192248D01*
X215017850Y-91134005D01*
X215005468Y-91115421D01*
X214969775Y-91064981D01*
X214929653Y-91013872D01*
X214889006Y-90966440D01*
X214851738Y-90927034D01*
X214821754Y-90899998D01*
X214802959Y-90889680D01*
X214802680Y-90889674D01*
X214789692Y-90881531D01*
X214761474Y-90859365D01*
X214722177Y-90826555D01*
X214675956Y-90786485D01*
X214675780Y-90786329D01*
X214558558Y-90682992D01*
X214432213Y-90689291D01*
G36*
X203819052Y-90095583D02*
X203800772Y-90123037D01*
X203799179Y-90134918D01*
X203791035Y-90155629D01*
X203780099Y-90160231D01*
X203761678Y-90169221D01*
X203745526Y-90189059D01*
X203739072Y-90209040D01*
X203741666Y-90215606D01*
X203745984Y-90230800D01*
X203751656Y-90265446D01*
X203757675Y-90313051D01*
X203759647Y-90331293D01*
X203772264Y-90412706D01*
X203793895Y-90483552D01*
X203814953Y-90531462D01*
X203853023Y-90604970D01*
X203893466Y-90674002D01*
X203931836Y-90731296D01*
X203955487Y-90760986D01*
X203991230Y-90801621D01*
X204027165Y-90844182D01*
X204069529Y-90896130D01*
X204095701Y-90928744D01*
X204134395Y-90975568D01*
X204173791Y-91020703D01*
X204206079Y-91055234D01*
X204209239Y-91058373D01*
X204236017Y-91087847D01*
X204252527Y-91112197D01*
X204255076Y-91120245D01*
X204263044Y-91135819D01*
X204268102Y-91137154D01*
X204278721Y-91148052D01*
X204281128Y-91162940D01*
X204268134Y-91188576D01*
X204229238Y-91215183D01*
X204226585Y-91216552D01*
X204189631Y-91237242D01*
X204160859Y-91256545D01*
X204154014Y-91262407D01*
X204134600Y-91277478D01*
X204126396Y-91280436D01*
X204113195Y-91292068D01*
X204098305Y-91322082D01*
X204084272Y-91363157D01*
X204073643Y-91407969D01*
X204069102Y-91445191D01*
X204065035Y-91481246D01*
X204057873Y-91503151D01*
X204053179Y-91506399D01*
X204039593Y-91494607D01*
X204020902Y-91467332D01*
X204013581Y-91454296D01*
X203976489Y-91385025D01*
X203948216Y-91334200D01*
X203925860Y-91297001D01*
X203906518Y-91268609D01*
X203887287Y-91244204D01*
X203886417Y-91243169D01*
X203856908Y-91202687D01*
X203828528Y-91155406D01*
X203821763Y-91142220D01*
X203802851Y-91108953D01*
X203785840Y-91088339D01*
X203779367Y-91085051D01*
X203766341Y-91074129D01*
X203748325Y-91046013D01*
X203735389Y-91020095D01*
X203712630Y-90978042D01*
X203687171Y-90942890D01*
X203674452Y-90930297D01*
X203652141Y-90909159D01*
X203642871Y-90893249D01*
X203632610Y-90878817D01*
X203610901Y-90863933D01*
X203589760Y-90845936D01*
X203560423Y-90812997D01*
X203528444Y-90772305D01*
X203499374Y-90731046D01*
X203478765Y-90696409D01*
X203474813Y-90687769D01*
X203462628Y-90669582D01*
X203442249Y-90646139D01*
X203399857Y-90601036D01*
X203370792Y-90567914D01*
X203349796Y-90540494D01*
X203335269Y-90518436D01*
X203288226Y-90452002D01*
X203242403Y-90404386D01*
X203199936Y-90377091D01*
X203162959Y-90371622D01*
X203141215Y-90381807D01*
X203124786Y-90403398D01*
X203121846Y-90414739D01*
X203112229Y-90433800D01*
X203089488Y-90455478D01*
X203057130Y-90479359D01*
X203095088Y-90558673D01*
X203119589Y-90603048D01*
X203145709Y-90639852D01*
X203165408Y-90659192D01*
X203187544Y-90679710D01*
X203217930Y-90715614D01*
X203251012Y-90760193D01*
X203260756Y-90774440D01*
X203303842Y-90837549D01*
X203338123Y-90884340D01*
X203368320Y-90920764D01*
X203399153Y-90952770D01*
X203411666Y-90964683D01*
X203435199Y-90991183D01*
X203447123Y-91013408D01*
X203447487Y-91016332D01*
X203453302Y-91028837D01*
X203458270Y-91027822D01*
X203470919Y-91033577D01*
X203493320Y-91053726D01*
X203519645Y-91081784D01*
X203544066Y-91111265D01*
X203560756Y-91135684D01*
X203564717Y-91146271D01*
X203574502Y-91160728D01*
X203590530Y-91173058D01*
X203610983Y-91193606D01*
X203635075Y-91228536D01*
X203648541Y-91252720D01*
X203669767Y-91289536D01*
X203689645Y-91315738D01*
X203699212Y-91323350D01*
X203715651Y-91338520D01*
X203736280Y-91368906D01*
X203746048Y-91386848D01*
X203765322Y-91424542D01*
X203781241Y-91454588D01*
X203785837Y-91462795D01*
X203796035Y-91482898D01*
X203813725Y-91520285D01*
X203835844Y-91568425D01*
X203846962Y-91593051D01*
X203872449Y-91646280D01*
X203898011Y-91693741D01*
X203919455Y-91727849D01*
X203926073Y-91736200D01*
X203946689Y-91759935D01*
X203955336Y-91775631D01*
X203949103Y-91784804D01*
X203925077Y-91788965D01*
X203880346Y-91789628D01*
X203825230Y-91788603D01*
X203764198Y-91783731D01*
X203717265Y-91769298D01*
X203673341Y-91740784D01*
X203643086Y-91714358D01*
X203612601Y-91690774D01*
X203584686Y-91676210D01*
X203584256Y-91676077D01*
X203553770Y-91661342D01*
X203532153Y-91645942D01*
X203504070Y-91627678D01*
X203459844Y-91604826D01*
X203407976Y-91581242D01*
X203356970Y-91560780D01*
X203315325Y-91547297D01*
X203313807Y-91546916D01*
X203247460Y-91542537D01*
X203180612Y-91558513D01*
X203123672Y-91592178D01*
X203118331Y-91596968D01*
X203089466Y-91627386D01*
X203069140Y-91654860D01*
X203065158Y-91662903D01*
X203054741Y-91679248D01*
X203038439Y-91672233D01*
X203036932Y-91671000D01*
X203011407Y-91659903D01*
X202974253Y-91653809D01*
X202968386Y-91653549D01*
X202930448Y-91657404D01*
X202899313Y-91675088D01*
X202879146Y-91694298D01*
X202851131Y-91718498D01*
X202820303Y-91732116D01*
X202781790Y-91735309D01*
X202730722Y-91728229D01*
X202662227Y-91711034D01*
X202631585Y-91702165D01*
X202541630Y-91676719D01*
X202460694Y-91656103D01*
X202393326Y-91641366D01*
X202344076Y-91633556D01*
X202329452Y-91632586D01*
X202302637Y-91641676D01*
X202269664Y-91664835D01*
X202238226Y-91694944D01*
X202216020Y-91724880D01*
X202210051Y-91743083D01*
X202202532Y-91760258D01*
X202196256Y-91762385D01*
X202188193Y-91770229D01*
X202189933Y-91774472D01*
X202186067Y-91787616D01*
X202174379Y-91793868D01*
X202158063Y-91809525D01*
X202140526Y-91841030D01*
X202126078Y-91878775D01*
X202119025Y-91913151D01*
X202118871Y-91917674D01*
X202129379Y-91930337D01*
X202156401Y-91949659D01*
X202180743Y-91964011D01*
X202233831Y-92002107D01*
X202279417Y-92051175D01*
X202310467Y-92103011D01*
X202317451Y-92123504D01*
X202320785Y-92142744D01*
X202312759Y-92144821D01*
X202290152Y-92133187D01*
X202233357Y-92096602D01*
X202182117Y-92055048D01*
X202154156Y-92026154D01*
X202132578Y-92004940D01*
X202116862Y-91996846D01*
X202100180Y-91989147D01*
X202071233Y-91969339D01*
X202048081Y-91951256D01*
X202015728Y-91926074D01*
X201991349Y-91909517D01*
X201982771Y-91905667D01*
X201966397Y-91898802D01*
X201939988Y-91882179D01*
X201938523Y-91881146D01*
X201897882Y-91861139D01*
X201842630Y-91844740D01*
X201783747Y-91834243D01*
X201732207Y-91831941D01*
X201714034Y-91834254D01*
X201677070Y-91853016D01*
X201661924Y-91877565D01*
X201647704Y-91913796D01*
X201636923Y-91938231D01*
X201622993Y-91970350D01*
X201611060Y-92001161D01*
X201597088Y-92022994D01*
X201580507Y-92031863D01*
X201569148Y-92026031D01*
X201568861Y-92010532D01*
X201565034Y-92000770D01*
X201560142Y-92002510D01*
X201542330Y-92000657D01*
X201528185Y-91990453D01*
X201509058Y-91974560D01*
X201500701Y-91970795D01*
X201486770Y-91963087D01*
X201456320Y-91941802D01*
X201413126Y-91909700D01*
X201360961Y-91869540D01*
X201343846Y-91856112D01*
X201297228Y-91829262D01*
X201233376Y-91805410D01*
X201160792Y-91786475D01*
X201087978Y-91774376D01*
X201023436Y-91771033D01*
X200985974Y-91775331D01*
X200958978Y-91791406D01*
X200927237Y-91823988D01*
X200895725Y-91865879D01*
X200869416Y-91909881D01*
X200853282Y-91948795D01*
X200850927Y-91970795D01*
X200860460Y-92010343D01*
X200875360Y-92055446D01*
X200892216Y-92097193D01*
X200907617Y-92126669D01*
X200913232Y-92133615D01*
X200931582Y-92152901D01*
X200957993Y-92184009D01*
X200987758Y-92220940D01*
X201016168Y-92257696D01*
X201038517Y-92288278D01*
X201050097Y-92306687D01*
X201050769Y-92308875D01*
X201057904Y-92323045D01*
X201076635Y-92352350D01*
X201102955Y-92391069D01*
X201132855Y-92433478D01*
X201162326Y-92473853D01*
X201187359Y-92506471D01*
X201198674Y-92520043D01*
X201210886Y-92539989D01*
X201210333Y-92549350D01*
X201212700Y-92556368D01*
X201217931Y-92556949D01*
X201230694Y-92567708D01*
X201233128Y-92580395D01*
X201243947Y-92613172D01*
X201276005Y-92631324D01*
X201310992Y-92635103D01*
X201354691Y-92627862D01*
X201381321Y-92604368D01*
X201392878Y-92561964D01*
X201393365Y-92525393D01*
X201389868Y-92483365D01*
X201384286Y-92450176D01*
X201381322Y-92440726D01*
X201372683Y-92417814D01*
X201371022Y-92410833D01*
X201362509Y-92394632D01*
X201349524Y-92377692D01*
X201329464Y-92349162D01*
X201320625Y-92331680D01*
X201307778Y-92312840D01*
X201300187Y-92309462D01*
X201289348Y-92299287D01*
X201269964Y-92273301D01*
X201246415Y-92238312D01*
X201223081Y-92201128D01*
X201204343Y-92168555D01*
X201194580Y-92147403D01*
X201194051Y-92144506D01*
X201186704Y-92128490D01*
X201169860Y-92107151D01*
X201151316Y-92089039D01*
X201138864Y-92082703D01*
X201138125Y-92083165D01*
X201128633Y-92078001D01*
X201114357Y-92057418D01*
X201100191Y-92030183D01*
X201091031Y-92005063D01*
X201089846Y-91996690D01*
X201100491Y-91988051D01*
X201127236Y-91988312D01*
X201162292Y-91995979D01*
X201197871Y-92009555D01*
X201218321Y-92021352D01*
X201251438Y-92041411D01*
X201279155Y-92053736D01*
X201301468Y-92066832D01*
X201334380Y-92093233D01*
X201370335Y-92126802D01*
X201403783Y-92159005D01*
X201430522Y-92182311D01*
X201445021Y-92191913D01*
X201445344Y-92191947D01*
X201463648Y-92199532D01*
X201471395Y-92205060D01*
X201491234Y-92221100D01*
X201521053Y-92245075D01*
X201529717Y-92252023D01*
X201555556Y-92277967D01*
X201568474Y-92301406D01*
X201568794Y-92307057D01*
X201577458Y-92327550D01*
X201604359Y-92345438D01*
X201645522Y-92364503D01*
X201668158Y-92377322D01*
X201677854Y-92387501D01*
X201679828Y-92394128D01*
X201691023Y-92411468D01*
X201717905Y-92439152D01*
X201754856Y-92472527D01*
X201796259Y-92506942D01*
X201836499Y-92537744D01*
X201869959Y-92560281D01*
X201891021Y-92569901D01*
X201892124Y-92569974D01*
X201913362Y-92559490D01*
X201918427Y-92551346D01*
X201935049Y-92533875D01*
X201962326Y-92519906D01*
X201994475Y-92498229D01*
X202007874Y-92467043D01*
X202017576Y-92436671D01*
X202028619Y-92419607D01*
X202028694Y-92419560D01*
X202040992Y-92398120D01*
X202039853Y-92362955D01*
X202027454Y-92321193D01*
X202005972Y-92279962D01*
X201977584Y-92246392D01*
X201975179Y-92244333D01*
X201964090Y-92230747D01*
X201943595Y-92202437D01*
X201925166Y-92175815D01*
X201901510Y-92134387D01*
X201896724Y-92109980D01*
X201908969Y-92103812D01*
X201936404Y-92117101D01*
X201971138Y-92145385D01*
X202032050Y-92199440D01*
X202086433Y-92241856D01*
X202144923Y-92280594D01*
X202179578Y-92301390D01*
X202220403Y-92327465D01*
X202251731Y-92351465D01*
X202266944Y-92368306D01*
X202267076Y-92368629D01*
X202282044Y-92383517D01*
X202314652Y-92404538D01*
X202358536Y-92427703D01*
X202369914Y-92433081D01*
X202418407Y-92457418D01*
X202459950Y-92481720D01*
X202486703Y-92501334D01*
X202489265Y-92503921D01*
X202508837Y-92523097D01*
X202526083Y-92528633D01*
X202548890Y-92519990D01*
X202583960Y-92497424D01*
X202623919Y-92465473D01*
X202648408Y-92430808D01*
X202660579Y-92386174D01*
X202663584Y-92324315D01*
X202663462Y-92314428D01*
X202660905Y-92261895D01*
X202653688Y-92225686D01*
X202639223Y-92196158D01*
X202627189Y-92179205D01*
X202600518Y-92139350D01*
X202578703Y-92098716D01*
X202575513Y-92091282D01*
X202561293Y-92063060D01*
X202548571Y-92049231D01*
X202547137Y-92048949D01*
X202536833Y-92038445D01*
X202535692Y-92030390D01*
X202526819Y-92011871D01*
X202503889Y-91983313D01*
X202480680Y-91959487D01*
X202452593Y-91930261D01*
X202435958Y-91907946D01*
X202433913Y-91898899D01*
X202449131Y-91899438D01*
X202481239Y-91908706D01*
X202523381Y-91924711D01*
X202524745Y-91925282D01*
X202594527Y-91948691D01*
X202668186Y-91963594D01*
X202738463Y-91969302D01*
X202798103Y-91965126D01*
X202832600Y-91954546D01*
X202862477Y-91943437D01*
X202882636Y-91942619D01*
X202883590Y-91943151D01*
X202895642Y-91957635D01*
X202916535Y-91988438D01*
X202942071Y-92029325D01*
X202946031Y-92035923D01*
X202973914Y-92080243D01*
X202999999Y-92117651D01*
X203018994Y-92140596D01*
X203020133Y-92141656D01*
X203038674Y-92166134D01*
X203043692Y-92183248D01*
X203051712Y-92202119D01*
X203073065Y-92234431D01*
X203103691Y-92274230D01*
X203115188Y-92288049D01*
X203166361Y-92342757D01*
X203211733Y-92378162D01*
X203244607Y-92394445D01*
X203280341Y-92411061D01*
X203304475Y-92427796D01*
X203309314Y-92434243D01*
X203324898Y-92450244D01*
X203355156Y-92467970D01*
X203364465Y-92472130D01*
X203400970Y-92492150D01*
X203428695Y-92515478D01*
X203431886Y-92519541D01*
X203464227Y-92548735D01*
X203512974Y-92573851D01*
X203568483Y-92590802D01*
X203611691Y-92595740D01*
X203651825Y-92591237D01*
X203690083Y-92574445D01*
X203726352Y-92549315D01*
X203796827Y-92491991D01*
X203846569Y-92441357D01*
X203878081Y-92392321D01*
X203893867Y-92339794D01*
X203894595Y-92322415D01*
X203694181Y-92322415D01*
X203688680Y-92347789D01*
X203669977Y-92371454D01*
X203642605Y-92385794D01*
X203631809Y-92387201D01*
X203612533Y-92381021D01*
X203578438Y-92364378D01*
X203536687Y-92340789D01*
X203534117Y-92339243D01*
X203485329Y-92306046D01*
X203430122Y-92262415D01*
X203372059Y-92211891D01*
X203314704Y-92158014D01*
X203261621Y-92104324D01*
X203216375Y-92054360D01*
X203182528Y-92011664D01*
X203163645Y-91979775D01*
X203160923Y-91968556D01*
X203153875Y-91945015D01*
X203140087Y-91920793D01*
X203126738Y-91896423D01*
X203130683Y-91878203D01*
X203137568Y-91869049D01*
X203156203Y-91840765D01*
X203171970Y-91809432D01*
X203182052Y-91788823D01*
X203194562Y-91778383D01*
X203216827Y-91775844D01*
X203256171Y-91778940D01*
X203266881Y-91780051D01*
X203315592Y-91788096D01*
X203365102Y-91801051D01*
X203409298Y-91816657D01*
X203442066Y-91832652D01*
X203457291Y-91846778D01*
X203457469Y-91850504D01*
X203463794Y-91865629D01*
X203483790Y-91890973D01*
X203496333Y-91904247D01*
X203521845Y-91933498D01*
X203536923Y-91957814D01*
X203538666Y-91964637D01*
X203548551Y-91986909D01*
X203555700Y-91992942D01*
X203572347Y-92012599D01*
X203593416Y-92050525D01*
X203616140Y-92099951D01*
X203637753Y-92154106D01*
X203655490Y-92206221D01*
X203666583Y-92249523D01*
X203668923Y-92270071D01*
X203675009Y-92294817D01*
X203681948Y-92302949D01*
X203694181Y-92322415D01*
X203894595Y-92322415D01*
X203896430Y-92278685D01*
X203890106Y-92216361D01*
X203881339Y-92160742D01*
X203871535Y-92107963D01*
X203863056Y-92070429D01*
X203855651Y-92037662D01*
X203853740Y-92017536D01*
X203854471Y-92015366D01*
X203869632Y-92010706D01*
X203902358Y-92004718D01*
X203944402Y-91998498D01*
X203987519Y-91993144D01*
X204023462Y-91989752D01*
X204043986Y-91989419D01*
X204045715Y-91989925D01*
X204055909Y-92004527D01*
X204074015Y-92038128D01*
X204097551Y-92085842D01*
X204124030Y-92142780D01*
X204128703Y-92153154D01*
X204143857Y-92189935D01*
X204162684Y-92239665D01*
X204178257Y-92283410D01*
X204195028Y-92329047D01*
X204210611Y-92366163D01*
X204221260Y-92386124D01*
X204234004Y-92409735D01*
X204236086Y-92418688D01*
X204241388Y-92443440D01*
X204244564Y-92452744D01*
X204252293Y-92476819D01*
X204262873Y-92514416D01*
X204267216Y-92530897D01*
X204279108Y-92572583D01*
X204290903Y-92607192D01*
X204294399Y-92615564D01*
X204303240Y-92640182D01*
X204315835Y-92682035D01*
X204329781Y-92733042D01*
X204332928Y-92745223D01*
X204346611Y-92794806D01*
X204359508Y-92834704D01*
X204369339Y-92858042D01*
X204371226Y-92860668D01*
X204390023Y-92866544D01*
X204405906Y-92852719D01*
X204411384Y-92829718D01*
X204415544Y-92808287D01*
X204429836Y-92808434D01*
X204452828Y-92826117D01*
X204470710Y-92839247D01*
X204486146Y-92836788D01*
X204509213Y-92817333D01*
X204532734Y-92787878D01*
X204539666Y-92755120D01*
X204530277Y-92712556D01*
X204515054Y-92675456D01*
X204499740Y-92631501D01*
X204496374Y-92597024D01*
X204497619Y-92591086D01*
X204507360Y-92532099D01*
X204505180Y-92463913D01*
X204492462Y-92396914D01*
X204470592Y-92341489D01*
X204462690Y-92329000D01*
X204455631Y-92311227D01*
X204444544Y-92274527D01*
X204431311Y-92225345D01*
X204424638Y-92198744D01*
X204408147Y-92134737D01*
X204389971Y-92069341D01*
X204373435Y-92014411D01*
X204369832Y-92003359D01*
X204348582Y-91938361D01*
X204335635Y-91892973D01*
X204330620Y-91862240D01*
X204333168Y-91841207D01*
X204342910Y-91824918D01*
X204355561Y-91812041D01*
X204385520Y-91777478D01*
X204407649Y-91742846D01*
X204429899Y-91708919D01*
X204461287Y-91671810D01*
X204471540Y-91661464D01*
X204497912Y-91632216D01*
X204513646Y-91607197D01*
X204515589Y-91599593D01*
X204521009Y-91581405D01*
X204533979Y-91583445D01*
X204549566Y-91603075D01*
X204558179Y-91622359D01*
X204567727Y-91653416D01*
X204570862Y-91672983D01*
X204570682Y-91673996D01*
X204575317Y-91689419D01*
X204590398Y-91722848D01*
X204613477Y-91769650D01*
X204642106Y-91825197D01*
X204673837Y-91884855D01*
X204706220Y-91943995D01*
X204736807Y-91997986D01*
X204763150Y-92042196D01*
X204775816Y-92061974D01*
X204796102Y-92097444D01*
X204815062Y-92138226D01*
X204815603Y-92139569D01*
X204833216Y-92175532D01*
X204852100Y-92203011D01*
X204853798Y-92204799D01*
X204866606Y-92223631D01*
X204888645Y-92262610D01*
X204918148Y-92318263D01*
X204953347Y-92387120D01*
X204992475Y-92465712D01*
X205033765Y-92550568D01*
X205075451Y-92638217D01*
X205086191Y-92661154D01*
X205120850Y-92742003D01*
X205152262Y-92827536D01*
X205178418Y-92911177D01*
X205197304Y-92986348D01*
X205206909Y-93046475D01*
X205207618Y-93058161D01*
X205209689Y-93098400D01*
X205216494Y-93120330D01*
X205233895Y-93128025D01*
X205267754Y-93125565D01*
X205297948Y-93120982D01*
X205332246Y-93106786D01*
X205355682Y-93075153D01*
X205369114Y-93023846D01*
X205373403Y-92950629D01*
X205373075Y-92925599D01*
X205360460Y-92809761D01*
X205330145Y-92689212D01*
X205285156Y-92575026D01*
X205268328Y-92541959D01*
X205182623Y-92382528D01*
X205097529Y-92221448D01*
X205075446Y-92179226D01*
X205044405Y-92121806D01*
X205014530Y-92070106D01*
X204989471Y-92030243D01*
X204974376Y-92009892D01*
X204958213Y-91987074D01*
X204933383Y-91945840D01*
X204902711Y-91891152D01*
X204869022Y-91827974D01*
X204852028Y-91794949D01*
X204812576Y-91715235D01*
X204784913Y-91653974D01*
X204767495Y-91607240D01*
X204758774Y-91571107D01*
X204757111Y-91553974D01*
X204753063Y-91521269D01*
X204741735Y-91486994D01*
X204720448Y-91445111D01*
X204686527Y-91389581D01*
X204679168Y-91378128D01*
X204647404Y-91329514D01*
X204620521Y-91289447D01*
X204601812Y-91262767D01*
X204595036Y-91254385D01*
X204584472Y-91241316D01*
X204563242Y-91211768D01*
X204535066Y-91170980D01*
X204519959Y-91148639D01*
X204486581Y-91095456D01*
X204467104Y-91056500D01*
X204462838Y-91034461D01*
X204463534Y-91032872D01*
X204475760Y-91025305D01*
X204495679Y-91037029D01*
X204502943Y-91043532D01*
X204536120Y-91068739D01*
X204574169Y-91090674D01*
X204608124Y-91110404D01*
X204633113Y-91131031D01*
X204634030Y-91132098D01*
X204660979Y-91153293D01*
X204706435Y-91177522D01*
X204764686Y-91202840D01*
X204830017Y-91227301D01*
X204896718Y-91248960D01*
X204959076Y-91265870D01*
X205011379Y-91276087D01*
X205047914Y-91277665D01*
X205055946Y-91275805D01*
X205070854Y-91257646D01*
X205075692Y-91228742D01*
X205081199Y-91197829D01*
X205095650Y-91189256D01*
X205115977Y-91177680D01*
X205129508Y-91148193D01*
X205133241Y-91108660D01*
X205131794Y-91094646D01*
X205110759Y-91024697D01*
X205091630Y-90993024D01*
X204434242Y-90993024D01*
X204432460Y-90993872D01*
X204420573Y-90984702D01*
X204417897Y-90980846D01*
X204414578Y-90968669D01*
X204416360Y-90967820D01*
X204428247Y-90976990D01*
X204430923Y-90980846D01*
X204434242Y-90993024D01*
X205091630Y-90993024D01*
X205068583Y-90954867D01*
X205063684Y-90949409D01*
X204789128Y-90949409D01*
X204785433Y-90954132D01*
X204771369Y-90949514D01*
X204742466Y-90933648D01*
X204718018Y-90919069D01*
X204679334Y-90893126D01*
X204660120Y-90874361D01*
X204661976Y-90864595D01*
X204669331Y-90863615D01*
X204684321Y-90870566D01*
X204711243Y-90887768D01*
X204742452Y-90909749D01*
X204770307Y-90931034D01*
X204787164Y-90946150D01*
X204789128Y-90949409D01*
X205063684Y-90949409D01*
X205003428Y-90882289D01*
X204983590Y-90863615D01*
X204932177Y-90816215D01*
X204615292Y-90816215D01*
X204610544Y-90819177D01*
X204587471Y-90807575D01*
X204584855Y-90806153D01*
X204559691Y-90788754D01*
X204521909Y-90758224D01*
X204477571Y-90719589D01*
X204450461Y-90694719D01*
X204395598Y-90645411D01*
X204353622Y-90614459D01*
X204319987Y-90600860D01*
X204290145Y-90603613D01*
X204259548Y-90621716D01*
X204231551Y-90646502D01*
X204188486Y-90687769D01*
X204131758Y-90622641D01*
X204080187Y-90556264D01*
X204039524Y-90489563D01*
X204011536Y-90426797D01*
X203997988Y-90372225D01*
X204000644Y-90330108D01*
X204005869Y-90318876D01*
X204023689Y-90313439D01*
X204057664Y-90321825D01*
X204103632Y-90341556D01*
X204157430Y-90370150D01*
X204214895Y-90405128D01*
X204271864Y-90444009D01*
X204324174Y-90484312D01*
X204367663Y-90523558D01*
X204389178Y-90547264D01*
X204409293Y-90570335D01*
X204441363Y-90605250D01*
X204479134Y-90645225D01*
X204486871Y-90653279D01*
X204530719Y-90699175D01*
X204560471Y-90731674D01*
X204580362Y-90755884D01*
X204594629Y-90776918D01*
X204605888Y-90796841D01*
X204615292Y-90816215D01*
X204932177Y-90816215D01*
X204912485Y-90798061D01*
X204855983Y-90744654D01*
X204809085Y-90698386D01*
X204766790Y-90654249D01*
X204724097Y-90607235D01*
X204697948Y-90577553D01*
X204628481Y-90500836D01*
X204555872Y-90425492D01*
X204484447Y-90355682D01*
X204418535Y-90295565D01*
X204362463Y-90249300D01*
X204338356Y-90231913D01*
X204259147Y-90184506D01*
X204176240Y-90144688D01*
X204096175Y-90115026D01*
X204025489Y-90098089D01*
X203990045Y-90095103D01*
X203943186Y-90092917D01*
X203902455Y-90087331D01*
X203886274Y-90083000D01*
X203850574Y-90080437D01*
X203819052Y-90095583D01*
X203819052Y-90095583D01*
G37*
X203819052Y-90095583D02*
X203800772Y-90123037D01*
X203799179Y-90134918D01*
X203791035Y-90155629D01*
X203780099Y-90160231D01*
X203761678Y-90169221D01*
X203745526Y-90189059D01*
X203739072Y-90209040D01*
X203741666Y-90215606D01*
X203745984Y-90230800D01*
X203751656Y-90265446D01*
X203757675Y-90313051D01*
X203759647Y-90331293D01*
X203772264Y-90412706D01*
X203793895Y-90483552D01*
X203814953Y-90531462D01*
X203853023Y-90604970D01*
X203893466Y-90674002D01*
X203931836Y-90731296D01*
X203955487Y-90760986D01*
X203991230Y-90801621D01*
X204027165Y-90844182D01*
X204069529Y-90896130D01*
X204095701Y-90928744D01*
X204134395Y-90975568D01*
X204173791Y-91020703D01*
X204206079Y-91055234D01*
X204209239Y-91058373D01*
X204236017Y-91087847D01*
X204252527Y-91112197D01*
X204255076Y-91120245D01*
X204263044Y-91135819D01*
X204268102Y-91137154D01*
X204278721Y-91148052D01*
X204281128Y-91162940D01*
X204268134Y-91188576D01*
X204229238Y-91215183D01*
X204226585Y-91216552D01*
X204189631Y-91237242D01*
X204160859Y-91256545D01*
X204154014Y-91262407D01*
X204134600Y-91277478D01*
X204126396Y-91280436D01*
X204113195Y-91292068D01*
X204098305Y-91322082D01*
X204084272Y-91363157D01*
X204073643Y-91407969D01*
X204069102Y-91445191D01*
X204065035Y-91481246D01*
X204057873Y-91503151D01*
X204053179Y-91506399D01*
X204039593Y-91494607D01*
X204020902Y-91467332D01*
X204013581Y-91454296D01*
X203976489Y-91385025D01*
X203948216Y-91334200D01*
X203925860Y-91297001D01*
X203906518Y-91268609D01*
X203887287Y-91244204D01*
X203886417Y-91243169D01*
X203856908Y-91202687D01*
X203828528Y-91155406D01*
X203821763Y-91142220D01*
X203802851Y-91108953D01*
X203785840Y-91088339D01*
X203779367Y-91085051D01*
X203766341Y-91074129D01*
X203748325Y-91046013D01*
X203735389Y-91020095D01*
X203712630Y-90978042D01*
X203687171Y-90942890D01*
X203674452Y-90930297D01*
X203652141Y-90909159D01*
X203642871Y-90893249D01*
X203632610Y-90878817D01*
X203610901Y-90863933D01*
X203589760Y-90845936D01*
X203560423Y-90812997D01*
X203528444Y-90772305D01*
X203499374Y-90731046D01*
X203478765Y-90696409D01*
X203474813Y-90687769D01*
X203462628Y-90669582D01*
X203442249Y-90646139D01*
X203399857Y-90601036D01*
X203370792Y-90567914D01*
X203349796Y-90540494D01*
X203335269Y-90518436D01*
X203288226Y-90452002D01*
X203242403Y-90404386D01*
X203199936Y-90377091D01*
X203162959Y-90371622D01*
X203141215Y-90381807D01*
X203124786Y-90403398D01*
X203121846Y-90414739D01*
X203112229Y-90433800D01*
X203089488Y-90455478D01*
X203057130Y-90479359D01*
X203095088Y-90558673D01*
X203119589Y-90603048D01*
X203145709Y-90639852D01*
X203165408Y-90659192D01*
X203187544Y-90679710D01*
X203217930Y-90715614D01*
X203251012Y-90760193D01*
X203260756Y-90774440D01*
X203303842Y-90837549D01*
X203338123Y-90884340D01*
X203368320Y-90920764D01*
X203399153Y-90952770D01*
X203411666Y-90964683D01*
X203435199Y-90991183D01*
X203447123Y-91013408D01*
X203447487Y-91016332D01*
X203453302Y-91028837D01*
X203458270Y-91027822D01*
X203470919Y-91033577D01*
X203493320Y-91053726D01*
X203519645Y-91081784D01*
X203544066Y-91111265D01*
X203560756Y-91135684D01*
X203564717Y-91146271D01*
X203574502Y-91160728D01*
X203590530Y-91173058D01*
X203610983Y-91193606D01*
X203635075Y-91228536D01*
X203648541Y-91252720D01*
X203669767Y-91289536D01*
X203689645Y-91315738D01*
X203699212Y-91323350D01*
X203715651Y-91338520D01*
X203736280Y-91368906D01*
X203746048Y-91386848D01*
X203765322Y-91424542D01*
X203781241Y-91454588D01*
X203785837Y-91462795D01*
X203796035Y-91482898D01*
X203813725Y-91520285D01*
X203835844Y-91568425D01*
X203846962Y-91593051D01*
X203872449Y-91646280D01*
X203898011Y-91693741D01*
X203919455Y-91727849D01*
X203926073Y-91736200D01*
X203946689Y-91759935D01*
X203955336Y-91775631D01*
X203949103Y-91784804D01*
X203925077Y-91788965D01*
X203880346Y-91789628D01*
X203825230Y-91788603D01*
X203764198Y-91783731D01*
X203717265Y-91769298D01*
X203673341Y-91740784D01*
X203643086Y-91714358D01*
X203612601Y-91690774D01*
X203584686Y-91676210D01*
X203584256Y-91676077D01*
X203553770Y-91661342D01*
X203532153Y-91645942D01*
X203504070Y-91627678D01*
X203459844Y-91604826D01*
X203407976Y-91581242D01*
X203356970Y-91560780D01*
X203315325Y-91547297D01*
X203313807Y-91546916D01*
X203247460Y-91542537D01*
X203180612Y-91558513D01*
X203123672Y-91592178D01*
X203118331Y-91596968D01*
X203089466Y-91627386D01*
X203069140Y-91654860D01*
X203065158Y-91662903D01*
X203054741Y-91679248D01*
X203038439Y-91672233D01*
X203036932Y-91671000D01*
X203011407Y-91659903D01*
X202974253Y-91653809D01*
X202968386Y-91653549D01*
X202930448Y-91657404D01*
X202899313Y-91675088D01*
X202879146Y-91694298D01*
X202851131Y-91718498D01*
X202820303Y-91732116D01*
X202781790Y-91735309D01*
X202730722Y-91728229D01*
X202662227Y-91711034D01*
X202631585Y-91702165D01*
X202541630Y-91676719D01*
X202460694Y-91656103D01*
X202393326Y-91641366D01*
X202344076Y-91633556D01*
X202329452Y-91632586D01*
X202302637Y-91641676D01*
X202269664Y-91664835D01*
X202238226Y-91694944D01*
X202216020Y-91724880D01*
X202210051Y-91743083D01*
X202202532Y-91760258D01*
X202196256Y-91762385D01*
X202188193Y-91770229D01*
X202189933Y-91774472D01*
X202186067Y-91787616D01*
X202174379Y-91793868D01*
X202158063Y-91809525D01*
X202140526Y-91841030D01*
X202126078Y-91878775D01*
X202119025Y-91913151D01*
X202118871Y-91917674D01*
X202129379Y-91930337D01*
X202156401Y-91949659D01*
X202180743Y-91964011D01*
X202233831Y-92002107D01*
X202279417Y-92051175D01*
X202310467Y-92103011D01*
X202317451Y-92123504D01*
X202320785Y-92142744D01*
X202312759Y-92144821D01*
X202290152Y-92133187D01*
X202233357Y-92096602D01*
X202182117Y-92055048D01*
X202154156Y-92026154D01*
X202132578Y-92004940D01*
X202116862Y-91996846D01*
X202100180Y-91989147D01*
X202071233Y-91969339D01*
X202048081Y-91951256D01*
X202015728Y-91926074D01*
X201991349Y-91909517D01*
X201982771Y-91905667D01*
X201966397Y-91898802D01*
X201939988Y-91882179D01*
X201938523Y-91881146D01*
X201897882Y-91861139D01*
X201842630Y-91844740D01*
X201783747Y-91834243D01*
X201732207Y-91831941D01*
X201714034Y-91834254D01*
X201677070Y-91853016D01*
X201661924Y-91877565D01*
X201647704Y-91913796D01*
X201636923Y-91938231D01*
X201622993Y-91970350D01*
X201611060Y-92001161D01*
X201597088Y-92022994D01*
X201580507Y-92031863D01*
X201569148Y-92026031D01*
X201568861Y-92010532D01*
X201565034Y-92000770D01*
X201560142Y-92002510D01*
X201542330Y-92000657D01*
X201528185Y-91990453D01*
X201509058Y-91974560D01*
X201500701Y-91970795D01*
X201486770Y-91963087D01*
X201456320Y-91941802D01*
X201413126Y-91909700D01*
X201360961Y-91869540D01*
X201343846Y-91856112D01*
X201297228Y-91829262D01*
X201233376Y-91805410D01*
X201160792Y-91786475D01*
X201087978Y-91774376D01*
X201023436Y-91771033D01*
X200985974Y-91775331D01*
X200958978Y-91791406D01*
X200927237Y-91823988D01*
X200895725Y-91865879D01*
X200869416Y-91909881D01*
X200853282Y-91948795D01*
X200850927Y-91970795D01*
X200860460Y-92010343D01*
X200875360Y-92055446D01*
X200892216Y-92097193D01*
X200907617Y-92126669D01*
X200913232Y-92133615D01*
X200931582Y-92152901D01*
X200957993Y-92184009D01*
X200987758Y-92220940D01*
X201016168Y-92257696D01*
X201038517Y-92288278D01*
X201050097Y-92306687D01*
X201050769Y-92308875D01*
X201057904Y-92323045D01*
X201076635Y-92352350D01*
X201102955Y-92391069D01*
X201132855Y-92433478D01*
X201162326Y-92473853D01*
X201187359Y-92506471D01*
X201198674Y-92520043D01*
X201210886Y-92539989D01*
X201210333Y-92549350D01*
X201212700Y-92556368D01*
X201217931Y-92556949D01*
X201230694Y-92567708D01*
X201233128Y-92580395D01*
X201243947Y-92613172D01*
X201276005Y-92631324D01*
X201310992Y-92635103D01*
X201354691Y-92627862D01*
X201381321Y-92604368D01*
X201392878Y-92561964D01*
X201393365Y-92525393D01*
X201389868Y-92483365D01*
X201384286Y-92450176D01*
X201381322Y-92440726D01*
X201372683Y-92417814D01*
X201371022Y-92410833D01*
X201362509Y-92394632D01*
X201349524Y-92377692D01*
X201329464Y-92349162D01*
X201320625Y-92331680D01*
X201307778Y-92312840D01*
X201300187Y-92309462D01*
X201289348Y-92299287D01*
X201269964Y-92273301D01*
X201246415Y-92238312D01*
X201223081Y-92201128D01*
X201204343Y-92168555D01*
X201194580Y-92147403D01*
X201194051Y-92144506D01*
X201186704Y-92128490D01*
X201169860Y-92107151D01*
X201151316Y-92089039D01*
X201138864Y-92082703D01*
X201138125Y-92083165D01*
X201128633Y-92078001D01*
X201114357Y-92057418D01*
X201100191Y-92030183D01*
X201091031Y-92005063D01*
X201089846Y-91996690D01*
X201100491Y-91988051D01*
X201127236Y-91988312D01*
X201162292Y-91995979D01*
X201197871Y-92009555D01*
X201218321Y-92021352D01*
X201251438Y-92041411D01*
X201279155Y-92053736D01*
X201301468Y-92066832D01*
X201334380Y-92093233D01*
X201370335Y-92126802D01*
X201403783Y-92159005D01*
X201430522Y-92182311D01*
X201445021Y-92191913D01*
X201445344Y-92191947D01*
X201463648Y-92199532D01*
X201471395Y-92205060D01*
X201491234Y-92221100D01*
X201521053Y-92245075D01*
X201529717Y-92252023D01*
X201555556Y-92277967D01*
X201568474Y-92301406D01*
X201568794Y-92307057D01*
X201577458Y-92327550D01*
X201604359Y-92345438D01*
X201645522Y-92364503D01*
X201668158Y-92377322D01*
X201677854Y-92387501D01*
X201679828Y-92394128D01*
X201691023Y-92411468D01*
X201717905Y-92439152D01*
X201754856Y-92472527D01*
X201796259Y-92506942D01*
X201836499Y-92537744D01*
X201869959Y-92560281D01*
X201891021Y-92569901D01*
X201892124Y-92569974D01*
X201913362Y-92559490D01*
X201918427Y-92551346D01*
X201935049Y-92533875D01*
X201962326Y-92519906D01*
X201994475Y-92498229D01*
X202007874Y-92467043D01*
X202017576Y-92436671D01*
X202028619Y-92419607D01*
X202028694Y-92419560D01*
X202040992Y-92398120D01*
X202039853Y-92362955D01*
X202027454Y-92321193D01*
X202005972Y-92279962D01*
X201977584Y-92246392D01*
X201975179Y-92244333D01*
X201964090Y-92230747D01*
X201943595Y-92202437D01*
X201925166Y-92175815D01*
X201901510Y-92134387D01*
X201896724Y-92109980D01*
X201908969Y-92103812D01*
X201936404Y-92117101D01*
X201971138Y-92145385D01*
X202032050Y-92199440D01*
X202086433Y-92241856D01*
X202144923Y-92280594D01*
X202179578Y-92301390D01*
X202220403Y-92327465D01*
X202251731Y-92351465D01*
X202266944Y-92368306D01*
X202267076Y-92368629D01*
X202282044Y-92383517D01*
X202314652Y-92404538D01*
X202358536Y-92427703D01*
X202369914Y-92433081D01*
X202418407Y-92457418D01*
X202459950Y-92481720D01*
X202486703Y-92501334D01*
X202489265Y-92503921D01*
X202508837Y-92523097D01*
X202526083Y-92528633D01*
X202548890Y-92519990D01*
X202583960Y-92497424D01*
X202623919Y-92465473D01*
X202648408Y-92430808D01*
X202660579Y-92386174D01*
X202663584Y-92324315D01*
X202663462Y-92314428D01*
X202660905Y-92261895D01*
X202653688Y-92225686D01*
X202639223Y-92196158D01*
X202627189Y-92179205D01*
X202600518Y-92139350D01*
X202578703Y-92098716D01*
X202575513Y-92091282D01*
X202561293Y-92063060D01*
X202548571Y-92049231D01*
X202547137Y-92048949D01*
X202536833Y-92038445D01*
X202535692Y-92030390D01*
X202526819Y-92011871D01*
X202503889Y-91983313D01*
X202480680Y-91959487D01*
X202452593Y-91930261D01*
X202435958Y-91907946D01*
X202433913Y-91898899D01*
X202449131Y-91899438D01*
X202481239Y-91908706D01*
X202523381Y-91924711D01*
X202524745Y-91925282D01*
X202594527Y-91948691D01*
X202668186Y-91963594D01*
X202738463Y-91969302D01*
X202798103Y-91965126D01*
X202832600Y-91954546D01*
X202862477Y-91943437D01*
X202882636Y-91942619D01*
X202883590Y-91943151D01*
X202895642Y-91957635D01*
X202916535Y-91988438D01*
X202942071Y-92029325D01*
X202946031Y-92035923D01*
X202973914Y-92080243D01*
X202999999Y-92117651D01*
X203018994Y-92140596D01*
X203020133Y-92141656D01*
X203038674Y-92166134D01*
X203043692Y-92183248D01*
X203051712Y-92202119D01*
X203073065Y-92234431D01*
X203103691Y-92274230D01*
X203115188Y-92288049D01*
X203166361Y-92342757D01*
X203211733Y-92378162D01*
X203244607Y-92394445D01*
X203280341Y-92411061D01*
X203304475Y-92427796D01*
X203309314Y-92434243D01*
X203324898Y-92450244D01*
X203355156Y-92467970D01*
X203364465Y-92472130D01*
X203400970Y-92492150D01*
X203428695Y-92515478D01*
X203431886Y-92519541D01*
X203464227Y-92548735D01*
X203512974Y-92573851D01*
X203568483Y-92590802D01*
X203611691Y-92595740D01*
X203651825Y-92591237D01*
X203690083Y-92574445D01*
X203726352Y-92549315D01*
X203796827Y-92491991D01*
X203846569Y-92441357D01*
X203878081Y-92392321D01*
X203893867Y-92339794D01*
X203894595Y-92322415D01*
X203694181Y-92322415D01*
X203688680Y-92347789D01*
X203669977Y-92371454D01*
X203642605Y-92385794D01*
X203631809Y-92387201D01*
X203612533Y-92381021D01*
X203578438Y-92364378D01*
X203536687Y-92340789D01*
X203534117Y-92339243D01*
X203485329Y-92306046D01*
X203430122Y-92262415D01*
X203372059Y-92211891D01*
X203314704Y-92158014D01*
X203261621Y-92104324D01*
X203216375Y-92054360D01*
X203182528Y-92011664D01*
X203163645Y-91979775D01*
X203160923Y-91968556D01*
X203153875Y-91945015D01*
X203140087Y-91920793D01*
X203126738Y-91896423D01*
X203130683Y-91878203D01*
X203137568Y-91869049D01*
X203156203Y-91840765D01*
X203171970Y-91809432D01*
X203182052Y-91788823D01*
X203194562Y-91778383D01*
X203216827Y-91775844D01*
X203256171Y-91778940D01*
X203266881Y-91780051D01*
X203315592Y-91788096D01*
X203365102Y-91801051D01*
X203409298Y-91816657D01*
X203442066Y-91832652D01*
X203457291Y-91846778D01*
X203457469Y-91850504D01*
X203463794Y-91865629D01*
X203483790Y-91890973D01*
X203496333Y-91904247D01*
X203521845Y-91933498D01*
X203536923Y-91957814D01*
X203538666Y-91964637D01*
X203548551Y-91986909D01*
X203555700Y-91992942D01*
X203572347Y-92012599D01*
X203593416Y-92050525D01*
X203616140Y-92099951D01*
X203637753Y-92154106D01*
X203655490Y-92206221D01*
X203666583Y-92249523D01*
X203668923Y-92270071D01*
X203675009Y-92294817D01*
X203681948Y-92302949D01*
X203694181Y-92322415D01*
X203894595Y-92322415D01*
X203896430Y-92278685D01*
X203890106Y-92216361D01*
X203881339Y-92160742D01*
X203871535Y-92107963D01*
X203863056Y-92070429D01*
X203855651Y-92037662D01*
X203853740Y-92017536D01*
X203854471Y-92015366D01*
X203869632Y-92010706D01*
X203902358Y-92004718D01*
X203944402Y-91998498D01*
X203987519Y-91993144D01*
X204023462Y-91989752D01*
X204043986Y-91989419D01*
X204045715Y-91989925D01*
X204055909Y-92004527D01*
X204074015Y-92038128D01*
X204097551Y-92085842D01*
X204124030Y-92142780D01*
X204128703Y-92153154D01*
X204143857Y-92189935D01*
X204162684Y-92239665D01*
X204178257Y-92283410D01*
X204195028Y-92329047D01*
X204210611Y-92366163D01*
X204221260Y-92386124D01*
X204234004Y-92409735D01*
X204236086Y-92418688D01*
X204241388Y-92443440D01*
X204244564Y-92452744D01*
X204252293Y-92476819D01*
X204262873Y-92514416D01*
X204267216Y-92530897D01*
X204279108Y-92572583D01*
X204290903Y-92607192D01*
X204294399Y-92615564D01*
X204303240Y-92640182D01*
X204315835Y-92682035D01*
X204329781Y-92733042D01*
X204332928Y-92745223D01*
X204346611Y-92794806D01*
X204359508Y-92834704D01*
X204369339Y-92858042D01*
X204371226Y-92860668D01*
X204390023Y-92866544D01*
X204405906Y-92852719D01*
X204411384Y-92829718D01*
X204415544Y-92808287D01*
X204429836Y-92808434D01*
X204452828Y-92826117D01*
X204470710Y-92839247D01*
X204486146Y-92836788D01*
X204509213Y-92817333D01*
X204532734Y-92787878D01*
X204539666Y-92755120D01*
X204530277Y-92712556D01*
X204515054Y-92675456D01*
X204499740Y-92631501D01*
X204496374Y-92597024D01*
X204497619Y-92591086D01*
X204507360Y-92532099D01*
X204505180Y-92463913D01*
X204492462Y-92396914D01*
X204470592Y-92341489D01*
X204462690Y-92329000D01*
X204455631Y-92311227D01*
X204444544Y-92274527D01*
X204431311Y-92225345D01*
X204424638Y-92198744D01*
X204408147Y-92134737D01*
X204389971Y-92069341D01*
X204373435Y-92014411D01*
X204369832Y-92003359D01*
X204348582Y-91938361D01*
X204335635Y-91892973D01*
X204330620Y-91862240D01*
X204333168Y-91841207D01*
X204342910Y-91824918D01*
X204355561Y-91812041D01*
X204385520Y-91777478D01*
X204407649Y-91742846D01*
X204429899Y-91708919D01*
X204461287Y-91671810D01*
X204471540Y-91661464D01*
X204497912Y-91632216D01*
X204513646Y-91607197D01*
X204515589Y-91599593D01*
X204521009Y-91581405D01*
X204533979Y-91583445D01*
X204549566Y-91603075D01*
X204558179Y-91622359D01*
X204567727Y-91653416D01*
X204570862Y-91672983D01*
X204570682Y-91673996D01*
X204575317Y-91689419D01*
X204590398Y-91722848D01*
X204613477Y-91769650D01*
X204642106Y-91825197D01*
X204673837Y-91884855D01*
X204706220Y-91943995D01*
X204736807Y-91997986D01*
X204763150Y-92042196D01*
X204775816Y-92061974D01*
X204796102Y-92097444D01*
X204815062Y-92138226D01*
X204815603Y-92139569D01*
X204833216Y-92175532D01*
X204852100Y-92203011D01*
X204853798Y-92204799D01*
X204866606Y-92223631D01*
X204888645Y-92262610D01*
X204918148Y-92318263D01*
X204953347Y-92387120D01*
X204992475Y-92465712D01*
X205033765Y-92550568D01*
X205075451Y-92638217D01*
X205086191Y-92661154D01*
X205120850Y-92742003D01*
X205152262Y-92827536D01*
X205178418Y-92911177D01*
X205197304Y-92986348D01*
X205206909Y-93046475D01*
X205207618Y-93058161D01*
X205209689Y-93098400D01*
X205216494Y-93120330D01*
X205233895Y-93128025D01*
X205267754Y-93125565D01*
X205297948Y-93120982D01*
X205332246Y-93106786D01*
X205355682Y-93075153D01*
X205369114Y-93023846D01*
X205373403Y-92950629D01*
X205373075Y-92925599D01*
X205360460Y-92809761D01*
X205330145Y-92689212D01*
X205285156Y-92575026D01*
X205268328Y-92541959D01*
X205182623Y-92382528D01*
X205097529Y-92221448D01*
X205075446Y-92179226D01*
X205044405Y-92121806D01*
X205014530Y-92070106D01*
X204989471Y-92030243D01*
X204974376Y-92009892D01*
X204958213Y-91987074D01*
X204933383Y-91945840D01*
X204902711Y-91891152D01*
X204869022Y-91827974D01*
X204852028Y-91794949D01*
X204812576Y-91715235D01*
X204784913Y-91653974D01*
X204767495Y-91607240D01*
X204758774Y-91571107D01*
X204757111Y-91553974D01*
X204753063Y-91521269D01*
X204741735Y-91486994D01*
X204720448Y-91445111D01*
X204686527Y-91389581D01*
X204679168Y-91378128D01*
X204647404Y-91329514D01*
X204620521Y-91289447D01*
X204601812Y-91262767D01*
X204595036Y-91254385D01*
X204584472Y-91241316D01*
X204563242Y-91211768D01*
X204535066Y-91170980D01*
X204519959Y-91148639D01*
X204486581Y-91095456D01*
X204467104Y-91056500D01*
X204462838Y-91034461D01*
X204463534Y-91032872D01*
X204475760Y-91025305D01*
X204495679Y-91037029D01*
X204502943Y-91043532D01*
X204536120Y-91068739D01*
X204574169Y-91090674D01*
X204608124Y-91110404D01*
X204633113Y-91131031D01*
X204634030Y-91132098D01*
X204660979Y-91153293D01*
X204706435Y-91177522D01*
X204764686Y-91202840D01*
X204830017Y-91227301D01*
X204896718Y-91248960D01*
X204959076Y-91265870D01*
X205011379Y-91276087D01*
X205047914Y-91277665D01*
X205055946Y-91275805D01*
X205070854Y-91257646D01*
X205075692Y-91228742D01*
X205081199Y-91197829D01*
X205095650Y-91189256D01*
X205115977Y-91177680D01*
X205129508Y-91148193D01*
X205133241Y-91108660D01*
X205131794Y-91094646D01*
X205110759Y-91024697D01*
X205091630Y-90993024D01*
X204434242Y-90993024D01*
X204432460Y-90993872D01*
X204420573Y-90984702D01*
X204417897Y-90980846D01*
X204414578Y-90968669D01*
X204416360Y-90967820D01*
X204428247Y-90976990D01*
X204430923Y-90980846D01*
X204434242Y-90993024D01*
X205091630Y-90993024D01*
X205068583Y-90954867D01*
X205063684Y-90949409D01*
X204789128Y-90949409D01*
X204785433Y-90954132D01*
X204771369Y-90949514D01*
X204742466Y-90933648D01*
X204718018Y-90919069D01*
X204679334Y-90893126D01*
X204660120Y-90874361D01*
X204661976Y-90864595D01*
X204669331Y-90863615D01*
X204684321Y-90870566D01*
X204711243Y-90887768D01*
X204742452Y-90909749D01*
X204770307Y-90931034D01*
X204787164Y-90946150D01*
X204789128Y-90949409D01*
X205063684Y-90949409D01*
X205003428Y-90882289D01*
X204983590Y-90863615D01*
X204932177Y-90816215D01*
X204615292Y-90816215D01*
X204610544Y-90819177D01*
X204587471Y-90807575D01*
X204584855Y-90806153D01*
X204559691Y-90788754D01*
X204521909Y-90758224D01*
X204477571Y-90719589D01*
X204450461Y-90694719D01*
X204395598Y-90645411D01*
X204353622Y-90614459D01*
X204319987Y-90600860D01*
X204290145Y-90603613D01*
X204259548Y-90621716D01*
X204231551Y-90646502D01*
X204188486Y-90687769D01*
X204131758Y-90622641D01*
X204080187Y-90556264D01*
X204039524Y-90489563D01*
X204011536Y-90426797D01*
X203997988Y-90372225D01*
X204000644Y-90330108D01*
X204005869Y-90318876D01*
X204023689Y-90313439D01*
X204057664Y-90321825D01*
X204103632Y-90341556D01*
X204157430Y-90370150D01*
X204214895Y-90405128D01*
X204271864Y-90444009D01*
X204324174Y-90484312D01*
X204367663Y-90523558D01*
X204389178Y-90547264D01*
X204409293Y-90570335D01*
X204441363Y-90605250D01*
X204479134Y-90645225D01*
X204486871Y-90653279D01*
X204530719Y-90699175D01*
X204560471Y-90731674D01*
X204580362Y-90755884D01*
X204594629Y-90776918D01*
X204605888Y-90796841D01*
X204615292Y-90816215D01*
X204932177Y-90816215D01*
X204912485Y-90798061D01*
X204855983Y-90744654D01*
X204809085Y-90698386D01*
X204766790Y-90654249D01*
X204724097Y-90607235D01*
X204697948Y-90577553D01*
X204628481Y-90500836D01*
X204555872Y-90425492D01*
X204484447Y-90355682D01*
X204418535Y-90295565D01*
X204362463Y-90249300D01*
X204338356Y-90231913D01*
X204259147Y-90184506D01*
X204176240Y-90144688D01*
X204096175Y-90115026D01*
X204025489Y-90098089D01*
X203990045Y-90095103D01*
X203943186Y-90092917D01*
X203902455Y-90087331D01*
X203886274Y-90083000D01*
X203850574Y-90080437D01*
X203819052Y-90095583D01*
G36*
X205683494Y-91564382D02*
X205674871Y-91578431D01*
X205666519Y-91592806D01*
X205645443Y-91617808D01*
X205633820Y-91630094D01*
X205592768Y-91672083D01*
X205608648Y-91746541D01*
X205620041Y-91790542D01*
X205638109Y-91849851D01*
X205660029Y-91915515D01*
X205675750Y-91959377D01*
X205696172Y-92015257D01*
X205712728Y-92061913D01*
X205723586Y-92094091D01*
X205726974Y-92106286D01*
X205732229Y-92121181D01*
X205746242Y-92153532D01*
X205766389Y-92197363D01*
X205774920Y-92215396D01*
X205801749Y-92274300D01*
X205827901Y-92336079D01*
X205848154Y-92388348D01*
X205849818Y-92393042D01*
X205876769Y-92470110D01*
X205966353Y-92500208D01*
X206055936Y-92530306D01*
X206049724Y-92475192D01*
X206047942Y-92434080D01*
X206051215Y-92400234D01*
X206052940Y-92394078D01*
X206054637Y-92361905D01*
X206048184Y-92342026D01*
X206036570Y-92318860D01*
X206033012Y-92309462D01*
X206025744Y-92282107D01*
X206011025Y-92238755D01*
X205991864Y-92187269D01*
X205971272Y-92135509D01*
X205952259Y-92091338D01*
X205939791Y-92065995D01*
X205923342Y-92029359D01*
X205920905Y-92007680D01*
X205930686Y-92003888D01*
X205950893Y-92020916D01*
X205960251Y-92032543D01*
X205982666Y-92061921D01*
X205999870Y-92083619D01*
X206000371Y-92084219D01*
X206012269Y-92105593D01*
X206013538Y-92112442D01*
X206021837Y-92128478D01*
X206023307Y-92129273D01*
X206040731Y-92145753D01*
X206063356Y-92177920D01*
X206086277Y-92217451D01*
X206104587Y-92256022D01*
X206112691Y-92280942D01*
X206127693Y-92319836D01*
X206152795Y-92357422D01*
X206155285Y-92360194D01*
X206193953Y-92406729D01*
X206235314Y-92463952D01*
X206271455Y-92520520D01*
X206287498Y-92549740D01*
X206309610Y-92584634D01*
X206339671Y-92621555D01*
X206345692Y-92627894D01*
X206374940Y-92662376D01*
X206397659Y-92697151D01*
X206400772Y-92703487D01*
X206419448Y-92732073D01*
X206437363Y-92737164D01*
X206451142Y-92718175D01*
X206452828Y-92712520D01*
X206465847Y-92693023D01*
X206479129Y-92693136D01*
X206504593Y-92691492D01*
X206536983Y-92676245D01*
X206566888Y-92653637D01*
X206584898Y-92629913D01*
X206586666Y-92621783D01*
X206592898Y-92597292D01*
X206599692Y-92589513D01*
X206611938Y-92572082D01*
X206600682Y-92547769D01*
X206590374Y-92536466D01*
X206573233Y-92510795D01*
X206553850Y-92469873D01*
X206536201Y-92423751D01*
X206524257Y-92382476D01*
X206521419Y-92362064D01*
X206515861Y-92339716D01*
X206501708Y-92303760D01*
X206489262Y-92276897D01*
X206465710Y-92219974D01*
X206457248Y-92176952D01*
X206464341Y-92150742D01*
X206468625Y-92147142D01*
X206483455Y-92151373D01*
X206502964Y-92171869D01*
X206504446Y-92173979D01*
X206532215Y-92209831D01*
X206557359Y-92237613D01*
X206577785Y-92260706D01*
X206586655Y-92276103D01*
X206586666Y-92276380D01*
X206593548Y-92292587D01*
X206610258Y-92319018D01*
X206611686Y-92321039D01*
X206631408Y-92352039D01*
X206656022Y-92395345D01*
X206682375Y-92444779D01*
X206707319Y-92494161D01*
X206727700Y-92537313D01*
X206740368Y-92568055D01*
X206742974Y-92578479D01*
X206752898Y-92597478D01*
X206773383Y-92615350D01*
X206803131Y-92642258D01*
X206820198Y-92665930D01*
X206840786Y-92690865D01*
X206874478Y-92719455D01*
X206893550Y-92732580D01*
X206931321Y-92760095D01*
X206962070Y-92788758D01*
X206971349Y-92800403D01*
X206989663Y-92821450D01*
X207005643Y-92820713D01*
X207009526Y-92817854D01*
X207020603Y-92794849D01*
X207019705Y-92776162D01*
X207018586Y-92756295D01*
X207030819Y-92755474D01*
X207045330Y-92769480D01*
X207045820Y-92776756D01*
X207050210Y-92790049D01*
X207069918Y-92787580D01*
X207100392Y-92770435D01*
X207113458Y-92760612D01*
X207134504Y-92742531D01*
X207144617Y-92726083D01*
X207145711Y-92702787D01*
X207139699Y-92664160D01*
X207137696Y-92653215D01*
X207129881Y-92602352D01*
X207129869Y-92575460D01*
X207137997Y-92571551D01*
X207154603Y-92589639D01*
X207157858Y-92594206D01*
X207183043Y-92626965D01*
X207208641Y-92656670D01*
X207228654Y-92680184D01*
X207237878Y-92694680D01*
X207237948Y-92695230D01*
X207245709Y-92707951D01*
X207265977Y-92734457D01*
X207292090Y-92766278D01*
X207332420Y-92806528D01*
X207368821Y-92828685D01*
X207397822Y-92831226D01*
X207412715Y-92819208D01*
X207429352Y-92812657D01*
X207450462Y-92813813D01*
X207478144Y-92811134D01*
X207506423Y-92789199D01*
X207515901Y-92778503D01*
X207537797Y-92749072D01*
X207549880Y-92726211D01*
X207550700Y-92722026D01*
X207551276Y-92702786D01*
X207552697Y-92664423D01*
X207554703Y-92613840D01*
X207555654Y-92590709D01*
X207556921Y-92526930D01*
X207553856Y-92480964D01*
X207545539Y-92444796D01*
X207536265Y-92421376D01*
X207520794Y-92377792D01*
X207512307Y-92335435D01*
X207511773Y-92326092D01*
X207506090Y-92287654D01*
X207492227Y-92242363D01*
X207486452Y-92228400D01*
X207486172Y-92227769D01*
X207226916Y-92227769D01*
X207219053Y-92231308D01*
X207205909Y-92224795D01*
X206821128Y-92224795D01*
X206814615Y-92231308D01*
X206808102Y-92224795D01*
X206814615Y-92218282D01*
X206821128Y-92224795D01*
X207205909Y-92224795D01*
X207198170Y-92220961D01*
X207185846Y-92205256D01*
X207177802Y-92185142D01*
X207179333Y-92179205D01*
X207179962Y-92169662D01*
X207172820Y-92153154D01*
X207162655Y-92131145D01*
X207165395Y-92128661D01*
X207178935Y-92143934D01*
X207201170Y-92175196D01*
X207203838Y-92179205D01*
X207223264Y-92211650D01*
X207226916Y-92227769D01*
X207486172Y-92227769D01*
X207465851Y-92182120D01*
X207445759Y-92136327D01*
X207441422Y-92126312D01*
X207422850Y-92095033D01*
X207391466Y-92053536D01*
X207353279Y-92009615D01*
X207343512Y-91999312D01*
X207303102Y-91959015D01*
X207273726Y-91934701D01*
X207249479Y-91922559D01*
X207224457Y-91918780D01*
X207218580Y-91918692D01*
X207175793Y-91924658D01*
X207129330Y-91939421D01*
X207119976Y-91943616D01*
X207068391Y-91968539D01*
X207036570Y-91914240D01*
X207008699Y-91874336D01*
X206971028Y-91829730D01*
X206945109Y-91803101D01*
X206910155Y-91771669D01*
X206885143Y-91755867D01*
X206862486Y-91752051D01*
X206844000Y-91754554D01*
X206805324Y-91769696D01*
X206769172Y-91794820D01*
X206768205Y-91795734D01*
X206747852Y-91818622D01*
X206738880Y-91842425D01*
X206738371Y-91877506D01*
X206739833Y-91896451D01*
X206746447Y-91944189D01*
X206758036Y-92003874D01*
X206771937Y-92061974D01*
X206785453Y-92112502D01*
X206797027Y-92155827D01*
X206804418Y-92183556D01*
X206804991Y-92185718D01*
X206805008Y-92197605D01*
X206794613Y-92189954D01*
X206776195Y-92165915D01*
X206752143Y-92128639D01*
X206724843Y-92081276D01*
X206722328Y-92076662D01*
X206694298Y-92032790D01*
X206655118Y-91981153D01*
X206612561Y-91931892D01*
X206606205Y-91925166D01*
X206561774Y-91881332D01*
X206525272Y-91852739D01*
X206488724Y-91833994D01*
X206454405Y-91822555D01*
X206399392Y-91808194D01*
X206360972Y-91803848D01*
X206331146Y-91810936D01*
X206301914Y-91830873D01*
X206276675Y-91854048D01*
X206244243Y-91888159D01*
X206227719Y-91915994D01*
X206222195Y-91946942D01*
X206221948Y-91958711D01*
X206220651Y-91991241D01*
X206214590Y-92003014D01*
X206200507Y-91999278D01*
X206197696Y-91997809D01*
X206179826Y-91980949D01*
X206154025Y-91947776D01*
X206125149Y-91904674D01*
X206117823Y-91892774D01*
X206062641Y-91815530D01*
X205992563Y-91738410D01*
X205914829Y-91668301D01*
X205836681Y-91612089D01*
X205802311Y-91592654D01*
X205751441Y-91570936D01*
X205710410Y-91561353D01*
X205683494Y-91564382D01*
X205683494Y-91564382D01*
G37*
X205683494Y-91564382D02*
X205674871Y-91578431D01*
X205666519Y-91592806D01*
X205645443Y-91617808D01*
X205633820Y-91630094D01*
X205592768Y-91672083D01*
X205608648Y-91746541D01*
X205620041Y-91790542D01*
X205638109Y-91849851D01*
X205660029Y-91915515D01*
X205675750Y-91959377D01*
X205696172Y-92015257D01*
X205712728Y-92061913D01*
X205723586Y-92094091D01*
X205726974Y-92106286D01*
X205732229Y-92121181D01*
X205746242Y-92153532D01*
X205766389Y-92197363D01*
X205774920Y-92215396D01*
X205801749Y-92274300D01*
X205827901Y-92336079D01*
X205848154Y-92388348D01*
X205849818Y-92393042D01*
X205876769Y-92470110D01*
X205966353Y-92500208D01*
X206055936Y-92530306D01*
X206049724Y-92475192D01*
X206047942Y-92434080D01*
X206051215Y-92400234D01*
X206052940Y-92394078D01*
X206054637Y-92361905D01*
X206048184Y-92342026D01*
X206036570Y-92318860D01*
X206033012Y-92309462D01*
X206025744Y-92282107D01*
X206011025Y-92238755D01*
X205991864Y-92187269D01*
X205971272Y-92135509D01*
X205952259Y-92091338D01*
X205939791Y-92065995D01*
X205923342Y-92029359D01*
X205920905Y-92007680D01*
X205930686Y-92003888D01*
X205950893Y-92020916D01*
X205960251Y-92032543D01*
X205982666Y-92061921D01*
X205999870Y-92083619D01*
X206000371Y-92084219D01*
X206012269Y-92105593D01*
X206013538Y-92112442D01*
X206021837Y-92128478D01*
X206023307Y-92129273D01*
X206040731Y-92145753D01*
X206063356Y-92177920D01*
X206086277Y-92217451D01*
X206104587Y-92256022D01*
X206112691Y-92280942D01*
X206127693Y-92319836D01*
X206152795Y-92357422D01*
X206155285Y-92360194D01*
X206193953Y-92406729D01*
X206235314Y-92463952D01*
X206271455Y-92520520D01*
X206287498Y-92549740D01*
X206309610Y-92584634D01*
X206339671Y-92621555D01*
X206345692Y-92627894D01*
X206374940Y-92662376D01*
X206397659Y-92697151D01*
X206400772Y-92703487D01*
X206419448Y-92732073D01*
X206437363Y-92737164D01*
X206451142Y-92718175D01*
X206452828Y-92712520D01*
X206465847Y-92693023D01*
X206479129Y-92693136D01*
X206504593Y-92691492D01*
X206536983Y-92676245D01*
X206566888Y-92653637D01*
X206584898Y-92629913D01*
X206586666Y-92621783D01*
X206592898Y-92597292D01*
X206599692Y-92589513D01*
X206611938Y-92572082D01*
X206600682Y-92547769D01*
X206590374Y-92536466D01*
X206573233Y-92510795D01*
X206553850Y-92469873D01*
X206536201Y-92423751D01*
X206524257Y-92382476D01*
X206521419Y-92362064D01*
X206515861Y-92339716D01*
X206501708Y-92303760D01*
X206489262Y-92276897D01*
X206465710Y-92219974D01*
X206457248Y-92176952D01*
X206464341Y-92150742D01*
X206468625Y-92147142D01*
X206483455Y-92151373D01*
X206502964Y-92171869D01*
X206504446Y-92173979D01*
X206532215Y-92209831D01*
X206557359Y-92237613D01*
X206577785Y-92260706D01*
X206586655Y-92276103D01*
X206586666Y-92276380D01*
X206593548Y-92292587D01*
X206610258Y-92319018D01*
X206611686Y-92321039D01*
X206631408Y-92352039D01*
X206656022Y-92395345D01*
X206682375Y-92444779D01*
X206707319Y-92494161D01*
X206727700Y-92537313D01*
X206740368Y-92568055D01*
X206742974Y-92578479D01*
X206752898Y-92597478D01*
X206773383Y-92615350D01*
X206803131Y-92642258D01*
X206820198Y-92665930D01*
X206840786Y-92690865D01*
X206874478Y-92719455D01*
X206893550Y-92732580D01*
X206931321Y-92760095D01*
X206962070Y-92788758D01*
X206971349Y-92800403D01*
X206989663Y-92821450D01*
X207005643Y-92820713D01*
X207009526Y-92817854D01*
X207020603Y-92794849D01*
X207019705Y-92776162D01*
X207018586Y-92756295D01*
X207030819Y-92755474D01*
X207045330Y-92769480D01*
X207045820Y-92776756D01*
X207050210Y-92790049D01*
X207069918Y-92787580D01*
X207100392Y-92770435D01*
X207113458Y-92760612D01*
X207134504Y-92742531D01*
X207144617Y-92726083D01*
X207145711Y-92702787D01*
X207139699Y-92664160D01*
X207137696Y-92653215D01*
X207129881Y-92602352D01*
X207129869Y-92575460D01*
X207137997Y-92571551D01*
X207154603Y-92589639D01*
X207157858Y-92594206D01*
X207183043Y-92626965D01*
X207208641Y-92656670D01*
X207228654Y-92680184D01*
X207237878Y-92694680D01*
X207237948Y-92695230D01*
X207245709Y-92707951D01*
X207265977Y-92734457D01*
X207292090Y-92766278D01*
X207332420Y-92806528D01*
X207368821Y-92828685D01*
X207397822Y-92831226D01*
X207412715Y-92819208D01*
X207429352Y-92812657D01*
X207450462Y-92813813D01*
X207478144Y-92811134D01*
X207506423Y-92789199D01*
X207515901Y-92778503D01*
X207537797Y-92749072D01*
X207549880Y-92726211D01*
X207550700Y-92722026D01*
X207551276Y-92702786D01*
X207552697Y-92664423D01*
X207554703Y-92613840D01*
X207555654Y-92590709D01*
X207556921Y-92526930D01*
X207553856Y-92480964D01*
X207545539Y-92444796D01*
X207536265Y-92421376D01*
X207520794Y-92377792D01*
X207512307Y-92335435D01*
X207511773Y-92326092D01*
X207506090Y-92287654D01*
X207492227Y-92242363D01*
X207486452Y-92228400D01*
X207486172Y-92227769D01*
X207226916Y-92227769D01*
X207219053Y-92231308D01*
X207205909Y-92224795D01*
X206821128Y-92224795D01*
X206814615Y-92231308D01*
X206808102Y-92224795D01*
X206814615Y-92218282D01*
X206821128Y-92224795D01*
X207205909Y-92224795D01*
X207198170Y-92220961D01*
X207185846Y-92205256D01*
X207177802Y-92185142D01*
X207179333Y-92179205D01*
X207179962Y-92169662D01*
X207172820Y-92153154D01*
X207162655Y-92131145D01*
X207165395Y-92128661D01*
X207178935Y-92143934D01*
X207201170Y-92175196D01*
X207203838Y-92179205D01*
X207223264Y-92211650D01*
X207226916Y-92227769D01*
X207486172Y-92227769D01*
X207465851Y-92182120D01*
X207445759Y-92136327D01*
X207441422Y-92126312D01*
X207422850Y-92095033D01*
X207391466Y-92053536D01*
X207353279Y-92009615D01*
X207343512Y-91999312D01*
X207303102Y-91959015D01*
X207273726Y-91934701D01*
X207249479Y-91922559D01*
X207224457Y-91918780D01*
X207218580Y-91918692D01*
X207175793Y-91924658D01*
X207129330Y-91939421D01*
X207119976Y-91943616D01*
X207068391Y-91968539D01*
X207036570Y-91914240D01*
X207008699Y-91874336D01*
X206971028Y-91829730D01*
X206945109Y-91803101D01*
X206910155Y-91771669D01*
X206885143Y-91755867D01*
X206862486Y-91752051D01*
X206844000Y-91754554D01*
X206805324Y-91769696D01*
X206769172Y-91794820D01*
X206768205Y-91795734D01*
X206747852Y-91818622D01*
X206738880Y-91842425D01*
X206738371Y-91877506D01*
X206739833Y-91896451D01*
X206746447Y-91944189D01*
X206758036Y-92003874D01*
X206771937Y-92061974D01*
X206785453Y-92112502D01*
X206797027Y-92155827D01*
X206804418Y-92183556D01*
X206804991Y-92185718D01*
X206805008Y-92197605D01*
X206794613Y-92189954D01*
X206776195Y-92165915D01*
X206752143Y-92128639D01*
X206724843Y-92081276D01*
X206722328Y-92076662D01*
X206694298Y-92032790D01*
X206655118Y-91981153D01*
X206612561Y-91931892D01*
X206606205Y-91925166D01*
X206561774Y-91881332D01*
X206525272Y-91852739D01*
X206488724Y-91833994D01*
X206454405Y-91822555D01*
X206399392Y-91808194D01*
X206360972Y-91803848D01*
X206331146Y-91810936D01*
X206301914Y-91830873D01*
X206276675Y-91854048D01*
X206244243Y-91888159D01*
X206227719Y-91915994D01*
X206222195Y-91946942D01*
X206221948Y-91958711D01*
X206220651Y-91991241D01*
X206214590Y-92003014D01*
X206200507Y-91999278D01*
X206197696Y-91997809D01*
X206179826Y-91980949D01*
X206154025Y-91947776D01*
X206125149Y-91904674D01*
X206117823Y-91892774D01*
X206062641Y-91815530D01*
X205992563Y-91738410D01*
X205914829Y-91668301D01*
X205836681Y-91612089D01*
X205802311Y-91592654D01*
X205751441Y-91570936D01*
X205710410Y-91561353D01*
X205683494Y-91564382D01*
G36*
X206623691Y-90023561D02*
X206590920Y-90044512D01*
X206543993Y-90081470D01*
X206505058Y-90114615D01*
X206488576Y-90141645D01*
X206490260Y-90170198D01*
X206502593Y-90201693D01*
X206527560Y-90249259D01*
X206562202Y-90308098D01*
X206603563Y-90373413D01*
X206648684Y-90440403D01*
X206694607Y-90504272D01*
X206703394Y-90515941D01*
X206739247Y-90565794D01*
X206776104Y-90621484D01*
X206810922Y-90677857D01*
X206840659Y-90729759D01*
X206862272Y-90772036D01*
X206872719Y-90799533D01*
X206873230Y-90803671D01*
X206883142Y-90821302D01*
X206899282Y-90834541D01*
X206919752Y-90853838D01*
X206925333Y-90867802D01*
X206934114Y-90886764D01*
X206956084Y-90913671D01*
X206965421Y-90923050D01*
X206992084Y-90954723D01*
X207022506Y-91000028D01*
X207048404Y-91045974D01*
X207089186Y-91125566D01*
X207121304Y-91185757D01*
X207147238Y-91230697D01*
X207169465Y-91264535D01*
X207190463Y-91291420D01*
X207204020Y-91306487D01*
X207231557Y-91338399D01*
X207263528Y-91379421D01*
X207295898Y-91423821D01*
X207324630Y-91465862D01*
X207345687Y-91499809D01*
X207355034Y-91519928D01*
X207355179Y-91521263D01*
X207363435Y-91537680D01*
X207383708Y-91562699D01*
X207387714Y-91566970D01*
X207412522Y-91596118D01*
X207443840Y-91637255D01*
X207469125Y-91673097D01*
X207514764Y-91738334D01*
X207566598Y-91808958D01*
X207620059Y-91879044D01*
X207670581Y-91942669D01*
X207713597Y-91993908D01*
X207732461Y-92014724D01*
X207766485Y-92051389D01*
X207797364Y-92085916D01*
X207810291Y-92101051D01*
X207832831Y-92128040D01*
X207864915Y-92166082D01*
X207895766Y-92202435D01*
X207933873Y-92253496D01*
X207952778Y-92293953D01*
X207954596Y-92306640D01*
X207965566Y-92353133D01*
X207998303Y-92406912D01*
X208053408Y-92468667D01*
X208131482Y-92539087D01*
X208216075Y-92606061D01*
X208264344Y-92639057D01*
X208304688Y-92655726D01*
X208347093Y-92658655D01*
X208393529Y-92652019D01*
X208422433Y-92637317D01*
X208453184Y-92608949D01*
X208477823Y-92575818D01*
X208488392Y-92546825D01*
X208488410Y-92545883D01*
X208483909Y-92523934D01*
X208471950Y-92485150D01*
X208454845Y-92436845D01*
X208449333Y-92422309D01*
X208431135Y-92372159D01*
X208417455Y-92328948D01*
X208410624Y-92300227D01*
X208410256Y-92295853D01*
X208404889Y-92271790D01*
X208390837Y-92233001D01*
X208371752Y-92189221D01*
X208347709Y-92135341D01*
X208320632Y-92070309D01*
X208296101Y-92007558D01*
X208294535Y-92003359D01*
X208200624Y-91776022D01*
X208150044Y-91671205D01*
X208124737Y-91616943D01*
X208099027Y-91555057D01*
X208085655Y-91519185D01*
X208065993Y-91470745D01*
X208037615Y-91410507D01*
X208005506Y-91348832D01*
X207992953Y-91326461D01*
X207965550Y-91277798D01*
X207943908Y-91237385D01*
X207930852Y-91210612D01*
X207928307Y-91203148D01*
X207921503Y-91187201D01*
X207903891Y-91157232D01*
X207885383Y-91128846D01*
X207857383Y-91083573D01*
X207826070Y-91027018D01*
X207799633Y-90974333D01*
X207775813Y-90926523D01*
X207752845Y-90885277D01*
X207735314Y-90858775D01*
X207733907Y-90857103D01*
X207716278Y-90832120D01*
X207694189Y-90793982D01*
X207670440Y-90748532D01*
X207647829Y-90701611D01*
X207629156Y-90659064D01*
X207617220Y-90626731D01*
X207614821Y-90610456D01*
X207615414Y-90609787D01*
X207635582Y-90610150D01*
X207669910Y-90622367D01*
X207711277Y-90643263D01*
X207752565Y-90669662D01*
X207757072Y-90672971D01*
X207793986Y-90697554D01*
X207841468Y-90725385D01*
X207871463Y-90741345D01*
X207911927Y-90765261D01*
X207960302Y-90798899D01*
X208010654Y-90837506D01*
X208057051Y-90876330D01*
X208093561Y-90910618D01*
X208114252Y-90935619D01*
X208114478Y-90936017D01*
X208116203Y-90950009D01*
X208096909Y-90954705D01*
X208091128Y-90954795D01*
X208045030Y-90962727D01*
X208006833Y-90983369D01*
X207979633Y-91011984D01*
X207966524Y-91043840D01*
X207970602Y-91074201D01*
X207994961Y-91098332D01*
X207996692Y-91099252D01*
X208026225Y-91119205D01*
X208057796Y-91146931D01*
X208059400Y-91148556D01*
X208094525Y-91178851D01*
X208131943Y-91203581D01*
X208163656Y-91230012D01*
X208192937Y-91270156D01*
X208199096Y-91281735D01*
X208247216Y-91359212D01*
X208304357Y-91414220D01*
X208327202Y-91428354D01*
X208351186Y-91445057D01*
X208388599Y-91475616D01*
X208434276Y-91515646D01*
X208481897Y-91559666D01*
X208529528Y-91603333D01*
X208572957Y-91640345D01*
X208607439Y-91666836D01*
X208628225Y-91678941D01*
X208628435Y-91679001D01*
X208651201Y-91689248D01*
X208657743Y-91697782D01*
X208667706Y-91710384D01*
X208693969Y-91733350D01*
X208731096Y-91762689D01*
X208773647Y-91794407D01*
X208816186Y-91824512D01*
X208853276Y-91849013D01*
X208879477Y-91863915D01*
X208887659Y-91866590D01*
X208901775Y-91855694D01*
X208905230Y-91839770D01*
X208909919Y-91821521D01*
X208917356Y-91820444D01*
X208932908Y-91818419D01*
X208945293Y-91793319D01*
X208953890Y-91747995D01*
X208958076Y-91685300D01*
X208958071Y-91633503D01*
X208947437Y-91590715D01*
X208918439Y-91534531D01*
X208873009Y-91467888D01*
X208813078Y-91393724D01*
X208766500Y-91342063D01*
X208730318Y-91302285D01*
X208702172Y-91269045D01*
X208686074Y-91247195D01*
X208683794Y-91241993D01*
X208673080Y-91228841D01*
X208658770Y-91222146D01*
X208641875Y-91210785D01*
X208610003Y-91183987D01*
X208566534Y-91144799D01*
X208530648Y-91111103D01*
X208301667Y-91111103D01*
X208290583Y-91102606D01*
X208273487Y-91085051D01*
X208260200Y-91066346D01*
X208261822Y-91059000D01*
X208277262Y-91068828D01*
X208290002Y-91085051D01*
X208300790Y-91104954D01*
X208301667Y-91111103D01*
X208530648Y-91111103D01*
X208514848Y-91096268D01*
X208459063Y-91042166D01*
X208359734Y-90945101D01*
X208275136Y-90864346D01*
X208202145Y-90797242D01*
X208137637Y-90741128D01*
X208078487Y-90693347D01*
X208021571Y-90651238D01*
X207963763Y-90612143D01*
X207924633Y-90587338D01*
X207858159Y-90547597D01*
X207783231Y-90505128D01*
X207712393Y-90466971D01*
X207687333Y-90454152D01*
X207633161Y-90427512D01*
X207595387Y-90411151D01*
X207567270Y-90403369D01*
X207542072Y-90402470D01*
X207513056Y-90406753D01*
X207505282Y-90408263D01*
X207453514Y-90422218D01*
X207422006Y-90442746D01*
X207404976Y-90475637D01*
X207397752Y-90515974D01*
X207397148Y-90564421D01*
X207403485Y-90620522D01*
X207414973Y-90674804D01*
X207429818Y-90717796D01*
X207438891Y-90733359D01*
X207454017Y-90757027D01*
X207473334Y-90792531D01*
X207479568Y-90805000D01*
X207502740Y-90847187D01*
X207528014Y-90885819D01*
X207533161Y-90892591D01*
X207554247Y-90923804D01*
X207579601Y-90967794D01*
X207597916Y-91003309D01*
X207622553Y-91051326D01*
X207647933Y-91096651D01*
X207663225Y-91121304D01*
X207684728Y-91159932D01*
X207699282Y-91197801D01*
X207700227Y-91201685D01*
X207714937Y-91237139D01*
X207739619Y-91272819D01*
X207742017Y-91275478D01*
X207765339Y-91306216D01*
X207795681Y-91353849D01*
X207829266Y-91411566D01*
X207862318Y-91472552D01*
X207891059Y-91529995D01*
X207911714Y-91577083D01*
X207916394Y-91590038D01*
X207930516Y-91626655D01*
X207952057Y-91675627D01*
X207975939Y-91725509D01*
X207996962Y-91768453D01*
X208012413Y-91801940D01*
X208019360Y-91819574D01*
X208019487Y-91820445D01*
X208024606Y-91834863D01*
X208038484Y-91867762D01*
X208058899Y-91913998D01*
X208079598Y-91959652D01*
X208106896Y-92023098D01*
X208131175Y-92086699D01*
X208150890Y-92145517D01*
X208164495Y-92194614D01*
X208170447Y-92229051D01*
X208168285Y-92243159D01*
X208156824Y-92237499D01*
X208132575Y-92215077D01*
X208098875Y-92179590D01*
X208059062Y-92134737D01*
X208016474Y-92084214D01*
X207974450Y-92031720D01*
X207957693Y-92009872D01*
X207923898Y-91965694D01*
X207894956Y-91928846D01*
X207875157Y-91904742D01*
X207870017Y-91899154D01*
X207855380Y-91882042D01*
X207831592Y-91851003D01*
X207809730Y-91821000D01*
X207779502Y-91779645D01*
X207750747Y-91741986D01*
X207735646Y-91723308D01*
X207680736Y-91657868D01*
X207635857Y-91602185D01*
X207594837Y-91548157D01*
X207551506Y-91487677D01*
X207504974Y-91420362D01*
X207463033Y-91358972D01*
X207422463Y-91299380D01*
X207387481Y-91247793D01*
X207362303Y-91210418D01*
X207359283Y-91205898D01*
X207326666Y-91158288D01*
X207291426Y-91108767D01*
X207276750Y-91088826D01*
X207253487Y-91053619D01*
X207223696Y-91002690D01*
X207191863Y-90943923D01*
X207171893Y-90904628D01*
X207139217Y-90842529D01*
X207103294Y-90780845D01*
X207069502Y-90728553D01*
X207052529Y-90705469D01*
X207019932Y-90661416D01*
X206991304Y-90617400D01*
X206975428Y-90588187D01*
X206954956Y-90553979D01*
X206918700Y-90504966D01*
X206869467Y-90444591D01*
X206810065Y-90376297D01*
X206743406Y-90303640D01*
X206715728Y-90268131D01*
X206684843Y-90219357D01*
X206658369Y-90169724D01*
X206616115Y-90081271D01*
X206641413Y-90049110D01*
X206657303Y-90026938D01*
X206656678Y-90018270D01*
X206644690Y-90016949D01*
X206623691Y-90023561D01*
X206623691Y-90023561D01*
G37*
X206623691Y-90023561D02*
X206590920Y-90044512D01*
X206543993Y-90081470D01*
X206505058Y-90114615D01*
X206488576Y-90141645D01*
X206490260Y-90170198D01*
X206502593Y-90201693D01*
X206527560Y-90249259D01*
X206562202Y-90308098D01*
X206603563Y-90373413D01*
X206648684Y-90440403D01*
X206694607Y-90504272D01*
X206703394Y-90515941D01*
X206739247Y-90565794D01*
X206776104Y-90621484D01*
X206810922Y-90677857D01*
X206840659Y-90729759D01*
X206862272Y-90772036D01*
X206872719Y-90799533D01*
X206873230Y-90803671D01*
X206883142Y-90821302D01*
X206899282Y-90834541D01*
X206919752Y-90853838D01*
X206925333Y-90867802D01*
X206934114Y-90886764D01*
X206956084Y-90913671D01*
X206965421Y-90923050D01*
X206992084Y-90954723D01*
X207022506Y-91000028D01*
X207048404Y-91045974D01*
X207089186Y-91125566D01*
X207121304Y-91185757D01*
X207147238Y-91230697D01*
X207169465Y-91264535D01*
X207190463Y-91291420D01*
X207204020Y-91306487D01*
X207231557Y-91338399D01*
X207263528Y-91379421D01*
X207295898Y-91423821D01*
X207324630Y-91465862D01*
X207345687Y-91499809D01*
X207355034Y-91519928D01*
X207355179Y-91521263D01*
X207363435Y-91537680D01*
X207383708Y-91562699D01*
X207387714Y-91566970D01*
X207412522Y-91596118D01*
X207443840Y-91637255D01*
X207469125Y-91673097D01*
X207514764Y-91738334D01*
X207566598Y-91808958D01*
X207620059Y-91879044D01*
X207670581Y-91942669D01*
X207713597Y-91993908D01*
X207732461Y-92014724D01*
X207766485Y-92051389D01*
X207797364Y-92085916D01*
X207810291Y-92101051D01*
X207832831Y-92128040D01*
X207864915Y-92166082D01*
X207895766Y-92202435D01*
X207933873Y-92253496D01*
X207952778Y-92293953D01*
X207954596Y-92306640D01*
X207965566Y-92353133D01*
X207998303Y-92406912D01*
X208053408Y-92468667D01*
X208131482Y-92539087D01*
X208216075Y-92606061D01*
X208264344Y-92639057D01*
X208304688Y-92655726D01*
X208347093Y-92658655D01*
X208393529Y-92652019D01*
X208422433Y-92637317D01*
X208453184Y-92608949D01*
X208477823Y-92575818D01*
X208488392Y-92546825D01*
X208488410Y-92545883D01*
X208483909Y-92523934D01*
X208471950Y-92485150D01*
X208454845Y-92436845D01*
X208449333Y-92422309D01*
X208431135Y-92372159D01*
X208417455Y-92328948D01*
X208410624Y-92300227D01*
X208410256Y-92295853D01*
X208404889Y-92271790D01*
X208390837Y-92233001D01*
X208371752Y-92189221D01*
X208347709Y-92135341D01*
X208320632Y-92070309D01*
X208296101Y-92007558D01*
X208294535Y-92003359D01*
X208200624Y-91776022D01*
X208150044Y-91671205D01*
X208124737Y-91616943D01*
X208099027Y-91555057D01*
X208085655Y-91519185D01*
X208065993Y-91470745D01*
X208037615Y-91410507D01*
X208005506Y-91348832D01*
X207992953Y-91326461D01*
X207965550Y-91277798D01*
X207943908Y-91237385D01*
X207930852Y-91210612D01*
X207928307Y-91203148D01*
X207921503Y-91187201D01*
X207903891Y-91157232D01*
X207885383Y-91128846D01*
X207857383Y-91083573D01*
X207826070Y-91027018D01*
X207799633Y-90974333D01*
X207775813Y-90926523D01*
X207752845Y-90885277D01*
X207735314Y-90858775D01*
X207733907Y-90857103D01*
X207716278Y-90832120D01*
X207694189Y-90793982D01*
X207670440Y-90748532D01*
X207647829Y-90701611D01*
X207629156Y-90659064D01*
X207617220Y-90626731D01*
X207614821Y-90610456D01*
X207615414Y-90609787D01*
X207635582Y-90610150D01*
X207669910Y-90622367D01*
X207711277Y-90643263D01*
X207752565Y-90669662D01*
X207757072Y-90672971D01*
X207793986Y-90697554D01*
X207841468Y-90725385D01*
X207871463Y-90741345D01*
X207911927Y-90765261D01*
X207960302Y-90798899D01*
X208010654Y-90837506D01*
X208057051Y-90876330D01*
X208093561Y-90910618D01*
X208114252Y-90935619D01*
X208114478Y-90936017D01*
X208116203Y-90950009D01*
X208096909Y-90954705D01*
X208091128Y-90954795D01*
X208045030Y-90962727D01*
X208006833Y-90983369D01*
X207979633Y-91011984D01*
X207966524Y-91043840D01*
X207970602Y-91074201D01*
X207994961Y-91098332D01*
X207996692Y-91099252D01*
X208026225Y-91119205D01*
X208057796Y-91146931D01*
X208059400Y-91148556D01*
X208094525Y-91178851D01*
X208131943Y-91203581D01*
X208163656Y-91230012D01*
X208192937Y-91270156D01*
X208199096Y-91281735D01*
X208247216Y-91359212D01*
X208304357Y-91414220D01*
X208327202Y-91428354D01*
X208351186Y-91445057D01*
X208388599Y-91475616D01*
X208434276Y-91515646D01*
X208481897Y-91559666D01*
X208529528Y-91603333D01*
X208572957Y-91640345D01*
X208607439Y-91666836D01*
X208628225Y-91678941D01*
X208628435Y-91679001D01*
X208651201Y-91689248D01*
X208657743Y-91697782D01*
X208667706Y-91710384D01*
X208693969Y-91733350D01*
X208731096Y-91762689D01*
X208773647Y-91794407D01*
X208816186Y-91824512D01*
X208853276Y-91849013D01*
X208879477Y-91863915D01*
X208887659Y-91866590D01*
X208901775Y-91855694D01*
X208905230Y-91839770D01*
X208909919Y-91821521D01*
X208917356Y-91820444D01*
X208932908Y-91818419D01*
X208945293Y-91793319D01*
X208953890Y-91747995D01*
X208958076Y-91685300D01*
X208958071Y-91633503D01*
X208947437Y-91590715D01*
X208918439Y-91534531D01*
X208873009Y-91467888D01*
X208813078Y-91393724D01*
X208766500Y-91342063D01*
X208730318Y-91302285D01*
X208702172Y-91269045D01*
X208686074Y-91247195D01*
X208683794Y-91241993D01*
X208673080Y-91228841D01*
X208658770Y-91222146D01*
X208641875Y-91210785D01*
X208610003Y-91183987D01*
X208566534Y-91144799D01*
X208530648Y-91111103D01*
X208301667Y-91111103D01*
X208290583Y-91102606D01*
X208273487Y-91085051D01*
X208260200Y-91066346D01*
X208261822Y-91059000D01*
X208277262Y-91068828D01*
X208290002Y-91085051D01*
X208300790Y-91104954D01*
X208301667Y-91111103D01*
X208530648Y-91111103D01*
X208514848Y-91096268D01*
X208459063Y-91042166D01*
X208359734Y-90945101D01*
X208275136Y-90864346D01*
X208202145Y-90797242D01*
X208137637Y-90741128D01*
X208078487Y-90693347D01*
X208021571Y-90651238D01*
X207963763Y-90612143D01*
X207924633Y-90587338D01*
X207858159Y-90547597D01*
X207783231Y-90505128D01*
X207712393Y-90466971D01*
X207687333Y-90454152D01*
X207633161Y-90427512D01*
X207595387Y-90411151D01*
X207567270Y-90403369D01*
X207542072Y-90402470D01*
X207513056Y-90406753D01*
X207505282Y-90408263D01*
X207453514Y-90422218D01*
X207422006Y-90442746D01*
X207404976Y-90475637D01*
X207397752Y-90515974D01*
X207397148Y-90564421D01*
X207403485Y-90620522D01*
X207414973Y-90674804D01*
X207429818Y-90717796D01*
X207438891Y-90733359D01*
X207454017Y-90757027D01*
X207473334Y-90792531D01*
X207479568Y-90805000D01*
X207502740Y-90847187D01*
X207528014Y-90885819D01*
X207533161Y-90892591D01*
X207554247Y-90923804D01*
X207579601Y-90967794D01*
X207597916Y-91003309D01*
X207622553Y-91051326D01*
X207647933Y-91096651D01*
X207663225Y-91121304D01*
X207684728Y-91159932D01*
X207699282Y-91197801D01*
X207700227Y-91201685D01*
X207714937Y-91237139D01*
X207739619Y-91272819D01*
X207742017Y-91275478D01*
X207765339Y-91306216D01*
X207795681Y-91353849D01*
X207829266Y-91411566D01*
X207862318Y-91472552D01*
X207891059Y-91529995D01*
X207911714Y-91577083D01*
X207916394Y-91590038D01*
X207930516Y-91626655D01*
X207952057Y-91675627D01*
X207975939Y-91725509D01*
X207996962Y-91768453D01*
X208012413Y-91801940D01*
X208019360Y-91819574D01*
X208019487Y-91820445D01*
X208024606Y-91834863D01*
X208038484Y-91867762D01*
X208058899Y-91913998D01*
X208079598Y-91959652D01*
X208106896Y-92023098D01*
X208131175Y-92086699D01*
X208150890Y-92145517D01*
X208164495Y-92194614D01*
X208170447Y-92229051D01*
X208168285Y-92243159D01*
X208156824Y-92237499D01*
X208132575Y-92215077D01*
X208098875Y-92179590D01*
X208059062Y-92134737D01*
X208016474Y-92084214D01*
X207974450Y-92031720D01*
X207957693Y-92009872D01*
X207923898Y-91965694D01*
X207894956Y-91928846D01*
X207875157Y-91904742D01*
X207870017Y-91899154D01*
X207855380Y-91882042D01*
X207831592Y-91851003D01*
X207809730Y-91821000D01*
X207779502Y-91779645D01*
X207750747Y-91741986D01*
X207735646Y-91723308D01*
X207680736Y-91657868D01*
X207635857Y-91602185D01*
X207594837Y-91548157D01*
X207551506Y-91487677D01*
X207504974Y-91420362D01*
X207463033Y-91358972D01*
X207422463Y-91299380D01*
X207387481Y-91247793D01*
X207362303Y-91210418D01*
X207359283Y-91205898D01*
X207326666Y-91158288D01*
X207291426Y-91108767D01*
X207276750Y-91088826D01*
X207253487Y-91053619D01*
X207223696Y-91002690D01*
X207191863Y-90943923D01*
X207171893Y-90904628D01*
X207139217Y-90842529D01*
X207103294Y-90780845D01*
X207069502Y-90728553D01*
X207052529Y-90705469D01*
X207019932Y-90661416D01*
X206991304Y-90617400D01*
X206975428Y-90588187D01*
X206954956Y-90553979D01*
X206918700Y-90504966D01*
X206869467Y-90444591D01*
X206810065Y-90376297D01*
X206743406Y-90303640D01*
X206715728Y-90268131D01*
X206684843Y-90219357D01*
X206658369Y-90169724D01*
X206616115Y-90081271D01*
X206641413Y-90049110D01*
X206657303Y-90026938D01*
X206656678Y-90018270D01*
X206644690Y-90016949D01*
X206623691Y-90023561D01*
M02*
