G04 #@! TF.FileFunction,Legend,Top*
%FSLAX46Y46*%
G04 Gerber Fmt 4.6, Leading zero omitted, Abs format (unit mm)*
G04 Created by KiCad (PCBNEW 4.0.7) date 04/29/18 15:58:17*
%MOMM*%
%LPD*%
G01*
G04 APERTURE LIST*
%ADD10C,0.100000*%
%ADD11C,0.300000*%
%ADD12C,0.150000*%
%ADD13C,0.120000*%
G04 APERTURE END LIST*
D10*
D11*
X230568643Y-89229500D02*
X230425786Y-89158071D01*
X230211500Y-89158071D01*
X229997215Y-89229500D01*
X229854357Y-89372357D01*
X229782929Y-89515214D01*
X229711500Y-89800929D01*
X229711500Y-90015214D01*
X229782929Y-90300929D01*
X229854357Y-90443786D01*
X229997215Y-90586643D01*
X230211500Y-90658071D01*
X230354357Y-90658071D01*
X230568643Y-90586643D01*
X230640072Y-90515214D01*
X230640072Y-90015214D01*
X230354357Y-90015214D01*
X231282929Y-90658071D02*
X231282929Y-89158071D01*
X232140072Y-90658071D01*
X232140072Y-89158071D01*
X232854358Y-90658071D02*
X232854358Y-89158071D01*
X233211501Y-89158071D01*
X233425786Y-89229500D01*
X233568644Y-89372357D01*
X233640072Y-89515214D01*
X233711501Y-89800929D01*
X233711501Y-90015214D01*
X233640072Y-90300929D01*
X233568644Y-90443786D01*
X233425786Y-90586643D01*
X233211501Y-90658071D01*
X232854358Y-90658071D01*
X220940644Y-90213643D02*
X222083501Y-90213643D01*
X221512072Y-90785071D02*
X221512072Y-89642214D01*
X223583501Y-90785071D02*
X222726358Y-90785071D01*
X223154930Y-90785071D02*
X223154930Y-89285071D01*
X223012073Y-89499357D01*
X222869215Y-89642214D01*
X222726358Y-89713643D01*
X224154929Y-89427929D02*
X224226358Y-89356500D01*
X224369215Y-89285071D01*
X224726358Y-89285071D01*
X224869215Y-89356500D01*
X224940644Y-89427929D01*
X225012072Y-89570786D01*
X225012072Y-89713643D01*
X224940644Y-89927929D01*
X224083501Y-90785071D01*
X225012072Y-90785071D01*
X225440643Y-89285071D02*
X225940643Y-90785071D01*
X226440643Y-89285071D01*
X206672571Y-90467285D02*
X205172571Y-90467285D01*
X205172571Y-89895857D01*
X205244000Y-89752999D01*
X205315429Y-89681571D01*
X205458286Y-89610142D01*
X205672571Y-89610142D01*
X205815429Y-89681571D01*
X205886857Y-89752999D01*
X205958286Y-89895857D01*
X205958286Y-90467285D01*
X206672571Y-88752999D02*
X206601143Y-88895857D01*
X206529714Y-88967285D01*
X206386857Y-89038714D01*
X205958286Y-89038714D01*
X205815429Y-88967285D01*
X205744000Y-88895857D01*
X205672571Y-88752999D01*
X205672571Y-88538714D01*
X205744000Y-88395857D01*
X205815429Y-88324428D01*
X205958286Y-88252999D01*
X206386857Y-88252999D01*
X206529714Y-88324428D01*
X206601143Y-88395857D01*
X206672571Y-88538714D01*
X206672571Y-88752999D01*
X205672571Y-87752999D02*
X206672571Y-87467285D01*
X205958286Y-87181571D01*
X206672571Y-86895856D01*
X205672571Y-86610142D01*
X206601143Y-85467285D02*
X206672571Y-85610142D01*
X206672571Y-85895856D01*
X206601143Y-86038713D01*
X206458286Y-86110142D01*
X205886857Y-86110142D01*
X205744000Y-86038713D01*
X205672571Y-85895856D01*
X205672571Y-85610142D01*
X205744000Y-85467285D01*
X205886857Y-85395856D01*
X206029714Y-85395856D01*
X206172571Y-86110142D01*
X206672571Y-84752999D02*
X205672571Y-84752999D01*
X205958286Y-84752999D02*
X205815429Y-84681571D01*
X205744000Y-84610142D01*
X205672571Y-84467285D01*
X205672571Y-84324428D01*
D12*
X244165120Y-83240880D02*
G75*
G03X244165120Y-83240880I-4013200J0D01*
G01*
X199453500Y-125285500D02*
G75*
G03X199453500Y-125285500I-1270000J0D01*
G01*
X205803500Y-127825500D02*
X205803500Y-122745500D01*
X205803500Y-122745500D02*
X200723500Y-122745500D01*
X200723500Y-122745500D02*
X200723500Y-127825500D01*
X200723500Y-127825500D02*
X205803500Y-127825500D01*
X195643500Y-118935500D02*
X195643500Y-117665500D01*
X195643500Y-117665500D02*
X210883500Y-117665500D01*
X210883500Y-117665500D02*
X210883500Y-118935500D01*
X195643500Y-132905500D02*
X195643500Y-118935500D01*
X195643500Y-117665500D02*
X210883500Y-117665500D01*
X210883500Y-118935500D02*
X210883500Y-132905500D01*
X210883500Y-132905500D02*
X195643500Y-132905500D01*
X207391000Y-104394000D02*
X209931000Y-106934000D01*
X209931000Y-106934000D02*
X209931000Y-112014000D01*
X209931000Y-112014000D02*
X207391000Y-114554000D01*
X207391000Y-114554000D02*
X202311000Y-114554000D01*
X202311000Y-114554000D02*
X199771000Y-112014000D01*
X199771000Y-112014000D02*
X199771000Y-106934000D01*
X199771000Y-106934000D02*
X202311000Y-104394000D01*
X202311000Y-104394000D02*
X207391000Y-104394000D01*
X199771000Y-117094000D02*
X209931000Y-117094000D01*
X199771000Y-100584000D02*
X209931000Y-100584000D01*
X209931000Y-100584000D02*
X209931000Y-117094000D01*
X199771000Y-117094000D02*
X199771000Y-100584000D01*
D13*
X201897500Y-96682000D02*
X202597500Y-96682000D01*
X202597500Y-97882000D02*
X201897500Y-97882000D01*
X206977500Y-98269500D02*
X207677500Y-98269500D01*
X207677500Y-99469500D02*
X206977500Y-99469500D01*
X201897500Y-98269500D02*
X202597500Y-98269500D01*
X202597500Y-99469500D02*
X201897500Y-99469500D01*
X206977500Y-96682000D02*
X207677500Y-96682000D01*
X207677500Y-97882000D02*
X206977500Y-97882000D01*
D12*
X219584000Y-78587600D02*
G75*
G03X220701600Y-77470000I0J1117600D01*
G01*
X220701600Y-77470000D02*
G75*
G03X219584000Y-76352400I-1117600J0D01*
G01*
X235332000Y-67411600D02*
X219584000Y-67411600D01*
X235332000Y-92049600D02*
X219584000Y-92049600D01*
X235332000Y-76327000D02*
X235332000Y-75107800D01*
X234189000Y-77470000D02*
G75*
G03X235332000Y-78613000I1143000J0D01*
G01*
X235332000Y-76327000D02*
G75*
G03X234189000Y-77470000I0J-1143000D01*
G01*
X219584000Y-79781400D02*
X219584000Y-78587600D01*
X221895400Y-77470000D02*
X220727000Y-77470000D01*
X219584000Y-75158600D02*
X219584000Y-76327000D01*
X235332000Y-79730600D02*
X235332000Y-78638400D01*
X234189000Y-77470000D02*
X233020600Y-77470000D01*
X225172000Y-77470000D02*
X226315000Y-77470000D01*
X227483400Y-67437000D02*
X227483400Y-76327000D01*
X229744000Y-77470000D02*
X228601000Y-77470000D01*
X227458000Y-79756000D02*
X227458000Y-78613000D01*
X225172000Y-77470000D02*
X221870000Y-77470000D01*
X227458000Y-79756000D02*
X227458000Y-92049600D01*
X229744000Y-77470000D02*
X233020600Y-77470000D01*
X228601000Y-77470000D02*
G75*
G03X228601000Y-77470000I-1143000J0D01*
G01*
X219584000Y-79756000D02*
X219584000Y-92049600D01*
X219584000Y-75184000D02*
X219584000Y-67437000D01*
X235332000Y-67437000D02*
X235332000Y-75184000D01*
X235332000Y-79756000D02*
X235332000Y-92049600D01*
X224282000Y-145986500D02*
X210312000Y-145986500D01*
X219837000Y-140398500D02*
X214757000Y-140398500D01*
X216027000Y-140398500D02*
X216027000Y-137858500D01*
X216027000Y-137858500D02*
X218567000Y-137858500D01*
X214757000Y-145986500D02*
X214757000Y-140398500D01*
X210312000Y-134048500D02*
X210312000Y-145986500D01*
X212217000Y-131508500D02*
X222377000Y-131508500D01*
X219837000Y-145986500D02*
X219837000Y-145478500D01*
X224282000Y-134048500D02*
X224282000Y-145986500D01*
X222377000Y-134048500D02*
X224282000Y-134048500D01*
X219837000Y-141668500D02*
X219837000Y-140398500D01*
X219837000Y-141668500D02*
X219837000Y-145478500D01*
X218567000Y-140398500D02*
X218567000Y-137858500D01*
X222377000Y-134048500D02*
X210312000Y-134048500D01*
X212217000Y-134048500D02*
X212217000Y-131508500D01*
X222377000Y-131508500D02*
X222377000Y-134048500D01*
X228981000Y-140398500D02*
X231521000Y-140398500D01*
X224536000Y-145986500D02*
X235966000Y-145986500D01*
X224536000Y-134048500D02*
X234061000Y-134048500D01*
X226441000Y-131508500D02*
X234061000Y-131508500D01*
X228981000Y-145986500D02*
X228981000Y-140398500D01*
X224536000Y-134048500D02*
X224536000Y-145986500D01*
X231521000Y-145986500D02*
X231521000Y-145478500D01*
X235966000Y-134048500D02*
X235966000Y-145986500D01*
X234061000Y-134048500D02*
X235966000Y-134048500D01*
X231521000Y-141668500D02*
X231521000Y-140398500D01*
X231521000Y-141668500D02*
X231521000Y-145478500D01*
X226441000Y-134048500D02*
X226441000Y-131508500D01*
X234061000Y-131508500D02*
X234061000Y-134048500D01*
D13*
X208830000Y-85682500D02*
X207730000Y-85682500D01*
X207730000Y-85682500D02*
X207730000Y-88282500D01*
X208830000Y-85682500D02*
X208830000Y-88282500D01*
X207600000Y-92999000D02*
X207600000Y-91999000D01*
X208960000Y-91999000D02*
X208960000Y-92999000D01*
X198863500Y-114287500D02*
X198863500Y-115287500D01*
X197503500Y-115287500D02*
X197503500Y-114287500D01*
D12*
X235410313Y-127127000D02*
G75*
G03X235410313Y-127127000I-2047813J0D01*
G01*
X215852313Y-127127000D02*
G75*
G03X215852313Y-127127000I-2047813J0D01*
G01*
X234124500Y-105029000D02*
X235902500Y-105029000D01*
X211264500Y-105029000D02*
X213804500Y-105029000D01*
X213804500Y-99949000D02*
X234124500Y-99949000D01*
X213804500Y-105029000D02*
X213804500Y-99949000D01*
X234124500Y-99949000D02*
X234124500Y-105029000D01*
X235902500Y-105029000D02*
X235902500Y-129667000D01*
X235902500Y-129667000D02*
X211264500Y-129667000D01*
X211264500Y-129667000D02*
X211264500Y-105029000D01*
X244165120Y-142031720D02*
G75*
G03X244165120Y-142031720I-4013200J0D01*
G01*
X203586080Y-142031720D02*
G75*
G03X203586080Y-142031720I-4013200J0D01*
G01*
X203586080Y-83240880D02*
G75*
G03X203586080Y-83240880I-4013200J0D01*
G01*
X203374810Y-109116881D02*
X203993858Y-109116881D01*
X203660524Y-109497833D01*
X203803382Y-109497833D01*
X203898620Y-109545452D01*
X203946239Y-109593071D01*
X203993858Y-109688310D01*
X203993858Y-109926405D01*
X203946239Y-110021643D01*
X203898620Y-110069262D01*
X203803382Y-110116881D01*
X203517667Y-110116881D01*
X203422429Y-110069262D01*
X203374810Y-110021643D01*
X204422429Y-110021643D02*
X204470048Y-110069262D01*
X204422429Y-110116881D01*
X204374810Y-110069262D01*
X204422429Y-110021643D01*
X204422429Y-110116881D01*
X204803381Y-109116881D02*
X205422429Y-109116881D01*
X205089095Y-109497833D01*
X205231953Y-109497833D01*
X205327191Y-109545452D01*
X205374810Y-109593071D01*
X205422429Y-109688310D01*
X205422429Y-109926405D01*
X205374810Y-110021643D01*
X205327191Y-110069262D01*
X205231953Y-110116881D01*
X204946238Y-110116881D01*
X204851000Y-110069262D01*
X204803381Y-110021643D01*
X205708143Y-109116881D02*
X206041476Y-110116881D01*
X206374810Y-109116881D01*
X199045534Y-97664543D02*
X198997915Y-97712162D01*
X198855058Y-97759781D01*
X198759820Y-97759781D01*
X198616962Y-97712162D01*
X198521724Y-97616924D01*
X198474105Y-97521686D01*
X198426486Y-97331210D01*
X198426486Y-97188352D01*
X198474105Y-96997876D01*
X198521724Y-96902638D01*
X198616962Y-96807400D01*
X198759820Y-96759781D01*
X198855058Y-96759781D01*
X198997915Y-96807400D01*
X199045534Y-96855019D01*
X199997915Y-97759781D02*
X199426486Y-97759781D01*
X199712200Y-97759781D02*
X199712200Y-96759781D01*
X199616962Y-96902638D01*
X199521724Y-96997876D01*
X199426486Y-97045495D01*
X210069134Y-99188543D02*
X210021515Y-99236162D01*
X209878658Y-99283781D01*
X209783420Y-99283781D01*
X209640562Y-99236162D01*
X209545324Y-99140924D01*
X209497705Y-99045686D01*
X209450086Y-98855210D01*
X209450086Y-98712352D01*
X209497705Y-98521876D01*
X209545324Y-98426638D01*
X209640562Y-98331400D01*
X209783420Y-98283781D01*
X209878658Y-98283781D01*
X210021515Y-98331400D01*
X210069134Y-98379019D01*
X210450086Y-98379019D02*
X210497705Y-98331400D01*
X210592943Y-98283781D01*
X210831039Y-98283781D01*
X210926277Y-98331400D01*
X210973896Y-98379019D01*
X211021515Y-98474257D01*
X211021515Y-98569495D01*
X210973896Y-98712352D01*
X210402467Y-99283781D01*
X211021515Y-99283781D01*
X199045534Y-99239343D02*
X198997915Y-99286962D01*
X198855058Y-99334581D01*
X198759820Y-99334581D01*
X198616962Y-99286962D01*
X198521724Y-99191724D01*
X198474105Y-99096486D01*
X198426486Y-98906010D01*
X198426486Y-98763152D01*
X198474105Y-98572676D01*
X198521724Y-98477438D01*
X198616962Y-98382200D01*
X198759820Y-98334581D01*
X198855058Y-98334581D01*
X198997915Y-98382200D01*
X199045534Y-98429819D01*
X199378867Y-98334581D02*
X199997915Y-98334581D01*
X199664581Y-98715533D01*
X199807439Y-98715533D01*
X199902677Y-98763152D01*
X199950296Y-98810771D01*
X199997915Y-98906010D01*
X199997915Y-99144105D01*
X199950296Y-99239343D01*
X199902677Y-99286962D01*
X199807439Y-99334581D01*
X199521724Y-99334581D01*
X199426486Y-99286962D01*
X199378867Y-99239343D01*
X210043734Y-97639143D02*
X209996115Y-97686762D01*
X209853258Y-97734381D01*
X209758020Y-97734381D01*
X209615162Y-97686762D01*
X209519924Y-97591524D01*
X209472305Y-97496286D01*
X209424686Y-97305810D01*
X209424686Y-97162952D01*
X209472305Y-96972476D01*
X209519924Y-96877238D01*
X209615162Y-96782000D01*
X209758020Y-96734381D01*
X209853258Y-96734381D01*
X209996115Y-96782000D01*
X210043734Y-96829619D01*
X210900877Y-97067714D02*
X210900877Y-97734381D01*
X210662781Y-96686762D02*
X210424686Y-97401048D01*
X211043734Y-97401048D01*
X210182381Y-88220595D02*
X209182381Y-88220595D01*
X209182381Y-87982500D01*
X209230000Y-87839642D01*
X209325238Y-87744404D01*
X209420476Y-87696785D01*
X209610952Y-87649166D01*
X209753810Y-87649166D01*
X209944286Y-87696785D01*
X210039524Y-87744404D01*
X210134762Y-87839642D01*
X210182381Y-87982500D01*
X210182381Y-88220595D01*
X210182381Y-86696785D02*
X210182381Y-87268214D01*
X210182381Y-86982500D02*
X209182381Y-86982500D01*
X209325238Y-87077738D01*
X209420476Y-87172976D01*
X209468095Y-87268214D01*
X210182381Y-92665666D02*
X209706190Y-92999000D01*
X210182381Y-93237095D02*
X209182381Y-93237095D01*
X209182381Y-92856142D01*
X209230000Y-92760904D01*
X209277619Y-92713285D01*
X209372857Y-92665666D01*
X209515714Y-92665666D01*
X209610952Y-92713285D01*
X209658571Y-92760904D01*
X209706190Y-92856142D01*
X209706190Y-93237095D01*
X210182381Y-91713285D02*
X210182381Y-92284714D01*
X210182381Y-91999000D02*
X209182381Y-91999000D01*
X209325238Y-92094238D01*
X209420476Y-92189476D01*
X209468095Y-92284714D01*
X197185881Y-114954166D02*
X196709690Y-115287500D01*
X197185881Y-115525595D02*
X196185881Y-115525595D01*
X196185881Y-115144642D01*
X196233500Y-115049404D01*
X196281119Y-115001785D01*
X196376357Y-114954166D01*
X196519214Y-114954166D01*
X196614452Y-115001785D01*
X196662071Y-115049404D01*
X196709690Y-115144642D01*
X196709690Y-115525595D01*
X196281119Y-114573214D02*
X196233500Y-114525595D01*
X196185881Y-114430357D01*
X196185881Y-114192261D01*
X196233500Y-114097023D01*
X196281119Y-114049404D01*
X196376357Y-114001785D01*
X196471595Y-114001785D01*
X196614452Y-114049404D01*
X197185881Y-114620833D01*
X197185881Y-114001785D01*
M02*
