G75*
G70*
%OFA0B0*%
%FSLAX24Y24*%
%IPPOS*%
%LPD*%
%AMOC8*
5,1,8,0,0,1.08239X$1,22.5*
%
%ADD10R,0.0966X0.0966*%
%ADD11R,0.0905X0.0905*%
%ADD12C,0.0905*%
%ADD13C,0.0600*%
%ADD14R,0.0600X0.0600*%
%ADD15R,0.0620X0.0620*%
%ADD16C,0.0620*%
%ADD17R,0.0634X0.0634*%
%ADD18C,0.0634*%
%ADD19R,0.0477X0.0477*%
%ADD20C,0.0477*%
%ADD21R,0.0556X0.0556*%
%ADD22C,0.0556*%
%ADD23C,0.1104*%
%ADD24C,0.0497*%
%ADD25C,0.0680*%
%ADD26R,0.0680X0.0680*%
%ADD27C,0.1640*%
%ADD28R,0.0907X0.0907*%
%ADD29R,0.0755X0.0755*%
%ADD30C,0.0755*%
%ADD31C,0.0674*%
%ADD32C,0.1340*%
%ADD33C,0.0710*%
%ADD34R,0.0476X0.0476*%
D10*
X048601Y009550D03*
X048601Y011550D03*
X003601Y020300D03*
X003601Y022300D03*
D11*
X009601Y016050D03*
X023601Y017550D03*
X038601Y015800D03*
X045601Y016050D03*
X049101Y014050D03*
X038851Y012050D03*
X038851Y008300D03*
X045601Y004800D03*
X049101Y006800D03*
X039101Y004550D03*
D12*
X040101Y004550D03*
X041101Y004550D03*
X045601Y006800D03*
X049101Y004800D03*
X040851Y008300D03*
X039851Y008300D03*
X039851Y012050D03*
X040851Y012050D03*
X045601Y014050D03*
X049101Y016050D03*
X040601Y015800D03*
X039601Y015800D03*
X023601Y015550D03*
X023601Y016550D03*
X011601Y016050D03*
X010601Y016050D03*
X012601Y022550D03*
X018601Y022550D03*
X034351Y002300D03*
X040351Y002300D03*
D13*
X034851Y005300D03*
X034851Y006550D03*
X034851Y007800D03*
X034851Y012800D03*
X034851Y014050D03*
X034851Y015300D03*
X023351Y012800D03*
X017601Y007800D03*
D14*
X023351Y008800D03*
X017601Y011800D03*
X030851Y012800D03*
X030851Y014050D03*
X030851Y015300D03*
X030851Y007800D03*
X030851Y006550D03*
X030851Y005300D03*
D15*
X018851Y011800D03*
X011851Y010800D03*
X013351Y014800D03*
X025351Y014800D03*
D16*
X025351Y013800D03*
X025351Y012800D03*
X025351Y011800D03*
X025351Y010800D03*
X025351Y009800D03*
X025351Y008800D03*
X025351Y007800D03*
X025351Y006800D03*
X025351Y005800D03*
X028351Y005800D03*
X028351Y006800D03*
X028351Y007800D03*
X028351Y008800D03*
X028351Y009800D03*
X028351Y010800D03*
X028351Y011800D03*
X028351Y012800D03*
X028351Y013800D03*
X028351Y014800D03*
X021851Y011800D03*
X021851Y010800D03*
X021851Y009800D03*
X021851Y008800D03*
X021851Y007800D03*
X021851Y006800D03*
X021851Y005800D03*
X018851Y005800D03*
X018851Y006800D03*
X018851Y007800D03*
X018851Y008800D03*
X018851Y009800D03*
X018851Y010800D03*
X016351Y010800D03*
X016351Y009800D03*
X016351Y008800D03*
X016351Y007800D03*
X016351Y006800D03*
X016351Y005800D03*
X016351Y004800D03*
X016351Y003800D03*
X016351Y002800D03*
X016351Y001800D03*
X013351Y001800D03*
X013351Y002800D03*
X013351Y003800D03*
X013351Y004800D03*
X013351Y005800D03*
X013351Y006800D03*
X013351Y007800D03*
X013351Y008800D03*
X013351Y009800D03*
X013351Y010800D03*
X013351Y011800D03*
X011851Y011800D03*
X011851Y012800D03*
X013351Y012800D03*
X013351Y013800D03*
X011851Y013800D03*
X008851Y013800D03*
X008851Y012800D03*
X008851Y011800D03*
X008851Y010800D03*
X016351Y011800D03*
X016351Y012800D03*
X016351Y013800D03*
X016351Y014800D03*
D17*
X010678Y018050D03*
X025275Y016800D03*
X025275Y003800D03*
D18*
X028424Y003800D03*
X028424Y016800D03*
X007529Y018050D03*
D19*
X021351Y014837D03*
X011351Y007261D03*
X011351Y005339D03*
D20*
X021351Y015625D03*
D21*
X008414Y020389D03*
X021351Y022534D03*
X025851Y022534D03*
X030351Y022534D03*
X034851Y022534D03*
X039351Y022534D03*
X043851Y022534D03*
X048351Y022534D03*
X007101Y005739D03*
D22*
X007101Y004361D03*
X021351Y020566D03*
X025851Y020566D03*
X030351Y020566D03*
X034851Y020566D03*
X039351Y020566D03*
X043851Y020566D03*
X048351Y020566D03*
X008414Y022357D03*
D23*
X036101Y017026D03*
X043101Y017026D03*
X043351Y013276D03*
X036351Y013276D03*
X036351Y009526D03*
X043351Y009526D03*
X043601Y005776D03*
X036601Y005776D03*
D24*
X018495Y013050D03*
X018495Y013550D03*
X018495Y014050D03*
D25*
X018601Y002050D03*
X019601Y002050D03*
X020601Y002050D03*
D26*
X021601Y002050D03*
D27*
X002601Y002300D03*
X002851Y017300D03*
X047351Y018300D03*
X047351Y002800D03*
D28*
X006351Y014770D03*
X006351Y017330D03*
D29*
X024101Y004300D03*
D30*
X024101Y003300D03*
D31*
X006184Y008800D03*
X005184Y009300D03*
X006184Y009800D03*
X005184Y010300D03*
X006184Y010800D03*
X005184Y011300D03*
X006184Y011800D03*
X005184Y012300D03*
D32*
X002684Y012800D03*
X002684Y008300D03*
D33*
X012601Y018550D03*
X012601Y020550D03*
D34*
X016101Y017550D03*
X016101Y017050D03*
X022101Y013550D03*
X022101Y013050D03*
X029601Y011800D03*
X030101Y011800D03*
X029851Y017050D03*
X029851Y017550D03*
X029851Y018050D03*
X029851Y018550D03*
X010351Y009550D03*
X010351Y009050D03*
X010101Y006300D03*
X009601Y006300D03*
X022601Y004300D03*
X022601Y003800D03*
X023351Y005300D03*
X023351Y005800D03*
X029851Y003550D03*
X029851Y003050D03*
X029851Y002550D03*
X029851Y002050D03*
M02*
