G75*
G70*
%OFA0B0*%
%FSLAX24Y24*%
%IPPOS*%
%LPD*%
%AMOC8*
5,1,8,0,0,1.08239X$1,22.5*
%
%ADD10C,0.0160*%
%ADD11C,0.0080*%
%ADD12C,0.0060*%
%ADD13C,0.0050*%
%ADD14C,0.0040*%
%ADD15C,0.0070*%
%ADD16R,0.0400X0.4200*%
%ADD17C,0.0240*%
%ADD18R,0.0250X0.0240*%
%ADD19R,0.0079X0.1024*%
%ADD20R,0.0079X0.0079*%
%ADD21R,0.0394X0.0689*%
%ADD22R,0.4200X0.0400*%
%ADD23C,0.0000*%
%ADD24R,0.0787X0.0787*%
%ADD25R,0.5906X0.0787*%
%ADD26R,0.0394X0.0787*%
%ADD27R,0.0240X0.0250*%
%ADD28R,0.0200X0.1400*%
%ADD29R,0.0540X0.0420*%
%ADD30R,0.0200X0.0200*%
%ADD31R,0.1000X0.0500*%
D10*
X000851Y000800D02*
X050851Y000800D01*
X050851Y023800D01*
X000851Y023800D01*
X000851Y000800D01*
D11*
X005198Y017993D02*
X005198Y018607D01*
X004891Y018300D02*
X005505Y018300D01*
X009797Y020198D02*
X010411Y020198D01*
X010104Y020505D02*
X010104Y019891D01*
X010191Y022167D02*
X010804Y022167D01*
D12*
X011001Y019550D02*
X011003Y019630D01*
X011009Y019709D01*
X011019Y019788D01*
X011033Y019867D01*
X011050Y019945D01*
X011072Y020022D01*
X011097Y020097D01*
X011127Y020171D01*
X011159Y020244D01*
X011196Y020315D01*
X011236Y020384D01*
X011279Y020451D01*
X011326Y020516D01*
X011375Y020578D01*
X011428Y020638D01*
X011484Y020695D01*
X011542Y020750D01*
X011603Y020801D01*
X011667Y020849D01*
X011733Y020894D01*
X011801Y020936D01*
X011871Y020974D01*
X011943Y021008D01*
X012016Y021039D01*
X012091Y021067D01*
X012168Y021090D01*
X012245Y021110D01*
X012323Y021126D01*
X012402Y021138D01*
X012481Y021146D01*
X012561Y021150D01*
X012641Y021150D01*
X012721Y021146D01*
X012800Y021138D01*
X012879Y021126D01*
X012957Y021110D01*
X013034Y021090D01*
X013111Y021067D01*
X013186Y021039D01*
X013259Y021008D01*
X013331Y020974D01*
X013401Y020936D01*
X013469Y020894D01*
X013535Y020849D01*
X013599Y020801D01*
X013660Y020750D01*
X013718Y020695D01*
X013774Y020638D01*
X013827Y020578D01*
X013876Y020516D01*
X013923Y020451D01*
X013966Y020384D01*
X014006Y020315D01*
X014043Y020244D01*
X014075Y020171D01*
X014105Y020097D01*
X014130Y020022D01*
X014152Y019945D01*
X014169Y019867D01*
X014183Y019788D01*
X014193Y019709D01*
X014199Y019630D01*
X014201Y019550D01*
X014199Y019470D01*
X014193Y019391D01*
X014183Y019312D01*
X014169Y019233D01*
X014152Y019155D01*
X014130Y019078D01*
X014105Y019003D01*
X014075Y018929D01*
X014043Y018856D01*
X014006Y018785D01*
X013966Y018716D01*
X013923Y018649D01*
X013876Y018584D01*
X013827Y018522D01*
X013774Y018462D01*
X013718Y018405D01*
X013660Y018350D01*
X013599Y018299D01*
X013535Y018251D01*
X013469Y018206D01*
X013401Y018164D01*
X013331Y018126D01*
X013259Y018092D01*
X013186Y018061D01*
X013111Y018033D01*
X013034Y018010D01*
X012957Y017990D01*
X012879Y017974D01*
X012800Y017962D01*
X012721Y017954D01*
X012641Y017950D01*
X012561Y017950D01*
X012481Y017954D01*
X012402Y017962D01*
X012323Y017974D01*
X012245Y017990D01*
X012168Y018010D01*
X012091Y018033D01*
X012016Y018061D01*
X011943Y018092D01*
X011871Y018126D01*
X011801Y018164D01*
X011733Y018206D01*
X011667Y018251D01*
X011603Y018299D01*
X011542Y018350D01*
X011484Y018405D01*
X011428Y018462D01*
X011375Y018522D01*
X011326Y018584D01*
X011279Y018649D01*
X011236Y018716D01*
X011196Y018785D01*
X011159Y018856D01*
X011127Y018929D01*
X011097Y019003D01*
X011072Y019078D01*
X011050Y019155D01*
X011033Y019233D01*
X011019Y019312D01*
X011009Y019391D01*
X011003Y019470D01*
X011001Y019550D01*
X011951Y018750D02*
X011951Y018450D01*
X012101Y018600D02*
X011801Y018600D01*
X007887Y016221D02*
X007460Y016221D01*
X007673Y016221D02*
X007673Y015580D01*
X007242Y015580D02*
X006815Y015580D01*
X006815Y016221D01*
X007242Y016221D01*
X007029Y015900D02*
X006815Y015900D01*
X006598Y015794D02*
X006598Y015687D01*
X006491Y015580D01*
X006277Y015580D01*
X006170Y015687D01*
X006277Y015900D02*
X006491Y015900D01*
X006598Y015794D01*
X006277Y015900D02*
X006170Y016007D01*
X006170Y016114D01*
X006277Y016221D01*
X006491Y016221D01*
X006598Y016114D01*
X005953Y016221D02*
X005526Y016221D01*
X005526Y015580D01*
X005953Y015580D01*
X005739Y015900D02*
X005526Y015900D01*
X005308Y015900D02*
X005202Y015794D01*
X004881Y015794D01*
X005095Y015794D02*
X005308Y015580D01*
X005308Y015900D02*
X005308Y016114D01*
X005202Y016221D01*
X004881Y016221D01*
X004881Y015580D01*
X018101Y003300D02*
X021101Y003300D01*
X022101Y003300D01*
X022101Y002800D01*
X022101Y001050D01*
X021101Y001050D01*
X018101Y001050D01*
X018101Y002800D01*
X018101Y003300D01*
X018101Y002800D02*
X022101Y002800D01*
X014332Y002650D02*
X014332Y002544D01*
X013905Y002544D01*
X013905Y002650D02*
X013905Y002437D01*
X014012Y002330D01*
X014225Y002330D01*
X013688Y002757D02*
X013474Y002330D01*
X013261Y002757D01*
X012938Y002757D02*
X012938Y002330D01*
X013044Y002330D02*
X012831Y002330D01*
X012507Y002757D02*
X012294Y002544D01*
X012294Y002757D02*
X012294Y002330D01*
X012076Y002437D02*
X011969Y002330D01*
X011649Y002330D01*
X011649Y002971D01*
X011969Y002971D01*
X012076Y002864D01*
X012076Y002437D01*
X012507Y002757D02*
X012614Y002757D01*
X012831Y002757D02*
X012938Y002757D01*
X012938Y002971D02*
X012938Y003077D01*
X013905Y002650D02*
X014012Y002757D01*
X014225Y002757D01*
X014332Y002650D01*
X010788Y002757D02*
X010681Y002757D01*
X010467Y002544D01*
X010467Y002757D02*
X010467Y002330D01*
X010250Y002437D02*
X010143Y002330D01*
X009930Y002330D01*
X009823Y002437D01*
X009823Y002650D01*
X009930Y002757D01*
X010143Y002757D01*
X010250Y002650D01*
X010250Y002437D01*
X009607Y002330D02*
X009500Y002437D01*
X009500Y002864D01*
X009393Y002757D02*
X009607Y002757D01*
X009176Y002650D02*
X009176Y002437D01*
X009069Y002330D01*
X008855Y002330D01*
X008749Y002437D01*
X008749Y002650D01*
X008855Y002757D01*
X009069Y002757D01*
X009176Y002650D01*
X008531Y002971D02*
X008531Y002330D01*
X008104Y002330D02*
X008104Y002971D01*
X008318Y002757D01*
X008531Y002971D01*
X007242Y002971D02*
X006815Y002971D01*
X007029Y002971D02*
X007029Y002330D01*
X006598Y002437D02*
X006598Y002864D01*
X006491Y002971D01*
X006170Y002971D01*
X006170Y002330D01*
X006491Y002330D01*
X006598Y002437D01*
X005953Y002330D02*
X005739Y002544D01*
X005846Y002544D02*
X005526Y002544D01*
X005526Y002330D02*
X005526Y002971D01*
X005846Y002971D01*
X005953Y002864D01*
X005953Y002650D01*
X005846Y002544D01*
X005308Y002330D02*
X005308Y002971D01*
X005095Y002757D01*
X004881Y002971D01*
X004881Y002330D01*
X004881Y001971D02*
X005202Y001971D01*
X005308Y001864D01*
X005308Y001650D01*
X005202Y001544D01*
X004881Y001544D01*
X005095Y001544D02*
X005308Y001330D01*
X005526Y001330D02*
X005953Y001330D01*
X006170Y001544D02*
X006384Y001330D01*
X006598Y001544D01*
X006598Y001971D01*
X006170Y001971D02*
X006170Y001544D01*
X005739Y001650D02*
X005526Y001650D01*
X005526Y001330D02*
X005526Y001971D01*
X005953Y001971D01*
X004881Y001971D02*
X004881Y001330D01*
X007460Y001330D02*
X007780Y001330D01*
X007887Y001437D01*
X007887Y001544D01*
X007780Y001650D01*
X007460Y001650D01*
X007780Y001650D02*
X007887Y001757D01*
X007887Y001864D01*
X007780Y001971D01*
X007460Y001971D01*
X007460Y001330D01*
D13*
X000451Y002300D02*
X000454Y002405D01*
X000461Y002511D01*
X000474Y002615D01*
X000492Y002719D01*
X000515Y002822D01*
X000544Y002924D01*
X000577Y003024D01*
X000615Y003123D01*
X000657Y003219D01*
X000705Y003314D01*
X000757Y003405D01*
X000813Y003494D01*
X000874Y003581D01*
X000939Y003664D01*
X001008Y003744D01*
X001081Y003820D01*
X001157Y003893D01*
X001237Y003962D01*
X001320Y004027D01*
X001407Y004088D01*
X001496Y004144D01*
X001587Y004196D01*
X001682Y004244D01*
X001778Y004286D01*
X001877Y004324D01*
X001977Y004357D01*
X002079Y004386D01*
X002182Y004409D01*
X002286Y004427D01*
X002390Y004440D01*
X002496Y004447D01*
X002601Y004450D01*
X002706Y004447D01*
X002812Y004440D01*
X002916Y004427D01*
X003020Y004409D01*
X003123Y004386D01*
X003225Y004357D01*
X003325Y004324D01*
X003424Y004286D01*
X003520Y004244D01*
X003615Y004196D01*
X003706Y004144D01*
X003795Y004088D01*
X003882Y004027D01*
X003965Y003962D01*
X004045Y003893D01*
X004121Y003820D01*
X004194Y003744D01*
X004263Y003664D01*
X004328Y003581D01*
X004389Y003494D01*
X004445Y003405D01*
X004497Y003314D01*
X004545Y003219D01*
X004587Y003123D01*
X004625Y003024D01*
X004658Y002924D01*
X004687Y002822D01*
X004710Y002719D01*
X004728Y002615D01*
X004741Y002511D01*
X004748Y002405D01*
X004751Y002300D01*
X004748Y002195D01*
X004741Y002089D01*
X004728Y001985D01*
X004710Y001881D01*
X004687Y001778D01*
X004658Y001676D01*
X004625Y001576D01*
X004587Y001477D01*
X004545Y001381D01*
X004497Y001286D01*
X004445Y001195D01*
X004389Y001106D01*
X004328Y001019D01*
X004263Y000936D01*
X004194Y000856D01*
X004121Y000780D01*
X004045Y000707D01*
X003965Y000638D01*
X003882Y000573D01*
X003795Y000512D01*
X003706Y000456D01*
X003615Y000404D01*
X003520Y000356D01*
X003424Y000314D01*
X003325Y000276D01*
X003225Y000243D01*
X003123Y000214D01*
X003020Y000191D01*
X002916Y000173D01*
X002812Y000160D01*
X002706Y000153D01*
X002601Y000150D01*
X002496Y000153D01*
X002390Y000160D01*
X002286Y000173D01*
X002182Y000191D01*
X002079Y000214D01*
X001977Y000243D01*
X001877Y000276D01*
X001778Y000314D01*
X001682Y000356D01*
X001587Y000404D01*
X001496Y000456D01*
X001407Y000512D01*
X001320Y000573D01*
X001237Y000638D01*
X001157Y000707D01*
X001081Y000780D01*
X001008Y000856D01*
X000939Y000936D01*
X000874Y001019D01*
X000813Y001106D01*
X000757Y001195D01*
X000705Y001286D01*
X000657Y001381D01*
X000615Y001477D01*
X000577Y001576D01*
X000544Y001676D01*
X000515Y001778D01*
X000492Y001881D01*
X000474Y001985D01*
X000461Y002089D01*
X000454Y002195D01*
X000451Y002300D01*
X006905Y004853D02*
X006906Y004870D01*
X006911Y004887D01*
X006918Y004902D01*
X006928Y004916D01*
X006940Y004928D01*
X006954Y004938D01*
X006969Y004945D01*
X006986Y004950D01*
X007003Y004951D01*
X007003Y004952D02*
X007101Y004952D01*
X007200Y004952D01*
X007101Y004952D02*
X007101Y004656D01*
X007298Y004853D02*
X007297Y004870D01*
X007292Y004887D01*
X007285Y004902D01*
X007275Y004916D01*
X007263Y004928D01*
X007249Y004938D01*
X007234Y004945D01*
X007217Y004950D01*
X007200Y004951D01*
X005526Y005050D02*
X005528Y005129D01*
X005534Y005208D01*
X005544Y005287D01*
X005558Y005365D01*
X005575Y005442D01*
X005597Y005518D01*
X005622Y005593D01*
X005652Y005666D01*
X005684Y005738D01*
X005721Y005809D01*
X005761Y005877D01*
X005804Y005943D01*
X005850Y006007D01*
X005900Y006069D01*
X005953Y006128D01*
X006008Y006184D01*
X006067Y006238D01*
X006128Y006288D01*
X006191Y006336D01*
X006257Y006380D01*
X006325Y006421D01*
X006395Y006458D01*
X006466Y006492D01*
X006540Y006522D01*
X006614Y006548D01*
X006690Y006570D01*
X006767Y006589D01*
X006845Y006604D01*
X006923Y006615D01*
X007002Y006622D01*
X007081Y006625D01*
X007160Y006624D01*
X007239Y006619D01*
X007318Y006610D01*
X007396Y006597D01*
X007473Y006580D01*
X007550Y006560D01*
X007625Y006535D01*
X007699Y006507D01*
X007772Y006475D01*
X007842Y006440D01*
X007911Y006401D01*
X007978Y006358D01*
X008043Y006312D01*
X008105Y006264D01*
X008165Y006212D01*
X008222Y006157D01*
X008276Y006099D01*
X008327Y006039D01*
X008375Y005976D01*
X008420Y005911D01*
X008462Y005843D01*
X008500Y005774D01*
X008534Y005703D01*
X008565Y005630D01*
X008593Y005555D01*
X008616Y005480D01*
X008636Y005403D01*
X008652Y005326D01*
X008664Y005247D01*
X008672Y005169D01*
X008676Y005090D01*
X008676Y005010D01*
X008672Y004931D01*
X008664Y004853D01*
X008652Y004774D01*
X008636Y004697D01*
X008616Y004620D01*
X008593Y004545D01*
X008565Y004470D01*
X008534Y004397D01*
X008500Y004326D01*
X008462Y004257D01*
X008420Y004189D01*
X008375Y004124D01*
X008327Y004061D01*
X008276Y004001D01*
X008222Y003943D01*
X008165Y003888D01*
X008105Y003836D01*
X008043Y003788D01*
X007978Y003742D01*
X007911Y003699D01*
X007842Y003660D01*
X007772Y003625D01*
X007699Y003593D01*
X007625Y003565D01*
X007550Y003540D01*
X007473Y003520D01*
X007396Y003503D01*
X007318Y003490D01*
X007239Y003481D01*
X007160Y003476D01*
X007081Y003475D01*
X007002Y003478D01*
X006923Y003485D01*
X006845Y003496D01*
X006767Y003511D01*
X006690Y003530D01*
X006614Y003552D01*
X006540Y003578D01*
X006466Y003608D01*
X006395Y003642D01*
X006325Y003679D01*
X006257Y003720D01*
X006191Y003764D01*
X006128Y003812D01*
X006067Y003862D01*
X006008Y003916D01*
X005953Y003972D01*
X005900Y004031D01*
X005850Y004093D01*
X005804Y004157D01*
X005761Y004223D01*
X005721Y004291D01*
X005684Y004362D01*
X005652Y004434D01*
X005622Y004507D01*
X005597Y004582D01*
X005575Y004658D01*
X005558Y004735D01*
X005544Y004813D01*
X005534Y004892D01*
X005528Y004971D01*
X005526Y005050D01*
X006905Y005247D02*
X007101Y005247D01*
X007298Y005247D01*
X007101Y005247D02*
X007101Y005444D01*
X009431Y005980D02*
X010271Y005980D01*
X010271Y004120D01*
X009431Y004120D01*
X009431Y005980D01*
X009431Y006620D02*
X010271Y006620D01*
X010271Y008480D01*
X009431Y008480D01*
X009431Y006620D01*
X006578Y007038D02*
X000125Y007038D01*
X000125Y014062D01*
X006578Y014062D01*
X006578Y007038D01*
X010367Y008564D02*
X012336Y008564D01*
X012336Y004036D01*
X010367Y004036D01*
X010367Y008564D01*
X010671Y008880D02*
X010671Y009720D01*
X012531Y009720D01*
X012531Y008880D01*
X010671Y008880D01*
X010031Y008880D02*
X008171Y008880D01*
X008171Y009720D01*
X010031Y009720D01*
X010031Y008880D01*
X008021Y010368D02*
X007181Y010368D01*
X007181Y012232D01*
X008021Y012232D01*
X008021Y010368D01*
X008021Y012368D02*
X007181Y012368D01*
X007181Y014232D01*
X008021Y014232D01*
X008021Y012368D01*
X007040Y014869D02*
X006351Y014869D01*
X006351Y015656D01*
X006548Y015656D02*
X006351Y016444D01*
X006351Y017231D01*
X005662Y017231D01*
X005662Y014869D01*
X006351Y014869D01*
X007040Y014869D02*
X007040Y017231D01*
X006351Y017231D01*
X007212Y017735D02*
X007212Y018365D01*
X008078Y018365D01*
X008077Y018581D02*
X008077Y017519D01*
X008079Y017519D02*
X010128Y017519D01*
X010128Y018581D01*
X008077Y018581D01*
X009101Y018050D02*
X009338Y018050D01*
X009338Y017893D01*
X009574Y018050D01*
X009338Y018207D01*
X009338Y018050D01*
X009574Y018050D02*
X009574Y018207D01*
X009574Y018050D02*
X009574Y017893D01*
X009574Y018050D02*
X009731Y018050D01*
X010125Y017735D02*
X010991Y017735D01*
X010991Y018365D01*
X010125Y018365D01*
X008078Y017735D02*
X007212Y017735D01*
X006062Y019300D02*
X001141Y019300D01*
X001141Y023300D01*
X006062Y023300D01*
X006062Y019300D01*
X008414Y020585D02*
X008414Y021176D01*
X008808Y021176D01*
X008414Y021176D02*
X008021Y021176D01*
X006445Y021373D02*
X006447Y021470D01*
X006454Y021566D01*
X006466Y021662D01*
X006483Y021757D01*
X006504Y021851D01*
X006530Y021945D01*
X006560Y022036D01*
X006595Y022127D01*
X006634Y022215D01*
X006677Y022301D01*
X006725Y022385D01*
X006777Y022467D01*
X006832Y022546D01*
X006892Y022622D01*
X006955Y022695D01*
X007022Y022765D01*
X007092Y022832D01*
X007165Y022895D01*
X007241Y022955D01*
X007320Y023010D01*
X007402Y023062D01*
X007486Y023110D01*
X007572Y023153D01*
X007660Y023192D01*
X007751Y023227D01*
X007842Y023257D01*
X007936Y023283D01*
X008030Y023304D01*
X008125Y023321D01*
X008221Y023333D01*
X008317Y023340D01*
X008414Y023342D01*
X008511Y023340D01*
X008607Y023333D01*
X008703Y023321D01*
X008798Y023304D01*
X008892Y023283D01*
X008986Y023257D01*
X009077Y023227D01*
X009168Y023192D01*
X009256Y023153D01*
X009342Y023110D01*
X009426Y023062D01*
X009508Y023010D01*
X009587Y022955D01*
X009663Y022895D01*
X009736Y022832D01*
X009806Y022765D01*
X009873Y022695D01*
X009936Y022622D01*
X009996Y022546D01*
X010051Y022467D01*
X010103Y022385D01*
X010151Y022301D01*
X010194Y022215D01*
X010233Y022127D01*
X010268Y022036D01*
X010298Y021945D01*
X010324Y021851D01*
X010345Y021757D01*
X010362Y021662D01*
X010374Y021566D01*
X010381Y021470D01*
X010383Y021373D01*
X010381Y021276D01*
X010374Y021180D01*
X010362Y021084D01*
X010345Y020989D01*
X010324Y020895D01*
X010298Y020801D01*
X010268Y020710D01*
X010233Y020619D01*
X010194Y020531D01*
X010151Y020445D01*
X010103Y020361D01*
X010051Y020279D01*
X009996Y020200D01*
X009936Y020124D01*
X009873Y020051D01*
X009806Y019981D01*
X009736Y019914D01*
X009663Y019851D01*
X009587Y019791D01*
X009508Y019736D01*
X009426Y019684D01*
X009342Y019636D01*
X009256Y019593D01*
X009168Y019554D01*
X009077Y019519D01*
X008986Y019489D01*
X008892Y019463D01*
X008798Y019442D01*
X008703Y019425D01*
X008607Y019413D01*
X008511Y019406D01*
X008414Y019404D01*
X008317Y019406D01*
X008221Y019413D01*
X008125Y019425D01*
X008030Y019442D01*
X007936Y019463D01*
X007842Y019489D01*
X007751Y019519D01*
X007660Y019554D01*
X007572Y019593D01*
X007486Y019636D01*
X007402Y019684D01*
X007320Y019736D01*
X007241Y019791D01*
X007165Y019851D01*
X007092Y019914D01*
X007022Y019981D01*
X006955Y020051D01*
X006892Y020124D01*
X006832Y020200D01*
X006777Y020279D01*
X006725Y020361D01*
X006677Y020445D01*
X006634Y020531D01*
X006595Y020619D01*
X006560Y020710D01*
X006530Y020801D01*
X006504Y020895D01*
X006483Y020989D01*
X006466Y021084D01*
X006454Y021180D01*
X006447Y021276D01*
X006445Y021373D01*
X008218Y021570D02*
X008414Y021570D01*
X008611Y021570D01*
X008637Y021572D01*
X008662Y021577D01*
X008686Y021585D01*
X008709Y021596D01*
X008731Y021611D01*
X008750Y021628D01*
X008767Y021647D01*
X008782Y021668D01*
X008793Y021692D01*
X008801Y021716D01*
X008806Y021741D01*
X008808Y021767D01*
X008414Y021570D02*
X008414Y022160D01*
X008021Y021767D02*
X008023Y021741D01*
X008028Y021716D01*
X008036Y021692D01*
X008047Y021669D01*
X008062Y021647D01*
X008079Y021628D01*
X008098Y021611D01*
X008119Y021596D01*
X008143Y021585D01*
X008167Y021577D01*
X008192Y021572D01*
X008218Y021570D01*
X013801Y021850D02*
X017401Y021850D01*
X017401Y023250D01*
X013801Y023250D01*
X013801Y021850D01*
X018644Y019126D02*
X019484Y019126D01*
X019484Y017262D01*
X018644Y017262D01*
X018644Y019126D01*
X019894Y018270D02*
X020734Y018270D01*
X020734Y016405D01*
X019894Y016405D01*
X019894Y018270D01*
X021181Y018230D02*
X022021Y018230D01*
X022021Y016370D01*
X021181Y016370D01*
X021181Y018230D01*
X018281Y017720D02*
X018281Y016880D01*
X016421Y016880D01*
X016421Y017720D01*
X018281Y017720D01*
X014784Y017220D02*
X014784Y016380D01*
X012919Y016380D01*
X012919Y017220D01*
X014784Y017220D01*
X018495Y014601D02*
X019094Y014601D01*
X019094Y012499D01*
X018495Y012499D01*
X019921Y012880D02*
X019921Y013720D01*
X021781Y013720D01*
X021781Y012880D01*
X019921Y012880D01*
X018495Y012499D02*
X018432Y012501D01*
X018368Y012507D01*
X018306Y012516D01*
X018243Y012530D01*
X018182Y012547D01*
X018122Y012567D01*
X018064Y012592D01*
X018007Y012619D01*
X017951Y012651D01*
X017898Y012685D01*
X017847Y012723D01*
X017798Y012763D01*
X017752Y012807D01*
X017708Y012853D01*
X017668Y012902D01*
X017630Y012953D01*
X017596Y013006D01*
X017564Y013062D01*
X017537Y013119D01*
X017512Y013177D01*
X017492Y013237D01*
X017475Y013298D01*
X017461Y013361D01*
X017452Y013423D01*
X017446Y013487D01*
X017444Y013550D01*
X017446Y013613D01*
X017452Y013677D01*
X017461Y013739D01*
X017475Y013802D01*
X017492Y013863D01*
X017512Y013923D01*
X017537Y013981D01*
X017564Y014038D01*
X017596Y014094D01*
X017630Y014147D01*
X017668Y014198D01*
X017708Y014247D01*
X017752Y014293D01*
X017798Y014337D01*
X017847Y014377D01*
X017898Y014415D01*
X017951Y014449D01*
X018007Y014481D01*
X018064Y014508D01*
X018122Y014533D01*
X018182Y014553D01*
X018243Y014570D01*
X018306Y014584D01*
X018368Y014593D01*
X018432Y014599D01*
X018495Y014601D01*
X020367Y015231D02*
X020369Y015293D01*
X020375Y015356D01*
X020385Y015417D01*
X020399Y015478D01*
X020416Y015538D01*
X020437Y015597D01*
X020463Y015654D01*
X020491Y015709D01*
X020523Y015763D01*
X020559Y015814D01*
X020597Y015864D01*
X020639Y015910D01*
X020683Y015954D01*
X020731Y015995D01*
X020780Y016033D01*
X020832Y016067D01*
X020886Y016098D01*
X020942Y016126D01*
X021000Y016150D01*
X021059Y016171D01*
X021119Y016187D01*
X021180Y016200D01*
X021242Y016209D01*
X021304Y016214D01*
X021367Y016215D01*
X021429Y016212D01*
X021491Y016205D01*
X021553Y016194D01*
X021613Y016179D01*
X021673Y016161D01*
X021731Y016139D01*
X021788Y016113D01*
X021843Y016083D01*
X021896Y016050D01*
X021947Y016014D01*
X021995Y015975D01*
X022041Y015932D01*
X022084Y015887D01*
X022124Y015839D01*
X022161Y015789D01*
X022195Y015736D01*
X022226Y015682D01*
X022252Y015626D01*
X022276Y015568D01*
X022295Y015508D01*
X022311Y015448D01*
X022323Y015386D01*
X022331Y015325D01*
X022335Y015262D01*
X022335Y015200D01*
X022331Y015137D01*
X022323Y015076D01*
X022311Y015014D01*
X022295Y014954D01*
X022276Y014894D01*
X022252Y014836D01*
X022226Y014780D01*
X022195Y014726D01*
X022161Y014673D01*
X022124Y014623D01*
X022084Y014575D01*
X022041Y014530D01*
X021995Y014487D01*
X021947Y014448D01*
X021896Y014412D01*
X021843Y014379D01*
X021788Y014349D01*
X021731Y014323D01*
X021673Y014301D01*
X021613Y014283D01*
X021553Y014268D01*
X021491Y014257D01*
X021429Y014250D01*
X021367Y014247D01*
X021304Y014248D01*
X021242Y014253D01*
X021180Y014262D01*
X021119Y014275D01*
X021059Y014291D01*
X021000Y014312D01*
X020942Y014336D01*
X020886Y014364D01*
X020832Y014395D01*
X020780Y014429D01*
X020731Y014467D01*
X020683Y014508D01*
X020639Y014552D01*
X020597Y014598D01*
X020559Y014648D01*
X020523Y014699D01*
X020491Y014753D01*
X020463Y014808D01*
X020437Y014865D01*
X020416Y014924D01*
X020399Y014984D01*
X020385Y015045D01*
X020375Y015106D01*
X020369Y015169D01*
X020367Y015231D01*
X024962Y016485D02*
X024962Y017115D01*
X025828Y017115D01*
X025825Y017331D02*
X025825Y016269D01*
X027876Y016269D01*
X027876Y017331D01*
X027874Y017331D02*
X025825Y017331D01*
X025921Y017630D02*
X025921Y018470D01*
X027781Y018470D01*
X027781Y017630D01*
X025921Y017630D01*
X026379Y016957D02*
X026379Y016800D01*
X026615Y016957D01*
X026615Y016800D01*
X026851Y016800D01*
X026615Y016800D02*
X026615Y016643D01*
X026379Y016800D01*
X026379Y016643D01*
X026379Y016800D02*
X026221Y016800D01*
X025828Y016485D02*
X024962Y016485D01*
X027875Y016485D02*
X028741Y016485D01*
X028741Y017115D01*
X027875Y017115D01*
X030171Y016880D02*
X030171Y017720D01*
X032031Y017720D01*
X032031Y016880D01*
X030171Y016880D01*
X030171Y017880D02*
X030171Y018720D01*
X032031Y018720D01*
X032031Y017880D01*
X030171Y017880D01*
X035227Y018274D02*
X035227Y015778D01*
X043975Y015778D01*
X043975Y018274D01*
X035227Y018274D01*
X034851Y020763D02*
X034851Y021353D01*
X034655Y021353D01*
X034851Y021353D02*
X035048Y021353D01*
X035074Y021351D01*
X035099Y021346D01*
X035123Y021338D01*
X035147Y021327D01*
X035168Y021312D01*
X035187Y021295D01*
X035204Y021276D01*
X035219Y021254D01*
X035230Y021231D01*
X035238Y021207D01*
X035243Y021182D01*
X035245Y021156D01*
X032882Y021550D02*
X032884Y021647D01*
X032891Y021743D01*
X032903Y021839D01*
X032920Y021934D01*
X032941Y022028D01*
X032967Y022122D01*
X032997Y022213D01*
X033032Y022304D01*
X033071Y022392D01*
X033114Y022478D01*
X033162Y022562D01*
X033214Y022644D01*
X033269Y022723D01*
X033329Y022799D01*
X033392Y022872D01*
X033459Y022942D01*
X033529Y023009D01*
X033602Y023072D01*
X033678Y023132D01*
X033757Y023187D01*
X033839Y023239D01*
X033923Y023287D01*
X034009Y023330D01*
X034097Y023369D01*
X034188Y023404D01*
X034279Y023434D01*
X034373Y023460D01*
X034467Y023481D01*
X034562Y023498D01*
X034658Y023510D01*
X034754Y023517D01*
X034851Y023519D01*
X034948Y023517D01*
X035044Y023510D01*
X035140Y023498D01*
X035235Y023481D01*
X035329Y023460D01*
X035423Y023434D01*
X035514Y023404D01*
X035605Y023369D01*
X035693Y023330D01*
X035779Y023287D01*
X035863Y023239D01*
X035945Y023187D01*
X036024Y023132D01*
X036100Y023072D01*
X036173Y023009D01*
X036243Y022942D01*
X036310Y022872D01*
X036373Y022799D01*
X036433Y022723D01*
X036488Y022644D01*
X036540Y022562D01*
X036588Y022478D01*
X036631Y022392D01*
X036670Y022304D01*
X036705Y022213D01*
X036735Y022122D01*
X036761Y022028D01*
X036782Y021934D01*
X036799Y021839D01*
X036811Y021743D01*
X036818Y021647D01*
X036820Y021550D01*
X036818Y021453D01*
X036811Y021357D01*
X036799Y021261D01*
X036782Y021166D01*
X036761Y021072D01*
X036735Y020978D01*
X036705Y020887D01*
X036670Y020796D01*
X036631Y020708D01*
X036588Y020622D01*
X036540Y020538D01*
X036488Y020456D01*
X036433Y020377D01*
X036373Y020301D01*
X036310Y020228D01*
X036243Y020158D01*
X036173Y020091D01*
X036100Y020028D01*
X036024Y019968D01*
X035945Y019913D01*
X035863Y019861D01*
X035779Y019813D01*
X035693Y019770D01*
X035605Y019731D01*
X035514Y019696D01*
X035423Y019666D01*
X035329Y019640D01*
X035235Y019619D01*
X035140Y019602D01*
X035044Y019590D01*
X034948Y019583D01*
X034851Y019581D01*
X034754Y019583D01*
X034658Y019590D01*
X034562Y019602D01*
X034467Y019619D01*
X034373Y019640D01*
X034279Y019666D01*
X034188Y019696D01*
X034097Y019731D01*
X034009Y019770D01*
X033923Y019813D01*
X033839Y019861D01*
X033757Y019913D01*
X033678Y019968D01*
X033602Y020028D01*
X033529Y020091D01*
X033459Y020158D01*
X033392Y020228D01*
X033329Y020301D01*
X033269Y020377D01*
X033214Y020456D01*
X033162Y020538D01*
X033114Y020622D01*
X033071Y020708D01*
X033032Y020796D01*
X032997Y020887D01*
X032967Y020978D01*
X032941Y021072D01*
X032920Y021166D01*
X032903Y021261D01*
X032891Y021357D01*
X032884Y021453D01*
X032882Y021550D01*
X034458Y021747D02*
X034851Y021747D01*
X035245Y021747D01*
X034851Y021747D02*
X034851Y022337D01*
X034655Y021353D02*
X034629Y021351D01*
X034604Y021346D01*
X034580Y021338D01*
X034556Y021327D01*
X034535Y021312D01*
X034516Y021295D01*
X034499Y021276D01*
X034484Y021255D01*
X034473Y021231D01*
X034465Y021207D01*
X034460Y021182D01*
X034458Y021156D01*
X030745Y021747D02*
X030351Y021747D01*
X029958Y021747D01*
X030351Y021747D02*
X030351Y022337D01*
X028382Y021550D02*
X028384Y021647D01*
X028391Y021743D01*
X028403Y021839D01*
X028420Y021934D01*
X028441Y022028D01*
X028467Y022122D01*
X028497Y022213D01*
X028532Y022304D01*
X028571Y022392D01*
X028614Y022478D01*
X028662Y022562D01*
X028714Y022644D01*
X028769Y022723D01*
X028829Y022799D01*
X028892Y022872D01*
X028959Y022942D01*
X029029Y023009D01*
X029102Y023072D01*
X029178Y023132D01*
X029257Y023187D01*
X029339Y023239D01*
X029423Y023287D01*
X029509Y023330D01*
X029597Y023369D01*
X029688Y023404D01*
X029779Y023434D01*
X029873Y023460D01*
X029967Y023481D01*
X030062Y023498D01*
X030158Y023510D01*
X030254Y023517D01*
X030351Y023519D01*
X030448Y023517D01*
X030544Y023510D01*
X030640Y023498D01*
X030735Y023481D01*
X030829Y023460D01*
X030923Y023434D01*
X031014Y023404D01*
X031105Y023369D01*
X031193Y023330D01*
X031279Y023287D01*
X031363Y023239D01*
X031445Y023187D01*
X031524Y023132D01*
X031600Y023072D01*
X031673Y023009D01*
X031743Y022942D01*
X031810Y022872D01*
X031873Y022799D01*
X031933Y022723D01*
X031988Y022644D01*
X032040Y022562D01*
X032088Y022478D01*
X032131Y022392D01*
X032170Y022304D01*
X032205Y022213D01*
X032235Y022122D01*
X032261Y022028D01*
X032282Y021934D01*
X032299Y021839D01*
X032311Y021743D01*
X032318Y021647D01*
X032320Y021550D01*
X032318Y021453D01*
X032311Y021357D01*
X032299Y021261D01*
X032282Y021166D01*
X032261Y021072D01*
X032235Y020978D01*
X032205Y020887D01*
X032170Y020796D01*
X032131Y020708D01*
X032088Y020622D01*
X032040Y020538D01*
X031988Y020456D01*
X031933Y020377D01*
X031873Y020301D01*
X031810Y020228D01*
X031743Y020158D01*
X031673Y020091D01*
X031600Y020028D01*
X031524Y019968D01*
X031445Y019913D01*
X031363Y019861D01*
X031279Y019813D01*
X031193Y019770D01*
X031105Y019731D01*
X031014Y019696D01*
X030923Y019666D01*
X030829Y019640D01*
X030735Y019619D01*
X030640Y019602D01*
X030544Y019590D01*
X030448Y019583D01*
X030351Y019581D01*
X030254Y019583D01*
X030158Y019590D01*
X030062Y019602D01*
X029967Y019619D01*
X029873Y019640D01*
X029779Y019666D01*
X029688Y019696D01*
X029597Y019731D01*
X029509Y019770D01*
X029423Y019813D01*
X029339Y019861D01*
X029257Y019913D01*
X029178Y019968D01*
X029102Y020028D01*
X029029Y020091D01*
X028959Y020158D01*
X028892Y020228D01*
X028829Y020301D01*
X028769Y020377D01*
X028714Y020456D01*
X028662Y020538D01*
X028614Y020622D01*
X028571Y020708D01*
X028532Y020796D01*
X028497Y020887D01*
X028467Y020978D01*
X028441Y021072D01*
X028420Y021166D01*
X028403Y021261D01*
X028391Y021357D01*
X028384Y021453D01*
X028382Y021550D01*
X030155Y021353D02*
X030351Y021353D01*
X030548Y021353D01*
X030351Y021353D02*
X030351Y020763D01*
X029958Y021156D02*
X029960Y021182D01*
X029965Y021207D01*
X029973Y021231D01*
X029984Y021255D01*
X029999Y021276D01*
X030016Y021295D01*
X030035Y021312D01*
X030056Y021327D01*
X030080Y021338D01*
X030104Y021346D01*
X030129Y021351D01*
X030155Y021353D01*
X030548Y021353D02*
X030574Y021351D01*
X030599Y021346D01*
X030623Y021338D01*
X030647Y021327D01*
X030668Y021312D01*
X030687Y021295D01*
X030704Y021276D01*
X030719Y021254D01*
X030730Y021231D01*
X030738Y021207D01*
X030743Y021182D01*
X030745Y021156D01*
X026245Y021747D02*
X025851Y021747D01*
X025458Y021747D01*
X025851Y021747D02*
X025851Y022337D01*
X023882Y021550D02*
X023884Y021647D01*
X023891Y021743D01*
X023903Y021839D01*
X023920Y021934D01*
X023941Y022028D01*
X023967Y022122D01*
X023997Y022213D01*
X024032Y022304D01*
X024071Y022392D01*
X024114Y022478D01*
X024162Y022562D01*
X024214Y022644D01*
X024269Y022723D01*
X024329Y022799D01*
X024392Y022872D01*
X024459Y022942D01*
X024529Y023009D01*
X024602Y023072D01*
X024678Y023132D01*
X024757Y023187D01*
X024839Y023239D01*
X024923Y023287D01*
X025009Y023330D01*
X025097Y023369D01*
X025188Y023404D01*
X025279Y023434D01*
X025373Y023460D01*
X025467Y023481D01*
X025562Y023498D01*
X025658Y023510D01*
X025754Y023517D01*
X025851Y023519D01*
X025948Y023517D01*
X026044Y023510D01*
X026140Y023498D01*
X026235Y023481D01*
X026329Y023460D01*
X026423Y023434D01*
X026514Y023404D01*
X026605Y023369D01*
X026693Y023330D01*
X026779Y023287D01*
X026863Y023239D01*
X026945Y023187D01*
X027024Y023132D01*
X027100Y023072D01*
X027173Y023009D01*
X027243Y022942D01*
X027310Y022872D01*
X027373Y022799D01*
X027433Y022723D01*
X027488Y022644D01*
X027540Y022562D01*
X027588Y022478D01*
X027631Y022392D01*
X027670Y022304D01*
X027705Y022213D01*
X027735Y022122D01*
X027761Y022028D01*
X027782Y021934D01*
X027799Y021839D01*
X027811Y021743D01*
X027818Y021647D01*
X027820Y021550D01*
X027818Y021453D01*
X027811Y021357D01*
X027799Y021261D01*
X027782Y021166D01*
X027761Y021072D01*
X027735Y020978D01*
X027705Y020887D01*
X027670Y020796D01*
X027631Y020708D01*
X027588Y020622D01*
X027540Y020538D01*
X027488Y020456D01*
X027433Y020377D01*
X027373Y020301D01*
X027310Y020228D01*
X027243Y020158D01*
X027173Y020091D01*
X027100Y020028D01*
X027024Y019968D01*
X026945Y019913D01*
X026863Y019861D01*
X026779Y019813D01*
X026693Y019770D01*
X026605Y019731D01*
X026514Y019696D01*
X026423Y019666D01*
X026329Y019640D01*
X026235Y019619D01*
X026140Y019602D01*
X026044Y019590D01*
X025948Y019583D01*
X025851Y019581D01*
X025754Y019583D01*
X025658Y019590D01*
X025562Y019602D01*
X025467Y019619D01*
X025373Y019640D01*
X025279Y019666D01*
X025188Y019696D01*
X025097Y019731D01*
X025009Y019770D01*
X024923Y019813D01*
X024839Y019861D01*
X024757Y019913D01*
X024678Y019968D01*
X024602Y020028D01*
X024529Y020091D01*
X024459Y020158D01*
X024392Y020228D01*
X024329Y020301D01*
X024269Y020377D01*
X024214Y020456D01*
X024162Y020538D01*
X024114Y020622D01*
X024071Y020708D01*
X024032Y020796D01*
X023997Y020887D01*
X023967Y020978D01*
X023941Y021072D01*
X023920Y021166D01*
X023903Y021261D01*
X023891Y021357D01*
X023884Y021453D01*
X023882Y021550D01*
X025655Y021353D02*
X025851Y021353D01*
X026048Y021353D01*
X025851Y021353D02*
X025851Y020763D01*
X025458Y021156D02*
X025460Y021182D01*
X025465Y021207D01*
X025473Y021231D01*
X025484Y021255D01*
X025499Y021276D01*
X025516Y021295D01*
X025535Y021312D01*
X025556Y021327D01*
X025580Y021338D01*
X025604Y021346D01*
X025629Y021351D01*
X025655Y021353D01*
X026048Y021353D02*
X026074Y021351D01*
X026099Y021346D01*
X026123Y021338D01*
X026147Y021327D01*
X026168Y021312D01*
X026187Y021295D01*
X026204Y021276D01*
X026219Y021254D01*
X026230Y021231D01*
X026238Y021207D01*
X026243Y021182D01*
X026245Y021156D01*
X021745Y021747D02*
X021351Y021747D01*
X020958Y021747D01*
X021351Y021747D02*
X021351Y022337D01*
X019382Y021550D02*
X019384Y021647D01*
X019391Y021743D01*
X019403Y021839D01*
X019420Y021934D01*
X019441Y022028D01*
X019467Y022122D01*
X019497Y022213D01*
X019532Y022304D01*
X019571Y022392D01*
X019614Y022478D01*
X019662Y022562D01*
X019714Y022644D01*
X019769Y022723D01*
X019829Y022799D01*
X019892Y022872D01*
X019959Y022942D01*
X020029Y023009D01*
X020102Y023072D01*
X020178Y023132D01*
X020257Y023187D01*
X020339Y023239D01*
X020423Y023287D01*
X020509Y023330D01*
X020597Y023369D01*
X020688Y023404D01*
X020779Y023434D01*
X020873Y023460D01*
X020967Y023481D01*
X021062Y023498D01*
X021158Y023510D01*
X021254Y023517D01*
X021351Y023519D01*
X021448Y023517D01*
X021544Y023510D01*
X021640Y023498D01*
X021735Y023481D01*
X021829Y023460D01*
X021923Y023434D01*
X022014Y023404D01*
X022105Y023369D01*
X022193Y023330D01*
X022279Y023287D01*
X022363Y023239D01*
X022445Y023187D01*
X022524Y023132D01*
X022600Y023072D01*
X022673Y023009D01*
X022743Y022942D01*
X022810Y022872D01*
X022873Y022799D01*
X022933Y022723D01*
X022988Y022644D01*
X023040Y022562D01*
X023088Y022478D01*
X023131Y022392D01*
X023170Y022304D01*
X023205Y022213D01*
X023235Y022122D01*
X023261Y022028D01*
X023282Y021934D01*
X023299Y021839D01*
X023311Y021743D01*
X023318Y021647D01*
X023320Y021550D01*
X023318Y021453D01*
X023311Y021357D01*
X023299Y021261D01*
X023282Y021166D01*
X023261Y021072D01*
X023235Y020978D01*
X023205Y020887D01*
X023170Y020796D01*
X023131Y020708D01*
X023088Y020622D01*
X023040Y020538D01*
X022988Y020456D01*
X022933Y020377D01*
X022873Y020301D01*
X022810Y020228D01*
X022743Y020158D01*
X022673Y020091D01*
X022600Y020028D01*
X022524Y019968D01*
X022445Y019913D01*
X022363Y019861D01*
X022279Y019813D01*
X022193Y019770D01*
X022105Y019731D01*
X022014Y019696D01*
X021923Y019666D01*
X021829Y019640D01*
X021735Y019619D01*
X021640Y019602D01*
X021544Y019590D01*
X021448Y019583D01*
X021351Y019581D01*
X021254Y019583D01*
X021158Y019590D01*
X021062Y019602D01*
X020967Y019619D01*
X020873Y019640D01*
X020779Y019666D01*
X020688Y019696D01*
X020597Y019731D01*
X020509Y019770D01*
X020423Y019813D01*
X020339Y019861D01*
X020257Y019913D01*
X020178Y019968D01*
X020102Y020028D01*
X020029Y020091D01*
X019959Y020158D01*
X019892Y020228D01*
X019829Y020301D01*
X019769Y020377D01*
X019714Y020456D01*
X019662Y020538D01*
X019614Y020622D01*
X019571Y020708D01*
X019532Y020796D01*
X019497Y020887D01*
X019467Y020978D01*
X019441Y021072D01*
X019420Y021166D01*
X019403Y021261D01*
X019391Y021357D01*
X019384Y021453D01*
X019382Y021550D01*
X021155Y021353D02*
X021351Y021353D01*
X021548Y021353D01*
X021351Y021353D02*
X021351Y020763D01*
X020958Y021156D02*
X020960Y021182D01*
X020965Y021207D01*
X020973Y021231D01*
X020984Y021255D01*
X020999Y021276D01*
X021016Y021295D01*
X021035Y021312D01*
X021056Y021327D01*
X021080Y021338D01*
X021104Y021346D01*
X021129Y021351D01*
X021155Y021353D01*
X021548Y021353D02*
X021574Y021351D01*
X021599Y021346D01*
X021623Y021338D01*
X021647Y021327D01*
X021668Y021312D01*
X021687Y021295D01*
X021704Y021276D01*
X021719Y021254D01*
X021730Y021231D01*
X021738Y021207D01*
X021743Y021182D01*
X021745Y021156D01*
X035477Y014524D02*
X044225Y014524D01*
X044225Y012028D01*
X035477Y012028D01*
X035477Y014524D01*
X030271Y011480D02*
X029431Y011480D01*
X029431Y009620D01*
X030271Y009620D01*
X030271Y011480D01*
X035477Y010774D02*
X044225Y010774D01*
X044225Y008278D01*
X035477Y008278D01*
X035477Y010774D01*
X035727Y007024D02*
X044475Y007024D01*
X044475Y004528D01*
X035727Y004528D01*
X035727Y007024D01*
X028741Y004115D02*
X028741Y003485D01*
X027875Y003485D01*
X027876Y003269D02*
X027876Y004331D01*
X027874Y004331D02*
X025825Y004331D01*
X025825Y003269D01*
X027876Y003269D01*
X027281Y002720D02*
X027281Y001880D01*
X025421Y001880D01*
X025421Y002720D01*
X027281Y002720D01*
X026615Y003643D02*
X026615Y003800D01*
X026851Y003800D01*
X026615Y003800D02*
X026615Y003957D01*
X026379Y003800D01*
X026615Y003643D01*
X026379Y003643D02*
X026379Y003800D01*
X026379Y003957D01*
X026379Y003800D02*
X026221Y003800D01*
X025828Y003485D02*
X024962Y003485D01*
X024962Y004115D01*
X025828Y004115D01*
X024571Y004280D02*
X023631Y004280D01*
X024571Y004280D02*
X024606Y004243D01*
X024637Y004203D01*
X024666Y004162D01*
X024691Y004118D01*
X024713Y004072D01*
X024732Y004024D01*
X024746Y003976D01*
X024757Y003926D01*
X024764Y003876D01*
X024768Y003825D01*
X024767Y003775D01*
X024763Y003724D01*
X024755Y003674D01*
X024743Y003625D01*
X024727Y003576D01*
X024708Y003529D01*
X024685Y003484D01*
X024658Y003441D01*
X024629Y003399D01*
X024596Y003360D01*
X024561Y003324D01*
X024523Y003290D01*
X024483Y003260D01*
X024440Y003232D01*
X024395Y003208D01*
X024349Y003188D01*
X024301Y003171D01*
X024252Y003157D01*
X024202Y003148D01*
X024152Y003142D01*
X024101Y003140D01*
X024050Y003142D01*
X024000Y003148D01*
X023950Y003157D01*
X023901Y003171D01*
X023853Y003188D01*
X023807Y003208D01*
X023762Y003232D01*
X023719Y003260D01*
X023679Y003290D01*
X023641Y003324D01*
X023606Y003360D01*
X023573Y003399D01*
X023544Y003441D01*
X023517Y003484D01*
X023494Y003529D01*
X023475Y003576D01*
X023459Y003625D01*
X023447Y003674D01*
X023439Y003724D01*
X023435Y003775D01*
X023434Y003825D01*
X023438Y003876D01*
X023445Y003926D01*
X023456Y003976D01*
X023470Y004024D01*
X023489Y004072D01*
X023511Y004118D01*
X023536Y004162D01*
X023565Y004203D01*
X023596Y004243D01*
X023631Y004280D01*
X022281Y004470D02*
X022281Y003630D01*
X020421Y003630D01*
X020421Y004470D01*
X022281Y004470D01*
X023931Y005118D02*
X024771Y005118D01*
X024771Y006982D01*
X023931Y006982D01*
X023931Y005118D01*
X023771Y006368D02*
X022931Y006368D01*
X022931Y008232D01*
X023771Y008232D01*
X023771Y006368D01*
X027875Y004115D02*
X028741Y004115D01*
X030171Y003720D02*
X032031Y003720D01*
X032031Y002880D01*
X030171Y002880D01*
X030171Y003720D01*
X030171Y002720D02*
X032031Y002720D01*
X032031Y001880D01*
X030171Y001880D01*
X030171Y002720D01*
X035551Y003000D02*
X035551Y001600D01*
X039151Y001600D01*
X039151Y003000D01*
X035551Y003000D01*
X024284Y002220D02*
X024284Y001380D01*
X022419Y001380D01*
X022419Y002220D01*
X024284Y002220D01*
X021101Y003300D02*
X021101Y001050D01*
X046141Y008550D02*
X046141Y012550D01*
X051062Y012550D01*
X051062Y008550D01*
X046141Y008550D01*
X045201Y002800D02*
X045204Y002905D01*
X045211Y003011D01*
X045224Y003115D01*
X045242Y003219D01*
X045265Y003322D01*
X045294Y003424D01*
X045327Y003524D01*
X045365Y003623D01*
X045407Y003719D01*
X045455Y003814D01*
X045507Y003905D01*
X045563Y003994D01*
X045624Y004081D01*
X045689Y004164D01*
X045758Y004244D01*
X045831Y004320D01*
X045907Y004393D01*
X045987Y004462D01*
X046070Y004527D01*
X046157Y004588D01*
X046246Y004644D01*
X046337Y004696D01*
X046432Y004744D01*
X046528Y004786D01*
X046627Y004824D01*
X046727Y004857D01*
X046829Y004886D01*
X046932Y004909D01*
X047036Y004927D01*
X047140Y004940D01*
X047246Y004947D01*
X047351Y004950D01*
X047456Y004947D01*
X047562Y004940D01*
X047666Y004927D01*
X047770Y004909D01*
X047873Y004886D01*
X047975Y004857D01*
X048075Y004824D01*
X048174Y004786D01*
X048270Y004744D01*
X048365Y004696D01*
X048456Y004644D01*
X048545Y004588D01*
X048632Y004527D01*
X048715Y004462D01*
X048795Y004393D01*
X048871Y004320D01*
X048944Y004244D01*
X049013Y004164D01*
X049078Y004081D01*
X049139Y003994D01*
X049195Y003905D01*
X049247Y003814D01*
X049295Y003719D01*
X049337Y003623D01*
X049375Y003524D01*
X049408Y003424D01*
X049437Y003322D01*
X049460Y003219D01*
X049478Y003115D01*
X049491Y003011D01*
X049498Y002905D01*
X049501Y002800D01*
X049498Y002695D01*
X049491Y002589D01*
X049478Y002485D01*
X049460Y002381D01*
X049437Y002278D01*
X049408Y002176D01*
X049375Y002076D01*
X049337Y001977D01*
X049295Y001881D01*
X049247Y001786D01*
X049195Y001695D01*
X049139Y001606D01*
X049078Y001519D01*
X049013Y001436D01*
X048944Y001356D01*
X048871Y001280D01*
X048795Y001207D01*
X048715Y001138D01*
X048632Y001073D01*
X048545Y001012D01*
X048456Y000956D01*
X048365Y000904D01*
X048270Y000856D01*
X048174Y000814D01*
X048075Y000776D01*
X047975Y000743D01*
X047873Y000714D01*
X047770Y000691D01*
X047666Y000673D01*
X047562Y000660D01*
X047456Y000653D01*
X047351Y000650D01*
X047246Y000653D01*
X047140Y000660D01*
X047036Y000673D01*
X046932Y000691D01*
X046829Y000714D01*
X046727Y000743D01*
X046627Y000776D01*
X046528Y000814D01*
X046432Y000856D01*
X046337Y000904D01*
X046246Y000956D01*
X046157Y001012D01*
X046070Y001073D01*
X045987Y001138D01*
X045907Y001207D01*
X045831Y001280D01*
X045758Y001356D01*
X045689Y001436D01*
X045624Y001519D01*
X045563Y001606D01*
X045507Y001695D01*
X045455Y001786D01*
X045407Y001881D01*
X045365Y001977D01*
X045327Y002076D01*
X045294Y002176D01*
X045265Y002278D01*
X045242Y002381D01*
X045224Y002485D01*
X045211Y002589D01*
X045204Y002695D01*
X045201Y002800D01*
X045201Y018300D02*
X045204Y018405D01*
X045211Y018511D01*
X045224Y018615D01*
X045242Y018719D01*
X045265Y018822D01*
X045294Y018924D01*
X045327Y019024D01*
X045365Y019123D01*
X045407Y019219D01*
X045455Y019314D01*
X045507Y019405D01*
X045563Y019494D01*
X045624Y019581D01*
X045689Y019664D01*
X045758Y019744D01*
X045831Y019820D01*
X045907Y019893D01*
X045987Y019962D01*
X046070Y020027D01*
X046157Y020088D01*
X046246Y020144D01*
X046337Y020196D01*
X046432Y020244D01*
X046528Y020286D01*
X046627Y020324D01*
X046727Y020357D01*
X046829Y020386D01*
X046932Y020409D01*
X047036Y020427D01*
X047140Y020440D01*
X047246Y020447D01*
X047351Y020450D01*
X047456Y020447D01*
X047562Y020440D01*
X047666Y020427D01*
X047770Y020409D01*
X047873Y020386D01*
X047975Y020357D01*
X048075Y020324D01*
X048174Y020286D01*
X048270Y020244D01*
X048365Y020196D01*
X048456Y020144D01*
X048545Y020088D01*
X048632Y020027D01*
X048715Y019962D01*
X048795Y019893D01*
X048871Y019820D01*
X048944Y019744D01*
X049013Y019664D01*
X049078Y019581D01*
X049139Y019494D01*
X049195Y019405D01*
X049247Y019314D01*
X049295Y019219D01*
X049337Y019123D01*
X049375Y019024D01*
X049408Y018924D01*
X049437Y018822D01*
X049460Y018719D01*
X049478Y018615D01*
X049491Y018511D01*
X049498Y018405D01*
X049501Y018300D01*
X049498Y018195D01*
X049491Y018089D01*
X049478Y017985D01*
X049460Y017881D01*
X049437Y017778D01*
X049408Y017676D01*
X049375Y017576D01*
X049337Y017477D01*
X049295Y017381D01*
X049247Y017286D01*
X049195Y017195D01*
X049139Y017106D01*
X049078Y017019D01*
X049013Y016936D01*
X048944Y016856D01*
X048871Y016780D01*
X048795Y016707D01*
X048715Y016638D01*
X048632Y016573D01*
X048545Y016512D01*
X048456Y016456D01*
X048365Y016404D01*
X048270Y016356D01*
X048174Y016314D01*
X048075Y016276D01*
X047975Y016243D01*
X047873Y016214D01*
X047770Y016191D01*
X047666Y016173D01*
X047562Y016160D01*
X047456Y016153D01*
X047351Y016150D01*
X047246Y016153D01*
X047140Y016160D01*
X047036Y016173D01*
X046932Y016191D01*
X046829Y016214D01*
X046727Y016243D01*
X046627Y016276D01*
X046528Y016314D01*
X046432Y016356D01*
X046337Y016404D01*
X046246Y016456D01*
X046157Y016512D01*
X046070Y016573D01*
X045987Y016638D01*
X045907Y016707D01*
X045831Y016780D01*
X045758Y016856D01*
X045689Y016936D01*
X045624Y017019D01*
X045563Y017106D01*
X045507Y017195D01*
X045455Y017286D01*
X045407Y017381D01*
X045365Y017477D01*
X045327Y017576D01*
X045294Y017676D01*
X045265Y017778D01*
X045242Y017881D01*
X045224Y017985D01*
X045211Y018089D01*
X045204Y018195D01*
X045201Y018300D01*
X043851Y020763D02*
X043851Y021353D01*
X043655Y021353D01*
X043851Y021353D02*
X044048Y021353D01*
X044074Y021351D01*
X044099Y021346D01*
X044123Y021338D01*
X044147Y021327D01*
X044168Y021312D01*
X044187Y021295D01*
X044204Y021276D01*
X044219Y021254D01*
X044230Y021231D01*
X044238Y021207D01*
X044243Y021182D01*
X044245Y021156D01*
X041882Y021550D02*
X041884Y021647D01*
X041891Y021743D01*
X041903Y021839D01*
X041920Y021934D01*
X041941Y022028D01*
X041967Y022122D01*
X041997Y022213D01*
X042032Y022304D01*
X042071Y022392D01*
X042114Y022478D01*
X042162Y022562D01*
X042214Y022644D01*
X042269Y022723D01*
X042329Y022799D01*
X042392Y022872D01*
X042459Y022942D01*
X042529Y023009D01*
X042602Y023072D01*
X042678Y023132D01*
X042757Y023187D01*
X042839Y023239D01*
X042923Y023287D01*
X043009Y023330D01*
X043097Y023369D01*
X043188Y023404D01*
X043279Y023434D01*
X043373Y023460D01*
X043467Y023481D01*
X043562Y023498D01*
X043658Y023510D01*
X043754Y023517D01*
X043851Y023519D01*
X043948Y023517D01*
X044044Y023510D01*
X044140Y023498D01*
X044235Y023481D01*
X044329Y023460D01*
X044423Y023434D01*
X044514Y023404D01*
X044605Y023369D01*
X044693Y023330D01*
X044779Y023287D01*
X044863Y023239D01*
X044945Y023187D01*
X045024Y023132D01*
X045100Y023072D01*
X045173Y023009D01*
X045243Y022942D01*
X045310Y022872D01*
X045373Y022799D01*
X045433Y022723D01*
X045488Y022644D01*
X045540Y022562D01*
X045588Y022478D01*
X045631Y022392D01*
X045670Y022304D01*
X045705Y022213D01*
X045735Y022122D01*
X045761Y022028D01*
X045782Y021934D01*
X045799Y021839D01*
X045811Y021743D01*
X045818Y021647D01*
X045820Y021550D01*
X045818Y021453D01*
X045811Y021357D01*
X045799Y021261D01*
X045782Y021166D01*
X045761Y021072D01*
X045735Y020978D01*
X045705Y020887D01*
X045670Y020796D01*
X045631Y020708D01*
X045588Y020622D01*
X045540Y020538D01*
X045488Y020456D01*
X045433Y020377D01*
X045373Y020301D01*
X045310Y020228D01*
X045243Y020158D01*
X045173Y020091D01*
X045100Y020028D01*
X045024Y019968D01*
X044945Y019913D01*
X044863Y019861D01*
X044779Y019813D01*
X044693Y019770D01*
X044605Y019731D01*
X044514Y019696D01*
X044423Y019666D01*
X044329Y019640D01*
X044235Y019619D01*
X044140Y019602D01*
X044044Y019590D01*
X043948Y019583D01*
X043851Y019581D01*
X043754Y019583D01*
X043658Y019590D01*
X043562Y019602D01*
X043467Y019619D01*
X043373Y019640D01*
X043279Y019666D01*
X043188Y019696D01*
X043097Y019731D01*
X043009Y019770D01*
X042923Y019813D01*
X042839Y019861D01*
X042757Y019913D01*
X042678Y019968D01*
X042602Y020028D01*
X042529Y020091D01*
X042459Y020158D01*
X042392Y020228D01*
X042329Y020301D01*
X042269Y020377D01*
X042214Y020456D01*
X042162Y020538D01*
X042114Y020622D01*
X042071Y020708D01*
X042032Y020796D01*
X041997Y020887D01*
X041967Y020978D01*
X041941Y021072D01*
X041920Y021166D01*
X041903Y021261D01*
X041891Y021357D01*
X041884Y021453D01*
X041882Y021550D01*
X043458Y021747D02*
X043851Y021747D01*
X044245Y021747D01*
X043851Y021747D02*
X043851Y022337D01*
X043655Y021353D02*
X043629Y021351D01*
X043604Y021346D01*
X043580Y021338D01*
X043556Y021327D01*
X043535Y021312D01*
X043516Y021295D01*
X043499Y021276D01*
X043484Y021255D01*
X043473Y021231D01*
X043465Y021207D01*
X043460Y021182D01*
X043458Y021156D01*
X039745Y021747D02*
X039351Y021747D01*
X038958Y021747D01*
X039351Y021747D02*
X039351Y022337D01*
X037382Y021550D02*
X037384Y021647D01*
X037391Y021743D01*
X037403Y021839D01*
X037420Y021934D01*
X037441Y022028D01*
X037467Y022122D01*
X037497Y022213D01*
X037532Y022304D01*
X037571Y022392D01*
X037614Y022478D01*
X037662Y022562D01*
X037714Y022644D01*
X037769Y022723D01*
X037829Y022799D01*
X037892Y022872D01*
X037959Y022942D01*
X038029Y023009D01*
X038102Y023072D01*
X038178Y023132D01*
X038257Y023187D01*
X038339Y023239D01*
X038423Y023287D01*
X038509Y023330D01*
X038597Y023369D01*
X038688Y023404D01*
X038779Y023434D01*
X038873Y023460D01*
X038967Y023481D01*
X039062Y023498D01*
X039158Y023510D01*
X039254Y023517D01*
X039351Y023519D01*
X039448Y023517D01*
X039544Y023510D01*
X039640Y023498D01*
X039735Y023481D01*
X039829Y023460D01*
X039923Y023434D01*
X040014Y023404D01*
X040105Y023369D01*
X040193Y023330D01*
X040279Y023287D01*
X040363Y023239D01*
X040445Y023187D01*
X040524Y023132D01*
X040600Y023072D01*
X040673Y023009D01*
X040743Y022942D01*
X040810Y022872D01*
X040873Y022799D01*
X040933Y022723D01*
X040988Y022644D01*
X041040Y022562D01*
X041088Y022478D01*
X041131Y022392D01*
X041170Y022304D01*
X041205Y022213D01*
X041235Y022122D01*
X041261Y022028D01*
X041282Y021934D01*
X041299Y021839D01*
X041311Y021743D01*
X041318Y021647D01*
X041320Y021550D01*
X041318Y021453D01*
X041311Y021357D01*
X041299Y021261D01*
X041282Y021166D01*
X041261Y021072D01*
X041235Y020978D01*
X041205Y020887D01*
X041170Y020796D01*
X041131Y020708D01*
X041088Y020622D01*
X041040Y020538D01*
X040988Y020456D01*
X040933Y020377D01*
X040873Y020301D01*
X040810Y020228D01*
X040743Y020158D01*
X040673Y020091D01*
X040600Y020028D01*
X040524Y019968D01*
X040445Y019913D01*
X040363Y019861D01*
X040279Y019813D01*
X040193Y019770D01*
X040105Y019731D01*
X040014Y019696D01*
X039923Y019666D01*
X039829Y019640D01*
X039735Y019619D01*
X039640Y019602D01*
X039544Y019590D01*
X039448Y019583D01*
X039351Y019581D01*
X039254Y019583D01*
X039158Y019590D01*
X039062Y019602D01*
X038967Y019619D01*
X038873Y019640D01*
X038779Y019666D01*
X038688Y019696D01*
X038597Y019731D01*
X038509Y019770D01*
X038423Y019813D01*
X038339Y019861D01*
X038257Y019913D01*
X038178Y019968D01*
X038102Y020028D01*
X038029Y020091D01*
X037959Y020158D01*
X037892Y020228D01*
X037829Y020301D01*
X037769Y020377D01*
X037714Y020456D01*
X037662Y020538D01*
X037614Y020622D01*
X037571Y020708D01*
X037532Y020796D01*
X037497Y020887D01*
X037467Y020978D01*
X037441Y021072D01*
X037420Y021166D01*
X037403Y021261D01*
X037391Y021357D01*
X037384Y021453D01*
X037382Y021550D01*
X039155Y021353D02*
X039351Y021353D01*
X039548Y021353D01*
X039351Y021353D02*
X039351Y020763D01*
X038958Y021156D02*
X038960Y021182D01*
X038965Y021207D01*
X038973Y021231D01*
X038984Y021255D01*
X038999Y021276D01*
X039016Y021295D01*
X039035Y021312D01*
X039056Y021327D01*
X039080Y021338D01*
X039104Y021346D01*
X039129Y021351D01*
X039155Y021353D01*
X039548Y021353D02*
X039574Y021351D01*
X039599Y021346D01*
X039623Y021338D01*
X039647Y021327D01*
X039668Y021312D01*
X039687Y021295D01*
X039704Y021276D01*
X039719Y021254D01*
X039730Y021231D01*
X039738Y021207D01*
X039743Y021182D01*
X039745Y021156D01*
X047958Y021747D02*
X048351Y021747D01*
X048745Y021747D01*
X048351Y021747D02*
X048351Y022337D01*
X046382Y021550D02*
X046384Y021647D01*
X046391Y021743D01*
X046403Y021839D01*
X046420Y021934D01*
X046441Y022028D01*
X046467Y022122D01*
X046497Y022213D01*
X046532Y022304D01*
X046571Y022392D01*
X046614Y022478D01*
X046662Y022562D01*
X046714Y022644D01*
X046769Y022723D01*
X046829Y022799D01*
X046892Y022872D01*
X046959Y022942D01*
X047029Y023009D01*
X047102Y023072D01*
X047178Y023132D01*
X047257Y023187D01*
X047339Y023239D01*
X047423Y023287D01*
X047509Y023330D01*
X047597Y023369D01*
X047688Y023404D01*
X047779Y023434D01*
X047873Y023460D01*
X047967Y023481D01*
X048062Y023498D01*
X048158Y023510D01*
X048254Y023517D01*
X048351Y023519D01*
X048448Y023517D01*
X048544Y023510D01*
X048640Y023498D01*
X048735Y023481D01*
X048829Y023460D01*
X048923Y023434D01*
X049014Y023404D01*
X049105Y023369D01*
X049193Y023330D01*
X049279Y023287D01*
X049363Y023239D01*
X049445Y023187D01*
X049524Y023132D01*
X049600Y023072D01*
X049673Y023009D01*
X049743Y022942D01*
X049810Y022872D01*
X049873Y022799D01*
X049933Y022723D01*
X049988Y022644D01*
X050040Y022562D01*
X050088Y022478D01*
X050131Y022392D01*
X050170Y022304D01*
X050205Y022213D01*
X050235Y022122D01*
X050261Y022028D01*
X050282Y021934D01*
X050299Y021839D01*
X050311Y021743D01*
X050318Y021647D01*
X050320Y021550D01*
X050318Y021453D01*
X050311Y021357D01*
X050299Y021261D01*
X050282Y021166D01*
X050261Y021072D01*
X050235Y020978D01*
X050205Y020887D01*
X050170Y020796D01*
X050131Y020708D01*
X050088Y020622D01*
X050040Y020538D01*
X049988Y020456D01*
X049933Y020377D01*
X049873Y020301D01*
X049810Y020228D01*
X049743Y020158D01*
X049673Y020091D01*
X049600Y020028D01*
X049524Y019968D01*
X049445Y019913D01*
X049363Y019861D01*
X049279Y019813D01*
X049193Y019770D01*
X049105Y019731D01*
X049014Y019696D01*
X048923Y019666D01*
X048829Y019640D01*
X048735Y019619D01*
X048640Y019602D01*
X048544Y019590D01*
X048448Y019583D01*
X048351Y019581D01*
X048254Y019583D01*
X048158Y019590D01*
X048062Y019602D01*
X047967Y019619D01*
X047873Y019640D01*
X047779Y019666D01*
X047688Y019696D01*
X047597Y019731D01*
X047509Y019770D01*
X047423Y019813D01*
X047339Y019861D01*
X047257Y019913D01*
X047178Y019968D01*
X047102Y020028D01*
X047029Y020091D01*
X046959Y020158D01*
X046892Y020228D01*
X046829Y020301D01*
X046769Y020377D01*
X046714Y020456D01*
X046662Y020538D01*
X046614Y020622D01*
X046571Y020708D01*
X046532Y020796D01*
X046497Y020887D01*
X046467Y020978D01*
X046441Y021072D01*
X046420Y021166D01*
X046403Y021261D01*
X046391Y021357D01*
X046384Y021453D01*
X046382Y021550D01*
X048155Y021353D02*
X048351Y021353D01*
X048548Y021353D01*
X048351Y021353D02*
X048351Y020763D01*
X047958Y021156D02*
X047960Y021182D01*
X047965Y021207D01*
X047973Y021231D01*
X047984Y021255D01*
X047999Y021276D01*
X048016Y021295D01*
X048035Y021312D01*
X048056Y021327D01*
X048080Y021338D01*
X048104Y021346D01*
X048129Y021351D01*
X048155Y021353D01*
X048548Y021353D02*
X048574Y021351D01*
X048599Y021346D01*
X048623Y021338D01*
X048647Y021327D01*
X048668Y021312D01*
X048687Y021295D01*
X048704Y021276D01*
X048719Y021254D01*
X048730Y021231D01*
X048738Y021207D01*
X048743Y021182D01*
X048745Y021156D01*
X000701Y017300D02*
X000704Y017405D01*
X000711Y017511D01*
X000724Y017615D01*
X000742Y017719D01*
X000765Y017822D01*
X000794Y017924D01*
X000827Y018024D01*
X000865Y018123D01*
X000907Y018219D01*
X000955Y018314D01*
X001007Y018405D01*
X001063Y018494D01*
X001124Y018581D01*
X001189Y018664D01*
X001258Y018744D01*
X001331Y018820D01*
X001407Y018893D01*
X001487Y018962D01*
X001570Y019027D01*
X001657Y019088D01*
X001746Y019144D01*
X001837Y019196D01*
X001932Y019244D01*
X002028Y019286D01*
X002127Y019324D01*
X002227Y019357D01*
X002329Y019386D01*
X002432Y019409D01*
X002536Y019427D01*
X002640Y019440D01*
X002746Y019447D01*
X002851Y019450D01*
X002956Y019447D01*
X003062Y019440D01*
X003166Y019427D01*
X003270Y019409D01*
X003373Y019386D01*
X003475Y019357D01*
X003575Y019324D01*
X003674Y019286D01*
X003770Y019244D01*
X003865Y019196D01*
X003956Y019144D01*
X004045Y019088D01*
X004132Y019027D01*
X004215Y018962D01*
X004295Y018893D01*
X004371Y018820D01*
X004444Y018744D01*
X004513Y018664D01*
X004578Y018581D01*
X004639Y018494D01*
X004695Y018405D01*
X004747Y018314D01*
X004795Y018219D01*
X004837Y018123D01*
X004875Y018024D01*
X004908Y017924D01*
X004937Y017822D01*
X004960Y017719D01*
X004978Y017615D01*
X004991Y017511D01*
X004998Y017405D01*
X005001Y017300D01*
X004998Y017195D01*
X004991Y017089D01*
X004978Y016985D01*
X004960Y016881D01*
X004937Y016778D01*
X004908Y016676D01*
X004875Y016576D01*
X004837Y016477D01*
X004795Y016381D01*
X004747Y016286D01*
X004695Y016195D01*
X004639Y016106D01*
X004578Y016019D01*
X004513Y015936D01*
X004444Y015856D01*
X004371Y015780D01*
X004295Y015707D01*
X004215Y015638D01*
X004132Y015573D01*
X004045Y015512D01*
X003956Y015456D01*
X003865Y015404D01*
X003770Y015356D01*
X003674Y015314D01*
X003575Y015276D01*
X003475Y015243D01*
X003373Y015214D01*
X003270Y015191D01*
X003166Y015173D01*
X003062Y015160D01*
X002956Y015153D01*
X002851Y015150D01*
X002746Y015153D01*
X002640Y015160D01*
X002536Y015173D01*
X002432Y015191D01*
X002329Y015214D01*
X002227Y015243D01*
X002127Y015276D01*
X002028Y015314D01*
X001932Y015356D01*
X001837Y015404D01*
X001746Y015456D01*
X001657Y015512D01*
X001570Y015573D01*
X001487Y015638D01*
X001407Y015707D01*
X001331Y015780D01*
X001258Y015856D01*
X001189Y015936D01*
X001124Y016019D01*
X001063Y016106D01*
X001007Y016195D01*
X000955Y016286D01*
X000907Y016381D01*
X000865Y016477D01*
X000827Y016576D01*
X000794Y016676D01*
X000765Y016778D01*
X000742Y016881D01*
X000724Y016985D01*
X000711Y017089D01*
X000704Y017195D01*
X000701Y017300D01*
D14*
X002621Y018320D02*
X002621Y018780D01*
X002621Y018550D02*
X002928Y018550D01*
X003082Y018550D02*
X003389Y018550D01*
X003312Y018320D02*
X003312Y018780D01*
X003082Y018550D01*
X002928Y018780D02*
X002928Y018320D01*
X004844Y018751D02*
X004844Y019211D01*
X005075Y019211D01*
X005151Y019135D01*
X005151Y018828D01*
X005075Y018751D01*
X004844Y018751D01*
X005305Y018674D02*
X005612Y018674D01*
X005765Y018905D02*
X005919Y018751D01*
X006072Y018905D01*
X006072Y019211D01*
X006226Y019135D02*
X006226Y019058D01*
X006302Y018981D01*
X006456Y018981D01*
X006533Y018905D01*
X006533Y018828D01*
X006456Y018751D01*
X006302Y018751D01*
X006226Y018828D01*
X006226Y019135D02*
X006302Y019211D01*
X006456Y019211D01*
X006533Y019135D01*
X006686Y018981D02*
X006993Y018981D01*
X007146Y019058D02*
X007300Y019211D01*
X007300Y018751D01*
X007453Y018751D02*
X007146Y018751D01*
X007607Y018751D02*
X007914Y018751D01*
X008067Y018751D02*
X008297Y018751D01*
X008374Y018828D01*
X008374Y019135D01*
X008297Y019211D01*
X008067Y019211D01*
X008067Y018751D01*
X007760Y018751D02*
X007760Y019211D01*
X007607Y019058D01*
X008528Y019135D02*
X008528Y018828D01*
X008604Y018751D01*
X008758Y018751D01*
X008835Y018828D01*
X008835Y019135D01*
X008758Y019211D01*
X008604Y019211D01*
X008528Y019135D01*
X008681Y018905D02*
X008835Y018751D01*
X008988Y018828D02*
X009295Y019135D01*
X009295Y018828D01*
X009218Y018751D01*
X009065Y018751D01*
X008988Y018828D01*
X008988Y019135D01*
X009065Y019211D01*
X009218Y019211D01*
X009295Y019135D01*
X009448Y018981D02*
X009679Y018981D01*
X009755Y018905D01*
X009755Y018828D01*
X009679Y018751D01*
X009525Y018751D01*
X009448Y018828D01*
X009448Y018981D01*
X009602Y019135D01*
X009755Y019211D01*
X009389Y018030D02*
X009235Y017954D01*
X009082Y017800D01*
X009312Y017800D01*
X009389Y017723D01*
X009389Y017647D01*
X009312Y017570D01*
X009159Y017570D01*
X009082Y017647D01*
X009082Y017800D01*
X008928Y017647D02*
X008852Y017570D01*
X008698Y017570D01*
X008621Y017647D01*
X008621Y017954D01*
X008698Y018030D01*
X008852Y018030D01*
X008928Y017954D01*
X008928Y017647D01*
X008928Y017570D02*
X008775Y017723D01*
X008681Y017320D02*
X008681Y016706D01*
X008604Y016783D02*
X008758Y016783D01*
X008835Y016859D01*
X008835Y016936D01*
X008758Y017013D01*
X008604Y017013D01*
X008528Y017090D01*
X008528Y017166D01*
X008604Y017243D01*
X008758Y017243D01*
X008835Y017166D01*
X008988Y017090D02*
X009141Y017243D01*
X009141Y016783D01*
X008988Y016783D02*
X009295Y016783D01*
X009448Y016859D02*
X009755Y017166D01*
X009755Y016859D01*
X009679Y016783D01*
X009525Y016783D01*
X009448Y016859D01*
X009448Y017166D01*
X009525Y017243D01*
X009679Y017243D01*
X009755Y017166D01*
X008604Y016783D02*
X008528Y016859D01*
X008374Y016859D02*
X008374Y017243D01*
X008067Y017243D02*
X008067Y016859D01*
X008144Y016783D01*
X008297Y016783D01*
X008374Y016859D01*
X013084Y017411D02*
X013084Y017871D01*
X013314Y017871D01*
X013391Y017794D01*
X013391Y017641D01*
X013314Y017564D01*
X013084Y017564D01*
X013237Y017564D02*
X013391Y017411D01*
X013544Y017411D02*
X013851Y017411D01*
X013698Y017411D02*
X013698Y017871D01*
X013544Y017717D01*
X014005Y017641D02*
X014158Y017717D01*
X014235Y017717D01*
X014312Y017641D01*
X014312Y017487D01*
X014235Y017411D01*
X014081Y017411D01*
X014005Y017487D01*
X014005Y017641D02*
X014005Y017871D01*
X014312Y017871D01*
X016778Y016613D02*
X016778Y016306D01*
X016854Y016229D01*
X017008Y016229D01*
X017085Y016306D01*
X017238Y016229D02*
X017545Y016536D01*
X017545Y016613D01*
X017468Y016690D01*
X017315Y016690D01*
X017238Y016613D01*
X017085Y016613D02*
X017008Y016690D01*
X016854Y016690D01*
X016778Y016613D01*
X017698Y016690D02*
X017698Y016460D01*
X017852Y016536D01*
X017929Y016536D01*
X018005Y016460D01*
X018005Y016306D01*
X017929Y016229D01*
X017775Y016229D01*
X017698Y016306D01*
X017545Y016229D02*
X017238Y016229D01*
X017698Y016690D02*
X018005Y016690D01*
X018736Y015999D02*
X018736Y015539D01*
X018583Y015539D02*
X018890Y015539D01*
X019043Y015615D02*
X019120Y015539D01*
X019274Y015539D01*
X019350Y015615D01*
X019350Y015769D01*
X019274Y015845D01*
X019197Y015845D01*
X019043Y015769D01*
X019043Y015999D01*
X019350Y015999D01*
X019504Y015845D02*
X019504Y015615D01*
X019580Y015539D01*
X019811Y015539D01*
X019811Y015845D01*
X019964Y015769D02*
X020118Y015769D01*
X019964Y015999D02*
X020271Y015999D01*
X019964Y015999D02*
X019964Y015539D01*
X019944Y015296D02*
X019791Y015296D01*
X019714Y015219D01*
X019714Y015143D01*
X019791Y015066D01*
X020021Y015066D01*
X020021Y015219D02*
X019944Y015296D01*
X020021Y015219D02*
X020021Y014912D01*
X019944Y014836D01*
X019791Y014836D01*
X019714Y014912D01*
X019561Y014836D02*
X019254Y014836D01*
X019407Y014836D02*
X019407Y015296D01*
X019254Y015143D01*
X019100Y015219D02*
X019024Y015296D01*
X018870Y015296D01*
X018793Y015219D01*
X018793Y014912D01*
X018870Y014836D01*
X019024Y014836D01*
X019100Y014912D01*
X018583Y015845D02*
X018736Y015999D01*
X021889Y015952D02*
X021889Y015645D01*
X021889Y014771D02*
X021889Y014464D01*
X022042Y014617D02*
X021735Y014617D01*
X025334Y015607D02*
X025334Y016068D01*
X025564Y016068D01*
X025641Y015991D01*
X025641Y015684D01*
X025564Y015607D01*
X025334Y015607D01*
X025794Y015684D02*
X025871Y015607D01*
X026025Y015607D01*
X026101Y015684D01*
X026101Y015838D01*
X026025Y015914D01*
X025948Y015914D01*
X025794Y015838D01*
X025794Y016068D01*
X026101Y016068D01*
X026334Y016099D02*
X026334Y015792D01*
X026487Y015639D01*
X026641Y015792D01*
X026641Y016099D01*
X026794Y016023D02*
X026871Y016099D01*
X027025Y016099D01*
X027101Y016023D01*
X027025Y015869D02*
X027101Y015792D01*
X027101Y015716D01*
X027025Y015639D01*
X026871Y015639D01*
X026794Y015716D01*
X026871Y015869D02*
X027025Y015869D01*
X026871Y015869D02*
X026794Y015946D01*
X026794Y016023D01*
X027255Y015869D02*
X027562Y015869D01*
X027715Y015946D02*
X027869Y016099D01*
X027869Y015639D01*
X028022Y015639D02*
X027715Y015639D01*
X028176Y015639D02*
X028482Y015639D01*
X028329Y015639D02*
X028329Y016099D01*
X028176Y015946D01*
X028636Y016099D02*
X028636Y015639D01*
X028866Y015639D01*
X028943Y015716D01*
X028943Y016023D01*
X028866Y016099D01*
X028636Y016099D01*
X029096Y016023D02*
X029173Y016099D01*
X029327Y016099D01*
X029403Y016023D01*
X029403Y015716D01*
X029327Y015639D01*
X029173Y015639D01*
X029096Y015716D01*
X029096Y016023D01*
X029250Y015792D02*
X029403Y015639D01*
X029557Y015716D02*
X029864Y016023D01*
X029864Y015716D01*
X029787Y015639D01*
X029633Y015639D01*
X029557Y015716D01*
X029557Y016023D01*
X029633Y016099D01*
X029787Y016099D01*
X029864Y016023D01*
X030017Y015869D02*
X030247Y015869D01*
X030324Y015792D01*
X030324Y015716D01*
X030247Y015639D01*
X030094Y015639D01*
X030017Y015716D01*
X030017Y015869D01*
X030171Y016023D01*
X030324Y016099D01*
X030312Y015530D02*
X030159Y015530D01*
X030082Y015454D01*
X029928Y015454D02*
X029928Y015300D01*
X029852Y015223D01*
X029621Y015223D01*
X029621Y015070D02*
X029621Y015530D01*
X029852Y015530D01*
X029928Y015454D01*
X029775Y015223D02*
X029928Y015070D01*
X030082Y015070D02*
X030389Y015377D01*
X030389Y015454D01*
X030312Y015530D01*
X030389Y015070D02*
X030082Y015070D01*
X030082Y014280D02*
X030389Y014280D01*
X030389Y014204D01*
X030082Y013897D01*
X030082Y013820D01*
X029928Y013820D02*
X029775Y013973D01*
X029852Y013973D02*
X029621Y013973D01*
X029621Y013820D02*
X029621Y014280D01*
X029852Y014280D01*
X029928Y014204D01*
X029928Y014050D01*
X029852Y013973D01*
X029852Y013030D02*
X029928Y012954D01*
X029928Y012800D01*
X029852Y012723D01*
X029621Y012723D01*
X029621Y012570D02*
X029621Y013030D01*
X029852Y013030D01*
X029775Y012723D02*
X029928Y012570D01*
X030082Y012800D02*
X030389Y012800D01*
X030312Y012570D02*
X030312Y013030D01*
X030082Y012800D01*
X029331Y012090D02*
X029255Y012167D01*
X029178Y012167D01*
X029101Y012090D01*
X029101Y012013D01*
X029101Y012090D02*
X029024Y012167D01*
X028948Y012167D01*
X028871Y012090D01*
X028871Y011936D01*
X028948Y011860D01*
X028871Y011706D02*
X029255Y011706D01*
X029331Y011629D01*
X029331Y011476D01*
X029255Y011399D01*
X028871Y011399D01*
X028780Y011010D02*
X028780Y010703D01*
X029011Y010703D01*
X028934Y010857D01*
X028934Y010934D01*
X029011Y011010D01*
X029164Y011010D01*
X029241Y010934D01*
X029241Y010780D01*
X029164Y010703D01*
X029241Y010550D02*
X029241Y010243D01*
X029241Y010396D02*
X028780Y010396D01*
X028934Y010243D01*
X028857Y010090D02*
X028780Y010013D01*
X028780Y009859D01*
X028857Y009783D01*
X029164Y009783D01*
X029241Y009859D01*
X029241Y010013D01*
X029164Y010090D01*
X029255Y011860D02*
X029331Y011936D01*
X029331Y012090D01*
X022831Y011298D02*
X022831Y010991D01*
X022524Y011298D01*
X022448Y011298D01*
X022371Y011221D01*
X022371Y011068D01*
X022448Y010991D01*
X022371Y010684D02*
X022831Y010684D01*
X022831Y010837D02*
X022831Y010530D01*
X022831Y010377D02*
X022678Y010223D01*
X022678Y010300D02*
X022678Y010070D01*
X022831Y010070D02*
X022371Y010070D01*
X022371Y010300D01*
X022448Y010377D01*
X022601Y010377D01*
X022678Y010300D01*
X022524Y010530D02*
X022371Y010684D01*
X019081Y010706D02*
X019081Y010399D01*
X019081Y010246D02*
X018928Y010092D01*
X018928Y010169D02*
X018928Y009939D01*
X019081Y009939D02*
X018621Y009939D01*
X018621Y010169D01*
X018698Y010246D01*
X018851Y010246D01*
X018928Y010169D01*
X018774Y010399D02*
X018621Y010553D01*
X019081Y010553D01*
X019005Y010860D02*
X019081Y010936D01*
X019081Y011090D01*
X019005Y011167D01*
X018928Y011167D01*
X018851Y011090D01*
X018851Y011013D01*
X018851Y011090D02*
X018774Y011167D01*
X018698Y011167D01*
X018621Y011090D01*
X018621Y010936D01*
X018698Y010860D01*
X020278Y012306D02*
X020354Y012229D01*
X020508Y012229D01*
X020585Y012306D01*
X020738Y012229D02*
X021045Y012229D01*
X020891Y012229D02*
X020891Y012690D01*
X020738Y012536D01*
X020585Y012613D02*
X020508Y012690D01*
X020354Y012690D01*
X020278Y012613D01*
X020278Y012306D01*
X021198Y012460D02*
X021429Y012690D01*
X021429Y012229D01*
X021505Y012460D02*
X021198Y012460D01*
X018012Y013157D02*
X017936Y013080D01*
X018012Y013157D02*
X018012Y013311D01*
X017936Y013387D01*
X017859Y013387D01*
X017782Y013311D01*
X017782Y013157D01*
X017706Y013080D01*
X017629Y013080D01*
X017552Y013157D01*
X017552Y013311D01*
X017629Y013387D01*
X017706Y013541D02*
X017552Y013694D01*
X018012Y013694D01*
X018012Y013541D02*
X018012Y013848D01*
X022212Y016803D02*
X022288Y016726D01*
X022595Y016726D01*
X022672Y016803D01*
X022672Y016956D01*
X022595Y017033D01*
X022672Y017187D02*
X022365Y017494D01*
X022288Y017494D01*
X022212Y017417D01*
X022212Y017263D01*
X022288Y017187D01*
X022288Y017033D02*
X022212Y016956D01*
X022212Y016803D01*
X022672Y017187D02*
X022672Y017494D01*
X022595Y017647D02*
X022672Y017724D01*
X022672Y017877D01*
X022595Y017954D01*
X022518Y017954D01*
X022442Y017877D01*
X022442Y017800D01*
X022442Y017877D02*
X022365Y017954D01*
X022288Y017954D01*
X022212Y017877D01*
X022212Y017724D01*
X022288Y017647D01*
X020453Y018320D02*
X019993Y018320D01*
X019993Y018550D01*
X020070Y018627D01*
X020223Y018627D01*
X020300Y018550D01*
X020300Y018320D01*
X020300Y018473D02*
X020453Y018627D01*
X020453Y018780D02*
X020453Y019087D01*
X020453Y018934D02*
X019993Y018934D01*
X020146Y018780D01*
X019453Y019176D02*
X018993Y019176D01*
X018993Y019406D01*
X019070Y019483D01*
X019223Y019483D01*
X019300Y019406D01*
X019300Y019176D01*
X019300Y019330D02*
X019453Y019483D01*
X019453Y019637D02*
X019453Y019944D01*
X019453Y019790D02*
X018993Y019790D01*
X019146Y019637D01*
X018816Y019960D02*
X018739Y019883D01*
X018432Y019883D01*
X018355Y019960D01*
X018355Y020114D01*
X018432Y020190D01*
X018739Y020190D01*
X018816Y020114D01*
X018816Y019960D01*
X018662Y020037D02*
X018816Y020190D01*
X018739Y020344D02*
X018662Y020344D01*
X018585Y020421D01*
X018585Y020574D01*
X018662Y020651D01*
X018739Y020651D01*
X018816Y020574D01*
X018816Y020421D01*
X018739Y020344D01*
X018585Y020421D02*
X018509Y020344D01*
X018432Y020344D01*
X018355Y020421D01*
X018355Y020574D01*
X018432Y020651D01*
X018509Y020651D01*
X018585Y020574D01*
X018993Y020327D02*
X019070Y020404D01*
X019377Y020097D01*
X019453Y020174D01*
X019453Y020327D01*
X019377Y020404D01*
X019070Y020404D01*
X018993Y020327D02*
X018993Y020174D01*
X019070Y020097D01*
X019377Y020097D01*
X020453Y019548D02*
X020453Y019241D01*
X020453Y019394D02*
X019993Y019394D01*
X020146Y019241D01*
X021964Y021289D02*
X022117Y021289D01*
X022194Y021365D01*
X022348Y021289D02*
X022654Y021289D01*
X022501Y021289D02*
X022501Y021749D01*
X022348Y021595D01*
X022194Y021672D02*
X022117Y021749D01*
X021964Y021749D01*
X021887Y021672D01*
X021887Y021365D01*
X021964Y021289D01*
X022808Y021365D02*
X023115Y021672D01*
X023115Y021365D01*
X023038Y021289D01*
X022885Y021289D01*
X022808Y021365D01*
X022808Y021672D01*
X022885Y021749D01*
X023038Y021749D01*
X023115Y021672D01*
X026387Y021672D02*
X026387Y021365D01*
X026464Y021289D01*
X026617Y021289D01*
X026694Y021365D01*
X026848Y021365D02*
X026924Y021289D01*
X027078Y021289D01*
X027154Y021365D01*
X027154Y021672D01*
X027078Y021749D01*
X026924Y021749D01*
X026848Y021672D01*
X026848Y021595D01*
X026924Y021519D01*
X027154Y021519D01*
X026694Y021672D02*
X026617Y021749D01*
X026464Y021749D01*
X026387Y021672D01*
X030887Y021672D02*
X030887Y021365D01*
X030964Y021289D01*
X031117Y021289D01*
X031194Y021365D01*
X031348Y021365D02*
X031348Y021442D01*
X031424Y021519D01*
X031578Y021519D01*
X031654Y021442D01*
X031654Y021365D01*
X031578Y021289D01*
X031424Y021289D01*
X031348Y021365D01*
X031424Y021519D02*
X031348Y021595D01*
X031348Y021672D01*
X031424Y021749D01*
X031578Y021749D01*
X031654Y021672D01*
X031654Y021595D01*
X031578Y021519D01*
X031194Y021672D02*
X031117Y021749D01*
X030964Y021749D01*
X030887Y021672D01*
X035387Y021672D02*
X035387Y021365D01*
X035464Y021289D01*
X035617Y021289D01*
X035694Y021365D01*
X035848Y021365D02*
X035848Y021289D01*
X035848Y021365D02*
X036154Y021672D01*
X036154Y021749D01*
X035848Y021749D01*
X035694Y021672D02*
X035617Y021749D01*
X035464Y021749D01*
X035387Y021672D01*
X039887Y021672D02*
X039887Y021365D01*
X039964Y021289D01*
X040117Y021289D01*
X040194Y021365D01*
X040348Y021365D02*
X040424Y021289D01*
X040578Y021289D01*
X040654Y021365D01*
X040654Y021442D01*
X040578Y021519D01*
X040348Y021519D01*
X040348Y021365D01*
X040348Y021519D02*
X040501Y021672D01*
X040654Y021749D01*
X040194Y021672D02*
X040117Y021749D01*
X039964Y021749D01*
X039887Y021672D01*
X044387Y021672D02*
X044387Y021365D01*
X044464Y021289D01*
X044617Y021289D01*
X044694Y021365D01*
X044848Y021365D02*
X044924Y021289D01*
X045078Y021289D01*
X045154Y021365D01*
X045154Y021519D01*
X045078Y021595D01*
X045001Y021595D01*
X044848Y021519D01*
X044848Y021749D01*
X045154Y021749D01*
X044694Y021672D02*
X044617Y021749D01*
X044464Y021749D01*
X044387Y021672D01*
X048887Y021672D02*
X048887Y021365D01*
X048964Y021289D01*
X049117Y021289D01*
X049194Y021365D01*
X049348Y021519D02*
X049578Y021749D01*
X049578Y021289D01*
X049654Y021519D02*
X049348Y021519D01*
X049194Y021672D02*
X049117Y021749D01*
X048964Y021749D01*
X048887Y021672D01*
X046639Y019454D02*
X046562Y019530D01*
X046409Y019530D01*
X046332Y019454D01*
X046178Y019530D02*
X046178Y019070D01*
X046332Y019070D02*
X046639Y019377D01*
X046639Y019454D01*
X046639Y019070D02*
X046332Y019070D01*
X046178Y019300D02*
X045871Y019300D01*
X045871Y019070D02*
X045871Y019530D01*
X045909Y018280D02*
X045832Y018204D01*
X045909Y018280D02*
X046062Y018280D01*
X046139Y018204D01*
X046139Y018127D01*
X045832Y017820D01*
X046139Y017820D01*
X045678Y017897D02*
X045678Y018204D01*
X045602Y018280D01*
X045371Y018280D01*
X045371Y017820D01*
X045602Y017820D01*
X045678Y017897D01*
X048451Y017820D02*
X048681Y017820D01*
X048758Y017897D01*
X048758Y018204D01*
X048681Y018280D01*
X048451Y018280D01*
X048451Y017820D01*
X048911Y018050D02*
X049218Y018050D01*
X049141Y017820D02*
X049141Y018280D01*
X048911Y018050D01*
X041950Y017985D02*
X041643Y017985D01*
X041643Y018446D01*
X041950Y018446D01*
X041796Y018216D02*
X041643Y018216D01*
X041489Y018139D02*
X041336Y017985D01*
X041183Y018139D01*
X041183Y018446D01*
X041029Y018446D02*
X040876Y018446D01*
X040952Y018446D02*
X040952Y017985D01*
X040876Y017985D02*
X041029Y017985D01*
X040722Y017985D02*
X040415Y017985D01*
X040415Y018446D01*
X039801Y018216D02*
X039494Y018216D01*
X038881Y018446D02*
X038574Y018446D01*
X038727Y018446D02*
X038727Y017985D01*
X038420Y018062D02*
X038420Y018369D01*
X038343Y018446D01*
X038190Y018446D01*
X038113Y018369D01*
X038113Y018062D01*
X038190Y017985D01*
X038343Y017985D01*
X038420Y018062D01*
X037960Y017985D02*
X037960Y018446D01*
X037845Y018617D02*
X038075Y018617D01*
X038075Y018924D01*
X038229Y018847D02*
X038382Y018847D01*
X038229Y018617D02*
X038229Y019078D01*
X038536Y019078D01*
X037768Y018924D02*
X037768Y018694D01*
X037845Y018617D01*
X037615Y018694D02*
X037538Y018617D01*
X037385Y018617D01*
X037308Y018694D01*
X037615Y019001D01*
X037615Y018694D01*
X037653Y018446D02*
X037653Y017985D01*
X037653Y018216D02*
X037960Y018216D01*
X037308Y018694D02*
X037308Y019001D01*
X037385Y019078D01*
X037538Y019078D01*
X037615Y019001D01*
X037154Y019078D02*
X036848Y019078D01*
X036848Y018847D01*
X037001Y018924D01*
X037078Y018924D01*
X037154Y018847D01*
X037154Y018694D01*
X037078Y018617D01*
X036924Y018617D01*
X036848Y018694D01*
X036694Y018617D02*
X036387Y018617D01*
X036541Y018617D02*
X036541Y019078D01*
X036387Y018924D01*
X035929Y018847D02*
X035622Y018847D01*
X035469Y018847D02*
X035469Y019001D01*
X035392Y019078D01*
X035162Y019078D01*
X035162Y018617D01*
X035008Y018617D02*
X034701Y018617D01*
X034548Y018617D02*
X034548Y019078D01*
X034701Y018924D02*
X034855Y019078D01*
X034855Y018617D01*
X034548Y018617D02*
X034241Y019078D01*
X034241Y018617D01*
X034088Y018694D02*
X034088Y019001D01*
X034011Y019078D01*
X033781Y019078D01*
X033781Y018617D01*
X034011Y018617D01*
X034088Y018694D01*
X033627Y018617D02*
X033627Y019078D01*
X033474Y018924D01*
X033320Y019078D01*
X033320Y018617D01*
X033167Y018617D02*
X032860Y018617D01*
X033013Y018617D02*
X033013Y019078D01*
X032860Y018924D01*
X032706Y018847D02*
X032706Y018694D01*
X032630Y018617D01*
X032476Y018617D01*
X032399Y018694D01*
X032399Y018847D02*
X032553Y018924D01*
X032630Y018924D01*
X032706Y018847D01*
X032706Y019078D02*
X032399Y019078D01*
X032399Y018847D01*
X032246Y018617D02*
X031939Y018617D01*
X032093Y018617D02*
X032093Y019078D01*
X031939Y018924D01*
X031786Y018771D02*
X031786Y019078D01*
X031786Y018771D02*
X031632Y018617D01*
X031479Y018771D01*
X031479Y019078D01*
X031172Y019078D02*
X031172Y018617D01*
X031325Y018617D02*
X031018Y018617D01*
X030865Y018694D02*
X030865Y019078D01*
X031018Y018924D02*
X031172Y019078D01*
X030558Y019078D02*
X030558Y018694D01*
X030635Y018617D01*
X030788Y018617D01*
X030865Y018694D01*
X030404Y018617D02*
X030404Y019078D01*
X030098Y019078D02*
X030404Y018617D01*
X030098Y018617D02*
X030098Y019078D01*
X029944Y019001D02*
X029944Y018847D01*
X029867Y018771D01*
X029637Y018771D01*
X029791Y018771D02*
X029944Y018617D01*
X029637Y018617D02*
X029637Y019078D01*
X029867Y019078D01*
X029944Y019001D01*
X029352Y018440D02*
X029352Y017979D01*
X029505Y017979D02*
X029198Y017979D01*
X029045Y017979D02*
X028738Y017979D01*
X029045Y018286D01*
X029045Y018363D01*
X028968Y018440D01*
X028815Y018440D01*
X028738Y018363D01*
X028585Y018363D02*
X028508Y018440D01*
X028354Y018440D01*
X028278Y018363D01*
X028278Y018056D01*
X028354Y017979D01*
X028508Y017979D01*
X028585Y018056D01*
X029198Y018286D02*
X029352Y018440D01*
X029179Y017440D02*
X029255Y017363D01*
X029255Y017286D01*
X029179Y017210D01*
X029255Y017133D01*
X029255Y017056D01*
X029179Y016979D01*
X029025Y016979D01*
X028948Y017056D01*
X028795Y017056D02*
X028718Y016979D01*
X028565Y016979D01*
X028488Y017056D01*
X028488Y017363D01*
X028565Y017440D01*
X028718Y017440D01*
X028795Y017363D01*
X028948Y017363D02*
X029025Y017440D01*
X029179Y017440D01*
X029179Y017210D02*
X029102Y017210D01*
X027312Y018737D02*
X027235Y018661D01*
X027081Y018661D01*
X027005Y018737D01*
X026851Y018661D02*
X026544Y018661D01*
X026698Y018661D02*
X026698Y019121D01*
X026544Y018967D01*
X026391Y019044D02*
X026314Y019121D01*
X026161Y019121D01*
X026084Y019044D01*
X026084Y018737D01*
X026161Y018661D01*
X026314Y018661D01*
X026391Y018737D01*
X027005Y019044D02*
X027081Y019121D01*
X027235Y019121D01*
X027312Y019044D01*
X027312Y018967D01*
X027235Y018891D01*
X027312Y018814D01*
X027312Y018737D01*
X027235Y018891D02*
X027158Y018891D01*
X025581Y018340D02*
X025581Y018186D01*
X025505Y018110D01*
X025351Y018110D02*
X025274Y018263D01*
X025274Y018340D01*
X025351Y018417D01*
X025505Y018417D01*
X025581Y018340D01*
X025351Y018110D02*
X025121Y018110D01*
X025121Y018417D01*
X025198Y017956D02*
X025505Y017956D01*
X025581Y017879D01*
X025581Y017726D01*
X025505Y017649D01*
X025198Y017649D01*
X025121Y017726D01*
X025121Y017879D01*
X025198Y017956D01*
X025428Y017803D02*
X025581Y017956D01*
X035162Y018771D02*
X035392Y018771D01*
X035469Y018847D01*
X035622Y018617D02*
X035622Y019078D01*
X035929Y019078D02*
X035929Y018617D01*
X041489Y018446D02*
X041489Y018139D01*
X037026Y015554D02*
X036950Y015631D01*
X036796Y015631D01*
X036720Y015554D01*
X036566Y015554D02*
X036566Y015247D01*
X036489Y015170D01*
X036336Y015170D01*
X036259Y015247D01*
X036259Y015554D01*
X036336Y015631D01*
X036489Y015631D01*
X036566Y015554D01*
X036413Y015324D02*
X036566Y015170D01*
X036720Y015170D02*
X037026Y015477D01*
X037026Y015554D01*
X037026Y015170D02*
X036720Y015170D01*
X037903Y014696D02*
X037903Y014235D01*
X037903Y014466D02*
X038210Y014466D01*
X038363Y014619D02*
X038363Y014312D01*
X038440Y014235D01*
X038593Y014235D01*
X038670Y014312D01*
X038670Y014619D01*
X038593Y014696D01*
X038440Y014696D01*
X038363Y014619D01*
X038210Y014696D02*
X038210Y014235D01*
X038977Y014235D02*
X038977Y014696D01*
X038824Y014696D02*
X039131Y014696D01*
X039744Y014466D02*
X040051Y014466D01*
X040665Y014696D02*
X040665Y014235D01*
X040972Y014235D01*
X041126Y014235D02*
X041279Y014235D01*
X041202Y014235D02*
X041202Y014696D01*
X041126Y014696D02*
X041279Y014696D01*
X041433Y014696D02*
X041433Y014389D01*
X041586Y014235D01*
X041739Y014389D01*
X041739Y014696D01*
X041893Y014696D02*
X041893Y014235D01*
X042200Y014235D01*
X042046Y014466D02*
X041893Y014466D01*
X041893Y014696D02*
X042200Y014696D01*
X037200Y011881D02*
X036970Y011651D01*
X037276Y011651D01*
X037200Y011881D02*
X037200Y011420D01*
X036816Y011420D02*
X036663Y011574D01*
X036816Y011497D02*
X036739Y011420D01*
X036586Y011420D01*
X036509Y011497D01*
X036509Y011804D01*
X036586Y011881D01*
X036739Y011881D01*
X036816Y011804D01*
X036816Y011497D01*
X037903Y010946D02*
X037903Y010485D01*
X037903Y010716D02*
X038210Y010716D01*
X038363Y010869D02*
X038363Y010562D01*
X038440Y010485D01*
X038593Y010485D01*
X038670Y010562D01*
X038670Y010869D01*
X038593Y010946D01*
X038440Y010946D01*
X038363Y010869D01*
X038210Y010946D02*
X038210Y010485D01*
X038977Y010485D02*
X038977Y010946D01*
X038824Y010946D02*
X039131Y010946D01*
X039744Y010716D02*
X040051Y010716D01*
X040665Y010946D02*
X040665Y010485D01*
X040972Y010485D01*
X041126Y010485D02*
X041279Y010485D01*
X041202Y010485D02*
X041202Y010946D01*
X041126Y010946D02*
X041279Y010946D01*
X041433Y010946D02*
X041433Y010639D01*
X041586Y010485D01*
X041739Y010639D01*
X041739Y010946D01*
X041893Y010946D02*
X041893Y010485D01*
X042200Y010485D01*
X042046Y010716D02*
X041893Y010716D01*
X041893Y010946D02*
X042200Y010946D01*
X045265Y010651D02*
X045725Y010651D01*
X045725Y010804D02*
X045725Y010497D01*
X045648Y010267D02*
X045265Y010267D01*
X045265Y010190D02*
X045265Y010344D01*
X045418Y010497D02*
X045265Y010651D01*
X045648Y010267D02*
X045725Y010190D01*
X045725Y010114D01*
X045648Y010037D01*
X042450Y007196D02*
X042143Y007196D01*
X042143Y006735D01*
X042450Y006735D01*
X042296Y006966D02*
X042143Y006966D01*
X041989Y006889D02*
X041836Y006735D01*
X041683Y006889D01*
X041683Y007196D01*
X041529Y007196D02*
X041376Y007196D01*
X041452Y007196D02*
X041452Y006735D01*
X041376Y006735D02*
X041529Y006735D01*
X041222Y006735D02*
X040915Y006735D01*
X040915Y007196D01*
X040301Y006966D02*
X039994Y006966D01*
X039381Y007196D02*
X039074Y007196D01*
X039227Y007196D02*
X039227Y006735D01*
X038920Y006812D02*
X038920Y007119D01*
X038843Y007196D01*
X038690Y007196D01*
X038613Y007119D01*
X038613Y006812D01*
X038690Y006735D01*
X038843Y006735D01*
X038920Y006812D01*
X038460Y006735D02*
X038460Y007196D01*
X038460Y006966D02*
X038153Y006966D01*
X038153Y007196D02*
X038153Y006735D01*
X037200Y007670D02*
X037046Y007670D01*
X036970Y007747D01*
X036816Y007747D02*
X036816Y008054D01*
X036739Y008131D01*
X036586Y008131D01*
X036509Y008054D01*
X036509Y007747D01*
X036586Y007670D01*
X036739Y007670D01*
X036816Y007747D01*
X036816Y007670D02*
X036663Y007824D01*
X036970Y008054D02*
X037046Y008131D01*
X037200Y008131D01*
X037276Y008054D01*
X037276Y007977D01*
X037200Y007901D01*
X037276Y007824D01*
X037276Y007747D01*
X037200Y007670D01*
X037200Y007901D02*
X037123Y007901D01*
X041989Y007196D02*
X041989Y006889D01*
X036373Y004381D02*
X036373Y003920D01*
X036220Y003920D02*
X036526Y003920D01*
X036290Y003568D02*
X036137Y003568D01*
X036060Y003491D01*
X035907Y003491D02*
X035600Y003184D01*
X035600Y003107D01*
X035907Y003107D01*
X036060Y003107D02*
X036367Y003414D01*
X036367Y003491D01*
X036290Y003568D01*
X035907Y003568D02*
X035907Y003491D01*
X035907Y003568D02*
X035600Y003568D01*
X035836Y003920D02*
X035759Y003997D01*
X035759Y004304D01*
X035836Y004381D01*
X035989Y004381D01*
X036066Y004304D01*
X036066Y003997D01*
X035989Y003920D01*
X035836Y003920D01*
X035913Y004074D02*
X036066Y003920D01*
X036220Y004227D02*
X036373Y004381D01*
X036367Y003107D02*
X036060Y003107D01*
X031255Y003979D02*
X030948Y003979D01*
X030795Y003979D02*
X030488Y003979D01*
X030641Y003979D02*
X030641Y004440D01*
X030488Y004286D01*
X030335Y004363D02*
X030258Y004440D01*
X030104Y004440D01*
X030028Y004363D01*
X030028Y004056D01*
X030104Y003979D01*
X030258Y003979D01*
X030335Y004056D01*
X029997Y004389D02*
X030074Y004466D01*
X030074Y004542D01*
X029997Y004619D01*
X029767Y004619D01*
X029767Y004466D01*
X029844Y004389D01*
X029997Y004389D01*
X029767Y004619D02*
X029921Y004773D01*
X030074Y004849D01*
X030082Y005070D02*
X030389Y005070D01*
X030235Y005070D02*
X030235Y005530D01*
X030082Y005377D01*
X029928Y005454D02*
X029928Y005300D01*
X029852Y005223D01*
X029621Y005223D01*
X029621Y005070D02*
X029621Y005530D01*
X029852Y005530D01*
X029928Y005454D01*
X029775Y005223D02*
X029928Y005070D01*
X029614Y004773D02*
X029537Y004849D01*
X029383Y004849D01*
X029307Y004773D01*
X029307Y004466D01*
X029614Y004773D01*
X029614Y004466D01*
X029537Y004389D01*
X029383Y004389D01*
X029307Y004466D01*
X029153Y004466D02*
X029077Y004389D01*
X028923Y004389D01*
X028846Y004466D01*
X028846Y004773D01*
X028923Y004849D01*
X029077Y004849D01*
X029153Y004773D01*
X029153Y004466D01*
X029153Y004389D02*
X029000Y004542D01*
X028693Y004466D02*
X028693Y004773D01*
X028616Y004849D01*
X028386Y004849D01*
X028386Y004389D01*
X028616Y004389D01*
X028693Y004466D01*
X028232Y004389D02*
X027926Y004389D01*
X028079Y004389D02*
X028079Y004849D01*
X027926Y004696D01*
X027619Y004849D02*
X027619Y004389D01*
X027772Y004389D02*
X027465Y004389D01*
X027312Y004619D02*
X027005Y004619D01*
X026851Y004542D02*
X026851Y004466D01*
X026775Y004389D01*
X026621Y004389D01*
X026544Y004466D01*
X026391Y004542D02*
X026391Y004849D01*
X026544Y004773D02*
X026544Y004696D01*
X026621Y004619D01*
X026775Y004619D01*
X026851Y004542D01*
X026851Y004773D02*
X026775Y004849D01*
X026621Y004849D01*
X026544Y004773D01*
X026391Y004542D02*
X026237Y004389D01*
X026084Y004542D01*
X026084Y004849D01*
X025851Y004818D02*
X025698Y004741D01*
X025544Y004588D01*
X025775Y004588D01*
X025851Y004511D01*
X025851Y004434D01*
X025775Y004357D01*
X025621Y004357D01*
X025544Y004434D01*
X025544Y004588D01*
X025391Y004741D02*
X025314Y004818D01*
X025084Y004818D01*
X025084Y004357D01*
X025314Y004357D01*
X025391Y004434D01*
X025391Y004741D01*
X024491Y004723D02*
X024414Y004800D01*
X024261Y004800D01*
X024184Y004723D01*
X024184Y004646D01*
X024261Y004493D01*
X024030Y004493D01*
X024030Y004800D01*
X024491Y004723D02*
X024491Y004570D01*
X024414Y004493D01*
X024491Y004340D02*
X024337Y004186D01*
X024337Y004263D02*
X024337Y004033D01*
X024491Y004033D02*
X024030Y004033D01*
X024030Y004263D01*
X024107Y004340D01*
X024261Y004340D01*
X024337Y004263D01*
X023491Y005533D02*
X023030Y005533D01*
X023030Y005763D01*
X023107Y005840D01*
X023261Y005840D01*
X023337Y005763D01*
X023337Y005533D01*
X023337Y005686D02*
X023491Y005840D01*
X023414Y005993D02*
X023491Y006070D01*
X023491Y006223D01*
X023414Y006300D01*
X023337Y006300D01*
X023261Y006223D01*
X023261Y005993D01*
X023414Y005993D01*
X023261Y005993D02*
X023107Y006146D01*
X023030Y006300D01*
X021812Y005121D02*
X021658Y005044D01*
X021505Y004891D01*
X021735Y004891D01*
X021812Y004814D01*
X021812Y004737D01*
X021735Y004661D01*
X021581Y004661D01*
X021505Y004737D01*
X021505Y004891D01*
X021389Y004800D02*
X021082Y004800D01*
X021312Y005030D01*
X021312Y004570D01*
X021351Y004661D02*
X021044Y004661D01*
X021351Y004967D01*
X021351Y005044D01*
X021275Y005121D01*
X021121Y005121D01*
X021044Y005044D01*
X020928Y005030D02*
X020928Y004647D01*
X020852Y004570D01*
X020698Y004570D01*
X020621Y004647D01*
X020621Y005030D01*
X020584Y005044D02*
X020584Y004737D01*
X020661Y004661D01*
X020814Y004661D01*
X020891Y004737D01*
X020891Y005044D02*
X020814Y005121D01*
X020661Y005121D01*
X020584Y005044D01*
X022621Y003087D02*
X022698Y003087D01*
X023005Y002780D01*
X023081Y002780D01*
X023044Y002717D02*
X023198Y002871D01*
X023198Y002411D01*
X023081Y002320D02*
X023081Y002550D01*
X023005Y002627D01*
X022698Y002627D01*
X022621Y002550D01*
X022621Y002320D01*
X023081Y002320D01*
X023044Y002411D02*
X023351Y002411D01*
X023505Y002487D02*
X023581Y002411D01*
X023735Y002411D01*
X023812Y002487D01*
X023812Y002564D01*
X023735Y002641D01*
X023505Y002641D01*
X023505Y002487D01*
X023505Y002641D02*
X023658Y002794D01*
X023812Y002871D01*
X022891Y002794D02*
X022891Y002641D01*
X022814Y002564D01*
X022584Y002564D01*
X022737Y002564D02*
X022891Y002411D01*
X022584Y002411D02*
X022584Y002871D01*
X022814Y002871D01*
X022891Y002794D01*
X022621Y002780D02*
X022621Y003087D01*
X025778Y001613D02*
X025778Y001306D01*
X025854Y001229D01*
X026008Y001229D01*
X026085Y001306D01*
X026238Y001229D02*
X026545Y001229D01*
X026698Y001229D02*
X027005Y001536D01*
X027005Y001613D01*
X026929Y001690D01*
X026775Y001690D01*
X026698Y001613D01*
X026391Y001690D02*
X026391Y001229D01*
X026698Y001229D02*
X027005Y001229D01*
X026391Y001690D02*
X026238Y001536D01*
X026085Y001613D02*
X026008Y001690D01*
X025854Y001690D01*
X025778Y001613D01*
X030028Y001613D02*
X030028Y001306D01*
X030104Y001229D01*
X030258Y001229D01*
X030335Y001306D01*
X030488Y001229D02*
X030795Y001536D01*
X030795Y001613D01*
X030718Y001690D01*
X030565Y001690D01*
X030488Y001613D01*
X030335Y001613D02*
X030258Y001690D01*
X030104Y001690D01*
X030028Y001613D01*
X030488Y001229D02*
X030795Y001229D01*
X030948Y001229D02*
X031255Y001536D01*
X031255Y001613D01*
X031179Y001690D01*
X031025Y001690D01*
X030948Y001613D01*
X030948Y001229D02*
X031255Y001229D01*
X031102Y003979D02*
X031102Y004440D01*
X030948Y004286D01*
X027619Y004849D02*
X027465Y004696D01*
X029621Y006320D02*
X029621Y006780D01*
X029852Y006780D01*
X029928Y006704D01*
X029928Y006550D01*
X029852Y006473D01*
X029621Y006473D01*
X029775Y006473D02*
X029928Y006320D01*
X030082Y006397D02*
X030159Y006320D01*
X030312Y006320D01*
X030389Y006397D01*
X030389Y006473D01*
X030312Y006550D01*
X030159Y006550D01*
X030082Y006627D01*
X030082Y006704D01*
X030159Y006780D01*
X030312Y006780D01*
X030389Y006704D01*
X030389Y006627D01*
X030312Y006550D01*
X030159Y006550D02*
X030082Y006473D01*
X030082Y006397D01*
X030159Y007570D02*
X030082Y007647D01*
X030159Y007570D02*
X030312Y007570D01*
X030389Y007647D01*
X030389Y007723D01*
X030312Y007800D01*
X030235Y007800D01*
X030312Y007800D02*
X030389Y007877D01*
X030389Y007954D01*
X030312Y008030D01*
X030159Y008030D01*
X030082Y007954D01*
X029928Y007954D02*
X029928Y007800D01*
X029852Y007723D01*
X029621Y007723D01*
X029621Y007570D02*
X029621Y008030D01*
X029852Y008030D01*
X029928Y007954D01*
X029775Y007723D02*
X029928Y007570D01*
X045451Y003530D02*
X045451Y003070D01*
X045681Y003070D01*
X045758Y003147D01*
X045758Y003454D01*
X045681Y003530D01*
X045451Y003530D01*
X045911Y003377D02*
X046064Y003530D01*
X046064Y003070D01*
X045911Y003070D02*
X046218Y003070D01*
X048621Y003070D02*
X048852Y003070D01*
X048928Y003147D01*
X048928Y003454D01*
X048852Y003530D01*
X048621Y003530D01*
X048621Y003070D01*
X049082Y003147D02*
X049159Y003070D01*
X049312Y003070D01*
X049389Y003147D01*
X049389Y003223D01*
X049312Y003300D01*
X049235Y003300D01*
X049312Y003300D02*
X049389Y003377D01*
X049389Y003454D01*
X049312Y003530D01*
X049159Y003530D01*
X049082Y003454D01*
X047735Y001780D02*
X047735Y001320D01*
X047582Y001320D02*
X047889Y001320D01*
X047582Y001627D02*
X047735Y001780D01*
X047428Y001780D02*
X047428Y001320D01*
X047428Y001550D02*
X047121Y001550D01*
X047121Y001320D02*
X047121Y001780D01*
X019117Y000879D02*
X019117Y000802D01*
X019040Y000725D01*
X019117Y000649D01*
X019117Y000572D01*
X019040Y000495D01*
X018887Y000495D01*
X018810Y000572D01*
X018964Y000725D02*
X019040Y000725D01*
X019117Y000879D02*
X019040Y000956D01*
X018887Y000956D01*
X018810Y000879D01*
X018657Y000956D02*
X018503Y000956D01*
X018580Y000956D02*
X018580Y000572D01*
X018503Y000495D01*
X018426Y000495D01*
X018350Y000572D01*
X012831Y003397D02*
X012831Y003550D01*
X012755Y003627D01*
X012371Y003627D01*
X012371Y003780D02*
X012601Y003780D01*
X012524Y003934D01*
X012524Y004011D01*
X012601Y004087D01*
X012755Y004087D01*
X012831Y004011D01*
X012831Y003857D01*
X012755Y003780D01*
X012371Y003780D02*
X012371Y004087D01*
X011496Y003849D02*
X011496Y003389D01*
X011649Y003389D02*
X011342Y003389D01*
X011189Y003389D02*
X010882Y003849D01*
X011189Y003849D02*
X010882Y003389D01*
X011342Y003696D02*
X011496Y003849D01*
X010845Y004476D02*
X010922Y004553D01*
X010922Y004706D01*
X010845Y004783D01*
X010922Y004937D02*
X010922Y005244D01*
X010922Y005090D02*
X010462Y005090D01*
X010615Y004937D01*
X010538Y004783D02*
X010462Y004706D01*
X010462Y004553D01*
X010538Y004476D01*
X010845Y004476D01*
X008566Y004383D02*
X008259Y004690D01*
X008182Y004690D01*
X008105Y004614D01*
X008105Y004460D01*
X008182Y004383D01*
X008182Y004230D02*
X008105Y004153D01*
X008105Y004000D01*
X008182Y003923D01*
X008489Y003923D01*
X008566Y004000D01*
X008566Y004153D01*
X008489Y004230D01*
X008566Y004383D02*
X008566Y004690D01*
X008489Y004844D02*
X008182Y005151D01*
X008489Y005151D01*
X008566Y005074D01*
X008566Y004921D01*
X008489Y004844D01*
X008182Y004844D01*
X008105Y004921D01*
X008105Y005074D01*
X008182Y005151D01*
X010462Y005474D02*
X010462Y005627D01*
X010538Y005704D01*
X010615Y005704D01*
X010692Y005627D01*
X010692Y005474D01*
X010615Y005397D01*
X010538Y005397D01*
X010462Y005474D01*
X010692Y005474D02*
X010768Y005397D01*
X010845Y005397D01*
X010922Y005474D01*
X010922Y005627D01*
X010845Y005704D01*
X010768Y005704D01*
X010692Y005627D01*
X009241Y006859D02*
X009164Y006783D01*
X008857Y006783D01*
X008780Y006859D01*
X008780Y007013D01*
X008857Y007090D01*
X008934Y007243D02*
X008780Y007396D01*
X009241Y007396D01*
X009241Y007243D02*
X009241Y007550D01*
X009241Y007703D02*
X009164Y007703D01*
X008857Y008010D01*
X008780Y008010D01*
X008780Y007703D01*
X009164Y007090D02*
X009241Y007013D01*
X009241Y006859D01*
X005800Y006403D02*
X005800Y006249D01*
X005723Y006173D01*
X005723Y006019D02*
X005646Y006019D01*
X005570Y005942D01*
X005570Y005789D01*
X005493Y005712D01*
X005416Y005712D01*
X005339Y005789D01*
X005339Y005942D01*
X005416Y006019D01*
X005402Y005901D02*
X005402Y005594D01*
X005863Y005594D01*
X005800Y005482D02*
X005723Y005559D01*
X005339Y005559D01*
X005556Y005440D02*
X005863Y005440D01*
X005863Y005210D01*
X005786Y005133D01*
X005556Y005133D01*
X005633Y004980D02*
X005786Y004980D01*
X005863Y004903D01*
X005863Y004750D01*
X005786Y004673D01*
X005633Y004673D02*
X005556Y004827D01*
X005556Y004903D01*
X005633Y004980D01*
X005402Y004980D02*
X005402Y004673D01*
X005633Y004673D01*
X005863Y004520D02*
X005863Y004213D01*
X005863Y004366D02*
X005402Y004366D01*
X005556Y004213D01*
X005012Y004791D02*
X004552Y004791D01*
X004552Y005022D01*
X004629Y005098D01*
X004782Y005098D01*
X004859Y005022D01*
X004859Y004791D01*
X004859Y004945D02*
X005012Y005098D01*
X004936Y005252D02*
X005012Y005329D01*
X005012Y005405D01*
X004936Y005482D01*
X004552Y005482D01*
X004552Y005405D02*
X004552Y005559D01*
X004782Y005712D02*
X004552Y005942D01*
X005012Y005942D01*
X004782Y006019D02*
X004782Y005712D01*
X005263Y005866D02*
X005877Y005866D01*
X005800Y005942D02*
X005723Y006019D01*
X005800Y005942D02*
X005800Y005789D01*
X005723Y005712D01*
X005633Y005747D02*
X005633Y005594D01*
X005800Y005482D02*
X005800Y005329D01*
X005723Y005252D01*
X005339Y005252D01*
X005416Y006173D02*
X005339Y006249D01*
X005339Y006403D01*
X005416Y006480D01*
X005493Y006480D01*
X005570Y006403D01*
X005646Y006480D01*
X005723Y006480D01*
X005800Y006403D01*
X005570Y006403D02*
X005570Y006326D01*
X005012Y006249D02*
X004936Y006173D01*
X005012Y006249D02*
X005012Y006403D01*
X004936Y006480D01*
X004782Y006480D01*
X004706Y006403D01*
X004706Y006326D01*
X004782Y006173D01*
X004552Y006173D01*
X004552Y006480D01*
X012371Y003320D02*
X012755Y003320D01*
X012831Y003397D01*
X011601Y009911D02*
X011294Y009911D01*
X011448Y009911D02*
X011448Y010371D01*
X011294Y010217D01*
X011141Y010294D02*
X011064Y010371D01*
X010911Y010371D01*
X010834Y010294D01*
X010834Y009987D01*
X010911Y009911D01*
X011064Y009911D01*
X011141Y009987D01*
X009562Y009987D02*
X009562Y010064D01*
X009485Y010141D01*
X009255Y010141D01*
X009255Y009987D01*
X009331Y009911D01*
X009485Y009911D01*
X009562Y009987D01*
X009408Y010294D02*
X009255Y010141D01*
X009408Y010294D02*
X009562Y010371D01*
X008948Y010371D02*
X008794Y010217D01*
X008641Y010294D02*
X008564Y010371D01*
X008411Y010371D01*
X008334Y010294D01*
X008334Y009987D01*
X008411Y009911D01*
X008564Y009911D01*
X008641Y009987D01*
X008794Y009911D02*
X009101Y009911D01*
X008948Y009911D02*
X008948Y010371D01*
X008331Y010397D02*
X008331Y010550D01*
X008255Y010627D01*
X007948Y010627D01*
X007871Y010550D01*
X007871Y010397D01*
X007948Y010320D01*
X008255Y010320D01*
X008331Y010397D01*
X008178Y010473D02*
X008331Y010627D01*
X008331Y010780D02*
X008255Y010780D01*
X007948Y011087D01*
X007871Y011087D01*
X007871Y010780D01*
X006991Y010840D02*
X006837Y010686D01*
X006837Y010763D02*
X006837Y010533D01*
X006991Y010533D02*
X006530Y010533D01*
X006530Y010763D01*
X006607Y010840D01*
X006761Y010840D01*
X006837Y010763D01*
X006684Y010993D02*
X006530Y011146D01*
X006991Y011146D01*
X006991Y010993D02*
X006991Y011300D01*
X006914Y011453D02*
X006837Y011453D01*
X006761Y011530D01*
X006761Y011684D01*
X006837Y011760D01*
X006914Y011760D01*
X006991Y011684D01*
X006991Y011530D01*
X006914Y011453D01*
X006761Y011530D02*
X006684Y011453D01*
X006607Y011453D01*
X006530Y011530D01*
X006530Y011684D01*
X006607Y011760D01*
X006684Y011760D01*
X006761Y011684D01*
X006837Y012533D02*
X006837Y012763D01*
X006761Y012840D01*
X006607Y012840D01*
X006530Y012763D01*
X006530Y012533D01*
X006991Y012533D01*
X006837Y012686D02*
X006991Y012840D01*
X006991Y012993D02*
X006991Y013300D01*
X006991Y013453D02*
X006914Y013453D01*
X006607Y013760D01*
X006530Y013760D01*
X006530Y013453D01*
X006530Y013146D02*
X006991Y013146D01*
X006684Y012993D02*
X006530Y013146D01*
X005765Y018905D02*
X005765Y019211D01*
X005847Y019159D02*
X005847Y019466D01*
X005847Y019312D02*
X005387Y019312D01*
X005540Y019159D01*
X005463Y019619D02*
X005387Y019696D01*
X005387Y019849D01*
X005463Y019926D01*
X005770Y019619D01*
X005847Y019696D01*
X005847Y019849D01*
X005770Y019926D01*
X005463Y019926D01*
X005463Y020079D02*
X005387Y020156D01*
X005387Y020310D01*
X005463Y020386D01*
X005770Y020079D01*
X005847Y020156D01*
X005847Y020310D01*
X005770Y020386D01*
X005463Y020386D01*
X005463Y020540D02*
X005387Y020616D01*
X005387Y020770D01*
X005463Y020847D01*
X005770Y020540D01*
X005847Y020616D01*
X005847Y020770D01*
X005770Y020847D01*
X005463Y020847D01*
X005540Y021000D02*
X005770Y021000D01*
X005847Y021077D01*
X005847Y021307D01*
X005540Y021307D01*
X005617Y021461D02*
X005617Y021614D01*
X005847Y021461D02*
X005387Y021461D01*
X005387Y021767D01*
X006042Y021176D02*
X005965Y021099D01*
X005965Y020946D01*
X006042Y020869D01*
X006042Y020716D02*
X005965Y020639D01*
X005965Y020485D01*
X006042Y020409D01*
X006349Y020409D01*
X006426Y020485D01*
X006426Y020639D01*
X006349Y020716D01*
X006426Y020869D02*
X006119Y021176D01*
X006042Y021176D01*
X006426Y021176D02*
X006426Y020869D01*
X005770Y020540D02*
X005463Y020540D01*
X005463Y020079D02*
X005770Y020079D01*
X005770Y019619D02*
X005463Y019619D01*
X010940Y020832D02*
X011017Y020755D01*
X011324Y020755D01*
X011400Y020832D01*
X011400Y020985D01*
X011324Y021062D01*
X011400Y021215D02*
X011093Y021522D01*
X011017Y021522D01*
X010940Y021446D01*
X010940Y021292D01*
X011017Y021215D01*
X011017Y021062D02*
X010940Y020985D01*
X010940Y020832D01*
X011400Y021215D02*
X011400Y021522D01*
X011170Y021676D02*
X011170Y021983D01*
X010940Y021906D02*
X011170Y021676D01*
X011400Y021906D02*
X010940Y021906D01*
X011350Y022857D02*
X011657Y022857D01*
X011810Y022857D02*
X012117Y022857D01*
X011964Y022857D02*
X011964Y023318D01*
X011810Y023164D01*
X011657Y023241D02*
X011350Y022934D01*
X011350Y022857D01*
X011350Y023318D02*
X011657Y023318D01*
X011657Y023241D01*
X007106Y022810D02*
X007029Y022887D01*
X006876Y022887D01*
X006799Y022810D01*
X006645Y022887D02*
X006492Y022887D01*
X006569Y022887D02*
X006569Y022503D01*
X006492Y022426D01*
X006415Y022426D01*
X006338Y022503D01*
X006799Y022426D02*
X007106Y022733D01*
X007106Y022810D01*
X007106Y022426D02*
X006799Y022426D01*
D15*
X008501Y017050D02*
X008531Y015150D01*
X012671Y015150D01*
X012701Y017050D01*
X008501Y017050D01*
X008501Y016650D02*
X012701Y016650D01*
X013551Y015300D02*
X014351Y015300D01*
X014353Y015256D01*
X014359Y015213D01*
X014368Y015171D01*
X014381Y015129D01*
X014398Y015089D01*
X014418Y015050D01*
X014441Y015013D01*
X014468Y014979D01*
X014497Y014946D01*
X014530Y014917D01*
X014564Y014890D01*
X014601Y014867D01*
X014640Y014847D01*
X014680Y014830D01*
X014722Y014817D01*
X014764Y014808D01*
X014807Y014802D01*
X014851Y014800D01*
X014895Y014802D01*
X014938Y014808D01*
X014980Y014817D01*
X015022Y014830D01*
X015062Y014847D01*
X015101Y014867D01*
X015138Y014890D01*
X015172Y014917D01*
X015205Y014946D01*
X015234Y014979D01*
X015261Y015013D01*
X015284Y015050D01*
X015304Y015089D01*
X015321Y015129D01*
X015334Y015171D01*
X015343Y015213D01*
X015349Y015256D01*
X015351Y015300D01*
X016151Y015300D01*
X016151Y001300D01*
X013551Y001300D01*
X013551Y015300D01*
X011651Y014300D02*
X011651Y010300D01*
X010851Y010300D01*
X010849Y010344D01*
X010843Y010387D01*
X010834Y010429D01*
X010821Y010471D01*
X010804Y010511D01*
X010784Y010550D01*
X010761Y010587D01*
X010734Y010621D01*
X010705Y010654D01*
X010672Y010683D01*
X010638Y010710D01*
X010601Y010733D01*
X010562Y010753D01*
X010522Y010770D01*
X010480Y010783D01*
X010438Y010792D01*
X010395Y010798D01*
X010351Y010800D01*
X010307Y010798D01*
X010264Y010792D01*
X010222Y010783D01*
X010180Y010770D01*
X010140Y010753D01*
X010101Y010733D01*
X010064Y010710D01*
X010030Y010683D01*
X009997Y010654D01*
X009968Y010621D01*
X009941Y010587D01*
X009918Y010550D01*
X009898Y010511D01*
X009881Y010471D01*
X009868Y010429D01*
X009859Y010387D01*
X009853Y010344D01*
X009851Y010300D01*
X009051Y010300D01*
X009051Y014300D01*
X011651Y014300D01*
X019051Y012300D02*
X019851Y012300D01*
X019853Y012256D01*
X019859Y012213D01*
X019868Y012171D01*
X019881Y012129D01*
X019898Y012089D01*
X019918Y012050D01*
X019941Y012013D01*
X019968Y011979D01*
X019997Y011946D01*
X020030Y011917D01*
X020064Y011890D01*
X020101Y011867D01*
X020140Y011847D01*
X020180Y011830D01*
X020222Y011817D01*
X020264Y011808D01*
X020307Y011802D01*
X020351Y011800D01*
X020395Y011802D01*
X020438Y011808D01*
X020480Y011817D01*
X020522Y011830D01*
X020562Y011847D01*
X020601Y011867D01*
X020638Y011890D01*
X020672Y011917D01*
X020705Y011946D01*
X020734Y011979D01*
X020761Y012013D01*
X020784Y012050D01*
X020804Y012089D01*
X020821Y012129D01*
X020834Y012171D01*
X020843Y012213D01*
X020849Y012256D01*
X020851Y012300D01*
X021651Y012300D01*
X021651Y005300D01*
X019051Y005300D01*
X019051Y012300D01*
X018101Y011000D02*
X018001Y011050D01*
X017201Y011050D01*
X017101Y011000D01*
X017101Y010850D01*
X017201Y010800D01*
X017201Y008800D01*
X017101Y008750D01*
X017101Y008600D01*
X017201Y008550D01*
X018001Y008550D01*
X018101Y008600D01*
X018101Y008750D01*
X018001Y008800D01*
X018001Y010800D01*
X018101Y010850D01*
X018101Y011000D01*
X022851Y011850D02*
X022851Y012000D01*
X022951Y012050D01*
X023751Y012050D01*
X023851Y012000D01*
X023851Y011850D01*
X023751Y011800D01*
X023751Y009800D01*
X023851Y009750D01*
X023851Y009600D01*
X023751Y009550D01*
X022951Y009550D01*
X022851Y009600D01*
X022851Y009750D01*
X022951Y009800D01*
X022951Y011800D01*
X022851Y011850D01*
X022701Y014480D02*
X024601Y014450D01*
X024601Y018650D01*
X022701Y018620D01*
X022701Y014480D01*
X024201Y014450D02*
X024201Y018650D01*
X025551Y015300D02*
X026351Y015300D01*
X026353Y015256D01*
X026359Y015213D01*
X026368Y015171D01*
X026381Y015129D01*
X026398Y015089D01*
X026418Y015050D01*
X026441Y015013D01*
X026468Y014979D01*
X026497Y014946D01*
X026530Y014917D01*
X026564Y014890D01*
X026601Y014867D01*
X026640Y014847D01*
X026680Y014830D01*
X026722Y014817D01*
X026764Y014808D01*
X026807Y014802D01*
X026851Y014800D01*
X026895Y014802D01*
X026938Y014808D01*
X026980Y014817D01*
X027022Y014830D01*
X027062Y014847D01*
X027101Y014867D01*
X027138Y014890D01*
X027172Y014917D01*
X027205Y014946D01*
X027234Y014979D01*
X027261Y015013D01*
X027284Y015050D01*
X027304Y015089D01*
X027321Y015129D01*
X027334Y015171D01*
X027343Y015213D01*
X027349Y015256D01*
X027351Y015300D01*
X028151Y015300D01*
X028151Y005300D01*
X025551Y005300D01*
X025551Y015300D01*
X031601Y014900D02*
X031651Y014800D01*
X031801Y014800D01*
X031851Y014900D01*
X033851Y014900D01*
X033901Y014800D01*
X034051Y014800D01*
X034101Y014900D01*
X034101Y015700D01*
X034051Y015800D01*
X033901Y015800D01*
X033851Y015700D01*
X031851Y015700D01*
X031801Y015800D01*
X031651Y015800D01*
X031601Y015700D01*
X031601Y014900D01*
X031651Y014550D02*
X031601Y014450D01*
X031601Y013650D01*
X031651Y013550D01*
X031801Y013550D01*
X031851Y013650D01*
X033851Y013650D01*
X033901Y013550D01*
X034051Y013550D01*
X034101Y013650D01*
X034101Y014450D01*
X034051Y014550D01*
X033901Y014550D01*
X033851Y014450D01*
X031851Y014450D01*
X031801Y014550D01*
X031651Y014550D01*
X031651Y013300D02*
X031601Y013200D01*
X031601Y012400D01*
X031651Y012300D01*
X031801Y012300D01*
X031851Y012400D01*
X033851Y012400D01*
X033901Y012300D01*
X034051Y012300D01*
X034101Y012400D01*
X034101Y013200D01*
X034051Y013300D01*
X033901Y013300D01*
X033851Y013200D01*
X031851Y013200D01*
X031801Y013300D01*
X031651Y013300D01*
X037531Y014900D02*
X037501Y016800D01*
X041701Y016800D01*
X041671Y014900D01*
X037531Y014900D01*
X037501Y016400D02*
X041701Y016400D01*
X044701Y017120D02*
X046601Y017150D01*
X046601Y012950D01*
X044701Y012980D01*
X044701Y017120D01*
X046201Y017150D02*
X046201Y012950D01*
X048101Y012950D02*
X050001Y012980D01*
X050001Y017120D01*
X048101Y017150D01*
X048101Y012950D01*
X048501Y012950D02*
X048501Y017150D01*
X041951Y013050D02*
X037751Y013050D01*
X037781Y011150D01*
X041921Y011150D01*
X041951Y013050D01*
X041951Y012650D02*
X037751Y012650D01*
X037751Y009300D02*
X037781Y007400D01*
X041921Y007400D01*
X041951Y009300D01*
X037751Y009300D01*
X037751Y008900D02*
X041951Y008900D01*
X044601Y007900D02*
X046501Y007870D01*
X046501Y003730D01*
X044601Y003700D01*
X044601Y007900D01*
X045001Y007900D02*
X045001Y003700D01*
X042171Y003650D02*
X042201Y005550D01*
X038001Y005550D01*
X038031Y003650D01*
X042171Y003650D01*
X042201Y005150D02*
X038001Y005150D01*
X034101Y004900D02*
X034051Y004800D01*
X033901Y004800D01*
X033851Y004900D01*
X031851Y004900D01*
X031801Y004800D01*
X031651Y004800D01*
X031601Y004900D01*
X031601Y005700D01*
X031651Y005800D01*
X031801Y005800D01*
X031851Y005700D01*
X033851Y005700D01*
X033901Y005800D01*
X034051Y005800D01*
X034101Y005700D01*
X034101Y004900D01*
X034051Y006050D02*
X033901Y006050D01*
X033851Y006150D01*
X031851Y006150D01*
X031801Y006050D01*
X031651Y006050D01*
X031601Y006150D01*
X031601Y006950D01*
X031651Y007050D01*
X031801Y007050D01*
X031851Y006950D01*
X033851Y006950D01*
X033901Y007050D01*
X034051Y007050D01*
X034101Y006950D01*
X034101Y006150D01*
X034051Y006050D01*
X034051Y007300D02*
X033901Y007300D01*
X033851Y007400D01*
X031851Y007400D01*
X031801Y007300D01*
X031651Y007300D01*
X031601Y007400D01*
X031601Y008200D01*
X031651Y008300D01*
X031801Y008300D01*
X031851Y008200D01*
X033851Y008200D01*
X033901Y008300D01*
X034051Y008300D01*
X034101Y008200D01*
X034101Y007400D01*
X034051Y007300D01*
X048201Y007870D02*
X048201Y003730D01*
X050101Y003700D01*
X050101Y007900D01*
X048201Y007870D01*
X049701Y007900D02*
X049701Y003700D01*
D16*
X049901Y005800D03*
X044801Y005800D03*
X046401Y015050D03*
X048301Y015050D03*
X024401Y016550D03*
D17*
X030851Y015300D02*
X031351Y015300D01*
X031351Y014050D02*
X030851Y014050D01*
X030851Y012800D02*
X031351Y012800D01*
X034351Y012800D02*
X034851Y012800D01*
X034851Y014050D02*
X034351Y014050D01*
X034351Y015300D02*
X034851Y015300D01*
X023351Y012800D02*
X023351Y012300D01*
X017601Y011800D02*
X017601Y011300D01*
X023351Y009300D02*
X023351Y008800D01*
X017601Y008300D02*
X017601Y007800D01*
X030851Y007800D02*
X031351Y007800D01*
X031351Y006550D02*
X030851Y006550D01*
X030851Y005300D02*
X031351Y005300D01*
X034351Y005300D02*
X034851Y005300D01*
X034851Y006550D02*
X034351Y006550D01*
X034351Y007800D02*
X034851Y007800D01*
D18*
X034226Y007800D03*
X034226Y006550D03*
X034226Y005300D03*
X031476Y005300D03*
X031476Y006550D03*
X031476Y007800D03*
X031476Y012800D03*
X031476Y014050D03*
X031476Y015300D03*
X034226Y015300D03*
X034226Y014050D03*
X034226Y012800D03*
D19*
X026025Y016839D03*
X009928Y018011D03*
X026025Y003839D03*
D20*
X026025Y003288D03*
X026025Y016288D03*
X009928Y018562D03*
D21*
X007101Y003623D03*
D22*
X010601Y016850D03*
X039601Y016600D03*
X039851Y012850D03*
X039851Y009100D03*
X040101Y005350D03*
D23*
X036089Y005776D02*
X036091Y005821D01*
X036097Y005865D01*
X036106Y005909D01*
X036120Y005951D01*
X036137Y005992D01*
X036158Y006032D01*
X036182Y006070D01*
X036209Y006105D01*
X036239Y006138D01*
X036272Y006168D01*
X036307Y006195D01*
X036345Y006219D01*
X036385Y006240D01*
X036426Y006257D01*
X036468Y006271D01*
X036512Y006280D01*
X036556Y006286D01*
X036601Y006288D01*
X036646Y006286D01*
X036690Y006280D01*
X036734Y006271D01*
X036776Y006257D01*
X036817Y006240D01*
X036857Y006219D01*
X036895Y006195D01*
X036930Y006168D01*
X036963Y006138D01*
X036993Y006105D01*
X037020Y006070D01*
X037044Y006032D01*
X037065Y005992D01*
X037082Y005951D01*
X037096Y005909D01*
X037105Y005865D01*
X037111Y005821D01*
X037113Y005776D01*
X037111Y005731D01*
X037105Y005687D01*
X037096Y005643D01*
X037082Y005601D01*
X037065Y005560D01*
X037044Y005520D01*
X037020Y005482D01*
X036993Y005447D01*
X036963Y005414D01*
X036930Y005384D01*
X036895Y005357D01*
X036857Y005333D01*
X036817Y005312D01*
X036776Y005295D01*
X036734Y005281D01*
X036690Y005272D01*
X036646Y005266D01*
X036601Y005264D01*
X036556Y005266D01*
X036512Y005272D01*
X036468Y005281D01*
X036426Y005295D01*
X036385Y005312D01*
X036345Y005333D01*
X036307Y005357D01*
X036272Y005384D01*
X036239Y005414D01*
X036209Y005447D01*
X036182Y005482D01*
X036158Y005520D01*
X036137Y005560D01*
X036120Y005601D01*
X036106Y005643D01*
X036097Y005687D01*
X036091Y005731D01*
X036089Y005776D01*
X043089Y005776D02*
X043091Y005821D01*
X043097Y005865D01*
X043106Y005909D01*
X043120Y005951D01*
X043137Y005992D01*
X043158Y006032D01*
X043182Y006070D01*
X043209Y006105D01*
X043239Y006138D01*
X043272Y006168D01*
X043307Y006195D01*
X043345Y006219D01*
X043385Y006240D01*
X043426Y006257D01*
X043468Y006271D01*
X043512Y006280D01*
X043556Y006286D01*
X043601Y006288D01*
X043646Y006286D01*
X043690Y006280D01*
X043734Y006271D01*
X043776Y006257D01*
X043817Y006240D01*
X043857Y006219D01*
X043895Y006195D01*
X043930Y006168D01*
X043963Y006138D01*
X043993Y006105D01*
X044020Y006070D01*
X044044Y006032D01*
X044065Y005992D01*
X044082Y005951D01*
X044096Y005909D01*
X044105Y005865D01*
X044111Y005821D01*
X044113Y005776D01*
X044111Y005731D01*
X044105Y005687D01*
X044096Y005643D01*
X044082Y005601D01*
X044065Y005560D01*
X044044Y005520D01*
X044020Y005482D01*
X043993Y005447D01*
X043963Y005414D01*
X043930Y005384D01*
X043895Y005357D01*
X043857Y005333D01*
X043817Y005312D01*
X043776Y005295D01*
X043734Y005281D01*
X043690Y005272D01*
X043646Y005266D01*
X043601Y005264D01*
X043556Y005266D01*
X043512Y005272D01*
X043468Y005281D01*
X043426Y005295D01*
X043385Y005312D01*
X043345Y005333D01*
X043307Y005357D01*
X043272Y005384D01*
X043239Y005414D01*
X043209Y005447D01*
X043182Y005482D01*
X043158Y005520D01*
X043137Y005560D01*
X043120Y005601D01*
X043106Y005643D01*
X043097Y005687D01*
X043091Y005731D01*
X043089Y005776D01*
X042839Y009526D02*
X042841Y009571D01*
X042847Y009615D01*
X042856Y009659D01*
X042870Y009701D01*
X042887Y009742D01*
X042908Y009782D01*
X042932Y009820D01*
X042959Y009855D01*
X042989Y009888D01*
X043022Y009918D01*
X043057Y009945D01*
X043095Y009969D01*
X043135Y009990D01*
X043176Y010007D01*
X043218Y010021D01*
X043262Y010030D01*
X043306Y010036D01*
X043351Y010038D01*
X043396Y010036D01*
X043440Y010030D01*
X043484Y010021D01*
X043526Y010007D01*
X043567Y009990D01*
X043607Y009969D01*
X043645Y009945D01*
X043680Y009918D01*
X043713Y009888D01*
X043743Y009855D01*
X043770Y009820D01*
X043794Y009782D01*
X043815Y009742D01*
X043832Y009701D01*
X043846Y009659D01*
X043855Y009615D01*
X043861Y009571D01*
X043863Y009526D01*
X043861Y009481D01*
X043855Y009437D01*
X043846Y009393D01*
X043832Y009351D01*
X043815Y009310D01*
X043794Y009270D01*
X043770Y009232D01*
X043743Y009197D01*
X043713Y009164D01*
X043680Y009134D01*
X043645Y009107D01*
X043607Y009083D01*
X043567Y009062D01*
X043526Y009045D01*
X043484Y009031D01*
X043440Y009022D01*
X043396Y009016D01*
X043351Y009014D01*
X043306Y009016D01*
X043262Y009022D01*
X043218Y009031D01*
X043176Y009045D01*
X043135Y009062D01*
X043095Y009083D01*
X043057Y009107D01*
X043022Y009134D01*
X042989Y009164D01*
X042959Y009197D01*
X042932Y009232D01*
X042908Y009270D01*
X042887Y009310D01*
X042870Y009351D01*
X042856Y009393D01*
X042847Y009437D01*
X042841Y009481D01*
X042839Y009526D01*
X035839Y009526D02*
X035841Y009571D01*
X035847Y009615D01*
X035856Y009659D01*
X035870Y009701D01*
X035887Y009742D01*
X035908Y009782D01*
X035932Y009820D01*
X035959Y009855D01*
X035989Y009888D01*
X036022Y009918D01*
X036057Y009945D01*
X036095Y009969D01*
X036135Y009990D01*
X036176Y010007D01*
X036218Y010021D01*
X036262Y010030D01*
X036306Y010036D01*
X036351Y010038D01*
X036396Y010036D01*
X036440Y010030D01*
X036484Y010021D01*
X036526Y010007D01*
X036567Y009990D01*
X036607Y009969D01*
X036645Y009945D01*
X036680Y009918D01*
X036713Y009888D01*
X036743Y009855D01*
X036770Y009820D01*
X036794Y009782D01*
X036815Y009742D01*
X036832Y009701D01*
X036846Y009659D01*
X036855Y009615D01*
X036861Y009571D01*
X036863Y009526D01*
X036861Y009481D01*
X036855Y009437D01*
X036846Y009393D01*
X036832Y009351D01*
X036815Y009310D01*
X036794Y009270D01*
X036770Y009232D01*
X036743Y009197D01*
X036713Y009164D01*
X036680Y009134D01*
X036645Y009107D01*
X036607Y009083D01*
X036567Y009062D01*
X036526Y009045D01*
X036484Y009031D01*
X036440Y009022D01*
X036396Y009016D01*
X036351Y009014D01*
X036306Y009016D01*
X036262Y009022D01*
X036218Y009031D01*
X036176Y009045D01*
X036135Y009062D01*
X036095Y009083D01*
X036057Y009107D01*
X036022Y009134D01*
X035989Y009164D01*
X035959Y009197D01*
X035932Y009232D01*
X035908Y009270D01*
X035887Y009310D01*
X035870Y009351D01*
X035856Y009393D01*
X035847Y009437D01*
X035841Y009481D01*
X035839Y009526D01*
X035839Y013276D02*
X035841Y013321D01*
X035847Y013365D01*
X035856Y013409D01*
X035870Y013451D01*
X035887Y013492D01*
X035908Y013532D01*
X035932Y013570D01*
X035959Y013605D01*
X035989Y013638D01*
X036022Y013668D01*
X036057Y013695D01*
X036095Y013719D01*
X036135Y013740D01*
X036176Y013757D01*
X036218Y013771D01*
X036262Y013780D01*
X036306Y013786D01*
X036351Y013788D01*
X036396Y013786D01*
X036440Y013780D01*
X036484Y013771D01*
X036526Y013757D01*
X036567Y013740D01*
X036607Y013719D01*
X036645Y013695D01*
X036680Y013668D01*
X036713Y013638D01*
X036743Y013605D01*
X036770Y013570D01*
X036794Y013532D01*
X036815Y013492D01*
X036832Y013451D01*
X036846Y013409D01*
X036855Y013365D01*
X036861Y013321D01*
X036863Y013276D01*
X036861Y013231D01*
X036855Y013187D01*
X036846Y013143D01*
X036832Y013101D01*
X036815Y013060D01*
X036794Y013020D01*
X036770Y012982D01*
X036743Y012947D01*
X036713Y012914D01*
X036680Y012884D01*
X036645Y012857D01*
X036607Y012833D01*
X036567Y012812D01*
X036526Y012795D01*
X036484Y012781D01*
X036440Y012772D01*
X036396Y012766D01*
X036351Y012764D01*
X036306Y012766D01*
X036262Y012772D01*
X036218Y012781D01*
X036176Y012795D01*
X036135Y012812D01*
X036095Y012833D01*
X036057Y012857D01*
X036022Y012884D01*
X035989Y012914D01*
X035959Y012947D01*
X035932Y012982D01*
X035908Y013020D01*
X035887Y013060D01*
X035870Y013101D01*
X035856Y013143D01*
X035847Y013187D01*
X035841Y013231D01*
X035839Y013276D01*
X042839Y013276D02*
X042841Y013321D01*
X042847Y013365D01*
X042856Y013409D01*
X042870Y013451D01*
X042887Y013492D01*
X042908Y013532D01*
X042932Y013570D01*
X042959Y013605D01*
X042989Y013638D01*
X043022Y013668D01*
X043057Y013695D01*
X043095Y013719D01*
X043135Y013740D01*
X043176Y013757D01*
X043218Y013771D01*
X043262Y013780D01*
X043306Y013786D01*
X043351Y013788D01*
X043396Y013786D01*
X043440Y013780D01*
X043484Y013771D01*
X043526Y013757D01*
X043567Y013740D01*
X043607Y013719D01*
X043645Y013695D01*
X043680Y013668D01*
X043713Y013638D01*
X043743Y013605D01*
X043770Y013570D01*
X043794Y013532D01*
X043815Y013492D01*
X043832Y013451D01*
X043846Y013409D01*
X043855Y013365D01*
X043861Y013321D01*
X043863Y013276D01*
X043861Y013231D01*
X043855Y013187D01*
X043846Y013143D01*
X043832Y013101D01*
X043815Y013060D01*
X043794Y013020D01*
X043770Y012982D01*
X043743Y012947D01*
X043713Y012914D01*
X043680Y012884D01*
X043645Y012857D01*
X043607Y012833D01*
X043567Y012812D01*
X043526Y012795D01*
X043484Y012781D01*
X043440Y012772D01*
X043396Y012766D01*
X043351Y012764D01*
X043306Y012766D01*
X043262Y012772D01*
X043218Y012781D01*
X043176Y012795D01*
X043135Y012812D01*
X043095Y012833D01*
X043057Y012857D01*
X043022Y012884D01*
X042989Y012914D01*
X042959Y012947D01*
X042932Y012982D01*
X042908Y013020D01*
X042887Y013060D01*
X042870Y013101D01*
X042856Y013143D01*
X042847Y013187D01*
X042841Y013231D01*
X042839Y013276D01*
X042589Y017026D02*
X042591Y017071D01*
X042597Y017115D01*
X042606Y017159D01*
X042620Y017201D01*
X042637Y017242D01*
X042658Y017282D01*
X042682Y017320D01*
X042709Y017355D01*
X042739Y017388D01*
X042772Y017418D01*
X042807Y017445D01*
X042845Y017469D01*
X042885Y017490D01*
X042926Y017507D01*
X042968Y017521D01*
X043012Y017530D01*
X043056Y017536D01*
X043101Y017538D01*
X043146Y017536D01*
X043190Y017530D01*
X043234Y017521D01*
X043276Y017507D01*
X043317Y017490D01*
X043357Y017469D01*
X043395Y017445D01*
X043430Y017418D01*
X043463Y017388D01*
X043493Y017355D01*
X043520Y017320D01*
X043544Y017282D01*
X043565Y017242D01*
X043582Y017201D01*
X043596Y017159D01*
X043605Y017115D01*
X043611Y017071D01*
X043613Y017026D01*
X043611Y016981D01*
X043605Y016937D01*
X043596Y016893D01*
X043582Y016851D01*
X043565Y016810D01*
X043544Y016770D01*
X043520Y016732D01*
X043493Y016697D01*
X043463Y016664D01*
X043430Y016634D01*
X043395Y016607D01*
X043357Y016583D01*
X043317Y016562D01*
X043276Y016545D01*
X043234Y016531D01*
X043190Y016522D01*
X043146Y016516D01*
X043101Y016514D01*
X043056Y016516D01*
X043012Y016522D01*
X042968Y016531D01*
X042926Y016545D01*
X042885Y016562D01*
X042845Y016583D01*
X042807Y016607D01*
X042772Y016634D01*
X042739Y016664D01*
X042709Y016697D01*
X042682Y016732D01*
X042658Y016770D01*
X042637Y016810D01*
X042620Y016851D01*
X042606Y016893D01*
X042597Y016937D01*
X042591Y016981D01*
X042589Y017026D01*
X035589Y017026D02*
X035591Y017071D01*
X035597Y017115D01*
X035606Y017159D01*
X035620Y017201D01*
X035637Y017242D01*
X035658Y017282D01*
X035682Y017320D01*
X035709Y017355D01*
X035739Y017388D01*
X035772Y017418D01*
X035807Y017445D01*
X035845Y017469D01*
X035885Y017490D01*
X035926Y017507D01*
X035968Y017521D01*
X036012Y017530D01*
X036056Y017536D01*
X036101Y017538D01*
X036146Y017536D01*
X036190Y017530D01*
X036234Y017521D01*
X036276Y017507D01*
X036317Y017490D01*
X036357Y017469D01*
X036395Y017445D01*
X036430Y017418D01*
X036463Y017388D01*
X036493Y017355D01*
X036520Y017320D01*
X036544Y017282D01*
X036565Y017242D01*
X036582Y017201D01*
X036596Y017159D01*
X036605Y017115D01*
X036611Y017071D01*
X036613Y017026D01*
X036611Y016981D01*
X036605Y016937D01*
X036596Y016893D01*
X036582Y016851D01*
X036565Y016810D01*
X036544Y016770D01*
X036520Y016732D01*
X036493Y016697D01*
X036463Y016664D01*
X036430Y016634D01*
X036395Y016607D01*
X036357Y016583D01*
X036317Y016562D01*
X036276Y016545D01*
X036234Y016531D01*
X036190Y016522D01*
X036146Y016516D01*
X036101Y016514D01*
X036056Y016516D01*
X036012Y016522D01*
X035968Y016531D01*
X035926Y016545D01*
X035885Y016562D01*
X035845Y016583D01*
X035807Y016607D01*
X035772Y016634D01*
X035739Y016664D01*
X035709Y016697D01*
X035682Y016732D01*
X035658Y016770D01*
X035637Y016810D01*
X035620Y016851D01*
X035606Y016893D01*
X035597Y016937D01*
X035591Y016981D01*
X035589Y017026D01*
X002054Y012800D02*
X002056Y012850D01*
X002062Y012900D01*
X002072Y012949D01*
X002086Y012997D01*
X002103Y013044D01*
X002124Y013089D01*
X002149Y013133D01*
X002177Y013174D01*
X002209Y013213D01*
X002243Y013250D01*
X002280Y013284D01*
X002320Y013314D01*
X002362Y013341D01*
X002406Y013365D01*
X002452Y013386D01*
X002499Y013402D01*
X002547Y013415D01*
X002597Y013424D01*
X002646Y013429D01*
X002697Y013430D01*
X002747Y013427D01*
X002796Y013420D01*
X002845Y013409D01*
X002893Y013394D01*
X002939Y013376D01*
X002984Y013354D01*
X003027Y013328D01*
X003068Y013299D01*
X003107Y013267D01*
X003143Y013232D01*
X003175Y013194D01*
X003205Y013154D01*
X003232Y013111D01*
X003255Y013067D01*
X003274Y013021D01*
X003290Y012973D01*
X003302Y012924D01*
X003310Y012875D01*
X003314Y012825D01*
X003314Y012775D01*
X003310Y012725D01*
X003302Y012676D01*
X003290Y012627D01*
X003274Y012579D01*
X003255Y012533D01*
X003232Y012489D01*
X003205Y012446D01*
X003175Y012406D01*
X003143Y012368D01*
X003107Y012333D01*
X003068Y012301D01*
X003027Y012272D01*
X002984Y012246D01*
X002939Y012224D01*
X002893Y012206D01*
X002845Y012191D01*
X002796Y012180D01*
X002747Y012173D01*
X002697Y012170D01*
X002646Y012171D01*
X002597Y012176D01*
X002547Y012185D01*
X002499Y012198D01*
X002452Y012214D01*
X002406Y012235D01*
X002362Y012259D01*
X002320Y012286D01*
X002280Y012316D01*
X002243Y012350D01*
X002209Y012387D01*
X002177Y012426D01*
X002149Y012467D01*
X002124Y012511D01*
X002103Y012556D01*
X002086Y012603D01*
X002072Y012651D01*
X002062Y012700D01*
X002056Y012750D01*
X002054Y012800D01*
X002054Y008300D02*
X002056Y008350D01*
X002062Y008400D01*
X002072Y008449D01*
X002086Y008497D01*
X002103Y008544D01*
X002124Y008589D01*
X002149Y008633D01*
X002177Y008674D01*
X002209Y008713D01*
X002243Y008750D01*
X002280Y008784D01*
X002320Y008814D01*
X002362Y008841D01*
X002406Y008865D01*
X002452Y008886D01*
X002499Y008902D01*
X002547Y008915D01*
X002597Y008924D01*
X002646Y008929D01*
X002697Y008930D01*
X002747Y008927D01*
X002796Y008920D01*
X002845Y008909D01*
X002893Y008894D01*
X002939Y008876D01*
X002984Y008854D01*
X003027Y008828D01*
X003068Y008799D01*
X003107Y008767D01*
X003143Y008732D01*
X003175Y008694D01*
X003205Y008654D01*
X003232Y008611D01*
X003255Y008567D01*
X003274Y008521D01*
X003290Y008473D01*
X003302Y008424D01*
X003310Y008375D01*
X003314Y008325D01*
X003314Y008275D01*
X003310Y008225D01*
X003302Y008176D01*
X003290Y008127D01*
X003274Y008079D01*
X003255Y008033D01*
X003232Y007989D01*
X003205Y007946D01*
X003175Y007906D01*
X003143Y007868D01*
X003107Y007833D01*
X003068Y007801D01*
X003027Y007772D01*
X002984Y007746D01*
X002939Y007724D01*
X002893Y007706D01*
X002845Y007691D01*
X002796Y007680D01*
X002747Y007673D01*
X002697Y007670D01*
X002646Y007671D01*
X002597Y007676D01*
X002547Y007685D01*
X002499Y007698D01*
X002452Y007714D01*
X002406Y007735D01*
X002362Y007759D01*
X002320Y007786D01*
X002280Y007816D01*
X002243Y007850D01*
X002209Y007887D01*
X002177Y007926D01*
X002149Y007967D01*
X002124Y008011D01*
X002103Y008056D01*
X002086Y008103D01*
X002072Y008151D01*
X002062Y008200D01*
X002056Y008250D01*
X002054Y008300D01*
D24*
X037292Y009678D03*
X037292Y013428D03*
X037042Y017178D03*
X037542Y005928D03*
D25*
X040101Y005928D03*
X039851Y009678D03*
X039851Y013428D03*
X039601Y017178D03*
D26*
X039351Y019778D03*
X034851Y019778D03*
X030351Y019778D03*
X025851Y019778D03*
X021351Y019778D03*
X008414Y023144D03*
X043851Y019778D03*
X048351Y019778D03*
D27*
X023351Y012175D03*
X017601Y011175D03*
X023351Y009425D03*
X017601Y008425D03*
D28*
X035951Y002300D03*
X014201Y022550D03*
D29*
X013531Y022550D03*
X017671Y022550D03*
X035281Y002300D03*
X039421Y002300D03*
D30*
X021601Y002050D03*
X020601Y002050D03*
X019601Y002050D03*
X018601Y002050D03*
D31*
X021601Y003050D03*
M02*
