G75*
G70*
%OFA0B0*%
%FSLAX24Y24*%
%IPPOS*%
%LPD*%
%AMOC8*
5,1,8,0,0,1.08239X$1,22.5*
%
%ADD10R,0.0886X0.0886*%
%ADD11R,0.0825X0.0825*%
%ADD12C,0.0825*%
%ADD13C,0.0520*%
%ADD14R,0.0520X0.0520*%
%ADD15R,0.0540X0.0540*%
%ADD16C,0.0540*%
%ADD17R,0.0554X0.0554*%
%ADD18C,0.0554*%
%ADD19R,0.0397X0.0397*%
%ADD20C,0.0397*%
%ADD21R,0.0476X0.0476*%
%ADD22C,0.0476*%
%ADD23R,0.0709X0.0630*%
%ADD24C,0.0417*%
%ADD25C,0.0600*%
%ADD26R,0.0600X0.0600*%
%ADD27C,0.1560*%
%ADD28R,0.0630X0.0709*%
%ADD29R,0.0827X0.0827*%
%ADD30R,0.0675X0.0675*%
%ADD31C,0.0675*%
%ADD32C,0.0594*%
%ADD33C,0.0630*%
%ADD34R,0.0236X0.0866*%
%ADD35C,0.0160*%
%ADD36R,0.0396X0.0396*%
%ADD37C,0.0240*%
%ADD38C,0.0120*%
D10*
X048601Y009550D03*
X048601Y011550D03*
X003601Y020300D03*
X003601Y022300D03*
D11*
X009601Y016050D03*
X023601Y017550D03*
X038601Y015800D03*
X045601Y016050D03*
X049101Y014050D03*
X038851Y012050D03*
X038851Y008300D03*
X045601Y004800D03*
X049101Y006800D03*
X039101Y004550D03*
D12*
X040101Y004550D03*
X041101Y004550D03*
X045601Y006800D03*
X049101Y004800D03*
X040851Y008300D03*
X039851Y008300D03*
X039851Y012050D03*
X040851Y012050D03*
X045601Y014050D03*
X049101Y016050D03*
X040601Y015800D03*
X039601Y015800D03*
X023601Y015550D03*
X023601Y016550D03*
X011601Y016050D03*
X010601Y016050D03*
X012601Y022550D03*
X018601Y022550D03*
X034351Y002300D03*
X040351Y002300D03*
D13*
X034851Y005300D03*
X034851Y006550D03*
X034851Y007800D03*
X034851Y012800D03*
X034851Y014050D03*
X034851Y015300D03*
X023351Y012800D03*
X017601Y007800D03*
D14*
X023351Y008800D03*
X017601Y011800D03*
X030851Y012800D03*
X030851Y014050D03*
X030851Y015300D03*
X030851Y007800D03*
X030851Y006550D03*
X030851Y005300D03*
D15*
X018851Y011800D03*
X011851Y010800D03*
X013351Y014800D03*
X025351Y014800D03*
D16*
X025351Y013800D03*
X025351Y012800D03*
X025351Y011800D03*
X025351Y010800D03*
X025351Y009800D03*
X025351Y008800D03*
X025351Y007800D03*
X025351Y006800D03*
X025351Y005800D03*
X028351Y005800D03*
X028351Y006800D03*
X028351Y007800D03*
X028351Y008800D03*
X028351Y009800D03*
X028351Y010800D03*
X028351Y011800D03*
X028351Y012800D03*
X028351Y013800D03*
X028351Y014800D03*
X021851Y011800D03*
X021851Y010800D03*
X021851Y009800D03*
X021851Y008800D03*
X021851Y007800D03*
X021851Y006800D03*
X021851Y005800D03*
X018851Y005800D03*
X018851Y006800D03*
X018851Y007800D03*
X018851Y008800D03*
X018851Y009800D03*
X018851Y010800D03*
X016351Y010800D03*
X016351Y009800D03*
X016351Y008800D03*
X016351Y007800D03*
X016351Y006800D03*
X016351Y005800D03*
X016351Y004800D03*
X016351Y003800D03*
X016351Y002800D03*
X016351Y001800D03*
X013351Y001800D03*
X013351Y002800D03*
X013351Y003800D03*
X013351Y004800D03*
X013351Y005800D03*
X013351Y006800D03*
X013351Y007800D03*
X013351Y008800D03*
X013351Y009800D03*
X013351Y010800D03*
X013351Y011800D03*
X011851Y011800D03*
X011851Y012800D03*
X013351Y012800D03*
X013351Y013800D03*
X011851Y013800D03*
X008851Y013800D03*
X008851Y012800D03*
X008851Y011800D03*
X008851Y010800D03*
X016351Y011800D03*
X016351Y012800D03*
X016351Y013800D03*
X016351Y014800D03*
D17*
X010678Y018050D03*
X025275Y016800D03*
X025275Y003800D03*
D18*
X028424Y003800D03*
X028424Y016800D03*
X007529Y018050D03*
D19*
X021351Y014837D03*
X011351Y007261D03*
X011351Y005339D03*
D20*
X021351Y015625D03*
D21*
X008414Y020389D03*
X021351Y022534D03*
X025851Y022534D03*
X030351Y022534D03*
X034851Y022534D03*
X039351Y022534D03*
X043851Y022534D03*
X048351Y022534D03*
X007101Y005739D03*
D22*
X007101Y004361D03*
X021351Y020566D03*
X025851Y020566D03*
X030351Y020566D03*
X034851Y020566D03*
X039351Y020566D03*
X043851Y020566D03*
X048351Y020566D03*
X008414Y022357D03*
D23*
X019064Y018745D03*
X020314Y017889D03*
X019064Y017643D03*
X020314Y016786D03*
X021601Y016749D03*
X021601Y017851D03*
X007601Y013851D03*
X007601Y012749D03*
X007601Y011851D03*
X007601Y010749D03*
X009851Y008101D03*
X009851Y006999D03*
X009851Y005601D03*
X009851Y004499D03*
X023351Y006749D03*
X024351Y006601D03*
X023351Y007851D03*
X024351Y005499D03*
X029851Y009999D03*
X029851Y011101D03*
D24*
X018495Y013050D03*
X018495Y013550D03*
X018495Y014050D03*
D25*
X018601Y002050D03*
X019601Y002050D03*
X020601Y002050D03*
D26*
X021601Y002050D03*
D27*
X002601Y002300D03*
X002851Y017300D03*
X047351Y018300D03*
X047351Y002800D03*
D28*
X031653Y002300D03*
X030550Y002300D03*
X030550Y003300D03*
X031653Y003300D03*
X026903Y002300D03*
X025800Y002300D03*
X023903Y001800D03*
X022800Y001800D03*
X021903Y004050D03*
X020800Y004050D03*
X012153Y009300D03*
X011050Y009300D03*
X009653Y009300D03*
X008550Y009300D03*
X020300Y013300D03*
X021403Y013300D03*
X014403Y016800D03*
X013300Y016800D03*
X016800Y017300D03*
X017903Y017300D03*
X026300Y018050D03*
X027403Y018050D03*
X030550Y018300D03*
X031653Y018300D03*
X031653Y017300D03*
X030550Y017300D03*
D29*
X006351Y017330D03*
X006351Y014770D03*
D30*
X024101Y004300D03*
D31*
X024101Y003300D03*
D32*
X006184Y008800D03*
X005184Y009300D03*
X006184Y009800D03*
X005184Y010300D03*
X006184Y010800D03*
X005184Y011300D03*
X006184Y011800D03*
X005184Y012300D03*
D33*
X012601Y018550D03*
X012601Y020550D03*
D34*
X016601Y020824D03*
X017101Y020824D03*
X017601Y020824D03*
X018101Y020824D03*
X018101Y018776D03*
X017601Y018776D03*
X017101Y018776D03*
X016601Y018776D03*
D35*
X016601Y017300D01*
X016800Y017300D01*
X016101Y017300D01*
X016101Y017050D01*
X016101Y017300D02*
X016101Y017550D01*
X016101Y018300D02*
X015351Y017550D01*
X016101Y018300D02*
X016101Y019300D01*
X016351Y019550D01*
X017851Y019550D01*
X018101Y019300D01*
X018101Y018776D01*
X018101Y017300D01*
X017903Y017300D01*
X019064Y017300D02*
X019064Y017643D01*
X019064Y017300D02*
X019351Y017300D01*
X019351Y014550D01*
X017101Y014550D01*
X016351Y013800D01*
X017708Y013550D02*
X017708Y012800D01*
X016351Y012800D01*
X017601Y012300D02*
X014601Y012300D01*
X014601Y014300D01*
X010851Y014300D01*
X010851Y010050D01*
X012351Y010050D01*
X013351Y010800D02*
X014226Y010800D01*
X014226Y004800D01*
X013351Y004800D01*
X014226Y004800D02*
X014226Y001550D01*
X014851Y002300D02*
X014851Y011800D01*
X013351Y011800D01*
X015351Y011300D02*
X019601Y011300D01*
X019601Y010800D01*
X021851Y010800D01*
X025351Y010800D01*
X025351Y009800D02*
X021851Y009800D01*
X022601Y008800D02*
X023351Y008800D01*
X022601Y008800D02*
X022601Y008300D01*
X015851Y008300D01*
X015851Y005800D01*
X016351Y005800D01*
X013351Y005800D02*
X011812Y005800D01*
X011351Y005339D01*
X010511Y004499D01*
X009851Y004499D01*
X009851Y005601D02*
X009851Y006300D01*
X009601Y006300D01*
X009851Y006300D02*
X010101Y006300D01*
X009851Y006300D02*
X009851Y006999D01*
X010511Y008101D02*
X011351Y007261D01*
X011812Y006800D01*
X013351Y006800D01*
X010511Y008101D02*
X009851Y008101D01*
X007601Y008300D02*
X004601Y008300D01*
X004601Y011300D01*
X005184Y011300D01*
X006184Y011800D02*
X006351Y011800D01*
X006351Y012800D01*
X007851Y012800D01*
X007601Y012749D01*
X008851Y012749D01*
X008851Y012800D01*
X008851Y011851D02*
X007601Y011851D01*
X007851Y011800D01*
X006851Y011800D01*
X006851Y009800D01*
X006184Y009800D01*
X007601Y010749D02*
X007601Y008300D01*
X009653Y009300D02*
X010351Y009300D01*
X010351Y009550D01*
X010351Y009300D02*
X011050Y009300D01*
X010351Y009300D02*
X010351Y009050D01*
X012153Y009300D02*
X012403Y008800D01*
X008851Y010749D02*
X007601Y010749D01*
X008851Y010749D02*
X008851Y010800D01*
X008851Y011800D02*
X008851Y011851D01*
X005601Y012300D02*
X005601Y013800D01*
X007851Y013800D01*
X007601Y013851D01*
X008851Y013851D01*
X008851Y013800D01*
X005601Y012300D02*
X005184Y012300D01*
X015351Y011300D02*
X015351Y003800D01*
X016351Y003800D01*
X014851Y002300D02*
X018601Y002300D01*
X018601Y002050D01*
X019601Y002050D02*
X019601Y001550D01*
X022800Y001800D02*
X022851Y001800D01*
X022851Y003300D01*
X020601Y003300D01*
X020800Y004050D02*
X020601Y004550D01*
X021903Y004050D02*
X022601Y004050D01*
X022601Y003800D01*
X022601Y004300D01*
X029851Y003550D02*
X029851Y003300D01*
X029851Y003050D01*
X029851Y003300D02*
X030550Y003300D01*
X031351Y003834D02*
X031351Y016766D01*
X031575Y016766D01*
X031575Y017223D01*
X031730Y017223D01*
X031730Y017377D01*
X032148Y017377D01*
X032148Y017678D01*
X032135Y017724D01*
X032112Y017765D01*
X032078Y017798D01*
X032075Y017800D01*
X032078Y017802D01*
X032112Y017835D01*
X032135Y017876D01*
X032148Y017922D01*
X032148Y018223D01*
X031730Y018223D01*
X031730Y018377D01*
X032148Y018377D01*
X032148Y018678D01*
X032135Y018724D01*
X032112Y018765D01*
X032078Y018798D01*
X032037Y018822D01*
X031991Y018834D01*
X031730Y018834D01*
X031730Y018800D01*
X031575Y018800D01*
X031575Y018834D01*
X031317Y018834D01*
X030851Y019300D01*
X025351Y019300D01*
X024851Y018800D01*
X019141Y018800D01*
X019141Y018822D01*
X018986Y018822D01*
X018986Y019240D01*
X018851Y019240D01*
X018851Y019300D01*
X018468Y021986D01*
X018488Y021978D01*
X018715Y021978D01*
X018926Y022065D01*
X019087Y022226D01*
X019174Y022436D01*
X019174Y022664D01*
X019087Y022874D01*
X018926Y023035D01*
X018715Y023122D01*
X018674Y023122D01*
X018791Y023240D01*
X031851Y023240D01*
X031851Y018834D01*
X031730Y018834D01*
X031730Y018377D01*
X031575Y018377D01*
X031575Y018834D01*
X031351Y018834D01*
X031351Y022800D01*
X031791Y023240D01*
X049161Y023240D01*
X050101Y022300D01*
X050101Y016050D01*
X049601Y015550D01*
X049390Y015550D01*
X049426Y015565D01*
X049587Y015726D01*
X049674Y015936D01*
X049674Y016164D01*
X049587Y016374D01*
X049426Y016535D01*
X049215Y016622D01*
X048988Y016622D01*
X048777Y016535D01*
X048616Y016374D01*
X048529Y016164D01*
X048529Y015936D01*
X048616Y015726D01*
X048777Y015565D01*
X048812Y015550D01*
X046171Y015550D01*
X046182Y015568D01*
X046194Y015614D01*
X046194Y015992D01*
X045659Y015992D01*
X045659Y016108D01*
X045544Y016108D01*
X045544Y016642D01*
X045165Y016642D01*
X045119Y016630D01*
X045078Y016607D01*
X045045Y016573D01*
X045021Y016532D01*
X045009Y016486D01*
X045009Y016108D01*
X045544Y016108D01*
X045544Y015992D01*
X045009Y015992D01*
X045009Y015642D01*
X044351Y016300D01*
X043778Y016300D01*
X043942Y016465D01*
X044093Y016829D01*
X044093Y017224D01*
X043942Y017588D01*
X043663Y017867D01*
X043299Y018018D01*
X042904Y018018D01*
X042540Y017867D01*
X042261Y017588D01*
X042110Y017224D01*
X042110Y016829D01*
X042261Y016465D01*
X042425Y016300D01*
X040890Y016300D01*
X040715Y016372D01*
X040488Y016372D01*
X040312Y016300D01*
X039921Y016300D01*
X039912Y016307D01*
X039829Y016349D01*
X039740Y016378D01*
X039659Y016391D01*
X039659Y016300D01*
X039544Y016300D01*
X039544Y016391D01*
X039463Y016378D01*
X039374Y016349D01*
X039291Y016307D01*
X039282Y016300D01*
X039153Y016300D01*
X039080Y016372D01*
X038123Y016372D01*
X038050Y016300D01*
X036778Y016300D01*
X036942Y016465D01*
X037093Y016829D01*
X037093Y017224D01*
X036942Y017588D01*
X036663Y017867D01*
X036299Y018018D01*
X035904Y018018D01*
X035540Y017867D01*
X035261Y017588D01*
X035110Y017224D01*
X035110Y016829D01*
X035261Y016465D01*
X035425Y016300D01*
X034851Y016300D01*
X034351Y015800D01*
X034351Y004300D01*
X034851Y003800D01*
X044351Y003800D01*
X044851Y004300D01*
X044851Y005300D01*
X045351Y005800D01*
X046601Y005800D01*
X047101Y005300D01*
X047101Y003714D01*
X046819Y003597D01*
X046554Y003332D01*
X046411Y002987D01*
X046411Y002613D01*
X046554Y002268D01*
X046819Y002003D01*
X047101Y001886D01*
X047101Y001800D01*
X046661Y001360D01*
X031811Y001360D01*
X031541Y001766D01*
X031575Y001766D01*
X031575Y002223D01*
X031730Y002223D01*
X031730Y002377D01*
X032148Y002377D01*
X032148Y002678D01*
X032135Y002724D01*
X032112Y002765D01*
X032078Y002798D01*
X032075Y002800D01*
X032078Y002802D01*
X032112Y002835D01*
X032135Y002876D01*
X032148Y002922D01*
X032148Y003223D01*
X031730Y003223D01*
X031730Y003377D01*
X032148Y003377D01*
X032148Y003678D01*
X032135Y003724D01*
X032112Y003765D01*
X032078Y003798D01*
X032037Y003822D01*
X031991Y003834D01*
X031730Y003834D01*
X031730Y003377D01*
X031575Y003377D01*
X031575Y003834D01*
X031351Y003834D01*
X031351Y003970D02*
X034681Y003970D01*
X034523Y004129D02*
X031351Y004129D01*
X031351Y004287D02*
X034364Y004287D01*
X034351Y004446D02*
X031351Y004446D01*
X031351Y004604D02*
X034351Y004604D01*
X034351Y004763D02*
X031351Y004763D01*
X031351Y004921D02*
X034351Y004921D01*
X034351Y005080D02*
X031351Y005080D01*
X031351Y005238D02*
X034351Y005238D01*
X034351Y005397D02*
X031351Y005397D01*
X031351Y005555D02*
X034351Y005555D01*
X034351Y005714D02*
X031351Y005714D01*
X031351Y005872D02*
X034351Y005872D01*
X034351Y006031D02*
X031351Y006031D01*
X031351Y006189D02*
X034351Y006189D01*
X034351Y006348D02*
X031351Y006348D01*
X031351Y006506D02*
X034351Y006506D01*
X034351Y006665D02*
X031351Y006665D01*
X031351Y006823D02*
X034351Y006823D01*
X034351Y006982D02*
X031351Y006982D01*
X031351Y007140D02*
X034351Y007140D01*
X034351Y007299D02*
X031351Y007299D01*
X031351Y007457D02*
X034351Y007457D01*
X034351Y007616D02*
X031351Y007616D01*
X031351Y007774D02*
X034351Y007774D01*
X034351Y007933D02*
X031351Y007933D01*
X031351Y008091D02*
X034351Y008091D01*
X034351Y008250D02*
X031351Y008250D01*
X031351Y008408D02*
X034351Y008408D01*
X034351Y008567D02*
X031351Y008567D01*
X031351Y008725D02*
X034351Y008725D01*
X034351Y008884D02*
X031351Y008884D01*
X031351Y009042D02*
X034351Y009042D01*
X034351Y009201D02*
X031351Y009201D01*
X031351Y009359D02*
X034351Y009359D01*
X034351Y009518D02*
X031351Y009518D01*
X031351Y009676D02*
X034351Y009676D01*
X034351Y009835D02*
X031351Y009835D01*
X031351Y009993D02*
X034351Y009993D01*
X034351Y010152D02*
X031351Y010152D01*
X031351Y010310D02*
X034351Y010310D01*
X034351Y010469D02*
X031351Y010469D01*
X031351Y010627D02*
X034351Y010627D01*
X034351Y010786D02*
X031351Y010786D01*
X031351Y010944D02*
X034351Y010944D01*
X034351Y011103D02*
X031351Y011103D01*
X031351Y011261D02*
X034351Y011261D01*
X034351Y011420D02*
X031351Y011420D01*
X031351Y011578D02*
X034351Y011578D01*
X034351Y011737D02*
X031351Y011737D01*
X031351Y011895D02*
X034351Y011895D01*
X034351Y012054D02*
X031351Y012054D01*
X031351Y012212D02*
X034351Y012212D01*
X034351Y012371D02*
X031351Y012371D01*
X031351Y012529D02*
X034351Y012529D01*
X034351Y012688D02*
X031351Y012688D01*
X031351Y012846D02*
X034351Y012846D01*
X034351Y013005D02*
X031351Y013005D01*
X031351Y013163D02*
X034351Y013163D01*
X034351Y013322D02*
X031351Y013322D01*
X031351Y013480D02*
X034351Y013480D01*
X034351Y013639D02*
X031351Y013639D01*
X031351Y013797D02*
X034351Y013797D01*
X034351Y013956D02*
X031351Y013956D01*
X031351Y014114D02*
X034351Y014114D01*
X034351Y014273D02*
X031351Y014273D01*
X031351Y014431D02*
X034351Y014431D01*
X034351Y014590D02*
X031351Y014590D01*
X031351Y014748D02*
X034351Y014748D01*
X034351Y014907D02*
X031351Y014907D01*
X031351Y015065D02*
X034351Y015065D01*
X034351Y015224D02*
X031351Y015224D01*
X031351Y015382D02*
X034351Y015382D01*
X034351Y015541D02*
X031351Y015541D01*
X031351Y015699D02*
X034351Y015699D01*
X034409Y015858D02*
X031351Y015858D01*
X031351Y016016D02*
X034567Y016016D01*
X034726Y016175D02*
X031351Y016175D01*
X031351Y016333D02*
X035392Y016333D01*
X035249Y016492D02*
X031351Y016492D01*
X031351Y016650D02*
X035184Y016650D01*
X035118Y016809D02*
X032085Y016809D01*
X032078Y016802D02*
X032112Y016835D01*
X032135Y016876D01*
X032148Y016922D01*
X032148Y017223D01*
X031730Y017223D01*
X031730Y016766D01*
X031991Y016766D01*
X032037Y016778D01*
X032078Y016802D01*
X032148Y016967D02*
X035110Y016967D01*
X035110Y017126D02*
X032148Y017126D01*
X031730Y017126D02*
X031575Y017126D01*
X031575Y016967D02*
X031730Y016967D01*
X031730Y016809D02*
X031575Y016809D01*
X031730Y017284D02*
X035135Y017284D01*
X035200Y017443D02*
X032148Y017443D01*
X032148Y017601D02*
X035273Y017601D01*
X035432Y017760D02*
X032115Y017760D01*
X032146Y017918D02*
X035662Y017918D01*
X036540Y017918D02*
X042662Y017918D01*
X042432Y017760D02*
X036771Y017760D01*
X036929Y017601D02*
X042273Y017601D01*
X042200Y017443D02*
X037003Y017443D01*
X037068Y017284D02*
X042135Y017284D01*
X042110Y017126D02*
X037093Y017126D01*
X037093Y016967D02*
X042110Y016967D01*
X042118Y016809D02*
X037085Y016809D01*
X037019Y016650D02*
X042184Y016650D01*
X042249Y016492D02*
X036953Y016492D01*
X036811Y016333D02*
X038083Y016333D01*
X039120Y016333D02*
X039342Y016333D01*
X039544Y016333D02*
X039659Y016333D01*
X039860Y016333D02*
X040392Y016333D01*
X040811Y016333D02*
X042392Y016333D01*
X041192Y015742D02*
X040659Y015742D01*
X040659Y015209D01*
X040740Y015222D01*
X040829Y015251D01*
X040912Y015293D01*
X040987Y015348D01*
X041053Y015414D01*
X041108Y015489D01*
X041150Y015573D01*
X041179Y015661D01*
X041192Y015742D01*
X041185Y015699D02*
X043927Y015699D01*
X043851Y015800D02*
X044601Y014800D01*
X049101Y014800D01*
X049259Y014642D01*
X049159Y014642D01*
X049159Y014108D01*
X049044Y014108D01*
X049044Y014642D01*
X048665Y014642D01*
X048619Y014630D01*
X048578Y014607D01*
X048545Y014573D01*
X048521Y014532D01*
X048509Y014486D01*
X048509Y014108D01*
X049044Y014108D01*
X049044Y013992D01*
X049159Y013992D01*
X049159Y013458D01*
X049538Y013458D01*
X049583Y013470D01*
X049601Y013480D01*
X049601Y013480D01*
X049601Y011550D01*
X049224Y011173D01*
X049224Y011482D01*
X048669Y011482D01*
X048669Y011618D01*
X048534Y011618D01*
X048534Y012173D01*
X048135Y012173D01*
X048089Y012161D01*
X048048Y012137D01*
X048014Y012103D01*
X047991Y012062D01*
X047978Y012017D01*
X047978Y011618D01*
X048534Y011618D01*
X048534Y011482D01*
X047978Y011482D01*
X047978Y011083D01*
X047987Y011050D01*
X039851Y011050D01*
X039377Y011524D01*
X039424Y011571D01*
X039424Y011640D01*
X039465Y011598D01*
X039541Y011543D01*
X039624Y011501D01*
X039713Y011472D01*
X039794Y011459D01*
X039794Y011992D01*
X039909Y011992D01*
X039909Y011459D01*
X039990Y011472D01*
X040079Y011501D01*
X040162Y011543D01*
X040237Y011598D01*
X040303Y011664D01*
X040358Y011739D01*
X040359Y011742D01*
X040366Y011726D01*
X040527Y011565D01*
X040738Y011478D01*
X040965Y011478D01*
X041176Y011565D01*
X041337Y011726D01*
X041424Y011936D01*
X041424Y012164D01*
X041337Y012374D01*
X041176Y012535D01*
X040965Y012622D01*
X040738Y012622D01*
X040527Y012535D01*
X040366Y012374D01*
X040359Y012358D01*
X040358Y012361D01*
X040303Y012436D01*
X040237Y012502D01*
X040162Y012557D01*
X040079Y012599D01*
X039990Y012628D01*
X039909Y012641D01*
X039909Y012108D01*
X039794Y012108D01*
X039794Y012641D01*
X039713Y012628D01*
X039624Y012599D01*
X039541Y012557D01*
X039465Y012502D01*
X039424Y012460D01*
X039424Y012529D01*
X039351Y012601D01*
X039351Y014800D01*
X040138Y015429D01*
X040149Y015414D01*
X040215Y015348D01*
X040291Y015293D01*
X040374Y015251D01*
X040463Y015222D01*
X040544Y015209D01*
X040544Y015742D01*
X040659Y015742D01*
X040659Y015800D01*
X043851Y015800D01*
X044046Y015541D02*
X041134Y015541D01*
X041021Y015382D02*
X044165Y015382D01*
X044284Y015224D02*
X040745Y015224D01*
X040659Y015224D02*
X040544Y015224D01*
X040458Y015224D02*
X039881Y015224D01*
X040079Y015382D02*
X040181Y015382D01*
X040544Y015382D02*
X040659Y015382D01*
X040659Y015541D02*
X040544Y015541D01*
X040544Y015699D02*
X040659Y015699D01*
X040601Y015800D02*
X040601Y014050D01*
X042101Y014050D01*
X042101Y013800D01*
X041601Y013800D01*
X042101Y013800D02*
X042351Y013800D01*
X042601Y014800D01*
X045601Y014050D01*
X047851Y014050D01*
X049101Y014050D01*
X049044Y013992D02*
X049044Y013458D01*
X048665Y013458D01*
X048619Y013470D01*
X048578Y013493D01*
X048545Y013527D01*
X048521Y013568D01*
X048509Y013614D01*
X048509Y013992D01*
X049044Y013992D01*
X049044Y013956D02*
X049159Y013956D01*
X049159Y014114D02*
X049044Y014114D01*
X049044Y014273D02*
X049159Y014273D01*
X049159Y014431D02*
X049044Y014431D01*
X049044Y014590D02*
X049159Y014590D01*
X049153Y014748D02*
X039351Y014748D01*
X039351Y014590D02*
X045355Y014590D01*
X045374Y014599D02*
X045291Y014557D01*
X045215Y014502D01*
X045149Y014436D01*
X045095Y014361D01*
X045052Y014277D01*
X045023Y014189D01*
X045011Y014108D01*
X045544Y014108D01*
X045544Y014641D01*
X045463Y014628D01*
X045374Y014599D01*
X045544Y014590D02*
X045659Y014590D01*
X045659Y014641D02*
X045659Y014108D01*
X045544Y014108D01*
X045544Y013992D01*
X045659Y013992D01*
X045659Y013459D01*
X045740Y013472D01*
X045829Y013501D01*
X045912Y013543D01*
X045987Y013598D01*
X046053Y013664D01*
X046108Y013739D01*
X046150Y013823D01*
X046179Y013911D01*
X046192Y013992D01*
X045659Y013992D01*
X045659Y014108D01*
X046192Y014108D01*
X046179Y014189D01*
X046150Y014277D01*
X046108Y014361D01*
X046053Y014436D01*
X045987Y014502D01*
X045912Y014557D01*
X045829Y014599D01*
X045740Y014628D01*
X045659Y014641D01*
X045848Y014590D02*
X048561Y014590D01*
X048509Y014431D02*
X046057Y014431D01*
X046152Y014273D02*
X048509Y014273D01*
X048509Y014114D02*
X046191Y014114D01*
X046186Y013956D02*
X048509Y013956D01*
X048509Y013797D02*
X046137Y013797D01*
X046028Y013639D02*
X048509Y013639D01*
X048602Y013480D02*
X045765Y013480D01*
X045659Y013480D02*
X045544Y013480D01*
X045544Y013459D02*
X045544Y013992D01*
X045011Y013992D01*
X045023Y013911D01*
X045052Y013823D01*
X045095Y013739D01*
X045149Y013664D01*
X045215Y013598D01*
X045291Y013543D01*
X045374Y013501D01*
X045463Y013472D01*
X045544Y013459D01*
X045438Y013480D02*
X044341Y013480D01*
X044343Y013474D02*
X044192Y013838D01*
X043913Y014117D01*
X043549Y014268D01*
X043154Y014268D01*
X042790Y014117D01*
X042511Y013838D01*
X042360Y013474D01*
X042360Y013079D01*
X042511Y012715D01*
X042790Y012436D01*
X043154Y012285D01*
X043549Y012285D01*
X043913Y012436D01*
X044192Y012715D01*
X044343Y013079D01*
X044343Y013474D01*
X044343Y013322D02*
X049601Y013322D01*
X049601Y013163D02*
X044343Y013163D01*
X044312Y013005D02*
X049601Y013005D01*
X049601Y012846D02*
X044247Y012846D01*
X044165Y012688D02*
X049601Y012688D01*
X049601Y012529D02*
X044007Y012529D01*
X043756Y012371D02*
X049601Y012371D01*
X049601Y012212D02*
X041404Y012212D01*
X041424Y012054D02*
X047988Y012054D01*
X047978Y011895D02*
X041407Y011895D01*
X041341Y011737D02*
X047978Y011737D01*
X047978Y011420D02*
X039482Y011420D01*
X039493Y011578D02*
X039424Y011578D01*
X039794Y011578D02*
X039909Y011578D01*
X039909Y011737D02*
X039794Y011737D01*
X039794Y011895D02*
X039909Y011895D01*
X039851Y012050D02*
X039851Y014550D01*
X040601Y014050D01*
X039351Y014114D02*
X042786Y014114D01*
X042628Y013956D02*
X039351Y013956D01*
X039351Y013797D02*
X042494Y013797D01*
X042428Y013639D02*
X039351Y013639D01*
X039351Y013480D02*
X042362Y013480D01*
X042360Y013322D02*
X039351Y013322D01*
X039351Y013163D02*
X042360Y013163D01*
X042390Y013005D02*
X039351Y013005D01*
X039351Y012846D02*
X042456Y012846D01*
X042538Y012688D02*
X039351Y012688D01*
X039424Y012529D02*
X039503Y012529D01*
X039794Y012529D02*
X039909Y012529D01*
X039909Y012371D02*
X039794Y012371D01*
X039794Y012212D02*
X039909Y012212D01*
X040200Y012529D02*
X040521Y012529D01*
X040364Y012371D02*
X040351Y012371D01*
X041182Y012529D02*
X042696Y012529D01*
X042947Y012371D02*
X041338Y012371D01*
X040362Y011737D02*
X040356Y011737D01*
X040210Y011578D02*
X040514Y011578D01*
X041189Y011578D02*
X048534Y011578D01*
X048601Y011550D02*
X047851Y014050D01*
X049044Y013797D02*
X049159Y013797D01*
X049159Y013639D02*
X049044Y013639D01*
X049044Y013480D02*
X049159Y013480D01*
X049068Y012173D02*
X048669Y012173D01*
X048669Y011618D01*
X049224Y011618D01*
X049224Y012017D01*
X049212Y012062D01*
X049188Y012103D01*
X049155Y012137D01*
X049114Y012161D01*
X049068Y012173D01*
X049214Y012054D02*
X049601Y012054D01*
X049601Y011895D02*
X049224Y011895D01*
X049224Y011737D02*
X049601Y011737D01*
X049601Y011578D02*
X048669Y011578D01*
X048669Y011737D02*
X048534Y011737D01*
X048534Y011895D02*
X048669Y011895D01*
X048669Y012054D02*
X048534Y012054D01*
X049224Y011420D02*
X049471Y011420D01*
X049312Y011261D02*
X049224Y011261D01*
X047978Y011261D02*
X039640Y011261D01*
X039799Y011103D02*
X047978Y011103D01*
X049101Y010300D02*
X049601Y009800D01*
X049601Y007370D01*
X049583Y007380D01*
X049538Y007392D01*
X049159Y007392D01*
X049159Y006858D01*
X049044Y006858D01*
X049044Y007392D01*
X048665Y007392D01*
X048619Y007380D01*
X048578Y007357D01*
X048545Y007323D01*
X048521Y007282D01*
X048509Y007236D01*
X048509Y006858D01*
X049044Y006858D01*
X049044Y006742D01*
X048509Y006742D01*
X048509Y006364D01*
X048521Y006318D01*
X048532Y006300D01*
X045921Y006300D01*
X045987Y006348D01*
X046053Y006414D01*
X046108Y006489D01*
X046150Y006573D01*
X046179Y006661D01*
X046192Y006742D01*
X045659Y006742D01*
X045659Y006858D01*
X045544Y006858D01*
X045544Y007391D01*
X045463Y007378D01*
X045374Y007349D01*
X045291Y007307D01*
X045215Y007252D01*
X045149Y007186D01*
X045095Y007111D01*
X045052Y007027D01*
X045023Y006939D01*
X045011Y006858D01*
X045544Y006858D01*
X045544Y006742D01*
X045011Y006742D01*
X045023Y006661D01*
X045052Y006573D01*
X045095Y006489D01*
X045149Y006414D01*
X045215Y006348D01*
X045282Y006300D01*
X044458Y006300D01*
X044442Y006338D01*
X044163Y006617D01*
X043799Y006768D01*
X043404Y006768D01*
X043040Y006617D01*
X042761Y006338D01*
X042610Y005974D01*
X042610Y005579D01*
X042761Y005215D01*
X043040Y004936D01*
X043330Y004815D01*
X043101Y004406D01*
X041678Y004406D01*
X041679Y004411D01*
X041692Y004492D01*
X041159Y004492D01*
X041159Y004608D01*
X041044Y004608D01*
X041044Y005141D01*
X040963Y005128D01*
X040874Y005099D01*
X040791Y005057D01*
X040715Y005002D01*
X040649Y004936D01*
X040595Y004861D01*
X040593Y004858D01*
X040587Y004874D01*
X040426Y005035D01*
X040215Y005122D01*
X039988Y005122D01*
X039969Y005115D01*
X039739Y005406D01*
X039633Y005906D01*
X039633Y007748D01*
X039713Y007722D01*
X039794Y007709D01*
X039794Y008242D01*
X039909Y008242D01*
X039909Y007709D01*
X039990Y007722D01*
X040079Y007751D01*
X040162Y007793D01*
X040237Y007848D01*
X040303Y007914D01*
X040358Y007989D01*
X040359Y007992D01*
X040366Y007976D01*
X040527Y007815D01*
X040738Y007728D01*
X040965Y007728D01*
X041176Y007815D01*
X041337Y007976D01*
X041424Y008186D01*
X041424Y008414D01*
X041337Y008624D01*
X041176Y008785D01*
X040965Y008872D01*
X040738Y008872D01*
X040527Y008785D01*
X040366Y008624D01*
X040359Y008608D01*
X040358Y008611D01*
X040303Y008686D01*
X040237Y008752D01*
X040162Y008807D01*
X040079Y008849D01*
X039990Y008878D01*
X039909Y008891D01*
X039909Y008358D01*
X039794Y008358D01*
X039794Y008891D01*
X039713Y008878D01*
X039633Y008852D01*
X039633Y009800D01*
X040133Y010300D01*
X042722Y010300D01*
X042511Y010088D01*
X042360Y009724D01*
X042360Y009329D01*
X042511Y008965D01*
X042790Y008686D01*
X043154Y008535D01*
X043549Y008535D01*
X043913Y008686D01*
X044192Y008965D01*
X044343Y009329D01*
X044343Y009724D01*
X044192Y010088D01*
X043980Y010300D01*
X049101Y010300D01*
X049068Y010173D02*
X048669Y010173D01*
X048669Y009618D01*
X048534Y009618D01*
X048534Y010173D01*
X048135Y010173D01*
X048089Y010161D01*
X048048Y010137D01*
X048014Y010103D01*
X047991Y010062D01*
X047978Y010017D01*
X047978Y009618D01*
X048534Y009618D01*
X048534Y009482D01*
X048669Y009482D01*
X048669Y008927D01*
X049068Y008927D01*
X049114Y008939D01*
X049155Y008963D01*
X049188Y008997D01*
X049212Y009038D01*
X049224Y009083D01*
X049224Y009482D01*
X048669Y009482D01*
X048669Y009618D01*
X049224Y009618D01*
X049224Y010017D01*
X049212Y010062D01*
X049188Y010103D01*
X049155Y010137D01*
X049114Y010161D01*
X049068Y010173D01*
X049130Y010152D02*
X049250Y010152D01*
X049224Y009993D02*
X049408Y009993D01*
X049567Y009835D02*
X049224Y009835D01*
X049101Y009800D02*
X049101Y006800D01*
X049044Y006823D02*
X045659Y006823D01*
X045659Y006858D02*
X046192Y006858D01*
X046179Y006939D01*
X046150Y007027D01*
X046108Y007111D01*
X046053Y007186D01*
X045987Y007252D01*
X045912Y007307D01*
X045829Y007349D01*
X045740Y007378D01*
X045659Y007391D01*
X045659Y006858D01*
X045601Y006800D02*
X041601Y006800D01*
X041601Y006550D01*
X041101Y006550D01*
X041101Y004550D01*
X041159Y004604D02*
X043212Y004604D01*
X043123Y004446D02*
X041685Y004446D01*
X041692Y004608D02*
X041159Y004608D01*
X041159Y005141D01*
X041240Y005128D01*
X041329Y005099D01*
X041412Y005057D01*
X041487Y005002D01*
X041553Y004936D01*
X041608Y004861D01*
X041650Y004777D01*
X041679Y004689D01*
X041692Y004608D01*
X041655Y004763D02*
X043301Y004763D01*
X043075Y004921D02*
X041564Y004921D01*
X041367Y005080D02*
X042896Y005080D01*
X042751Y005238D02*
X039872Y005238D01*
X039747Y005397D02*
X042685Y005397D01*
X042620Y005555D02*
X039708Y005555D01*
X039674Y005714D02*
X042610Y005714D01*
X042610Y005872D02*
X039640Y005872D01*
X039633Y006031D02*
X042633Y006031D01*
X042699Y006189D02*
X039633Y006189D01*
X039633Y006348D02*
X042770Y006348D01*
X042928Y006506D02*
X039633Y006506D01*
X039633Y006665D02*
X043154Y006665D01*
X044049Y006665D02*
X045023Y006665D01*
X045086Y006506D02*
X044274Y006506D01*
X044433Y006348D02*
X045216Y006348D01*
X045544Y006823D02*
X039633Y006823D01*
X039633Y006982D02*
X045037Y006982D01*
X045116Y007140D02*
X039633Y007140D01*
X039633Y007299D02*
X045279Y007299D01*
X045544Y007299D02*
X045659Y007299D01*
X045659Y007140D02*
X045544Y007140D01*
X045544Y006982D02*
X045659Y006982D01*
X045601Y006800D02*
X045601Y009800D01*
X048601Y009550D01*
X049101Y009800D01*
X049224Y009676D02*
X049601Y009676D01*
X049601Y009518D02*
X048669Y009518D01*
X048601Y009550D02*
X047101Y009800D01*
X047978Y009835D02*
X044297Y009835D01*
X044343Y009676D02*
X047978Y009676D01*
X047978Y009482D02*
X047978Y009083D01*
X047991Y009038D01*
X048014Y008997D01*
X048048Y008963D01*
X048089Y008939D01*
X048135Y008927D01*
X048534Y008927D01*
X048534Y009482D01*
X047978Y009482D01*
X047978Y009359D02*
X044343Y009359D01*
X044343Y009518D02*
X048534Y009518D01*
X048534Y009676D02*
X048669Y009676D01*
X048669Y009835D02*
X048534Y009835D01*
X048534Y009993D02*
X048669Y009993D01*
X048669Y010152D02*
X048534Y010152D01*
X048073Y010152D02*
X044129Y010152D01*
X044232Y009993D02*
X047978Y009993D01*
X048534Y009359D02*
X048669Y009359D01*
X048669Y009201D02*
X048534Y009201D01*
X048534Y009042D02*
X048669Y009042D01*
X049213Y009042D02*
X049601Y009042D01*
X049601Y008884D02*
X044111Y008884D01*
X044224Y009042D02*
X047990Y009042D01*
X047978Y009201D02*
X044290Y009201D01*
X043953Y008725D02*
X049601Y008725D01*
X049601Y008567D02*
X043626Y008567D01*
X043077Y008567D02*
X041361Y008567D01*
X041424Y008408D02*
X049601Y008408D01*
X049601Y008250D02*
X041424Y008250D01*
X041384Y008091D02*
X049601Y008091D01*
X049601Y007933D02*
X041294Y007933D01*
X041078Y007774D02*
X049601Y007774D01*
X049601Y007616D02*
X039633Y007616D01*
X039633Y007457D02*
X049601Y007457D01*
X049159Y007299D02*
X049044Y007299D01*
X049044Y007140D02*
X049159Y007140D01*
X049159Y006982D02*
X049044Y006982D01*
X048509Y006982D02*
X046165Y006982D01*
X046087Y007140D02*
X048509Y007140D01*
X048531Y007299D02*
X045923Y007299D01*
X046180Y006665D02*
X048509Y006665D01*
X048509Y006506D02*
X046117Y006506D01*
X045987Y006348D02*
X048513Y006348D01*
X046846Y005555D02*
X045106Y005555D01*
X045165Y005392D02*
X045119Y005380D01*
X045078Y005357D01*
X045045Y005323D01*
X045021Y005282D01*
X045009Y005236D01*
X045009Y004858D01*
X045544Y004858D01*
X045544Y005392D01*
X045165Y005392D01*
X044948Y005397D02*
X047005Y005397D01*
X047101Y005238D02*
X046193Y005238D01*
X046194Y005236D02*
X046182Y005282D01*
X046158Y005323D01*
X046124Y005357D01*
X046083Y005380D01*
X046038Y005392D01*
X045659Y005392D01*
X045659Y004858D01*
X045544Y004858D01*
X045544Y004742D01*
X045659Y004742D01*
X045659Y004208D01*
X046038Y004208D01*
X046083Y004220D01*
X046124Y004243D01*
X046158Y004277D01*
X046182Y004318D01*
X046194Y004364D01*
X046194Y004742D01*
X045659Y004742D01*
X045659Y004858D01*
X046194Y004858D01*
X046194Y005236D01*
X046194Y005080D02*
X047101Y005080D01*
X047101Y004921D02*
X046194Y004921D01*
X046194Y004604D02*
X047101Y004604D01*
X047101Y004446D02*
X046194Y004446D01*
X046164Y004287D02*
X047101Y004287D01*
X047101Y004129D02*
X044680Y004129D01*
X044838Y004287D02*
X045039Y004287D01*
X045045Y004277D02*
X045078Y004243D01*
X045119Y004220D01*
X045165Y004208D01*
X045544Y004208D01*
X045544Y004742D01*
X045009Y004742D01*
X045009Y004364D01*
X045021Y004318D01*
X045045Y004277D01*
X045009Y004446D02*
X044851Y004446D01*
X044851Y004604D02*
X045009Y004604D01*
X044851Y004763D02*
X045544Y004763D01*
X045601Y004800D02*
X045601Y002800D01*
X046411Y002861D02*
X040494Y002861D01*
X040465Y002872D02*
X040238Y002872D01*
X040027Y002785D01*
X039866Y002624D01*
X039779Y002414D01*
X039779Y002186D01*
X039866Y001976D01*
X040027Y001815D01*
X040238Y001728D01*
X040465Y001728D01*
X040676Y001815D01*
X040837Y001976D01*
X040924Y002186D01*
X040924Y002414D01*
X040837Y002624D01*
X040676Y002785D01*
X040465Y002872D01*
X040209Y002861D02*
X034544Y002861D01*
X034579Y002849D02*
X034490Y002878D01*
X034409Y002891D01*
X034409Y002358D01*
X034294Y002358D01*
X034294Y002891D01*
X034213Y002878D01*
X034124Y002849D01*
X034041Y002807D01*
X033965Y002752D01*
X033899Y002686D01*
X033845Y002611D01*
X033802Y002527D01*
X033773Y002439D01*
X033761Y002358D01*
X034294Y002358D01*
X034294Y002242D01*
X034409Y002242D01*
X034409Y001709D01*
X034490Y001722D01*
X034579Y001751D01*
X040181Y001751D01*
X039932Y001910D02*
X034799Y001910D01*
X034803Y001914D02*
X034858Y001989D01*
X034900Y002073D01*
X034929Y002161D01*
X034942Y002242D01*
X034409Y002242D01*
X034409Y002358D01*
X034942Y002358D01*
X034929Y002439D01*
X034900Y002527D01*
X034858Y002611D01*
X034803Y002686D01*
X034737Y002752D01*
X034662Y002807D01*
X034579Y002849D01*
X034409Y002861D02*
X034294Y002861D01*
X034159Y002861D02*
X032126Y002861D01*
X032148Y003019D02*
X046425Y003019D01*
X046490Y003178D02*
X032148Y003178D01*
X032148Y003495D02*
X046717Y003495D01*
X046558Y003336D02*
X031730Y003336D01*
X031730Y003223D02*
X031730Y002377D01*
X031575Y002377D01*
X031575Y002766D01*
X031575Y003223D01*
X031730Y003223D01*
X031730Y003178D02*
X031575Y003178D01*
X031575Y003019D02*
X031730Y003019D01*
X031730Y002861D02*
X031575Y002861D01*
X031575Y002702D02*
X031730Y002702D01*
X031730Y002544D02*
X031575Y002544D01*
X031575Y002385D02*
X031730Y002385D01*
X031730Y002227D02*
X033763Y002227D01*
X033761Y002242D02*
X033773Y002161D01*
X033802Y002073D01*
X033845Y001989D01*
X033899Y001914D01*
X033965Y001848D01*
X034041Y001793D01*
X034124Y001751D01*
X034213Y001722D01*
X034294Y001709D01*
X034294Y002242D01*
X033761Y002242D01*
X033765Y002385D02*
X032148Y002385D01*
X032148Y002544D02*
X033810Y002544D01*
X033915Y002702D02*
X032141Y002702D01*
X032148Y002223D02*
X031730Y002223D01*
X031730Y001766D01*
X031991Y001766D01*
X032037Y001778D01*
X032078Y001802D01*
X032112Y001835D01*
X032135Y001876D01*
X032148Y001922D01*
X032148Y002223D01*
X032148Y002068D02*
X033805Y002068D01*
X033904Y001910D02*
X032144Y001910D01*
X031730Y001910D02*
X031575Y001910D01*
X031575Y002068D02*
X031730Y002068D01*
X031551Y001751D02*
X034124Y001751D01*
X034294Y001751D02*
X034409Y001751D01*
X034409Y001910D02*
X034294Y001910D01*
X034294Y002068D02*
X034409Y002068D01*
X034409Y002227D02*
X034294Y002227D01*
X034294Y002385D02*
X034409Y002385D01*
X034409Y002544D02*
X034294Y002544D01*
X034294Y002702D02*
X034409Y002702D01*
X034787Y002702D02*
X039944Y002702D01*
X039833Y002544D02*
X034892Y002544D01*
X034938Y002385D02*
X039779Y002385D01*
X039779Y002227D02*
X034940Y002227D01*
X034898Y002068D02*
X039828Y002068D01*
X040522Y001751D02*
X047052Y001751D01*
X047045Y001910D02*
X040771Y001910D01*
X040875Y002068D02*
X046754Y002068D01*
X046596Y002227D02*
X040924Y002227D01*
X040924Y002385D02*
X046506Y002385D01*
X046440Y002544D02*
X040870Y002544D01*
X040759Y002702D02*
X046411Y002702D01*
X046954Y003653D02*
X032148Y003653D01*
X032055Y003812D02*
X034840Y003812D01*
X031730Y003812D02*
X031575Y003812D01*
X031575Y003653D02*
X031730Y003653D01*
X031730Y003495D02*
X031575Y003495D01*
X029851Y002550D02*
X029851Y002300D01*
X029851Y002050D01*
X029851Y002300D02*
X030550Y002300D01*
X031656Y001593D02*
X046894Y001593D01*
X046735Y001434D02*
X031762Y001434D01*
X034579Y001751D02*
X034662Y001793D01*
X034737Y001848D01*
X034803Y001914D01*
X040540Y004921D02*
X040639Y004921D01*
X040836Y005080D02*
X040319Y005080D01*
X041044Y005080D02*
X041159Y005080D01*
X041159Y004921D02*
X041044Y004921D01*
X041044Y004763D02*
X041159Y004763D01*
X044363Y003812D02*
X047101Y003812D01*
X047101Y003970D02*
X044521Y003970D01*
X045544Y004287D02*
X045659Y004287D01*
X045659Y004446D02*
X045544Y004446D01*
X045544Y004604D02*
X045659Y004604D01*
X045659Y004763D02*
X047101Y004763D01*
X045659Y004921D02*
X045544Y004921D01*
X045544Y005080D02*
X045659Y005080D01*
X045659Y005238D02*
X045544Y005238D01*
X045009Y005238D02*
X044851Y005238D01*
X044851Y005080D02*
X045009Y005080D01*
X045009Y004921D02*
X044851Y004921D01*
X045265Y005714D02*
X046688Y005714D01*
X041101Y006550D02*
X039851Y006550D01*
X039851Y007050D01*
X039851Y008300D01*
X039794Y008408D02*
X039909Y008408D01*
X039909Y008567D02*
X039794Y008567D01*
X039794Y008725D02*
X039909Y008725D01*
X039909Y008884D02*
X039794Y008884D01*
X039748Y008884D02*
X039633Y008884D01*
X039633Y009042D02*
X042478Y009042D01*
X042413Y009201D02*
X039633Y009201D01*
X039633Y009359D02*
X042360Y009359D01*
X042360Y009518D02*
X039633Y009518D01*
X039633Y009676D02*
X042360Y009676D01*
X042405Y009835D02*
X039667Y009835D01*
X039826Y009993D02*
X042471Y009993D01*
X042574Y010152D02*
X039984Y010152D01*
X039955Y008884D02*
X042592Y008884D01*
X042750Y008725D02*
X041236Y008725D01*
X040467Y008725D02*
X040264Y008725D01*
X039909Y008091D02*
X039794Y008091D01*
X039794Y007933D02*
X039909Y007933D01*
X039909Y007774D02*
X039794Y007774D01*
X040124Y007774D02*
X040625Y007774D01*
X040409Y007933D02*
X040317Y007933D01*
X049224Y009201D02*
X049601Y009201D01*
X049601Y009359D02*
X049224Y009359D01*
X045659Y013639D02*
X045544Y013639D01*
X045544Y013797D02*
X045659Y013797D01*
X045659Y013956D02*
X045544Y013956D01*
X045544Y014114D02*
X045659Y014114D01*
X045659Y014273D02*
X045544Y014273D01*
X045544Y014431D02*
X045659Y014431D01*
X045146Y014431D02*
X039351Y014431D01*
X039351Y014273D02*
X045051Y014273D01*
X045012Y014114D02*
X043916Y014114D01*
X044075Y013956D02*
X045016Y013956D01*
X045065Y013797D02*
X044209Y013797D01*
X044275Y013639D02*
X045175Y013639D01*
X044521Y014907D02*
X039485Y014907D01*
X039683Y015065D02*
X044403Y015065D01*
X044952Y015699D02*
X045009Y015699D01*
X045009Y015858D02*
X044794Y015858D01*
X044635Y016016D02*
X045544Y016016D01*
X045601Y016050D02*
X045601Y018550D01*
X039601Y018550D01*
X039601Y015800D01*
X043811Y016333D02*
X045009Y016333D01*
X045009Y016175D02*
X044477Y016175D01*
X043953Y016492D02*
X045010Y016492D01*
X045544Y016492D02*
X045659Y016492D01*
X045659Y016642D02*
X045659Y016108D01*
X046194Y016108D01*
X046194Y016486D01*
X046182Y016532D01*
X046158Y016573D01*
X046124Y016607D01*
X046083Y016630D01*
X046038Y016642D01*
X045659Y016642D01*
X046192Y016492D02*
X048733Y016492D01*
X048599Y016333D02*
X046194Y016333D01*
X046194Y016175D02*
X048533Y016175D01*
X048529Y016016D02*
X045659Y016016D01*
X045659Y016175D02*
X045544Y016175D01*
X045544Y016333D02*
X045659Y016333D01*
X046194Y015858D02*
X048561Y015858D01*
X048643Y015699D02*
X046194Y015699D01*
X044019Y016650D02*
X050101Y016650D01*
X050101Y016492D02*
X049469Y016492D01*
X049604Y016333D02*
X050101Y016333D01*
X050101Y016175D02*
X049669Y016175D01*
X049674Y016016D02*
X050067Y016016D01*
X049909Y015858D02*
X049641Y015858D01*
X049560Y015699D02*
X049750Y015699D01*
X050101Y016809D02*
X044085Y016809D01*
X044093Y016967D02*
X050101Y016967D01*
X050101Y017126D02*
X044093Y017126D01*
X044068Y017284D02*
X050101Y017284D01*
X050101Y017443D02*
X047738Y017443D01*
X047884Y017503D02*
X048148Y017768D01*
X048291Y018113D01*
X048291Y018487D01*
X048148Y018832D01*
X047884Y019097D01*
X047538Y019240D01*
X047164Y019240D01*
X046819Y019097D01*
X046554Y018832D01*
X046411Y018487D01*
X046411Y018113D01*
X046554Y017768D01*
X046819Y017503D01*
X047164Y017360D01*
X047538Y017360D01*
X047884Y017503D01*
X047982Y017601D02*
X050101Y017601D01*
X050101Y017760D02*
X048140Y017760D01*
X048211Y017918D02*
X050101Y017918D01*
X050101Y018077D02*
X048276Y018077D01*
X048291Y018235D02*
X050101Y018235D01*
X050101Y018394D02*
X048291Y018394D01*
X048264Y018552D02*
X050101Y018552D01*
X050101Y018711D02*
X048199Y018711D01*
X048112Y018869D02*
X050101Y018869D01*
X050101Y019028D02*
X047953Y019028D01*
X047669Y019186D02*
X050101Y019186D01*
X050101Y019345D02*
X031351Y019345D01*
X031351Y019503D02*
X050101Y019503D01*
X050101Y019662D02*
X031351Y019662D01*
X031351Y019820D02*
X050101Y019820D01*
X050101Y019979D02*
X031351Y019979D01*
X031351Y020137D02*
X050101Y020137D01*
X050101Y020296D02*
X048644Y020296D01*
X048689Y020340D02*
X048577Y020229D01*
X048431Y020168D01*
X048272Y020168D01*
X048126Y020229D01*
X048014Y020340D01*
X047954Y020487D01*
X047954Y020645D01*
X048014Y020791D01*
X048126Y020903D01*
X048272Y020964D01*
X048431Y020964D01*
X048577Y020903D01*
X048689Y020791D01*
X048749Y020645D01*
X048749Y020487D01*
X048689Y020340D01*
X048736Y020454D02*
X050101Y020454D01*
X050101Y020613D02*
X048749Y020613D01*
X048697Y020771D02*
X050101Y020771D01*
X050101Y020930D02*
X048513Y020930D01*
X048190Y020930D02*
X044013Y020930D01*
X044077Y020903D02*
X043931Y020964D01*
X043772Y020964D01*
X043626Y020903D01*
X043514Y020791D01*
X043454Y020645D01*
X043454Y020487D01*
X043514Y020340D01*
X043626Y020229D01*
X043772Y020168D01*
X043931Y020168D01*
X044077Y020229D01*
X044189Y020340D01*
X044249Y020487D01*
X044249Y020645D01*
X044189Y020791D01*
X044077Y020903D01*
X044197Y020771D02*
X048006Y020771D01*
X047954Y020613D02*
X044249Y020613D01*
X044236Y020454D02*
X047967Y020454D01*
X048059Y020296D02*
X044144Y020296D01*
X043559Y020296D02*
X039644Y020296D01*
X039689Y020340D02*
X039749Y020487D01*
X039749Y020645D01*
X039689Y020791D01*
X039577Y020903D01*
X039431Y020964D01*
X039272Y020964D01*
X039126Y020903D01*
X039014Y020791D01*
X038954Y020645D01*
X038954Y020487D01*
X039014Y020340D01*
X039126Y020229D01*
X039272Y020168D01*
X039431Y020168D01*
X039577Y020229D01*
X039689Y020340D01*
X039736Y020454D02*
X043467Y020454D01*
X043454Y020613D02*
X039749Y020613D01*
X039697Y020771D02*
X043506Y020771D01*
X043690Y020930D02*
X039513Y020930D01*
X039190Y020930D02*
X035013Y020930D01*
X035077Y020903D02*
X034931Y020964D01*
X034772Y020964D01*
X034626Y020903D01*
X034514Y020791D01*
X034454Y020645D01*
X034454Y020487D01*
X034514Y020340D01*
X034626Y020229D01*
X034772Y020168D01*
X034931Y020168D01*
X035077Y020229D01*
X035189Y020340D01*
X035249Y020487D01*
X035249Y020645D01*
X035189Y020791D01*
X035077Y020903D01*
X035197Y020771D02*
X039006Y020771D01*
X038954Y020613D02*
X035249Y020613D01*
X035236Y020454D02*
X038967Y020454D01*
X039059Y020296D02*
X035144Y020296D01*
X034559Y020296D02*
X031351Y020296D01*
X031351Y020454D02*
X034467Y020454D01*
X034454Y020613D02*
X031351Y020613D01*
X031351Y020771D02*
X034506Y020771D01*
X034690Y020930D02*
X031351Y020930D01*
X031351Y021088D02*
X050101Y021088D01*
X050101Y021247D02*
X031351Y021247D01*
X031351Y021405D02*
X050101Y021405D01*
X050101Y021564D02*
X031351Y021564D01*
X031351Y021722D02*
X050101Y021722D01*
X050101Y021881D02*
X031351Y021881D01*
X031351Y022039D02*
X050101Y022039D01*
X050101Y022198D02*
X048740Y022198D01*
X048733Y022186D02*
X048757Y022227D01*
X048769Y022273D01*
X048769Y022534D01*
X048351Y022534D01*
X047934Y022534D01*
X047934Y022273D01*
X047946Y022227D01*
X047970Y022186D01*
X048003Y022152D01*
X048044Y022129D01*
X048090Y022116D01*
X048351Y022116D01*
X048351Y022534D01*
X048351Y022534D01*
X048351Y022534D01*
X047934Y022534D01*
X047934Y022796D01*
X047946Y022842D01*
X047970Y022883D01*
X048003Y022916D01*
X048044Y022940D01*
X048090Y022952D01*
X048351Y022952D01*
X048351Y022534D01*
X048351Y022116D01*
X048613Y022116D01*
X048659Y022129D01*
X048700Y022152D01*
X048733Y022186D01*
X048769Y022356D02*
X050045Y022356D01*
X049887Y022515D02*
X048769Y022515D01*
X048769Y022534D02*
X048769Y022796D01*
X048757Y022842D01*
X048733Y022883D01*
X048700Y022916D01*
X048659Y022940D01*
X048613Y022952D01*
X048351Y022952D01*
X048351Y022534D01*
X048351Y022534D01*
X048351Y022534D01*
X048769Y022534D01*
X048769Y022673D02*
X049728Y022673D01*
X049570Y022832D02*
X048760Y022832D01*
X048351Y022832D02*
X048351Y022832D01*
X048351Y022673D02*
X048351Y022673D01*
X048351Y022515D02*
X048351Y022515D01*
X048351Y022356D02*
X048351Y022356D01*
X048351Y022198D02*
X048351Y022198D01*
X047963Y022198D02*
X044240Y022198D01*
X044233Y022186D02*
X044257Y022227D01*
X044269Y022273D01*
X044269Y022534D01*
X043851Y022534D01*
X043434Y022534D01*
X043434Y022273D01*
X043446Y022227D01*
X043470Y022186D01*
X043503Y022152D01*
X043544Y022129D01*
X043590Y022116D01*
X043851Y022116D01*
X043851Y022534D01*
X043851Y022534D01*
X043851Y022534D01*
X043434Y022534D01*
X043434Y022796D01*
X043446Y022842D01*
X043470Y022883D01*
X043503Y022916D01*
X043544Y022940D01*
X043590Y022952D01*
X043851Y022952D01*
X043851Y022534D01*
X043851Y022116D01*
X044113Y022116D01*
X044159Y022129D01*
X044200Y022152D01*
X044233Y022186D01*
X044269Y022356D02*
X047934Y022356D01*
X047934Y022515D02*
X044269Y022515D01*
X044269Y022534D02*
X044269Y022796D01*
X044257Y022842D01*
X044233Y022883D01*
X044200Y022916D01*
X044159Y022940D01*
X044113Y022952D01*
X043851Y022952D01*
X043851Y022534D01*
X043851Y022534D01*
X043851Y022534D01*
X044269Y022534D01*
X044269Y022673D02*
X047934Y022673D01*
X047943Y022832D02*
X044260Y022832D01*
X043851Y022832D02*
X043851Y022832D01*
X043851Y022673D02*
X043851Y022673D01*
X043851Y022515D02*
X043851Y022515D01*
X043851Y022356D02*
X043851Y022356D01*
X043851Y022198D02*
X043851Y022198D01*
X043463Y022198D02*
X039740Y022198D01*
X039733Y022186D02*
X039757Y022227D01*
X039769Y022273D01*
X039769Y022534D01*
X039351Y022534D01*
X038934Y022534D01*
X038934Y022273D01*
X038946Y022227D01*
X038970Y022186D01*
X039003Y022152D01*
X039044Y022129D01*
X039090Y022116D01*
X039351Y022116D01*
X039351Y022534D01*
X039351Y022534D01*
X039351Y022534D01*
X038934Y022534D01*
X038934Y022796D01*
X038946Y022842D01*
X038970Y022883D01*
X039003Y022916D01*
X039044Y022940D01*
X039090Y022952D01*
X039351Y022952D01*
X039351Y022534D01*
X039351Y022116D01*
X039613Y022116D01*
X039659Y022129D01*
X039700Y022152D01*
X039733Y022186D01*
X039769Y022356D02*
X043434Y022356D01*
X043434Y022515D02*
X039769Y022515D01*
X039769Y022534D02*
X039769Y022796D01*
X039757Y022842D01*
X039733Y022883D01*
X039700Y022916D01*
X039659Y022940D01*
X039613Y022952D01*
X039351Y022952D01*
X039351Y022534D01*
X039351Y022534D01*
X039351Y022534D01*
X039769Y022534D01*
X039769Y022673D02*
X043434Y022673D01*
X043443Y022832D02*
X039760Y022832D01*
X039351Y022832D02*
X039351Y022832D01*
X039351Y022673D02*
X039351Y022673D01*
X039351Y022515D02*
X039351Y022515D01*
X039351Y022356D02*
X039351Y022356D01*
X039351Y022198D02*
X039351Y022198D01*
X038963Y022198D02*
X035240Y022198D01*
X035233Y022186D02*
X035257Y022227D01*
X035269Y022273D01*
X035269Y022534D01*
X034851Y022534D01*
X034434Y022534D01*
X034434Y022273D01*
X034446Y022227D01*
X034470Y022186D01*
X034503Y022152D01*
X034544Y022129D01*
X034590Y022116D01*
X034851Y022116D01*
X034851Y022534D01*
X034851Y022534D01*
X034851Y022534D01*
X034434Y022534D01*
X034434Y022796D01*
X034446Y022842D01*
X034470Y022883D01*
X034503Y022916D01*
X034544Y022940D01*
X034590Y022952D01*
X034851Y022952D01*
X034851Y022534D01*
X034851Y022116D01*
X035113Y022116D01*
X035159Y022129D01*
X035200Y022152D01*
X035233Y022186D01*
X035269Y022356D02*
X038934Y022356D01*
X038934Y022515D02*
X035269Y022515D01*
X035269Y022534D02*
X035269Y022796D01*
X035257Y022842D01*
X035233Y022883D01*
X035200Y022916D01*
X035159Y022940D01*
X035113Y022952D01*
X034851Y022952D01*
X034851Y022534D01*
X034851Y022534D01*
X034851Y022534D01*
X035269Y022534D01*
X035269Y022673D02*
X038934Y022673D01*
X038943Y022832D02*
X035260Y022832D01*
X034851Y022832D02*
X034851Y022832D01*
X034851Y022673D02*
X034851Y022673D01*
X034851Y022515D02*
X034851Y022515D01*
X034851Y022356D02*
X034851Y022356D01*
X034851Y022198D02*
X034851Y022198D01*
X034463Y022198D02*
X031351Y022198D01*
X031351Y022356D02*
X034434Y022356D01*
X034434Y022515D02*
X031351Y022515D01*
X031351Y022673D02*
X034434Y022673D01*
X034443Y022832D02*
X031383Y022832D01*
X031541Y022990D02*
X049411Y022990D01*
X049253Y023149D02*
X031700Y023149D01*
X031851Y023149D02*
X018700Y023149D01*
X018971Y022990D02*
X031851Y022990D01*
X031851Y022832D02*
X030760Y022832D01*
X030757Y022842D02*
X030733Y022883D01*
X030700Y022916D01*
X030659Y022940D01*
X030613Y022952D01*
X030351Y022952D01*
X030090Y022952D01*
X030044Y022940D01*
X030003Y022916D01*
X029970Y022883D01*
X029946Y022842D01*
X029934Y022796D01*
X029934Y022534D01*
X029934Y022273D01*
X029946Y022227D01*
X029970Y022186D01*
X030003Y022152D01*
X030044Y022129D01*
X030090Y022116D01*
X030351Y022116D01*
X030351Y022534D01*
X029934Y022534D01*
X030351Y022534D01*
X030351Y022534D01*
X030351Y022534D01*
X030351Y022116D01*
X030613Y022116D01*
X030659Y022129D01*
X030700Y022152D01*
X030733Y022186D01*
X030757Y022227D01*
X030769Y022273D01*
X030769Y022534D01*
X030351Y022534D01*
X030351Y022952D01*
X030351Y022534D01*
X030351Y022534D01*
X030351Y022534D01*
X030769Y022534D01*
X030769Y022796D01*
X030757Y022842D01*
X030769Y022673D02*
X031851Y022673D01*
X031851Y022515D02*
X030769Y022515D01*
X030769Y022356D02*
X031851Y022356D01*
X031851Y022198D02*
X030740Y022198D01*
X030351Y022198D02*
X030351Y022198D01*
X030351Y022356D02*
X030351Y022356D01*
X030351Y022515D02*
X030351Y022515D01*
X030351Y022673D02*
X030351Y022673D01*
X030351Y022832D02*
X030351Y022832D01*
X029943Y022832D02*
X026260Y022832D01*
X026257Y022842D02*
X026233Y022883D01*
X026200Y022916D01*
X026159Y022940D01*
X026113Y022952D01*
X025851Y022952D01*
X025590Y022952D01*
X025544Y022940D01*
X025503Y022916D01*
X025470Y022883D01*
X025446Y022842D01*
X025434Y022796D01*
X025434Y022534D01*
X025434Y022273D01*
X025446Y022227D01*
X025470Y022186D01*
X025503Y022152D01*
X025544Y022129D01*
X025590Y022116D01*
X025851Y022116D01*
X025851Y022534D01*
X025434Y022534D01*
X025851Y022534D01*
X025851Y022534D01*
X025851Y022534D01*
X025851Y022116D01*
X026113Y022116D01*
X026159Y022129D01*
X026200Y022152D01*
X026233Y022186D01*
X026257Y022227D01*
X026269Y022273D01*
X026269Y022534D01*
X025851Y022534D01*
X025851Y022952D01*
X025851Y022534D01*
X025851Y022534D01*
X025851Y022534D01*
X026269Y022534D01*
X026269Y022796D01*
X026257Y022842D01*
X026269Y022673D02*
X029934Y022673D01*
X029934Y022515D02*
X026269Y022515D01*
X026269Y022356D02*
X029934Y022356D01*
X029963Y022198D02*
X026240Y022198D01*
X025851Y022198D02*
X025851Y022198D01*
X025851Y022356D02*
X025851Y022356D01*
X025851Y022515D02*
X025851Y022515D01*
X025851Y022673D02*
X025851Y022673D01*
X025851Y022832D02*
X025851Y022832D01*
X025443Y022832D02*
X021760Y022832D01*
X021757Y022842D02*
X021733Y022883D01*
X021700Y022916D01*
X021659Y022940D01*
X021613Y022952D01*
X021351Y022952D01*
X021090Y022952D01*
X021044Y022940D01*
X021003Y022916D01*
X020970Y022883D01*
X020946Y022842D01*
X020934Y022796D01*
X020934Y022534D01*
X020934Y022273D01*
X020946Y022227D01*
X020970Y022186D01*
X021003Y022152D01*
X021044Y022129D01*
X021090Y022116D01*
X021351Y022116D01*
X021351Y022534D01*
X020934Y022534D01*
X021351Y022534D01*
X021351Y022534D01*
X021351Y022534D01*
X021351Y022116D01*
X021613Y022116D01*
X021659Y022129D01*
X021700Y022152D01*
X021733Y022186D01*
X021757Y022227D01*
X021769Y022273D01*
X021769Y022534D01*
X021351Y022534D01*
X021351Y022952D01*
X021351Y022534D01*
X021351Y022534D01*
X021351Y022534D01*
X021769Y022534D01*
X021769Y022796D01*
X021757Y022842D01*
X021769Y022673D02*
X025434Y022673D01*
X025434Y022515D02*
X021769Y022515D01*
X021769Y022356D02*
X025434Y022356D01*
X025463Y022198D02*
X021740Y022198D01*
X021351Y022198D02*
X021351Y022198D01*
X021351Y022356D02*
X021351Y022356D01*
X021351Y022515D02*
X021351Y022515D01*
X021351Y022673D02*
X021351Y022673D01*
X021351Y022832D02*
X021351Y022832D01*
X020943Y022832D02*
X019104Y022832D01*
X019170Y022673D02*
X020934Y022673D01*
X020934Y022515D02*
X019174Y022515D01*
X019141Y022356D02*
X020934Y022356D01*
X020963Y022198D02*
X019059Y022198D01*
X018864Y022039D02*
X031851Y022039D01*
X031851Y021881D02*
X018483Y021881D01*
X018505Y021722D02*
X031851Y021722D01*
X031851Y021564D02*
X018528Y021564D01*
X018551Y021405D02*
X031851Y021405D01*
X031851Y021247D02*
X018573Y021247D01*
X018596Y021088D02*
X031851Y021088D01*
X031851Y020930D02*
X030513Y020930D01*
X030577Y020903D02*
X030431Y020964D01*
X030272Y020964D01*
X030126Y020903D01*
X030014Y020791D01*
X029954Y020645D01*
X029954Y020487D01*
X030014Y020340D01*
X030126Y020229D01*
X030272Y020168D01*
X030431Y020168D01*
X030577Y020229D01*
X030689Y020340D01*
X030749Y020487D01*
X030749Y020645D01*
X030689Y020791D01*
X030577Y020903D01*
X030697Y020771D02*
X031851Y020771D01*
X031851Y020613D02*
X030749Y020613D01*
X030736Y020454D02*
X031851Y020454D01*
X031851Y020296D02*
X030644Y020296D01*
X030059Y020296D02*
X026144Y020296D01*
X026189Y020340D02*
X026249Y020487D01*
X026249Y020645D01*
X026189Y020791D01*
X026077Y020903D01*
X025931Y020964D01*
X025772Y020964D01*
X025626Y020903D01*
X025514Y020791D01*
X025454Y020645D01*
X025454Y020487D01*
X025514Y020340D01*
X025626Y020229D01*
X025772Y020168D01*
X025931Y020168D01*
X026077Y020229D01*
X026189Y020340D01*
X026236Y020454D02*
X029967Y020454D01*
X029954Y020613D02*
X026249Y020613D01*
X026197Y020771D02*
X030006Y020771D01*
X030190Y020930D02*
X026013Y020930D01*
X025690Y020930D02*
X021513Y020930D01*
X021577Y020903D02*
X021431Y020964D01*
X021272Y020964D01*
X021126Y020903D01*
X021014Y020791D01*
X020954Y020645D01*
X020954Y020487D01*
X021014Y020340D01*
X021126Y020229D01*
X021272Y020168D01*
X021431Y020168D01*
X021577Y020229D01*
X021689Y020340D01*
X021749Y020487D01*
X021749Y020645D01*
X021689Y020791D01*
X021577Y020903D01*
X021697Y020771D02*
X025506Y020771D01*
X025454Y020613D02*
X021749Y020613D01*
X021736Y020454D02*
X025467Y020454D01*
X025559Y020296D02*
X021644Y020296D01*
X021059Y020296D02*
X018709Y020296D01*
X018687Y020454D02*
X020967Y020454D01*
X020954Y020613D02*
X018664Y020613D01*
X018641Y020771D02*
X021006Y020771D01*
X021190Y020930D02*
X018619Y020930D01*
X018101Y020824D02*
X017601Y020824D01*
X017101Y020824D02*
X016601Y020824D01*
X015851Y020771D02*
X013024Y020771D01*
X013004Y020819D02*
X013076Y020644D01*
X013076Y020456D01*
X013004Y020281D01*
X012870Y020147D01*
X012696Y020075D01*
X012507Y020075D01*
X012332Y020147D01*
X012199Y020281D01*
X012126Y020456D01*
X012126Y020644D01*
X012199Y020819D01*
X012332Y020953D01*
X012507Y021025D01*
X012696Y021025D01*
X012870Y020953D01*
X013004Y020819D01*
X012894Y020930D02*
X015851Y020930D01*
X015851Y021088D02*
X001411Y021088D01*
X001411Y020930D02*
X012309Y020930D01*
X012179Y020771D02*
X008762Y020771D01*
X008763Y020770D02*
X008722Y020794D01*
X008676Y020806D01*
X008414Y020806D01*
X008153Y020806D01*
X008107Y020794D01*
X008066Y020770D01*
X008033Y020737D01*
X008009Y020696D01*
X007997Y020650D01*
X007997Y020389D01*
X008414Y020389D01*
X008414Y020806D01*
X008414Y020389D01*
X008414Y020389D01*
X008414Y020389D01*
X007997Y020389D01*
X007997Y020127D01*
X008009Y020081D01*
X008033Y020040D01*
X008066Y020007D01*
X008107Y019983D01*
X008153Y019971D01*
X008414Y019971D01*
X008414Y020389D01*
X008832Y020389D01*
X008832Y020650D01*
X008820Y020696D01*
X008796Y020737D01*
X008763Y020770D01*
X008832Y020613D02*
X012126Y020613D01*
X012127Y020454D02*
X008832Y020454D01*
X008832Y020389D02*
X008414Y020389D01*
X008414Y020389D01*
X008414Y020389D01*
X008414Y019971D01*
X008676Y019971D01*
X008722Y019983D01*
X008763Y020007D01*
X008796Y020040D01*
X008820Y020081D01*
X008832Y020127D01*
X008832Y020389D01*
X008832Y020296D02*
X012193Y020296D01*
X012357Y020137D02*
X008832Y020137D01*
X008705Y019979D02*
X015851Y019979D01*
X015851Y020137D02*
X012846Y020137D01*
X013010Y020296D02*
X015851Y020296D01*
X015851Y020454D02*
X013076Y020454D01*
X013076Y020613D02*
X015851Y020613D01*
X015851Y021247D02*
X001411Y021247D01*
X001411Y021405D02*
X015851Y021405D01*
X015851Y021564D02*
X001411Y021564D01*
X001411Y021722D02*
X003067Y021722D01*
X003092Y021697D02*
X004111Y021697D01*
X004204Y021791D01*
X004204Y022809D01*
X004111Y022903D01*
X003092Y022903D01*
X002998Y022809D01*
X002998Y021791D01*
X003092Y021697D01*
X002998Y021881D02*
X001411Y021881D01*
X001411Y022039D02*
X002998Y022039D01*
X002998Y022198D02*
X001411Y022198D01*
X001411Y022356D02*
X002998Y022356D01*
X002998Y022515D02*
X001566Y022515D01*
X001411Y022360D02*
X002291Y023240D01*
X015851Y023240D01*
X015851Y018800D01*
X013012Y018800D01*
X013004Y018819D01*
X012870Y018953D01*
X012696Y019025D01*
X012507Y019025D01*
X012332Y018953D01*
X012199Y018819D01*
X012191Y018800D01*
X001411Y018800D01*
X001411Y022360D01*
X001724Y022673D02*
X002998Y022673D01*
X003021Y022832D02*
X001883Y022832D01*
X002041Y022990D02*
X012203Y022990D01*
X012215Y023002D02*
X012149Y022936D01*
X012095Y022861D01*
X012052Y022777D01*
X012023Y022689D01*
X012011Y022608D01*
X012544Y022608D01*
X012544Y023141D01*
X012463Y023128D01*
X012374Y023099D01*
X012291Y023057D01*
X012215Y023002D01*
X012080Y022832D02*
X004182Y022832D01*
X004204Y022673D02*
X008168Y022673D01*
X008189Y022694D02*
X008077Y022582D01*
X008017Y022436D01*
X008017Y022278D01*
X008077Y022132D01*
X008189Y022020D01*
X008335Y021959D01*
X008493Y021959D01*
X008640Y022020D01*
X008752Y022132D01*
X008812Y022278D01*
X008812Y022436D01*
X008752Y022582D01*
X008640Y022694D01*
X008493Y022755D01*
X008335Y022755D01*
X008189Y022694D01*
X008049Y022515D02*
X004204Y022515D01*
X004204Y022356D02*
X008017Y022356D01*
X008050Y022198D02*
X004204Y022198D01*
X004204Y022039D02*
X008170Y022039D01*
X008659Y022039D02*
X012299Y022039D01*
X012291Y022043D02*
X012374Y022001D01*
X012463Y021972D01*
X012544Y021959D01*
X012544Y022492D01*
X012659Y022492D01*
X012659Y021959D01*
X012740Y021972D01*
X012829Y022001D01*
X012912Y022043D01*
X012987Y022098D01*
X013053Y022164D01*
X013108Y022239D01*
X013150Y022323D01*
X013179Y022411D01*
X013192Y022492D01*
X012659Y022492D01*
X012659Y022608D01*
X012544Y022608D01*
X012544Y022492D01*
X012011Y022492D01*
X012023Y022411D01*
X012052Y022323D01*
X012095Y022239D01*
X012149Y022164D01*
X012215Y022098D01*
X012291Y022043D01*
X012125Y022198D02*
X008779Y022198D01*
X008812Y022356D02*
X012041Y022356D01*
X012544Y022356D02*
X012659Y022356D01*
X012659Y022198D02*
X012544Y022198D01*
X012544Y022039D02*
X012659Y022039D01*
X012904Y022039D02*
X015851Y022039D01*
X015851Y021881D02*
X004204Y021881D01*
X004136Y021722D02*
X015851Y021722D01*
X015851Y022198D02*
X013078Y022198D01*
X013161Y022356D02*
X015851Y022356D01*
X015851Y022515D02*
X012659Y022515D01*
X012659Y022608D02*
X013192Y022608D01*
X013179Y022689D01*
X013150Y022777D01*
X013108Y022861D01*
X013053Y022936D01*
X012987Y023002D01*
X012912Y023057D01*
X012829Y023099D01*
X012740Y023128D01*
X012659Y023141D01*
X012659Y022608D01*
X012659Y022673D02*
X012544Y022673D01*
X012544Y022515D02*
X008780Y022515D01*
X008661Y022673D02*
X012021Y022673D01*
X012544Y022832D02*
X012659Y022832D01*
X012659Y022990D02*
X012544Y022990D01*
X012999Y022990D02*
X015851Y022990D01*
X015851Y022832D02*
X013123Y022832D01*
X013182Y022673D02*
X015851Y022673D01*
X015851Y023149D02*
X002200Y023149D01*
X003089Y020911D02*
X003048Y020887D01*
X003014Y020853D01*
X002991Y020812D01*
X002978Y020767D01*
X002978Y020368D01*
X003534Y020368D01*
X003534Y020923D01*
X003135Y020923D01*
X003089Y020911D01*
X002980Y020771D02*
X001411Y020771D01*
X001411Y020613D02*
X002978Y020613D01*
X002978Y020454D02*
X001411Y020454D01*
X001411Y020296D02*
X003534Y020296D01*
X003534Y020232D02*
X003534Y020368D01*
X003669Y020368D01*
X003669Y020923D01*
X004068Y020923D01*
X004114Y020911D01*
X004155Y020887D01*
X004188Y020853D01*
X004212Y020812D01*
X004224Y020767D01*
X004224Y020368D01*
X003669Y020368D01*
X003669Y020232D01*
X003669Y019677D01*
X004068Y019677D01*
X004114Y019689D01*
X004155Y019713D01*
X004188Y019747D01*
X004212Y019788D01*
X004224Y019833D01*
X004224Y020232D01*
X003669Y020232D01*
X003534Y020232D01*
X003534Y019677D01*
X003135Y019677D01*
X003089Y019689D01*
X003048Y019713D01*
X003014Y019747D01*
X002991Y019788D01*
X002978Y019833D01*
X002978Y020232D01*
X003534Y020232D01*
X003534Y020137D02*
X003669Y020137D01*
X003669Y019979D02*
X003534Y019979D01*
X003534Y019820D02*
X003669Y019820D01*
X004221Y019820D02*
X015851Y019820D01*
X015851Y019662D02*
X001411Y019662D01*
X001411Y019820D02*
X002982Y019820D01*
X002978Y019979D02*
X001411Y019979D01*
X001411Y020137D02*
X002978Y020137D01*
X003534Y020454D02*
X003669Y020454D01*
X003669Y020296D02*
X007997Y020296D01*
X007997Y020454D02*
X004224Y020454D01*
X004224Y020613D02*
X007997Y020613D01*
X008067Y020771D02*
X004223Y020771D01*
X003669Y020771D02*
X003534Y020771D01*
X003534Y020613D02*
X003669Y020613D01*
X003601Y020300D02*
X007601Y020300D01*
X009851Y020300D01*
X008414Y020296D02*
X008414Y020296D01*
X008414Y020454D02*
X008414Y020454D01*
X008414Y020613D02*
X008414Y020613D01*
X008414Y020771D02*
X008414Y020771D01*
X008414Y020137D02*
X008414Y020137D01*
X008414Y019979D02*
X008414Y019979D01*
X008124Y019979D02*
X004224Y019979D01*
X004224Y020137D02*
X007997Y020137D01*
X012249Y018869D02*
X001411Y018869D01*
X001411Y019028D02*
X015851Y019028D01*
X015851Y019186D02*
X001411Y019186D01*
X001411Y019345D02*
X015851Y019345D01*
X015851Y019503D02*
X001411Y019503D01*
X012954Y018869D02*
X015851Y018869D01*
X017351Y018050D02*
X017601Y018300D01*
X017601Y018776D01*
X018845Y019345D02*
X031851Y019345D01*
X031851Y019503D02*
X018822Y019503D01*
X018800Y019662D02*
X031851Y019662D01*
X031851Y019820D02*
X018777Y019820D01*
X018754Y019979D02*
X031851Y019979D01*
X031851Y020137D02*
X018732Y020137D01*
X019141Y019240D02*
X019141Y018822D01*
X019598Y018822D01*
X019598Y019084D01*
X019586Y019129D01*
X019562Y019170D01*
X019529Y019204D01*
X019488Y019228D01*
X019442Y019240D01*
X019141Y019240D01*
X019141Y019186D02*
X018986Y019186D01*
X018986Y019028D02*
X019141Y019028D01*
X019141Y018869D02*
X018986Y018869D01*
X019064Y018745D02*
X019851Y019300D01*
X019547Y019186D02*
X025237Y019186D01*
X025079Y019028D02*
X019598Y019028D01*
X019598Y018869D02*
X024920Y018869D01*
X025275Y018050D02*
X025275Y016800D01*
X025275Y014800D01*
X025351Y014800D01*
X022101Y013550D02*
X022101Y013300D01*
X022101Y013050D01*
X022101Y013300D02*
X021403Y013300D01*
X020300Y013300D02*
X020300Y013398D01*
X020243Y013398D01*
X020243Y012300D01*
X018495Y012300D01*
X018495Y013050D01*
X018495Y013550D02*
X017708Y013550D01*
X017601Y012300D02*
X018495Y012300D01*
X017601Y012300D02*
X017601Y011800D01*
X020243Y012300D02*
X021851Y012300D01*
X021851Y011800D01*
X017351Y015800D02*
X016351Y014800D01*
X017351Y015800D02*
X017351Y018050D01*
X020314Y017889D02*
X020314Y017643D01*
X020314Y016786D02*
X021351Y016786D01*
X021351Y015625D01*
X025275Y016800D02*
X026101Y016800D01*
X026300Y018050D02*
X025275Y018050D01*
X029851Y018050D02*
X029851Y018300D01*
X029851Y018550D01*
X029851Y018300D02*
X030550Y018300D01*
X031282Y018869D02*
X031851Y018869D01*
X031851Y019028D02*
X031124Y019028D01*
X030965Y019186D02*
X031851Y019186D01*
X031730Y018711D02*
X031575Y018711D01*
X031575Y018552D02*
X031730Y018552D01*
X031730Y018394D02*
X031575Y018394D01*
X031575Y018223D02*
X031730Y018223D01*
X031730Y017766D01*
X031730Y017377D01*
X031575Y017377D01*
X031575Y018223D01*
X031575Y018077D02*
X031730Y018077D01*
X031730Y018235D02*
X046411Y018235D01*
X046411Y018394D02*
X032148Y018394D01*
X032148Y018552D02*
X046438Y018552D01*
X046504Y018711D02*
X032139Y018711D01*
X031351Y018869D02*
X046591Y018869D01*
X046750Y019028D02*
X031351Y019028D01*
X031351Y019186D02*
X047034Y019186D01*
X046426Y018077D02*
X032148Y018077D01*
X031730Y017918D02*
X031575Y017918D01*
X031575Y017760D02*
X031730Y017760D01*
X031730Y017601D02*
X031575Y017601D01*
X031575Y017443D02*
X031730Y017443D01*
X030550Y017300D02*
X029851Y017300D01*
X029851Y017050D01*
X029851Y017300D02*
X029851Y017550D01*
X033851Y018550D02*
X039601Y018550D01*
X043540Y017918D02*
X046492Y017918D01*
X046562Y017760D02*
X043771Y017760D01*
X043929Y017601D02*
X046721Y017601D01*
X046965Y017443D02*
X044003Y017443D01*
X033851Y018550D02*
X033851Y021300D01*
X023601Y021300D01*
X029601Y011800D02*
X029851Y011800D01*
X030101Y011800D01*
X029851Y011800D02*
X029851Y011101D01*
X029851Y009999D02*
X029851Y009800D01*
D36*
X029601Y011800D03*
X030101Y011800D03*
X022101Y013050D03*
X022101Y013550D03*
X016101Y017050D03*
X016101Y017550D03*
X029851Y017550D03*
X029851Y017050D03*
X029851Y018050D03*
X029851Y018550D03*
X010351Y009550D03*
X010351Y009050D03*
X010101Y006300D03*
X009601Y006300D03*
X022601Y004300D03*
X022601Y003800D03*
X023351Y005300D03*
X023351Y005800D03*
X029851Y003550D03*
X029851Y003050D03*
X029851Y002550D03*
X029851Y002050D03*
D37*
X029101Y002300D02*
X029101Y004300D01*
X027851Y004300D01*
X027851Y006800D01*
X028351Y006800D01*
X028351Y006550D01*
X030851Y006550D01*
X030851Y005800D02*
X030851Y005300D01*
X030851Y005800D02*
X028351Y005800D01*
X025351Y005800D02*
X025351Y003800D01*
X025275Y003800D01*
X025275Y002300D01*
X025800Y002300D01*
X026903Y002300D02*
X029101Y002300D01*
X028424Y003800D02*
X027351Y003800D01*
X027351Y008800D01*
X025351Y008800D01*
X027351Y008800D02*
X027351Y009800D01*
X028351Y009800D01*
X029851Y009800D01*
X028351Y009800D02*
X028351Y010800D01*
X026851Y010800D01*
X026851Y013800D01*
X025351Y013800D01*
X023601Y013800D01*
X023601Y014837D01*
X021351Y014837D01*
X023601Y014837D02*
X023601Y015550D01*
X021601Y016550D02*
X021601Y016749D01*
X021351Y016749D01*
X021351Y016786D01*
X020314Y017643D02*
X019064Y017643D01*
X020314Y017889D02*
X021601Y017889D01*
X021601Y017851D01*
X023601Y017550D02*
X023601Y019550D01*
X027403Y018050D02*
X029101Y018050D01*
X029101Y015800D01*
X027601Y015800D01*
X027601Y013800D01*
X028351Y013800D01*
X028351Y014050D01*
X030851Y014050D01*
X028351Y014800D02*
X028351Y015300D01*
X030851Y015300D01*
X028351Y016300D02*
X026851Y016300D01*
X026851Y013800D01*
X025351Y012800D02*
X023351Y012800D01*
X028351Y012800D02*
X030851Y012800D01*
X034851Y012800D02*
X034851Y012050D01*
X038851Y012050D01*
X034851Y014050D02*
X034851Y014550D01*
X039909Y014550D01*
X039909Y014512D01*
X038601Y015800D02*
X034851Y015800D01*
X034851Y015300D01*
X028351Y016300D02*
X028351Y016800D01*
X028424Y016800D01*
X015351Y016800D02*
X015351Y017550D01*
X011601Y017550D01*
X011601Y016050D01*
X013300Y016800D02*
X013351Y016800D01*
X013351Y014800D01*
X006351Y014800D01*
X006351Y014770D01*
X009601Y016050D02*
X009601Y018050D01*
X010678Y018050D01*
X012601Y018050D01*
X012601Y018550D01*
X011788Y019300D02*
X008414Y020389D01*
X007601Y020300D02*
X007601Y018050D01*
X007529Y018050D01*
X009601Y019300D02*
X011788Y019300D01*
X014403Y016800D02*
X014601Y016800D01*
X014601Y014300D01*
X014403Y016800D02*
X015351Y016800D01*
X012351Y010800D02*
X012351Y010050D01*
X008550Y010050D01*
X008550Y009300D01*
X008550Y008499D01*
X007101Y007050D01*
X007101Y005739D01*
X012351Y008800D02*
X012351Y010050D01*
X012351Y010800D02*
X011851Y010800D01*
X012351Y008800D02*
X012403Y008800D01*
X013351Y008800D01*
X017601Y007800D02*
X017601Y006800D01*
X016351Y006800D01*
X017601Y007800D02*
X017601Y005050D01*
X020601Y005050D01*
X020601Y004550D01*
X020601Y003300D01*
X020601Y002050D01*
X023903Y001800D02*
X024101Y001800D01*
X024101Y003300D01*
X024351Y005249D02*
X023351Y005249D01*
X023351Y005300D01*
X023351Y005800D01*
X023351Y006749D01*
X022601Y006800D02*
X021851Y006800D01*
X023351Y007851D02*
X025351Y007851D01*
X025351Y007800D01*
X025351Y006800D02*
X024351Y006800D01*
X024351Y006601D01*
X024351Y005499D02*
X024351Y005249D01*
X028351Y007800D02*
X030851Y007800D01*
X034851Y007800D02*
X034851Y008300D01*
X038851Y008300D01*
X039851Y007050D02*
X034851Y007050D01*
X034851Y006550D01*
X034851Y005300D02*
X034851Y004550D01*
X039101Y004550D01*
D38*
X019601Y001550D02*
X019351Y001350D01*
X014476Y001350D01*
X014226Y001550D01*
X012601Y011800D02*
X011851Y011800D01*
X012601Y011800D02*
X012601Y012300D01*
X014101Y012300D01*
X014101Y013800D01*
X013351Y013800D01*
X013351Y012800D02*
X011851Y012800D01*
X015351Y018800D02*
X015351Y023260D01*
X016391Y023260D01*
X016851Y022800D01*
X016851Y021348D01*
X016848Y021355D01*
X016818Y021385D01*
X016781Y021406D01*
X016741Y021417D01*
X016601Y021417D01*
X016462Y021417D01*
X016422Y021406D01*
X016385Y021385D01*
X016355Y021355D01*
X016334Y021318D01*
X016323Y021278D01*
X016323Y020824D01*
X016601Y020824D01*
X016601Y021417D01*
X016601Y020824D01*
X016601Y020824D01*
X016601Y020824D01*
X016323Y020824D01*
X016323Y020369D01*
X016334Y020329D01*
X016355Y020292D01*
X016385Y020263D01*
X016422Y020241D01*
X016462Y020231D01*
X016601Y020231D01*
X016601Y020824D01*
X016601Y020824D01*
X016601Y020231D01*
X016741Y020231D01*
X016781Y020241D01*
X016809Y020257D01*
X016321Y019770D01*
X016260Y019770D01*
X016010Y019520D01*
X015881Y019391D01*
X015881Y019330D01*
X015851Y019300D01*
X015851Y018800D01*
X015351Y018800D01*
X015351Y018812D02*
X015851Y018812D01*
X015851Y018931D02*
X015351Y018931D01*
X015351Y019049D02*
X015851Y019049D01*
X015851Y019168D02*
X015351Y019168D01*
X015351Y019286D02*
X015851Y019286D01*
X015895Y019405D02*
X015351Y019405D01*
X015351Y019523D02*
X016013Y019523D01*
X016132Y019642D02*
X015351Y019642D01*
X015351Y019760D02*
X016250Y019760D01*
X016430Y019879D02*
X015351Y019879D01*
X015351Y019997D02*
X016548Y019997D01*
X016667Y020116D02*
X015351Y020116D01*
X015351Y020234D02*
X016449Y020234D01*
X016601Y020234D02*
X016601Y020234D01*
X016601Y020353D02*
X016601Y020353D01*
X016601Y020471D02*
X016601Y020471D01*
X016601Y020590D02*
X016601Y020590D01*
X016601Y020708D02*
X016601Y020708D01*
X016601Y020827D02*
X016601Y020827D01*
X016601Y020945D02*
X016601Y020945D01*
X016601Y021064D02*
X016601Y021064D01*
X016601Y021182D02*
X016601Y021182D01*
X016601Y021301D02*
X016601Y021301D01*
X016851Y021348D02*
X016851Y021348D01*
X016851Y021419D02*
X015351Y021419D01*
X015351Y021301D02*
X016329Y021301D01*
X016323Y021182D02*
X015351Y021182D01*
X015351Y021064D02*
X016323Y021064D01*
X016323Y020945D02*
X015351Y020945D01*
X015351Y020827D02*
X016323Y020827D01*
X016323Y020708D02*
X015351Y020708D01*
X015351Y020590D02*
X016323Y020590D01*
X016323Y020471D02*
X015351Y020471D01*
X015351Y020353D02*
X016328Y020353D01*
X016754Y020234D02*
X016785Y020234D01*
X017894Y020257D02*
X017922Y020241D01*
X017962Y020231D01*
X018101Y020231D01*
X018101Y020824D01*
X018101Y021417D01*
X017962Y021417D01*
X017922Y021406D01*
X017885Y021385D01*
X017855Y021355D01*
X017851Y021348D01*
X017851Y022800D01*
X018311Y023260D01*
X020351Y023260D01*
X020351Y018800D01*
X019124Y018800D01*
X019124Y018805D01*
X019004Y018805D01*
X019004Y019220D01*
X018851Y019220D01*
X018851Y019300D01*
X017894Y020257D01*
X017917Y020234D02*
X017949Y020234D01*
X018036Y020116D02*
X020351Y020116D01*
X020351Y020234D02*
X018254Y020234D01*
X018241Y020231D02*
X018281Y020241D01*
X018318Y020263D01*
X018348Y020292D01*
X018369Y020329D01*
X018379Y020369D01*
X018379Y020824D01*
X018379Y021278D01*
X018369Y021318D01*
X018348Y021355D01*
X018318Y021385D01*
X018281Y021406D01*
X018241Y021417D01*
X018101Y021417D01*
X018101Y020824D01*
X018101Y020824D01*
X018101Y020824D01*
X018379Y020824D01*
X018101Y020824D01*
X018101Y020824D01*
X018101Y020231D01*
X018241Y020231D01*
X018101Y020234D02*
X018101Y020234D01*
X018101Y020353D02*
X018101Y020353D01*
X018101Y020471D02*
X018101Y020471D01*
X018101Y020590D02*
X018101Y020590D01*
X018101Y020708D02*
X018101Y020708D01*
X018101Y020827D02*
X018101Y020827D01*
X018101Y020945D02*
X018101Y020945D01*
X018101Y021064D02*
X018101Y021064D01*
X018101Y021182D02*
X018101Y021182D01*
X018101Y021301D02*
X018101Y021301D01*
X018373Y021301D02*
X020351Y021301D01*
X020351Y021419D02*
X017851Y021419D01*
X017851Y021538D02*
X020351Y021538D01*
X020351Y021656D02*
X017851Y021656D01*
X017851Y021775D02*
X020351Y021775D01*
X020351Y021893D02*
X017851Y021893D01*
X017851Y022012D02*
X018458Y022012D01*
X018491Y021998D02*
X018711Y021998D01*
X018914Y022082D01*
X019070Y022237D01*
X019154Y022440D01*
X019154Y022660D01*
X019070Y022863D01*
X018914Y023018D01*
X018711Y023102D01*
X018491Y023102D01*
X018288Y023018D01*
X018133Y022863D01*
X018049Y022660D01*
X018049Y022440D01*
X018133Y022237D01*
X018288Y022082D01*
X018491Y021998D01*
X018745Y022012D02*
X020351Y022012D01*
X020351Y022130D02*
X018963Y022130D01*
X019075Y022249D02*
X020351Y022249D01*
X020351Y022367D02*
X019124Y022367D01*
X019154Y022486D02*
X020351Y022486D01*
X020351Y022604D02*
X019154Y022604D01*
X019128Y022723D02*
X020351Y022723D01*
X020351Y022841D02*
X019079Y022841D01*
X018973Y022960D02*
X020351Y022960D01*
X020351Y023078D02*
X018770Y023078D01*
X018432Y023078D02*
X018129Y023078D01*
X018230Y022960D02*
X018011Y022960D01*
X018124Y022841D02*
X017892Y022841D01*
X017851Y022723D02*
X018075Y022723D01*
X018049Y022604D02*
X017851Y022604D01*
X017851Y022486D02*
X018049Y022486D01*
X018079Y022367D02*
X017851Y022367D01*
X017851Y022249D02*
X018128Y022249D01*
X018240Y022130D02*
X017851Y022130D01*
X016851Y022130D02*
X015351Y022130D01*
X015351Y022012D02*
X016851Y022012D01*
X016851Y021893D02*
X015351Y021893D01*
X015351Y021775D02*
X016851Y021775D01*
X016851Y021656D02*
X015351Y021656D01*
X015351Y021538D02*
X016851Y021538D01*
X018379Y021182D02*
X020351Y021182D01*
X020351Y021064D02*
X018379Y021064D01*
X018379Y020945D02*
X020351Y020945D01*
X020351Y020827D02*
X018379Y020827D01*
X018379Y020708D02*
X020351Y020708D01*
X020351Y020590D02*
X018379Y020590D01*
X018379Y020471D02*
X020351Y020471D01*
X020351Y020353D02*
X018375Y020353D01*
X018154Y019997D02*
X020351Y019997D01*
X020351Y019879D02*
X018273Y019879D01*
X018391Y019760D02*
X020351Y019760D01*
X020351Y019642D02*
X018510Y019642D01*
X018628Y019523D02*
X020351Y019523D01*
X020351Y019405D02*
X018747Y019405D01*
X018851Y019286D02*
X020351Y019286D01*
X020351Y019168D02*
X019537Y019168D01*
X019546Y019158D02*
X019517Y019188D01*
X019480Y019209D01*
X019439Y019220D01*
X019124Y019220D01*
X019124Y018805D01*
X019578Y018805D01*
X019578Y019081D01*
X019567Y019122D01*
X019546Y019158D01*
X019578Y019049D02*
X020351Y019049D01*
X020351Y018931D02*
X019578Y018931D01*
X019578Y018812D02*
X020351Y018812D01*
X019124Y018812D02*
X019004Y018812D01*
X019004Y018931D02*
X019124Y018931D01*
X019124Y019049D02*
X019004Y019049D01*
X019004Y019168D02*
X019124Y019168D01*
X016851Y022249D02*
X015351Y022249D01*
X015351Y022367D02*
X016851Y022367D01*
X016851Y022486D02*
X015351Y022486D01*
X015351Y022604D02*
X016851Y022604D01*
X016851Y022723D02*
X015351Y022723D01*
X015351Y022841D02*
X016810Y022841D01*
X016692Y022960D02*
X015351Y022960D01*
X015351Y023078D02*
X016573Y023078D01*
X016455Y023197D02*
X015351Y023197D01*
X018248Y023197D02*
X020351Y023197D01*
M02*
