G75*
G70*
%OFA0B0*%
%FSLAX24Y24*%
%IPPOS*%
%LPD*%
%AMOC8*
5,1,8,0,0,1.08239X$1,22.5*
%
%ADD10C,0.0160*%
%ADD11R,0.0966X0.0966*%
%ADD12R,0.0905X0.0905*%
%ADD13C,0.0905*%
%ADD14C,0.0600*%
%ADD15R,0.0600X0.0600*%
%ADD16R,0.0620X0.0620*%
%ADD17C,0.0620*%
%ADD18R,0.0634X0.0634*%
%ADD19C,0.0634*%
%ADD20R,0.0477X0.0477*%
%ADD21C,0.0477*%
%ADD22R,0.0556X0.0556*%
%ADD23C,0.0556*%
%ADD24C,0.0000*%
%ADD25C,0.1104*%
%ADD26R,0.0789X0.0710*%
%ADD27C,0.0497*%
%ADD28C,0.0680*%
%ADD29R,0.0680X0.0680*%
%ADD30C,0.1640*%
%ADD31R,0.0710X0.0789*%
%ADD32R,0.0907X0.0907*%
%ADD33R,0.0755X0.0755*%
%ADD34C,0.0755*%
%ADD35C,0.0674*%
%ADD36C,0.1340*%
%ADD37C,0.0710*%
%ADD38R,0.0316X0.0946*%
%ADD39R,0.0476X0.0476*%
D10*
X000851Y000800D02*
X050851Y000800D01*
X050851Y023800D01*
X000851Y023800D01*
X000851Y000800D01*
D11*
X048601Y009550D03*
X048601Y011550D03*
X003601Y020300D03*
X003601Y022300D03*
D12*
X009601Y016050D03*
X023601Y017550D03*
X038601Y015800D03*
X045601Y016050D03*
X049101Y014050D03*
X038851Y012050D03*
X038851Y008300D03*
X045601Y004800D03*
X049101Y006800D03*
X039101Y004550D03*
D13*
X040101Y004550D03*
X041101Y004550D03*
X045601Y006800D03*
X049101Y004800D03*
X040851Y008300D03*
X039851Y008300D03*
X039851Y012050D03*
X040851Y012050D03*
X045601Y014050D03*
X049101Y016050D03*
X040601Y015800D03*
X039601Y015800D03*
X023601Y015550D03*
X023601Y016550D03*
X011601Y016050D03*
X010601Y016050D03*
X012601Y022550D03*
X018601Y022550D03*
X034351Y002300D03*
X040351Y002300D03*
D14*
X034851Y005300D03*
X034851Y006550D03*
X034851Y007800D03*
X034851Y012800D03*
X034851Y014050D03*
X034851Y015300D03*
X023351Y012800D03*
X017601Y007800D03*
D15*
X023351Y008800D03*
X017601Y011800D03*
X030851Y012800D03*
X030851Y014050D03*
X030851Y015300D03*
X030851Y007800D03*
X030851Y006550D03*
X030851Y005300D03*
D16*
X018851Y011800D03*
X011851Y010800D03*
X013351Y014800D03*
X025351Y014800D03*
D17*
X025351Y013800D03*
X025351Y012800D03*
X025351Y011800D03*
X025351Y010800D03*
X025351Y009800D03*
X025351Y008800D03*
X025351Y007800D03*
X025351Y006800D03*
X025351Y005800D03*
X028351Y005800D03*
X028351Y006800D03*
X028351Y007800D03*
X028351Y008800D03*
X028351Y009800D03*
X028351Y010800D03*
X028351Y011800D03*
X028351Y012800D03*
X028351Y013800D03*
X028351Y014800D03*
X021851Y011800D03*
X021851Y010800D03*
X021851Y009800D03*
X021851Y008800D03*
X021851Y007800D03*
X021851Y006800D03*
X021851Y005800D03*
X018851Y005800D03*
X018851Y006800D03*
X018851Y007800D03*
X018851Y008800D03*
X018851Y009800D03*
X018851Y010800D03*
X016351Y010800D03*
X016351Y009800D03*
X016351Y008800D03*
X016351Y007800D03*
X016351Y006800D03*
X016351Y005800D03*
X016351Y004800D03*
X016351Y003800D03*
X016351Y002800D03*
X016351Y001800D03*
X013351Y001800D03*
X013351Y002800D03*
X013351Y003800D03*
X013351Y004800D03*
X013351Y005800D03*
X013351Y006800D03*
X013351Y007800D03*
X013351Y008800D03*
X013351Y009800D03*
X013351Y010800D03*
X013351Y011800D03*
X011851Y011800D03*
X011851Y012800D03*
X013351Y012800D03*
X013351Y013800D03*
X011851Y013800D03*
X008851Y013800D03*
X008851Y012800D03*
X008851Y011800D03*
X008851Y010800D03*
X016351Y011800D03*
X016351Y012800D03*
X016351Y013800D03*
X016351Y014800D03*
D18*
X010678Y018050D03*
X025275Y016800D03*
X025275Y003800D03*
D19*
X028424Y003800D03*
X028424Y016800D03*
X007529Y018050D03*
D20*
X021351Y014837D03*
X011351Y007261D03*
X011351Y005339D03*
D21*
X021351Y015625D03*
D22*
X008414Y020389D03*
X021351Y022534D03*
X025851Y022534D03*
X030351Y022534D03*
X034851Y022534D03*
X039351Y022534D03*
X043851Y022534D03*
X048351Y022534D03*
X007101Y005739D03*
D23*
X007101Y004361D03*
X021351Y020566D03*
X025851Y020566D03*
X030351Y020566D03*
X034851Y020566D03*
X039351Y020566D03*
X043851Y020566D03*
X048351Y020566D03*
X008414Y022357D03*
D24*
X002054Y012800D02*
X002056Y012850D01*
X002062Y012900D01*
X002072Y012949D01*
X002086Y012997D01*
X002103Y013044D01*
X002124Y013089D01*
X002149Y013133D01*
X002177Y013174D01*
X002209Y013213D01*
X002243Y013250D01*
X002280Y013284D01*
X002320Y013314D01*
X002362Y013341D01*
X002406Y013365D01*
X002452Y013386D01*
X002499Y013402D01*
X002547Y013415D01*
X002597Y013424D01*
X002646Y013429D01*
X002697Y013430D01*
X002747Y013427D01*
X002796Y013420D01*
X002845Y013409D01*
X002893Y013394D01*
X002939Y013376D01*
X002984Y013354D01*
X003027Y013328D01*
X003068Y013299D01*
X003107Y013267D01*
X003143Y013232D01*
X003175Y013194D01*
X003205Y013154D01*
X003232Y013111D01*
X003255Y013067D01*
X003274Y013021D01*
X003290Y012973D01*
X003302Y012924D01*
X003310Y012875D01*
X003314Y012825D01*
X003314Y012775D01*
X003310Y012725D01*
X003302Y012676D01*
X003290Y012627D01*
X003274Y012579D01*
X003255Y012533D01*
X003232Y012489D01*
X003205Y012446D01*
X003175Y012406D01*
X003143Y012368D01*
X003107Y012333D01*
X003068Y012301D01*
X003027Y012272D01*
X002984Y012246D01*
X002939Y012224D01*
X002893Y012206D01*
X002845Y012191D01*
X002796Y012180D01*
X002747Y012173D01*
X002697Y012170D01*
X002646Y012171D01*
X002597Y012176D01*
X002547Y012185D01*
X002499Y012198D01*
X002452Y012214D01*
X002406Y012235D01*
X002362Y012259D01*
X002320Y012286D01*
X002280Y012316D01*
X002243Y012350D01*
X002209Y012387D01*
X002177Y012426D01*
X002149Y012467D01*
X002124Y012511D01*
X002103Y012556D01*
X002086Y012603D01*
X002072Y012651D01*
X002062Y012700D01*
X002056Y012750D01*
X002054Y012800D01*
X002054Y008300D02*
X002056Y008350D01*
X002062Y008400D01*
X002072Y008449D01*
X002086Y008497D01*
X002103Y008544D01*
X002124Y008589D01*
X002149Y008633D01*
X002177Y008674D01*
X002209Y008713D01*
X002243Y008750D01*
X002280Y008784D01*
X002320Y008814D01*
X002362Y008841D01*
X002406Y008865D01*
X002452Y008886D01*
X002499Y008902D01*
X002547Y008915D01*
X002597Y008924D01*
X002646Y008929D01*
X002697Y008930D01*
X002747Y008927D01*
X002796Y008920D01*
X002845Y008909D01*
X002893Y008894D01*
X002939Y008876D01*
X002984Y008854D01*
X003027Y008828D01*
X003068Y008799D01*
X003107Y008767D01*
X003143Y008732D01*
X003175Y008694D01*
X003205Y008654D01*
X003232Y008611D01*
X003255Y008567D01*
X003274Y008521D01*
X003290Y008473D01*
X003302Y008424D01*
X003310Y008375D01*
X003314Y008325D01*
X003314Y008275D01*
X003310Y008225D01*
X003302Y008176D01*
X003290Y008127D01*
X003274Y008079D01*
X003255Y008033D01*
X003232Y007989D01*
X003205Y007946D01*
X003175Y007906D01*
X003143Y007868D01*
X003107Y007833D01*
X003068Y007801D01*
X003027Y007772D01*
X002984Y007746D01*
X002939Y007724D01*
X002893Y007706D01*
X002845Y007691D01*
X002796Y007680D01*
X002747Y007673D01*
X002697Y007670D01*
X002646Y007671D01*
X002597Y007676D01*
X002547Y007685D01*
X002499Y007698D01*
X002452Y007714D01*
X002406Y007735D01*
X002362Y007759D01*
X002320Y007786D01*
X002280Y007816D01*
X002243Y007850D01*
X002209Y007887D01*
X002177Y007926D01*
X002149Y007967D01*
X002124Y008011D01*
X002103Y008056D01*
X002086Y008103D01*
X002072Y008151D01*
X002062Y008200D01*
X002056Y008250D01*
X002054Y008300D01*
X035589Y017026D02*
X035591Y017071D01*
X035597Y017115D01*
X035606Y017159D01*
X035620Y017201D01*
X035637Y017242D01*
X035658Y017282D01*
X035682Y017320D01*
X035709Y017355D01*
X035739Y017388D01*
X035772Y017418D01*
X035807Y017445D01*
X035845Y017469D01*
X035885Y017490D01*
X035926Y017507D01*
X035968Y017521D01*
X036012Y017530D01*
X036056Y017536D01*
X036101Y017538D01*
X036146Y017536D01*
X036190Y017530D01*
X036234Y017521D01*
X036276Y017507D01*
X036317Y017490D01*
X036357Y017469D01*
X036395Y017445D01*
X036430Y017418D01*
X036463Y017388D01*
X036493Y017355D01*
X036520Y017320D01*
X036544Y017282D01*
X036565Y017242D01*
X036582Y017201D01*
X036596Y017159D01*
X036605Y017115D01*
X036611Y017071D01*
X036613Y017026D01*
X036611Y016981D01*
X036605Y016937D01*
X036596Y016893D01*
X036582Y016851D01*
X036565Y016810D01*
X036544Y016770D01*
X036520Y016732D01*
X036493Y016697D01*
X036463Y016664D01*
X036430Y016634D01*
X036395Y016607D01*
X036357Y016583D01*
X036317Y016562D01*
X036276Y016545D01*
X036234Y016531D01*
X036190Y016522D01*
X036146Y016516D01*
X036101Y016514D01*
X036056Y016516D01*
X036012Y016522D01*
X035968Y016531D01*
X035926Y016545D01*
X035885Y016562D01*
X035845Y016583D01*
X035807Y016607D01*
X035772Y016634D01*
X035739Y016664D01*
X035709Y016697D01*
X035682Y016732D01*
X035658Y016770D01*
X035637Y016810D01*
X035620Y016851D01*
X035606Y016893D01*
X035597Y016937D01*
X035591Y016981D01*
X035589Y017026D01*
X042589Y017026D02*
X042591Y017071D01*
X042597Y017115D01*
X042606Y017159D01*
X042620Y017201D01*
X042637Y017242D01*
X042658Y017282D01*
X042682Y017320D01*
X042709Y017355D01*
X042739Y017388D01*
X042772Y017418D01*
X042807Y017445D01*
X042845Y017469D01*
X042885Y017490D01*
X042926Y017507D01*
X042968Y017521D01*
X043012Y017530D01*
X043056Y017536D01*
X043101Y017538D01*
X043146Y017536D01*
X043190Y017530D01*
X043234Y017521D01*
X043276Y017507D01*
X043317Y017490D01*
X043357Y017469D01*
X043395Y017445D01*
X043430Y017418D01*
X043463Y017388D01*
X043493Y017355D01*
X043520Y017320D01*
X043544Y017282D01*
X043565Y017242D01*
X043582Y017201D01*
X043596Y017159D01*
X043605Y017115D01*
X043611Y017071D01*
X043613Y017026D01*
X043611Y016981D01*
X043605Y016937D01*
X043596Y016893D01*
X043582Y016851D01*
X043565Y016810D01*
X043544Y016770D01*
X043520Y016732D01*
X043493Y016697D01*
X043463Y016664D01*
X043430Y016634D01*
X043395Y016607D01*
X043357Y016583D01*
X043317Y016562D01*
X043276Y016545D01*
X043234Y016531D01*
X043190Y016522D01*
X043146Y016516D01*
X043101Y016514D01*
X043056Y016516D01*
X043012Y016522D01*
X042968Y016531D01*
X042926Y016545D01*
X042885Y016562D01*
X042845Y016583D01*
X042807Y016607D01*
X042772Y016634D01*
X042739Y016664D01*
X042709Y016697D01*
X042682Y016732D01*
X042658Y016770D01*
X042637Y016810D01*
X042620Y016851D01*
X042606Y016893D01*
X042597Y016937D01*
X042591Y016981D01*
X042589Y017026D01*
X042839Y013276D02*
X042841Y013321D01*
X042847Y013365D01*
X042856Y013409D01*
X042870Y013451D01*
X042887Y013492D01*
X042908Y013532D01*
X042932Y013570D01*
X042959Y013605D01*
X042989Y013638D01*
X043022Y013668D01*
X043057Y013695D01*
X043095Y013719D01*
X043135Y013740D01*
X043176Y013757D01*
X043218Y013771D01*
X043262Y013780D01*
X043306Y013786D01*
X043351Y013788D01*
X043396Y013786D01*
X043440Y013780D01*
X043484Y013771D01*
X043526Y013757D01*
X043567Y013740D01*
X043607Y013719D01*
X043645Y013695D01*
X043680Y013668D01*
X043713Y013638D01*
X043743Y013605D01*
X043770Y013570D01*
X043794Y013532D01*
X043815Y013492D01*
X043832Y013451D01*
X043846Y013409D01*
X043855Y013365D01*
X043861Y013321D01*
X043863Y013276D01*
X043861Y013231D01*
X043855Y013187D01*
X043846Y013143D01*
X043832Y013101D01*
X043815Y013060D01*
X043794Y013020D01*
X043770Y012982D01*
X043743Y012947D01*
X043713Y012914D01*
X043680Y012884D01*
X043645Y012857D01*
X043607Y012833D01*
X043567Y012812D01*
X043526Y012795D01*
X043484Y012781D01*
X043440Y012772D01*
X043396Y012766D01*
X043351Y012764D01*
X043306Y012766D01*
X043262Y012772D01*
X043218Y012781D01*
X043176Y012795D01*
X043135Y012812D01*
X043095Y012833D01*
X043057Y012857D01*
X043022Y012884D01*
X042989Y012914D01*
X042959Y012947D01*
X042932Y012982D01*
X042908Y013020D01*
X042887Y013060D01*
X042870Y013101D01*
X042856Y013143D01*
X042847Y013187D01*
X042841Y013231D01*
X042839Y013276D01*
X035839Y013276D02*
X035841Y013321D01*
X035847Y013365D01*
X035856Y013409D01*
X035870Y013451D01*
X035887Y013492D01*
X035908Y013532D01*
X035932Y013570D01*
X035959Y013605D01*
X035989Y013638D01*
X036022Y013668D01*
X036057Y013695D01*
X036095Y013719D01*
X036135Y013740D01*
X036176Y013757D01*
X036218Y013771D01*
X036262Y013780D01*
X036306Y013786D01*
X036351Y013788D01*
X036396Y013786D01*
X036440Y013780D01*
X036484Y013771D01*
X036526Y013757D01*
X036567Y013740D01*
X036607Y013719D01*
X036645Y013695D01*
X036680Y013668D01*
X036713Y013638D01*
X036743Y013605D01*
X036770Y013570D01*
X036794Y013532D01*
X036815Y013492D01*
X036832Y013451D01*
X036846Y013409D01*
X036855Y013365D01*
X036861Y013321D01*
X036863Y013276D01*
X036861Y013231D01*
X036855Y013187D01*
X036846Y013143D01*
X036832Y013101D01*
X036815Y013060D01*
X036794Y013020D01*
X036770Y012982D01*
X036743Y012947D01*
X036713Y012914D01*
X036680Y012884D01*
X036645Y012857D01*
X036607Y012833D01*
X036567Y012812D01*
X036526Y012795D01*
X036484Y012781D01*
X036440Y012772D01*
X036396Y012766D01*
X036351Y012764D01*
X036306Y012766D01*
X036262Y012772D01*
X036218Y012781D01*
X036176Y012795D01*
X036135Y012812D01*
X036095Y012833D01*
X036057Y012857D01*
X036022Y012884D01*
X035989Y012914D01*
X035959Y012947D01*
X035932Y012982D01*
X035908Y013020D01*
X035887Y013060D01*
X035870Y013101D01*
X035856Y013143D01*
X035847Y013187D01*
X035841Y013231D01*
X035839Y013276D01*
X035839Y009526D02*
X035841Y009571D01*
X035847Y009615D01*
X035856Y009659D01*
X035870Y009701D01*
X035887Y009742D01*
X035908Y009782D01*
X035932Y009820D01*
X035959Y009855D01*
X035989Y009888D01*
X036022Y009918D01*
X036057Y009945D01*
X036095Y009969D01*
X036135Y009990D01*
X036176Y010007D01*
X036218Y010021D01*
X036262Y010030D01*
X036306Y010036D01*
X036351Y010038D01*
X036396Y010036D01*
X036440Y010030D01*
X036484Y010021D01*
X036526Y010007D01*
X036567Y009990D01*
X036607Y009969D01*
X036645Y009945D01*
X036680Y009918D01*
X036713Y009888D01*
X036743Y009855D01*
X036770Y009820D01*
X036794Y009782D01*
X036815Y009742D01*
X036832Y009701D01*
X036846Y009659D01*
X036855Y009615D01*
X036861Y009571D01*
X036863Y009526D01*
X036861Y009481D01*
X036855Y009437D01*
X036846Y009393D01*
X036832Y009351D01*
X036815Y009310D01*
X036794Y009270D01*
X036770Y009232D01*
X036743Y009197D01*
X036713Y009164D01*
X036680Y009134D01*
X036645Y009107D01*
X036607Y009083D01*
X036567Y009062D01*
X036526Y009045D01*
X036484Y009031D01*
X036440Y009022D01*
X036396Y009016D01*
X036351Y009014D01*
X036306Y009016D01*
X036262Y009022D01*
X036218Y009031D01*
X036176Y009045D01*
X036135Y009062D01*
X036095Y009083D01*
X036057Y009107D01*
X036022Y009134D01*
X035989Y009164D01*
X035959Y009197D01*
X035932Y009232D01*
X035908Y009270D01*
X035887Y009310D01*
X035870Y009351D01*
X035856Y009393D01*
X035847Y009437D01*
X035841Y009481D01*
X035839Y009526D01*
X042839Y009526D02*
X042841Y009571D01*
X042847Y009615D01*
X042856Y009659D01*
X042870Y009701D01*
X042887Y009742D01*
X042908Y009782D01*
X042932Y009820D01*
X042959Y009855D01*
X042989Y009888D01*
X043022Y009918D01*
X043057Y009945D01*
X043095Y009969D01*
X043135Y009990D01*
X043176Y010007D01*
X043218Y010021D01*
X043262Y010030D01*
X043306Y010036D01*
X043351Y010038D01*
X043396Y010036D01*
X043440Y010030D01*
X043484Y010021D01*
X043526Y010007D01*
X043567Y009990D01*
X043607Y009969D01*
X043645Y009945D01*
X043680Y009918D01*
X043713Y009888D01*
X043743Y009855D01*
X043770Y009820D01*
X043794Y009782D01*
X043815Y009742D01*
X043832Y009701D01*
X043846Y009659D01*
X043855Y009615D01*
X043861Y009571D01*
X043863Y009526D01*
X043861Y009481D01*
X043855Y009437D01*
X043846Y009393D01*
X043832Y009351D01*
X043815Y009310D01*
X043794Y009270D01*
X043770Y009232D01*
X043743Y009197D01*
X043713Y009164D01*
X043680Y009134D01*
X043645Y009107D01*
X043607Y009083D01*
X043567Y009062D01*
X043526Y009045D01*
X043484Y009031D01*
X043440Y009022D01*
X043396Y009016D01*
X043351Y009014D01*
X043306Y009016D01*
X043262Y009022D01*
X043218Y009031D01*
X043176Y009045D01*
X043135Y009062D01*
X043095Y009083D01*
X043057Y009107D01*
X043022Y009134D01*
X042989Y009164D01*
X042959Y009197D01*
X042932Y009232D01*
X042908Y009270D01*
X042887Y009310D01*
X042870Y009351D01*
X042856Y009393D01*
X042847Y009437D01*
X042841Y009481D01*
X042839Y009526D01*
X043089Y005776D02*
X043091Y005821D01*
X043097Y005865D01*
X043106Y005909D01*
X043120Y005951D01*
X043137Y005992D01*
X043158Y006032D01*
X043182Y006070D01*
X043209Y006105D01*
X043239Y006138D01*
X043272Y006168D01*
X043307Y006195D01*
X043345Y006219D01*
X043385Y006240D01*
X043426Y006257D01*
X043468Y006271D01*
X043512Y006280D01*
X043556Y006286D01*
X043601Y006288D01*
X043646Y006286D01*
X043690Y006280D01*
X043734Y006271D01*
X043776Y006257D01*
X043817Y006240D01*
X043857Y006219D01*
X043895Y006195D01*
X043930Y006168D01*
X043963Y006138D01*
X043993Y006105D01*
X044020Y006070D01*
X044044Y006032D01*
X044065Y005992D01*
X044082Y005951D01*
X044096Y005909D01*
X044105Y005865D01*
X044111Y005821D01*
X044113Y005776D01*
X044111Y005731D01*
X044105Y005687D01*
X044096Y005643D01*
X044082Y005601D01*
X044065Y005560D01*
X044044Y005520D01*
X044020Y005482D01*
X043993Y005447D01*
X043963Y005414D01*
X043930Y005384D01*
X043895Y005357D01*
X043857Y005333D01*
X043817Y005312D01*
X043776Y005295D01*
X043734Y005281D01*
X043690Y005272D01*
X043646Y005266D01*
X043601Y005264D01*
X043556Y005266D01*
X043512Y005272D01*
X043468Y005281D01*
X043426Y005295D01*
X043385Y005312D01*
X043345Y005333D01*
X043307Y005357D01*
X043272Y005384D01*
X043239Y005414D01*
X043209Y005447D01*
X043182Y005482D01*
X043158Y005520D01*
X043137Y005560D01*
X043120Y005601D01*
X043106Y005643D01*
X043097Y005687D01*
X043091Y005731D01*
X043089Y005776D01*
X036089Y005776D02*
X036091Y005821D01*
X036097Y005865D01*
X036106Y005909D01*
X036120Y005951D01*
X036137Y005992D01*
X036158Y006032D01*
X036182Y006070D01*
X036209Y006105D01*
X036239Y006138D01*
X036272Y006168D01*
X036307Y006195D01*
X036345Y006219D01*
X036385Y006240D01*
X036426Y006257D01*
X036468Y006271D01*
X036512Y006280D01*
X036556Y006286D01*
X036601Y006288D01*
X036646Y006286D01*
X036690Y006280D01*
X036734Y006271D01*
X036776Y006257D01*
X036817Y006240D01*
X036857Y006219D01*
X036895Y006195D01*
X036930Y006168D01*
X036963Y006138D01*
X036993Y006105D01*
X037020Y006070D01*
X037044Y006032D01*
X037065Y005992D01*
X037082Y005951D01*
X037096Y005909D01*
X037105Y005865D01*
X037111Y005821D01*
X037113Y005776D01*
X037111Y005731D01*
X037105Y005687D01*
X037096Y005643D01*
X037082Y005601D01*
X037065Y005560D01*
X037044Y005520D01*
X037020Y005482D01*
X036993Y005447D01*
X036963Y005414D01*
X036930Y005384D01*
X036895Y005357D01*
X036857Y005333D01*
X036817Y005312D01*
X036776Y005295D01*
X036734Y005281D01*
X036690Y005272D01*
X036646Y005266D01*
X036601Y005264D01*
X036556Y005266D01*
X036512Y005272D01*
X036468Y005281D01*
X036426Y005295D01*
X036385Y005312D01*
X036345Y005333D01*
X036307Y005357D01*
X036272Y005384D01*
X036239Y005414D01*
X036209Y005447D01*
X036182Y005482D01*
X036158Y005520D01*
X036137Y005560D01*
X036120Y005601D01*
X036106Y005643D01*
X036097Y005687D01*
X036091Y005731D01*
X036089Y005776D01*
D25*
X036601Y005776D03*
X043601Y005776D03*
X043351Y009526D03*
X036351Y009526D03*
X036351Y013276D03*
X043351Y013276D03*
X043101Y017026D03*
X036101Y017026D03*
D26*
X029851Y011101D03*
X029851Y009999D03*
X023351Y007851D03*
X023351Y006749D03*
X024351Y006601D03*
X024351Y005499D03*
X009851Y005601D03*
X009851Y004499D03*
X009851Y006999D03*
X009851Y008101D03*
X007601Y010749D03*
X007601Y011851D03*
X007601Y012749D03*
X007601Y013851D03*
X019064Y017643D03*
X020314Y017889D03*
X021601Y017851D03*
X021601Y016749D03*
X020314Y016786D03*
X019064Y018745D03*
D27*
X018495Y014050D03*
X018495Y013550D03*
X018495Y013050D03*
D28*
X018601Y002050D03*
X019601Y002050D03*
X020601Y002050D03*
D29*
X021601Y002050D03*
D30*
X002601Y002300D03*
X002851Y017300D03*
X047351Y018300D03*
X047351Y002800D03*
D31*
X031653Y002300D03*
X030550Y002300D03*
X030550Y003300D03*
X031653Y003300D03*
X026903Y002300D03*
X025800Y002300D03*
X023903Y001800D03*
X022800Y001800D03*
X021903Y004050D03*
X020800Y004050D03*
X012153Y009300D03*
X011050Y009300D03*
X009653Y009300D03*
X008550Y009300D03*
X020300Y013300D03*
X021403Y013300D03*
X014403Y016800D03*
X013300Y016800D03*
X016800Y017300D03*
X017903Y017300D03*
X026300Y018050D03*
X027403Y018050D03*
X030550Y018300D03*
X031653Y018300D03*
X031653Y017300D03*
X030550Y017300D03*
D32*
X006351Y017330D03*
X006351Y014770D03*
D33*
X024101Y004300D03*
D34*
X024101Y003300D03*
D35*
X006184Y008800D03*
X005184Y009300D03*
X006184Y009800D03*
X005184Y010300D03*
X006184Y010800D03*
X005184Y011300D03*
X006184Y011800D03*
X005184Y012300D03*
D36*
X002684Y012800D03*
X002684Y008300D03*
D37*
X012601Y018550D03*
X012601Y020550D03*
D38*
X016601Y020824D03*
X017101Y020824D03*
X017601Y020824D03*
X018101Y020824D03*
X018101Y018776D03*
X017601Y018776D03*
X017101Y018776D03*
X016601Y018776D03*
D39*
X016101Y017550D03*
X016101Y017050D03*
X022101Y013550D03*
X022101Y013050D03*
X029601Y011800D03*
X030101Y011800D03*
X029851Y017050D03*
X029851Y017550D03*
X029851Y018050D03*
X029851Y018550D03*
X010351Y009550D03*
X010351Y009050D03*
X010101Y006300D03*
X009601Y006300D03*
X022601Y004300D03*
X022601Y003800D03*
X023351Y005300D03*
X023351Y005800D03*
X029851Y003550D03*
X029851Y003050D03*
X029851Y002550D03*
X029851Y002050D03*
M02*
