G75*
G70*
%OFA0B0*%
%FSLAX24Y24*%
%IPPOS*%
%LPD*%
%AMOC8*
5,1,8,0,0,1.08239X$1,22.5*
%
%ADD10R,0.0886X0.0886*%
%ADD11R,0.0825X0.0825*%
%ADD12C,0.0825*%
%ADD13C,0.0520*%
%ADD14R,0.0520X0.0520*%
%ADD15R,0.0540X0.0540*%
%ADD16C,0.0540*%
%ADD17R,0.0554X0.0554*%
%ADD18C,0.0554*%
%ADD19R,0.0397X0.0397*%
%ADD20C,0.0397*%
%ADD21R,0.0476X0.0476*%
%ADD22C,0.0476*%
%ADD23C,0.0417*%
%ADD24C,0.0600*%
%ADD25R,0.0600X0.0600*%
%ADD26C,0.1560*%
%ADD27R,0.0827X0.0827*%
%ADD28R,0.0675X0.0675*%
%ADD29C,0.0675*%
%ADD30C,0.0594*%
%ADD31C,0.0630*%
%ADD32C,0.0160*%
%ADD33R,0.0396X0.0396*%
D10*
X048601Y009550D03*
X048601Y011550D03*
X003601Y020300D03*
X003601Y022300D03*
D11*
X009601Y016050D03*
X023601Y017550D03*
X038601Y015800D03*
X045601Y016050D03*
X049101Y014050D03*
X038851Y012050D03*
X038851Y008300D03*
X045601Y004800D03*
X049101Y006800D03*
X039101Y004550D03*
D12*
X040101Y004550D03*
X041101Y004550D03*
X045601Y006800D03*
X049101Y004800D03*
X040851Y008300D03*
X039851Y008300D03*
X039851Y012050D03*
X040851Y012050D03*
X045601Y014050D03*
X049101Y016050D03*
X040601Y015800D03*
X039601Y015800D03*
X023601Y015550D03*
X023601Y016550D03*
X011601Y016050D03*
X010601Y016050D03*
X012601Y022550D03*
X018601Y022550D03*
X034351Y002300D03*
X040351Y002300D03*
D13*
X034851Y005300D03*
X034851Y006550D03*
X034851Y007800D03*
X034851Y012800D03*
X034851Y014050D03*
X034851Y015300D03*
X023351Y012800D03*
X017601Y007800D03*
D14*
X023351Y008800D03*
X017601Y011800D03*
X030851Y012800D03*
X030851Y014050D03*
X030851Y015300D03*
X030851Y007800D03*
X030851Y006550D03*
X030851Y005300D03*
D15*
X018851Y011800D03*
X011851Y010800D03*
X013351Y014800D03*
X025351Y014800D03*
D16*
X025351Y013800D03*
X025351Y012800D03*
X025351Y011800D03*
X025351Y010800D03*
X025351Y009800D03*
X025351Y008800D03*
X025351Y007800D03*
X025351Y006800D03*
X025351Y005800D03*
X028351Y005800D03*
X028351Y006800D03*
X028351Y007800D03*
X028351Y008800D03*
X028351Y009800D03*
X028351Y010800D03*
X028351Y011800D03*
X028351Y012800D03*
X028351Y013800D03*
X028351Y014800D03*
X021851Y011800D03*
X021851Y010800D03*
X021851Y009800D03*
X021851Y008800D03*
X021851Y007800D03*
X021851Y006800D03*
X021851Y005800D03*
X018851Y005800D03*
X018851Y006800D03*
X018851Y007800D03*
X018851Y008800D03*
X018851Y009800D03*
X018851Y010800D03*
X016351Y010800D03*
X016351Y009800D03*
X016351Y008800D03*
X016351Y007800D03*
X016351Y006800D03*
X016351Y005800D03*
X016351Y004800D03*
X016351Y003800D03*
X016351Y002800D03*
X016351Y001800D03*
X013351Y001800D03*
X013351Y002800D03*
X013351Y003800D03*
X013351Y004800D03*
X013351Y005800D03*
X013351Y006800D03*
X013351Y007800D03*
X013351Y008800D03*
X013351Y009800D03*
X013351Y010800D03*
X013351Y011800D03*
X011851Y011800D03*
X011851Y012800D03*
X013351Y012800D03*
X013351Y013800D03*
X011851Y013800D03*
X008851Y013800D03*
X008851Y012800D03*
X008851Y011800D03*
X008851Y010800D03*
X016351Y011800D03*
X016351Y012800D03*
X016351Y013800D03*
X016351Y014800D03*
D17*
X010678Y018050D03*
X025275Y016800D03*
X025275Y003800D03*
D18*
X028424Y003800D03*
X028424Y016800D03*
X007529Y018050D03*
D19*
X021351Y014837D03*
X011351Y007261D03*
X011351Y005339D03*
D20*
X021351Y015625D03*
D21*
X008414Y020389D03*
X021351Y022534D03*
X025851Y022534D03*
X030351Y022534D03*
X034851Y022534D03*
X039351Y022534D03*
X043851Y022534D03*
X048351Y022534D03*
X007101Y005739D03*
D22*
X007101Y004361D03*
X021351Y020566D03*
X025851Y020566D03*
X030351Y020566D03*
X034851Y020566D03*
X039351Y020566D03*
X043851Y020566D03*
X048351Y020566D03*
X008414Y022357D03*
D23*
X018495Y014050D03*
X018495Y013550D03*
X018495Y013050D03*
D24*
X018601Y002050D03*
X019601Y002050D03*
X020601Y002050D03*
D25*
X021601Y002050D03*
D26*
X002601Y002300D03*
X002851Y017300D03*
X047351Y018300D03*
X047351Y002800D03*
D27*
X006351Y014770D03*
X006351Y017330D03*
D28*
X024101Y004300D03*
D29*
X024101Y003300D03*
D30*
X006184Y008800D03*
X005184Y009300D03*
X006184Y009800D03*
X005184Y010300D03*
X006184Y010800D03*
X005184Y011300D03*
X006184Y011800D03*
X005184Y012300D03*
D31*
X012601Y018550D03*
X012601Y020550D03*
D32*
X002236Y001434D02*
X001717Y001434D01*
X001791Y001360D02*
X001411Y001740D01*
X001411Y022360D01*
X002291Y023240D01*
X049161Y023240D01*
X050101Y022300D01*
X050101Y002300D01*
X049161Y001360D01*
X001791Y001360D01*
X001980Y001593D02*
X001559Y001593D01*
X001411Y001751D02*
X001821Y001751D01*
X001804Y001768D02*
X002069Y001503D01*
X002414Y001360D01*
X002788Y001360D01*
X003134Y001503D01*
X003398Y001768D01*
X003541Y002113D01*
X003541Y002487D01*
X003398Y002832D01*
X003134Y003097D01*
X002788Y003240D01*
X002414Y003240D01*
X002069Y003097D01*
X001804Y002832D01*
X001661Y002487D01*
X001661Y002113D01*
X001804Y001768D01*
X001746Y001910D02*
X001411Y001910D01*
X001411Y002068D02*
X001680Y002068D01*
X001661Y002227D02*
X001411Y002227D01*
X001411Y002385D02*
X001661Y002385D01*
X001685Y002544D02*
X001411Y002544D01*
X001411Y002702D02*
X001750Y002702D01*
X001833Y002861D02*
X001411Y002861D01*
X001411Y003019D02*
X001991Y003019D01*
X002264Y003178D02*
X001411Y003178D01*
X001411Y003336D02*
X023604Y003336D01*
X023604Y003399D02*
X023604Y003201D01*
X023680Y003018D01*
X023820Y002878D01*
X024002Y002803D01*
X024200Y002803D01*
X024383Y002878D01*
X024523Y003018D01*
X024599Y003201D01*
X024599Y003399D01*
X024523Y003582D01*
X024383Y003722D01*
X024237Y003783D01*
X024463Y003783D01*
X024508Y003795D01*
X024549Y003818D01*
X024583Y003852D01*
X024607Y003893D01*
X024619Y003939D01*
X024619Y004267D01*
X024134Y004267D01*
X024134Y004333D01*
X024069Y004333D01*
X024069Y004817D01*
X023740Y004817D01*
X023694Y004805D01*
X023653Y004782D01*
X023620Y004748D01*
X023596Y004707D01*
X023584Y004661D01*
X023584Y004333D01*
X024069Y004333D01*
X024069Y004267D01*
X023584Y004267D01*
X023584Y003939D01*
X023596Y003893D01*
X023620Y003852D01*
X023653Y003818D01*
X023694Y003795D01*
X023740Y003783D01*
X023966Y003783D01*
X023820Y003722D01*
X023680Y003582D01*
X023604Y003399D01*
X023643Y003495D02*
X016654Y003495D01*
X016595Y003435D02*
X016716Y003556D01*
X016781Y003714D01*
X016781Y003886D01*
X016716Y004044D01*
X016595Y004165D01*
X016437Y004230D01*
X016266Y004230D01*
X016108Y004165D01*
X015987Y004044D01*
X015921Y003886D01*
X015921Y003714D01*
X015987Y003556D01*
X016108Y003435D01*
X016266Y003370D01*
X016437Y003370D01*
X016595Y003435D01*
X016437Y003230D02*
X016266Y003230D01*
X016108Y003165D01*
X015987Y003044D01*
X015921Y002886D01*
X015921Y002714D01*
X015987Y002556D01*
X016108Y002435D01*
X016266Y002370D01*
X016437Y002370D01*
X016595Y002435D01*
X016716Y002556D01*
X016781Y002714D01*
X016781Y002886D01*
X016716Y003044D01*
X016595Y003165D01*
X016437Y003230D01*
X016564Y003178D02*
X023614Y003178D01*
X023679Y003019D02*
X016726Y003019D01*
X016781Y002861D02*
X023862Y002861D01*
X024340Y002861D02*
X034209Y002861D01*
X034238Y002872D02*
X034027Y002785D01*
X033866Y002624D01*
X033779Y002414D01*
X033779Y002186D01*
X033866Y001976D01*
X034027Y001815D01*
X034238Y001728D01*
X034465Y001728D01*
X034676Y001815D01*
X034837Y001976D01*
X034924Y002186D01*
X034924Y002414D01*
X034837Y002624D01*
X034676Y002785D01*
X034465Y002872D01*
X034238Y002872D01*
X034494Y002861D02*
X040159Y002861D01*
X040124Y002849D02*
X040041Y002807D01*
X039965Y002752D01*
X039899Y002686D01*
X039845Y002611D01*
X039802Y002527D01*
X039773Y002439D01*
X039761Y002358D01*
X040294Y002358D01*
X040294Y002891D01*
X040213Y002878D01*
X040124Y002849D01*
X040294Y002861D02*
X040409Y002861D01*
X040409Y002891D02*
X040490Y002878D01*
X040579Y002849D01*
X040662Y002807D01*
X040737Y002752D01*
X040803Y002686D01*
X040858Y002611D01*
X040900Y002527D01*
X040929Y002439D01*
X040942Y002358D01*
X040409Y002358D01*
X040294Y002358D01*
X040294Y002242D01*
X040409Y002242D01*
X040409Y001709D01*
X040490Y001722D01*
X040579Y001751D01*
X049552Y001751D01*
X049394Y001593D02*
X021989Y001593D01*
X021971Y001582D02*
X022012Y001606D01*
X022045Y001639D01*
X022069Y001681D01*
X022081Y001726D01*
X022081Y002030D01*
X021621Y002030D01*
X021621Y001570D01*
X021925Y001570D01*
X021971Y001582D01*
X022081Y001751D02*
X034181Y001751D01*
X033932Y001910D02*
X022081Y001910D01*
X022081Y002070D02*
X022081Y002374D01*
X022069Y002419D01*
X022045Y002461D01*
X022012Y002494D01*
X021971Y002518D01*
X021925Y002530D01*
X021621Y002530D01*
X021621Y002070D01*
X021581Y002070D01*
X021581Y002030D01*
X021121Y002030D01*
X021121Y001726D01*
X021134Y001681D01*
X021157Y001639D01*
X021191Y001606D01*
X021232Y001582D01*
X021278Y001570D01*
X021581Y001570D01*
X021581Y002030D01*
X021621Y002030D01*
X021621Y002070D01*
X022081Y002070D01*
X022081Y002227D02*
X033779Y002227D01*
X033779Y002385D02*
X022078Y002385D01*
X021621Y002385D02*
X021581Y002385D01*
X021581Y002530D02*
X021278Y002530D01*
X021232Y002518D01*
X021191Y002494D01*
X021157Y002461D01*
X021134Y002419D01*
X021121Y002374D01*
X021121Y002070D01*
X021581Y002070D01*
X021581Y002530D01*
X021581Y002227D02*
X021621Y002227D01*
X021621Y002068D02*
X033828Y002068D01*
X034522Y001751D02*
X040124Y001751D01*
X040213Y001722D01*
X040294Y001709D01*
X040294Y002242D01*
X039761Y002242D01*
X039773Y002161D01*
X039802Y002073D01*
X039845Y001989D01*
X039899Y001914D01*
X039965Y001848D01*
X040041Y001793D01*
X040124Y001751D01*
X040294Y001751D02*
X040409Y001751D01*
X040409Y001910D02*
X040294Y001910D01*
X040294Y002068D02*
X040409Y002068D01*
X040409Y002227D02*
X040294Y002227D01*
X040409Y002242D02*
X040409Y002358D01*
X040409Y002891D01*
X040544Y002861D02*
X046411Y002861D01*
X046411Y002987D02*
X046411Y002613D01*
X046554Y002268D01*
X046819Y002003D01*
X047164Y001860D01*
X047538Y001860D01*
X047884Y002003D01*
X048148Y002268D01*
X048291Y002613D01*
X048291Y002987D01*
X048148Y003332D01*
X047884Y003597D01*
X047538Y003740D01*
X047164Y003740D01*
X046819Y003597D01*
X046554Y003332D01*
X046411Y002987D01*
X046425Y003019D02*
X024523Y003019D01*
X024589Y003178D02*
X046490Y003178D01*
X046558Y003336D02*
X024599Y003336D01*
X024559Y003495D02*
X024837Y003495D01*
X024837Y003457D02*
X024931Y003363D01*
X025618Y003363D01*
X025712Y003457D01*
X025712Y004143D01*
X025618Y004237D01*
X024931Y004237D01*
X024837Y004143D01*
X024837Y003457D01*
X024837Y003653D02*
X024452Y003653D01*
X024537Y003812D02*
X024837Y003812D01*
X024837Y003970D02*
X024619Y003970D01*
X024619Y004129D02*
X024837Y004129D01*
X024619Y004333D02*
X024134Y004333D01*
X024134Y004817D01*
X024463Y004817D01*
X024508Y004805D01*
X024549Y004782D01*
X024583Y004748D01*
X024607Y004707D01*
X024619Y004661D01*
X024619Y004333D01*
X024619Y004446D02*
X038529Y004446D01*
X038529Y004604D02*
X024619Y004604D01*
X024568Y004763D02*
X038529Y004763D01*
X038529Y004921D02*
X037128Y004921D01*
X037163Y004936D02*
X037442Y005215D01*
X037593Y005579D01*
X037593Y005974D01*
X037442Y006338D01*
X037163Y006617D01*
X036799Y006768D01*
X036404Y006768D01*
X036040Y006617D01*
X035761Y006338D01*
X035610Y005974D01*
X035610Y005579D01*
X035761Y005215D01*
X036040Y004936D01*
X036404Y004785D01*
X036799Y004785D01*
X037163Y004936D01*
X037307Y005080D02*
X038580Y005080D01*
X038623Y005122D02*
X038529Y005029D01*
X038529Y004071D01*
X038623Y003978D01*
X039580Y003978D01*
X039674Y004071D01*
X039674Y004168D01*
X039777Y004065D01*
X039988Y003978D01*
X040215Y003978D01*
X040426Y004065D01*
X040587Y004226D01*
X040601Y004261D01*
X040616Y004226D01*
X040777Y004065D01*
X040988Y003978D01*
X041215Y003978D01*
X041426Y004065D01*
X041587Y004226D01*
X041674Y004436D01*
X041674Y004664D01*
X041587Y004874D01*
X041426Y005035D01*
X041215Y005122D01*
X040988Y005122D01*
X040777Y005035D01*
X040616Y004874D01*
X040601Y004839D01*
X040587Y004874D01*
X040426Y005035D01*
X040215Y005122D01*
X039988Y005122D01*
X039777Y005035D01*
X039674Y004932D01*
X039674Y005029D01*
X039580Y005122D01*
X038623Y005122D01*
X037518Y005397D02*
X042685Y005397D01*
X042620Y005555D02*
X037583Y005555D01*
X037593Y005714D02*
X042610Y005714D01*
X042610Y005579D02*
X042761Y005215D01*
X043040Y004936D01*
X043404Y004785D01*
X043799Y004785D01*
X044163Y004936D01*
X044442Y005215D01*
X044593Y005579D01*
X044593Y005974D01*
X044442Y006338D01*
X044163Y006617D01*
X043799Y006768D01*
X043404Y006768D01*
X043040Y006617D01*
X042761Y006338D01*
X042610Y005974D01*
X042610Y005579D01*
X042610Y005872D02*
X037593Y005872D01*
X037570Y006031D02*
X042633Y006031D01*
X042699Y006189D02*
X037504Y006189D01*
X037433Y006348D02*
X042770Y006348D01*
X042928Y006506D02*
X037274Y006506D01*
X037049Y006665D02*
X043154Y006665D01*
X044049Y006665D02*
X045038Y006665D01*
X045029Y006686D02*
X045116Y006476D01*
X045277Y006315D01*
X045488Y006228D01*
X045715Y006228D01*
X045926Y006315D01*
X046087Y006476D01*
X046174Y006686D01*
X046174Y006914D01*
X046087Y007124D01*
X045926Y007285D01*
X045715Y007372D01*
X045488Y007372D01*
X045277Y007285D01*
X045116Y007124D01*
X045029Y006914D01*
X045029Y006686D01*
X045029Y006823D02*
X035172Y006823D01*
X035207Y006788D02*
X035089Y006906D01*
X034935Y006970D01*
X034768Y006970D01*
X034613Y006906D01*
X034495Y006788D01*
X034431Y006634D01*
X034431Y006466D01*
X034495Y006312D01*
X034613Y006194D01*
X034768Y006130D01*
X034935Y006130D01*
X035089Y006194D01*
X035207Y006312D01*
X035271Y006466D01*
X035271Y006634D01*
X035207Y006788D01*
X035259Y006665D02*
X036154Y006665D01*
X035928Y006506D02*
X035271Y006506D01*
X035222Y006348D02*
X035770Y006348D01*
X035699Y006189D02*
X035077Y006189D01*
X034625Y006189D02*
X031237Y006189D01*
X031271Y006224D02*
X031178Y006130D01*
X030525Y006130D01*
X030431Y006224D01*
X030431Y006876D01*
X030525Y006970D01*
X031178Y006970D01*
X031271Y006876D01*
X031271Y006224D01*
X031271Y006348D02*
X034481Y006348D01*
X034431Y006506D02*
X031271Y006506D01*
X031271Y006665D02*
X034444Y006665D01*
X034530Y006823D02*
X031271Y006823D01*
X030431Y006823D02*
X028781Y006823D01*
X028781Y006886D02*
X028781Y006714D01*
X028716Y006556D01*
X028595Y006435D01*
X028437Y006370D01*
X028266Y006370D01*
X028108Y006435D01*
X027987Y006556D01*
X027921Y006714D01*
X027921Y006886D01*
X027987Y007044D01*
X028108Y007165D01*
X028266Y007230D01*
X028437Y007230D01*
X028595Y007165D01*
X028716Y007044D01*
X028781Y006886D01*
X028742Y006982D02*
X045057Y006982D01*
X045132Y007140D02*
X028619Y007140D01*
X028437Y007370D02*
X028595Y007435D01*
X028716Y007556D01*
X028781Y007714D01*
X028781Y007886D01*
X028716Y008044D01*
X028595Y008165D01*
X028437Y008230D01*
X028266Y008230D01*
X028108Y008165D01*
X027987Y008044D01*
X027921Y007886D01*
X027921Y007714D01*
X027987Y007556D01*
X028108Y007435D01*
X028266Y007370D01*
X028437Y007370D01*
X028616Y007457D02*
X030448Y007457D01*
X030431Y007474D02*
X030525Y007380D01*
X031178Y007380D01*
X031271Y007474D01*
X031271Y008126D01*
X031178Y008220D01*
X030525Y008220D01*
X030431Y008126D01*
X030431Y007474D01*
X030431Y007616D02*
X028740Y007616D01*
X028781Y007774D02*
X030431Y007774D01*
X030431Y007933D02*
X028762Y007933D01*
X028668Y008091D02*
X030431Y008091D01*
X031271Y008091D02*
X034548Y008091D01*
X034495Y008038D02*
X034431Y007884D01*
X034431Y007716D01*
X034495Y007562D01*
X034613Y007444D01*
X034768Y007380D01*
X034935Y007380D01*
X035089Y007444D01*
X035207Y007562D01*
X035271Y007716D01*
X035271Y007884D01*
X035207Y008038D01*
X035089Y008156D01*
X034935Y008220D01*
X034768Y008220D01*
X034613Y008156D01*
X034495Y008038D01*
X034452Y007933D02*
X031271Y007933D01*
X031271Y007774D02*
X034431Y007774D01*
X034473Y007616D02*
X031271Y007616D01*
X031255Y007457D02*
X034600Y007457D01*
X035102Y007457D02*
X050101Y007457D01*
X050101Y007299D02*
X049654Y007299D01*
X049674Y007279D02*
X049580Y007372D01*
X048623Y007372D01*
X048529Y007279D01*
X048529Y006321D01*
X048623Y006228D01*
X049580Y006228D01*
X049674Y006321D01*
X049674Y007279D01*
X049674Y007140D02*
X050101Y007140D01*
X050101Y006982D02*
X049674Y006982D01*
X049674Y006823D02*
X050101Y006823D01*
X050101Y006665D02*
X049674Y006665D01*
X049674Y006506D02*
X050101Y006506D01*
X050101Y006348D02*
X049674Y006348D01*
X050101Y006189D02*
X044504Y006189D01*
X044570Y006031D02*
X050101Y006031D01*
X050101Y005872D02*
X044593Y005872D01*
X044593Y005714D02*
X050101Y005714D01*
X050101Y005555D02*
X044583Y005555D01*
X044518Y005397D02*
X050101Y005397D01*
X050101Y005238D02*
X049501Y005238D01*
X049487Y005252D02*
X049412Y005307D01*
X049329Y005349D01*
X049240Y005378D01*
X049159Y005391D01*
X049159Y004858D01*
X049044Y004858D01*
X049044Y005391D01*
X048963Y005378D01*
X048874Y005349D01*
X048791Y005307D01*
X048715Y005252D01*
X048649Y005186D01*
X048595Y005111D01*
X048552Y005027D01*
X048523Y004939D01*
X048511Y004858D01*
X049044Y004858D01*
X049044Y004742D01*
X049159Y004742D01*
X049159Y004209D01*
X049240Y004222D01*
X049329Y004251D01*
X049412Y004293D01*
X049487Y004348D01*
X049553Y004414D01*
X049608Y004489D01*
X049650Y004573D01*
X049679Y004661D01*
X049692Y004742D01*
X049159Y004742D01*
X049159Y004858D01*
X049692Y004858D01*
X049679Y004939D01*
X049650Y005027D01*
X049608Y005111D01*
X049553Y005186D01*
X049487Y005252D01*
X049624Y005080D02*
X050101Y005080D01*
X050101Y004921D02*
X049682Y004921D01*
X049661Y004604D02*
X050101Y004604D01*
X050101Y004446D02*
X049576Y004446D01*
X049400Y004287D02*
X050101Y004287D01*
X050101Y004129D02*
X041490Y004129D01*
X041612Y004287D02*
X045063Y004287D01*
X045029Y004321D02*
X045123Y004228D01*
X046080Y004228D01*
X046174Y004321D01*
X046174Y005279D01*
X046080Y005372D01*
X045123Y005372D01*
X045029Y005279D01*
X045029Y004321D01*
X045029Y004446D02*
X041674Y004446D01*
X041674Y004604D02*
X045029Y004604D01*
X045029Y004763D02*
X041633Y004763D01*
X041540Y004921D02*
X043075Y004921D01*
X042896Y005080D02*
X041319Y005080D01*
X040884Y005080D02*
X040319Y005080D01*
X040540Y004921D02*
X040663Y004921D01*
X039884Y005080D02*
X039623Y005080D01*
X038529Y004287D02*
X024134Y004287D01*
X024069Y004287D02*
X007513Y004287D01*
X007509Y004263D02*
X007519Y004328D01*
X007519Y004361D01*
X007101Y004361D01*
X006684Y004361D01*
X006684Y004328D01*
X006694Y004263D01*
X006714Y004201D01*
X006744Y004142D01*
X006783Y004089D01*
X006829Y004042D01*
X006882Y004004D01*
X006941Y003974D01*
X007004Y003954D01*
X007068Y003943D01*
X007101Y003943D01*
X007101Y004361D01*
X007101Y004361D01*
X006684Y004361D01*
X006684Y004394D01*
X006694Y004459D01*
X006714Y004521D01*
X006744Y004580D01*
X006783Y004633D01*
X006829Y004680D01*
X006882Y004718D01*
X006941Y004748D01*
X007004Y004769D01*
X007068Y004779D01*
X007101Y004779D01*
X007101Y004361D01*
X007101Y004361D01*
X007101Y004361D01*
X007101Y003943D01*
X007134Y003943D01*
X007199Y003954D01*
X007262Y003974D01*
X007320Y004004D01*
X007374Y004042D01*
X007420Y004089D01*
X007459Y004142D01*
X007489Y004201D01*
X007509Y004263D01*
X007519Y004361D02*
X007519Y004394D01*
X007509Y004459D01*
X007489Y004521D01*
X007459Y004580D01*
X007420Y004633D01*
X007374Y004680D01*
X007320Y004718D01*
X007262Y004748D01*
X007199Y004769D01*
X007134Y004779D01*
X007101Y004779D01*
X007101Y004361D01*
X007519Y004361D01*
X007511Y004446D02*
X013098Y004446D01*
X013108Y004435D02*
X013266Y004370D01*
X013437Y004370D01*
X013595Y004435D01*
X013716Y004556D01*
X013781Y004714D01*
X013781Y004886D01*
X013716Y005044D01*
X013595Y005165D01*
X013437Y005230D01*
X013266Y005230D01*
X013108Y005165D01*
X012987Y005044D01*
X012921Y004886D01*
X012921Y004714D01*
X012987Y004556D01*
X013108Y004435D01*
X012967Y004604D02*
X007441Y004604D01*
X007218Y004763D02*
X012921Y004763D01*
X012936Y004921D02*
X001411Y004921D01*
X001411Y004763D02*
X006985Y004763D01*
X007101Y004763D02*
X007101Y004763D01*
X007101Y004604D02*
X007101Y004604D01*
X007101Y004446D02*
X007101Y004446D01*
X007101Y004361D02*
X007101Y004361D01*
X007101Y004287D02*
X007101Y004287D01*
X007101Y004129D02*
X007101Y004129D01*
X007101Y003970D02*
X007101Y003970D01*
X006953Y003970D02*
X001411Y003970D01*
X001411Y003812D02*
X012921Y003812D01*
X012921Y003886D02*
X012921Y003714D01*
X012987Y003556D01*
X013108Y003435D01*
X013266Y003370D01*
X013437Y003370D01*
X013595Y003435D01*
X013716Y003556D01*
X013781Y003714D01*
X013781Y003886D01*
X013716Y004044D01*
X013595Y004165D01*
X013437Y004230D01*
X013266Y004230D01*
X013108Y004165D01*
X012987Y004044D01*
X012921Y003886D01*
X012956Y003970D02*
X007250Y003970D01*
X007449Y004129D02*
X013072Y004129D01*
X013631Y004129D02*
X016072Y004129D01*
X015956Y003970D02*
X013746Y003970D01*
X013781Y003812D02*
X015921Y003812D01*
X015947Y003653D02*
X013756Y003653D01*
X013654Y003495D02*
X016049Y003495D01*
X016139Y003178D02*
X013564Y003178D01*
X013595Y003165D02*
X013437Y003230D01*
X013266Y003230D01*
X013108Y003165D01*
X012987Y003044D01*
X012921Y002886D01*
X012921Y002714D01*
X012987Y002556D01*
X013108Y002435D01*
X013266Y002370D01*
X013437Y002370D01*
X013595Y002435D01*
X013716Y002556D01*
X013781Y002714D01*
X013781Y002886D01*
X013716Y003044D01*
X013595Y003165D01*
X013726Y003019D02*
X015977Y003019D01*
X015921Y002861D02*
X013781Y002861D01*
X013776Y002702D02*
X015927Y002702D01*
X016000Y002544D02*
X013703Y002544D01*
X013473Y002385D02*
X016230Y002385D01*
X016266Y002230D02*
X016108Y002165D01*
X015987Y002044D01*
X015921Y001886D01*
X015921Y001714D01*
X015987Y001556D01*
X016108Y001435D01*
X016266Y001370D01*
X016437Y001370D01*
X016595Y001435D01*
X016716Y001556D01*
X016781Y001714D01*
X016781Y001886D01*
X016716Y002044D01*
X016595Y002165D01*
X016437Y002230D01*
X016266Y002230D01*
X016257Y002227D02*
X013445Y002227D01*
X013437Y002230D02*
X013266Y002230D01*
X013108Y002165D01*
X012987Y002044D01*
X012921Y001886D01*
X012921Y001714D01*
X012987Y001556D01*
X013108Y001435D01*
X013266Y001370D01*
X013437Y001370D01*
X013595Y001435D01*
X013716Y001556D01*
X013781Y001714D01*
X013781Y001886D01*
X013716Y002044D01*
X013595Y002165D01*
X013437Y002230D01*
X013257Y002227D02*
X003541Y002227D01*
X003541Y002385D02*
X013230Y002385D01*
X013000Y002544D02*
X003518Y002544D01*
X003452Y002702D02*
X012927Y002702D01*
X012921Y002861D02*
X003370Y002861D01*
X003212Y003019D02*
X012977Y003019D01*
X013139Y003178D02*
X002939Y003178D01*
X001411Y003495D02*
X013049Y003495D01*
X012947Y003653D02*
X001411Y003653D01*
X001411Y004129D02*
X006754Y004129D01*
X006690Y004287D02*
X001411Y004287D01*
X001411Y004446D02*
X006692Y004446D01*
X006761Y004604D02*
X001411Y004604D01*
X001411Y005080D02*
X010993Y005080D01*
X010993Y005075D02*
X011087Y004981D01*
X011616Y004981D01*
X011710Y005075D01*
X011710Y005604D01*
X011616Y005698D01*
X011087Y005698D01*
X010993Y005604D01*
X010993Y005075D01*
X010993Y005238D02*
X001411Y005238D01*
X001411Y005397D02*
X006742Y005397D01*
X006704Y005435D02*
X006797Y005341D01*
X007405Y005341D01*
X007499Y005435D01*
X007499Y006043D01*
X007405Y006137D01*
X006797Y006137D01*
X006704Y006043D01*
X006704Y005435D01*
X006704Y005555D02*
X001411Y005555D01*
X001411Y005714D02*
X006704Y005714D01*
X006704Y005872D02*
X001411Y005872D01*
X001411Y006031D02*
X006704Y006031D01*
X007499Y006031D02*
X012981Y006031D01*
X012987Y006044D02*
X012921Y005886D01*
X012921Y005714D01*
X012987Y005556D01*
X013108Y005435D01*
X013266Y005370D01*
X013437Y005370D01*
X013595Y005435D01*
X013716Y005556D01*
X013781Y005714D01*
X015922Y005714D01*
X015921Y005714D02*
X015987Y005556D01*
X016108Y005435D01*
X016266Y005370D01*
X016437Y005370D01*
X016595Y005435D01*
X016716Y005556D01*
X016781Y005714D01*
X018409Y005714D01*
X018412Y005695D02*
X018434Y005627D01*
X018467Y005564D01*
X018508Y005507D01*
X018558Y005457D01*
X018616Y005415D01*
X018679Y005383D01*
X018746Y005361D01*
X018816Y005350D01*
X018846Y005350D01*
X018846Y005795D01*
X018401Y005795D01*
X018401Y005765D01*
X018412Y005695D01*
X018401Y005805D02*
X018846Y005805D01*
X018846Y005795D01*
X018856Y005795D01*
X018856Y005350D01*
X018887Y005350D01*
X018957Y005361D01*
X019024Y005383D01*
X019087Y005415D01*
X019145Y005457D01*
X019195Y005507D01*
X019236Y005564D01*
X019268Y005627D01*
X019290Y005695D01*
X019301Y005765D01*
X019301Y005795D01*
X018856Y005795D01*
X018856Y005805D01*
X018846Y005805D01*
X018846Y006250D01*
X018816Y006250D01*
X018746Y006239D01*
X018679Y006217D01*
X018616Y006185D01*
X018558Y006143D01*
X018508Y006093D01*
X018467Y006036D01*
X018434Y005973D01*
X018412Y005905D01*
X018401Y005835D01*
X018401Y005805D01*
X018407Y005872D02*
X016781Y005872D01*
X016781Y005886D02*
X016716Y006044D01*
X016595Y006165D01*
X016437Y006230D01*
X016266Y006230D01*
X016108Y006165D01*
X015987Y006044D01*
X015921Y005886D01*
X015921Y005714D01*
X015921Y005872D02*
X013781Y005872D01*
X013781Y005886D02*
X013716Y006044D01*
X013595Y006165D01*
X013437Y006230D01*
X013266Y006230D01*
X013108Y006165D01*
X012987Y006044D01*
X012921Y005872D02*
X007499Y005872D01*
X007499Y005714D02*
X012922Y005714D01*
X012988Y005555D02*
X011710Y005555D01*
X011710Y005397D02*
X013202Y005397D01*
X013501Y005397D02*
X016202Y005397D01*
X016266Y005230D02*
X016108Y005165D01*
X015987Y005044D01*
X015921Y004886D01*
X015921Y004714D01*
X015987Y004556D01*
X016108Y004435D01*
X016266Y004370D01*
X016437Y004370D01*
X016595Y004435D01*
X016716Y004556D01*
X016781Y004714D01*
X016781Y004886D01*
X016716Y005044D01*
X016595Y005165D01*
X016437Y005230D01*
X016266Y005230D01*
X016023Y005080D02*
X013680Y005080D01*
X013767Y004921D02*
X015936Y004921D01*
X015921Y004763D02*
X013781Y004763D01*
X013736Y004604D02*
X015967Y004604D01*
X016098Y004446D02*
X013605Y004446D01*
X013023Y005080D02*
X011710Y005080D01*
X011710Y005238D02*
X030431Y005238D01*
X030431Y005080D02*
X016680Y005080D01*
X016767Y004921D02*
X030484Y004921D01*
X030525Y004880D02*
X031178Y004880D01*
X031271Y004974D01*
X031271Y005626D01*
X031178Y005720D01*
X030525Y005720D01*
X030431Y005626D01*
X030431Y004974D01*
X030525Y004880D01*
X031219Y004921D02*
X034669Y004921D01*
X034613Y004944D02*
X034768Y004880D01*
X034935Y004880D01*
X035089Y004944D01*
X035207Y005062D01*
X035271Y005216D01*
X035271Y005384D01*
X035207Y005538D01*
X035089Y005656D01*
X034935Y005720D01*
X034768Y005720D01*
X034613Y005656D01*
X034495Y005538D01*
X034431Y005384D01*
X034431Y005216D01*
X034495Y005062D01*
X034613Y004944D01*
X034488Y005080D02*
X031271Y005080D01*
X031271Y005238D02*
X034431Y005238D01*
X034437Y005397D02*
X031271Y005397D01*
X031271Y005555D02*
X034512Y005555D01*
X034752Y005714D02*
X031184Y005714D01*
X030519Y005714D02*
X028781Y005714D01*
X028716Y005556D01*
X028595Y005435D01*
X028437Y005370D01*
X028266Y005370D01*
X028108Y005435D01*
X027987Y005556D01*
X027921Y005714D01*
X027921Y005886D01*
X027987Y006044D01*
X028108Y006165D01*
X028266Y006230D01*
X028437Y006230D01*
X028595Y006165D01*
X028716Y006044D01*
X028781Y005886D01*
X028781Y005714D01*
X028781Y005872D02*
X035610Y005872D01*
X035610Y005714D02*
X034951Y005714D01*
X035190Y005555D02*
X035620Y005555D01*
X035685Y005397D02*
X035266Y005397D01*
X035271Y005238D02*
X035751Y005238D01*
X035896Y005080D02*
X035215Y005080D01*
X035034Y004921D02*
X036075Y004921D01*
X037452Y005238D02*
X042751Y005238D01*
X044128Y004921D02*
X045029Y004921D01*
X045029Y005080D02*
X044307Y005080D01*
X044452Y005238D02*
X045029Y005238D01*
X046174Y005238D02*
X048701Y005238D01*
X048579Y005080D02*
X046174Y005080D01*
X046174Y004921D02*
X048521Y004921D01*
X048511Y004742D02*
X048523Y004661D01*
X048552Y004573D01*
X048595Y004489D01*
X048649Y004414D01*
X048715Y004348D01*
X048791Y004293D01*
X048874Y004251D01*
X048963Y004222D01*
X049044Y004209D01*
X049044Y004742D01*
X048511Y004742D01*
X048542Y004604D02*
X046174Y004604D01*
X046174Y004446D02*
X048627Y004446D01*
X048803Y004287D02*
X046140Y004287D01*
X046174Y004763D02*
X049044Y004763D01*
X049159Y004763D02*
X050101Y004763D01*
X049159Y004921D02*
X049044Y004921D01*
X049044Y005080D02*
X049159Y005080D01*
X049159Y005238D02*
X049044Y005238D01*
X049044Y004604D02*
X049159Y004604D01*
X049159Y004446D02*
X049044Y004446D01*
X049044Y004287D02*
X049159Y004287D01*
X050101Y003970D02*
X028827Y003970D01*
X028795Y004048D02*
X028672Y004171D01*
X028511Y004237D01*
X028337Y004237D01*
X028177Y004171D01*
X028054Y004048D01*
X027987Y003887D01*
X027987Y003713D01*
X028054Y003552D01*
X028177Y003429D01*
X028337Y003363D01*
X028511Y003363D01*
X028672Y003429D01*
X028795Y003552D01*
X028861Y003713D01*
X028861Y003887D01*
X028795Y004048D01*
X028714Y004129D02*
X038529Y004129D01*
X039674Y004129D02*
X039713Y004129D01*
X040490Y004129D02*
X040713Y004129D01*
X040787Y002702D02*
X046411Y002702D01*
X046440Y002544D02*
X040892Y002544D01*
X040938Y002385D02*
X046506Y002385D01*
X046596Y002227D02*
X040940Y002227D01*
X040942Y002242D02*
X040409Y002242D01*
X040409Y002385D02*
X040294Y002385D01*
X040294Y002544D02*
X040409Y002544D01*
X040409Y002702D02*
X040294Y002702D01*
X039915Y002702D02*
X034759Y002702D01*
X034870Y002544D02*
X039810Y002544D01*
X039765Y002385D02*
X034924Y002385D01*
X034924Y002227D02*
X039763Y002227D01*
X039805Y002068D02*
X034875Y002068D01*
X034771Y001910D02*
X039904Y001910D01*
X040579Y001751D02*
X040662Y001793D01*
X040737Y001848D01*
X040803Y001914D01*
X040858Y001989D01*
X040900Y002073D01*
X040929Y002161D01*
X040942Y002242D01*
X040898Y002068D02*
X046754Y002068D01*
X047045Y001910D02*
X040799Y001910D01*
X046717Y003495D02*
X028737Y003495D01*
X028837Y003653D02*
X046954Y003653D01*
X047748Y003653D02*
X050101Y003653D01*
X050101Y003495D02*
X047986Y003495D01*
X048145Y003336D02*
X050101Y003336D01*
X050101Y003178D02*
X048212Y003178D01*
X048278Y003019D02*
X050101Y003019D01*
X050101Y002861D02*
X048291Y002861D01*
X048291Y002702D02*
X050101Y002702D01*
X050101Y002544D02*
X048263Y002544D01*
X048197Y002385D02*
X050101Y002385D01*
X050028Y002227D02*
X048107Y002227D01*
X047949Y002068D02*
X049869Y002068D01*
X049711Y001910D02*
X047658Y001910D01*
X049235Y001434D02*
X016591Y001434D01*
X016731Y001593D02*
X018504Y001593D01*
X018510Y001590D02*
X018693Y001590D01*
X018862Y001660D01*
X018991Y001789D01*
X019061Y001958D01*
X019061Y002141D01*
X018991Y002311D01*
X018862Y002440D01*
X018693Y002510D01*
X018510Y002510D01*
X018341Y002440D01*
X018211Y002311D01*
X018141Y002141D01*
X018141Y001958D01*
X018211Y001789D01*
X018341Y001660D01*
X018510Y001590D01*
X018699Y001593D02*
X019504Y001593D01*
X019510Y001590D02*
X019693Y001590D01*
X019862Y001660D01*
X019991Y001789D01*
X020061Y001958D01*
X020061Y002141D01*
X019991Y002311D01*
X019862Y002440D01*
X019693Y002510D01*
X019510Y002510D01*
X019341Y002440D01*
X019211Y002311D01*
X019141Y002141D01*
X019141Y001958D01*
X019211Y001789D01*
X019341Y001660D01*
X019510Y001590D01*
X019699Y001593D02*
X020504Y001593D01*
X020510Y001590D02*
X020693Y001590D01*
X020862Y001660D01*
X020991Y001789D01*
X021061Y001958D01*
X021061Y002141D01*
X020991Y002311D01*
X020862Y002440D01*
X020693Y002510D01*
X020510Y002510D01*
X020341Y002440D01*
X020211Y002311D01*
X020141Y002141D01*
X020141Y001958D01*
X020211Y001789D01*
X020341Y001660D01*
X020510Y001590D01*
X020699Y001593D02*
X021214Y001593D01*
X021121Y001751D02*
X020953Y001751D01*
X021041Y001910D02*
X021121Y001910D01*
X021061Y002068D02*
X021581Y002068D01*
X021581Y001910D02*
X021621Y001910D01*
X021621Y001751D02*
X021581Y001751D01*
X021581Y001593D02*
X021621Y001593D01*
X021121Y002227D02*
X021026Y002227D01*
X021124Y002385D02*
X020917Y002385D01*
X020286Y002385D02*
X019917Y002385D01*
X020026Y002227D02*
X020177Y002227D01*
X020141Y002068D02*
X020061Y002068D01*
X020041Y001910D02*
X020162Y001910D01*
X020250Y001751D02*
X019953Y001751D01*
X019250Y001751D02*
X018953Y001751D01*
X019041Y001910D02*
X019162Y001910D01*
X019141Y002068D02*
X019061Y002068D01*
X019026Y002227D02*
X019177Y002227D01*
X019286Y002385D02*
X018917Y002385D01*
X018286Y002385D02*
X016473Y002385D01*
X016445Y002227D02*
X018177Y002227D01*
X018141Y002068D02*
X016691Y002068D01*
X016771Y001910D02*
X018162Y001910D01*
X018250Y001751D02*
X016781Y001751D01*
X016111Y001434D02*
X013591Y001434D01*
X013731Y001593D02*
X015972Y001593D01*
X015921Y001751D02*
X013781Y001751D01*
X013771Y001910D02*
X015931Y001910D01*
X016011Y002068D02*
X013691Y002068D01*
X013011Y002068D02*
X003523Y002068D01*
X003457Y001910D02*
X012931Y001910D01*
X012921Y001751D02*
X003382Y001751D01*
X003223Y001593D02*
X012972Y001593D01*
X013111Y001434D02*
X002967Y001434D01*
X007461Y005397D02*
X010993Y005397D01*
X010993Y005555D02*
X007499Y005555D01*
X010993Y006996D02*
X011087Y006902D01*
X011616Y006902D01*
X011710Y006996D01*
X011710Y007525D01*
X011616Y007619D01*
X011087Y007619D01*
X010993Y007525D01*
X010993Y006996D01*
X011007Y006982D02*
X001411Y006982D01*
X001411Y007140D02*
X010993Y007140D01*
X010993Y007299D02*
X003169Y007299D01*
X003112Y007266D02*
X003366Y007412D01*
X003572Y007618D01*
X003718Y007872D01*
X003794Y008154D01*
X003794Y008446D01*
X003718Y008728D01*
X003572Y008982D01*
X003366Y009188D01*
X003112Y009334D01*
X002830Y009410D01*
X002538Y009410D01*
X002256Y009334D01*
X002003Y009188D01*
X001796Y008982D01*
X001650Y008728D01*
X001574Y008446D01*
X001574Y008154D01*
X001650Y007872D01*
X001796Y007618D01*
X002003Y007412D01*
X002256Y007266D01*
X002538Y007190D01*
X002830Y007190D01*
X003112Y007266D01*
X003411Y007457D02*
X010993Y007457D01*
X011083Y007616D02*
X003569Y007616D01*
X003662Y007774D02*
X012901Y007774D01*
X012901Y007765D02*
X012912Y007695D01*
X012934Y007627D01*
X012967Y007564D01*
X013008Y007507D01*
X013058Y007457D01*
X011710Y007457D01*
X011710Y007299D02*
X045309Y007299D01*
X045894Y007299D02*
X048549Y007299D01*
X048529Y007140D02*
X046071Y007140D01*
X046146Y006982D02*
X048529Y006982D01*
X048529Y006823D02*
X046174Y006823D01*
X046165Y006665D02*
X048529Y006665D01*
X048529Y006506D02*
X046099Y006506D01*
X045959Y006348D02*
X048529Y006348D01*
X050101Y007616D02*
X035230Y007616D01*
X035271Y007774D02*
X038326Y007774D01*
X038373Y007728D02*
X039330Y007728D01*
X039424Y007821D01*
X039424Y007918D01*
X039527Y007815D01*
X039738Y007728D01*
X039965Y007728D01*
X040176Y007815D01*
X040337Y007976D01*
X040343Y007992D01*
X040345Y007989D01*
X040399Y007914D01*
X040465Y007848D01*
X040541Y007793D01*
X040624Y007751D01*
X040713Y007722D01*
X040794Y007709D01*
X040794Y008242D01*
X040909Y008242D01*
X040909Y007709D01*
X040990Y007722D01*
X041079Y007751D01*
X041162Y007793D01*
X041237Y007848D01*
X041303Y007914D01*
X041358Y007989D01*
X041400Y008073D01*
X041429Y008161D01*
X041442Y008242D01*
X040909Y008242D01*
X040909Y008358D01*
X040794Y008358D01*
X040794Y008891D01*
X040713Y008878D01*
X040624Y008849D01*
X040541Y008807D01*
X040465Y008752D01*
X040399Y008686D01*
X040345Y008611D01*
X040343Y008608D01*
X040337Y008624D01*
X040176Y008785D01*
X039965Y008872D01*
X039738Y008872D01*
X039527Y008785D01*
X039424Y008682D01*
X039424Y008779D01*
X039330Y008872D01*
X038373Y008872D01*
X038279Y008779D01*
X038279Y007821D01*
X038373Y007728D01*
X038279Y007933D02*
X035251Y007933D01*
X035154Y008091D02*
X038279Y008091D01*
X038279Y008250D02*
X018890Y008250D01*
X018887Y008250D02*
X018856Y008250D01*
X018856Y007805D01*
X018846Y007805D01*
X018846Y007795D01*
X018401Y007795D01*
X018401Y007765D01*
X018412Y007695D01*
X018434Y007627D01*
X018467Y007564D01*
X018508Y007507D01*
X018558Y007457D01*
X017852Y007457D01*
X017839Y007444D02*
X017957Y007562D01*
X018021Y007716D01*
X018021Y007884D01*
X017957Y008038D01*
X017839Y008156D01*
X017685Y008220D01*
X017518Y008220D01*
X017363Y008156D01*
X017245Y008038D01*
X017181Y007884D01*
X017181Y007716D01*
X017245Y007562D01*
X017363Y007444D01*
X017518Y007380D01*
X017685Y007380D01*
X017839Y007444D01*
X017980Y007616D02*
X018440Y007616D01*
X018401Y007774D02*
X018021Y007774D01*
X018001Y007933D02*
X018421Y007933D01*
X018412Y007905D02*
X018434Y007973D01*
X018467Y008036D01*
X018508Y008093D01*
X018558Y008143D01*
X018616Y008185D01*
X018679Y008217D01*
X018746Y008239D01*
X018816Y008250D01*
X018846Y008250D01*
X018846Y007805D01*
X018401Y007805D01*
X018401Y007835D01*
X018412Y007905D01*
X018507Y008091D02*
X017904Y008091D01*
X017298Y008091D02*
X016668Y008091D01*
X016716Y008044D02*
X016595Y008165D01*
X016437Y008230D01*
X016266Y008230D01*
X016108Y008165D01*
X015987Y008044D01*
X015921Y007886D01*
X015921Y007714D01*
X015987Y007556D01*
X016108Y007435D01*
X016266Y007370D01*
X016437Y007370D01*
X016595Y007435D01*
X016716Y007556D01*
X016781Y007714D01*
X016781Y007886D01*
X016716Y008044D01*
X016762Y007933D02*
X017202Y007933D01*
X017181Y007774D02*
X016781Y007774D01*
X016740Y007616D02*
X017223Y007616D01*
X017350Y007457D02*
X016616Y007457D01*
X016437Y007230D02*
X016266Y007230D01*
X016108Y007165D01*
X015987Y007044D01*
X015921Y006886D01*
X015921Y006714D01*
X015987Y006556D01*
X016108Y006435D01*
X016266Y006370D01*
X016437Y006370D01*
X016595Y006435D01*
X016716Y006556D01*
X016781Y006714D01*
X016781Y006886D01*
X016716Y007044D01*
X016595Y007165D01*
X016437Y007230D01*
X016619Y007140D02*
X018583Y007140D01*
X018608Y007165D02*
X018487Y007044D01*
X018421Y006886D01*
X018421Y006714D01*
X018487Y006556D01*
X018608Y006435D01*
X018766Y006370D01*
X018937Y006370D01*
X019095Y006435D01*
X019216Y006556D01*
X019281Y006714D01*
X019281Y006886D01*
X019216Y007044D01*
X019095Y007165D01*
X018937Y007230D01*
X018766Y007230D01*
X018608Y007165D01*
X018679Y007383D02*
X018746Y007361D01*
X018816Y007350D01*
X018846Y007350D01*
X018846Y007795D01*
X018856Y007795D01*
X018856Y007350D01*
X018887Y007350D01*
X018957Y007361D01*
X019024Y007383D01*
X019087Y007415D01*
X019145Y007457D01*
X021586Y007457D01*
X021608Y007435D02*
X021766Y007370D01*
X021937Y007370D01*
X022095Y007435D01*
X022216Y007556D01*
X022281Y007714D01*
X022281Y007886D01*
X022216Y008044D01*
X022095Y008165D01*
X021937Y008230D01*
X021766Y008230D01*
X021608Y008165D01*
X021487Y008044D01*
X021421Y007886D01*
X021421Y007714D01*
X021487Y007556D01*
X021608Y007435D01*
X021679Y007217D02*
X021616Y007185D01*
X021558Y007143D01*
X021508Y007093D01*
X021467Y007036D01*
X021434Y006973D01*
X021412Y006905D01*
X021401Y006835D01*
X021401Y006805D01*
X021846Y006805D01*
X021846Y006795D01*
X021401Y006795D01*
X021401Y006765D01*
X021412Y006695D01*
X021434Y006627D01*
X021467Y006564D01*
X021508Y006507D01*
X021558Y006457D01*
X021616Y006415D01*
X021679Y006383D01*
X021746Y006361D01*
X021816Y006350D01*
X021846Y006350D01*
X021846Y006795D01*
X021856Y006795D01*
X021856Y006350D01*
X021887Y006350D01*
X021957Y006361D01*
X022024Y006383D01*
X022087Y006415D01*
X022145Y006457D01*
X022195Y006507D01*
X022236Y006564D01*
X022268Y006627D01*
X022290Y006695D01*
X022301Y006765D01*
X022301Y006795D01*
X021856Y006795D01*
X021856Y006805D01*
X021846Y006805D01*
X021846Y007250D01*
X021816Y007250D01*
X021746Y007239D01*
X021679Y007217D01*
X021555Y007140D02*
X019119Y007140D01*
X019242Y006982D02*
X021439Y006982D01*
X021401Y006823D02*
X019281Y006823D01*
X019261Y006665D02*
X021422Y006665D01*
X021509Y006506D02*
X019165Y006506D01*
X019024Y006217D02*
X018957Y006239D01*
X018887Y006250D01*
X018856Y006250D01*
X018856Y005805D01*
X019301Y005805D01*
X019301Y005835D01*
X019290Y005905D01*
X019268Y005973D01*
X019236Y006036D01*
X019195Y006093D01*
X019145Y006143D01*
X019087Y006185D01*
X019024Y006217D01*
X019079Y006189D02*
X021667Y006189D01*
X021608Y006165D02*
X021487Y006044D01*
X021421Y005886D01*
X021421Y005714D01*
X021487Y005556D01*
X021608Y005435D01*
X021766Y005370D01*
X021937Y005370D01*
X022095Y005435D01*
X022216Y005556D01*
X022281Y005714D01*
X024922Y005714D01*
X024921Y005714D02*
X024987Y005556D01*
X025108Y005435D01*
X025266Y005370D01*
X025437Y005370D01*
X025595Y005435D01*
X025716Y005556D01*
X025781Y005714D01*
X027922Y005714D01*
X027921Y005872D02*
X025781Y005872D01*
X025781Y005886D02*
X025716Y006044D01*
X025595Y006165D01*
X025437Y006230D01*
X025266Y006230D01*
X025108Y006165D01*
X024987Y006044D01*
X024921Y005886D01*
X024921Y005714D01*
X024921Y005872D02*
X022281Y005872D01*
X022281Y005886D02*
X022216Y006044D01*
X022095Y006165D01*
X021937Y006230D01*
X021766Y006230D01*
X021608Y006165D01*
X021481Y006031D02*
X019239Y006031D01*
X019296Y005872D02*
X021421Y005872D01*
X021422Y005714D02*
X019293Y005714D01*
X019230Y005555D02*
X021488Y005555D01*
X021702Y005397D02*
X019051Y005397D01*
X018856Y005397D02*
X018846Y005397D01*
X018851Y005249D02*
X018851Y005800D01*
X018846Y005872D02*
X018856Y005872D01*
X018846Y005714D02*
X018856Y005714D01*
X018846Y005555D02*
X018856Y005555D01*
X018652Y005397D02*
X016501Y005397D01*
X016714Y005555D02*
X018473Y005555D01*
X018464Y006031D02*
X016721Y006031D01*
X016781Y005886D02*
X016781Y005714D01*
X015988Y005555D02*
X013714Y005555D01*
X013781Y005714D02*
X013781Y005886D01*
X013721Y006031D02*
X015981Y006031D01*
X016167Y006189D02*
X013536Y006189D01*
X013437Y006370D02*
X013595Y006435D01*
X013716Y006556D01*
X013781Y006714D01*
X013781Y006886D01*
X013716Y007044D01*
X013595Y007165D01*
X013437Y007230D01*
X013266Y007230D01*
X013108Y007165D01*
X012987Y007044D01*
X012921Y006886D01*
X012921Y006714D01*
X012987Y006556D01*
X013108Y006435D01*
X013266Y006370D01*
X013437Y006370D01*
X013665Y006506D02*
X016037Y006506D01*
X015942Y006665D02*
X013761Y006665D01*
X013781Y006823D02*
X015921Y006823D01*
X015961Y006982D02*
X013742Y006982D01*
X013619Y007140D02*
X016083Y007140D01*
X016086Y007457D02*
X013645Y007457D01*
X013695Y007507D01*
X013736Y007564D01*
X013768Y007627D01*
X013790Y007695D01*
X013801Y007765D01*
X013801Y007795D01*
X013356Y007795D01*
X013356Y007350D01*
X013387Y007350D01*
X013457Y007361D01*
X013524Y007383D01*
X013587Y007415D01*
X013645Y007457D01*
X013762Y007616D02*
X015962Y007616D01*
X015921Y007774D02*
X013801Y007774D01*
X013801Y007805D02*
X013801Y007835D01*
X013790Y007905D01*
X013768Y007973D01*
X013736Y008036D01*
X013695Y008093D01*
X013645Y008143D01*
X013587Y008185D01*
X013524Y008217D01*
X013457Y008239D01*
X013387Y008250D01*
X013356Y008250D01*
X013356Y007805D01*
X013346Y007805D01*
X013346Y007795D01*
X012901Y007795D01*
X012901Y007765D01*
X012901Y007805D02*
X013346Y007805D01*
X013346Y008250D01*
X013316Y008250D01*
X013246Y008239D01*
X013179Y008217D01*
X013116Y008185D01*
X013058Y008143D01*
X013008Y008093D01*
X012967Y008036D01*
X012934Y007973D01*
X012912Y007905D01*
X012901Y007835D01*
X012901Y007805D01*
X012921Y007933D02*
X003735Y007933D01*
X003777Y008091D02*
X013007Y008091D01*
X013346Y008091D02*
X013356Y008091D01*
X013346Y007933D02*
X013356Y007933D01*
X013356Y007805D02*
X013801Y007805D01*
X013781Y007933D02*
X015941Y007933D01*
X016034Y008091D02*
X013696Y008091D01*
X013390Y008250D02*
X018813Y008250D01*
X018846Y008250D02*
X018856Y008250D01*
X018887Y008250D02*
X018957Y008239D01*
X019024Y008217D01*
X019087Y008185D01*
X019145Y008143D01*
X019195Y008093D01*
X019236Y008036D01*
X019268Y007973D01*
X019290Y007905D01*
X019301Y007835D01*
X019301Y007805D01*
X018856Y007805D01*
X018856Y007795D01*
X019301Y007795D01*
X019301Y007765D01*
X019290Y007695D01*
X019268Y007627D01*
X019236Y007564D01*
X019195Y007507D01*
X019145Y007457D01*
X019262Y007616D02*
X021462Y007616D01*
X021421Y007774D02*
X019301Y007774D01*
X019281Y007933D02*
X021441Y007933D01*
X021534Y008091D02*
X019196Y008091D01*
X018856Y008091D02*
X018846Y008091D01*
X018846Y007933D02*
X018856Y007933D01*
X018846Y007774D02*
X018856Y007774D01*
X018846Y007616D02*
X018856Y007616D01*
X018846Y007457D02*
X018856Y007457D01*
X018679Y007383D02*
X018616Y007415D01*
X018558Y007457D01*
X018461Y006982D02*
X016742Y006982D01*
X016781Y006823D02*
X018421Y006823D01*
X018442Y006665D02*
X016761Y006665D01*
X016665Y006506D02*
X018537Y006506D01*
X018624Y006189D02*
X016536Y006189D01*
X018846Y006189D02*
X018856Y006189D01*
X018846Y006031D02*
X018856Y006031D01*
X018851Y005249D02*
X023351Y005249D01*
X023634Y004763D02*
X016781Y004763D01*
X016736Y004604D02*
X023584Y004604D01*
X023584Y004446D02*
X016605Y004446D01*
X016631Y004129D02*
X023584Y004129D01*
X023584Y003970D02*
X016746Y003970D01*
X016781Y003812D02*
X023665Y003812D01*
X023751Y003653D02*
X016756Y003653D01*
X016776Y002702D02*
X033944Y002702D01*
X033833Y002544D02*
X016703Y002544D01*
X022001Y005397D02*
X025202Y005397D01*
X024988Y005555D02*
X022214Y005555D01*
X022281Y005714D02*
X022281Y005886D01*
X022221Y006031D02*
X024981Y006031D01*
X025167Y006189D02*
X022036Y006189D01*
X022194Y006506D02*
X025037Y006506D01*
X024987Y006556D02*
X025108Y006435D01*
X025266Y006370D01*
X025437Y006370D01*
X025595Y006435D01*
X025716Y006556D01*
X025781Y006714D01*
X025781Y006886D01*
X025716Y007044D01*
X025595Y007165D01*
X025437Y007230D01*
X025266Y007230D01*
X025108Y007165D01*
X024987Y007044D01*
X024921Y006886D01*
X024921Y006714D01*
X024987Y006556D01*
X024942Y006665D02*
X022281Y006665D01*
X022301Y006805D02*
X022301Y006835D01*
X022290Y006905D01*
X022268Y006973D01*
X022236Y007036D01*
X022195Y007093D01*
X022145Y007143D01*
X022087Y007185D01*
X022024Y007217D01*
X021957Y007239D01*
X021887Y007250D01*
X021856Y007250D01*
X021856Y006805D01*
X022301Y006805D01*
X022301Y006823D02*
X024921Y006823D01*
X024961Y006982D02*
X022264Y006982D01*
X022148Y007140D02*
X025083Y007140D01*
X025266Y007370D02*
X025437Y007370D01*
X025595Y007435D01*
X025716Y007556D01*
X025781Y007714D01*
X025781Y007886D01*
X025716Y008044D01*
X025595Y008165D01*
X025437Y008230D01*
X025266Y008230D01*
X025108Y008165D01*
X024987Y008044D01*
X024921Y007886D01*
X024921Y007714D01*
X024987Y007556D01*
X025108Y007435D01*
X025266Y007370D01*
X025086Y007457D02*
X022116Y007457D01*
X022240Y007616D02*
X024962Y007616D01*
X024921Y007774D02*
X022281Y007774D01*
X022262Y007933D02*
X024941Y007933D01*
X025034Y008091D02*
X022168Y008091D01*
X022024Y008383D02*
X022087Y008415D01*
X022145Y008457D01*
X022195Y008507D01*
X022236Y008564D01*
X022268Y008627D01*
X022290Y008695D01*
X022301Y008765D01*
X022301Y008795D01*
X021856Y008795D01*
X021856Y008350D01*
X021887Y008350D01*
X021957Y008361D01*
X022024Y008383D01*
X022073Y008408D02*
X022997Y008408D01*
X023025Y008380D02*
X022931Y008474D01*
X022931Y009126D01*
X023025Y009220D01*
X023678Y009220D01*
X023771Y009126D01*
X023771Y008474D01*
X023678Y008380D01*
X023025Y008380D01*
X022931Y008567D02*
X022237Y008567D01*
X022295Y008725D02*
X022931Y008725D01*
X022931Y008884D02*
X022294Y008884D01*
X022290Y008905D02*
X022268Y008973D01*
X022236Y009036D01*
X022195Y009093D01*
X022145Y009143D01*
X022087Y009185D01*
X022024Y009217D01*
X021957Y009239D01*
X021887Y009250D01*
X021856Y009250D01*
X021856Y008805D01*
X021846Y008805D01*
X021846Y008795D01*
X021401Y008795D01*
X021401Y008765D01*
X021412Y008695D01*
X021434Y008627D01*
X021467Y008564D01*
X021508Y008507D01*
X021558Y008457D01*
X021616Y008415D01*
X021679Y008383D01*
X021746Y008361D01*
X021816Y008350D01*
X021846Y008350D01*
X021846Y008795D01*
X021856Y008795D01*
X021856Y008805D01*
X022301Y008805D01*
X022301Y008835D01*
X022290Y008905D01*
X022232Y009042D02*
X022931Y009042D01*
X023006Y009201D02*
X022057Y009201D01*
X021856Y009201D02*
X021846Y009201D01*
X021846Y009250D02*
X021846Y008805D01*
X021401Y008805D01*
X021401Y008835D01*
X021412Y008905D01*
X021434Y008973D01*
X021467Y009036D01*
X021508Y009093D01*
X021558Y009143D01*
X021616Y009185D01*
X021679Y009217D01*
X021746Y009239D01*
X021816Y009250D01*
X021846Y009250D01*
X021766Y009370D02*
X021937Y009370D01*
X022095Y009435D01*
X022216Y009556D01*
X022281Y009714D01*
X022281Y009886D01*
X022216Y010044D01*
X022095Y010165D01*
X021937Y010230D01*
X021766Y010230D01*
X021608Y010165D01*
X021487Y010044D01*
X021421Y009886D01*
X021421Y009714D01*
X021487Y009556D01*
X021608Y009435D01*
X021766Y009370D01*
X021646Y009201D02*
X019008Y009201D01*
X018937Y009230D02*
X018766Y009230D01*
X018608Y009165D01*
X018487Y009044D01*
X018421Y008886D01*
X018421Y008714D01*
X018487Y008556D01*
X018608Y008435D01*
X018766Y008370D01*
X018937Y008370D01*
X019095Y008435D01*
X019216Y008556D01*
X019281Y008714D01*
X019281Y008886D01*
X019216Y009044D01*
X019095Y009165D01*
X018937Y009230D01*
X018944Y009359D02*
X035360Y009359D01*
X035360Y009329D02*
X035511Y008965D01*
X035790Y008686D01*
X036154Y008535D01*
X036549Y008535D01*
X036913Y008686D01*
X037192Y008965D01*
X037343Y009329D01*
X037343Y009724D01*
X037192Y010088D01*
X036913Y010367D01*
X036549Y010518D01*
X036154Y010518D01*
X035790Y010367D01*
X035511Y010088D01*
X035360Y009724D01*
X035360Y009329D01*
X035413Y009201D02*
X028557Y009201D01*
X028587Y009185D02*
X028524Y009217D01*
X028457Y009239D01*
X028387Y009250D01*
X028356Y009250D01*
X028356Y008805D01*
X028346Y008805D01*
X028346Y008795D01*
X027901Y008795D01*
X027901Y008765D01*
X027912Y008695D01*
X027934Y008627D01*
X027967Y008564D01*
X028008Y008507D01*
X028058Y008457D01*
X028116Y008415D01*
X028179Y008383D01*
X028246Y008361D01*
X028316Y008350D01*
X028346Y008350D01*
X028346Y008795D01*
X028356Y008795D01*
X028356Y008350D01*
X028387Y008350D01*
X028457Y008361D01*
X028524Y008383D01*
X028587Y008415D01*
X028645Y008457D01*
X028695Y008507D01*
X028736Y008564D01*
X028768Y008627D01*
X028790Y008695D01*
X028801Y008765D01*
X028801Y008795D01*
X028356Y008795D01*
X028356Y008805D01*
X028801Y008805D01*
X028801Y008835D01*
X028790Y008905D01*
X028768Y008973D01*
X028736Y009036D01*
X028695Y009093D01*
X028645Y009143D01*
X028587Y009185D01*
X028732Y009042D02*
X035478Y009042D01*
X035592Y008884D02*
X028794Y008884D01*
X028795Y008725D02*
X035750Y008725D01*
X036077Y008567D02*
X028737Y008567D01*
X028573Y008408D02*
X038279Y008408D01*
X038279Y008567D02*
X036626Y008567D01*
X036953Y008725D02*
X038279Y008725D01*
X039424Y008725D02*
X039467Y008725D01*
X040236Y008725D02*
X040438Y008725D01*
X040748Y008884D02*
X037111Y008884D01*
X037224Y009042D02*
X042478Y009042D01*
X042511Y008965D02*
X042790Y008686D01*
X043154Y008535D01*
X043549Y008535D01*
X043913Y008686D01*
X044192Y008965D01*
X044343Y009329D01*
X044343Y009724D01*
X044192Y010088D01*
X043913Y010367D01*
X043549Y010518D01*
X043154Y010518D01*
X042790Y010367D01*
X042511Y010088D01*
X042360Y009724D01*
X042360Y009329D01*
X042511Y008965D01*
X042592Y008884D02*
X040955Y008884D01*
X040990Y008878D02*
X040909Y008891D01*
X040909Y008358D01*
X041442Y008358D01*
X041429Y008439D01*
X041400Y008527D01*
X041358Y008611D01*
X041303Y008686D01*
X041237Y008752D01*
X041162Y008807D01*
X041079Y008849D01*
X040990Y008878D01*
X040909Y008884D02*
X040794Y008884D01*
X040794Y008725D02*
X040909Y008725D01*
X040909Y008567D02*
X040794Y008567D01*
X040794Y008408D02*
X040909Y008408D01*
X040909Y008250D02*
X050101Y008250D01*
X050101Y008408D02*
X041434Y008408D01*
X041381Y008567D02*
X043077Y008567D01*
X042750Y008725D02*
X041264Y008725D01*
X042413Y009201D02*
X037290Y009201D01*
X037343Y009359D02*
X042360Y009359D01*
X042360Y009518D02*
X037343Y009518D01*
X037343Y009676D02*
X042360Y009676D01*
X042405Y009835D02*
X037297Y009835D01*
X037232Y009993D02*
X042471Y009993D01*
X042574Y010152D02*
X037129Y010152D01*
X036970Y010310D02*
X042732Y010310D01*
X043034Y010469D02*
X036669Y010469D01*
X036034Y010469D02*
X028628Y010469D01*
X028595Y010435D02*
X028716Y010556D01*
X028781Y010714D01*
X028781Y010886D01*
X028716Y011044D01*
X028595Y011165D01*
X028437Y011230D01*
X028266Y011230D01*
X028108Y011165D01*
X027987Y011044D01*
X027921Y010886D01*
X027921Y010714D01*
X027987Y010556D01*
X028108Y010435D01*
X028266Y010370D01*
X028437Y010370D01*
X028595Y010435D01*
X028745Y010627D02*
X050101Y010627D01*
X050101Y010469D02*
X043669Y010469D01*
X043970Y010310D02*
X050101Y010310D01*
X050101Y010152D02*
X049112Y010152D01*
X049111Y010153D02*
X049204Y010059D01*
X049204Y009041D01*
X049111Y008947D01*
X048092Y008947D01*
X047998Y009041D01*
X047998Y010059D01*
X048092Y010153D01*
X049111Y010153D01*
X049204Y009993D02*
X050101Y009993D01*
X050101Y009835D02*
X049204Y009835D01*
X049204Y009676D02*
X050101Y009676D01*
X050101Y009518D02*
X049204Y009518D01*
X049204Y009359D02*
X050101Y009359D01*
X050101Y009201D02*
X049204Y009201D01*
X049204Y009042D02*
X050101Y009042D01*
X050101Y008884D02*
X044111Y008884D01*
X044224Y009042D02*
X047998Y009042D01*
X047998Y009201D02*
X044290Y009201D01*
X044343Y009359D02*
X047998Y009359D01*
X047998Y009518D02*
X044343Y009518D01*
X044343Y009676D02*
X047998Y009676D01*
X047998Y009835D02*
X044297Y009835D01*
X044232Y009993D02*
X047998Y009993D01*
X048091Y010152D02*
X044129Y010152D01*
X043953Y008725D02*
X050101Y008725D01*
X050101Y008567D02*
X043626Y008567D01*
X041406Y008091D02*
X050101Y008091D01*
X050101Y007933D02*
X041317Y007933D01*
X041124Y007774D02*
X050101Y007774D01*
X045244Y006348D02*
X044433Y006348D01*
X044274Y006506D02*
X045103Y006506D01*
X040909Y007774D02*
X040794Y007774D01*
X040794Y007933D02*
X040909Y007933D01*
X040909Y008091D02*
X040794Y008091D01*
X040579Y007774D02*
X040078Y007774D01*
X040294Y007933D02*
X040386Y007933D01*
X039625Y007774D02*
X039377Y007774D01*
X035633Y006031D02*
X028721Y006031D01*
X028536Y006189D02*
X030466Y006189D01*
X030431Y006348D02*
X001411Y006348D01*
X001411Y006506D02*
X013037Y006506D01*
X012942Y006665D02*
X001411Y006665D01*
X001411Y006823D02*
X012921Y006823D01*
X012961Y006982D02*
X011695Y006982D01*
X011710Y007140D02*
X013083Y007140D01*
X013179Y007383D02*
X013116Y007415D01*
X013058Y007457D01*
X013179Y007383D02*
X013246Y007361D01*
X013316Y007350D01*
X013346Y007350D01*
X013346Y007795D01*
X013356Y007795D01*
X013356Y007805D01*
X013356Y007774D02*
X013346Y007774D01*
X013346Y007616D02*
X013356Y007616D01*
X013346Y007457D02*
X013356Y007457D01*
X012940Y007616D02*
X011620Y007616D01*
X010851Y008300D02*
X010351Y009550D01*
X011421Y010464D02*
X011515Y010370D01*
X012188Y010370D01*
X012281Y010464D01*
X012281Y011136D01*
X012188Y011230D01*
X011515Y011230D01*
X011421Y011136D01*
X011421Y010464D01*
X011421Y010469D02*
X009128Y010469D01*
X009095Y010435D02*
X009216Y010556D01*
X009281Y010714D01*
X009281Y010886D01*
X009216Y011044D01*
X009095Y011165D01*
X008937Y011230D01*
X008766Y011230D01*
X008608Y011165D01*
X008487Y011044D01*
X008421Y010886D01*
X008421Y010714D01*
X008487Y010556D01*
X008608Y010435D01*
X008766Y010370D01*
X008937Y010370D01*
X009095Y010435D01*
X009245Y010627D02*
X011421Y010627D01*
X011421Y010786D02*
X009281Y010786D01*
X009257Y010944D02*
X011421Y010944D01*
X011421Y011103D02*
X009157Y011103D01*
X009056Y011420D02*
X011646Y011420D01*
X011608Y011435D02*
X011766Y011370D01*
X011937Y011370D01*
X012095Y011435D01*
X012216Y011556D01*
X012281Y011714D01*
X012281Y011886D01*
X012216Y012044D01*
X012095Y012165D01*
X011937Y012230D01*
X011766Y012230D01*
X011608Y012165D01*
X011487Y012044D01*
X011421Y011886D01*
X011421Y011714D01*
X011487Y011556D01*
X011608Y011435D01*
X011478Y011578D02*
X009225Y011578D01*
X009216Y011556D02*
X009281Y011714D01*
X009281Y011886D01*
X009216Y012044D01*
X009095Y012165D01*
X008937Y012230D01*
X008766Y012230D01*
X008608Y012165D01*
X008487Y012044D01*
X008421Y011886D01*
X008421Y011714D01*
X008487Y011556D01*
X008608Y011435D01*
X008766Y011370D01*
X008937Y011370D01*
X009095Y011435D01*
X009216Y011556D01*
X009281Y011737D02*
X011421Y011737D01*
X011425Y011895D02*
X009277Y011895D01*
X009206Y012054D02*
X011497Y012054D01*
X011722Y012212D02*
X008980Y012212D01*
X008937Y012370D02*
X009095Y012435D01*
X009216Y012556D01*
X009281Y012714D01*
X009281Y012886D01*
X009216Y013044D01*
X009095Y013165D01*
X008937Y013230D01*
X008766Y013230D01*
X008608Y013165D01*
X008487Y013044D01*
X008421Y012886D01*
X008421Y012714D01*
X008487Y012556D01*
X008608Y012435D01*
X008766Y012370D01*
X008937Y012370D01*
X008938Y012371D02*
X011765Y012371D01*
X011766Y012370D02*
X011937Y012370D01*
X012095Y012435D01*
X012216Y012556D01*
X012281Y012714D01*
X012281Y012886D01*
X012216Y013044D01*
X012095Y013165D01*
X011937Y013230D01*
X011766Y013230D01*
X011608Y013165D01*
X011487Y013044D01*
X011421Y012886D01*
X011421Y012714D01*
X011487Y012556D01*
X011608Y012435D01*
X011766Y012370D01*
X011938Y012371D02*
X013265Y012371D01*
X013266Y012370D02*
X013437Y012370D01*
X013595Y012435D01*
X013716Y012556D01*
X013781Y012714D01*
X013781Y012886D01*
X013716Y013044D01*
X013595Y013165D01*
X013437Y013230D01*
X013266Y013230D01*
X013108Y013165D01*
X012987Y013044D01*
X012921Y012886D01*
X012921Y012714D01*
X012987Y012556D01*
X013108Y012435D01*
X013266Y012370D01*
X013266Y012230D02*
X013108Y012165D01*
X012987Y012044D01*
X012921Y011886D01*
X012921Y011714D01*
X012987Y011556D01*
X013108Y011435D01*
X013266Y011370D01*
X013437Y011370D01*
X013595Y011435D01*
X013716Y011556D01*
X013781Y011714D01*
X013781Y011886D01*
X013716Y012044D01*
X013595Y012165D01*
X013437Y012230D01*
X013266Y012230D01*
X013222Y012212D02*
X011980Y012212D01*
X012206Y012054D02*
X012997Y012054D01*
X012925Y011895D02*
X012277Y011895D01*
X012281Y011737D02*
X012921Y011737D01*
X012978Y011578D02*
X012225Y011578D01*
X012056Y011420D02*
X013146Y011420D01*
X013266Y011230D02*
X013108Y011165D01*
X012987Y011044D01*
X012921Y010886D01*
X012921Y010714D01*
X012987Y010556D01*
X013108Y010435D01*
X013266Y010370D01*
X013437Y010370D01*
X013595Y010435D01*
X013716Y010556D01*
X013781Y010714D01*
X013781Y010886D01*
X013716Y011044D01*
X013595Y011165D01*
X013437Y011230D01*
X013266Y011230D01*
X013046Y011103D02*
X012281Y011103D01*
X012281Y010944D02*
X012946Y010944D01*
X012921Y010786D02*
X012281Y010786D01*
X012281Y010627D02*
X012958Y010627D01*
X013075Y010469D02*
X012281Y010469D01*
X012987Y010044D02*
X012921Y009886D01*
X012921Y009714D01*
X012987Y009556D01*
X013108Y009435D01*
X013266Y009370D01*
X013437Y009370D01*
X013595Y009435D01*
X013716Y009556D01*
X013781Y009714D01*
X013781Y009886D01*
X013716Y010044D01*
X013595Y010165D01*
X013437Y010230D01*
X013266Y010230D01*
X013108Y010165D01*
X012987Y010044D01*
X012966Y009993D02*
X006599Y009993D01*
X006571Y010059D02*
X006641Y009891D01*
X006641Y009709D01*
X006571Y009541D01*
X006443Y009413D01*
X006275Y009343D01*
X006093Y009343D01*
X005925Y009413D01*
X005797Y009541D01*
X005727Y009709D01*
X005727Y009891D01*
X005797Y010059D01*
X005925Y010187D01*
X006093Y010257D01*
X006275Y010257D01*
X006443Y010187D01*
X006571Y010059D01*
X006479Y010152D02*
X013095Y010152D01*
X012921Y009835D02*
X006641Y009835D01*
X006627Y009676D02*
X012937Y009676D01*
X013026Y009518D02*
X006548Y009518D01*
X006313Y009359D02*
X018759Y009359D01*
X018746Y009361D02*
X018816Y009350D01*
X018846Y009350D01*
X018846Y009795D01*
X018401Y009795D01*
X018401Y009765D01*
X018412Y009695D01*
X018434Y009627D01*
X018467Y009564D01*
X018508Y009507D01*
X018558Y009457D01*
X018616Y009415D01*
X018679Y009383D01*
X018746Y009361D01*
X018846Y009359D02*
X018856Y009359D01*
X018856Y009350D02*
X018887Y009350D01*
X018957Y009361D01*
X019024Y009383D01*
X019087Y009415D01*
X019145Y009457D01*
X019195Y009507D01*
X019236Y009564D01*
X019268Y009627D01*
X019290Y009695D01*
X019301Y009765D01*
X019301Y009795D01*
X018856Y009795D01*
X018856Y009350D01*
X018846Y009518D02*
X018856Y009518D01*
X018846Y009676D02*
X018856Y009676D01*
X018846Y009795D02*
X018856Y009795D01*
X018856Y009805D01*
X018846Y009805D01*
X018846Y009795D01*
X018846Y009805D02*
X018401Y009805D01*
X018401Y009835D01*
X018412Y009905D01*
X018434Y009973D01*
X018467Y010036D01*
X018508Y010093D01*
X018558Y010143D01*
X018616Y010185D01*
X018679Y010217D01*
X018746Y010239D01*
X018816Y010250D01*
X018846Y010250D01*
X018846Y009805D01*
X018856Y009805D02*
X018856Y010250D01*
X018887Y010250D01*
X018957Y010239D01*
X019024Y010217D01*
X019087Y010185D01*
X019145Y010143D01*
X019195Y010093D01*
X019236Y010036D01*
X019268Y009973D01*
X019290Y009905D01*
X019301Y009835D01*
X019301Y009805D01*
X018856Y009805D01*
X018856Y009835D02*
X018846Y009835D01*
X018846Y009993D02*
X018856Y009993D01*
X018846Y010152D02*
X018856Y010152D01*
X018937Y010370D02*
X019095Y010435D01*
X019216Y010556D01*
X019281Y010714D01*
X019281Y010886D01*
X019216Y011044D01*
X019095Y011165D01*
X018937Y011230D01*
X018766Y011230D01*
X018608Y011165D01*
X018487Y011044D01*
X018421Y010886D01*
X018421Y010714D01*
X018487Y010556D01*
X018608Y010435D01*
X018766Y010370D01*
X018937Y010370D01*
X019128Y010469D02*
X021575Y010469D01*
X021608Y010435D02*
X021766Y010370D01*
X021937Y010370D01*
X022095Y010435D01*
X022216Y010556D01*
X022281Y010714D01*
X022281Y010886D01*
X022216Y011044D01*
X022095Y011165D01*
X021937Y011230D01*
X021766Y011230D01*
X021608Y011165D01*
X021487Y011044D01*
X021421Y010886D01*
X021421Y010714D01*
X021487Y010556D01*
X021608Y010435D01*
X021458Y010627D02*
X019245Y010627D01*
X019281Y010786D02*
X021421Y010786D01*
X021446Y010944D02*
X019257Y010944D01*
X019157Y011103D02*
X021546Y011103D01*
X021646Y011420D02*
X019265Y011420D01*
X019265Y011419D02*
X019289Y011461D01*
X019301Y011506D01*
X019301Y011795D01*
X018856Y011795D01*
X018856Y011350D01*
X019145Y011350D01*
X019191Y011362D01*
X019232Y011386D01*
X019265Y011419D01*
X019301Y011578D02*
X021478Y011578D01*
X021487Y011556D02*
X021608Y011435D01*
X021766Y011370D01*
X021937Y011370D01*
X022095Y011435D01*
X022216Y011556D01*
X022281Y011714D01*
X022281Y011886D01*
X022216Y012044D01*
X022095Y012165D01*
X021937Y012230D01*
X021766Y012230D01*
X021608Y012165D01*
X021487Y012044D01*
X021421Y011886D01*
X021421Y011714D01*
X021487Y011556D01*
X021421Y011737D02*
X019301Y011737D01*
X019301Y011805D02*
X019301Y012094D01*
X019289Y012139D01*
X019265Y012181D01*
X019232Y012214D01*
X019191Y012238D01*
X019145Y012250D01*
X018856Y012250D01*
X018856Y011805D01*
X018846Y011805D01*
X018846Y011795D01*
X018401Y011795D01*
X018401Y011506D01*
X018414Y011461D01*
X018437Y011419D01*
X018471Y011386D01*
X018512Y011362D01*
X018558Y011350D01*
X018846Y011350D01*
X018846Y011795D01*
X018856Y011795D01*
X018856Y011805D01*
X019301Y011805D01*
X019301Y011895D02*
X021425Y011895D01*
X021497Y012054D02*
X019301Y012054D01*
X019234Y012212D02*
X021722Y012212D01*
X021980Y012212D02*
X025169Y012212D01*
X025179Y012217D02*
X025116Y012185D01*
X025058Y012143D01*
X025008Y012093D01*
X024967Y012036D01*
X024934Y011973D01*
X024912Y011905D01*
X024901Y011835D01*
X024901Y011805D01*
X025346Y011805D01*
X025346Y011795D01*
X024901Y011795D01*
X024901Y011765D01*
X024912Y011695D01*
X024934Y011627D01*
X024967Y011564D01*
X025008Y011507D01*
X025058Y011457D01*
X025116Y011415D01*
X025179Y011383D01*
X025246Y011361D01*
X025316Y011350D01*
X025346Y011350D01*
X025346Y011795D01*
X025356Y011795D01*
X025356Y011350D01*
X025387Y011350D01*
X025457Y011361D01*
X025524Y011383D01*
X025587Y011415D01*
X025645Y011457D01*
X025695Y011507D01*
X025736Y011564D01*
X025768Y011627D01*
X025790Y011695D01*
X025801Y011765D01*
X025801Y011795D01*
X025356Y011795D01*
X025356Y011805D01*
X025346Y011805D01*
X025346Y012250D01*
X025316Y012250D01*
X025246Y012239D01*
X025179Y012217D01*
X025346Y012212D02*
X025356Y012212D01*
X025356Y012250D02*
X025356Y011805D01*
X025801Y011805D01*
X025801Y011835D01*
X025790Y011905D01*
X025768Y011973D01*
X025736Y012036D01*
X025695Y012093D01*
X025645Y012143D01*
X025587Y012185D01*
X025524Y012217D01*
X025457Y012239D01*
X025387Y012250D01*
X025356Y012250D01*
X025437Y012370D02*
X025595Y012435D01*
X025716Y012556D01*
X025781Y012714D01*
X025781Y012886D01*
X025716Y013044D01*
X025595Y013165D01*
X025437Y013230D01*
X025266Y013230D01*
X025108Y013165D01*
X024987Y013044D01*
X024921Y012886D01*
X024921Y012714D01*
X024987Y012556D01*
X025108Y012435D01*
X025266Y012370D01*
X025437Y012370D01*
X025438Y012371D02*
X028265Y012371D01*
X028266Y012370D02*
X028437Y012370D01*
X028595Y012435D01*
X028716Y012556D01*
X028781Y012714D01*
X028781Y012886D01*
X028716Y013044D01*
X028595Y013165D01*
X028437Y013230D01*
X028266Y013230D01*
X028108Y013165D01*
X027987Y013044D01*
X027921Y012886D01*
X027921Y012714D01*
X027987Y012556D01*
X028108Y012435D01*
X028266Y012370D01*
X028316Y012250D02*
X028246Y012239D01*
X028179Y012217D01*
X028116Y012185D01*
X028058Y012143D01*
X028008Y012093D01*
X027967Y012036D01*
X027934Y011973D01*
X027912Y011905D01*
X027901Y011835D01*
X027901Y011805D01*
X028346Y011805D01*
X028346Y011795D01*
X027901Y011795D01*
X027901Y011765D01*
X027912Y011695D01*
X027934Y011627D01*
X027967Y011564D01*
X028008Y011507D01*
X028058Y011457D01*
X028116Y011415D01*
X028179Y011383D01*
X028246Y011361D01*
X028316Y011350D01*
X028346Y011350D01*
X028346Y011795D01*
X028356Y011795D01*
X028356Y011350D01*
X028387Y011350D01*
X028457Y011361D01*
X028524Y011383D01*
X028587Y011415D01*
X028645Y011457D01*
X028695Y011507D01*
X028736Y011564D01*
X028768Y011627D01*
X028790Y011695D01*
X028801Y011765D01*
X028801Y011795D01*
X028356Y011795D01*
X028356Y011805D01*
X028346Y011805D01*
X028346Y012250D01*
X028316Y012250D01*
X028356Y012250D02*
X028356Y011805D01*
X028801Y011805D01*
X028801Y011835D01*
X028790Y011905D01*
X028768Y011973D01*
X028736Y012036D01*
X028695Y012093D01*
X028645Y012143D01*
X028587Y012185D01*
X028524Y012217D01*
X028457Y012239D01*
X028387Y012250D01*
X028356Y012250D01*
X028356Y012212D02*
X028346Y012212D01*
X028346Y012054D02*
X028356Y012054D01*
X028346Y011895D02*
X028356Y011895D01*
X028351Y011800D02*
X029601Y011800D01*
X030101Y011800D01*
X030525Y012380D02*
X031178Y012380D01*
X031271Y012474D01*
X031271Y013126D01*
X031178Y013220D01*
X030525Y013220D01*
X030431Y013126D01*
X030431Y012474D01*
X030525Y012380D01*
X030431Y012529D02*
X028689Y012529D01*
X028770Y012688D02*
X030431Y012688D01*
X030431Y012846D02*
X028781Y012846D01*
X028732Y013005D02*
X030431Y013005D01*
X030468Y013163D02*
X028596Y013163D01*
X028437Y013370D02*
X028266Y013370D01*
X028108Y013435D01*
X027987Y013556D01*
X027921Y013714D01*
X027921Y013886D01*
X027987Y014044D01*
X028108Y014165D01*
X028266Y014230D01*
X028437Y014230D01*
X028595Y014165D01*
X028716Y014044D01*
X028781Y013886D01*
X028781Y013714D01*
X028716Y013556D01*
X028595Y013435D01*
X028437Y013370D01*
X028640Y013480D02*
X035362Y013480D01*
X035360Y013474D02*
X035360Y013079D01*
X035511Y012715D01*
X035790Y012436D01*
X036154Y012285D01*
X036549Y012285D01*
X036913Y012436D01*
X037192Y012715D01*
X037343Y013079D01*
X037343Y013474D01*
X037192Y013838D01*
X036913Y014117D01*
X036549Y014268D01*
X036154Y014268D01*
X035790Y014117D01*
X035511Y013838D01*
X035360Y013474D01*
X035360Y013322D02*
X018787Y013322D01*
X018807Y013341D02*
X018863Y013477D01*
X018863Y013623D01*
X018807Y013759D01*
X018780Y013786D01*
X018797Y013802D01*
X018839Y013866D01*
X018868Y013937D01*
X018883Y014012D01*
X018883Y014050D01*
X018883Y014088D01*
X018868Y014163D01*
X018839Y014234D01*
X018797Y014298D01*
X018743Y014352D01*
X018679Y014394D01*
X018608Y014423D01*
X018533Y014438D01*
X018495Y014438D01*
X018457Y014438D01*
X018382Y014423D01*
X018311Y014394D01*
X018248Y014352D01*
X018193Y014298D01*
X018151Y014234D01*
X018122Y014163D01*
X018107Y014088D01*
X018107Y014050D01*
X018107Y014012D01*
X018122Y013937D01*
X018151Y013866D01*
X018193Y013802D01*
X018210Y013786D01*
X018183Y013759D01*
X018127Y013623D01*
X018127Y013477D01*
X018183Y013341D01*
X018224Y013300D01*
X018183Y013259D01*
X018127Y013123D01*
X018127Y012977D01*
X018183Y012841D01*
X018286Y012738D01*
X018422Y012682D01*
X018568Y012682D01*
X018704Y012738D01*
X018807Y012841D01*
X018863Y012977D01*
X018863Y013123D01*
X018807Y013259D01*
X018766Y013300D01*
X018807Y013341D01*
X018863Y013480D02*
X025063Y013480D01*
X025108Y013435D02*
X025266Y013370D01*
X025437Y013370D01*
X025595Y013435D01*
X025716Y013556D01*
X025781Y013714D01*
X025781Y013886D01*
X025716Y014044D01*
X025595Y014165D01*
X025437Y014230D01*
X025266Y014230D01*
X025108Y014165D01*
X024987Y014044D01*
X024921Y013886D01*
X024921Y013714D01*
X024987Y013556D01*
X025108Y013435D01*
X024953Y013639D02*
X018857Y013639D01*
X018791Y013797D02*
X024921Y013797D01*
X024950Y013956D02*
X018872Y013956D01*
X018883Y014050D02*
X018495Y014050D01*
X018107Y014050D01*
X018495Y014050D01*
X018495Y014050D01*
X018495Y014438D01*
X018495Y014050D01*
X018495Y014050D01*
X018883Y014050D01*
X018878Y014114D02*
X025057Y014114D01*
X025015Y014370D02*
X024921Y014464D01*
X024921Y015136D01*
X025015Y015230D01*
X025688Y015230D01*
X025781Y015136D01*
X025781Y014464D01*
X025688Y014370D01*
X025015Y014370D01*
X024954Y014431D02*
X018570Y014431D01*
X018495Y014431D02*
X018495Y014431D01*
X018420Y014431D02*
X016584Y014431D01*
X016595Y014435D02*
X016716Y014556D01*
X016781Y014714D01*
X016781Y014886D01*
X016716Y015044D01*
X016595Y015165D01*
X016437Y015230D01*
X016266Y015230D01*
X016108Y015165D01*
X015987Y015044D01*
X015921Y014886D01*
X015921Y014714D01*
X015987Y014556D01*
X016108Y014435D01*
X016266Y014370D01*
X016437Y014370D01*
X016595Y014435D01*
X016730Y014590D02*
X020993Y014590D01*
X020993Y014573D02*
X021087Y014479D01*
X021616Y014479D01*
X021710Y014573D01*
X021710Y015102D01*
X021616Y015196D01*
X021087Y015196D01*
X020993Y015102D01*
X020993Y014573D01*
X020993Y014748D02*
X016781Y014748D01*
X016773Y014907D02*
X020993Y014907D01*
X020993Y015065D02*
X016694Y015065D01*
X016453Y015224D02*
X023118Y015224D01*
X023116Y015226D02*
X023277Y015065D01*
X021710Y015065D01*
X021710Y014907D02*
X024921Y014907D01*
X024921Y015065D02*
X023926Y015065D01*
X024087Y015226D01*
X024174Y015436D01*
X024174Y015664D01*
X024087Y015874D01*
X023926Y016035D01*
X023910Y016042D01*
X023912Y016043D01*
X023987Y016098D01*
X024053Y016164D01*
X024108Y016239D01*
X024150Y016323D01*
X024179Y016411D01*
X024192Y016492D01*
X024837Y016492D01*
X024837Y016457D02*
X024931Y016363D01*
X025618Y016363D01*
X025712Y016457D01*
X025712Y017143D01*
X025618Y017237D01*
X024931Y017237D01*
X024837Y017143D01*
X024837Y016457D01*
X024837Y016650D02*
X024185Y016650D01*
X024179Y016689D02*
X024150Y016777D01*
X024108Y016861D01*
X024053Y016936D01*
X024012Y016978D01*
X024080Y016978D01*
X024174Y017071D01*
X024174Y018029D01*
X024080Y018122D01*
X023123Y018122D01*
X023029Y018029D01*
X023029Y017071D01*
X023123Y016978D01*
X023191Y016978D01*
X023149Y016936D01*
X023095Y016861D01*
X023052Y016777D01*
X023023Y016689D01*
X023011Y016608D01*
X023544Y016608D01*
X023544Y016492D01*
X023011Y016492D01*
X011969Y016492D01*
X011926Y016535D02*
X011715Y016622D01*
X011488Y016622D01*
X011277Y016535D01*
X011116Y016374D01*
X011109Y016358D01*
X011108Y016361D01*
X011053Y016436D01*
X010987Y016502D01*
X010912Y016557D01*
X010829Y016599D01*
X010740Y016628D01*
X010659Y016641D01*
X010659Y016108D01*
X010544Y016108D01*
X010544Y016641D01*
X010463Y016628D01*
X010374Y016599D01*
X010291Y016557D01*
X010215Y016502D01*
X010174Y016460D01*
X010174Y016529D01*
X010080Y016622D01*
X009123Y016622D01*
X009029Y016529D01*
X009029Y015571D01*
X009123Y015478D01*
X010080Y015478D01*
X010174Y015571D01*
X010174Y015640D01*
X010215Y015598D01*
X010291Y015543D01*
X010374Y015501D01*
X010463Y015472D01*
X010544Y015459D01*
X010544Y015992D01*
X010659Y015992D01*
X010659Y015459D01*
X010740Y015472D01*
X010829Y015501D01*
X010912Y015543D01*
X010987Y015598D01*
X011053Y015664D01*
X011108Y015739D01*
X011109Y015742D01*
X011116Y015726D01*
X011277Y015565D01*
X011488Y015478D01*
X011715Y015478D01*
X011926Y015565D01*
X012087Y015726D01*
X012174Y015936D01*
X012174Y016164D01*
X012087Y016374D01*
X011926Y016535D01*
X012104Y016333D02*
X023049Y016333D01*
X023052Y016323D02*
X023095Y016239D01*
X023149Y016164D01*
X023215Y016098D01*
X023291Y016043D01*
X023293Y016042D01*
X023277Y016035D01*
X023116Y015874D01*
X023029Y015664D01*
X023029Y015436D01*
X023116Y015226D01*
X023051Y015382D02*
X021644Y015382D01*
X021645Y015384D02*
X021687Y015446D01*
X021715Y015514D01*
X021730Y015588D01*
X021730Y015625D01*
X021730Y015662D01*
X021715Y015735D01*
X021687Y015804D01*
X021645Y015866D01*
X021593Y015919D01*
X021531Y015960D01*
X021462Y015989D01*
X021389Y016003D01*
X021351Y016003D01*
X021314Y016003D01*
X021241Y015989D01*
X021172Y015960D01*
X021110Y015919D01*
X021057Y015866D01*
X021016Y015804D01*
X020987Y015735D01*
X020973Y015662D01*
X020973Y015625D01*
X021351Y015625D01*
X021351Y015625D01*
X021351Y016003D01*
X021351Y015625D01*
X021351Y015625D01*
X020973Y015625D01*
X020973Y015588D01*
X020987Y015514D01*
X021016Y015446D01*
X021057Y015384D01*
X021110Y015331D01*
X021172Y015289D01*
X021241Y015261D01*
X021314Y015246D01*
X021351Y015246D01*
X021351Y015625D01*
X021351Y015625D01*
X021730Y015625D01*
X021351Y015625D01*
X021351Y015625D01*
X021351Y015246D01*
X021389Y015246D01*
X021462Y015261D01*
X021531Y015289D01*
X021593Y015331D01*
X021645Y015384D01*
X021720Y015541D02*
X023029Y015541D01*
X023043Y015699D02*
X021722Y015699D01*
X021651Y015858D02*
X023109Y015858D01*
X023258Y016016D02*
X012174Y016016D01*
X012169Y016175D02*
X023142Y016175D01*
X023052Y016323D02*
X023023Y016411D01*
X023011Y016492D01*
X023017Y016650D02*
X003531Y016650D01*
X003648Y016768D02*
X003791Y017113D01*
X003791Y017487D01*
X003648Y017832D01*
X003384Y018097D01*
X003038Y018240D01*
X002664Y018240D01*
X002319Y018097D01*
X002054Y017832D01*
X001911Y017487D01*
X001911Y017113D01*
X002054Y016768D01*
X002319Y016503D01*
X002664Y016360D01*
X003038Y016360D01*
X003384Y016503D01*
X003648Y016768D01*
X003665Y016809D02*
X005792Y016809D01*
X005794Y016806D02*
X005827Y016772D01*
X005869Y016748D01*
X005914Y016736D01*
X006294Y016736D01*
X006294Y017272D01*
X006409Y017272D01*
X006409Y017387D01*
X006945Y017387D01*
X006945Y017767D01*
X006932Y017812D01*
X006909Y017853D01*
X006875Y017887D01*
X006834Y017911D01*
X006788Y017923D01*
X006409Y017923D01*
X006409Y017387D01*
X006294Y017387D01*
X006294Y017923D01*
X005914Y017923D01*
X005869Y017911D01*
X005827Y017887D01*
X005794Y017853D01*
X005770Y017812D01*
X005758Y017767D01*
X005758Y017387D01*
X006294Y017387D01*
X006294Y017272D01*
X005758Y017272D01*
X005758Y016892D01*
X005770Y016847D01*
X005794Y016806D01*
X005758Y016967D02*
X003731Y016967D01*
X003791Y017126D02*
X005758Y017126D01*
X006294Y017126D02*
X006409Y017126D01*
X006409Y017272D02*
X006409Y016736D01*
X006788Y016736D01*
X006834Y016748D01*
X006875Y016772D01*
X006909Y016806D01*
X006932Y016847D01*
X006945Y016892D01*
X006945Y017272D01*
X006409Y017272D01*
X006409Y017284D02*
X023029Y017284D01*
X023029Y017126D02*
X006945Y017126D01*
X006945Y016967D02*
X023180Y016967D01*
X023068Y016809D02*
X006910Y016809D01*
X006409Y016809D02*
X006294Y016809D01*
X006294Y016967D02*
X006409Y016967D01*
X006294Y017284D02*
X003791Y017284D01*
X003791Y017443D02*
X005758Y017443D01*
X005758Y017601D02*
X003744Y017601D01*
X003678Y017760D02*
X005758Y017760D01*
X005896Y017918D02*
X003563Y017918D01*
X003404Y018077D02*
X007091Y018077D01*
X007091Y018137D02*
X007091Y017963D01*
X007158Y017802D01*
X007281Y017679D01*
X007442Y017613D01*
X007616Y017613D01*
X007776Y017679D01*
X007899Y017802D01*
X007966Y017963D01*
X007966Y018137D01*
X007899Y018298D01*
X007776Y018421D01*
X007616Y018487D01*
X007442Y018487D01*
X007281Y018421D01*
X007158Y018298D01*
X007091Y018137D01*
X007132Y018235D02*
X003050Y018235D01*
X002652Y018235D02*
X001411Y018235D01*
X001411Y018077D02*
X002299Y018077D01*
X002140Y017918D02*
X001411Y017918D01*
X001411Y017760D02*
X002024Y017760D01*
X001959Y017601D02*
X001411Y017601D01*
X001411Y017443D02*
X001911Y017443D01*
X001911Y017284D02*
X001411Y017284D01*
X001411Y017126D02*
X001911Y017126D01*
X001972Y016967D02*
X001411Y016967D01*
X001411Y016809D02*
X002038Y016809D01*
X002172Y016650D02*
X001411Y016650D01*
X001411Y016492D02*
X002347Y016492D01*
X001411Y016333D02*
X009029Y016333D01*
X009029Y016175D02*
X001411Y016175D01*
X001411Y016016D02*
X009029Y016016D01*
X009029Y015858D02*
X001411Y015858D01*
X001411Y015699D02*
X009029Y015699D01*
X009060Y015541D02*
X001411Y015541D01*
X001411Y015382D02*
X021059Y015382D01*
X020982Y015541D02*
X011867Y015541D01*
X012060Y015699D02*
X020980Y015699D01*
X021052Y015858D02*
X012141Y015858D01*
X011335Y015541D02*
X010907Y015541D01*
X011079Y015699D02*
X011143Y015699D01*
X010659Y015699D02*
X010544Y015699D01*
X010544Y015541D02*
X010659Y015541D01*
X010296Y015541D02*
X010143Y015541D01*
X010544Y015858D02*
X010659Y015858D01*
X010659Y016175D02*
X010544Y016175D01*
X010544Y016333D02*
X010659Y016333D01*
X010659Y016492D02*
X010544Y016492D01*
X010205Y016492D02*
X010174Y016492D01*
X010998Y016492D02*
X011233Y016492D01*
X011022Y017613D02*
X010335Y017613D01*
X010241Y017707D01*
X010241Y018393D01*
X010335Y018487D01*
X011022Y018487D01*
X011115Y018393D01*
X011115Y017707D01*
X011022Y017613D01*
X011115Y017760D02*
X023029Y017760D01*
X023029Y017918D02*
X011115Y017918D01*
X011115Y018077D02*
X012503Y018077D01*
X012507Y018075D02*
X012696Y018075D01*
X012870Y018147D01*
X013004Y018281D01*
X013076Y018456D01*
X013076Y018644D01*
X013004Y018819D01*
X012870Y018953D01*
X012696Y019025D01*
X012507Y019025D01*
X012332Y018953D01*
X012199Y018819D01*
X012126Y018644D01*
X012126Y018456D01*
X012199Y018281D01*
X012332Y018147D01*
X012507Y018075D01*
X012700Y018077D02*
X023077Y018077D01*
X024126Y018077D02*
X046426Y018077D01*
X046411Y018113D02*
X046554Y017768D01*
X046819Y017503D01*
X047164Y017360D01*
X047538Y017360D01*
X047884Y017503D01*
X048148Y017768D01*
X048291Y018113D01*
X048291Y018487D01*
X048148Y018832D01*
X047884Y019097D01*
X047538Y019240D01*
X047164Y019240D01*
X046819Y019097D01*
X046554Y018832D01*
X046411Y018487D01*
X046411Y018113D01*
X046411Y018235D02*
X012958Y018235D01*
X013051Y018394D02*
X046411Y018394D01*
X046438Y018552D02*
X013076Y018552D01*
X013049Y018711D02*
X046504Y018711D01*
X046591Y018869D02*
X012954Y018869D01*
X012249Y018869D02*
X001411Y018869D01*
X001411Y018711D02*
X012154Y018711D01*
X012126Y018552D02*
X001411Y018552D01*
X001411Y018394D02*
X007254Y018394D01*
X007110Y017918D02*
X006807Y017918D01*
X006945Y017760D02*
X007201Y017760D01*
X006945Y017601D02*
X023029Y017601D01*
X023029Y017443D02*
X006945Y017443D01*
X006409Y017443D02*
X006294Y017443D01*
X006294Y017601D02*
X006409Y017601D01*
X006409Y017760D02*
X006294Y017760D01*
X006294Y017918D02*
X006409Y017918D01*
X007856Y017760D02*
X010241Y017760D01*
X010241Y017918D02*
X007947Y017918D01*
X007966Y018077D02*
X010241Y018077D01*
X010241Y018235D02*
X007925Y018235D01*
X007803Y018394D02*
X010241Y018394D01*
X011115Y018394D02*
X012152Y018394D01*
X012245Y018235D02*
X011115Y018235D01*
X008812Y020085D02*
X008718Y019991D01*
X008110Y019991D01*
X008017Y020085D01*
X008017Y020693D01*
X008110Y020786D01*
X008718Y020786D01*
X008812Y020693D01*
X008812Y020085D01*
X008812Y020137D02*
X012328Y020137D01*
X012342Y020127D02*
X012411Y020091D01*
X012485Y020067D01*
X012562Y020055D01*
X012601Y020055D01*
X012601Y020550D01*
X012106Y020550D01*
X012106Y020511D01*
X012119Y020434D01*
X012143Y020360D01*
X012178Y020291D01*
X012224Y020228D01*
X012279Y020172D01*
X012342Y020127D01*
X012175Y020296D02*
X008812Y020296D01*
X008812Y020454D02*
X012115Y020454D01*
X012106Y020550D02*
X012601Y020550D01*
X012601Y020550D01*
X012601Y021045D01*
X012562Y021045D01*
X012485Y021033D01*
X012411Y021009D01*
X012342Y020973D01*
X012279Y020928D01*
X012224Y020872D01*
X012178Y020809D01*
X012143Y020740D01*
X012119Y020666D01*
X012106Y020589D01*
X012106Y020550D01*
X012110Y020613D02*
X008812Y020613D01*
X008851Y020784D02*
X003601Y022300D01*
X003534Y022356D02*
X001411Y022356D01*
X001411Y022198D02*
X002978Y022198D01*
X002978Y022232D02*
X002978Y021833D01*
X002991Y021788D01*
X003014Y021747D01*
X003048Y021713D01*
X003089Y021689D01*
X003135Y021677D01*
X003534Y021677D01*
X003534Y022232D01*
X003669Y022232D01*
X003669Y021677D01*
X004068Y021677D01*
X004114Y021689D01*
X004155Y021713D01*
X004188Y021747D01*
X004212Y021788D01*
X004224Y021833D01*
X004224Y022232D01*
X003669Y022232D01*
X003669Y022368D01*
X003534Y022368D01*
X003534Y022923D01*
X003135Y022923D01*
X003089Y022911D01*
X003048Y022887D01*
X003014Y022853D01*
X002991Y022812D01*
X002978Y022767D01*
X002978Y022368D01*
X003534Y022368D01*
X003534Y022232D01*
X002978Y022232D01*
X002978Y022039D02*
X001411Y022039D01*
X001411Y021881D02*
X002978Y021881D01*
X003039Y021722D02*
X001411Y021722D01*
X001411Y021564D02*
X050101Y021564D01*
X050101Y021722D02*
X004164Y021722D01*
X004224Y021881D02*
X050101Y021881D01*
X050101Y022039D02*
X018904Y022039D01*
X018912Y022043D02*
X018987Y022098D01*
X019053Y022164D01*
X019108Y022239D01*
X019150Y022323D01*
X019179Y022411D01*
X019192Y022492D01*
X018659Y022492D01*
X018659Y021959D01*
X018740Y021972D01*
X018829Y022001D01*
X018912Y022043D01*
X019078Y022198D02*
X020986Y022198D01*
X020954Y022230D02*
X021047Y022136D01*
X021655Y022136D01*
X021749Y022230D01*
X021749Y022838D01*
X021655Y022932D01*
X021047Y022932D01*
X020954Y022838D01*
X020954Y022230D01*
X020954Y022356D02*
X019161Y022356D01*
X019192Y022608D02*
X018659Y022608D01*
X018544Y022608D01*
X018544Y023141D01*
X018463Y023128D01*
X018374Y023099D01*
X018291Y023057D01*
X018215Y023002D01*
X018149Y022936D01*
X018095Y022861D01*
X018052Y022777D01*
X018023Y022689D01*
X018011Y022608D01*
X018544Y022608D01*
X018544Y022492D01*
X018659Y022492D01*
X018659Y022608D01*
X018659Y023141D01*
X018740Y023128D01*
X018829Y023099D01*
X018912Y023057D01*
X018987Y023002D01*
X019053Y022936D01*
X019108Y022861D01*
X019150Y022777D01*
X019179Y022689D01*
X019192Y022608D01*
X019182Y022673D02*
X020954Y022673D01*
X020954Y022515D02*
X018659Y022515D01*
X018544Y022515D02*
X013174Y022515D01*
X013174Y022436D02*
X013087Y022226D01*
X012926Y022065D01*
X012715Y021978D01*
X012488Y021978D01*
X012277Y022065D01*
X012116Y022226D01*
X012029Y022436D01*
X012029Y022664D01*
X012116Y022874D01*
X012277Y023035D01*
X012488Y023122D01*
X012715Y023122D01*
X012926Y023035D01*
X013087Y022874D01*
X013174Y022664D01*
X013174Y022436D01*
X013141Y022356D02*
X018041Y022356D01*
X018052Y022323D02*
X018095Y022239D01*
X018149Y022164D01*
X018215Y022098D01*
X018291Y022043D01*
X018374Y022001D01*
X018463Y021972D01*
X018544Y021959D01*
X018544Y022492D01*
X018011Y022492D01*
X018023Y022411D01*
X018052Y022323D01*
X018125Y022198D02*
X013059Y022198D01*
X012864Y022039D02*
X018299Y022039D01*
X018544Y022039D02*
X018659Y022039D01*
X018659Y022198D02*
X018544Y022198D01*
X018544Y022356D02*
X018659Y022356D01*
X018659Y022673D02*
X018544Y022673D01*
X018544Y022832D02*
X018659Y022832D01*
X018659Y022990D02*
X018544Y022990D01*
X018203Y022990D02*
X012971Y022990D01*
X013104Y022832D02*
X018080Y022832D01*
X018021Y022673D02*
X013170Y022673D01*
X012232Y022990D02*
X002041Y022990D01*
X001883Y022832D02*
X003002Y022832D01*
X002978Y022673D02*
X001724Y022673D01*
X001566Y022515D02*
X002978Y022515D01*
X003534Y022515D02*
X003669Y022515D01*
X003669Y022368D02*
X003669Y022923D01*
X004068Y022923D01*
X004114Y022911D01*
X004155Y022887D01*
X004188Y022853D01*
X004212Y022812D01*
X004224Y022767D01*
X004224Y022368D01*
X003669Y022368D01*
X003669Y022356D02*
X007997Y022356D01*
X007997Y022357D02*
X007997Y022324D01*
X008007Y022259D01*
X008027Y022197D01*
X008057Y022138D01*
X008096Y022085D01*
X008142Y022038D01*
X008195Y022000D01*
X008254Y021970D01*
X008317Y021950D01*
X008381Y021939D01*
X008414Y021939D01*
X008414Y022357D01*
X007997Y022357D01*
X008414Y022357D01*
X008414Y022357D01*
X008414Y022357D01*
X008414Y022775D01*
X008381Y022775D01*
X008317Y022765D01*
X008254Y022744D01*
X008195Y022714D01*
X008142Y022676D01*
X008096Y022629D01*
X008057Y022576D01*
X008027Y022517D01*
X008007Y022455D01*
X007997Y022390D01*
X007997Y022357D01*
X008026Y022515D02*
X004224Y022515D01*
X004224Y022673D02*
X008139Y022673D01*
X008414Y022673D02*
X008414Y022673D01*
X008414Y022775D02*
X008414Y022357D01*
X008414Y022357D01*
X008414Y021939D01*
X008447Y021939D01*
X008512Y021950D01*
X008575Y021970D01*
X008633Y022000D01*
X008687Y022038D01*
X008733Y022085D01*
X008772Y022138D01*
X008802Y022197D01*
X008822Y022259D01*
X008832Y022324D01*
X008832Y022357D01*
X008414Y022357D01*
X008414Y022357D01*
X008832Y022357D01*
X008832Y022390D01*
X008822Y022455D01*
X008802Y022517D01*
X008772Y022576D01*
X008733Y022629D01*
X008687Y022676D01*
X008633Y022714D01*
X008575Y022744D01*
X008512Y022765D01*
X008447Y022775D01*
X008414Y022775D01*
X008414Y022515D02*
X008414Y022515D01*
X008414Y022356D02*
X008414Y022356D01*
X008414Y022198D02*
X008414Y022198D01*
X008414Y022039D02*
X008414Y022039D01*
X008142Y022039D02*
X004224Y022039D01*
X004224Y022198D02*
X008027Y022198D01*
X008687Y022039D02*
X012339Y022039D01*
X012144Y022198D02*
X008802Y022198D01*
X008832Y022356D02*
X012062Y022356D01*
X012029Y022515D02*
X008803Y022515D01*
X008689Y022673D02*
X012033Y022673D01*
X012098Y022832D02*
X004201Y022832D01*
X003669Y022832D02*
X003534Y022832D01*
X003534Y022673D02*
X003669Y022673D01*
X003669Y022198D02*
X003534Y022198D01*
X003534Y022039D02*
X003669Y022039D01*
X003669Y021881D02*
X003534Y021881D01*
X003534Y021722D02*
X003669Y021722D01*
X004111Y020903D02*
X003092Y020903D01*
X002998Y020809D01*
X002998Y019791D01*
X003092Y019697D01*
X004111Y019697D01*
X004204Y019791D01*
X004204Y020809D01*
X004111Y020903D01*
X004204Y020771D02*
X008095Y020771D01*
X008017Y020613D02*
X004204Y020613D01*
X004204Y020454D02*
X008017Y020454D01*
X008017Y020296D02*
X004204Y020296D01*
X004204Y020137D02*
X008017Y020137D01*
X008734Y020771D02*
X012158Y020771D01*
X012282Y020930D02*
X001411Y020930D01*
X001411Y021088D02*
X050101Y021088D01*
X050101Y020930D02*
X048558Y020930D01*
X048570Y020923D02*
X048512Y020953D01*
X048449Y020973D01*
X048384Y020984D01*
X048351Y020984D01*
X048318Y020984D01*
X048254Y020973D01*
X048191Y020953D01*
X048132Y020923D01*
X048079Y020884D01*
X048033Y020838D01*
X047994Y020785D01*
X047964Y020726D01*
X047944Y020664D01*
X047934Y020599D01*
X047934Y020566D01*
X048351Y020566D01*
X048351Y020566D01*
X048351Y020984D01*
X048351Y020566D01*
X048351Y020566D01*
X047934Y020566D01*
X047934Y020533D01*
X047944Y020468D01*
X047964Y020405D01*
X047994Y020347D01*
X048033Y020294D01*
X048079Y020247D01*
X048132Y020208D01*
X048191Y020179D01*
X048254Y020158D01*
X048318Y020148D01*
X048351Y020148D01*
X048351Y020566D01*
X048351Y020566D01*
X048769Y020566D01*
X048769Y020599D01*
X048759Y020664D01*
X048739Y020726D01*
X048709Y020785D01*
X048670Y020838D01*
X048624Y020884D01*
X048570Y020923D01*
X048716Y020771D02*
X050101Y020771D01*
X050101Y020613D02*
X048767Y020613D01*
X048769Y020566D02*
X048351Y020566D01*
X048351Y020566D01*
X048351Y020148D01*
X048384Y020148D01*
X048449Y020158D01*
X048512Y020179D01*
X048570Y020208D01*
X048624Y020247D01*
X048670Y020294D01*
X048709Y020347D01*
X048739Y020405D01*
X048759Y020468D01*
X048769Y020533D01*
X048769Y020566D01*
X048754Y020454D02*
X050101Y020454D01*
X050101Y020296D02*
X048671Y020296D01*
X048351Y020296D02*
X048351Y020296D01*
X048351Y020454D02*
X048351Y020454D01*
X048351Y020613D02*
X048351Y020613D01*
X048351Y020771D02*
X048351Y020771D01*
X048351Y020930D02*
X048351Y020930D01*
X048145Y020930D02*
X044058Y020930D01*
X044070Y020923D02*
X044012Y020953D01*
X043949Y020973D01*
X043884Y020984D01*
X043851Y020984D01*
X043818Y020984D01*
X043754Y020973D01*
X043691Y020953D01*
X043632Y020923D01*
X043579Y020884D01*
X043533Y020838D01*
X043494Y020785D01*
X043464Y020726D01*
X043444Y020664D01*
X043434Y020599D01*
X043434Y020566D01*
X043851Y020566D01*
X043851Y020566D01*
X043851Y020984D01*
X043851Y020566D01*
X043851Y020566D01*
X043434Y020566D01*
X043434Y020533D01*
X043444Y020468D01*
X043464Y020405D01*
X043494Y020347D01*
X043533Y020294D01*
X043579Y020247D01*
X043632Y020208D01*
X043691Y020179D01*
X043754Y020158D01*
X043818Y020148D01*
X043851Y020148D01*
X043851Y020566D01*
X043851Y020566D01*
X044269Y020566D01*
X044269Y020599D01*
X044259Y020664D01*
X044239Y020726D01*
X044209Y020785D01*
X044170Y020838D01*
X044124Y020884D01*
X044070Y020923D01*
X044216Y020771D02*
X047987Y020771D01*
X047936Y020613D02*
X044267Y020613D01*
X044269Y020566D02*
X043851Y020566D01*
X043851Y020566D01*
X043851Y020148D01*
X043884Y020148D01*
X043949Y020158D01*
X044012Y020179D01*
X044070Y020208D01*
X044124Y020247D01*
X044170Y020294D01*
X044209Y020347D01*
X044239Y020405D01*
X044259Y020468D01*
X044269Y020533D01*
X044269Y020566D01*
X044254Y020454D02*
X047948Y020454D01*
X048031Y020296D02*
X044171Y020296D01*
X043851Y020296D02*
X043851Y020296D01*
X043851Y020454D02*
X043851Y020454D01*
X043851Y020613D02*
X043851Y020613D01*
X043851Y020771D02*
X043851Y020771D01*
X043851Y020930D02*
X043851Y020930D01*
X043645Y020930D02*
X039558Y020930D01*
X039570Y020923D02*
X039512Y020953D01*
X039449Y020973D01*
X039384Y020984D01*
X039351Y020984D01*
X039318Y020984D01*
X039254Y020973D01*
X039191Y020953D01*
X039132Y020923D01*
X039079Y020884D01*
X039033Y020838D01*
X038994Y020785D01*
X038964Y020726D01*
X038944Y020664D01*
X038934Y020599D01*
X038934Y020566D01*
X039351Y020566D01*
X039351Y020566D01*
X039351Y020984D01*
X039351Y020566D01*
X039351Y020566D01*
X038934Y020566D01*
X038934Y020533D01*
X038944Y020468D01*
X038964Y020405D01*
X038994Y020347D01*
X039033Y020294D01*
X039079Y020247D01*
X039132Y020208D01*
X039191Y020179D01*
X039254Y020158D01*
X039318Y020148D01*
X039351Y020148D01*
X039351Y020566D01*
X039351Y020566D01*
X039769Y020566D01*
X039769Y020599D01*
X039759Y020664D01*
X039739Y020726D01*
X039709Y020785D01*
X039670Y020838D01*
X039624Y020884D01*
X039570Y020923D01*
X039716Y020771D02*
X043487Y020771D01*
X043436Y020613D02*
X039767Y020613D01*
X039769Y020566D02*
X039351Y020566D01*
X039351Y020566D01*
X039351Y020148D01*
X039384Y020148D01*
X039449Y020158D01*
X039512Y020179D01*
X039570Y020208D01*
X039624Y020247D01*
X039670Y020294D01*
X039709Y020347D01*
X039739Y020405D01*
X039759Y020468D01*
X039769Y020533D01*
X039769Y020566D01*
X039754Y020454D02*
X043448Y020454D01*
X043531Y020296D02*
X039671Y020296D01*
X039351Y020296D02*
X039351Y020296D01*
X039351Y020454D02*
X039351Y020454D01*
X039351Y020613D02*
X039351Y020613D01*
X039351Y020771D02*
X039351Y020771D01*
X039351Y020930D02*
X039351Y020930D01*
X039145Y020930D02*
X035058Y020930D01*
X035070Y020923D02*
X035012Y020953D01*
X034949Y020973D01*
X034884Y020984D01*
X034851Y020984D01*
X034818Y020984D01*
X034754Y020973D01*
X034691Y020953D01*
X034632Y020923D01*
X034579Y020884D01*
X034533Y020838D01*
X034494Y020785D01*
X034464Y020726D01*
X034444Y020664D01*
X034434Y020599D01*
X034434Y020566D01*
X034851Y020566D01*
X034851Y020566D01*
X034851Y020984D01*
X034851Y020566D01*
X034851Y020566D01*
X034434Y020566D01*
X034434Y020533D01*
X034444Y020468D01*
X034464Y020405D01*
X034494Y020347D01*
X034533Y020294D01*
X034579Y020247D01*
X034632Y020208D01*
X034691Y020179D01*
X034754Y020158D01*
X034818Y020148D01*
X034851Y020148D01*
X034851Y020566D01*
X034851Y020566D01*
X035269Y020566D01*
X035269Y020599D01*
X035259Y020664D01*
X035239Y020726D01*
X035209Y020785D01*
X035170Y020838D01*
X035124Y020884D01*
X035070Y020923D01*
X035216Y020771D02*
X038987Y020771D01*
X038936Y020613D02*
X035267Y020613D01*
X035269Y020566D02*
X034851Y020566D01*
X034851Y020566D01*
X034851Y020148D01*
X034884Y020148D01*
X034949Y020158D01*
X035012Y020179D01*
X035070Y020208D01*
X035124Y020247D01*
X035170Y020294D01*
X035209Y020347D01*
X035239Y020405D01*
X035259Y020468D01*
X035269Y020533D01*
X035269Y020566D01*
X035254Y020454D02*
X038948Y020454D01*
X039031Y020296D02*
X035171Y020296D01*
X034851Y020296D02*
X034851Y020296D01*
X034851Y020454D02*
X034851Y020454D01*
X034851Y020613D02*
X034851Y020613D01*
X034851Y020771D02*
X034851Y020771D01*
X034851Y020930D02*
X034851Y020930D01*
X034645Y020930D02*
X030558Y020930D01*
X030570Y020923D02*
X030512Y020953D01*
X030449Y020973D01*
X030384Y020984D01*
X030351Y020984D01*
X030318Y020984D01*
X030254Y020973D01*
X030191Y020953D01*
X030132Y020923D01*
X030079Y020884D01*
X030033Y020838D01*
X029994Y020785D01*
X029964Y020726D01*
X029944Y020664D01*
X029934Y020599D01*
X029934Y020566D01*
X030351Y020566D01*
X030351Y020566D01*
X030351Y020984D01*
X030351Y020566D01*
X030351Y020566D01*
X029934Y020566D01*
X029934Y020533D01*
X029944Y020468D01*
X029964Y020405D01*
X029994Y020347D01*
X030033Y020294D01*
X030079Y020247D01*
X030132Y020208D01*
X030191Y020179D01*
X030254Y020158D01*
X030318Y020148D01*
X030351Y020148D01*
X030351Y020566D01*
X030351Y020550D01*
X029851Y020550D01*
X029851Y018550D01*
X029851Y018050D01*
X029851Y017550D01*
X029851Y017050D01*
X028861Y016887D02*
X028861Y016713D01*
X028795Y016552D01*
X028672Y016429D01*
X028511Y016363D01*
X028337Y016363D01*
X028177Y016429D01*
X028054Y016552D01*
X027987Y016713D01*
X027987Y016887D01*
X028054Y017048D01*
X028177Y017171D01*
X028337Y017237D01*
X028511Y017237D01*
X028672Y017171D01*
X028795Y017048D01*
X028861Y016887D01*
X028861Y016809D02*
X035118Y016809D01*
X035110Y016829D02*
X035261Y016465D01*
X035540Y016186D01*
X035904Y016035D01*
X036299Y016035D01*
X036663Y016186D01*
X036942Y016465D01*
X037093Y016829D01*
X037093Y017224D01*
X036942Y017588D01*
X036663Y017867D01*
X036299Y018018D01*
X035904Y018018D01*
X035540Y017867D01*
X035261Y017588D01*
X035110Y017224D01*
X035110Y016829D01*
X035110Y016967D02*
X028828Y016967D01*
X028717Y017126D02*
X035110Y017126D01*
X035135Y017284D02*
X024174Y017284D01*
X024174Y017126D02*
X024837Y017126D01*
X024837Y016967D02*
X024022Y016967D01*
X024135Y016809D02*
X024837Y016809D01*
X024179Y016689D02*
X024192Y016608D01*
X023659Y016608D01*
X023659Y016492D01*
X024192Y016492D01*
X024154Y016333D02*
X035392Y016333D01*
X035249Y016492D02*
X028734Y016492D01*
X028835Y016650D02*
X035184Y016650D01*
X035566Y016175D02*
X024061Y016175D01*
X023945Y016016D02*
X038029Y016016D01*
X038029Y015858D02*
X024094Y015858D01*
X024159Y015699D02*
X030504Y015699D01*
X030525Y015720D02*
X030431Y015626D01*
X030431Y014974D01*
X030525Y014880D01*
X031178Y014880D01*
X031271Y014974D01*
X031271Y015626D01*
X031178Y015720D01*
X030525Y015720D01*
X030431Y015541D02*
X024174Y015541D01*
X024151Y015382D02*
X030431Y015382D01*
X030431Y015224D02*
X028453Y015224D01*
X028437Y015230D02*
X028266Y015230D01*
X028108Y015165D01*
X027987Y015044D01*
X027921Y014886D01*
X027921Y014714D01*
X027987Y014556D01*
X028108Y014435D01*
X028266Y014370D01*
X028437Y014370D01*
X028595Y014435D01*
X028716Y014556D01*
X028781Y014714D01*
X028781Y014886D01*
X028716Y015044D01*
X028595Y015165D01*
X028437Y015230D01*
X028250Y015224D02*
X025694Y015224D01*
X025781Y015065D02*
X028008Y015065D01*
X027930Y014907D02*
X025781Y014907D01*
X025781Y014748D02*
X027921Y014748D01*
X027973Y014590D02*
X025781Y014590D01*
X025749Y014431D02*
X028119Y014431D01*
X028057Y014114D02*
X025645Y014114D01*
X025752Y013956D02*
X027950Y013956D01*
X027921Y013797D02*
X025781Y013797D01*
X025750Y013639D02*
X027953Y013639D01*
X028063Y013480D02*
X025640Y013480D01*
X025596Y013163D02*
X028106Y013163D01*
X027971Y013005D02*
X025732Y013005D01*
X025781Y012846D02*
X027921Y012846D01*
X027933Y012688D02*
X025770Y012688D01*
X025689Y012529D02*
X028014Y012529D01*
X028169Y012212D02*
X025534Y012212D01*
X025356Y012054D02*
X025346Y012054D01*
X025346Y011895D02*
X025356Y011895D01*
X025346Y011737D02*
X025356Y011737D01*
X025346Y011578D02*
X025356Y011578D01*
X025346Y011420D02*
X025356Y011420D01*
X025437Y011230D02*
X025266Y011230D01*
X025108Y011165D01*
X024987Y011044D01*
X024921Y010886D01*
X024921Y010714D01*
X024987Y010556D01*
X025108Y010435D01*
X025266Y010370D01*
X025437Y010370D01*
X025595Y010435D01*
X025716Y010556D01*
X025781Y010714D01*
X025781Y010886D01*
X025716Y011044D01*
X025595Y011165D01*
X025437Y011230D01*
X025593Y011420D02*
X028109Y011420D01*
X027959Y011578D02*
X025743Y011578D01*
X025797Y011737D02*
X027906Y011737D01*
X027911Y011895D02*
X025792Y011895D01*
X025723Y012054D02*
X027979Y012054D01*
X028346Y011737D02*
X028356Y011737D01*
X028346Y011578D02*
X028356Y011578D01*
X028346Y011420D02*
X028356Y011420D01*
X028593Y011420D02*
X047998Y011420D01*
X047998Y011578D02*
X041210Y011578D01*
X041237Y011598D02*
X041162Y011543D01*
X041079Y011501D01*
X040990Y011472D01*
X040909Y011459D01*
X040909Y011992D01*
X040794Y011992D01*
X040794Y011459D01*
X040713Y011472D01*
X040624Y011501D01*
X040541Y011543D01*
X040465Y011598D01*
X040399Y011664D01*
X040345Y011739D01*
X040343Y011742D01*
X040337Y011726D01*
X040176Y011565D01*
X039965Y011478D01*
X039738Y011478D01*
X039527Y011565D01*
X039424Y011668D01*
X039424Y011571D01*
X039330Y011478D01*
X038373Y011478D01*
X038279Y011571D01*
X038279Y012529D01*
X037007Y012529D01*
X037165Y012688D02*
X042538Y012688D01*
X042511Y012715D02*
X042790Y012436D01*
X043154Y012285D01*
X043549Y012285D01*
X043913Y012436D01*
X044192Y012715D01*
X044343Y013079D01*
X044343Y013474D01*
X044192Y013838D01*
X043913Y014117D01*
X043549Y014268D01*
X043154Y014268D01*
X042790Y014117D01*
X042511Y013838D01*
X042360Y013474D01*
X042360Y013079D01*
X042511Y012715D01*
X042456Y012846D02*
X037247Y012846D01*
X037312Y013005D02*
X042390Y013005D01*
X042360Y013163D02*
X037343Y013163D01*
X037343Y013322D02*
X042360Y013322D01*
X042362Y013480D02*
X037341Y013480D01*
X037275Y013639D02*
X042428Y013639D01*
X042494Y013797D02*
X037209Y013797D01*
X037075Y013956D02*
X042628Y013956D01*
X042786Y014114D02*
X036916Y014114D01*
X035786Y014114D02*
X035271Y014114D01*
X035271Y014134D02*
X035207Y014288D01*
X035089Y014406D01*
X034935Y014470D01*
X034768Y014470D01*
X034613Y014406D01*
X034495Y014288D01*
X034431Y014134D01*
X034431Y013966D01*
X034495Y013812D01*
X034613Y013694D01*
X034768Y013630D01*
X034935Y013630D01*
X035089Y013694D01*
X035207Y013812D01*
X035271Y013966D01*
X035271Y014134D01*
X035214Y014273D02*
X045074Y014273D01*
X045116Y014374D02*
X045029Y014164D01*
X045029Y013936D01*
X045116Y013726D01*
X045277Y013565D01*
X045488Y013478D01*
X045715Y013478D01*
X045926Y013565D01*
X046087Y013726D01*
X046174Y013936D01*
X046174Y014164D01*
X046087Y014374D01*
X045926Y014535D01*
X045715Y014622D01*
X045488Y014622D01*
X045277Y014535D01*
X045116Y014374D01*
X045173Y014431D02*
X035029Y014431D01*
X034674Y014431D02*
X031217Y014431D01*
X031178Y014470D02*
X030525Y014470D01*
X030431Y014376D01*
X030431Y013724D01*
X030525Y013630D01*
X031178Y013630D01*
X031271Y013724D01*
X031271Y014376D01*
X031178Y014470D01*
X031271Y014273D02*
X034489Y014273D01*
X034431Y014114D02*
X031271Y014114D01*
X031271Y013956D02*
X034436Y013956D01*
X034510Y013797D02*
X031271Y013797D01*
X031186Y013639D02*
X034747Y013639D01*
X034955Y013639D02*
X035428Y013639D01*
X035494Y013797D02*
X035192Y013797D01*
X035267Y013956D02*
X035628Y013956D01*
X035089Y013156D02*
X034935Y013220D01*
X034768Y013220D01*
X034613Y013156D01*
X034495Y013038D01*
X034431Y012884D01*
X034431Y012716D01*
X034495Y012562D01*
X034613Y012444D01*
X034768Y012380D01*
X034935Y012380D01*
X035089Y012444D01*
X035207Y012562D01*
X035271Y012716D01*
X035271Y012884D01*
X035207Y013038D01*
X035089Y013156D01*
X035072Y013163D02*
X035360Y013163D01*
X035390Y013005D02*
X035221Y013005D01*
X035271Y012846D02*
X035456Y012846D01*
X035538Y012688D02*
X035259Y012688D01*
X035174Y012529D02*
X035696Y012529D01*
X035947Y012371D02*
X028438Y012371D01*
X028534Y012212D02*
X038279Y012212D01*
X038279Y012054D02*
X028723Y012054D01*
X028792Y011895D02*
X038279Y011895D01*
X038279Y011737D02*
X028797Y011737D01*
X028743Y011578D02*
X038279Y011578D01*
X039424Y011578D02*
X039514Y011578D01*
X040189Y011578D02*
X040493Y011578D01*
X040347Y011737D02*
X040341Y011737D01*
X040794Y011737D02*
X040909Y011737D01*
X040909Y011895D02*
X040794Y011895D01*
X040909Y011992D02*
X040909Y012108D01*
X040794Y012108D01*
X040794Y012641D01*
X040713Y012628D01*
X040624Y012599D01*
X040541Y012557D01*
X040465Y012502D01*
X040399Y012436D01*
X040345Y012361D01*
X040343Y012358D01*
X040337Y012374D01*
X040176Y012535D01*
X039965Y012622D01*
X039738Y012622D01*
X039527Y012535D01*
X039424Y012432D01*
X039424Y012529D01*
X039330Y012622D01*
X038373Y012622D01*
X038279Y012529D01*
X038279Y012371D02*
X036756Y012371D01*
X034528Y012529D02*
X031271Y012529D01*
X031271Y012688D02*
X034443Y012688D01*
X034431Y012846D02*
X031271Y012846D01*
X031271Y013005D02*
X034481Y013005D01*
X034630Y013163D02*
X031235Y013163D01*
X030517Y013639D02*
X028750Y013639D01*
X028781Y013797D02*
X030431Y013797D01*
X030431Y013956D02*
X028752Y013956D01*
X028645Y014114D02*
X030431Y014114D01*
X030431Y014273D02*
X018813Y014273D01*
X018495Y014273D02*
X018495Y014273D01*
X018495Y014114D02*
X018495Y014114D01*
X018495Y014050D02*
X018495Y014050D01*
X018177Y014273D02*
X006906Y014273D01*
X006925Y014291D02*
X006925Y015250D01*
X006831Y015344D01*
X005872Y015344D01*
X005778Y015250D01*
X005778Y014291D01*
X005872Y014197D01*
X006831Y014197D01*
X006925Y014291D01*
X006925Y014431D02*
X012954Y014431D01*
X012921Y014464D02*
X013015Y014370D01*
X013688Y014370D01*
X013781Y014464D01*
X013781Y015136D01*
X013688Y015230D01*
X013015Y015230D01*
X012921Y015136D01*
X012921Y014464D01*
X012921Y014590D02*
X006925Y014590D01*
X006925Y014748D02*
X012921Y014748D01*
X012921Y014907D02*
X006925Y014907D01*
X006925Y015065D02*
X012921Y015065D01*
X013009Y015224D02*
X006925Y015224D01*
X005778Y015224D02*
X001411Y015224D01*
X001411Y015065D02*
X005778Y015065D01*
X005778Y014907D02*
X001411Y014907D01*
X001411Y014748D02*
X005778Y014748D01*
X005778Y014590D02*
X001411Y014590D01*
X001411Y014431D02*
X005778Y014431D01*
X005796Y014273D02*
X001411Y014273D01*
X001411Y014114D02*
X008557Y014114D01*
X008608Y014165D02*
X008487Y014044D01*
X008421Y013886D01*
X008421Y013714D01*
X008487Y013556D01*
X008608Y013435D01*
X008766Y013370D01*
X008937Y013370D01*
X009095Y013435D01*
X009216Y013556D01*
X009281Y013714D01*
X009281Y013886D01*
X009216Y014044D01*
X009095Y014165D01*
X008937Y014230D01*
X008766Y014230D01*
X008608Y014165D01*
X008450Y013956D02*
X001411Y013956D01*
X001411Y013797D02*
X002191Y013797D01*
X002256Y013834D02*
X002003Y013688D01*
X001796Y013482D01*
X001650Y013228D01*
X001574Y012946D01*
X001574Y012654D01*
X001650Y012372D01*
X001796Y012118D01*
X002003Y011912D01*
X002256Y011766D01*
X002538Y011690D01*
X002830Y011690D01*
X003112Y011766D01*
X003366Y011912D01*
X003572Y012118D01*
X003718Y012372D01*
X003794Y012654D01*
X003794Y012946D01*
X003718Y013228D01*
X003572Y013482D01*
X003366Y013688D01*
X003112Y013834D01*
X002830Y013910D01*
X002538Y013910D01*
X002256Y013834D01*
X001953Y013639D02*
X001411Y013639D01*
X001411Y013480D02*
X001795Y013480D01*
X001704Y013322D02*
X001411Y013322D01*
X001411Y013163D02*
X001632Y013163D01*
X001590Y013005D02*
X001411Y013005D01*
X001411Y012846D02*
X001574Y012846D01*
X001574Y012688D02*
X001411Y012688D01*
X001411Y012529D02*
X001608Y012529D01*
X001650Y012371D02*
X001411Y012371D01*
X001411Y012212D02*
X001742Y012212D01*
X001861Y012054D02*
X001411Y012054D01*
X001411Y011895D02*
X002032Y011895D01*
X002365Y011737D02*
X001411Y011737D01*
X001411Y011578D02*
X004816Y011578D01*
X004797Y011559D02*
X004727Y011391D01*
X004727Y011209D01*
X004797Y011041D01*
X004925Y010913D01*
X005093Y010843D01*
X005275Y010843D01*
X005443Y010913D01*
X005571Y011041D01*
X005641Y011209D01*
X005641Y011391D01*
X005571Y011559D01*
X005443Y011687D01*
X005275Y011757D01*
X005093Y011757D01*
X004925Y011687D01*
X004797Y011559D01*
X004739Y011420D02*
X001411Y011420D01*
X001411Y011261D02*
X004727Y011261D01*
X004771Y011103D02*
X001411Y011103D01*
X001411Y010944D02*
X004894Y010944D01*
X004925Y010687D02*
X004797Y010559D01*
X004727Y010391D01*
X004727Y010209D01*
X004797Y010041D01*
X004925Y009913D01*
X005093Y009843D01*
X005275Y009843D01*
X005443Y009913D01*
X005571Y010041D01*
X005641Y010209D01*
X005641Y010391D01*
X005571Y010559D01*
X005443Y010687D01*
X005275Y010757D01*
X005093Y010757D01*
X004925Y010687D01*
X004865Y010627D02*
X001411Y010627D01*
X001411Y010469D02*
X004759Y010469D01*
X004727Y010310D02*
X001411Y010310D01*
X001411Y010152D02*
X004751Y010152D01*
X004845Y009993D02*
X001411Y009993D01*
X001411Y009835D02*
X005727Y009835D01*
X005741Y009676D02*
X005478Y009676D01*
X005495Y009664D02*
X005434Y009708D01*
X005367Y009742D01*
X005296Y009765D01*
X005222Y009777D01*
X005202Y009777D01*
X005202Y009318D01*
X005166Y009318D01*
X005166Y009282D01*
X004707Y009282D01*
X004707Y009262D01*
X004719Y009188D01*
X004742Y009117D01*
X004776Y009050D01*
X004820Y008989D01*
X004873Y008936D01*
X004934Y008892D01*
X005001Y008858D01*
X005072Y008835D01*
X005147Y008823D01*
X005166Y008823D01*
X005166Y009282D01*
X005202Y009282D01*
X005202Y008823D01*
X005222Y008823D01*
X005296Y008835D01*
X005367Y008858D01*
X005434Y008892D01*
X005495Y008936D01*
X005548Y008989D01*
X005592Y009050D01*
X005626Y009117D01*
X005649Y009188D01*
X005661Y009262D01*
X005661Y009282D01*
X005202Y009282D01*
X005202Y009318D01*
X005661Y009318D01*
X005661Y009338D01*
X005649Y009412D01*
X005626Y009483D01*
X005592Y009550D01*
X005548Y009611D01*
X005495Y009664D01*
X005608Y009518D02*
X005820Y009518D01*
X005658Y009359D02*
X006055Y009359D01*
X006072Y009265D02*
X006001Y009242D01*
X005934Y009208D01*
X005873Y009164D01*
X005820Y009111D01*
X005776Y009050D01*
X005742Y008983D01*
X005719Y008912D01*
X005707Y008838D01*
X005707Y008818D01*
X006166Y008818D01*
X006166Y008782D01*
X005707Y008782D01*
X005707Y008762D01*
X005719Y008688D01*
X005742Y008617D01*
X005776Y008550D01*
X005820Y008489D01*
X005873Y008436D01*
X005934Y008392D01*
X006001Y008358D01*
X006072Y008335D01*
X006147Y008323D01*
X006166Y008323D01*
X006166Y008782D01*
X006202Y008782D01*
X006202Y008323D01*
X006222Y008323D01*
X006296Y008335D01*
X006367Y008358D01*
X006434Y008392D01*
X006495Y008436D01*
X006548Y008489D01*
X006592Y008550D01*
X006626Y008617D01*
X006649Y008688D01*
X006661Y008762D01*
X006661Y008782D01*
X006202Y008782D01*
X006202Y008818D01*
X006166Y008818D01*
X006166Y009277D01*
X006147Y009277D01*
X006072Y009265D01*
X006166Y009201D02*
X006202Y009201D01*
X006202Y009277D02*
X006202Y008818D01*
X006661Y008818D01*
X006661Y008838D01*
X006649Y008912D01*
X006626Y008983D01*
X006592Y009050D01*
X006548Y009111D01*
X006495Y009164D01*
X006434Y009208D01*
X006367Y009242D01*
X006296Y009265D01*
X006222Y009277D01*
X006202Y009277D01*
X006202Y009042D02*
X006166Y009042D01*
X006166Y008884D02*
X006202Y008884D01*
X006202Y008725D02*
X006166Y008725D01*
X006166Y008567D02*
X006202Y008567D01*
X006202Y008408D02*
X006166Y008408D01*
X005912Y008408D02*
X003794Y008408D01*
X003794Y008250D02*
X013313Y008250D01*
X013346Y008250D02*
X013356Y008250D01*
X013437Y008370D02*
X013595Y008435D01*
X013716Y008556D01*
X013781Y008714D01*
X013781Y008886D01*
X013716Y009044D01*
X013595Y009165D01*
X013437Y009230D01*
X013266Y009230D01*
X013108Y009165D01*
X012987Y009044D01*
X012921Y008886D01*
X012921Y008714D01*
X012987Y008556D01*
X013108Y008435D01*
X013266Y008370D01*
X013437Y008370D01*
X013529Y008408D02*
X016129Y008408D01*
X016116Y008415D02*
X016179Y008383D01*
X016246Y008361D01*
X016316Y008350D01*
X016346Y008350D01*
X016346Y008795D01*
X015901Y008795D01*
X015901Y008765D01*
X015912Y008695D01*
X015934Y008627D01*
X015967Y008564D01*
X016008Y008507D01*
X016058Y008457D01*
X016116Y008415D01*
X015965Y008567D02*
X013720Y008567D01*
X013781Y008725D02*
X015908Y008725D01*
X015901Y008805D02*
X016346Y008805D01*
X016346Y008795D01*
X016356Y008795D01*
X016356Y008350D01*
X016387Y008350D01*
X016457Y008361D01*
X016524Y008383D01*
X016587Y008415D01*
X016645Y008457D01*
X016695Y008507D01*
X016736Y008564D01*
X016768Y008627D01*
X016790Y008695D01*
X016801Y008765D01*
X016801Y008795D01*
X016356Y008795D01*
X016356Y008805D01*
X016346Y008805D01*
X016346Y009250D01*
X016316Y009250D01*
X016246Y009239D01*
X016179Y009217D01*
X016116Y009185D01*
X016058Y009143D01*
X016008Y009093D01*
X015967Y009036D01*
X015934Y008973D01*
X015912Y008905D01*
X015901Y008835D01*
X015901Y008805D01*
X015909Y008884D02*
X013781Y008884D01*
X013717Y009042D02*
X015971Y009042D01*
X016146Y009201D02*
X013508Y009201D01*
X013195Y009201D02*
X006444Y009201D01*
X006596Y009042D02*
X012986Y009042D01*
X012921Y008884D02*
X006654Y008884D01*
X006655Y008725D02*
X012921Y008725D01*
X012983Y008567D02*
X006600Y008567D01*
X006456Y008408D02*
X013174Y008408D01*
X015987Y009556D02*
X016108Y009435D01*
X016266Y009370D01*
X016437Y009370D01*
X016595Y009435D01*
X016716Y009556D01*
X016781Y009714D01*
X016781Y009886D01*
X016716Y010044D01*
X016595Y010165D01*
X016437Y010230D01*
X016266Y010230D01*
X016108Y010165D01*
X015987Y010044D01*
X015921Y009886D01*
X015921Y009714D01*
X015987Y009556D01*
X016026Y009518D02*
X013677Y009518D01*
X013765Y009676D02*
X015937Y009676D01*
X015921Y009835D02*
X013781Y009835D01*
X013737Y009993D02*
X015966Y009993D01*
X016095Y010152D02*
X013608Y010152D01*
X013628Y010469D02*
X016075Y010469D01*
X016108Y010435D02*
X016266Y010370D01*
X016437Y010370D01*
X016595Y010435D01*
X016716Y010556D01*
X016781Y010714D01*
X016781Y010886D01*
X016716Y011044D01*
X016595Y011165D01*
X016437Y011230D01*
X016266Y011230D01*
X016108Y011165D01*
X015987Y011044D01*
X015921Y010886D01*
X015921Y010714D01*
X015987Y010556D01*
X016108Y010435D01*
X015958Y010627D02*
X013745Y010627D01*
X013781Y010786D02*
X015921Y010786D01*
X015946Y010944D02*
X013757Y010944D01*
X013657Y011103D02*
X016046Y011103D01*
X016146Y011420D02*
X013556Y011420D01*
X013725Y011578D02*
X015978Y011578D01*
X015987Y011556D02*
X016108Y011435D01*
X016266Y011370D01*
X016437Y011370D01*
X016595Y011435D01*
X016716Y011556D01*
X016781Y011714D01*
X016781Y011886D01*
X016716Y012044D01*
X016595Y012165D01*
X016437Y012230D01*
X016266Y012230D01*
X016108Y012165D01*
X015987Y012044D01*
X015921Y011886D01*
X015921Y011714D01*
X015987Y011556D01*
X015921Y011737D02*
X013781Y011737D01*
X013777Y011895D02*
X015925Y011895D01*
X015997Y012054D02*
X013706Y012054D01*
X013480Y012212D02*
X016222Y012212D01*
X016266Y012370D02*
X016437Y012370D01*
X016595Y012435D01*
X016716Y012556D01*
X016781Y012714D01*
X016781Y012886D01*
X016716Y013044D01*
X016595Y013165D01*
X016437Y013230D01*
X016266Y013230D01*
X016108Y013165D01*
X015987Y013044D01*
X015921Y012886D01*
X015921Y012714D01*
X015987Y012556D01*
X016108Y012435D01*
X016266Y012370D01*
X016265Y012371D02*
X013438Y012371D01*
X013689Y012529D02*
X016014Y012529D01*
X015933Y012688D02*
X013770Y012688D01*
X013781Y012846D02*
X015921Y012846D01*
X015971Y013005D02*
X013732Y013005D01*
X013596Y013163D02*
X016106Y013163D01*
X016266Y013370D02*
X016437Y013370D01*
X016595Y013435D01*
X016716Y013556D01*
X016781Y013714D01*
X016781Y013886D01*
X016716Y014044D01*
X016595Y014165D01*
X016437Y014230D01*
X016266Y014230D01*
X016108Y014165D01*
X015987Y014044D01*
X015921Y013886D01*
X015921Y013714D01*
X015987Y013556D01*
X016108Y013435D01*
X016266Y013370D01*
X016063Y013480D02*
X013640Y013480D01*
X013595Y013435D02*
X013716Y013556D01*
X013781Y013714D01*
X013781Y013886D01*
X013716Y014044D01*
X013595Y014165D01*
X013437Y014230D01*
X013266Y014230D01*
X013108Y014165D01*
X012987Y014044D01*
X012921Y013886D01*
X012921Y013714D01*
X012987Y013556D01*
X013108Y013435D01*
X013266Y013370D01*
X013437Y013370D01*
X013595Y013435D01*
X013750Y013639D02*
X015953Y013639D01*
X015921Y013797D02*
X013781Y013797D01*
X013752Y013956D02*
X015950Y013956D01*
X016057Y014114D02*
X013645Y014114D01*
X013749Y014431D02*
X016119Y014431D01*
X015973Y014590D02*
X013781Y014590D01*
X013781Y014748D02*
X015921Y014748D01*
X015930Y014907D02*
X013781Y014907D01*
X013781Y015065D02*
X016008Y015065D01*
X016250Y015224D02*
X013694Y015224D01*
X012024Y014217D02*
X011957Y014239D01*
X011887Y014250D01*
X011856Y014250D01*
X011856Y013805D01*
X011846Y013805D01*
X011846Y013795D01*
X011401Y013795D01*
X011401Y013765D01*
X011412Y013695D01*
X011434Y013627D01*
X011467Y013564D01*
X011508Y013507D01*
X011558Y013457D01*
X011616Y013415D01*
X011679Y013383D01*
X011746Y013361D01*
X011816Y013350D01*
X011846Y013350D01*
X011846Y013795D01*
X011856Y013795D01*
X011856Y013350D01*
X011887Y013350D01*
X011957Y013361D01*
X012024Y013383D01*
X012087Y013415D01*
X012145Y013457D01*
X012195Y013507D01*
X012236Y013564D01*
X012268Y013627D01*
X012290Y013695D01*
X012301Y013765D01*
X012301Y013795D01*
X011856Y013795D01*
X011856Y013805D01*
X012301Y013805D01*
X012301Y013835D01*
X012290Y013905D01*
X012268Y013973D01*
X012236Y014036D01*
X012195Y014093D01*
X012145Y014143D01*
X012087Y014185D01*
X012024Y014217D01*
X011846Y014250D02*
X011816Y014250D01*
X011746Y014239D01*
X011679Y014217D01*
X011616Y014185D01*
X011558Y014143D01*
X011508Y014093D01*
X011467Y014036D01*
X011434Y013973D01*
X011412Y013905D01*
X011401Y013835D01*
X011401Y013805D01*
X011846Y013805D01*
X011846Y014250D01*
X011846Y014114D02*
X011856Y014114D01*
X011846Y013956D02*
X011856Y013956D01*
X011856Y013797D02*
X012921Y013797D01*
X012950Y013956D02*
X012274Y013956D01*
X012174Y014114D02*
X013057Y014114D01*
X011846Y013797D02*
X009281Y013797D01*
X009252Y013956D02*
X011429Y013956D01*
X011529Y014114D02*
X009145Y014114D01*
X008421Y013797D02*
X003177Y013797D01*
X003415Y013639D02*
X008453Y013639D01*
X008563Y013480D02*
X003573Y013480D01*
X003665Y013322D02*
X018203Y013322D01*
X018143Y013163D02*
X016596Y013163D01*
X016732Y013005D02*
X018127Y013005D01*
X018181Y012846D02*
X016781Y012846D01*
X016770Y012688D02*
X018408Y012688D01*
X018582Y012688D02*
X022943Y012688D01*
X022931Y012716D02*
X022995Y012562D01*
X023113Y012444D01*
X023268Y012380D01*
X023435Y012380D01*
X023589Y012444D01*
X023707Y012562D01*
X023771Y012716D01*
X023771Y012884D01*
X023707Y013038D01*
X023589Y013156D01*
X023435Y013220D01*
X023268Y013220D01*
X023113Y013156D01*
X022995Y013038D01*
X022931Y012884D01*
X022931Y012716D01*
X022931Y012846D02*
X018809Y012846D01*
X018863Y013005D02*
X022981Y013005D01*
X023130Y013163D02*
X018847Y013163D01*
X018127Y013480D02*
X016640Y013480D01*
X016750Y013639D02*
X018133Y013639D01*
X018199Y013797D02*
X016781Y013797D01*
X016752Y013956D02*
X018118Y013956D01*
X018112Y014114D02*
X016645Y014114D01*
X016689Y012529D02*
X023028Y012529D01*
X023674Y012529D02*
X025014Y012529D01*
X024933Y012688D02*
X023759Y012688D01*
X023771Y012846D02*
X024921Y012846D01*
X024971Y013005D02*
X023721Y013005D01*
X023572Y013163D02*
X025106Y013163D01*
X025265Y012371D02*
X016438Y012371D01*
X016480Y012212D02*
X017267Y012212D01*
X017275Y012220D02*
X017181Y012126D01*
X017181Y011474D01*
X017275Y011380D01*
X017928Y011380D01*
X018021Y011474D01*
X018021Y012126D01*
X017928Y012220D01*
X017275Y012220D01*
X017181Y012054D02*
X016706Y012054D01*
X016777Y011895D02*
X017181Y011895D01*
X017181Y011737D02*
X016781Y011737D01*
X016725Y011578D02*
X017181Y011578D01*
X017236Y011420D02*
X016556Y011420D01*
X016657Y011103D02*
X018546Y011103D01*
X018446Y010944D02*
X016757Y010944D01*
X016781Y010786D02*
X018421Y010786D01*
X018458Y010627D02*
X016745Y010627D01*
X016628Y010469D02*
X018575Y010469D01*
X018570Y010152D02*
X016608Y010152D01*
X016737Y009993D02*
X018445Y009993D01*
X018401Y009835D02*
X016781Y009835D01*
X016765Y009676D02*
X018419Y009676D01*
X018500Y009518D02*
X016677Y009518D01*
X016524Y009217D02*
X016457Y009239D01*
X016387Y009250D01*
X016356Y009250D01*
X016356Y008805D01*
X016801Y008805D01*
X016801Y008835D01*
X016790Y008905D01*
X016768Y008973D01*
X016736Y009036D01*
X016695Y009093D01*
X016645Y009143D01*
X016587Y009185D01*
X016524Y009217D01*
X016557Y009201D02*
X018695Y009201D01*
X018486Y009042D02*
X016732Y009042D01*
X016794Y008884D02*
X018421Y008884D01*
X018421Y008725D02*
X016795Y008725D01*
X016737Y008567D02*
X018483Y008567D01*
X018674Y008408D02*
X016573Y008408D01*
X016356Y008408D02*
X016346Y008408D01*
X016346Y008567D02*
X016356Y008567D01*
X016346Y008725D02*
X016356Y008725D01*
X016346Y008884D02*
X016356Y008884D01*
X016346Y009042D02*
X016356Y009042D01*
X016346Y009201D02*
X016356Y009201D01*
X019029Y008408D02*
X021629Y008408D01*
X021846Y008408D02*
X021856Y008408D01*
X021846Y008567D02*
X021856Y008567D01*
X021846Y008725D02*
X021856Y008725D01*
X021846Y008884D02*
X021856Y008884D01*
X021846Y009042D02*
X021856Y009042D01*
X021471Y009042D02*
X019217Y009042D01*
X019281Y008884D02*
X021409Y008884D01*
X021408Y008725D02*
X019281Y008725D01*
X019220Y008567D02*
X021465Y008567D01*
X021526Y009518D02*
X019202Y009518D01*
X019284Y009676D02*
X021437Y009676D01*
X021421Y009835D02*
X019301Y009835D01*
X019258Y009993D02*
X021466Y009993D01*
X021595Y010152D02*
X019133Y010152D01*
X022108Y010152D02*
X025095Y010152D01*
X025108Y010165D02*
X024987Y010044D01*
X024921Y009886D01*
X024921Y009714D01*
X024987Y009556D01*
X025108Y009435D01*
X025266Y009370D01*
X025437Y009370D01*
X025595Y009435D01*
X025716Y009556D01*
X025781Y009714D01*
X025781Y009886D01*
X025716Y010044D01*
X025595Y010165D01*
X025437Y010230D01*
X025266Y010230D01*
X025108Y010165D01*
X024966Y009993D02*
X022237Y009993D01*
X022281Y009835D02*
X024921Y009835D01*
X024937Y009676D02*
X022265Y009676D01*
X022177Y009518D02*
X025026Y009518D01*
X025108Y009165D02*
X025266Y009230D01*
X025437Y009230D01*
X025595Y009165D01*
X025716Y009044D01*
X025781Y008886D01*
X025781Y008714D01*
X025716Y008556D01*
X025595Y008435D01*
X025437Y008370D01*
X025266Y008370D01*
X025108Y008435D01*
X024987Y008556D01*
X024921Y008714D01*
X024921Y008886D01*
X024987Y009044D01*
X025108Y009165D01*
X025195Y009201D02*
X023697Y009201D01*
X023771Y009042D02*
X024986Y009042D01*
X024921Y008884D02*
X023771Y008884D01*
X023771Y008725D02*
X024921Y008725D01*
X024983Y008567D02*
X023771Y008567D01*
X023706Y008408D02*
X025174Y008408D01*
X025529Y008408D02*
X028129Y008408D01*
X028346Y008408D02*
X028356Y008408D01*
X028346Y008567D02*
X028356Y008567D01*
X028346Y008725D02*
X028356Y008725D01*
X028346Y008805D02*
X027901Y008805D01*
X027901Y008835D01*
X027912Y008905D01*
X027934Y008973D01*
X027967Y009036D01*
X028008Y009093D01*
X028058Y009143D01*
X028116Y009185D01*
X028179Y009217D01*
X028246Y009239D01*
X028316Y009250D01*
X028346Y009250D01*
X028346Y008805D01*
X028346Y008884D02*
X028356Y008884D01*
X028346Y009042D02*
X028356Y009042D01*
X028346Y009201D02*
X028356Y009201D01*
X028437Y009370D02*
X028266Y009370D01*
X028108Y009435D01*
X027987Y009556D01*
X027921Y009714D01*
X027921Y009886D01*
X027987Y010044D01*
X028108Y010165D01*
X028266Y010230D01*
X028437Y010230D01*
X028595Y010165D01*
X028716Y010044D01*
X028781Y009886D01*
X028781Y009714D01*
X028716Y009556D01*
X028595Y009435D01*
X028437Y009370D01*
X028677Y009518D02*
X035360Y009518D01*
X035360Y009676D02*
X028765Y009676D01*
X028781Y009835D02*
X035405Y009835D01*
X035471Y009993D02*
X028737Y009993D01*
X028608Y010152D02*
X035574Y010152D01*
X035732Y010310D02*
X005641Y010310D01*
X005617Y010152D02*
X005889Y010152D01*
X005770Y009993D02*
X005523Y009993D01*
X005166Y009777D02*
X005147Y009777D01*
X005072Y009765D01*
X005001Y009742D01*
X004934Y009708D01*
X004873Y009664D01*
X004820Y009611D01*
X004776Y009550D01*
X004742Y009483D01*
X004719Y009412D01*
X004707Y009338D01*
X004707Y009318D01*
X005166Y009318D01*
X005166Y009777D01*
X005166Y009676D02*
X005202Y009676D01*
X005202Y009518D02*
X005166Y009518D01*
X005166Y009359D02*
X005202Y009359D01*
X005202Y009201D02*
X005166Y009201D01*
X005166Y009042D02*
X005202Y009042D01*
X005202Y008884D02*
X005166Y008884D01*
X004951Y008884D02*
X003629Y008884D01*
X003719Y008725D02*
X005713Y008725D01*
X005714Y008884D02*
X005417Y008884D01*
X005586Y009042D02*
X005772Y009042D01*
X005651Y009201D02*
X005924Y009201D01*
X005768Y008567D02*
X003762Y008567D01*
X003512Y009042D02*
X004782Y009042D01*
X004717Y009201D02*
X003344Y009201D01*
X003020Y009359D02*
X004711Y009359D01*
X004760Y009518D02*
X001411Y009518D01*
X001411Y009676D02*
X004890Y009676D01*
X005609Y010469D02*
X005869Y010469D01*
X005925Y010413D02*
X005797Y010541D01*
X005727Y010709D01*
X005727Y010891D01*
X005797Y011059D01*
X005925Y011187D01*
X006093Y011257D01*
X006275Y011257D01*
X006443Y011187D01*
X006571Y011059D01*
X006641Y010891D01*
X006641Y010709D01*
X006571Y010541D01*
X006443Y010413D01*
X006275Y010343D01*
X006093Y010343D01*
X005925Y010413D01*
X005761Y010627D02*
X005503Y010627D01*
X005727Y010786D02*
X001411Y010786D01*
X003003Y011737D02*
X005044Y011737D01*
X005093Y011843D02*
X005275Y011843D01*
X005443Y011913D01*
X005571Y012041D01*
X005641Y012209D01*
X005641Y012391D01*
X005571Y012559D01*
X005443Y012687D01*
X005275Y012757D01*
X005093Y012757D01*
X004925Y012687D01*
X004797Y012559D01*
X004727Y012391D01*
X004727Y012209D01*
X004797Y012041D01*
X004925Y011913D01*
X005093Y011843D01*
X004968Y011895D02*
X003336Y011895D01*
X003507Y012054D02*
X004792Y012054D01*
X004727Y012212D02*
X003626Y012212D01*
X003718Y012371D02*
X004727Y012371D01*
X004784Y012529D02*
X003761Y012529D01*
X003794Y012688D02*
X004926Y012688D01*
X005442Y012688D02*
X008433Y012688D01*
X008421Y012846D02*
X003794Y012846D01*
X003778Y013005D02*
X008471Y013005D01*
X008606Y013163D02*
X003736Y013163D01*
X005584Y012529D02*
X008514Y012529D01*
X008765Y012371D02*
X005641Y012371D01*
X005641Y012212D02*
X005985Y012212D01*
X005925Y012187D02*
X005797Y012059D01*
X005727Y011891D01*
X005727Y011709D01*
X005797Y011541D01*
X005925Y011413D01*
X006093Y011343D01*
X006275Y011343D01*
X006443Y011413D01*
X006571Y011541D01*
X006641Y011709D01*
X006641Y011891D01*
X006571Y012059D01*
X006443Y012187D01*
X006275Y012257D01*
X006093Y012257D01*
X005925Y012187D01*
X005795Y012054D02*
X005576Y012054D01*
X005729Y011895D02*
X005400Y011895D01*
X005324Y011737D02*
X005727Y011737D01*
X005782Y011578D02*
X005552Y011578D01*
X005629Y011420D02*
X005918Y011420D01*
X005641Y011261D02*
X047998Y011261D01*
X047998Y011103D02*
X028657Y011103D01*
X028757Y010944D02*
X050101Y010944D01*
X050101Y010786D02*
X028781Y010786D01*
X028075Y010469D02*
X025628Y010469D01*
X025745Y010627D02*
X027958Y010627D01*
X027921Y010786D02*
X025781Y010786D01*
X025757Y010944D02*
X027946Y010944D01*
X028046Y011103D02*
X025657Y011103D01*
X025046Y011103D02*
X022157Y011103D01*
X022257Y010944D02*
X024946Y010944D01*
X024921Y010786D02*
X022281Y010786D01*
X022245Y010627D02*
X024958Y010627D01*
X025075Y010469D02*
X022128Y010469D01*
X022056Y011420D02*
X025109Y011420D01*
X024959Y011578D02*
X022225Y011578D01*
X022281Y011737D02*
X024906Y011737D01*
X024911Y011895D02*
X022277Y011895D01*
X022206Y012054D02*
X024979Y012054D01*
X022101Y013050D02*
X021601Y013050D01*
X021601Y013300D01*
X018846Y012250D02*
X018558Y012250D01*
X018512Y012238D01*
X018471Y012214D01*
X018437Y012181D01*
X018414Y012139D01*
X018401Y012094D01*
X018401Y011805D01*
X018846Y011805D01*
X018846Y012250D01*
X018846Y012212D02*
X018856Y012212D01*
X018846Y012054D02*
X018856Y012054D01*
X018846Y011895D02*
X018856Y011895D01*
X018846Y011737D02*
X018856Y011737D01*
X018846Y011578D02*
X018856Y011578D01*
X018846Y011420D02*
X018856Y011420D01*
X018437Y011420D02*
X017967Y011420D01*
X018021Y011578D02*
X018401Y011578D01*
X018401Y011737D02*
X018021Y011737D01*
X018021Y011895D02*
X018401Y011895D01*
X018401Y012054D02*
X018021Y012054D01*
X017936Y012212D02*
X018469Y012212D01*
X021710Y014590D02*
X024921Y014590D01*
X024921Y014748D02*
X021710Y014748D01*
X023277Y015065D02*
X023488Y014978D01*
X023715Y014978D01*
X023926Y015065D01*
X024085Y015224D02*
X025009Y015224D01*
X025712Y016492D02*
X028114Y016492D01*
X028013Y016650D02*
X025712Y016650D01*
X025712Y016809D02*
X027987Y016809D01*
X028020Y016967D02*
X025712Y016967D01*
X025712Y017126D02*
X028131Y017126D01*
X031199Y015699D02*
X034717Y015699D01*
X034768Y015720D02*
X034613Y015656D01*
X034495Y015538D01*
X034431Y015384D01*
X034431Y015216D01*
X034495Y015062D01*
X034613Y014944D01*
X034768Y014880D01*
X034935Y014880D01*
X035089Y014944D01*
X035207Y015062D01*
X035271Y015216D01*
X035271Y015384D01*
X035207Y015538D01*
X035089Y015656D01*
X034935Y015720D01*
X034768Y015720D01*
X034986Y015699D02*
X038029Y015699D01*
X038029Y015541D02*
X035205Y015541D01*
X035271Y015382D02*
X038029Y015382D01*
X038029Y015321D02*
X038123Y015228D01*
X039080Y015228D01*
X039174Y015321D01*
X039174Y015418D01*
X039277Y015315D01*
X039488Y015228D01*
X039715Y015228D01*
X039926Y015315D01*
X040087Y015476D01*
X040101Y015511D01*
X040116Y015476D01*
X040277Y015315D01*
X040488Y015228D01*
X040715Y015228D01*
X040926Y015315D01*
X041087Y015476D01*
X041174Y015686D01*
X041174Y015914D01*
X041087Y016124D01*
X040926Y016285D01*
X040715Y016372D01*
X040488Y016372D01*
X040277Y016285D01*
X040116Y016124D01*
X040101Y016089D01*
X040087Y016124D01*
X039926Y016285D01*
X039715Y016372D01*
X039488Y016372D01*
X039277Y016285D01*
X039174Y016182D01*
X039174Y016279D01*
X039080Y016372D01*
X038123Y016372D01*
X038029Y016279D01*
X038029Y015321D01*
X039174Y015382D02*
X039210Y015382D01*
X039993Y015382D02*
X040210Y015382D01*
X040993Y015382D02*
X050101Y015382D01*
X050101Y015224D02*
X035271Y015224D01*
X035209Y015065D02*
X050101Y015065D01*
X050101Y014907D02*
X034999Y014907D01*
X034704Y014907D02*
X031204Y014907D01*
X031271Y015065D02*
X034494Y015065D01*
X034431Y015224D02*
X031271Y015224D01*
X031271Y015382D02*
X034431Y015382D01*
X034498Y015541D02*
X031271Y015541D01*
X030431Y015065D02*
X028694Y015065D01*
X028773Y014907D02*
X030499Y014907D01*
X030486Y014431D02*
X028584Y014431D01*
X028730Y014590D02*
X045408Y014590D01*
X045795Y014590D02*
X048590Y014590D01*
X048623Y014622D02*
X048529Y014529D01*
X048529Y013571D01*
X048623Y013478D01*
X049580Y013478D01*
X049674Y013571D01*
X049674Y014529D01*
X049580Y014622D01*
X048623Y014622D01*
X048529Y014431D02*
X046030Y014431D01*
X046129Y014273D02*
X048529Y014273D01*
X048529Y014114D02*
X046174Y014114D01*
X046174Y013956D02*
X048529Y013956D01*
X048529Y013797D02*
X046116Y013797D01*
X046000Y013639D02*
X048529Y013639D01*
X048620Y013480D02*
X045721Y013480D01*
X045481Y013480D02*
X044341Y013480D01*
X044343Y013322D02*
X050101Y013322D01*
X050101Y013480D02*
X049583Y013480D01*
X049674Y013639D02*
X050101Y013639D01*
X050101Y013797D02*
X049674Y013797D01*
X049674Y013956D02*
X050101Y013956D01*
X050101Y014114D02*
X049674Y014114D01*
X049674Y014273D02*
X050101Y014273D01*
X050101Y014431D02*
X049674Y014431D01*
X049613Y014590D02*
X050101Y014590D01*
X050101Y014748D02*
X028781Y014748D01*
X024174Y017443D02*
X035200Y017443D01*
X035273Y017601D02*
X024174Y017601D01*
X024174Y017760D02*
X035432Y017760D01*
X035662Y017918D02*
X024174Y017918D01*
X025632Y020208D02*
X025691Y020179D01*
X025754Y020158D01*
X025818Y020148D01*
X025851Y020148D01*
X025851Y020566D01*
X025851Y020566D01*
X025434Y020566D01*
X025434Y020599D01*
X025444Y020664D01*
X025464Y020726D01*
X025494Y020785D01*
X025533Y020838D01*
X025579Y020884D01*
X025632Y020923D01*
X025691Y020953D01*
X025754Y020973D01*
X025818Y020984D01*
X025851Y020984D01*
X025851Y020566D01*
X025851Y020566D01*
X025434Y020566D01*
X025434Y020533D01*
X025444Y020468D01*
X025464Y020405D01*
X025494Y020347D01*
X025533Y020294D01*
X025579Y020247D01*
X025632Y020208D01*
X025531Y020296D02*
X021671Y020296D01*
X021670Y020294D02*
X021709Y020347D01*
X021739Y020405D01*
X021759Y020468D01*
X021769Y020533D01*
X021769Y020566D01*
X021769Y020599D01*
X021759Y020664D01*
X021739Y020726D01*
X021709Y020785D01*
X021670Y020838D01*
X021624Y020884D01*
X021570Y020923D01*
X021512Y020953D01*
X021449Y020973D01*
X021384Y020984D01*
X021351Y020984D01*
X021318Y020984D01*
X021254Y020973D01*
X021191Y020953D01*
X021132Y020923D01*
X021079Y020884D01*
X021033Y020838D01*
X020994Y020785D01*
X020964Y020726D01*
X020944Y020664D01*
X020934Y020599D01*
X020934Y020566D01*
X021351Y020566D01*
X021351Y020566D01*
X021351Y020984D01*
X021351Y020566D01*
X021351Y020566D01*
X020934Y020566D01*
X020934Y020533D01*
X020944Y020468D01*
X020964Y020405D01*
X020994Y020347D01*
X021033Y020294D01*
X021079Y020247D01*
X021132Y020208D01*
X021191Y020179D01*
X021254Y020158D01*
X021318Y020148D01*
X021351Y020148D01*
X021351Y020566D01*
X021351Y020566D01*
X021769Y020566D01*
X021351Y020566D01*
X021351Y020566D01*
X021351Y020148D01*
X021384Y020148D01*
X021449Y020158D01*
X021512Y020179D01*
X021570Y020208D01*
X021624Y020247D01*
X021670Y020294D01*
X021754Y020454D02*
X025448Y020454D01*
X025436Y020613D02*
X021767Y020613D01*
X021716Y020771D02*
X025487Y020771D01*
X025645Y020930D02*
X021558Y020930D01*
X021351Y020930D02*
X021351Y020930D01*
X021351Y020771D02*
X021351Y020771D01*
X021351Y020613D02*
X021351Y020613D01*
X021351Y020454D02*
X021351Y020454D01*
X021351Y020296D02*
X021351Y020296D01*
X021031Y020296D02*
X013027Y020296D01*
X013025Y020291D02*
X013060Y020360D01*
X013084Y020434D01*
X013096Y020511D01*
X013096Y020550D01*
X012601Y020550D01*
X012601Y020550D01*
X012601Y020550D01*
X012601Y021045D01*
X012640Y021045D01*
X012717Y021033D01*
X012791Y021009D01*
X012861Y020973D01*
X012924Y020928D01*
X012979Y020872D01*
X013025Y020809D01*
X013060Y020740D01*
X013084Y020666D01*
X013096Y020589D01*
X013096Y020550D01*
X012601Y020550D01*
X012601Y020055D01*
X012640Y020055D01*
X012717Y020067D01*
X012791Y020091D01*
X012861Y020127D01*
X012924Y020172D01*
X012979Y020228D01*
X013025Y020291D01*
X013087Y020454D02*
X020948Y020454D01*
X020936Y020613D02*
X013093Y020613D01*
X013044Y020771D02*
X020987Y020771D01*
X021145Y020930D02*
X012921Y020930D01*
X012601Y020930D02*
X012601Y020930D01*
X012601Y020771D02*
X012601Y020771D01*
X012601Y020613D02*
X012601Y020613D01*
X012601Y020550D02*
X012601Y020550D01*
X012601Y020454D02*
X012601Y020454D01*
X012601Y020296D02*
X012601Y020296D01*
X012601Y020137D02*
X012601Y020137D01*
X012875Y020137D02*
X050101Y020137D01*
X050101Y019979D02*
X004204Y019979D01*
X004204Y019820D02*
X050101Y019820D01*
X050101Y019662D02*
X001411Y019662D01*
X001411Y019820D02*
X002998Y019820D01*
X002998Y019979D02*
X001411Y019979D01*
X001411Y020137D02*
X002998Y020137D01*
X002998Y020296D02*
X001411Y020296D01*
X001411Y020454D02*
X002998Y020454D01*
X002998Y020613D02*
X001411Y020613D01*
X001411Y020771D02*
X002998Y020771D01*
X001411Y021247D02*
X050101Y021247D01*
X050101Y021405D02*
X001411Y021405D01*
X002200Y023149D02*
X049253Y023149D01*
X049411Y022990D02*
X018999Y022990D01*
X019123Y022832D02*
X020954Y022832D01*
X021749Y022832D02*
X025454Y022832D01*
X025454Y022838D02*
X025454Y022230D01*
X025547Y022136D01*
X026155Y022136D01*
X026249Y022230D01*
X026249Y022838D01*
X026155Y022932D01*
X025547Y022932D01*
X025454Y022838D01*
X025454Y022673D02*
X021749Y022673D01*
X021749Y022515D02*
X025454Y022515D01*
X025454Y022356D02*
X021749Y022356D01*
X021717Y022198D02*
X025486Y022198D01*
X026217Y022198D02*
X029986Y022198D01*
X029954Y022230D02*
X030047Y022136D01*
X030655Y022136D01*
X030749Y022230D01*
X030749Y022838D01*
X030655Y022932D01*
X030047Y022932D01*
X029954Y022838D01*
X029954Y022230D01*
X029954Y022356D02*
X026249Y022356D01*
X026249Y022515D02*
X029954Y022515D01*
X029954Y022673D02*
X026249Y022673D01*
X026249Y022832D02*
X029954Y022832D01*
X030749Y022832D02*
X034454Y022832D01*
X034454Y022838D02*
X034454Y022230D01*
X034547Y022136D01*
X035155Y022136D01*
X035249Y022230D01*
X035249Y022838D01*
X035155Y022932D01*
X034547Y022932D01*
X034454Y022838D01*
X034454Y022673D02*
X030749Y022673D01*
X030749Y022515D02*
X034454Y022515D01*
X034454Y022356D02*
X030749Y022356D01*
X030717Y022198D02*
X034486Y022198D01*
X035217Y022198D02*
X038986Y022198D01*
X038954Y022230D02*
X039047Y022136D01*
X039655Y022136D01*
X039749Y022230D01*
X039749Y022838D01*
X039655Y022932D01*
X039047Y022932D01*
X038954Y022838D01*
X038954Y022230D01*
X038954Y022356D02*
X035249Y022356D01*
X035249Y022515D02*
X038954Y022515D01*
X038954Y022673D02*
X035249Y022673D01*
X035249Y022832D02*
X038954Y022832D01*
X039749Y022832D02*
X043454Y022832D01*
X043454Y022838D02*
X043454Y022230D01*
X043547Y022136D01*
X044155Y022136D01*
X044249Y022230D01*
X044249Y022838D01*
X044155Y022932D01*
X043547Y022932D01*
X043454Y022838D01*
X043454Y022673D02*
X039749Y022673D01*
X039749Y022515D02*
X043454Y022515D01*
X043454Y022356D02*
X039749Y022356D01*
X039717Y022198D02*
X043486Y022198D01*
X044217Y022198D02*
X047986Y022198D01*
X047954Y022230D02*
X048047Y022136D01*
X048655Y022136D01*
X048749Y022230D01*
X048749Y022838D01*
X048655Y022932D01*
X048047Y022932D01*
X047954Y022838D01*
X047954Y022230D01*
X047954Y022356D02*
X044249Y022356D01*
X044249Y022515D02*
X047954Y022515D01*
X047954Y022673D02*
X044249Y022673D01*
X044249Y022832D02*
X047954Y022832D01*
X048749Y022832D02*
X049570Y022832D01*
X049728Y022673D02*
X048749Y022673D01*
X048749Y022515D02*
X049887Y022515D01*
X050045Y022356D02*
X048749Y022356D01*
X048717Y022198D02*
X050101Y022198D01*
X050101Y019503D02*
X001411Y019503D01*
X001411Y019345D02*
X050101Y019345D01*
X050101Y019186D02*
X047669Y019186D01*
X047953Y019028D02*
X050101Y019028D01*
X050101Y018869D02*
X048112Y018869D01*
X048199Y018711D02*
X050101Y018711D01*
X050101Y018552D02*
X048264Y018552D01*
X048291Y018394D02*
X050101Y018394D01*
X050101Y018235D02*
X048291Y018235D01*
X048276Y018077D02*
X050101Y018077D01*
X050101Y017918D02*
X048211Y017918D01*
X048140Y017760D02*
X050101Y017760D01*
X050101Y017601D02*
X047982Y017601D01*
X047738Y017443D02*
X050101Y017443D01*
X050101Y017284D02*
X044068Y017284D01*
X044093Y017224D02*
X043942Y017588D01*
X043663Y017867D01*
X043299Y018018D01*
X042904Y018018D01*
X042540Y017867D01*
X042261Y017588D01*
X042110Y017224D01*
X042110Y016829D01*
X042261Y016465D01*
X042540Y016186D01*
X042904Y016035D01*
X043299Y016035D01*
X043663Y016186D01*
X043942Y016465D01*
X044093Y016829D01*
X044093Y017224D01*
X044093Y017126D02*
X050101Y017126D01*
X050101Y016967D02*
X044093Y016967D01*
X044085Y016809D02*
X050101Y016809D01*
X050101Y016650D02*
X044019Y016650D01*
X043953Y016492D02*
X045029Y016492D01*
X045029Y016529D02*
X045029Y015571D01*
X045123Y015478D01*
X046080Y015478D01*
X046174Y015571D01*
X046174Y016529D01*
X046080Y016622D01*
X045123Y016622D01*
X045029Y016529D01*
X045029Y016333D02*
X043811Y016333D01*
X043637Y016175D02*
X045029Y016175D01*
X045029Y016016D02*
X041132Y016016D01*
X041174Y015858D02*
X045029Y015858D01*
X045029Y015699D02*
X041174Y015699D01*
X041114Y015541D02*
X045060Y015541D01*
X046143Y015541D02*
X048796Y015541D01*
X048791Y015543D02*
X048874Y015501D01*
X048963Y015472D01*
X049044Y015459D01*
X049044Y015992D01*
X049159Y015992D01*
X049159Y015459D01*
X049240Y015472D01*
X049329Y015501D01*
X049412Y015543D01*
X049487Y015598D01*
X049553Y015664D01*
X049608Y015739D01*
X049650Y015823D01*
X049679Y015911D01*
X049692Y015992D01*
X049159Y015992D01*
X049159Y016108D01*
X049044Y016108D01*
X049044Y016641D01*
X048963Y016628D01*
X048874Y016599D01*
X048791Y016557D01*
X048715Y016502D01*
X048649Y016436D01*
X048595Y016361D01*
X048552Y016277D01*
X048523Y016189D01*
X048511Y016108D01*
X049044Y016108D01*
X049044Y015992D01*
X048511Y015992D01*
X048523Y015911D01*
X048552Y015823D01*
X048595Y015739D01*
X048649Y015664D01*
X048715Y015598D01*
X048791Y015543D01*
X048624Y015699D02*
X046174Y015699D01*
X046174Y015858D02*
X048541Y015858D01*
X048521Y016175D02*
X046174Y016175D01*
X046174Y016333D02*
X048581Y016333D01*
X048705Y016492D02*
X046174Y016492D01*
X046174Y016016D02*
X049044Y016016D01*
X049159Y016016D02*
X050101Y016016D01*
X050101Y015858D02*
X049662Y015858D01*
X049579Y015699D02*
X050101Y015699D01*
X050101Y015541D02*
X049407Y015541D01*
X049159Y015541D02*
X049044Y015541D01*
X049044Y015699D02*
X049159Y015699D01*
X049159Y015858D02*
X049044Y015858D01*
X049159Y016108D02*
X049692Y016108D01*
X049679Y016189D01*
X049650Y016277D01*
X049608Y016361D01*
X049553Y016436D01*
X049487Y016502D01*
X049412Y016557D01*
X049329Y016599D01*
X049240Y016628D01*
X049159Y016641D01*
X049159Y016108D01*
X049159Y016175D02*
X049044Y016175D01*
X049044Y016333D02*
X049159Y016333D01*
X049159Y016492D02*
X049044Y016492D01*
X049498Y016492D02*
X050101Y016492D01*
X050101Y016333D02*
X049622Y016333D01*
X049682Y016175D02*
X050101Y016175D01*
X046965Y017443D02*
X044003Y017443D01*
X043929Y017601D02*
X046721Y017601D01*
X046562Y017760D02*
X043771Y017760D01*
X043540Y017918D02*
X046492Y017918D01*
X046750Y019028D02*
X001411Y019028D01*
X001411Y019186D02*
X047034Y019186D01*
X042662Y017918D02*
X036540Y017918D01*
X036771Y017760D02*
X042432Y017760D01*
X042273Y017601D02*
X036929Y017601D01*
X037003Y017443D02*
X042200Y017443D01*
X042135Y017284D02*
X037068Y017284D01*
X037093Y017126D02*
X042110Y017126D01*
X042110Y016967D02*
X037093Y016967D01*
X037085Y016809D02*
X042118Y016809D01*
X042184Y016650D02*
X037019Y016650D01*
X036953Y016492D02*
X042249Y016492D01*
X042392Y016333D02*
X040811Y016333D01*
X041036Y016175D02*
X042566Y016175D01*
X040392Y016333D02*
X039811Y016333D01*
X040036Y016175D02*
X040166Y016175D01*
X039392Y016333D02*
X039120Y016333D01*
X038083Y016333D02*
X036811Y016333D01*
X036637Y016175D02*
X038029Y016175D01*
X043916Y014114D02*
X045029Y014114D01*
X045029Y013956D02*
X044075Y013956D01*
X044209Y013797D02*
X045086Y013797D01*
X045203Y013639D02*
X044275Y013639D01*
X044343Y013163D02*
X050101Y013163D01*
X050101Y013005D02*
X044312Y013005D01*
X044247Y012846D02*
X050101Y012846D01*
X050101Y012688D02*
X044165Y012688D01*
X044007Y012529D02*
X050101Y012529D01*
X050101Y012371D02*
X043756Y012371D01*
X042947Y012371D02*
X041351Y012371D01*
X041358Y012361D02*
X041303Y012436D01*
X041237Y012502D01*
X041162Y012557D01*
X041079Y012599D01*
X040990Y012628D01*
X040909Y012641D01*
X040909Y012108D01*
X041442Y012108D01*
X041429Y012189D01*
X041400Y012277D01*
X041358Y012361D01*
X041422Y012212D02*
X050101Y012212D01*
X050101Y012054D02*
X049204Y012054D01*
X049204Y012059D02*
X049111Y012153D01*
X048092Y012153D01*
X047998Y012059D01*
X047998Y011041D01*
X048092Y010947D01*
X049111Y010947D01*
X049204Y011041D01*
X049204Y012059D01*
X049204Y011895D02*
X050101Y011895D01*
X050101Y011737D02*
X049204Y011737D01*
X049204Y011578D02*
X050101Y011578D01*
X050101Y011420D02*
X049204Y011420D01*
X049204Y011261D02*
X050101Y011261D01*
X050101Y011103D02*
X049204Y011103D01*
X047998Y011737D02*
X041356Y011737D01*
X041358Y011739D02*
X041400Y011823D01*
X041429Y011911D01*
X041442Y011992D01*
X040909Y011992D01*
X040909Y012054D02*
X047998Y012054D01*
X047998Y011895D02*
X041424Y011895D01*
X041358Y011739D02*
X041303Y011664D01*
X041237Y011598D01*
X040909Y011578D02*
X040794Y011578D01*
X040794Y012212D02*
X040909Y012212D01*
X040909Y012371D02*
X040794Y012371D01*
X040794Y012529D02*
X040909Y012529D01*
X041200Y012529D02*
X042696Y012529D01*
X040503Y012529D02*
X040182Y012529D01*
X040338Y012371D02*
X040352Y012371D01*
X039521Y012529D02*
X039424Y012529D01*
X028095Y010152D02*
X025608Y010152D01*
X025737Y009993D02*
X027966Y009993D01*
X027921Y009835D02*
X025781Y009835D01*
X025765Y009676D02*
X027937Y009676D01*
X028026Y009518D02*
X025677Y009518D01*
X025508Y009201D02*
X028146Y009201D01*
X027971Y009042D02*
X025717Y009042D01*
X025781Y008884D02*
X027909Y008884D01*
X027908Y008725D02*
X025781Y008725D01*
X025720Y008567D02*
X027965Y008567D01*
X028034Y008091D02*
X025668Y008091D01*
X025762Y007933D02*
X027941Y007933D01*
X027921Y007774D02*
X025781Y007774D01*
X025740Y007616D02*
X027962Y007616D01*
X028086Y007457D02*
X025616Y007457D01*
X025619Y007140D02*
X028083Y007140D01*
X027961Y006982D02*
X025742Y006982D01*
X025781Y006823D02*
X027921Y006823D01*
X027942Y006665D02*
X025761Y006665D01*
X025665Y006506D02*
X028037Y006506D01*
X028167Y006189D02*
X025536Y006189D01*
X025721Y006031D02*
X027981Y006031D01*
X027988Y005555D02*
X025714Y005555D01*
X025781Y005714D02*
X025781Y005886D01*
X025501Y005397D02*
X028202Y005397D01*
X028501Y005397D02*
X030431Y005397D01*
X030431Y005555D02*
X028714Y005555D01*
X028665Y006506D02*
X030431Y006506D01*
X030431Y006665D02*
X028761Y006665D01*
X024134Y004763D02*
X024069Y004763D01*
X024069Y004604D02*
X024134Y004604D01*
X024134Y004446D02*
X024069Y004446D01*
X025712Y004129D02*
X028134Y004129D01*
X028021Y003970D02*
X025712Y003970D01*
X025712Y003812D02*
X027987Y003812D01*
X028012Y003653D02*
X025712Y003653D01*
X025712Y003495D02*
X028111Y003495D01*
X028861Y003812D02*
X050101Y003812D01*
X031351Y003050D02*
X031351Y002050D01*
X029851Y002050D02*
X029351Y002050D01*
X029851Y003050D02*
X031351Y003050D01*
X021856Y006506D02*
X021846Y006506D01*
X021846Y006665D02*
X021856Y006665D01*
X021846Y006823D02*
X021856Y006823D01*
X021846Y006982D02*
X021856Y006982D01*
X021846Y007140D02*
X021856Y007140D01*
X013167Y006189D02*
X001411Y006189D01*
X001411Y007299D02*
X002199Y007299D01*
X001957Y007457D02*
X001411Y007457D01*
X001411Y007616D02*
X001799Y007616D01*
X001706Y007774D02*
X001411Y007774D01*
X001411Y007933D02*
X001633Y007933D01*
X001591Y008091D02*
X001411Y008091D01*
X001411Y008250D02*
X001574Y008250D01*
X001574Y008408D02*
X001411Y008408D01*
X001411Y008567D02*
X001606Y008567D01*
X001649Y008725D02*
X001411Y008725D01*
X001411Y008884D02*
X001739Y008884D01*
X001856Y009042D02*
X001411Y009042D01*
X001411Y009201D02*
X002024Y009201D01*
X002348Y009359D02*
X001411Y009359D01*
X005474Y010944D02*
X005749Y010944D01*
X005840Y011103D02*
X005597Y011103D01*
X006450Y011420D02*
X008646Y011420D01*
X008478Y011578D02*
X006587Y011578D01*
X006641Y011737D02*
X008421Y011737D01*
X008425Y011895D02*
X006639Y011895D01*
X006574Y012054D02*
X008497Y012054D01*
X008722Y012212D02*
X006383Y012212D01*
X006528Y011103D02*
X008546Y011103D01*
X008446Y010944D02*
X006619Y010944D01*
X006641Y010786D02*
X008421Y010786D01*
X008458Y010627D02*
X006607Y010627D01*
X006499Y010469D02*
X008575Y010469D01*
X009189Y012529D02*
X011514Y012529D01*
X011433Y012688D02*
X009270Y012688D01*
X009281Y012846D02*
X011421Y012846D01*
X011471Y013005D02*
X009232Y013005D01*
X009096Y013163D02*
X011606Y013163D01*
X012096Y013163D02*
X013106Y013163D01*
X012971Y013005D02*
X012232Y013005D01*
X012281Y012846D02*
X012921Y012846D01*
X012933Y012688D02*
X012270Y012688D01*
X012189Y012529D02*
X013014Y012529D01*
X013063Y013480D02*
X012168Y013480D01*
X012272Y013639D02*
X012953Y013639D01*
X011856Y013639D02*
X011846Y013639D01*
X011846Y013480D02*
X011856Y013480D01*
X011535Y013480D02*
X009140Y013480D01*
X009250Y013639D02*
X011431Y013639D01*
X009029Y016492D02*
X003356Y016492D01*
X021351Y015858D02*
X021351Y015858D01*
X021351Y015699D02*
X021351Y015699D01*
X021351Y015541D02*
X021351Y015541D01*
X021351Y015382D02*
X021351Y015382D01*
X025851Y020148D02*
X025884Y020148D01*
X025949Y020158D01*
X026012Y020179D01*
X026070Y020208D01*
X026124Y020247D01*
X026170Y020294D01*
X026209Y020347D01*
X026239Y020405D01*
X026259Y020468D01*
X026269Y020533D01*
X026269Y020566D01*
X026269Y020599D01*
X026259Y020664D01*
X026239Y020726D01*
X026209Y020785D01*
X026170Y020838D01*
X026124Y020884D01*
X026070Y020923D01*
X026012Y020953D01*
X025949Y020973D01*
X025884Y020984D01*
X025851Y020984D01*
X025851Y020566D01*
X025851Y020566D01*
X026269Y020566D01*
X025851Y020566D01*
X025851Y020566D01*
X025851Y020148D01*
X025851Y020296D02*
X025851Y020296D01*
X025851Y020454D02*
X025851Y020454D01*
X025851Y020613D02*
X025851Y020613D01*
X025851Y020771D02*
X025851Y020771D01*
X025851Y020930D02*
X025851Y020930D01*
X026058Y020930D02*
X030145Y020930D01*
X030351Y020930D02*
X030351Y020930D01*
X030351Y020771D02*
X030351Y020771D01*
X030351Y020613D02*
X030351Y020613D01*
X030351Y020566D02*
X030769Y020566D01*
X030769Y020599D01*
X030759Y020664D01*
X030739Y020726D01*
X030709Y020785D01*
X030670Y020838D01*
X030624Y020884D01*
X030570Y020923D01*
X030716Y020771D02*
X034487Y020771D01*
X034436Y020613D02*
X030767Y020613D01*
X030769Y020566D02*
X030351Y020566D01*
X030351Y020566D01*
X030351Y020566D01*
X030351Y020148D01*
X030384Y020148D01*
X030449Y020158D01*
X030512Y020179D01*
X030570Y020208D01*
X030624Y020247D01*
X030670Y020294D01*
X030709Y020347D01*
X030739Y020405D01*
X030759Y020468D01*
X030769Y020533D01*
X030769Y020566D01*
X030754Y020454D02*
X034448Y020454D01*
X034531Y020296D02*
X030671Y020296D01*
X030351Y020296D02*
X030351Y020296D01*
X030351Y020454D02*
X030351Y020454D01*
X030031Y020296D02*
X026171Y020296D01*
X026254Y020454D02*
X029948Y020454D01*
X029936Y020613D02*
X026267Y020613D01*
X026216Y020771D02*
X029987Y020771D01*
D33*
X029851Y018550D03*
X029851Y018050D03*
X029851Y017550D03*
X029851Y017050D03*
X022101Y013550D03*
X022101Y013050D03*
X029601Y011800D03*
X030101Y011800D03*
X016101Y017050D03*
X016101Y017550D03*
X010351Y009550D03*
X010351Y009050D03*
X010101Y006300D03*
X009601Y006300D03*
X022601Y004300D03*
X022601Y003800D03*
X023351Y005300D03*
X023351Y005800D03*
X029851Y003550D03*
X029851Y003050D03*
X029851Y002550D03*
X029851Y002050D03*
M02*
