%
M48
M72
T01C0.0197
T02C0.0217
T03C0.0236
T04C0.0276
T05C0.0300
T06C0.0320
T07C0.0340
T08C0.0354
T09C0.0394
T10C0.0400
T11C0.0450
T12C0.0550
T13C0.0551
T14C0.0591
T15C0.1024
T16C0.1160
T17C0.1260
%
T01
X11351Y5339
X11351Y7261
X21351Y14837
X21351Y15625
T02
X18495Y14050
X18495Y13550
X18495Y13050
T03
X22101Y13050
X22101Y13550
X29601Y11800
X30101Y11800
X29851Y17050
X29851Y17550
X29851Y18050
X29851Y18550
X16101Y17550
X16101Y17050
X10351Y9550
X10351Y9050
X10101Y6300
X9601Y6300
X22601Y4300
X22601Y3800
X23351Y5300
X23351Y5800
X29851Y3550
X29851Y3050
X29851Y2550
X29851Y2050
T04
X7101Y4361
X7101Y5739
X8414Y20389
X8414Y22357
X21351Y22534
X21351Y20566
X25851Y20566
X25851Y22534
X30351Y22534
X34851Y22534
X34851Y20566
X30351Y20566
X39351Y20566
X39351Y22534
X43851Y22534
X43851Y20566
X48351Y20566
X48351Y22534
T05
X12601Y20550
X12601Y18550
T06
X23351Y12800
X17601Y11800
X23351Y8800
X17601Y7800
X30851Y7800
X30851Y6550
X30851Y5300
X34851Y5300
X34851Y6550
X34851Y7800
X34851Y12800
X34851Y14050
X34851Y15300
X30851Y15300
X30851Y14050
X30851Y12800
T07
X28351Y12800
X28351Y11800
X28351Y10800
X28351Y9800
X28351Y8800
X28351Y7800
X28351Y6800
X28351Y5800
X25351Y5800
X25351Y6800
X25351Y7800
X25351Y8800
X25351Y9800
X25351Y10800
X25351Y11800
X25351Y12800
X25351Y13800
X25351Y14800
X28351Y14800
X28351Y13800
X21851Y11800
X21851Y10800
X21851Y9800
X21851Y8800
X21851Y7800
X21851Y6800
X21851Y5800
X18851Y5800
X18851Y6800
X18851Y7800
X18851Y8800
X18851Y9800
X18851Y10800
X18851Y11800
X16351Y11800
X16351Y10800
X16351Y9800
X16351Y8800
X16351Y7800
X16351Y6800
X16351Y5800
X16351Y4800
X16351Y3800
X16351Y2800
X16351Y1800
X13351Y1800
X13351Y2800
X13351Y3800
X13351Y4800
X13351Y5800
X13351Y6800
X13351Y7800
X13351Y8800
X13351Y9800
X13351Y10800
X11851Y10800
X11851Y11800
X13351Y11800
X13351Y12800
X11851Y12800
X11851Y13800
X13351Y13800
X13351Y14800
X16351Y14800
X16351Y13800
X16351Y12800
X8851Y12800
X8851Y11800
X8851Y10800
X8851Y13800
T08
X7529Y18050
X10678Y18050
X25275Y16800
X28424Y16800
X28424Y3800
X25275Y3800
T09
X6184Y8800
X5184Y9300
X6184Y9800
X5184Y10300
X6184Y10800
X5184Y11300
X6184Y11800
X5184Y12300
T10
X18601Y2050
X19601Y2050
X20601Y2050
X21601Y2050
T11
X24101Y3300
X24101Y4300
T12
X34351Y2300
X39101Y4550
X40101Y4550
X41101Y4550
X45601Y4800
X49101Y4800
X49101Y6800
X45601Y6800
X40851Y8300
X39851Y8300
X38851Y8300
X38851Y12050
X39851Y12050
X40851Y12050
X45601Y14050
X49101Y14050
X49101Y16050
X45601Y16050
X40601Y15800
X39601Y15800
X38601Y15800
X23601Y15550
X23601Y16550
X23601Y17550
X11601Y16050
X10601Y16050
X9601Y16050
X12601Y22550
X18601Y22550
X40351Y2300
T13
X6351Y14770
X6351Y17330
T14
X3601Y20300
X3601Y22300
X48601Y11550
X48601Y9550
T15
X43351Y9526
X36351Y9526
X36351Y13276
X43351Y13276
X43101Y17026
X36101Y17026
X36601Y5776
X43601Y5776
T16
X2601Y2300
X2851Y17300
X47351Y18300
X47351Y2800
T17
X2684Y8300
X2684Y12800
M30
