G75*
G70*
%OFA0B0*%
%FSLAX24Y24*%
%IPPOS*%
%LPD*%
%AMOC8*
5,1,8,0,0,1.08239X$1,22.5*
%
%ADD10C,0.0240*%
%ADD11C,0.0060*%
%ADD12C,0.0160*%
%ADD13C,0.0120*%
%ADD14C,0.0080*%
%ADD15C,0.0070*%
%ADD16C,0.0040*%
%ADD17C,0.0050*%
%ADD18R,0.0394X0.2362*%
%ADD19R,0.0394X0.0787*%
%ADD20R,0.0250X0.0240*%
%ADD21R,0.2362X0.0394*%
%ADD22R,0.4200X0.0400*%
%ADD23R,0.0240X0.0250*%
%ADD24R,0.1400X0.0200*%
%ADD25R,0.0420X0.0540*%
%ADD26C,0.0000*%
%ADD27R,0.0689X0.0394*%
D10*
X000812Y000245D02*
X053812Y000245D01*
X053812Y040245D01*
X000812Y040245D01*
X000812Y000245D01*
X027312Y014245D02*
X027312Y014745D01*
X028812Y014495D02*
X028812Y014995D01*
X030062Y015745D02*
X030062Y016245D01*
X028812Y017995D02*
X028812Y018495D01*
X030062Y019245D02*
X030062Y019745D01*
X029312Y021245D02*
X029312Y021745D01*
X033562Y020495D02*
X034062Y020495D01*
X034062Y019495D02*
X033562Y019495D01*
X033562Y018245D02*
X034062Y018245D01*
X037062Y018245D02*
X037562Y018245D01*
X037562Y019495D02*
X037062Y019495D01*
X037062Y020495D02*
X037562Y020495D01*
X029312Y024745D02*
X029312Y025245D01*
X027312Y018245D02*
X027312Y017745D01*
X035562Y014995D02*
X036062Y014995D01*
X039062Y014995D02*
X039562Y014995D01*
X046812Y016495D02*
X046812Y016995D01*
X048898Y018331D02*
X049251Y018684D01*
X046812Y019995D02*
X046812Y020495D01*
X051373Y020806D02*
X051726Y021159D01*
X051062Y031495D02*
X051062Y031995D01*
X050062Y031995D02*
X050062Y031495D01*
X050062Y034995D02*
X050062Y035495D01*
X051062Y035495D02*
X051062Y034995D01*
D11*
X052091Y035237D02*
X052198Y035130D01*
X052625Y035130D01*
X052732Y035237D01*
X052732Y035451D01*
X052625Y035557D01*
X052198Y035557D02*
X052091Y035451D01*
X052091Y035237D01*
X052091Y034268D02*
X052518Y034268D01*
X052732Y034055D01*
X052518Y033841D01*
X052091Y033841D01*
X052091Y033624D02*
X052091Y033197D01*
X052732Y033197D01*
X052732Y033624D01*
X052412Y033410D02*
X052412Y033197D01*
X052412Y032979D02*
X052518Y032873D01*
X052518Y032552D01*
X052518Y032766D02*
X052732Y032979D01*
X052412Y032979D02*
X052198Y032979D01*
X052091Y032873D01*
X052091Y032552D01*
X052732Y032552D01*
X052732Y032307D02*
X052091Y032307D01*
X052091Y031880D02*
X052732Y032307D01*
X052732Y031880D02*
X052091Y031880D01*
X052091Y031664D02*
X052091Y031451D01*
X052091Y031557D02*
X052732Y031557D01*
X052732Y031451D02*
X052732Y031664D01*
X052732Y031233D02*
X052305Y031233D01*
X052091Y031020D01*
X052305Y030806D01*
X052732Y030806D01*
X052732Y030589D02*
X052091Y030589D01*
X052305Y030375D01*
X052091Y030162D01*
X052732Y030162D01*
X052412Y030806D02*
X052412Y031233D01*
X052518Y029300D02*
X052625Y029300D01*
X052732Y029193D01*
X052732Y028979D01*
X052625Y028873D01*
X052412Y028979D02*
X052412Y029193D01*
X052518Y029300D01*
X052198Y029300D02*
X052091Y029193D01*
X052091Y028979D01*
X052198Y028873D01*
X052305Y028873D01*
X052412Y028979D01*
X052412Y028655D02*
X052518Y028548D01*
X052518Y028228D01*
X052732Y028228D02*
X052091Y028228D01*
X052091Y028548D01*
X052198Y028655D01*
X052412Y028655D01*
X052518Y028010D02*
X052625Y028010D01*
X052732Y027904D01*
X052732Y027583D01*
X052091Y027583D01*
X052091Y027904D01*
X052198Y028010D01*
X052305Y028010D01*
X052412Y027904D01*
X052412Y027583D01*
X052412Y027904D02*
X052518Y028010D01*
X052091Y026721D02*
X052091Y026294D01*
X052091Y026508D02*
X052732Y026508D01*
X052625Y026077D02*
X052198Y026077D01*
X052091Y025970D01*
X052091Y025650D01*
X052732Y025650D01*
X052732Y025970D01*
X052625Y026077D01*
X052732Y025432D02*
X052518Y025219D01*
X052518Y025326D02*
X052518Y025005D01*
X052732Y025005D02*
X052091Y025005D01*
X052091Y025326D01*
X052198Y025432D01*
X052412Y025432D01*
X052518Y025326D01*
X052732Y024788D02*
X052091Y024788D01*
X052305Y024574D01*
X052091Y024361D01*
X052732Y024361D01*
X052742Y024345D02*
X052635Y024239D01*
X052315Y024239D01*
X052315Y024025D02*
X052315Y024666D01*
X052635Y024666D01*
X052742Y024559D01*
X052742Y024345D01*
X052097Y024132D02*
X052097Y024559D01*
X051990Y024666D01*
X051777Y024666D01*
X051670Y024559D01*
X051670Y024132D01*
X051777Y024025D01*
X051990Y024025D01*
X052097Y024132D01*
X051453Y024666D02*
X051026Y024666D01*
X051239Y024666D02*
X051239Y024025D01*
X050808Y024132D02*
X050701Y024025D01*
X050488Y024025D01*
X050381Y024132D01*
X050488Y024345D02*
X050701Y024345D01*
X050808Y024239D01*
X050808Y024132D01*
X050488Y024345D02*
X050381Y024452D01*
X050381Y024559D01*
X050488Y024666D01*
X050701Y024666D01*
X050808Y024559D01*
X050164Y024345D02*
X049737Y024345D01*
X049519Y024025D02*
X049092Y024025D01*
X049092Y024666D01*
X049519Y024666D01*
X049306Y024345D02*
X049092Y024345D01*
X048987Y016916D02*
X048987Y016275D01*
X048769Y016382D02*
X048662Y016275D01*
X048449Y016275D01*
X048342Y016382D01*
X048342Y016809D01*
X048449Y016916D01*
X048662Y016916D01*
X048769Y016809D01*
X048987Y016595D02*
X049093Y016702D01*
X049307Y016702D01*
X049414Y016595D01*
X049414Y016275D01*
X049631Y016382D02*
X049738Y016489D01*
X050058Y016489D01*
X050058Y016595D02*
X050058Y016275D01*
X049738Y016275D01*
X049631Y016382D01*
X049738Y016702D02*
X049951Y016702D01*
X050058Y016595D01*
X050276Y016489D02*
X050489Y016702D01*
X050596Y016702D01*
X050813Y016595D02*
X050813Y016382D01*
X050920Y016275D01*
X051240Y016275D01*
X051240Y016168D02*
X051240Y016702D01*
X050920Y016702D01*
X050813Y016595D01*
X050276Y016702D02*
X050276Y016275D01*
X051026Y016061D02*
X051133Y016061D01*
X051240Y016168D01*
X051457Y016382D02*
X051457Y016595D01*
X051564Y016702D01*
X051778Y016702D01*
X051884Y016595D01*
X051884Y016489D01*
X051457Y016489D01*
X051457Y016382D02*
X051564Y016275D01*
X051778Y016275D01*
X052102Y016275D02*
X052102Y016702D01*
X052315Y016702D02*
X052422Y016702D01*
X052315Y016702D02*
X052102Y016489D01*
X033498Y013014D02*
X033392Y013121D01*
X033178Y013121D01*
X033071Y013014D01*
X033071Y012587D01*
X033178Y012481D01*
X033392Y012481D01*
X033498Y012587D01*
X032854Y012481D02*
X032640Y012694D01*
X032747Y012694D02*
X032427Y012694D01*
X032427Y012481D02*
X032427Y013121D01*
X032747Y013121D01*
X032854Y013014D01*
X032854Y012801D01*
X032747Y012694D01*
X032209Y012801D02*
X031782Y012801D01*
X031565Y013014D02*
X031565Y012587D01*
X031458Y012481D01*
X031245Y012481D01*
X031138Y012587D01*
X031565Y013014D01*
X031458Y013121D01*
X031245Y013121D01*
X031138Y013014D01*
X031138Y012587D01*
X030920Y012481D02*
X030493Y012481D01*
X030920Y012908D01*
X030920Y013014D01*
X030814Y013121D01*
X030600Y013121D01*
X030493Y013014D01*
X030276Y013121D02*
X029849Y013121D01*
X029849Y012801D01*
X030062Y012908D01*
X030169Y012908D01*
X030276Y012801D01*
X030276Y012587D01*
X030169Y012481D01*
X029955Y012481D01*
X029849Y012587D01*
X029631Y012587D02*
X029524Y012481D01*
X029311Y012481D01*
X029204Y012587D01*
X029204Y012801D02*
X029418Y012908D01*
X029524Y012908D01*
X029631Y012801D01*
X029631Y012587D01*
X029204Y012801D02*
X029204Y013121D01*
X029631Y013121D01*
X028987Y012374D02*
X028560Y012374D01*
X028342Y012481D02*
X027915Y012481D01*
X027915Y013121D01*
X032427Y002097D02*
X032427Y001457D01*
X032854Y001457D01*
X033071Y001457D02*
X033499Y001457D01*
X033285Y001457D02*
X033285Y002097D01*
X033071Y001884D01*
X041842Y002166D02*
X042269Y002166D01*
X042056Y002166D02*
X042056Y001525D01*
X042487Y001632D02*
X042593Y001525D01*
X042807Y001525D01*
X042914Y001632D01*
X042914Y001845D01*
X042807Y001952D01*
X042593Y001952D01*
X042487Y001845D01*
X042487Y001632D01*
X043131Y001632D02*
X043238Y001525D01*
X043558Y001525D01*
X043558Y002166D01*
X043558Y001952D02*
X043238Y001952D01*
X043131Y001845D01*
X043131Y001632D01*
X043776Y001632D02*
X043882Y001525D01*
X044203Y001525D01*
X044203Y001845D01*
X044096Y001952D01*
X043882Y001952D01*
X043882Y001739D02*
X044203Y001739D01*
X044420Y001632D02*
X044527Y001525D01*
X044847Y001525D01*
X044847Y001418D02*
X044740Y001311D01*
X044634Y001311D01*
X044847Y001418D02*
X044847Y001952D01*
X044420Y001952D02*
X044420Y001632D01*
X043882Y001739D02*
X043776Y001632D01*
X045065Y001311D02*
X045278Y001525D01*
X045172Y001525D01*
X045172Y001632D01*
X045278Y001632D01*
X045278Y001525D01*
X046353Y001525D02*
X046353Y002166D01*
X046566Y002166D02*
X046139Y002166D01*
X046784Y001845D02*
X046784Y001632D01*
X046890Y001525D01*
X047104Y001525D01*
X047211Y001632D01*
X047211Y001845D01*
X047104Y001952D01*
X046890Y001952D01*
X046784Y001845D01*
X047428Y001952D02*
X047428Y001525D01*
X047642Y001525D02*
X047642Y001845D01*
X047748Y001952D01*
X047855Y001845D01*
X047855Y001525D01*
X048073Y001632D02*
X048179Y001525D01*
X048393Y001525D01*
X048500Y001632D01*
X048500Y001845D01*
X048393Y001952D01*
X048179Y001952D01*
X048073Y001845D01*
X048073Y001632D01*
X047642Y001845D02*
X047535Y001952D01*
X047428Y001952D01*
X048717Y001952D02*
X048717Y001525D01*
X048717Y001739D02*
X048931Y001952D01*
X049037Y001952D01*
X049254Y001952D02*
X049254Y001525D01*
X049254Y001739D02*
X049468Y001952D01*
X049575Y001952D01*
X049791Y001845D02*
X049791Y001632D01*
X049898Y001525D01*
X050112Y001525D01*
X050218Y001632D01*
X050218Y001845D01*
X050112Y001952D01*
X049898Y001952D01*
X049791Y001845D01*
X050436Y001952D02*
X050436Y001632D01*
X050543Y001525D01*
X050650Y001632D01*
X050756Y001525D01*
X050863Y001632D01*
X050863Y001952D01*
X051187Y001632D02*
X051187Y001525D01*
X051294Y001525D01*
X051294Y001632D01*
X051187Y001632D01*
X051294Y001525D02*
X051081Y001311D01*
X052155Y001525D02*
X052155Y002166D01*
X052582Y002166D01*
X052368Y001845D02*
X052155Y001845D01*
X052799Y001845D02*
X052799Y001632D01*
X052906Y001525D01*
X053120Y001525D01*
X053226Y001632D01*
X053226Y001845D01*
X053120Y001952D01*
X052906Y001952D01*
X052799Y001845D01*
X053444Y001739D02*
X053657Y001952D01*
X053764Y001952D01*
X053981Y001845D02*
X054088Y001952D01*
X054301Y001952D01*
X054408Y001845D01*
X054408Y001739D01*
X053981Y001739D01*
X053981Y001845D02*
X053981Y001632D01*
X054088Y001525D01*
X054301Y001525D01*
X054626Y001952D02*
X054839Y001525D01*
X055053Y001952D01*
X055270Y001845D02*
X055377Y001952D01*
X055590Y001952D01*
X055697Y001845D01*
X055697Y001739D01*
X055270Y001739D01*
X055270Y001845D02*
X055270Y001632D01*
X055377Y001525D01*
X055590Y001525D01*
X055915Y001525D02*
X055915Y001952D01*
X056128Y001952D02*
X056235Y001952D01*
X056128Y001952D02*
X055915Y001739D01*
X053444Y001525D02*
X053444Y001952D01*
X008215Y017382D02*
X008215Y017809D01*
X008108Y017916D01*
X007788Y017916D01*
X007788Y017275D01*
X008108Y017275D01*
X008215Y017382D01*
X007570Y017275D02*
X007356Y017489D01*
X007463Y017489D02*
X007143Y017489D01*
X007143Y017275D02*
X007143Y017916D01*
X007463Y017916D01*
X007570Y017809D01*
X007570Y017595D01*
X007463Y017489D01*
X006925Y017595D02*
X006498Y017595D01*
X006498Y017702D02*
X006712Y017916D01*
X006925Y017702D01*
X006925Y017275D01*
X006498Y017275D02*
X006498Y017702D01*
X006281Y017809D02*
X006174Y017916D01*
X005961Y017916D01*
X005854Y017809D01*
X005854Y017382D01*
X005961Y017275D01*
X006174Y017275D01*
X006281Y017382D01*
X006281Y017809D01*
X005636Y017809D02*
X005636Y017702D01*
X005530Y017595D01*
X005209Y017595D01*
X005209Y017275D02*
X005530Y017275D01*
X005636Y017382D01*
X005636Y017489D01*
X005530Y017595D01*
X005636Y017809D02*
X005530Y017916D01*
X005209Y017916D01*
X005209Y017275D01*
X004347Y017275D02*
X004134Y017489D01*
X004240Y017489D02*
X003920Y017489D01*
X003920Y017275D02*
X003920Y017916D01*
X004240Y017916D01*
X004347Y017809D01*
X004347Y017595D01*
X004240Y017489D01*
X003703Y017275D02*
X003276Y017275D01*
X003276Y017916D01*
X003703Y017916D01*
X003489Y017595D02*
X003276Y017595D01*
X003058Y017275D02*
X002845Y017489D01*
X002631Y017275D01*
X002631Y017916D01*
X002414Y017809D02*
X002307Y017916D01*
X002093Y017916D01*
X001987Y017809D01*
X001987Y017382D01*
X002093Y017275D01*
X002307Y017275D01*
X002414Y017382D01*
X002414Y017809D01*
X001769Y017809D02*
X001769Y017595D01*
X001662Y017489D01*
X001342Y017489D01*
X001342Y017275D02*
X001342Y017916D01*
X001662Y017916D01*
X001769Y017809D01*
X003058Y017916D02*
X003058Y017275D01*
X002845Y019275D02*
X002845Y019916D01*
X003058Y019916D02*
X002631Y019916D01*
X002414Y019702D02*
X002200Y019916D01*
X001987Y019702D01*
X001987Y019275D01*
X001769Y019382D02*
X001662Y019275D01*
X001342Y019275D01*
X001342Y019916D01*
X001662Y019916D01*
X001769Y019809D01*
X001769Y019702D01*
X001662Y019595D01*
X001342Y019595D01*
X001662Y019595D02*
X001769Y019489D01*
X001769Y019382D01*
X001987Y019595D02*
X002414Y019595D01*
X002414Y019702D02*
X002414Y019275D01*
X003276Y019916D02*
X003703Y019916D01*
X003489Y019916D02*
X003489Y019275D01*
X003920Y019275D02*
X004347Y019275D01*
X004565Y019275D02*
X004565Y019916D01*
X004885Y019916D01*
X004992Y019809D01*
X004992Y019595D01*
X004885Y019489D01*
X004565Y019489D01*
X004778Y019489D02*
X004992Y019275D01*
X005423Y019275D02*
X005423Y019595D01*
X005636Y019809D01*
X005636Y019916D01*
X005423Y019595D02*
X005209Y019809D01*
X005209Y019916D01*
X004347Y019916D02*
X003920Y019916D01*
X003920Y019275D01*
X003920Y019595D02*
X004134Y019595D01*
D12*
X009006Y015360D02*
X009006Y014132D01*
X008392Y014746D02*
X009620Y014746D01*
D13*
X008832Y028035D02*
X008832Y028956D01*
X008372Y028496D02*
X009293Y028496D01*
D14*
X046852Y015245D02*
X047466Y015245D01*
X047159Y015552D02*
X047159Y014938D01*
D15*
X047212Y017245D02*
X046412Y017245D01*
X046312Y017295D01*
X046312Y017445D01*
X046412Y017495D01*
X046412Y019495D01*
X046312Y019545D01*
X046312Y019695D01*
X046412Y019745D01*
X047212Y019745D01*
X047312Y019695D01*
X047312Y019545D01*
X047212Y019495D01*
X047212Y017495D01*
X047312Y017445D01*
X047312Y017295D01*
X047212Y017245D01*
X049145Y019144D02*
X049711Y018578D01*
X049817Y018543D01*
X049923Y018649D01*
X049888Y018755D01*
X051302Y020169D01*
X051408Y020134D01*
X051514Y020240D01*
X051479Y020346D01*
X050913Y020912D01*
X050807Y020947D01*
X050701Y020841D01*
X050736Y020735D01*
X049322Y019321D01*
X049216Y019356D01*
X049110Y019250D01*
X049145Y019144D01*
X047812Y021945D02*
X033812Y021945D01*
X033812Y024545D01*
X047812Y024545D01*
X047812Y023745D01*
X047768Y023743D01*
X047725Y023737D01*
X047683Y023728D01*
X047641Y023715D01*
X047601Y023698D01*
X047562Y023678D01*
X047525Y023655D01*
X047491Y023628D01*
X047458Y023599D01*
X047429Y023566D01*
X047402Y023532D01*
X047379Y023495D01*
X047359Y023456D01*
X047342Y023416D01*
X047329Y023374D01*
X047320Y023332D01*
X047314Y023289D01*
X047312Y023245D01*
X047314Y023201D01*
X047320Y023158D01*
X047329Y023116D01*
X047342Y023074D01*
X047359Y023034D01*
X047379Y022995D01*
X047402Y022958D01*
X047429Y022924D01*
X047458Y022891D01*
X047491Y022862D01*
X047525Y022835D01*
X047562Y022812D01*
X047601Y022792D01*
X047641Y022775D01*
X047683Y022762D01*
X047725Y022753D01*
X047768Y022747D01*
X047812Y022745D01*
X047812Y021945D01*
X047812Y026945D02*
X043812Y026945D01*
X043812Y027745D01*
X043856Y027747D01*
X043899Y027753D01*
X043941Y027762D01*
X043983Y027775D01*
X044023Y027792D01*
X044062Y027812D01*
X044099Y027835D01*
X044133Y027862D01*
X044166Y027891D01*
X044195Y027924D01*
X044222Y027958D01*
X044245Y027995D01*
X044265Y028034D01*
X044282Y028074D01*
X044295Y028116D01*
X044304Y028158D01*
X044310Y028201D01*
X044312Y028245D01*
X044310Y028289D01*
X044304Y028332D01*
X044295Y028374D01*
X044282Y028416D01*
X044265Y028456D01*
X044245Y028495D01*
X044222Y028532D01*
X044195Y028566D01*
X044166Y028599D01*
X044133Y028628D01*
X044099Y028655D01*
X044062Y028678D01*
X044023Y028698D01*
X043983Y028715D01*
X043941Y028728D01*
X043899Y028737D01*
X043856Y028743D01*
X043812Y028745D01*
X043812Y029545D01*
X047812Y029545D01*
X047812Y026945D01*
X049662Y032245D02*
X049562Y032295D01*
X049562Y032445D01*
X049662Y032495D01*
X049662Y034495D01*
X049562Y034545D01*
X049562Y034695D01*
X049662Y034745D01*
X050462Y034745D01*
X050562Y034695D01*
X050662Y034745D01*
X051462Y034745D01*
X051562Y034695D01*
X051562Y034545D01*
X051462Y034495D01*
X051462Y032495D01*
X051562Y032445D01*
X051562Y032295D01*
X051462Y032245D01*
X050662Y032245D01*
X050562Y032295D01*
X050562Y032445D01*
X050662Y032495D01*
X050662Y034495D01*
X050562Y034545D01*
X050562Y034695D01*
X050562Y034545D01*
X050462Y034495D01*
X050462Y032495D01*
X050562Y032445D01*
X050562Y032295D01*
X050462Y032245D01*
X049662Y032245D01*
X035312Y032995D02*
X035312Y031445D01*
X023312Y031445D01*
X023312Y035545D01*
X035312Y035545D01*
X035312Y033995D01*
X035268Y033993D01*
X035225Y033987D01*
X035183Y033978D01*
X035141Y033965D01*
X035101Y033948D01*
X035062Y033928D01*
X035025Y033905D01*
X034991Y033878D01*
X034958Y033849D01*
X034929Y033816D01*
X034902Y033782D01*
X034879Y033745D01*
X034859Y033706D01*
X034842Y033666D01*
X034829Y033624D01*
X034820Y033582D01*
X034814Y033539D01*
X034812Y033495D01*
X034814Y033451D01*
X034820Y033408D01*
X034829Y033366D01*
X034842Y033324D01*
X034859Y033284D01*
X034879Y033245D01*
X034902Y033208D01*
X034929Y033174D01*
X034958Y033141D01*
X034991Y033112D01*
X035025Y033085D01*
X035062Y033062D01*
X035101Y033042D01*
X035141Y033025D01*
X035183Y033012D01*
X035225Y033003D01*
X035268Y032997D01*
X035312Y032995D01*
X029812Y024445D02*
X029712Y024495D01*
X028912Y024495D01*
X028812Y024445D01*
X028812Y024295D01*
X028912Y024245D01*
X028912Y022245D01*
X028812Y022195D01*
X028812Y022045D01*
X028912Y021995D01*
X029712Y021995D01*
X029812Y022045D01*
X029812Y022195D01*
X029712Y022245D01*
X029712Y024245D01*
X029812Y024295D01*
X029812Y024445D01*
X034362Y020995D02*
X034312Y020895D01*
X034312Y020095D01*
X034362Y019995D01*
X034512Y019995D01*
X034562Y020095D01*
X036562Y020095D01*
X036612Y019995D01*
X036762Y019995D01*
X036812Y020095D01*
X036812Y020895D01*
X036762Y020995D01*
X036612Y020995D01*
X036562Y020895D01*
X034562Y020895D01*
X034512Y020995D01*
X034362Y020995D01*
X034362Y019995D02*
X034512Y019995D01*
X034562Y019895D01*
X036562Y019895D01*
X036612Y019995D01*
X036762Y019995D01*
X036812Y019895D01*
X036812Y019095D01*
X036762Y018995D01*
X036612Y018995D01*
X036562Y019095D01*
X034562Y019095D01*
X034512Y018995D01*
X034362Y018995D01*
X034312Y019095D01*
X034312Y019895D01*
X034362Y019995D01*
X034362Y018745D02*
X034312Y018645D01*
X034312Y017845D01*
X034362Y017745D01*
X034512Y017745D01*
X034562Y017845D01*
X036562Y017845D01*
X036612Y017745D01*
X036762Y017745D01*
X036812Y017845D01*
X036812Y018645D01*
X036762Y018745D01*
X036612Y018745D01*
X036562Y018645D01*
X034562Y018645D01*
X034512Y018745D01*
X034362Y018745D01*
X030562Y018795D02*
X030562Y018945D01*
X030462Y018995D01*
X029662Y018995D01*
X029562Y018945D01*
X029562Y018795D01*
X029662Y018745D01*
X029662Y016745D01*
X029562Y016695D01*
X029562Y016545D01*
X029662Y016495D01*
X030462Y016495D01*
X030562Y016545D01*
X030562Y016695D01*
X030462Y016745D01*
X030462Y018745D01*
X030562Y018795D01*
X029312Y017695D02*
X029212Y017745D01*
X028412Y017745D01*
X028312Y017695D01*
X028312Y017545D01*
X028412Y017495D01*
X028412Y015495D01*
X028312Y015445D01*
X028312Y015295D01*
X028412Y015245D01*
X029212Y015245D01*
X029312Y015295D01*
X029312Y015445D01*
X029212Y015495D01*
X029212Y017495D01*
X029312Y017545D01*
X029312Y017695D01*
X027812Y017445D02*
X027812Y017295D01*
X027712Y017245D01*
X027712Y015245D01*
X027812Y015195D01*
X027812Y015045D01*
X027712Y014995D01*
X026912Y014995D01*
X026812Y015045D01*
X026812Y015195D01*
X026912Y015245D01*
X026912Y017245D01*
X026812Y017295D01*
X026812Y017445D01*
X026912Y017495D01*
X027712Y017495D01*
X027812Y017445D01*
X036312Y015395D02*
X036312Y014595D01*
X036362Y014495D01*
X036512Y014495D01*
X036562Y014595D01*
X038562Y014595D01*
X038612Y014495D01*
X038762Y014495D01*
X038812Y014595D01*
X038812Y015395D01*
X038762Y015495D01*
X038612Y015495D01*
X038562Y015395D01*
X036562Y015395D01*
X036512Y015495D01*
X036362Y015495D01*
X036312Y015395D01*
X015882Y031095D02*
X011742Y031095D01*
X011712Y032995D01*
X015912Y032995D01*
X015882Y031095D01*
X015912Y032595D02*
X011712Y032595D01*
X006662Y032845D02*
X002462Y032845D01*
X002462Y033245D02*
X002492Y031345D01*
X006632Y031345D01*
X006662Y033245D01*
X002462Y033245D01*
D16*
X002659Y033765D02*
X002582Y033842D01*
X002582Y034149D01*
X002659Y034225D01*
X002812Y034225D01*
X002889Y034149D01*
X002889Y033842D01*
X002812Y033765D01*
X002659Y033765D01*
X002735Y033918D02*
X002889Y033765D01*
X003042Y033765D02*
X003349Y033765D01*
X003196Y033765D02*
X003196Y034225D01*
X003042Y034072D01*
X003503Y034149D02*
X003580Y034225D01*
X003733Y034225D01*
X003810Y034149D01*
X003810Y034072D01*
X003503Y033765D01*
X003810Y033765D01*
X003946Y031816D02*
X003715Y031586D01*
X004022Y031586D01*
X003946Y031356D02*
X003946Y031816D01*
X003562Y031739D02*
X003485Y031816D01*
X003332Y031816D01*
X003255Y031739D01*
X003102Y031739D02*
X003025Y031816D01*
X002871Y031816D01*
X002795Y031739D01*
X002795Y031432D01*
X002871Y031356D01*
X003025Y031356D01*
X003102Y031432D01*
X003255Y031356D02*
X003562Y031662D01*
X003562Y031739D01*
X003562Y031356D02*
X003255Y031356D01*
X004988Y030058D02*
X004988Y029751D01*
X005065Y029674D01*
X005218Y029674D01*
X005295Y029751D01*
X005449Y029674D02*
X005756Y029981D01*
X005756Y030058D01*
X005679Y030135D01*
X005525Y030135D01*
X005449Y030058D01*
X005295Y030058D02*
X005218Y030135D01*
X005065Y030135D01*
X004988Y030058D01*
X005449Y029674D02*
X005756Y029674D01*
X005909Y029751D02*
X005986Y029674D01*
X006139Y029674D01*
X006216Y029751D01*
X006216Y029828D01*
X006139Y029905D01*
X006062Y029905D01*
X006139Y029905D02*
X006216Y029981D01*
X006216Y030058D01*
X006139Y030135D01*
X005986Y030135D01*
X005909Y030058D01*
X006863Y030857D02*
X006940Y030781D01*
X007247Y030781D01*
X007324Y030857D01*
X007324Y031011D01*
X007247Y031088D01*
X007247Y031241D02*
X007324Y031318D01*
X007324Y031471D01*
X007247Y031548D01*
X007170Y031548D01*
X007093Y031471D01*
X007093Y031395D01*
X007093Y031471D02*
X007017Y031548D01*
X006940Y031548D01*
X006863Y031471D01*
X006863Y031318D01*
X006940Y031241D01*
X006940Y031088D02*
X006863Y031011D01*
X006863Y030857D01*
X007017Y031702D02*
X006863Y031855D01*
X007324Y031855D01*
X007324Y031702D02*
X007324Y032008D01*
X011784Y031932D02*
X011861Y032008D01*
X012015Y032008D01*
X012091Y031932D01*
X012091Y031702D01*
X012121Y031566D02*
X012045Y031489D01*
X012045Y031182D01*
X012121Y031106D01*
X012275Y031106D01*
X012352Y031182D01*
X012321Y031241D02*
X012321Y031548D01*
X012275Y031566D02*
X012352Y031489D01*
X012275Y031566D02*
X012121Y031566D01*
X012245Y031702D02*
X011784Y031702D01*
X011784Y031932D01*
X011861Y032162D02*
X012168Y032162D01*
X012245Y032239D01*
X012245Y032392D01*
X012168Y032469D01*
X011861Y032469D01*
X011784Y032392D01*
X011784Y032239D01*
X011861Y032162D01*
X011784Y032622D02*
X012245Y032622D01*
X012245Y032929D01*
X012245Y033083D02*
X012245Y033390D01*
X012292Y033515D02*
X012599Y033515D01*
X012446Y033515D02*
X012446Y033975D01*
X012292Y033822D01*
X012245Y033773D02*
X012245Y033620D01*
X012168Y033543D01*
X011861Y033850D01*
X012168Y033850D01*
X012245Y033773D01*
X012139Y033899D02*
X012139Y033592D01*
X012062Y033515D01*
X011909Y033515D01*
X011832Y033592D01*
X011832Y033899D01*
X011909Y033975D01*
X012062Y033975D01*
X012139Y033899D01*
X012245Y034003D02*
X011784Y034003D01*
X011938Y034157D01*
X011784Y034310D01*
X012245Y034310D01*
X012245Y034464D02*
X011784Y034464D01*
X011938Y034617D01*
X011784Y034771D01*
X012245Y034771D01*
X012830Y033975D02*
X012983Y033975D01*
X013060Y033899D01*
X013060Y033822D01*
X012983Y033745D01*
X013060Y033668D01*
X013060Y033592D01*
X012983Y033515D01*
X012830Y033515D01*
X012753Y033592D01*
X012906Y033745D02*
X012983Y033745D01*
X012753Y033899D02*
X012830Y033975D01*
X012168Y033543D02*
X011861Y033543D01*
X011784Y033620D01*
X011784Y033773D01*
X011861Y033850D01*
X011985Y033668D02*
X012139Y033515D01*
X012245Y033236D02*
X011784Y033236D01*
X011938Y033083D01*
X013632Y032930D02*
X013632Y032623D01*
X013709Y032546D01*
X013862Y032546D01*
X013939Y032623D01*
X014092Y032546D02*
X014399Y032853D01*
X014399Y032930D01*
X014323Y033007D01*
X014169Y033007D01*
X014092Y032930D01*
X013939Y032930D02*
X013862Y033007D01*
X013709Y033007D01*
X013632Y032930D01*
X014092Y032546D02*
X014399Y032546D01*
X014553Y032623D02*
X014553Y032700D01*
X014629Y032777D01*
X014783Y032777D01*
X014860Y032700D01*
X014860Y032623D01*
X014783Y032546D01*
X014629Y032546D01*
X014553Y032623D01*
X014629Y032777D02*
X014553Y032853D01*
X014553Y032930D01*
X014629Y033007D01*
X014783Y033007D01*
X014860Y032930D01*
X014860Y032853D01*
X014783Y032777D01*
X013272Y031566D02*
X012965Y031566D01*
X012965Y031336D01*
X013119Y031412D01*
X013196Y031412D01*
X013272Y031336D01*
X013272Y031182D01*
X013196Y031106D01*
X013042Y031106D01*
X012965Y031182D01*
X012812Y031106D02*
X012505Y031106D01*
X012812Y031412D01*
X012812Y031489D01*
X012735Y031566D01*
X012582Y031566D01*
X012505Y031489D01*
X012168Y031088D02*
X012245Y031011D01*
X012245Y030857D01*
X012168Y030781D01*
X011861Y030781D01*
X011784Y030857D01*
X011784Y031011D01*
X011861Y031088D01*
X014238Y029808D02*
X014238Y029501D01*
X014315Y029424D01*
X014468Y029424D01*
X014545Y029501D01*
X014699Y029424D02*
X015006Y029731D01*
X015006Y029808D01*
X014929Y029885D01*
X014775Y029885D01*
X014699Y029808D01*
X014545Y029808D02*
X014468Y029885D01*
X014315Y029885D01*
X014238Y029808D01*
X014699Y029424D02*
X015006Y029424D01*
X015159Y029424D02*
X015466Y029731D01*
X015466Y029808D01*
X015389Y029885D01*
X015236Y029885D01*
X015159Y029808D01*
X015159Y029424D02*
X015466Y029424D01*
X019346Y026869D02*
X019500Y026869D01*
X019423Y026869D02*
X019423Y026409D01*
X019346Y026409D02*
X019500Y026409D01*
X019653Y026409D02*
X019653Y026869D01*
X019883Y026869D01*
X019960Y026792D01*
X019960Y026639D01*
X019883Y026562D01*
X019653Y026562D01*
X019807Y026562D02*
X019960Y026409D01*
X020114Y026485D02*
X020190Y026409D01*
X020344Y026409D01*
X020421Y026485D01*
X020421Y026562D01*
X020344Y026639D01*
X020190Y026639D01*
X020114Y026716D01*
X020114Y026792D01*
X020190Y026869D01*
X020344Y026869D01*
X020421Y026792D01*
X020574Y026792D02*
X020651Y026869D01*
X020804Y026869D01*
X020881Y026792D01*
X020881Y026716D01*
X020574Y026409D01*
X020881Y026409D01*
X021034Y026409D02*
X021341Y026409D01*
X021188Y026409D02*
X021188Y026869D01*
X021034Y026716D01*
X021495Y026716D02*
X021572Y026639D01*
X021725Y026639D01*
X021802Y026562D01*
X021802Y026485D01*
X021725Y026409D01*
X021572Y026409D01*
X021495Y026485D01*
X021495Y026562D01*
X021572Y026639D01*
X021495Y026716D02*
X021495Y026792D01*
X021572Y026869D01*
X021725Y026869D01*
X021802Y026792D01*
X021802Y026716D01*
X021725Y026639D01*
X021955Y026639D02*
X022109Y026716D01*
X022185Y026716D01*
X022262Y026639D01*
X022262Y026485D01*
X022185Y026409D01*
X022032Y026409D01*
X021955Y026485D01*
X021955Y026639D02*
X021955Y026869D01*
X022262Y026869D01*
X022416Y026716D02*
X022569Y026869D01*
X022569Y026409D01*
X022416Y026409D02*
X022723Y026409D01*
X022876Y026485D02*
X022953Y026409D01*
X023106Y026409D01*
X023183Y026485D01*
X023183Y026562D01*
X023106Y026639D01*
X022953Y026639D01*
X022876Y026716D01*
X022876Y026792D01*
X022953Y026869D01*
X023106Y026869D01*
X023183Y026792D01*
X023336Y026869D02*
X023643Y026869D01*
X023490Y026869D02*
X023490Y026409D01*
X023797Y026409D02*
X023797Y026869D01*
X024027Y026869D01*
X024104Y026792D01*
X024104Y026639D01*
X024027Y026562D01*
X023797Y026562D01*
X023950Y026562D02*
X024104Y026409D01*
X024318Y025205D02*
X024241Y025129D01*
X024241Y024975D01*
X024318Y024898D01*
X024625Y024898D01*
X024318Y025205D01*
X024625Y025205D01*
X024701Y025129D01*
X024701Y024975D01*
X024625Y024898D01*
X024701Y024745D02*
X024701Y024438D01*
X024395Y024745D01*
X024318Y024745D01*
X024241Y024668D01*
X024241Y024515D01*
X024318Y024438D01*
X024318Y024285D02*
X024241Y024208D01*
X024241Y024054D01*
X024318Y023978D01*
X024625Y023978D01*
X024701Y024054D01*
X024701Y024208D01*
X024625Y024285D01*
X021950Y023582D02*
X021950Y023121D01*
X021797Y023121D02*
X022104Y023121D01*
X021797Y023428D02*
X021950Y023582D01*
X021490Y023582D02*
X021490Y023121D01*
X021643Y023121D02*
X021336Y023121D01*
X021183Y023121D02*
X021029Y023275D01*
X020953Y023121D02*
X020876Y023198D01*
X020876Y023505D01*
X020953Y023582D01*
X021106Y023582D01*
X021183Y023505D01*
X021183Y023198D01*
X021106Y023121D01*
X020953Y023121D01*
X021336Y023428D02*
X021490Y023582D01*
X019466Y023578D02*
X019389Y023655D01*
X019159Y023655D01*
X019159Y023501D01*
X019236Y023424D01*
X019389Y023424D01*
X019466Y023501D01*
X019466Y023578D01*
X019312Y023808D02*
X019466Y023885D01*
X019312Y023808D02*
X019159Y023655D01*
X019006Y023424D02*
X018699Y023424D01*
X018852Y023424D02*
X018852Y023885D01*
X018699Y023731D01*
X018545Y023808D02*
X018468Y023885D01*
X018315Y023885D01*
X018238Y023808D01*
X018238Y023501D01*
X018315Y023424D01*
X018468Y023424D01*
X018545Y023501D01*
X018484Y020369D02*
X018637Y020369D01*
X018714Y020292D01*
X018714Y019985D01*
X018637Y019909D01*
X018484Y019909D01*
X018407Y019985D01*
X018407Y020292D01*
X018484Y020369D01*
X018560Y020062D02*
X018714Y019909D01*
X018867Y019909D02*
X019174Y019909D01*
X019021Y019909D02*
X019021Y020369D01*
X018867Y020216D01*
X019328Y020292D02*
X019328Y019985D01*
X019635Y020292D01*
X019635Y019985D01*
X019558Y019909D01*
X019404Y019909D01*
X019328Y019985D01*
X019328Y020292D02*
X019404Y020369D01*
X019558Y020369D01*
X019635Y020292D01*
X020407Y020121D02*
X020560Y020121D01*
X020484Y020121D02*
X020484Y020582D01*
X020560Y020582D02*
X020407Y020582D01*
X020714Y020582D02*
X020944Y020582D01*
X021021Y020505D01*
X021021Y020351D01*
X020944Y020275D01*
X020714Y020275D01*
X020867Y020275D02*
X021021Y020121D01*
X021174Y020198D02*
X021251Y020121D01*
X021404Y020121D01*
X021481Y020198D01*
X021481Y020275D01*
X021404Y020351D01*
X021251Y020351D01*
X021174Y020428D01*
X021174Y020505D01*
X021251Y020582D01*
X021404Y020582D01*
X021481Y020505D01*
X021635Y020505D02*
X021711Y020582D01*
X021865Y020582D01*
X021941Y020505D01*
X021941Y020428D01*
X021635Y020121D01*
X021941Y020121D01*
X022095Y020121D02*
X022402Y020121D01*
X022248Y020121D02*
X022248Y020582D01*
X022095Y020428D01*
X022555Y020428D02*
X022555Y020505D01*
X022632Y020582D01*
X022786Y020582D01*
X022862Y020505D01*
X022862Y020428D01*
X022786Y020351D01*
X022632Y020351D01*
X022555Y020428D01*
X022632Y020351D02*
X022555Y020275D01*
X022555Y020198D01*
X022632Y020121D01*
X022786Y020121D01*
X022862Y020198D01*
X022862Y020275D01*
X022786Y020351D01*
X023016Y020351D02*
X023169Y020428D01*
X023246Y020428D01*
X023323Y020351D01*
X023323Y020198D01*
X023246Y020121D01*
X023092Y020121D01*
X023016Y020198D01*
X023016Y020351D02*
X023016Y020582D01*
X023323Y020582D01*
X023476Y020428D02*
X023630Y020582D01*
X023630Y020121D01*
X023783Y020121D02*
X023476Y020121D01*
X023936Y020198D02*
X024013Y020121D01*
X024167Y020121D01*
X024243Y020198D01*
X024243Y020275D01*
X024167Y020351D01*
X024013Y020351D01*
X023936Y020428D01*
X023936Y020505D01*
X024013Y020582D01*
X024167Y020582D01*
X024243Y020505D01*
X024397Y020582D02*
X024704Y020582D01*
X024857Y020582D02*
X025087Y020582D01*
X025164Y020505D01*
X025164Y020351D01*
X025087Y020275D01*
X024857Y020275D01*
X024857Y020121D02*
X024857Y020582D01*
X024550Y020582D02*
X024550Y020121D01*
X025011Y020275D02*
X025164Y020121D01*
X023201Y019205D02*
X023201Y018898D01*
X023201Y018745D02*
X023201Y018438D01*
X022895Y018745D01*
X022818Y018745D01*
X022741Y018668D01*
X022741Y018515D01*
X022818Y018438D01*
X022818Y018285D02*
X022741Y018208D01*
X022741Y018054D01*
X022818Y017978D01*
X023125Y017978D01*
X023201Y018054D01*
X023201Y018208D01*
X023125Y018285D01*
X022895Y018898D02*
X022741Y019052D01*
X023201Y019052D01*
X020714Y020121D02*
X020714Y020582D01*
X018451Y019129D02*
X018451Y018975D01*
X018375Y018898D01*
X018221Y018898D02*
X018145Y019052D01*
X018145Y019129D01*
X018221Y019205D01*
X018375Y019205D01*
X018451Y019129D01*
X018221Y018898D02*
X017991Y018898D01*
X017991Y019205D01*
X018451Y018745D02*
X018451Y018438D01*
X018451Y018591D02*
X017991Y018591D01*
X018145Y018438D01*
X018068Y018285D02*
X017991Y018208D01*
X017991Y018054D01*
X018068Y017978D01*
X018375Y017978D01*
X018451Y018054D01*
X018451Y018208D01*
X018375Y018285D01*
X019065Y017385D02*
X018988Y017308D01*
X018988Y017001D01*
X019065Y016924D01*
X019218Y016924D01*
X019295Y017001D01*
X019449Y016924D02*
X019756Y017231D01*
X019756Y017308D01*
X019679Y017385D01*
X019525Y017385D01*
X019449Y017308D01*
X019295Y017308D02*
X019218Y017385D01*
X019065Y017385D01*
X019449Y016924D02*
X019756Y016924D01*
X019909Y017001D02*
X019986Y016924D01*
X020139Y016924D01*
X020216Y017001D01*
X020216Y017078D01*
X020139Y017155D01*
X019909Y017155D01*
X019909Y017001D01*
X019909Y017155D02*
X020062Y017308D01*
X020216Y017385D01*
X020953Y013832D02*
X021106Y013832D01*
X021183Y013755D01*
X021183Y013448D01*
X021106Y013371D01*
X020953Y013371D01*
X020876Y013448D01*
X020876Y013755D01*
X020953Y013832D01*
X021029Y013525D02*
X021183Y013371D01*
X021336Y013371D02*
X021643Y013678D01*
X021643Y013755D01*
X021567Y013832D01*
X021413Y013832D01*
X021336Y013755D01*
X021336Y013371D02*
X021643Y013371D01*
X021797Y013448D02*
X022104Y013755D01*
X022104Y013448D01*
X022027Y013371D01*
X021874Y013371D01*
X021797Y013448D01*
X021797Y013755D01*
X021874Y013832D01*
X022027Y013832D01*
X022104Y013755D01*
X022029Y013119D02*
X022183Y012966D01*
X022183Y012659D01*
X022336Y012659D02*
X022643Y012966D01*
X022643Y013042D01*
X022567Y013119D01*
X022413Y013119D01*
X022336Y013042D01*
X022183Y012889D02*
X021876Y012889D01*
X021876Y012966D02*
X021876Y012659D01*
X021723Y012659D02*
X021723Y013119D01*
X021876Y012966D02*
X022029Y013119D01*
X021723Y012659D02*
X021416Y013119D01*
X021416Y012659D01*
X021262Y012659D02*
X021109Y012659D01*
X021185Y012659D02*
X021185Y013119D01*
X021109Y013119D02*
X021262Y013119D01*
X020955Y012582D02*
X020648Y012582D01*
X020495Y012659D02*
X020341Y012812D01*
X020265Y012659D02*
X020188Y012735D01*
X020188Y013042D01*
X020265Y013119D01*
X020418Y013119D01*
X020495Y013042D01*
X020495Y012735D01*
X020418Y012659D01*
X020265Y012659D01*
X022336Y012659D02*
X022643Y012659D01*
X022797Y012735D02*
X022797Y012812D01*
X022874Y012889D01*
X023027Y012889D01*
X023104Y012812D01*
X023104Y012735D01*
X023027Y012659D01*
X022874Y012659D01*
X022797Y012735D01*
X022874Y012889D02*
X022797Y012966D01*
X022797Y013042D01*
X022874Y013119D01*
X023027Y013119D01*
X023104Y013042D01*
X023104Y012966D01*
X023027Y012889D01*
X027832Y014884D02*
X027832Y015114D01*
X027908Y015191D01*
X028062Y015191D01*
X028139Y015114D01*
X028139Y014884D01*
X028292Y014884D02*
X027832Y014884D01*
X028139Y015037D02*
X028292Y015191D01*
X028292Y015344D02*
X028292Y015651D01*
X028292Y015498D02*
X027832Y015498D01*
X027985Y015344D01*
X028062Y015805D02*
X028062Y016035D01*
X028139Y016112D01*
X028215Y016112D01*
X028292Y016035D01*
X028292Y015881D01*
X028215Y015805D01*
X028062Y015805D01*
X027908Y015958D01*
X027832Y016112D01*
X029832Y016634D02*
X029832Y016864D01*
X029908Y016941D01*
X030062Y016941D01*
X030139Y016864D01*
X030139Y016634D01*
X030292Y016634D02*
X029832Y016634D01*
X030139Y016787D02*
X030292Y016941D01*
X030292Y017094D02*
X030292Y017401D01*
X030292Y017248D02*
X029832Y017248D01*
X029985Y017094D01*
X030062Y017555D02*
X030062Y017862D01*
X030292Y017785D02*
X029832Y017785D01*
X030062Y017555D01*
X030582Y017535D02*
X030582Y017381D01*
X030658Y017305D01*
X030735Y017305D01*
X030812Y017381D01*
X030812Y017612D01*
X030965Y017612D02*
X030658Y017612D01*
X030582Y017535D01*
X030965Y017612D02*
X031042Y017535D01*
X031042Y017381D01*
X030965Y017305D01*
X031042Y017151D02*
X031042Y016844D01*
X031042Y016691D02*
X030889Y016537D01*
X030889Y016614D02*
X030889Y016384D01*
X031042Y016384D02*
X030582Y016384D01*
X030582Y016614D01*
X030658Y016691D01*
X030812Y016691D01*
X030889Y016614D01*
X030735Y016844D02*
X030582Y016998D01*
X031042Y016998D01*
X034082Y019265D02*
X034082Y019725D01*
X034312Y019725D01*
X034389Y019649D01*
X034389Y019495D01*
X034312Y019418D01*
X034082Y019418D01*
X034235Y019418D02*
X034389Y019265D01*
X034542Y019342D02*
X034619Y019265D01*
X034773Y019265D01*
X034849Y019342D01*
X034849Y019649D01*
X034773Y019725D01*
X034619Y019725D01*
X034542Y019649D01*
X034542Y019572D01*
X034619Y019495D01*
X034849Y019495D01*
X036161Y018475D02*
X036391Y018475D01*
X036468Y018399D01*
X036468Y018245D01*
X036391Y018168D01*
X036161Y018168D01*
X036161Y018015D02*
X036161Y018475D01*
X036315Y018168D02*
X036468Y018015D01*
X036622Y018015D02*
X036929Y018322D01*
X036929Y018399D01*
X036852Y018475D01*
X036698Y018475D01*
X036622Y018399D01*
X036622Y018015D02*
X036929Y018015D01*
X037080Y016475D02*
X037233Y016475D01*
X037310Y016399D01*
X037003Y016092D01*
X037080Y016015D01*
X037233Y016015D01*
X037310Y016092D01*
X037310Y016399D01*
X037080Y016475D02*
X037003Y016399D01*
X037003Y016092D01*
X036849Y016015D02*
X036542Y016015D01*
X036389Y016015D02*
X036235Y016168D01*
X036312Y016168D02*
X036082Y016168D01*
X036082Y016015D02*
X036082Y016475D01*
X036312Y016475D01*
X036389Y016399D01*
X036389Y016245D01*
X036312Y016168D01*
X036542Y016322D02*
X036696Y016475D01*
X036696Y016015D01*
X036696Y014566D02*
X036465Y014336D01*
X036772Y014336D01*
X036696Y014106D02*
X036696Y014566D01*
X036158Y014566D02*
X036158Y014106D01*
X036005Y014106D02*
X036312Y014106D01*
X036005Y014412D02*
X036158Y014566D01*
X035852Y014489D02*
X035775Y014566D01*
X035621Y014566D01*
X035545Y014489D01*
X035545Y014182D01*
X035621Y014106D01*
X035775Y014106D01*
X035852Y014182D01*
X040157Y011832D02*
X040310Y011832D01*
X040234Y011832D02*
X040234Y011371D01*
X040310Y011371D02*
X040157Y011371D01*
X040464Y011371D02*
X040464Y011832D01*
X040694Y011832D01*
X040771Y011755D01*
X040771Y011601D01*
X040694Y011525D01*
X040464Y011525D01*
X040617Y011525D02*
X040771Y011371D01*
X040924Y011448D02*
X041001Y011371D01*
X041154Y011371D01*
X041231Y011448D01*
X041231Y011525D01*
X041154Y011601D01*
X041001Y011601D01*
X040924Y011678D01*
X040924Y011755D01*
X041001Y011832D01*
X041154Y011832D01*
X041231Y011755D01*
X041385Y011755D02*
X041461Y011832D01*
X041615Y011832D01*
X041691Y011755D01*
X041691Y011678D01*
X041385Y011371D01*
X041691Y011371D01*
X041845Y011371D02*
X042152Y011371D01*
X041998Y011371D02*
X041998Y011832D01*
X041845Y011678D01*
X042305Y011678D02*
X042305Y011755D01*
X042382Y011832D01*
X042536Y011832D01*
X042612Y011755D01*
X042612Y011678D01*
X042536Y011601D01*
X042382Y011601D01*
X042305Y011678D01*
X042382Y011601D02*
X042305Y011525D01*
X042305Y011448D01*
X042382Y011371D01*
X042536Y011371D01*
X042612Y011448D01*
X042612Y011525D01*
X042536Y011601D01*
X042766Y011601D02*
X042919Y011678D01*
X042996Y011678D01*
X043073Y011601D01*
X043073Y011448D01*
X042996Y011371D01*
X042842Y011371D01*
X042766Y011448D01*
X042766Y011601D02*
X042766Y011832D01*
X043073Y011832D01*
X043226Y011678D02*
X043380Y011832D01*
X043380Y011371D01*
X043533Y011371D02*
X043226Y011371D01*
X043686Y011448D02*
X043763Y011371D01*
X043917Y011371D01*
X043993Y011448D01*
X043993Y011525D01*
X043917Y011601D01*
X043763Y011601D01*
X043686Y011678D01*
X043686Y011755D01*
X043763Y011832D01*
X043917Y011832D01*
X043993Y011755D01*
X044147Y011832D02*
X044454Y011832D01*
X044607Y011832D02*
X044837Y011832D01*
X044914Y011755D01*
X044914Y011601D01*
X044837Y011525D01*
X044607Y011525D01*
X044607Y011371D02*
X044607Y011832D01*
X044300Y011832D02*
X044300Y011371D01*
X044761Y011525D02*
X044914Y011371D01*
X046922Y012132D02*
X046922Y012362D01*
X046999Y012439D01*
X047152Y012439D01*
X047229Y012362D01*
X047229Y012132D01*
X047229Y012285D02*
X047383Y012439D01*
X047152Y012592D02*
X046922Y012822D01*
X047383Y012822D01*
X047152Y012899D02*
X047152Y012592D01*
X047383Y012132D02*
X046922Y012132D01*
X046946Y014106D02*
X046792Y014106D01*
X046715Y014182D01*
X046562Y014106D02*
X046255Y014106D01*
X046408Y014106D02*
X046408Y014566D01*
X046255Y014412D01*
X046102Y014489D02*
X046025Y014566D01*
X045871Y014566D01*
X045795Y014489D01*
X045795Y014182D01*
X045871Y014106D01*
X046025Y014106D01*
X046102Y014182D01*
X046715Y014489D02*
X046792Y014566D01*
X046946Y014566D01*
X047022Y014489D01*
X047022Y014412D01*
X046946Y014336D01*
X047022Y014259D01*
X047022Y014182D01*
X046946Y014106D01*
X046946Y014336D02*
X046869Y014336D01*
X045792Y017015D02*
X045332Y017015D01*
X045332Y017245D01*
X045408Y017322D01*
X045562Y017322D01*
X045639Y017245D01*
X045639Y017015D01*
X045639Y017168D02*
X045792Y017322D01*
X045792Y017475D02*
X045715Y017475D01*
X045408Y017782D01*
X045332Y017782D01*
X045332Y017475D01*
X044159Y018174D02*
X044159Y018251D01*
X044466Y018558D01*
X044466Y018635D01*
X044159Y018635D01*
X043852Y018635D02*
X043852Y018174D01*
X043699Y018174D02*
X044006Y018174D01*
X043699Y018481D02*
X043852Y018635D01*
X043545Y018558D02*
X043468Y018635D01*
X043315Y018635D01*
X043238Y018558D01*
X043238Y018251D01*
X043315Y018174D01*
X043468Y018174D01*
X043545Y018251D01*
X043306Y019171D02*
X043383Y019248D01*
X043383Y019401D01*
X043306Y019478D01*
X043383Y019632D02*
X043383Y019939D01*
X043383Y020092D02*
X043076Y020399D01*
X042999Y020399D01*
X042922Y020322D01*
X042922Y020169D01*
X042999Y020092D01*
X042922Y019785D02*
X043383Y019785D01*
X043383Y020092D02*
X043383Y020399D01*
X042922Y019785D02*
X043076Y019632D01*
X042999Y019478D02*
X042922Y019401D01*
X042922Y019248D01*
X042999Y019171D01*
X043306Y019171D01*
X041383Y019708D02*
X041383Y019862D01*
X041306Y019939D01*
X041306Y020092D02*
X041383Y020169D01*
X041383Y020322D01*
X041306Y020399D01*
X041152Y020399D01*
X041076Y020322D01*
X041076Y020245D01*
X041152Y020092D01*
X040922Y020092D01*
X040922Y020399D01*
X040988Y020765D02*
X040911Y020842D01*
X040911Y021149D01*
X040988Y021225D01*
X041141Y021225D01*
X041218Y021149D01*
X041218Y020842D01*
X041141Y020765D01*
X040988Y020765D01*
X041065Y020918D02*
X041218Y020765D01*
X041372Y020765D02*
X041679Y020765D01*
X041525Y020765D02*
X041525Y021225D01*
X041372Y021072D01*
X040383Y020322D02*
X039922Y020322D01*
X040152Y020092D01*
X040152Y020399D01*
X039999Y019939D02*
X039922Y019862D01*
X039922Y019708D01*
X039999Y019632D01*
X040306Y019632D01*
X040383Y019708D01*
X040383Y019862D01*
X040306Y019939D01*
X040318Y019745D02*
X040395Y019745D01*
X040471Y019668D01*
X040548Y019745D01*
X040625Y019745D01*
X040701Y019668D01*
X040701Y019515D01*
X040625Y019438D01*
X040701Y019285D02*
X040548Y019131D01*
X040548Y019208D02*
X040548Y018978D01*
X040701Y018978D02*
X040241Y018978D01*
X040241Y019208D01*
X040318Y019285D01*
X040471Y019285D01*
X040548Y019208D01*
X040318Y019438D02*
X040241Y019515D01*
X040241Y019668D01*
X040318Y019745D01*
X040471Y019668D02*
X040471Y019591D01*
X040922Y019708D02*
X040922Y019862D01*
X040999Y019939D01*
X040922Y019708D02*
X040999Y019632D01*
X041306Y019632D01*
X041383Y019708D01*
X041402Y016149D02*
X041402Y015919D01*
X041326Y015842D01*
X041249Y015842D01*
X041172Y015919D01*
X041172Y016072D01*
X041249Y016149D01*
X041556Y016149D01*
X041633Y016072D01*
X041633Y015919D01*
X041556Y015842D01*
X041633Y015689D02*
X041633Y015382D01*
X041633Y015535D02*
X041172Y015535D01*
X041326Y015382D01*
X041249Y015228D02*
X041172Y015151D01*
X041172Y014998D01*
X041249Y014921D01*
X041556Y014921D01*
X041633Y014998D01*
X041633Y015151D01*
X041556Y015228D01*
X041387Y015119D02*
X041464Y015042D01*
X041464Y014735D01*
X041387Y014659D01*
X041234Y014659D01*
X041157Y014735D01*
X041157Y015042D01*
X041234Y015119D01*
X041387Y015119D01*
X041310Y014812D02*
X041464Y014659D01*
X041617Y014735D02*
X041694Y014659D01*
X041847Y014659D01*
X041924Y014735D01*
X041924Y014812D01*
X041847Y014889D01*
X041617Y014889D01*
X041617Y014735D01*
X041617Y014889D02*
X041771Y015042D01*
X041924Y015119D01*
X035308Y010971D02*
X035231Y011048D01*
X034924Y011048D01*
X034847Y010971D01*
X034847Y010818D01*
X034924Y010741D01*
X035001Y010741D01*
X035078Y010818D01*
X035078Y011048D01*
X035308Y010971D02*
X035308Y010818D01*
X035231Y010741D01*
X035231Y010588D02*
X035308Y010511D01*
X035308Y010357D01*
X035231Y010281D01*
X034924Y010281D01*
X034847Y010357D01*
X034847Y010511D01*
X034924Y010588D01*
X035231Y010588D01*
X035308Y010588D02*
X035154Y010434D01*
X047863Y008971D02*
X047863Y008818D01*
X047940Y008741D01*
X048017Y008741D01*
X048093Y008818D01*
X048093Y009048D01*
X047940Y009048D02*
X047863Y008971D01*
X047940Y009048D02*
X048247Y009048D01*
X048324Y008971D01*
X048324Y008818D01*
X048247Y008741D01*
X048247Y008588D02*
X048324Y008511D01*
X048324Y008357D01*
X048247Y008281D01*
X047940Y008281D01*
X047863Y008357D01*
X047863Y008511D01*
X047940Y008588D01*
X052475Y010175D02*
X052475Y010329D01*
X052475Y010252D02*
X052859Y010252D01*
X052936Y010175D01*
X052936Y010098D01*
X052859Y010022D01*
X052936Y010482D02*
X052936Y010789D01*
X052936Y010635D02*
X052475Y010635D01*
X052629Y010482D01*
X052552Y010942D02*
X052475Y011019D01*
X052475Y011173D01*
X052552Y011249D01*
X052859Y010942D01*
X052936Y011019D01*
X052936Y011173D01*
X052859Y011249D01*
X052552Y011249D01*
X052552Y010942D02*
X052859Y010942D01*
X052684Y005596D02*
X052607Y005596D01*
X052530Y005519D01*
X052530Y005366D01*
X052454Y005289D01*
X052377Y005289D01*
X052300Y005366D01*
X052300Y005519D01*
X052377Y005596D01*
X052454Y005596D01*
X052530Y005519D01*
X052530Y005366D02*
X052607Y005289D01*
X052684Y005289D01*
X052761Y005366D01*
X052761Y005519D01*
X052684Y005596D01*
X052684Y005135D02*
X052761Y005059D01*
X052761Y004905D01*
X052684Y004828D01*
X052377Y004828D01*
X052300Y004905D01*
X052300Y005059D01*
X052377Y005135D01*
X051782Y019122D02*
X051457Y019448D01*
X051619Y019611D01*
X051728Y019611D01*
X051836Y019502D01*
X051836Y019393D01*
X051674Y019231D01*
X051782Y019339D02*
X051999Y019339D01*
X052054Y019502D02*
X051999Y019556D01*
X051999Y019665D01*
X052108Y019773D01*
X052216Y019773D01*
X052271Y019719D01*
X052271Y019611D01*
X052162Y019502D01*
X052054Y019502D01*
X051999Y019665D02*
X051891Y019665D01*
X051836Y019719D01*
X051836Y019828D01*
X051945Y019936D01*
X052054Y019936D01*
X052108Y019882D01*
X052108Y019773D01*
X051273Y020765D02*
X051119Y020765D01*
X051042Y020842D01*
X050889Y020765D02*
X050889Y021225D01*
X051042Y021149D02*
X051119Y021225D01*
X051273Y021225D01*
X051349Y021149D01*
X051349Y021072D01*
X051273Y020995D01*
X051349Y020918D01*
X051349Y020842D01*
X051273Y020765D01*
X051273Y020995D02*
X051196Y020995D01*
X050889Y020995D02*
X050582Y020995D01*
X050582Y020765D02*
X050582Y021225D01*
X049542Y021842D02*
X049542Y021918D01*
X049465Y021995D01*
X049082Y021995D01*
X049082Y021918D02*
X049082Y022072D01*
X049235Y022225D02*
X049082Y022379D01*
X049542Y022379D01*
X049542Y022532D02*
X049542Y022225D01*
X049542Y021842D02*
X049465Y021765D01*
X048701Y022174D02*
X048241Y022174D01*
X048241Y022405D01*
X048318Y022481D01*
X048471Y022481D01*
X048548Y022405D01*
X048548Y022174D01*
X048548Y022328D02*
X048701Y022481D01*
X048701Y022635D02*
X048701Y022942D01*
X048701Y023095D02*
X048395Y023402D01*
X048318Y023402D01*
X048241Y023325D01*
X048241Y023172D01*
X048318Y023095D01*
X048241Y022788D02*
X048701Y022788D01*
X048701Y023095D02*
X048701Y023402D01*
X049158Y022993D02*
X049082Y022916D01*
X049082Y022763D01*
X049158Y022686D01*
X049158Y022993D02*
X049235Y022993D01*
X049542Y022686D01*
X049542Y022993D01*
X048395Y022635D02*
X048241Y022788D01*
X043201Y025554D02*
X043201Y025708D01*
X043125Y025785D01*
X043125Y025938D02*
X042971Y025938D01*
X042971Y026168D01*
X043048Y026245D01*
X043125Y026245D01*
X043201Y026168D01*
X043201Y026015D01*
X043125Y025938D01*
X042971Y025938D02*
X042818Y026091D01*
X042741Y026245D01*
X042383Y026072D02*
X042383Y025919D01*
X042306Y025842D01*
X042306Y025689D02*
X042383Y025612D01*
X042383Y025458D01*
X042306Y025382D01*
X041999Y025382D01*
X041922Y025458D01*
X041922Y025612D01*
X041999Y025689D01*
X041999Y025842D02*
X041922Y025919D01*
X041922Y026072D01*
X041999Y026149D01*
X042076Y026149D01*
X042152Y026072D01*
X042229Y026149D01*
X042306Y026149D01*
X042383Y026072D01*
X042152Y026072D02*
X042152Y025995D01*
X042741Y025708D02*
X042741Y025554D01*
X042818Y025478D01*
X043125Y025478D01*
X043201Y025554D01*
X042818Y025785D02*
X042741Y025708D01*
X043408Y028515D02*
X043332Y028592D01*
X043332Y028745D01*
X043408Y028822D01*
X043715Y028822D01*
X043792Y028745D01*
X043792Y028592D01*
X043715Y028515D01*
X043408Y028515D01*
X043639Y028668D02*
X043792Y028822D01*
X043792Y028975D02*
X043485Y029282D01*
X043408Y029282D01*
X043332Y029206D01*
X043332Y029052D01*
X043408Y028975D01*
X043792Y028975D02*
X043792Y029282D01*
X043701Y030478D02*
X043241Y030478D01*
X043241Y030708D01*
X043318Y030785D01*
X043471Y030785D01*
X043548Y030708D01*
X043548Y030478D01*
X043548Y030631D02*
X043701Y030785D01*
X043625Y030938D02*
X043701Y031015D01*
X043701Y031168D01*
X043625Y031245D01*
X043548Y031245D01*
X043471Y031168D01*
X043471Y030938D01*
X043625Y030938D01*
X043471Y030938D02*
X043318Y031091D01*
X043241Y031245D01*
X041742Y032373D02*
X041665Y032296D01*
X041511Y032296D01*
X041435Y032373D01*
X041281Y032296D02*
X040974Y032296D01*
X041128Y032296D02*
X041128Y032757D01*
X040974Y032603D01*
X040821Y032757D02*
X040667Y032757D01*
X040744Y032757D02*
X040744Y032373D01*
X040667Y032296D01*
X040591Y032296D01*
X040514Y032373D01*
X040591Y033084D02*
X040667Y033084D01*
X040744Y033161D01*
X040744Y033544D01*
X040667Y033544D02*
X040821Y033544D01*
X040974Y033314D02*
X041281Y033314D01*
X041435Y033314D02*
X041588Y033391D01*
X041665Y033391D01*
X041742Y033314D01*
X041742Y033161D01*
X041665Y033084D01*
X041511Y033084D01*
X041435Y033161D01*
X041435Y033314D02*
X041435Y033544D01*
X041742Y033544D01*
X041204Y033544D02*
X041204Y033084D01*
X040974Y033314D02*
X041204Y033544D01*
X040591Y033084D02*
X040514Y033161D01*
X040360Y033084D02*
X040207Y033237D01*
X040284Y033237D02*
X040053Y033237D01*
X040053Y033084D02*
X040053Y033544D01*
X040284Y033544D01*
X040360Y033468D01*
X040360Y033314D01*
X040284Y033237D01*
X041435Y032680D02*
X041511Y032757D01*
X041665Y032757D01*
X041742Y032680D01*
X041742Y032603D01*
X041665Y032527D01*
X041742Y032450D01*
X041742Y032373D01*
X041665Y032527D02*
X041588Y032527D01*
X037883Y033958D02*
X037883Y034112D01*
X037806Y034189D01*
X037806Y034342D02*
X037883Y034342D01*
X037806Y034342D02*
X037499Y034649D01*
X037422Y034649D01*
X037422Y034342D01*
X037499Y034189D02*
X037422Y034112D01*
X037422Y033958D01*
X037499Y033882D01*
X037806Y033882D01*
X037883Y033958D01*
X036602Y036265D02*
X036448Y036265D01*
X036372Y036342D01*
X036525Y036495D02*
X036602Y036495D01*
X036679Y036418D01*
X036679Y036342D01*
X036602Y036265D01*
X036602Y036495D02*
X036679Y036572D01*
X036679Y036649D01*
X036602Y036725D01*
X036448Y036725D01*
X036372Y036649D01*
X036218Y036725D02*
X036065Y036725D01*
X036141Y036725D02*
X036141Y036342D01*
X036065Y036265D01*
X035988Y036265D01*
X035911Y036342D01*
X031179Y036495D02*
X030872Y036495D01*
X031102Y036725D01*
X031102Y036265D01*
X030641Y036342D02*
X030641Y036725D01*
X030565Y036725D02*
X030718Y036725D01*
X030641Y036342D02*
X030565Y036265D01*
X030488Y036265D01*
X030411Y036342D01*
X025679Y036342D02*
X025602Y036265D01*
X025448Y036265D01*
X025372Y036342D01*
X025372Y036495D02*
X025525Y036572D01*
X025602Y036572D01*
X025679Y036495D01*
X025679Y036342D01*
X025372Y036495D02*
X025372Y036725D01*
X025679Y036725D01*
X025218Y036725D02*
X025065Y036725D01*
X025141Y036725D02*
X025141Y036342D01*
X025065Y036265D01*
X024988Y036265D01*
X024911Y036342D01*
X020179Y036342D02*
X020179Y036418D01*
X020102Y036495D01*
X019872Y036495D01*
X019872Y036342D01*
X019948Y036265D01*
X020102Y036265D01*
X020179Y036342D01*
X020025Y036649D02*
X019872Y036495D01*
X020025Y036649D02*
X020179Y036725D01*
X019718Y036725D02*
X019565Y036725D01*
X019641Y036725D02*
X019641Y036342D01*
X019565Y036265D01*
X019488Y036265D01*
X019411Y036342D01*
X014679Y036649D02*
X014372Y036342D01*
X014372Y036265D01*
X014141Y036342D02*
X014141Y036725D01*
X014065Y036725D02*
X014218Y036725D01*
X014372Y036725D02*
X014679Y036725D01*
X014679Y036649D01*
X014141Y036342D02*
X014065Y036265D01*
X013988Y036265D01*
X013911Y036342D01*
X009179Y036342D02*
X009102Y036265D01*
X008948Y036265D01*
X008872Y036342D01*
X008872Y036418D01*
X008948Y036495D01*
X009102Y036495D01*
X009179Y036418D01*
X009179Y036342D01*
X009102Y036495D02*
X009179Y036572D01*
X009179Y036649D01*
X009102Y036725D01*
X008948Y036725D01*
X008872Y036649D01*
X008872Y036572D01*
X008948Y036495D01*
X008718Y036725D02*
X008565Y036725D01*
X008641Y036725D02*
X008641Y036342D01*
X008565Y036265D01*
X008488Y036265D01*
X008411Y036342D01*
X007379Y037310D02*
X007302Y037234D01*
X007148Y037234D01*
X007072Y037310D01*
X007072Y037387D01*
X007148Y037464D01*
X007302Y037464D01*
X007379Y037387D01*
X007379Y037310D01*
X007302Y037464D02*
X007379Y037540D01*
X007379Y037617D01*
X007302Y037694D01*
X007148Y037694D01*
X007072Y037617D01*
X007072Y037540D01*
X007148Y037464D01*
X006918Y037234D02*
X006611Y037234D01*
X006765Y037234D02*
X006765Y037694D01*
X006611Y037540D01*
X006458Y037617D02*
X006381Y037694D01*
X006228Y037694D01*
X006151Y037617D01*
X006151Y037310D01*
X006228Y037234D01*
X006381Y037234D01*
X006458Y037310D01*
X002099Y038765D02*
X001792Y038765D01*
X001639Y038765D02*
X001639Y039225D01*
X001792Y039072D02*
X001946Y039225D01*
X001946Y038765D01*
X001639Y038995D02*
X001332Y038995D01*
X001332Y038765D02*
X001332Y039225D01*
X025151Y030686D02*
X025228Y030763D01*
X025381Y030763D01*
X025458Y030686D01*
X025458Y030379D01*
X025381Y030302D01*
X025228Y030302D01*
X025151Y030379D01*
X025151Y030686D01*
X025304Y030456D02*
X025458Y030302D01*
X025611Y030379D02*
X025688Y030302D01*
X025841Y030302D01*
X025918Y030379D01*
X025918Y030533D01*
X025841Y030609D01*
X025765Y030609D01*
X025611Y030533D01*
X025611Y030763D01*
X025918Y030763D01*
X028411Y030649D02*
X028411Y030342D01*
X028488Y030265D01*
X028641Y030265D01*
X028718Y030342D01*
X028718Y030649D01*
X028641Y030725D01*
X028488Y030725D01*
X028411Y030649D01*
X028565Y030418D02*
X028718Y030265D01*
X028872Y030495D02*
X029179Y030495D01*
X029102Y030265D02*
X029102Y030725D01*
X028872Y030495D01*
X028735Y027816D02*
X028582Y027816D01*
X028505Y027739D01*
X028352Y027739D02*
X028352Y027586D01*
X028275Y027509D01*
X028045Y027509D01*
X028198Y027509D02*
X028352Y027356D01*
X028505Y027356D02*
X028812Y027662D01*
X028812Y027739D01*
X028735Y027816D01*
X028965Y027662D02*
X029119Y027816D01*
X029119Y027356D01*
X029272Y027356D02*
X028965Y027356D01*
X028812Y027356D02*
X028505Y027356D01*
X028468Y027135D02*
X028315Y027135D01*
X028238Y027058D01*
X028238Y026751D01*
X028315Y026674D01*
X028468Y026674D01*
X028545Y026751D01*
X028699Y026674D02*
X029006Y026981D01*
X029006Y027058D01*
X028929Y027135D01*
X028775Y027135D01*
X028699Y027058D01*
X028545Y027058D02*
X028468Y027135D01*
X028045Y027356D02*
X028045Y027816D01*
X028275Y027816D01*
X028352Y027739D01*
X029159Y027135D02*
X029466Y027135D01*
X029466Y027058D01*
X029159Y026751D01*
X029159Y026674D01*
X029006Y026674D02*
X028699Y026674D01*
X030408Y024612D02*
X030715Y024305D01*
X030792Y024381D01*
X030792Y024535D01*
X030715Y024612D01*
X030408Y024612D01*
X030332Y024535D01*
X030332Y024381D01*
X030408Y024305D01*
X030715Y024305D01*
X030792Y024151D02*
X030792Y023844D01*
X030485Y024151D01*
X030408Y024151D01*
X030332Y024074D01*
X030332Y023921D01*
X030408Y023844D01*
X030408Y023691D02*
X030562Y023691D01*
X030639Y023614D01*
X030639Y023384D01*
X030792Y023384D02*
X030332Y023384D01*
X030332Y023614D01*
X030408Y023691D01*
X030639Y023537D02*
X030792Y023691D01*
X034082Y021975D02*
X034082Y021515D01*
X034082Y021668D02*
X034312Y021668D01*
X034389Y021745D01*
X034389Y021899D01*
X034312Y021975D01*
X034082Y021975D01*
X034235Y021668D02*
X034389Y021515D01*
X034542Y021515D02*
X034849Y021515D01*
X034696Y021515D02*
X034696Y021975D01*
X034542Y021822D01*
X035003Y021822D02*
X035156Y021975D01*
X035156Y021515D01*
X035003Y021515D02*
X035310Y021515D01*
X035651Y026196D02*
X035958Y026656D01*
X036111Y026503D02*
X036265Y026656D01*
X036265Y026196D01*
X036418Y026196D02*
X036111Y026196D01*
X035958Y026196D02*
X035651Y026656D01*
X036775Y029174D02*
X036699Y029251D01*
X036699Y029558D01*
X036775Y029635D01*
X036929Y029635D01*
X037006Y029558D01*
X037159Y029558D02*
X037236Y029635D01*
X037389Y029635D01*
X037466Y029558D01*
X037466Y029481D01*
X037159Y029174D01*
X037466Y029174D01*
X037006Y029251D02*
X036929Y029174D01*
X036775Y029174D01*
X039795Y029432D02*
X039871Y029356D01*
X040025Y029356D01*
X040102Y029432D01*
X040255Y029356D02*
X040562Y029356D01*
X040408Y029356D02*
X040408Y029816D01*
X040255Y029662D01*
X040102Y029739D02*
X040025Y029816D01*
X039871Y029816D01*
X039795Y029739D01*
X039795Y029432D01*
X047991Y030478D02*
X047991Y030708D01*
X048068Y030785D01*
X048221Y030785D01*
X048298Y030708D01*
X048298Y030478D01*
X048298Y030631D02*
X048451Y030785D01*
X048375Y030938D02*
X048451Y031015D01*
X048451Y031168D01*
X048375Y031245D01*
X048221Y031245D01*
X048145Y031168D01*
X048145Y031091D01*
X048221Y030938D01*
X047991Y030938D01*
X047991Y031245D01*
X047991Y030478D02*
X048451Y030478D01*
X048582Y032015D02*
X048582Y032245D01*
X048658Y032322D01*
X048812Y032322D01*
X048889Y032245D01*
X048889Y032015D01*
X049042Y032015D02*
X048582Y032015D01*
X048889Y032168D02*
X049042Y032322D01*
X049042Y032475D02*
X049042Y032782D01*
X049042Y032629D02*
X048582Y032629D01*
X048735Y032475D01*
X048582Y032936D02*
X048582Y033243D01*
X048658Y033243D01*
X048965Y032936D01*
X049042Y032936D01*
X049582Y033013D02*
X049582Y033166D01*
X049658Y033243D01*
X049735Y033243D01*
X049812Y033166D01*
X049812Y033013D01*
X049735Y032936D01*
X049658Y032936D01*
X049582Y033013D01*
X049812Y033013D02*
X049889Y032936D01*
X049965Y032936D01*
X050042Y033013D01*
X050042Y033166D01*
X049965Y033243D01*
X049889Y033243D01*
X049812Y033166D01*
X050042Y032782D02*
X050042Y032475D01*
X050042Y032322D02*
X049889Y032168D01*
X049889Y032245D02*
X049889Y032015D01*
X050042Y032015D02*
X049582Y032015D01*
X049582Y032245D01*
X049658Y032322D01*
X049812Y032322D01*
X049889Y032245D01*
X049735Y032475D02*
X049582Y032629D01*
X050042Y032629D01*
X051383Y027899D02*
X051383Y027592D01*
X051383Y027439D02*
X051229Y027285D01*
X051229Y027362D02*
X051229Y027132D01*
X051383Y027132D02*
X050922Y027132D01*
X050922Y027362D01*
X050999Y027439D01*
X051152Y027439D01*
X051229Y027362D01*
X051076Y027592D02*
X050922Y027745D01*
X051383Y027745D01*
X041929Y036265D02*
X041622Y036265D01*
X041929Y036572D01*
X041929Y036649D01*
X041852Y036725D01*
X041698Y036725D01*
X041622Y036649D01*
X041468Y036725D02*
X041315Y036725D01*
X041391Y036725D02*
X041391Y036342D01*
X041315Y036265D01*
X041238Y036265D01*
X041161Y036342D01*
X009060Y022365D02*
X008754Y022365D01*
X008907Y022365D02*
X008907Y022826D01*
X008754Y022672D01*
X008600Y022365D02*
X008293Y022365D01*
X008447Y022365D02*
X008447Y022826D01*
X008293Y022672D01*
X008140Y022826D02*
X007986Y022826D01*
X008063Y022826D02*
X008063Y022442D01*
X007986Y022365D01*
X007909Y022365D01*
X007833Y022442D01*
X005849Y022149D02*
X005773Y022225D01*
X005619Y022225D01*
X005542Y022149D01*
X005389Y022225D02*
X005389Y021765D01*
X005542Y021765D02*
X005849Y022072D01*
X005849Y022149D01*
X005849Y021765D02*
X005542Y021765D01*
X005389Y021995D02*
X005082Y021995D01*
X005082Y021765D02*
X005082Y022225D01*
X013206Y012875D02*
X013436Y012875D01*
X013513Y012798D01*
X013513Y012645D01*
X013436Y012568D01*
X013206Y012568D01*
X013206Y012415D02*
X013206Y012875D01*
X013359Y012568D02*
X013513Y012415D01*
X013666Y012415D02*
X013973Y012415D01*
X013820Y012415D02*
X013820Y012875D01*
X013666Y012722D01*
X014127Y012645D02*
X014280Y012722D01*
X014357Y012722D01*
X014434Y012645D01*
X014434Y012491D01*
X014357Y012415D01*
X014204Y012415D01*
X014127Y012491D01*
X014127Y012645D02*
X014127Y012875D01*
X014434Y012875D01*
X015377Y010096D02*
X015684Y009789D01*
X015761Y009866D01*
X015761Y010019D01*
X015684Y010096D01*
X015377Y010096D01*
X015300Y010019D01*
X015300Y009866D01*
X015377Y009789D01*
X015684Y009789D01*
X015684Y009635D02*
X015761Y009559D01*
X015761Y009405D01*
X015684Y009328D01*
X015684Y009175D02*
X015761Y009098D01*
X015761Y008945D01*
X015684Y008868D01*
X015377Y008868D01*
X015300Y008945D01*
X015300Y009098D01*
X015377Y009175D01*
X015377Y009328D02*
X015300Y009405D01*
X015300Y009559D01*
X015377Y009635D01*
X015454Y009635D01*
X015530Y009559D01*
X015607Y009635D01*
X015684Y009635D01*
X015530Y009559D02*
X015530Y009482D01*
X009255Y009184D02*
X008794Y009184D01*
X009024Y008954D01*
X009024Y009261D01*
X008871Y008800D02*
X008794Y008724D01*
X008794Y008493D01*
X009255Y008493D01*
X009255Y008724D01*
X009178Y008800D01*
X008871Y008800D01*
X007615Y007243D02*
X007308Y007243D01*
X007231Y007167D01*
X007231Y007013D01*
X007308Y006936D01*
X007385Y006936D01*
X007461Y007013D01*
X007461Y007243D01*
X007615Y007243D02*
X007692Y007167D01*
X007692Y007013D01*
X007615Y006936D01*
X007615Y006706D02*
X007231Y006706D01*
X007231Y006630D02*
X007231Y006783D01*
X007615Y006706D02*
X007692Y006630D01*
X007692Y006553D01*
X007615Y006476D01*
X006261Y005269D02*
X006184Y005346D01*
X005877Y005346D01*
X006184Y005039D01*
X006261Y005116D01*
X006261Y005269D01*
X006184Y005039D02*
X005877Y005039D01*
X005800Y005116D01*
X005800Y005269D01*
X005877Y005346D01*
X006261Y004885D02*
X006261Y004578D01*
X006261Y004732D02*
X005800Y004732D01*
X005954Y004578D01*
X005877Y004425D02*
X005800Y004348D01*
X005800Y004195D01*
X005877Y004118D01*
X006184Y004118D01*
X006261Y004195D01*
X006261Y004348D01*
X006184Y004425D01*
X005838Y002273D02*
X005838Y001812D01*
X005531Y001812D02*
X005531Y002273D01*
X005684Y002119D01*
X005838Y002273D01*
X005377Y002273D02*
X005377Y001812D01*
X005071Y001812D02*
X005071Y002273D01*
X005224Y002119D01*
X005377Y002273D01*
X004917Y002196D02*
X004610Y001889D01*
X004687Y001812D01*
X004840Y001812D01*
X004917Y001889D01*
X004917Y002196D01*
X004840Y002273D01*
X004687Y002273D01*
X004610Y002196D01*
X004610Y001889D01*
X004457Y001812D02*
X004150Y001812D01*
X004303Y001812D02*
X004303Y002273D01*
X004150Y002119D01*
X003996Y001812D02*
X003689Y001812D01*
X003689Y002273D01*
X003536Y002196D02*
X003459Y002273D01*
X003306Y002273D01*
X003229Y002196D01*
X003229Y001889D01*
X003306Y001812D01*
X003459Y001812D01*
X003536Y001889D01*
X003536Y002196D01*
X003075Y002196D02*
X003075Y002042D01*
X002999Y001966D01*
X002769Y001966D01*
X002769Y001812D02*
X002769Y002273D01*
X002999Y002273D01*
X003075Y002196D01*
X002615Y001736D02*
X002308Y001736D01*
X002155Y001889D02*
X002078Y001812D01*
X001924Y001812D01*
X001848Y001889D01*
X001848Y002196D01*
X001924Y002273D01*
X002078Y002273D01*
X002155Y002196D01*
X010550Y003945D02*
X010627Y003868D01*
X010934Y003868D01*
X011011Y003945D01*
X011011Y004098D01*
X010934Y004175D01*
X011011Y004328D02*
X011011Y004635D01*
X011011Y004482D02*
X010550Y004482D01*
X010704Y004328D01*
X010627Y004175D02*
X010550Y004098D01*
X010550Y003945D01*
X010704Y004789D02*
X010550Y004942D01*
X011011Y004942D01*
X011011Y004789D02*
X011011Y005096D01*
X015300Y005019D02*
X015300Y004866D01*
X015377Y004789D01*
X015454Y004789D01*
X015530Y004866D01*
X015530Y005096D01*
X015377Y005096D02*
X015300Y005019D01*
X015377Y005096D02*
X015684Y005096D01*
X015761Y005019D01*
X015761Y004866D01*
X015684Y004789D01*
X015761Y004635D02*
X015761Y004328D01*
X015454Y004635D01*
X015377Y004635D01*
X015300Y004559D01*
X015300Y004405D01*
X015377Y004328D01*
X015377Y004175D02*
X015300Y004098D01*
X015300Y003945D01*
X015377Y003868D01*
X015684Y003868D01*
X015761Y003945D01*
X015761Y004098D01*
X015684Y004175D01*
D17*
X013706Y004442D02*
X013312Y004442D01*
X012918Y004442D01*
X013312Y004442D02*
X013312Y005032D01*
X011343Y004245D02*
X011345Y004342D01*
X011352Y004438D01*
X011364Y004534D01*
X011381Y004629D01*
X011402Y004723D01*
X011428Y004817D01*
X011458Y004908D01*
X011493Y004999D01*
X011532Y005087D01*
X011575Y005173D01*
X011623Y005257D01*
X011675Y005339D01*
X011730Y005418D01*
X011790Y005494D01*
X011853Y005567D01*
X011920Y005637D01*
X011990Y005704D01*
X012063Y005767D01*
X012139Y005827D01*
X012218Y005882D01*
X012300Y005934D01*
X012384Y005982D01*
X012470Y006025D01*
X012558Y006064D01*
X012649Y006099D01*
X012740Y006129D01*
X012834Y006155D01*
X012928Y006176D01*
X013023Y006193D01*
X013119Y006205D01*
X013215Y006212D01*
X013312Y006214D01*
X013409Y006212D01*
X013505Y006205D01*
X013601Y006193D01*
X013696Y006176D01*
X013790Y006155D01*
X013884Y006129D01*
X013975Y006099D01*
X014066Y006064D01*
X014154Y006025D01*
X014240Y005982D01*
X014324Y005934D01*
X014406Y005882D01*
X014485Y005827D01*
X014561Y005767D01*
X014634Y005704D01*
X014704Y005637D01*
X014771Y005567D01*
X014834Y005494D01*
X014894Y005418D01*
X014949Y005339D01*
X015001Y005257D01*
X015049Y005173D01*
X015092Y005087D01*
X015131Y004999D01*
X015166Y004908D01*
X015196Y004817D01*
X015222Y004723D01*
X015243Y004629D01*
X015260Y004534D01*
X015272Y004438D01*
X015279Y004342D01*
X015281Y004245D01*
X015279Y004148D01*
X015272Y004052D01*
X015260Y003956D01*
X015243Y003861D01*
X015222Y003767D01*
X015196Y003673D01*
X015166Y003582D01*
X015131Y003491D01*
X015092Y003403D01*
X015049Y003317D01*
X015001Y003233D01*
X014949Y003151D01*
X014894Y003072D01*
X014834Y002996D01*
X014771Y002923D01*
X014704Y002853D01*
X014634Y002786D01*
X014561Y002723D01*
X014485Y002663D01*
X014406Y002608D01*
X014324Y002556D01*
X014240Y002508D01*
X014154Y002465D01*
X014066Y002426D01*
X013975Y002391D01*
X013884Y002361D01*
X013790Y002335D01*
X013696Y002314D01*
X013601Y002297D01*
X013505Y002285D01*
X013409Y002278D01*
X013312Y002276D01*
X013215Y002278D01*
X013119Y002285D01*
X013023Y002297D01*
X012928Y002314D01*
X012834Y002335D01*
X012740Y002361D01*
X012649Y002391D01*
X012558Y002426D01*
X012470Y002465D01*
X012384Y002508D01*
X012300Y002556D01*
X012218Y002608D01*
X012139Y002663D01*
X012063Y002723D01*
X011990Y002786D01*
X011920Y002853D01*
X011853Y002923D01*
X011790Y002996D01*
X011730Y003072D01*
X011675Y003151D01*
X011623Y003233D01*
X011575Y003317D01*
X011532Y003403D01*
X011493Y003491D01*
X011458Y003582D01*
X011428Y003673D01*
X011402Y003767D01*
X011381Y003861D01*
X011364Y003956D01*
X011352Y004052D01*
X011345Y004148D01*
X011343Y004245D01*
X013115Y004048D02*
X013312Y004048D01*
X013509Y004048D01*
X013535Y004046D01*
X013560Y004041D01*
X013584Y004033D01*
X013608Y004022D01*
X013629Y004007D01*
X013648Y003990D01*
X013665Y003971D01*
X013680Y003949D01*
X013691Y003926D01*
X013699Y003902D01*
X013704Y003877D01*
X013706Y003851D01*
X013312Y004048D02*
X013312Y003458D01*
X012918Y003851D02*
X012920Y003877D01*
X012925Y003902D01*
X012933Y003926D01*
X012944Y003950D01*
X012959Y003971D01*
X012976Y003990D01*
X012995Y004007D01*
X013016Y004022D01*
X013040Y004033D01*
X013064Y004041D01*
X013089Y004046D01*
X013115Y004048D01*
X008956Y004442D02*
X008562Y004442D01*
X008168Y004442D01*
X008562Y004442D02*
X008562Y005032D01*
X006593Y004245D02*
X006595Y004342D01*
X006602Y004438D01*
X006614Y004534D01*
X006631Y004629D01*
X006652Y004723D01*
X006678Y004817D01*
X006708Y004908D01*
X006743Y004999D01*
X006782Y005087D01*
X006825Y005173D01*
X006873Y005257D01*
X006925Y005339D01*
X006980Y005418D01*
X007040Y005494D01*
X007103Y005567D01*
X007170Y005637D01*
X007240Y005704D01*
X007313Y005767D01*
X007389Y005827D01*
X007468Y005882D01*
X007550Y005934D01*
X007634Y005982D01*
X007720Y006025D01*
X007808Y006064D01*
X007899Y006099D01*
X007990Y006129D01*
X008084Y006155D01*
X008178Y006176D01*
X008273Y006193D01*
X008369Y006205D01*
X008465Y006212D01*
X008562Y006214D01*
X008659Y006212D01*
X008755Y006205D01*
X008851Y006193D01*
X008946Y006176D01*
X009040Y006155D01*
X009134Y006129D01*
X009225Y006099D01*
X009316Y006064D01*
X009404Y006025D01*
X009490Y005982D01*
X009574Y005934D01*
X009656Y005882D01*
X009735Y005827D01*
X009811Y005767D01*
X009884Y005704D01*
X009954Y005637D01*
X010021Y005567D01*
X010084Y005494D01*
X010144Y005418D01*
X010199Y005339D01*
X010251Y005257D01*
X010299Y005173D01*
X010342Y005087D01*
X010381Y004999D01*
X010416Y004908D01*
X010446Y004817D01*
X010472Y004723D01*
X010493Y004629D01*
X010510Y004534D01*
X010522Y004438D01*
X010529Y004342D01*
X010531Y004245D01*
X010529Y004148D01*
X010522Y004052D01*
X010510Y003956D01*
X010493Y003861D01*
X010472Y003767D01*
X010446Y003673D01*
X010416Y003582D01*
X010381Y003491D01*
X010342Y003403D01*
X010299Y003317D01*
X010251Y003233D01*
X010199Y003151D01*
X010144Y003072D01*
X010084Y002996D01*
X010021Y002923D01*
X009954Y002853D01*
X009884Y002786D01*
X009811Y002723D01*
X009735Y002663D01*
X009656Y002608D01*
X009574Y002556D01*
X009490Y002508D01*
X009404Y002465D01*
X009316Y002426D01*
X009225Y002391D01*
X009134Y002361D01*
X009040Y002335D01*
X008946Y002314D01*
X008851Y002297D01*
X008755Y002285D01*
X008659Y002278D01*
X008562Y002276D01*
X008465Y002278D01*
X008369Y002285D01*
X008273Y002297D01*
X008178Y002314D01*
X008084Y002335D01*
X007990Y002361D01*
X007899Y002391D01*
X007808Y002426D01*
X007720Y002465D01*
X007634Y002508D01*
X007550Y002556D01*
X007468Y002608D01*
X007389Y002663D01*
X007313Y002723D01*
X007240Y002786D01*
X007170Y002853D01*
X007103Y002923D01*
X007040Y002996D01*
X006980Y003072D01*
X006925Y003151D01*
X006873Y003233D01*
X006825Y003317D01*
X006782Y003403D01*
X006743Y003491D01*
X006708Y003582D01*
X006678Y003673D01*
X006652Y003767D01*
X006631Y003861D01*
X006614Y003956D01*
X006602Y004052D01*
X006595Y004148D01*
X006593Y004245D01*
X008365Y004048D02*
X008562Y004048D01*
X008759Y004048D01*
X008785Y004046D01*
X008810Y004041D01*
X008834Y004033D01*
X008858Y004022D01*
X008879Y004007D01*
X008898Y003990D01*
X008915Y003971D01*
X008930Y003949D01*
X008941Y003926D01*
X008949Y003902D01*
X008954Y003877D01*
X008956Y003851D01*
X008562Y004048D02*
X008562Y003458D01*
X008168Y003851D02*
X008170Y003877D01*
X008175Y003902D01*
X008183Y003926D01*
X008194Y003950D01*
X008209Y003971D01*
X008226Y003990D01*
X008245Y004007D01*
X008266Y004022D01*
X008290Y004033D01*
X008314Y004041D01*
X008339Y004046D01*
X008365Y004048D01*
X004206Y004692D02*
X003812Y004692D01*
X003418Y004692D01*
X003812Y004692D02*
X003812Y005282D01*
X001843Y004495D02*
X001845Y004592D01*
X001852Y004688D01*
X001864Y004784D01*
X001881Y004879D01*
X001902Y004973D01*
X001928Y005067D01*
X001958Y005158D01*
X001993Y005249D01*
X002032Y005337D01*
X002075Y005423D01*
X002123Y005507D01*
X002175Y005589D01*
X002230Y005668D01*
X002290Y005744D01*
X002353Y005817D01*
X002420Y005887D01*
X002490Y005954D01*
X002563Y006017D01*
X002639Y006077D01*
X002718Y006132D01*
X002800Y006184D01*
X002884Y006232D01*
X002970Y006275D01*
X003058Y006314D01*
X003149Y006349D01*
X003240Y006379D01*
X003334Y006405D01*
X003428Y006426D01*
X003523Y006443D01*
X003619Y006455D01*
X003715Y006462D01*
X003812Y006464D01*
X003909Y006462D01*
X004005Y006455D01*
X004101Y006443D01*
X004196Y006426D01*
X004290Y006405D01*
X004384Y006379D01*
X004475Y006349D01*
X004566Y006314D01*
X004654Y006275D01*
X004740Y006232D01*
X004824Y006184D01*
X004906Y006132D01*
X004985Y006077D01*
X005061Y006017D01*
X005134Y005954D01*
X005204Y005887D01*
X005271Y005817D01*
X005334Y005744D01*
X005394Y005668D01*
X005449Y005589D01*
X005501Y005507D01*
X005549Y005423D01*
X005592Y005337D01*
X005631Y005249D01*
X005666Y005158D01*
X005696Y005067D01*
X005722Y004973D01*
X005743Y004879D01*
X005760Y004784D01*
X005772Y004688D01*
X005779Y004592D01*
X005781Y004495D01*
X005779Y004398D01*
X005772Y004302D01*
X005760Y004206D01*
X005743Y004111D01*
X005722Y004017D01*
X005696Y003923D01*
X005666Y003832D01*
X005631Y003741D01*
X005592Y003653D01*
X005549Y003567D01*
X005501Y003483D01*
X005449Y003401D01*
X005394Y003322D01*
X005334Y003246D01*
X005271Y003173D01*
X005204Y003103D01*
X005134Y003036D01*
X005061Y002973D01*
X004985Y002913D01*
X004906Y002858D01*
X004824Y002806D01*
X004740Y002758D01*
X004654Y002715D01*
X004566Y002676D01*
X004475Y002641D01*
X004384Y002611D01*
X004290Y002585D01*
X004196Y002564D01*
X004101Y002547D01*
X004005Y002535D01*
X003909Y002528D01*
X003812Y002526D01*
X003715Y002528D01*
X003619Y002535D01*
X003523Y002547D01*
X003428Y002564D01*
X003334Y002585D01*
X003240Y002611D01*
X003149Y002641D01*
X003058Y002676D01*
X002970Y002715D01*
X002884Y002758D01*
X002800Y002806D01*
X002718Y002858D01*
X002639Y002913D01*
X002563Y002973D01*
X002490Y003036D01*
X002420Y003103D01*
X002353Y003173D01*
X002290Y003246D01*
X002230Y003322D01*
X002175Y003401D01*
X002123Y003483D01*
X002075Y003567D01*
X002032Y003653D01*
X001993Y003741D01*
X001958Y003832D01*
X001928Y003923D01*
X001902Y004017D01*
X001881Y004111D01*
X001864Y004206D01*
X001852Y004302D01*
X001845Y004398D01*
X001843Y004495D01*
X003615Y004298D02*
X003812Y004298D01*
X004009Y004298D01*
X004035Y004296D01*
X004060Y004291D01*
X004084Y004283D01*
X004108Y004272D01*
X004129Y004257D01*
X004148Y004240D01*
X004165Y004221D01*
X004180Y004199D01*
X004191Y004176D01*
X004199Y004152D01*
X004204Y004127D01*
X004206Y004101D01*
X003812Y004298D02*
X003812Y003708D01*
X003418Y004101D02*
X003420Y004127D01*
X003425Y004152D01*
X003433Y004176D01*
X003444Y004200D01*
X003459Y004221D01*
X003476Y004240D01*
X003495Y004257D01*
X003516Y004272D01*
X003540Y004283D01*
X003564Y004291D01*
X003589Y004296D01*
X003615Y004298D01*
X000322Y008196D02*
X007802Y008196D01*
X007802Y016794D01*
X000322Y016794D01*
X000322Y008196D01*
X009362Y008445D02*
X009362Y012045D01*
X010762Y012045D01*
X010762Y008445D01*
X009362Y008445D01*
X012918Y009442D02*
X013312Y009442D01*
X013706Y009442D01*
X013312Y009442D02*
X013312Y010032D01*
X011343Y009245D02*
X011345Y009342D01*
X011352Y009438D01*
X011364Y009534D01*
X011381Y009629D01*
X011402Y009723D01*
X011428Y009817D01*
X011458Y009908D01*
X011493Y009999D01*
X011532Y010087D01*
X011575Y010173D01*
X011623Y010257D01*
X011675Y010339D01*
X011730Y010418D01*
X011790Y010494D01*
X011853Y010567D01*
X011920Y010637D01*
X011990Y010704D01*
X012063Y010767D01*
X012139Y010827D01*
X012218Y010882D01*
X012300Y010934D01*
X012384Y010982D01*
X012470Y011025D01*
X012558Y011064D01*
X012649Y011099D01*
X012740Y011129D01*
X012834Y011155D01*
X012928Y011176D01*
X013023Y011193D01*
X013119Y011205D01*
X013215Y011212D01*
X013312Y011214D01*
X013409Y011212D01*
X013505Y011205D01*
X013601Y011193D01*
X013696Y011176D01*
X013790Y011155D01*
X013884Y011129D01*
X013975Y011099D01*
X014066Y011064D01*
X014154Y011025D01*
X014240Y010982D01*
X014324Y010934D01*
X014406Y010882D01*
X014485Y010827D01*
X014561Y010767D01*
X014634Y010704D01*
X014704Y010637D01*
X014771Y010567D01*
X014834Y010494D01*
X014894Y010418D01*
X014949Y010339D01*
X015001Y010257D01*
X015049Y010173D01*
X015092Y010087D01*
X015131Y009999D01*
X015166Y009908D01*
X015196Y009817D01*
X015222Y009723D01*
X015243Y009629D01*
X015260Y009534D01*
X015272Y009438D01*
X015279Y009342D01*
X015281Y009245D01*
X015279Y009148D01*
X015272Y009052D01*
X015260Y008956D01*
X015243Y008861D01*
X015222Y008767D01*
X015196Y008673D01*
X015166Y008582D01*
X015131Y008491D01*
X015092Y008403D01*
X015049Y008317D01*
X015001Y008233D01*
X014949Y008151D01*
X014894Y008072D01*
X014834Y007996D01*
X014771Y007923D01*
X014704Y007853D01*
X014634Y007786D01*
X014561Y007723D01*
X014485Y007663D01*
X014406Y007608D01*
X014324Y007556D01*
X014240Y007508D01*
X014154Y007465D01*
X014066Y007426D01*
X013975Y007391D01*
X013884Y007361D01*
X013790Y007335D01*
X013696Y007314D01*
X013601Y007297D01*
X013505Y007285D01*
X013409Y007278D01*
X013312Y007276D01*
X013215Y007278D01*
X013119Y007285D01*
X013023Y007297D01*
X012928Y007314D01*
X012834Y007335D01*
X012740Y007361D01*
X012649Y007391D01*
X012558Y007426D01*
X012470Y007465D01*
X012384Y007508D01*
X012300Y007556D01*
X012218Y007608D01*
X012139Y007663D01*
X012063Y007723D01*
X011990Y007786D01*
X011920Y007853D01*
X011853Y007923D01*
X011790Y007996D01*
X011730Y008072D01*
X011675Y008151D01*
X011623Y008233D01*
X011575Y008317D01*
X011532Y008403D01*
X011493Y008491D01*
X011458Y008582D01*
X011428Y008673D01*
X011402Y008767D01*
X011381Y008861D01*
X011364Y008956D01*
X011352Y009052D01*
X011345Y009148D01*
X011343Y009245D01*
X013115Y009048D02*
X013312Y009048D01*
X013509Y009048D01*
X013535Y009046D01*
X013560Y009041D01*
X013584Y009033D01*
X013608Y009022D01*
X013629Y009007D01*
X013648Y008990D01*
X013665Y008971D01*
X013680Y008949D01*
X013691Y008926D01*
X013699Y008902D01*
X013704Y008877D01*
X013706Y008851D01*
X013312Y009048D02*
X013312Y008458D01*
X012918Y008851D02*
X012920Y008877D01*
X012925Y008902D01*
X012933Y008926D01*
X012944Y008950D01*
X012959Y008971D01*
X012976Y008990D01*
X012995Y009007D01*
X013016Y009022D01*
X013040Y009033D01*
X013064Y009041D01*
X013089Y009046D01*
X013115Y009048D01*
X017712Y012245D02*
X033912Y012245D01*
X033912Y002245D01*
X017712Y002245D01*
X017712Y012245D01*
X017477Y013221D02*
X013147Y013221D01*
X013147Y015269D01*
X017477Y015269D01*
X017477Y013221D01*
X017828Y013458D02*
X017828Y015032D01*
X019796Y015032D01*
X019796Y013458D01*
X017828Y013458D01*
X017984Y013851D02*
X017986Y013874D01*
X017992Y013896D01*
X018001Y013917D01*
X018013Y013936D01*
X018029Y013953D01*
X018047Y013967D01*
X018067Y013978D01*
X018089Y013986D01*
X018112Y013990D01*
X018134Y013990D01*
X018157Y013986D01*
X018179Y013978D01*
X018199Y013967D01*
X018217Y013953D01*
X018233Y013936D01*
X018245Y013917D01*
X018254Y013896D01*
X018260Y013874D01*
X018262Y013851D01*
X018260Y013828D01*
X018254Y013806D01*
X018245Y013785D01*
X018233Y013766D01*
X018217Y013749D01*
X018199Y013735D01*
X018179Y013724D01*
X018157Y013716D01*
X018134Y013712D01*
X018112Y013712D01*
X018089Y013716D01*
X018067Y013724D01*
X018047Y013735D01*
X018029Y013749D01*
X018013Y013766D01*
X018001Y013785D01*
X017992Y013806D01*
X017986Y013828D01*
X017984Y013851D01*
X018632Y016075D02*
X018632Y016915D01*
X020492Y016915D01*
X020492Y016075D01*
X018632Y016075D01*
X018111Y017383D02*
X018111Y022107D01*
X009056Y022107D01*
X009056Y017383D01*
X018111Y017383D01*
X018642Y017815D02*
X019482Y017815D01*
X019482Y019675D01*
X018642Y019675D01*
X018642Y017815D01*
X020525Y018011D02*
X020525Y019979D01*
X022099Y019979D01*
X022099Y018011D01*
X020525Y018011D01*
X021567Y018306D02*
X021569Y018329D01*
X021575Y018351D01*
X021584Y018372D01*
X021596Y018391D01*
X021612Y018408D01*
X021630Y018422D01*
X021650Y018433D01*
X021672Y018441D01*
X021695Y018445D01*
X021717Y018445D01*
X021740Y018441D01*
X021762Y018433D01*
X021782Y018422D01*
X021800Y018408D01*
X021816Y018391D01*
X021828Y018372D01*
X021837Y018351D01*
X021843Y018329D01*
X021845Y018306D01*
X021843Y018283D01*
X021837Y018261D01*
X021828Y018240D01*
X021816Y018221D01*
X021800Y018204D01*
X021782Y018190D01*
X021762Y018179D01*
X021740Y018171D01*
X021717Y018167D01*
X021695Y018167D01*
X021672Y018171D01*
X021650Y018179D01*
X021630Y018190D01*
X021612Y018204D01*
X021596Y018221D01*
X021584Y018240D01*
X021575Y018261D01*
X021569Y018283D01*
X021567Y018306D01*
X023392Y017815D02*
X024232Y017815D01*
X024232Y019675D01*
X023392Y019675D01*
X023392Y017815D01*
X023340Y020745D02*
X018812Y020745D01*
X018812Y023147D01*
X023340Y023147D01*
X023340Y020745D01*
X023392Y023815D02*
X024232Y023815D01*
X024232Y025675D01*
X023392Y025675D01*
X023392Y023815D01*
X022099Y024011D02*
X020525Y024011D01*
X020525Y025979D01*
X022099Y025979D01*
X022099Y024011D01*
X021567Y024306D02*
X021569Y024329D01*
X021575Y024351D01*
X021584Y024372D01*
X021596Y024391D01*
X021612Y024408D01*
X021630Y024422D01*
X021650Y024433D01*
X021672Y024441D01*
X021695Y024445D01*
X021717Y024445D01*
X021740Y024441D01*
X021762Y024433D01*
X021782Y024422D01*
X021800Y024408D01*
X021816Y024391D01*
X021828Y024372D01*
X021837Y024351D01*
X021843Y024329D01*
X021845Y024306D01*
X021843Y024283D01*
X021837Y024261D01*
X021828Y024240D01*
X021816Y024221D01*
X021800Y024204D01*
X021782Y024190D01*
X021762Y024179D01*
X021740Y024171D01*
X021717Y024167D01*
X021695Y024167D01*
X021672Y024171D01*
X021650Y024179D01*
X021630Y024190D01*
X021612Y024204D01*
X021596Y024221D01*
X021584Y024240D01*
X021575Y024261D01*
X021569Y024283D01*
X021567Y024306D01*
X019482Y023815D02*
X019482Y025675D01*
X018642Y025675D01*
X018642Y023815D01*
X019482Y023815D01*
X018111Y023383D02*
X018111Y028107D01*
X009056Y028107D01*
X009056Y023383D01*
X018111Y023383D01*
X018812Y027245D02*
X018812Y029647D01*
X023340Y029647D01*
X023340Y027245D01*
X018812Y027245D01*
X015742Y030075D02*
X013882Y030075D01*
X013882Y030915D01*
X015742Y030915D01*
X015742Y030075D01*
X013742Y030075D02*
X011882Y030075D01*
X011882Y030915D01*
X013742Y030915D01*
X013742Y030075D01*
X009706Y031548D02*
X009312Y031548D01*
X008918Y031548D01*
X009312Y031548D02*
X009312Y030958D01*
X007343Y031745D02*
X007345Y031842D01*
X007352Y031938D01*
X007364Y032034D01*
X007381Y032129D01*
X007402Y032223D01*
X007428Y032317D01*
X007458Y032408D01*
X007493Y032499D01*
X007532Y032587D01*
X007575Y032673D01*
X007623Y032757D01*
X007675Y032839D01*
X007730Y032918D01*
X007790Y032994D01*
X007853Y033067D01*
X007920Y033137D01*
X007990Y033204D01*
X008063Y033267D01*
X008139Y033327D01*
X008218Y033382D01*
X008300Y033434D01*
X008384Y033482D01*
X008470Y033525D01*
X008558Y033564D01*
X008649Y033599D01*
X008740Y033629D01*
X008834Y033655D01*
X008928Y033676D01*
X009023Y033693D01*
X009119Y033705D01*
X009215Y033712D01*
X009312Y033714D01*
X009409Y033712D01*
X009505Y033705D01*
X009601Y033693D01*
X009696Y033676D01*
X009790Y033655D01*
X009884Y033629D01*
X009975Y033599D01*
X010066Y033564D01*
X010154Y033525D01*
X010240Y033482D01*
X010324Y033434D01*
X010406Y033382D01*
X010485Y033327D01*
X010561Y033267D01*
X010634Y033204D01*
X010704Y033137D01*
X010771Y033067D01*
X010834Y032994D01*
X010894Y032918D01*
X010949Y032839D01*
X011001Y032757D01*
X011049Y032673D01*
X011092Y032587D01*
X011131Y032499D01*
X011166Y032408D01*
X011196Y032317D01*
X011222Y032223D01*
X011243Y032129D01*
X011260Y032034D01*
X011272Y031938D01*
X011279Y031842D01*
X011281Y031745D01*
X011279Y031648D01*
X011272Y031552D01*
X011260Y031456D01*
X011243Y031361D01*
X011222Y031267D01*
X011196Y031173D01*
X011166Y031082D01*
X011131Y030991D01*
X011092Y030903D01*
X011049Y030817D01*
X011001Y030733D01*
X010949Y030651D01*
X010894Y030572D01*
X010834Y030496D01*
X010771Y030423D01*
X010704Y030353D01*
X010634Y030286D01*
X010561Y030223D01*
X010485Y030163D01*
X010406Y030108D01*
X010324Y030056D01*
X010240Y030008D01*
X010154Y029965D01*
X010066Y029926D01*
X009975Y029891D01*
X009884Y029861D01*
X009790Y029835D01*
X009696Y029814D01*
X009601Y029797D01*
X009505Y029785D01*
X009409Y029778D01*
X009312Y029776D01*
X009215Y029778D01*
X009119Y029785D01*
X009023Y029797D01*
X008928Y029814D01*
X008834Y029835D01*
X008740Y029861D01*
X008649Y029891D01*
X008558Y029926D01*
X008470Y029965D01*
X008384Y030008D01*
X008300Y030056D01*
X008218Y030108D01*
X008139Y030163D01*
X008063Y030223D01*
X007990Y030286D01*
X007920Y030353D01*
X007853Y030423D01*
X007790Y030496D01*
X007730Y030572D01*
X007675Y030651D01*
X007623Y030733D01*
X007575Y030817D01*
X007532Y030903D01*
X007493Y030991D01*
X007458Y031082D01*
X007428Y031173D01*
X007402Y031267D01*
X007381Y031361D01*
X007364Y031456D01*
X007352Y031552D01*
X007345Y031648D01*
X007343Y031745D01*
X006492Y031165D02*
X006492Y030325D01*
X004632Y030325D01*
X004632Y031165D01*
X006492Y031165D01*
X004492Y031165D02*
X004492Y030325D01*
X002632Y030325D01*
X002632Y031165D01*
X004492Y031165D01*
X007802Y029044D02*
X000322Y029044D01*
X000322Y020446D01*
X007802Y020446D01*
X007802Y029044D01*
X009115Y031942D02*
X009312Y031942D01*
X009509Y031942D01*
X009535Y031944D01*
X009560Y031949D01*
X009584Y031957D01*
X009607Y031968D01*
X009629Y031983D01*
X009648Y032000D01*
X009665Y032019D01*
X009680Y032040D01*
X009691Y032064D01*
X009699Y032088D01*
X009704Y032113D01*
X009706Y032139D01*
X009312Y031942D02*
X009312Y032532D01*
X008918Y032139D02*
X008920Y032113D01*
X008925Y032088D01*
X008933Y032064D01*
X008944Y032041D01*
X008959Y032019D01*
X008976Y032000D01*
X008995Y031983D01*
X009016Y031968D01*
X009040Y031957D01*
X009064Y031949D01*
X009089Y031944D01*
X009115Y031942D01*
X014009Y034798D02*
X014009Y034995D01*
X014009Y035192D01*
X014009Y034995D02*
X014206Y034995D01*
X012237Y034995D02*
X012239Y035074D01*
X012245Y035153D01*
X012255Y035232D01*
X012269Y035310D01*
X012286Y035387D01*
X012308Y035463D01*
X012333Y035538D01*
X012363Y035611D01*
X012395Y035683D01*
X012432Y035754D01*
X012472Y035822D01*
X012515Y035888D01*
X012561Y035952D01*
X012611Y036014D01*
X012664Y036073D01*
X012719Y036129D01*
X012778Y036183D01*
X012839Y036233D01*
X012902Y036281D01*
X012968Y036325D01*
X013036Y036366D01*
X013106Y036403D01*
X013177Y036437D01*
X013251Y036467D01*
X013325Y036493D01*
X013401Y036515D01*
X013478Y036534D01*
X013556Y036549D01*
X013634Y036560D01*
X013713Y036567D01*
X013792Y036570D01*
X013871Y036569D01*
X013950Y036564D01*
X014029Y036555D01*
X014107Y036542D01*
X014184Y036525D01*
X014261Y036505D01*
X014336Y036480D01*
X014410Y036452D01*
X014483Y036420D01*
X014553Y036385D01*
X014622Y036346D01*
X014689Y036303D01*
X014754Y036257D01*
X014816Y036209D01*
X014876Y036157D01*
X014933Y036102D01*
X014987Y036044D01*
X015038Y035984D01*
X015086Y035921D01*
X015131Y035856D01*
X015173Y035788D01*
X015211Y035719D01*
X015245Y035648D01*
X015276Y035575D01*
X015304Y035500D01*
X015327Y035425D01*
X015347Y035348D01*
X015363Y035271D01*
X015375Y035192D01*
X015383Y035114D01*
X015387Y035035D01*
X015387Y034955D01*
X015383Y034876D01*
X015375Y034798D01*
X015363Y034719D01*
X015347Y034642D01*
X015327Y034565D01*
X015304Y034490D01*
X015276Y034415D01*
X015245Y034342D01*
X015211Y034271D01*
X015173Y034202D01*
X015131Y034134D01*
X015086Y034069D01*
X015038Y034006D01*
X014987Y033946D01*
X014933Y033888D01*
X014876Y033833D01*
X014816Y033781D01*
X014754Y033733D01*
X014689Y033687D01*
X014622Y033644D01*
X014553Y033605D01*
X014483Y033570D01*
X014410Y033538D01*
X014336Y033510D01*
X014261Y033485D01*
X014184Y033465D01*
X014107Y033448D01*
X014029Y033435D01*
X013950Y033426D01*
X013871Y033421D01*
X013792Y033420D01*
X013713Y033423D01*
X013634Y033430D01*
X013556Y033441D01*
X013478Y033456D01*
X013401Y033475D01*
X013325Y033497D01*
X013251Y033523D01*
X013177Y033553D01*
X013106Y033587D01*
X013036Y033624D01*
X012968Y033665D01*
X012902Y033709D01*
X012839Y033757D01*
X012778Y033807D01*
X012719Y033861D01*
X012664Y033917D01*
X012611Y033976D01*
X012561Y034038D01*
X012515Y034102D01*
X012472Y034168D01*
X012432Y034236D01*
X012395Y034307D01*
X012363Y034379D01*
X012333Y034452D01*
X012308Y034527D01*
X012286Y034603D01*
X012269Y034680D01*
X012255Y034758D01*
X012245Y034837D01*
X012239Y034916D01*
X012237Y034995D01*
X013418Y034995D02*
X013714Y034995D01*
X013714Y034897D01*
X013714Y034995D02*
X013714Y035093D01*
X013713Y035093D02*
X013712Y035110D01*
X013707Y035127D01*
X013700Y035142D01*
X013690Y035156D01*
X013678Y035168D01*
X013664Y035178D01*
X013649Y035185D01*
X013632Y035190D01*
X013615Y035191D01*
X013713Y034897D02*
X013712Y034880D01*
X013707Y034863D01*
X013700Y034848D01*
X013690Y034834D01*
X013678Y034822D01*
X013664Y034812D01*
X013649Y034805D01*
X013632Y034800D01*
X013615Y034799D01*
X014812Y037115D02*
X009812Y037115D01*
X009812Y037720D01*
X014812Y037720D01*
X014812Y037115D01*
X015312Y037115D02*
X015312Y037720D01*
X020312Y037720D01*
X020312Y037115D01*
X015312Y037115D01*
X015312Y037720D02*
X015312Y039615D01*
X020312Y039615D01*
X020312Y037720D01*
X020812Y037720D02*
X025812Y037720D01*
X025812Y037115D01*
X020812Y037115D01*
X020812Y037720D01*
X020812Y039615D01*
X025812Y039615D01*
X025812Y037720D01*
X026312Y037720D02*
X031312Y037720D01*
X031312Y037115D01*
X026312Y037115D01*
X026312Y037720D01*
X026312Y039615D01*
X031312Y039615D01*
X031312Y037720D01*
X031812Y037720D02*
X036812Y037720D01*
X036812Y037115D01*
X031812Y037115D01*
X031812Y037720D01*
X031812Y039615D01*
X036812Y039615D01*
X036812Y037720D01*
X037062Y037720D02*
X042062Y037720D01*
X042062Y037115D01*
X037062Y037115D01*
X037062Y037720D01*
X037062Y039615D01*
X042062Y039615D01*
X042062Y037720D01*
X042300Y037971D02*
X049324Y037971D01*
X049324Y031519D01*
X042300Y031519D01*
X042300Y037971D01*
X037232Y034925D02*
X036392Y034925D01*
X036392Y033065D01*
X037232Y033065D01*
X037232Y034925D01*
X043880Y031165D02*
X043880Y030325D01*
X045744Y030325D01*
X045744Y031165D01*
X043880Y031165D01*
X045880Y031165D02*
X045880Y030325D01*
X047744Y030325D01*
X047744Y031165D01*
X045880Y031165D01*
X048123Y028426D02*
X048123Y026064D01*
X048812Y026064D01*
X048812Y026851D01*
X049009Y026851D02*
X048812Y027639D01*
X048812Y028426D01*
X048123Y028426D01*
X048812Y028426D02*
X049501Y028426D01*
X049501Y026064D01*
X048812Y026064D01*
X049892Y026313D02*
X049892Y028177D01*
X050732Y028177D01*
X050732Y026313D01*
X049892Y026313D01*
X049932Y023745D02*
X050537Y023745D01*
X050537Y021745D01*
X049932Y021745D01*
X049932Y023745D01*
X049672Y023444D02*
X049672Y022046D01*
X048950Y022046D01*
X048950Y023444D01*
X049672Y023444D01*
X050537Y023745D02*
X052432Y023745D01*
X052432Y021745D01*
X050537Y021745D01*
X044742Y019665D02*
X044742Y018825D01*
X042882Y018825D01*
X042882Y019665D01*
X044742Y019665D01*
X042732Y018815D02*
X042732Y020675D01*
X041892Y020675D01*
X041892Y018815D01*
X042732Y018815D01*
X041732Y018813D02*
X040892Y018813D01*
X040892Y020677D01*
X041732Y020677D01*
X041732Y018813D01*
X040732Y018815D02*
X039892Y018815D01*
X039892Y020675D01*
X040732Y020675D01*
X040732Y018815D01*
X039732Y018815D02*
X038892Y018815D01*
X038892Y020675D01*
X039732Y020675D01*
X039732Y018815D01*
X041284Y017495D02*
X041284Y015093D01*
X045812Y015093D01*
X045812Y017495D01*
X041284Y017495D01*
X040982Y016425D02*
X040142Y016425D01*
X040142Y014565D01*
X040982Y014565D01*
X040982Y016425D01*
X041775Y014229D02*
X043349Y014229D01*
X043349Y012261D01*
X041775Y012261D01*
X041775Y014229D01*
X042029Y013934D02*
X042031Y013957D01*
X042037Y013979D01*
X042046Y014000D01*
X042058Y014019D01*
X042074Y014036D01*
X042092Y014050D01*
X042112Y014061D01*
X042134Y014069D01*
X042157Y014073D01*
X042179Y014073D01*
X042202Y014069D01*
X042224Y014061D01*
X042244Y014050D01*
X042262Y014036D01*
X042278Y014019D01*
X042290Y014000D01*
X042299Y013979D01*
X042305Y013957D01*
X042307Y013934D01*
X042305Y013911D01*
X042299Y013889D01*
X042290Y013868D01*
X042278Y013849D01*
X042262Y013832D01*
X042244Y013818D01*
X042224Y013807D01*
X042202Y013799D01*
X042179Y013795D01*
X042157Y013795D01*
X042134Y013799D01*
X042112Y013807D01*
X042092Y013818D01*
X042074Y013832D01*
X042058Y013849D01*
X042046Y013868D01*
X042037Y013889D01*
X042031Y013911D01*
X042029Y013934D01*
X044642Y014425D02*
X044642Y012565D01*
X045482Y012565D01*
X045482Y014425D01*
X044642Y014425D01*
X045892Y013677D02*
X046732Y013677D01*
X046732Y011813D01*
X045892Y011813D01*
X045892Y013677D01*
X048101Y011745D02*
X053023Y011745D01*
X053023Y015745D01*
X048101Y015745D01*
X048101Y011745D01*
X047674Y011544D02*
X042950Y011544D01*
X042950Y002489D01*
X047674Y002489D01*
X047674Y011544D01*
X050312Y010032D02*
X050312Y009442D01*
X050509Y009442D01*
X050535Y009444D01*
X050560Y009449D01*
X050584Y009457D01*
X050607Y009468D01*
X050629Y009483D01*
X050648Y009500D01*
X050665Y009519D01*
X050680Y009540D01*
X050691Y009564D01*
X050699Y009588D01*
X050704Y009613D01*
X050706Y009639D01*
X050312Y009442D02*
X050115Y009442D01*
X050089Y009444D01*
X050064Y009449D01*
X050040Y009457D01*
X050016Y009468D01*
X049995Y009483D01*
X049976Y009500D01*
X049959Y009519D01*
X049944Y009541D01*
X049933Y009564D01*
X049925Y009588D01*
X049920Y009613D01*
X049918Y009639D01*
X048343Y009245D02*
X048345Y009342D01*
X048352Y009438D01*
X048364Y009534D01*
X048381Y009629D01*
X048402Y009723D01*
X048428Y009817D01*
X048458Y009908D01*
X048493Y009999D01*
X048532Y010087D01*
X048575Y010173D01*
X048623Y010257D01*
X048675Y010339D01*
X048730Y010418D01*
X048790Y010494D01*
X048853Y010567D01*
X048920Y010637D01*
X048990Y010704D01*
X049063Y010767D01*
X049139Y010827D01*
X049218Y010882D01*
X049300Y010934D01*
X049384Y010982D01*
X049470Y011025D01*
X049558Y011064D01*
X049649Y011099D01*
X049740Y011129D01*
X049834Y011155D01*
X049928Y011176D01*
X050023Y011193D01*
X050119Y011205D01*
X050215Y011212D01*
X050312Y011214D01*
X050409Y011212D01*
X050505Y011205D01*
X050601Y011193D01*
X050696Y011176D01*
X050790Y011155D01*
X050884Y011129D01*
X050975Y011099D01*
X051066Y011064D01*
X051154Y011025D01*
X051240Y010982D01*
X051324Y010934D01*
X051406Y010882D01*
X051485Y010827D01*
X051561Y010767D01*
X051634Y010704D01*
X051704Y010637D01*
X051771Y010567D01*
X051834Y010494D01*
X051894Y010418D01*
X051949Y010339D01*
X052001Y010257D01*
X052049Y010173D01*
X052092Y010087D01*
X052131Y009999D01*
X052166Y009908D01*
X052196Y009817D01*
X052222Y009723D01*
X052243Y009629D01*
X052260Y009534D01*
X052272Y009438D01*
X052279Y009342D01*
X052281Y009245D01*
X052279Y009148D01*
X052272Y009052D01*
X052260Y008956D01*
X052243Y008861D01*
X052222Y008767D01*
X052196Y008673D01*
X052166Y008582D01*
X052131Y008491D01*
X052092Y008403D01*
X052049Y008317D01*
X052001Y008233D01*
X051949Y008151D01*
X051894Y008072D01*
X051834Y007996D01*
X051771Y007923D01*
X051704Y007853D01*
X051634Y007786D01*
X051561Y007723D01*
X051485Y007663D01*
X051406Y007608D01*
X051324Y007556D01*
X051240Y007508D01*
X051154Y007465D01*
X051066Y007426D01*
X050975Y007391D01*
X050884Y007361D01*
X050790Y007335D01*
X050696Y007314D01*
X050601Y007297D01*
X050505Y007285D01*
X050409Y007278D01*
X050312Y007276D01*
X050215Y007278D01*
X050119Y007285D01*
X050023Y007297D01*
X049928Y007314D01*
X049834Y007335D01*
X049740Y007361D01*
X049649Y007391D01*
X049558Y007426D01*
X049470Y007465D01*
X049384Y007508D01*
X049300Y007556D01*
X049218Y007608D01*
X049139Y007663D01*
X049063Y007723D01*
X048990Y007786D01*
X048920Y007853D01*
X048853Y007923D01*
X048790Y007996D01*
X048730Y008072D01*
X048675Y008151D01*
X048623Y008233D01*
X048575Y008317D01*
X048532Y008403D01*
X048493Y008491D01*
X048458Y008582D01*
X048428Y008673D01*
X048402Y008767D01*
X048381Y008861D01*
X048364Y008956D01*
X048352Y009052D01*
X048345Y009148D01*
X048343Y009245D01*
X049918Y009048D02*
X050312Y009048D01*
X050706Y009048D01*
X050312Y009048D02*
X050312Y008458D01*
X050312Y005532D02*
X050312Y004942D01*
X049918Y004942D01*
X050312Y004942D02*
X050706Y004942D01*
X050509Y004548D02*
X050312Y004548D01*
X050115Y004548D01*
X050089Y004546D01*
X050064Y004541D01*
X050040Y004533D01*
X050016Y004522D01*
X049995Y004507D01*
X049976Y004490D01*
X049959Y004471D01*
X049944Y004450D01*
X049933Y004426D01*
X049925Y004402D01*
X049920Y004377D01*
X049918Y004351D01*
X050312Y004548D02*
X050312Y003958D01*
X050706Y004351D02*
X050704Y004377D01*
X050699Y004402D01*
X050691Y004426D01*
X050680Y004449D01*
X050665Y004471D01*
X050648Y004490D01*
X050629Y004507D01*
X050608Y004522D01*
X050584Y004533D01*
X050560Y004541D01*
X050535Y004546D01*
X050509Y004548D01*
X048343Y004745D02*
X048345Y004842D01*
X048352Y004938D01*
X048364Y005034D01*
X048381Y005129D01*
X048402Y005223D01*
X048428Y005317D01*
X048458Y005408D01*
X048493Y005499D01*
X048532Y005587D01*
X048575Y005673D01*
X048623Y005757D01*
X048675Y005839D01*
X048730Y005918D01*
X048790Y005994D01*
X048853Y006067D01*
X048920Y006137D01*
X048990Y006204D01*
X049063Y006267D01*
X049139Y006327D01*
X049218Y006382D01*
X049300Y006434D01*
X049384Y006482D01*
X049470Y006525D01*
X049558Y006564D01*
X049649Y006599D01*
X049740Y006629D01*
X049834Y006655D01*
X049928Y006676D01*
X050023Y006693D01*
X050119Y006705D01*
X050215Y006712D01*
X050312Y006714D01*
X050409Y006712D01*
X050505Y006705D01*
X050601Y006693D01*
X050696Y006676D01*
X050790Y006655D01*
X050884Y006629D01*
X050975Y006599D01*
X051066Y006564D01*
X051154Y006525D01*
X051240Y006482D01*
X051324Y006434D01*
X051406Y006382D01*
X051485Y006327D01*
X051561Y006267D01*
X051634Y006204D01*
X051704Y006137D01*
X051771Y006067D01*
X051834Y005994D01*
X051894Y005918D01*
X051949Y005839D01*
X052001Y005757D01*
X052049Y005673D01*
X052092Y005587D01*
X052131Y005499D01*
X052166Y005408D01*
X052196Y005317D01*
X052222Y005223D01*
X052243Y005129D01*
X052260Y005034D01*
X052272Y004938D01*
X052279Y004842D01*
X052281Y004745D01*
X052279Y004648D01*
X052272Y004552D01*
X052260Y004456D01*
X052243Y004361D01*
X052222Y004267D01*
X052196Y004173D01*
X052166Y004082D01*
X052131Y003991D01*
X052092Y003903D01*
X052049Y003817D01*
X052001Y003733D01*
X051949Y003651D01*
X051894Y003572D01*
X051834Y003496D01*
X051771Y003423D01*
X051704Y003353D01*
X051634Y003286D01*
X051561Y003223D01*
X051485Y003163D01*
X051406Y003108D01*
X051324Y003056D01*
X051240Y003008D01*
X051154Y002965D01*
X051066Y002926D01*
X050975Y002891D01*
X050884Y002861D01*
X050790Y002835D01*
X050696Y002814D01*
X050601Y002797D01*
X050505Y002785D01*
X050409Y002778D01*
X050312Y002776D01*
X050215Y002778D01*
X050119Y002785D01*
X050023Y002797D01*
X049928Y002814D01*
X049834Y002835D01*
X049740Y002861D01*
X049649Y002891D01*
X049558Y002926D01*
X049470Y002965D01*
X049384Y003008D01*
X049300Y003056D01*
X049218Y003108D01*
X049139Y003163D01*
X049063Y003223D01*
X048990Y003286D01*
X048920Y003353D01*
X048853Y003423D01*
X048790Y003496D01*
X048730Y003572D01*
X048675Y003651D01*
X048623Y003733D01*
X048575Y003817D01*
X048532Y003903D01*
X048493Y003991D01*
X048458Y004082D01*
X048428Y004173D01*
X048402Y004267D01*
X048381Y004361D01*
X048364Y004456D01*
X048352Y004552D01*
X048345Y004648D01*
X048343Y004745D01*
X042674Y002489D02*
X037950Y002489D01*
X037950Y011544D01*
X042674Y011544D01*
X042674Y002489D01*
X037242Y013075D02*
X035382Y013075D01*
X035382Y013915D01*
X037242Y013915D01*
X037242Y013075D01*
X049462Y017745D02*
X049465Y017873D01*
X049475Y018000D01*
X049490Y018126D01*
X049512Y018252D01*
X049540Y018377D01*
X049574Y018500D01*
X049614Y018621D01*
X049660Y018740D01*
X049712Y018857D01*
X049769Y018971D01*
X049832Y019082D01*
X049900Y019189D01*
X049974Y019294D01*
X050052Y019394D01*
X050136Y019491D01*
X050224Y019583D01*
X050316Y019671D01*
X050413Y019755D01*
X050513Y019833D01*
X050618Y019907D01*
X050725Y019975D01*
X050836Y020038D01*
X050950Y020095D01*
X051067Y020147D01*
X051186Y020193D01*
X051307Y020233D01*
X051430Y020267D01*
X051555Y020295D01*
X051681Y020317D01*
X051807Y020332D01*
X051934Y020342D01*
X052062Y020345D01*
X052190Y020342D01*
X052317Y020332D01*
X052443Y020317D01*
X052569Y020295D01*
X052694Y020267D01*
X052817Y020233D01*
X052938Y020193D01*
X053057Y020147D01*
X053174Y020095D01*
X053288Y020038D01*
X053399Y019975D01*
X053506Y019907D01*
X053611Y019833D01*
X053711Y019755D01*
X053808Y019671D01*
X053900Y019583D01*
X053988Y019491D01*
X054072Y019394D01*
X054150Y019294D01*
X054224Y019189D01*
X054292Y019082D01*
X054355Y018971D01*
X054412Y018857D01*
X054464Y018740D01*
X054510Y018621D01*
X054550Y018500D01*
X054584Y018377D01*
X054612Y018252D01*
X054634Y018126D01*
X054649Y018000D01*
X054659Y017873D01*
X054662Y017745D01*
X054659Y017617D01*
X054649Y017490D01*
X054634Y017364D01*
X054612Y017238D01*
X054584Y017113D01*
X054550Y016990D01*
X054510Y016869D01*
X054464Y016750D01*
X054412Y016633D01*
X054355Y016519D01*
X054292Y016408D01*
X054224Y016301D01*
X054150Y016196D01*
X054072Y016096D01*
X053988Y015999D01*
X053900Y015907D01*
X053808Y015819D01*
X053711Y015735D01*
X053611Y015657D01*
X053506Y015583D01*
X053399Y015515D01*
X053288Y015452D01*
X053174Y015395D01*
X053057Y015343D01*
X052938Y015297D01*
X052817Y015257D01*
X052694Y015223D01*
X052569Y015195D01*
X052443Y015173D01*
X052317Y015158D01*
X052190Y015148D01*
X052062Y015145D01*
X051934Y015148D01*
X051807Y015158D01*
X051681Y015173D01*
X051555Y015195D01*
X051430Y015223D01*
X051307Y015257D01*
X051186Y015297D01*
X051067Y015343D01*
X050950Y015395D01*
X050836Y015452D01*
X050725Y015515D01*
X050618Y015583D01*
X050513Y015657D01*
X050413Y015735D01*
X050316Y015819D01*
X050224Y015907D01*
X050136Y015999D01*
X050052Y016096D01*
X049974Y016196D01*
X049900Y016301D01*
X049832Y016408D01*
X049769Y016519D01*
X049712Y016633D01*
X049660Y016750D01*
X049614Y016869D01*
X049574Y016990D01*
X049540Y017113D01*
X049512Y017238D01*
X049490Y017364D01*
X049475Y017490D01*
X049465Y017617D01*
X049462Y017745D01*
X041076Y026261D02*
X036548Y026261D01*
X036548Y028229D01*
X041076Y028229D01*
X041076Y026261D01*
X041392Y026315D02*
X041392Y028175D01*
X042232Y028175D01*
X042232Y026315D01*
X041392Y026315D01*
X042392Y026315D02*
X043232Y026315D01*
X043232Y028175D01*
X042392Y028175D01*
X042392Y026315D01*
X040742Y028325D02*
X038882Y028325D01*
X038882Y029165D01*
X040742Y029165D01*
X040742Y028325D01*
X038492Y028325D02*
X038492Y029165D01*
X036632Y029165D01*
X036632Y028325D01*
X038492Y028325D01*
X029742Y028165D02*
X029742Y027325D01*
X027882Y027325D01*
X027882Y028165D01*
X029742Y028165D01*
X029744Y027165D02*
X027880Y027165D01*
X027880Y026325D01*
X029744Y026325D01*
X029744Y027165D01*
X027363Y029495D02*
X027363Y030093D01*
X025261Y030093D01*
X025261Y029495D01*
X026312Y028444D02*
X026375Y028446D01*
X026439Y028452D01*
X026501Y028461D01*
X026564Y028475D01*
X026625Y028492D01*
X026685Y028512D01*
X026743Y028537D01*
X026800Y028564D01*
X026856Y028596D01*
X026909Y028630D01*
X026960Y028668D01*
X027009Y028708D01*
X027055Y028752D01*
X027099Y028798D01*
X027139Y028847D01*
X027177Y028898D01*
X027211Y028951D01*
X027243Y029007D01*
X027270Y029064D01*
X027295Y029122D01*
X027315Y029182D01*
X027332Y029243D01*
X027346Y029306D01*
X027355Y029368D01*
X027361Y029432D01*
X027363Y029495D01*
X026312Y028444D02*
X026249Y028446D01*
X026185Y028452D01*
X026123Y028461D01*
X026060Y028475D01*
X025999Y028492D01*
X025939Y028512D01*
X025881Y028537D01*
X025824Y028564D01*
X025768Y028596D01*
X025715Y028630D01*
X025664Y028668D01*
X025615Y028708D01*
X025569Y028752D01*
X025525Y028798D01*
X025485Y028847D01*
X025447Y028898D01*
X025413Y028951D01*
X025381Y029007D01*
X025354Y029064D01*
X025329Y029122D01*
X025309Y029182D01*
X025292Y029243D01*
X025278Y029306D01*
X025269Y029368D01*
X025263Y029432D01*
X025261Y029495D01*
X014812Y037720D02*
X014812Y039615D01*
X009812Y039615D01*
X009812Y037720D01*
X009312Y037720D02*
X004312Y037720D01*
X004312Y039615D01*
X009312Y039615D01*
X009312Y037720D01*
X009312Y037115D01*
X004312Y037115D01*
X004312Y037720D01*
X000212Y035745D02*
X000215Y035873D01*
X000225Y036000D01*
X000240Y036126D01*
X000262Y036252D01*
X000290Y036377D01*
X000324Y036500D01*
X000364Y036621D01*
X000410Y036740D01*
X000462Y036857D01*
X000519Y036971D01*
X000582Y037082D01*
X000650Y037189D01*
X000724Y037294D01*
X000802Y037394D01*
X000886Y037491D01*
X000974Y037583D01*
X001066Y037671D01*
X001163Y037755D01*
X001263Y037833D01*
X001368Y037907D01*
X001475Y037975D01*
X001586Y038038D01*
X001700Y038095D01*
X001817Y038147D01*
X001936Y038193D01*
X002057Y038233D01*
X002180Y038267D01*
X002305Y038295D01*
X002431Y038317D01*
X002557Y038332D01*
X002684Y038342D01*
X002812Y038345D01*
X002940Y038342D01*
X003067Y038332D01*
X003193Y038317D01*
X003319Y038295D01*
X003444Y038267D01*
X003567Y038233D01*
X003688Y038193D01*
X003807Y038147D01*
X003924Y038095D01*
X004038Y038038D01*
X004149Y037975D01*
X004256Y037907D01*
X004361Y037833D01*
X004461Y037755D01*
X004558Y037671D01*
X004650Y037583D01*
X004738Y037491D01*
X004822Y037394D01*
X004900Y037294D01*
X004974Y037189D01*
X005042Y037082D01*
X005105Y036971D01*
X005162Y036857D01*
X005214Y036740D01*
X005260Y036621D01*
X005300Y036500D01*
X005334Y036377D01*
X005362Y036252D01*
X005384Y036126D01*
X005399Y036000D01*
X005409Y035873D01*
X005412Y035745D01*
X005409Y035617D01*
X005399Y035490D01*
X005384Y035364D01*
X005362Y035238D01*
X005334Y035113D01*
X005300Y034990D01*
X005260Y034869D01*
X005214Y034750D01*
X005162Y034633D01*
X005105Y034519D01*
X005042Y034408D01*
X004974Y034301D01*
X004900Y034196D01*
X004822Y034096D01*
X004738Y033999D01*
X004650Y033907D01*
X004558Y033819D01*
X004461Y033735D01*
X004361Y033657D01*
X004256Y033583D01*
X004149Y033515D01*
X004038Y033452D01*
X003924Y033395D01*
X003807Y033343D01*
X003688Y033297D01*
X003567Y033257D01*
X003444Y033223D01*
X003319Y033195D01*
X003193Y033173D01*
X003067Y033158D01*
X002940Y033148D01*
X002812Y033145D01*
X002684Y033148D01*
X002557Y033158D01*
X002431Y033173D01*
X002305Y033195D01*
X002180Y033223D01*
X002057Y033257D01*
X001936Y033297D01*
X001817Y033343D01*
X001700Y033395D01*
X001586Y033452D01*
X001475Y033515D01*
X001368Y033583D01*
X001263Y033657D01*
X001163Y033735D01*
X001066Y033819D01*
X000974Y033907D01*
X000886Y033999D01*
X000802Y034096D01*
X000724Y034196D01*
X000650Y034301D01*
X000582Y034408D01*
X000519Y034519D01*
X000462Y034633D01*
X000410Y034750D01*
X000364Y034869D01*
X000324Y034990D01*
X000290Y035113D01*
X000262Y035238D01*
X000240Y035364D01*
X000225Y035490D01*
X000215Y035617D01*
X000212Y035745D01*
X006918Y035245D02*
X007115Y035245D01*
X007115Y035048D01*
X007115Y035245D02*
X007115Y035442D01*
X005737Y035245D02*
X005739Y035324D01*
X005745Y035403D01*
X005755Y035482D01*
X005769Y035560D01*
X005786Y035637D01*
X005808Y035713D01*
X005833Y035788D01*
X005863Y035861D01*
X005895Y035933D01*
X005932Y036004D01*
X005972Y036072D01*
X006015Y036138D01*
X006061Y036202D01*
X006111Y036264D01*
X006164Y036323D01*
X006219Y036379D01*
X006278Y036433D01*
X006339Y036483D01*
X006402Y036531D01*
X006468Y036575D01*
X006536Y036616D01*
X006606Y036653D01*
X006677Y036687D01*
X006751Y036717D01*
X006825Y036743D01*
X006901Y036765D01*
X006978Y036784D01*
X007056Y036799D01*
X007134Y036810D01*
X007213Y036817D01*
X007292Y036820D01*
X007371Y036819D01*
X007450Y036814D01*
X007529Y036805D01*
X007607Y036792D01*
X007684Y036775D01*
X007761Y036755D01*
X007836Y036730D01*
X007910Y036702D01*
X007983Y036670D01*
X008053Y036635D01*
X008122Y036596D01*
X008189Y036553D01*
X008254Y036507D01*
X008316Y036459D01*
X008376Y036407D01*
X008433Y036352D01*
X008487Y036294D01*
X008538Y036234D01*
X008586Y036171D01*
X008631Y036106D01*
X008673Y036038D01*
X008711Y035969D01*
X008745Y035898D01*
X008776Y035825D01*
X008804Y035750D01*
X008827Y035675D01*
X008847Y035598D01*
X008863Y035521D01*
X008875Y035442D01*
X008883Y035364D01*
X008887Y035285D01*
X008887Y035205D01*
X008883Y035126D01*
X008875Y035048D01*
X008863Y034969D01*
X008847Y034892D01*
X008827Y034815D01*
X008804Y034740D01*
X008776Y034665D01*
X008745Y034592D01*
X008711Y034521D01*
X008673Y034452D01*
X008631Y034384D01*
X008586Y034319D01*
X008538Y034256D01*
X008487Y034196D01*
X008433Y034138D01*
X008376Y034083D01*
X008316Y034031D01*
X008254Y033983D01*
X008189Y033937D01*
X008122Y033894D01*
X008053Y033855D01*
X007983Y033820D01*
X007910Y033788D01*
X007836Y033760D01*
X007761Y033735D01*
X007684Y033715D01*
X007607Y033698D01*
X007529Y033685D01*
X007450Y033676D01*
X007371Y033671D01*
X007292Y033670D01*
X007213Y033673D01*
X007134Y033680D01*
X007056Y033691D01*
X006978Y033706D01*
X006901Y033725D01*
X006825Y033747D01*
X006751Y033773D01*
X006677Y033803D01*
X006606Y033837D01*
X006536Y033874D01*
X006468Y033915D01*
X006402Y033959D01*
X006339Y034007D01*
X006278Y034057D01*
X006219Y034111D01*
X006164Y034167D01*
X006111Y034226D01*
X006061Y034288D01*
X006015Y034352D01*
X005972Y034418D01*
X005932Y034486D01*
X005895Y034557D01*
X005863Y034629D01*
X005833Y034702D01*
X005808Y034777D01*
X005786Y034853D01*
X005769Y034930D01*
X005755Y035008D01*
X005745Y035087D01*
X005739Y035166D01*
X005737Y035245D01*
X007410Y035245D02*
X007410Y035147D01*
X007410Y035245D02*
X007410Y035343D01*
X007410Y035245D02*
X007706Y035245D01*
X007509Y035049D02*
X007492Y035050D01*
X007475Y035055D01*
X007460Y035062D01*
X007446Y035072D01*
X007434Y035084D01*
X007424Y035098D01*
X007417Y035113D01*
X007412Y035130D01*
X007411Y035147D01*
X007411Y035343D02*
X007412Y035360D01*
X007417Y035377D01*
X007424Y035392D01*
X007434Y035406D01*
X007446Y035418D01*
X007460Y035428D01*
X007475Y035435D01*
X007492Y035440D01*
X007509Y035441D01*
X003962Y018745D02*
X003965Y018873D01*
X003975Y019000D01*
X003990Y019126D01*
X004012Y019252D01*
X004040Y019377D01*
X004074Y019500D01*
X004114Y019621D01*
X004160Y019740D01*
X004212Y019857D01*
X004269Y019971D01*
X004332Y020082D01*
X004400Y020189D01*
X004474Y020294D01*
X004552Y020394D01*
X004636Y020491D01*
X004724Y020583D01*
X004816Y020671D01*
X004913Y020755D01*
X005013Y020833D01*
X005118Y020907D01*
X005225Y020975D01*
X005336Y021038D01*
X005450Y021095D01*
X005567Y021147D01*
X005686Y021193D01*
X005807Y021233D01*
X005930Y021267D01*
X006055Y021295D01*
X006181Y021317D01*
X006307Y021332D01*
X006434Y021342D01*
X006562Y021345D01*
X006690Y021342D01*
X006817Y021332D01*
X006943Y021317D01*
X007069Y021295D01*
X007194Y021267D01*
X007317Y021233D01*
X007438Y021193D01*
X007557Y021147D01*
X007674Y021095D01*
X007788Y021038D01*
X007899Y020975D01*
X008006Y020907D01*
X008111Y020833D01*
X008211Y020755D01*
X008308Y020671D01*
X008400Y020583D01*
X008488Y020491D01*
X008572Y020394D01*
X008650Y020294D01*
X008724Y020189D01*
X008792Y020082D01*
X008855Y019971D01*
X008912Y019857D01*
X008964Y019740D01*
X009010Y019621D01*
X009050Y019500D01*
X009084Y019377D01*
X009112Y019252D01*
X009134Y019126D01*
X009149Y019000D01*
X009159Y018873D01*
X009162Y018745D01*
X009159Y018617D01*
X009149Y018490D01*
X009134Y018364D01*
X009112Y018238D01*
X009084Y018113D01*
X009050Y017990D01*
X009010Y017869D01*
X008964Y017750D01*
X008912Y017633D01*
X008855Y017519D01*
X008792Y017408D01*
X008724Y017301D01*
X008650Y017196D01*
X008572Y017096D01*
X008488Y016999D01*
X008400Y016907D01*
X008308Y016819D01*
X008211Y016735D01*
X008111Y016657D01*
X008006Y016583D01*
X007899Y016515D01*
X007788Y016452D01*
X007674Y016395D01*
X007557Y016343D01*
X007438Y016297D01*
X007317Y016257D01*
X007194Y016223D01*
X007069Y016195D01*
X006943Y016173D01*
X006817Y016158D01*
X006690Y016148D01*
X006562Y016145D01*
X006434Y016148D01*
X006307Y016158D01*
X006181Y016173D01*
X006055Y016195D01*
X005930Y016223D01*
X005807Y016257D01*
X005686Y016297D01*
X005567Y016343D01*
X005450Y016395D01*
X005336Y016452D01*
X005225Y016515D01*
X005118Y016583D01*
X005013Y016657D01*
X004913Y016735D01*
X004816Y016819D01*
X004724Y016907D01*
X004636Y016999D01*
X004552Y017096D01*
X004474Y017196D01*
X004400Y017301D01*
X004332Y017408D01*
X004269Y017519D01*
X004212Y017633D01*
X004160Y017750D01*
X004114Y017869D01*
X004074Y017990D01*
X004040Y018113D01*
X004012Y018238D01*
X003990Y018364D01*
X003975Y018490D01*
X003965Y018617D01*
X003962Y018745D01*
D18*
X039328Y009182D03*
X040312Y009182D03*
X041296Y009182D03*
X044328Y009182D03*
X045312Y009182D03*
X046296Y009182D03*
D19*
X050312Y011017D03*
X050312Y002973D03*
X013312Y002473D03*
X008562Y002473D03*
X003812Y002723D03*
X013312Y007473D03*
X009312Y033517D03*
D20*
X034187Y020495D03*
X034187Y019495D03*
X034187Y018245D03*
X036937Y018245D03*
X036937Y019495D03*
X036937Y020495D03*
X036187Y014995D03*
X038937Y014995D03*
G36*
X049167Y018770D02*
X049343Y018946D01*
X049513Y018776D01*
X049337Y018600D01*
X049167Y018770D01*
G37*
G36*
X051111Y020714D02*
X051287Y020890D01*
X051457Y020720D01*
X051281Y020544D01*
X051111Y020714D01*
G37*
D21*
X015749Y020729D03*
X015749Y019745D03*
X015749Y018761D03*
X015749Y024761D03*
X015749Y025745D03*
X015749Y026729D03*
D22*
X013812Y032795D03*
X004562Y033045D03*
D23*
X029312Y024620D03*
X029312Y021870D03*
X030062Y019120D03*
X028812Y017870D03*
X027312Y017620D03*
X030062Y016370D03*
X028812Y015120D03*
X027312Y014870D03*
X046812Y017120D03*
X046812Y019870D03*
X050062Y032120D03*
X051062Y032120D03*
X051062Y034870D03*
X050062Y034870D03*
D24*
X010062Y008845D03*
D25*
X010062Y008175D03*
X010062Y012315D03*
D26*
X042932Y035412D02*
X042934Y035462D01*
X042940Y035512D01*
X042950Y035561D01*
X042964Y035609D01*
X042981Y035656D01*
X043002Y035701D01*
X043027Y035745D01*
X043055Y035786D01*
X043087Y035825D01*
X043121Y035862D01*
X043158Y035896D01*
X043198Y035926D01*
X043240Y035953D01*
X043284Y035977D01*
X043330Y035998D01*
X043377Y036014D01*
X043425Y036027D01*
X043475Y036036D01*
X043524Y036041D01*
X043575Y036042D01*
X043625Y036039D01*
X043674Y036032D01*
X043723Y036021D01*
X043771Y036006D01*
X043817Y035988D01*
X043862Y035966D01*
X043905Y035940D01*
X043946Y035911D01*
X043985Y035879D01*
X044021Y035844D01*
X044053Y035806D01*
X044083Y035766D01*
X044110Y035723D01*
X044133Y035679D01*
X044152Y035633D01*
X044168Y035585D01*
X044180Y035536D01*
X044188Y035487D01*
X044192Y035437D01*
X044192Y035387D01*
X044188Y035337D01*
X044180Y035288D01*
X044168Y035239D01*
X044152Y035191D01*
X044133Y035145D01*
X044110Y035101D01*
X044083Y035058D01*
X044053Y035018D01*
X044021Y034980D01*
X043985Y034945D01*
X043946Y034913D01*
X043905Y034884D01*
X043862Y034858D01*
X043817Y034836D01*
X043771Y034818D01*
X043723Y034803D01*
X043674Y034792D01*
X043625Y034785D01*
X043575Y034782D01*
X043524Y034783D01*
X043475Y034788D01*
X043425Y034797D01*
X043377Y034810D01*
X043330Y034826D01*
X043284Y034847D01*
X043240Y034871D01*
X043198Y034898D01*
X043158Y034928D01*
X043121Y034962D01*
X043087Y034999D01*
X043055Y035038D01*
X043027Y035079D01*
X043002Y035123D01*
X042981Y035168D01*
X042964Y035215D01*
X042950Y035263D01*
X042940Y035312D01*
X042934Y035362D01*
X042932Y035412D01*
X047432Y035412D02*
X047434Y035462D01*
X047440Y035512D01*
X047450Y035561D01*
X047464Y035609D01*
X047481Y035656D01*
X047502Y035701D01*
X047527Y035745D01*
X047555Y035786D01*
X047587Y035825D01*
X047621Y035862D01*
X047658Y035896D01*
X047698Y035926D01*
X047740Y035953D01*
X047784Y035977D01*
X047830Y035998D01*
X047877Y036014D01*
X047925Y036027D01*
X047975Y036036D01*
X048024Y036041D01*
X048075Y036042D01*
X048125Y036039D01*
X048174Y036032D01*
X048223Y036021D01*
X048271Y036006D01*
X048317Y035988D01*
X048362Y035966D01*
X048405Y035940D01*
X048446Y035911D01*
X048485Y035879D01*
X048521Y035844D01*
X048553Y035806D01*
X048583Y035766D01*
X048610Y035723D01*
X048633Y035679D01*
X048652Y035633D01*
X048668Y035585D01*
X048680Y035536D01*
X048688Y035487D01*
X048692Y035437D01*
X048692Y035387D01*
X048688Y035337D01*
X048680Y035288D01*
X048668Y035239D01*
X048652Y035191D01*
X048633Y035145D01*
X048610Y035101D01*
X048583Y035058D01*
X048553Y035018D01*
X048521Y034980D01*
X048485Y034945D01*
X048446Y034913D01*
X048405Y034884D01*
X048362Y034858D01*
X048317Y034836D01*
X048271Y034818D01*
X048223Y034803D01*
X048174Y034792D01*
X048125Y034785D01*
X048075Y034782D01*
X048024Y034783D01*
X047975Y034788D01*
X047925Y034797D01*
X047877Y034810D01*
X047830Y034826D01*
X047784Y034847D01*
X047740Y034871D01*
X047698Y034898D01*
X047658Y034928D01*
X047621Y034962D01*
X047587Y034999D01*
X047555Y035038D01*
X047527Y035079D01*
X047502Y035123D01*
X047481Y035168D01*
X047464Y035215D01*
X047450Y035263D01*
X047440Y035312D01*
X047434Y035362D01*
X047432Y035412D01*
D27*
X012385Y034995D03*
X008739Y035245D03*
M02*
