G75*
G70*
%OFA0B0*%
%FSLAX24Y24*%
%IPPOS*%
%LPD*%
%AMOC8*
5,1,8,0,0,1.08239X$1,22.5*
%
%ADD10R,0.0540X0.0540*%
%ADD11C,0.0540*%
%ADD12R,0.0397X0.0397*%
%ADD13R,0.0630X0.0709*%
%ADD14R,0.0709X0.0630*%
%ADD15R,0.0827X0.0827*%
%ADD16C,0.0675*%
%ADD17R,0.0675X0.0675*%
%ADD18R,0.1181X0.1181*%
%ADD19R,0.4331X0.5118*%
%ADD20R,0.0476X0.0476*%
%ADD21C,0.0476*%
%ADD22C,0.0520*%
%ADD23R,0.0520X0.0520*%
%ADD24R,0.0447X0.0447*%
%ADD25R,0.0866X0.0236*%
%ADD26R,0.5118X0.4331*%
%ADD27R,0.0825X0.0825*%
%ADD28C,0.0825*%
%ADD29R,0.0236X0.0866*%
%ADD30R,0.0945X0.0945*%
%ADD31R,0.0886X0.0886*%
%ADD32C,0.0594*%
%ADD33R,0.3425X0.0630*%
%ADD34R,0.0630X0.0630*%
%ADD35C,0.1800*%
%ADD36R,0.0520X0.0520*%
%ADD37R,0.0591X0.0512*%
%ADD38C,0.0417*%
%ADD39C,0.0240*%
%ADD40R,0.0396X0.0396*%
%ADD41C,0.0120*%
%ADD42C,0.0160*%
%ADD43C,0.0100*%
%ADD44C,0.0340*%
%ADD45C,0.0320*%
%ADD46C,0.0400*%
D10*
X044312Y026745D03*
X047312Y024745D03*
X034812Y035745D03*
D11*
X033812Y035745D03*
X032812Y035745D03*
X031812Y035745D03*
X030812Y035745D03*
X029812Y035745D03*
X028812Y035745D03*
X027812Y035745D03*
X026812Y035745D03*
X025812Y035745D03*
X024812Y035745D03*
X023812Y035745D03*
X023812Y031245D03*
X024812Y031245D03*
X025812Y031245D03*
X026812Y031245D03*
X027812Y031245D03*
X028812Y031245D03*
X029812Y031245D03*
X030812Y031245D03*
X031812Y031245D03*
X032812Y031245D03*
X033812Y031245D03*
X034812Y031245D03*
X044312Y029745D03*
X045312Y029745D03*
X046312Y029745D03*
X047312Y029745D03*
X047312Y026745D03*
X046312Y026745D03*
X045312Y026745D03*
X045312Y024745D03*
X046312Y024745D03*
X044312Y024745D03*
X043312Y024745D03*
X042312Y024745D03*
X041312Y024745D03*
X040312Y024745D03*
X039312Y024745D03*
X038312Y024745D03*
X037312Y024745D03*
X036312Y024745D03*
X035312Y024745D03*
X034312Y024745D03*
X034312Y021745D03*
X035312Y021745D03*
X036312Y021745D03*
X037312Y021745D03*
X038312Y021745D03*
X039312Y021745D03*
X040312Y021745D03*
X041312Y021745D03*
X042312Y021745D03*
X043312Y021745D03*
X044312Y021745D03*
X045312Y021745D03*
X046312Y021745D03*
X047312Y021745D03*
D12*
X039773Y027245D03*
X037851Y027245D03*
D13*
X038113Y028745D03*
X037011Y028745D03*
X039261Y028745D03*
X040363Y028745D03*
X044261Y030745D03*
X045363Y030745D03*
X046261Y030745D03*
X047363Y030745D03*
X029363Y027745D03*
X029363Y026745D03*
X028261Y026745D03*
X028261Y027745D03*
X015363Y030495D03*
X014261Y030495D03*
X013363Y030495D03*
X012261Y030495D03*
X006113Y030745D03*
X005011Y030745D03*
X004113Y030745D03*
X003011Y030745D03*
X019011Y016495D03*
X020113Y016495D03*
X035761Y013495D03*
X036863Y013495D03*
X043261Y019245D03*
X044363Y019245D03*
D14*
X042312Y019194D03*
X041312Y019194D03*
X040312Y019194D03*
X039312Y019194D03*
X039312Y020296D03*
X040312Y020296D03*
X041312Y020296D03*
X042312Y020296D03*
X040562Y016046D03*
X040562Y014944D03*
X045062Y014046D03*
X046312Y013296D03*
X045062Y012944D03*
X046312Y012194D03*
X023812Y018194D03*
X023812Y019296D03*
X019062Y019296D03*
X019062Y018194D03*
X019062Y024194D03*
X019062Y025296D03*
X023812Y025296D03*
X023812Y024194D03*
X036812Y033444D03*
X036812Y034546D03*
X041812Y027796D03*
X042812Y027796D03*
X042812Y026694D03*
X041812Y026694D03*
X050312Y026694D03*
X050312Y027796D03*
D15*
X048812Y028525D03*
X048812Y025965D03*
X046312Y010981D03*
X045312Y010981D03*
X044312Y010981D03*
X041312Y010981D03*
X040312Y010981D03*
X039312Y010981D03*
X017548Y018745D03*
X017548Y019745D03*
X017548Y020745D03*
X017548Y024745D03*
X017548Y025745D03*
X017548Y026745D03*
D16*
X017812Y038245D03*
X016812Y038245D03*
X018812Y038245D03*
X019812Y038245D03*
X022312Y038245D03*
X023312Y038245D03*
X024312Y038245D03*
X025312Y038245D03*
X027812Y038245D03*
X028812Y038245D03*
X029812Y038245D03*
X030812Y038245D03*
X033312Y038245D03*
X034312Y038245D03*
X035312Y038245D03*
X036312Y038245D03*
X038562Y038245D03*
X039562Y038245D03*
X040562Y038245D03*
X041562Y038245D03*
X014312Y038245D03*
X013312Y038245D03*
X012312Y038245D03*
X011312Y038245D03*
X008812Y038245D03*
X007812Y038245D03*
X006812Y038245D03*
X005812Y038245D03*
X051062Y022245D03*
D17*
X051062Y023245D03*
X037562Y038245D03*
X032312Y038245D03*
X026812Y038245D03*
X021312Y038245D03*
X015812Y038245D03*
X010312Y038245D03*
X004812Y038245D03*
D18*
X019262Y007245D03*
X032362Y007245D03*
D19*
X040312Y005245D03*
X045312Y005245D03*
D20*
X050312Y005729D03*
X050312Y008261D03*
X013312Y010229D03*
X013312Y005229D03*
X008562Y005229D03*
X003812Y005479D03*
X009312Y030761D03*
X014501Y034995D03*
X006623Y035245D03*
D21*
X008001Y035245D03*
X009312Y032729D03*
X013123Y034995D03*
X050312Y010229D03*
X050312Y003761D03*
X013312Y003261D03*
X008562Y003261D03*
X003812Y003511D03*
X013312Y008261D03*
D22*
X027312Y014245D03*
X028812Y014495D03*
X030062Y015745D03*
X033562Y019495D03*
X037562Y020495D03*
X037562Y018245D03*
X039562Y014995D03*
X046812Y020495D03*
X048898Y018331D03*
X029312Y021245D03*
X050062Y035495D03*
X051062Y035495D03*
D23*
X051062Y031495D03*
X050062Y031495D03*
X033562Y020495D03*
X033562Y018245D03*
X030062Y019745D03*
X028812Y018495D03*
X027312Y018245D03*
X035562Y014995D03*
X037562Y019495D03*
X046812Y016495D03*
X029312Y025245D03*
D24*
X022560Y022448D03*
X021560Y022448D03*
X020560Y022448D03*
X019560Y022448D03*
X019560Y028948D03*
X020560Y028948D03*
X021560Y028948D03*
X022560Y028948D03*
X042064Y015792D03*
X043064Y015792D03*
X044064Y015792D03*
X045064Y015792D03*
D25*
X043586Y013995D03*
X043586Y013495D03*
X043586Y012995D03*
X043586Y012495D03*
X041538Y012495D03*
X041538Y012995D03*
X041538Y013495D03*
X041538Y013995D03*
X022336Y018245D03*
X022336Y018745D03*
X022336Y019245D03*
X022336Y019745D03*
X020288Y019745D03*
X020288Y019245D03*
X020288Y018745D03*
X020288Y018245D03*
X020288Y024245D03*
X020288Y024745D03*
X020288Y025245D03*
X020288Y025745D03*
X022336Y025745D03*
X022336Y025245D03*
X022336Y024745D03*
X022336Y024245D03*
D26*
X011812Y025745D03*
X011812Y019745D03*
D27*
X012812Y031995D03*
X003562Y032245D03*
D28*
X004562Y032245D03*
X005562Y032245D03*
X013812Y031995D03*
X014812Y031995D03*
X010062Y013245D03*
X010062Y007245D03*
D29*
X018062Y013221D03*
X018562Y013221D03*
X019062Y013221D03*
X019562Y013221D03*
X019562Y015269D03*
X019062Y015269D03*
X018562Y015269D03*
X018062Y015269D03*
X035562Y012269D03*
X036062Y012269D03*
X036562Y012269D03*
X037062Y012269D03*
X037062Y010221D03*
X036562Y010221D03*
X036062Y010221D03*
X035562Y010221D03*
D30*
X006861Y010495D03*
X002861Y010495D03*
X002861Y014495D03*
X006861Y014495D03*
X006861Y022745D03*
X002861Y022745D03*
X002861Y026745D03*
X006861Y026745D03*
D31*
X050562Y014745D03*
X050562Y012745D03*
D32*
X047062Y031912D03*
X046062Y031912D03*
X045062Y031912D03*
X044062Y031912D03*
X044562Y032912D03*
X045562Y032912D03*
X046562Y032912D03*
X047562Y032912D03*
D33*
X014781Y015190D03*
X014781Y013300D03*
D34*
X017241Y013300D03*
X017241Y015190D03*
D35*
X006562Y018745D03*
X002812Y035745D03*
X052062Y017745D03*
D36*
G36*
X051359Y021159D02*
X051726Y021526D01*
X052093Y021159D01*
X051726Y020792D01*
X051359Y021159D01*
G37*
D37*
X049312Y022371D03*
X049312Y023119D03*
D38*
X026812Y029495D03*
X026312Y029495D03*
X025812Y029495D03*
D39*
X021560Y028948D02*
X021560Y024497D01*
X021812Y024245D01*
X021562Y023995D01*
X021562Y022450D01*
X021560Y022448D01*
X021562Y022446D01*
X021562Y018495D01*
X021812Y018245D01*
X022336Y018245D01*
X023761Y018245D01*
X023812Y018194D01*
X022336Y018745D02*
X025312Y018745D01*
X025812Y019245D01*
X025812Y020245D01*
X027312Y021745D01*
X025812Y023245D01*
X025812Y024245D01*
X025312Y024745D01*
X022336Y024745D01*
X022336Y024245D02*
X021812Y024245D01*
X022336Y024245D02*
X023761Y024245D01*
X023812Y024194D01*
X023812Y025296D02*
X023812Y025995D01*
X024062Y025995D01*
X023812Y025995D02*
X023562Y025995D01*
X023062Y025995D01*
X022812Y025745D01*
X022336Y025745D01*
X021062Y024495D02*
X021062Y029495D01*
X020107Y029495D01*
X019560Y028948D01*
X020560Y028948D02*
X020560Y027493D01*
X019812Y026745D01*
X019062Y026745D01*
X019062Y025296D01*
X019062Y025245D01*
X020288Y025245D01*
X020288Y024745D02*
X017548Y024745D01*
X019062Y024194D02*
X019113Y024245D01*
X020288Y024245D01*
X020812Y024245D01*
X021062Y024495D01*
X020812Y022995D02*
X019812Y022995D01*
X019560Y022743D01*
X019560Y022448D01*
X020560Y022448D02*
X020560Y021493D01*
X019812Y020745D01*
X019062Y020745D01*
X019062Y019296D01*
X019062Y019245D01*
X020288Y019245D01*
X020288Y018745D02*
X017548Y018745D01*
X019062Y018245D02*
X019062Y018194D01*
X019062Y018245D02*
X020288Y018245D01*
X020812Y018245D01*
X021062Y018495D01*
X021062Y022745D01*
X020812Y022995D01*
X019062Y020745D02*
X017548Y020745D01*
X022336Y019745D02*
X023363Y019745D01*
X023812Y019296D01*
X027312Y021745D02*
X034312Y021745D01*
X033562Y020495D02*
X034562Y019495D01*
X034562Y013745D01*
X034812Y013495D01*
X035761Y013495D01*
X035562Y013296D01*
X035562Y012269D01*
X040312Y012245D02*
X040562Y012495D01*
X041538Y012495D01*
X040562Y012495D02*
X040312Y012745D01*
X041538Y013995D02*
X041538Y014267D01*
X043064Y015792D01*
X043109Y015792D01*
X043812Y016495D01*
X045562Y016495D01*
X046062Y015995D01*
X052312Y015995D01*
X052812Y015495D01*
X052812Y001745D01*
X052312Y001245D01*
X031812Y001245D01*
X027312Y005495D01*
X027312Y014245D01*
X025562Y014245D02*
X031812Y020495D01*
X033562Y020495D01*
X033562Y019495D02*
X031812Y019495D01*
X024062Y011745D01*
X015938Y011745D01*
X017241Y013300D02*
X017983Y013300D01*
X018062Y013221D01*
X018562Y013221D02*
X018562Y015269D01*
X018562Y016046D01*
X019011Y016495D01*
X020062Y016444D02*
X020113Y016495D01*
X020062Y016444D02*
X020062Y014245D01*
X019062Y014245D01*
X019062Y015269D01*
X018062Y015269D02*
X017983Y015190D01*
X017241Y015190D01*
X019062Y014245D02*
X019062Y013221D01*
X020062Y014245D02*
X025562Y014245D01*
X036863Y008796D02*
X037312Y009245D01*
X040312Y009245D01*
X040312Y010981D01*
X042562Y010995D02*
X042562Y009245D01*
X040312Y009245D01*
X040312Y005245D01*
X045312Y005245D02*
X047562Y005245D01*
X050312Y005245D01*
X050312Y005729D01*
X050312Y008261D01*
X046312Y010981D02*
X046312Y012194D01*
X045062Y012745D02*
X045062Y012944D01*
X044312Y012944D01*
X044312Y010995D01*
X042562Y010995D01*
X042562Y012995D01*
X042562Y014495D01*
X042812Y014745D01*
X043814Y014745D01*
X044064Y014995D01*
X044064Y015792D01*
X045064Y015792D02*
X045064Y014046D01*
X045062Y014046D01*
X045062Y013995D01*
X043586Y013995D01*
X043586Y013495D02*
X046312Y013495D01*
X046312Y013296D01*
X045062Y012995D02*
X045062Y012944D01*
X045062Y012995D02*
X043586Y012995D01*
X042562Y012995D01*
X045312Y010981D02*
X045312Y005245D01*
X040312Y018495D02*
X039812Y018495D01*
X039312Y018495D01*
X039312Y019245D01*
X040312Y019245D01*
X040312Y019194D02*
X040312Y018495D01*
X040312Y019194D02*
X039312Y019194D01*
X039312Y020296D02*
X039113Y020495D01*
X039312Y020495D02*
X037562Y020495D01*
X039312Y020495D02*
X039312Y021745D01*
X039312Y022745D01*
X041312Y024745D01*
X041312Y025745D01*
X041812Y026245D01*
X041812Y026694D01*
X042812Y026694D02*
X042863Y026745D01*
X044312Y026745D01*
X044812Y027245D02*
X044812Y025745D01*
X045312Y025245D01*
X045312Y024745D01*
X046312Y024745D02*
X046312Y025245D01*
X045312Y026245D01*
X045312Y026745D01*
X045812Y027245D02*
X044812Y027245D01*
X045812Y027245D02*
X046312Y026745D01*
X047592Y024745D02*
X048812Y025965D01*
X049540Y026694D01*
X050312Y026694D01*
X047592Y024745D02*
X047312Y024745D01*
X042812Y027745D02*
X041812Y027745D01*
X041812Y027796D02*
X041812Y028745D01*
X042312Y028745D01*
X042812Y028745D01*
X042812Y027745D01*
X042812Y027796D02*
X041812Y027796D01*
X040363Y027836D02*
X039773Y027245D01*
X039812Y027284D01*
X039773Y027245D02*
X039312Y026784D01*
X039312Y024745D01*
X038312Y024745D02*
X038312Y026745D01*
X037851Y027206D01*
X037851Y027245D01*
X037011Y028086D01*
X037011Y028745D01*
X038062Y028745D02*
X038062Y029245D01*
X038312Y029495D01*
X038812Y029495D01*
X039062Y029495D01*
X039261Y029296D01*
X039261Y028745D01*
X038113Y028745D01*
X037812Y027284D02*
X037851Y027245D01*
X040363Y027836D02*
X040363Y028745D01*
X044312Y029745D02*
X044312Y030694D01*
X044261Y030745D01*
X045312Y030694D02*
X045312Y029745D01*
X046312Y029745D02*
X046312Y030694D01*
X046261Y030745D01*
X045363Y030745D02*
X045312Y030694D01*
X047312Y030694D02*
X047312Y029745D01*
X047312Y030694D02*
X047363Y030745D01*
X036812Y034546D02*
X035913Y034546D01*
X035812Y034445D01*
X019062Y026745D02*
X017548Y026745D01*
X015363Y030495D02*
X015363Y031444D01*
X014812Y031995D01*
X014812Y034684D01*
X014501Y034995D01*
X013812Y031995D02*
X013812Y030495D01*
X014261Y030495D01*
X013812Y030495D02*
X013363Y030495D01*
X012261Y030495D02*
X012261Y031444D01*
X012812Y031995D01*
X006312Y030546D02*
X006113Y030745D01*
X006113Y031944D01*
X005812Y032245D01*
X004562Y032245D02*
X004562Y030995D01*
X004812Y030745D01*
X005011Y030745D01*
X004812Y030745D02*
X004113Y030745D01*
X003011Y030745D02*
X003011Y031694D01*
X003562Y032245D01*
X005812Y035245D02*
X006623Y035245D01*
X039312Y020495D02*
X039312Y020296D01*
X040312Y020296D02*
X040312Y021745D01*
X041312Y020296D02*
X042312Y020296D01*
X042312Y021745D01*
D40*
X040312Y018495D03*
X039812Y018495D03*
X039312Y018495D03*
X037812Y013245D03*
X040312Y012745D03*
X040312Y012245D03*
X024062Y019995D03*
X023562Y019995D03*
X018312Y016495D03*
X023562Y025995D03*
X024062Y025995D03*
X027562Y026745D03*
X027562Y027745D03*
X019312Y031245D03*
X018312Y031995D03*
X016312Y031995D03*
X034062Y036995D03*
X035812Y034445D03*
X038312Y029495D03*
X038812Y029495D03*
X039312Y029495D03*
X041812Y028745D03*
X042312Y028745D03*
X042812Y028745D03*
D41*
X019853Y001786D02*
X001772Y001786D01*
X001812Y001745D02*
X001392Y002165D01*
X001392Y016325D01*
X001812Y016745D01*
X011312Y016745D01*
X011812Y016245D01*
X011812Y012745D01*
X012312Y012245D01*
X019812Y012245D01*
X020312Y011745D01*
X020312Y002245D01*
X019812Y001745D01*
X001812Y001745D01*
X001653Y001904D02*
X019971Y001904D01*
X020090Y002023D02*
X001535Y002023D01*
X001416Y002141D02*
X020208Y002141D01*
X020312Y002260D02*
X001392Y002260D01*
X001392Y002378D02*
X020312Y002378D01*
X020312Y002497D02*
X001392Y002497D01*
X001392Y002615D02*
X020312Y002615D01*
X020312Y002734D02*
X001392Y002734D01*
X001392Y002852D02*
X020312Y002852D01*
X020312Y002971D02*
X013556Y002971D01*
X013526Y002940D02*
X013632Y003047D01*
X013690Y003186D01*
X013690Y003336D01*
X013632Y003475D01*
X013526Y003581D01*
X013387Y003639D01*
X013237Y003639D01*
X013098Y003581D01*
X012992Y003475D01*
X012934Y003336D01*
X012934Y003186D01*
X012992Y003047D01*
X013098Y002940D01*
X013237Y002883D01*
X013387Y002883D01*
X013526Y002940D01*
X013650Y003089D02*
X020312Y003089D01*
X020312Y003208D02*
X013690Y003208D01*
X013690Y003326D02*
X020312Y003326D01*
X020312Y003445D02*
X013645Y003445D01*
X013544Y003563D02*
X020312Y003563D01*
X020312Y003682D02*
X004150Y003682D01*
X004132Y003725D02*
X004026Y003831D01*
X003887Y003889D01*
X003737Y003889D01*
X003598Y003831D01*
X003492Y003725D01*
X003434Y003586D01*
X003434Y003436D01*
X003492Y003297D01*
X003598Y003190D01*
X003737Y003133D01*
X003887Y003133D01*
X004026Y003190D01*
X004132Y003297D01*
X004190Y003436D01*
X004190Y003586D01*
X004132Y003725D01*
X004057Y003800D02*
X020312Y003800D01*
X020312Y003919D02*
X001392Y003919D01*
X001392Y004037D02*
X020312Y004037D01*
X020312Y004156D02*
X001392Y004156D01*
X001392Y004274D02*
X020312Y004274D01*
X020312Y004393D02*
X001392Y004393D01*
X001392Y004511D02*
X020312Y004511D01*
X020312Y004630D02*
X001392Y004630D01*
X001392Y004748D02*
X020312Y004748D01*
X020312Y004867D02*
X013651Y004867D01*
X013648Y004863D02*
X013678Y004893D01*
X013699Y004930D01*
X013710Y004970D01*
X013710Y005220D01*
X013321Y005220D01*
X013321Y004831D01*
X013571Y004831D01*
X013612Y004842D01*
X013648Y004863D01*
X013710Y004985D02*
X020312Y004985D01*
X020312Y005104D02*
X013710Y005104D01*
X013710Y005238D02*
X013710Y005488D01*
X013699Y005529D01*
X013678Y005565D01*
X013648Y005595D01*
X013612Y005616D01*
X013571Y005627D01*
X013321Y005627D01*
X013321Y005238D01*
X013710Y005238D01*
X013710Y005341D02*
X020312Y005341D01*
X020312Y005459D02*
X013710Y005459D01*
X013666Y005578D02*
X020312Y005578D01*
X020312Y005696D02*
X004210Y005696D01*
X004210Y005738D02*
X004199Y005779D01*
X004178Y005815D01*
X004148Y005845D01*
X004112Y005866D01*
X004071Y005877D01*
X003821Y005877D01*
X003821Y005488D01*
X004210Y005488D01*
X004210Y005738D01*
X004178Y005815D02*
X020312Y005815D01*
X020312Y005933D02*
X001392Y005933D01*
X001392Y005815D02*
X003446Y005815D01*
X003425Y005779D01*
X003414Y005738D01*
X003414Y005488D01*
X003803Y005488D01*
X003803Y005470D01*
X003821Y005470D01*
X003821Y005081D01*
X004071Y005081D01*
X004112Y005092D01*
X004148Y005113D01*
X004178Y005143D01*
X004199Y005180D01*
X004210Y005220D01*
X004210Y005470D01*
X003821Y005470D01*
X003821Y005488D01*
X003803Y005488D01*
X003803Y005877D01*
X003553Y005877D01*
X003512Y005866D01*
X003476Y005845D01*
X003446Y005815D01*
X003414Y005696D02*
X001392Y005696D01*
X001392Y005578D02*
X003414Y005578D01*
X003414Y005470D02*
X003414Y005220D01*
X003425Y005180D01*
X003446Y005143D01*
X003476Y005113D01*
X003512Y005092D01*
X003553Y005081D01*
X003803Y005081D01*
X003803Y005470D01*
X003414Y005470D01*
X003414Y005459D02*
X001392Y005459D01*
X001392Y005341D02*
X003414Y005341D01*
X003414Y005222D02*
X001392Y005222D01*
X001392Y005104D02*
X003493Y005104D01*
X003803Y005104D02*
X003821Y005104D01*
X003821Y005222D02*
X003803Y005222D01*
X003803Y005341D02*
X003821Y005341D01*
X003821Y005459D02*
X003803Y005459D01*
X003803Y005578D02*
X003821Y005578D01*
X003821Y005696D02*
X003803Y005696D01*
X003803Y005815D02*
X003821Y005815D01*
X004210Y005578D02*
X008208Y005578D01*
X008196Y005565D02*
X008175Y005529D01*
X008164Y005488D01*
X008164Y005238D01*
X008553Y005238D01*
X008553Y005220D01*
X008571Y005220D01*
X008571Y004831D01*
X008821Y004831D01*
X008862Y004842D01*
X008898Y004863D01*
X008928Y004893D01*
X008949Y004930D01*
X008960Y004970D01*
X008960Y005220D01*
X008571Y005220D01*
X008571Y005238D01*
X008960Y005238D01*
X008960Y005488D01*
X008949Y005529D01*
X008928Y005565D01*
X008898Y005595D01*
X008862Y005616D01*
X008821Y005627D01*
X008571Y005627D01*
X008571Y005238D01*
X008553Y005238D01*
X008553Y005627D01*
X008303Y005627D01*
X008262Y005616D01*
X008226Y005595D01*
X008196Y005565D01*
X008164Y005459D02*
X004210Y005459D01*
X004210Y005341D02*
X008164Y005341D01*
X008164Y005220D02*
X008164Y004970D01*
X008175Y004930D01*
X008196Y004893D01*
X008226Y004863D01*
X008262Y004842D01*
X008303Y004831D01*
X008553Y004831D01*
X008553Y005220D01*
X008164Y005220D01*
X008164Y005104D02*
X004131Y005104D01*
X004210Y005222D02*
X008553Y005222D01*
X008571Y005222D02*
X013303Y005222D01*
X013303Y005220D02*
X012914Y005220D01*
X012914Y004970D01*
X012925Y004930D01*
X012946Y004893D01*
X012976Y004863D01*
X013012Y004842D01*
X013053Y004831D01*
X013303Y004831D01*
X013303Y005220D01*
X013321Y005220D01*
X013321Y005238D01*
X013303Y005238D01*
X013303Y005220D01*
X013321Y005222D02*
X020312Y005222D01*
X020312Y006052D02*
X001392Y006052D01*
X001392Y006170D02*
X020312Y006170D01*
X020312Y006289D02*
X001392Y006289D01*
X001392Y006407D02*
X020312Y006407D01*
X020312Y006526D02*
X019949Y006526D01*
X019951Y006526D02*
X019981Y006556D01*
X020002Y006593D01*
X020013Y006633D01*
X020013Y007185D01*
X019322Y007185D01*
X019322Y006494D01*
X019874Y006494D01*
X019914Y006505D01*
X019951Y006526D01*
X020013Y006644D02*
X020312Y006644D01*
X020312Y006763D02*
X020013Y006763D01*
X020013Y006881D02*
X020312Y006881D01*
X020312Y007000D02*
X020013Y007000D01*
X020013Y007118D02*
X020312Y007118D01*
X020312Y007237D02*
X019322Y007237D01*
X019322Y007185D02*
X019322Y007305D01*
X019202Y007305D01*
X019202Y007185D01*
X018511Y007185D01*
X018511Y006633D01*
X018522Y006593D01*
X018543Y006556D01*
X018573Y006526D01*
X018610Y006505D01*
X018650Y006494D01*
X019202Y006494D01*
X019202Y007185D01*
X019322Y007185D01*
X019322Y007118D02*
X019202Y007118D01*
X019202Y007000D02*
X019322Y007000D01*
X019322Y006881D02*
X019202Y006881D01*
X019202Y006763D02*
X019322Y006763D01*
X019322Y006644D02*
X019202Y006644D01*
X019202Y006526D02*
X019322Y006526D01*
X019202Y007237D02*
X010122Y007237D01*
X010122Y007185D02*
X010122Y007305D01*
X010002Y007305D01*
X010002Y007185D01*
X009492Y007185D01*
X009504Y007111D01*
X009531Y007025D01*
X009572Y006945D01*
X009625Y006872D01*
X009689Y006808D01*
X009762Y006755D01*
X009842Y006714D01*
X009928Y006687D01*
X010002Y006675D01*
X010002Y007185D01*
X010122Y007185D01*
X010122Y006675D01*
X010196Y006687D01*
X010282Y006714D01*
X010362Y006755D01*
X010435Y006808D01*
X010499Y006872D01*
X010552Y006945D01*
X010593Y007025D01*
X010620Y007111D01*
X010632Y007185D01*
X010122Y007185D01*
X010122Y007118D02*
X010002Y007118D01*
X010002Y007000D02*
X010122Y007000D01*
X010122Y006881D02*
X010002Y006881D01*
X010002Y006763D02*
X010122Y006763D01*
X010372Y006763D02*
X018511Y006763D01*
X018511Y006881D02*
X010505Y006881D01*
X010579Y007000D02*
X018511Y007000D01*
X018511Y007118D02*
X010622Y007118D01*
X010632Y007305D02*
X010122Y007305D01*
X010122Y007815D01*
X010196Y007803D01*
X010282Y007776D01*
X010362Y007735D01*
X010435Y007682D01*
X010499Y007618D01*
X010552Y007545D01*
X010593Y007465D01*
X010620Y007379D01*
X010632Y007305D01*
X010624Y007355D02*
X018511Y007355D01*
X018511Y007305D02*
X019202Y007305D01*
X019202Y007996D01*
X018650Y007996D01*
X018610Y007985D01*
X018573Y007964D01*
X018543Y007934D01*
X018522Y007897D01*
X018511Y007857D01*
X018511Y007305D01*
X018511Y007474D02*
X010588Y007474D01*
X010518Y007592D02*
X018511Y007592D01*
X018511Y007711D02*
X010395Y007711D01*
X010122Y007711D02*
X010002Y007711D01*
X010002Y007815D02*
X009928Y007803D01*
X009842Y007776D01*
X009762Y007735D01*
X009689Y007682D01*
X009625Y007618D01*
X009572Y007545D01*
X009531Y007465D01*
X009504Y007379D01*
X009492Y007305D01*
X010002Y007305D01*
X010002Y007815D01*
X010002Y007592D02*
X010122Y007592D01*
X010122Y007474D02*
X010002Y007474D01*
X010002Y007355D02*
X010122Y007355D01*
X010002Y007237D02*
X001392Y007237D01*
X001392Y007355D02*
X009500Y007355D01*
X009536Y007474D02*
X001392Y007474D01*
X001392Y007592D02*
X009606Y007592D01*
X009729Y007711D02*
X001392Y007711D01*
X001392Y007829D02*
X018511Y007829D01*
X018557Y007948D02*
X013533Y007948D01*
X013526Y007940D02*
X013632Y008047D01*
X013690Y008186D01*
X013690Y008336D01*
X013632Y008475D01*
X013526Y008581D01*
X013387Y008639D01*
X013237Y008639D01*
X013098Y008581D01*
X012992Y008475D01*
X012934Y008336D01*
X012934Y008186D01*
X012992Y008047D01*
X013098Y007940D01*
X013237Y007883D01*
X013387Y007883D01*
X013526Y007940D01*
X013640Y008066D02*
X020312Y008066D01*
X020312Y007948D02*
X019967Y007948D01*
X019981Y007934D02*
X019951Y007964D01*
X019914Y007985D01*
X019874Y007996D01*
X019322Y007996D01*
X019322Y007305D01*
X020013Y007305D01*
X020013Y007857D01*
X020002Y007897D01*
X019981Y007934D01*
X020013Y007829D02*
X020312Y007829D01*
X020312Y007711D02*
X020013Y007711D01*
X020013Y007592D02*
X020312Y007592D01*
X020312Y007474D02*
X020013Y007474D01*
X020013Y007355D02*
X020312Y007355D01*
X020312Y008185D02*
X013689Y008185D01*
X013690Y008303D02*
X020312Y008303D01*
X020312Y008422D02*
X013654Y008422D01*
X013567Y008540D02*
X020312Y008540D01*
X020312Y008659D02*
X001392Y008659D01*
X001392Y008777D02*
X020312Y008777D01*
X020312Y008896D02*
X001392Y008896D01*
X001392Y009014D02*
X020312Y009014D01*
X020312Y009133D02*
X001392Y009133D01*
X001392Y009251D02*
X020312Y009251D01*
X020312Y009370D02*
X001392Y009370D01*
X001392Y009488D02*
X020312Y009488D01*
X020312Y009607D02*
X001392Y009607D01*
X001392Y009725D02*
X020312Y009725D01*
X020312Y009844D02*
X013614Y009844D01*
X013612Y009842D02*
X013648Y009863D01*
X013678Y009893D01*
X013699Y009930D01*
X013710Y009970D01*
X013710Y010220D01*
X013321Y010220D01*
X013321Y009831D01*
X013571Y009831D01*
X013612Y009842D01*
X013708Y009962D02*
X020312Y009962D01*
X020312Y010081D02*
X013710Y010081D01*
X013710Y010199D02*
X020312Y010199D01*
X020312Y010318D02*
X013710Y010318D01*
X013710Y010238D02*
X013710Y010488D01*
X013699Y010529D01*
X013678Y010565D01*
X013648Y010595D01*
X013612Y010616D01*
X013571Y010627D01*
X013321Y010627D01*
X013321Y010238D01*
X013710Y010238D01*
X013710Y010436D02*
X020312Y010436D01*
X020312Y010555D02*
X013684Y010555D01*
X013321Y010555D02*
X013303Y010555D01*
X013303Y010627D02*
X013053Y010627D01*
X013012Y010616D01*
X012976Y010595D01*
X012946Y010565D01*
X012925Y010529D01*
X012914Y010488D01*
X012914Y010238D01*
X013303Y010238D01*
X013303Y010220D01*
X013321Y010220D01*
X013321Y010238D01*
X013303Y010238D01*
X013303Y010627D01*
X013303Y010436D02*
X013321Y010436D01*
X013321Y010318D02*
X013303Y010318D01*
X013303Y010220D02*
X012914Y010220D01*
X012914Y009970D01*
X012925Y009930D01*
X012946Y009893D01*
X012976Y009863D01*
X013012Y009842D01*
X013053Y009831D01*
X013303Y009831D01*
X013303Y010220D01*
X013303Y010199D02*
X013321Y010199D01*
X013321Y010081D02*
X013303Y010081D01*
X013303Y009962D02*
X013321Y009962D01*
X013321Y009844D02*
X013303Y009844D01*
X013010Y009844D02*
X001392Y009844D01*
X001392Y009962D02*
X002251Y009962D01*
X002249Y009965D02*
X002331Y009883D01*
X003392Y009883D01*
X003474Y009965D01*
X003474Y011025D01*
X003392Y011107D01*
X002331Y011107D01*
X002249Y011025D01*
X002249Y009965D01*
X002249Y010081D02*
X001392Y010081D01*
X001392Y010199D02*
X002249Y010199D01*
X002249Y010318D02*
X001392Y010318D01*
X001392Y010436D02*
X002249Y010436D01*
X002249Y010555D02*
X001392Y010555D01*
X001392Y010673D02*
X002249Y010673D01*
X002249Y010792D02*
X001392Y010792D01*
X001392Y010910D02*
X002249Y010910D01*
X002252Y011029D02*
X001392Y011029D01*
X001392Y011147D02*
X020312Y011147D01*
X020312Y011029D02*
X007471Y011029D01*
X007474Y011025D02*
X007392Y011107D01*
X006331Y011107D01*
X006249Y011025D01*
X006249Y009965D01*
X006331Y009883D01*
X007392Y009883D01*
X007474Y009965D01*
X007474Y011025D01*
X007474Y010910D02*
X020312Y010910D01*
X020312Y010792D02*
X007474Y010792D01*
X007474Y010673D02*
X020312Y010673D01*
X020312Y011266D02*
X001392Y011266D01*
X001392Y011384D02*
X020312Y011384D01*
X020312Y011503D02*
X001392Y011503D01*
X001392Y011621D02*
X020312Y011621D01*
X020312Y011740D02*
X001392Y011740D01*
X001392Y011858D02*
X020199Y011858D01*
X020080Y011977D02*
X001392Y011977D01*
X001392Y012095D02*
X019962Y012095D01*
X019843Y012214D02*
X001392Y012214D01*
X001392Y012332D02*
X012225Y012332D01*
X012106Y012451D02*
X001392Y012451D01*
X001392Y012569D02*
X011988Y012569D01*
X011869Y012688D02*
X001392Y012688D01*
X001392Y012806D02*
X009720Y012806D01*
X009749Y012777D02*
X009952Y012693D01*
X010172Y012693D01*
X010375Y012777D01*
X010530Y012932D01*
X010615Y013135D01*
X010615Y013355D01*
X010530Y013558D01*
X010375Y013713D01*
X010172Y013797D01*
X009952Y013797D01*
X009749Y013713D01*
X009594Y013558D01*
X009510Y013355D01*
X009510Y013135D01*
X009594Y012932D01*
X009749Y012777D01*
X009601Y012925D02*
X001392Y012925D01*
X001392Y013043D02*
X009548Y013043D01*
X009510Y013162D02*
X001392Y013162D01*
X001392Y013280D02*
X009510Y013280D01*
X009528Y013399D02*
X001392Y013399D01*
X001392Y013517D02*
X009577Y013517D01*
X009671Y013636D02*
X001392Y013636D01*
X001392Y013754D02*
X009847Y013754D01*
X010277Y013754D02*
X011812Y013754D01*
X011812Y013636D02*
X010453Y013636D01*
X010547Y013517D02*
X011812Y013517D01*
X011812Y013399D02*
X010596Y013399D01*
X010615Y013280D02*
X011812Y013280D01*
X011812Y013162D02*
X010615Y013162D01*
X010576Y013043D02*
X011812Y013043D01*
X011812Y012925D02*
X010523Y012925D01*
X010404Y012806D02*
X011812Y012806D01*
X011312Y012806D02*
X017312Y012806D01*
X017312Y012845D02*
X017312Y011745D01*
X011312Y011745D01*
X011312Y014745D01*
X011812Y014745D01*
X012812Y013745D01*
X012973Y013745D01*
X012970Y013743D01*
X012940Y013713D01*
X012919Y013677D01*
X012908Y013636D01*
X012908Y013360D01*
X014721Y013360D01*
X014721Y013240D01*
X014841Y013240D01*
X014841Y013360D01*
X016653Y013360D01*
X016653Y013636D01*
X016642Y013677D01*
X016621Y013713D01*
X016591Y013743D01*
X016588Y013745D01*
X016812Y013745D01*
X016835Y013722D01*
X016786Y013673D01*
X016786Y012927D01*
X016868Y012845D01*
X017312Y012845D01*
X017312Y012688D02*
X011312Y012688D01*
X011312Y012569D02*
X017312Y012569D01*
X017312Y012451D02*
X011312Y012451D01*
X011312Y012332D02*
X017312Y012332D01*
X017312Y012214D02*
X011312Y012214D01*
X011312Y012095D02*
X017312Y012095D01*
X017312Y011977D02*
X011312Y011977D01*
X011312Y011858D02*
X017312Y011858D01*
X017600Y012214D02*
X017812Y012214D01*
X017812Y012245D02*
X017812Y011245D01*
X011062Y011245D01*
X017812Y012245D01*
X017812Y012095D02*
X016800Y012095D01*
X016000Y011977D02*
X017812Y011977D01*
X017812Y011858D02*
X015200Y011858D01*
X014400Y011740D02*
X017812Y011740D01*
X017812Y011621D02*
X013600Y011621D01*
X012800Y011503D02*
X017812Y011503D01*
X017812Y011384D02*
X012000Y011384D01*
X011201Y011266D02*
X017812Y011266D01*
X016789Y012925D02*
X016643Y012925D01*
X016642Y012923D02*
X016653Y012964D01*
X016653Y013240D01*
X014841Y013240D01*
X014841Y012825D01*
X016514Y012825D01*
X016555Y012836D01*
X016591Y012857D01*
X016621Y012887D01*
X016642Y012923D01*
X016653Y013043D02*
X016786Y013043D01*
X016786Y013162D02*
X016653Y013162D01*
X016786Y013280D02*
X014841Y013280D01*
X014841Y013162D02*
X014721Y013162D01*
X014721Y013240D02*
X014721Y012825D01*
X013047Y012825D01*
X013006Y012836D01*
X012970Y012857D01*
X012940Y012887D01*
X012919Y012923D01*
X012908Y012964D01*
X012908Y013240D01*
X014721Y013240D01*
X014721Y013280D02*
X011312Y013280D01*
X011312Y013162D02*
X012908Y013162D01*
X012908Y013043D02*
X011312Y013043D01*
X011312Y012925D02*
X012919Y012925D01*
X012908Y013399D02*
X011312Y013399D01*
X011312Y013517D02*
X012908Y013517D01*
X012908Y013636D02*
X011312Y013636D01*
X011312Y013754D02*
X012803Y013754D01*
X012684Y013873D02*
X011312Y013873D01*
X011312Y013991D02*
X012566Y013991D01*
X012447Y014110D02*
X011312Y014110D01*
X011312Y014228D02*
X012329Y014228D01*
X012210Y014347D02*
X011312Y014347D01*
X011312Y014465D02*
X012092Y014465D01*
X011973Y014584D02*
X011312Y014584D01*
X011312Y014702D02*
X011855Y014702D01*
X011812Y014702D02*
X007494Y014702D01*
X007494Y014584D02*
X011812Y014584D01*
X011812Y014465D02*
X006921Y014465D01*
X006921Y014435D02*
X006921Y014555D01*
X006801Y014555D01*
X006801Y014435D01*
X006229Y014435D01*
X006229Y014001D01*
X006240Y013961D01*
X006261Y013924D01*
X006291Y013895D01*
X006327Y013873D01*
X006368Y013863D01*
X006801Y013863D01*
X006801Y014435D01*
X006921Y014435D01*
X006921Y013863D01*
X007355Y013863D01*
X007395Y013873D01*
X007432Y013895D01*
X007462Y013924D01*
X007483Y013961D01*
X007494Y014001D01*
X007494Y014435D01*
X006921Y014435D01*
X006921Y014347D02*
X006801Y014347D01*
X006801Y014465D02*
X002921Y014465D01*
X002921Y014435D02*
X002921Y014555D01*
X002801Y014555D01*
X002801Y014435D01*
X002229Y014435D01*
X002229Y014001D01*
X002240Y013961D01*
X002261Y013924D01*
X002291Y013895D01*
X002327Y013873D01*
X002368Y013863D01*
X002801Y013863D01*
X002801Y014435D01*
X002921Y014435D01*
X002921Y013863D01*
X003355Y013863D01*
X003395Y013873D01*
X003432Y013895D01*
X003462Y013924D01*
X003483Y013961D01*
X003494Y014001D01*
X003494Y014435D01*
X002921Y014435D01*
X002921Y014347D02*
X002801Y014347D01*
X002801Y014465D02*
X001392Y014465D01*
X001392Y014347D02*
X002229Y014347D01*
X002229Y014228D02*
X001392Y014228D01*
X001392Y014110D02*
X002229Y014110D01*
X002232Y013991D02*
X001392Y013991D01*
X001392Y013873D02*
X002331Y013873D01*
X002801Y013873D02*
X002921Y013873D01*
X002921Y013991D02*
X002801Y013991D01*
X002801Y014110D02*
X002921Y014110D01*
X002921Y014228D02*
X002801Y014228D01*
X002801Y014555D02*
X002229Y014555D01*
X002229Y014989D01*
X002240Y015029D01*
X002261Y015066D01*
X002291Y015095D01*
X002327Y015117D01*
X002368Y015127D01*
X002801Y015127D01*
X002801Y014555D01*
X002801Y014584D02*
X002921Y014584D01*
X002921Y014555D02*
X002921Y015127D01*
X003355Y015127D01*
X003395Y015117D01*
X003432Y015095D01*
X003462Y015066D01*
X003483Y015029D01*
X003494Y014989D01*
X003494Y014555D01*
X002921Y014555D01*
X002921Y014702D02*
X002801Y014702D01*
X002801Y014821D02*
X002921Y014821D01*
X002921Y014939D02*
X002801Y014939D01*
X002801Y015058D02*
X002921Y015058D01*
X003466Y015058D02*
X006256Y015058D01*
X006261Y015066D02*
X006240Y015029D01*
X006229Y014989D01*
X006229Y014555D01*
X006801Y014555D01*
X006801Y015127D01*
X006368Y015127D01*
X006327Y015117D01*
X006291Y015095D01*
X006261Y015066D01*
X006229Y014939D02*
X003494Y014939D01*
X003494Y014821D02*
X006229Y014821D01*
X006229Y014702D02*
X003494Y014702D01*
X003494Y014584D02*
X006229Y014584D01*
X006229Y014347D02*
X003494Y014347D01*
X003494Y014228D02*
X006229Y014228D01*
X006229Y014110D02*
X003494Y014110D01*
X003491Y013991D02*
X006232Y013991D01*
X006331Y013873D02*
X003392Y013873D01*
X002229Y014584D02*
X001392Y014584D01*
X001392Y014702D02*
X002229Y014702D01*
X002229Y014821D02*
X001392Y014821D01*
X001392Y014939D02*
X002229Y014939D01*
X002256Y015058D02*
X001392Y015058D01*
X001392Y015176D02*
X011812Y015176D01*
X011812Y015058D02*
X007466Y015058D01*
X007462Y015066D02*
X007432Y015095D01*
X007395Y015117D01*
X007355Y015127D01*
X006921Y015127D01*
X006921Y014555D01*
X007494Y014555D01*
X007494Y014989D01*
X007483Y015029D01*
X007462Y015066D01*
X007494Y014939D02*
X011812Y014939D01*
X011812Y014821D02*
X007494Y014821D01*
X007494Y014347D02*
X011812Y014347D01*
X011812Y014228D02*
X007494Y014228D01*
X007494Y014110D02*
X011812Y014110D01*
X011812Y013991D02*
X007491Y013991D01*
X007392Y013873D02*
X011812Y013873D01*
X011812Y015295D02*
X001392Y015295D01*
X001392Y015413D02*
X011812Y015413D01*
X011812Y015532D02*
X001392Y015532D01*
X001392Y015650D02*
X011812Y015650D01*
X011812Y015769D02*
X001392Y015769D01*
X001392Y015887D02*
X011812Y015887D01*
X011812Y016006D02*
X001392Y016006D01*
X001392Y016124D02*
X011812Y016124D01*
X011812Y016243D02*
X001392Y016243D01*
X001428Y016361D02*
X011696Y016361D01*
X011577Y016480D02*
X001547Y016480D01*
X001665Y016598D02*
X011459Y016598D01*
X011340Y016717D02*
X001784Y016717D01*
X006801Y015058D02*
X006921Y015058D01*
X006921Y014939D02*
X006801Y014939D01*
X006801Y014821D02*
X006921Y014821D01*
X006921Y014702D02*
X006801Y014702D01*
X006801Y014584D02*
X006921Y014584D01*
X006921Y014228D02*
X006801Y014228D01*
X006801Y014110D02*
X006921Y014110D01*
X006921Y013991D02*
X006801Y013991D01*
X006801Y013873D02*
X006921Y013873D01*
X006252Y011029D02*
X003471Y011029D01*
X003474Y010910D02*
X006249Y010910D01*
X006249Y010792D02*
X003474Y010792D01*
X003474Y010673D02*
X006249Y010673D01*
X006249Y010555D02*
X003474Y010555D01*
X003474Y010436D02*
X006249Y010436D01*
X006249Y010318D02*
X003474Y010318D01*
X003474Y010199D02*
X006249Y010199D01*
X006249Y010081D02*
X003474Y010081D01*
X003471Y009962D02*
X006251Y009962D01*
X007471Y009962D02*
X012916Y009962D01*
X012914Y010081D02*
X007474Y010081D01*
X007474Y010199D02*
X012914Y010199D01*
X012914Y010318D02*
X007474Y010318D01*
X007474Y010436D02*
X012914Y010436D01*
X012940Y010555D02*
X007474Y010555D01*
X012970Y008422D02*
X001392Y008422D01*
X001392Y008540D02*
X013057Y008540D01*
X012934Y008303D02*
X001392Y008303D01*
X001392Y008185D02*
X012935Y008185D01*
X012984Y008066D02*
X001392Y008066D01*
X001392Y007948D02*
X013091Y007948D01*
X009752Y006763D02*
X001392Y006763D01*
X001392Y006881D02*
X009619Y006881D01*
X009545Y007000D02*
X001392Y007000D01*
X001392Y007118D02*
X009502Y007118D01*
X008916Y005578D02*
X012958Y005578D01*
X012946Y005565D02*
X012925Y005529D01*
X012914Y005488D01*
X012914Y005238D01*
X013303Y005238D01*
X013303Y005627D01*
X013053Y005627D01*
X013012Y005616D01*
X012976Y005595D01*
X012946Y005565D01*
X012914Y005459D02*
X008960Y005459D01*
X008960Y005341D02*
X012914Y005341D01*
X012914Y005104D02*
X008960Y005104D01*
X008960Y004985D02*
X012914Y004985D01*
X012973Y004867D02*
X008901Y004867D01*
X008571Y004867D02*
X008553Y004867D01*
X008553Y004985D02*
X008571Y004985D01*
X008571Y005104D02*
X008553Y005104D01*
X008553Y005341D02*
X008571Y005341D01*
X008571Y005459D02*
X008553Y005459D01*
X008553Y005578D02*
X008571Y005578D01*
X008164Y004985D02*
X001392Y004985D01*
X001392Y004867D02*
X008223Y004867D01*
X008487Y003639D02*
X008348Y003581D01*
X008242Y003475D01*
X008184Y003336D01*
X008184Y003186D01*
X008242Y003047D01*
X008348Y002940D01*
X008487Y002883D01*
X008637Y002883D01*
X008776Y002940D01*
X008882Y003047D01*
X008940Y003186D01*
X008940Y003336D01*
X008882Y003475D01*
X008776Y003581D01*
X008637Y003639D01*
X008487Y003639D01*
X008330Y003563D02*
X004190Y003563D01*
X004190Y003445D02*
X008229Y003445D01*
X008184Y003326D02*
X004144Y003326D01*
X004043Y003208D02*
X008184Y003208D01*
X008224Y003089D02*
X001392Y003089D01*
X001392Y002971D02*
X008318Y002971D01*
X008806Y002971D02*
X013068Y002971D01*
X012974Y003089D02*
X008900Y003089D01*
X008940Y003208D02*
X012934Y003208D01*
X012934Y003326D02*
X008940Y003326D01*
X008895Y003445D02*
X012979Y003445D01*
X013080Y003563D02*
X008794Y003563D01*
X013303Y004867D02*
X013321Y004867D01*
X013321Y004985D02*
X013303Y004985D01*
X013303Y005104D02*
X013321Y005104D01*
X013303Y005341D02*
X013321Y005341D01*
X013321Y005459D02*
X013303Y005459D01*
X013303Y005578D02*
X013321Y005578D01*
X018511Y006644D02*
X001392Y006644D01*
X001392Y006526D02*
X018575Y006526D01*
X019202Y007355D02*
X019322Y007355D01*
X019322Y007474D02*
X019202Y007474D01*
X019202Y007592D02*
X019322Y007592D01*
X019322Y007711D02*
X019202Y007711D01*
X019202Y007829D02*
X019322Y007829D01*
X019322Y007948D02*
X019202Y007948D01*
X014841Y012925D02*
X014721Y012925D01*
X014721Y013043D02*
X014841Y013043D01*
X016653Y013399D02*
X016786Y013399D01*
X016786Y013517D02*
X016653Y013517D01*
X016653Y013636D02*
X016786Y013636D01*
X016786Y014995D02*
X016653Y014995D01*
X016653Y015130D01*
X014841Y015130D01*
X014841Y015250D01*
X016653Y015250D01*
X016653Y015526D01*
X016642Y015567D01*
X016621Y015603D01*
X016591Y015633D01*
X016555Y015654D01*
X016514Y015665D01*
X014841Y015665D01*
X014841Y015250D01*
X014721Y015250D01*
X014721Y015665D01*
X013047Y015665D01*
X013006Y015654D01*
X012970Y015633D01*
X012940Y015603D01*
X012919Y015567D01*
X012908Y015526D01*
X012908Y015250D01*
X014721Y015250D01*
X014721Y015130D01*
X012908Y015130D01*
X012908Y014995D01*
X012812Y014995D01*
X012812Y015995D01*
X014812Y017495D01*
X014812Y021245D01*
X015062Y021495D01*
X018062Y021495D01*
X018312Y021245D01*
X018312Y020495D01*
X018119Y020302D01*
X018122Y020311D01*
X018122Y020685D01*
X017608Y020685D01*
X017608Y020805D01*
X017488Y020805D01*
X017488Y020685D01*
X016975Y020685D01*
X016975Y020311D01*
X016986Y020270D01*
X017007Y020233D01*
X017009Y020231D01*
X016995Y020216D01*
X016995Y019274D01*
X017023Y019245D01*
X016995Y019216D01*
X016995Y018274D01*
X017077Y018192D01*
X017115Y018192D01*
X017312Y017995D01*
X017312Y015645D01*
X016868Y015645D01*
X016786Y015563D01*
X016786Y014995D01*
X016786Y015058D02*
X016653Y015058D01*
X016786Y015176D02*
X014841Y015176D01*
X014841Y015295D02*
X014721Y015295D01*
X014721Y015413D02*
X014841Y015413D01*
X014841Y015532D02*
X014721Y015532D01*
X014721Y015650D02*
X014841Y015650D01*
X014721Y015176D02*
X012812Y015176D01*
X012812Y015058D02*
X012908Y015058D01*
X012908Y015295D02*
X012812Y015295D01*
X012812Y015413D02*
X012908Y015413D01*
X012909Y015532D02*
X012812Y015532D01*
X012812Y015650D02*
X012999Y015650D01*
X012812Y015769D02*
X017312Y015769D01*
X017312Y015887D02*
X012812Y015887D01*
X012826Y016006D02*
X017312Y016006D01*
X017312Y016124D02*
X012984Y016124D01*
X013142Y016243D02*
X017312Y016243D01*
X017312Y016361D02*
X013300Y016361D01*
X013458Y016480D02*
X017312Y016480D01*
X017312Y016598D02*
X013616Y016598D01*
X013774Y016717D02*
X017312Y016717D01*
X017312Y016835D02*
X013932Y016835D01*
X014090Y016954D02*
X017312Y016954D01*
X017312Y017072D02*
X014248Y017072D01*
X014406Y017191D02*
X017312Y017191D01*
X017312Y017309D02*
X014564Y017309D01*
X014722Y017428D02*
X017312Y017428D01*
X017312Y017546D02*
X014812Y017546D01*
X014812Y017665D02*
X017312Y017665D01*
X017312Y017783D02*
X014812Y017783D01*
X014812Y017902D02*
X017312Y017902D01*
X017287Y018020D02*
X014812Y018020D01*
X014812Y018139D02*
X017168Y018139D01*
X017011Y018257D02*
X014812Y018257D01*
X014812Y018376D02*
X016995Y018376D01*
X016995Y018494D02*
X014812Y018494D01*
X014812Y018613D02*
X016995Y018613D01*
X016995Y018731D02*
X014812Y018731D01*
X014812Y018850D02*
X016995Y018850D01*
X016995Y018968D02*
X014812Y018968D01*
X014812Y019087D02*
X016995Y019087D01*
X016995Y019205D02*
X014812Y019205D01*
X014812Y019324D02*
X016995Y019324D01*
X016995Y019442D02*
X014812Y019442D01*
X014812Y019561D02*
X016995Y019561D01*
X016995Y019679D02*
X014812Y019679D01*
X014812Y019798D02*
X016995Y019798D01*
X016995Y019916D02*
X014812Y019916D01*
X014812Y020035D02*
X016995Y020035D01*
X016995Y020153D02*
X014812Y020153D01*
X014812Y020272D02*
X016985Y020272D01*
X016975Y020390D02*
X014812Y020390D01*
X014812Y020509D02*
X016975Y020509D01*
X016975Y020627D02*
X014812Y020627D01*
X014812Y020746D02*
X017488Y020746D01*
X017488Y020805D02*
X016975Y020805D01*
X016975Y021179D01*
X016986Y021220D01*
X017007Y021257D01*
X017037Y021286D01*
X017073Y021307D01*
X017114Y021318D01*
X017488Y021318D01*
X017488Y020805D01*
X017488Y020864D02*
X017608Y020864D01*
X017608Y020805D02*
X017608Y021318D01*
X017983Y021318D01*
X018023Y021307D01*
X018060Y021286D01*
X018090Y021257D01*
X018111Y021220D01*
X018122Y021179D01*
X018122Y020805D01*
X017608Y020805D01*
X017608Y020746D02*
X018312Y020746D01*
X018312Y020864D02*
X018122Y020864D01*
X018122Y020983D02*
X018312Y020983D01*
X018312Y021101D02*
X018122Y021101D01*
X018111Y021220D02*
X018312Y021220D01*
X018219Y021338D02*
X014905Y021338D01*
X014812Y021220D02*
X016986Y021220D01*
X016975Y021101D02*
X014812Y021101D01*
X014812Y020983D02*
X016975Y020983D01*
X016975Y020864D02*
X014812Y020864D01*
X015024Y021457D02*
X018100Y021457D01*
X018062Y021995D02*
X014562Y021995D01*
X014524Y021957D01*
X014520Y021972D01*
X014499Y022009D01*
X014469Y022038D01*
X014433Y022059D01*
X014392Y022070D01*
X011872Y022070D01*
X011872Y019805D01*
X011752Y019805D01*
X011752Y019685D01*
X009093Y019685D01*
X009093Y017559D01*
X009104Y017518D01*
X009125Y017481D01*
X009155Y017452D01*
X009191Y017431D01*
X009232Y017420D01*
X011752Y017420D01*
X011752Y019685D01*
X009093Y019685D01*
X009093Y017559D01*
X009104Y017518D01*
X009125Y017481D01*
X009155Y017452D01*
X009191Y017431D01*
X009232Y017420D01*
X011752Y017420D01*
X011752Y019685D01*
X011752Y019805D01*
X009093Y019805D01*
X009093Y021931D01*
X009104Y021972D01*
X009125Y022009D01*
X009155Y022038D01*
X009191Y022059D01*
X009232Y022070D01*
X011752Y022070D01*
X011752Y019805D01*
X009093Y019805D01*
X009093Y021931D01*
X009104Y021972D01*
X009125Y022009D01*
X009155Y022038D01*
X009191Y022059D01*
X009232Y022070D01*
X011752Y022070D01*
X011752Y019805D01*
X011872Y019805D01*
X011872Y022070D01*
X014312Y022070D01*
X014312Y023420D01*
X011872Y023420D01*
X014392Y023420D01*
X014433Y023431D01*
X014469Y023452D01*
X014499Y023481D01*
X014520Y023518D01*
X014531Y023559D01*
X014531Y025026D01*
X014562Y024995D01*
X016812Y024995D01*
X016995Y024812D01*
X016995Y024274D01*
X017077Y024192D01*
X017115Y024192D01*
X017312Y023995D01*
X018062Y023995D01*
X018312Y023745D01*
X018312Y022245D01*
X018062Y021995D01*
X018116Y022049D02*
X014451Y022049D01*
X014312Y022168D02*
X009062Y022168D01*
X009062Y022286D02*
X014312Y022286D01*
X014312Y022405D02*
X009062Y022405D01*
X009062Y022523D02*
X014312Y022523D01*
X014312Y022642D02*
X009062Y022642D01*
X009062Y022760D02*
X014312Y022760D01*
X014312Y022879D02*
X009062Y022879D01*
X009062Y022997D02*
X014312Y022997D01*
X014312Y023116D02*
X009062Y023116D01*
X009062Y023234D02*
X014312Y023234D01*
X014312Y023353D02*
X009062Y023353D01*
X009062Y023471D02*
X009135Y023471D01*
X008562Y023471D01*
X008562Y023353D02*
X018312Y023353D01*
X018312Y023471D02*
X014489Y023471D01*
X014531Y023590D02*
X018312Y023590D01*
X018312Y023708D02*
X014531Y023708D01*
X014531Y023827D02*
X018230Y023827D01*
X018112Y023945D02*
X014531Y023945D01*
X014531Y024064D02*
X017243Y024064D01*
X017125Y024182D02*
X014531Y024182D01*
X014531Y024301D02*
X016995Y024301D01*
X016995Y024419D02*
X014531Y024419D01*
X014531Y024538D02*
X016995Y024538D01*
X016995Y024656D02*
X014531Y024656D01*
X014531Y024775D02*
X016995Y024775D01*
X016914Y024893D02*
X014531Y024893D01*
X014531Y025012D02*
X014545Y025012D01*
X015062Y026245D02*
X014812Y026495D01*
X014812Y028495D01*
X014562Y028745D01*
X004562Y028745D01*
X004312Y028995D01*
X004312Y030251D01*
X004486Y030251D01*
X004562Y030327D01*
X004638Y030251D01*
X005384Y030251D01*
X005466Y030333D01*
X005466Y030995D01*
X005658Y030995D01*
X005658Y030333D01*
X005740Y030251D01*
X006486Y030251D01*
X006568Y030333D01*
X006568Y030485D01*
X006572Y030494D01*
X006572Y030598D01*
X006568Y030607D01*
X006568Y030995D01*
X008914Y030995D01*
X008914Y030770D01*
X009062Y030770D01*
X009062Y030752D01*
X008914Y030752D01*
X008914Y030502D01*
X008925Y030461D01*
X008946Y030425D01*
X008976Y030395D01*
X009012Y030374D01*
X009053Y030363D01*
X009062Y030363D01*
X009062Y028745D01*
X008562Y028745D01*
X008062Y028245D01*
X008062Y022495D01*
X007562Y021995D01*
X001812Y021995D01*
X001392Y022415D01*
X001392Y030575D01*
X001812Y030995D01*
X002536Y030995D01*
X002536Y030805D01*
X002951Y030805D01*
X002951Y030685D01*
X003071Y030685D01*
X003071Y030805D01*
X003486Y030805D01*
X003486Y030995D01*
X003658Y030995D01*
X003658Y030333D01*
X003740Y030251D01*
X004486Y030251D01*
X004562Y030327D01*
X004638Y030251D01*
X005384Y030251D01*
X005466Y030333D01*
X005466Y030995D01*
X005658Y030995D01*
X005658Y030333D01*
X005740Y030251D01*
X006486Y030251D01*
X006568Y030333D01*
X006568Y030485D01*
X006572Y030494D01*
X006572Y030598D01*
X006568Y030607D01*
X006568Y030995D01*
X008914Y030995D01*
X008914Y030770D01*
X009303Y030770D01*
X009303Y030752D01*
X008914Y030752D01*
X008914Y030502D01*
X008925Y030461D01*
X008946Y030425D01*
X008976Y030395D01*
X009012Y030374D01*
X009053Y030363D01*
X009303Y030363D01*
X009303Y030752D01*
X009321Y030752D01*
X009321Y030770D01*
X009710Y030770D01*
X009710Y030995D01*
X011878Y030995D01*
X011848Y030977D01*
X011818Y030948D01*
X011797Y030911D01*
X011786Y030870D01*
X011786Y030555D01*
X012201Y030555D01*
X012201Y030435D01*
X012321Y030435D01*
X012321Y030555D01*
X012736Y030555D01*
X012736Y030870D01*
X012725Y030911D01*
X012704Y030948D01*
X012674Y030977D01*
X012643Y030995D01*
X013552Y030995D01*
X013552Y030989D01*
X012990Y030989D01*
X012908Y030907D01*
X012908Y030083D01*
X012990Y030001D01*
X013736Y030001D01*
X013812Y030077D01*
X013888Y030001D01*
X014634Y030001D01*
X014716Y030083D01*
X014716Y030907D01*
X014634Y030989D01*
X014072Y030989D01*
X014072Y030995D01*
X015103Y030995D01*
X015103Y030989D01*
X014990Y030989D01*
X014908Y030907D01*
X014908Y030083D01*
X014990Y030001D01*
X015736Y030001D01*
X015818Y030083D01*
X015818Y030907D01*
X015736Y030989D01*
X015623Y030989D01*
X015623Y030995D01*
X016812Y030995D01*
X016872Y030935D01*
X016872Y030666D01*
X016983Y030555D01*
X017983Y029555D01*
X018252Y029555D01*
X018312Y029495D01*
X018312Y026495D01*
X018119Y026302D01*
X018122Y026311D01*
X018122Y026685D01*
X017608Y026685D01*
X017608Y026805D01*
X017488Y026805D01*
X017488Y026685D01*
X016975Y026685D01*
X016975Y026311D01*
X016986Y026270D01*
X017000Y026245D01*
X015062Y026245D01*
X014992Y026315D02*
X016975Y026315D01*
X016975Y026434D02*
X014873Y026434D01*
X014812Y026552D02*
X016975Y026552D01*
X016975Y026671D02*
X014812Y026671D01*
X014812Y026789D02*
X017488Y026789D01*
X017488Y026805D02*
X016975Y026805D01*
X016975Y027179D01*
X016986Y027220D01*
X017007Y027257D01*
X017037Y027286D01*
X017073Y027307D01*
X017114Y027318D01*
X017488Y027318D01*
X017488Y026805D01*
X017488Y026908D02*
X017608Y026908D01*
X017608Y026805D02*
X017608Y027318D01*
X017983Y027318D01*
X018023Y027307D01*
X018060Y027286D01*
X018090Y027257D01*
X018111Y027220D01*
X018122Y027179D01*
X018122Y026805D01*
X017608Y026805D01*
X017608Y026789D02*
X018312Y026789D01*
X018312Y026671D02*
X018122Y026671D01*
X018122Y026552D02*
X018312Y026552D01*
X018251Y026434D02*
X018122Y026434D01*
X018122Y026315D02*
X018132Y026315D01*
X018122Y026908D02*
X018312Y026908D01*
X018312Y027026D02*
X018122Y027026D01*
X018122Y027145D02*
X018312Y027145D01*
X018312Y027263D02*
X018083Y027263D01*
X018312Y027382D02*
X014812Y027382D01*
X014812Y027500D02*
X018312Y027500D01*
X018312Y027619D02*
X014812Y027619D01*
X014812Y027737D02*
X018312Y027737D01*
X018312Y027856D02*
X014812Y027856D01*
X014812Y027974D02*
X018312Y027974D01*
X018312Y028093D02*
X014812Y028093D01*
X014812Y028211D02*
X018312Y028211D01*
X018312Y028330D02*
X014812Y028330D01*
X014812Y028448D02*
X018312Y028448D01*
X018312Y028567D02*
X014740Y028567D01*
X014622Y028685D02*
X018312Y028685D01*
X018312Y028804D02*
X004503Y028804D01*
X004385Y028922D02*
X018312Y028922D01*
X018312Y029041D02*
X004312Y029041D01*
X004312Y029159D02*
X018312Y029159D01*
X018312Y029278D02*
X004312Y029278D01*
X004312Y029396D02*
X018312Y029396D01*
X018292Y029515D02*
X004312Y029515D01*
X004312Y029633D02*
X017905Y029633D01*
X017787Y029752D02*
X004312Y029752D01*
X004312Y029870D02*
X017668Y029870D01*
X017550Y029989D02*
X012626Y029989D01*
X012638Y029992D02*
X012674Y030013D01*
X012704Y030042D01*
X012725Y030079D01*
X012736Y030120D01*
X012736Y030435D01*
X012321Y030435D01*
X012321Y029981D01*
X012597Y029981D01*
X012638Y029992D01*
X012732Y030107D02*
X012908Y030107D01*
X012908Y030226D02*
X012736Y030226D01*
X012736Y030344D02*
X012908Y030344D01*
X012908Y030463D02*
X012321Y030463D01*
X012321Y030344D02*
X012201Y030344D01*
X012201Y030435D02*
X012201Y029981D01*
X011925Y029981D01*
X011884Y029992D01*
X011848Y030013D01*
X011818Y030042D01*
X011797Y030079D01*
X011786Y030120D01*
X011786Y030435D01*
X012201Y030435D01*
X012201Y030463D02*
X009699Y030463D01*
X009699Y030461D02*
X009710Y030502D01*
X009710Y030752D01*
X009321Y030752D01*
X009321Y030363D01*
X009571Y030363D01*
X009612Y030374D01*
X009648Y030395D01*
X009678Y030425D01*
X009699Y030461D01*
X009710Y030581D02*
X011786Y030581D01*
X011786Y030700D02*
X009710Y030700D01*
X009710Y030818D02*
X011786Y030818D01*
X011811Y030937D02*
X009710Y030937D01*
X009321Y030700D02*
X009303Y030700D01*
X009303Y030581D02*
X009321Y030581D01*
X009321Y030463D02*
X009303Y030463D01*
X009062Y030344D02*
X006568Y030344D01*
X011786Y030344D01*
X011786Y030226D02*
X004312Y030226D01*
X004312Y030107D02*
X011789Y030107D01*
X011895Y029989D02*
X004312Y029989D01*
X003658Y030344D02*
X003479Y030344D01*
X003475Y030329D02*
X003486Y030370D01*
X003486Y030685D01*
X003071Y030685D01*
X003071Y030231D01*
X003347Y030231D01*
X003388Y030242D01*
X003424Y030263D01*
X003454Y030292D01*
X003475Y030329D01*
X003486Y030463D02*
X003658Y030463D01*
X003658Y030581D02*
X003486Y030581D01*
X003658Y030700D02*
X003071Y030700D01*
X003071Y030581D02*
X002951Y030581D01*
X002951Y030685D02*
X002951Y030231D01*
X002675Y030231D01*
X002634Y030242D01*
X002598Y030263D01*
X002568Y030292D01*
X002547Y030329D01*
X002536Y030370D01*
X002536Y030685D01*
X002951Y030685D01*
X002951Y030700D02*
X001517Y030700D01*
X001635Y030818D02*
X002536Y030818D01*
X002536Y030937D02*
X001754Y030937D01*
X001398Y030581D02*
X002536Y030581D01*
X002536Y030463D02*
X001392Y030463D01*
X001392Y030344D02*
X002543Y030344D01*
X002951Y030344D02*
X003071Y030344D01*
X003071Y030463D02*
X002951Y030463D01*
X003486Y030818D02*
X003658Y030818D01*
X003658Y030937D02*
X003486Y030937D01*
X005466Y030937D02*
X005658Y030937D01*
X005466Y030937D01*
X005466Y030818D02*
X005658Y030818D01*
X005466Y030818D01*
X005466Y030700D02*
X005658Y030700D01*
X005466Y030700D01*
X005466Y030581D02*
X005658Y030581D01*
X005466Y030581D01*
X005466Y030463D02*
X005658Y030463D01*
X005466Y030463D01*
X005466Y030344D02*
X005658Y030344D01*
X005466Y030344D01*
X006568Y030463D02*
X008925Y030463D01*
X006568Y030463D01*
X006572Y030581D02*
X008914Y030581D01*
X006572Y030581D01*
X006568Y030700D02*
X008914Y030700D01*
X006568Y030700D01*
X006568Y030818D02*
X008914Y030818D01*
X006568Y030818D01*
X006568Y030937D02*
X008914Y030937D01*
X006568Y030937D01*
X009062Y030226D02*
X001392Y030226D01*
X001392Y030107D02*
X009062Y030107D01*
X009062Y029989D02*
X001392Y029989D01*
X001392Y029870D02*
X009062Y029870D01*
X009062Y029752D02*
X001392Y029752D01*
X001392Y029633D02*
X009062Y029633D01*
X009062Y029515D02*
X001392Y029515D01*
X001392Y029396D02*
X009062Y029396D01*
X009062Y029278D02*
X001392Y029278D01*
X001392Y029159D02*
X009062Y029159D01*
X009062Y029041D02*
X001392Y029041D01*
X001392Y028922D02*
X009062Y028922D01*
X009062Y028804D02*
X001392Y028804D01*
X001392Y028685D02*
X008502Y028685D01*
X008384Y028567D02*
X001392Y028567D01*
X001392Y028448D02*
X008265Y028448D01*
X008147Y028330D02*
X001392Y028330D01*
X001392Y028211D02*
X008062Y028211D01*
X008062Y028093D02*
X001392Y028093D01*
X001392Y027974D02*
X008062Y027974D01*
X008062Y027856D02*
X001392Y027856D01*
X001392Y027737D02*
X008062Y027737D01*
X008062Y027619D02*
X001392Y027619D01*
X001392Y027500D02*
X008062Y027500D01*
X008062Y027382D02*
X001392Y027382D01*
X001392Y027263D02*
X002235Y027263D01*
X002240Y027279D02*
X002229Y027239D01*
X002229Y026805D01*
X002801Y026805D01*
X002801Y026685D01*
X002229Y026685D01*
X002229Y026251D01*
X002240Y026211D01*
X002261Y026174D01*
X002291Y026145D01*
X002327Y026123D01*
X002368Y026113D01*
X002801Y026113D01*
X002801Y026685D01*
X002921Y026685D01*
X002921Y026113D01*
X003355Y026113D01*
X003395Y026123D01*
X003432Y026145D01*
X003462Y026174D01*
X003483Y026211D01*
X003494Y026251D01*
X003494Y026685D01*
X002921Y026685D01*
X002921Y026805D01*
X002801Y026805D01*
X002801Y027377D01*
X002368Y027377D01*
X002327Y027367D01*
X002291Y027345D01*
X002261Y027316D01*
X002240Y027279D01*
X002229Y027145D02*
X001392Y027145D01*
X001392Y027026D02*
X002229Y027026D01*
X002229Y026908D02*
X001392Y026908D01*
X001392Y026789D02*
X002801Y026789D01*
X002801Y026671D02*
X002921Y026671D01*
X002921Y026789D02*
X006801Y026789D01*
X006801Y026805D02*
X006801Y026685D01*
X006229Y026685D01*
X006229Y026251D01*
X006240Y026211D01*
X006261Y026174D01*
X006291Y026145D01*
X006327Y026123D01*
X006368Y026113D01*
X006801Y026113D01*
X006801Y026685D01*
X006921Y026685D01*
X006921Y026113D01*
X007355Y026113D01*
X007395Y026123D01*
X007432Y026145D01*
X007462Y026174D01*
X007483Y026211D01*
X007494Y026251D01*
X007494Y026685D01*
X006921Y026685D01*
X006921Y026805D01*
X006801Y026805D01*
X006229Y026805D01*
X006229Y027239D01*
X006240Y027279D01*
X006261Y027316D01*
X006291Y027345D01*
X006327Y027367D01*
X006368Y027377D01*
X006801Y027377D01*
X006801Y026805D01*
X006801Y026908D02*
X006921Y026908D01*
X006921Y026805D02*
X006921Y027377D01*
X007355Y027377D01*
X007395Y027367D01*
X007432Y027345D01*
X007462Y027316D01*
X007483Y027279D01*
X007494Y027239D01*
X007494Y026805D01*
X006921Y026805D01*
X006921Y026789D02*
X008062Y026789D01*
X008062Y026671D02*
X007494Y026671D01*
X007494Y026552D02*
X008062Y026552D01*
X008062Y026434D02*
X007494Y026434D01*
X007494Y026315D02*
X008062Y026315D01*
X008062Y026197D02*
X007475Y026197D01*
X006921Y026197D02*
X006801Y026197D01*
X006801Y026315D02*
X006921Y026315D01*
X006921Y026434D02*
X006801Y026434D01*
X006801Y026552D02*
X006921Y026552D01*
X006921Y026671D02*
X006801Y026671D01*
X006801Y027026D02*
X006921Y027026D01*
X006921Y027145D02*
X006801Y027145D01*
X006801Y027263D02*
X006921Y027263D01*
X007487Y027263D02*
X008062Y027263D01*
X008062Y027145D02*
X007494Y027145D01*
X007494Y027026D02*
X008062Y027026D01*
X008062Y026908D02*
X007494Y026908D01*
X008062Y026078D02*
X001392Y026078D01*
X001392Y025960D02*
X008062Y025960D01*
X008062Y025841D02*
X001392Y025841D01*
X001392Y025723D02*
X008062Y025723D01*
X008062Y025604D02*
X001392Y025604D01*
X001392Y025486D02*
X008062Y025486D01*
X008062Y025367D02*
X001392Y025367D01*
X001392Y025249D02*
X008062Y025249D01*
X008062Y025130D02*
X001392Y025130D01*
X001392Y025012D02*
X008062Y025012D01*
X008062Y024893D02*
X001392Y024893D01*
X001392Y024775D02*
X008062Y024775D01*
X008062Y024656D02*
X001392Y024656D01*
X001392Y024538D02*
X008062Y024538D01*
X008062Y024419D02*
X001392Y024419D01*
X001392Y024301D02*
X008062Y024301D01*
X008062Y024182D02*
X001392Y024182D01*
X001392Y024064D02*
X008062Y024064D01*
X008062Y023945D02*
X001392Y023945D01*
X001392Y023827D02*
X008062Y023827D01*
X008062Y023708D02*
X001392Y023708D01*
X001392Y023590D02*
X008062Y023590D01*
X008062Y023471D02*
X001392Y023471D01*
X001392Y023353D02*
X002326Y023353D01*
X002331Y023357D02*
X002249Y023275D01*
X002249Y022215D01*
X002331Y022133D01*
X003392Y022133D01*
X003474Y022215D01*
X003474Y023275D01*
X003392Y023357D01*
X002331Y023357D01*
X002249Y023234D02*
X001392Y023234D01*
X001392Y023116D02*
X002249Y023116D01*
X002249Y022997D02*
X001392Y022997D01*
X001392Y022879D02*
X002249Y022879D01*
X002249Y022760D02*
X001392Y022760D01*
X001392Y022642D02*
X002249Y022642D01*
X002249Y022523D02*
X001392Y022523D01*
X001402Y022405D02*
X002249Y022405D01*
X002249Y022286D02*
X001521Y022286D01*
X001639Y022168D02*
X002296Y022168D01*
X001758Y022049D02*
X007616Y022049D01*
X007735Y022168D02*
X007427Y022168D01*
X007392Y022133D02*
X007474Y022215D01*
X007474Y023275D01*
X007392Y023357D01*
X006331Y023357D01*
X006249Y023275D01*
X006249Y022215D01*
X006331Y022133D01*
X007392Y022133D01*
X007474Y022286D02*
X007853Y022286D01*
X007972Y022405D02*
X007474Y022405D01*
X007474Y022523D02*
X008062Y022523D01*
X008062Y022642D02*
X007474Y022642D01*
X007474Y022760D02*
X008062Y022760D01*
X008062Y022879D02*
X007474Y022879D01*
X007474Y022997D02*
X008062Y022997D01*
X008062Y023116D02*
X007474Y023116D01*
X007474Y023234D02*
X008062Y023234D01*
X008062Y023353D02*
X007397Y023353D01*
X006326Y023353D02*
X003397Y023353D01*
X003474Y023234D02*
X006249Y023234D01*
X006249Y023116D02*
X003474Y023116D01*
X003474Y022997D02*
X006249Y022997D01*
X006249Y022879D02*
X003474Y022879D01*
X003474Y022760D02*
X006249Y022760D01*
X006249Y022642D02*
X003474Y022642D01*
X003474Y022523D02*
X006249Y022523D01*
X006249Y022405D02*
X003474Y022405D01*
X003474Y022286D02*
X006249Y022286D01*
X006296Y022168D02*
X003427Y022168D01*
X008062Y021495D02*
X008562Y021995D01*
X008562Y027745D01*
X009062Y028245D01*
X014062Y028245D01*
X014237Y028070D01*
X011872Y028070D01*
X011872Y025805D01*
X011752Y025805D01*
X011752Y025685D01*
X009093Y025685D01*
X009093Y023559D01*
X009104Y023518D01*
X009125Y023481D01*
X009155Y023452D01*
X009191Y023431D01*
X009232Y023420D01*
X011752Y023420D01*
X011752Y025685D01*
X009093Y025685D01*
X009093Y023559D01*
X009104Y023518D01*
X009125Y023481D01*
X009155Y023452D01*
X009191Y023431D01*
X009232Y023420D01*
X011752Y023420D01*
X011752Y025685D01*
X011752Y025805D01*
X009093Y025805D01*
X009093Y027931D01*
X009104Y027972D01*
X009125Y028009D01*
X009155Y028038D01*
X009191Y028059D01*
X009232Y028070D01*
X011752Y028070D01*
X011752Y025805D01*
X009093Y025805D01*
X009093Y027931D01*
X009104Y027972D01*
X009125Y028009D01*
X009155Y028038D01*
X009191Y028059D01*
X009232Y028070D01*
X011752Y028070D01*
X011752Y025805D01*
X011872Y025805D01*
X011872Y028070D01*
X014237Y028070D01*
X014062Y028245D01*
X009312Y028245D01*
X009062Y027995D01*
X009062Y017495D01*
X009312Y017245D01*
X014062Y017245D01*
X008562Y017245D01*
X008062Y017745D01*
X008062Y021495D01*
X008062Y021457D02*
X009093Y021457D01*
X009062Y021457D01*
X009062Y021575D02*
X009093Y021575D01*
X008142Y021575D01*
X008261Y021694D02*
X009093Y021694D01*
X009062Y021694D01*
X009062Y021812D02*
X009093Y021812D01*
X008379Y021812D01*
X008498Y021931D02*
X009093Y021931D01*
X009062Y021931D01*
X009062Y022049D02*
X009173Y022049D01*
X008562Y022049D01*
X008562Y022168D02*
X018235Y022168D01*
X018312Y022286D02*
X008562Y022286D01*
X008562Y022405D02*
X018312Y022405D01*
X018312Y022523D02*
X008562Y022523D01*
X008562Y022642D02*
X018312Y022642D01*
X018312Y022760D02*
X008562Y022760D01*
X008562Y022879D02*
X018312Y022879D01*
X018312Y022997D02*
X008562Y022997D01*
X008562Y023116D02*
X018312Y023116D01*
X018312Y023234D02*
X008562Y023234D01*
X008562Y023590D02*
X009093Y023590D01*
X009062Y023590D01*
X009062Y023708D02*
X009093Y023708D01*
X008562Y023708D01*
X008562Y023827D02*
X009093Y023827D01*
X009062Y023827D01*
X009062Y023945D02*
X009093Y023945D01*
X008562Y023945D01*
X008562Y024064D02*
X009093Y024064D01*
X009062Y024064D01*
X009062Y024182D02*
X009093Y024182D01*
X008562Y024182D01*
X008562Y024301D02*
X009093Y024301D01*
X009062Y024301D01*
X009062Y024419D02*
X009093Y024419D01*
X008562Y024419D01*
X008562Y024538D02*
X009093Y024538D01*
X009062Y024538D01*
X009062Y024656D02*
X009093Y024656D01*
X008562Y024656D01*
X008562Y024775D02*
X009093Y024775D01*
X009062Y024775D01*
X009062Y024893D02*
X009093Y024893D01*
X008562Y024893D01*
X008562Y025012D02*
X009093Y025012D01*
X009062Y025012D01*
X009062Y025130D02*
X009093Y025130D01*
X008562Y025130D01*
X008562Y025249D02*
X009093Y025249D01*
X009062Y025249D01*
X009062Y025367D02*
X009093Y025367D01*
X008562Y025367D01*
X008562Y025486D02*
X009093Y025486D01*
X009062Y025486D01*
X009062Y025604D02*
X009093Y025604D01*
X008562Y025604D01*
X008562Y025723D02*
X011752Y025723D01*
X009062Y025723D01*
X009062Y025841D02*
X009093Y025841D01*
X008562Y025841D01*
X008562Y025960D02*
X009093Y025960D01*
X009062Y025960D01*
X009062Y026078D02*
X009093Y026078D01*
X008562Y026078D01*
X008562Y026197D02*
X009093Y026197D01*
X009062Y026197D01*
X009062Y026315D02*
X009093Y026315D01*
X008562Y026315D01*
X008562Y026434D02*
X009093Y026434D01*
X009062Y026434D01*
X009062Y026552D02*
X009093Y026552D01*
X008562Y026552D01*
X008562Y026671D02*
X009093Y026671D01*
X009062Y026671D01*
X009062Y026789D02*
X009093Y026789D01*
X008562Y026789D01*
X008562Y026908D02*
X009093Y026908D01*
X009062Y026908D01*
X009062Y027026D02*
X009093Y027026D01*
X008562Y027026D01*
X008562Y027145D02*
X009093Y027145D01*
X009062Y027145D01*
X009062Y027263D02*
X009093Y027263D01*
X008562Y027263D01*
X008562Y027382D02*
X009093Y027382D01*
X009062Y027382D01*
X009062Y027500D02*
X009093Y027500D01*
X008562Y027500D01*
X008562Y027619D02*
X009093Y027619D01*
X009062Y027619D01*
X009062Y027737D02*
X009093Y027737D01*
X008562Y027737D01*
X008673Y027856D02*
X009093Y027856D01*
X009062Y027856D01*
X009062Y027974D02*
X009105Y027974D01*
X008791Y027974D01*
X008910Y028093D02*
X014214Y028093D01*
X009160Y028093D01*
X009278Y028211D02*
X014096Y028211D01*
X009028Y028211D01*
X011752Y027974D02*
X011872Y027974D01*
X011752Y027974D01*
X011752Y027856D02*
X011872Y027856D01*
X011752Y027856D01*
X011752Y027737D02*
X011872Y027737D01*
X011752Y027737D01*
X011752Y027619D02*
X011872Y027619D01*
X011752Y027619D01*
X011752Y027500D02*
X011872Y027500D01*
X011752Y027500D01*
X011752Y027382D02*
X011872Y027382D01*
X011752Y027382D01*
X011752Y027263D02*
X011872Y027263D01*
X011752Y027263D01*
X011752Y027145D02*
X011872Y027145D01*
X011752Y027145D01*
X011752Y027026D02*
X011872Y027026D01*
X011752Y027026D01*
X011752Y026908D02*
X011872Y026908D01*
X011752Y026908D01*
X011752Y026789D02*
X011872Y026789D01*
X011752Y026789D01*
X011752Y026671D02*
X011872Y026671D01*
X011752Y026671D01*
X011752Y026552D02*
X011872Y026552D01*
X011752Y026552D01*
X011752Y026434D02*
X011872Y026434D01*
X011752Y026434D01*
X011752Y026315D02*
X011872Y026315D01*
X011752Y026315D01*
X011752Y026197D02*
X011872Y026197D01*
X011752Y026197D01*
X011752Y026078D02*
X011872Y026078D01*
X011752Y026078D01*
X011752Y025960D02*
X011872Y025960D01*
X011752Y025960D01*
X011752Y025841D02*
X011872Y025841D01*
X011752Y025841D01*
X011752Y025685D02*
X011872Y025685D01*
X011872Y023420D01*
X011872Y025685D01*
X011752Y025685D01*
X011752Y025604D02*
X011872Y025604D01*
X011752Y025604D01*
X011752Y025486D02*
X011872Y025486D01*
X011752Y025486D01*
X011752Y025367D02*
X011872Y025367D01*
X011752Y025367D01*
X011752Y025249D02*
X011872Y025249D01*
X011752Y025249D01*
X011752Y025130D02*
X011872Y025130D01*
X011752Y025130D01*
X011752Y025012D02*
X011872Y025012D01*
X011752Y025012D01*
X011752Y024893D02*
X011872Y024893D01*
X011752Y024893D01*
X011752Y024775D02*
X011872Y024775D01*
X011752Y024775D01*
X011752Y024656D02*
X011872Y024656D01*
X011752Y024656D01*
X011752Y024538D02*
X011872Y024538D01*
X011752Y024538D01*
X011752Y024419D02*
X011872Y024419D01*
X011752Y024419D01*
X011752Y024301D02*
X011872Y024301D01*
X011752Y024301D01*
X011752Y024182D02*
X011872Y024182D01*
X011752Y024182D01*
X011752Y024064D02*
X011872Y024064D01*
X011752Y024064D01*
X011752Y023945D02*
X011872Y023945D01*
X011752Y023945D01*
X011752Y023827D02*
X011872Y023827D01*
X011752Y023827D01*
X011752Y023708D02*
X011872Y023708D01*
X011752Y023708D01*
X011752Y023590D02*
X011872Y023590D01*
X011752Y023590D01*
X011752Y023471D02*
X011872Y023471D01*
X011752Y023471D01*
X011752Y022049D02*
X011872Y022049D01*
X011752Y022049D01*
X011752Y021931D02*
X011872Y021931D01*
X011752Y021931D01*
X011752Y021812D02*
X011872Y021812D01*
X011752Y021812D01*
X011752Y021694D02*
X011872Y021694D01*
X011752Y021694D01*
X011752Y021575D02*
X011872Y021575D01*
X011752Y021575D01*
X011752Y021457D02*
X011872Y021457D01*
X011752Y021457D01*
X011752Y021338D02*
X011872Y021338D01*
X011752Y021338D01*
X011752Y021220D02*
X011872Y021220D01*
X011752Y021220D01*
X011752Y021101D02*
X011872Y021101D01*
X011752Y021101D01*
X011752Y020983D02*
X011872Y020983D01*
X011752Y020983D01*
X011752Y020864D02*
X011872Y020864D01*
X011752Y020864D01*
X011752Y020746D02*
X011872Y020746D01*
X011752Y020746D01*
X011752Y020627D02*
X011872Y020627D01*
X011752Y020627D01*
X011752Y020509D02*
X011872Y020509D01*
X011752Y020509D01*
X011752Y020390D02*
X011872Y020390D01*
X011752Y020390D01*
X011752Y020272D02*
X011872Y020272D01*
X011752Y020272D01*
X011752Y020153D02*
X011872Y020153D01*
X011752Y020153D01*
X011752Y020035D02*
X011872Y020035D01*
X011752Y020035D01*
X011752Y019916D02*
X011872Y019916D01*
X011752Y019916D01*
X011752Y019798D02*
X008062Y019798D01*
X008062Y019916D02*
X009093Y019916D01*
X009062Y019916D01*
X009062Y019798D02*
X011752Y019798D01*
X011752Y019685D02*
X011872Y019685D01*
X011872Y017420D01*
X014237Y017420D01*
X014062Y017245D01*
X014237Y017420D01*
X011872Y017420D01*
X011872Y019685D01*
X011752Y019685D01*
X011752Y019679D02*
X011872Y019679D01*
X011752Y019679D01*
X011752Y019561D02*
X011872Y019561D01*
X011752Y019561D01*
X011752Y019442D02*
X011872Y019442D01*
X011752Y019442D01*
X011752Y019324D02*
X011872Y019324D01*
X011752Y019324D01*
X011752Y019205D02*
X011872Y019205D01*
X011752Y019205D01*
X011752Y019087D02*
X011872Y019087D01*
X011752Y019087D01*
X011752Y018968D02*
X011872Y018968D01*
X011752Y018968D01*
X011752Y018850D02*
X011872Y018850D01*
X011752Y018850D01*
X011752Y018731D02*
X011872Y018731D01*
X011752Y018731D01*
X011752Y018613D02*
X011872Y018613D01*
X011752Y018613D01*
X011752Y018494D02*
X011872Y018494D01*
X011752Y018494D01*
X011752Y018376D02*
X011872Y018376D01*
X011752Y018376D01*
X011752Y018257D02*
X011872Y018257D01*
X011752Y018257D01*
X011752Y018139D02*
X011872Y018139D01*
X011752Y018139D01*
X011752Y018020D02*
X011872Y018020D01*
X011752Y018020D01*
X011752Y017902D02*
X011872Y017902D01*
X011752Y017902D01*
X011752Y017783D02*
X011872Y017783D01*
X011752Y017783D01*
X011752Y017665D02*
X011872Y017665D01*
X011752Y017665D01*
X011752Y017546D02*
X011872Y017546D01*
X011752Y017546D01*
X011752Y017428D02*
X011872Y017428D01*
X011752Y017428D01*
X014126Y017309D02*
X009248Y017309D01*
X009202Y017428D02*
X008379Y017428D01*
X008261Y017546D02*
X009096Y017546D01*
X009062Y017546D01*
X009062Y017665D02*
X009093Y017665D01*
X008142Y017665D01*
X008062Y017783D02*
X009093Y017783D01*
X009062Y017783D01*
X009062Y017902D02*
X009093Y017902D01*
X008062Y017902D01*
X008062Y018020D02*
X009093Y018020D01*
X009062Y018020D01*
X009062Y018139D02*
X009093Y018139D01*
X008062Y018139D01*
X008062Y018257D02*
X009093Y018257D01*
X009062Y018257D01*
X009062Y018376D02*
X009093Y018376D01*
X008062Y018376D01*
X008062Y018494D02*
X009093Y018494D01*
X009062Y018494D01*
X009062Y018613D02*
X009093Y018613D01*
X008062Y018613D01*
X008062Y018731D02*
X009093Y018731D01*
X009062Y018731D01*
X009062Y018850D02*
X009093Y018850D01*
X008062Y018850D01*
X008062Y018968D02*
X009093Y018968D01*
X009062Y018968D01*
X009062Y019087D02*
X009093Y019087D01*
X008062Y019087D01*
X008062Y019205D02*
X009093Y019205D01*
X009062Y019205D01*
X009062Y019324D02*
X009093Y019324D01*
X008062Y019324D01*
X008062Y019442D02*
X009093Y019442D01*
X009062Y019442D01*
X009062Y019561D02*
X009093Y019561D01*
X008062Y019561D01*
X008062Y019679D02*
X009093Y019679D01*
X009062Y019679D01*
X009062Y020035D02*
X009093Y020035D01*
X008062Y020035D01*
X008062Y020153D02*
X009093Y020153D01*
X009062Y020153D01*
X009062Y020272D02*
X009093Y020272D01*
X008062Y020272D01*
X008062Y020390D02*
X009093Y020390D01*
X009062Y020390D01*
X009062Y020509D02*
X009093Y020509D01*
X008062Y020509D01*
X008062Y020627D02*
X009093Y020627D01*
X009062Y020627D01*
X009062Y020746D02*
X009093Y020746D01*
X008062Y020746D01*
X008062Y020864D02*
X009093Y020864D01*
X009062Y020864D01*
X009062Y020983D02*
X009093Y020983D01*
X008062Y020983D01*
X008062Y021101D02*
X009093Y021101D01*
X009062Y021101D01*
X009062Y021220D02*
X009093Y021220D01*
X008062Y021220D01*
X008062Y021338D02*
X009093Y021338D01*
X009062Y021338D01*
X009129Y017428D02*
X009202Y017428D01*
X008498Y017309D02*
X014126Y017309D01*
X016562Y015650D02*
X017312Y015650D01*
X016786Y015532D02*
X016652Y015532D01*
X016653Y015413D02*
X016786Y015413D01*
X016786Y015295D02*
X016653Y015295D01*
X019562Y015269D02*
X019562Y016995D01*
X019812Y017245D01*
X020562Y017245D01*
X022336Y019745D02*
X023312Y019745D01*
X023562Y019995D01*
X024062Y019995D01*
X029312Y021245D02*
X029562Y021245D01*
X030062Y020745D01*
X030062Y019745D01*
X035312Y021745D02*
X035312Y016495D01*
X038312Y013495D01*
X041538Y013495D01*
X041538Y013995D02*
X040812Y013995D01*
X040562Y014245D01*
X040562Y014944D01*
X040562Y016046D02*
X041810Y016046D01*
X042064Y015792D01*
X043562Y017995D02*
X038312Y017995D01*
X038062Y018245D01*
X037562Y018245D01*
X037062Y017745D02*
X036812Y017995D01*
X036812Y022495D01*
X036312Y022995D01*
X036312Y024745D01*
X036812Y025245D02*
X036562Y025495D01*
X031562Y025495D01*
X030312Y024245D01*
X027312Y024245D01*
X023312Y028245D01*
X023312Y029495D01*
X022562Y030245D01*
X018562Y030245D01*
X017562Y031245D01*
X017562Y036745D01*
X017312Y036995D01*
X012562Y036995D01*
X012312Y037245D01*
X012312Y038245D01*
X017062Y036495D02*
X017312Y036245D01*
X017312Y030995D01*
X018312Y029995D01*
X022312Y029995D01*
X023062Y029245D01*
X023062Y027995D01*
X027062Y023995D01*
X030562Y023995D01*
X031312Y024745D01*
X034312Y024745D01*
X035312Y024745D02*
X035312Y022995D01*
X035812Y022495D01*
X035812Y017495D01*
X036062Y017245D01*
X049562Y017245D01*
X053062Y020745D01*
X053062Y038495D01*
X052062Y039495D01*
X029312Y039495D01*
X028812Y038995D01*
X028812Y038245D01*
X034062Y036995D02*
X034312Y037245D01*
X034812Y037745D01*
X034812Y038745D01*
X035062Y038995D01*
X051562Y038995D01*
X052562Y037995D01*
X052562Y021245D01*
X051812Y020495D01*
X047562Y020495D01*
X047062Y020995D01*
X045312Y020995D01*
X045312Y021745D01*
X046312Y021745D02*
X046938Y022371D01*
X049312Y022371D01*
X049363Y022245D01*
X051062Y022245D01*
X051312Y021745D02*
X052062Y022495D01*
X052062Y032745D01*
X050562Y034245D01*
X037562Y034245D01*
X037812Y033995D02*
X050312Y033995D01*
X051562Y032745D01*
X051562Y024495D01*
X050812Y023745D01*
X043312Y023745D01*
X042312Y024745D01*
X043312Y024745D02*
X044062Y023995D01*
X050562Y023995D01*
X051312Y024745D01*
X051312Y031245D01*
X051062Y031495D01*
X050812Y030995D02*
X050312Y030995D01*
X050062Y031245D01*
X050062Y031495D01*
X050812Y030995D02*
X051062Y030745D01*
X051062Y024995D01*
X050312Y024245D01*
X044562Y024245D01*
X044312Y024495D01*
X044312Y024745D01*
X042812Y023245D02*
X049261Y023245D01*
X049312Y023119D01*
X047312Y021745D02*
X051312Y021745D01*
X051726Y021159D02*
X052312Y021745D01*
X052312Y037745D01*
X051312Y038745D01*
X039812Y038745D01*
X039562Y038495D01*
X039562Y038245D01*
X042562Y036245D02*
X043062Y036745D01*
X049312Y036745D01*
X050062Y035995D01*
X050062Y035495D01*
X046562Y033245D02*
X046312Y033495D01*
X044062Y033495D01*
X043562Y032995D01*
X043562Y031245D01*
X044062Y030745D01*
X044261Y030745D01*
X045062Y031046D02*
X045363Y030745D01*
X045062Y031046D02*
X045062Y031912D01*
X046261Y030745D02*
X047062Y031546D01*
X047062Y031912D01*
X047562Y030944D02*
X047363Y030745D01*
X047562Y030944D02*
X047562Y032912D01*
X046562Y032912D02*
X046562Y033245D01*
X051812Y039245D02*
X052812Y038245D01*
X052812Y020995D01*
X049312Y017495D01*
X036562Y017495D01*
X036312Y017745D01*
X036312Y021745D01*
X037312Y021745D02*
X037312Y022495D01*
X036812Y022995D01*
X036812Y025245D01*
X037062Y025745D02*
X031312Y025745D01*
X030062Y024495D01*
X027562Y024495D01*
X023562Y028495D01*
X023562Y029745D01*
X022812Y030495D01*
X018812Y030495D01*
X017812Y031495D01*
X017812Y038245D01*
X017062Y036495D02*
X007062Y036495D01*
X006812Y036745D01*
X006812Y038245D01*
X018312Y031995D02*
X018562Y031995D01*
X018687Y031870D01*
X016870Y030937D02*
X015789Y030937D01*
X015818Y030818D02*
X016872Y030818D01*
X016872Y030700D02*
X015818Y030700D01*
X015818Y030581D02*
X016957Y030581D01*
X017076Y030463D02*
X015818Y030463D01*
X015818Y030344D02*
X017194Y030344D01*
X017313Y030226D02*
X015818Y030226D01*
X015818Y030107D02*
X017431Y030107D01*
X014908Y030107D02*
X014716Y030107D01*
X014716Y030226D02*
X014908Y030226D01*
X014908Y030344D02*
X014716Y030344D01*
X014716Y030463D02*
X014908Y030463D01*
X014908Y030581D02*
X014716Y030581D01*
X014716Y030700D02*
X014908Y030700D01*
X014908Y030818D02*
X014716Y030818D01*
X014687Y030937D02*
X014937Y030937D01*
X012937Y030937D02*
X012710Y030937D01*
X012736Y030818D02*
X012908Y030818D01*
X012908Y030700D02*
X012736Y030700D01*
X012736Y030581D02*
X012908Y030581D01*
X012321Y030226D02*
X012201Y030226D01*
X012201Y030107D02*
X012321Y030107D01*
X012321Y029989D02*
X012201Y029989D01*
X014812Y027263D02*
X017013Y027263D01*
X016975Y027145D02*
X014812Y027145D01*
X014812Y027026D02*
X016975Y027026D01*
X016975Y026908D02*
X014812Y026908D01*
X017488Y027026D02*
X017608Y027026D01*
X017608Y027145D02*
X017488Y027145D01*
X017488Y027263D02*
X017608Y027263D01*
X021312Y030745D02*
X020562Y031495D01*
X020562Y034995D01*
X023312Y037745D01*
X023312Y038245D01*
X034312Y038245D02*
X034312Y038995D01*
X034562Y039245D01*
X051812Y039245D01*
X042812Y026694D02*
X041812Y026694D01*
X041312Y024745D02*
X042812Y023245D01*
X043312Y021745D02*
X043812Y021245D01*
X043812Y018245D01*
X043562Y017995D01*
X042312Y019194D02*
X042113Y018995D01*
X042312Y019194D02*
X041312Y019194D01*
X040312Y019194D01*
X040812Y019745D02*
X041312Y020245D01*
X042261Y020245D01*
X042312Y020296D01*
X042363Y019245D02*
X042312Y019194D01*
X042363Y019245D02*
X043261Y019245D01*
X044363Y019245D02*
X045613Y020495D01*
X046812Y020495D01*
X044363Y019444D02*
X044363Y019245D01*
X048312Y017745D02*
X048898Y018331D01*
X048312Y017745D02*
X037062Y017745D01*
X037562Y019495D02*
X038062Y019495D01*
X038312Y019745D01*
X040812Y019745D01*
X038312Y021745D02*
X038312Y023495D01*
X037812Y023995D01*
X037812Y025745D01*
X037562Y025995D01*
X031062Y025995D01*
X029812Y024745D01*
X027812Y024745D01*
X023812Y028745D01*
X023812Y029995D01*
X023062Y030745D01*
X021312Y030745D01*
X027562Y027745D02*
X027562Y026745D01*
X028261Y026745D01*
X028261Y027745D01*
X028312Y027745D02*
X027562Y027745D01*
X029363Y027745D02*
X029363Y026745D01*
X029312Y026694D01*
X029312Y025245D01*
X037062Y025745D02*
X037312Y025495D01*
X037312Y024745D01*
X046312Y016995D02*
X046812Y016495D01*
X044312Y011745D02*
X042812Y011745D01*
X042312Y011245D01*
X042312Y010745D01*
X041812Y010245D01*
X037340Y010245D01*
X037340Y010221D01*
X037288Y010221D01*
X037288Y010221D01*
X037340Y010221D01*
X037340Y009767D01*
X037329Y009727D01*
X037308Y009690D01*
X037278Y009660D01*
X037242Y009639D01*
X037201Y009628D01*
X037062Y009628D01*
X037062Y009995D01*
X037062Y009995D01*
X037062Y009628D01*
X036923Y009628D01*
X036882Y009639D01*
X036846Y009660D01*
X036816Y009690D01*
X036812Y009697D01*
X036812Y003245D01*
X037312Y002745D01*
X037987Y002745D01*
X037987Y005185D01*
X040252Y005185D01*
X040252Y005305D01*
X037987Y005305D01*
X037987Y007825D01*
X037998Y007866D01*
X038019Y007902D01*
X038048Y007932D01*
X038085Y007953D01*
X038126Y007964D01*
X040252Y007964D01*
X040252Y005305D01*
X040372Y005305D01*
X040372Y007964D01*
X042312Y007964D01*
X042312Y008745D01*
X042812Y009245D01*
X044312Y009245D01*
X044812Y009745D01*
X044812Y010433D01*
X044787Y010419D01*
X044746Y010408D01*
X044372Y010408D01*
X044372Y010921D01*
X044252Y010921D01*
X044252Y010408D01*
X043878Y010408D01*
X043837Y010419D01*
X043800Y010440D01*
X043771Y010470D01*
X043750Y010506D01*
X043739Y010547D01*
X043739Y010921D01*
X044252Y010921D01*
X044252Y011041D01*
X043739Y011041D01*
X043739Y011416D01*
X043750Y011456D01*
X043771Y011493D01*
X043800Y011523D01*
X043837Y011544D01*
X043878Y011555D01*
X044252Y011555D01*
X044252Y011041D01*
X044372Y011041D01*
X044372Y011555D01*
X044502Y011555D01*
X044312Y011745D01*
X044317Y011740D02*
X042807Y011740D01*
X042688Y011621D02*
X044436Y011621D01*
X044372Y011503D02*
X044252Y011503D01*
X044252Y011384D02*
X044372Y011384D01*
X044372Y011266D02*
X044252Y011266D01*
X044252Y011147D02*
X044372Y011147D01*
X044252Y011029D02*
X042312Y011029D01*
X042312Y011147D02*
X043739Y011147D01*
X043739Y011266D02*
X042333Y011266D01*
X042451Y011384D02*
X043739Y011384D01*
X043780Y011503D02*
X042570Y011503D01*
X042312Y010910D02*
X043739Y010910D01*
X043739Y010792D02*
X042312Y010792D01*
X042240Y010673D02*
X043739Y010673D01*
X043739Y010555D02*
X042122Y010555D01*
X042003Y010436D02*
X043807Y010436D01*
X044252Y010436D02*
X044372Y010436D01*
X044372Y010555D02*
X044252Y010555D01*
X044252Y010673D02*
X044372Y010673D01*
X044372Y010792D02*
X044252Y010792D01*
X044252Y010910D02*
X044372Y010910D01*
X044812Y010318D02*
X041885Y010318D01*
X042700Y009133D02*
X036812Y009133D01*
X036812Y009251D02*
X044318Y009251D01*
X044437Y009370D02*
X036812Y009370D01*
X036812Y009488D02*
X044555Y009488D01*
X044674Y009607D02*
X036812Y009607D01*
X037062Y009725D02*
X037062Y009725D01*
X037062Y009844D02*
X037062Y009844D01*
X037062Y009962D02*
X037062Y009962D01*
X037340Y009962D02*
X044812Y009962D01*
X044812Y009844D02*
X037340Y009844D01*
X037328Y009725D02*
X044792Y009725D01*
X044812Y010081D02*
X037340Y010081D01*
X037340Y010199D02*
X044812Y010199D01*
X042581Y009014D02*
X036812Y009014D01*
X036812Y008896D02*
X042463Y008896D01*
X042344Y008777D02*
X036812Y008777D01*
X036812Y008659D02*
X042312Y008659D01*
X042312Y008540D02*
X036812Y008540D01*
X036812Y008422D02*
X042312Y008422D01*
X042312Y008303D02*
X036812Y008303D01*
X036812Y008185D02*
X042312Y008185D01*
X042312Y008066D02*
X036812Y008066D01*
X036812Y007948D02*
X038075Y007948D01*
X037988Y007829D02*
X036812Y007829D01*
X036812Y007711D02*
X037987Y007711D01*
X037987Y007592D02*
X036812Y007592D01*
X036812Y007474D02*
X037987Y007474D01*
X037987Y007355D02*
X036812Y007355D01*
X036812Y007237D02*
X037987Y007237D01*
X037987Y007118D02*
X036812Y007118D01*
X036812Y007000D02*
X037987Y007000D01*
X037987Y006881D02*
X036812Y006881D01*
X036812Y006763D02*
X037987Y006763D01*
X037987Y006644D02*
X036812Y006644D01*
X036812Y006526D02*
X037987Y006526D01*
X037987Y006407D02*
X036812Y006407D01*
X036812Y006289D02*
X037987Y006289D01*
X037987Y006170D02*
X036812Y006170D01*
X036812Y006052D02*
X037987Y006052D01*
X037987Y005933D02*
X036812Y005933D01*
X036812Y005815D02*
X037987Y005815D01*
X037987Y005696D02*
X036812Y005696D01*
X036812Y005578D02*
X037987Y005578D01*
X037987Y005459D02*
X036812Y005459D01*
X036812Y005341D02*
X037987Y005341D01*
X037987Y005104D02*
X036812Y005104D01*
X036812Y005222D02*
X040252Y005222D01*
X040252Y005341D02*
X040372Y005341D01*
X040372Y005459D02*
X040252Y005459D01*
X040252Y005578D02*
X040372Y005578D01*
X040372Y005696D02*
X040252Y005696D01*
X040252Y005815D02*
X040372Y005815D01*
X040372Y005933D02*
X040252Y005933D01*
X040252Y006052D02*
X040372Y006052D01*
X040372Y006170D02*
X040252Y006170D01*
X040252Y006289D02*
X040372Y006289D01*
X040372Y006407D02*
X040252Y006407D01*
X040252Y006526D02*
X040372Y006526D01*
X040372Y006644D02*
X040252Y006644D01*
X040252Y006763D02*
X040372Y006763D01*
X040372Y006881D02*
X040252Y006881D01*
X040252Y007000D02*
X040372Y007000D01*
X040372Y007118D02*
X040252Y007118D01*
X040252Y007237D02*
X040372Y007237D01*
X040372Y007355D02*
X040252Y007355D01*
X040252Y007474D02*
X040372Y007474D01*
X040372Y007592D02*
X040252Y007592D01*
X040252Y007711D02*
X040372Y007711D01*
X040372Y007829D02*
X040252Y007829D01*
X040252Y007948D02*
X040372Y007948D01*
X037987Y004985D02*
X036812Y004985D01*
X036812Y004867D02*
X037987Y004867D01*
X037987Y004748D02*
X036812Y004748D01*
X036812Y004630D02*
X037987Y004630D01*
X037987Y004511D02*
X036812Y004511D01*
X036812Y004393D02*
X037987Y004393D01*
X037987Y004274D02*
X036812Y004274D01*
X036812Y004156D02*
X037987Y004156D01*
X037987Y004037D02*
X036812Y004037D01*
X036812Y003919D02*
X037987Y003919D01*
X037987Y003800D02*
X036812Y003800D01*
X036812Y003682D02*
X037987Y003682D01*
X037987Y003563D02*
X036812Y003563D01*
X036812Y003445D02*
X037987Y003445D01*
X037987Y003326D02*
X036812Y003326D01*
X036850Y003208D02*
X037987Y003208D01*
X037987Y003089D02*
X036968Y003089D01*
X037087Y002971D02*
X037987Y002971D01*
X037987Y002852D02*
X037205Y002852D01*
X031812Y002245D02*
X030062Y003995D01*
X030062Y015745D01*
X036863Y013495D02*
X037062Y013296D01*
X037062Y012269D01*
X037812Y013245D02*
X037562Y013495D01*
X037062Y013495D01*
X035312Y008745D02*
X032312Y008745D01*
X031812Y008245D01*
X031812Y007996D01*
X032302Y007996D01*
X032302Y007305D01*
X032422Y007305D01*
X032422Y007996D01*
X032974Y007996D01*
X033014Y007985D01*
X033051Y007964D01*
X033081Y007934D01*
X033102Y007897D01*
X033113Y007857D01*
X033113Y007305D01*
X032422Y007305D01*
X032422Y007185D01*
X033113Y007185D01*
X033113Y006745D01*
X035812Y006745D01*
X035812Y008245D01*
X035312Y008745D01*
X035398Y008659D02*
X032226Y008659D01*
X032107Y008540D02*
X035517Y008540D01*
X035635Y008422D02*
X031989Y008422D01*
X031870Y008303D02*
X035754Y008303D01*
X035812Y008185D02*
X031812Y008185D01*
X031812Y008066D02*
X035812Y008066D01*
X035812Y007948D02*
X033067Y007948D01*
X033113Y007829D02*
X035812Y007829D01*
X035812Y007711D02*
X033113Y007711D01*
X033113Y007592D02*
X035812Y007592D01*
X035812Y007474D02*
X033113Y007474D01*
X033113Y007355D02*
X035812Y007355D01*
X035812Y007237D02*
X032422Y007237D01*
X032422Y007355D02*
X032302Y007355D01*
X032302Y007474D02*
X032422Y007474D01*
X032422Y007592D02*
X032302Y007592D01*
X032302Y007711D02*
X032422Y007711D01*
X032422Y007829D02*
X032302Y007829D01*
X032302Y007948D02*
X032422Y007948D01*
X033113Y007118D02*
X035812Y007118D01*
X035812Y007000D02*
X033113Y007000D01*
X033113Y006881D02*
X035812Y006881D01*
X035812Y006763D02*
X033113Y006763D01*
X031812Y002245D02*
X045312Y002245D01*
X045312Y004745D01*
X018312Y020509D02*
X018122Y020509D01*
X018122Y020627D02*
X018312Y020627D01*
X018207Y020390D02*
X018122Y020390D01*
X017608Y020983D02*
X017488Y020983D01*
X017488Y021101D02*
X017608Y021101D01*
X017608Y021220D02*
X017488Y021220D01*
X006248Y026197D02*
X003475Y026197D01*
X003494Y026315D02*
X006229Y026315D01*
X006229Y026434D02*
X003494Y026434D01*
X003494Y026552D02*
X006229Y026552D01*
X006229Y026671D02*
X003494Y026671D01*
X003494Y026805D02*
X002921Y026805D01*
X002921Y027377D01*
X003355Y027377D01*
X003395Y027367D01*
X003432Y027345D01*
X003462Y027316D01*
X003483Y027279D01*
X003494Y027239D01*
X003494Y026805D01*
X003494Y026908D02*
X006229Y026908D01*
X006229Y027026D02*
X003494Y027026D01*
X003494Y027145D02*
X006229Y027145D01*
X006235Y027263D02*
X003487Y027263D01*
X002921Y027263D02*
X002801Y027263D01*
X002801Y027145D02*
X002921Y027145D01*
X002921Y027026D02*
X002801Y027026D01*
X002801Y026908D02*
X002921Y026908D01*
X002921Y026552D02*
X002801Y026552D01*
X002801Y026434D02*
X002921Y026434D01*
X002921Y026315D02*
X002801Y026315D01*
X002801Y026197D02*
X002921Y026197D01*
X002248Y026197D02*
X001392Y026197D01*
X001392Y026315D02*
X002229Y026315D01*
X002229Y026434D02*
X001392Y026434D01*
X001392Y026552D02*
X002229Y026552D01*
X002229Y026671D02*
X001392Y026671D01*
X001392Y003800D02*
X003567Y003800D01*
X003474Y003682D02*
X001392Y003682D01*
X001392Y003563D02*
X003434Y003563D01*
X003434Y003445D02*
X001392Y003445D01*
X001392Y003326D02*
X003480Y003326D01*
X003581Y003208D02*
X001392Y003208D01*
D42*
X018312Y016495D02*
X019011Y016495D01*
X023312Y017495D02*
X028062Y017495D01*
X028812Y018245D01*
X028812Y018495D01*
X027312Y018245D02*
X023863Y018245D01*
X023812Y018194D01*
X028812Y015745D02*
X028812Y014495D01*
X028812Y015745D02*
X031312Y018245D01*
X033562Y018245D01*
X036863Y013495D02*
X037062Y013495D01*
X036812Y011245D02*
X037812Y011245D01*
X038812Y010245D01*
X038812Y007984D01*
X038123Y007984D01*
X038077Y007972D01*
X038036Y007948D01*
X038003Y007915D01*
X037979Y007874D01*
X037967Y007828D01*
X037967Y006745D01*
X037312Y006745D01*
X036812Y007245D01*
X036812Y009666D01*
X036833Y009644D01*
X036874Y009621D01*
X036920Y009608D01*
X037062Y009608D01*
X037062Y010221D01*
X037062Y009608D01*
X037204Y009608D01*
X037250Y009621D01*
X037291Y009644D01*
X037324Y009678D01*
X037348Y009719D01*
X037360Y009765D01*
X037360Y010221D01*
X037062Y010221D01*
X037062Y010221D01*
X037062Y010221D01*
X036562Y010221D01*
X036062Y010221D02*
X035562Y010221D01*
X035562Y009608D01*
X035562Y010221D01*
X035562Y010221D01*
X035264Y010221D01*
X035264Y009765D01*
X035276Y009719D01*
X035300Y009678D01*
X035333Y009644D01*
X035374Y009621D01*
X035420Y009608D01*
X035562Y009608D01*
X035704Y009608D01*
X035750Y009621D01*
X035791Y009644D01*
X035812Y009666D01*
X035812Y005745D01*
X035312Y005245D01*
X031812Y005245D01*
X031312Y005745D01*
X031312Y008245D01*
X034312Y011245D01*
X035812Y011245D01*
X035812Y010777D01*
X035791Y010798D01*
X035750Y010822D01*
X035704Y010834D01*
X035562Y010834D01*
X035420Y010834D01*
X035374Y010822D01*
X035333Y010798D01*
X035300Y010765D01*
X035276Y010724D01*
X035264Y010678D01*
X035264Y010221D01*
X035562Y010221D01*
X035562Y010221D01*
X035562Y007245D01*
X032362Y007245D01*
X032282Y007219D02*
X031312Y007219D01*
X031312Y007061D02*
X031591Y007061D01*
X031591Y007165D02*
X031591Y006631D01*
X031604Y006585D01*
X031627Y006544D01*
X031661Y006510D01*
X031702Y006487D01*
X031748Y006474D01*
X032282Y006474D01*
X032282Y007165D01*
X031591Y007165D01*
X031591Y007325D02*
X032282Y007325D01*
X032282Y007165D01*
X032442Y007165D01*
X032442Y006474D01*
X032976Y006474D01*
X033022Y006487D01*
X033063Y006510D01*
X033097Y006544D01*
X033120Y006585D01*
X033133Y006631D01*
X033133Y007165D01*
X032442Y007165D01*
X032442Y007325D01*
X032282Y007325D01*
X032282Y008016D01*
X031748Y008016D01*
X031702Y008003D01*
X031661Y007980D01*
X031627Y007946D01*
X031604Y007905D01*
X031591Y007859D01*
X031591Y007325D01*
X031591Y007378D02*
X031312Y007378D01*
X031312Y007536D02*
X031591Y007536D01*
X031591Y007695D02*
X031312Y007695D01*
X031312Y007853D02*
X031591Y007853D01*
X031733Y008012D02*
X031312Y008012D01*
X031312Y008170D02*
X035812Y008170D01*
X035812Y008012D02*
X032991Y008012D01*
X032976Y008016D02*
X032442Y008016D01*
X032442Y007325D01*
X033133Y007325D01*
X033133Y007859D01*
X033120Y007905D01*
X033097Y007946D01*
X033063Y007980D01*
X033022Y008003D01*
X032976Y008016D01*
X033133Y007853D02*
X035812Y007853D01*
X035812Y007695D02*
X033133Y007695D01*
X033133Y007536D02*
X035812Y007536D01*
X035812Y007378D02*
X033133Y007378D01*
X033133Y007061D02*
X035812Y007061D01*
X035812Y007219D02*
X032442Y007219D01*
X032442Y007061D02*
X032282Y007061D01*
X032282Y006902D02*
X032442Y006902D01*
X032442Y006744D02*
X032282Y006744D01*
X032282Y006585D02*
X032442Y006585D01*
X033120Y006585D02*
X035812Y006585D01*
X035812Y006427D02*
X031312Y006427D01*
X031312Y006585D02*
X031604Y006585D01*
X031591Y006744D02*
X031312Y006744D01*
X031312Y006902D02*
X031591Y006902D01*
X032282Y007378D02*
X032442Y007378D01*
X032442Y007536D02*
X032282Y007536D01*
X032282Y007695D02*
X032442Y007695D01*
X032442Y007853D02*
X032282Y007853D01*
X032282Y008012D02*
X032442Y008012D01*
X031554Y008487D02*
X035812Y008487D01*
X035812Y008329D02*
X031396Y008329D01*
X031713Y008646D02*
X035812Y008646D01*
X035812Y008804D02*
X031871Y008804D01*
X032030Y008963D02*
X035812Y008963D01*
X035812Y009121D02*
X032188Y009121D01*
X032347Y009280D02*
X035812Y009280D01*
X035812Y009438D02*
X032505Y009438D01*
X032664Y009597D02*
X035812Y009597D01*
X035812Y009666D02*
X035812Y009666D01*
X035562Y009755D02*
X035562Y009755D01*
X035562Y009914D02*
X035562Y009914D01*
X035562Y010072D02*
X035562Y010072D01*
X035562Y010221D02*
X035562Y010834D01*
X035562Y010221D01*
X035562Y010221D01*
X035562Y010231D02*
X035562Y010231D01*
X035562Y010389D02*
X035562Y010389D01*
X035562Y010548D02*
X035562Y010548D01*
X035562Y010706D02*
X035562Y010706D01*
X035812Y010777D02*
X035812Y010777D01*
X035812Y010865D02*
X033932Y010865D01*
X034090Y011023D02*
X035812Y011023D01*
X035812Y011182D02*
X034249Y011182D01*
X033773Y010706D02*
X035271Y010706D01*
X035264Y010548D02*
X033615Y010548D01*
X033456Y010389D02*
X035264Y010389D01*
X035264Y010231D02*
X033298Y010231D01*
X033139Y010072D02*
X035264Y010072D01*
X035264Y009914D02*
X032981Y009914D01*
X032822Y009755D02*
X035266Y009755D01*
X036812Y009597D02*
X038812Y009597D01*
X038812Y009755D02*
X037358Y009755D01*
X037360Y009914D02*
X038812Y009914D01*
X038812Y010072D02*
X037360Y010072D01*
X037360Y010221D02*
X037360Y010678D01*
X037348Y010724D01*
X037324Y010765D01*
X037291Y010798D01*
X037250Y010822D01*
X037204Y010834D01*
X037062Y010834D01*
X036920Y010834D01*
X036874Y010822D01*
X036833Y010798D01*
X036812Y010777D01*
X036812Y011245D01*
X036812Y011182D02*
X037875Y011182D01*
X038034Y011023D02*
X036812Y011023D01*
X036812Y010865D02*
X038192Y010865D01*
X038351Y010706D02*
X037353Y010706D01*
X037360Y010548D02*
X038509Y010548D01*
X038668Y010389D02*
X037360Y010389D01*
X037360Y010231D02*
X038812Y010231D01*
X038812Y009438D02*
X036812Y009438D01*
X036812Y009280D02*
X038812Y009280D01*
X038812Y009121D02*
X036812Y009121D01*
X036812Y008963D02*
X038812Y008963D01*
X038812Y008804D02*
X036812Y008804D01*
X036812Y008646D02*
X038812Y008646D01*
X038812Y008487D02*
X036812Y008487D01*
X036812Y008329D02*
X038812Y008329D01*
X038812Y008170D02*
X036812Y008170D01*
X036812Y008012D02*
X038812Y008012D01*
X037973Y007853D02*
X036812Y007853D01*
X036812Y007695D02*
X037967Y007695D01*
X037967Y007536D02*
X036812Y007536D01*
X036812Y007378D02*
X037967Y007378D01*
X037967Y007219D02*
X036838Y007219D01*
X036996Y007061D02*
X037967Y007061D01*
X037967Y006902D02*
X037155Y006902D01*
X035812Y006902D02*
X033133Y006902D01*
X033133Y006744D02*
X035812Y006744D01*
X035812Y006268D02*
X031312Y006268D01*
X031312Y006110D02*
X035812Y006110D01*
X035812Y005951D02*
X031312Y005951D01*
X031312Y005793D02*
X035812Y005793D01*
X035701Y005634D02*
X031423Y005634D01*
X031581Y005476D02*
X035543Y005476D01*
X035384Y005317D02*
X031740Y005317D01*
X037062Y009755D02*
X037062Y009755D01*
X037062Y009914D02*
X037062Y009914D01*
X037062Y010072D02*
X037062Y010072D01*
X037062Y010221D02*
X037360Y010221D01*
X037062Y010221D02*
X037062Y010221D01*
X037062Y010834D01*
X037062Y010221D01*
X037062Y010231D02*
X037062Y010231D01*
X037062Y010389D02*
X037062Y010389D01*
X037062Y010548D02*
X037062Y010548D01*
X037062Y010706D02*
X037062Y010706D01*
X043312Y008245D02*
X043312Y007984D01*
X045232Y007984D01*
X045232Y005325D01*
X045392Y005325D01*
X045392Y007984D01*
X047501Y007984D01*
X047547Y007972D01*
X047588Y007948D01*
X047621Y007915D01*
X047645Y007874D01*
X047657Y007828D01*
X047657Y005325D01*
X045392Y005325D01*
X045392Y005165D01*
X045392Y002506D01*
X047501Y002506D01*
X047547Y002518D01*
X047588Y002542D01*
X047621Y002575D01*
X047645Y002616D01*
X047657Y002662D01*
X047657Y005165D01*
X045392Y005165D01*
X045232Y005165D01*
X045232Y002506D01*
X043312Y002506D01*
X043312Y002245D01*
X043812Y001745D01*
X051312Y001745D01*
X051812Y002245D01*
X051812Y015245D01*
X051342Y015715D01*
X047782Y015715D01*
X047312Y015245D01*
X047312Y009245D01*
X046812Y008745D01*
X043812Y008745D01*
X043312Y008245D01*
X043312Y008170D02*
X049894Y008170D01*
X049894Y008261D02*
X049894Y007999D01*
X049906Y007953D01*
X049930Y007912D01*
X049964Y007879D01*
X050005Y007855D01*
X050051Y007843D01*
X050312Y007843D01*
X050312Y008261D01*
X050312Y008679D01*
X050051Y008679D01*
X050005Y008666D01*
X049964Y008643D01*
X049930Y008609D01*
X049906Y008568D01*
X049894Y008522D01*
X049894Y008261D01*
X050312Y008261D01*
X050312Y008261D01*
X050312Y008679D01*
X050574Y008679D01*
X050619Y008666D01*
X050660Y008643D01*
X050694Y008609D01*
X050718Y008568D01*
X050730Y008522D01*
X050730Y008261D01*
X050312Y008261D01*
X050312Y008261D01*
X050312Y008261D01*
X050730Y008261D01*
X050730Y007999D01*
X050718Y007953D01*
X050694Y007912D01*
X050660Y007879D01*
X050619Y007855D01*
X050574Y007843D01*
X050312Y007843D01*
X050312Y008261D01*
X049894Y008261D01*
X049894Y008329D02*
X043396Y008329D01*
X043554Y008487D02*
X049894Y008487D01*
X049969Y008646D02*
X043713Y008646D01*
X043312Y008012D02*
X049894Y008012D01*
X050013Y007853D02*
X047651Y007853D01*
X047657Y007695D02*
X051812Y007695D01*
X051812Y007853D02*
X050611Y007853D01*
X050730Y008012D02*
X051812Y008012D01*
X051812Y008170D02*
X050730Y008170D01*
X050730Y008329D02*
X051812Y008329D01*
X051812Y008487D02*
X050730Y008487D01*
X050655Y008646D02*
X051812Y008646D01*
X051812Y008804D02*
X046871Y008804D01*
X047030Y008963D02*
X051812Y008963D01*
X051812Y009121D02*
X047188Y009121D01*
X047312Y009280D02*
X051812Y009280D01*
X051812Y009438D02*
X047312Y009438D01*
X047312Y009597D02*
X051812Y009597D01*
X051812Y009755D02*
X047312Y009755D01*
X047312Y009914D02*
X050065Y009914D01*
X050087Y009892D02*
X050233Y009831D01*
X050391Y009831D01*
X050537Y009892D01*
X050649Y010004D01*
X050710Y010150D01*
X050710Y010308D01*
X050649Y010455D01*
X050537Y010566D01*
X050391Y010627D01*
X050233Y010627D01*
X050087Y010566D01*
X049975Y010455D01*
X049914Y010308D01*
X049914Y010150D01*
X049975Y010004D01*
X050087Y009892D01*
X049947Y010072D02*
X047312Y010072D01*
X047312Y010231D02*
X049914Y010231D01*
X049948Y010389D02*
X047312Y010389D01*
X047312Y010548D02*
X050068Y010548D01*
X050556Y010548D02*
X051812Y010548D01*
X051812Y010706D02*
X047312Y010706D01*
X047312Y010865D02*
X051812Y010865D01*
X051812Y011023D02*
X047312Y011023D01*
X047312Y011182D02*
X051812Y011182D01*
X051812Y011340D02*
X047312Y011340D01*
X047312Y011499D02*
X051812Y011499D01*
X051812Y011657D02*
X047312Y011657D01*
X047312Y011816D02*
X051812Y011816D01*
X051812Y011974D02*
X047312Y011974D01*
X047312Y012133D02*
X051812Y012133D01*
X051812Y012291D02*
X051165Y012291D01*
X051165Y012236D02*
X051165Y013254D01*
X051071Y013348D01*
X050053Y013348D01*
X049959Y013254D01*
X049959Y012236D01*
X050053Y012142D01*
X051071Y012142D01*
X051165Y012236D01*
X051165Y012450D02*
X051812Y012450D01*
X051812Y012608D02*
X051165Y012608D01*
X051165Y012767D02*
X051812Y012767D01*
X051812Y012925D02*
X051165Y012925D01*
X051165Y013084D02*
X051812Y013084D01*
X051812Y013242D02*
X051165Y013242D01*
X051812Y013401D02*
X047312Y013401D01*
X047312Y013559D02*
X051812Y013559D01*
X051812Y013718D02*
X047312Y013718D01*
X047312Y013876D02*
X051812Y013876D01*
X051812Y014035D02*
X047312Y014035D01*
X047312Y014193D02*
X049974Y014193D01*
X049975Y014192D02*
X050009Y014158D01*
X050050Y014134D01*
X050095Y014122D01*
X050494Y014122D01*
X050494Y014677D01*
X050630Y014677D01*
X050630Y014813D01*
X050494Y014813D01*
X050494Y014677D01*
X049939Y014677D01*
X049939Y014278D01*
X049951Y014233D01*
X049975Y014192D01*
X049939Y014352D02*
X047312Y014352D01*
X047312Y014510D02*
X049939Y014510D01*
X049939Y014669D02*
X047312Y014669D01*
X047312Y014827D02*
X049939Y014827D01*
X049939Y014813D02*
X050494Y014813D01*
X050494Y015368D01*
X050095Y015368D01*
X050050Y015356D01*
X050009Y015332D01*
X049975Y015298D01*
X049951Y015257D01*
X049939Y015212D01*
X049939Y014813D01*
X049939Y014986D02*
X047312Y014986D01*
X047312Y015144D02*
X049939Y015144D01*
X049979Y015303D02*
X047370Y015303D01*
X047528Y015461D02*
X051596Y015461D01*
X051754Y015303D02*
X051145Y015303D01*
X051149Y015298D02*
X051115Y015332D01*
X051074Y015356D01*
X051029Y015368D01*
X050630Y015368D01*
X050630Y014813D01*
X051185Y014813D01*
X051185Y015212D01*
X051173Y015257D01*
X051149Y015298D01*
X051185Y015144D02*
X051812Y015144D01*
X051812Y014986D02*
X051185Y014986D01*
X051185Y014827D02*
X051812Y014827D01*
X051812Y014669D02*
X051185Y014669D01*
X051185Y014677D02*
X051185Y014278D01*
X051173Y014233D01*
X051149Y014192D01*
X051115Y014158D01*
X051074Y014134D01*
X051029Y014122D01*
X050630Y014122D01*
X050630Y014677D01*
X051185Y014677D01*
X051185Y014510D02*
X051812Y014510D01*
X051812Y014352D02*
X051185Y014352D01*
X051150Y014193D02*
X051812Y014193D01*
X050630Y014193D02*
X050494Y014193D01*
X050494Y014352D02*
X050630Y014352D01*
X050630Y014510D02*
X050494Y014510D01*
X050494Y014669D02*
X050630Y014669D01*
X050630Y014827D02*
X050494Y014827D01*
X050494Y014986D02*
X050630Y014986D01*
X050630Y015144D02*
X050494Y015144D01*
X050494Y015303D02*
X050630Y015303D01*
X051437Y015620D02*
X047687Y015620D01*
X047312Y013242D02*
X049959Y013242D01*
X049959Y013084D02*
X047312Y013084D01*
X047312Y012925D02*
X049959Y012925D01*
X049959Y012767D02*
X047312Y012767D01*
X047312Y012608D02*
X049959Y012608D01*
X049959Y012450D02*
X047312Y012450D01*
X047312Y012291D02*
X049959Y012291D01*
X050676Y010389D02*
X051812Y010389D01*
X051812Y010231D02*
X050710Y010231D01*
X050677Y010072D02*
X051812Y010072D01*
X051812Y009914D02*
X050559Y009914D01*
X050312Y008646D02*
X050312Y008646D01*
X050312Y008487D02*
X050312Y008487D01*
X050312Y008329D02*
X050312Y008329D01*
X050312Y008261D02*
X050312Y008261D01*
X050312Y008170D02*
X050312Y008170D01*
X050312Y008012D02*
X050312Y008012D01*
X050312Y007853D02*
X050312Y007853D01*
X051812Y007536D02*
X047657Y007536D01*
X047657Y007378D02*
X051812Y007378D01*
X051812Y007219D02*
X047657Y007219D01*
X047657Y007061D02*
X051812Y007061D01*
X051812Y006902D02*
X047657Y006902D01*
X047657Y006744D02*
X051812Y006744D01*
X051812Y006585D02*
X047657Y006585D01*
X047657Y006427D02*
X051812Y006427D01*
X051812Y006268D02*
X047657Y006268D01*
X047657Y006110D02*
X049962Y006110D01*
X049964Y006111D02*
X049930Y006078D01*
X049906Y006037D01*
X049894Y005991D01*
X049894Y005729D01*
X049894Y005468D01*
X049906Y005422D01*
X049930Y005381D01*
X049964Y005347D01*
X050005Y005324D01*
X050051Y005311D01*
X050312Y005311D01*
X050574Y005311D01*
X050619Y005324D01*
X050660Y005347D01*
X050694Y005381D01*
X050718Y005422D01*
X050730Y005468D01*
X050730Y005729D01*
X050312Y005729D01*
X050312Y005311D01*
X050312Y005729D01*
X050312Y005729D01*
X049894Y005729D01*
X050312Y005729D01*
X050312Y005729D01*
X050312Y005729D01*
X050730Y005729D01*
X050730Y005991D01*
X050718Y006037D01*
X050694Y006078D01*
X050660Y006111D01*
X050619Y006135D01*
X050574Y006147D01*
X050312Y006147D01*
X050051Y006147D01*
X050005Y006135D01*
X049964Y006111D01*
X049894Y005951D02*
X047657Y005951D01*
X047657Y005793D02*
X049894Y005793D01*
X049894Y005634D02*
X047657Y005634D01*
X047657Y005476D02*
X049894Y005476D01*
X050030Y005317D02*
X045392Y005317D01*
X045392Y005159D02*
X045232Y005159D01*
X045232Y005000D02*
X045392Y005000D01*
X045392Y004842D02*
X045232Y004842D01*
X045232Y004683D02*
X045392Y004683D01*
X045392Y004525D02*
X045232Y004525D01*
X045232Y004366D02*
X045392Y004366D01*
X045392Y004208D02*
X045232Y004208D01*
X045232Y004049D02*
X045392Y004049D01*
X045392Y003891D02*
X045232Y003891D01*
X045232Y003732D02*
X045392Y003732D01*
X045392Y003574D02*
X045232Y003574D01*
X045232Y003415D02*
X045392Y003415D01*
X045392Y003257D02*
X045232Y003257D01*
X045232Y003098D02*
X045392Y003098D01*
X045392Y002940D02*
X045232Y002940D01*
X045232Y002781D02*
X045392Y002781D01*
X045392Y002623D02*
X045232Y002623D01*
X043727Y001830D02*
X051397Y001830D01*
X051556Y001989D02*
X043569Y001989D01*
X043410Y002147D02*
X051714Y002147D01*
X051812Y002306D02*
X043312Y002306D01*
X043312Y002464D02*
X051812Y002464D01*
X051812Y002623D02*
X047647Y002623D01*
X047657Y002781D02*
X051812Y002781D01*
X051812Y002940D02*
X047657Y002940D01*
X047657Y003098D02*
X051812Y003098D01*
X051812Y003257D02*
X047657Y003257D01*
X047657Y003415D02*
X050107Y003415D01*
X050087Y003424D02*
X050233Y003363D01*
X050391Y003363D01*
X050537Y003424D01*
X050649Y003535D01*
X050710Y003682D01*
X050710Y003840D01*
X050649Y003986D01*
X050537Y004098D01*
X050391Y004159D01*
X050233Y004159D01*
X050087Y004098D01*
X049975Y003986D01*
X049914Y003840D01*
X049914Y003682D01*
X049975Y003535D01*
X050087Y003424D01*
X049959Y003574D02*
X047657Y003574D01*
X047657Y003732D02*
X049914Y003732D01*
X049935Y003891D02*
X047657Y003891D01*
X047657Y004049D02*
X050038Y004049D01*
X050586Y004049D02*
X051812Y004049D01*
X051812Y003891D02*
X050689Y003891D01*
X050710Y003732D02*
X051812Y003732D01*
X051812Y003574D02*
X050665Y003574D01*
X050517Y003415D02*
X051812Y003415D01*
X051812Y004208D02*
X047657Y004208D01*
X047657Y004366D02*
X051812Y004366D01*
X051812Y004525D02*
X047657Y004525D01*
X047657Y004683D02*
X051812Y004683D01*
X051812Y004842D02*
X047657Y004842D01*
X047657Y005000D02*
X051812Y005000D01*
X051812Y005159D02*
X047657Y005159D01*
X045392Y005476D02*
X045232Y005476D01*
X045232Y005634D02*
X045392Y005634D01*
X045392Y005793D02*
X045232Y005793D01*
X045232Y005951D02*
X045392Y005951D01*
X045392Y006110D02*
X045232Y006110D01*
X045232Y006268D02*
X045392Y006268D01*
X045392Y006427D02*
X045232Y006427D01*
X045232Y006585D02*
X045392Y006585D01*
X045392Y006744D02*
X045232Y006744D01*
X045232Y006902D02*
X045392Y006902D01*
X045392Y007061D02*
X045232Y007061D01*
X045232Y007219D02*
X045392Y007219D01*
X045392Y007378D02*
X045232Y007378D01*
X045232Y007536D02*
X045392Y007536D01*
X045392Y007695D02*
X045232Y007695D01*
X045232Y007853D02*
X045392Y007853D01*
X050312Y006147D02*
X050312Y005729D01*
X050312Y005729D01*
X050312Y006147D01*
X050312Y006110D02*
X050312Y006110D01*
X050312Y005951D02*
X050312Y005951D01*
X050312Y005793D02*
X050312Y005793D01*
X050312Y005634D02*
X050312Y005634D01*
X050312Y005476D02*
X050312Y005476D01*
X050312Y005317D02*
X050312Y005317D01*
X050594Y005317D02*
X051812Y005317D01*
X051812Y005476D02*
X050730Y005476D01*
X050730Y005634D02*
X051812Y005634D01*
X051812Y005793D02*
X050730Y005793D01*
X050730Y005951D02*
X051812Y005951D01*
X051812Y006110D02*
X050662Y006110D01*
X044363Y019444D02*
X044363Y021694D01*
X044312Y021745D01*
X044312Y026745D02*
X044312Y027745D01*
X044812Y028245D01*
X047312Y028245D01*
X048312Y027245D01*
X049612Y027245D01*
X049812Y027245D01*
X050312Y027745D01*
X050312Y027796D01*
X019312Y031245D02*
X018687Y031870D01*
X016312Y031995D02*
X014812Y031995D01*
D43*
X017062Y030745D02*
X017062Y035995D01*
X016812Y036245D01*
X006812Y036245D01*
X006312Y036745D01*
X006312Y038495D01*
X006562Y038745D01*
X008812Y038745D01*
X008812Y038245D01*
X007812Y038245D02*
X007812Y037745D01*
X011562Y037745D01*
X011812Y037995D01*
X011812Y038745D01*
X012562Y038745D01*
X012812Y038495D01*
X012812Y037495D01*
X017312Y037495D01*
X017062Y037745D02*
X013312Y037745D01*
X013312Y038245D01*
X014312Y038245D02*
X015062Y038245D01*
X017062Y037745D02*
X017312Y037995D01*
X017312Y038745D01*
X018062Y038745D01*
X018312Y038495D01*
X018312Y037745D01*
X022562Y037745D01*
X022812Y037995D01*
X022812Y038745D01*
X023562Y038745D01*
X023812Y038495D01*
X023812Y037745D01*
X023312Y037245D01*
X023312Y033995D01*
X026062Y033995D01*
X028812Y031245D01*
X029312Y030745D02*
X024312Y030745D01*
X024312Y032495D01*
X022312Y034495D01*
X022312Y036245D01*
X022312Y037245D02*
X018312Y037245D01*
X018312Y036495D02*
X018312Y035495D01*
X020562Y035495D01*
X021062Y034995D02*
X021062Y032995D01*
X023312Y032995D01*
X023812Y033495D02*
X024562Y033495D01*
X026812Y031245D01*
X026312Y029995D02*
X026312Y029495D01*
X026812Y029495D02*
X028062Y029495D01*
X028062Y028995D01*
X029062Y028495D02*
X024562Y028495D01*
X023312Y027245D02*
X022062Y028495D01*
X022062Y029245D01*
X021562Y029745D01*
X018062Y029745D01*
X017062Y030745D01*
X024062Y030495D02*
X029562Y030495D01*
X029562Y028745D01*
X030312Y029495D02*
X031312Y030495D01*
X031312Y034495D01*
X030812Y034245D02*
X029312Y034245D01*
X028812Y034245D02*
X030812Y032245D01*
X030812Y031245D02*
X027812Y034245D01*
X024312Y034245D01*
X024312Y038245D01*
X024812Y037495D02*
X027312Y037495D01*
X028312Y037745D02*
X029062Y037745D01*
X029312Y037995D01*
X029312Y038995D01*
X031562Y038995D01*
X030812Y038245D02*
X030312Y037745D01*
X029312Y036245D02*
X027312Y036245D01*
X027312Y035995D01*
X026062Y035245D02*
X041562Y035245D01*
X042562Y036245D01*
X041062Y037745D02*
X041562Y038245D01*
X040562Y038245D02*
X040062Y037745D01*
X039612Y037245D02*
X051612Y037245D01*
X051612Y033845D01*
X050812Y033045D02*
X049612Y031845D01*
X049612Y027245D01*
X041312Y025745D02*
X041312Y028745D01*
X036812Y033245D01*
X036812Y033444D01*
X036812Y033245D02*
X034812Y031245D01*
X034812Y027245D01*
X030062Y027245D01*
X029562Y027745D02*
X029363Y027745D01*
X029562Y027745D02*
X029562Y028245D01*
X032312Y030995D01*
X032312Y034245D01*
X032812Y034745D01*
X032812Y034245D02*
X033562Y034245D01*
X034062Y034745D01*
X034562Y034745D02*
X033062Y033245D01*
X033062Y031495D01*
X032812Y031245D01*
X033812Y031245D02*
X034062Y031495D01*
X034062Y032995D01*
X035312Y034245D01*
X035562Y034995D02*
X037562Y034995D01*
X037562Y034245D01*
X037812Y033995D02*
X036312Y033995D01*
X034312Y031995D01*
X034312Y028245D01*
X030062Y028245D01*
X030562Y028745D02*
X033312Y028745D01*
X033312Y032745D01*
X035562Y034995D01*
X034812Y035745D02*
X037062Y035745D01*
X037062Y036495D01*
X037062Y036995D02*
X036562Y036495D01*
X025562Y036495D01*
X024812Y035745D01*
X025812Y035745D02*
X025812Y035495D01*
X026062Y035245D01*
X024812Y034745D02*
X029812Y034745D01*
X028812Y034245D02*
X028312Y034245D01*
X029812Y035745D02*
X029312Y036245D01*
X031812Y035745D02*
X032312Y035745D01*
X032312Y035995D01*
X031812Y034745D02*
X031812Y031245D01*
X029812Y031245D02*
X029312Y030745D01*
X034812Y031995D02*
X036062Y033245D01*
X037812Y035745D02*
X038812Y035745D01*
X038812Y036495D01*
X039612Y037245D02*
X038612Y038245D01*
X038562Y038245D01*
X038412Y038245D01*
X038212Y038045D01*
X038212Y037845D01*
X038012Y037645D01*
X035812Y037645D01*
X035812Y038645D01*
X036812Y037245D02*
X034312Y037245D01*
X033412Y038245D02*
X033312Y038245D01*
X033412Y038245D02*
X033412Y038645D01*
X033812Y039045D01*
X037062Y036995D02*
X050562Y036995D01*
X051062Y036495D01*
X051062Y035495D01*
X020562Y038245D02*
X020062Y038745D01*
X018812Y038745D01*
X018812Y038245D01*
X009412Y030845D02*
X009412Y030752D01*
X009412Y030845D02*
X009312Y030761D01*
X023062Y017245D02*
X023312Y017495D01*
X023062Y017245D02*
X020562Y017245D01*
X035562Y014995D02*
X036312Y014245D01*
X036312Y012995D01*
X036062Y012745D01*
X036062Y012269D01*
X039562Y014995D02*
X039562Y016745D01*
X039812Y016995D01*
X046312Y016995D01*
X044412Y011045D02*
X044312Y010995D01*
X044312Y010981D02*
X044412Y011045D01*
D44*
X030062Y027245D03*
X030062Y028245D03*
X029562Y028745D03*
X029062Y028495D03*
X028062Y028995D03*
X026312Y029995D03*
X024062Y030495D03*
X024562Y028495D03*
X023312Y027245D03*
X030312Y029495D03*
X030562Y028745D03*
X030812Y032245D03*
X030812Y034245D03*
X031312Y034495D03*
X031812Y034745D03*
X032812Y034745D03*
X032812Y034245D03*
X034062Y034745D03*
X034562Y034745D03*
X035312Y034245D03*
X036062Y033245D03*
X034812Y031995D03*
X029812Y034745D03*
X029312Y034245D03*
X028312Y034245D03*
X027312Y035995D03*
X027312Y037495D03*
X028312Y037745D03*
X030312Y037745D03*
X031562Y038995D03*
X033812Y039045D03*
X035812Y038645D03*
X036812Y037245D03*
X037062Y036495D03*
X037812Y035745D03*
X038812Y036495D03*
X040062Y037745D03*
X041062Y037745D03*
X032312Y035995D03*
X024812Y034745D03*
X023812Y033495D03*
X023312Y032995D03*
X021062Y034995D03*
X020562Y035495D03*
X022312Y036245D03*
X022312Y037245D03*
X020562Y038245D03*
X018312Y037245D03*
X018312Y036495D03*
X017312Y037495D03*
X015062Y038245D03*
X024812Y037495D03*
X050812Y033045D03*
X051612Y033845D03*
D45*
X050562Y014745D02*
X047562Y014745D01*
X047562Y005245D01*
X019262Y003979D02*
X019262Y007245D01*
X014562Y007245D01*
X008562Y005229D01*
X011562Y008479D01*
X010062Y007245D01*
X003812Y005479D02*
X019262Y003979D01*
X017548Y025745D02*
X011812Y025745D01*
X005812Y032245D02*
X005812Y035245D01*
X005812Y038245D01*
X005812Y039245D01*
X011312Y039245D01*
X016812Y039245D01*
X016812Y038245D01*
X011312Y038245D02*
X011312Y039245D01*
X005812Y032245D02*
X005562Y032245D01*
D46*
X016812Y039245D02*
X022312Y039245D01*
X027812Y039245D01*
X027812Y038245D01*
X027812Y037245D01*
X033312Y037245D01*
X033312Y038245D01*
X022312Y038245D02*
X022312Y039245D01*
M02*
