G04 #@! TF.FileFunction,Legend,Bot*
%FSLAX46Y46*%
G04 Gerber Fmt 4.6, Leading zero omitted, Abs format (unit mm)*
G04 Created by KiCad (PCBNEW 4.0.7) date 03/19/18 18:51:51*
%MOMM*%
%LPD*%
G01*
G04 APERTURE LIST*
%ADD10C,0.100000*%
%ADD11C,0.300000*%
%ADD12C,0.010000*%
G04 APERTURE END LIST*
D10*
D11*
X140351257Y-106175171D02*
X140351257Y-104675171D01*
X139851257Y-105746600D01*
X139351257Y-104675171D01*
X139351257Y-106175171D01*
X137994114Y-106175171D02*
X137994114Y-105389457D01*
X138065543Y-105246600D01*
X138208400Y-105175171D01*
X138494114Y-105175171D01*
X138636971Y-105246600D01*
X137994114Y-106103743D02*
X138136971Y-106175171D01*
X138494114Y-106175171D01*
X138636971Y-106103743D01*
X138708400Y-105960886D01*
X138708400Y-105818029D01*
X138636971Y-105675171D01*
X138494114Y-105603743D01*
X138136971Y-105603743D01*
X137994114Y-105532314D01*
X137351257Y-106103743D02*
X137208400Y-106175171D01*
X136922685Y-106175171D01*
X136779828Y-106103743D01*
X136708400Y-105960886D01*
X136708400Y-105889457D01*
X136779828Y-105746600D01*
X136922685Y-105675171D01*
X137136971Y-105675171D01*
X137279828Y-105603743D01*
X137351257Y-105460886D01*
X137351257Y-105389457D01*
X137279828Y-105246600D01*
X137136971Y-105175171D01*
X136922685Y-105175171D01*
X136779828Y-105246600D01*
X136279828Y-105175171D02*
X135708399Y-105175171D01*
X136065542Y-104675171D02*
X136065542Y-105960886D01*
X135994114Y-106103743D01*
X135851256Y-106175171D01*
X135708399Y-106175171D01*
X133565542Y-105389457D02*
X133351256Y-105460886D01*
X133279828Y-105532314D01*
X133208399Y-105675171D01*
X133208399Y-105889457D01*
X133279828Y-106032314D01*
X133351256Y-106103743D01*
X133494114Y-106175171D01*
X134065542Y-106175171D01*
X134065542Y-104675171D01*
X133565542Y-104675171D01*
X133422685Y-104746600D01*
X133351256Y-104818029D01*
X133279828Y-104960886D01*
X133279828Y-105103743D01*
X133351256Y-105246600D01*
X133422685Y-105318029D01*
X133565542Y-105389457D01*
X134065542Y-105389457D01*
X132351256Y-106175171D02*
X132494114Y-106103743D01*
X132565542Y-106032314D01*
X132636971Y-105889457D01*
X132636971Y-105460886D01*
X132565542Y-105318029D01*
X132494114Y-105246600D01*
X132351256Y-105175171D01*
X132136971Y-105175171D01*
X131994114Y-105246600D01*
X131922685Y-105318029D01*
X131851256Y-105460886D01*
X131851256Y-105889457D01*
X131922685Y-106032314D01*
X131994114Y-106103743D01*
X132136971Y-106175171D01*
X132351256Y-106175171D01*
X130565542Y-106175171D02*
X130565542Y-105389457D01*
X130636971Y-105246600D01*
X130779828Y-105175171D01*
X131065542Y-105175171D01*
X131208399Y-105246600D01*
X130565542Y-106103743D02*
X130708399Y-106175171D01*
X131065542Y-106175171D01*
X131208399Y-106103743D01*
X131279828Y-105960886D01*
X131279828Y-105818029D01*
X131208399Y-105675171D01*
X131065542Y-105603743D01*
X130708399Y-105603743D01*
X130565542Y-105532314D01*
X129851256Y-106175171D02*
X129851256Y-105175171D01*
X129851256Y-105460886D02*
X129779828Y-105318029D01*
X129708399Y-105246600D01*
X129565542Y-105175171D01*
X129422685Y-105175171D01*
X128279828Y-106175171D02*
X128279828Y-104675171D01*
X128279828Y-106103743D02*
X128422685Y-106175171D01*
X128708399Y-106175171D01*
X128851257Y-106103743D01*
X128922685Y-106032314D01*
X128994114Y-105889457D01*
X128994114Y-105460886D01*
X128922685Y-105318029D01*
X128851257Y-105246600D01*
X128708399Y-105175171D01*
X128422685Y-105175171D01*
X128279828Y-105246600D01*
X127494114Y-106103743D02*
X127494114Y-106175171D01*
X127565542Y-106318029D01*
X127636971Y-106389457D01*
X124851256Y-106175171D02*
X125351256Y-105460886D01*
X125708399Y-106175171D02*
X125708399Y-104675171D01*
X125136971Y-104675171D01*
X124994113Y-104746600D01*
X124922685Y-104818029D01*
X124851256Y-104960886D01*
X124851256Y-105175171D01*
X124922685Y-105318029D01*
X124994113Y-105389457D01*
X125136971Y-105460886D01*
X125708399Y-105460886D01*
X123636971Y-106103743D02*
X123779828Y-106175171D01*
X124065542Y-106175171D01*
X124208399Y-106103743D01*
X124279828Y-105960886D01*
X124279828Y-105389457D01*
X124208399Y-105246600D01*
X124065542Y-105175171D01*
X123779828Y-105175171D01*
X123636971Y-105246600D01*
X123565542Y-105389457D01*
X123565542Y-105532314D01*
X124279828Y-105675171D01*
X123065542Y-105175171D02*
X122708399Y-106175171D01*
X122351257Y-105175171D01*
X120994114Y-106175171D02*
X121851257Y-106175171D01*
X121422685Y-106175171D02*
X121422685Y-104675171D01*
X121565542Y-104889457D01*
X121708400Y-105032314D01*
X121851257Y-105103743D01*
X138315543Y-108725171D02*
X138315543Y-107225171D01*
X137815543Y-108296600D01*
X137315543Y-107225171D01*
X137315543Y-108725171D01*
X136601257Y-108725171D02*
X136601257Y-107725171D01*
X136601257Y-107225171D02*
X136672686Y-107296600D01*
X136601257Y-107368029D01*
X136529829Y-107296600D01*
X136601257Y-107225171D01*
X136601257Y-107368029D01*
X135958400Y-108653743D02*
X135815543Y-108725171D01*
X135529828Y-108725171D01*
X135386971Y-108653743D01*
X135315543Y-108510886D01*
X135315543Y-108439457D01*
X135386971Y-108296600D01*
X135529828Y-108225171D01*
X135744114Y-108225171D01*
X135886971Y-108153743D01*
X135958400Y-108010886D01*
X135958400Y-107939457D01*
X135886971Y-107796600D01*
X135744114Y-107725171D01*
X135529828Y-107725171D01*
X135386971Y-107796600D01*
X134744114Y-108653743D02*
X134601257Y-108725171D01*
X134315542Y-108725171D01*
X134172685Y-108653743D01*
X134101257Y-108510886D01*
X134101257Y-108439457D01*
X134172685Y-108296600D01*
X134315542Y-108225171D01*
X134529828Y-108225171D01*
X134672685Y-108153743D01*
X134744114Y-108010886D01*
X134744114Y-107939457D01*
X134672685Y-107796600D01*
X134529828Y-107725171D01*
X134315542Y-107725171D01*
X134172685Y-107796600D01*
X133244113Y-108725171D02*
X133386971Y-108653743D01*
X133458399Y-108582314D01*
X133529828Y-108439457D01*
X133529828Y-108010886D01*
X133458399Y-107868029D01*
X133386971Y-107796600D01*
X133244113Y-107725171D01*
X133029828Y-107725171D01*
X132886971Y-107796600D01*
X132815542Y-107868029D01*
X132744113Y-108010886D01*
X132744113Y-108439457D01*
X132815542Y-108582314D01*
X132886971Y-108653743D01*
X133029828Y-108725171D01*
X133244113Y-108725171D01*
X131458399Y-107725171D02*
X131458399Y-108725171D01*
X132101256Y-107725171D02*
X132101256Y-108510886D01*
X132029828Y-108653743D01*
X131886970Y-108725171D01*
X131672685Y-108725171D01*
X131529828Y-108653743D01*
X131458399Y-108582314D01*
X130744113Y-108725171D02*
X130744113Y-107725171D01*
X130744113Y-108010886D02*
X130672685Y-107868029D01*
X130601256Y-107796600D01*
X130458399Y-107725171D01*
X130315542Y-107725171D01*
X129815542Y-108725171D02*
X129815542Y-107725171D01*
X129815542Y-107225171D02*
X129886971Y-107296600D01*
X129815542Y-107368029D01*
X129744114Y-107296600D01*
X129815542Y-107225171D01*
X129815542Y-107368029D01*
X128029828Y-108653743D02*
X127815542Y-108725171D01*
X127458399Y-108725171D01*
X127315542Y-108653743D01*
X127244113Y-108582314D01*
X127172685Y-108439457D01*
X127172685Y-108296600D01*
X127244113Y-108153743D01*
X127315542Y-108082314D01*
X127458399Y-108010886D01*
X127744113Y-107939457D01*
X127886971Y-107868029D01*
X127958399Y-107796600D01*
X128029828Y-107653743D01*
X128029828Y-107510886D01*
X127958399Y-107368029D01*
X127886971Y-107296600D01*
X127744113Y-107225171D01*
X127386971Y-107225171D01*
X127172685Y-107296600D01*
X125315542Y-108725171D02*
X125386971Y-108725171D01*
X125529828Y-108653743D01*
X125744114Y-108439457D01*
X126101257Y-108010886D01*
X126244114Y-107796600D01*
X126315542Y-107582314D01*
X126315542Y-107439457D01*
X126244114Y-107296600D01*
X126101257Y-107225171D01*
X126029828Y-107225171D01*
X125886971Y-107296600D01*
X125815542Y-107439457D01*
X125815542Y-107510886D01*
X125886971Y-107653743D01*
X125958400Y-107725171D01*
X126386971Y-108010886D01*
X126458400Y-108082314D01*
X126529828Y-108225171D01*
X126529828Y-108439457D01*
X126458400Y-108582314D01*
X126386971Y-108653743D01*
X126244114Y-108725171D01*
X126029828Y-108725171D01*
X125886971Y-108653743D01*
X125815542Y-108582314D01*
X125601257Y-108296600D01*
X125529828Y-108082314D01*
X125529828Y-107939457D01*
X124886971Y-107225171D02*
X124029828Y-107225171D01*
X124458399Y-108725171D02*
X124458399Y-107225171D01*
X140422684Y-111275171D02*
X140422684Y-109775171D01*
X139922684Y-110846600D01*
X139422684Y-109775171D01*
X139422684Y-111275171D01*
X138065541Y-111275171D02*
X138065541Y-110489457D01*
X138136970Y-110346600D01*
X138279827Y-110275171D01*
X138565541Y-110275171D01*
X138708398Y-110346600D01*
X138065541Y-111203743D02*
X138208398Y-111275171D01*
X138565541Y-111275171D01*
X138708398Y-111203743D01*
X138779827Y-111060886D01*
X138779827Y-110918029D01*
X138708398Y-110775171D01*
X138565541Y-110703743D01*
X138208398Y-110703743D01*
X138065541Y-110632314D01*
X137351255Y-111275171D02*
X137351255Y-110275171D01*
X137351255Y-110560886D02*
X137279827Y-110418029D01*
X137208398Y-110346600D01*
X137065541Y-110275171D01*
X136922684Y-110275171D01*
X136494113Y-111203743D02*
X136351256Y-111275171D01*
X136065541Y-111275171D01*
X135922684Y-111203743D01*
X135851256Y-111060886D01*
X135851256Y-110989457D01*
X135922684Y-110846600D01*
X136065541Y-110775171D01*
X136279827Y-110775171D01*
X136422684Y-110703743D01*
X136494113Y-110560886D01*
X136494113Y-110489457D01*
X136422684Y-110346600D01*
X136279827Y-110275171D01*
X136065541Y-110275171D01*
X135922684Y-110346600D01*
X133208398Y-111275171D02*
X133708398Y-110560886D01*
X134065541Y-111275171D02*
X134065541Y-109775171D01*
X133494113Y-109775171D01*
X133351255Y-109846600D01*
X133279827Y-109918029D01*
X133208398Y-110060886D01*
X133208398Y-110275171D01*
X133279827Y-110418029D01*
X133351255Y-110489457D01*
X133494113Y-110560886D01*
X134065541Y-110560886D01*
X132351255Y-111275171D02*
X132494113Y-111203743D01*
X132565541Y-111132314D01*
X132636970Y-110989457D01*
X132636970Y-110560886D01*
X132565541Y-110418029D01*
X132494113Y-110346600D01*
X132351255Y-110275171D01*
X132136970Y-110275171D01*
X131994113Y-110346600D01*
X131922684Y-110418029D01*
X131851255Y-110560886D01*
X131851255Y-110989457D01*
X131922684Y-111132314D01*
X131994113Y-111203743D01*
X132136970Y-111275171D01*
X132351255Y-111275171D01*
X131351255Y-110275171D02*
X130994112Y-111275171D01*
X130636970Y-110275171D01*
X129494113Y-111203743D02*
X129636970Y-111275171D01*
X129922684Y-111275171D01*
X130065541Y-111203743D01*
X130136970Y-111060886D01*
X130136970Y-110489457D01*
X130065541Y-110346600D01*
X129922684Y-110275171D01*
X129636970Y-110275171D01*
X129494113Y-110346600D01*
X129422684Y-110489457D01*
X129422684Y-110632314D01*
X130136970Y-110775171D01*
X128779827Y-111275171D02*
X128779827Y-110275171D01*
X128779827Y-110560886D02*
X128708399Y-110418029D01*
X128636970Y-110346600D01*
X128494113Y-110275171D01*
X128351256Y-110275171D01*
X127779828Y-111203743D02*
X127779828Y-111275171D01*
X127851256Y-111418029D01*
X127922685Y-111489457D01*
X126065542Y-109918029D02*
X125994113Y-109846600D01*
X125851256Y-109775171D01*
X125494113Y-109775171D01*
X125351256Y-109846600D01*
X125279827Y-109918029D01*
X125208399Y-110060886D01*
X125208399Y-110203743D01*
X125279827Y-110418029D01*
X126136970Y-111275171D01*
X125208399Y-111275171D01*
X124279828Y-109775171D02*
X124136971Y-109775171D01*
X123994114Y-109846600D01*
X123922685Y-109918029D01*
X123851256Y-110060886D01*
X123779828Y-110346600D01*
X123779828Y-110703743D01*
X123851256Y-110989457D01*
X123922685Y-111132314D01*
X123994114Y-111203743D01*
X124136971Y-111275171D01*
X124279828Y-111275171D01*
X124422685Y-111203743D01*
X124494114Y-111132314D01*
X124565542Y-110989457D01*
X124636971Y-110703743D01*
X124636971Y-110346600D01*
X124565542Y-110060886D01*
X124494114Y-109918029D01*
X124422685Y-109846600D01*
X124279828Y-109775171D01*
X122351257Y-111275171D02*
X123208400Y-111275171D01*
X122779828Y-111275171D02*
X122779828Y-109775171D01*
X122922685Y-109989457D01*
X123065543Y-110132314D01*
X123208400Y-110203743D01*
X121494114Y-110418029D02*
X121636972Y-110346600D01*
X121708400Y-110275171D01*
X121779829Y-110132314D01*
X121779829Y-110060886D01*
X121708400Y-109918029D01*
X121636972Y-109846600D01*
X121494114Y-109775171D01*
X121208400Y-109775171D01*
X121065543Y-109846600D01*
X120994114Y-109918029D01*
X120922686Y-110060886D01*
X120922686Y-110132314D01*
X120994114Y-110275171D01*
X121065543Y-110346600D01*
X121208400Y-110418029D01*
X121494114Y-110418029D01*
X121636972Y-110489457D01*
X121708400Y-110560886D01*
X121779829Y-110703743D01*
X121779829Y-110989457D01*
X121708400Y-111132314D01*
X121636972Y-111203743D01*
X121494114Y-111275171D01*
X121208400Y-111275171D01*
X121065543Y-111203743D01*
X120994114Y-111132314D01*
X120922686Y-110989457D01*
X120922686Y-110703743D01*
X120994114Y-110560886D01*
X121065543Y-110489457D01*
X121208400Y-110418029D01*
X140065543Y-113396600D02*
X139351257Y-113396600D01*
X140208400Y-113825171D02*
X139708400Y-112325171D01*
X139208400Y-113825171D01*
X138708400Y-112825171D02*
X138708400Y-113825171D01*
X138708400Y-112968029D02*
X138636972Y-112896600D01*
X138494114Y-112825171D01*
X138279829Y-112825171D01*
X138136972Y-112896600D01*
X138065543Y-113039457D01*
X138065543Y-113825171D01*
X136708400Y-113825171D02*
X136708400Y-112325171D01*
X136708400Y-113753743D02*
X136851257Y-113825171D01*
X137136971Y-113825171D01*
X137279829Y-113753743D01*
X137351257Y-113682314D01*
X137422686Y-113539457D01*
X137422686Y-113110886D01*
X137351257Y-112968029D01*
X137279829Y-112896600D01*
X137136971Y-112825171D01*
X136851257Y-112825171D01*
X136708400Y-112896600D01*
X135994114Y-113825171D02*
X135994114Y-112825171D01*
X135994114Y-113110886D02*
X135922686Y-112968029D01*
X135851257Y-112896600D01*
X135708400Y-112825171D01*
X135565543Y-112825171D01*
X134494115Y-113753743D02*
X134636972Y-113825171D01*
X134922686Y-113825171D01*
X135065543Y-113753743D01*
X135136972Y-113610886D01*
X135136972Y-113039457D01*
X135065543Y-112896600D01*
X134922686Y-112825171D01*
X134636972Y-112825171D01*
X134494115Y-112896600D01*
X134422686Y-113039457D01*
X134422686Y-113182314D01*
X135136972Y-113325171D01*
X133922686Y-112825171D02*
X133636972Y-113825171D01*
X133351258Y-113110886D01*
X133065543Y-113825171D01*
X132779829Y-112825171D01*
X131279829Y-112325171D02*
X130779829Y-113825171D01*
X130279829Y-112325171D01*
X129136972Y-113825171D02*
X129136972Y-113039457D01*
X129208401Y-112896600D01*
X129351258Y-112825171D01*
X129636972Y-112825171D01*
X129779829Y-112896600D01*
X129136972Y-113753743D02*
X129279829Y-113825171D01*
X129636972Y-113825171D01*
X129779829Y-113753743D01*
X129851258Y-113610886D01*
X129851258Y-113468029D01*
X129779829Y-113325171D01*
X129636972Y-113253743D01*
X129279829Y-113253743D01*
X129136972Y-113182314D01*
X128422686Y-112825171D02*
X128422686Y-113825171D01*
X128422686Y-112968029D02*
X128351258Y-112896600D01*
X128208400Y-112825171D01*
X127994115Y-112825171D01*
X127851258Y-112896600D01*
X127779829Y-113039457D01*
X127779829Y-113825171D01*
X125922686Y-113825171D02*
X125922686Y-112325171D01*
X125922686Y-113039457D02*
X125065543Y-113039457D01*
X125065543Y-113825171D02*
X125065543Y-112325171D01*
X124136971Y-113825171D02*
X124279829Y-113753743D01*
X124351257Y-113682314D01*
X124422686Y-113539457D01*
X124422686Y-113110886D01*
X124351257Y-112968029D01*
X124279829Y-112896600D01*
X124136971Y-112825171D01*
X123922686Y-112825171D01*
X123779829Y-112896600D01*
X123708400Y-112968029D01*
X123636971Y-113110886D01*
X123636971Y-113539457D01*
X123708400Y-113682314D01*
X123779829Y-113753743D01*
X123922686Y-113825171D01*
X124136971Y-113825171D01*
X122994114Y-113825171D02*
X122994114Y-112825171D01*
X122994114Y-113110886D02*
X122922686Y-112968029D01*
X122851257Y-112896600D01*
X122708400Y-112825171D01*
X122565543Y-112825171D01*
X122065543Y-112825171D02*
X122065543Y-113825171D01*
X122065543Y-112968029D02*
X121994115Y-112896600D01*
X121851257Y-112825171D01*
X121636972Y-112825171D01*
X121494115Y-112896600D01*
X121422686Y-113039457D01*
X121422686Y-113825171D01*
D12*
G36*
X139705413Y-115149491D02*
X139597941Y-115160368D01*
X139513046Y-115181806D01*
X139449050Y-115214855D01*
X139404276Y-115260568D01*
X139377046Y-115319995D01*
X139368708Y-115360590D01*
X139358553Y-115421762D01*
X139347900Y-115457404D01*
X139336316Y-115468038D01*
X139323364Y-115454186D01*
X139312485Y-115428020D01*
X139296218Y-115398768D01*
X139270991Y-115389102D01*
X139265621Y-115388944D01*
X139239596Y-115394927D01*
X139232379Y-115414226D01*
X139224684Y-115442008D01*
X139204658Y-115448293D01*
X139179376Y-115433718D01*
X139157789Y-115418198D01*
X139147463Y-115422125D01*
X139147999Y-115446974D01*
X139158997Y-115494219D01*
X139161016Y-115501519D01*
X139185106Y-115588166D01*
X139203692Y-115656705D01*
X139218562Y-115714035D01*
X139231506Y-115767059D01*
X139244310Y-115822677D01*
X139244901Y-115825303D01*
X139274929Y-115948925D01*
X139308891Y-116067507D01*
X139349031Y-116190020D01*
X139370113Y-116256827D01*
X139390922Y-116331739D01*
X139406929Y-116398431D01*
X139421939Y-116457725D01*
X139440760Y-116516114D01*
X139459520Y-116561692D01*
X139460946Y-116564514D01*
X139479107Y-116603259D01*
X139490679Y-116634806D01*
X139492892Y-116646383D01*
X139499441Y-116672464D01*
X139510685Y-116695222D01*
X139518519Y-116713832D01*
X139528385Y-116748289D01*
X139540638Y-116800272D01*
X139555635Y-116871460D01*
X139573731Y-116963531D01*
X139595280Y-117078164D01*
X139617469Y-117199508D01*
X139628326Y-117254888D01*
X139639462Y-117304224D01*
X139648896Y-117338928D01*
X139651025Y-117345016D01*
X139659403Y-117379199D01*
X139659388Y-117403631D01*
X139651116Y-117411415D01*
X139635902Y-117397422D01*
X139615450Y-117364448D01*
X139591465Y-117315291D01*
X139565653Y-117252748D01*
X139562748Y-117245097D01*
X139542738Y-117196510D01*
X139522548Y-117154854D01*
X139506371Y-117128734D01*
X139505635Y-117127867D01*
X139483725Y-117094279D01*
X139473244Y-117069251D01*
X139462770Y-117040327D01*
X139445213Y-116997891D01*
X139427728Y-116958533D01*
X139401849Y-116902026D01*
X139374007Y-116840987D01*
X139358430Y-116806706D01*
X139339217Y-116766919D01*
X139322872Y-116737605D01*
X139314197Y-116726336D01*
X139304348Y-116711840D01*
X139288093Y-116679533D01*
X139268611Y-116635829D01*
X139264615Y-116626304D01*
X139237572Y-116568469D01*
X139209057Y-116526316D01*
X139172129Y-116490055D01*
X139162293Y-116481981D01*
X139125874Y-116455095D01*
X139095315Y-116436620D01*
X139079595Y-116430995D01*
X139054741Y-116436485D01*
X139015120Y-116450831D01*
X138969064Y-116470844D01*
X138945815Y-116482188D01*
X138932164Y-116501420D01*
X138920558Y-116541091D01*
X138915826Y-116569027D01*
X138907577Y-116619813D01*
X138897685Y-116667196D01*
X138891696Y-116689611D01*
X138885651Y-116727550D01*
X138883738Y-116786889D01*
X138886067Y-116863290D01*
X138886943Y-116878483D01*
X138890536Y-116940899D01*
X138891883Y-116980818D01*
X138890645Y-117001723D01*
X138886478Y-117007101D01*
X138879042Y-117000434D01*
X138875451Y-116995692D01*
X138855088Y-116962158D01*
X138830432Y-116913701D01*
X138805447Y-116859105D01*
X138784097Y-116807154D01*
X138770344Y-116766633D01*
X138768352Y-116758323D01*
X138754216Y-116720273D01*
X138735957Y-116692954D01*
X138717746Y-116669241D01*
X138711353Y-116653898D01*
X138701372Y-116640259D01*
X138675605Y-116618276D01*
X138650176Y-116599962D01*
X138591600Y-116570539D01*
X138536976Y-116565747D01*
X138482208Y-116585439D01*
X138469001Y-116593520D01*
X138456657Y-116602494D01*
X138447761Y-116613312D01*
X138442089Y-116629621D01*
X138439414Y-116655069D01*
X138439510Y-116693304D01*
X138442150Y-116747974D01*
X138447110Y-116822726D01*
X138451223Y-116880379D01*
X138458502Y-116981698D01*
X138463996Y-117059995D01*
X138467755Y-117118236D01*
X138469832Y-117159385D01*
X138470276Y-117186408D01*
X138469141Y-117202269D01*
X138466477Y-117209934D01*
X138462335Y-117212367D01*
X138456976Y-117212533D01*
X138439190Y-117201743D01*
X138431728Y-117187825D01*
X138418328Y-117163791D01*
X138393545Y-117131660D01*
X138380582Y-117117201D01*
X138347641Y-117077512D01*
X138313894Y-117029673D01*
X138300746Y-117008396D01*
X138274812Y-116967654D01*
X138248764Y-116932784D01*
X138236515Y-116919353D01*
X138219523Y-116898577D01*
X138192843Y-116860452D01*
X138170733Y-116826647D01*
X137939666Y-116826647D01*
X137922372Y-116853398D01*
X137888564Y-116873677D01*
X137855545Y-116868940D01*
X137826650Y-116840096D01*
X137818387Y-116825020D01*
X137799173Y-116771000D01*
X137789934Y-116715416D01*
X137791326Y-116666609D01*
X137803365Y-116633744D01*
X137815384Y-116620416D01*
X137825053Y-116622080D01*
X137837080Y-116642153D01*
X137848219Y-116666308D01*
X137871630Y-116708773D01*
X137899259Y-116746099D01*
X137908507Y-116755650D01*
X137937005Y-116792389D01*
X137939666Y-116826647D01*
X138170733Y-116826647D01*
X138159924Y-116810122D01*
X138124218Y-116752734D01*
X138118637Y-116743507D01*
X138068193Y-116662827D01*
X138025337Y-116601927D01*
X137986751Y-116556924D01*
X137949122Y-116523938D01*
X137910513Y-116499810D01*
X137867665Y-116484762D01*
X137824157Y-116481212D01*
X137790032Y-116489513D01*
X137782143Y-116495303D01*
X137756069Y-116509793D01*
X137733388Y-116499073D01*
X137715364Y-116463896D01*
X137712375Y-116453790D01*
X137685479Y-116365105D01*
X137653766Y-116277805D01*
X137620793Y-116201209D01*
X137601719Y-116163969D01*
X137578845Y-116121345D01*
X137547528Y-116060588D01*
X137510452Y-115987123D01*
X137470301Y-115906372D01*
X137429758Y-115823759D01*
X137391508Y-115744707D01*
X137358235Y-115674639D01*
X137339038Y-115633174D01*
X137316163Y-115587294D01*
X137294974Y-115552315D01*
X137278989Y-115533794D01*
X137275129Y-115532226D01*
X137253108Y-115540166D01*
X137221943Y-115559990D01*
X137189147Y-115585703D01*
X137162232Y-115611310D01*
X137148712Y-115630816D01*
X137148276Y-115633450D01*
X137151584Y-115659712D01*
X137159885Y-115700541D01*
X137170751Y-115745535D01*
X137181751Y-115784291D01*
X137187007Y-115799251D01*
X137196871Y-115827769D01*
X137209086Y-115868238D01*
X137213401Y-115883690D01*
X137229095Y-115931421D01*
X137250467Y-115984822D01*
X137260425Y-116006615D01*
X137277947Y-116046406D01*
X137289330Y-116078899D01*
X137291755Y-116091510D01*
X137296267Y-116117737D01*
X137306991Y-116154320D01*
X137320211Y-116190322D01*
X137332212Y-116214808D01*
X137334734Y-116217999D01*
X137341851Y-116236911D01*
X137343661Y-116256551D01*
X137348801Y-116283265D01*
X137356687Y-116294226D01*
X137365582Y-116311590D01*
X137369681Y-116342995D01*
X137369712Y-116346041D01*
X137375492Y-116389458D01*
X137388068Y-116426683D01*
X137401370Y-116457758D01*
X137418594Y-116503771D01*
X137436005Y-116554738D01*
X137456240Y-116610383D01*
X137483573Y-116676778D01*
X137512892Y-116741659D01*
X137520145Y-116756636D01*
X137549197Y-116816073D01*
X137569403Y-116859458D01*
X137583629Y-116894007D01*
X137594741Y-116926938D01*
X137605604Y-116965469D01*
X137610659Y-116984585D01*
X137618825Y-117022516D01*
X137627536Y-117074037D01*
X137636118Y-117133454D01*
X137643896Y-117195076D01*
X137650197Y-117253212D01*
X137654348Y-117302168D01*
X137655673Y-117336255D01*
X137653868Y-117349540D01*
X137635370Y-117350523D01*
X137604838Y-117329186D01*
X137562760Y-117286052D01*
X137509623Y-117221645D01*
X137445917Y-117136490D01*
X137415302Y-117093492D01*
X137378495Y-117042418D01*
X137335794Y-116985011D01*
X137303380Y-116942662D01*
X137269231Y-116894287D01*
X137238690Y-116843150D01*
X137219562Y-116803108D01*
X137196673Y-116757897D01*
X137165966Y-116728223D01*
X137122952Y-116712170D01*
X137063138Y-116707820D01*
X137004101Y-116711125D01*
X136932372Y-116713878D01*
X136881348Y-116706783D01*
X136847267Y-116688947D01*
X136831757Y-116670067D01*
X136800594Y-116640299D01*
X136755377Y-116623509D01*
X136706275Y-116623092D01*
X136697223Y-116625178D01*
X136647531Y-116648636D01*
X136620189Y-116683516D01*
X136615854Y-116726819D01*
X136635182Y-116775543D01*
X136657796Y-116805444D01*
X136698772Y-116869737D01*
X136720896Y-116945606D01*
X136721875Y-117022028D01*
X136715201Y-117072498D01*
X136651445Y-117064946D01*
X136599668Y-117052876D01*
X136545783Y-117030745D01*
X136496415Y-117002436D01*
X136458187Y-116971835D01*
X136437721Y-116942823D01*
X136436625Y-116938995D01*
X136411128Y-116841051D01*
X136378938Y-116743677D01*
X136342377Y-116652361D01*
X136303762Y-116572590D01*
X136265415Y-116509852D01*
X136243901Y-116483097D01*
X136217717Y-116450991D01*
X136198538Y-116421226D01*
X136181588Y-116399335D01*
X136158051Y-116393675D01*
X136122511Y-116404088D01*
X136092871Y-116418137D01*
X136049138Y-116444802D01*
X136021631Y-116475033D01*
X136007566Y-116514954D01*
X136004159Y-116570690D01*
X136005784Y-116609724D01*
X136012659Y-116675960D01*
X136026135Y-116729892D01*
X136049768Y-116785088D01*
X136053913Y-116793342D01*
X136073483Y-116834850D01*
X136085733Y-116866917D01*
X136088221Y-116883071D01*
X136087921Y-116883487D01*
X136077225Y-116883664D01*
X136057931Y-116869606D01*
X136028756Y-116839903D01*
X135988418Y-116793144D01*
X135935636Y-116727920D01*
X135869127Y-116642820D01*
X135868894Y-116642519D01*
X135809727Y-116567415D01*
X135762945Y-116511988D01*
X135726288Y-116474372D01*
X135697496Y-116452697D01*
X135674308Y-116445096D01*
X135654465Y-116449702D01*
X135644150Y-116456768D01*
X135623954Y-116482621D01*
X135617390Y-116497299D01*
X135602776Y-116517788D01*
X135590835Y-116522174D01*
X135576529Y-116525196D01*
X135574931Y-116536973D01*
X135587133Y-116561574D01*
X135611488Y-116599032D01*
X135633521Y-116634665D01*
X135647596Y-116663415D01*
X135650328Y-116673893D01*
X135656025Y-116692111D01*
X135671443Y-116727777D01*
X135694069Y-116775340D01*
X135715314Y-116817529D01*
X135741215Y-116868869D01*
X135761394Y-116910963D01*
X135773581Y-116938931D01*
X135776002Y-116947919D01*
X135764426Y-116942656D01*
X135737455Y-116924869D01*
X135700256Y-116898028D01*
X135688221Y-116888992D01*
X135600398Y-116812800D01*
X135520328Y-116725042D01*
X135456217Y-116634810D01*
X135451220Y-116626379D01*
X135426024Y-116589435D01*
X135388996Y-116542731D01*
X135346940Y-116494709D01*
X135334088Y-116481024D01*
X135294299Y-116440210D01*
X135266829Y-116415308D01*
X135246345Y-116403072D01*
X135227515Y-116400254D01*
X135206457Y-116403313D01*
X135169622Y-116418031D01*
X135142333Y-116449164D01*
X135136020Y-116460169D01*
X135110174Y-116507998D01*
X135147894Y-116580095D01*
X135172965Y-116622043D01*
X135198969Y-116656283D01*
X135215615Y-116671850D01*
X135243927Y-116696615D01*
X135259559Y-116717559D01*
X135267178Y-116738409D01*
X135260268Y-116743060D01*
X135242146Y-116734291D01*
X135216130Y-116714879D01*
X135185535Y-116687606D01*
X135153680Y-116655248D01*
X135123881Y-116620586D01*
X135099455Y-116586398D01*
X135095801Y-116580366D01*
X135059110Y-116531656D01*
X135018244Y-116507048D01*
X134969045Y-116504594D01*
X134945019Y-116509667D01*
X134916553Y-116515835D01*
X134892223Y-116515188D01*
X134864108Y-116505792D01*
X134824286Y-116485717D01*
X134806071Y-116475785D01*
X134756407Y-116446576D01*
X134709794Y-116415930D01*
X134676294Y-116390464D01*
X134676208Y-116390389D01*
X134632191Y-116360521D01*
X134596001Y-116353133D01*
X134570162Y-116367579D01*
X134557201Y-116403217D01*
X134556174Y-116421016D01*
X134565463Y-116451576D01*
X134589487Y-116490854D01*
X134622481Y-116531494D01*
X134658680Y-116566139D01*
X134683174Y-116583069D01*
X134710753Y-116600318D01*
X134724981Y-116613410D01*
X134725507Y-116615087D01*
X134736387Y-116624654D01*
X134764651Y-116641265D01*
X134803735Y-116661711D01*
X134847074Y-116682781D01*
X134888104Y-116701266D01*
X134920261Y-116713956D01*
X134935518Y-116717787D01*
X134953361Y-116726283D01*
X134983486Y-116748433D01*
X135019629Y-116779594D01*
X135022538Y-116782286D01*
X135070299Y-116825483D01*
X135122985Y-116871297D01*
X135159307Y-116901676D01*
X135204456Y-116940495D01*
X135255733Y-116987613D01*
X135298451Y-117029259D01*
X135334233Y-117063112D01*
X135364595Y-117087454D01*
X135384001Y-117097950D01*
X135386226Y-117097976D01*
X135409864Y-117100712D01*
X135429618Y-117108717D01*
X135464396Y-117115480D01*
X135494189Y-117100342D01*
X135514239Y-117067451D01*
X135520071Y-117029874D01*
X135521487Y-117001723D01*
X135527011Y-116983779D01*
X135538561Y-116977162D01*
X135558053Y-116982990D01*
X135587406Y-117002383D01*
X135628535Y-117036457D01*
X135683357Y-117086333D01*
X135753790Y-117153128D01*
X135788513Y-117186521D01*
X135818201Y-117210802D01*
X135843637Y-117224463D01*
X135849616Y-117225559D01*
X135872579Y-117232825D01*
X135878276Y-117238585D01*
X135897987Y-117249405D01*
X135929413Y-117250724D01*
X135960302Y-117243256D01*
X135975248Y-117232940D01*
X135983637Y-117209406D01*
X135984892Y-117165772D01*
X135981673Y-117122222D01*
X135978266Y-117067916D01*
X135981597Y-117037734D01*
X135992260Y-117030481D01*
X136010848Y-117044967D01*
X136016707Y-117051731D01*
X136041213Y-117072611D01*
X136073661Y-117091588D01*
X136131361Y-117120646D01*
X136167778Y-117144232D01*
X136186489Y-117164664D01*
X136186542Y-117164759D01*
X136205054Y-117177666D01*
X136240316Y-117188899D01*
X136263466Y-117193123D01*
X136305484Y-117197096D01*
X136332308Y-117193075D01*
X136354108Y-117179022D01*
X136359869Y-117173791D01*
X136382692Y-117155356D01*
X136402006Y-117153494D01*
X136428802Y-117165359D01*
X136461333Y-117184807D01*
X136502674Y-117212912D01*
X136527937Y-117231509D01*
X136564007Y-117256636D01*
X136594109Y-117273398D01*
X136607825Y-117277662D01*
X136625095Y-117284178D01*
X136627251Y-117289652D01*
X136638707Y-117303387D01*
X136668398Y-117310301D01*
X136709314Y-117309991D01*
X136754439Y-117302052D01*
X136768684Y-117297814D01*
X136833460Y-117265724D01*
X136879761Y-117218006D01*
X136908030Y-117153589D01*
X136918710Y-117071406D01*
X136912246Y-116970385D01*
X136910268Y-116956471D01*
X136900209Y-116889280D01*
X136951626Y-116880593D01*
X136997303Y-116878954D01*
X137033881Y-116888674D01*
X137054672Y-116907382D01*
X137057097Y-116917983D01*
X137065292Y-116937878D01*
X137085687Y-116966210D01*
X137092917Y-116974514D01*
X137116912Y-117004530D01*
X137148167Y-117048526D01*
X137180722Y-117098036D01*
X137187353Y-117108644D01*
X137226708Y-117167201D01*
X137273844Y-117230126D01*
X137318645Y-117283921D01*
X137319192Y-117284528D01*
X137356734Y-117327766D01*
X137389974Y-117368937D01*
X137412782Y-117400385D01*
X137415661Y-117405017D01*
X137441151Y-117436104D01*
X137478050Y-117468178D01*
X137493899Y-117479130D01*
X137535821Y-117508880D01*
X137574924Y-117541745D01*
X137585482Y-117552083D01*
X137607124Y-117576263D01*
X137611202Y-117587411D01*
X137599207Y-117590265D01*
X137597493Y-117590277D01*
X137581396Y-117593670D01*
X137587991Y-117605356D01*
X137606338Y-117613674D01*
X137621296Y-117605308D01*
X137647487Y-117596532D01*
X137678659Y-117598010D01*
X137731956Y-117596570D01*
X137779018Y-117570402D01*
X137818634Y-117520341D01*
X137833079Y-117491670D01*
X137850665Y-117454072D01*
X137864495Y-117428421D01*
X137870577Y-117420944D01*
X137880700Y-117430969D01*
X137891795Y-117448970D01*
X137900401Y-117468722D01*
X137893290Y-117471483D01*
X137885741Y-117468917D01*
X137869333Y-117464348D01*
X137866405Y-117471975D01*
X137876109Y-117496831D01*
X137879699Y-117504770D01*
X137891822Y-117526485D01*
X137902040Y-117526288D01*
X137909889Y-117516963D01*
X137921418Y-117506461D01*
X137934637Y-117511540D01*
X137955576Y-117534996D01*
X137959529Y-117539985D01*
X137986384Y-117573481D01*
X138009810Y-117601705D01*
X138014006Y-117606559D01*
X138030156Y-117634288D01*
X138034020Y-117652062D01*
X138027119Y-117657449D01*
X138006207Y-117641682D01*
X137975609Y-117609729D01*
X137946565Y-117579181D01*
X137925585Y-117560533D01*
X137917018Y-117557627D01*
X137916994Y-117557945D01*
X137925477Y-117582379D01*
X137947198Y-117615837D01*
X137975763Y-117650217D01*
X138004781Y-117677418D01*
X138018112Y-117686128D01*
X138059565Y-117697753D01*
X138113959Y-117701140D01*
X138170401Y-117696764D01*
X138218002Y-117685102D01*
X138235164Y-117676635D01*
X138275312Y-117636134D01*
X138304360Y-117577841D01*
X138319263Y-117508736D01*
X138320584Y-117480847D01*
X138322442Y-117440176D01*
X138327222Y-117411296D01*
X138331617Y-117402637D01*
X138346508Y-117406904D01*
X138370690Y-117425752D01*
X138380463Y-117435400D01*
X138403350Y-117461031D01*
X138409451Y-117475998D01*
X138400738Y-117487709D01*
X138395482Y-117491732D01*
X138375631Y-117510350D01*
X138379395Y-117521000D01*
X138407653Y-117525021D01*
X138417429Y-117525149D01*
X138458136Y-117528525D01*
X138492326Y-117536512D01*
X138527924Y-117541308D01*
X138551107Y-117537184D01*
X138578012Y-117516664D01*
X138602704Y-117481728D01*
X138618130Y-117443555D01*
X138620174Y-117427685D01*
X138625344Y-117403073D01*
X138634548Y-117377768D01*
X138109854Y-117377768D01*
X138104814Y-117404558D01*
X138091465Y-117407238D01*
X138070354Y-117387125D01*
X138052953Y-117367306D01*
X138023879Y-117335818D01*
X137991475Y-117301626D01*
X137954794Y-117259374D01*
X137918556Y-117210880D01*
X137886728Y-117162292D01*
X137863279Y-117119755D01*
X137852175Y-117089416D01*
X137851783Y-117085211D01*
X137862472Y-117068393D01*
X137881703Y-117057185D01*
X137911214Y-117041335D01*
X137946187Y-117016589D01*
X137953536Y-117010597D01*
X137983375Y-116990128D01*
X138007447Y-116981475D01*
X138012574Y-116982050D01*
X138031228Y-116999825D01*
X138052234Y-117035479D01*
X138072455Y-117081423D01*
X138088756Y-117130070D01*
X138098002Y-117173831D01*
X138099006Y-117191202D01*
X138099857Y-117234697D01*
X138103313Y-117289489D01*
X138106803Y-117326508D01*
X138109854Y-117377768D01*
X138634548Y-117377768D01*
X138638167Y-117367821D01*
X138642176Y-117358653D01*
X138656487Y-117324917D01*
X138664910Y-117300811D01*
X138665658Y-117297200D01*
X138670522Y-117277365D01*
X138680790Y-117244153D01*
X138684211Y-117233909D01*
X138693398Y-117197587D01*
X138693952Y-117160578D01*
X138685938Y-117111378D01*
X138684920Y-117106527D01*
X138674505Y-117064484D01*
X138664109Y-117033761D01*
X138657390Y-117022511D01*
X138648382Y-117005363D01*
X138646225Y-116987434D01*
X138647321Y-116968129D01*
X138654738Y-116969179D01*
X138670043Y-116984946D01*
X138686632Y-117009536D01*
X138707899Y-117050096D01*
X138729441Y-117098181D01*
X138730929Y-117101815D01*
X138755203Y-117157864D01*
X138786126Y-117224234D01*
X138817828Y-117288403D01*
X138824342Y-117301015D01*
X138848969Y-117349583D01*
X138868136Y-117389957D01*
X138879116Y-117416268D01*
X138880687Y-117422411D01*
X138889055Y-117447485D01*
X138910013Y-117480415D01*
X138937336Y-117513682D01*
X138964802Y-117539766D01*
X138986188Y-117551148D01*
X138987263Y-117551200D01*
X139021247Y-117547146D01*
X139062280Y-117537004D01*
X139100652Y-117523807D01*
X139126653Y-117510586D01*
X139131231Y-117506244D01*
X139137213Y-117483232D01*
X139139811Y-117439936D01*
X139139182Y-117381883D01*
X139135482Y-117314599D01*
X139128868Y-117243610D01*
X139122345Y-117192995D01*
X139114578Y-117137041D01*
X139111300Y-117101000D01*
X139112789Y-117079074D01*
X139119323Y-117065466D01*
X139128912Y-117056226D01*
X139140794Y-117043518D01*
X139146473Y-117026067D01*
X139146588Y-116997308D01*
X139141778Y-116950674D01*
X139140328Y-116938995D01*
X139132559Y-116881903D01*
X139124076Y-116826700D01*
X139116830Y-116785944D01*
X139111552Y-116748956D01*
X139115582Y-116732426D01*
X139121087Y-116730585D01*
X139134597Y-116741436D01*
X139156054Y-116770314D01*
X139182248Y-116811702D01*
X139209971Y-116860083D01*
X139236016Y-116909941D01*
X139257173Y-116955760D01*
X139267055Y-116981565D01*
X139280561Y-117016508D01*
X139302366Y-117067042D01*
X139329078Y-117125480D01*
X139348866Y-117166944D01*
X139375654Y-117223172D01*
X139398714Y-117273727D01*
X139415202Y-117312247D01*
X139421648Y-117329764D01*
X139432703Y-117356793D01*
X139453087Y-117397738D01*
X139478614Y-117444244D01*
X139481514Y-117449267D01*
X139505523Y-117491784D01*
X139523335Y-117525511D01*
X139531711Y-117544261D01*
X139531969Y-117545661D01*
X139537292Y-117561600D01*
X139551091Y-117593235D01*
X139566061Y-117624799D01*
X139592912Y-117670974D01*
X139616148Y-117692777D01*
X139623591Y-117694482D01*
X139645822Y-117701247D01*
X139651741Y-117708620D01*
X139665816Y-117712175D01*
X139699390Y-117702796D01*
X139728587Y-117690856D01*
X139771779Y-117669373D01*
X139780996Y-117661918D01*
X139636174Y-117661918D01*
X139629661Y-117668431D01*
X139623148Y-117661918D01*
X139629661Y-117655405D01*
X139636174Y-117661918D01*
X139780996Y-117661918D01*
X139796802Y-117649134D01*
X139810489Y-117624073D01*
X139813078Y-117615868D01*
X139825350Y-117585386D01*
X139838815Y-117568462D01*
X139840115Y-117567886D01*
X139855976Y-117573821D01*
X139884945Y-117593940D01*
X139921453Y-117624260D01*
X139931099Y-117632962D01*
X140014755Y-117699880D01*
X140095088Y-117742916D01*
X140175540Y-117763347D01*
X140259552Y-117762449D01*
X140274430Y-117760268D01*
X140375516Y-117730993D01*
X140471104Y-117679016D01*
X140555770Y-117607687D01*
X140595116Y-117562202D01*
X140623686Y-117520816D01*
X140651272Y-117473675D01*
X140675082Y-117426628D01*
X140692322Y-117385525D01*
X140700198Y-117356216D01*
X140698498Y-117345695D01*
X140700239Y-117331843D01*
X140710483Y-117302190D01*
X140719810Y-117279722D01*
X140739161Y-117225051D01*
X140759070Y-117149576D01*
X140759527Y-117147405D01*
X140576906Y-117147405D01*
X140571502Y-117210172D01*
X140553969Y-117280273D01*
X140527395Y-117350092D01*
X140494869Y-117412013D01*
X140459478Y-117458418D01*
X140445978Y-117470356D01*
X140407949Y-117501417D01*
X140371986Y-117534671D01*
X140343509Y-117564664D01*
X140327938Y-117585938D01*
X140326533Y-117590582D01*
X140315762Y-117602412D01*
X140289768Y-117617857D01*
X140258031Y-117632258D01*
X140230031Y-117640956D01*
X140222328Y-117641797D01*
X140198954Y-117636659D01*
X140163664Y-117623756D01*
X140149891Y-117617781D01*
X140107880Y-117592942D01*
X140066162Y-117558924D01*
X140030616Y-117521697D01*
X140007125Y-117487234D01*
X140000950Y-117466533D01*
X139995135Y-117440543D01*
X139980415Y-117402203D01*
X139968273Y-117376403D01*
X139950138Y-117337908D01*
X139938337Y-117307584D01*
X139935764Y-117296267D01*
X139930378Y-117279408D01*
X139915544Y-117243657D01*
X139893242Y-117193529D01*
X139865457Y-117133542D01*
X139850601Y-117102250D01*
X139819325Y-117034484D01*
X139791495Y-116969703D01*
X139769559Y-116913939D01*
X139755966Y-116873219D01*
X139753557Y-116863258D01*
X139742121Y-116818056D01*
X139724437Y-116762401D01*
X139707899Y-116717559D01*
X139693476Y-116680264D01*
X139679574Y-116641391D01*
X139665035Y-116597120D01*
X139648698Y-116543632D01*
X139629403Y-116477110D01*
X139605991Y-116393733D01*
X139577301Y-116289683D01*
X139571408Y-116268174D01*
X139538160Y-116146972D01*
X139510885Y-116048116D01*
X139488784Y-115968796D01*
X139471057Y-115906202D01*
X139456905Y-115857526D01*
X139445528Y-115819958D01*
X139436126Y-115790688D01*
X139432409Y-115779713D01*
X139416883Y-115731288D01*
X139400444Y-115675047D01*
X139393514Y-115649456D01*
X139381895Y-115605608D01*
X139372044Y-115569581D01*
X139367847Y-115555020D01*
X139369593Y-115535826D01*
X139381555Y-115532226D01*
X139405932Y-115525149D01*
X139440043Y-115507619D01*
X139475050Y-115485187D01*
X139502114Y-115463404D01*
X139512080Y-115450259D01*
X139516727Y-115428399D01*
X139522607Y-115391989D01*
X139524864Y-115375918D01*
X139533690Y-115326994D01*
X139547449Y-115298561D01*
X139571628Y-115285066D01*
X139611712Y-115280953D01*
X139618798Y-115280811D01*
X139658035Y-115283108D01*
X139696452Y-115293107D01*
X139742430Y-115313548D01*
X139779956Y-115333522D01*
X139819801Y-115358458D01*
X139867181Y-115392559D01*
X139917700Y-115432084D01*
X139966961Y-115473291D01*
X140010570Y-115512440D01*
X140044130Y-115545789D01*
X140063247Y-115569599D01*
X140066020Y-115576986D01*
X140073698Y-115592603D01*
X140092733Y-115618663D01*
X140098584Y-115625781D01*
X140119712Y-115654846D01*
X140130705Y-115677694D01*
X140131148Y-115680927D01*
X140140127Y-115698777D01*
X140162919Y-115725428D01*
X140177719Y-115739751D01*
X140197859Y-115759539D01*
X140215485Y-115781359D01*
X140232416Y-115808961D01*
X140250469Y-115846094D01*
X140271461Y-115896507D01*
X140297210Y-115963951D01*
X140329534Y-116052175D01*
X140330645Y-116055238D01*
X140356811Y-116126209D01*
X140384037Y-116198021D01*
X140409017Y-116262063D01*
X140427636Y-116307822D01*
X140477870Y-116437128D01*
X140517189Y-116560274D01*
X140544903Y-116673981D01*
X140560320Y-116774970D01*
X140562750Y-116859960D01*
X140555207Y-116912944D01*
X140553071Y-116942128D01*
X140555448Y-116987033D01*
X140561646Y-117036687D01*
X140569073Y-117084977D01*
X140574545Y-117124619D01*
X140576899Y-117147177D01*
X140576906Y-117147405D01*
X140759527Y-117147405D01*
X140778282Y-117058482D01*
X140791271Y-116984321D01*
X140789453Y-116946557D01*
X140770480Y-116920430D01*
X140751199Y-116892958D01*
X140743664Y-116851973D01*
X140743277Y-116836027D01*
X140740103Y-116776024D01*
X140731674Y-116702903D01*
X140719433Y-116625199D01*
X140704820Y-116551448D01*
X140689279Y-116490186D01*
X140680338Y-116463559D01*
X140664933Y-116417839D01*
X140648252Y-116358727D01*
X140633727Y-116298452D01*
X140632821Y-116294226D01*
X140612786Y-116203282D01*
X140595802Y-116134862D01*
X140580759Y-116085771D01*
X140566547Y-116052814D01*
X140552059Y-116032798D01*
X140538846Y-116023641D01*
X140511286Y-115997493D01*
X140494182Y-115956670D01*
X140481761Y-115911722D01*
X140469868Y-115869789D01*
X140468160Y-115863908D01*
X140454248Y-115832881D01*
X140429476Y-115791330D01*
X140402818Y-115753190D01*
X140370369Y-115708772D01*
X140330785Y-115652448D01*
X140291050Y-115594205D01*
X140278668Y-115575621D01*
X140242975Y-115525181D01*
X140202853Y-115474072D01*
X140162206Y-115426640D01*
X140124938Y-115387234D01*
X140094954Y-115360198D01*
X140076159Y-115349880D01*
X140075880Y-115349874D01*
X140062892Y-115341731D01*
X140034674Y-115319565D01*
X139995377Y-115286755D01*
X139949156Y-115246685D01*
X139948980Y-115246529D01*
X139831758Y-115143192D01*
X139705413Y-115149491D01*
X139705413Y-115149491D01*
G37*
X139705413Y-115149491D02*
X139597941Y-115160368D01*
X139513046Y-115181806D01*
X139449050Y-115214855D01*
X139404276Y-115260568D01*
X139377046Y-115319995D01*
X139368708Y-115360590D01*
X139358553Y-115421762D01*
X139347900Y-115457404D01*
X139336316Y-115468038D01*
X139323364Y-115454186D01*
X139312485Y-115428020D01*
X139296218Y-115398768D01*
X139270991Y-115389102D01*
X139265621Y-115388944D01*
X139239596Y-115394927D01*
X139232379Y-115414226D01*
X139224684Y-115442008D01*
X139204658Y-115448293D01*
X139179376Y-115433718D01*
X139157789Y-115418198D01*
X139147463Y-115422125D01*
X139147999Y-115446974D01*
X139158997Y-115494219D01*
X139161016Y-115501519D01*
X139185106Y-115588166D01*
X139203692Y-115656705D01*
X139218562Y-115714035D01*
X139231506Y-115767059D01*
X139244310Y-115822677D01*
X139244901Y-115825303D01*
X139274929Y-115948925D01*
X139308891Y-116067507D01*
X139349031Y-116190020D01*
X139370113Y-116256827D01*
X139390922Y-116331739D01*
X139406929Y-116398431D01*
X139421939Y-116457725D01*
X139440760Y-116516114D01*
X139459520Y-116561692D01*
X139460946Y-116564514D01*
X139479107Y-116603259D01*
X139490679Y-116634806D01*
X139492892Y-116646383D01*
X139499441Y-116672464D01*
X139510685Y-116695222D01*
X139518519Y-116713832D01*
X139528385Y-116748289D01*
X139540638Y-116800272D01*
X139555635Y-116871460D01*
X139573731Y-116963531D01*
X139595280Y-117078164D01*
X139617469Y-117199508D01*
X139628326Y-117254888D01*
X139639462Y-117304224D01*
X139648896Y-117338928D01*
X139651025Y-117345016D01*
X139659403Y-117379199D01*
X139659388Y-117403631D01*
X139651116Y-117411415D01*
X139635902Y-117397422D01*
X139615450Y-117364448D01*
X139591465Y-117315291D01*
X139565653Y-117252748D01*
X139562748Y-117245097D01*
X139542738Y-117196510D01*
X139522548Y-117154854D01*
X139506371Y-117128734D01*
X139505635Y-117127867D01*
X139483725Y-117094279D01*
X139473244Y-117069251D01*
X139462770Y-117040327D01*
X139445213Y-116997891D01*
X139427728Y-116958533D01*
X139401849Y-116902026D01*
X139374007Y-116840987D01*
X139358430Y-116806706D01*
X139339217Y-116766919D01*
X139322872Y-116737605D01*
X139314197Y-116726336D01*
X139304348Y-116711840D01*
X139288093Y-116679533D01*
X139268611Y-116635829D01*
X139264615Y-116626304D01*
X139237572Y-116568469D01*
X139209057Y-116526316D01*
X139172129Y-116490055D01*
X139162293Y-116481981D01*
X139125874Y-116455095D01*
X139095315Y-116436620D01*
X139079595Y-116430995D01*
X139054741Y-116436485D01*
X139015120Y-116450831D01*
X138969064Y-116470844D01*
X138945815Y-116482188D01*
X138932164Y-116501420D01*
X138920558Y-116541091D01*
X138915826Y-116569027D01*
X138907577Y-116619813D01*
X138897685Y-116667196D01*
X138891696Y-116689611D01*
X138885651Y-116727550D01*
X138883738Y-116786889D01*
X138886067Y-116863290D01*
X138886943Y-116878483D01*
X138890536Y-116940899D01*
X138891883Y-116980818D01*
X138890645Y-117001723D01*
X138886478Y-117007101D01*
X138879042Y-117000434D01*
X138875451Y-116995692D01*
X138855088Y-116962158D01*
X138830432Y-116913701D01*
X138805447Y-116859105D01*
X138784097Y-116807154D01*
X138770344Y-116766633D01*
X138768352Y-116758323D01*
X138754216Y-116720273D01*
X138735957Y-116692954D01*
X138717746Y-116669241D01*
X138711353Y-116653898D01*
X138701372Y-116640259D01*
X138675605Y-116618276D01*
X138650176Y-116599962D01*
X138591600Y-116570539D01*
X138536976Y-116565747D01*
X138482208Y-116585439D01*
X138469001Y-116593520D01*
X138456657Y-116602494D01*
X138447761Y-116613312D01*
X138442089Y-116629621D01*
X138439414Y-116655069D01*
X138439510Y-116693304D01*
X138442150Y-116747974D01*
X138447110Y-116822726D01*
X138451223Y-116880379D01*
X138458502Y-116981698D01*
X138463996Y-117059995D01*
X138467755Y-117118236D01*
X138469832Y-117159385D01*
X138470276Y-117186408D01*
X138469141Y-117202269D01*
X138466477Y-117209934D01*
X138462335Y-117212367D01*
X138456976Y-117212533D01*
X138439190Y-117201743D01*
X138431728Y-117187825D01*
X138418328Y-117163791D01*
X138393545Y-117131660D01*
X138380582Y-117117201D01*
X138347641Y-117077512D01*
X138313894Y-117029673D01*
X138300746Y-117008396D01*
X138274812Y-116967654D01*
X138248764Y-116932784D01*
X138236515Y-116919353D01*
X138219523Y-116898577D01*
X138192843Y-116860452D01*
X138170733Y-116826647D01*
X137939666Y-116826647D01*
X137922372Y-116853398D01*
X137888564Y-116873677D01*
X137855545Y-116868940D01*
X137826650Y-116840096D01*
X137818387Y-116825020D01*
X137799173Y-116771000D01*
X137789934Y-116715416D01*
X137791326Y-116666609D01*
X137803365Y-116633744D01*
X137815384Y-116620416D01*
X137825053Y-116622080D01*
X137837080Y-116642153D01*
X137848219Y-116666308D01*
X137871630Y-116708773D01*
X137899259Y-116746099D01*
X137908507Y-116755650D01*
X137937005Y-116792389D01*
X137939666Y-116826647D01*
X138170733Y-116826647D01*
X138159924Y-116810122D01*
X138124218Y-116752734D01*
X138118637Y-116743507D01*
X138068193Y-116662827D01*
X138025337Y-116601927D01*
X137986751Y-116556924D01*
X137949122Y-116523938D01*
X137910513Y-116499810D01*
X137867665Y-116484762D01*
X137824157Y-116481212D01*
X137790032Y-116489513D01*
X137782143Y-116495303D01*
X137756069Y-116509793D01*
X137733388Y-116499073D01*
X137715364Y-116463896D01*
X137712375Y-116453790D01*
X137685479Y-116365105D01*
X137653766Y-116277805D01*
X137620793Y-116201209D01*
X137601719Y-116163969D01*
X137578845Y-116121345D01*
X137547528Y-116060588D01*
X137510452Y-115987123D01*
X137470301Y-115906372D01*
X137429758Y-115823759D01*
X137391508Y-115744707D01*
X137358235Y-115674639D01*
X137339038Y-115633174D01*
X137316163Y-115587294D01*
X137294974Y-115552315D01*
X137278989Y-115533794D01*
X137275129Y-115532226D01*
X137253108Y-115540166D01*
X137221943Y-115559990D01*
X137189147Y-115585703D01*
X137162232Y-115611310D01*
X137148712Y-115630816D01*
X137148276Y-115633450D01*
X137151584Y-115659712D01*
X137159885Y-115700541D01*
X137170751Y-115745535D01*
X137181751Y-115784291D01*
X137187007Y-115799251D01*
X137196871Y-115827769D01*
X137209086Y-115868238D01*
X137213401Y-115883690D01*
X137229095Y-115931421D01*
X137250467Y-115984822D01*
X137260425Y-116006615D01*
X137277947Y-116046406D01*
X137289330Y-116078899D01*
X137291755Y-116091510D01*
X137296267Y-116117737D01*
X137306991Y-116154320D01*
X137320211Y-116190322D01*
X137332212Y-116214808D01*
X137334734Y-116217999D01*
X137341851Y-116236911D01*
X137343661Y-116256551D01*
X137348801Y-116283265D01*
X137356687Y-116294226D01*
X137365582Y-116311590D01*
X137369681Y-116342995D01*
X137369712Y-116346041D01*
X137375492Y-116389458D01*
X137388068Y-116426683D01*
X137401370Y-116457758D01*
X137418594Y-116503771D01*
X137436005Y-116554738D01*
X137456240Y-116610383D01*
X137483573Y-116676778D01*
X137512892Y-116741659D01*
X137520145Y-116756636D01*
X137549197Y-116816073D01*
X137569403Y-116859458D01*
X137583629Y-116894007D01*
X137594741Y-116926938D01*
X137605604Y-116965469D01*
X137610659Y-116984585D01*
X137618825Y-117022516D01*
X137627536Y-117074037D01*
X137636118Y-117133454D01*
X137643896Y-117195076D01*
X137650197Y-117253212D01*
X137654348Y-117302168D01*
X137655673Y-117336255D01*
X137653868Y-117349540D01*
X137635370Y-117350523D01*
X137604838Y-117329186D01*
X137562760Y-117286052D01*
X137509623Y-117221645D01*
X137445917Y-117136490D01*
X137415302Y-117093492D01*
X137378495Y-117042418D01*
X137335794Y-116985011D01*
X137303380Y-116942662D01*
X137269231Y-116894287D01*
X137238690Y-116843150D01*
X137219562Y-116803108D01*
X137196673Y-116757897D01*
X137165966Y-116728223D01*
X137122952Y-116712170D01*
X137063138Y-116707820D01*
X137004101Y-116711125D01*
X136932372Y-116713878D01*
X136881348Y-116706783D01*
X136847267Y-116688947D01*
X136831757Y-116670067D01*
X136800594Y-116640299D01*
X136755377Y-116623509D01*
X136706275Y-116623092D01*
X136697223Y-116625178D01*
X136647531Y-116648636D01*
X136620189Y-116683516D01*
X136615854Y-116726819D01*
X136635182Y-116775543D01*
X136657796Y-116805444D01*
X136698772Y-116869737D01*
X136720896Y-116945606D01*
X136721875Y-117022028D01*
X136715201Y-117072498D01*
X136651445Y-117064946D01*
X136599668Y-117052876D01*
X136545783Y-117030745D01*
X136496415Y-117002436D01*
X136458187Y-116971835D01*
X136437721Y-116942823D01*
X136436625Y-116938995D01*
X136411128Y-116841051D01*
X136378938Y-116743677D01*
X136342377Y-116652361D01*
X136303762Y-116572590D01*
X136265415Y-116509852D01*
X136243901Y-116483097D01*
X136217717Y-116450991D01*
X136198538Y-116421226D01*
X136181588Y-116399335D01*
X136158051Y-116393675D01*
X136122511Y-116404088D01*
X136092871Y-116418137D01*
X136049138Y-116444802D01*
X136021631Y-116475033D01*
X136007566Y-116514954D01*
X136004159Y-116570690D01*
X136005784Y-116609724D01*
X136012659Y-116675960D01*
X136026135Y-116729892D01*
X136049768Y-116785088D01*
X136053913Y-116793342D01*
X136073483Y-116834850D01*
X136085733Y-116866917D01*
X136088221Y-116883071D01*
X136087921Y-116883487D01*
X136077225Y-116883664D01*
X136057931Y-116869606D01*
X136028756Y-116839903D01*
X135988418Y-116793144D01*
X135935636Y-116727920D01*
X135869127Y-116642820D01*
X135868894Y-116642519D01*
X135809727Y-116567415D01*
X135762945Y-116511988D01*
X135726288Y-116474372D01*
X135697496Y-116452697D01*
X135674308Y-116445096D01*
X135654465Y-116449702D01*
X135644150Y-116456768D01*
X135623954Y-116482621D01*
X135617390Y-116497299D01*
X135602776Y-116517788D01*
X135590835Y-116522174D01*
X135576529Y-116525196D01*
X135574931Y-116536973D01*
X135587133Y-116561574D01*
X135611488Y-116599032D01*
X135633521Y-116634665D01*
X135647596Y-116663415D01*
X135650328Y-116673893D01*
X135656025Y-116692111D01*
X135671443Y-116727777D01*
X135694069Y-116775340D01*
X135715314Y-116817529D01*
X135741215Y-116868869D01*
X135761394Y-116910963D01*
X135773581Y-116938931D01*
X135776002Y-116947919D01*
X135764426Y-116942656D01*
X135737455Y-116924869D01*
X135700256Y-116898028D01*
X135688221Y-116888992D01*
X135600398Y-116812800D01*
X135520328Y-116725042D01*
X135456217Y-116634810D01*
X135451220Y-116626379D01*
X135426024Y-116589435D01*
X135388996Y-116542731D01*
X135346940Y-116494709D01*
X135334088Y-116481024D01*
X135294299Y-116440210D01*
X135266829Y-116415308D01*
X135246345Y-116403072D01*
X135227515Y-116400254D01*
X135206457Y-116403313D01*
X135169622Y-116418031D01*
X135142333Y-116449164D01*
X135136020Y-116460169D01*
X135110174Y-116507998D01*
X135147894Y-116580095D01*
X135172965Y-116622043D01*
X135198969Y-116656283D01*
X135215615Y-116671850D01*
X135243927Y-116696615D01*
X135259559Y-116717559D01*
X135267178Y-116738409D01*
X135260268Y-116743060D01*
X135242146Y-116734291D01*
X135216130Y-116714879D01*
X135185535Y-116687606D01*
X135153680Y-116655248D01*
X135123881Y-116620586D01*
X135099455Y-116586398D01*
X135095801Y-116580366D01*
X135059110Y-116531656D01*
X135018244Y-116507048D01*
X134969045Y-116504594D01*
X134945019Y-116509667D01*
X134916553Y-116515835D01*
X134892223Y-116515188D01*
X134864108Y-116505792D01*
X134824286Y-116485717D01*
X134806071Y-116475785D01*
X134756407Y-116446576D01*
X134709794Y-116415930D01*
X134676294Y-116390464D01*
X134676208Y-116390389D01*
X134632191Y-116360521D01*
X134596001Y-116353133D01*
X134570162Y-116367579D01*
X134557201Y-116403217D01*
X134556174Y-116421016D01*
X134565463Y-116451576D01*
X134589487Y-116490854D01*
X134622481Y-116531494D01*
X134658680Y-116566139D01*
X134683174Y-116583069D01*
X134710753Y-116600318D01*
X134724981Y-116613410D01*
X134725507Y-116615087D01*
X134736387Y-116624654D01*
X134764651Y-116641265D01*
X134803735Y-116661711D01*
X134847074Y-116682781D01*
X134888104Y-116701266D01*
X134920261Y-116713956D01*
X134935518Y-116717787D01*
X134953361Y-116726283D01*
X134983486Y-116748433D01*
X135019629Y-116779594D01*
X135022538Y-116782286D01*
X135070299Y-116825483D01*
X135122985Y-116871297D01*
X135159307Y-116901676D01*
X135204456Y-116940495D01*
X135255733Y-116987613D01*
X135298451Y-117029259D01*
X135334233Y-117063112D01*
X135364595Y-117087454D01*
X135384001Y-117097950D01*
X135386226Y-117097976D01*
X135409864Y-117100712D01*
X135429618Y-117108717D01*
X135464396Y-117115480D01*
X135494189Y-117100342D01*
X135514239Y-117067451D01*
X135520071Y-117029874D01*
X135521487Y-117001723D01*
X135527011Y-116983779D01*
X135538561Y-116977162D01*
X135558053Y-116982990D01*
X135587406Y-117002383D01*
X135628535Y-117036457D01*
X135683357Y-117086333D01*
X135753790Y-117153128D01*
X135788513Y-117186521D01*
X135818201Y-117210802D01*
X135843637Y-117224463D01*
X135849616Y-117225559D01*
X135872579Y-117232825D01*
X135878276Y-117238585D01*
X135897987Y-117249405D01*
X135929413Y-117250724D01*
X135960302Y-117243256D01*
X135975248Y-117232940D01*
X135983637Y-117209406D01*
X135984892Y-117165772D01*
X135981673Y-117122222D01*
X135978266Y-117067916D01*
X135981597Y-117037734D01*
X135992260Y-117030481D01*
X136010848Y-117044967D01*
X136016707Y-117051731D01*
X136041213Y-117072611D01*
X136073661Y-117091588D01*
X136131361Y-117120646D01*
X136167778Y-117144232D01*
X136186489Y-117164664D01*
X136186542Y-117164759D01*
X136205054Y-117177666D01*
X136240316Y-117188899D01*
X136263466Y-117193123D01*
X136305484Y-117197096D01*
X136332308Y-117193075D01*
X136354108Y-117179022D01*
X136359869Y-117173791D01*
X136382692Y-117155356D01*
X136402006Y-117153494D01*
X136428802Y-117165359D01*
X136461333Y-117184807D01*
X136502674Y-117212912D01*
X136527937Y-117231509D01*
X136564007Y-117256636D01*
X136594109Y-117273398D01*
X136607825Y-117277662D01*
X136625095Y-117284178D01*
X136627251Y-117289652D01*
X136638707Y-117303387D01*
X136668398Y-117310301D01*
X136709314Y-117309991D01*
X136754439Y-117302052D01*
X136768684Y-117297814D01*
X136833460Y-117265724D01*
X136879761Y-117218006D01*
X136908030Y-117153589D01*
X136918710Y-117071406D01*
X136912246Y-116970385D01*
X136910268Y-116956471D01*
X136900209Y-116889280D01*
X136951626Y-116880593D01*
X136997303Y-116878954D01*
X137033881Y-116888674D01*
X137054672Y-116907382D01*
X137057097Y-116917983D01*
X137065292Y-116937878D01*
X137085687Y-116966210D01*
X137092917Y-116974514D01*
X137116912Y-117004530D01*
X137148167Y-117048526D01*
X137180722Y-117098036D01*
X137187353Y-117108644D01*
X137226708Y-117167201D01*
X137273844Y-117230126D01*
X137318645Y-117283921D01*
X137319192Y-117284528D01*
X137356734Y-117327766D01*
X137389974Y-117368937D01*
X137412782Y-117400385D01*
X137415661Y-117405017D01*
X137441151Y-117436104D01*
X137478050Y-117468178D01*
X137493899Y-117479130D01*
X137535821Y-117508880D01*
X137574924Y-117541745D01*
X137585482Y-117552083D01*
X137607124Y-117576263D01*
X137611202Y-117587411D01*
X137599207Y-117590265D01*
X137597493Y-117590277D01*
X137581396Y-117593670D01*
X137587991Y-117605356D01*
X137606338Y-117613674D01*
X137621296Y-117605308D01*
X137647487Y-117596532D01*
X137678659Y-117598010D01*
X137731956Y-117596570D01*
X137779018Y-117570402D01*
X137818634Y-117520341D01*
X137833079Y-117491670D01*
X137850665Y-117454072D01*
X137864495Y-117428421D01*
X137870577Y-117420944D01*
X137880700Y-117430969D01*
X137891795Y-117448970D01*
X137900401Y-117468722D01*
X137893290Y-117471483D01*
X137885741Y-117468917D01*
X137869333Y-117464348D01*
X137866405Y-117471975D01*
X137876109Y-117496831D01*
X137879699Y-117504770D01*
X137891822Y-117526485D01*
X137902040Y-117526288D01*
X137909889Y-117516963D01*
X137921418Y-117506461D01*
X137934637Y-117511540D01*
X137955576Y-117534996D01*
X137959529Y-117539985D01*
X137986384Y-117573481D01*
X138009810Y-117601705D01*
X138014006Y-117606559D01*
X138030156Y-117634288D01*
X138034020Y-117652062D01*
X138027119Y-117657449D01*
X138006207Y-117641682D01*
X137975609Y-117609729D01*
X137946565Y-117579181D01*
X137925585Y-117560533D01*
X137917018Y-117557627D01*
X137916994Y-117557945D01*
X137925477Y-117582379D01*
X137947198Y-117615837D01*
X137975763Y-117650217D01*
X138004781Y-117677418D01*
X138018112Y-117686128D01*
X138059565Y-117697753D01*
X138113959Y-117701140D01*
X138170401Y-117696764D01*
X138218002Y-117685102D01*
X138235164Y-117676635D01*
X138275312Y-117636134D01*
X138304360Y-117577841D01*
X138319263Y-117508736D01*
X138320584Y-117480847D01*
X138322442Y-117440176D01*
X138327222Y-117411296D01*
X138331617Y-117402637D01*
X138346508Y-117406904D01*
X138370690Y-117425752D01*
X138380463Y-117435400D01*
X138403350Y-117461031D01*
X138409451Y-117475998D01*
X138400738Y-117487709D01*
X138395482Y-117491732D01*
X138375631Y-117510350D01*
X138379395Y-117521000D01*
X138407653Y-117525021D01*
X138417429Y-117525149D01*
X138458136Y-117528525D01*
X138492326Y-117536512D01*
X138527924Y-117541308D01*
X138551107Y-117537184D01*
X138578012Y-117516664D01*
X138602704Y-117481728D01*
X138618130Y-117443555D01*
X138620174Y-117427685D01*
X138625344Y-117403073D01*
X138634548Y-117377768D01*
X138109854Y-117377768D01*
X138104814Y-117404558D01*
X138091465Y-117407238D01*
X138070354Y-117387125D01*
X138052953Y-117367306D01*
X138023879Y-117335818D01*
X137991475Y-117301626D01*
X137954794Y-117259374D01*
X137918556Y-117210880D01*
X137886728Y-117162292D01*
X137863279Y-117119755D01*
X137852175Y-117089416D01*
X137851783Y-117085211D01*
X137862472Y-117068393D01*
X137881703Y-117057185D01*
X137911214Y-117041335D01*
X137946187Y-117016589D01*
X137953536Y-117010597D01*
X137983375Y-116990128D01*
X138007447Y-116981475D01*
X138012574Y-116982050D01*
X138031228Y-116999825D01*
X138052234Y-117035479D01*
X138072455Y-117081423D01*
X138088756Y-117130070D01*
X138098002Y-117173831D01*
X138099006Y-117191202D01*
X138099857Y-117234697D01*
X138103313Y-117289489D01*
X138106803Y-117326508D01*
X138109854Y-117377768D01*
X138634548Y-117377768D01*
X138638167Y-117367821D01*
X138642176Y-117358653D01*
X138656487Y-117324917D01*
X138664910Y-117300811D01*
X138665658Y-117297200D01*
X138670522Y-117277365D01*
X138680790Y-117244153D01*
X138684211Y-117233909D01*
X138693398Y-117197587D01*
X138693952Y-117160578D01*
X138685938Y-117111378D01*
X138684920Y-117106527D01*
X138674505Y-117064484D01*
X138664109Y-117033761D01*
X138657390Y-117022511D01*
X138648382Y-117005363D01*
X138646225Y-116987434D01*
X138647321Y-116968129D01*
X138654738Y-116969179D01*
X138670043Y-116984946D01*
X138686632Y-117009536D01*
X138707899Y-117050096D01*
X138729441Y-117098181D01*
X138730929Y-117101815D01*
X138755203Y-117157864D01*
X138786126Y-117224234D01*
X138817828Y-117288403D01*
X138824342Y-117301015D01*
X138848969Y-117349583D01*
X138868136Y-117389957D01*
X138879116Y-117416268D01*
X138880687Y-117422411D01*
X138889055Y-117447485D01*
X138910013Y-117480415D01*
X138937336Y-117513682D01*
X138964802Y-117539766D01*
X138986188Y-117551148D01*
X138987263Y-117551200D01*
X139021247Y-117547146D01*
X139062280Y-117537004D01*
X139100652Y-117523807D01*
X139126653Y-117510586D01*
X139131231Y-117506244D01*
X139137213Y-117483232D01*
X139139811Y-117439936D01*
X139139182Y-117381883D01*
X139135482Y-117314599D01*
X139128868Y-117243610D01*
X139122345Y-117192995D01*
X139114578Y-117137041D01*
X139111300Y-117101000D01*
X139112789Y-117079074D01*
X139119323Y-117065466D01*
X139128912Y-117056226D01*
X139140794Y-117043518D01*
X139146473Y-117026067D01*
X139146588Y-116997308D01*
X139141778Y-116950674D01*
X139140328Y-116938995D01*
X139132559Y-116881903D01*
X139124076Y-116826700D01*
X139116830Y-116785944D01*
X139111552Y-116748956D01*
X139115582Y-116732426D01*
X139121087Y-116730585D01*
X139134597Y-116741436D01*
X139156054Y-116770314D01*
X139182248Y-116811702D01*
X139209971Y-116860083D01*
X139236016Y-116909941D01*
X139257173Y-116955760D01*
X139267055Y-116981565D01*
X139280561Y-117016508D01*
X139302366Y-117067042D01*
X139329078Y-117125480D01*
X139348866Y-117166944D01*
X139375654Y-117223172D01*
X139398714Y-117273727D01*
X139415202Y-117312247D01*
X139421648Y-117329764D01*
X139432703Y-117356793D01*
X139453087Y-117397738D01*
X139478614Y-117444244D01*
X139481514Y-117449267D01*
X139505523Y-117491784D01*
X139523335Y-117525511D01*
X139531711Y-117544261D01*
X139531969Y-117545661D01*
X139537292Y-117561600D01*
X139551091Y-117593235D01*
X139566061Y-117624799D01*
X139592912Y-117670974D01*
X139616148Y-117692777D01*
X139623591Y-117694482D01*
X139645822Y-117701247D01*
X139651741Y-117708620D01*
X139665816Y-117712175D01*
X139699390Y-117702796D01*
X139728587Y-117690856D01*
X139771779Y-117669373D01*
X139780996Y-117661918D01*
X139636174Y-117661918D01*
X139629661Y-117668431D01*
X139623148Y-117661918D01*
X139629661Y-117655405D01*
X139636174Y-117661918D01*
X139780996Y-117661918D01*
X139796802Y-117649134D01*
X139810489Y-117624073D01*
X139813078Y-117615868D01*
X139825350Y-117585386D01*
X139838815Y-117568462D01*
X139840115Y-117567886D01*
X139855976Y-117573821D01*
X139884945Y-117593940D01*
X139921453Y-117624260D01*
X139931099Y-117632962D01*
X140014755Y-117699880D01*
X140095088Y-117742916D01*
X140175540Y-117763347D01*
X140259552Y-117762449D01*
X140274430Y-117760268D01*
X140375516Y-117730993D01*
X140471104Y-117679016D01*
X140555770Y-117607687D01*
X140595116Y-117562202D01*
X140623686Y-117520816D01*
X140651272Y-117473675D01*
X140675082Y-117426628D01*
X140692322Y-117385525D01*
X140700198Y-117356216D01*
X140698498Y-117345695D01*
X140700239Y-117331843D01*
X140710483Y-117302190D01*
X140719810Y-117279722D01*
X140739161Y-117225051D01*
X140759070Y-117149576D01*
X140759527Y-117147405D01*
X140576906Y-117147405D01*
X140571502Y-117210172D01*
X140553969Y-117280273D01*
X140527395Y-117350092D01*
X140494869Y-117412013D01*
X140459478Y-117458418D01*
X140445978Y-117470356D01*
X140407949Y-117501417D01*
X140371986Y-117534671D01*
X140343509Y-117564664D01*
X140327938Y-117585938D01*
X140326533Y-117590582D01*
X140315762Y-117602412D01*
X140289768Y-117617857D01*
X140258031Y-117632258D01*
X140230031Y-117640956D01*
X140222328Y-117641797D01*
X140198954Y-117636659D01*
X140163664Y-117623756D01*
X140149891Y-117617781D01*
X140107880Y-117592942D01*
X140066162Y-117558924D01*
X140030616Y-117521697D01*
X140007125Y-117487234D01*
X140000950Y-117466533D01*
X139995135Y-117440543D01*
X139980415Y-117402203D01*
X139968273Y-117376403D01*
X139950138Y-117337908D01*
X139938337Y-117307584D01*
X139935764Y-117296267D01*
X139930378Y-117279408D01*
X139915544Y-117243657D01*
X139893242Y-117193529D01*
X139865457Y-117133542D01*
X139850601Y-117102250D01*
X139819325Y-117034484D01*
X139791495Y-116969703D01*
X139769559Y-116913939D01*
X139755966Y-116873219D01*
X139753557Y-116863258D01*
X139742121Y-116818056D01*
X139724437Y-116762401D01*
X139707899Y-116717559D01*
X139693476Y-116680264D01*
X139679574Y-116641391D01*
X139665035Y-116597120D01*
X139648698Y-116543632D01*
X139629403Y-116477110D01*
X139605991Y-116393733D01*
X139577301Y-116289683D01*
X139571408Y-116268174D01*
X139538160Y-116146972D01*
X139510885Y-116048116D01*
X139488784Y-115968796D01*
X139471057Y-115906202D01*
X139456905Y-115857526D01*
X139445528Y-115819958D01*
X139436126Y-115790688D01*
X139432409Y-115779713D01*
X139416883Y-115731288D01*
X139400444Y-115675047D01*
X139393514Y-115649456D01*
X139381895Y-115605608D01*
X139372044Y-115569581D01*
X139367847Y-115555020D01*
X139369593Y-115535826D01*
X139381555Y-115532226D01*
X139405932Y-115525149D01*
X139440043Y-115507619D01*
X139475050Y-115485187D01*
X139502114Y-115463404D01*
X139512080Y-115450259D01*
X139516727Y-115428399D01*
X139522607Y-115391989D01*
X139524864Y-115375918D01*
X139533690Y-115326994D01*
X139547449Y-115298561D01*
X139571628Y-115285066D01*
X139611712Y-115280953D01*
X139618798Y-115280811D01*
X139658035Y-115283108D01*
X139696452Y-115293107D01*
X139742430Y-115313548D01*
X139779956Y-115333522D01*
X139819801Y-115358458D01*
X139867181Y-115392559D01*
X139917700Y-115432084D01*
X139966961Y-115473291D01*
X140010570Y-115512440D01*
X140044130Y-115545789D01*
X140063247Y-115569599D01*
X140066020Y-115576986D01*
X140073698Y-115592603D01*
X140092733Y-115618663D01*
X140098584Y-115625781D01*
X140119712Y-115654846D01*
X140130705Y-115677694D01*
X140131148Y-115680927D01*
X140140127Y-115698777D01*
X140162919Y-115725428D01*
X140177719Y-115739751D01*
X140197859Y-115759539D01*
X140215485Y-115781359D01*
X140232416Y-115808961D01*
X140250469Y-115846094D01*
X140271461Y-115896507D01*
X140297210Y-115963951D01*
X140329534Y-116052175D01*
X140330645Y-116055238D01*
X140356811Y-116126209D01*
X140384037Y-116198021D01*
X140409017Y-116262063D01*
X140427636Y-116307822D01*
X140477870Y-116437128D01*
X140517189Y-116560274D01*
X140544903Y-116673981D01*
X140560320Y-116774970D01*
X140562750Y-116859960D01*
X140555207Y-116912944D01*
X140553071Y-116942128D01*
X140555448Y-116987033D01*
X140561646Y-117036687D01*
X140569073Y-117084977D01*
X140574545Y-117124619D01*
X140576899Y-117147177D01*
X140576906Y-117147405D01*
X140759527Y-117147405D01*
X140778282Y-117058482D01*
X140791271Y-116984321D01*
X140789453Y-116946557D01*
X140770480Y-116920430D01*
X140751199Y-116892958D01*
X140743664Y-116851973D01*
X140743277Y-116836027D01*
X140740103Y-116776024D01*
X140731674Y-116702903D01*
X140719433Y-116625199D01*
X140704820Y-116551448D01*
X140689279Y-116490186D01*
X140680338Y-116463559D01*
X140664933Y-116417839D01*
X140648252Y-116358727D01*
X140633727Y-116298452D01*
X140632821Y-116294226D01*
X140612786Y-116203282D01*
X140595802Y-116134862D01*
X140580759Y-116085771D01*
X140566547Y-116052814D01*
X140552059Y-116032798D01*
X140538846Y-116023641D01*
X140511286Y-115997493D01*
X140494182Y-115956670D01*
X140481761Y-115911722D01*
X140469868Y-115869789D01*
X140468160Y-115863908D01*
X140454248Y-115832881D01*
X140429476Y-115791330D01*
X140402818Y-115753190D01*
X140370369Y-115708772D01*
X140330785Y-115652448D01*
X140291050Y-115594205D01*
X140278668Y-115575621D01*
X140242975Y-115525181D01*
X140202853Y-115474072D01*
X140162206Y-115426640D01*
X140124938Y-115387234D01*
X140094954Y-115360198D01*
X140076159Y-115349880D01*
X140075880Y-115349874D01*
X140062892Y-115341731D01*
X140034674Y-115319565D01*
X139995377Y-115286755D01*
X139949156Y-115246685D01*
X139948980Y-115246529D01*
X139831758Y-115143192D01*
X139705413Y-115149491D01*
G36*
X129092252Y-114555783D02*
X129073972Y-114583237D01*
X129072379Y-114595118D01*
X129064235Y-114615829D01*
X129053299Y-114620431D01*
X129034878Y-114629421D01*
X129018726Y-114649259D01*
X129012272Y-114669240D01*
X129014866Y-114675806D01*
X129019184Y-114691000D01*
X129024856Y-114725646D01*
X129030875Y-114773251D01*
X129032847Y-114791493D01*
X129045464Y-114872906D01*
X129067095Y-114943752D01*
X129088153Y-114991662D01*
X129126223Y-115065170D01*
X129166666Y-115134202D01*
X129205036Y-115191496D01*
X129228687Y-115221186D01*
X129264430Y-115261821D01*
X129300365Y-115304382D01*
X129342729Y-115356330D01*
X129368901Y-115388944D01*
X129407595Y-115435768D01*
X129446991Y-115480903D01*
X129479279Y-115515434D01*
X129482439Y-115518573D01*
X129509217Y-115548047D01*
X129525727Y-115572397D01*
X129528276Y-115580445D01*
X129536244Y-115596019D01*
X129541302Y-115597354D01*
X129551921Y-115608252D01*
X129554328Y-115623140D01*
X129541334Y-115648776D01*
X129502438Y-115675383D01*
X129499785Y-115676752D01*
X129462831Y-115697442D01*
X129434059Y-115716745D01*
X129427214Y-115722607D01*
X129407800Y-115737678D01*
X129399596Y-115740636D01*
X129386395Y-115752268D01*
X129371505Y-115782282D01*
X129357472Y-115823357D01*
X129346843Y-115868169D01*
X129342302Y-115905391D01*
X129338235Y-115941446D01*
X129331073Y-115963351D01*
X129326379Y-115966599D01*
X129312793Y-115954807D01*
X129294102Y-115927532D01*
X129286781Y-115914496D01*
X129249689Y-115845225D01*
X129221416Y-115794400D01*
X129199060Y-115757201D01*
X129179718Y-115728809D01*
X129160487Y-115704404D01*
X129159617Y-115703369D01*
X129130108Y-115662887D01*
X129101728Y-115615606D01*
X129094963Y-115602420D01*
X129076051Y-115569153D01*
X129059040Y-115548539D01*
X129052567Y-115545251D01*
X129039541Y-115534329D01*
X129021525Y-115506213D01*
X129008589Y-115480295D01*
X128985830Y-115438242D01*
X128960371Y-115403090D01*
X128947652Y-115390497D01*
X128925341Y-115369359D01*
X128916071Y-115353449D01*
X128905810Y-115339017D01*
X128884101Y-115324133D01*
X128862960Y-115306136D01*
X128833623Y-115273197D01*
X128801644Y-115232505D01*
X128772574Y-115191246D01*
X128751965Y-115156609D01*
X128748013Y-115147969D01*
X128735828Y-115129782D01*
X128715449Y-115106339D01*
X128673057Y-115061236D01*
X128643992Y-115028114D01*
X128622996Y-115000694D01*
X128608469Y-114978636D01*
X128561426Y-114912202D01*
X128515603Y-114864586D01*
X128473136Y-114837291D01*
X128436159Y-114831822D01*
X128414415Y-114842007D01*
X128397986Y-114863598D01*
X128395046Y-114874939D01*
X128385429Y-114894000D01*
X128362688Y-114915678D01*
X128330330Y-114939559D01*
X128368288Y-115018873D01*
X128392789Y-115063248D01*
X128418909Y-115100052D01*
X128438608Y-115119392D01*
X128460744Y-115139910D01*
X128491130Y-115175814D01*
X128524212Y-115220393D01*
X128533956Y-115234640D01*
X128577042Y-115297749D01*
X128611323Y-115344540D01*
X128641520Y-115380964D01*
X128672353Y-115412970D01*
X128684866Y-115424883D01*
X128708399Y-115451383D01*
X128720323Y-115473608D01*
X128720687Y-115476532D01*
X128726502Y-115489037D01*
X128731470Y-115488022D01*
X128744119Y-115493777D01*
X128766520Y-115513926D01*
X128792845Y-115541984D01*
X128817266Y-115571465D01*
X128833956Y-115595884D01*
X128837917Y-115606471D01*
X128847702Y-115620928D01*
X128863730Y-115633258D01*
X128884183Y-115653806D01*
X128908275Y-115688736D01*
X128921741Y-115712920D01*
X128942967Y-115749736D01*
X128962845Y-115775938D01*
X128972412Y-115783550D01*
X128988851Y-115798720D01*
X129009480Y-115829106D01*
X129019248Y-115847048D01*
X129038522Y-115884742D01*
X129054441Y-115914788D01*
X129059037Y-115922995D01*
X129069235Y-115943098D01*
X129086925Y-115980485D01*
X129109044Y-116028625D01*
X129120162Y-116053251D01*
X129145649Y-116106480D01*
X129171211Y-116153941D01*
X129192655Y-116188049D01*
X129199273Y-116196400D01*
X129219889Y-116220135D01*
X129228536Y-116235831D01*
X129222303Y-116245004D01*
X129198277Y-116249165D01*
X129153546Y-116249828D01*
X129098430Y-116248803D01*
X129037398Y-116243931D01*
X128990465Y-116229498D01*
X128946541Y-116200984D01*
X128916286Y-116174558D01*
X128885801Y-116150974D01*
X128857886Y-116136410D01*
X128857456Y-116136277D01*
X128826970Y-116121542D01*
X128805353Y-116106142D01*
X128777270Y-116087878D01*
X128733044Y-116065026D01*
X128681176Y-116041442D01*
X128630170Y-116020980D01*
X128588525Y-116007497D01*
X128587007Y-116007116D01*
X128520660Y-116002737D01*
X128453812Y-116018713D01*
X128396872Y-116052378D01*
X128391531Y-116057168D01*
X128362666Y-116087586D01*
X128342340Y-116115060D01*
X128338358Y-116123103D01*
X128327941Y-116139448D01*
X128311639Y-116132433D01*
X128310132Y-116131200D01*
X128284607Y-116120103D01*
X128247453Y-116114009D01*
X128241586Y-116113749D01*
X128203648Y-116117604D01*
X128172513Y-116135288D01*
X128152346Y-116154498D01*
X128124331Y-116178698D01*
X128093503Y-116192316D01*
X128054990Y-116195509D01*
X128003922Y-116188429D01*
X127935427Y-116171234D01*
X127904785Y-116162365D01*
X127814830Y-116136919D01*
X127733894Y-116116303D01*
X127666526Y-116101566D01*
X127617276Y-116093756D01*
X127602652Y-116092786D01*
X127575837Y-116101876D01*
X127542864Y-116125035D01*
X127511426Y-116155144D01*
X127489220Y-116185080D01*
X127483251Y-116203283D01*
X127475732Y-116220458D01*
X127469456Y-116222585D01*
X127461393Y-116230429D01*
X127463133Y-116234672D01*
X127459267Y-116247816D01*
X127447579Y-116254068D01*
X127431263Y-116269725D01*
X127413726Y-116301230D01*
X127399278Y-116338975D01*
X127392225Y-116373351D01*
X127392071Y-116377874D01*
X127402579Y-116390537D01*
X127429601Y-116409859D01*
X127453943Y-116424211D01*
X127507031Y-116462307D01*
X127552617Y-116511375D01*
X127583667Y-116563211D01*
X127590651Y-116583704D01*
X127593985Y-116602944D01*
X127585959Y-116605021D01*
X127563352Y-116593387D01*
X127506557Y-116556802D01*
X127455317Y-116515248D01*
X127427356Y-116486354D01*
X127405778Y-116465140D01*
X127390062Y-116457046D01*
X127373380Y-116449347D01*
X127344433Y-116429539D01*
X127321281Y-116411456D01*
X127288928Y-116386274D01*
X127264549Y-116369717D01*
X127255971Y-116365867D01*
X127239597Y-116359002D01*
X127213188Y-116342379D01*
X127211723Y-116341346D01*
X127171082Y-116321339D01*
X127115830Y-116304940D01*
X127056947Y-116294443D01*
X127005407Y-116292141D01*
X126987234Y-116294454D01*
X126950270Y-116313216D01*
X126935124Y-116337765D01*
X126920904Y-116373996D01*
X126910123Y-116398431D01*
X126896193Y-116430550D01*
X126884260Y-116461361D01*
X126870288Y-116483194D01*
X126853707Y-116492063D01*
X126842348Y-116486231D01*
X126842061Y-116470732D01*
X126838234Y-116460970D01*
X126833342Y-116462710D01*
X126815530Y-116460857D01*
X126801385Y-116450653D01*
X126782258Y-116434760D01*
X126773901Y-116430995D01*
X126759970Y-116423287D01*
X126729520Y-116402002D01*
X126686326Y-116369900D01*
X126634161Y-116329740D01*
X126617046Y-116316312D01*
X126570428Y-116289462D01*
X126506576Y-116265610D01*
X126433992Y-116246675D01*
X126361178Y-116234576D01*
X126296636Y-116231233D01*
X126259174Y-116235531D01*
X126232178Y-116251606D01*
X126200437Y-116284188D01*
X126168925Y-116326079D01*
X126142616Y-116370081D01*
X126126482Y-116408995D01*
X126124127Y-116430995D01*
X126133660Y-116470543D01*
X126148560Y-116515646D01*
X126165416Y-116557393D01*
X126180817Y-116586869D01*
X126186432Y-116593815D01*
X126204782Y-116613101D01*
X126231193Y-116644209D01*
X126260958Y-116681140D01*
X126289368Y-116717896D01*
X126311717Y-116748478D01*
X126323297Y-116766887D01*
X126323969Y-116769075D01*
X126331104Y-116783245D01*
X126349835Y-116812550D01*
X126376155Y-116851269D01*
X126406055Y-116893678D01*
X126435526Y-116934053D01*
X126460559Y-116966671D01*
X126471874Y-116980243D01*
X126484086Y-117000189D01*
X126483533Y-117009550D01*
X126485900Y-117016568D01*
X126491131Y-117017149D01*
X126503894Y-117027908D01*
X126506328Y-117040595D01*
X126517147Y-117073372D01*
X126549205Y-117091524D01*
X126584192Y-117095303D01*
X126627891Y-117088062D01*
X126654521Y-117064568D01*
X126666078Y-117022164D01*
X126666565Y-116985593D01*
X126663068Y-116943565D01*
X126657486Y-116910376D01*
X126654522Y-116900926D01*
X126645883Y-116878014D01*
X126644222Y-116871033D01*
X126635709Y-116854832D01*
X126622724Y-116837892D01*
X126602664Y-116809362D01*
X126593825Y-116791880D01*
X126580978Y-116773040D01*
X126573387Y-116769662D01*
X126562548Y-116759487D01*
X126543164Y-116733501D01*
X126519615Y-116698512D01*
X126496281Y-116661328D01*
X126477543Y-116628755D01*
X126467780Y-116607603D01*
X126467251Y-116604706D01*
X126459904Y-116588690D01*
X126443060Y-116567351D01*
X126424516Y-116549239D01*
X126412064Y-116542903D01*
X126411325Y-116543365D01*
X126401833Y-116538201D01*
X126387557Y-116517618D01*
X126373391Y-116490383D01*
X126364231Y-116465263D01*
X126363046Y-116456890D01*
X126373691Y-116448251D01*
X126400436Y-116448512D01*
X126435492Y-116456179D01*
X126471071Y-116469755D01*
X126491521Y-116481552D01*
X126524638Y-116501611D01*
X126552355Y-116513936D01*
X126574668Y-116527032D01*
X126607580Y-116553433D01*
X126643535Y-116587002D01*
X126676983Y-116619205D01*
X126703722Y-116642511D01*
X126718221Y-116652113D01*
X126718544Y-116652147D01*
X126736848Y-116659732D01*
X126744595Y-116665260D01*
X126764434Y-116681300D01*
X126794253Y-116705275D01*
X126802917Y-116712223D01*
X126828756Y-116738167D01*
X126841674Y-116761606D01*
X126841994Y-116767257D01*
X126850658Y-116787750D01*
X126877559Y-116805638D01*
X126918722Y-116824703D01*
X126941358Y-116837522D01*
X126951054Y-116847701D01*
X126953028Y-116854328D01*
X126964223Y-116871668D01*
X126991105Y-116899352D01*
X127028056Y-116932727D01*
X127069459Y-116967142D01*
X127109699Y-116997944D01*
X127143159Y-117020481D01*
X127164221Y-117030101D01*
X127165324Y-117030174D01*
X127186562Y-117019690D01*
X127191627Y-117011546D01*
X127208249Y-116994075D01*
X127235526Y-116980106D01*
X127267675Y-116958429D01*
X127281074Y-116927243D01*
X127290776Y-116896871D01*
X127301819Y-116879807D01*
X127301894Y-116879760D01*
X127314192Y-116858320D01*
X127313053Y-116823155D01*
X127300654Y-116781393D01*
X127279172Y-116740162D01*
X127250784Y-116706592D01*
X127248379Y-116704533D01*
X127237290Y-116690947D01*
X127216795Y-116662637D01*
X127198366Y-116636015D01*
X127174710Y-116594587D01*
X127169924Y-116570180D01*
X127182169Y-116564012D01*
X127209604Y-116577301D01*
X127244338Y-116605585D01*
X127305250Y-116659640D01*
X127359633Y-116702056D01*
X127418123Y-116740794D01*
X127452778Y-116761590D01*
X127493603Y-116787665D01*
X127524931Y-116811665D01*
X127540144Y-116828506D01*
X127540276Y-116828829D01*
X127555244Y-116843717D01*
X127587852Y-116864738D01*
X127631736Y-116887903D01*
X127643114Y-116893281D01*
X127691607Y-116917618D01*
X127733150Y-116941920D01*
X127759903Y-116961534D01*
X127762465Y-116964121D01*
X127782037Y-116983297D01*
X127799283Y-116988833D01*
X127822090Y-116980190D01*
X127857160Y-116957624D01*
X127897119Y-116925673D01*
X127921608Y-116891008D01*
X127933779Y-116846374D01*
X127936784Y-116784515D01*
X127936662Y-116774628D01*
X127934105Y-116722095D01*
X127926888Y-116685886D01*
X127912423Y-116656358D01*
X127900389Y-116639405D01*
X127873718Y-116599550D01*
X127851903Y-116558916D01*
X127848713Y-116551482D01*
X127834493Y-116523260D01*
X127821771Y-116509431D01*
X127820337Y-116509149D01*
X127810033Y-116498645D01*
X127808892Y-116490590D01*
X127800019Y-116472071D01*
X127777089Y-116443513D01*
X127753880Y-116419687D01*
X127725793Y-116390461D01*
X127709158Y-116368146D01*
X127707113Y-116359099D01*
X127722331Y-116359638D01*
X127754439Y-116368906D01*
X127796581Y-116384911D01*
X127797945Y-116385482D01*
X127867727Y-116408891D01*
X127941386Y-116423794D01*
X128011663Y-116429502D01*
X128071303Y-116425326D01*
X128105800Y-116414746D01*
X128135677Y-116403637D01*
X128155836Y-116402819D01*
X128156790Y-116403351D01*
X128168842Y-116417835D01*
X128189735Y-116448638D01*
X128215271Y-116489525D01*
X128219231Y-116496123D01*
X128247114Y-116540443D01*
X128273199Y-116577851D01*
X128292194Y-116600796D01*
X128293333Y-116601856D01*
X128311874Y-116626334D01*
X128316892Y-116643448D01*
X128324912Y-116662319D01*
X128346265Y-116694631D01*
X128376891Y-116734430D01*
X128388388Y-116748249D01*
X128439561Y-116802957D01*
X128484933Y-116838362D01*
X128517807Y-116854645D01*
X128553541Y-116871261D01*
X128577675Y-116887996D01*
X128582514Y-116894443D01*
X128598098Y-116910444D01*
X128628356Y-116928170D01*
X128637665Y-116932330D01*
X128674170Y-116952350D01*
X128701895Y-116975678D01*
X128705086Y-116979741D01*
X128737427Y-117008935D01*
X128786174Y-117034051D01*
X128841683Y-117051002D01*
X128884891Y-117055940D01*
X128925025Y-117051437D01*
X128963283Y-117034645D01*
X128999552Y-117009515D01*
X129070027Y-116952191D01*
X129119769Y-116901557D01*
X129151281Y-116852521D01*
X129167067Y-116799994D01*
X129167795Y-116782615D01*
X128967381Y-116782615D01*
X128961880Y-116807989D01*
X128943177Y-116831654D01*
X128915805Y-116845994D01*
X128905009Y-116847401D01*
X128885733Y-116841221D01*
X128851638Y-116824578D01*
X128809887Y-116800989D01*
X128807317Y-116799443D01*
X128758529Y-116766246D01*
X128703322Y-116722615D01*
X128645259Y-116672091D01*
X128587904Y-116618214D01*
X128534821Y-116564524D01*
X128489575Y-116514560D01*
X128455728Y-116471864D01*
X128436845Y-116439975D01*
X128434123Y-116428756D01*
X128427075Y-116405215D01*
X128413287Y-116380993D01*
X128399938Y-116356623D01*
X128403883Y-116338403D01*
X128410768Y-116329249D01*
X128429403Y-116300965D01*
X128445170Y-116269632D01*
X128455252Y-116249023D01*
X128467762Y-116238583D01*
X128490027Y-116236044D01*
X128529371Y-116239140D01*
X128540081Y-116240251D01*
X128588792Y-116248296D01*
X128638302Y-116261251D01*
X128682498Y-116276857D01*
X128715266Y-116292852D01*
X128730491Y-116306978D01*
X128730669Y-116310704D01*
X128736994Y-116325829D01*
X128756990Y-116351173D01*
X128769533Y-116364447D01*
X128795045Y-116393698D01*
X128810123Y-116418014D01*
X128811866Y-116424837D01*
X128821751Y-116447109D01*
X128828900Y-116453142D01*
X128845547Y-116472799D01*
X128866616Y-116510725D01*
X128889340Y-116560151D01*
X128910953Y-116614306D01*
X128928690Y-116666421D01*
X128939783Y-116709723D01*
X128942123Y-116730271D01*
X128948209Y-116755017D01*
X128955148Y-116763149D01*
X128967381Y-116782615D01*
X129167795Y-116782615D01*
X129169630Y-116738885D01*
X129163306Y-116676561D01*
X129154539Y-116620942D01*
X129144735Y-116568163D01*
X129136256Y-116530629D01*
X129128851Y-116497862D01*
X129126940Y-116477736D01*
X129127671Y-116475566D01*
X129142832Y-116470906D01*
X129175558Y-116464918D01*
X129217602Y-116458698D01*
X129260719Y-116453344D01*
X129296662Y-116449952D01*
X129317186Y-116449619D01*
X129318915Y-116450125D01*
X129329109Y-116464727D01*
X129347215Y-116498328D01*
X129370751Y-116546042D01*
X129397230Y-116602980D01*
X129401903Y-116613354D01*
X129417057Y-116650135D01*
X129435884Y-116699865D01*
X129451457Y-116743610D01*
X129468228Y-116789247D01*
X129483811Y-116826363D01*
X129494460Y-116846324D01*
X129507204Y-116869935D01*
X129509286Y-116878888D01*
X129514588Y-116903640D01*
X129517764Y-116912944D01*
X129525493Y-116937019D01*
X129536073Y-116974616D01*
X129540416Y-116991097D01*
X129552308Y-117032783D01*
X129564103Y-117067392D01*
X129567599Y-117075764D01*
X129576440Y-117100382D01*
X129589035Y-117142235D01*
X129602981Y-117193242D01*
X129606128Y-117205423D01*
X129619811Y-117255006D01*
X129632708Y-117294904D01*
X129642539Y-117318242D01*
X129644426Y-117320868D01*
X129663223Y-117326744D01*
X129679106Y-117312919D01*
X129684584Y-117289918D01*
X129688744Y-117268487D01*
X129703036Y-117268634D01*
X129726028Y-117286317D01*
X129743910Y-117299447D01*
X129759346Y-117296988D01*
X129782413Y-117277533D01*
X129805934Y-117248078D01*
X129812866Y-117215320D01*
X129803477Y-117172756D01*
X129788254Y-117135656D01*
X129772940Y-117091701D01*
X129769574Y-117057224D01*
X129770819Y-117051286D01*
X129780560Y-116992299D01*
X129778380Y-116924113D01*
X129765662Y-116857114D01*
X129743792Y-116801689D01*
X129735890Y-116789200D01*
X129728831Y-116771427D01*
X129717744Y-116734727D01*
X129704511Y-116685545D01*
X129697838Y-116658944D01*
X129681347Y-116594937D01*
X129663171Y-116529541D01*
X129646635Y-116474611D01*
X129643032Y-116463559D01*
X129621782Y-116398561D01*
X129608835Y-116353173D01*
X129603820Y-116322440D01*
X129606368Y-116301407D01*
X129616110Y-116285118D01*
X129628761Y-116272241D01*
X129658720Y-116237678D01*
X129680849Y-116203046D01*
X129703099Y-116169119D01*
X129734487Y-116132010D01*
X129744740Y-116121664D01*
X129771112Y-116092416D01*
X129786846Y-116067397D01*
X129788789Y-116059793D01*
X129794209Y-116041605D01*
X129807179Y-116043645D01*
X129822766Y-116063275D01*
X129831379Y-116082559D01*
X129840927Y-116113616D01*
X129844062Y-116133183D01*
X129843882Y-116134196D01*
X129848517Y-116149619D01*
X129863598Y-116183048D01*
X129886677Y-116229850D01*
X129915306Y-116285397D01*
X129947037Y-116345055D01*
X129979420Y-116404195D01*
X130010007Y-116458186D01*
X130036350Y-116502396D01*
X130049016Y-116522174D01*
X130069302Y-116557644D01*
X130088262Y-116598426D01*
X130088803Y-116599769D01*
X130106416Y-116635732D01*
X130125300Y-116663211D01*
X130126998Y-116664999D01*
X130139806Y-116683831D01*
X130161845Y-116722810D01*
X130191348Y-116778463D01*
X130226547Y-116847320D01*
X130265675Y-116925912D01*
X130306965Y-117010768D01*
X130348651Y-117098417D01*
X130359391Y-117121354D01*
X130394050Y-117202203D01*
X130425462Y-117287736D01*
X130451618Y-117371377D01*
X130470504Y-117446548D01*
X130480109Y-117506675D01*
X130480818Y-117518361D01*
X130482889Y-117558600D01*
X130489694Y-117580530D01*
X130507095Y-117588225D01*
X130540954Y-117585765D01*
X130571148Y-117581182D01*
X130605446Y-117566986D01*
X130628882Y-117535353D01*
X130642314Y-117484046D01*
X130646603Y-117410829D01*
X130646275Y-117385799D01*
X130633660Y-117269961D01*
X130603345Y-117149412D01*
X130558356Y-117035226D01*
X130541528Y-117002159D01*
X130455823Y-116842728D01*
X130370729Y-116681648D01*
X130348646Y-116639426D01*
X130317605Y-116582006D01*
X130287730Y-116530306D01*
X130262671Y-116490443D01*
X130247576Y-116470092D01*
X130231413Y-116447274D01*
X130206583Y-116406040D01*
X130175911Y-116351352D01*
X130142222Y-116288174D01*
X130125228Y-116255149D01*
X130085776Y-116175435D01*
X130058113Y-116114174D01*
X130040695Y-116067440D01*
X130031974Y-116031307D01*
X130030311Y-116014174D01*
X130026263Y-115981469D01*
X130014935Y-115947194D01*
X129993648Y-115905311D01*
X129959727Y-115849781D01*
X129952368Y-115838328D01*
X129920604Y-115789714D01*
X129893721Y-115749647D01*
X129875012Y-115722967D01*
X129868236Y-115714585D01*
X129857672Y-115701516D01*
X129836442Y-115671968D01*
X129808266Y-115631180D01*
X129793159Y-115608839D01*
X129759781Y-115555656D01*
X129740304Y-115516700D01*
X129736038Y-115494661D01*
X129736734Y-115493072D01*
X129748960Y-115485505D01*
X129768879Y-115497229D01*
X129776143Y-115503732D01*
X129809320Y-115528939D01*
X129847369Y-115550874D01*
X129881324Y-115570604D01*
X129906313Y-115591231D01*
X129907230Y-115592298D01*
X129934179Y-115613493D01*
X129979635Y-115637722D01*
X130037886Y-115663040D01*
X130103217Y-115687501D01*
X130169918Y-115709160D01*
X130232276Y-115726070D01*
X130284579Y-115736287D01*
X130321114Y-115737865D01*
X130329146Y-115736005D01*
X130344054Y-115717846D01*
X130348892Y-115688942D01*
X130354399Y-115658029D01*
X130368850Y-115649456D01*
X130389177Y-115637880D01*
X130402708Y-115608393D01*
X130406441Y-115568860D01*
X130404994Y-115554846D01*
X130383959Y-115484897D01*
X130364830Y-115453224D01*
X129707442Y-115453224D01*
X129705660Y-115454072D01*
X129693773Y-115444902D01*
X129691097Y-115441046D01*
X129687778Y-115428869D01*
X129689560Y-115428020D01*
X129701447Y-115437190D01*
X129704123Y-115441046D01*
X129707442Y-115453224D01*
X130364830Y-115453224D01*
X130341783Y-115415067D01*
X130336884Y-115409609D01*
X130062328Y-115409609D01*
X130058633Y-115414332D01*
X130044569Y-115409714D01*
X130015666Y-115393848D01*
X129991218Y-115379269D01*
X129952534Y-115353326D01*
X129933320Y-115334561D01*
X129935176Y-115324795D01*
X129942531Y-115323815D01*
X129957521Y-115330766D01*
X129984443Y-115347968D01*
X130015652Y-115369949D01*
X130043507Y-115391234D01*
X130060364Y-115406350D01*
X130062328Y-115409609D01*
X130336884Y-115409609D01*
X130276628Y-115342489D01*
X130256790Y-115323815D01*
X130205377Y-115276415D01*
X129888492Y-115276415D01*
X129883744Y-115279377D01*
X129860671Y-115267775D01*
X129858055Y-115266353D01*
X129832891Y-115248954D01*
X129795109Y-115218424D01*
X129750771Y-115179789D01*
X129723661Y-115154919D01*
X129668798Y-115105611D01*
X129626822Y-115074659D01*
X129593187Y-115061060D01*
X129563345Y-115063813D01*
X129532748Y-115081916D01*
X129504751Y-115106702D01*
X129461686Y-115147969D01*
X129404958Y-115082841D01*
X129353387Y-115016464D01*
X129312724Y-114949763D01*
X129284736Y-114886997D01*
X129271188Y-114832425D01*
X129273844Y-114790308D01*
X129279069Y-114779076D01*
X129296889Y-114773639D01*
X129330864Y-114782025D01*
X129376832Y-114801756D01*
X129430630Y-114830350D01*
X129488095Y-114865328D01*
X129545064Y-114904209D01*
X129597374Y-114944512D01*
X129640863Y-114983758D01*
X129662378Y-115007464D01*
X129682493Y-115030535D01*
X129714563Y-115065450D01*
X129752334Y-115105425D01*
X129760071Y-115113479D01*
X129803919Y-115159375D01*
X129833671Y-115191874D01*
X129853562Y-115216084D01*
X129867829Y-115237118D01*
X129879088Y-115257041D01*
X129888492Y-115276415D01*
X130205377Y-115276415D01*
X130185685Y-115258261D01*
X130129183Y-115204854D01*
X130082285Y-115158586D01*
X130039990Y-115114449D01*
X129997297Y-115067435D01*
X129971148Y-115037753D01*
X129901681Y-114961036D01*
X129829072Y-114885692D01*
X129757647Y-114815882D01*
X129691735Y-114755765D01*
X129635663Y-114709500D01*
X129611556Y-114692113D01*
X129532347Y-114644706D01*
X129449440Y-114604888D01*
X129369375Y-114575226D01*
X129298689Y-114558289D01*
X129263245Y-114555303D01*
X129216386Y-114553117D01*
X129175655Y-114547531D01*
X129159474Y-114543200D01*
X129123774Y-114540637D01*
X129092252Y-114555783D01*
X129092252Y-114555783D01*
G37*
X129092252Y-114555783D02*
X129073972Y-114583237D01*
X129072379Y-114595118D01*
X129064235Y-114615829D01*
X129053299Y-114620431D01*
X129034878Y-114629421D01*
X129018726Y-114649259D01*
X129012272Y-114669240D01*
X129014866Y-114675806D01*
X129019184Y-114691000D01*
X129024856Y-114725646D01*
X129030875Y-114773251D01*
X129032847Y-114791493D01*
X129045464Y-114872906D01*
X129067095Y-114943752D01*
X129088153Y-114991662D01*
X129126223Y-115065170D01*
X129166666Y-115134202D01*
X129205036Y-115191496D01*
X129228687Y-115221186D01*
X129264430Y-115261821D01*
X129300365Y-115304382D01*
X129342729Y-115356330D01*
X129368901Y-115388944D01*
X129407595Y-115435768D01*
X129446991Y-115480903D01*
X129479279Y-115515434D01*
X129482439Y-115518573D01*
X129509217Y-115548047D01*
X129525727Y-115572397D01*
X129528276Y-115580445D01*
X129536244Y-115596019D01*
X129541302Y-115597354D01*
X129551921Y-115608252D01*
X129554328Y-115623140D01*
X129541334Y-115648776D01*
X129502438Y-115675383D01*
X129499785Y-115676752D01*
X129462831Y-115697442D01*
X129434059Y-115716745D01*
X129427214Y-115722607D01*
X129407800Y-115737678D01*
X129399596Y-115740636D01*
X129386395Y-115752268D01*
X129371505Y-115782282D01*
X129357472Y-115823357D01*
X129346843Y-115868169D01*
X129342302Y-115905391D01*
X129338235Y-115941446D01*
X129331073Y-115963351D01*
X129326379Y-115966599D01*
X129312793Y-115954807D01*
X129294102Y-115927532D01*
X129286781Y-115914496D01*
X129249689Y-115845225D01*
X129221416Y-115794400D01*
X129199060Y-115757201D01*
X129179718Y-115728809D01*
X129160487Y-115704404D01*
X129159617Y-115703369D01*
X129130108Y-115662887D01*
X129101728Y-115615606D01*
X129094963Y-115602420D01*
X129076051Y-115569153D01*
X129059040Y-115548539D01*
X129052567Y-115545251D01*
X129039541Y-115534329D01*
X129021525Y-115506213D01*
X129008589Y-115480295D01*
X128985830Y-115438242D01*
X128960371Y-115403090D01*
X128947652Y-115390497D01*
X128925341Y-115369359D01*
X128916071Y-115353449D01*
X128905810Y-115339017D01*
X128884101Y-115324133D01*
X128862960Y-115306136D01*
X128833623Y-115273197D01*
X128801644Y-115232505D01*
X128772574Y-115191246D01*
X128751965Y-115156609D01*
X128748013Y-115147969D01*
X128735828Y-115129782D01*
X128715449Y-115106339D01*
X128673057Y-115061236D01*
X128643992Y-115028114D01*
X128622996Y-115000694D01*
X128608469Y-114978636D01*
X128561426Y-114912202D01*
X128515603Y-114864586D01*
X128473136Y-114837291D01*
X128436159Y-114831822D01*
X128414415Y-114842007D01*
X128397986Y-114863598D01*
X128395046Y-114874939D01*
X128385429Y-114894000D01*
X128362688Y-114915678D01*
X128330330Y-114939559D01*
X128368288Y-115018873D01*
X128392789Y-115063248D01*
X128418909Y-115100052D01*
X128438608Y-115119392D01*
X128460744Y-115139910D01*
X128491130Y-115175814D01*
X128524212Y-115220393D01*
X128533956Y-115234640D01*
X128577042Y-115297749D01*
X128611323Y-115344540D01*
X128641520Y-115380964D01*
X128672353Y-115412970D01*
X128684866Y-115424883D01*
X128708399Y-115451383D01*
X128720323Y-115473608D01*
X128720687Y-115476532D01*
X128726502Y-115489037D01*
X128731470Y-115488022D01*
X128744119Y-115493777D01*
X128766520Y-115513926D01*
X128792845Y-115541984D01*
X128817266Y-115571465D01*
X128833956Y-115595884D01*
X128837917Y-115606471D01*
X128847702Y-115620928D01*
X128863730Y-115633258D01*
X128884183Y-115653806D01*
X128908275Y-115688736D01*
X128921741Y-115712920D01*
X128942967Y-115749736D01*
X128962845Y-115775938D01*
X128972412Y-115783550D01*
X128988851Y-115798720D01*
X129009480Y-115829106D01*
X129019248Y-115847048D01*
X129038522Y-115884742D01*
X129054441Y-115914788D01*
X129059037Y-115922995D01*
X129069235Y-115943098D01*
X129086925Y-115980485D01*
X129109044Y-116028625D01*
X129120162Y-116053251D01*
X129145649Y-116106480D01*
X129171211Y-116153941D01*
X129192655Y-116188049D01*
X129199273Y-116196400D01*
X129219889Y-116220135D01*
X129228536Y-116235831D01*
X129222303Y-116245004D01*
X129198277Y-116249165D01*
X129153546Y-116249828D01*
X129098430Y-116248803D01*
X129037398Y-116243931D01*
X128990465Y-116229498D01*
X128946541Y-116200984D01*
X128916286Y-116174558D01*
X128885801Y-116150974D01*
X128857886Y-116136410D01*
X128857456Y-116136277D01*
X128826970Y-116121542D01*
X128805353Y-116106142D01*
X128777270Y-116087878D01*
X128733044Y-116065026D01*
X128681176Y-116041442D01*
X128630170Y-116020980D01*
X128588525Y-116007497D01*
X128587007Y-116007116D01*
X128520660Y-116002737D01*
X128453812Y-116018713D01*
X128396872Y-116052378D01*
X128391531Y-116057168D01*
X128362666Y-116087586D01*
X128342340Y-116115060D01*
X128338358Y-116123103D01*
X128327941Y-116139448D01*
X128311639Y-116132433D01*
X128310132Y-116131200D01*
X128284607Y-116120103D01*
X128247453Y-116114009D01*
X128241586Y-116113749D01*
X128203648Y-116117604D01*
X128172513Y-116135288D01*
X128152346Y-116154498D01*
X128124331Y-116178698D01*
X128093503Y-116192316D01*
X128054990Y-116195509D01*
X128003922Y-116188429D01*
X127935427Y-116171234D01*
X127904785Y-116162365D01*
X127814830Y-116136919D01*
X127733894Y-116116303D01*
X127666526Y-116101566D01*
X127617276Y-116093756D01*
X127602652Y-116092786D01*
X127575837Y-116101876D01*
X127542864Y-116125035D01*
X127511426Y-116155144D01*
X127489220Y-116185080D01*
X127483251Y-116203283D01*
X127475732Y-116220458D01*
X127469456Y-116222585D01*
X127461393Y-116230429D01*
X127463133Y-116234672D01*
X127459267Y-116247816D01*
X127447579Y-116254068D01*
X127431263Y-116269725D01*
X127413726Y-116301230D01*
X127399278Y-116338975D01*
X127392225Y-116373351D01*
X127392071Y-116377874D01*
X127402579Y-116390537D01*
X127429601Y-116409859D01*
X127453943Y-116424211D01*
X127507031Y-116462307D01*
X127552617Y-116511375D01*
X127583667Y-116563211D01*
X127590651Y-116583704D01*
X127593985Y-116602944D01*
X127585959Y-116605021D01*
X127563352Y-116593387D01*
X127506557Y-116556802D01*
X127455317Y-116515248D01*
X127427356Y-116486354D01*
X127405778Y-116465140D01*
X127390062Y-116457046D01*
X127373380Y-116449347D01*
X127344433Y-116429539D01*
X127321281Y-116411456D01*
X127288928Y-116386274D01*
X127264549Y-116369717D01*
X127255971Y-116365867D01*
X127239597Y-116359002D01*
X127213188Y-116342379D01*
X127211723Y-116341346D01*
X127171082Y-116321339D01*
X127115830Y-116304940D01*
X127056947Y-116294443D01*
X127005407Y-116292141D01*
X126987234Y-116294454D01*
X126950270Y-116313216D01*
X126935124Y-116337765D01*
X126920904Y-116373996D01*
X126910123Y-116398431D01*
X126896193Y-116430550D01*
X126884260Y-116461361D01*
X126870288Y-116483194D01*
X126853707Y-116492063D01*
X126842348Y-116486231D01*
X126842061Y-116470732D01*
X126838234Y-116460970D01*
X126833342Y-116462710D01*
X126815530Y-116460857D01*
X126801385Y-116450653D01*
X126782258Y-116434760D01*
X126773901Y-116430995D01*
X126759970Y-116423287D01*
X126729520Y-116402002D01*
X126686326Y-116369900D01*
X126634161Y-116329740D01*
X126617046Y-116316312D01*
X126570428Y-116289462D01*
X126506576Y-116265610D01*
X126433992Y-116246675D01*
X126361178Y-116234576D01*
X126296636Y-116231233D01*
X126259174Y-116235531D01*
X126232178Y-116251606D01*
X126200437Y-116284188D01*
X126168925Y-116326079D01*
X126142616Y-116370081D01*
X126126482Y-116408995D01*
X126124127Y-116430995D01*
X126133660Y-116470543D01*
X126148560Y-116515646D01*
X126165416Y-116557393D01*
X126180817Y-116586869D01*
X126186432Y-116593815D01*
X126204782Y-116613101D01*
X126231193Y-116644209D01*
X126260958Y-116681140D01*
X126289368Y-116717896D01*
X126311717Y-116748478D01*
X126323297Y-116766887D01*
X126323969Y-116769075D01*
X126331104Y-116783245D01*
X126349835Y-116812550D01*
X126376155Y-116851269D01*
X126406055Y-116893678D01*
X126435526Y-116934053D01*
X126460559Y-116966671D01*
X126471874Y-116980243D01*
X126484086Y-117000189D01*
X126483533Y-117009550D01*
X126485900Y-117016568D01*
X126491131Y-117017149D01*
X126503894Y-117027908D01*
X126506328Y-117040595D01*
X126517147Y-117073372D01*
X126549205Y-117091524D01*
X126584192Y-117095303D01*
X126627891Y-117088062D01*
X126654521Y-117064568D01*
X126666078Y-117022164D01*
X126666565Y-116985593D01*
X126663068Y-116943565D01*
X126657486Y-116910376D01*
X126654522Y-116900926D01*
X126645883Y-116878014D01*
X126644222Y-116871033D01*
X126635709Y-116854832D01*
X126622724Y-116837892D01*
X126602664Y-116809362D01*
X126593825Y-116791880D01*
X126580978Y-116773040D01*
X126573387Y-116769662D01*
X126562548Y-116759487D01*
X126543164Y-116733501D01*
X126519615Y-116698512D01*
X126496281Y-116661328D01*
X126477543Y-116628755D01*
X126467780Y-116607603D01*
X126467251Y-116604706D01*
X126459904Y-116588690D01*
X126443060Y-116567351D01*
X126424516Y-116549239D01*
X126412064Y-116542903D01*
X126411325Y-116543365D01*
X126401833Y-116538201D01*
X126387557Y-116517618D01*
X126373391Y-116490383D01*
X126364231Y-116465263D01*
X126363046Y-116456890D01*
X126373691Y-116448251D01*
X126400436Y-116448512D01*
X126435492Y-116456179D01*
X126471071Y-116469755D01*
X126491521Y-116481552D01*
X126524638Y-116501611D01*
X126552355Y-116513936D01*
X126574668Y-116527032D01*
X126607580Y-116553433D01*
X126643535Y-116587002D01*
X126676983Y-116619205D01*
X126703722Y-116642511D01*
X126718221Y-116652113D01*
X126718544Y-116652147D01*
X126736848Y-116659732D01*
X126744595Y-116665260D01*
X126764434Y-116681300D01*
X126794253Y-116705275D01*
X126802917Y-116712223D01*
X126828756Y-116738167D01*
X126841674Y-116761606D01*
X126841994Y-116767257D01*
X126850658Y-116787750D01*
X126877559Y-116805638D01*
X126918722Y-116824703D01*
X126941358Y-116837522D01*
X126951054Y-116847701D01*
X126953028Y-116854328D01*
X126964223Y-116871668D01*
X126991105Y-116899352D01*
X127028056Y-116932727D01*
X127069459Y-116967142D01*
X127109699Y-116997944D01*
X127143159Y-117020481D01*
X127164221Y-117030101D01*
X127165324Y-117030174D01*
X127186562Y-117019690D01*
X127191627Y-117011546D01*
X127208249Y-116994075D01*
X127235526Y-116980106D01*
X127267675Y-116958429D01*
X127281074Y-116927243D01*
X127290776Y-116896871D01*
X127301819Y-116879807D01*
X127301894Y-116879760D01*
X127314192Y-116858320D01*
X127313053Y-116823155D01*
X127300654Y-116781393D01*
X127279172Y-116740162D01*
X127250784Y-116706592D01*
X127248379Y-116704533D01*
X127237290Y-116690947D01*
X127216795Y-116662637D01*
X127198366Y-116636015D01*
X127174710Y-116594587D01*
X127169924Y-116570180D01*
X127182169Y-116564012D01*
X127209604Y-116577301D01*
X127244338Y-116605585D01*
X127305250Y-116659640D01*
X127359633Y-116702056D01*
X127418123Y-116740794D01*
X127452778Y-116761590D01*
X127493603Y-116787665D01*
X127524931Y-116811665D01*
X127540144Y-116828506D01*
X127540276Y-116828829D01*
X127555244Y-116843717D01*
X127587852Y-116864738D01*
X127631736Y-116887903D01*
X127643114Y-116893281D01*
X127691607Y-116917618D01*
X127733150Y-116941920D01*
X127759903Y-116961534D01*
X127762465Y-116964121D01*
X127782037Y-116983297D01*
X127799283Y-116988833D01*
X127822090Y-116980190D01*
X127857160Y-116957624D01*
X127897119Y-116925673D01*
X127921608Y-116891008D01*
X127933779Y-116846374D01*
X127936784Y-116784515D01*
X127936662Y-116774628D01*
X127934105Y-116722095D01*
X127926888Y-116685886D01*
X127912423Y-116656358D01*
X127900389Y-116639405D01*
X127873718Y-116599550D01*
X127851903Y-116558916D01*
X127848713Y-116551482D01*
X127834493Y-116523260D01*
X127821771Y-116509431D01*
X127820337Y-116509149D01*
X127810033Y-116498645D01*
X127808892Y-116490590D01*
X127800019Y-116472071D01*
X127777089Y-116443513D01*
X127753880Y-116419687D01*
X127725793Y-116390461D01*
X127709158Y-116368146D01*
X127707113Y-116359099D01*
X127722331Y-116359638D01*
X127754439Y-116368906D01*
X127796581Y-116384911D01*
X127797945Y-116385482D01*
X127867727Y-116408891D01*
X127941386Y-116423794D01*
X128011663Y-116429502D01*
X128071303Y-116425326D01*
X128105800Y-116414746D01*
X128135677Y-116403637D01*
X128155836Y-116402819D01*
X128156790Y-116403351D01*
X128168842Y-116417835D01*
X128189735Y-116448638D01*
X128215271Y-116489525D01*
X128219231Y-116496123D01*
X128247114Y-116540443D01*
X128273199Y-116577851D01*
X128292194Y-116600796D01*
X128293333Y-116601856D01*
X128311874Y-116626334D01*
X128316892Y-116643448D01*
X128324912Y-116662319D01*
X128346265Y-116694631D01*
X128376891Y-116734430D01*
X128388388Y-116748249D01*
X128439561Y-116802957D01*
X128484933Y-116838362D01*
X128517807Y-116854645D01*
X128553541Y-116871261D01*
X128577675Y-116887996D01*
X128582514Y-116894443D01*
X128598098Y-116910444D01*
X128628356Y-116928170D01*
X128637665Y-116932330D01*
X128674170Y-116952350D01*
X128701895Y-116975678D01*
X128705086Y-116979741D01*
X128737427Y-117008935D01*
X128786174Y-117034051D01*
X128841683Y-117051002D01*
X128884891Y-117055940D01*
X128925025Y-117051437D01*
X128963283Y-117034645D01*
X128999552Y-117009515D01*
X129070027Y-116952191D01*
X129119769Y-116901557D01*
X129151281Y-116852521D01*
X129167067Y-116799994D01*
X129167795Y-116782615D01*
X128967381Y-116782615D01*
X128961880Y-116807989D01*
X128943177Y-116831654D01*
X128915805Y-116845994D01*
X128905009Y-116847401D01*
X128885733Y-116841221D01*
X128851638Y-116824578D01*
X128809887Y-116800989D01*
X128807317Y-116799443D01*
X128758529Y-116766246D01*
X128703322Y-116722615D01*
X128645259Y-116672091D01*
X128587904Y-116618214D01*
X128534821Y-116564524D01*
X128489575Y-116514560D01*
X128455728Y-116471864D01*
X128436845Y-116439975D01*
X128434123Y-116428756D01*
X128427075Y-116405215D01*
X128413287Y-116380993D01*
X128399938Y-116356623D01*
X128403883Y-116338403D01*
X128410768Y-116329249D01*
X128429403Y-116300965D01*
X128445170Y-116269632D01*
X128455252Y-116249023D01*
X128467762Y-116238583D01*
X128490027Y-116236044D01*
X128529371Y-116239140D01*
X128540081Y-116240251D01*
X128588792Y-116248296D01*
X128638302Y-116261251D01*
X128682498Y-116276857D01*
X128715266Y-116292852D01*
X128730491Y-116306978D01*
X128730669Y-116310704D01*
X128736994Y-116325829D01*
X128756990Y-116351173D01*
X128769533Y-116364447D01*
X128795045Y-116393698D01*
X128810123Y-116418014D01*
X128811866Y-116424837D01*
X128821751Y-116447109D01*
X128828900Y-116453142D01*
X128845547Y-116472799D01*
X128866616Y-116510725D01*
X128889340Y-116560151D01*
X128910953Y-116614306D01*
X128928690Y-116666421D01*
X128939783Y-116709723D01*
X128942123Y-116730271D01*
X128948209Y-116755017D01*
X128955148Y-116763149D01*
X128967381Y-116782615D01*
X129167795Y-116782615D01*
X129169630Y-116738885D01*
X129163306Y-116676561D01*
X129154539Y-116620942D01*
X129144735Y-116568163D01*
X129136256Y-116530629D01*
X129128851Y-116497862D01*
X129126940Y-116477736D01*
X129127671Y-116475566D01*
X129142832Y-116470906D01*
X129175558Y-116464918D01*
X129217602Y-116458698D01*
X129260719Y-116453344D01*
X129296662Y-116449952D01*
X129317186Y-116449619D01*
X129318915Y-116450125D01*
X129329109Y-116464727D01*
X129347215Y-116498328D01*
X129370751Y-116546042D01*
X129397230Y-116602980D01*
X129401903Y-116613354D01*
X129417057Y-116650135D01*
X129435884Y-116699865D01*
X129451457Y-116743610D01*
X129468228Y-116789247D01*
X129483811Y-116826363D01*
X129494460Y-116846324D01*
X129507204Y-116869935D01*
X129509286Y-116878888D01*
X129514588Y-116903640D01*
X129517764Y-116912944D01*
X129525493Y-116937019D01*
X129536073Y-116974616D01*
X129540416Y-116991097D01*
X129552308Y-117032783D01*
X129564103Y-117067392D01*
X129567599Y-117075764D01*
X129576440Y-117100382D01*
X129589035Y-117142235D01*
X129602981Y-117193242D01*
X129606128Y-117205423D01*
X129619811Y-117255006D01*
X129632708Y-117294904D01*
X129642539Y-117318242D01*
X129644426Y-117320868D01*
X129663223Y-117326744D01*
X129679106Y-117312919D01*
X129684584Y-117289918D01*
X129688744Y-117268487D01*
X129703036Y-117268634D01*
X129726028Y-117286317D01*
X129743910Y-117299447D01*
X129759346Y-117296988D01*
X129782413Y-117277533D01*
X129805934Y-117248078D01*
X129812866Y-117215320D01*
X129803477Y-117172756D01*
X129788254Y-117135656D01*
X129772940Y-117091701D01*
X129769574Y-117057224D01*
X129770819Y-117051286D01*
X129780560Y-116992299D01*
X129778380Y-116924113D01*
X129765662Y-116857114D01*
X129743792Y-116801689D01*
X129735890Y-116789200D01*
X129728831Y-116771427D01*
X129717744Y-116734727D01*
X129704511Y-116685545D01*
X129697838Y-116658944D01*
X129681347Y-116594937D01*
X129663171Y-116529541D01*
X129646635Y-116474611D01*
X129643032Y-116463559D01*
X129621782Y-116398561D01*
X129608835Y-116353173D01*
X129603820Y-116322440D01*
X129606368Y-116301407D01*
X129616110Y-116285118D01*
X129628761Y-116272241D01*
X129658720Y-116237678D01*
X129680849Y-116203046D01*
X129703099Y-116169119D01*
X129734487Y-116132010D01*
X129744740Y-116121664D01*
X129771112Y-116092416D01*
X129786846Y-116067397D01*
X129788789Y-116059793D01*
X129794209Y-116041605D01*
X129807179Y-116043645D01*
X129822766Y-116063275D01*
X129831379Y-116082559D01*
X129840927Y-116113616D01*
X129844062Y-116133183D01*
X129843882Y-116134196D01*
X129848517Y-116149619D01*
X129863598Y-116183048D01*
X129886677Y-116229850D01*
X129915306Y-116285397D01*
X129947037Y-116345055D01*
X129979420Y-116404195D01*
X130010007Y-116458186D01*
X130036350Y-116502396D01*
X130049016Y-116522174D01*
X130069302Y-116557644D01*
X130088262Y-116598426D01*
X130088803Y-116599769D01*
X130106416Y-116635732D01*
X130125300Y-116663211D01*
X130126998Y-116664999D01*
X130139806Y-116683831D01*
X130161845Y-116722810D01*
X130191348Y-116778463D01*
X130226547Y-116847320D01*
X130265675Y-116925912D01*
X130306965Y-117010768D01*
X130348651Y-117098417D01*
X130359391Y-117121354D01*
X130394050Y-117202203D01*
X130425462Y-117287736D01*
X130451618Y-117371377D01*
X130470504Y-117446548D01*
X130480109Y-117506675D01*
X130480818Y-117518361D01*
X130482889Y-117558600D01*
X130489694Y-117580530D01*
X130507095Y-117588225D01*
X130540954Y-117585765D01*
X130571148Y-117581182D01*
X130605446Y-117566986D01*
X130628882Y-117535353D01*
X130642314Y-117484046D01*
X130646603Y-117410829D01*
X130646275Y-117385799D01*
X130633660Y-117269961D01*
X130603345Y-117149412D01*
X130558356Y-117035226D01*
X130541528Y-117002159D01*
X130455823Y-116842728D01*
X130370729Y-116681648D01*
X130348646Y-116639426D01*
X130317605Y-116582006D01*
X130287730Y-116530306D01*
X130262671Y-116490443D01*
X130247576Y-116470092D01*
X130231413Y-116447274D01*
X130206583Y-116406040D01*
X130175911Y-116351352D01*
X130142222Y-116288174D01*
X130125228Y-116255149D01*
X130085776Y-116175435D01*
X130058113Y-116114174D01*
X130040695Y-116067440D01*
X130031974Y-116031307D01*
X130030311Y-116014174D01*
X130026263Y-115981469D01*
X130014935Y-115947194D01*
X129993648Y-115905311D01*
X129959727Y-115849781D01*
X129952368Y-115838328D01*
X129920604Y-115789714D01*
X129893721Y-115749647D01*
X129875012Y-115722967D01*
X129868236Y-115714585D01*
X129857672Y-115701516D01*
X129836442Y-115671968D01*
X129808266Y-115631180D01*
X129793159Y-115608839D01*
X129759781Y-115555656D01*
X129740304Y-115516700D01*
X129736038Y-115494661D01*
X129736734Y-115493072D01*
X129748960Y-115485505D01*
X129768879Y-115497229D01*
X129776143Y-115503732D01*
X129809320Y-115528939D01*
X129847369Y-115550874D01*
X129881324Y-115570604D01*
X129906313Y-115591231D01*
X129907230Y-115592298D01*
X129934179Y-115613493D01*
X129979635Y-115637722D01*
X130037886Y-115663040D01*
X130103217Y-115687501D01*
X130169918Y-115709160D01*
X130232276Y-115726070D01*
X130284579Y-115736287D01*
X130321114Y-115737865D01*
X130329146Y-115736005D01*
X130344054Y-115717846D01*
X130348892Y-115688942D01*
X130354399Y-115658029D01*
X130368850Y-115649456D01*
X130389177Y-115637880D01*
X130402708Y-115608393D01*
X130406441Y-115568860D01*
X130404994Y-115554846D01*
X130383959Y-115484897D01*
X130364830Y-115453224D01*
X129707442Y-115453224D01*
X129705660Y-115454072D01*
X129693773Y-115444902D01*
X129691097Y-115441046D01*
X129687778Y-115428869D01*
X129689560Y-115428020D01*
X129701447Y-115437190D01*
X129704123Y-115441046D01*
X129707442Y-115453224D01*
X130364830Y-115453224D01*
X130341783Y-115415067D01*
X130336884Y-115409609D01*
X130062328Y-115409609D01*
X130058633Y-115414332D01*
X130044569Y-115409714D01*
X130015666Y-115393848D01*
X129991218Y-115379269D01*
X129952534Y-115353326D01*
X129933320Y-115334561D01*
X129935176Y-115324795D01*
X129942531Y-115323815D01*
X129957521Y-115330766D01*
X129984443Y-115347968D01*
X130015652Y-115369949D01*
X130043507Y-115391234D01*
X130060364Y-115406350D01*
X130062328Y-115409609D01*
X130336884Y-115409609D01*
X130276628Y-115342489D01*
X130256790Y-115323815D01*
X130205377Y-115276415D01*
X129888492Y-115276415D01*
X129883744Y-115279377D01*
X129860671Y-115267775D01*
X129858055Y-115266353D01*
X129832891Y-115248954D01*
X129795109Y-115218424D01*
X129750771Y-115179789D01*
X129723661Y-115154919D01*
X129668798Y-115105611D01*
X129626822Y-115074659D01*
X129593187Y-115061060D01*
X129563345Y-115063813D01*
X129532748Y-115081916D01*
X129504751Y-115106702D01*
X129461686Y-115147969D01*
X129404958Y-115082841D01*
X129353387Y-115016464D01*
X129312724Y-114949763D01*
X129284736Y-114886997D01*
X129271188Y-114832425D01*
X129273844Y-114790308D01*
X129279069Y-114779076D01*
X129296889Y-114773639D01*
X129330864Y-114782025D01*
X129376832Y-114801756D01*
X129430630Y-114830350D01*
X129488095Y-114865328D01*
X129545064Y-114904209D01*
X129597374Y-114944512D01*
X129640863Y-114983758D01*
X129662378Y-115007464D01*
X129682493Y-115030535D01*
X129714563Y-115065450D01*
X129752334Y-115105425D01*
X129760071Y-115113479D01*
X129803919Y-115159375D01*
X129833671Y-115191874D01*
X129853562Y-115216084D01*
X129867829Y-115237118D01*
X129879088Y-115257041D01*
X129888492Y-115276415D01*
X130205377Y-115276415D01*
X130185685Y-115258261D01*
X130129183Y-115204854D01*
X130082285Y-115158586D01*
X130039990Y-115114449D01*
X129997297Y-115067435D01*
X129971148Y-115037753D01*
X129901681Y-114961036D01*
X129829072Y-114885692D01*
X129757647Y-114815882D01*
X129691735Y-114755765D01*
X129635663Y-114709500D01*
X129611556Y-114692113D01*
X129532347Y-114644706D01*
X129449440Y-114604888D01*
X129369375Y-114575226D01*
X129298689Y-114558289D01*
X129263245Y-114555303D01*
X129216386Y-114553117D01*
X129175655Y-114547531D01*
X129159474Y-114543200D01*
X129123774Y-114540637D01*
X129092252Y-114555783D01*
G36*
X130956694Y-116024582D02*
X130948071Y-116038631D01*
X130939719Y-116053006D01*
X130918643Y-116078008D01*
X130907020Y-116090294D01*
X130865968Y-116132283D01*
X130881848Y-116206741D01*
X130893241Y-116250742D01*
X130911309Y-116310051D01*
X130933229Y-116375715D01*
X130948950Y-116419577D01*
X130969372Y-116475457D01*
X130985928Y-116522113D01*
X130996786Y-116554291D01*
X131000174Y-116566486D01*
X131005429Y-116581381D01*
X131019442Y-116613732D01*
X131039589Y-116657563D01*
X131048120Y-116675596D01*
X131074949Y-116734500D01*
X131101101Y-116796279D01*
X131121354Y-116848548D01*
X131123018Y-116853242D01*
X131149969Y-116930310D01*
X131239553Y-116960408D01*
X131329136Y-116990506D01*
X131322924Y-116935392D01*
X131321142Y-116894280D01*
X131324415Y-116860434D01*
X131326140Y-116854278D01*
X131327837Y-116822105D01*
X131321384Y-116802226D01*
X131309770Y-116779060D01*
X131306212Y-116769662D01*
X131298944Y-116742307D01*
X131284225Y-116698955D01*
X131265064Y-116647469D01*
X131244472Y-116595709D01*
X131225459Y-116551538D01*
X131212991Y-116526195D01*
X131196542Y-116489559D01*
X131194105Y-116467880D01*
X131203886Y-116464088D01*
X131224093Y-116481116D01*
X131233451Y-116492743D01*
X131255866Y-116522121D01*
X131273070Y-116543819D01*
X131273571Y-116544419D01*
X131285469Y-116565793D01*
X131286738Y-116572642D01*
X131295037Y-116588678D01*
X131296507Y-116589473D01*
X131313931Y-116605953D01*
X131336556Y-116638120D01*
X131359477Y-116677651D01*
X131377787Y-116716222D01*
X131385891Y-116741142D01*
X131400893Y-116780036D01*
X131425995Y-116817622D01*
X131428485Y-116820394D01*
X131467153Y-116866929D01*
X131508514Y-116924152D01*
X131544655Y-116980720D01*
X131560698Y-117009940D01*
X131582810Y-117044834D01*
X131612871Y-117081755D01*
X131618892Y-117088094D01*
X131648140Y-117122576D01*
X131670859Y-117157351D01*
X131673972Y-117163687D01*
X131692648Y-117192273D01*
X131710563Y-117197364D01*
X131724342Y-117178375D01*
X131726028Y-117172720D01*
X131739047Y-117153223D01*
X131752329Y-117153336D01*
X131777793Y-117151692D01*
X131810183Y-117136445D01*
X131840088Y-117113837D01*
X131858098Y-117090113D01*
X131859866Y-117081983D01*
X131866098Y-117057492D01*
X131872892Y-117049713D01*
X131885138Y-117032282D01*
X131873882Y-117007969D01*
X131863574Y-116996666D01*
X131846433Y-116970995D01*
X131827050Y-116930073D01*
X131809401Y-116883951D01*
X131797457Y-116842676D01*
X131794619Y-116822264D01*
X131789061Y-116799916D01*
X131774908Y-116763960D01*
X131762462Y-116737097D01*
X131738910Y-116680174D01*
X131730448Y-116637152D01*
X131737541Y-116610942D01*
X131741825Y-116607342D01*
X131756655Y-116611573D01*
X131776164Y-116632069D01*
X131777646Y-116634179D01*
X131805415Y-116670031D01*
X131830559Y-116697813D01*
X131850985Y-116720906D01*
X131859855Y-116736303D01*
X131859866Y-116736580D01*
X131866748Y-116752787D01*
X131883458Y-116779218D01*
X131884886Y-116781239D01*
X131904608Y-116812239D01*
X131929222Y-116855545D01*
X131955575Y-116904979D01*
X131980519Y-116954361D01*
X132000900Y-116997513D01*
X132013568Y-117028255D01*
X132016174Y-117038679D01*
X132026098Y-117057678D01*
X132046583Y-117075550D01*
X132076331Y-117102458D01*
X132093398Y-117126130D01*
X132113986Y-117151065D01*
X132147678Y-117179655D01*
X132166750Y-117192780D01*
X132204521Y-117220295D01*
X132235270Y-117248958D01*
X132244549Y-117260603D01*
X132262863Y-117281650D01*
X132278843Y-117280913D01*
X132282726Y-117278054D01*
X132293803Y-117255049D01*
X132292905Y-117236362D01*
X132291786Y-117216495D01*
X132304019Y-117215674D01*
X132318530Y-117229680D01*
X132319020Y-117236956D01*
X132323410Y-117250249D01*
X132343118Y-117247780D01*
X132373592Y-117230635D01*
X132386658Y-117220812D01*
X132407704Y-117202731D01*
X132417817Y-117186283D01*
X132418911Y-117162987D01*
X132412899Y-117124360D01*
X132410896Y-117113415D01*
X132403081Y-117062552D01*
X132403069Y-117035660D01*
X132411197Y-117031751D01*
X132427803Y-117049839D01*
X132431058Y-117054406D01*
X132456243Y-117087165D01*
X132481841Y-117116870D01*
X132501854Y-117140384D01*
X132511078Y-117154880D01*
X132511148Y-117155430D01*
X132518909Y-117168151D01*
X132539177Y-117194657D01*
X132565290Y-117226478D01*
X132605620Y-117266728D01*
X132642021Y-117288885D01*
X132671022Y-117291426D01*
X132685915Y-117279408D01*
X132702552Y-117272857D01*
X132723662Y-117274013D01*
X132751344Y-117271334D01*
X132779623Y-117249399D01*
X132789101Y-117238703D01*
X132810997Y-117209272D01*
X132823080Y-117186411D01*
X132823900Y-117182226D01*
X132824476Y-117162986D01*
X132825897Y-117124623D01*
X132827903Y-117074040D01*
X132828854Y-117050909D01*
X132830121Y-116987130D01*
X132827056Y-116941164D01*
X132818739Y-116904996D01*
X132809465Y-116881576D01*
X132793994Y-116837992D01*
X132785507Y-116795635D01*
X132784973Y-116786292D01*
X132779290Y-116747854D01*
X132765427Y-116702563D01*
X132759652Y-116688600D01*
X132759372Y-116687969D01*
X132500116Y-116687969D01*
X132492253Y-116691508D01*
X132479109Y-116684995D01*
X132094328Y-116684995D01*
X132087815Y-116691508D01*
X132081302Y-116684995D01*
X132087815Y-116678482D01*
X132094328Y-116684995D01*
X132479109Y-116684995D01*
X132471370Y-116681161D01*
X132459046Y-116665456D01*
X132451002Y-116645342D01*
X132452533Y-116639405D01*
X132453162Y-116629862D01*
X132446020Y-116613354D01*
X132435855Y-116591345D01*
X132438595Y-116588861D01*
X132452135Y-116604134D01*
X132474370Y-116635396D01*
X132477038Y-116639405D01*
X132496464Y-116671850D01*
X132500116Y-116687969D01*
X132759372Y-116687969D01*
X132739051Y-116642320D01*
X132718959Y-116596527D01*
X132714622Y-116586512D01*
X132696050Y-116555233D01*
X132664666Y-116513736D01*
X132626479Y-116469815D01*
X132616712Y-116459512D01*
X132576302Y-116419215D01*
X132546926Y-116394901D01*
X132522679Y-116382759D01*
X132497657Y-116378980D01*
X132491780Y-116378892D01*
X132448993Y-116384858D01*
X132402530Y-116399621D01*
X132393176Y-116403816D01*
X132341591Y-116428739D01*
X132309770Y-116374440D01*
X132281899Y-116334536D01*
X132244228Y-116289930D01*
X132218309Y-116263301D01*
X132183355Y-116231869D01*
X132158343Y-116216067D01*
X132135686Y-116212251D01*
X132117200Y-116214754D01*
X132078524Y-116229896D01*
X132042372Y-116255020D01*
X132041405Y-116255934D01*
X132021052Y-116278822D01*
X132012080Y-116302625D01*
X132011571Y-116337706D01*
X132013033Y-116356651D01*
X132019647Y-116404389D01*
X132031236Y-116464074D01*
X132045137Y-116522174D01*
X132058653Y-116572702D01*
X132070227Y-116616027D01*
X132077618Y-116643756D01*
X132078191Y-116645918D01*
X132078208Y-116657805D01*
X132067813Y-116650154D01*
X132049395Y-116626115D01*
X132025343Y-116588839D01*
X131998043Y-116541476D01*
X131995528Y-116536862D01*
X131967498Y-116492990D01*
X131928318Y-116441353D01*
X131885761Y-116392092D01*
X131879405Y-116385366D01*
X131834974Y-116341532D01*
X131798472Y-116312939D01*
X131761924Y-116294194D01*
X131727605Y-116282755D01*
X131672592Y-116268394D01*
X131634172Y-116264048D01*
X131604346Y-116271136D01*
X131575114Y-116291073D01*
X131549875Y-116314248D01*
X131517443Y-116348359D01*
X131500919Y-116376194D01*
X131495395Y-116407142D01*
X131495148Y-116418911D01*
X131493851Y-116451441D01*
X131487790Y-116463214D01*
X131473707Y-116459478D01*
X131470896Y-116458009D01*
X131453026Y-116441149D01*
X131427225Y-116407976D01*
X131398349Y-116364874D01*
X131391023Y-116352974D01*
X131335841Y-116275730D01*
X131265763Y-116198610D01*
X131188029Y-116128501D01*
X131109881Y-116072289D01*
X131075511Y-116052854D01*
X131024641Y-116031136D01*
X130983610Y-116021553D01*
X130956694Y-116024582D01*
X130956694Y-116024582D01*
G37*
X130956694Y-116024582D02*
X130948071Y-116038631D01*
X130939719Y-116053006D01*
X130918643Y-116078008D01*
X130907020Y-116090294D01*
X130865968Y-116132283D01*
X130881848Y-116206741D01*
X130893241Y-116250742D01*
X130911309Y-116310051D01*
X130933229Y-116375715D01*
X130948950Y-116419577D01*
X130969372Y-116475457D01*
X130985928Y-116522113D01*
X130996786Y-116554291D01*
X131000174Y-116566486D01*
X131005429Y-116581381D01*
X131019442Y-116613732D01*
X131039589Y-116657563D01*
X131048120Y-116675596D01*
X131074949Y-116734500D01*
X131101101Y-116796279D01*
X131121354Y-116848548D01*
X131123018Y-116853242D01*
X131149969Y-116930310D01*
X131239553Y-116960408D01*
X131329136Y-116990506D01*
X131322924Y-116935392D01*
X131321142Y-116894280D01*
X131324415Y-116860434D01*
X131326140Y-116854278D01*
X131327837Y-116822105D01*
X131321384Y-116802226D01*
X131309770Y-116779060D01*
X131306212Y-116769662D01*
X131298944Y-116742307D01*
X131284225Y-116698955D01*
X131265064Y-116647469D01*
X131244472Y-116595709D01*
X131225459Y-116551538D01*
X131212991Y-116526195D01*
X131196542Y-116489559D01*
X131194105Y-116467880D01*
X131203886Y-116464088D01*
X131224093Y-116481116D01*
X131233451Y-116492743D01*
X131255866Y-116522121D01*
X131273070Y-116543819D01*
X131273571Y-116544419D01*
X131285469Y-116565793D01*
X131286738Y-116572642D01*
X131295037Y-116588678D01*
X131296507Y-116589473D01*
X131313931Y-116605953D01*
X131336556Y-116638120D01*
X131359477Y-116677651D01*
X131377787Y-116716222D01*
X131385891Y-116741142D01*
X131400893Y-116780036D01*
X131425995Y-116817622D01*
X131428485Y-116820394D01*
X131467153Y-116866929D01*
X131508514Y-116924152D01*
X131544655Y-116980720D01*
X131560698Y-117009940D01*
X131582810Y-117044834D01*
X131612871Y-117081755D01*
X131618892Y-117088094D01*
X131648140Y-117122576D01*
X131670859Y-117157351D01*
X131673972Y-117163687D01*
X131692648Y-117192273D01*
X131710563Y-117197364D01*
X131724342Y-117178375D01*
X131726028Y-117172720D01*
X131739047Y-117153223D01*
X131752329Y-117153336D01*
X131777793Y-117151692D01*
X131810183Y-117136445D01*
X131840088Y-117113837D01*
X131858098Y-117090113D01*
X131859866Y-117081983D01*
X131866098Y-117057492D01*
X131872892Y-117049713D01*
X131885138Y-117032282D01*
X131873882Y-117007969D01*
X131863574Y-116996666D01*
X131846433Y-116970995D01*
X131827050Y-116930073D01*
X131809401Y-116883951D01*
X131797457Y-116842676D01*
X131794619Y-116822264D01*
X131789061Y-116799916D01*
X131774908Y-116763960D01*
X131762462Y-116737097D01*
X131738910Y-116680174D01*
X131730448Y-116637152D01*
X131737541Y-116610942D01*
X131741825Y-116607342D01*
X131756655Y-116611573D01*
X131776164Y-116632069D01*
X131777646Y-116634179D01*
X131805415Y-116670031D01*
X131830559Y-116697813D01*
X131850985Y-116720906D01*
X131859855Y-116736303D01*
X131859866Y-116736580D01*
X131866748Y-116752787D01*
X131883458Y-116779218D01*
X131884886Y-116781239D01*
X131904608Y-116812239D01*
X131929222Y-116855545D01*
X131955575Y-116904979D01*
X131980519Y-116954361D01*
X132000900Y-116997513D01*
X132013568Y-117028255D01*
X132016174Y-117038679D01*
X132026098Y-117057678D01*
X132046583Y-117075550D01*
X132076331Y-117102458D01*
X132093398Y-117126130D01*
X132113986Y-117151065D01*
X132147678Y-117179655D01*
X132166750Y-117192780D01*
X132204521Y-117220295D01*
X132235270Y-117248958D01*
X132244549Y-117260603D01*
X132262863Y-117281650D01*
X132278843Y-117280913D01*
X132282726Y-117278054D01*
X132293803Y-117255049D01*
X132292905Y-117236362D01*
X132291786Y-117216495D01*
X132304019Y-117215674D01*
X132318530Y-117229680D01*
X132319020Y-117236956D01*
X132323410Y-117250249D01*
X132343118Y-117247780D01*
X132373592Y-117230635D01*
X132386658Y-117220812D01*
X132407704Y-117202731D01*
X132417817Y-117186283D01*
X132418911Y-117162987D01*
X132412899Y-117124360D01*
X132410896Y-117113415D01*
X132403081Y-117062552D01*
X132403069Y-117035660D01*
X132411197Y-117031751D01*
X132427803Y-117049839D01*
X132431058Y-117054406D01*
X132456243Y-117087165D01*
X132481841Y-117116870D01*
X132501854Y-117140384D01*
X132511078Y-117154880D01*
X132511148Y-117155430D01*
X132518909Y-117168151D01*
X132539177Y-117194657D01*
X132565290Y-117226478D01*
X132605620Y-117266728D01*
X132642021Y-117288885D01*
X132671022Y-117291426D01*
X132685915Y-117279408D01*
X132702552Y-117272857D01*
X132723662Y-117274013D01*
X132751344Y-117271334D01*
X132779623Y-117249399D01*
X132789101Y-117238703D01*
X132810997Y-117209272D01*
X132823080Y-117186411D01*
X132823900Y-117182226D01*
X132824476Y-117162986D01*
X132825897Y-117124623D01*
X132827903Y-117074040D01*
X132828854Y-117050909D01*
X132830121Y-116987130D01*
X132827056Y-116941164D01*
X132818739Y-116904996D01*
X132809465Y-116881576D01*
X132793994Y-116837992D01*
X132785507Y-116795635D01*
X132784973Y-116786292D01*
X132779290Y-116747854D01*
X132765427Y-116702563D01*
X132759652Y-116688600D01*
X132759372Y-116687969D01*
X132500116Y-116687969D01*
X132492253Y-116691508D01*
X132479109Y-116684995D01*
X132094328Y-116684995D01*
X132087815Y-116691508D01*
X132081302Y-116684995D01*
X132087815Y-116678482D01*
X132094328Y-116684995D01*
X132479109Y-116684995D01*
X132471370Y-116681161D01*
X132459046Y-116665456D01*
X132451002Y-116645342D01*
X132452533Y-116639405D01*
X132453162Y-116629862D01*
X132446020Y-116613354D01*
X132435855Y-116591345D01*
X132438595Y-116588861D01*
X132452135Y-116604134D01*
X132474370Y-116635396D01*
X132477038Y-116639405D01*
X132496464Y-116671850D01*
X132500116Y-116687969D01*
X132759372Y-116687969D01*
X132739051Y-116642320D01*
X132718959Y-116596527D01*
X132714622Y-116586512D01*
X132696050Y-116555233D01*
X132664666Y-116513736D01*
X132626479Y-116469815D01*
X132616712Y-116459512D01*
X132576302Y-116419215D01*
X132546926Y-116394901D01*
X132522679Y-116382759D01*
X132497657Y-116378980D01*
X132491780Y-116378892D01*
X132448993Y-116384858D01*
X132402530Y-116399621D01*
X132393176Y-116403816D01*
X132341591Y-116428739D01*
X132309770Y-116374440D01*
X132281899Y-116334536D01*
X132244228Y-116289930D01*
X132218309Y-116263301D01*
X132183355Y-116231869D01*
X132158343Y-116216067D01*
X132135686Y-116212251D01*
X132117200Y-116214754D01*
X132078524Y-116229896D01*
X132042372Y-116255020D01*
X132041405Y-116255934D01*
X132021052Y-116278822D01*
X132012080Y-116302625D01*
X132011571Y-116337706D01*
X132013033Y-116356651D01*
X132019647Y-116404389D01*
X132031236Y-116464074D01*
X132045137Y-116522174D01*
X132058653Y-116572702D01*
X132070227Y-116616027D01*
X132077618Y-116643756D01*
X132078191Y-116645918D01*
X132078208Y-116657805D01*
X132067813Y-116650154D01*
X132049395Y-116626115D01*
X132025343Y-116588839D01*
X131998043Y-116541476D01*
X131995528Y-116536862D01*
X131967498Y-116492990D01*
X131928318Y-116441353D01*
X131885761Y-116392092D01*
X131879405Y-116385366D01*
X131834974Y-116341532D01*
X131798472Y-116312939D01*
X131761924Y-116294194D01*
X131727605Y-116282755D01*
X131672592Y-116268394D01*
X131634172Y-116264048D01*
X131604346Y-116271136D01*
X131575114Y-116291073D01*
X131549875Y-116314248D01*
X131517443Y-116348359D01*
X131500919Y-116376194D01*
X131495395Y-116407142D01*
X131495148Y-116418911D01*
X131493851Y-116451441D01*
X131487790Y-116463214D01*
X131473707Y-116459478D01*
X131470896Y-116458009D01*
X131453026Y-116441149D01*
X131427225Y-116407976D01*
X131398349Y-116364874D01*
X131391023Y-116352974D01*
X131335841Y-116275730D01*
X131265763Y-116198610D01*
X131188029Y-116128501D01*
X131109881Y-116072289D01*
X131075511Y-116052854D01*
X131024641Y-116031136D01*
X130983610Y-116021553D01*
X130956694Y-116024582D01*
G36*
X131896891Y-114483761D02*
X131864120Y-114504712D01*
X131817193Y-114541670D01*
X131778258Y-114574815D01*
X131761776Y-114601845D01*
X131763460Y-114630398D01*
X131775793Y-114661893D01*
X131800760Y-114709459D01*
X131835402Y-114768298D01*
X131876763Y-114833613D01*
X131921884Y-114900603D01*
X131967807Y-114964472D01*
X131976594Y-114976141D01*
X132012447Y-115025994D01*
X132049304Y-115081684D01*
X132084122Y-115138057D01*
X132113859Y-115189959D01*
X132135472Y-115232236D01*
X132145919Y-115259733D01*
X132146430Y-115263871D01*
X132156342Y-115281502D01*
X132172482Y-115294741D01*
X132192952Y-115314038D01*
X132198533Y-115328002D01*
X132207314Y-115346964D01*
X132229284Y-115373871D01*
X132238621Y-115383250D01*
X132265284Y-115414923D01*
X132295706Y-115460228D01*
X132321604Y-115506174D01*
X132362386Y-115585766D01*
X132394504Y-115645957D01*
X132420438Y-115690897D01*
X132442665Y-115724735D01*
X132463663Y-115751620D01*
X132477220Y-115766687D01*
X132504757Y-115798599D01*
X132536728Y-115839621D01*
X132569098Y-115884021D01*
X132597830Y-115926062D01*
X132618887Y-115960009D01*
X132628234Y-115980128D01*
X132628379Y-115981463D01*
X132636635Y-115997880D01*
X132656908Y-116022899D01*
X132660914Y-116027170D01*
X132685722Y-116056318D01*
X132717040Y-116097455D01*
X132742325Y-116133297D01*
X132787964Y-116198534D01*
X132839798Y-116269158D01*
X132893259Y-116339244D01*
X132943781Y-116402869D01*
X132986797Y-116454108D01*
X133005661Y-116474924D01*
X133039685Y-116511589D01*
X133070564Y-116546116D01*
X133083491Y-116561251D01*
X133106031Y-116588240D01*
X133138115Y-116626282D01*
X133168966Y-116662635D01*
X133207073Y-116713696D01*
X133225978Y-116754153D01*
X133227796Y-116766840D01*
X133238766Y-116813333D01*
X133271503Y-116867112D01*
X133326608Y-116928867D01*
X133404682Y-116999287D01*
X133489275Y-117066261D01*
X133537544Y-117099257D01*
X133577888Y-117115926D01*
X133620293Y-117118855D01*
X133666729Y-117112219D01*
X133695633Y-117097517D01*
X133726384Y-117069149D01*
X133751023Y-117036018D01*
X133761592Y-117007025D01*
X133761610Y-117006083D01*
X133757109Y-116984134D01*
X133745150Y-116945350D01*
X133728045Y-116897045D01*
X133722533Y-116882509D01*
X133704335Y-116832359D01*
X133690655Y-116789148D01*
X133683824Y-116760427D01*
X133683456Y-116756053D01*
X133678089Y-116731990D01*
X133664037Y-116693201D01*
X133644952Y-116649421D01*
X133620909Y-116595541D01*
X133593832Y-116530509D01*
X133569301Y-116467758D01*
X133567735Y-116463559D01*
X133473824Y-116236222D01*
X133423244Y-116131405D01*
X133397937Y-116077143D01*
X133372227Y-116015257D01*
X133358855Y-115979385D01*
X133339193Y-115930945D01*
X133310815Y-115870707D01*
X133278706Y-115809032D01*
X133266153Y-115786661D01*
X133238750Y-115737998D01*
X133217108Y-115697585D01*
X133204052Y-115670812D01*
X133201507Y-115663348D01*
X133194703Y-115647401D01*
X133177091Y-115617432D01*
X133158583Y-115589046D01*
X133130583Y-115543773D01*
X133099270Y-115487218D01*
X133072833Y-115434533D01*
X133049013Y-115386723D01*
X133026045Y-115345477D01*
X133008514Y-115318975D01*
X133007107Y-115317303D01*
X132989478Y-115292320D01*
X132967389Y-115254182D01*
X132943640Y-115208732D01*
X132921029Y-115161811D01*
X132902356Y-115119264D01*
X132890420Y-115086931D01*
X132888021Y-115070656D01*
X132888614Y-115069987D01*
X132908782Y-115070350D01*
X132943110Y-115082567D01*
X132984477Y-115103463D01*
X133025765Y-115129862D01*
X133030272Y-115133171D01*
X133067186Y-115157754D01*
X133114668Y-115185585D01*
X133144663Y-115201545D01*
X133185127Y-115225461D01*
X133233502Y-115259099D01*
X133283854Y-115297706D01*
X133330251Y-115336530D01*
X133366761Y-115370818D01*
X133387452Y-115395819D01*
X133387678Y-115396217D01*
X133389403Y-115410209D01*
X133370109Y-115414905D01*
X133364328Y-115414995D01*
X133318230Y-115422927D01*
X133280033Y-115443569D01*
X133252833Y-115472184D01*
X133239724Y-115504040D01*
X133243802Y-115534401D01*
X133268161Y-115558532D01*
X133269892Y-115559452D01*
X133299425Y-115579405D01*
X133330996Y-115607131D01*
X133332600Y-115608756D01*
X133367725Y-115639051D01*
X133405143Y-115663781D01*
X133436856Y-115690212D01*
X133466137Y-115730356D01*
X133472296Y-115741935D01*
X133520416Y-115819412D01*
X133577557Y-115874420D01*
X133600402Y-115888554D01*
X133624386Y-115905257D01*
X133661799Y-115935816D01*
X133707476Y-115975846D01*
X133755097Y-116019866D01*
X133802728Y-116063533D01*
X133846157Y-116100545D01*
X133880639Y-116127036D01*
X133901425Y-116139141D01*
X133901635Y-116139201D01*
X133924401Y-116149448D01*
X133930943Y-116157982D01*
X133940906Y-116170584D01*
X133967169Y-116193550D01*
X134004296Y-116222889D01*
X134046847Y-116254607D01*
X134089386Y-116284712D01*
X134126476Y-116309213D01*
X134152677Y-116324115D01*
X134160859Y-116326790D01*
X134174975Y-116315894D01*
X134178430Y-116299970D01*
X134183119Y-116281721D01*
X134190556Y-116280644D01*
X134206108Y-116278619D01*
X134218493Y-116253519D01*
X134227090Y-116208195D01*
X134231276Y-116145500D01*
X134231271Y-116093703D01*
X134220637Y-116050915D01*
X134191639Y-115994731D01*
X134146209Y-115928088D01*
X134086278Y-115853924D01*
X134039700Y-115802263D01*
X134003518Y-115762485D01*
X133975372Y-115729245D01*
X133959274Y-115707395D01*
X133956994Y-115702193D01*
X133946280Y-115689041D01*
X133931970Y-115682346D01*
X133915075Y-115670985D01*
X133883203Y-115644187D01*
X133839734Y-115604999D01*
X133803848Y-115571303D01*
X133574867Y-115571303D01*
X133563783Y-115562806D01*
X133546687Y-115545251D01*
X133533400Y-115526546D01*
X133535022Y-115519200D01*
X133550462Y-115529028D01*
X133563202Y-115545251D01*
X133573990Y-115565154D01*
X133574867Y-115571303D01*
X133803848Y-115571303D01*
X133788048Y-115556468D01*
X133732263Y-115502366D01*
X133632934Y-115405301D01*
X133548336Y-115324546D01*
X133475345Y-115257442D01*
X133410837Y-115201328D01*
X133351687Y-115153547D01*
X133294771Y-115111438D01*
X133236963Y-115072343D01*
X133197833Y-115047538D01*
X133131359Y-115007797D01*
X133056431Y-114965328D01*
X132985593Y-114927171D01*
X132960533Y-114914352D01*
X132906361Y-114887712D01*
X132868587Y-114871351D01*
X132840470Y-114863569D01*
X132815272Y-114862670D01*
X132786256Y-114866953D01*
X132778482Y-114868463D01*
X132726714Y-114882418D01*
X132695206Y-114902946D01*
X132678176Y-114935837D01*
X132670952Y-114976174D01*
X132670348Y-115024621D01*
X132676685Y-115080722D01*
X132688173Y-115135004D01*
X132703018Y-115177996D01*
X132712091Y-115193559D01*
X132727217Y-115217227D01*
X132746534Y-115252731D01*
X132752768Y-115265200D01*
X132775940Y-115307387D01*
X132801214Y-115346019D01*
X132806361Y-115352791D01*
X132827447Y-115384004D01*
X132852801Y-115427994D01*
X132871116Y-115463509D01*
X132895753Y-115511526D01*
X132921133Y-115556851D01*
X132936425Y-115581504D01*
X132957928Y-115620132D01*
X132972482Y-115658001D01*
X132973427Y-115661885D01*
X132988137Y-115697339D01*
X133012819Y-115733019D01*
X133015217Y-115735678D01*
X133038539Y-115766416D01*
X133068881Y-115814049D01*
X133102466Y-115871766D01*
X133135518Y-115932752D01*
X133164259Y-115990195D01*
X133184914Y-116037283D01*
X133189594Y-116050238D01*
X133203716Y-116086855D01*
X133225257Y-116135827D01*
X133249139Y-116185709D01*
X133270162Y-116228653D01*
X133285613Y-116262140D01*
X133292560Y-116279774D01*
X133292687Y-116280645D01*
X133297806Y-116295063D01*
X133311684Y-116327962D01*
X133332099Y-116374198D01*
X133352798Y-116419852D01*
X133380096Y-116483298D01*
X133404375Y-116546899D01*
X133424090Y-116605717D01*
X133437695Y-116654814D01*
X133443647Y-116689251D01*
X133441485Y-116703359D01*
X133430024Y-116697699D01*
X133405775Y-116675277D01*
X133372075Y-116639790D01*
X133332262Y-116594937D01*
X133289674Y-116544414D01*
X133247650Y-116491920D01*
X133230893Y-116470072D01*
X133197098Y-116425894D01*
X133168156Y-116389046D01*
X133148357Y-116364942D01*
X133143217Y-116359354D01*
X133128580Y-116342242D01*
X133104792Y-116311203D01*
X133082930Y-116281200D01*
X133052702Y-116239845D01*
X133023947Y-116202186D01*
X133008846Y-116183508D01*
X132953936Y-116118068D01*
X132909057Y-116062385D01*
X132868037Y-116008357D01*
X132824706Y-115947877D01*
X132778174Y-115880562D01*
X132736233Y-115819172D01*
X132695663Y-115759580D01*
X132660681Y-115707993D01*
X132635503Y-115670618D01*
X132632483Y-115666098D01*
X132599866Y-115618488D01*
X132564626Y-115568967D01*
X132549950Y-115549026D01*
X132526687Y-115513819D01*
X132496896Y-115462890D01*
X132465063Y-115404123D01*
X132445093Y-115364828D01*
X132412417Y-115302729D01*
X132376494Y-115241045D01*
X132342702Y-115188753D01*
X132325729Y-115165669D01*
X132293132Y-115121616D01*
X132264504Y-115077600D01*
X132248628Y-115048387D01*
X132228156Y-115014179D01*
X132191900Y-114965166D01*
X132142667Y-114904791D01*
X132083265Y-114836497D01*
X132016606Y-114763840D01*
X131988928Y-114728331D01*
X131958043Y-114679557D01*
X131931569Y-114629924D01*
X131889315Y-114541471D01*
X131914613Y-114509310D01*
X131930503Y-114487138D01*
X131929878Y-114478470D01*
X131917890Y-114477149D01*
X131896891Y-114483761D01*
X131896891Y-114483761D01*
G37*
X131896891Y-114483761D02*
X131864120Y-114504712D01*
X131817193Y-114541670D01*
X131778258Y-114574815D01*
X131761776Y-114601845D01*
X131763460Y-114630398D01*
X131775793Y-114661893D01*
X131800760Y-114709459D01*
X131835402Y-114768298D01*
X131876763Y-114833613D01*
X131921884Y-114900603D01*
X131967807Y-114964472D01*
X131976594Y-114976141D01*
X132012447Y-115025994D01*
X132049304Y-115081684D01*
X132084122Y-115138057D01*
X132113859Y-115189959D01*
X132135472Y-115232236D01*
X132145919Y-115259733D01*
X132146430Y-115263871D01*
X132156342Y-115281502D01*
X132172482Y-115294741D01*
X132192952Y-115314038D01*
X132198533Y-115328002D01*
X132207314Y-115346964D01*
X132229284Y-115373871D01*
X132238621Y-115383250D01*
X132265284Y-115414923D01*
X132295706Y-115460228D01*
X132321604Y-115506174D01*
X132362386Y-115585766D01*
X132394504Y-115645957D01*
X132420438Y-115690897D01*
X132442665Y-115724735D01*
X132463663Y-115751620D01*
X132477220Y-115766687D01*
X132504757Y-115798599D01*
X132536728Y-115839621D01*
X132569098Y-115884021D01*
X132597830Y-115926062D01*
X132618887Y-115960009D01*
X132628234Y-115980128D01*
X132628379Y-115981463D01*
X132636635Y-115997880D01*
X132656908Y-116022899D01*
X132660914Y-116027170D01*
X132685722Y-116056318D01*
X132717040Y-116097455D01*
X132742325Y-116133297D01*
X132787964Y-116198534D01*
X132839798Y-116269158D01*
X132893259Y-116339244D01*
X132943781Y-116402869D01*
X132986797Y-116454108D01*
X133005661Y-116474924D01*
X133039685Y-116511589D01*
X133070564Y-116546116D01*
X133083491Y-116561251D01*
X133106031Y-116588240D01*
X133138115Y-116626282D01*
X133168966Y-116662635D01*
X133207073Y-116713696D01*
X133225978Y-116754153D01*
X133227796Y-116766840D01*
X133238766Y-116813333D01*
X133271503Y-116867112D01*
X133326608Y-116928867D01*
X133404682Y-116999287D01*
X133489275Y-117066261D01*
X133537544Y-117099257D01*
X133577888Y-117115926D01*
X133620293Y-117118855D01*
X133666729Y-117112219D01*
X133695633Y-117097517D01*
X133726384Y-117069149D01*
X133751023Y-117036018D01*
X133761592Y-117007025D01*
X133761610Y-117006083D01*
X133757109Y-116984134D01*
X133745150Y-116945350D01*
X133728045Y-116897045D01*
X133722533Y-116882509D01*
X133704335Y-116832359D01*
X133690655Y-116789148D01*
X133683824Y-116760427D01*
X133683456Y-116756053D01*
X133678089Y-116731990D01*
X133664037Y-116693201D01*
X133644952Y-116649421D01*
X133620909Y-116595541D01*
X133593832Y-116530509D01*
X133569301Y-116467758D01*
X133567735Y-116463559D01*
X133473824Y-116236222D01*
X133423244Y-116131405D01*
X133397937Y-116077143D01*
X133372227Y-116015257D01*
X133358855Y-115979385D01*
X133339193Y-115930945D01*
X133310815Y-115870707D01*
X133278706Y-115809032D01*
X133266153Y-115786661D01*
X133238750Y-115737998D01*
X133217108Y-115697585D01*
X133204052Y-115670812D01*
X133201507Y-115663348D01*
X133194703Y-115647401D01*
X133177091Y-115617432D01*
X133158583Y-115589046D01*
X133130583Y-115543773D01*
X133099270Y-115487218D01*
X133072833Y-115434533D01*
X133049013Y-115386723D01*
X133026045Y-115345477D01*
X133008514Y-115318975D01*
X133007107Y-115317303D01*
X132989478Y-115292320D01*
X132967389Y-115254182D01*
X132943640Y-115208732D01*
X132921029Y-115161811D01*
X132902356Y-115119264D01*
X132890420Y-115086931D01*
X132888021Y-115070656D01*
X132888614Y-115069987D01*
X132908782Y-115070350D01*
X132943110Y-115082567D01*
X132984477Y-115103463D01*
X133025765Y-115129862D01*
X133030272Y-115133171D01*
X133067186Y-115157754D01*
X133114668Y-115185585D01*
X133144663Y-115201545D01*
X133185127Y-115225461D01*
X133233502Y-115259099D01*
X133283854Y-115297706D01*
X133330251Y-115336530D01*
X133366761Y-115370818D01*
X133387452Y-115395819D01*
X133387678Y-115396217D01*
X133389403Y-115410209D01*
X133370109Y-115414905D01*
X133364328Y-115414995D01*
X133318230Y-115422927D01*
X133280033Y-115443569D01*
X133252833Y-115472184D01*
X133239724Y-115504040D01*
X133243802Y-115534401D01*
X133268161Y-115558532D01*
X133269892Y-115559452D01*
X133299425Y-115579405D01*
X133330996Y-115607131D01*
X133332600Y-115608756D01*
X133367725Y-115639051D01*
X133405143Y-115663781D01*
X133436856Y-115690212D01*
X133466137Y-115730356D01*
X133472296Y-115741935D01*
X133520416Y-115819412D01*
X133577557Y-115874420D01*
X133600402Y-115888554D01*
X133624386Y-115905257D01*
X133661799Y-115935816D01*
X133707476Y-115975846D01*
X133755097Y-116019866D01*
X133802728Y-116063533D01*
X133846157Y-116100545D01*
X133880639Y-116127036D01*
X133901425Y-116139141D01*
X133901635Y-116139201D01*
X133924401Y-116149448D01*
X133930943Y-116157982D01*
X133940906Y-116170584D01*
X133967169Y-116193550D01*
X134004296Y-116222889D01*
X134046847Y-116254607D01*
X134089386Y-116284712D01*
X134126476Y-116309213D01*
X134152677Y-116324115D01*
X134160859Y-116326790D01*
X134174975Y-116315894D01*
X134178430Y-116299970D01*
X134183119Y-116281721D01*
X134190556Y-116280644D01*
X134206108Y-116278619D01*
X134218493Y-116253519D01*
X134227090Y-116208195D01*
X134231276Y-116145500D01*
X134231271Y-116093703D01*
X134220637Y-116050915D01*
X134191639Y-115994731D01*
X134146209Y-115928088D01*
X134086278Y-115853924D01*
X134039700Y-115802263D01*
X134003518Y-115762485D01*
X133975372Y-115729245D01*
X133959274Y-115707395D01*
X133956994Y-115702193D01*
X133946280Y-115689041D01*
X133931970Y-115682346D01*
X133915075Y-115670985D01*
X133883203Y-115644187D01*
X133839734Y-115604999D01*
X133803848Y-115571303D01*
X133574867Y-115571303D01*
X133563783Y-115562806D01*
X133546687Y-115545251D01*
X133533400Y-115526546D01*
X133535022Y-115519200D01*
X133550462Y-115529028D01*
X133563202Y-115545251D01*
X133573990Y-115565154D01*
X133574867Y-115571303D01*
X133803848Y-115571303D01*
X133788048Y-115556468D01*
X133732263Y-115502366D01*
X133632934Y-115405301D01*
X133548336Y-115324546D01*
X133475345Y-115257442D01*
X133410837Y-115201328D01*
X133351687Y-115153547D01*
X133294771Y-115111438D01*
X133236963Y-115072343D01*
X133197833Y-115047538D01*
X133131359Y-115007797D01*
X133056431Y-114965328D01*
X132985593Y-114927171D01*
X132960533Y-114914352D01*
X132906361Y-114887712D01*
X132868587Y-114871351D01*
X132840470Y-114863569D01*
X132815272Y-114862670D01*
X132786256Y-114866953D01*
X132778482Y-114868463D01*
X132726714Y-114882418D01*
X132695206Y-114902946D01*
X132678176Y-114935837D01*
X132670952Y-114976174D01*
X132670348Y-115024621D01*
X132676685Y-115080722D01*
X132688173Y-115135004D01*
X132703018Y-115177996D01*
X132712091Y-115193559D01*
X132727217Y-115217227D01*
X132746534Y-115252731D01*
X132752768Y-115265200D01*
X132775940Y-115307387D01*
X132801214Y-115346019D01*
X132806361Y-115352791D01*
X132827447Y-115384004D01*
X132852801Y-115427994D01*
X132871116Y-115463509D01*
X132895753Y-115511526D01*
X132921133Y-115556851D01*
X132936425Y-115581504D01*
X132957928Y-115620132D01*
X132972482Y-115658001D01*
X132973427Y-115661885D01*
X132988137Y-115697339D01*
X133012819Y-115733019D01*
X133015217Y-115735678D01*
X133038539Y-115766416D01*
X133068881Y-115814049D01*
X133102466Y-115871766D01*
X133135518Y-115932752D01*
X133164259Y-115990195D01*
X133184914Y-116037283D01*
X133189594Y-116050238D01*
X133203716Y-116086855D01*
X133225257Y-116135827D01*
X133249139Y-116185709D01*
X133270162Y-116228653D01*
X133285613Y-116262140D01*
X133292560Y-116279774D01*
X133292687Y-116280645D01*
X133297806Y-116295063D01*
X133311684Y-116327962D01*
X133332099Y-116374198D01*
X133352798Y-116419852D01*
X133380096Y-116483298D01*
X133404375Y-116546899D01*
X133424090Y-116605717D01*
X133437695Y-116654814D01*
X133443647Y-116689251D01*
X133441485Y-116703359D01*
X133430024Y-116697699D01*
X133405775Y-116675277D01*
X133372075Y-116639790D01*
X133332262Y-116594937D01*
X133289674Y-116544414D01*
X133247650Y-116491920D01*
X133230893Y-116470072D01*
X133197098Y-116425894D01*
X133168156Y-116389046D01*
X133148357Y-116364942D01*
X133143217Y-116359354D01*
X133128580Y-116342242D01*
X133104792Y-116311203D01*
X133082930Y-116281200D01*
X133052702Y-116239845D01*
X133023947Y-116202186D01*
X133008846Y-116183508D01*
X132953936Y-116118068D01*
X132909057Y-116062385D01*
X132868037Y-116008357D01*
X132824706Y-115947877D01*
X132778174Y-115880562D01*
X132736233Y-115819172D01*
X132695663Y-115759580D01*
X132660681Y-115707993D01*
X132635503Y-115670618D01*
X132632483Y-115666098D01*
X132599866Y-115618488D01*
X132564626Y-115568967D01*
X132549950Y-115549026D01*
X132526687Y-115513819D01*
X132496896Y-115462890D01*
X132465063Y-115404123D01*
X132445093Y-115364828D01*
X132412417Y-115302729D01*
X132376494Y-115241045D01*
X132342702Y-115188753D01*
X132325729Y-115165669D01*
X132293132Y-115121616D01*
X132264504Y-115077600D01*
X132248628Y-115048387D01*
X132228156Y-115014179D01*
X132191900Y-114965166D01*
X132142667Y-114904791D01*
X132083265Y-114836497D01*
X132016606Y-114763840D01*
X131988928Y-114728331D01*
X131958043Y-114679557D01*
X131931569Y-114629924D01*
X131889315Y-114541471D01*
X131914613Y-114509310D01*
X131930503Y-114487138D01*
X131929878Y-114478470D01*
X131917890Y-114477149D01*
X131896891Y-114483761D01*
M02*
