G04 #@! TF.FileFunction,Soldermask,Bot*
%FSLAX46Y46*%
G04 Gerber Fmt 4.6, Leading zero omitted, Abs format (unit mm)*
G04 Created by KiCad (PCBNEW 4.0.7) date 03/17/18 13:32:57*
%MOMM*%
%LPD*%
G01*
G04 APERTURE LIST*
%ADD10C,0.100000*%
%ADD11C,1.920000*%
%ADD12R,2.900000X1.900000*%
%ADD13C,5.480000*%
%ADD14C,1.924000*%
%ADD15C,3.850000*%
%ADD16R,1.924000X1.924000*%
%ADD17C,1.200000*%
%ADD18R,2.100000X2.100000*%
%ADD19O,2.100000X2.100000*%
G04 APERTURE END LIST*
D10*
D11*
X128778000Y-99568000D03*
X128778000Y-97028000D03*
X131318000Y-99568000D03*
X131318000Y-97028000D03*
X133858000Y-99568000D03*
X133858000Y-97028000D03*
X136398000Y-99568000D03*
X136398000Y-97028000D03*
X138938000Y-99568000D03*
X138938000Y-97028000D03*
X141478000Y-99568000D03*
X141478000Y-97028000D03*
X144018000Y-99568000D03*
X144018000Y-97028000D03*
X146558000Y-99568000D03*
X146558000Y-97028000D03*
X149098000Y-99568000D03*
X149098000Y-97028000D03*
X151638000Y-99568000D03*
X151638000Y-97028000D03*
X154178000Y-99568000D03*
X154178000Y-97028000D03*
X156718000Y-99568000D03*
X156718000Y-97028000D03*
X159258000Y-99568000D03*
X159258000Y-97028000D03*
X161798000Y-99568000D03*
X161798000Y-97028000D03*
X164338000Y-99568000D03*
X164338000Y-97028000D03*
X166878000Y-99568000D03*
X166878000Y-97028000D03*
X169418000Y-99568000D03*
X169418000Y-97028000D03*
X171958000Y-99568000D03*
X171958000Y-97028000D03*
X174498000Y-99568000D03*
X174498000Y-97028000D03*
X177038000Y-99568000D03*
X177038000Y-97028000D03*
D12*
X151638000Y-115189000D03*
X151638000Y-112903000D03*
D13*
X146812000Y-113285000D03*
X146812000Y-105284000D03*
D14*
X137414000Y-120650000D03*
X137414000Y-123190000D03*
X137414000Y-125730000D03*
X142748000Y-132080000D03*
X140208000Y-132080000D03*
X137668000Y-132080000D03*
X135128000Y-132080000D03*
D15*
X144018000Y-140716000D03*
X133858000Y-140716000D03*
D14*
X147066000Y-130429000D03*
X149606000Y-130429000D03*
X152146000Y-130429000D03*
X154686000Y-130429000D03*
X157226000Y-130429000D03*
X157226000Y-127889000D03*
X157226000Y-125349000D03*
X157226000Y-122809000D03*
D16*
X157226000Y-120269000D03*
D14*
X147066000Y-127889000D03*
X147066000Y-125349000D03*
X147066000Y-122809000D03*
X147066000Y-120269000D03*
D17*
X156486000Y-141996000D03*
X156486000Y-143246000D03*
X155236000Y-141996000D03*
X155236000Y-143246000D03*
X153986000Y-141996000D03*
X153986000Y-143246000D03*
X152736000Y-141996000D03*
X152736000Y-143246000D03*
X151486000Y-141996000D03*
X151486000Y-143246000D03*
D11*
X177038000Y-94361000D03*
X174498000Y-94361000D03*
X171958000Y-94361000D03*
X169418000Y-94361000D03*
X166878000Y-94361000D03*
X164338000Y-94361000D03*
X161798000Y-94361000D03*
X159258000Y-94361000D03*
X156718000Y-94361000D03*
X154178000Y-94361000D03*
X177038000Y-91821000D03*
X174498000Y-91821000D03*
X171958000Y-91821000D03*
X169418000Y-91821000D03*
X166878000Y-91821000D03*
X164338000Y-91821000D03*
X161798000Y-91821000D03*
X159258000Y-91821000D03*
X156718000Y-91821000D03*
X154178000Y-91821000D03*
X177038000Y-134493000D03*
X174498000Y-134493000D03*
X171958000Y-134493000D03*
X169418000Y-134493000D03*
X166878000Y-134493000D03*
X164338000Y-134493000D03*
X161798000Y-134493000D03*
X159258000Y-134493000D03*
X156718000Y-134493000D03*
X154178000Y-134493000D03*
X177038000Y-137033000D03*
X174498000Y-137033000D03*
X171958000Y-137033000D03*
X169418000Y-137033000D03*
X166878000Y-137033000D03*
X164338000Y-137033000D03*
X161798000Y-137033000D03*
X159258000Y-137033000D03*
X156718000Y-137033000D03*
X154178000Y-137033000D03*
D18*
X164693600Y-140462000D03*
D19*
X164693600Y-143002000D03*
D18*
X162153600Y-143002000D03*
D19*
X162153600Y-140462000D03*
D18*
X136601200Y-94234000D03*
D19*
X139141200Y-94234000D03*
X141681200Y-94234000D03*
D18*
X136550400Y-91643200D03*
D19*
X139090400Y-91643200D03*
X141630400Y-91643200D03*
D15*
X129669000Y-140720000D03*
D14*
X128524000Y-132080000D03*
X125984000Y-132080000D03*
X123444000Y-132080000D03*
D15*
X122299000Y-140720000D03*
D18*
X171958000Y-140462000D03*
D19*
X174498000Y-140462000D03*
X177038000Y-140462000D03*
M02*
