G04 #@! TF.FileFunction,Copper,L1,Top,Signal*
%FSLAX46Y46*%
G04 Gerber Fmt 4.6, Leading zero omitted, Abs format (unit mm)*
G04 Created by KiCad (PCBNEW 4.0.7) date 03/17/18 13:32:56*
%MOMM*%
%LPD*%
G01*
G04 APERTURE LIST*
%ADD10C,0.100000*%
%ADD11R,1.500000X0.300000*%
%ADD12R,0.300000X1.500000*%
%ADD13R,1.200000X0.750000*%
%ADD14R,0.750000X1.200000*%
%ADD15R,0.900000X1.200000*%
%ADD16C,1.520000*%
%ADD17R,2.500000X1.500000*%
%ADD18C,5.080000*%
%ADD19C,1.524000*%
%ADD20R,1.524000X1.524000*%
%ADD21C,0.800000*%
%ADD22R,1.700000X2.000000*%
%ADD23R,1.700000X1.700000*%
%ADD24O,1.700000X1.700000*%
%ADD25C,0.500000*%
%ADD26C,0.600000*%
%ADD27C,0.254000*%
%ADD28C,0.250000*%
%ADD29C,0.508000*%
%ADD30C,0.406400*%
%ADD31C,0.127000*%
G04 APERTURE END LIST*
D10*
D11*
X173594000Y-121098000D03*
X173594000Y-120598000D03*
X173594000Y-120098000D03*
X173594000Y-119598000D03*
X173594000Y-119098000D03*
X173594000Y-118598000D03*
X173594000Y-118098000D03*
X173594000Y-117598000D03*
X173594000Y-117098000D03*
X173594000Y-116598000D03*
X173594000Y-116098000D03*
X173594000Y-115598000D03*
X173594000Y-115098000D03*
X173594000Y-114598000D03*
X173594000Y-114098000D03*
X173594000Y-113598000D03*
D12*
X171644000Y-111648000D03*
X171144000Y-111648000D03*
X170644000Y-111648000D03*
X170144000Y-111648000D03*
X169644000Y-111648000D03*
X169144000Y-111648000D03*
X168644000Y-111648000D03*
X168144000Y-111648000D03*
X167644000Y-111648000D03*
X167144000Y-111648000D03*
X166644000Y-111648000D03*
X166144000Y-111648000D03*
X165644000Y-111648000D03*
X165144000Y-111648000D03*
X164644000Y-111648000D03*
X164144000Y-111648000D03*
D11*
X162194000Y-113598000D03*
X162194000Y-114098000D03*
X162194000Y-114598000D03*
X162194000Y-115098000D03*
X162194000Y-115598000D03*
X162194000Y-116098000D03*
X162194000Y-116598000D03*
X162194000Y-117098000D03*
X162194000Y-117598000D03*
X162194000Y-118098000D03*
X162194000Y-118598000D03*
X162194000Y-119098000D03*
X162194000Y-119598000D03*
X162194000Y-120098000D03*
X162194000Y-120598000D03*
X162194000Y-121098000D03*
D12*
X164144000Y-123048000D03*
X164644000Y-123048000D03*
X165144000Y-123048000D03*
X165644000Y-123048000D03*
X166144000Y-123048000D03*
X166644000Y-123048000D03*
X167144000Y-123048000D03*
X167644000Y-123048000D03*
X168144000Y-123048000D03*
X168644000Y-123048000D03*
X169144000Y-123048000D03*
X169644000Y-123048000D03*
X170144000Y-123048000D03*
X170644000Y-123048000D03*
X171144000Y-123048000D03*
X171644000Y-123048000D03*
D13*
X152842000Y-103632000D03*
X150942000Y-103632000D03*
D14*
X139700000Y-120462000D03*
X139700000Y-122362000D03*
D13*
X152842000Y-116840000D03*
X150942000Y-116840000D03*
X152842000Y-111252000D03*
X150942000Y-111252000D03*
X152842000Y-109728000D03*
X150942000Y-109728000D03*
X152842000Y-102108000D03*
X150942000Y-102108000D03*
X152842000Y-105156000D03*
X150942000Y-105156000D03*
X152842000Y-106680000D03*
X150942000Y-106680000D03*
X152842000Y-108204000D03*
X150942000Y-108204000D03*
X154752000Y-103632000D03*
X156652000Y-103632000D03*
X154752000Y-105156000D03*
X156652000Y-105156000D03*
X154752000Y-102108000D03*
X156652000Y-102108000D03*
X154752000Y-106680000D03*
X156652000Y-106680000D03*
D15*
X120650000Y-118788000D03*
X120650000Y-120988000D03*
D16*
X128778000Y-99568000D03*
X128778000Y-97028000D03*
X131318000Y-99568000D03*
X131318000Y-97028000D03*
X133858000Y-99568000D03*
X133858000Y-97028000D03*
X136398000Y-99568000D03*
X136398000Y-97028000D03*
X138938000Y-99568000D03*
X138938000Y-97028000D03*
X141478000Y-99568000D03*
X141478000Y-97028000D03*
X144018000Y-99568000D03*
X144018000Y-97028000D03*
X146558000Y-99568000D03*
X146558000Y-97028000D03*
X149098000Y-99568000D03*
X149098000Y-97028000D03*
X151638000Y-99568000D03*
X151638000Y-97028000D03*
X154178000Y-99568000D03*
X154178000Y-97028000D03*
X156718000Y-99568000D03*
X156718000Y-97028000D03*
X159258000Y-99568000D03*
X159258000Y-97028000D03*
X161798000Y-99568000D03*
X161798000Y-97028000D03*
X164338000Y-99568000D03*
X164338000Y-97028000D03*
X166878000Y-99568000D03*
X166878000Y-97028000D03*
X169418000Y-99568000D03*
X169418000Y-97028000D03*
X171958000Y-99568000D03*
X171958000Y-97028000D03*
X174498000Y-99568000D03*
X174498000Y-97028000D03*
X177038000Y-99568000D03*
X177038000Y-97028000D03*
D17*
X151638000Y-115189000D03*
X151638000Y-112903000D03*
D18*
X146812000Y-113285000D03*
X146812000Y-105284000D03*
D19*
X137414000Y-120650000D03*
X137414000Y-123190000D03*
X137414000Y-125730000D03*
D14*
X139700000Y-124018000D03*
X139700000Y-125918000D03*
D19*
X142748000Y-132080000D03*
X140208000Y-132080000D03*
X137668000Y-132080000D03*
X135128000Y-132080000D03*
X147066000Y-130429000D03*
X149606000Y-130429000D03*
X152146000Y-130429000D03*
X154686000Y-130429000D03*
X157226000Y-130429000D03*
X157226000Y-127889000D03*
X157226000Y-125349000D03*
X157226000Y-122809000D03*
D20*
X157226000Y-120269000D03*
D19*
X147066000Y-127889000D03*
X147066000Y-125349000D03*
X147066000Y-122809000D03*
X147066000Y-120269000D03*
D21*
X156486000Y-141996000D03*
X156486000Y-143246000D03*
X155236000Y-141996000D03*
X155236000Y-143246000D03*
X153986000Y-141996000D03*
X153986000Y-143246000D03*
X152736000Y-141996000D03*
X152736000Y-143246000D03*
X151486000Y-141996000D03*
X151486000Y-143246000D03*
D22*
X120650000Y-127984000D03*
X120650000Y-123984000D03*
D16*
X177038000Y-94361000D03*
X174498000Y-94361000D03*
X171958000Y-94361000D03*
X169418000Y-94361000D03*
X166878000Y-94361000D03*
X164338000Y-94361000D03*
X161798000Y-94361000D03*
X159258000Y-94361000D03*
X156718000Y-94361000D03*
X154178000Y-94361000D03*
X177038000Y-91821000D03*
X174498000Y-91821000D03*
X171958000Y-91821000D03*
X169418000Y-91821000D03*
X166878000Y-91821000D03*
X164338000Y-91821000D03*
X161798000Y-91821000D03*
X159258000Y-91821000D03*
X156718000Y-91821000D03*
X154178000Y-91821000D03*
X177038000Y-134493000D03*
X174498000Y-134493000D03*
X171958000Y-134493000D03*
X169418000Y-134493000D03*
X166878000Y-134493000D03*
X164338000Y-134493000D03*
X161798000Y-134493000D03*
X159258000Y-134493000D03*
X156718000Y-134493000D03*
X154178000Y-134493000D03*
X177038000Y-137033000D03*
X174498000Y-137033000D03*
X171958000Y-137033000D03*
X169418000Y-137033000D03*
X166878000Y-137033000D03*
X164338000Y-137033000D03*
X161798000Y-137033000D03*
X159258000Y-137033000D03*
X156718000Y-137033000D03*
X154178000Y-137033000D03*
D23*
X164693600Y-140462000D03*
D24*
X164693600Y-143002000D03*
D23*
X162153600Y-143002000D03*
D24*
X162153600Y-140462000D03*
D23*
X136601200Y-94234000D03*
D24*
X139141200Y-94234000D03*
X141681200Y-94234000D03*
D23*
X136550400Y-91643200D03*
D24*
X139090400Y-91643200D03*
X141630400Y-91643200D03*
D19*
X128524000Y-132080000D03*
X125984000Y-132080000D03*
X123444000Y-132080000D03*
D23*
X171958000Y-140462000D03*
D24*
X174498000Y-140462000D03*
X177038000Y-140462000D03*
D25*
X175006000Y-115620800D03*
X174853600Y-120243600D03*
X166928800Y-124358400D03*
D26*
X162306000Y-111506000D03*
X160782000Y-116459000D03*
D25*
X174853600Y-121056400D03*
X170078400Y-133045200D03*
X167640000Y-133045200D03*
X159359600Y-133045200D03*
X154178000Y-140157200D03*
X175412400Y-119024400D03*
X175971200Y-118465600D03*
X176530000Y-119075200D03*
X175260000Y-116268500D03*
X167081200Y-109169200D03*
X168249600Y-109169200D03*
X173278800Y-109118400D03*
D26*
X159258000Y-130810000D03*
D25*
X167640000Y-126898400D03*
X168402000Y-126898400D03*
X168973500Y-124650500D03*
X168910000Y-125476000D03*
X178054000Y-120599200D03*
X177546000Y-119278400D03*
X174752000Y-119024400D03*
X177495200Y-103530400D03*
X176784000Y-110337600D03*
X170815000Y-109982000D03*
X173672500Y-102679500D03*
X173228000Y-102171500D03*
X170180000Y-109982000D03*
X169545000Y-109982000D03*
X172783500Y-101663500D03*
X166179500Y-109728000D03*
X159004000Y-109855000D03*
X158305500Y-108331000D03*
X161239200Y-128727200D03*
X160782000Y-124866400D03*
X161848800Y-128371600D03*
X161442400Y-124866400D03*
X160909000Y-120523000D03*
X160274000Y-120523000D03*
X147955000Y-118110000D03*
X136093200Y-94081600D03*
X148437600Y-118618000D03*
D27*
X173594000Y-115598000D02*
X174983200Y-115598000D01*
X174983200Y-115598000D02*
X175006000Y-115620800D01*
X173594000Y-120098000D02*
X174708000Y-120098000D01*
X174708000Y-120098000D02*
X174853600Y-120243600D01*
X167144000Y-123048000D02*
X167144000Y-124143200D01*
X167144000Y-124143200D02*
X166928800Y-124358400D01*
D28*
X164144000Y-111648000D02*
X162448000Y-111648000D01*
X162448000Y-111648000D02*
X162306000Y-111506000D01*
X162194000Y-116598000D02*
X160921000Y-116598000D01*
X160921000Y-116598000D02*
X160782000Y-116459000D01*
D29*
X139700000Y-120462000D02*
X139700000Y-116586000D01*
X143001000Y-113285000D02*
X146812000Y-113285000D01*
X139700000Y-116586000D02*
X143001000Y-113285000D01*
X139700000Y-120462000D02*
X137602000Y-120462000D01*
X137602000Y-120462000D02*
X137414000Y-120650000D01*
D30*
X137602000Y-120462000D02*
X137414000Y-120650000D01*
D27*
X162194000Y-117598000D02*
X151700000Y-117598000D01*
X151700000Y-117598000D02*
X150942000Y-116840000D01*
X150942000Y-116840000D02*
X150942000Y-115885000D01*
X150942000Y-115885000D02*
X151638000Y-115189000D01*
X162194000Y-117098000D02*
X154944000Y-117098000D01*
X152908000Y-112903000D02*
X151638000Y-112903000D01*
X153416000Y-113411000D02*
X152908000Y-112903000D01*
X153416000Y-115570000D02*
X153416000Y-113411000D01*
X154944000Y-117098000D02*
X153416000Y-115570000D01*
X150942000Y-111252000D02*
X150942000Y-112207000D01*
X150942000Y-112207000D02*
X151638000Y-112903000D01*
X174395200Y-120598000D02*
X174853600Y-121056400D01*
X173594000Y-120598000D02*
X174395200Y-120598000D01*
X154178000Y-137033000D02*
X154178000Y-136855200D01*
X154178000Y-136855200D02*
X155448000Y-135585200D01*
X167640000Y-133045200D02*
X170078400Y-133045200D01*
X156006800Y-133045200D02*
X159359600Y-133045200D01*
X155448000Y-133604000D02*
X156006800Y-133045200D01*
X155448000Y-135585200D02*
X155448000Y-133604000D01*
D28*
X154178000Y-140157200D02*
X154178000Y-137033000D01*
X163322000Y-115824000D02*
X163068000Y-115570000D01*
D27*
X163322000Y-117856000D02*
X163322000Y-115824000D01*
D28*
X163068000Y-115570000D02*
X162222000Y-115570000D01*
X162222000Y-115570000D02*
X162194000Y-115598000D01*
X120650000Y-118788000D02*
X126916000Y-118788000D01*
D27*
X126916000Y-118788000D02*
X127762000Y-119634000D01*
X134175500Y-126047500D02*
X135128000Y-127000000D01*
X131000500Y-122872500D02*
X127762000Y-119634000D01*
X134175500Y-126047500D02*
X131000500Y-122872500D01*
D28*
X130048000Y-100584000D02*
X130175000Y-100711000D01*
D27*
X129032000Y-99568000D02*
X130048000Y-100584000D01*
D28*
X150241000Y-100711000D02*
X150622000Y-101092000D01*
X130175000Y-100711000D02*
X150241000Y-100711000D01*
D27*
X153670000Y-110490000D02*
X153860500Y-110680500D01*
X151638000Y-110490000D02*
X153670000Y-110490000D01*
X150942000Y-109794000D02*
X151638000Y-110490000D01*
X160754000Y-115598000D02*
X162194000Y-115598000D01*
X159658002Y-116693998D02*
X160754000Y-115598000D01*
X155111344Y-116693998D02*
X159658002Y-116693998D01*
X153860500Y-115443154D02*
X155111344Y-116693998D01*
X153860500Y-110680500D02*
X153860500Y-115443154D01*
X167144000Y-111648000D02*
X167144000Y-120701500D01*
X167144000Y-120701500D02*
X166624000Y-121221500D01*
X163322000Y-117856000D02*
X165163500Y-119697500D01*
X166624000Y-121158000D02*
X166624000Y-121221500D01*
X166624000Y-121221500D02*
X166624000Y-123028000D01*
X166243000Y-120777000D02*
X166624000Y-121158000D01*
X165163500Y-119697500D02*
X166243000Y-120777000D01*
X166624000Y-123028000D02*
X166644000Y-123048000D01*
X173594000Y-116098000D02*
X172509500Y-116098000D01*
X172541000Y-120598000D02*
X173594000Y-120598000D01*
X172148500Y-120205500D02*
X172541000Y-120598000D01*
X172148500Y-116459000D02*
X172148500Y-120205500D01*
X172509500Y-116098000D02*
X172148500Y-116459000D01*
X135128000Y-132080000D02*
X135128000Y-127000000D01*
X136398000Y-125730000D02*
X137414000Y-125730000D01*
X135128000Y-127000000D02*
X136398000Y-125730000D01*
X139700000Y-125918000D02*
X139766000Y-125918000D01*
X139766000Y-125918000D02*
X141097000Y-124587000D01*
X141732000Y-120269000D02*
X147066000Y-120269000D01*
X141097000Y-120904000D02*
X141732000Y-120269000D01*
X141097000Y-124587000D02*
X141097000Y-120904000D01*
X147097750Y-117316250D02*
X147097750Y-120237250D01*
X147097750Y-120237250D02*
X147066000Y-120269000D01*
X149860000Y-110744000D02*
X149860000Y-114554000D01*
X149860000Y-114554000D02*
X147097750Y-117316250D01*
X149860000Y-110744000D02*
X150876000Y-109728000D01*
D30*
X139700000Y-125918000D02*
X137602000Y-125918000D01*
X137602000Y-125918000D02*
X137414000Y-125730000D01*
X139688000Y-125730000D02*
X139700000Y-125718000D01*
D28*
X139688000Y-125730000D02*
X139700000Y-125742000D01*
D27*
X150942000Y-109728000D02*
X150876000Y-109728000D01*
X150942000Y-109728000D02*
X150942000Y-109794000D01*
X150942000Y-108204000D02*
X150942000Y-109728000D01*
X162194000Y-115598000D02*
X162842000Y-115598000D01*
X163322000Y-117856000D02*
X163080000Y-118098000D01*
X163080000Y-118098000D02*
X162194000Y-118098000D01*
X128778000Y-99568000D02*
X129032000Y-99568000D01*
X150622000Y-101092000D02*
X150942000Y-101412000D01*
X150942000Y-101412000D02*
X150942000Y-102108000D01*
X150942000Y-106680000D02*
X150942000Y-105156000D01*
X150942000Y-105156000D02*
X150942000Y-103632000D01*
X150942000Y-103632000D02*
X150942000Y-102108000D01*
X150942000Y-108204000D02*
X150942000Y-106680000D01*
X150942000Y-108204000D02*
X151130000Y-108204000D01*
X150942000Y-109728000D02*
X151130000Y-109728000D01*
X156652000Y-106680000D02*
X166878000Y-106680000D01*
X167644000Y-109732000D02*
X167644000Y-111648000D01*
X167644000Y-107446000D02*
X167644000Y-109732000D01*
X166878000Y-106680000D02*
X167644000Y-107446000D01*
X156652000Y-105918000D02*
X156718000Y-105918000D01*
X156718000Y-105918000D02*
X156652000Y-105918000D01*
D28*
X167644000Y-111648000D02*
X167644000Y-123048000D01*
D27*
X156652000Y-102108000D02*
X156652000Y-103632000D01*
X156652000Y-103632000D02*
X156652000Y-105156000D01*
X156652000Y-105156000D02*
X156652000Y-105918000D01*
X156652000Y-105918000D02*
X156652000Y-106680000D01*
D28*
X120650000Y-120988000D02*
X120650000Y-123984000D01*
X138938000Y-97028000D02*
X140462000Y-95504000D01*
X140462000Y-93014800D02*
X139090400Y-91643200D01*
X140462000Y-95504000D02*
X140462000Y-93014800D01*
X157689502Y-126409498D02*
X159454360Y-126409498D01*
D27*
X157689502Y-126409498D02*
X155484438Y-126409498D01*
D28*
X150666498Y-129818814D02*
X151539844Y-128945468D01*
X151539844Y-128945468D02*
X152948468Y-128945468D01*
X152948468Y-128945468D02*
X155484438Y-126409498D01*
X151378498Y-132339502D02*
X151378498Y-131820498D01*
X150939500Y-140842301D02*
X150939500Y-140837498D01*
X150939500Y-140837498D02*
X151378498Y-140398500D01*
X151378498Y-140398500D02*
X151378498Y-139832502D01*
X151378498Y-139832502D02*
X151378498Y-139388002D01*
X151378498Y-132339502D02*
X151378498Y-139388002D01*
X150666498Y-131108498D02*
X150666498Y-129921000D01*
X151378498Y-131820498D02*
X150666498Y-131108498D01*
X150666498Y-129921000D02*
X150666498Y-129818814D01*
X163639830Y-125462970D02*
X164144000Y-124958800D01*
X160400888Y-125462970D02*
X163639830Y-125462970D01*
X159454360Y-126409498D02*
X160400888Y-125462970D01*
X164144000Y-123892000D02*
X164144000Y-124958800D01*
X164144000Y-123048000D02*
X164144000Y-123892000D01*
X164144000Y-123892000D02*
X164144000Y-123897812D01*
X150940199Y-140842301D02*
X150939500Y-140842301D01*
X150939500Y-140842301D02*
X150938801Y-140842301D01*
X153986000Y-143246000D02*
X153986000Y-143321000D01*
X153986000Y-143321000D02*
X152838998Y-144468002D01*
X150298998Y-141482104D02*
X150938801Y-140842301D01*
X150938801Y-140842301D02*
X150939500Y-140841602D01*
X150298998Y-143759896D02*
X150298998Y-141482104D01*
X151007104Y-144468002D02*
X150298998Y-143759896D01*
X152838998Y-144468002D02*
X151007104Y-144468002D01*
X153986000Y-143246000D02*
X153807000Y-143246000D01*
X163728400Y-125855212D02*
X164429528Y-125855212D01*
X164644000Y-123963500D02*
X164644000Y-124027000D01*
X164644000Y-123048000D02*
X164644000Y-123963500D01*
X164644000Y-125640740D02*
X164446370Y-125838370D01*
X164644000Y-124027000D02*
X164644000Y-125640740D01*
X153099150Y-129349500D02*
X155601050Y-126847600D01*
X155601050Y-126847600D02*
X159570972Y-126847600D01*
X159570972Y-126847600D02*
X160563360Y-125855212D01*
X160563360Y-125855212D02*
X163728400Y-125855212D01*
X153099150Y-129349500D02*
X153060400Y-129349500D01*
X164429528Y-125855212D02*
X164446370Y-125838370D01*
X151066500Y-130873500D02*
X151066500Y-129984500D01*
X151828500Y-131635500D02*
X151066500Y-130873500D01*
X151828500Y-132339502D02*
X151828500Y-139382500D01*
X151828500Y-139763500D02*
X151828500Y-139382500D01*
X151225250Y-141192250D02*
X151606250Y-141192250D01*
X151955500Y-144018000D02*
X152727500Y-143246000D01*
X151955500Y-144018000D02*
X151193500Y-144018000D01*
X151193500Y-144018000D02*
X150749000Y-143573500D01*
X150749000Y-141668500D02*
X151225250Y-141192250D01*
X150749000Y-141668500D02*
X150749000Y-143573500D01*
X151606250Y-141192250D02*
X151828500Y-140970000D01*
X151828500Y-140970000D02*
X151828500Y-140208000D01*
X151828500Y-140208000D02*
X151828500Y-139763500D01*
X151828500Y-132339502D02*
X151828500Y-131699000D01*
X151828500Y-131699000D02*
X151828500Y-131635500D01*
X151701500Y-129349500D02*
X153060400Y-129349500D01*
X153060400Y-129349500D02*
X153110124Y-129349500D01*
X151066500Y-129984500D02*
X151701500Y-129349500D01*
X152736000Y-143246000D02*
X152727500Y-143246000D01*
X153225500Y-129921000D02*
X153225500Y-129836186D01*
X153261874Y-129799812D02*
X154066328Y-128995358D01*
X154066328Y-128995358D02*
X157977928Y-128995358D01*
X158752043Y-128221243D02*
X157977928Y-128995358D01*
X152278502Y-132339502D02*
X152278502Y-131820498D01*
X152278502Y-139440498D02*
X152278502Y-139007002D01*
X152336500Y-140970000D02*
X152336500Y-140964498D01*
X152590500Y-141224000D02*
X152336500Y-140970000D01*
X156781500Y-141224000D02*
X152590500Y-141224000D01*
X157226000Y-142494000D02*
X157226000Y-141668500D01*
X157226000Y-141668500D02*
X156781500Y-141224000D01*
X157226000Y-142494000D02*
X156486000Y-143234000D01*
X152278502Y-140906500D02*
X152278502Y-140716000D01*
X152336500Y-140964498D02*
X152278502Y-140906500D01*
X152278502Y-140716000D02*
X152278502Y-139440498D01*
X152278502Y-132339502D02*
X152278502Y-139007002D01*
X153225500Y-130873500D02*
X153225500Y-129921000D01*
X152278502Y-131820498D02*
X153225500Y-130873500D01*
X153225500Y-129836186D02*
X153261874Y-129799812D01*
X160253061Y-126725061D02*
X160248225Y-126725061D01*
X160248225Y-126725061D02*
X158752043Y-128221243D01*
X162102800Y-126247454D02*
X160730668Y-126247454D01*
X165150800Y-125688654D02*
X164592000Y-126247454D01*
X164592000Y-126247454D02*
X162102800Y-126247454D01*
X165150800Y-125679200D02*
X165150800Y-125688654D01*
X160730668Y-126247454D02*
X160253061Y-126725061D01*
X158752043Y-128221243D02*
X158701243Y-128272043D01*
X165150800Y-125719134D02*
X165150800Y-125679200D01*
X165150800Y-125679200D02*
X165150800Y-124764800D01*
X165150800Y-124764800D02*
X165150800Y-124099488D01*
X165150800Y-124099488D02*
X165144000Y-124092688D01*
X165144000Y-124092688D02*
X165144000Y-123048000D01*
X165150800Y-124764800D02*
X165150800Y-124714000D01*
X156486000Y-143246000D02*
X156486000Y-143234000D01*
X153625502Y-131108498D02*
X153625502Y-129990898D01*
X155311000Y-143246000D02*
X156083000Y-144018000D01*
X156083000Y-144018000D02*
X156781500Y-144018000D01*
X156781500Y-144018000D02*
X157676002Y-143123498D01*
X152728504Y-132339502D02*
X152728504Y-132005496D01*
X153035000Y-140773998D02*
X152913502Y-140773998D01*
X157676002Y-141482104D02*
X156967896Y-140773998D01*
X157676002Y-143123498D02*
X157676002Y-141482104D01*
X156967896Y-140773998D02*
X153035000Y-140773998D01*
X152728504Y-140589000D02*
X152728504Y-139007002D01*
X152913502Y-140773998D02*
X152728504Y-140589000D01*
X152728504Y-132339502D02*
X152728504Y-139007002D01*
X152728504Y-132005496D02*
X153625502Y-131108498D01*
X158140400Y-129387600D02*
X158445200Y-129082800D01*
X154228800Y-129387600D02*
X158140400Y-129387600D01*
X153625502Y-129990898D02*
X154228800Y-129387600D01*
X159489018Y-128043818D02*
X159184218Y-128348618D01*
X159184218Y-128348618D02*
X159179382Y-128348618D01*
X159179382Y-128348618D02*
X158445200Y-129082800D01*
X165644000Y-126105856D02*
X165644000Y-126197296D01*
X165644000Y-124155200D02*
X165644000Y-126105856D01*
X160893140Y-126639696D02*
X159489018Y-128043818D01*
X165201600Y-126639696D02*
X160893140Y-126639696D01*
X165644000Y-126197296D02*
X165201600Y-126639696D01*
X158445200Y-129082800D02*
X158178500Y-129349500D01*
X165644000Y-124158376D02*
X165644000Y-124155200D01*
X165644000Y-124155200D02*
X165644000Y-123048000D01*
X155236000Y-143246000D02*
X155311000Y-143246000D01*
D27*
X136398000Y-97028000D02*
X137464800Y-97028000D01*
X138938000Y-95554800D02*
X138938000Y-94081600D01*
X137464800Y-97028000D02*
X138938000Y-95554800D01*
D28*
X174548800Y-118516400D02*
X174955200Y-118516400D01*
X174467200Y-118598000D02*
X174548800Y-118516400D01*
X173594000Y-118598000D02*
X174467200Y-118598000D01*
X175412400Y-118973600D02*
X175412400Y-119024400D01*
X174955200Y-118516400D02*
X175412400Y-118973600D01*
X175603600Y-118098000D02*
X175971200Y-118465600D01*
X173594000Y-118098000D02*
X175197200Y-118098000D01*
X175197200Y-118098000D02*
X175603600Y-118098000D01*
X176119600Y-117598000D02*
X176530000Y-118008400D01*
X176530000Y-118008400D02*
X176530000Y-119075200D01*
X176119600Y-117598000D02*
X173594000Y-117598000D01*
X174930500Y-116598000D02*
X173594000Y-116598000D01*
X174930500Y-116598000D02*
X175260000Y-116268500D01*
X173634400Y-132537200D02*
X173634400Y-133858000D01*
X173634400Y-132537200D02*
X173634400Y-122579208D01*
X173634400Y-122579208D02*
X173152396Y-122097204D01*
X173152396Y-122097204D02*
X172593596Y-121538404D01*
X172294848Y-121239656D02*
X172593596Y-121538404D01*
X172262800Y-121239656D02*
X172294848Y-121239656D01*
X173431200Y-135585200D02*
X171983400Y-137033000D01*
X173431200Y-134061200D02*
X173431200Y-135585200D01*
X173634400Y-133858000D02*
X173431200Y-134061200D01*
X171958000Y-137033000D02*
X171983400Y-137033000D01*
X171894500Y-121239656D02*
X172262800Y-121239656D01*
X172262800Y-121239656D02*
X172266112Y-121239656D01*
X169144000Y-120757000D02*
X169626656Y-121239656D01*
X169626656Y-121239656D02*
X171894500Y-121239656D01*
X169144000Y-111648000D02*
X169144000Y-120757000D01*
X174472600Y-137033000D02*
X173431200Y-138074400D01*
X173431200Y-138074400D02*
X171551600Y-138074400D01*
X171551600Y-138074400D02*
X170891200Y-137414000D01*
X170891200Y-137414000D02*
X170891200Y-134061200D01*
X170891200Y-134061200D02*
X173110078Y-131842322D01*
X173110078Y-131842322D02*
X173110078Y-122609600D01*
X172341639Y-121841161D02*
X173110078Y-122609600D01*
X174498000Y-137033000D02*
X174472600Y-137033000D01*
X171894500Y-121611578D02*
X172112056Y-121611578D01*
X168644000Y-120892000D02*
X169363578Y-121611578D01*
X169363578Y-121611578D02*
X171894500Y-121611578D01*
X168644000Y-111648000D02*
X168644000Y-120892000D01*
X172112056Y-121611578D02*
X172341639Y-121841161D01*
X172341639Y-121841161D02*
X172466000Y-121965522D01*
X171399200Y-138582400D02*
X170434000Y-137617200D01*
X176682400Y-138582400D02*
X171399200Y-138582400D01*
X177038000Y-138226800D02*
X176682400Y-138582400D01*
X177038000Y-137033000D02*
X177038000Y-138226800D01*
X170434000Y-137617200D02*
X170434000Y-133992422D01*
X170434000Y-133992422D02*
X170434000Y-133963686D01*
X170434000Y-133963686D02*
X171147243Y-133250443D01*
X171147243Y-133244193D02*
X171147243Y-133250443D01*
X171147243Y-133250443D02*
X171172643Y-133225043D01*
X172717836Y-131673600D02*
X172717836Y-131216400D01*
X171147243Y-133244193D02*
X172717836Y-131673600D01*
X172717836Y-123291600D02*
X172717836Y-131216400D01*
X172717836Y-123291600D02*
X172717836Y-122772072D01*
X172064282Y-122118518D02*
X172064282Y-122089782D01*
X172717836Y-122772072D02*
X172064282Y-122118518D01*
X172717836Y-123393200D02*
X172717836Y-123291600D01*
X171958000Y-121983500D02*
X172064282Y-122089782D01*
X168144000Y-120963500D02*
X169164000Y-121983500D01*
X168144000Y-120963500D02*
X168144000Y-111648000D01*
X169164000Y-121983500D02*
X171958000Y-121983500D01*
X172064282Y-122089782D02*
X172085000Y-122110500D01*
X170992800Y-109118400D02*
X173278800Y-109118400D01*
X165644000Y-109539600D02*
X166014400Y-109169200D01*
X166014400Y-109169200D02*
X167081200Y-109169200D01*
X168249600Y-109169200D02*
X168300400Y-109118400D01*
X168300400Y-109118400D02*
X170992800Y-109118400D01*
X165644000Y-111648000D02*
X165644000Y-109539600D01*
X166144000Y-126362400D02*
X166144000Y-126597538D01*
D27*
X166144000Y-123048000D02*
X166144000Y-124226892D01*
D28*
X166144000Y-124226892D02*
X166144000Y-126362400D01*
X159258000Y-128829550D02*
X159258000Y-129235200D01*
X161055612Y-127031938D02*
X159258000Y-128829550D01*
X165709600Y-127031938D02*
X161055612Y-127031938D01*
X166144000Y-126597538D02*
X165709600Y-127031938D01*
X159258000Y-128887022D02*
X159258000Y-129235200D01*
X159258000Y-129235200D02*
X159258000Y-130810000D01*
D27*
X159279002Y-130788998D02*
X159258000Y-130810000D01*
D28*
X168144000Y-123048000D02*
X168144000Y-124057600D01*
X168030078Y-126508322D02*
X167640000Y-126898400D01*
X168030078Y-124171522D02*
X168030078Y-126508322D01*
X168144000Y-124057600D02*
X168030078Y-124171522D01*
X168402000Y-126542800D02*
X168402000Y-126898400D01*
X168644000Y-124167200D02*
X168402000Y-124409200D01*
X168402000Y-124409200D02*
X168402000Y-126542800D01*
X168644000Y-123048000D02*
X168644000Y-124167200D01*
X169144000Y-124480000D02*
X168973500Y-124650500D01*
X169144000Y-123048000D02*
X169144000Y-124480000D01*
X169644000Y-123048000D02*
X169644000Y-124742000D01*
X169644000Y-124742000D02*
X168910000Y-125476000D01*
X170144000Y-123048000D02*
X170144000Y-126626264D01*
X160317180Y-133433820D02*
X159258000Y-134493000D01*
X160317180Y-128325084D02*
X160317180Y-133433820D01*
X161218084Y-127424180D02*
X160317180Y-128325084D01*
X169346084Y-127424180D02*
X161218084Y-127424180D01*
X170144000Y-126626264D02*
X169346084Y-127424180D01*
X170644000Y-123048000D02*
X170644000Y-126680978D01*
X170644000Y-126680978D02*
X169934989Y-127389989D01*
X161798000Y-134493000D02*
X161788922Y-134493000D01*
X161788922Y-134493000D02*
X160709422Y-133413500D01*
X160709422Y-133413500D02*
X160709422Y-128487556D01*
X160709422Y-128487556D02*
X161380556Y-127816422D01*
X161380556Y-127816422D02*
X169508556Y-127816422D01*
X169508556Y-127816422D02*
X169934989Y-127389989D01*
X169934989Y-127389989D02*
X170093739Y-127231239D01*
X171144000Y-123048000D02*
X171144000Y-126706956D01*
X164338000Y-128879600D02*
X164338000Y-134493000D01*
X165029256Y-128188344D02*
X164338000Y-128879600D01*
X169662612Y-128188344D02*
X165029256Y-128188344D01*
X171144000Y-126706956D02*
X169662612Y-128188344D01*
X171644000Y-123048000D02*
X171644000Y-126732934D01*
X166878000Y-129235200D02*
X166878000Y-134493000D01*
X167552934Y-128560266D02*
X166878000Y-129235200D01*
X169816668Y-128560266D02*
X167552934Y-128560266D01*
X171644000Y-126732934D02*
X169816668Y-128560266D01*
D27*
X173594000Y-121098000D02*
X173594000Y-121371600D01*
D28*
X177555200Y-121098000D02*
X178054000Y-120599200D01*
D27*
X177038000Y-121615200D02*
X177555200Y-121098000D01*
X173837600Y-121615200D02*
X177038000Y-121615200D01*
X173594000Y-121371600D02*
X173837600Y-121615200D01*
X173594000Y-119598000D02*
X176667600Y-119598000D01*
D28*
X177226400Y-119598000D02*
X177546000Y-119278400D01*
X176667600Y-119598000D02*
X177226400Y-119598000D01*
X174678400Y-119098000D02*
X174752000Y-119024400D01*
X174678400Y-119098000D02*
X173594000Y-119098000D01*
X177495200Y-109016800D02*
X177495200Y-103530400D01*
X177495200Y-109626400D02*
X177495200Y-109016800D01*
X176784000Y-110337600D02*
X177495200Y-109626400D01*
X178054000Y-116332000D02*
X178054000Y-91376500D01*
X173594000Y-117098000D02*
X177288000Y-117098000D01*
X160274000Y-90805000D02*
X159258000Y-91821000D01*
X177482500Y-90805000D02*
X160274000Y-90805000D01*
X178054000Y-91376500D02*
X177482500Y-90805000D01*
X177288000Y-117098000D02*
X178054000Y-116332000D01*
D27*
X175641000Y-106108500D02*
X175641000Y-105489732D01*
X175641000Y-113411000D02*
X175641000Y-106108500D01*
X174716000Y-115098000D02*
X175641000Y-114173000D01*
X175641000Y-114173000D02*
X175641000Y-113411000D01*
X173594000Y-115098000D02*
X174716000Y-115098000D01*
X170809922Y-102870000D02*
X170815000Y-102870000D01*
X170809922Y-103071654D02*
X170809922Y-102870000D01*
X171697924Y-103959656D02*
X170809922Y-103071654D01*
X174110924Y-103959656D02*
X171697924Y-103959656D01*
X175641000Y-105489732D02*
X174110924Y-103959656D01*
X170815000Y-98806000D02*
X170815000Y-95758000D01*
X170815000Y-102870000D02*
X170815000Y-102870000D01*
X170815000Y-102870000D02*
X170815000Y-98806000D01*
X170815000Y-95758000D02*
X169418000Y-94361000D01*
X170434000Y-103124000D02*
X170434000Y-103227366D01*
X170434000Y-96012000D02*
X169799000Y-95377000D01*
X170434000Y-102362000D02*
X170434000Y-96647000D01*
X170434000Y-103124000D02*
X170434000Y-102362000D01*
X166878000Y-94361000D02*
X167894000Y-95377000D01*
X169799000Y-95377000D02*
X167894000Y-95377000D01*
X170434000Y-96647000D02*
X170434000Y-96012000D01*
X175254922Y-105854500D02*
X175260000Y-105854500D01*
X175254922Y-105635288D02*
X175254922Y-105854500D01*
X173955212Y-104335578D02*
X175254922Y-105635288D01*
X171542212Y-104335578D02*
X173955212Y-104335578D01*
X170434000Y-103227366D02*
X171542212Y-104335578D01*
X175260000Y-113411000D02*
X175260000Y-105854500D01*
X175260000Y-105854500D02*
X175260000Y-105854500D01*
X174581000Y-114598000D02*
X175260000Y-113919000D01*
X175260000Y-113919000D02*
X175260000Y-113411000D01*
X174581000Y-114598000D02*
X173594000Y-114598000D01*
D28*
X144170400Y-92862400D02*
X142849600Y-92862400D01*
X162814000Y-92862400D02*
X144170400Y-92862400D01*
X164312600Y-94361000D02*
X162814000Y-92862400D01*
X142849600Y-92862400D02*
X141630400Y-91643200D01*
X164338000Y-94361000D02*
X164312600Y-94361000D01*
D27*
X164338000Y-94361000D02*
X164338000Y-94335600D01*
X169037000Y-100711000D02*
X169042078Y-100711000D01*
X172529500Y-104711500D02*
X171386500Y-104711500D01*
X174879000Y-105791000D02*
X173799500Y-104711500D01*
X173799500Y-104711500D02*
X172529500Y-104711500D01*
X174879000Y-107061000D02*
X174879000Y-113284000D01*
X173594000Y-114098000D02*
X174446000Y-114098000D01*
X174446000Y-114098000D02*
X174879000Y-113665000D01*
X174879000Y-113284000D02*
X174879000Y-113665000D01*
X174879000Y-107061000D02*
X174879000Y-105791000D01*
X165544500Y-95567500D02*
X164338000Y-94361000D01*
X167552866Y-95567500D02*
X165544500Y-95567500D01*
X168338500Y-96353134D02*
X167552866Y-95567500D01*
X168338500Y-100012500D02*
X168338500Y-96353134D01*
X171386500Y-104711500D02*
X170058078Y-103383078D01*
X169037000Y-100711000D02*
X168338500Y-100012500D01*
X170058078Y-101727000D02*
X170058078Y-103383078D01*
X169042078Y-100711000D02*
X170058078Y-101727000D01*
D28*
X167957500Y-100163134D02*
X167957500Y-100799900D01*
D27*
X163258500Y-95821500D02*
X163385500Y-95948500D01*
X163385500Y-95948500D02*
X166174422Y-95948500D01*
X166174422Y-95948500D02*
X166179500Y-95943422D01*
X166179500Y-95943422D02*
X167380922Y-95943422D01*
X167380922Y-95943422D02*
X167957500Y-96520000D01*
X161798000Y-94361000D02*
X163258500Y-95821500D01*
X167957500Y-96520000D02*
X167957500Y-100163134D01*
D28*
X168402000Y-101244400D02*
X169017936Y-101244400D01*
X167957500Y-100799900D02*
X168402000Y-101244400D01*
X173594000Y-113598000D02*
X174119958Y-113598000D01*
X174119958Y-113598000D02*
X174396400Y-113321558D01*
X174396400Y-113321558D02*
X174396400Y-105865942D01*
X174396400Y-105865942D02*
X173636200Y-105105742D01*
X173636200Y-105105742D02*
X171223200Y-105105742D01*
X171223200Y-105105742D02*
X169663836Y-103546378D01*
X169663836Y-103546378D02*
X169663836Y-101890300D01*
X169663836Y-101890300D02*
X169017936Y-101244400D01*
X141681200Y-94234000D02*
X141681200Y-94232000D01*
X141681200Y-94232000D02*
X142593600Y-93319600D01*
X142593600Y-93319600D02*
X142593600Y-93317600D01*
X142593600Y-93317600D02*
X142593600Y-93319600D01*
D27*
X157378400Y-93319600D02*
X142593600Y-93319600D01*
X160782000Y-93319600D02*
X157378400Y-93319600D01*
X161798000Y-94335600D02*
X160782000Y-93319600D01*
X161798000Y-94361000D02*
X161798000Y-94335600D01*
X173594000Y-113598000D02*
X174057000Y-113598000D01*
D28*
X173672500Y-102679500D02*
X175133000Y-102679500D01*
X177038000Y-91821000D02*
X175704500Y-93154500D01*
X175577500Y-93281500D02*
X175577500Y-100584000D01*
X175704500Y-93154500D02*
X175577500Y-93281500D01*
X175577500Y-100838000D02*
X175577500Y-100584000D01*
X170644000Y-110470500D02*
X170815000Y-110299500D01*
X170815000Y-110299500D02*
X170815000Y-109982000D01*
X170644000Y-110470500D02*
X170644000Y-111648000D01*
X175577500Y-102235000D02*
X175577500Y-100838000D01*
X175133000Y-102679500D02*
X175577500Y-102235000D01*
X173355000Y-101473000D02*
X173355000Y-102044500D01*
X173482000Y-92837000D02*
X173472922Y-92837000D01*
X173472922Y-92837000D02*
X173355000Y-92954922D01*
X173355000Y-92954922D02*
X173355000Y-101473000D01*
X174498000Y-91821000D02*
X173482000Y-92837000D01*
X173355000Y-102044500D02*
X173228000Y-102171500D01*
X170180000Y-110871000D02*
X170144000Y-110907000D01*
X170180000Y-110871000D02*
X170180000Y-109982000D01*
X170144000Y-111648000D02*
X170144000Y-110907000D01*
X169644000Y-110843000D02*
X169545000Y-110744000D01*
X169545000Y-110744000D02*
X169545000Y-109982000D01*
X169644000Y-111648000D02*
X169644000Y-110843000D01*
X172910500Y-92773500D02*
X171958000Y-91821000D01*
X172974000Y-95504000D02*
X172974000Y-101473000D01*
X172974000Y-92837000D02*
X172974000Y-95504000D01*
X172910500Y-92773500D02*
X172974000Y-92837000D01*
X172783500Y-101663500D02*
X172974000Y-101473000D01*
X166144000Y-111648000D02*
X166144000Y-109763500D01*
X166144000Y-109763500D02*
X166179500Y-109728000D01*
X165144000Y-110597500D02*
X164401500Y-109855000D01*
X164401500Y-109855000D02*
X159004000Y-109855000D01*
X165144000Y-111648000D02*
X165144000Y-110597500D01*
X159893000Y-110363000D02*
X158686500Y-110363000D01*
X164644000Y-110732500D02*
X164274500Y-110363000D01*
X164274500Y-110363000D02*
X159893000Y-110363000D01*
X164644000Y-111648000D02*
X164644000Y-110732500D01*
X158305500Y-109982000D02*
X158305500Y-108331000D01*
X158686500Y-110363000D02*
X158305500Y-109982000D01*
X160782000Y-123444000D02*
X160782000Y-124866400D01*
X162814000Y-130302000D02*
X161239200Y-128727200D01*
X159802000Y-119598000D02*
X159639000Y-119761000D01*
D27*
X162194000Y-119598000D02*
X159802000Y-119598000D01*
D28*
X160782000Y-122509478D02*
X160782000Y-123444000D01*
X159385000Y-121112478D02*
X160782000Y-122509478D01*
X159385000Y-120015000D02*
X159385000Y-121112478D01*
X159639000Y-119761000D02*
X159385000Y-120015000D01*
X162814000Y-130302000D02*
X162814000Y-136855200D01*
X162153600Y-143002000D02*
X163068000Y-142087600D01*
X162814000Y-138785600D02*
X162814000Y-136855200D01*
X162814000Y-136855200D02*
X162814000Y-136804400D01*
X163322000Y-139293600D02*
X162814000Y-138785600D01*
X163322000Y-141833600D02*
X163322000Y-139293600D01*
X163220400Y-141935200D02*
X163322000Y-141833600D01*
X163068000Y-142087600D02*
X163220400Y-141935200D01*
X163322000Y-129844800D02*
X161848800Y-128371600D01*
X163322000Y-137769600D02*
X163322000Y-129844800D01*
X164693600Y-139141200D02*
X163322000Y-137769600D01*
X164693600Y-140462000D02*
X164693600Y-139141200D01*
X161442400Y-122643900D02*
X161442400Y-124866400D01*
X161442400Y-122643900D02*
X161417000Y-122618500D01*
X161417000Y-123444000D02*
X161417000Y-122618500D01*
X161417000Y-122618500D02*
X161417000Y-123444000D01*
X159766000Y-120650000D02*
X159766000Y-120967500D01*
D27*
X161373000Y-120098000D02*
X162194000Y-120098000D01*
X159766000Y-120269000D02*
X159766000Y-120650000D01*
X160020000Y-120015000D02*
X159766000Y-120269000D01*
X161290000Y-120015000D02*
X160020000Y-120015000D01*
X161373000Y-120098000D02*
X161290000Y-120015000D01*
D28*
X159766000Y-120967500D02*
X161417000Y-122618500D01*
D27*
X162194000Y-120598000D02*
X160984000Y-120598000D01*
X160984000Y-120598000D02*
X160909000Y-120523000D01*
X162194000Y-121098000D02*
X160722000Y-121098000D01*
X160274000Y-120650000D02*
X160274000Y-120523000D01*
X160722000Y-121098000D02*
X160274000Y-120650000D01*
D28*
X161798000Y-137033000D02*
X161798000Y-140106400D01*
X161798000Y-140106400D02*
X162153600Y-140462000D01*
X161239200Y-144272000D02*
X163423600Y-144272000D01*
X161239200Y-144272000D02*
X160883600Y-143916400D01*
X160883600Y-143916400D02*
X160883600Y-137922000D01*
X159994600Y-137033000D02*
X160883600Y-137922000D01*
X163423600Y-144272000D02*
X164693600Y-143002000D01*
X159994600Y-137033000D02*
X159258000Y-137033000D01*
D27*
X161163000Y-118598000D02*
X161143000Y-118598000D01*
X161143000Y-118598000D02*
X160655000Y-118110000D01*
X160655000Y-118110000D02*
X147955000Y-118110000D01*
D28*
X162194000Y-118598000D02*
X161163000Y-118598000D01*
D27*
X149733000Y-118618000D02*
X148437600Y-118618000D01*
X161135000Y-119098000D02*
X160655000Y-118618000D01*
X160655000Y-118618000D02*
X149733000Y-118618000D01*
X162194000Y-119098000D02*
X161135000Y-119098000D01*
D31*
G36*
X178423500Y-144233343D02*
X178368935Y-144507660D01*
X178235444Y-144707444D01*
X178035660Y-144840935D01*
X177761343Y-144895500D01*
X152914419Y-144895500D01*
X153008336Y-144876819D01*
X153151893Y-144780897D01*
X153969304Y-143963486D01*
X154128093Y-143963625D01*
X154391900Y-143854622D01*
X154593913Y-143652962D01*
X154610907Y-143612037D01*
X154627378Y-143651900D01*
X154829038Y-143853913D01*
X155092654Y-143963376D01*
X155378093Y-143963625D01*
X155395601Y-143956391D01*
X155770105Y-144330895D01*
X155913662Y-144426817D01*
X156083000Y-144460500D01*
X156781500Y-144460500D01*
X156950838Y-144426817D01*
X157094395Y-144330895D01*
X157988897Y-143436393D01*
X158084819Y-143292836D01*
X158118502Y-143123498D01*
X158118502Y-141482104D01*
X158103563Y-141406999D01*
X158084819Y-141312766D01*
X157988897Y-141169209D01*
X157280791Y-140461103D01*
X157137234Y-140365181D01*
X156967896Y-140331498D01*
X154720105Y-140331498D01*
X154745401Y-140270578D01*
X154745598Y-140044813D01*
X154659384Y-139836157D01*
X154620500Y-139797205D01*
X154620500Y-138016019D01*
X154787557Y-137946992D01*
X155090927Y-137644151D01*
X155255312Y-137248268D01*
X155255313Y-137246388D01*
X155640314Y-137246388D01*
X155804008Y-137642557D01*
X156106849Y-137945927D01*
X156502732Y-138110312D01*
X156931388Y-138110686D01*
X157327557Y-137946992D01*
X157630927Y-137644151D01*
X157795312Y-137248268D01*
X157795686Y-136819612D01*
X157631992Y-136423443D01*
X157329151Y-136120073D01*
X156933268Y-135955688D01*
X156504612Y-135955314D01*
X156108443Y-136119008D01*
X155805073Y-136421849D01*
X155640688Y-136817732D01*
X155640314Y-137246388D01*
X155255313Y-137246388D01*
X155255686Y-136819612D01*
X155134792Y-136527026D01*
X155762309Y-135899509D01*
X155834943Y-135790804D01*
X155858664Y-135755303D01*
X155892424Y-135585581D01*
X155893627Y-135586784D01*
X156004403Y-135476008D01*
X156082044Y-135692416D01*
X156589451Y-135844486D01*
X157116428Y-135790804D01*
X157353956Y-135692416D01*
X157431598Y-135476006D01*
X156718000Y-134762408D01*
X156703858Y-134776550D01*
X156434450Y-134507142D01*
X156448592Y-134493000D01*
X156987408Y-134493000D01*
X157701006Y-135206598D01*
X157917416Y-135128956D01*
X158069486Y-134621549D01*
X158015804Y-134094572D01*
X157917416Y-133857044D01*
X157701006Y-133779402D01*
X156987408Y-134493000D01*
X156448592Y-134493000D01*
X156434450Y-134478858D01*
X156703858Y-134209450D01*
X156718000Y-134223592D01*
X157431598Y-133509994D01*
X157424317Y-133489700D01*
X158864584Y-133489700D01*
X158648443Y-133579008D01*
X158345073Y-133881849D01*
X158180688Y-134277732D01*
X158180314Y-134706388D01*
X158344008Y-135102557D01*
X158646849Y-135405927D01*
X159042732Y-135570312D01*
X159471388Y-135570686D01*
X159867557Y-135406992D01*
X160170927Y-135104151D01*
X160335312Y-134708268D01*
X160335686Y-134279612D01*
X160265950Y-134110840D01*
X160523461Y-133853329D01*
X160787343Y-134117210D01*
X160720688Y-134277732D01*
X160720314Y-134706388D01*
X160884008Y-135102557D01*
X161186849Y-135405927D01*
X161582732Y-135570312D01*
X162011388Y-135570686D01*
X162371500Y-135421890D01*
X162371500Y-136104439D01*
X162013268Y-135955688D01*
X161584612Y-135955314D01*
X161188443Y-136119008D01*
X160885073Y-136421849D01*
X160720688Y-136817732D01*
X160720413Y-137133023D01*
X160307495Y-136720105D01*
X160289641Y-136708175D01*
X160171992Y-136423443D01*
X159869151Y-136120073D01*
X159473268Y-135955688D01*
X159044612Y-135955314D01*
X158648443Y-136119008D01*
X158345073Y-136421849D01*
X158180688Y-136817732D01*
X158180314Y-137246388D01*
X158344008Y-137642557D01*
X158646849Y-137945927D01*
X159042732Y-138110312D01*
X159471388Y-138110686D01*
X159867557Y-137946992D01*
X160075361Y-137739551D01*
X160441100Y-138105290D01*
X160441100Y-143916400D01*
X160474783Y-144085738D01*
X160570705Y-144229295D01*
X160926305Y-144584895D01*
X161069863Y-144680817D01*
X161239200Y-144714500D01*
X163423600Y-144714500D01*
X163592938Y-144680817D01*
X163736495Y-144584895D01*
X164237971Y-144083419D01*
X164670727Y-144169500D01*
X164716473Y-144169500D01*
X165163256Y-144080629D01*
X165542020Y-143827547D01*
X165795102Y-143448783D01*
X165883973Y-143002000D01*
X165795102Y-142555217D01*
X165542020Y-142176453D01*
X165163256Y-141923371D01*
X164716473Y-141834500D01*
X164670727Y-141834500D01*
X164223944Y-141923371D01*
X163845180Y-142176453D01*
X163592098Y-142555217D01*
X163503227Y-143002000D01*
X163592098Y-143448783D01*
X163603685Y-143466125D01*
X163327320Y-143742490D01*
X163327320Y-142454070D01*
X163634895Y-142146495D01*
X163730817Y-142002938D01*
X163764500Y-141833600D01*
X163764500Y-141619702D01*
X163843600Y-141635720D01*
X165543600Y-141635720D01*
X165661258Y-141613581D01*
X165769321Y-141544045D01*
X165841815Y-141437945D01*
X165867320Y-141312000D01*
X165867320Y-140795375D01*
X170536500Y-140795375D01*
X170536500Y-141425678D01*
X170623506Y-141635728D01*
X170784271Y-141796494D01*
X170994321Y-141883500D01*
X171624625Y-141883500D01*
X171767500Y-141740625D01*
X171767500Y-140652500D01*
X170679375Y-140652500D01*
X170536500Y-140795375D01*
X165867320Y-140795375D01*
X165867320Y-139612000D01*
X165845930Y-139498322D01*
X170536500Y-139498322D01*
X170536500Y-140128625D01*
X170679375Y-140271500D01*
X171767500Y-140271500D01*
X171767500Y-139183375D01*
X172148500Y-139183375D01*
X172148500Y-140271500D01*
X172168500Y-140271500D01*
X172168500Y-140652500D01*
X172148500Y-140652500D01*
X172148500Y-141740625D01*
X172291375Y-141883500D01*
X172921679Y-141883500D01*
X173131729Y-141796494D01*
X173292494Y-141635728D01*
X173379500Y-141425678D01*
X173379500Y-140795375D01*
X173236627Y-140652502D01*
X173363844Y-140652502D01*
X173419371Y-140931656D01*
X173672453Y-141310420D01*
X174051217Y-141563502D01*
X174498000Y-141652373D01*
X174944783Y-141563502D01*
X175323547Y-141310420D01*
X175576629Y-140931656D01*
X175665500Y-140484873D01*
X175665500Y-140439127D01*
X175870500Y-140439127D01*
X175870500Y-140484873D01*
X175959371Y-140931656D01*
X176212453Y-141310420D01*
X176591217Y-141563502D01*
X177038000Y-141652373D01*
X177484783Y-141563502D01*
X177863547Y-141310420D01*
X178116629Y-140931656D01*
X178205500Y-140484873D01*
X178205500Y-140439127D01*
X178116629Y-139992344D01*
X177863547Y-139613580D01*
X177484783Y-139360498D01*
X177038000Y-139271627D01*
X176591217Y-139360498D01*
X176212453Y-139613580D01*
X175959371Y-139992344D01*
X175870500Y-140439127D01*
X175665500Y-140439127D01*
X175576629Y-139992344D01*
X175323547Y-139613580D01*
X174944783Y-139360498D01*
X174498000Y-139271627D01*
X174051217Y-139360498D01*
X173672453Y-139613580D01*
X173419371Y-139992344D01*
X173363844Y-140271498D01*
X173236627Y-140271498D01*
X173379500Y-140128625D01*
X173379500Y-139498322D01*
X173292494Y-139288272D01*
X173131729Y-139127506D01*
X172921679Y-139040500D01*
X172291375Y-139040500D01*
X172148500Y-139183375D01*
X171767500Y-139183375D01*
X171624625Y-139040500D01*
X170994321Y-139040500D01*
X170784271Y-139127506D01*
X170623506Y-139288272D01*
X170536500Y-139498322D01*
X165845930Y-139498322D01*
X165845181Y-139494342D01*
X165775645Y-139386279D01*
X165669545Y-139313785D01*
X165543600Y-139288280D01*
X165136100Y-139288280D01*
X165136100Y-139141200D01*
X165102417Y-138971863D01*
X165006495Y-138828305D01*
X164288647Y-138110457D01*
X164551388Y-138110686D01*
X164947557Y-137946992D01*
X165250927Y-137644151D01*
X165415312Y-137248268D01*
X165415313Y-137246388D01*
X165800314Y-137246388D01*
X165964008Y-137642557D01*
X166266849Y-137945927D01*
X166662732Y-138110312D01*
X167091388Y-138110686D01*
X167487557Y-137946992D01*
X167790927Y-137644151D01*
X167955312Y-137248268D01*
X167955686Y-136819612D01*
X167791992Y-136423443D01*
X167489151Y-136120073D01*
X167093268Y-135955688D01*
X166664612Y-135955314D01*
X166268443Y-136119008D01*
X165965073Y-136421849D01*
X165800688Y-136817732D01*
X165800314Y-137246388D01*
X165415313Y-137246388D01*
X165415686Y-136819612D01*
X165251992Y-136423443D01*
X164949151Y-136120073D01*
X164553268Y-135955688D01*
X164124612Y-135955314D01*
X163764500Y-136104110D01*
X163764500Y-135421561D01*
X164122732Y-135570312D01*
X164551388Y-135570686D01*
X164947557Y-135406992D01*
X165250927Y-135104151D01*
X165415312Y-134708268D01*
X165415686Y-134279612D01*
X165251992Y-133883443D01*
X164949151Y-133580073D01*
X164780500Y-133510043D01*
X164780500Y-129062890D01*
X165212545Y-128630844D01*
X166856566Y-128630844D01*
X166565105Y-128922305D01*
X166469183Y-129065862D01*
X166459448Y-129114805D01*
X166435500Y-129235200D01*
X166435500Y-133509981D01*
X166268443Y-133579008D01*
X165965073Y-133881849D01*
X165800688Y-134277732D01*
X165800314Y-134706388D01*
X165964008Y-135102557D01*
X166266849Y-135405927D01*
X166662732Y-135570312D01*
X167091388Y-135570686D01*
X167487557Y-135406992D01*
X167790927Y-135104151D01*
X167955312Y-134708268D01*
X167955686Y-134279612D01*
X167791992Y-133883443D01*
X167518083Y-133609055D01*
X167526622Y-133612601D01*
X167752387Y-133612798D01*
X167961043Y-133526584D01*
X167997992Y-133489700D01*
X169024584Y-133489700D01*
X168808443Y-133579008D01*
X168505073Y-133881849D01*
X168340688Y-134277732D01*
X168340314Y-134706388D01*
X168504008Y-135102557D01*
X168806849Y-135405927D01*
X169202732Y-135570312D01*
X169631388Y-135570686D01*
X169991500Y-135421890D01*
X169991500Y-136104439D01*
X169633268Y-135955688D01*
X169204612Y-135955314D01*
X168808443Y-136119008D01*
X168505073Y-136421849D01*
X168340688Y-136817732D01*
X168340314Y-137246388D01*
X168504008Y-137642557D01*
X168806849Y-137945927D01*
X169202732Y-138110312D01*
X169631388Y-138110686D01*
X170027557Y-137946992D01*
X170090447Y-137884212D01*
X170121105Y-137930095D01*
X171086305Y-138895295D01*
X171229862Y-138991217D01*
X171399200Y-139024900D01*
X176682400Y-139024900D01*
X176851738Y-138991217D01*
X176995295Y-138895295D01*
X177350895Y-138539695D01*
X177446816Y-138396138D01*
X177446817Y-138396137D01*
X177480500Y-138226800D01*
X177480500Y-138016019D01*
X177647557Y-137946992D01*
X177950927Y-137644151D01*
X178115312Y-137248268D01*
X178115686Y-136819612D01*
X177951992Y-136423443D01*
X177649151Y-136120073D01*
X177253268Y-135955688D01*
X176824612Y-135955314D01*
X176428443Y-136119008D01*
X176125073Y-136421849D01*
X175960688Y-136817732D01*
X175960314Y-137246388D01*
X176124008Y-137642557D01*
X176426849Y-137945927D01*
X176595500Y-138015957D01*
X176595500Y-138043510D01*
X176499110Y-138139900D01*
X173991490Y-138139900D01*
X174097848Y-138033542D01*
X174282732Y-138110312D01*
X174711388Y-138110686D01*
X175107557Y-137946992D01*
X175410927Y-137644151D01*
X175575312Y-137248268D01*
X175575686Y-136819612D01*
X175411992Y-136423443D01*
X175109151Y-136120073D01*
X174713268Y-135955688D01*
X174284612Y-135955314D01*
X173888443Y-136119008D01*
X173585073Y-136421849D01*
X173420688Y-136817732D01*
X173420314Y-137246388D01*
X173482623Y-137397187D01*
X173247910Y-137631900D01*
X172876014Y-137631900D01*
X173035312Y-137248268D01*
X173035686Y-136819612D01*
X172973377Y-136668813D01*
X173744092Y-135898097D01*
X173744095Y-135898095D01*
X173840017Y-135754537D01*
X173873700Y-135585200D01*
X173873700Y-135392755D01*
X173886849Y-135405927D01*
X174282732Y-135570312D01*
X174711388Y-135570686D01*
X175107557Y-135406992D01*
X175410927Y-135104151D01*
X175575312Y-134708268D01*
X175575313Y-134706388D01*
X175960314Y-134706388D01*
X176124008Y-135102557D01*
X176426849Y-135405927D01*
X176822732Y-135570312D01*
X177251388Y-135570686D01*
X177647557Y-135406992D01*
X177950927Y-135104151D01*
X178115312Y-134708268D01*
X178115686Y-134279612D01*
X177951992Y-133883443D01*
X177649151Y-133580073D01*
X177253268Y-133415688D01*
X176824612Y-133415314D01*
X176428443Y-133579008D01*
X176125073Y-133881849D01*
X175960688Y-134277732D01*
X175960314Y-134706388D01*
X175575313Y-134706388D01*
X175575686Y-134279612D01*
X175411992Y-133883443D01*
X175109151Y-133580073D01*
X174713268Y-133415688D01*
X174284612Y-133415314D01*
X174076900Y-133501139D01*
X174076900Y-122579213D01*
X174076901Y-122579208D01*
X174043217Y-122409870D01*
X173989563Y-122329572D01*
X173947295Y-122266313D01*
X173947292Y-122266311D01*
X173716616Y-122035634D01*
X173837600Y-122059700D01*
X177038000Y-122059700D01*
X177208103Y-122025864D01*
X177352309Y-121929509D01*
X177869509Y-121412309D01*
X177875203Y-121403787D01*
X178112239Y-121166751D01*
X178166387Y-121166798D01*
X178375043Y-121080584D01*
X178423500Y-121032212D01*
X178423500Y-144233343D01*
X178423500Y-144233343D01*
G37*
X178423500Y-144233343D02*
X178368935Y-144507660D01*
X178235444Y-144707444D01*
X178035660Y-144840935D01*
X177761343Y-144895500D01*
X152914419Y-144895500D01*
X153008336Y-144876819D01*
X153151893Y-144780897D01*
X153969304Y-143963486D01*
X154128093Y-143963625D01*
X154391900Y-143854622D01*
X154593913Y-143652962D01*
X154610907Y-143612037D01*
X154627378Y-143651900D01*
X154829038Y-143853913D01*
X155092654Y-143963376D01*
X155378093Y-143963625D01*
X155395601Y-143956391D01*
X155770105Y-144330895D01*
X155913662Y-144426817D01*
X156083000Y-144460500D01*
X156781500Y-144460500D01*
X156950838Y-144426817D01*
X157094395Y-144330895D01*
X157988897Y-143436393D01*
X158084819Y-143292836D01*
X158118502Y-143123498D01*
X158118502Y-141482104D01*
X158103563Y-141406999D01*
X158084819Y-141312766D01*
X157988897Y-141169209D01*
X157280791Y-140461103D01*
X157137234Y-140365181D01*
X156967896Y-140331498D01*
X154720105Y-140331498D01*
X154745401Y-140270578D01*
X154745598Y-140044813D01*
X154659384Y-139836157D01*
X154620500Y-139797205D01*
X154620500Y-138016019D01*
X154787557Y-137946992D01*
X155090927Y-137644151D01*
X155255312Y-137248268D01*
X155255313Y-137246388D01*
X155640314Y-137246388D01*
X155804008Y-137642557D01*
X156106849Y-137945927D01*
X156502732Y-138110312D01*
X156931388Y-138110686D01*
X157327557Y-137946992D01*
X157630927Y-137644151D01*
X157795312Y-137248268D01*
X157795686Y-136819612D01*
X157631992Y-136423443D01*
X157329151Y-136120073D01*
X156933268Y-135955688D01*
X156504612Y-135955314D01*
X156108443Y-136119008D01*
X155805073Y-136421849D01*
X155640688Y-136817732D01*
X155640314Y-137246388D01*
X155255313Y-137246388D01*
X155255686Y-136819612D01*
X155134792Y-136527026D01*
X155762309Y-135899509D01*
X155834943Y-135790804D01*
X155858664Y-135755303D01*
X155892424Y-135585581D01*
X155893627Y-135586784D01*
X156004403Y-135476008D01*
X156082044Y-135692416D01*
X156589451Y-135844486D01*
X157116428Y-135790804D01*
X157353956Y-135692416D01*
X157431598Y-135476006D01*
X156718000Y-134762408D01*
X156703858Y-134776550D01*
X156434450Y-134507142D01*
X156448592Y-134493000D01*
X156987408Y-134493000D01*
X157701006Y-135206598D01*
X157917416Y-135128956D01*
X158069486Y-134621549D01*
X158015804Y-134094572D01*
X157917416Y-133857044D01*
X157701006Y-133779402D01*
X156987408Y-134493000D01*
X156448592Y-134493000D01*
X156434450Y-134478858D01*
X156703858Y-134209450D01*
X156718000Y-134223592D01*
X157431598Y-133509994D01*
X157424317Y-133489700D01*
X158864584Y-133489700D01*
X158648443Y-133579008D01*
X158345073Y-133881849D01*
X158180688Y-134277732D01*
X158180314Y-134706388D01*
X158344008Y-135102557D01*
X158646849Y-135405927D01*
X159042732Y-135570312D01*
X159471388Y-135570686D01*
X159867557Y-135406992D01*
X160170927Y-135104151D01*
X160335312Y-134708268D01*
X160335686Y-134279612D01*
X160265950Y-134110840D01*
X160523461Y-133853329D01*
X160787343Y-134117210D01*
X160720688Y-134277732D01*
X160720314Y-134706388D01*
X160884008Y-135102557D01*
X161186849Y-135405927D01*
X161582732Y-135570312D01*
X162011388Y-135570686D01*
X162371500Y-135421890D01*
X162371500Y-136104439D01*
X162013268Y-135955688D01*
X161584612Y-135955314D01*
X161188443Y-136119008D01*
X160885073Y-136421849D01*
X160720688Y-136817732D01*
X160720413Y-137133023D01*
X160307495Y-136720105D01*
X160289641Y-136708175D01*
X160171992Y-136423443D01*
X159869151Y-136120073D01*
X159473268Y-135955688D01*
X159044612Y-135955314D01*
X158648443Y-136119008D01*
X158345073Y-136421849D01*
X158180688Y-136817732D01*
X158180314Y-137246388D01*
X158344008Y-137642557D01*
X158646849Y-137945927D01*
X159042732Y-138110312D01*
X159471388Y-138110686D01*
X159867557Y-137946992D01*
X160075361Y-137739551D01*
X160441100Y-138105290D01*
X160441100Y-143916400D01*
X160474783Y-144085738D01*
X160570705Y-144229295D01*
X160926305Y-144584895D01*
X161069863Y-144680817D01*
X161239200Y-144714500D01*
X163423600Y-144714500D01*
X163592938Y-144680817D01*
X163736495Y-144584895D01*
X164237971Y-144083419D01*
X164670727Y-144169500D01*
X164716473Y-144169500D01*
X165163256Y-144080629D01*
X165542020Y-143827547D01*
X165795102Y-143448783D01*
X165883973Y-143002000D01*
X165795102Y-142555217D01*
X165542020Y-142176453D01*
X165163256Y-141923371D01*
X164716473Y-141834500D01*
X164670727Y-141834500D01*
X164223944Y-141923371D01*
X163845180Y-142176453D01*
X163592098Y-142555217D01*
X163503227Y-143002000D01*
X163592098Y-143448783D01*
X163603685Y-143466125D01*
X163327320Y-143742490D01*
X163327320Y-142454070D01*
X163634895Y-142146495D01*
X163730817Y-142002938D01*
X163764500Y-141833600D01*
X163764500Y-141619702D01*
X163843600Y-141635720D01*
X165543600Y-141635720D01*
X165661258Y-141613581D01*
X165769321Y-141544045D01*
X165841815Y-141437945D01*
X165867320Y-141312000D01*
X165867320Y-140795375D01*
X170536500Y-140795375D01*
X170536500Y-141425678D01*
X170623506Y-141635728D01*
X170784271Y-141796494D01*
X170994321Y-141883500D01*
X171624625Y-141883500D01*
X171767500Y-141740625D01*
X171767500Y-140652500D01*
X170679375Y-140652500D01*
X170536500Y-140795375D01*
X165867320Y-140795375D01*
X165867320Y-139612000D01*
X165845930Y-139498322D01*
X170536500Y-139498322D01*
X170536500Y-140128625D01*
X170679375Y-140271500D01*
X171767500Y-140271500D01*
X171767500Y-139183375D01*
X172148500Y-139183375D01*
X172148500Y-140271500D01*
X172168500Y-140271500D01*
X172168500Y-140652500D01*
X172148500Y-140652500D01*
X172148500Y-141740625D01*
X172291375Y-141883500D01*
X172921679Y-141883500D01*
X173131729Y-141796494D01*
X173292494Y-141635728D01*
X173379500Y-141425678D01*
X173379500Y-140795375D01*
X173236627Y-140652502D01*
X173363844Y-140652502D01*
X173419371Y-140931656D01*
X173672453Y-141310420D01*
X174051217Y-141563502D01*
X174498000Y-141652373D01*
X174944783Y-141563502D01*
X175323547Y-141310420D01*
X175576629Y-140931656D01*
X175665500Y-140484873D01*
X175665500Y-140439127D01*
X175870500Y-140439127D01*
X175870500Y-140484873D01*
X175959371Y-140931656D01*
X176212453Y-141310420D01*
X176591217Y-141563502D01*
X177038000Y-141652373D01*
X177484783Y-141563502D01*
X177863547Y-141310420D01*
X178116629Y-140931656D01*
X178205500Y-140484873D01*
X178205500Y-140439127D01*
X178116629Y-139992344D01*
X177863547Y-139613580D01*
X177484783Y-139360498D01*
X177038000Y-139271627D01*
X176591217Y-139360498D01*
X176212453Y-139613580D01*
X175959371Y-139992344D01*
X175870500Y-140439127D01*
X175665500Y-140439127D01*
X175576629Y-139992344D01*
X175323547Y-139613580D01*
X174944783Y-139360498D01*
X174498000Y-139271627D01*
X174051217Y-139360498D01*
X173672453Y-139613580D01*
X173419371Y-139992344D01*
X173363844Y-140271498D01*
X173236627Y-140271498D01*
X173379500Y-140128625D01*
X173379500Y-139498322D01*
X173292494Y-139288272D01*
X173131729Y-139127506D01*
X172921679Y-139040500D01*
X172291375Y-139040500D01*
X172148500Y-139183375D01*
X171767500Y-139183375D01*
X171624625Y-139040500D01*
X170994321Y-139040500D01*
X170784271Y-139127506D01*
X170623506Y-139288272D01*
X170536500Y-139498322D01*
X165845930Y-139498322D01*
X165845181Y-139494342D01*
X165775645Y-139386279D01*
X165669545Y-139313785D01*
X165543600Y-139288280D01*
X165136100Y-139288280D01*
X165136100Y-139141200D01*
X165102417Y-138971863D01*
X165006495Y-138828305D01*
X164288647Y-138110457D01*
X164551388Y-138110686D01*
X164947557Y-137946992D01*
X165250927Y-137644151D01*
X165415312Y-137248268D01*
X165415313Y-137246388D01*
X165800314Y-137246388D01*
X165964008Y-137642557D01*
X166266849Y-137945927D01*
X166662732Y-138110312D01*
X167091388Y-138110686D01*
X167487557Y-137946992D01*
X167790927Y-137644151D01*
X167955312Y-137248268D01*
X167955686Y-136819612D01*
X167791992Y-136423443D01*
X167489151Y-136120073D01*
X167093268Y-135955688D01*
X166664612Y-135955314D01*
X166268443Y-136119008D01*
X165965073Y-136421849D01*
X165800688Y-136817732D01*
X165800314Y-137246388D01*
X165415313Y-137246388D01*
X165415686Y-136819612D01*
X165251992Y-136423443D01*
X164949151Y-136120073D01*
X164553268Y-135955688D01*
X164124612Y-135955314D01*
X163764500Y-136104110D01*
X163764500Y-135421561D01*
X164122732Y-135570312D01*
X164551388Y-135570686D01*
X164947557Y-135406992D01*
X165250927Y-135104151D01*
X165415312Y-134708268D01*
X165415686Y-134279612D01*
X165251992Y-133883443D01*
X164949151Y-133580073D01*
X164780500Y-133510043D01*
X164780500Y-129062890D01*
X165212545Y-128630844D01*
X166856566Y-128630844D01*
X166565105Y-128922305D01*
X166469183Y-129065862D01*
X166459448Y-129114805D01*
X166435500Y-129235200D01*
X166435500Y-133509981D01*
X166268443Y-133579008D01*
X165965073Y-133881849D01*
X165800688Y-134277732D01*
X165800314Y-134706388D01*
X165964008Y-135102557D01*
X166266849Y-135405927D01*
X166662732Y-135570312D01*
X167091388Y-135570686D01*
X167487557Y-135406992D01*
X167790927Y-135104151D01*
X167955312Y-134708268D01*
X167955686Y-134279612D01*
X167791992Y-133883443D01*
X167518083Y-133609055D01*
X167526622Y-133612601D01*
X167752387Y-133612798D01*
X167961043Y-133526584D01*
X167997992Y-133489700D01*
X169024584Y-133489700D01*
X168808443Y-133579008D01*
X168505073Y-133881849D01*
X168340688Y-134277732D01*
X168340314Y-134706388D01*
X168504008Y-135102557D01*
X168806849Y-135405927D01*
X169202732Y-135570312D01*
X169631388Y-135570686D01*
X169991500Y-135421890D01*
X169991500Y-136104439D01*
X169633268Y-135955688D01*
X169204612Y-135955314D01*
X168808443Y-136119008D01*
X168505073Y-136421849D01*
X168340688Y-136817732D01*
X168340314Y-137246388D01*
X168504008Y-137642557D01*
X168806849Y-137945927D01*
X169202732Y-138110312D01*
X169631388Y-138110686D01*
X170027557Y-137946992D01*
X170090447Y-137884212D01*
X170121105Y-137930095D01*
X171086305Y-138895295D01*
X171229862Y-138991217D01*
X171399200Y-139024900D01*
X176682400Y-139024900D01*
X176851738Y-138991217D01*
X176995295Y-138895295D01*
X177350895Y-138539695D01*
X177446816Y-138396138D01*
X177446817Y-138396137D01*
X177480500Y-138226800D01*
X177480500Y-138016019D01*
X177647557Y-137946992D01*
X177950927Y-137644151D01*
X178115312Y-137248268D01*
X178115686Y-136819612D01*
X177951992Y-136423443D01*
X177649151Y-136120073D01*
X177253268Y-135955688D01*
X176824612Y-135955314D01*
X176428443Y-136119008D01*
X176125073Y-136421849D01*
X175960688Y-136817732D01*
X175960314Y-137246388D01*
X176124008Y-137642557D01*
X176426849Y-137945927D01*
X176595500Y-138015957D01*
X176595500Y-138043510D01*
X176499110Y-138139900D01*
X173991490Y-138139900D01*
X174097848Y-138033542D01*
X174282732Y-138110312D01*
X174711388Y-138110686D01*
X175107557Y-137946992D01*
X175410927Y-137644151D01*
X175575312Y-137248268D01*
X175575686Y-136819612D01*
X175411992Y-136423443D01*
X175109151Y-136120073D01*
X174713268Y-135955688D01*
X174284612Y-135955314D01*
X173888443Y-136119008D01*
X173585073Y-136421849D01*
X173420688Y-136817732D01*
X173420314Y-137246388D01*
X173482623Y-137397187D01*
X173247910Y-137631900D01*
X172876014Y-137631900D01*
X173035312Y-137248268D01*
X173035686Y-136819612D01*
X172973377Y-136668813D01*
X173744092Y-135898097D01*
X173744095Y-135898095D01*
X173840017Y-135754537D01*
X173873700Y-135585200D01*
X173873700Y-135392755D01*
X173886849Y-135405927D01*
X174282732Y-135570312D01*
X174711388Y-135570686D01*
X175107557Y-135406992D01*
X175410927Y-135104151D01*
X175575312Y-134708268D01*
X175575313Y-134706388D01*
X175960314Y-134706388D01*
X176124008Y-135102557D01*
X176426849Y-135405927D01*
X176822732Y-135570312D01*
X177251388Y-135570686D01*
X177647557Y-135406992D01*
X177950927Y-135104151D01*
X178115312Y-134708268D01*
X178115686Y-134279612D01*
X177951992Y-133883443D01*
X177649151Y-133580073D01*
X177253268Y-133415688D01*
X176824612Y-133415314D01*
X176428443Y-133579008D01*
X176125073Y-133881849D01*
X175960688Y-134277732D01*
X175960314Y-134706388D01*
X175575313Y-134706388D01*
X175575686Y-134279612D01*
X175411992Y-133883443D01*
X175109151Y-133580073D01*
X174713268Y-133415688D01*
X174284612Y-133415314D01*
X174076900Y-133501139D01*
X174076900Y-122579213D01*
X174076901Y-122579208D01*
X174043217Y-122409870D01*
X173989563Y-122329572D01*
X173947295Y-122266313D01*
X173947292Y-122266311D01*
X173716616Y-122035634D01*
X173837600Y-122059700D01*
X177038000Y-122059700D01*
X177208103Y-122025864D01*
X177352309Y-121929509D01*
X177869509Y-121412309D01*
X177875203Y-121403787D01*
X178112239Y-121166751D01*
X178166387Y-121166798D01*
X178375043Y-121080584D01*
X178423500Y-121032212D01*
X178423500Y-144233343D01*
G36*
X135402185Y-90667255D02*
X135376680Y-90793200D01*
X135376680Y-92493200D01*
X135398819Y-92610858D01*
X135468355Y-92718921D01*
X135574455Y-92791415D01*
X135700400Y-92816920D01*
X137400400Y-92816920D01*
X137518058Y-92794781D01*
X137626121Y-92725245D01*
X137698615Y-92619145D01*
X137724120Y-92493200D01*
X137724120Y-90793200D01*
X137701981Y-90675542D01*
X137632445Y-90567479D01*
X137625158Y-90562500D01*
X138612485Y-90562500D01*
X138264853Y-90794780D01*
X138011771Y-91173544D01*
X137922900Y-91620327D01*
X137922900Y-91666073D01*
X138011771Y-92112856D01*
X138264853Y-92491620D01*
X138643617Y-92744702D01*
X139090400Y-92833573D01*
X139537183Y-92744702D01*
X139554525Y-92733115D01*
X140019500Y-93198090D01*
X140019500Y-93464530D01*
X139966747Y-93385580D01*
X139587983Y-93132498D01*
X139141200Y-93043627D01*
X138694417Y-93132498D01*
X138315653Y-93385580D01*
X138062571Y-93764344D01*
X137973700Y-94211127D01*
X137973700Y-94256873D01*
X138062571Y-94703656D01*
X138315653Y-95082420D01*
X138493500Y-95201254D01*
X138493500Y-95370682D01*
X137351097Y-96513085D01*
X137311992Y-96418443D01*
X137009151Y-96115073D01*
X136613268Y-95950688D01*
X136184612Y-95950314D01*
X135788443Y-96114008D01*
X135485073Y-96416849D01*
X135320688Y-96812732D01*
X135320314Y-97241388D01*
X135484008Y-97637557D01*
X135786849Y-97940927D01*
X136182732Y-98105312D01*
X136611388Y-98105686D01*
X137007557Y-97941992D01*
X137310927Y-97639151D01*
X137380127Y-97472500D01*
X137464800Y-97472500D01*
X137634903Y-97438664D01*
X137779109Y-97342309D01*
X137866079Y-97255339D01*
X138024008Y-97637557D01*
X138326849Y-97940927D01*
X138722732Y-98105312D01*
X139151388Y-98105686D01*
X139547557Y-97941992D01*
X139850927Y-97639151D01*
X140015312Y-97243268D01*
X140015313Y-97241388D01*
X140400314Y-97241388D01*
X140564008Y-97637557D01*
X140866849Y-97940927D01*
X141262732Y-98105312D01*
X141691388Y-98105686D01*
X142087557Y-97941992D01*
X142390927Y-97639151D01*
X142555312Y-97243268D01*
X142555313Y-97241388D01*
X142940314Y-97241388D01*
X143104008Y-97637557D01*
X143406849Y-97940927D01*
X143802732Y-98105312D01*
X144231388Y-98105686D01*
X144627557Y-97941992D01*
X144930927Y-97639151D01*
X145095312Y-97243268D01*
X145095313Y-97241388D01*
X145480314Y-97241388D01*
X145644008Y-97637557D01*
X145946849Y-97940927D01*
X146342732Y-98105312D01*
X146771388Y-98105686D01*
X147167557Y-97941992D01*
X147470927Y-97639151D01*
X147635312Y-97243268D01*
X147635313Y-97241388D01*
X148020314Y-97241388D01*
X148184008Y-97637557D01*
X148486849Y-97940927D01*
X148882732Y-98105312D01*
X149311388Y-98105686D01*
X149540530Y-98011006D01*
X150924402Y-98011006D01*
X151002044Y-98227416D01*
X151509451Y-98379486D01*
X152036428Y-98325804D01*
X152273956Y-98227416D01*
X152351598Y-98011006D01*
X151638000Y-97297408D01*
X150924402Y-98011006D01*
X149540530Y-98011006D01*
X149707557Y-97941992D01*
X150010927Y-97639151D01*
X150175312Y-97243268D01*
X150175611Y-96899451D01*
X150286514Y-96899451D01*
X150340196Y-97426428D01*
X150438584Y-97663956D01*
X150654994Y-97741598D01*
X151368592Y-97028000D01*
X151907408Y-97028000D01*
X152621006Y-97741598D01*
X152837416Y-97663956D01*
X152964059Y-97241388D01*
X153100314Y-97241388D01*
X153264008Y-97637557D01*
X153566849Y-97940927D01*
X153962732Y-98105312D01*
X154391388Y-98105686D01*
X154787557Y-97941992D01*
X155090927Y-97639151D01*
X155255312Y-97243268D01*
X155255313Y-97241388D01*
X155640314Y-97241388D01*
X155804008Y-97637557D01*
X156106849Y-97940927D01*
X156502732Y-98105312D01*
X156931388Y-98105686D01*
X157327557Y-97941992D01*
X157630927Y-97639151D01*
X157795312Y-97243268D01*
X157795313Y-97241388D01*
X158180314Y-97241388D01*
X158344008Y-97637557D01*
X158646849Y-97940927D01*
X159042732Y-98105312D01*
X159471388Y-98105686D01*
X159867557Y-97941992D01*
X160170927Y-97639151D01*
X160335312Y-97243268D01*
X160335313Y-97241388D01*
X160720314Y-97241388D01*
X160884008Y-97637557D01*
X161186849Y-97940927D01*
X161582732Y-98105312D01*
X162011388Y-98105686D01*
X162240530Y-98011006D01*
X163624402Y-98011006D01*
X163702044Y-98227416D01*
X164209451Y-98379486D01*
X164736428Y-98325804D01*
X164973956Y-98227416D01*
X165051598Y-98011006D01*
X164338000Y-97297408D01*
X163624402Y-98011006D01*
X162240530Y-98011006D01*
X162407557Y-97941992D01*
X162710927Y-97639151D01*
X162875312Y-97243268D01*
X162875686Y-96814612D01*
X162711992Y-96418443D01*
X162409151Y-96115073D01*
X162013268Y-95950688D01*
X161584612Y-95950314D01*
X161188443Y-96114008D01*
X160885073Y-96416849D01*
X160720688Y-96812732D01*
X160720314Y-97241388D01*
X160335313Y-97241388D01*
X160335686Y-96814612D01*
X160171992Y-96418443D01*
X159869151Y-96115073D01*
X159473268Y-95950688D01*
X159044612Y-95950314D01*
X158648443Y-96114008D01*
X158345073Y-96416849D01*
X158180688Y-96812732D01*
X158180314Y-97241388D01*
X157795313Y-97241388D01*
X157795686Y-96814612D01*
X157631992Y-96418443D01*
X157329151Y-96115073D01*
X156933268Y-95950688D01*
X156504612Y-95950314D01*
X156108443Y-96114008D01*
X155805073Y-96416849D01*
X155640688Y-96812732D01*
X155640314Y-97241388D01*
X155255313Y-97241388D01*
X155255686Y-96814612D01*
X155091992Y-96418443D01*
X154789151Y-96115073D01*
X154393268Y-95950688D01*
X153964612Y-95950314D01*
X153568443Y-96114008D01*
X153265073Y-96416849D01*
X153100688Y-96812732D01*
X153100314Y-97241388D01*
X152964059Y-97241388D01*
X152989486Y-97156549D01*
X152935804Y-96629572D01*
X152837416Y-96392044D01*
X152621006Y-96314402D01*
X151907408Y-97028000D01*
X151368592Y-97028000D01*
X150654994Y-96314402D01*
X150438584Y-96392044D01*
X150286514Y-96899451D01*
X150175611Y-96899451D01*
X150175686Y-96814612D01*
X150011992Y-96418443D01*
X149709151Y-96115073D01*
X149540383Y-96044994D01*
X150924402Y-96044994D01*
X151638000Y-96758592D01*
X152351598Y-96044994D01*
X152273956Y-95828584D01*
X151766549Y-95676514D01*
X151239572Y-95730196D01*
X151002044Y-95828584D01*
X150924402Y-96044994D01*
X149540383Y-96044994D01*
X149313268Y-95950688D01*
X148884612Y-95950314D01*
X148488443Y-96114008D01*
X148185073Y-96416849D01*
X148020688Y-96812732D01*
X148020314Y-97241388D01*
X147635313Y-97241388D01*
X147635686Y-96814612D01*
X147471992Y-96418443D01*
X147169151Y-96115073D01*
X146773268Y-95950688D01*
X146344612Y-95950314D01*
X145948443Y-96114008D01*
X145645073Y-96416849D01*
X145480688Y-96812732D01*
X145480314Y-97241388D01*
X145095313Y-97241388D01*
X145095686Y-96814612D01*
X144931992Y-96418443D01*
X144629151Y-96115073D01*
X144233268Y-95950688D01*
X143804612Y-95950314D01*
X143408443Y-96114008D01*
X143105073Y-96416849D01*
X142940688Y-96812732D01*
X142940314Y-97241388D01*
X142555313Y-97241388D01*
X142555686Y-96814612D01*
X142391992Y-96418443D01*
X142089151Y-96115073D01*
X141693268Y-95950688D01*
X141264612Y-95950314D01*
X140868443Y-96114008D01*
X140565073Y-96416849D01*
X140400688Y-96812732D01*
X140400314Y-97241388D01*
X140015313Y-97241388D01*
X140015686Y-96814612D01*
X139945950Y-96645839D01*
X140774892Y-95816897D01*
X140774895Y-95816895D01*
X140870817Y-95673337D01*
X140904500Y-95504000D01*
X140904500Y-95115059D01*
X141234417Y-95335502D01*
X141681200Y-95424373D01*
X142127983Y-95335502D01*
X142506747Y-95082420D01*
X142759829Y-94703656D01*
X142848700Y-94256873D01*
X142848700Y-94211127D01*
X142762287Y-93776702D01*
X142774889Y-93764100D01*
X153259155Y-93764100D01*
X153100688Y-94145732D01*
X153100314Y-94574388D01*
X153264008Y-94970557D01*
X153566849Y-95273927D01*
X153962732Y-95438312D01*
X154391388Y-95438686D01*
X154787557Y-95274992D01*
X155090927Y-94972151D01*
X155255312Y-94576268D01*
X155255686Y-94147612D01*
X155097222Y-93764100D01*
X155799155Y-93764100D01*
X155640688Y-94145732D01*
X155640314Y-94574388D01*
X155804008Y-94970557D01*
X156106849Y-95273927D01*
X156502732Y-95438312D01*
X156931388Y-95438686D01*
X157327557Y-95274992D01*
X157630927Y-94972151D01*
X157795312Y-94576268D01*
X157795686Y-94147612D01*
X157637222Y-93764100D01*
X158339155Y-93764100D01*
X158180688Y-94145732D01*
X158180314Y-94574388D01*
X158344008Y-94970557D01*
X158646849Y-95273927D01*
X159042732Y-95438312D01*
X159471388Y-95438686D01*
X159867557Y-95274992D01*
X160170927Y-94972151D01*
X160335312Y-94576268D01*
X160335686Y-94147612D01*
X160177222Y-93764100D01*
X160597882Y-93764100D01*
X160796629Y-93962847D01*
X160720688Y-94145732D01*
X160720314Y-94574388D01*
X160884008Y-94970557D01*
X161186849Y-95273927D01*
X161582732Y-95438312D01*
X162011388Y-95438686D01*
X162178159Y-95369777D01*
X163071191Y-96262809D01*
X163215397Y-96359164D01*
X163224939Y-96361062D01*
X163138584Y-96392044D01*
X162986514Y-96899451D01*
X163040196Y-97426428D01*
X163138584Y-97663956D01*
X163354994Y-97741598D01*
X164068592Y-97028000D01*
X164054450Y-97013858D01*
X164323858Y-96744450D01*
X164338000Y-96758592D01*
X164352142Y-96744450D01*
X164621550Y-97013858D01*
X164607408Y-97028000D01*
X165321006Y-97741598D01*
X165537416Y-97663956D01*
X165689486Y-97156549D01*
X165635804Y-96629572D01*
X165537812Y-96393000D01*
X165988964Y-96393000D01*
X165965073Y-96416849D01*
X165800688Y-96812732D01*
X165800314Y-97241388D01*
X165964008Y-97637557D01*
X166266849Y-97940927D01*
X166662732Y-98105312D01*
X167091388Y-98105686D01*
X167487557Y-97941992D01*
X167513000Y-97916593D01*
X167513000Y-98678964D01*
X167489151Y-98655073D01*
X167093268Y-98490688D01*
X166664612Y-98490314D01*
X166268443Y-98654008D01*
X165965073Y-98956849D01*
X165800688Y-99352732D01*
X165800314Y-99781388D01*
X165964008Y-100177557D01*
X166266849Y-100480927D01*
X166662732Y-100645312D01*
X167091388Y-100645686D01*
X167487557Y-100481992D01*
X167515000Y-100454597D01*
X167515000Y-100799900D01*
X167548683Y-100969238D01*
X167644605Y-101112795D01*
X168089105Y-101557295D01*
X168232662Y-101653217D01*
X168402000Y-101686900D01*
X168834646Y-101686900D01*
X169221336Y-102073589D01*
X169221336Y-103546378D01*
X169255019Y-103715716D01*
X169350941Y-103859273D01*
X170910305Y-105418637D01*
X171053862Y-105514559D01*
X171223200Y-105548243D01*
X171223205Y-105548242D01*
X173452910Y-105548242D01*
X173953900Y-106049232D01*
X173953900Y-113124280D01*
X172844000Y-113124280D01*
X172726342Y-113146419D01*
X172618279Y-113215955D01*
X172545785Y-113322055D01*
X172520280Y-113448000D01*
X172520280Y-113748000D01*
X172539787Y-113851672D01*
X172520280Y-113948000D01*
X172520280Y-114248000D01*
X172539787Y-114351672D01*
X172520280Y-114448000D01*
X172520280Y-114748000D01*
X172539787Y-114851672D01*
X172520280Y-114948000D01*
X172520280Y-114963503D01*
X172520272Y-114963506D01*
X172359506Y-115124271D01*
X172272500Y-115334321D01*
X172272500Y-115380125D01*
X172415375Y-115523000D01*
X172684078Y-115523000D01*
X172718055Y-115546215D01*
X172844000Y-115571720D01*
X174344000Y-115571720D01*
X174461658Y-115549581D01*
X174472662Y-115542500D01*
X174716000Y-115542500D01*
X174886103Y-115508664D01*
X175030309Y-115412309D01*
X175955309Y-114487309D01*
X176051665Y-114343102D01*
X176085500Y-114173000D01*
X176085500Y-105489732D01*
X176051664Y-105319629D01*
X175955309Y-105175423D01*
X174425233Y-103645347D01*
X174322583Y-103576759D01*
X174281027Y-103548992D01*
X174110924Y-103515156D01*
X171882042Y-103515156D01*
X171255748Y-102888862D01*
X171259500Y-102870000D01*
X171259500Y-100393425D01*
X171346849Y-100480927D01*
X171742732Y-100645312D01*
X172171388Y-100645686D01*
X172531500Y-100496890D01*
X172531500Y-101153588D01*
X172462457Y-101182116D01*
X172302677Y-101341617D01*
X172216099Y-101550122D01*
X172215902Y-101775887D01*
X172302116Y-101984543D01*
X172461617Y-102144323D01*
X172660452Y-102226886D01*
X172660402Y-102283887D01*
X172746616Y-102492543D01*
X172906117Y-102652323D01*
X173104952Y-102734886D01*
X173104902Y-102791887D01*
X173191116Y-103000543D01*
X173350617Y-103160323D01*
X173559122Y-103246901D01*
X173784887Y-103247098D01*
X173993543Y-103160884D01*
X174032495Y-103122000D01*
X175133000Y-103122000D01*
X175302338Y-103088317D01*
X175445895Y-102992395D01*
X175890395Y-102547895D01*
X175986317Y-102404338D01*
X176020000Y-102235000D01*
X176020000Y-100269043D01*
X176054994Y-100281598D01*
X176768592Y-99568000D01*
X176054994Y-98854402D01*
X176020000Y-98866957D01*
X176020000Y-97385839D01*
X176124008Y-97637557D01*
X176426849Y-97940927D01*
X176822732Y-98105312D01*
X177251388Y-98105686D01*
X177611500Y-97956890D01*
X177611500Y-98349866D01*
X177166549Y-98216514D01*
X176639572Y-98270196D01*
X176402044Y-98368584D01*
X176324402Y-98584994D01*
X177038000Y-99298592D01*
X177052142Y-99284450D01*
X177321550Y-99553858D01*
X177307408Y-99568000D01*
X177321550Y-99582142D01*
X177052142Y-99851550D01*
X177038000Y-99837408D01*
X176324402Y-100551006D01*
X176402044Y-100767416D01*
X176909451Y-100919486D01*
X177436428Y-100865804D01*
X177611500Y-100793286D01*
X177611500Y-102964212D01*
X177608578Y-102962999D01*
X177382813Y-102962802D01*
X177174157Y-103049016D01*
X177014377Y-103208517D01*
X176927799Y-103417022D01*
X176927602Y-103642787D01*
X177013816Y-103851443D01*
X177052700Y-103890395D01*
X177052700Y-109443110D01*
X176725761Y-109770049D01*
X176671613Y-109770002D01*
X176462957Y-109856216D01*
X176303177Y-110015717D01*
X176216599Y-110224222D01*
X176216402Y-110449987D01*
X176302616Y-110658643D01*
X176462117Y-110818423D01*
X176670622Y-110905001D01*
X176896387Y-110905198D01*
X177105043Y-110818984D01*
X177264823Y-110659483D01*
X177351401Y-110450978D01*
X177351449Y-110395941D01*
X177611500Y-110135890D01*
X177611500Y-116148711D01*
X177104710Y-116655500D01*
X175675592Y-116655500D01*
X175740823Y-116590383D01*
X175827401Y-116381878D01*
X175827598Y-116156113D01*
X175741384Y-115947457D01*
X175581883Y-115787677D01*
X175373378Y-115701099D01*
X175147613Y-115700902D01*
X174938957Y-115787116D01*
X174912826Y-115813201D01*
X174772625Y-115673000D01*
X174503922Y-115673000D01*
X174469945Y-115649785D01*
X174344000Y-115624280D01*
X172844000Y-115624280D01*
X172726342Y-115646419D01*
X172715338Y-115653500D01*
X172509500Y-115653500D01*
X172339397Y-115687336D01*
X172248607Y-115748000D01*
X172195191Y-115783691D01*
X171834191Y-116144691D01*
X171737836Y-116288897D01*
X171704000Y-116459000D01*
X171704000Y-120205500D01*
X171737836Y-120375603D01*
X171816502Y-120493336D01*
X171834191Y-120519809D01*
X172111538Y-120797156D01*
X169809946Y-120797156D01*
X169586500Y-120573710D01*
X169586500Y-112721720D01*
X169794000Y-112721720D01*
X169897672Y-112702213D01*
X169994000Y-112721720D01*
X170294000Y-112721720D01*
X170397672Y-112702213D01*
X170494000Y-112721720D01*
X170794000Y-112721720D01*
X170897672Y-112702213D01*
X170994000Y-112721720D01*
X171294000Y-112721720D01*
X171397672Y-112702213D01*
X171494000Y-112721720D01*
X171794000Y-112721720D01*
X171911658Y-112699581D01*
X172019721Y-112630045D01*
X172092215Y-112523945D01*
X172117720Y-112398000D01*
X172117720Y-110898000D01*
X172095581Y-110780342D01*
X172026045Y-110672279D01*
X171919945Y-110599785D01*
X171794000Y-110574280D01*
X171494000Y-110574280D01*
X171390328Y-110593787D01*
X171294000Y-110574280D01*
X171153363Y-110574280D01*
X171204209Y-110498183D01*
X171223817Y-110468838D01*
X171246918Y-110352702D01*
X171295823Y-110303883D01*
X171382401Y-110095378D01*
X171382598Y-109869613D01*
X171296384Y-109660957D01*
X171196502Y-109560900D01*
X172918661Y-109560900D01*
X172956917Y-109599223D01*
X173165422Y-109685801D01*
X173391187Y-109685998D01*
X173599843Y-109599784D01*
X173759623Y-109440283D01*
X173846201Y-109231778D01*
X173846398Y-109006013D01*
X173760184Y-108797357D01*
X173600683Y-108637577D01*
X173392178Y-108550999D01*
X173166413Y-108550802D01*
X172957757Y-108637016D01*
X172918805Y-108675900D01*
X168541435Y-108675900D01*
X168362978Y-108601799D01*
X168137213Y-108601602D01*
X168088500Y-108621730D01*
X168088500Y-107446000D01*
X168074439Y-107375309D01*
X168054665Y-107275898D01*
X167958309Y-107131691D01*
X167192309Y-106365691D01*
X167092498Y-106299000D01*
X167048103Y-106269336D01*
X166878000Y-106235500D01*
X157562643Y-106235500D01*
X157553581Y-106187342D01*
X157484045Y-106079279D01*
X157377945Y-106006785D01*
X157252000Y-105981280D01*
X157149913Y-105981280D01*
X157162500Y-105918000D01*
X157149913Y-105854720D01*
X157252000Y-105854720D01*
X157369658Y-105832581D01*
X157477721Y-105763045D01*
X157550215Y-105656945D01*
X157575720Y-105531000D01*
X157575720Y-104781000D01*
X157553581Y-104663342D01*
X157484045Y-104555279D01*
X157377945Y-104482785D01*
X157252000Y-104457280D01*
X157096500Y-104457280D01*
X157096500Y-104330720D01*
X157252000Y-104330720D01*
X157369658Y-104308581D01*
X157477721Y-104239045D01*
X157550215Y-104132945D01*
X157575720Y-104007000D01*
X157575720Y-103257000D01*
X157553581Y-103139342D01*
X157484045Y-103031279D01*
X157377945Y-102958785D01*
X157252000Y-102933280D01*
X157096500Y-102933280D01*
X157096500Y-102806720D01*
X157252000Y-102806720D01*
X157369658Y-102784581D01*
X157477721Y-102715045D01*
X157550215Y-102608945D01*
X157575720Y-102483000D01*
X157575720Y-101733000D01*
X157553581Y-101615342D01*
X157484045Y-101507279D01*
X157377945Y-101434785D01*
X157252000Y-101409280D01*
X156052000Y-101409280D01*
X155934342Y-101431419D01*
X155864329Y-101476471D01*
X155836494Y-101409271D01*
X155675728Y-101248506D01*
X155465678Y-101161500D01*
X155085375Y-101161500D01*
X154942500Y-101304375D01*
X154942500Y-101920500D01*
X154962500Y-101920500D01*
X154962500Y-102295500D01*
X154942500Y-102295500D01*
X154942500Y-103444500D01*
X154962500Y-103444500D01*
X154962500Y-103819500D01*
X154942500Y-103819500D01*
X154942500Y-104968500D01*
X154962500Y-104968500D01*
X154962500Y-105343500D01*
X154942500Y-105343500D01*
X154942500Y-106492500D01*
X154962500Y-106492500D01*
X154962500Y-106867500D01*
X154942500Y-106867500D01*
X154942500Y-107483625D01*
X155085375Y-107626500D01*
X155465678Y-107626500D01*
X155675728Y-107539494D01*
X155836494Y-107378729D01*
X155864487Y-107311148D01*
X155926055Y-107353215D01*
X156052000Y-107378720D01*
X157252000Y-107378720D01*
X157369658Y-107356581D01*
X157477721Y-107287045D01*
X157550215Y-107180945D01*
X157561646Y-107124500D01*
X166693882Y-107124500D01*
X167199500Y-107630118D01*
X167199500Y-108603843D01*
X167194578Y-108601799D01*
X166968813Y-108601602D01*
X166760157Y-108687816D01*
X166721205Y-108726700D01*
X166014405Y-108726700D01*
X166014400Y-108726699D01*
X165845062Y-108760383D01*
X165701505Y-108856305D01*
X165331105Y-109226705D01*
X165235183Y-109370262D01*
X165212938Y-109482095D01*
X165201500Y-109539600D01*
X165201500Y-110029211D01*
X164714395Y-109542105D01*
X164570838Y-109446183D01*
X164401500Y-109412500D01*
X159364139Y-109412500D01*
X159325883Y-109374177D01*
X159117378Y-109287599D01*
X158891613Y-109287402D01*
X158748000Y-109346741D01*
X158748000Y-108691139D01*
X158786323Y-108652883D01*
X158872901Y-108444378D01*
X158873098Y-108218613D01*
X158786884Y-108009957D01*
X158627383Y-107850177D01*
X158418878Y-107763599D01*
X158193113Y-107763402D01*
X157984457Y-107849616D01*
X157824677Y-108009117D01*
X157738099Y-108217622D01*
X157737902Y-108443387D01*
X157824116Y-108652043D01*
X157863000Y-108690995D01*
X157863000Y-109982000D01*
X157896683Y-110151338D01*
X157992605Y-110294895D01*
X158373603Y-110675892D01*
X158373605Y-110675895D01*
X158517163Y-110771817D01*
X158686500Y-110805500D01*
X163422500Y-110805500D01*
X163422500Y-111314625D01*
X163565375Y-111457500D01*
X164069000Y-111457500D01*
X164069000Y-111437500D01*
X164170280Y-111437500D01*
X164170280Y-112398000D01*
X164192419Y-112515658D01*
X164219000Y-112556966D01*
X164219000Y-112826625D01*
X164361875Y-112969500D01*
X164407679Y-112969500D01*
X164617729Y-112882494D01*
X164778494Y-112721728D01*
X164778497Y-112721720D01*
X164794000Y-112721720D01*
X164897672Y-112702213D01*
X164994000Y-112721720D01*
X165294000Y-112721720D01*
X165397672Y-112702213D01*
X165494000Y-112721720D01*
X165794000Y-112721720D01*
X165897672Y-112702213D01*
X165994000Y-112721720D01*
X166009503Y-112721720D01*
X166009506Y-112721728D01*
X166170271Y-112882494D01*
X166380321Y-112969500D01*
X166426125Y-112969500D01*
X166569000Y-112826625D01*
X166569000Y-112557922D01*
X166592215Y-112523945D01*
X166617720Y-112398000D01*
X166617720Y-110898000D01*
X166595581Y-110780342D01*
X166586500Y-110766230D01*
X166586500Y-110123577D01*
X166660323Y-110049883D01*
X166746901Y-109841378D01*
X166747079Y-109637763D01*
X166759317Y-109650023D01*
X166967822Y-109736601D01*
X167193587Y-109736798D01*
X167199500Y-109734355D01*
X167199500Y-110495278D01*
X167117729Y-110413506D01*
X166907679Y-110326500D01*
X166861875Y-110326500D01*
X166719000Y-110469375D01*
X166719000Y-110738078D01*
X166695785Y-110772055D01*
X166670280Y-110898000D01*
X166670280Y-112398000D01*
X166692419Y-112515658D01*
X166699500Y-112526662D01*
X166699500Y-120517382D01*
X166655750Y-120561132D01*
X163766500Y-117671882D01*
X163766500Y-115824000D01*
X163732664Y-115653897D01*
X163636309Y-115509691D01*
X163627786Y-115503996D01*
X163380895Y-115257105D01*
X163267720Y-115181484D01*
X163267720Y-114948000D01*
X163248213Y-114844328D01*
X163267720Y-114748000D01*
X163267720Y-114448000D01*
X163248213Y-114344328D01*
X163267720Y-114248000D01*
X163267720Y-113948000D01*
X163248213Y-113844328D01*
X163267720Y-113748000D01*
X163267720Y-113448000D01*
X163245581Y-113330342D01*
X163176045Y-113222279D01*
X163069945Y-113149785D01*
X162944000Y-113124280D01*
X161444000Y-113124280D01*
X161326342Y-113146419D01*
X161218279Y-113215955D01*
X161145785Y-113322055D01*
X161120280Y-113448000D01*
X161120280Y-113748000D01*
X161139787Y-113851672D01*
X161120280Y-113948000D01*
X161120280Y-114248000D01*
X161139787Y-114351672D01*
X161120280Y-114448000D01*
X161120280Y-114748000D01*
X161139787Y-114851672D01*
X161120280Y-114948000D01*
X161120280Y-115153500D01*
X160754000Y-115153500D01*
X160583897Y-115187336D01*
X160439691Y-115283691D01*
X159473884Y-116249498D01*
X155295462Y-116249498D01*
X154305000Y-115259036D01*
X154305000Y-111981375D01*
X163422500Y-111981375D01*
X163422500Y-112511678D01*
X163509506Y-112721728D01*
X163670271Y-112882494D01*
X163880321Y-112969500D01*
X163926125Y-112969500D01*
X164069000Y-112826625D01*
X164069000Y-111838500D01*
X163565375Y-111838500D01*
X163422500Y-111981375D01*
X154305000Y-111981375D01*
X154305000Y-110680500D01*
X154300943Y-110660102D01*
X154271165Y-110510398D01*
X154174809Y-110366191D01*
X154013500Y-110204882D01*
X154013500Y-110058375D01*
X153870625Y-109915500D01*
X153032500Y-109915500D01*
X153032500Y-109938500D01*
X152651500Y-109938500D01*
X152651500Y-109915500D01*
X152631500Y-109915500D01*
X152631500Y-109540500D01*
X152651500Y-109540500D01*
X152651500Y-108391500D01*
X153032500Y-108391500D01*
X153032500Y-109540500D01*
X153870625Y-109540500D01*
X154013500Y-109397625D01*
X154013500Y-109239321D01*
X153926494Y-109029271D01*
X153863223Y-108966000D01*
X153926494Y-108902729D01*
X154013500Y-108692679D01*
X154013500Y-108534375D01*
X153870625Y-108391500D01*
X153032500Y-108391500D01*
X152651500Y-108391500D01*
X152631500Y-108391500D01*
X152631500Y-108016500D01*
X152651500Y-108016500D01*
X152651500Y-106867500D01*
X153032500Y-106867500D01*
X153032500Y-108016500D01*
X153870625Y-108016500D01*
X154013500Y-107873625D01*
X154013500Y-107715321D01*
X153963948Y-107595693D01*
X154038322Y-107626500D01*
X154418625Y-107626500D01*
X154561500Y-107483625D01*
X154561500Y-106867500D01*
X153032500Y-106867500D01*
X152651500Y-106867500D01*
X152631500Y-106867500D01*
X152631500Y-106492500D01*
X152651500Y-106492500D01*
X152651500Y-105343500D01*
X153032500Y-105343500D01*
X153032500Y-106492500D01*
X154561500Y-106492500D01*
X154561500Y-105343500D01*
X153032500Y-105343500D01*
X152651500Y-105343500D01*
X152631500Y-105343500D01*
X152631500Y-104968500D01*
X152651500Y-104968500D01*
X152651500Y-103819500D01*
X153032500Y-103819500D01*
X153032500Y-104968500D01*
X154561500Y-104968500D01*
X154561500Y-103819500D01*
X153032500Y-103819500D01*
X152651500Y-103819500D01*
X152631500Y-103819500D01*
X152631500Y-103444500D01*
X152651500Y-103444500D01*
X152651500Y-102295500D01*
X153032500Y-102295500D01*
X153032500Y-103444500D01*
X154561500Y-103444500D01*
X154561500Y-102295500D01*
X153032500Y-102295500D01*
X152651500Y-102295500D01*
X152631500Y-102295500D01*
X152631500Y-101920500D01*
X152651500Y-101920500D01*
X152651500Y-101304375D01*
X153032500Y-101304375D01*
X153032500Y-101920500D01*
X154561500Y-101920500D01*
X154561500Y-101304375D01*
X154418625Y-101161500D01*
X154038322Y-101161500D01*
X153828272Y-101248506D01*
X153797000Y-101279778D01*
X153765728Y-101248506D01*
X153555678Y-101161500D01*
X153175375Y-101161500D01*
X153032500Y-101304375D01*
X152651500Y-101304375D01*
X152508625Y-101161500D01*
X152128322Y-101161500D01*
X151918272Y-101248506D01*
X151757506Y-101409271D01*
X151729513Y-101476852D01*
X151667945Y-101434785D01*
X151542000Y-101409280D01*
X151385959Y-101409280D01*
X151352664Y-101241897D01*
X151256309Y-101097691D01*
X150936309Y-100777691D01*
X150927784Y-100771995D01*
X150553895Y-100398105D01*
X150410338Y-100302183D01*
X150241000Y-100268500D01*
X149921422Y-100268500D01*
X150010927Y-100179151D01*
X150175312Y-99783268D01*
X150175313Y-99781388D01*
X150560314Y-99781388D01*
X150724008Y-100177557D01*
X151026849Y-100480927D01*
X151422732Y-100645312D01*
X151851388Y-100645686D01*
X152247557Y-100481992D01*
X152550927Y-100179151D01*
X152715312Y-99783268D01*
X152715313Y-99781388D01*
X153100314Y-99781388D01*
X153264008Y-100177557D01*
X153566849Y-100480927D01*
X153962732Y-100645312D01*
X154391388Y-100645686D01*
X154787557Y-100481992D01*
X155090927Y-100179151D01*
X155255312Y-99783268D01*
X155255313Y-99781388D01*
X155640314Y-99781388D01*
X155804008Y-100177557D01*
X156106849Y-100480927D01*
X156502732Y-100645312D01*
X156931388Y-100645686D01*
X157160530Y-100551006D01*
X158544402Y-100551006D01*
X158622044Y-100767416D01*
X159129451Y-100919486D01*
X159656428Y-100865804D01*
X159893956Y-100767416D01*
X159971598Y-100551006D01*
X159258000Y-99837408D01*
X158544402Y-100551006D01*
X157160530Y-100551006D01*
X157327557Y-100481992D01*
X157630927Y-100179151D01*
X157795312Y-99783268D01*
X157795611Y-99439451D01*
X157906514Y-99439451D01*
X157960196Y-99966428D01*
X158058584Y-100203956D01*
X158274994Y-100281598D01*
X158988592Y-99568000D01*
X159527408Y-99568000D01*
X160241006Y-100281598D01*
X160457416Y-100203956D01*
X160584059Y-99781388D01*
X160720314Y-99781388D01*
X160884008Y-100177557D01*
X161186849Y-100480927D01*
X161582732Y-100645312D01*
X162011388Y-100645686D01*
X162407557Y-100481992D01*
X162710927Y-100179151D01*
X162875312Y-99783268D01*
X162875313Y-99781388D01*
X163260314Y-99781388D01*
X163424008Y-100177557D01*
X163726849Y-100480927D01*
X164122732Y-100645312D01*
X164551388Y-100645686D01*
X164947557Y-100481992D01*
X165250927Y-100179151D01*
X165415312Y-99783268D01*
X165415686Y-99354612D01*
X165251992Y-98958443D01*
X164949151Y-98655073D01*
X164553268Y-98490688D01*
X164124612Y-98490314D01*
X163728443Y-98654008D01*
X163425073Y-98956849D01*
X163260688Y-99352732D01*
X163260314Y-99781388D01*
X162875313Y-99781388D01*
X162875686Y-99354612D01*
X162711992Y-98958443D01*
X162409151Y-98655073D01*
X162013268Y-98490688D01*
X161584612Y-98490314D01*
X161188443Y-98654008D01*
X160885073Y-98956849D01*
X160720688Y-99352732D01*
X160720314Y-99781388D01*
X160584059Y-99781388D01*
X160609486Y-99696549D01*
X160555804Y-99169572D01*
X160457416Y-98932044D01*
X160241006Y-98854402D01*
X159527408Y-99568000D01*
X158988592Y-99568000D01*
X158274994Y-98854402D01*
X158058584Y-98932044D01*
X157906514Y-99439451D01*
X157795611Y-99439451D01*
X157795686Y-99354612D01*
X157631992Y-98958443D01*
X157329151Y-98655073D01*
X157160383Y-98584994D01*
X158544402Y-98584994D01*
X159258000Y-99298592D01*
X159971598Y-98584994D01*
X159893956Y-98368584D01*
X159386549Y-98216514D01*
X158859572Y-98270196D01*
X158622044Y-98368584D01*
X158544402Y-98584994D01*
X157160383Y-98584994D01*
X156933268Y-98490688D01*
X156504612Y-98490314D01*
X156108443Y-98654008D01*
X155805073Y-98956849D01*
X155640688Y-99352732D01*
X155640314Y-99781388D01*
X155255313Y-99781388D01*
X155255686Y-99354612D01*
X155091992Y-98958443D01*
X154789151Y-98655073D01*
X154393268Y-98490688D01*
X153964612Y-98490314D01*
X153568443Y-98654008D01*
X153265073Y-98956849D01*
X153100688Y-99352732D01*
X153100314Y-99781388D01*
X152715313Y-99781388D01*
X152715686Y-99354612D01*
X152551992Y-98958443D01*
X152249151Y-98655073D01*
X151853268Y-98490688D01*
X151424612Y-98490314D01*
X151028443Y-98654008D01*
X150725073Y-98956849D01*
X150560688Y-99352732D01*
X150560314Y-99781388D01*
X150175313Y-99781388D01*
X150175686Y-99354612D01*
X150011992Y-98958443D01*
X149709151Y-98655073D01*
X149313268Y-98490688D01*
X148884612Y-98490314D01*
X148488443Y-98654008D01*
X148185073Y-98956849D01*
X148020688Y-99352732D01*
X148020314Y-99781388D01*
X148184008Y-100177557D01*
X148274792Y-100268500D01*
X147381422Y-100268500D01*
X147470927Y-100179151D01*
X147635312Y-99783268D01*
X147635686Y-99354612D01*
X147471992Y-98958443D01*
X147169151Y-98655073D01*
X146773268Y-98490688D01*
X146344612Y-98490314D01*
X145948443Y-98654008D01*
X145645073Y-98956849D01*
X145480688Y-99352732D01*
X145480314Y-99781388D01*
X145644008Y-100177557D01*
X145734792Y-100268500D01*
X144841422Y-100268500D01*
X144930927Y-100179151D01*
X145095312Y-99783268D01*
X145095686Y-99354612D01*
X144931992Y-98958443D01*
X144629151Y-98655073D01*
X144233268Y-98490688D01*
X143804612Y-98490314D01*
X143408443Y-98654008D01*
X143105073Y-98956849D01*
X142940688Y-99352732D01*
X142940314Y-99781388D01*
X143104008Y-100177557D01*
X143194792Y-100268500D01*
X142301422Y-100268500D01*
X142390927Y-100179151D01*
X142555312Y-99783268D01*
X142555686Y-99354612D01*
X142391992Y-98958443D01*
X142089151Y-98655073D01*
X141693268Y-98490688D01*
X141264612Y-98490314D01*
X140868443Y-98654008D01*
X140565073Y-98956849D01*
X140400688Y-99352732D01*
X140400314Y-99781388D01*
X140564008Y-100177557D01*
X140654792Y-100268500D01*
X139957514Y-100268500D01*
X140137416Y-100203956D01*
X140289486Y-99696549D01*
X140235804Y-99169572D01*
X140137416Y-98932044D01*
X139921006Y-98854402D01*
X139207408Y-99568000D01*
X139221550Y-99582142D01*
X138952142Y-99851550D01*
X138938000Y-99837408D01*
X138923858Y-99851550D01*
X138654450Y-99582142D01*
X138668592Y-99568000D01*
X137954994Y-98854402D01*
X137738584Y-98932044D01*
X137586514Y-99439451D01*
X137640196Y-99966428D01*
X137738584Y-100203956D01*
X137918486Y-100268500D01*
X137221422Y-100268500D01*
X137310927Y-100179151D01*
X137475312Y-99783268D01*
X137475686Y-99354612D01*
X137311992Y-98958443D01*
X137009151Y-98655073D01*
X136840383Y-98584994D01*
X138224402Y-98584994D01*
X138938000Y-99298592D01*
X139651598Y-98584994D01*
X139573956Y-98368584D01*
X139066549Y-98216514D01*
X138539572Y-98270196D01*
X138302044Y-98368584D01*
X138224402Y-98584994D01*
X136840383Y-98584994D01*
X136613268Y-98490688D01*
X136184612Y-98490314D01*
X135788443Y-98654008D01*
X135485073Y-98956849D01*
X135320688Y-99352732D01*
X135320314Y-99781388D01*
X135484008Y-100177557D01*
X135574792Y-100268500D01*
X134681422Y-100268500D01*
X134770927Y-100179151D01*
X134935312Y-99783268D01*
X134935686Y-99354612D01*
X134771992Y-98958443D01*
X134469151Y-98655073D01*
X134073268Y-98490688D01*
X133644612Y-98490314D01*
X133248443Y-98654008D01*
X132945073Y-98956849D01*
X132780688Y-99352732D01*
X132780314Y-99781388D01*
X132944008Y-100177557D01*
X133034792Y-100268500D01*
X132141422Y-100268500D01*
X132230927Y-100179151D01*
X132395312Y-99783268D01*
X132395686Y-99354612D01*
X132231992Y-98958443D01*
X131929151Y-98655073D01*
X131533268Y-98490688D01*
X131104612Y-98490314D01*
X130708443Y-98654008D01*
X130405073Y-98956849D01*
X130240688Y-99352732D01*
X130240314Y-99781388D01*
X130404008Y-100177557D01*
X130494792Y-100268500D01*
X130361118Y-100268500D01*
X129855330Y-99762712D01*
X129855686Y-99354612D01*
X129691992Y-98958443D01*
X129389151Y-98655073D01*
X128993268Y-98490688D01*
X128564612Y-98490314D01*
X128168443Y-98654008D01*
X127865073Y-98956849D01*
X127700688Y-99352732D01*
X127700314Y-99781388D01*
X127864008Y-100177557D01*
X128166849Y-100480927D01*
X128562732Y-100645312D01*
X128991388Y-100645686D01*
X129337894Y-100502512D01*
X129733691Y-100898309D01*
X129742213Y-100904003D01*
X129862105Y-101023895D01*
X130005662Y-101119817D01*
X130175000Y-101153500D01*
X150057710Y-101153500D01*
X150301995Y-101397784D01*
X150307691Y-101406309D01*
X150315625Y-101414243D01*
X150224342Y-101431419D01*
X150116279Y-101500955D01*
X150043785Y-101607055D01*
X150018280Y-101733000D01*
X150018280Y-102483000D01*
X150040419Y-102600658D01*
X150109955Y-102708721D01*
X150216055Y-102781215D01*
X150342000Y-102806720D01*
X150497500Y-102806720D01*
X150497500Y-102933280D01*
X150342000Y-102933280D01*
X150224342Y-102955419D01*
X150116279Y-103024955D01*
X150043785Y-103131055D01*
X150018280Y-103257000D01*
X150018280Y-104007000D01*
X150040419Y-104124658D01*
X150109955Y-104232721D01*
X150216055Y-104305215D01*
X150342000Y-104330720D01*
X150497500Y-104330720D01*
X150497500Y-104457280D01*
X150342000Y-104457280D01*
X150224342Y-104479419D01*
X150116279Y-104548955D01*
X150043785Y-104655055D01*
X150018280Y-104781000D01*
X150018280Y-105531000D01*
X150040419Y-105648658D01*
X150109955Y-105756721D01*
X150216055Y-105829215D01*
X150342000Y-105854720D01*
X150497500Y-105854720D01*
X150497500Y-105981280D01*
X150342000Y-105981280D01*
X150224342Y-106003419D01*
X150116279Y-106072955D01*
X150043785Y-106179055D01*
X150018280Y-106305000D01*
X150018280Y-107055000D01*
X150040419Y-107172658D01*
X150109955Y-107280721D01*
X150216055Y-107353215D01*
X150342000Y-107378720D01*
X150497500Y-107378720D01*
X150497500Y-107505280D01*
X150342000Y-107505280D01*
X150224342Y-107527419D01*
X150116279Y-107596955D01*
X150043785Y-107703055D01*
X150018280Y-107829000D01*
X150018280Y-108579000D01*
X150040419Y-108696658D01*
X150109955Y-108804721D01*
X150216055Y-108877215D01*
X150342000Y-108902720D01*
X150497500Y-108902720D01*
X150497500Y-109029280D01*
X150342000Y-109029280D01*
X150224342Y-109051419D01*
X150116279Y-109120955D01*
X150043785Y-109227055D01*
X150018280Y-109353000D01*
X150018280Y-109957102D01*
X149545691Y-110429691D01*
X149449336Y-110573897D01*
X149415500Y-110744000D01*
X149415500Y-112103177D01*
X149235883Y-111668471D01*
X148432757Y-110863942D01*
X147382886Y-110427997D01*
X146246102Y-110427005D01*
X145195471Y-110861117D01*
X144390942Y-111664243D01*
X143955252Y-112713500D01*
X143001005Y-112713500D01*
X143001000Y-112713499D01*
X142818582Y-112749785D01*
X142782296Y-112757003D01*
X142678099Y-112826625D01*
X142596888Y-112880888D01*
X139295888Y-116181888D01*
X139172003Y-116367296D01*
X139166393Y-116395500D01*
X139128499Y-116586000D01*
X139128500Y-116586005D01*
X139128500Y-119611152D01*
X139099279Y-119629955D01*
X139026785Y-119736055D01*
X139001280Y-119862000D01*
X139001280Y-119890500D01*
X138181137Y-119890500D01*
X138026286Y-119735378D01*
X137629668Y-119570687D01*
X137200216Y-119570313D01*
X136803311Y-119734311D01*
X136499378Y-120037714D01*
X136334687Y-120434332D01*
X136334313Y-120863784D01*
X136498311Y-121260689D01*
X136801714Y-121564622D01*
X137198332Y-121729313D01*
X137627784Y-121729687D01*
X138024689Y-121565689D01*
X138328622Y-121262286D01*
X138423623Y-121033500D01*
X139001280Y-121033500D01*
X139001280Y-121062000D01*
X139023419Y-121179658D01*
X139068471Y-121249671D01*
X139001271Y-121277506D01*
X138840506Y-121438272D01*
X138753500Y-121648322D01*
X138753500Y-122028625D01*
X138896375Y-122171500D01*
X139512500Y-122171500D01*
X139512500Y-122151500D01*
X139887500Y-122151500D01*
X139887500Y-122171500D01*
X140503625Y-122171500D01*
X140646500Y-122028625D01*
X140646500Y-121648322D01*
X140559494Y-121438272D01*
X140398729Y-121277506D01*
X140331148Y-121249513D01*
X140373215Y-121187945D01*
X140398720Y-121062000D01*
X140398720Y-119862000D01*
X140376581Y-119744342D01*
X140307045Y-119636279D01*
X140271500Y-119611992D01*
X140271500Y-116822724D01*
X143237724Y-113856500D01*
X143956320Y-113856500D01*
X144388117Y-114901529D01*
X145191243Y-115706058D01*
X146241114Y-116142003D01*
X147377898Y-116142995D01*
X147828623Y-115956759D01*
X146783441Y-117001941D01*
X146687086Y-117146147D01*
X146653250Y-117316250D01*
X146653250Y-119271524D01*
X146455311Y-119353311D01*
X146151378Y-119656714D01*
X146081707Y-119824500D01*
X141732000Y-119824500D01*
X141561898Y-119858335D01*
X141417691Y-119954691D01*
X140782691Y-120589691D01*
X140686336Y-120733897D01*
X140652500Y-120904000D01*
X140652500Y-124402882D01*
X140646500Y-124408882D01*
X140646500Y-124351375D01*
X140503625Y-124208500D01*
X139887500Y-124208500D01*
X139887500Y-124228500D01*
X139512500Y-124228500D01*
X139512500Y-124208500D01*
X138896375Y-124208500D01*
X138753500Y-124351375D01*
X138753500Y-124731678D01*
X138840506Y-124941728D01*
X139001271Y-125102494D01*
X139068852Y-125130487D01*
X139026785Y-125192055D01*
X139001280Y-125318000D01*
X139001280Y-125397300D01*
X138444552Y-125397300D01*
X138329689Y-125119311D01*
X138026286Y-124815378D01*
X137629668Y-124650687D01*
X137200216Y-124650313D01*
X136803311Y-124814311D01*
X136499378Y-125117714D01*
X136429707Y-125285500D01*
X136398000Y-125285500D01*
X136227897Y-125319336D01*
X136111215Y-125397300D01*
X136083691Y-125415691D01*
X135128000Y-126371382D01*
X132931084Y-124174466D01*
X136698942Y-124174466D01*
X136776834Y-124391082D01*
X137284970Y-124543489D01*
X137812750Y-124489838D01*
X138051166Y-124391082D01*
X138129058Y-124174466D01*
X137414000Y-123459408D01*
X136698942Y-124174466D01*
X132931084Y-124174466D01*
X131817588Y-123060970D01*
X136060511Y-123060970D01*
X136114162Y-123588750D01*
X136212918Y-123827166D01*
X136429534Y-123905058D01*
X137144592Y-123190000D01*
X137683408Y-123190000D01*
X138398466Y-123905058D01*
X138615082Y-123827166D01*
X138753500Y-123365670D01*
X138753500Y-123684625D01*
X138896375Y-123827500D01*
X139512500Y-123827500D01*
X139512500Y-122552500D01*
X139887500Y-122552500D01*
X139887500Y-123827500D01*
X140503625Y-123827500D01*
X140646500Y-123684625D01*
X140646500Y-123304322D01*
X140599146Y-123190000D01*
X140646500Y-123075678D01*
X140646500Y-122695375D01*
X140503625Y-122552500D01*
X139887500Y-122552500D01*
X139512500Y-122552500D01*
X138896375Y-122552500D01*
X138753500Y-122695375D01*
X138753500Y-123075678D01*
X138800854Y-123190000D01*
X138763532Y-123280103D01*
X138713838Y-122791250D01*
X138615082Y-122552834D01*
X138398466Y-122474942D01*
X137683408Y-123190000D01*
X137144592Y-123190000D01*
X136429534Y-122474942D01*
X136212918Y-122552834D01*
X136060511Y-123060970D01*
X131817588Y-123060970D01*
X130962152Y-122205534D01*
X136698942Y-122205534D01*
X137414000Y-122920592D01*
X138129058Y-122205534D01*
X138051166Y-121988918D01*
X137543030Y-121836511D01*
X137015250Y-121890162D01*
X136776834Y-121988918D01*
X136698942Y-122205534D01*
X130962152Y-122205534D01*
X127230309Y-118473691D01*
X127086102Y-118377336D01*
X126916000Y-118343500D01*
X126905946Y-118345500D01*
X121423720Y-118345500D01*
X121423720Y-118188000D01*
X121401581Y-118070342D01*
X121332045Y-117962279D01*
X121225945Y-117889785D01*
X121100000Y-117864280D01*
X120200000Y-117864280D01*
X120082342Y-117886419D01*
X119974279Y-117955955D01*
X119901785Y-118062055D01*
X119876280Y-118188000D01*
X119876280Y-119388000D01*
X119898419Y-119505658D01*
X119967955Y-119613721D01*
X120074055Y-119686215D01*
X120200000Y-119711720D01*
X121100000Y-119711720D01*
X121217658Y-119689581D01*
X121325721Y-119620045D01*
X121398215Y-119513945D01*
X121423720Y-119388000D01*
X121423720Y-119230500D01*
X126729882Y-119230500D01*
X134683500Y-127184118D01*
X134683500Y-131095643D01*
X134517311Y-131164311D01*
X134213378Y-131467714D01*
X134048687Y-131864332D01*
X134048313Y-132293784D01*
X134212311Y-132690689D01*
X134515714Y-132994622D01*
X134912332Y-133159313D01*
X135341784Y-133159687D01*
X135738689Y-132995689D01*
X136042622Y-132692286D01*
X136207313Y-132295668D01*
X136207314Y-132293784D01*
X136588313Y-132293784D01*
X136752311Y-132690689D01*
X137055714Y-132994622D01*
X137452332Y-133159313D01*
X137881784Y-133159687D01*
X138278689Y-132995689D01*
X138582622Y-132692286D01*
X138747313Y-132295668D01*
X138747314Y-132293784D01*
X139128313Y-132293784D01*
X139292311Y-132690689D01*
X139595714Y-132994622D01*
X139992332Y-133159313D01*
X140421784Y-133159687D01*
X140652236Y-133064466D01*
X142032942Y-133064466D01*
X142110834Y-133281082D01*
X142618970Y-133433489D01*
X143146750Y-133379838D01*
X143385166Y-133281082D01*
X143463058Y-133064466D01*
X142748000Y-132349408D01*
X142032942Y-133064466D01*
X140652236Y-133064466D01*
X140818689Y-132995689D01*
X141122622Y-132692286D01*
X141287313Y-132295668D01*
X141287613Y-131950970D01*
X141394511Y-131950970D01*
X141448162Y-132478750D01*
X141546918Y-132717166D01*
X141763534Y-132795058D01*
X142478592Y-132080000D01*
X143017408Y-132080000D01*
X143732466Y-132795058D01*
X143949082Y-132717166D01*
X144101489Y-132209030D01*
X144047838Y-131681250D01*
X143949082Y-131442834D01*
X143732466Y-131364942D01*
X143017408Y-132080000D01*
X142478592Y-132080000D01*
X141763534Y-131364942D01*
X141546918Y-131442834D01*
X141394511Y-131950970D01*
X141287613Y-131950970D01*
X141287687Y-131866216D01*
X141123689Y-131469311D01*
X140820286Y-131165378D01*
X140652084Y-131095534D01*
X142032942Y-131095534D01*
X142748000Y-131810592D01*
X143463058Y-131095534D01*
X143385166Y-130878918D01*
X142877030Y-130726511D01*
X142349250Y-130780162D01*
X142110834Y-130878918D01*
X142032942Y-131095534D01*
X140652084Y-131095534D01*
X140423668Y-131000687D01*
X139994216Y-131000313D01*
X139597311Y-131164311D01*
X139293378Y-131467714D01*
X139128687Y-131864332D01*
X139128313Y-132293784D01*
X138747314Y-132293784D01*
X138747687Y-131866216D01*
X138583689Y-131469311D01*
X138280286Y-131165378D01*
X137883668Y-131000687D01*
X137454216Y-131000313D01*
X137057311Y-131164311D01*
X136753378Y-131467714D01*
X136588687Y-131864332D01*
X136588313Y-132293784D01*
X136207314Y-132293784D01*
X136207687Y-131866216D01*
X136043689Y-131469311D01*
X135740286Y-131165378D01*
X135572500Y-131095707D01*
X135572500Y-130642784D01*
X145986313Y-130642784D01*
X146150311Y-131039689D01*
X146453714Y-131343622D01*
X146850332Y-131508313D01*
X147279784Y-131508687D01*
X147676689Y-131344689D01*
X147980622Y-131041286D01*
X148145313Y-130644668D01*
X148145687Y-130215216D01*
X147981689Y-129818311D01*
X147678286Y-129514378D01*
X147281668Y-129349687D01*
X146852216Y-129349313D01*
X146455311Y-129513311D01*
X146151378Y-129816714D01*
X145986687Y-130213332D01*
X145986313Y-130642784D01*
X135572500Y-130642784D01*
X135572500Y-128102784D01*
X145986313Y-128102784D01*
X146150311Y-128499689D01*
X146453714Y-128803622D01*
X146850332Y-128968313D01*
X147279784Y-128968687D01*
X147676689Y-128804689D01*
X147980622Y-128501286D01*
X148145313Y-128104668D01*
X148145687Y-127675216D01*
X147981689Y-127278311D01*
X147678286Y-126974378D01*
X147281668Y-126809687D01*
X146852216Y-126809313D01*
X146455311Y-126973311D01*
X146151378Y-127276714D01*
X145986687Y-127673332D01*
X145986313Y-128102784D01*
X135572500Y-128102784D01*
X135572500Y-127184118D01*
X136474224Y-126282394D01*
X136498311Y-126340689D01*
X136801714Y-126644622D01*
X137198332Y-126809313D01*
X137627784Y-126809687D01*
X138024689Y-126645689D01*
X138232040Y-126438700D01*
X139001280Y-126438700D01*
X139001280Y-126518000D01*
X139023419Y-126635658D01*
X139092955Y-126743721D01*
X139199055Y-126816215D01*
X139325000Y-126841720D01*
X140075000Y-126841720D01*
X140192658Y-126819581D01*
X140300721Y-126750045D01*
X140373215Y-126643945D01*
X140398720Y-126518000D01*
X140398720Y-125913898D01*
X140749834Y-125562784D01*
X145986313Y-125562784D01*
X146150311Y-125959689D01*
X146453714Y-126263622D01*
X146850332Y-126428313D01*
X147279784Y-126428687D01*
X147676689Y-126264689D01*
X147980622Y-125961286D01*
X148145313Y-125564668D01*
X148145687Y-125135216D01*
X147981689Y-124738311D01*
X147678286Y-124434378D01*
X147281668Y-124269687D01*
X146852216Y-124269313D01*
X146455311Y-124433311D01*
X146151378Y-124736714D01*
X145986687Y-125133332D01*
X145986313Y-125562784D01*
X140749834Y-125562784D01*
X141411309Y-124901309D01*
X141434634Y-124866400D01*
X141507664Y-124757103D01*
X141541500Y-124587000D01*
X141541500Y-123022784D01*
X145986313Y-123022784D01*
X146150311Y-123419689D01*
X146453714Y-123723622D01*
X146850332Y-123888313D01*
X147279784Y-123888687D01*
X147676689Y-123724689D01*
X147980622Y-123421286D01*
X148145313Y-123024668D01*
X148145314Y-123022784D01*
X156146313Y-123022784D01*
X156310311Y-123419689D01*
X156613714Y-123723622D01*
X157010332Y-123888313D01*
X157439784Y-123888687D01*
X157836689Y-123724689D01*
X158140622Y-123421286D01*
X158305313Y-123024668D01*
X158305687Y-122595216D01*
X158141689Y-122198311D01*
X157838286Y-121894378D01*
X157441668Y-121729687D01*
X157012216Y-121729313D01*
X156615311Y-121893311D01*
X156311378Y-122196714D01*
X156146687Y-122593332D01*
X156146313Y-123022784D01*
X148145314Y-123022784D01*
X148145687Y-122595216D01*
X147981689Y-122198311D01*
X147678286Y-121894378D01*
X147281668Y-121729687D01*
X146852216Y-121729313D01*
X146455311Y-121893311D01*
X146151378Y-122196714D01*
X145986687Y-122593332D01*
X145986313Y-123022784D01*
X141541500Y-123022784D01*
X141541500Y-121088118D01*
X141916118Y-120713500D01*
X146081643Y-120713500D01*
X146150311Y-120879689D01*
X146453714Y-121183622D01*
X146850332Y-121348313D01*
X147279784Y-121348687D01*
X147676689Y-121184689D01*
X147980622Y-120881286D01*
X148096436Y-120602375D01*
X155892500Y-120602375D01*
X155892500Y-121144679D01*
X155979506Y-121354729D01*
X156140272Y-121515494D01*
X156350322Y-121602500D01*
X156892625Y-121602500D01*
X157035500Y-121459625D01*
X157035500Y-120459500D01*
X157416500Y-120459500D01*
X157416500Y-121459625D01*
X157559375Y-121602500D01*
X158101678Y-121602500D01*
X158311728Y-121515494D01*
X158472494Y-121354729D01*
X158559500Y-121144679D01*
X158559500Y-120602375D01*
X158416625Y-120459500D01*
X157416500Y-120459500D01*
X157035500Y-120459500D01*
X156035375Y-120459500D01*
X155892500Y-120602375D01*
X148096436Y-120602375D01*
X148145313Y-120484668D01*
X148145687Y-120055216D01*
X147981689Y-119658311D01*
X147678286Y-119354378D01*
X147542250Y-119297891D01*
X147542250Y-118499797D01*
X147633117Y-118590823D01*
X147841622Y-118677401D01*
X147870048Y-118677426D01*
X147870002Y-118730387D01*
X147956216Y-118939043D01*
X148115717Y-119098823D01*
X148324222Y-119185401D01*
X148549987Y-119185598D01*
X148758643Y-119099384D01*
X148795592Y-119062500D01*
X156100278Y-119062500D01*
X155979506Y-119183271D01*
X155892500Y-119393321D01*
X155892500Y-119935625D01*
X156035375Y-120078500D01*
X157035500Y-120078500D01*
X157035500Y-120058500D01*
X157416500Y-120058500D01*
X157416500Y-120078500D01*
X158416625Y-120078500D01*
X158559500Y-119935625D01*
X158559500Y-119393321D01*
X158472494Y-119183271D01*
X158351722Y-119062500D01*
X160470882Y-119062500D01*
X160561882Y-119153500D01*
X159802000Y-119153500D01*
X159631897Y-119187336D01*
X159487691Y-119283691D01*
X159481996Y-119292214D01*
X159072105Y-119702105D01*
X158976183Y-119845662D01*
X158950711Y-119973721D01*
X158942500Y-120015000D01*
X158942500Y-121112478D01*
X158976183Y-121281816D01*
X159072105Y-121425373D01*
X160339500Y-122692768D01*
X160339500Y-124506261D01*
X160301177Y-124544517D01*
X160214599Y-124753022D01*
X160214402Y-124978787D01*
X160244480Y-125051581D01*
X160231550Y-125054153D01*
X160087993Y-125150075D01*
X159271070Y-125966998D01*
X158134900Y-125966998D01*
X158140622Y-125961286D01*
X158305313Y-125564668D01*
X158305687Y-125135216D01*
X158141689Y-124738311D01*
X157838286Y-124434378D01*
X157441668Y-124269687D01*
X157012216Y-124269313D01*
X156615311Y-124433311D01*
X156311378Y-124736714D01*
X156146687Y-125133332D01*
X156146313Y-125562784D01*
X156310311Y-125959689D01*
X156315611Y-125964998D01*
X155484438Y-125964998D01*
X155314335Y-125998834D01*
X155170129Y-126095189D01*
X155164434Y-126103712D01*
X152765178Y-128502968D01*
X151539849Y-128502968D01*
X151539844Y-128502967D01*
X151370506Y-128536651D01*
X151226949Y-128632573D01*
X150353603Y-129505919D01*
X150295960Y-129592188D01*
X150218286Y-129514378D01*
X149821668Y-129349687D01*
X149392216Y-129349313D01*
X148995311Y-129513311D01*
X148691378Y-129816714D01*
X148526687Y-130213332D01*
X148526313Y-130642784D01*
X148690311Y-131039689D01*
X148993714Y-131343622D01*
X149390332Y-131508313D01*
X149819784Y-131508687D01*
X150216689Y-131344689D01*
X150268075Y-131293392D01*
X150353603Y-131421393D01*
X150935998Y-132003788D01*
X150935998Y-140215210D01*
X150626605Y-140524603D01*
X150618341Y-140536971D01*
X149986103Y-141169209D01*
X149890181Y-141312766D01*
X149871437Y-141406999D01*
X149856498Y-141482104D01*
X149856498Y-143759896D01*
X149890181Y-143929234D01*
X149986103Y-144072791D01*
X150694209Y-144780897D01*
X150837766Y-144876819D01*
X150931683Y-144895500D01*
X119799657Y-144895500D01*
X119622543Y-144860270D01*
X119505161Y-144781838D01*
X119426731Y-144664459D01*
X119391500Y-144487343D01*
X119391500Y-141124496D01*
X120256146Y-141124496D01*
X120566443Y-141875472D01*
X121140506Y-142450538D01*
X121890939Y-142762145D01*
X122703496Y-142762854D01*
X123454472Y-142452557D01*
X124029538Y-141878494D01*
X124341145Y-141128061D01*
X124341148Y-141124496D01*
X127626146Y-141124496D01*
X127936443Y-141875472D01*
X128510506Y-142450538D01*
X129260939Y-142762145D01*
X130073496Y-142762854D01*
X130824472Y-142452557D01*
X131399538Y-141878494D01*
X131711145Y-141128061D01*
X131711151Y-141120496D01*
X131815146Y-141120496D01*
X132125443Y-141871472D01*
X132699506Y-142446538D01*
X133449939Y-142758145D01*
X134262496Y-142758854D01*
X135013472Y-142448557D01*
X135588538Y-141874494D01*
X135900145Y-141124061D01*
X135900148Y-141120496D01*
X141975146Y-141120496D01*
X142285443Y-141871472D01*
X142859506Y-142446538D01*
X143609939Y-142758145D01*
X144422496Y-142758854D01*
X145173472Y-142448557D01*
X145748538Y-141874494D01*
X146060145Y-141124061D01*
X146060854Y-140311504D01*
X145750557Y-139560528D01*
X145176494Y-138985462D01*
X144426061Y-138673855D01*
X143613504Y-138673146D01*
X142862528Y-138983443D01*
X142287462Y-139557506D01*
X141975855Y-140307939D01*
X141975146Y-141120496D01*
X135900148Y-141120496D01*
X135900854Y-140311504D01*
X135590557Y-139560528D01*
X135016494Y-138985462D01*
X134266061Y-138673855D01*
X133453504Y-138673146D01*
X132702528Y-138983443D01*
X132127462Y-139557506D01*
X131815855Y-140307939D01*
X131815146Y-141120496D01*
X131711151Y-141120496D01*
X131711854Y-140315504D01*
X131401557Y-139564528D01*
X130827494Y-138989462D01*
X130077061Y-138677855D01*
X129264504Y-138677146D01*
X128513528Y-138987443D01*
X127938462Y-139561506D01*
X127626855Y-140311939D01*
X127626146Y-141124496D01*
X124341148Y-141124496D01*
X124341854Y-140315504D01*
X124031557Y-139564528D01*
X123457494Y-138989462D01*
X122707061Y-138677855D01*
X121894504Y-138677146D01*
X121143528Y-138987443D01*
X120568462Y-139561506D01*
X120256855Y-140311939D01*
X120256146Y-141124496D01*
X119391500Y-141124496D01*
X119391500Y-132293784D01*
X122364313Y-132293784D01*
X122528311Y-132690689D01*
X122831714Y-132994622D01*
X123228332Y-133159313D01*
X123657784Y-133159687D01*
X124054689Y-132995689D01*
X124358622Y-132692286D01*
X124523313Y-132295668D01*
X124523314Y-132293784D01*
X124904313Y-132293784D01*
X125068311Y-132690689D01*
X125371714Y-132994622D01*
X125768332Y-133159313D01*
X126197784Y-133159687D01*
X126594689Y-132995689D01*
X126898622Y-132692286D01*
X127063313Y-132295668D01*
X127063314Y-132293784D01*
X127444313Y-132293784D01*
X127608311Y-132690689D01*
X127911714Y-132994622D01*
X128308332Y-133159313D01*
X128737784Y-133159687D01*
X129134689Y-132995689D01*
X129438622Y-132692286D01*
X129603313Y-132295668D01*
X129603687Y-131866216D01*
X129439689Y-131469311D01*
X129136286Y-131165378D01*
X128739668Y-131000687D01*
X128310216Y-131000313D01*
X127913311Y-131164311D01*
X127609378Y-131467714D01*
X127444687Y-131864332D01*
X127444313Y-132293784D01*
X127063314Y-132293784D01*
X127063687Y-131866216D01*
X126899689Y-131469311D01*
X126596286Y-131165378D01*
X126199668Y-131000687D01*
X125770216Y-131000313D01*
X125373311Y-131164311D01*
X125069378Y-131467714D01*
X124904687Y-131864332D01*
X124904313Y-132293784D01*
X124523314Y-132293784D01*
X124523687Y-131866216D01*
X124359689Y-131469311D01*
X124056286Y-131165378D01*
X123659668Y-131000687D01*
X123230216Y-131000313D01*
X122833311Y-131164311D01*
X122529378Y-131467714D01*
X122364687Y-131864332D01*
X122364313Y-132293784D01*
X119391500Y-132293784D01*
X119391500Y-129383722D01*
X119476271Y-129468494D01*
X119686321Y-129555500D01*
X120316625Y-129555500D01*
X120459500Y-129412625D01*
X120459500Y-128174500D01*
X120840500Y-128174500D01*
X120840500Y-129412625D01*
X120983375Y-129555500D01*
X121613679Y-129555500D01*
X121823729Y-129468494D01*
X121984494Y-129307728D01*
X122071500Y-129097678D01*
X122071500Y-128317375D01*
X121928625Y-128174500D01*
X120840500Y-128174500D01*
X120459500Y-128174500D01*
X120439500Y-128174500D01*
X120439500Y-127793500D01*
X120459500Y-127793500D01*
X120459500Y-126555375D01*
X120840500Y-126555375D01*
X120840500Y-127793500D01*
X121928625Y-127793500D01*
X122071500Y-127650625D01*
X122071500Y-126870322D01*
X121984494Y-126660272D01*
X121823729Y-126499506D01*
X121613679Y-126412500D01*
X120983375Y-126412500D01*
X120840500Y-126555375D01*
X120459500Y-126555375D01*
X120316625Y-126412500D01*
X119686321Y-126412500D01*
X119476271Y-126499506D01*
X119391500Y-126584278D01*
X119391500Y-122984000D01*
X119476280Y-122984000D01*
X119476280Y-124984000D01*
X119498419Y-125101658D01*
X119567955Y-125209721D01*
X119674055Y-125282215D01*
X119800000Y-125307720D01*
X121500000Y-125307720D01*
X121617658Y-125285581D01*
X121725721Y-125216045D01*
X121798215Y-125109945D01*
X121823720Y-124984000D01*
X121823720Y-122984000D01*
X121801581Y-122866342D01*
X121732045Y-122758279D01*
X121625945Y-122685785D01*
X121500000Y-122660280D01*
X121092500Y-122660280D01*
X121092500Y-121911720D01*
X121100000Y-121911720D01*
X121217658Y-121889581D01*
X121325721Y-121820045D01*
X121398215Y-121713945D01*
X121423720Y-121588000D01*
X121423720Y-120388000D01*
X121401581Y-120270342D01*
X121332045Y-120162279D01*
X121225945Y-120089785D01*
X121100000Y-120064280D01*
X120200000Y-120064280D01*
X120082342Y-120086419D01*
X119974279Y-120155955D01*
X119901785Y-120262055D01*
X119876280Y-120388000D01*
X119876280Y-121588000D01*
X119898419Y-121705658D01*
X119967955Y-121813721D01*
X120074055Y-121886215D01*
X120200000Y-121911720D01*
X120207500Y-121911720D01*
X120207500Y-122660280D01*
X119800000Y-122660280D01*
X119682342Y-122682419D01*
X119574279Y-122751955D01*
X119501785Y-122858055D01*
X119476280Y-122984000D01*
X119391500Y-122984000D01*
X119391500Y-107556703D01*
X144808704Y-107556703D01*
X145104759Y-107957914D01*
X146257978Y-108407706D01*
X147495540Y-108381944D01*
X148519241Y-107957914D01*
X148815296Y-107556703D01*
X146812000Y-105553408D01*
X144808704Y-107556703D01*
X119391500Y-107556703D01*
X119391500Y-104729978D01*
X143688294Y-104729978D01*
X143714056Y-105967540D01*
X144138086Y-106991241D01*
X144539297Y-107287296D01*
X146542592Y-105284000D01*
X147081408Y-105284000D01*
X149084703Y-107287296D01*
X149485914Y-106991241D01*
X149935706Y-105838022D01*
X149909944Y-104600460D01*
X149485914Y-103576759D01*
X149084703Y-103280704D01*
X147081408Y-105284000D01*
X146542592Y-105284000D01*
X144539297Y-103280704D01*
X144138086Y-103576759D01*
X143688294Y-104729978D01*
X119391500Y-104729978D01*
X119391500Y-103011297D01*
X144808704Y-103011297D01*
X146812000Y-105014592D01*
X148815296Y-103011297D01*
X148519241Y-102610086D01*
X147366022Y-102160294D01*
X146128460Y-102186056D01*
X145104759Y-102610086D01*
X144808704Y-103011297D01*
X119391500Y-103011297D01*
X119391500Y-97241388D01*
X127700314Y-97241388D01*
X127864008Y-97637557D01*
X128166849Y-97940927D01*
X128562732Y-98105312D01*
X128991388Y-98105686D01*
X129387557Y-97941992D01*
X129690927Y-97639151D01*
X129855312Y-97243268D01*
X129855313Y-97241388D01*
X130240314Y-97241388D01*
X130404008Y-97637557D01*
X130706849Y-97940927D01*
X131102732Y-98105312D01*
X131531388Y-98105686D01*
X131760530Y-98011006D01*
X133144402Y-98011006D01*
X133222044Y-98227416D01*
X133729451Y-98379486D01*
X134256428Y-98325804D01*
X134493956Y-98227416D01*
X134571598Y-98011006D01*
X133858000Y-97297408D01*
X133144402Y-98011006D01*
X131760530Y-98011006D01*
X131927557Y-97941992D01*
X132230927Y-97639151D01*
X132395312Y-97243268D01*
X132395611Y-96899451D01*
X132506514Y-96899451D01*
X132560196Y-97426428D01*
X132658584Y-97663956D01*
X132874994Y-97741598D01*
X133588592Y-97028000D01*
X134127408Y-97028000D01*
X134841006Y-97741598D01*
X135057416Y-97663956D01*
X135209486Y-97156549D01*
X135155804Y-96629572D01*
X135057416Y-96392044D01*
X134841006Y-96314402D01*
X134127408Y-97028000D01*
X133588592Y-97028000D01*
X132874994Y-96314402D01*
X132658584Y-96392044D01*
X132506514Y-96899451D01*
X132395611Y-96899451D01*
X132395686Y-96814612D01*
X132231992Y-96418443D01*
X131929151Y-96115073D01*
X131760383Y-96044994D01*
X133144402Y-96044994D01*
X133858000Y-96758592D01*
X134571598Y-96044994D01*
X134493956Y-95828584D01*
X133986549Y-95676514D01*
X133459572Y-95730196D01*
X133222044Y-95828584D01*
X133144402Y-96044994D01*
X131760383Y-96044994D01*
X131533268Y-95950688D01*
X131104612Y-95950314D01*
X130708443Y-96114008D01*
X130405073Y-96416849D01*
X130240688Y-96812732D01*
X130240314Y-97241388D01*
X129855313Y-97241388D01*
X129855686Y-96814612D01*
X129691992Y-96418443D01*
X129389151Y-96115073D01*
X128993268Y-95950688D01*
X128564612Y-95950314D01*
X128168443Y-96114008D01*
X127865073Y-96416849D01*
X127700688Y-96812732D01*
X127700314Y-97241388D01*
X119391500Y-97241388D01*
X119391500Y-93384000D01*
X135427480Y-93384000D01*
X135427480Y-95084000D01*
X135449619Y-95201658D01*
X135519155Y-95309721D01*
X135625255Y-95382215D01*
X135751200Y-95407720D01*
X137451200Y-95407720D01*
X137568858Y-95385581D01*
X137676921Y-95316045D01*
X137749415Y-95209945D01*
X137774920Y-95084000D01*
X137774920Y-93384000D01*
X137752781Y-93266342D01*
X137683245Y-93158279D01*
X137577145Y-93085785D01*
X137451200Y-93060280D01*
X135751200Y-93060280D01*
X135633542Y-93082419D01*
X135525479Y-93151955D01*
X135452985Y-93258055D01*
X135427480Y-93384000D01*
X119391500Y-93384000D01*
X119391500Y-91585988D01*
X119430203Y-91186922D01*
X119590902Y-90885191D01*
X119854833Y-90667927D01*
X120200523Y-90562500D01*
X135473760Y-90562500D01*
X135402185Y-90667255D01*
X135402185Y-90667255D01*
G37*
X135402185Y-90667255D02*
X135376680Y-90793200D01*
X135376680Y-92493200D01*
X135398819Y-92610858D01*
X135468355Y-92718921D01*
X135574455Y-92791415D01*
X135700400Y-92816920D01*
X137400400Y-92816920D01*
X137518058Y-92794781D01*
X137626121Y-92725245D01*
X137698615Y-92619145D01*
X137724120Y-92493200D01*
X137724120Y-90793200D01*
X137701981Y-90675542D01*
X137632445Y-90567479D01*
X137625158Y-90562500D01*
X138612485Y-90562500D01*
X138264853Y-90794780D01*
X138011771Y-91173544D01*
X137922900Y-91620327D01*
X137922900Y-91666073D01*
X138011771Y-92112856D01*
X138264853Y-92491620D01*
X138643617Y-92744702D01*
X139090400Y-92833573D01*
X139537183Y-92744702D01*
X139554525Y-92733115D01*
X140019500Y-93198090D01*
X140019500Y-93464530D01*
X139966747Y-93385580D01*
X139587983Y-93132498D01*
X139141200Y-93043627D01*
X138694417Y-93132498D01*
X138315653Y-93385580D01*
X138062571Y-93764344D01*
X137973700Y-94211127D01*
X137973700Y-94256873D01*
X138062571Y-94703656D01*
X138315653Y-95082420D01*
X138493500Y-95201254D01*
X138493500Y-95370682D01*
X137351097Y-96513085D01*
X137311992Y-96418443D01*
X137009151Y-96115073D01*
X136613268Y-95950688D01*
X136184612Y-95950314D01*
X135788443Y-96114008D01*
X135485073Y-96416849D01*
X135320688Y-96812732D01*
X135320314Y-97241388D01*
X135484008Y-97637557D01*
X135786849Y-97940927D01*
X136182732Y-98105312D01*
X136611388Y-98105686D01*
X137007557Y-97941992D01*
X137310927Y-97639151D01*
X137380127Y-97472500D01*
X137464800Y-97472500D01*
X137634903Y-97438664D01*
X137779109Y-97342309D01*
X137866079Y-97255339D01*
X138024008Y-97637557D01*
X138326849Y-97940927D01*
X138722732Y-98105312D01*
X139151388Y-98105686D01*
X139547557Y-97941992D01*
X139850927Y-97639151D01*
X140015312Y-97243268D01*
X140015313Y-97241388D01*
X140400314Y-97241388D01*
X140564008Y-97637557D01*
X140866849Y-97940927D01*
X141262732Y-98105312D01*
X141691388Y-98105686D01*
X142087557Y-97941992D01*
X142390927Y-97639151D01*
X142555312Y-97243268D01*
X142555313Y-97241388D01*
X142940314Y-97241388D01*
X143104008Y-97637557D01*
X143406849Y-97940927D01*
X143802732Y-98105312D01*
X144231388Y-98105686D01*
X144627557Y-97941992D01*
X144930927Y-97639151D01*
X145095312Y-97243268D01*
X145095313Y-97241388D01*
X145480314Y-97241388D01*
X145644008Y-97637557D01*
X145946849Y-97940927D01*
X146342732Y-98105312D01*
X146771388Y-98105686D01*
X147167557Y-97941992D01*
X147470927Y-97639151D01*
X147635312Y-97243268D01*
X147635313Y-97241388D01*
X148020314Y-97241388D01*
X148184008Y-97637557D01*
X148486849Y-97940927D01*
X148882732Y-98105312D01*
X149311388Y-98105686D01*
X149540530Y-98011006D01*
X150924402Y-98011006D01*
X151002044Y-98227416D01*
X151509451Y-98379486D01*
X152036428Y-98325804D01*
X152273956Y-98227416D01*
X152351598Y-98011006D01*
X151638000Y-97297408D01*
X150924402Y-98011006D01*
X149540530Y-98011006D01*
X149707557Y-97941992D01*
X150010927Y-97639151D01*
X150175312Y-97243268D01*
X150175611Y-96899451D01*
X150286514Y-96899451D01*
X150340196Y-97426428D01*
X150438584Y-97663956D01*
X150654994Y-97741598D01*
X151368592Y-97028000D01*
X151907408Y-97028000D01*
X152621006Y-97741598D01*
X152837416Y-97663956D01*
X152964059Y-97241388D01*
X153100314Y-97241388D01*
X153264008Y-97637557D01*
X153566849Y-97940927D01*
X153962732Y-98105312D01*
X154391388Y-98105686D01*
X154787557Y-97941992D01*
X155090927Y-97639151D01*
X155255312Y-97243268D01*
X155255313Y-97241388D01*
X155640314Y-97241388D01*
X155804008Y-97637557D01*
X156106849Y-97940927D01*
X156502732Y-98105312D01*
X156931388Y-98105686D01*
X157327557Y-97941992D01*
X157630927Y-97639151D01*
X157795312Y-97243268D01*
X157795313Y-97241388D01*
X158180314Y-97241388D01*
X158344008Y-97637557D01*
X158646849Y-97940927D01*
X159042732Y-98105312D01*
X159471388Y-98105686D01*
X159867557Y-97941992D01*
X160170927Y-97639151D01*
X160335312Y-97243268D01*
X160335313Y-97241388D01*
X160720314Y-97241388D01*
X160884008Y-97637557D01*
X161186849Y-97940927D01*
X161582732Y-98105312D01*
X162011388Y-98105686D01*
X162240530Y-98011006D01*
X163624402Y-98011006D01*
X163702044Y-98227416D01*
X164209451Y-98379486D01*
X164736428Y-98325804D01*
X164973956Y-98227416D01*
X165051598Y-98011006D01*
X164338000Y-97297408D01*
X163624402Y-98011006D01*
X162240530Y-98011006D01*
X162407557Y-97941992D01*
X162710927Y-97639151D01*
X162875312Y-97243268D01*
X162875686Y-96814612D01*
X162711992Y-96418443D01*
X162409151Y-96115073D01*
X162013268Y-95950688D01*
X161584612Y-95950314D01*
X161188443Y-96114008D01*
X160885073Y-96416849D01*
X160720688Y-96812732D01*
X160720314Y-97241388D01*
X160335313Y-97241388D01*
X160335686Y-96814612D01*
X160171992Y-96418443D01*
X159869151Y-96115073D01*
X159473268Y-95950688D01*
X159044612Y-95950314D01*
X158648443Y-96114008D01*
X158345073Y-96416849D01*
X158180688Y-96812732D01*
X158180314Y-97241388D01*
X157795313Y-97241388D01*
X157795686Y-96814612D01*
X157631992Y-96418443D01*
X157329151Y-96115073D01*
X156933268Y-95950688D01*
X156504612Y-95950314D01*
X156108443Y-96114008D01*
X155805073Y-96416849D01*
X155640688Y-96812732D01*
X155640314Y-97241388D01*
X155255313Y-97241388D01*
X155255686Y-96814612D01*
X155091992Y-96418443D01*
X154789151Y-96115073D01*
X154393268Y-95950688D01*
X153964612Y-95950314D01*
X153568443Y-96114008D01*
X153265073Y-96416849D01*
X153100688Y-96812732D01*
X153100314Y-97241388D01*
X152964059Y-97241388D01*
X152989486Y-97156549D01*
X152935804Y-96629572D01*
X152837416Y-96392044D01*
X152621006Y-96314402D01*
X151907408Y-97028000D01*
X151368592Y-97028000D01*
X150654994Y-96314402D01*
X150438584Y-96392044D01*
X150286514Y-96899451D01*
X150175611Y-96899451D01*
X150175686Y-96814612D01*
X150011992Y-96418443D01*
X149709151Y-96115073D01*
X149540383Y-96044994D01*
X150924402Y-96044994D01*
X151638000Y-96758592D01*
X152351598Y-96044994D01*
X152273956Y-95828584D01*
X151766549Y-95676514D01*
X151239572Y-95730196D01*
X151002044Y-95828584D01*
X150924402Y-96044994D01*
X149540383Y-96044994D01*
X149313268Y-95950688D01*
X148884612Y-95950314D01*
X148488443Y-96114008D01*
X148185073Y-96416849D01*
X148020688Y-96812732D01*
X148020314Y-97241388D01*
X147635313Y-97241388D01*
X147635686Y-96814612D01*
X147471992Y-96418443D01*
X147169151Y-96115073D01*
X146773268Y-95950688D01*
X146344612Y-95950314D01*
X145948443Y-96114008D01*
X145645073Y-96416849D01*
X145480688Y-96812732D01*
X145480314Y-97241388D01*
X145095313Y-97241388D01*
X145095686Y-96814612D01*
X144931992Y-96418443D01*
X144629151Y-96115073D01*
X144233268Y-95950688D01*
X143804612Y-95950314D01*
X143408443Y-96114008D01*
X143105073Y-96416849D01*
X142940688Y-96812732D01*
X142940314Y-97241388D01*
X142555313Y-97241388D01*
X142555686Y-96814612D01*
X142391992Y-96418443D01*
X142089151Y-96115073D01*
X141693268Y-95950688D01*
X141264612Y-95950314D01*
X140868443Y-96114008D01*
X140565073Y-96416849D01*
X140400688Y-96812732D01*
X140400314Y-97241388D01*
X140015313Y-97241388D01*
X140015686Y-96814612D01*
X139945950Y-96645839D01*
X140774892Y-95816897D01*
X140774895Y-95816895D01*
X140870817Y-95673337D01*
X140904500Y-95504000D01*
X140904500Y-95115059D01*
X141234417Y-95335502D01*
X141681200Y-95424373D01*
X142127983Y-95335502D01*
X142506747Y-95082420D01*
X142759829Y-94703656D01*
X142848700Y-94256873D01*
X142848700Y-94211127D01*
X142762287Y-93776702D01*
X142774889Y-93764100D01*
X153259155Y-93764100D01*
X153100688Y-94145732D01*
X153100314Y-94574388D01*
X153264008Y-94970557D01*
X153566849Y-95273927D01*
X153962732Y-95438312D01*
X154391388Y-95438686D01*
X154787557Y-95274992D01*
X155090927Y-94972151D01*
X155255312Y-94576268D01*
X155255686Y-94147612D01*
X155097222Y-93764100D01*
X155799155Y-93764100D01*
X155640688Y-94145732D01*
X155640314Y-94574388D01*
X155804008Y-94970557D01*
X156106849Y-95273927D01*
X156502732Y-95438312D01*
X156931388Y-95438686D01*
X157327557Y-95274992D01*
X157630927Y-94972151D01*
X157795312Y-94576268D01*
X157795686Y-94147612D01*
X157637222Y-93764100D01*
X158339155Y-93764100D01*
X158180688Y-94145732D01*
X158180314Y-94574388D01*
X158344008Y-94970557D01*
X158646849Y-95273927D01*
X159042732Y-95438312D01*
X159471388Y-95438686D01*
X159867557Y-95274992D01*
X160170927Y-94972151D01*
X160335312Y-94576268D01*
X160335686Y-94147612D01*
X160177222Y-93764100D01*
X160597882Y-93764100D01*
X160796629Y-93962847D01*
X160720688Y-94145732D01*
X160720314Y-94574388D01*
X160884008Y-94970557D01*
X161186849Y-95273927D01*
X161582732Y-95438312D01*
X162011388Y-95438686D01*
X162178159Y-95369777D01*
X163071191Y-96262809D01*
X163215397Y-96359164D01*
X163224939Y-96361062D01*
X163138584Y-96392044D01*
X162986514Y-96899451D01*
X163040196Y-97426428D01*
X163138584Y-97663956D01*
X163354994Y-97741598D01*
X164068592Y-97028000D01*
X164054450Y-97013858D01*
X164323858Y-96744450D01*
X164338000Y-96758592D01*
X164352142Y-96744450D01*
X164621550Y-97013858D01*
X164607408Y-97028000D01*
X165321006Y-97741598D01*
X165537416Y-97663956D01*
X165689486Y-97156549D01*
X165635804Y-96629572D01*
X165537812Y-96393000D01*
X165988964Y-96393000D01*
X165965073Y-96416849D01*
X165800688Y-96812732D01*
X165800314Y-97241388D01*
X165964008Y-97637557D01*
X166266849Y-97940927D01*
X166662732Y-98105312D01*
X167091388Y-98105686D01*
X167487557Y-97941992D01*
X167513000Y-97916593D01*
X167513000Y-98678964D01*
X167489151Y-98655073D01*
X167093268Y-98490688D01*
X166664612Y-98490314D01*
X166268443Y-98654008D01*
X165965073Y-98956849D01*
X165800688Y-99352732D01*
X165800314Y-99781388D01*
X165964008Y-100177557D01*
X166266849Y-100480927D01*
X166662732Y-100645312D01*
X167091388Y-100645686D01*
X167487557Y-100481992D01*
X167515000Y-100454597D01*
X167515000Y-100799900D01*
X167548683Y-100969238D01*
X167644605Y-101112795D01*
X168089105Y-101557295D01*
X168232662Y-101653217D01*
X168402000Y-101686900D01*
X168834646Y-101686900D01*
X169221336Y-102073589D01*
X169221336Y-103546378D01*
X169255019Y-103715716D01*
X169350941Y-103859273D01*
X170910305Y-105418637D01*
X171053862Y-105514559D01*
X171223200Y-105548243D01*
X171223205Y-105548242D01*
X173452910Y-105548242D01*
X173953900Y-106049232D01*
X173953900Y-113124280D01*
X172844000Y-113124280D01*
X172726342Y-113146419D01*
X172618279Y-113215955D01*
X172545785Y-113322055D01*
X172520280Y-113448000D01*
X172520280Y-113748000D01*
X172539787Y-113851672D01*
X172520280Y-113948000D01*
X172520280Y-114248000D01*
X172539787Y-114351672D01*
X172520280Y-114448000D01*
X172520280Y-114748000D01*
X172539787Y-114851672D01*
X172520280Y-114948000D01*
X172520280Y-114963503D01*
X172520272Y-114963506D01*
X172359506Y-115124271D01*
X172272500Y-115334321D01*
X172272500Y-115380125D01*
X172415375Y-115523000D01*
X172684078Y-115523000D01*
X172718055Y-115546215D01*
X172844000Y-115571720D01*
X174344000Y-115571720D01*
X174461658Y-115549581D01*
X174472662Y-115542500D01*
X174716000Y-115542500D01*
X174886103Y-115508664D01*
X175030309Y-115412309D01*
X175955309Y-114487309D01*
X176051665Y-114343102D01*
X176085500Y-114173000D01*
X176085500Y-105489732D01*
X176051664Y-105319629D01*
X175955309Y-105175423D01*
X174425233Y-103645347D01*
X174322583Y-103576759D01*
X174281027Y-103548992D01*
X174110924Y-103515156D01*
X171882042Y-103515156D01*
X171255748Y-102888862D01*
X171259500Y-102870000D01*
X171259500Y-100393425D01*
X171346849Y-100480927D01*
X171742732Y-100645312D01*
X172171388Y-100645686D01*
X172531500Y-100496890D01*
X172531500Y-101153588D01*
X172462457Y-101182116D01*
X172302677Y-101341617D01*
X172216099Y-101550122D01*
X172215902Y-101775887D01*
X172302116Y-101984543D01*
X172461617Y-102144323D01*
X172660452Y-102226886D01*
X172660402Y-102283887D01*
X172746616Y-102492543D01*
X172906117Y-102652323D01*
X173104952Y-102734886D01*
X173104902Y-102791887D01*
X173191116Y-103000543D01*
X173350617Y-103160323D01*
X173559122Y-103246901D01*
X173784887Y-103247098D01*
X173993543Y-103160884D01*
X174032495Y-103122000D01*
X175133000Y-103122000D01*
X175302338Y-103088317D01*
X175445895Y-102992395D01*
X175890395Y-102547895D01*
X175986317Y-102404338D01*
X176020000Y-102235000D01*
X176020000Y-100269043D01*
X176054994Y-100281598D01*
X176768592Y-99568000D01*
X176054994Y-98854402D01*
X176020000Y-98866957D01*
X176020000Y-97385839D01*
X176124008Y-97637557D01*
X176426849Y-97940927D01*
X176822732Y-98105312D01*
X177251388Y-98105686D01*
X177611500Y-97956890D01*
X177611500Y-98349866D01*
X177166549Y-98216514D01*
X176639572Y-98270196D01*
X176402044Y-98368584D01*
X176324402Y-98584994D01*
X177038000Y-99298592D01*
X177052142Y-99284450D01*
X177321550Y-99553858D01*
X177307408Y-99568000D01*
X177321550Y-99582142D01*
X177052142Y-99851550D01*
X177038000Y-99837408D01*
X176324402Y-100551006D01*
X176402044Y-100767416D01*
X176909451Y-100919486D01*
X177436428Y-100865804D01*
X177611500Y-100793286D01*
X177611500Y-102964212D01*
X177608578Y-102962999D01*
X177382813Y-102962802D01*
X177174157Y-103049016D01*
X177014377Y-103208517D01*
X176927799Y-103417022D01*
X176927602Y-103642787D01*
X177013816Y-103851443D01*
X177052700Y-103890395D01*
X177052700Y-109443110D01*
X176725761Y-109770049D01*
X176671613Y-109770002D01*
X176462957Y-109856216D01*
X176303177Y-110015717D01*
X176216599Y-110224222D01*
X176216402Y-110449987D01*
X176302616Y-110658643D01*
X176462117Y-110818423D01*
X176670622Y-110905001D01*
X176896387Y-110905198D01*
X177105043Y-110818984D01*
X177264823Y-110659483D01*
X177351401Y-110450978D01*
X177351449Y-110395941D01*
X177611500Y-110135890D01*
X177611500Y-116148711D01*
X177104710Y-116655500D01*
X175675592Y-116655500D01*
X175740823Y-116590383D01*
X175827401Y-116381878D01*
X175827598Y-116156113D01*
X175741384Y-115947457D01*
X175581883Y-115787677D01*
X175373378Y-115701099D01*
X175147613Y-115700902D01*
X174938957Y-115787116D01*
X174912826Y-115813201D01*
X174772625Y-115673000D01*
X174503922Y-115673000D01*
X174469945Y-115649785D01*
X174344000Y-115624280D01*
X172844000Y-115624280D01*
X172726342Y-115646419D01*
X172715338Y-115653500D01*
X172509500Y-115653500D01*
X172339397Y-115687336D01*
X172248607Y-115748000D01*
X172195191Y-115783691D01*
X171834191Y-116144691D01*
X171737836Y-116288897D01*
X171704000Y-116459000D01*
X171704000Y-120205500D01*
X171737836Y-120375603D01*
X171816502Y-120493336D01*
X171834191Y-120519809D01*
X172111538Y-120797156D01*
X169809946Y-120797156D01*
X169586500Y-120573710D01*
X169586500Y-112721720D01*
X169794000Y-112721720D01*
X169897672Y-112702213D01*
X169994000Y-112721720D01*
X170294000Y-112721720D01*
X170397672Y-112702213D01*
X170494000Y-112721720D01*
X170794000Y-112721720D01*
X170897672Y-112702213D01*
X170994000Y-112721720D01*
X171294000Y-112721720D01*
X171397672Y-112702213D01*
X171494000Y-112721720D01*
X171794000Y-112721720D01*
X171911658Y-112699581D01*
X172019721Y-112630045D01*
X172092215Y-112523945D01*
X172117720Y-112398000D01*
X172117720Y-110898000D01*
X172095581Y-110780342D01*
X172026045Y-110672279D01*
X171919945Y-110599785D01*
X171794000Y-110574280D01*
X171494000Y-110574280D01*
X171390328Y-110593787D01*
X171294000Y-110574280D01*
X171153363Y-110574280D01*
X171204209Y-110498183D01*
X171223817Y-110468838D01*
X171246918Y-110352702D01*
X171295823Y-110303883D01*
X171382401Y-110095378D01*
X171382598Y-109869613D01*
X171296384Y-109660957D01*
X171196502Y-109560900D01*
X172918661Y-109560900D01*
X172956917Y-109599223D01*
X173165422Y-109685801D01*
X173391187Y-109685998D01*
X173599843Y-109599784D01*
X173759623Y-109440283D01*
X173846201Y-109231778D01*
X173846398Y-109006013D01*
X173760184Y-108797357D01*
X173600683Y-108637577D01*
X173392178Y-108550999D01*
X173166413Y-108550802D01*
X172957757Y-108637016D01*
X172918805Y-108675900D01*
X168541435Y-108675900D01*
X168362978Y-108601799D01*
X168137213Y-108601602D01*
X168088500Y-108621730D01*
X168088500Y-107446000D01*
X168074439Y-107375309D01*
X168054665Y-107275898D01*
X167958309Y-107131691D01*
X167192309Y-106365691D01*
X167092498Y-106299000D01*
X167048103Y-106269336D01*
X166878000Y-106235500D01*
X157562643Y-106235500D01*
X157553581Y-106187342D01*
X157484045Y-106079279D01*
X157377945Y-106006785D01*
X157252000Y-105981280D01*
X157149913Y-105981280D01*
X157162500Y-105918000D01*
X157149913Y-105854720D01*
X157252000Y-105854720D01*
X157369658Y-105832581D01*
X157477721Y-105763045D01*
X157550215Y-105656945D01*
X157575720Y-105531000D01*
X157575720Y-104781000D01*
X157553581Y-104663342D01*
X157484045Y-104555279D01*
X157377945Y-104482785D01*
X157252000Y-104457280D01*
X157096500Y-104457280D01*
X157096500Y-104330720D01*
X157252000Y-104330720D01*
X157369658Y-104308581D01*
X157477721Y-104239045D01*
X157550215Y-104132945D01*
X157575720Y-104007000D01*
X157575720Y-103257000D01*
X157553581Y-103139342D01*
X157484045Y-103031279D01*
X157377945Y-102958785D01*
X157252000Y-102933280D01*
X157096500Y-102933280D01*
X157096500Y-102806720D01*
X157252000Y-102806720D01*
X157369658Y-102784581D01*
X157477721Y-102715045D01*
X157550215Y-102608945D01*
X157575720Y-102483000D01*
X157575720Y-101733000D01*
X157553581Y-101615342D01*
X157484045Y-101507279D01*
X157377945Y-101434785D01*
X157252000Y-101409280D01*
X156052000Y-101409280D01*
X155934342Y-101431419D01*
X155864329Y-101476471D01*
X155836494Y-101409271D01*
X155675728Y-101248506D01*
X155465678Y-101161500D01*
X155085375Y-101161500D01*
X154942500Y-101304375D01*
X154942500Y-101920500D01*
X154962500Y-101920500D01*
X154962500Y-102295500D01*
X154942500Y-102295500D01*
X154942500Y-103444500D01*
X154962500Y-103444500D01*
X154962500Y-103819500D01*
X154942500Y-103819500D01*
X154942500Y-104968500D01*
X154962500Y-104968500D01*
X154962500Y-105343500D01*
X154942500Y-105343500D01*
X154942500Y-106492500D01*
X154962500Y-106492500D01*
X154962500Y-106867500D01*
X154942500Y-106867500D01*
X154942500Y-107483625D01*
X155085375Y-107626500D01*
X155465678Y-107626500D01*
X155675728Y-107539494D01*
X155836494Y-107378729D01*
X155864487Y-107311148D01*
X155926055Y-107353215D01*
X156052000Y-107378720D01*
X157252000Y-107378720D01*
X157369658Y-107356581D01*
X157477721Y-107287045D01*
X157550215Y-107180945D01*
X157561646Y-107124500D01*
X166693882Y-107124500D01*
X167199500Y-107630118D01*
X167199500Y-108603843D01*
X167194578Y-108601799D01*
X166968813Y-108601602D01*
X166760157Y-108687816D01*
X166721205Y-108726700D01*
X166014405Y-108726700D01*
X166014400Y-108726699D01*
X165845062Y-108760383D01*
X165701505Y-108856305D01*
X165331105Y-109226705D01*
X165235183Y-109370262D01*
X165212938Y-109482095D01*
X165201500Y-109539600D01*
X165201500Y-110029211D01*
X164714395Y-109542105D01*
X164570838Y-109446183D01*
X164401500Y-109412500D01*
X159364139Y-109412500D01*
X159325883Y-109374177D01*
X159117378Y-109287599D01*
X158891613Y-109287402D01*
X158748000Y-109346741D01*
X158748000Y-108691139D01*
X158786323Y-108652883D01*
X158872901Y-108444378D01*
X158873098Y-108218613D01*
X158786884Y-108009957D01*
X158627383Y-107850177D01*
X158418878Y-107763599D01*
X158193113Y-107763402D01*
X157984457Y-107849616D01*
X157824677Y-108009117D01*
X157738099Y-108217622D01*
X157737902Y-108443387D01*
X157824116Y-108652043D01*
X157863000Y-108690995D01*
X157863000Y-109982000D01*
X157896683Y-110151338D01*
X157992605Y-110294895D01*
X158373603Y-110675892D01*
X158373605Y-110675895D01*
X158517163Y-110771817D01*
X158686500Y-110805500D01*
X163422500Y-110805500D01*
X163422500Y-111314625D01*
X163565375Y-111457500D01*
X164069000Y-111457500D01*
X164069000Y-111437500D01*
X164170280Y-111437500D01*
X164170280Y-112398000D01*
X164192419Y-112515658D01*
X164219000Y-112556966D01*
X164219000Y-112826625D01*
X164361875Y-112969500D01*
X164407679Y-112969500D01*
X164617729Y-112882494D01*
X164778494Y-112721728D01*
X164778497Y-112721720D01*
X164794000Y-112721720D01*
X164897672Y-112702213D01*
X164994000Y-112721720D01*
X165294000Y-112721720D01*
X165397672Y-112702213D01*
X165494000Y-112721720D01*
X165794000Y-112721720D01*
X165897672Y-112702213D01*
X165994000Y-112721720D01*
X166009503Y-112721720D01*
X166009506Y-112721728D01*
X166170271Y-112882494D01*
X166380321Y-112969500D01*
X166426125Y-112969500D01*
X166569000Y-112826625D01*
X166569000Y-112557922D01*
X166592215Y-112523945D01*
X166617720Y-112398000D01*
X166617720Y-110898000D01*
X166595581Y-110780342D01*
X166586500Y-110766230D01*
X166586500Y-110123577D01*
X166660323Y-110049883D01*
X166746901Y-109841378D01*
X166747079Y-109637763D01*
X166759317Y-109650023D01*
X166967822Y-109736601D01*
X167193587Y-109736798D01*
X167199500Y-109734355D01*
X167199500Y-110495278D01*
X167117729Y-110413506D01*
X166907679Y-110326500D01*
X166861875Y-110326500D01*
X166719000Y-110469375D01*
X166719000Y-110738078D01*
X166695785Y-110772055D01*
X166670280Y-110898000D01*
X166670280Y-112398000D01*
X166692419Y-112515658D01*
X166699500Y-112526662D01*
X166699500Y-120517382D01*
X166655750Y-120561132D01*
X163766500Y-117671882D01*
X163766500Y-115824000D01*
X163732664Y-115653897D01*
X163636309Y-115509691D01*
X163627786Y-115503996D01*
X163380895Y-115257105D01*
X163267720Y-115181484D01*
X163267720Y-114948000D01*
X163248213Y-114844328D01*
X163267720Y-114748000D01*
X163267720Y-114448000D01*
X163248213Y-114344328D01*
X163267720Y-114248000D01*
X163267720Y-113948000D01*
X163248213Y-113844328D01*
X163267720Y-113748000D01*
X163267720Y-113448000D01*
X163245581Y-113330342D01*
X163176045Y-113222279D01*
X163069945Y-113149785D01*
X162944000Y-113124280D01*
X161444000Y-113124280D01*
X161326342Y-113146419D01*
X161218279Y-113215955D01*
X161145785Y-113322055D01*
X161120280Y-113448000D01*
X161120280Y-113748000D01*
X161139787Y-113851672D01*
X161120280Y-113948000D01*
X161120280Y-114248000D01*
X161139787Y-114351672D01*
X161120280Y-114448000D01*
X161120280Y-114748000D01*
X161139787Y-114851672D01*
X161120280Y-114948000D01*
X161120280Y-115153500D01*
X160754000Y-115153500D01*
X160583897Y-115187336D01*
X160439691Y-115283691D01*
X159473884Y-116249498D01*
X155295462Y-116249498D01*
X154305000Y-115259036D01*
X154305000Y-111981375D01*
X163422500Y-111981375D01*
X163422500Y-112511678D01*
X163509506Y-112721728D01*
X163670271Y-112882494D01*
X163880321Y-112969500D01*
X163926125Y-112969500D01*
X164069000Y-112826625D01*
X164069000Y-111838500D01*
X163565375Y-111838500D01*
X163422500Y-111981375D01*
X154305000Y-111981375D01*
X154305000Y-110680500D01*
X154300943Y-110660102D01*
X154271165Y-110510398D01*
X154174809Y-110366191D01*
X154013500Y-110204882D01*
X154013500Y-110058375D01*
X153870625Y-109915500D01*
X153032500Y-109915500D01*
X153032500Y-109938500D01*
X152651500Y-109938500D01*
X152651500Y-109915500D01*
X152631500Y-109915500D01*
X152631500Y-109540500D01*
X152651500Y-109540500D01*
X152651500Y-108391500D01*
X153032500Y-108391500D01*
X153032500Y-109540500D01*
X153870625Y-109540500D01*
X154013500Y-109397625D01*
X154013500Y-109239321D01*
X153926494Y-109029271D01*
X153863223Y-108966000D01*
X153926494Y-108902729D01*
X154013500Y-108692679D01*
X154013500Y-108534375D01*
X153870625Y-108391500D01*
X153032500Y-108391500D01*
X152651500Y-108391500D01*
X152631500Y-108391500D01*
X152631500Y-108016500D01*
X152651500Y-108016500D01*
X152651500Y-106867500D01*
X153032500Y-106867500D01*
X153032500Y-108016500D01*
X153870625Y-108016500D01*
X154013500Y-107873625D01*
X154013500Y-107715321D01*
X153963948Y-107595693D01*
X154038322Y-107626500D01*
X154418625Y-107626500D01*
X154561500Y-107483625D01*
X154561500Y-106867500D01*
X153032500Y-106867500D01*
X152651500Y-106867500D01*
X152631500Y-106867500D01*
X152631500Y-106492500D01*
X152651500Y-106492500D01*
X152651500Y-105343500D01*
X153032500Y-105343500D01*
X153032500Y-106492500D01*
X154561500Y-106492500D01*
X154561500Y-105343500D01*
X153032500Y-105343500D01*
X152651500Y-105343500D01*
X152631500Y-105343500D01*
X152631500Y-104968500D01*
X152651500Y-104968500D01*
X152651500Y-103819500D01*
X153032500Y-103819500D01*
X153032500Y-104968500D01*
X154561500Y-104968500D01*
X154561500Y-103819500D01*
X153032500Y-103819500D01*
X152651500Y-103819500D01*
X152631500Y-103819500D01*
X152631500Y-103444500D01*
X152651500Y-103444500D01*
X152651500Y-102295500D01*
X153032500Y-102295500D01*
X153032500Y-103444500D01*
X154561500Y-103444500D01*
X154561500Y-102295500D01*
X153032500Y-102295500D01*
X152651500Y-102295500D01*
X152631500Y-102295500D01*
X152631500Y-101920500D01*
X152651500Y-101920500D01*
X152651500Y-101304375D01*
X153032500Y-101304375D01*
X153032500Y-101920500D01*
X154561500Y-101920500D01*
X154561500Y-101304375D01*
X154418625Y-101161500D01*
X154038322Y-101161500D01*
X153828272Y-101248506D01*
X153797000Y-101279778D01*
X153765728Y-101248506D01*
X153555678Y-101161500D01*
X153175375Y-101161500D01*
X153032500Y-101304375D01*
X152651500Y-101304375D01*
X152508625Y-101161500D01*
X152128322Y-101161500D01*
X151918272Y-101248506D01*
X151757506Y-101409271D01*
X151729513Y-101476852D01*
X151667945Y-101434785D01*
X151542000Y-101409280D01*
X151385959Y-101409280D01*
X151352664Y-101241897D01*
X151256309Y-101097691D01*
X150936309Y-100777691D01*
X150927784Y-100771995D01*
X150553895Y-100398105D01*
X150410338Y-100302183D01*
X150241000Y-100268500D01*
X149921422Y-100268500D01*
X150010927Y-100179151D01*
X150175312Y-99783268D01*
X150175313Y-99781388D01*
X150560314Y-99781388D01*
X150724008Y-100177557D01*
X151026849Y-100480927D01*
X151422732Y-100645312D01*
X151851388Y-100645686D01*
X152247557Y-100481992D01*
X152550927Y-100179151D01*
X152715312Y-99783268D01*
X152715313Y-99781388D01*
X153100314Y-99781388D01*
X153264008Y-100177557D01*
X153566849Y-100480927D01*
X153962732Y-100645312D01*
X154391388Y-100645686D01*
X154787557Y-100481992D01*
X155090927Y-100179151D01*
X155255312Y-99783268D01*
X155255313Y-99781388D01*
X155640314Y-99781388D01*
X155804008Y-100177557D01*
X156106849Y-100480927D01*
X156502732Y-100645312D01*
X156931388Y-100645686D01*
X157160530Y-100551006D01*
X158544402Y-100551006D01*
X158622044Y-100767416D01*
X159129451Y-100919486D01*
X159656428Y-100865804D01*
X159893956Y-100767416D01*
X159971598Y-100551006D01*
X159258000Y-99837408D01*
X158544402Y-100551006D01*
X157160530Y-100551006D01*
X157327557Y-100481992D01*
X157630927Y-100179151D01*
X157795312Y-99783268D01*
X157795611Y-99439451D01*
X157906514Y-99439451D01*
X157960196Y-99966428D01*
X158058584Y-100203956D01*
X158274994Y-100281598D01*
X158988592Y-99568000D01*
X159527408Y-99568000D01*
X160241006Y-100281598D01*
X160457416Y-100203956D01*
X160584059Y-99781388D01*
X160720314Y-99781388D01*
X160884008Y-100177557D01*
X161186849Y-100480927D01*
X161582732Y-100645312D01*
X162011388Y-100645686D01*
X162407557Y-100481992D01*
X162710927Y-100179151D01*
X162875312Y-99783268D01*
X162875313Y-99781388D01*
X163260314Y-99781388D01*
X163424008Y-100177557D01*
X163726849Y-100480927D01*
X164122732Y-100645312D01*
X164551388Y-100645686D01*
X164947557Y-100481992D01*
X165250927Y-100179151D01*
X165415312Y-99783268D01*
X165415686Y-99354612D01*
X165251992Y-98958443D01*
X164949151Y-98655073D01*
X164553268Y-98490688D01*
X164124612Y-98490314D01*
X163728443Y-98654008D01*
X163425073Y-98956849D01*
X163260688Y-99352732D01*
X163260314Y-99781388D01*
X162875313Y-99781388D01*
X162875686Y-99354612D01*
X162711992Y-98958443D01*
X162409151Y-98655073D01*
X162013268Y-98490688D01*
X161584612Y-98490314D01*
X161188443Y-98654008D01*
X160885073Y-98956849D01*
X160720688Y-99352732D01*
X160720314Y-99781388D01*
X160584059Y-99781388D01*
X160609486Y-99696549D01*
X160555804Y-99169572D01*
X160457416Y-98932044D01*
X160241006Y-98854402D01*
X159527408Y-99568000D01*
X158988592Y-99568000D01*
X158274994Y-98854402D01*
X158058584Y-98932044D01*
X157906514Y-99439451D01*
X157795611Y-99439451D01*
X157795686Y-99354612D01*
X157631992Y-98958443D01*
X157329151Y-98655073D01*
X157160383Y-98584994D01*
X158544402Y-98584994D01*
X159258000Y-99298592D01*
X159971598Y-98584994D01*
X159893956Y-98368584D01*
X159386549Y-98216514D01*
X158859572Y-98270196D01*
X158622044Y-98368584D01*
X158544402Y-98584994D01*
X157160383Y-98584994D01*
X156933268Y-98490688D01*
X156504612Y-98490314D01*
X156108443Y-98654008D01*
X155805073Y-98956849D01*
X155640688Y-99352732D01*
X155640314Y-99781388D01*
X155255313Y-99781388D01*
X155255686Y-99354612D01*
X155091992Y-98958443D01*
X154789151Y-98655073D01*
X154393268Y-98490688D01*
X153964612Y-98490314D01*
X153568443Y-98654008D01*
X153265073Y-98956849D01*
X153100688Y-99352732D01*
X153100314Y-99781388D01*
X152715313Y-99781388D01*
X152715686Y-99354612D01*
X152551992Y-98958443D01*
X152249151Y-98655073D01*
X151853268Y-98490688D01*
X151424612Y-98490314D01*
X151028443Y-98654008D01*
X150725073Y-98956849D01*
X150560688Y-99352732D01*
X150560314Y-99781388D01*
X150175313Y-99781388D01*
X150175686Y-99354612D01*
X150011992Y-98958443D01*
X149709151Y-98655073D01*
X149313268Y-98490688D01*
X148884612Y-98490314D01*
X148488443Y-98654008D01*
X148185073Y-98956849D01*
X148020688Y-99352732D01*
X148020314Y-99781388D01*
X148184008Y-100177557D01*
X148274792Y-100268500D01*
X147381422Y-100268500D01*
X147470927Y-100179151D01*
X147635312Y-99783268D01*
X147635686Y-99354612D01*
X147471992Y-98958443D01*
X147169151Y-98655073D01*
X146773268Y-98490688D01*
X146344612Y-98490314D01*
X145948443Y-98654008D01*
X145645073Y-98956849D01*
X145480688Y-99352732D01*
X145480314Y-99781388D01*
X145644008Y-100177557D01*
X145734792Y-100268500D01*
X144841422Y-100268500D01*
X144930927Y-100179151D01*
X145095312Y-99783268D01*
X145095686Y-99354612D01*
X144931992Y-98958443D01*
X144629151Y-98655073D01*
X144233268Y-98490688D01*
X143804612Y-98490314D01*
X143408443Y-98654008D01*
X143105073Y-98956849D01*
X142940688Y-99352732D01*
X142940314Y-99781388D01*
X143104008Y-100177557D01*
X143194792Y-100268500D01*
X142301422Y-100268500D01*
X142390927Y-100179151D01*
X142555312Y-99783268D01*
X142555686Y-99354612D01*
X142391992Y-98958443D01*
X142089151Y-98655073D01*
X141693268Y-98490688D01*
X141264612Y-98490314D01*
X140868443Y-98654008D01*
X140565073Y-98956849D01*
X140400688Y-99352732D01*
X140400314Y-99781388D01*
X140564008Y-100177557D01*
X140654792Y-100268500D01*
X139957514Y-100268500D01*
X140137416Y-100203956D01*
X140289486Y-99696549D01*
X140235804Y-99169572D01*
X140137416Y-98932044D01*
X139921006Y-98854402D01*
X139207408Y-99568000D01*
X139221550Y-99582142D01*
X138952142Y-99851550D01*
X138938000Y-99837408D01*
X138923858Y-99851550D01*
X138654450Y-99582142D01*
X138668592Y-99568000D01*
X137954994Y-98854402D01*
X137738584Y-98932044D01*
X137586514Y-99439451D01*
X137640196Y-99966428D01*
X137738584Y-100203956D01*
X137918486Y-100268500D01*
X137221422Y-100268500D01*
X137310927Y-100179151D01*
X137475312Y-99783268D01*
X137475686Y-99354612D01*
X137311992Y-98958443D01*
X137009151Y-98655073D01*
X136840383Y-98584994D01*
X138224402Y-98584994D01*
X138938000Y-99298592D01*
X139651598Y-98584994D01*
X139573956Y-98368584D01*
X139066549Y-98216514D01*
X138539572Y-98270196D01*
X138302044Y-98368584D01*
X138224402Y-98584994D01*
X136840383Y-98584994D01*
X136613268Y-98490688D01*
X136184612Y-98490314D01*
X135788443Y-98654008D01*
X135485073Y-98956849D01*
X135320688Y-99352732D01*
X135320314Y-99781388D01*
X135484008Y-100177557D01*
X135574792Y-100268500D01*
X134681422Y-100268500D01*
X134770927Y-100179151D01*
X134935312Y-99783268D01*
X134935686Y-99354612D01*
X134771992Y-98958443D01*
X134469151Y-98655073D01*
X134073268Y-98490688D01*
X133644612Y-98490314D01*
X133248443Y-98654008D01*
X132945073Y-98956849D01*
X132780688Y-99352732D01*
X132780314Y-99781388D01*
X132944008Y-100177557D01*
X133034792Y-100268500D01*
X132141422Y-100268500D01*
X132230927Y-100179151D01*
X132395312Y-99783268D01*
X132395686Y-99354612D01*
X132231992Y-98958443D01*
X131929151Y-98655073D01*
X131533268Y-98490688D01*
X131104612Y-98490314D01*
X130708443Y-98654008D01*
X130405073Y-98956849D01*
X130240688Y-99352732D01*
X130240314Y-99781388D01*
X130404008Y-100177557D01*
X130494792Y-100268500D01*
X130361118Y-100268500D01*
X129855330Y-99762712D01*
X129855686Y-99354612D01*
X129691992Y-98958443D01*
X129389151Y-98655073D01*
X128993268Y-98490688D01*
X128564612Y-98490314D01*
X128168443Y-98654008D01*
X127865073Y-98956849D01*
X127700688Y-99352732D01*
X127700314Y-99781388D01*
X127864008Y-100177557D01*
X128166849Y-100480927D01*
X128562732Y-100645312D01*
X128991388Y-100645686D01*
X129337894Y-100502512D01*
X129733691Y-100898309D01*
X129742213Y-100904003D01*
X129862105Y-101023895D01*
X130005662Y-101119817D01*
X130175000Y-101153500D01*
X150057710Y-101153500D01*
X150301995Y-101397784D01*
X150307691Y-101406309D01*
X150315625Y-101414243D01*
X150224342Y-101431419D01*
X150116279Y-101500955D01*
X150043785Y-101607055D01*
X150018280Y-101733000D01*
X150018280Y-102483000D01*
X150040419Y-102600658D01*
X150109955Y-102708721D01*
X150216055Y-102781215D01*
X150342000Y-102806720D01*
X150497500Y-102806720D01*
X150497500Y-102933280D01*
X150342000Y-102933280D01*
X150224342Y-102955419D01*
X150116279Y-103024955D01*
X150043785Y-103131055D01*
X150018280Y-103257000D01*
X150018280Y-104007000D01*
X150040419Y-104124658D01*
X150109955Y-104232721D01*
X150216055Y-104305215D01*
X150342000Y-104330720D01*
X150497500Y-104330720D01*
X150497500Y-104457280D01*
X150342000Y-104457280D01*
X150224342Y-104479419D01*
X150116279Y-104548955D01*
X150043785Y-104655055D01*
X150018280Y-104781000D01*
X150018280Y-105531000D01*
X150040419Y-105648658D01*
X150109955Y-105756721D01*
X150216055Y-105829215D01*
X150342000Y-105854720D01*
X150497500Y-105854720D01*
X150497500Y-105981280D01*
X150342000Y-105981280D01*
X150224342Y-106003419D01*
X150116279Y-106072955D01*
X150043785Y-106179055D01*
X150018280Y-106305000D01*
X150018280Y-107055000D01*
X150040419Y-107172658D01*
X150109955Y-107280721D01*
X150216055Y-107353215D01*
X150342000Y-107378720D01*
X150497500Y-107378720D01*
X150497500Y-107505280D01*
X150342000Y-107505280D01*
X150224342Y-107527419D01*
X150116279Y-107596955D01*
X150043785Y-107703055D01*
X150018280Y-107829000D01*
X150018280Y-108579000D01*
X150040419Y-108696658D01*
X150109955Y-108804721D01*
X150216055Y-108877215D01*
X150342000Y-108902720D01*
X150497500Y-108902720D01*
X150497500Y-109029280D01*
X150342000Y-109029280D01*
X150224342Y-109051419D01*
X150116279Y-109120955D01*
X150043785Y-109227055D01*
X150018280Y-109353000D01*
X150018280Y-109957102D01*
X149545691Y-110429691D01*
X149449336Y-110573897D01*
X149415500Y-110744000D01*
X149415500Y-112103177D01*
X149235883Y-111668471D01*
X148432757Y-110863942D01*
X147382886Y-110427997D01*
X146246102Y-110427005D01*
X145195471Y-110861117D01*
X144390942Y-111664243D01*
X143955252Y-112713500D01*
X143001005Y-112713500D01*
X143001000Y-112713499D01*
X142818582Y-112749785D01*
X142782296Y-112757003D01*
X142678099Y-112826625D01*
X142596888Y-112880888D01*
X139295888Y-116181888D01*
X139172003Y-116367296D01*
X139166393Y-116395500D01*
X139128499Y-116586000D01*
X139128500Y-116586005D01*
X139128500Y-119611152D01*
X139099279Y-119629955D01*
X139026785Y-119736055D01*
X139001280Y-119862000D01*
X139001280Y-119890500D01*
X138181137Y-119890500D01*
X138026286Y-119735378D01*
X137629668Y-119570687D01*
X137200216Y-119570313D01*
X136803311Y-119734311D01*
X136499378Y-120037714D01*
X136334687Y-120434332D01*
X136334313Y-120863784D01*
X136498311Y-121260689D01*
X136801714Y-121564622D01*
X137198332Y-121729313D01*
X137627784Y-121729687D01*
X138024689Y-121565689D01*
X138328622Y-121262286D01*
X138423623Y-121033500D01*
X139001280Y-121033500D01*
X139001280Y-121062000D01*
X139023419Y-121179658D01*
X139068471Y-121249671D01*
X139001271Y-121277506D01*
X138840506Y-121438272D01*
X138753500Y-121648322D01*
X138753500Y-122028625D01*
X138896375Y-122171500D01*
X139512500Y-122171500D01*
X139512500Y-122151500D01*
X139887500Y-122151500D01*
X139887500Y-122171500D01*
X140503625Y-122171500D01*
X140646500Y-122028625D01*
X140646500Y-121648322D01*
X140559494Y-121438272D01*
X140398729Y-121277506D01*
X140331148Y-121249513D01*
X140373215Y-121187945D01*
X140398720Y-121062000D01*
X140398720Y-119862000D01*
X140376581Y-119744342D01*
X140307045Y-119636279D01*
X140271500Y-119611992D01*
X140271500Y-116822724D01*
X143237724Y-113856500D01*
X143956320Y-113856500D01*
X144388117Y-114901529D01*
X145191243Y-115706058D01*
X146241114Y-116142003D01*
X147377898Y-116142995D01*
X147828623Y-115956759D01*
X146783441Y-117001941D01*
X146687086Y-117146147D01*
X146653250Y-117316250D01*
X146653250Y-119271524D01*
X146455311Y-119353311D01*
X146151378Y-119656714D01*
X146081707Y-119824500D01*
X141732000Y-119824500D01*
X141561898Y-119858335D01*
X141417691Y-119954691D01*
X140782691Y-120589691D01*
X140686336Y-120733897D01*
X140652500Y-120904000D01*
X140652500Y-124402882D01*
X140646500Y-124408882D01*
X140646500Y-124351375D01*
X140503625Y-124208500D01*
X139887500Y-124208500D01*
X139887500Y-124228500D01*
X139512500Y-124228500D01*
X139512500Y-124208500D01*
X138896375Y-124208500D01*
X138753500Y-124351375D01*
X138753500Y-124731678D01*
X138840506Y-124941728D01*
X139001271Y-125102494D01*
X139068852Y-125130487D01*
X139026785Y-125192055D01*
X139001280Y-125318000D01*
X139001280Y-125397300D01*
X138444552Y-125397300D01*
X138329689Y-125119311D01*
X138026286Y-124815378D01*
X137629668Y-124650687D01*
X137200216Y-124650313D01*
X136803311Y-124814311D01*
X136499378Y-125117714D01*
X136429707Y-125285500D01*
X136398000Y-125285500D01*
X136227897Y-125319336D01*
X136111215Y-125397300D01*
X136083691Y-125415691D01*
X135128000Y-126371382D01*
X132931084Y-124174466D01*
X136698942Y-124174466D01*
X136776834Y-124391082D01*
X137284970Y-124543489D01*
X137812750Y-124489838D01*
X138051166Y-124391082D01*
X138129058Y-124174466D01*
X137414000Y-123459408D01*
X136698942Y-124174466D01*
X132931084Y-124174466D01*
X131817588Y-123060970D01*
X136060511Y-123060970D01*
X136114162Y-123588750D01*
X136212918Y-123827166D01*
X136429534Y-123905058D01*
X137144592Y-123190000D01*
X137683408Y-123190000D01*
X138398466Y-123905058D01*
X138615082Y-123827166D01*
X138753500Y-123365670D01*
X138753500Y-123684625D01*
X138896375Y-123827500D01*
X139512500Y-123827500D01*
X139512500Y-122552500D01*
X139887500Y-122552500D01*
X139887500Y-123827500D01*
X140503625Y-123827500D01*
X140646500Y-123684625D01*
X140646500Y-123304322D01*
X140599146Y-123190000D01*
X140646500Y-123075678D01*
X140646500Y-122695375D01*
X140503625Y-122552500D01*
X139887500Y-122552500D01*
X139512500Y-122552500D01*
X138896375Y-122552500D01*
X138753500Y-122695375D01*
X138753500Y-123075678D01*
X138800854Y-123190000D01*
X138763532Y-123280103D01*
X138713838Y-122791250D01*
X138615082Y-122552834D01*
X138398466Y-122474942D01*
X137683408Y-123190000D01*
X137144592Y-123190000D01*
X136429534Y-122474942D01*
X136212918Y-122552834D01*
X136060511Y-123060970D01*
X131817588Y-123060970D01*
X130962152Y-122205534D01*
X136698942Y-122205534D01*
X137414000Y-122920592D01*
X138129058Y-122205534D01*
X138051166Y-121988918D01*
X137543030Y-121836511D01*
X137015250Y-121890162D01*
X136776834Y-121988918D01*
X136698942Y-122205534D01*
X130962152Y-122205534D01*
X127230309Y-118473691D01*
X127086102Y-118377336D01*
X126916000Y-118343500D01*
X126905946Y-118345500D01*
X121423720Y-118345500D01*
X121423720Y-118188000D01*
X121401581Y-118070342D01*
X121332045Y-117962279D01*
X121225945Y-117889785D01*
X121100000Y-117864280D01*
X120200000Y-117864280D01*
X120082342Y-117886419D01*
X119974279Y-117955955D01*
X119901785Y-118062055D01*
X119876280Y-118188000D01*
X119876280Y-119388000D01*
X119898419Y-119505658D01*
X119967955Y-119613721D01*
X120074055Y-119686215D01*
X120200000Y-119711720D01*
X121100000Y-119711720D01*
X121217658Y-119689581D01*
X121325721Y-119620045D01*
X121398215Y-119513945D01*
X121423720Y-119388000D01*
X121423720Y-119230500D01*
X126729882Y-119230500D01*
X134683500Y-127184118D01*
X134683500Y-131095643D01*
X134517311Y-131164311D01*
X134213378Y-131467714D01*
X134048687Y-131864332D01*
X134048313Y-132293784D01*
X134212311Y-132690689D01*
X134515714Y-132994622D01*
X134912332Y-133159313D01*
X135341784Y-133159687D01*
X135738689Y-132995689D01*
X136042622Y-132692286D01*
X136207313Y-132295668D01*
X136207314Y-132293784D01*
X136588313Y-132293784D01*
X136752311Y-132690689D01*
X137055714Y-132994622D01*
X137452332Y-133159313D01*
X137881784Y-133159687D01*
X138278689Y-132995689D01*
X138582622Y-132692286D01*
X138747313Y-132295668D01*
X138747314Y-132293784D01*
X139128313Y-132293784D01*
X139292311Y-132690689D01*
X139595714Y-132994622D01*
X139992332Y-133159313D01*
X140421784Y-133159687D01*
X140652236Y-133064466D01*
X142032942Y-133064466D01*
X142110834Y-133281082D01*
X142618970Y-133433489D01*
X143146750Y-133379838D01*
X143385166Y-133281082D01*
X143463058Y-133064466D01*
X142748000Y-132349408D01*
X142032942Y-133064466D01*
X140652236Y-133064466D01*
X140818689Y-132995689D01*
X141122622Y-132692286D01*
X141287313Y-132295668D01*
X141287613Y-131950970D01*
X141394511Y-131950970D01*
X141448162Y-132478750D01*
X141546918Y-132717166D01*
X141763534Y-132795058D01*
X142478592Y-132080000D01*
X143017408Y-132080000D01*
X143732466Y-132795058D01*
X143949082Y-132717166D01*
X144101489Y-132209030D01*
X144047838Y-131681250D01*
X143949082Y-131442834D01*
X143732466Y-131364942D01*
X143017408Y-132080000D01*
X142478592Y-132080000D01*
X141763534Y-131364942D01*
X141546918Y-131442834D01*
X141394511Y-131950970D01*
X141287613Y-131950970D01*
X141287687Y-131866216D01*
X141123689Y-131469311D01*
X140820286Y-131165378D01*
X140652084Y-131095534D01*
X142032942Y-131095534D01*
X142748000Y-131810592D01*
X143463058Y-131095534D01*
X143385166Y-130878918D01*
X142877030Y-130726511D01*
X142349250Y-130780162D01*
X142110834Y-130878918D01*
X142032942Y-131095534D01*
X140652084Y-131095534D01*
X140423668Y-131000687D01*
X139994216Y-131000313D01*
X139597311Y-131164311D01*
X139293378Y-131467714D01*
X139128687Y-131864332D01*
X139128313Y-132293784D01*
X138747314Y-132293784D01*
X138747687Y-131866216D01*
X138583689Y-131469311D01*
X138280286Y-131165378D01*
X137883668Y-131000687D01*
X137454216Y-131000313D01*
X137057311Y-131164311D01*
X136753378Y-131467714D01*
X136588687Y-131864332D01*
X136588313Y-132293784D01*
X136207314Y-132293784D01*
X136207687Y-131866216D01*
X136043689Y-131469311D01*
X135740286Y-131165378D01*
X135572500Y-131095707D01*
X135572500Y-130642784D01*
X145986313Y-130642784D01*
X146150311Y-131039689D01*
X146453714Y-131343622D01*
X146850332Y-131508313D01*
X147279784Y-131508687D01*
X147676689Y-131344689D01*
X147980622Y-131041286D01*
X148145313Y-130644668D01*
X148145687Y-130215216D01*
X147981689Y-129818311D01*
X147678286Y-129514378D01*
X147281668Y-129349687D01*
X146852216Y-129349313D01*
X146455311Y-129513311D01*
X146151378Y-129816714D01*
X145986687Y-130213332D01*
X145986313Y-130642784D01*
X135572500Y-130642784D01*
X135572500Y-128102784D01*
X145986313Y-128102784D01*
X146150311Y-128499689D01*
X146453714Y-128803622D01*
X146850332Y-128968313D01*
X147279784Y-128968687D01*
X147676689Y-128804689D01*
X147980622Y-128501286D01*
X148145313Y-128104668D01*
X148145687Y-127675216D01*
X147981689Y-127278311D01*
X147678286Y-126974378D01*
X147281668Y-126809687D01*
X146852216Y-126809313D01*
X146455311Y-126973311D01*
X146151378Y-127276714D01*
X145986687Y-127673332D01*
X145986313Y-128102784D01*
X135572500Y-128102784D01*
X135572500Y-127184118D01*
X136474224Y-126282394D01*
X136498311Y-126340689D01*
X136801714Y-126644622D01*
X137198332Y-126809313D01*
X137627784Y-126809687D01*
X138024689Y-126645689D01*
X138232040Y-126438700D01*
X139001280Y-126438700D01*
X139001280Y-126518000D01*
X139023419Y-126635658D01*
X139092955Y-126743721D01*
X139199055Y-126816215D01*
X139325000Y-126841720D01*
X140075000Y-126841720D01*
X140192658Y-126819581D01*
X140300721Y-126750045D01*
X140373215Y-126643945D01*
X140398720Y-126518000D01*
X140398720Y-125913898D01*
X140749834Y-125562784D01*
X145986313Y-125562784D01*
X146150311Y-125959689D01*
X146453714Y-126263622D01*
X146850332Y-126428313D01*
X147279784Y-126428687D01*
X147676689Y-126264689D01*
X147980622Y-125961286D01*
X148145313Y-125564668D01*
X148145687Y-125135216D01*
X147981689Y-124738311D01*
X147678286Y-124434378D01*
X147281668Y-124269687D01*
X146852216Y-124269313D01*
X146455311Y-124433311D01*
X146151378Y-124736714D01*
X145986687Y-125133332D01*
X145986313Y-125562784D01*
X140749834Y-125562784D01*
X141411309Y-124901309D01*
X141434634Y-124866400D01*
X141507664Y-124757103D01*
X141541500Y-124587000D01*
X141541500Y-123022784D01*
X145986313Y-123022784D01*
X146150311Y-123419689D01*
X146453714Y-123723622D01*
X146850332Y-123888313D01*
X147279784Y-123888687D01*
X147676689Y-123724689D01*
X147980622Y-123421286D01*
X148145313Y-123024668D01*
X148145314Y-123022784D01*
X156146313Y-123022784D01*
X156310311Y-123419689D01*
X156613714Y-123723622D01*
X157010332Y-123888313D01*
X157439784Y-123888687D01*
X157836689Y-123724689D01*
X158140622Y-123421286D01*
X158305313Y-123024668D01*
X158305687Y-122595216D01*
X158141689Y-122198311D01*
X157838286Y-121894378D01*
X157441668Y-121729687D01*
X157012216Y-121729313D01*
X156615311Y-121893311D01*
X156311378Y-122196714D01*
X156146687Y-122593332D01*
X156146313Y-123022784D01*
X148145314Y-123022784D01*
X148145687Y-122595216D01*
X147981689Y-122198311D01*
X147678286Y-121894378D01*
X147281668Y-121729687D01*
X146852216Y-121729313D01*
X146455311Y-121893311D01*
X146151378Y-122196714D01*
X145986687Y-122593332D01*
X145986313Y-123022784D01*
X141541500Y-123022784D01*
X141541500Y-121088118D01*
X141916118Y-120713500D01*
X146081643Y-120713500D01*
X146150311Y-120879689D01*
X146453714Y-121183622D01*
X146850332Y-121348313D01*
X147279784Y-121348687D01*
X147676689Y-121184689D01*
X147980622Y-120881286D01*
X148096436Y-120602375D01*
X155892500Y-120602375D01*
X155892500Y-121144679D01*
X155979506Y-121354729D01*
X156140272Y-121515494D01*
X156350322Y-121602500D01*
X156892625Y-121602500D01*
X157035500Y-121459625D01*
X157035500Y-120459500D01*
X157416500Y-120459500D01*
X157416500Y-121459625D01*
X157559375Y-121602500D01*
X158101678Y-121602500D01*
X158311728Y-121515494D01*
X158472494Y-121354729D01*
X158559500Y-121144679D01*
X158559500Y-120602375D01*
X158416625Y-120459500D01*
X157416500Y-120459500D01*
X157035500Y-120459500D01*
X156035375Y-120459500D01*
X155892500Y-120602375D01*
X148096436Y-120602375D01*
X148145313Y-120484668D01*
X148145687Y-120055216D01*
X147981689Y-119658311D01*
X147678286Y-119354378D01*
X147542250Y-119297891D01*
X147542250Y-118499797D01*
X147633117Y-118590823D01*
X147841622Y-118677401D01*
X147870048Y-118677426D01*
X147870002Y-118730387D01*
X147956216Y-118939043D01*
X148115717Y-119098823D01*
X148324222Y-119185401D01*
X148549987Y-119185598D01*
X148758643Y-119099384D01*
X148795592Y-119062500D01*
X156100278Y-119062500D01*
X155979506Y-119183271D01*
X155892500Y-119393321D01*
X155892500Y-119935625D01*
X156035375Y-120078500D01*
X157035500Y-120078500D01*
X157035500Y-120058500D01*
X157416500Y-120058500D01*
X157416500Y-120078500D01*
X158416625Y-120078500D01*
X158559500Y-119935625D01*
X158559500Y-119393321D01*
X158472494Y-119183271D01*
X158351722Y-119062500D01*
X160470882Y-119062500D01*
X160561882Y-119153500D01*
X159802000Y-119153500D01*
X159631897Y-119187336D01*
X159487691Y-119283691D01*
X159481996Y-119292214D01*
X159072105Y-119702105D01*
X158976183Y-119845662D01*
X158950711Y-119973721D01*
X158942500Y-120015000D01*
X158942500Y-121112478D01*
X158976183Y-121281816D01*
X159072105Y-121425373D01*
X160339500Y-122692768D01*
X160339500Y-124506261D01*
X160301177Y-124544517D01*
X160214599Y-124753022D01*
X160214402Y-124978787D01*
X160244480Y-125051581D01*
X160231550Y-125054153D01*
X160087993Y-125150075D01*
X159271070Y-125966998D01*
X158134900Y-125966998D01*
X158140622Y-125961286D01*
X158305313Y-125564668D01*
X158305687Y-125135216D01*
X158141689Y-124738311D01*
X157838286Y-124434378D01*
X157441668Y-124269687D01*
X157012216Y-124269313D01*
X156615311Y-124433311D01*
X156311378Y-124736714D01*
X156146687Y-125133332D01*
X156146313Y-125562784D01*
X156310311Y-125959689D01*
X156315611Y-125964998D01*
X155484438Y-125964998D01*
X155314335Y-125998834D01*
X155170129Y-126095189D01*
X155164434Y-126103712D01*
X152765178Y-128502968D01*
X151539849Y-128502968D01*
X151539844Y-128502967D01*
X151370506Y-128536651D01*
X151226949Y-128632573D01*
X150353603Y-129505919D01*
X150295960Y-129592188D01*
X150218286Y-129514378D01*
X149821668Y-129349687D01*
X149392216Y-129349313D01*
X148995311Y-129513311D01*
X148691378Y-129816714D01*
X148526687Y-130213332D01*
X148526313Y-130642784D01*
X148690311Y-131039689D01*
X148993714Y-131343622D01*
X149390332Y-131508313D01*
X149819784Y-131508687D01*
X150216689Y-131344689D01*
X150268075Y-131293392D01*
X150353603Y-131421393D01*
X150935998Y-132003788D01*
X150935998Y-140215210D01*
X150626605Y-140524603D01*
X150618341Y-140536971D01*
X149986103Y-141169209D01*
X149890181Y-141312766D01*
X149871437Y-141406999D01*
X149856498Y-141482104D01*
X149856498Y-143759896D01*
X149890181Y-143929234D01*
X149986103Y-144072791D01*
X150694209Y-144780897D01*
X150837766Y-144876819D01*
X150931683Y-144895500D01*
X119799657Y-144895500D01*
X119622543Y-144860270D01*
X119505161Y-144781838D01*
X119426731Y-144664459D01*
X119391500Y-144487343D01*
X119391500Y-141124496D01*
X120256146Y-141124496D01*
X120566443Y-141875472D01*
X121140506Y-142450538D01*
X121890939Y-142762145D01*
X122703496Y-142762854D01*
X123454472Y-142452557D01*
X124029538Y-141878494D01*
X124341145Y-141128061D01*
X124341148Y-141124496D01*
X127626146Y-141124496D01*
X127936443Y-141875472D01*
X128510506Y-142450538D01*
X129260939Y-142762145D01*
X130073496Y-142762854D01*
X130824472Y-142452557D01*
X131399538Y-141878494D01*
X131711145Y-141128061D01*
X131711151Y-141120496D01*
X131815146Y-141120496D01*
X132125443Y-141871472D01*
X132699506Y-142446538D01*
X133449939Y-142758145D01*
X134262496Y-142758854D01*
X135013472Y-142448557D01*
X135588538Y-141874494D01*
X135900145Y-141124061D01*
X135900148Y-141120496D01*
X141975146Y-141120496D01*
X142285443Y-141871472D01*
X142859506Y-142446538D01*
X143609939Y-142758145D01*
X144422496Y-142758854D01*
X145173472Y-142448557D01*
X145748538Y-141874494D01*
X146060145Y-141124061D01*
X146060854Y-140311504D01*
X145750557Y-139560528D01*
X145176494Y-138985462D01*
X144426061Y-138673855D01*
X143613504Y-138673146D01*
X142862528Y-138983443D01*
X142287462Y-139557506D01*
X141975855Y-140307939D01*
X141975146Y-141120496D01*
X135900148Y-141120496D01*
X135900854Y-140311504D01*
X135590557Y-139560528D01*
X135016494Y-138985462D01*
X134266061Y-138673855D01*
X133453504Y-138673146D01*
X132702528Y-138983443D01*
X132127462Y-139557506D01*
X131815855Y-140307939D01*
X131815146Y-141120496D01*
X131711151Y-141120496D01*
X131711854Y-140315504D01*
X131401557Y-139564528D01*
X130827494Y-138989462D01*
X130077061Y-138677855D01*
X129264504Y-138677146D01*
X128513528Y-138987443D01*
X127938462Y-139561506D01*
X127626855Y-140311939D01*
X127626146Y-141124496D01*
X124341148Y-141124496D01*
X124341854Y-140315504D01*
X124031557Y-139564528D01*
X123457494Y-138989462D01*
X122707061Y-138677855D01*
X121894504Y-138677146D01*
X121143528Y-138987443D01*
X120568462Y-139561506D01*
X120256855Y-140311939D01*
X120256146Y-141124496D01*
X119391500Y-141124496D01*
X119391500Y-132293784D01*
X122364313Y-132293784D01*
X122528311Y-132690689D01*
X122831714Y-132994622D01*
X123228332Y-133159313D01*
X123657784Y-133159687D01*
X124054689Y-132995689D01*
X124358622Y-132692286D01*
X124523313Y-132295668D01*
X124523314Y-132293784D01*
X124904313Y-132293784D01*
X125068311Y-132690689D01*
X125371714Y-132994622D01*
X125768332Y-133159313D01*
X126197784Y-133159687D01*
X126594689Y-132995689D01*
X126898622Y-132692286D01*
X127063313Y-132295668D01*
X127063314Y-132293784D01*
X127444313Y-132293784D01*
X127608311Y-132690689D01*
X127911714Y-132994622D01*
X128308332Y-133159313D01*
X128737784Y-133159687D01*
X129134689Y-132995689D01*
X129438622Y-132692286D01*
X129603313Y-132295668D01*
X129603687Y-131866216D01*
X129439689Y-131469311D01*
X129136286Y-131165378D01*
X128739668Y-131000687D01*
X128310216Y-131000313D01*
X127913311Y-131164311D01*
X127609378Y-131467714D01*
X127444687Y-131864332D01*
X127444313Y-132293784D01*
X127063314Y-132293784D01*
X127063687Y-131866216D01*
X126899689Y-131469311D01*
X126596286Y-131165378D01*
X126199668Y-131000687D01*
X125770216Y-131000313D01*
X125373311Y-131164311D01*
X125069378Y-131467714D01*
X124904687Y-131864332D01*
X124904313Y-132293784D01*
X124523314Y-132293784D01*
X124523687Y-131866216D01*
X124359689Y-131469311D01*
X124056286Y-131165378D01*
X123659668Y-131000687D01*
X123230216Y-131000313D01*
X122833311Y-131164311D01*
X122529378Y-131467714D01*
X122364687Y-131864332D01*
X122364313Y-132293784D01*
X119391500Y-132293784D01*
X119391500Y-129383722D01*
X119476271Y-129468494D01*
X119686321Y-129555500D01*
X120316625Y-129555500D01*
X120459500Y-129412625D01*
X120459500Y-128174500D01*
X120840500Y-128174500D01*
X120840500Y-129412625D01*
X120983375Y-129555500D01*
X121613679Y-129555500D01*
X121823729Y-129468494D01*
X121984494Y-129307728D01*
X122071500Y-129097678D01*
X122071500Y-128317375D01*
X121928625Y-128174500D01*
X120840500Y-128174500D01*
X120459500Y-128174500D01*
X120439500Y-128174500D01*
X120439500Y-127793500D01*
X120459500Y-127793500D01*
X120459500Y-126555375D01*
X120840500Y-126555375D01*
X120840500Y-127793500D01*
X121928625Y-127793500D01*
X122071500Y-127650625D01*
X122071500Y-126870322D01*
X121984494Y-126660272D01*
X121823729Y-126499506D01*
X121613679Y-126412500D01*
X120983375Y-126412500D01*
X120840500Y-126555375D01*
X120459500Y-126555375D01*
X120316625Y-126412500D01*
X119686321Y-126412500D01*
X119476271Y-126499506D01*
X119391500Y-126584278D01*
X119391500Y-122984000D01*
X119476280Y-122984000D01*
X119476280Y-124984000D01*
X119498419Y-125101658D01*
X119567955Y-125209721D01*
X119674055Y-125282215D01*
X119800000Y-125307720D01*
X121500000Y-125307720D01*
X121617658Y-125285581D01*
X121725721Y-125216045D01*
X121798215Y-125109945D01*
X121823720Y-124984000D01*
X121823720Y-122984000D01*
X121801581Y-122866342D01*
X121732045Y-122758279D01*
X121625945Y-122685785D01*
X121500000Y-122660280D01*
X121092500Y-122660280D01*
X121092500Y-121911720D01*
X121100000Y-121911720D01*
X121217658Y-121889581D01*
X121325721Y-121820045D01*
X121398215Y-121713945D01*
X121423720Y-121588000D01*
X121423720Y-120388000D01*
X121401581Y-120270342D01*
X121332045Y-120162279D01*
X121225945Y-120089785D01*
X121100000Y-120064280D01*
X120200000Y-120064280D01*
X120082342Y-120086419D01*
X119974279Y-120155955D01*
X119901785Y-120262055D01*
X119876280Y-120388000D01*
X119876280Y-121588000D01*
X119898419Y-121705658D01*
X119967955Y-121813721D01*
X120074055Y-121886215D01*
X120200000Y-121911720D01*
X120207500Y-121911720D01*
X120207500Y-122660280D01*
X119800000Y-122660280D01*
X119682342Y-122682419D01*
X119574279Y-122751955D01*
X119501785Y-122858055D01*
X119476280Y-122984000D01*
X119391500Y-122984000D01*
X119391500Y-107556703D01*
X144808704Y-107556703D01*
X145104759Y-107957914D01*
X146257978Y-108407706D01*
X147495540Y-108381944D01*
X148519241Y-107957914D01*
X148815296Y-107556703D01*
X146812000Y-105553408D01*
X144808704Y-107556703D01*
X119391500Y-107556703D01*
X119391500Y-104729978D01*
X143688294Y-104729978D01*
X143714056Y-105967540D01*
X144138086Y-106991241D01*
X144539297Y-107287296D01*
X146542592Y-105284000D01*
X147081408Y-105284000D01*
X149084703Y-107287296D01*
X149485914Y-106991241D01*
X149935706Y-105838022D01*
X149909944Y-104600460D01*
X149485914Y-103576759D01*
X149084703Y-103280704D01*
X147081408Y-105284000D01*
X146542592Y-105284000D01*
X144539297Y-103280704D01*
X144138086Y-103576759D01*
X143688294Y-104729978D01*
X119391500Y-104729978D01*
X119391500Y-103011297D01*
X144808704Y-103011297D01*
X146812000Y-105014592D01*
X148815296Y-103011297D01*
X148519241Y-102610086D01*
X147366022Y-102160294D01*
X146128460Y-102186056D01*
X145104759Y-102610086D01*
X144808704Y-103011297D01*
X119391500Y-103011297D01*
X119391500Y-97241388D01*
X127700314Y-97241388D01*
X127864008Y-97637557D01*
X128166849Y-97940927D01*
X128562732Y-98105312D01*
X128991388Y-98105686D01*
X129387557Y-97941992D01*
X129690927Y-97639151D01*
X129855312Y-97243268D01*
X129855313Y-97241388D01*
X130240314Y-97241388D01*
X130404008Y-97637557D01*
X130706849Y-97940927D01*
X131102732Y-98105312D01*
X131531388Y-98105686D01*
X131760530Y-98011006D01*
X133144402Y-98011006D01*
X133222044Y-98227416D01*
X133729451Y-98379486D01*
X134256428Y-98325804D01*
X134493956Y-98227416D01*
X134571598Y-98011006D01*
X133858000Y-97297408D01*
X133144402Y-98011006D01*
X131760530Y-98011006D01*
X131927557Y-97941992D01*
X132230927Y-97639151D01*
X132395312Y-97243268D01*
X132395611Y-96899451D01*
X132506514Y-96899451D01*
X132560196Y-97426428D01*
X132658584Y-97663956D01*
X132874994Y-97741598D01*
X133588592Y-97028000D01*
X134127408Y-97028000D01*
X134841006Y-97741598D01*
X135057416Y-97663956D01*
X135209486Y-97156549D01*
X135155804Y-96629572D01*
X135057416Y-96392044D01*
X134841006Y-96314402D01*
X134127408Y-97028000D01*
X133588592Y-97028000D01*
X132874994Y-96314402D01*
X132658584Y-96392044D01*
X132506514Y-96899451D01*
X132395611Y-96899451D01*
X132395686Y-96814612D01*
X132231992Y-96418443D01*
X131929151Y-96115073D01*
X131760383Y-96044994D01*
X133144402Y-96044994D01*
X133858000Y-96758592D01*
X134571598Y-96044994D01*
X134493956Y-95828584D01*
X133986549Y-95676514D01*
X133459572Y-95730196D01*
X133222044Y-95828584D01*
X133144402Y-96044994D01*
X131760383Y-96044994D01*
X131533268Y-95950688D01*
X131104612Y-95950314D01*
X130708443Y-96114008D01*
X130405073Y-96416849D01*
X130240688Y-96812732D01*
X130240314Y-97241388D01*
X129855313Y-97241388D01*
X129855686Y-96814612D01*
X129691992Y-96418443D01*
X129389151Y-96115073D01*
X128993268Y-95950688D01*
X128564612Y-95950314D01*
X128168443Y-96114008D01*
X127865073Y-96416849D01*
X127700688Y-96812732D01*
X127700314Y-97241388D01*
X119391500Y-97241388D01*
X119391500Y-93384000D01*
X135427480Y-93384000D01*
X135427480Y-95084000D01*
X135449619Y-95201658D01*
X135519155Y-95309721D01*
X135625255Y-95382215D01*
X135751200Y-95407720D01*
X137451200Y-95407720D01*
X137568858Y-95385581D01*
X137676921Y-95316045D01*
X137749415Y-95209945D01*
X137774920Y-95084000D01*
X137774920Y-93384000D01*
X137752781Y-93266342D01*
X137683245Y-93158279D01*
X137577145Y-93085785D01*
X137451200Y-93060280D01*
X135751200Y-93060280D01*
X135633542Y-93082419D01*
X135525479Y-93151955D01*
X135452985Y-93258055D01*
X135427480Y-93384000D01*
X119391500Y-93384000D01*
X119391500Y-91585988D01*
X119430203Y-91186922D01*
X119590902Y-90885191D01*
X119854833Y-90667927D01*
X120200523Y-90562500D01*
X135473760Y-90562500D01*
X135402185Y-90667255D01*
G36*
X151769550Y-141981858D02*
X151755408Y-141996000D01*
X152103487Y-142344079D01*
X152127378Y-142401900D01*
X152329038Y-142603913D01*
X152369963Y-142620907D01*
X152330100Y-142637378D01*
X152128087Y-142839038D01*
X152111093Y-142879963D01*
X152094622Y-142840100D01*
X151892962Y-142638087D01*
X151834335Y-142613743D01*
X151486000Y-142265408D01*
X151471858Y-142279550D01*
X151202450Y-142010142D01*
X151216592Y-141996000D01*
X151202450Y-141981858D01*
X151471858Y-141712450D01*
X151486000Y-141726592D01*
X151500142Y-141712450D01*
X151769550Y-141981858D01*
X151769550Y-141981858D01*
G37*
X151769550Y-141981858D02*
X151755408Y-141996000D01*
X152103487Y-142344079D01*
X152127378Y-142401900D01*
X152329038Y-142603913D01*
X152369963Y-142620907D01*
X152330100Y-142637378D01*
X152128087Y-142839038D01*
X152111093Y-142879963D01*
X152094622Y-142840100D01*
X151892962Y-142638087D01*
X151834335Y-142613743D01*
X151486000Y-142265408D01*
X151471858Y-142279550D01*
X151202450Y-142010142D01*
X151216592Y-141996000D01*
X151202450Y-141981858D01*
X151471858Y-141712450D01*
X151486000Y-141726592D01*
X151500142Y-141712450D01*
X151769550Y-141981858D01*
G36*
X158815500Y-130379212D02*
X158734814Y-130459757D01*
X158640607Y-130686633D01*
X158640393Y-130932290D01*
X158734203Y-131159329D01*
X158907757Y-131333186D01*
X159134633Y-131427393D01*
X159380290Y-131427607D01*
X159607329Y-131333797D01*
X159781186Y-131160243D01*
X159874680Y-130935084D01*
X159874680Y-132805708D01*
X159840984Y-132724157D01*
X159681483Y-132564377D01*
X159472978Y-132477799D01*
X159247213Y-132477602D01*
X159038557Y-132563816D01*
X159001608Y-132600700D01*
X156006800Y-132600700D01*
X155836698Y-132634535D01*
X155692491Y-132730891D01*
X155133691Y-133289691D01*
X155037336Y-133433897D01*
X155037289Y-133434132D01*
X155002373Y-133399216D01*
X154891597Y-133509992D01*
X154813956Y-133293584D01*
X154306549Y-133141514D01*
X153779572Y-133195196D01*
X153542044Y-133293584D01*
X153464402Y-133509994D01*
X154178000Y-134223592D01*
X154192142Y-134209450D01*
X154461550Y-134478858D01*
X154447408Y-134493000D01*
X154461550Y-134507142D01*
X154192142Y-134776550D01*
X154178000Y-134762408D01*
X153464402Y-135476006D01*
X153542044Y-135692416D01*
X154049451Y-135844486D01*
X154576428Y-135790804D01*
X154640189Y-135764393D01*
X154432573Y-135972009D01*
X154393268Y-135955688D01*
X153964612Y-135955314D01*
X153568443Y-136119008D01*
X153265073Y-136421849D01*
X153171004Y-136648392D01*
X153171004Y-135197991D01*
X153194994Y-135206598D01*
X153908592Y-134493000D01*
X153194994Y-133779402D01*
X153171004Y-133788009D01*
X153171004Y-132188786D01*
X153938397Y-131421393D01*
X154023783Y-131293604D01*
X154073714Y-131343622D01*
X154470332Y-131508313D01*
X154899784Y-131508687D01*
X155296689Y-131344689D01*
X155600622Y-131041286D01*
X155765313Y-130644668D01*
X155765687Y-130215216D01*
X155606560Y-129830100D01*
X156305820Y-129830100D01*
X156146687Y-130213332D01*
X156146313Y-130642784D01*
X156310311Y-131039689D01*
X156613714Y-131343622D01*
X157010332Y-131508313D01*
X157439784Y-131508687D01*
X157836689Y-131344689D01*
X158140622Y-131041286D01*
X158305313Y-130644668D01*
X158305687Y-130215216D01*
X158146092Y-129828968D01*
X158309738Y-129796417D01*
X158453295Y-129700495D01*
X158815500Y-129338290D01*
X158815500Y-130379212D01*
X158815500Y-130379212D01*
G37*
X158815500Y-130379212D02*
X158734814Y-130459757D01*
X158640607Y-130686633D01*
X158640393Y-130932290D01*
X158734203Y-131159329D01*
X158907757Y-131333186D01*
X159134633Y-131427393D01*
X159380290Y-131427607D01*
X159607329Y-131333797D01*
X159781186Y-131160243D01*
X159874680Y-130935084D01*
X159874680Y-132805708D01*
X159840984Y-132724157D01*
X159681483Y-132564377D01*
X159472978Y-132477799D01*
X159247213Y-132477602D01*
X159038557Y-132563816D01*
X159001608Y-132600700D01*
X156006800Y-132600700D01*
X155836698Y-132634535D01*
X155692491Y-132730891D01*
X155133691Y-133289691D01*
X155037336Y-133433897D01*
X155037289Y-133434132D01*
X155002373Y-133399216D01*
X154891597Y-133509992D01*
X154813956Y-133293584D01*
X154306549Y-133141514D01*
X153779572Y-133195196D01*
X153542044Y-133293584D01*
X153464402Y-133509994D01*
X154178000Y-134223592D01*
X154192142Y-134209450D01*
X154461550Y-134478858D01*
X154447408Y-134493000D01*
X154461550Y-134507142D01*
X154192142Y-134776550D01*
X154178000Y-134762408D01*
X153464402Y-135476006D01*
X153542044Y-135692416D01*
X154049451Y-135844486D01*
X154576428Y-135790804D01*
X154640189Y-135764393D01*
X154432573Y-135972009D01*
X154393268Y-135955688D01*
X153964612Y-135955314D01*
X153568443Y-136119008D01*
X153265073Y-136421849D01*
X153171004Y-136648392D01*
X153171004Y-135197991D01*
X153194994Y-135206598D01*
X153908592Y-134493000D01*
X153194994Y-133779402D01*
X153171004Y-133788009D01*
X153171004Y-132188786D01*
X153938397Y-131421393D01*
X154023783Y-131293604D01*
X154073714Y-131343622D01*
X154470332Y-131508313D01*
X154899784Y-131508687D01*
X155296689Y-131344689D01*
X155600622Y-131041286D01*
X155765313Y-130644668D01*
X155765687Y-130215216D01*
X155606560Y-129830100D01*
X156305820Y-129830100D01*
X156146687Y-130213332D01*
X156146313Y-130642784D01*
X156310311Y-131039689D01*
X156613714Y-131343622D01*
X157010332Y-131508313D01*
X157439784Y-131508687D01*
X157836689Y-131344689D01*
X158140622Y-131041286D01*
X158305313Y-130644668D01*
X158305687Y-130215216D01*
X158146092Y-129828968D01*
X158309738Y-129796417D01*
X158453295Y-129700495D01*
X158815500Y-129338290D01*
X158815500Y-130379212D01*
G36*
X167201500Y-122163691D02*
X167195785Y-122172055D01*
X167170280Y-122298000D01*
X167170280Y-123798000D01*
X167192419Y-123915658D01*
X167219000Y-123956966D01*
X167219000Y-124226625D01*
X167361875Y-124369500D01*
X167407679Y-124369500D01*
X167587578Y-124294983D01*
X167587578Y-126325033D01*
X167581761Y-126330849D01*
X167527613Y-126330802D01*
X167318957Y-126417016D01*
X167159177Y-126576517D01*
X167072599Y-126785022D01*
X167072427Y-126981680D01*
X166385647Y-126981680D01*
X166456892Y-126910435D01*
X166456895Y-126910433D01*
X166552817Y-126766875D01*
X166586500Y-126597538D01*
X166586500Y-124236947D01*
X166588500Y-124226892D01*
X166588500Y-124200722D01*
X166670271Y-124282494D01*
X166880321Y-124369500D01*
X166926125Y-124369500D01*
X167069000Y-124226625D01*
X167069000Y-123957922D01*
X167092215Y-123923945D01*
X167117720Y-123798000D01*
X167117720Y-122298000D01*
X167095581Y-122180342D01*
X167069000Y-122139034D01*
X167069000Y-121869375D01*
X167068500Y-121868875D01*
X167068500Y-121405618D01*
X167201500Y-121272618D01*
X167201500Y-122163691D01*
X167201500Y-122163691D01*
G37*
X167201500Y-122163691D02*
X167195785Y-122172055D01*
X167170280Y-122298000D01*
X167170280Y-123798000D01*
X167192419Y-123915658D01*
X167219000Y-123956966D01*
X167219000Y-124226625D01*
X167361875Y-124369500D01*
X167407679Y-124369500D01*
X167587578Y-124294983D01*
X167587578Y-126325033D01*
X167581761Y-126330849D01*
X167527613Y-126330802D01*
X167318957Y-126417016D01*
X167159177Y-126576517D01*
X167072599Y-126785022D01*
X167072427Y-126981680D01*
X166385647Y-126981680D01*
X166456892Y-126910435D01*
X166456895Y-126910433D01*
X166552817Y-126766875D01*
X166586500Y-126597538D01*
X166586500Y-124236947D01*
X166588500Y-124226892D01*
X166588500Y-124200722D01*
X166670271Y-124282494D01*
X166880321Y-124369500D01*
X166926125Y-124369500D01*
X167069000Y-124226625D01*
X167069000Y-123957922D01*
X167092215Y-123923945D01*
X167117720Y-123798000D01*
X167117720Y-122298000D01*
X167095581Y-122180342D01*
X167069000Y-122139034D01*
X167069000Y-121869375D01*
X167068500Y-121868875D01*
X167068500Y-121405618D01*
X167201500Y-121272618D01*
X167201500Y-122163691D01*
G36*
X178423500Y-120166077D02*
X178375883Y-120118377D01*
X178167378Y-120031799D01*
X177941613Y-120031602D01*
X177732957Y-120117816D01*
X177573177Y-120277317D01*
X177486599Y-120485822D01*
X177486551Y-120540859D01*
X177249413Y-120777997D01*
X177240891Y-120783691D01*
X176853882Y-121170700D01*
X175420618Y-121170700D01*
X175421001Y-121169778D01*
X175421198Y-120944013D01*
X175334984Y-120735357D01*
X175175483Y-120575577D01*
X174966978Y-120488999D01*
X174914771Y-120488953D01*
X174878009Y-120452191D01*
X174915500Y-120361679D01*
X174915500Y-120315875D01*
X174772625Y-120173000D01*
X174503922Y-120173000D01*
X174469945Y-120149785D01*
X174344000Y-120124280D01*
X173383500Y-120124280D01*
X173383500Y-120071720D01*
X174344000Y-120071720D01*
X174461658Y-120049581D01*
X174472662Y-120042500D01*
X176667600Y-120042500D01*
X176677655Y-120040500D01*
X177226400Y-120040500D01*
X177395738Y-120006817D01*
X177539295Y-119910895D01*
X177604239Y-119845951D01*
X177658387Y-119845998D01*
X177867043Y-119759784D01*
X178026823Y-119600283D01*
X178113401Y-119391778D01*
X178113598Y-119166013D01*
X178027384Y-118957357D01*
X177867883Y-118797577D01*
X177659378Y-118710999D01*
X177433613Y-118710802D01*
X177224957Y-118797016D01*
X177086289Y-118935442D01*
X177011384Y-118754157D01*
X176972500Y-118715205D01*
X176972500Y-118008400D01*
X176938817Y-117839063D01*
X176842895Y-117695505D01*
X176687890Y-117540500D01*
X177288000Y-117540500D01*
X177457338Y-117506817D01*
X177600895Y-117410895D01*
X178366892Y-116644897D01*
X178366895Y-116644895D01*
X178423500Y-116560179D01*
X178423500Y-120166077D01*
X178423500Y-120166077D01*
G37*
X178423500Y-120166077D02*
X178375883Y-120118377D01*
X178167378Y-120031799D01*
X177941613Y-120031602D01*
X177732957Y-120117816D01*
X177573177Y-120277317D01*
X177486599Y-120485822D01*
X177486551Y-120540859D01*
X177249413Y-120777997D01*
X177240891Y-120783691D01*
X176853882Y-121170700D01*
X175420618Y-121170700D01*
X175421001Y-121169778D01*
X175421198Y-120944013D01*
X175334984Y-120735357D01*
X175175483Y-120575577D01*
X174966978Y-120488999D01*
X174914771Y-120488953D01*
X174878009Y-120452191D01*
X174915500Y-120361679D01*
X174915500Y-120315875D01*
X174772625Y-120173000D01*
X174503922Y-120173000D01*
X174469945Y-120149785D01*
X174344000Y-120124280D01*
X173383500Y-120124280D01*
X173383500Y-120071720D01*
X174344000Y-120071720D01*
X174461658Y-120049581D01*
X174472662Y-120042500D01*
X176667600Y-120042500D01*
X176677655Y-120040500D01*
X177226400Y-120040500D01*
X177395738Y-120006817D01*
X177539295Y-119910895D01*
X177604239Y-119845951D01*
X177658387Y-119845998D01*
X177867043Y-119759784D01*
X178026823Y-119600283D01*
X178113401Y-119391778D01*
X178113598Y-119166013D01*
X178027384Y-118957357D01*
X177867883Y-118797577D01*
X177659378Y-118710999D01*
X177433613Y-118710802D01*
X177224957Y-118797016D01*
X177086289Y-118935442D01*
X177011384Y-118754157D01*
X176972500Y-118715205D01*
X176972500Y-118008400D01*
X176938817Y-117839063D01*
X176842895Y-117695505D01*
X176687890Y-117540500D01*
X177288000Y-117540500D01*
X177457338Y-117506817D01*
X177600895Y-117410895D01*
X178366892Y-116644897D01*
X178366895Y-116644895D01*
X178423500Y-116560179D01*
X178423500Y-120166077D01*
G36*
X153032500Y-116652500D02*
X153869882Y-116652500D01*
X154370882Y-117153500D01*
X153996625Y-117153500D01*
X153870625Y-117027500D01*
X153032500Y-117027500D01*
X153032500Y-117050500D01*
X152651500Y-117050500D01*
X152651500Y-117027500D01*
X152631500Y-117027500D01*
X152631500Y-116652500D01*
X152651500Y-116652500D01*
X152651500Y-116629500D01*
X153032500Y-116629500D01*
X153032500Y-116652500D01*
X153032500Y-116652500D01*
G37*
X153032500Y-116652500D02*
X153869882Y-116652500D01*
X154370882Y-117153500D01*
X153996625Y-117153500D01*
X153870625Y-117027500D01*
X153032500Y-117027500D01*
X153032500Y-117050500D01*
X152651500Y-117050500D01*
X152651500Y-117027500D01*
X152631500Y-117027500D01*
X152631500Y-116652500D01*
X152651500Y-116652500D01*
X152651500Y-116629500D01*
X153032500Y-116629500D01*
X153032500Y-116652500D01*
G36*
X160959506Y-116124271D02*
X160872500Y-116334321D01*
X160872500Y-116380125D01*
X161015375Y-116523000D01*
X161284078Y-116523000D01*
X161318055Y-116546215D01*
X161444000Y-116571720D01*
X162404500Y-116571720D01*
X162404500Y-116624280D01*
X161444000Y-116624280D01*
X161326342Y-116646419D01*
X161315338Y-116653500D01*
X160327118Y-116653500D01*
X160938118Y-116042500D01*
X161041278Y-116042500D01*
X160959506Y-116124271D01*
X160959506Y-116124271D01*
G37*
X160959506Y-116124271D02*
X160872500Y-116334321D01*
X160872500Y-116380125D01*
X161015375Y-116523000D01*
X161284078Y-116523000D01*
X161318055Y-116546215D01*
X161444000Y-116571720D01*
X162404500Y-116571720D01*
X162404500Y-116624280D01*
X161444000Y-116624280D01*
X161326342Y-116646419D01*
X161315338Y-116653500D01*
X160327118Y-116653500D01*
X160938118Y-116042500D01*
X161041278Y-116042500D01*
X160959506Y-116124271D01*
G36*
X153032500Y-111064500D02*
X153052500Y-111064500D01*
X153052500Y-111439500D01*
X153032500Y-111439500D01*
X153032500Y-111462500D01*
X152651500Y-111462500D01*
X152651500Y-111439500D01*
X152631500Y-111439500D01*
X152631500Y-111064500D01*
X152651500Y-111064500D01*
X152651500Y-111041500D01*
X153032500Y-111041500D01*
X153032500Y-111064500D01*
X153032500Y-111064500D01*
G37*
X153032500Y-111064500D02*
X153052500Y-111064500D01*
X153052500Y-111439500D01*
X153032500Y-111439500D01*
X153032500Y-111462500D01*
X152651500Y-111462500D01*
X152651500Y-111439500D01*
X152631500Y-111439500D01*
X152631500Y-111064500D01*
X152651500Y-111064500D01*
X152651500Y-111041500D01*
X153032500Y-111041500D01*
X153032500Y-111064500D01*
G36*
X169701550Y-97013858D02*
X169687408Y-97028000D01*
X169701550Y-97042142D01*
X169432142Y-97311550D01*
X169418000Y-97297408D01*
X169403858Y-97311550D01*
X169134450Y-97042142D01*
X169148592Y-97028000D01*
X169134450Y-97013858D01*
X169403858Y-96744450D01*
X169418000Y-96758592D01*
X169432142Y-96744450D01*
X169701550Y-97013858D01*
X169701550Y-97013858D01*
G37*
X169701550Y-97013858D02*
X169687408Y-97028000D01*
X169701550Y-97042142D01*
X169432142Y-97311550D01*
X169418000Y-97297408D01*
X169403858Y-97311550D01*
X169134450Y-97042142D01*
X169148592Y-97028000D01*
X169134450Y-97013858D01*
X169403858Y-96744450D01*
X169418000Y-96758592D01*
X169432142Y-96744450D01*
X169701550Y-97013858D01*
G36*
X153542044Y-90621584D02*
X153464402Y-90837994D01*
X154178000Y-91551592D01*
X154891598Y-90837994D01*
X154813956Y-90621584D01*
X154616812Y-90562500D01*
X159890710Y-90562500D01*
X159640204Y-90813006D01*
X159473268Y-90743688D01*
X159044612Y-90743314D01*
X158648443Y-90907008D01*
X158345073Y-91209849D01*
X158180688Y-91605732D01*
X158180314Y-92034388D01*
X158339605Y-92419900D01*
X157636014Y-92419900D01*
X157795312Y-92036268D01*
X157795686Y-91607612D01*
X157631992Y-91211443D01*
X157329151Y-90908073D01*
X156933268Y-90743688D01*
X156504612Y-90743314D01*
X156108443Y-90907008D01*
X155805073Y-91209849D01*
X155640688Y-91605732D01*
X155640314Y-92034388D01*
X155799605Y-92419900D01*
X155388522Y-92419900D01*
X155529486Y-91949549D01*
X155475804Y-91422572D01*
X155377416Y-91185044D01*
X155161006Y-91107402D01*
X154447408Y-91821000D01*
X154461550Y-91835142D01*
X154192142Y-92104550D01*
X154178000Y-92090408D01*
X154163858Y-92104550D01*
X153894450Y-91835142D01*
X153908592Y-91821000D01*
X153194994Y-91107402D01*
X152978584Y-91185044D01*
X152826514Y-91692451D01*
X152880196Y-92219428D01*
X152963235Y-92419900D01*
X143032890Y-92419900D01*
X142711819Y-92098829D01*
X142797900Y-91666073D01*
X142797900Y-91620327D01*
X142709029Y-91173544D01*
X142455947Y-90794780D01*
X142108315Y-90562500D01*
X153684684Y-90562500D01*
X153542044Y-90621584D01*
X153542044Y-90621584D01*
G37*
X153542044Y-90621584D02*
X153464402Y-90837994D01*
X154178000Y-91551592D01*
X154891598Y-90837994D01*
X154813956Y-90621584D01*
X154616812Y-90562500D01*
X159890710Y-90562500D01*
X159640204Y-90813006D01*
X159473268Y-90743688D01*
X159044612Y-90743314D01*
X158648443Y-90907008D01*
X158345073Y-91209849D01*
X158180688Y-91605732D01*
X158180314Y-92034388D01*
X158339605Y-92419900D01*
X157636014Y-92419900D01*
X157795312Y-92036268D01*
X157795686Y-91607612D01*
X157631992Y-91211443D01*
X157329151Y-90908073D01*
X156933268Y-90743688D01*
X156504612Y-90743314D01*
X156108443Y-90907008D01*
X155805073Y-91209849D01*
X155640688Y-91605732D01*
X155640314Y-92034388D01*
X155799605Y-92419900D01*
X155388522Y-92419900D01*
X155529486Y-91949549D01*
X155475804Y-91422572D01*
X155377416Y-91185044D01*
X155161006Y-91107402D01*
X154447408Y-91821000D01*
X154461550Y-91835142D01*
X154192142Y-92104550D01*
X154178000Y-92090408D01*
X154163858Y-92104550D01*
X153894450Y-91835142D01*
X153908592Y-91821000D01*
X153194994Y-91107402D01*
X152978584Y-91185044D01*
X152826514Y-91692451D01*
X152880196Y-92219428D01*
X152963235Y-92419900D01*
X143032890Y-92419900D01*
X142711819Y-92098829D01*
X142797900Y-91666073D01*
X142797900Y-91620327D01*
X142709029Y-91173544D01*
X142455947Y-90794780D01*
X142108315Y-90562500D01*
X153684684Y-90562500D01*
X153542044Y-90621584D01*
M02*
