G04 #@! TF.FileFunction,Soldermask,Top*
%FSLAX46Y46*%
G04 Gerber Fmt 4.6, Leading zero omitted, Abs format (unit mm)*
G04 Created by KiCad (PCBNEW 4.0.7) date 03/19/18 18:51:52*
%MOMM*%
%LPD*%
G01*
G04 APERTURE LIST*
%ADD10C,0.100000*%
%ADD11R,1.900000X0.700000*%
%ADD12R,0.700000X1.900000*%
%ADD13R,1.600000X1.150000*%
%ADD14R,1.150000X1.600000*%
%ADD15R,1.300000X1.600000*%
%ADD16R,2.100000X2.400000*%
%ADD17R,2.100000X2.100000*%
%ADD18O,2.100000X2.100000*%
%ADD19C,1.924000*%
%ADD20R,1.924000X1.924000*%
%ADD21C,1.920000*%
%ADD22C,1.200000*%
%ADD23C,3.850000*%
%ADD24R,2.900000X1.900000*%
%ADD25C,5.480000*%
G04 APERTURE END LIST*
D10*
D11*
X173594000Y-121098000D03*
X173594000Y-120598000D03*
X173594000Y-120098000D03*
X173594000Y-119598000D03*
X173594000Y-119098000D03*
X173594000Y-118598000D03*
X173594000Y-118098000D03*
X173594000Y-117598000D03*
X173594000Y-117098000D03*
X173594000Y-116598000D03*
X173594000Y-116098000D03*
X173594000Y-115598000D03*
X173594000Y-115098000D03*
X173594000Y-114598000D03*
X173594000Y-114098000D03*
X173594000Y-113598000D03*
D12*
X171644000Y-111648000D03*
X171144000Y-111648000D03*
X170644000Y-111648000D03*
X170144000Y-111648000D03*
X169644000Y-111648000D03*
X169144000Y-111648000D03*
X168644000Y-111648000D03*
X168144000Y-111648000D03*
X167644000Y-111648000D03*
X167144000Y-111648000D03*
X166644000Y-111648000D03*
X166144000Y-111648000D03*
X165644000Y-111648000D03*
X165144000Y-111648000D03*
X164644000Y-111648000D03*
X164144000Y-111648000D03*
D11*
X162194000Y-113598000D03*
X162194000Y-114098000D03*
X162194000Y-114598000D03*
X162194000Y-115098000D03*
X162194000Y-115598000D03*
X162194000Y-116098000D03*
X162194000Y-116598000D03*
X162194000Y-117098000D03*
X162194000Y-117598000D03*
X162194000Y-118098000D03*
X162194000Y-118598000D03*
X162194000Y-119098000D03*
X162194000Y-119598000D03*
X162194000Y-120098000D03*
X162194000Y-120598000D03*
X162194000Y-121098000D03*
D12*
X164144000Y-123048000D03*
X164644000Y-123048000D03*
X165144000Y-123048000D03*
X165644000Y-123048000D03*
X166144000Y-123048000D03*
X166644000Y-123048000D03*
X167144000Y-123048000D03*
X167644000Y-123048000D03*
X168144000Y-123048000D03*
X168644000Y-123048000D03*
X169144000Y-123048000D03*
X169644000Y-123048000D03*
X170144000Y-123048000D03*
X170644000Y-123048000D03*
X171144000Y-123048000D03*
X171644000Y-123048000D03*
D13*
X152842000Y-103632000D03*
X150942000Y-103632000D03*
D14*
X139700000Y-120462000D03*
X139700000Y-122362000D03*
D13*
X152842000Y-116840000D03*
X150942000Y-116840000D03*
X152842000Y-111252000D03*
X150942000Y-111252000D03*
X152842000Y-109728000D03*
X150942000Y-109728000D03*
X152842000Y-102108000D03*
X150942000Y-102108000D03*
X152842000Y-105156000D03*
X150942000Y-105156000D03*
X152842000Y-106680000D03*
X150942000Y-106680000D03*
X152842000Y-108204000D03*
X150942000Y-108204000D03*
X154752000Y-103632000D03*
X156652000Y-103632000D03*
X154752000Y-105156000D03*
X156652000Y-105156000D03*
X154752000Y-102108000D03*
X156652000Y-102108000D03*
X154752000Y-106680000D03*
X156652000Y-106680000D03*
D15*
X120650000Y-118788000D03*
X120650000Y-120988000D03*
D14*
X139700000Y-124018000D03*
X139700000Y-125918000D03*
D16*
X120650000Y-127984000D03*
X120650000Y-123984000D03*
D17*
X164693600Y-140462000D03*
D18*
X164693600Y-143002000D03*
D17*
X162153600Y-143002000D03*
D18*
X162153600Y-140462000D03*
D17*
X136601200Y-94234000D03*
D18*
X139141200Y-94234000D03*
X141681200Y-94234000D03*
D17*
X136550400Y-91643200D03*
D18*
X139090400Y-91643200D03*
X141630400Y-91643200D03*
D17*
X171958000Y-140462000D03*
D18*
X174498000Y-140462000D03*
X177038000Y-140462000D03*
D19*
X137414000Y-120650000D03*
X137414000Y-123190000D03*
X137414000Y-125730000D03*
X147066000Y-130429000D03*
X149606000Y-130429000D03*
X152146000Y-130429000D03*
X154686000Y-130429000D03*
X157226000Y-130429000D03*
X157226000Y-127889000D03*
X157226000Y-125349000D03*
X157226000Y-122809000D03*
D20*
X157226000Y-120269000D03*
D19*
X147066000Y-127889000D03*
X147066000Y-125349000D03*
X147066000Y-122809000D03*
X147066000Y-120269000D03*
D21*
X128778000Y-99618800D03*
X128778000Y-97078800D03*
X131318000Y-99618800D03*
X131318000Y-97078800D03*
X133858000Y-99618800D03*
X133858000Y-97078800D03*
X136398000Y-99618800D03*
X136398000Y-97078800D03*
X138938000Y-99618800D03*
X138938000Y-97078800D03*
X141478000Y-99618800D03*
X141478000Y-97078800D03*
X144018000Y-99618800D03*
X144018000Y-97078800D03*
X146558000Y-99618800D03*
X146558000Y-97078800D03*
X149098000Y-99618800D03*
X149098000Y-97078800D03*
X151638000Y-99618800D03*
X151638000Y-97078800D03*
X154178000Y-99618800D03*
X154178000Y-97078800D03*
X156718000Y-99618800D03*
X156718000Y-97078800D03*
X159258000Y-99618800D03*
X159258000Y-97078800D03*
X161798000Y-99618800D03*
X161798000Y-97078800D03*
X164338000Y-99618800D03*
X164338000Y-97078800D03*
X166878000Y-99618800D03*
X166878000Y-97078800D03*
X169418000Y-99618800D03*
X169418000Y-97078800D03*
X171958000Y-99618800D03*
X171958000Y-97078800D03*
X174498000Y-99618800D03*
X174498000Y-97078800D03*
X177038000Y-99618800D03*
X177038000Y-97078800D03*
X177038000Y-94361000D03*
X174498000Y-94361000D03*
X171958000Y-94361000D03*
X169418000Y-94361000D03*
X166878000Y-94361000D03*
X164338000Y-94361000D03*
X161798000Y-94361000D03*
X159258000Y-94361000D03*
X156718000Y-94361000D03*
X154178000Y-94323000D03*
X177038000Y-91821000D03*
X174498000Y-91821000D03*
X171958000Y-91821000D03*
X169418000Y-91821000D03*
X166878000Y-91821000D03*
X164338000Y-91821000D03*
X161798000Y-91821000D03*
X159258000Y-91821000D03*
X156718000Y-91821000D03*
X154178000Y-91821000D03*
X177038000Y-134493000D03*
X174498000Y-134493000D03*
X171958000Y-134493000D03*
X169418000Y-134493000D03*
X166878000Y-134493000D03*
X164338000Y-134493000D03*
X161798000Y-134493000D03*
X159258000Y-134493000D03*
X156718000Y-134493000D03*
X154178000Y-134493000D03*
X177038000Y-137033000D03*
X174498000Y-137033000D03*
X171958000Y-137033000D03*
X169418000Y-137033000D03*
X166878000Y-137033000D03*
X164338000Y-137033000D03*
X161798000Y-137033000D03*
X159258000Y-137033000D03*
X156718000Y-137033000D03*
X154178000Y-137033000D03*
D22*
X156486000Y-141996000D03*
X156486000Y-143246000D03*
X155236000Y-141996000D03*
X155236000Y-143246000D03*
X153986000Y-141996000D03*
X153986000Y-143246000D03*
X152736000Y-141996000D03*
X152736000Y-143246000D03*
X151486000Y-141996000D03*
X151486000Y-143246000D03*
D19*
X142748000Y-132080000D03*
X140208000Y-132080000D03*
X137668000Y-132080000D03*
X135128000Y-132080000D03*
D23*
X144018000Y-140716000D03*
X133858000Y-140716000D03*
X129669000Y-140720000D03*
D19*
X128524000Y-132080000D03*
X125984000Y-132080000D03*
X123444000Y-132080000D03*
D23*
X122299000Y-140720000D03*
D24*
X151638000Y-115189000D03*
X151638000Y-112903000D03*
D25*
X146786600Y-113335800D03*
X146786600Y-105334800D03*
M02*
