%
M48
M72
T01C0.0236
T02C0.0450
%
T01
X1220Y3745
X1220Y4245
X1220Y4745
X5720Y5245
X6220Y5245
X6720Y5245
X12220Y5745
X12720Y5745
X13220Y5745
X12720Y7745
X12720Y8245
X12220Y8245
X11220Y11245
X13220Y11245
X9970Y1245
T02
X15720Y2745
X15720Y3745
X15720Y4745
X15720Y5745
X15720Y6745
X1720Y8745
X1720Y9745
M30
