%
M48
M72
T01C0.0315
T02C0.0394
T03C0.0551
T04C0.0630
T05C0.0700
T06C0.1260
T07C0.2000
%
T01
X50695Y35042
X50195Y35792
X51195Y35792
X51695Y35042
X52195Y35792
X52695Y35042
X53195Y35792
X53695Y35042
X54195Y35792
X54695Y35042
X55195Y35792
X55695Y35042
X56195Y35792
X56695Y35042
X57195Y35792
X57695Y35042
X58195Y35792
X58695Y35042
X59195Y35792
X59695Y35042
X60195Y35792
X60695Y35042
X61195Y35792
X61695Y35042
X62195Y35792
X62695Y35042
X63195Y35792
X63695Y35042
X64195Y35792
X64695Y35042
X65195Y35792
X65695Y35042
X66195Y35792
X66695Y35042
X66695Y36542
X66195Y37292
X65695Y36542
X65195Y37292
X64695Y36542
X64195Y37292
X63695Y36542
X63195Y37292
X62695Y36542
X62195Y37292
X61695Y36542
X61195Y37292
X60695Y36542
X60195Y37292
X59695Y36542
X59195Y37292
X58695Y36542
X58195Y37292
X57695Y36542
X57195Y37292
X56695Y36542
X56195Y37292
X55695Y36542
X55195Y37292
X54695Y36542
X54195Y37292
X53695Y36542
X53195Y37292
X52695Y36542
X52195Y37292
X51695Y36542
X51195Y37292
X50695Y36542
X50195Y37292
T02
X19668Y5661
X20668Y5661
X21668Y5661
X22668Y5661
X23168Y6661
X22168Y6661
X21168Y6661
X20168Y6661
X20168Y15326
X21168Y15326
X22168Y15326
X23168Y15326
X22668Y16326
X21668Y16326
X20668Y16326
X19668Y16326
X41668Y16326
X42668Y16326
X43668Y16326
X44668Y16326
X45168Y15326
X44168Y15326
X43168Y15326
X42168Y15326
X50168Y16326
X51168Y16326
X52168Y16326
X53168Y16326
X53668Y15326
X52668Y15326
X51668Y15326
X50668Y15326
X58668Y16326
X59668Y16326
X60668Y16326
X61668Y16326
X62168Y15326
X61168Y15326
X60168Y15326
X59168Y15326
X67168Y16326
X68168Y16326
X69168Y16326
X70168Y16326
X70668Y15326
X69668Y15326
X68668Y15326
X67668Y15326
X75668Y16326
X76668Y16326
X77668Y16326
X78668Y16326
X79168Y15326
X78168Y15326
X77168Y15326
X76168Y15326
X84168Y16326
X85168Y16326
X86168Y16326
X87168Y16326
X87668Y15326
X86668Y15326
X85668Y15326
X84668Y15326
X75168Y22326
X74168Y22326
X73168Y22326
X72168Y22326
X72668Y23326
X73668Y23326
X74668Y23326
X75668Y23326
X67168Y23326
X66168Y23326
X65168Y23326
X64168Y23326
X64668Y22326
X65668Y22326
X66668Y22326
X63668Y22326
X58668Y23326
X57668Y23326
X56668Y23326
X55668Y23326
X56168Y22326
X57168Y22326
X58168Y22326
X55168Y22326
X50168Y23326
X49168Y23326
X48168Y23326
X47168Y23326
X47668Y22326
X48668Y22326
X49668Y22326
X46668Y22326
X45168Y30326
X44168Y30326
X43168Y30326
X42168Y30326
X42668Y31326
X43668Y31326
X44668Y31326
X45668Y31326
X50668Y30326
X51668Y30326
X52668Y30326
X53668Y30326
X54168Y31326
X53168Y31326
X52168Y31326
X51168Y31326
X59168Y30326
X60168Y30326
X61168Y30326
X62168Y30326
X62668Y31326
X61668Y31326
X60668Y31326
X59668Y31326
X67668Y30326
X68668Y30326
X69668Y30326
X70668Y30326
X71168Y31326
X70168Y31326
X69168Y31326
X68168Y31326
X76168Y32326
X77168Y32326
X78168Y32326
X79168Y32326
X79668Y33326
X78668Y33326
X77668Y33326
X76668Y33326
X77168Y38161
X78168Y38161
X79168Y38161
X79668Y39161
X78668Y39161
X77668Y39161
X76668Y39161
X76168Y38161
X70668Y40661
X69668Y40661
X68668Y40661
X67668Y40661
X68168Y41661
X69168Y41661
X70168Y41661
X71168Y41661
X62668Y41661
X61668Y41661
X60668Y41661
X59668Y41661
X60168Y40661
X61168Y40661
X62168Y40661
X59168Y40661
X54168Y41661
X53168Y41661
X52168Y41661
X51168Y41661
X51668Y40661
X52668Y40661
X53668Y40661
X50668Y40661
X45668Y41661
X44668Y41661
X43668Y41661
X42668Y41661
X43168Y40661
X44168Y40661
X45168Y40661
X42168Y40661
X55168Y48661
X56168Y48661
X57168Y48661
X58168Y48661
X58668Y49661
X57668Y49661
X56668Y49661
X55668Y49661
X63668Y48661
X64168Y49661
X65168Y49661
X66168Y49661
X67168Y49661
X66668Y48661
X65668Y48661
X64668Y48661
X72168Y48661
X73168Y48661
X73668Y49661
X74668Y49661
X75668Y49661
X75168Y48661
X74168Y48661
X72668Y49661
X70668Y6661
X69668Y6661
X68668Y6661
X67668Y6661
X68168Y5661
X69168Y5661
X70168Y5661
X67168Y5661
X62168Y6661
X61168Y6661
X60168Y6661
X59168Y6661
X59668Y5661
X60668Y5661
X61668Y5661
X58668Y5661
X53668Y6661
X52668Y6661
X51668Y6661
X50668Y6661
X51168Y5661
X52168Y5661
X53168Y5661
X50168Y5661
X45168Y6661
X44168Y6661
X43168Y6661
X42168Y6661
X42668Y5661
X43668Y5661
X44668Y5661
X41668Y5661
X75668Y5661
X76668Y5661
X77668Y5661
X78668Y5661
X79168Y6661
X78168Y6661
X77168Y6661
X76168Y6661
X84168Y5661
X85168Y5661
X86168Y5661
X87168Y5661
X87668Y6661
X86668Y6661
X85668Y6661
X84668Y6661
T03
X40523Y20693
X39113Y20693
X35623Y8993
X34213Y8993
X34213Y6493
X35623Y6493
X27823Y8893
X26413Y8893
T04
X30618Y13993
X33618Y13993
X33618Y16993
X30618Y16993
X22418Y27493
X19418Y27493
X19418Y30493
X22418Y30493
X22418Y38993
X19418Y38993
X19418Y41993
X22418Y41993
X22418Y50493
X19418Y50493
X19418Y53493
X22418Y53493
X84918Y53493
X87918Y53493
X87918Y50493
X84918Y50493
X84918Y41993
X87918Y41993
X87918Y38993
X84918Y38993
X84918Y30493
X87918Y30493
X87918Y27493
X84918Y27493
T05
X33418Y26493
X30918Y26493
X30918Y19993
X33418Y19993
X33418Y32993
X30918Y32993
X30918Y39493
X33418Y39493
X33418Y45993
X30918Y45993
X30918Y52493
X33418Y52493
T06
X43618Y51493
X41668Y44161
X46168Y44161
X50168Y44161
X54668Y44161
X58668Y44161
X63168Y44161
X67168Y44161
X71668Y44161
X75668Y41661
X80168Y41661
X76168Y52161
X71668Y52161
X67668Y52161
X63168Y52161
X59168Y52161
X54668Y52161
X75668Y29826
X71668Y27826
X67168Y27826
X63168Y27826
X58668Y27826
X54668Y27826
X50168Y27826
X46168Y27826
X41668Y27826
X46168Y19826
X50668Y19826
X54668Y19826
X59168Y19826
X63168Y19826
X67668Y19826
X71668Y19826
X76168Y19826
X75168Y12826
X79668Y12826
X83668Y12826
X88168Y12826
X88168Y9161
X83668Y9161
X79668Y9161
X75168Y9161
X71168Y9161
X66668Y9161
X62668Y9161
X58168Y9161
X54168Y9161
X49668Y9161
X45668Y9161
X41168Y9161
X41168Y12826
X45668Y12826
X49668Y12826
X54168Y12826
X58168Y12826
X62668Y12826
X66668Y12826
X71168Y12826
X80168Y29826
X23668Y12826
X19168Y12826
X19168Y9161
X23668Y9161
T07
X22318Y23093
X19518Y23093
X19518Y34593
X22318Y34593
X22318Y46093
X19518Y46093
X85018Y46093
X87818Y46093
X87818Y34593
X85018Y34593
X85018Y23093
X87818Y23093
M30
