G75*
%MOIN*%
%OFA0B0*%
%FSLAX24Y24*%
%IPPOS*%
%LPD*%
%AMOC8*
5,1,8,0,0,1.08239X$1,22.5*
%
%ADD10C,0.0000*%
%ADD11C,0.0060*%
%ADD12C,0.0040*%
%ADD13C,0.0160*%
%ADD14C,0.0050*%
%ADD15C,0.0120*%
D10*
X012418Y004993D02*
X012418Y054993D01*
X094918Y054993D01*
X094918Y004993D01*
X012418Y004993D01*
X018538Y009161D02*
X018540Y009211D01*
X018546Y009261D01*
X018556Y009310D01*
X018570Y009358D01*
X018587Y009405D01*
X018608Y009450D01*
X018633Y009494D01*
X018661Y009535D01*
X018693Y009574D01*
X018727Y009611D01*
X018764Y009645D01*
X018804Y009675D01*
X018846Y009702D01*
X018890Y009726D01*
X018936Y009747D01*
X018983Y009763D01*
X019031Y009776D01*
X019081Y009785D01*
X019130Y009790D01*
X019181Y009791D01*
X019231Y009788D01*
X019280Y009781D01*
X019329Y009770D01*
X019377Y009755D01*
X019423Y009737D01*
X019468Y009715D01*
X019511Y009689D01*
X019552Y009660D01*
X019591Y009628D01*
X019627Y009593D01*
X019659Y009555D01*
X019689Y009515D01*
X019716Y009472D01*
X019739Y009428D01*
X019758Y009382D01*
X019774Y009334D01*
X019786Y009285D01*
X019794Y009236D01*
X019798Y009186D01*
X019798Y009136D01*
X019794Y009086D01*
X019786Y009037D01*
X019774Y008988D01*
X019758Y008940D01*
X019739Y008894D01*
X019716Y008850D01*
X019689Y008807D01*
X019659Y008767D01*
X019627Y008729D01*
X019591Y008694D01*
X019552Y008662D01*
X019511Y008633D01*
X019468Y008607D01*
X019423Y008585D01*
X019377Y008567D01*
X019329Y008552D01*
X019280Y008541D01*
X019231Y008534D01*
X019181Y008531D01*
X019130Y008532D01*
X019081Y008537D01*
X019031Y008546D01*
X018983Y008559D01*
X018936Y008575D01*
X018890Y008596D01*
X018846Y008620D01*
X018804Y008647D01*
X018764Y008677D01*
X018727Y008711D01*
X018693Y008748D01*
X018661Y008787D01*
X018633Y008828D01*
X018608Y008872D01*
X018587Y008917D01*
X018570Y008964D01*
X018556Y009012D01*
X018546Y009061D01*
X018540Y009111D01*
X018538Y009161D01*
X023038Y009161D02*
X023040Y009211D01*
X023046Y009261D01*
X023056Y009310D01*
X023070Y009358D01*
X023087Y009405D01*
X023108Y009450D01*
X023133Y009494D01*
X023161Y009535D01*
X023193Y009574D01*
X023227Y009611D01*
X023264Y009645D01*
X023304Y009675D01*
X023346Y009702D01*
X023390Y009726D01*
X023436Y009747D01*
X023483Y009763D01*
X023531Y009776D01*
X023581Y009785D01*
X023630Y009790D01*
X023681Y009791D01*
X023731Y009788D01*
X023780Y009781D01*
X023829Y009770D01*
X023877Y009755D01*
X023923Y009737D01*
X023968Y009715D01*
X024011Y009689D01*
X024052Y009660D01*
X024091Y009628D01*
X024127Y009593D01*
X024159Y009555D01*
X024189Y009515D01*
X024216Y009472D01*
X024239Y009428D01*
X024258Y009382D01*
X024274Y009334D01*
X024286Y009285D01*
X024294Y009236D01*
X024298Y009186D01*
X024298Y009136D01*
X024294Y009086D01*
X024286Y009037D01*
X024274Y008988D01*
X024258Y008940D01*
X024239Y008894D01*
X024216Y008850D01*
X024189Y008807D01*
X024159Y008767D01*
X024127Y008729D01*
X024091Y008694D01*
X024052Y008662D01*
X024011Y008633D01*
X023968Y008607D01*
X023923Y008585D01*
X023877Y008567D01*
X023829Y008552D01*
X023780Y008541D01*
X023731Y008534D01*
X023681Y008531D01*
X023630Y008532D01*
X023581Y008537D01*
X023531Y008546D01*
X023483Y008559D01*
X023436Y008575D01*
X023390Y008596D01*
X023346Y008620D01*
X023304Y008647D01*
X023264Y008677D01*
X023227Y008711D01*
X023193Y008748D01*
X023161Y008787D01*
X023133Y008828D01*
X023108Y008872D01*
X023087Y008917D01*
X023070Y008964D01*
X023056Y009012D01*
X023046Y009061D01*
X023040Y009111D01*
X023038Y009161D01*
X023038Y012826D02*
X023040Y012876D01*
X023046Y012926D01*
X023056Y012975D01*
X023070Y013023D01*
X023087Y013070D01*
X023108Y013115D01*
X023133Y013159D01*
X023161Y013200D01*
X023193Y013239D01*
X023227Y013276D01*
X023264Y013310D01*
X023304Y013340D01*
X023346Y013367D01*
X023390Y013391D01*
X023436Y013412D01*
X023483Y013428D01*
X023531Y013441D01*
X023581Y013450D01*
X023630Y013455D01*
X023681Y013456D01*
X023731Y013453D01*
X023780Y013446D01*
X023829Y013435D01*
X023877Y013420D01*
X023923Y013402D01*
X023968Y013380D01*
X024011Y013354D01*
X024052Y013325D01*
X024091Y013293D01*
X024127Y013258D01*
X024159Y013220D01*
X024189Y013180D01*
X024216Y013137D01*
X024239Y013093D01*
X024258Y013047D01*
X024274Y012999D01*
X024286Y012950D01*
X024294Y012901D01*
X024298Y012851D01*
X024298Y012801D01*
X024294Y012751D01*
X024286Y012702D01*
X024274Y012653D01*
X024258Y012605D01*
X024239Y012559D01*
X024216Y012515D01*
X024189Y012472D01*
X024159Y012432D01*
X024127Y012394D01*
X024091Y012359D01*
X024052Y012327D01*
X024011Y012298D01*
X023968Y012272D01*
X023923Y012250D01*
X023877Y012232D01*
X023829Y012217D01*
X023780Y012206D01*
X023731Y012199D01*
X023681Y012196D01*
X023630Y012197D01*
X023581Y012202D01*
X023531Y012211D01*
X023483Y012224D01*
X023436Y012240D01*
X023390Y012261D01*
X023346Y012285D01*
X023304Y012312D01*
X023264Y012342D01*
X023227Y012376D01*
X023193Y012413D01*
X023161Y012452D01*
X023133Y012493D01*
X023108Y012537D01*
X023087Y012582D01*
X023070Y012629D01*
X023056Y012677D01*
X023046Y012726D01*
X023040Y012776D01*
X023038Y012826D01*
X018538Y012826D02*
X018540Y012876D01*
X018546Y012926D01*
X018556Y012975D01*
X018570Y013023D01*
X018587Y013070D01*
X018608Y013115D01*
X018633Y013159D01*
X018661Y013200D01*
X018693Y013239D01*
X018727Y013276D01*
X018764Y013310D01*
X018804Y013340D01*
X018846Y013367D01*
X018890Y013391D01*
X018936Y013412D01*
X018983Y013428D01*
X019031Y013441D01*
X019081Y013450D01*
X019130Y013455D01*
X019181Y013456D01*
X019231Y013453D01*
X019280Y013446D01*
X019329Y013435D01*
X019377Y013420D01*
X019423Y013402D01*
X019468Y013380D01*
X019511Y013354D01*
X019552Y013325D01*
X019591Y013293D01*
X019627Y013258D01*
X019659Y013220D01*
X019689Y013180D01*
X019716Y013137D01*
X019739Y013093D01*
X019758Y013047D01*
X019774Y012999D01*
X019786Y012950D01*
X019794Y012901D01*
X019798Y012851D01*
X019798Y012801D01*
X019794Y012751D01*
X019786Y012702D01*
X019774Y012653D01*
X019758Y012605D01*
X019739Y012559D01*
X019716Y012515D01*
X019689Y012472D01*
X019659Y012432D01*
X019627Y012394D01*
X019591Y012359D01*
X019552Y012327D01*
X019511Y012298D01*
X019468Y012272D01*
X019423Y012250D01*
X019377Y012232D01*
X019329Y012217D01*
X019280Y012206D01*
X019231Y012199D01*
X019181Y012196D01*
X019130Y012197D01*
X019081Y012202D01*
X019031Y012211D01*
X018983Y012224D01*
X018936Y012240D01*
X018890Y012261D01*
X018846Y012285D01*
X018804Y012312D01*
X018764Y012342D01*
X018727Y012376D01*
X018693Y012413D01*
X018661Y012452D01*
X018633Y012493D01*
X018608Y012537D01*
X018587Y012582D01*
X018570Y012629D01*
X018556Y012677D01*
X018546Y012726D01*
X018540Y012776D01*
X018538Y012826D01*
X040538Y012826D02*
X040540Y012876D01*
X040546Y012926D01*
X040556Y012975D01*
X040570Y013023D01*
X040587Y013070D01*
X040608Y013115D01*
X040633Y013159D01*
X040661Y013200D01*
X040693Y013239D01*
X040727Y013276D01*
X040764Y013310D01*
X040804Y013340D01*
X040846Y013367D01*
X040890Y013391D01*
X040936Y013412D01*
X040983Y013428D01*
X041031Y013441D01*
X041081Y013450D01*
X041130Y013455D01*
X041181Y013456D01*
X041231Y013453D01*
X041280Y013446D01*
X041329Y013435D01*
X041377Y013420D01*
X041423Y013402D01*
X041468Y013380D01*
X041511Y013354D01*
X041552Y013325D01*
X041591Y013293D01*
X041627Y013258D01*
X041659Y013220D01*
X041689Y013180D01*
X041716Y013137D01*
X041739Y013093D01*
X041758Y013047D01*
X041774Y012999D01*
X041786Y012950D01*
X041794Y012901D01*
X041798Y012851D01*
X041798Y012801D01*
X041794Y012751D01*
X041786Y012702D01*
X041774Y012653D01*
X041758Y012605D01*
X041739Y012559D01*
X041716Y012515D01*
X041689Y012472D01*
X041659Y012432D01*
X041627Y012394D01*
X041591Y012359D01*
X041552Y012327D01*
X041511Y012298D01*
X041468Y012272D01*
X041423Y012250D01*
X041377Y012232D01*
X041329Y012217D01*
X041280Y012206D01*
X041231Y012199D01*
X041181Y012196D01*
X041130Y012197D01*
X041081Y012202D01*
X041031Y012211D01*
X040983Y012224D01*
X040936Y012240D01*
X040890Y012261D01*
X040846Y012285D01*
X040804Y012312D01*
X040764Y012342D01*
X040727Y012376D01*
X040693Y012413D01*
X040661Y012452D01*
X040633Y012493D01*
X040608Y012537D01*
X040587Y012582D01*
X040570Y012629D01*
X040556Y012677D01*
X040546Y012726D01*
X040540Y012776D01*
X040538Y012826D01*
X040538Y009161D02*
X040540Y009211D01*
X040546Y009261D01*
X040556Y009310D01*
X040570Y009358D01*
X040587Y009405D01*
X040608Y009450D01*
X040633Y009494D01*
X040661Y009535D01*
X040693Y009574D01*
X040727Y009611D01*
X040764Y009645D01*
X040804Y009675D01*
X040846Y009702D01*
X040890Y009726D01*
X040936Y009747D01*
X040983Y009763D01*
X041031Y009776D01*
X041081Y009785D01*
X041130Y009790D01*
X041181Y009791D01*
X041231Y009788D01*
X041280Y009781D01*
X041329Y009770D01*
X041377Y009755D01*
X041423Y009737D01*
X041468Y009715D01*
X041511Y009689D01*
X041552Y009660D01*
X041591Y009628D01*
X041627Y009593D01*
X041659Y009555D01*
X041689Y009515D01*
X041716Y009472D01*
X041739Y009428D01*
X041758Y009382D01*
X041774Y009334D01*
X041786Y009285D01*
X041794Y009236D01*
X041798Y009186D01*
X041798Y009136D01*
X041794Y009086D01*
X041786Y009037D01*
X041774Y008988D01*
X041758Y008940D01*
X041739Y008894D01*
X041716Y008850D01*
X041689Y008807D01*
X041659Y008767D01*
X041627Y008729D01*
X041591Y008694D01*
X041552Y008662D01*
X041511Y008633D01*
X041468Y008607D01*
X041423Y008585D01*
X041377Y008567D01*
X041329Y008552D01*
X041280Y008541D01*
X041231Y008534D01*
X041181Y008531D01*
X041130Y008532D01*
X041081Y008537D01*
X041031Y008546D01*
X040983Y008559D01*
X040936Y008575D01*
X040890Y008596D01*
X040846Y008620D01*
X040804Y008647D01*
X040764Y008677D01*
X040727Y008711D01*
X040693Y008748D01*
X040661Y008787D01*
X040633Y008828D01*
X040608Y008872D01*
X040587Y008917D01*
X040570Y008964D01*
X040556Y009012D01*
X040546Y009061D01*
X040540Y009111D01*
X040538Y009161D01*
X045038Y009161D02*
X045040Y009211D01*
X045046Y009261D01*
X045056Y009310D01*
X045070Y009358D01*
X045087Y009405D01*
X045108Y009450D01*
X045133Y009494D01*
X045161Y009535D01*
X045193Y009574D01*
X045227Y009611D01*
X045264Y009645D01*
X045304Y009675D01*
X045346Y009702D01*
X045390Y009726D01*
X045436Y009747D01*
X045483Y009763D01*
X045531Y009776D01*
X045581Y009785D01*
X045630Y009790D01*
X045681Y009791D01*
X045731Y009788D01*
X045780Y009781D01*
X045829Y009770D01*
X045877Y009755D01*
X045923Y009737D01*
X045968Y009715D01*
X046011Y009689D01*
X046052Y009660D01*
X046091Y009628D01*
X046127Y009593D01*
X046159Y009555D01*
X046189Y009515D01*
X046216Y009472D01*
X046239Y009428D01*
X046258Y009382D01*
X046274Y009334D01*
X046286Y009285D01*
X046294Y009236D01*
X046298Y009186D01*
X046298Y009136D01*
X046294Y009086D01*
X046286Y009037D01*
X046274Y008988D01*
X046258Y008940D01*
X046239Y008894D01*
X046216Y008850D01*
X046189Y008807D01*
X046159Y008767D01*
X046127Y008729D01*
X046091Y008694D01*
X046052Y008662D01*
X046011Y008633D01*
X045968Y008607D01*
X045923Y008585D01*
X045877Y008567D01*
X045829Y008552D01*
X045780Y008541D01*
X045731Y008534D01*
X045681Y008531D01*
X045630Y008532D01*
X045581Y008537D01*
X045531Y008546D01*
X045483Y008559D01*
X045436Y008575D01*
X045390Y008596D01*
X045346Y008620D01*
X045304Y008647D01*
X045264Y008677D01*
X045227Y008711D01*
X045193Y008748D01*
X045161Y008787D01*
X045133Y008828D01*
X045108Y008872D01*
X045087Y008917D01*
X045070Y008964D01*
X045056Y009012D01*
X045046Y009061D01*
X045040Y009111D01*
X045038Y009161D01*
X049038Y009161D02*
X049040Y009211D01*
X049046Y009261D01*
X049056Y009310D01*
X049070Y009358D01*
X049087Y009405D01*
X049108Y009450D01*
X049133Y009494D01*
X049161Y009535D01*
X049193Y009574D01*
X049227Y009611D01*
X049264Y009645D01*
X049304Y009675D01*
X049346Y009702D01*
X049390Y009726D01*
X049436Y009747D01*
X049483Y009763D01*
X049531Y009776D01*
X049581Y009785D01*
X049630Y009790D01*
X049681Y009791D01*
X049731Y009788D01*
X049780Y009781D01*
X049829Y009770D01*
X049877Y009755D01*
X049923Y009737D01*
X049968Y009715D01*
X050011Y009689D01*
X050052Y009660D01*
X050091Y009628D01*
X050127Y009593D01*
X050159Y009555D01*
X050189Y009515D01*
X050216Y009472D01*
X050239Y009428D01*
X050258Y009382D01*
X050274Y009334D01*
X050286Y009285D01*
X050294Y009236D01*
X050298Y009186D01*
X050298Y009136D01*
X050294Y009086D01*
X050286Y009037D01*
X050274Y008988D01*
X050258Y008940D01*
X050239Y008894D01*
X050216Y008850D01*
X050189Y008807D01*
X050159Y008767D01*
X050127Y008729D01*
X050091Y008694D01*
X050052Y008662D01*
X050011Y008633D01*
X049968Y008607D01*
X049923Y008585D01*
X049877Y008567D01*
X049829Y008552D01*
X049780Y008541D01*
X049731Y008534D01*
X049681Y008531D01*
X049630Y008532D01*
X049581Y008537D01*
X049531Y008546D01*
X049483Y008559D01*
X049436Y008575D01*
X049390Y008596D01*
X049346Y008620D01*
X049304Y008647D01*
X049264Y008677D01*
X049227Y008711D01*
X049193Y008748D01*
X049161Y008787D01*
X049133Y008828D01*
X049108Y008872D01*
X049087Y008917D01*
X049070Y008964D01*
X049056Y009012D01*
X049046Y009061D01*
X049040Y009111D01*
X049038Y009161D01*
X053538Y009161D02*
X053540Y009211D01*
X053546Y009261D01*
X053556Y009310D01*
X053570Y009358D01*
X053587Y009405D01*
X053608Y009450D01*
X053633Y009494D01*
X053661Y009535D01*
X053693Y009574D01*
X053727Y009611D01*
X053764Y009645D01*
X053804Y009675D01*
X053846Y009702D01*
X053890Y009726D01*
X053936Y009747D01*
X053983Y009763D01*
X054031Y009776D01*
X054081Y009785D01*
X054130Y009790D01*
X054181Y009791D01*
X054231Y009788D01*
X054280Y009781D01*
X054329Y009770D01*
X054377Y009755D01*
X054423Y009737D01*
X054468Y009715D01*
X054511Y009689D01*
X054552Y009660D01*
X054591Y009628D01*
X054627Y009593D01*
X054659Y009555D01*
X054689Y009515D01*
X054716Y009472D01*
X054739Y009428D01*
X054758Y009382D01*
X054774Y009334D01*
X054786Y009285D01*
X054794Y009236D01*
X054798Y009186D01*
X054798Y009136D01*
X054794Y009086D01*
X054786Y009037D01*
X054774Y008988D01*
X054758Y008940D01*
X054739Y008894D01*
X054716Y008850D01*
X054689Y008807D01*
X054659Y008767D01*
X054627Y008729D01*
X054591Y008694D01*
X054552Y008662D01*
X054511Y008633D01*
X054468Y008607D01*
X054423Y008585D01*
X054377Y008567D01*
X054329Y008552D01*
X054280Y008541D01*
X054231Y008534D01*
X054181Y008531D01*
X054130Y008532D01*
X054081Y008537D01*
X054031Y008546D01*
X053983Y008559D01*
X053936Y008575D01*
X053890Y008596D01*
X053846Y008620D01*
X053804Y008647D01*
X053764Y008677D01*
X053727Y008711D01*
X053693Y008748D01*
X053661Y008787D01*
X053633Y008828D01*
X053608Y008872D01*
X053587Y008917D01*
X053570Y008964D01*
X053556Y009012D01*
X053546Y009061D01*
X053540Y009111D01*
X053538Y009161D01*
X057538Y009161D02*
X057540Y009211D01*
X057546Y009261D01*
X057556Y009310D01*
X057570Y009358D01*
X057587Y009405D01*
X057608Y009450D01*
X057633Y009494D01*
X057661Y009535D01*
X057693Y009574D01*
X057727Y009611D01*
X057764Y009645D01*
X057804Y009675D01*
X057846Y009702D01*
X057890Y009726D01*
X057936Y009747D01*
X057983Y009763D01*
X058031Y009776D01*
X058081Y009785D01*
X058130Y009790D01*
X058181Y009791D01*
X058231Y009788D01*
X058280Y009781D01*
X058329Y009770D01*
X058377Y009755D01*
X058423Y009737D01*
X058468Y009715D01*
X058511Y009689D01*
X058552Y009660D01*
X058591Y009628D01*
X058627Y009593D01*
X058659Y009555D01*
X058689Y009515D01*
X058716Y009472D01*
X058739Y009428D01*
X058758Y009382D01*
X058774Y009334D01*
X058786Y009285D01*
X058794Y009236D01*
X058798Y009186D01*
X058798Y009136D01*
X058794Y009086D01*
X058786Y009037D01*
X058774Y008988D01*
X058758Y008940D01*
X058739Y008894D01*
X058716Y008850D01*
X058689Y008807D01*
X058659Y008767D01*
X058627Y008729D01*
X058591Y008694D01*
X058552Y008662D01*
X058511Y008633D01*
X058468Y008607D01*
X058423Y008585D01*
X058377Y008567D01*
X058329Y008552D01*
X058280Y008541D01*
X058231Y008534D01*
X058181Y008531D01*
X058130Y008532D01*
X058081Y008537D01*
X058031Y008546D01*
X057983Y008559D01*
X057936Y008575D01*
X057890Y008596D01*
X057846Y008620D01*
X057804Y008647D01*
X057764Y008677D01*
X057727Y008711D01*
X057693Y008748D01*
X057661Y008787D01*
X057633Y008828D01*
X057608Y008872D01*
X057587Y008917D01*
X057570Y008964D01*
X057556Y009012D01*
X057546Y009061D01*
X057540Y009111D01*
X057538Y009161D01*
X062038Y009161D02*
X062040Y009211D01*
X062046Y009261D01*
X062056Y009310D01*
X062070Y009358D01*
X062087Y009405D01*
X062108Y009450D01*
X062133Y009494D01*
X062161Y009535D01*
X062193Y009574D01*
X062227Y009611D01*
X062264Y009645D01*
X062304Y009675D01*
X062346Y009702D01*
X062390Y009726D01*
X062436Y009747D01*
X062483Y009763D01*
X062531Y009776D01*
X062581Y009785D01*
X062630Y009790D01*
X062681Y009791D01*
X062731Y009788D01*
X062780Y009781D01*
X062829Y009770D01*
X062877Y009755D01*
X062923Y009737D01*
X062968Y009715D01*
X063011Y009689D01*
X063052Y009660D01*
X063091Y009628D01*
X063127Y009593D01*
X063159Y009555D01*
X063189Y009515D01*
X063216Y009472D01*
X063239Y009428D01*
X063258Y009382D01*
X063274Y009334D01*
X063286Y009285D01*
X063294Y009236D01*
X063298Y009186D01*
X063298Y009136D01*
X063294Y009086D01*
X063286Y009037D01*
X063274Y008988D01*
X063258Y008940D01*
X063239Y008894D01*
X063216Y008850D01*
X063189Y008807D01*
X063159Y008767D01*
X063127Y008729D01*
X063091Y008694D01*
X063052Y008662D01*
X063011Y008633D01*
X062968Y008607D01*
X062923Y008585D01*
X062877Y008567D01*
X062829Y008552D01*
X062780Y008541D01*
X062731Y008534D01*
X062681Y008531D01*
X062630Y008532D01*
X062581Y008537D01*
X062531Y008546D01*
X062483Y008559D01*
X062436Y008575D01*
X062390Y008596D01*
X062346Y008620D01*
X062304Y008647D01*
X062264Y008677D01*
X062227Y008711D01*
X062193Y008748D01*
X062161Y008787D01*
X062133Y008828D01*
X062108Y008872D01*
X062087Y008917D01*
X062070Y008964D01*
X062056Y009012D01*
X062046Y009061D01*
X062040Y009111D01*
X062038Y009161D01*
X066038Y009161D02*
X066040Y009211D01*
X066046Y009261D01*
X066056Y009310D01*
X066070Y009358D01*
X066087Y009405D01*
X066108Y009450D01*
X066133Y009494D01*
X066161Y009535D01*
X066193Y009574D01*
X066227Y009611D01*
X066264Y009645D01*
X066304Y009675D01*
X066346Y009702D01*
X066390Y009726D01*
X066436Y009747D01*
X066483Y009763D01*
X066531Y009776D01*
X066581Y009785D01*
X066630Y009790D01*
X066681Y009791D01*
X066731Y009788D01*
X066780Y009781D01*
X066829Y009770D01*
X066877Y009755D01*
X066923Y009737D01*
X066968Y009715D01*
X067011Y009689D01*
X067052Y009660D01*
X067091Y009628D01*
X067127Y009593D01*
X067159Y009555D01*
X067189Y009515D01*
X067216Y009472D01*
X067239Y009428D01*
X067258Y009382D01*
X067274Y009334D01*
X067286Y009285D01*
X067294Y009236D01*
X067298Y009186D01*
X067298Y009136D01*
X067294Y009086D01*
X067286Y009037D01*
X067274Y008988D01*
X067258Y008940D01*
X067239Y008894D01*
X067216Y008850D01*
X067189Y008807D01*
X067159Y008767D01*
X067127Y008729D01*
X067091Y008694D01*
X067052Y008662D01*
X067011Y008633D01*
X066968Y008607D01*
X066923Y008585D01*
X066877Y008567D01*
X066829Y008552D01*
X066780Y008541D01*
X066731Y008534D01*
X066681Y008531D01*
X066630Y008532D01*
X066581Y008537D01*
X066531Y008546D01*
X066483Y008559D01*
X066436Y008575D01*
X066390Y008596D01*
X066346Y008620D01*
X066304Y008647D01*
X066264Y008677D01*
X066227Y008711D01*
X066193Y008748D01*
X066161Y008787D01*
X066133Y008828D01*
X066108Y008872D01*
X066087Y008917D01*
X066070Y008964D01*
X066056Y009012D01*
X066046Y009061D01*
X066040Y009111D01*
X066038Y009161D01*
X070538Y009161D02*
X070540Y009211D01*
X070546Y009261D01*
X070556Y009310D01*
X070570Y009358D01*
X070587Y009405D01*
X070608Y009450D01*
X070633Y009494D01*
X070661Y009535D01*
X070693Y009574D01*
X070727Y009611D01*
X070764Y009645D01*
X070804Y009675D01*
X070846Y009702D01*
X070890Y009726D01*
X070936Y009747D01*
X070983Y009763D01*
X071031Y009776D01*
X071081Y009785D01*
X071130Y009790D01*
X071181Y009791D01*
X071231Y009788D01*
X071280Y009781D01*
X071329Y009770D01*
X071377Y009755D01*
X071423Y009737D01*
X071468Y009715D01*
X071511Y009689D01*
X071552Y009660D01*
X071591Y009628D01*
X071627Y009593D01*
X071659Y009555D01*
X071689Y009515D01*
X071716Y009472D01*
X071739Y009428D01*
X071758Y009382D01*
X071774Y009334D01*
X071786Y009285D01*
X071794Y009236D01*
X071798Y009186D01*
X071798Y009136D01*
X071794Y009086D01*
X071786Y009037D01*
X071774Y008988D01*
X071758Y008940D01*
X071739Y008894D01*
X071716Y008850D01*
X071689Y008807D01*
X071659Y008767D01*
X071627Y008729D01*
X071591Y008694D01*
X071552Y008662D01*
X071511Y008633D01*
X071468Y008607D01*
X071423Y008585D01*
X071377Y008567D01*
X071329Y008552D01*
X071280Y008541D01*
X071231Y008534D01*
X071181Y008531D01*
X071130Y008532D01*
X071081Y008537D01*
X071031Y008546D01*
X070983Y008559D01*
X070936Y008575D01*
X070890Y008596D01*
X070846Y008620D01*
X070804Y008647D01*
X070764Y008677D01*
X070727Y008711D01*
X070693Y008748D01*
X070661Y008787D01*
X070633Y008828D01*
X070608Y008872D01*
X070587Y008917D01*
X070570Y008964D01*
X070556Y009012D01*
X070546Y009061D01*
X070540Y009111D01*
X070538Y009161D01*
X074538Y009161D02*
X074540Y009211D01*
X074546Y009261D01*
X074556Y009310D01*
X074570Y009358D01*
X074587Y009405D01*
X074608Y009450D01*
X074633Y009494D01*
X074661Y009535D01*
X074693Y009574D01*
X074727Y009611D01*
X074764Y009645D01*
X074804Y009675D01*
X074846Y009702D01*
X074890Y009726D01*
X074936Y009747D01*
X074983Y009763D01*
X075031Y009776D01*
X075081Y009785D01*
X075130Y009790D01*
X075181Y009791D01*
X075231Y009788D01*
X075280Y009781D01*
X075329Y009770D01*
X075377Y009755D01*
X075423Y009737D01*
X075468Y009715D01*
X075511Y009689D01*
X075552Y009660D01*
X075591Y009628D01*
X075627Y009593D01*
X075659Y009555D01*
X075689Y009515D01*
X075716Y009472D01*
X075739Y009428D01*
X075758Y009382D01*
X075774Y009334D01*
X075786Y009285D01*
X075794Y009236D01*
X075798Y009186D01*
X075798Y009136D01*
X075794Y009086D01*
X075786Y009037D01*
X075774Y008988D01*
X075758Y008940D01*
X075739Y008894D01*
X075716Y008850D01*
X075689Y008807D01*
X075659Y008767D01*
X075627Y008729D01*
X075591Y008694D01*
X075552Y008662D01*
X075511Y008633D01*
X075468Y008607D01*
X075423Y008585D01*
X075377Y008567D01*
X075329Y008552D01*
X075280Y008541D01*
X075231Y008534D01*
X075181Y008531D01*
X075130Y008532D01*
X075081Y008537D01*
X075031Y008546D01*
X074983Y008559D01*
X074936Y008575D01*
X074890Y008596D01*
X074846Y008620D01*
X074804Y008647D01*
X074764Y008677D01*
X074727Y008711D01*
X074693Y008748D01*
X074661Y008787D01*
X074633Y008828D01*
X074608Y008872D01*
X074587Y008917D01*
X074570Y008964D01*
X074556Y009012D01*
X074546Y009061D01*
X074540Y009111D01*
X074538Y009161D01*
X079038Y009161D02*
X079040Y009211D01*
X079046Y009261D01*
X079056Y009310D01*
X079070Y009358D01*
X079087Y009405D01*
X079108Y009450D01*
X079133Y009494D01*
X079161Y009535D01*
X079193Y009574D01*
X079227Y009611D01*
X079264Y009645D01*
X079304Y009675D01*
X079346Y009702D01*
X079390Y009726D01*
X079436Y009747D01*
X079483Y009763D01*
X079531Y009776D01*
X079581Y009785D01*
X079630Y009790D01*
X079681Y009791D01*
X079731Y009788D01*
X079780Y009781D01*
X079829Y009770D01*
X079877Y009755D01*
X079923Y009737D01*
X079968Y009715D01*
X080011Y009689D01*
X080052Y009660D01*
X080091Y009628D01*
X080127Y009593D01*
X080159Y009555D01*
X080189Y009515D01*
X080216Y009472D01*
X080239Y009428D01*
X080258Y009382D01*
X080274Y009334D01*
X080286Y009285D01*
X080294Y009236D01*
X080298Y009186D01*
X080298Y009136D01*
X080294Y009086D01*
X080286Y009037D01*
X080274Y008988D01*
X080258Y008940D01*
X080239Y008894D01*
X080216Y008850D01*
X080189Y008807D01*
X080159Y008767D01*
X080127Y008729D01*
X080091Y008694D01*
X080052Y008662D01*
X080011Y008633D01*
X079968Y008607D01*
X079923Y008585D01*
X079877Y008567D01*
X079829Y008552D01*
X079780Y008541D01*
X079731Y008534D01*
X079681Y008531D01*
X079630Y008532D01*
X079581Y008537D01*
X079531Y008546D01*
X079483Y008559D01*
X079436Y008575D01*
X079390Y008596D01*
X079346Y008620D01*
X079304Y008647D01*
X079264Y008677D01*
X079227Y008711D01*
X079193Y008748D01*
X079161Y008787D01*
X079133Y008828D01*
X079108Y008872D01*
X079087Y008917D01*
X079070Y008964D01*
X079056Y009012D01*
X079046Y009061D01*
X079040Y009111D01*
X079038Y009161D01*
X083038Y009161D02*
X083040Y009211D01*
X083046Y009261D01*
X083056Y009310D01*
X083070Y009358D01*
X083087Y009405D01*
X083108Y009450D01*
X083133Y009494D01*
X083161Y009535D01*
X083193Y009574D01*
X083227Y009611D01*
X083264Y009645D01*
X083304Y009675D01*
X083346Y009702D01*
X083390Y009726D01*
X083436Y009747D01*
X083483Y009763D01*
X083531Y009776D01*
X083581Y009785D01*
X083630Y009790D01*
X083681Y009791D01*
X083731Y009788D01*
X083780Y009781D01*
X083829Y009770D01*
X083877Y009755D01*
X083923Y009737D01*
X083968Y009715D01*
X084011Y009689D01*
X084052Y009660D01*
X084091Y009628D01*
X084127Y009593D01*
X084159Y009555D01*
X084189Y009515D01*
X084216Y009472D01*
X084239Y009428D01*
X084258Y009382D01*
X084274Y009334D01*
X084286Y009285D01*
X084294Y009236D01*
X084298Y009186D01*
X084298Y009136D01*
X084294Y009086D01*
X084286Y009037D01*
X084274Y008988D01*
X084258Y008940D01*
X084239Y008894D01*
X084216Y008850D01*
X084189Y008807D01*
X084159Y008767D01*
X084127Y008729D01*
X084091Y008694D01*
X084052Y008662D01*
X084011Y008633D01*
X083968Y008607D01*
X083923Y008585D01*
X083877Y008567D01*
X083829Y008552D01*
X083780Y008541D01*
X083731Y008534D01*
X083681Y008531D01*
X083630Y008532D01*
X083581Y008537D01*
X083531Y008546D01*
X083483Y008559D01*
X083436Y008575D01*
X083390Y008596D01*
X083346Y008620D01*
X083304Y008647D01*
X083264Y008677D01*
X083227Y008711D01*
X083193Y008748D01*
X083161Y008787D01*
X083133Y008828D01*
X083108Y008872D01*
X083087Y008917D01*
X083070Y008964D01*
X083056Y009012D01*
X083046Y009061D01*
X083040Y009111D01*
X083038Y009161D01*
X087538Y009161D02*
X087540Y009211D01*
X087546Y009261D01*
X087556Y009310D01*
X087570Y009358D01*
X087587Y009405D01*
X087608Y009450D01*
X087633Y009494D01*
X087661Y009535D01*
X087693Y009574D01*
X087727Y009611D01*
X087764Y009645D01*
X087804Y009675D01*
X087846Y009702D01*
X087890Y009726D01*
X087936Y009747D01*
X087983Y009763D01*
X088031Y009776D01*
X088081Y009785D01*
X088130Y009790D01*
X088181Y009791D01*
X088231Y009788D01*
X088280Y009781D01*
X088329Y009770D01*
X088377Y009755D01*
X088423Y009737D01*
X088468Y009715D01*
X088511Y009689D01*
X088552Y009660D01*
X088591Y009628D01*
X088627Y009593D01*
X088659Y009555D01*
X088689Y009515D01*
X088716Y009472D01*
X088739Y009428D01*
X088758Y009382D01*
X088774Y009334D01*
X088786Y009285D01*
X088794Y009236D01*
X088798Y009186D01*
X088798Y009136D01*
X088794Y009086D01*
X088786Y009037D01*
X088774Y008988D01*
X088758Y008940D01*
X088739Y008894D01*
X088716Y008850D01*
X088689Y008807D01*
X088659Y008767D01*
X088627Y008729D01*
X088591Y008694D01*
X088552Y008662D01*
X088511Y008633D01*
X088468Y008607D01*
X088423Y008585D01*
X088377Y008567D01*
X088329Y008552D01*
X088280Y008541D01*
X088231Y008534D01*
X088181Y008531D01*
X088130Y008532D01*
X088081Y008537D01*
X088031Y008546D01*
X087983Y008559D01*
X087936Y008575D01*
X087890Y008596D01*
X087846Y008620D01*
X087804Y008647D01*
X087764Y008677D01*
X087727Y008711D01*
X087693Y008748D01*
X087661Y008787D01*
X087633Y008828D01*
X087608Y008872D01*
X087587Y008917D01*
X087570Y008964D01*
X087556Y009012D01*
X087546Y009061D01*
X087540Y009111D01*
X087538Y009161D01*
X087538Y012826D02*
X087540Y012876D01*
X087546Y012926D01*
X087556Y012975D01*
X087570Y013023D01*
X087587Y013070D01*
X087608Y013115D01*
X087633Y013159D01*
X087661Y013200D01*
X087693Y013239D01*
X087727Y013276D01*
X087764Y013310D01*
X087804Y013340D01*
X087846Y013367D01*
X087890Y013391D01*
X087936Y013412D01*
X087983Y013428D01*
X088031Y013441D01*
X088081Y013450D01*
X088130Y013455D01*
X088181Y013456D01*
X088231Y013453D01*
X088280Y013446D01*
X088329Y013435D01*
X088377Y013420D01*
X088423Y013402D01*
X088468Y013380D01*
X088511Y013354D01*
X088552Y013325D01*
X088591Y013293D01*
X088627Y013258D01*
X088659Y013220D01*
X088689Y013180D01*
X088716Y013137D01*
X088739Y013093D01*
X088758Y013047D01*
X088774Y012999D01*
X088786Y012950D01*
X088794Y012901D01*
X088798Y012851D01*
X088798Y012801D01*
X088794Y012751D01*
X088786Y012702D01*
X088774Y012653D01*
X088758Y012605D01*
X088739Y012559D01*
X088716Y012515D01*
X088689Y012472D01*
X088659Y012432D01*
X088627Y012394D01*
X088591Y012359D01*
X088552Y012327D01*
X088511Y012298D01*
X088468Y012272D01*
X088423Y012250D01*
X088377Y012232D01*
X088329Y012217D01*
X088280Y012206D01*
X088231Y012199D01*
X088181Y012196D01*
X088130Y012197D01*
X088081Y012202D01*
X088031Y012211D01*
X087983Y012224D01*
X087936Y012240D01*
X087890Y012261D01*
X087846Y012285D01*
X087804Y012312D01*
X087764Y012342D01*
X087727Y012376D01*
X087693Y012413D01*
X087661Y012452D01*
X087633Y012493D01*
X087608Y012537D01*
X087587Y012582D01*
X087570Y012629D01*
X087556Y012677D01*
X087546Y012726D01*
X087540Y012776D01*
X087538Y012826D01*
X083038Y012826D02*
X083040Y012876D01*
X083046Y012926D01*
X083056Y012975D01*
X083070Y013023D01*
X083087Y013070D01*
X083108Y013115D01*
X083133Y013159D01*
X083161Y013200D01*
X083193Y013239D01*
X083227Y013276D01*
X083264Y013310D01*
X083304Y013340D01*
X083346Y013367D01*
X083390Y013391D01*
X083436Y013412D01*
X083483Y013428D01*
X083531Y013441D01*
X083581Y013450D01*
X083630Y013455D01*
X083681Y013456D01*
X083731Y013453D01*
X083780Y013446D01*
X083829Y013435D01*
X083877Y013420D01*
X083923Y013402D01*
X083968Y013380D01*
X084011Y013354D01*
X084052Y013325D01*
X084091Y013293D01*
X084127Y013258D01*
X084159Y013220D01*
X084189Y013180D01*
X084216Y013137D01*
X084239Y013093D01*
X084258Y013047D01*
X084274Y012999D01*
X084286Y012950D01*
X084294Y012901D01*
X084298Y012851D01*
X084298Y012801D01*
X084294Y012751D01*
X084286Y012702D01*
X084274Y012653D01*
X084258Y012605D01*
X084239Y012559D01*
X084216Y012515D01*
X084189Y012472D01*
X084159Y012432D01*
X084127Y012394D01*
X084091Y012359D01*
X084052Y012327D01*
X084011Y012298D01*
X083968Y012272D01*
X083923Y012250D01*
X083877Y012232D01*
X083829Y012217D01*
X083780Y012206D01*
X083731Y012199D01*
X083681Y012196D01*
X083630Y012197D01*
X083581Y012202D01*
X083531Y012211D01*
X083483Y012224D01*
X083436Y012240D01*
X083390Y012261D01*
X083346Y012285D01*
X083304Y012312D01*
X083264Y012342D01*
X083227Y012376D01*
X083193Y012413D01*
X083161Y012452D01*
X083133Y012493D01*
X083108Y012537D01*
X083087Y012582D01*
X083070Y012629D01*
X083056Y012677D01*
X083046Y012726D01*
X083040Y012776D01*
X083038Y012826D01*
X079038Y012826D02*
X079040Y012876D01*
X079046Y012926D01*
X079056Y012975D01*
X079070Y013023D01*
X079087Y013070D01*
X079108Y013115D01*
X079133Y013159D01*
X079161Y013200D01*
X079193Y013239D01*
X079227Y013276D01*
X079264Y013310D01*
X079304Y013340D01*
X079346Y013367D01*
X079390Y013391D01*
X079436Y013412D01*
X079483Y013428D01*
X079531Y013441D01*
X079581Y013450D01*
X079630Y013455D01*
X079681Y013456D01*
X079731Y013453D01*
X079780Y013446D01*
X079829Y013435D01*
X079877Y013420D01*
X079923Y013402D01*
X079968Y013380D01*
X080011Y013354D01*
X080052Y013325D01*
X080091Y013293D01*
X080127Y013258D01*
X080159Y013220D01*
X080189Y013180D01*
X080216Y013137D01*
X080239Y013093D01*
X080258Y013047D01*
X080274Y012999D01*
X080286Y012950D01*
X080294Y012901D01*
X080298Y012851D01*
X080298Y012801D01*
X080294Y012751D01*
X080286Y012702D01*
X080274Y012653D01*
X080258Y012605D01*
X080239Y012559D01*
X080216Y012515D01*
X080189Y012472D01*
X080159Y012432D01*
X080127Y012394D01*
X080091Y012359D01*
X080052Y012327D01*
X080011Y012298D01*
X079968Y012272D01*
X079923Y012250D01*
X079877Y012232D01*
X079829Y012217D01*
X079780Y012206D01*
X079731Y012199D01*
X079681Y012196D01*
X079630Y012197D01*
X079581Y012202D01*
X079531Y012211D01*
X079483Y012224D01*
X079436Y012240D01*
X079390Y012261D01*
X079346Y012285D01*
X079304Y012312D01*
X079264Y012342D01*
X079227Y012376D01*
X079193Y012413D01*
X079161Y012452D01*
X079133Y012493D01*
X079108Y012537D01*
X079087Y012582D01*
X079070Y012629D01*
X079056Y012677D01*
X079046Y012726D01*
X079040Y012776D01*
X079038Y012826D01*
X074538Y012826D02*
X074540Y012876D01*
X074546Y012926D01*
X074556Y012975D01*
X074570Y013023D01*
X074587Y013070D01*
X074608Y013115D01*
X074633Y013159D01*
X074661Y013200D01*
X074693Y013239D01*
X074727Y013276D01*
X074764Y013310D01*
X074804Y013340D01*
X074846Y013367D01*
X074890Y013391D01*
X074936Y013412D01*
X074983Y013428D01*
X075031Y013441D01*
X075081Y013450D01*
X075130Y013455D01*
X075181Y013456D01*
X075231Y013453D01*
X075280Y013446D01*
X075329Y013435D01*
X075377Y013420D01*
X075423Y013402D01*
X075468Y013380D01*
X075511Y013354D01*
X075552Y013325D01*
X075591Y013293D01*
X075627Y013258D01*
X075659Y013220D01*
X075689Y013180D01*
X075716Y013137D01*
X075739Y013093D01*
X075758Y013047D01*
X075774Y012999D01*
X075786Y012950D01*
X075794Y012901D01*
X075798Y012851D01*
X075798Y012801D01*
X075794Y012751D01*
X075786Y012702D01*
X075774Y012653D01*
X075758Y012605D01*
X075739Y012559D01*
X075716Y012515D01*
X075689Y012472D01*
X075659Y012432D01*
X075627Y012394D01*
X075591Y012359D01*
X075552Y012327D01*
X075511Y012298D01*
X075468Y012272D01*
X075423Y012250D01*
X075377Y012232D01*
X075329Y012217D01*
X075280Y012206D01*
X075231Y012199D01*
X075181Y012196D01*
X075130Y012197D01*
X075081Y012202D01*
X075031Y012211D01*
X074983Y012224D01*
X074936Y012240D01*
X074890Y012261D01*
X074846Y012285D01*
X074804Y012312D01*
X074764Y012342D01*
X074727Y012376D01*
X074693Y012413D01*
X074661Y012452D01*
X074633Y012493D01*
X074608Y012537D01*
X074587Y012582D01*
X074570Y012629D01*
X074556Y012677D01*
X074546Y012726D01*
X074540Y012776D01*
X074538Y012826D01*
X070538Y012826D02*
X070540Y012876D01*
X070546Y012926D01*
X070556Y012975D01*
X070570Y013023D01*
X070587Y013070D01*
X070608Y013115D01*
X070633Y013159D01*
X070661Y013200D01*
X070693Y013239D01*
X070727Y013276D01*
X070764Y013310D01*
X070804Y013340D01*
X070846Y013367D01*
X070890Y013391D01*
X070936Y013412D01*
X070983Y013428D01*
X071031Y013441D01*
X071081Y013450D01*
X071130Y013455D01*
X071181Y013456D01*
X071231Y013453D01*
X071280Y013446D01*
X071329Y013435D01*
X071377Y013420D01*
X071423Y013402D01*
X071468Y013380D01*
X071511Y013354D01*
X071552Y013325D01*
X071591Y013293D01*
X071627Y013258D01*
X071659Y013220D01*
X071689Y013180D01*
X071716Y013137D01*
X071739Y013093D01*
X071758Y013047D01*
X071774Y012999D01*
X071786Y012950D01*
X071794Y012901D01*
X071798Y012851D01*
X071798Y012801D01*
X071794Y012751D01*
X071786Y012702D01*
X071774Y012653D01*
X071758Y012605D01*
X071739Y012559D01*
X071716Y012515D01*
X071689Y012472D01*
X071659Y012432D01*
X071627Y012394D01*
X071591Y012359D01*
X071552Y012327D01*
X071511Y012298D01*
X071468Y012272D01*
X071423Y012250D01*
X071377Y012232D01*
X071329Y012217D01*
X071280Y012206D01*
X071231Y012199D01*
X071181Y012196D01*
X071130Y012197D01*
X071081Y012202D01*
X071031Y012211D01*
X070983Y012224D01*
X070936Y012240D01*
X070890Y012261D01*
X070846Y012285D01*
X070804Y012312D01*
X070764Y012342D01*
X070727Y012376D01*
X070693Y012413D01*
X070661Y012452D01*
X070633Y012493D01*
X070608Y012537D01*
X070587Y012582D01*
X070570Y012629D01*
X070556Y012677D01*
X070546Y012726D01*
X070540Y012776D01*
X070538Y012826D01*
X066038Y012826D02*
X066040Y012876D01*
X066046Y012926D01*
X066056Y012975D01*
X066070Y013023D01*
X066087Y013070D01*
X066108Y013115D01*
X066133Y013159D01*
X066161Y013200D01*
X066193Y013239D01*
X066227Y013276D01*
X066264Y013310D01*
X066304Y013340D01*
X066346Y013367D01*
X066390Y013391D01*
X066436Y013412D01*
X066483Y013428D01*
X066531Y013441D01*
X066581Y013450D01*
X066630Y013455D01*
X066681Y013456D01*
X066731Y013453D01*
X066780Y013446D01*
X066829Y013435D01*
X066877Y013420D01*
X066923Y013402D01*
X066968Y013380D01*
X067011Y013354D01*
X067052Y013325D01*
X067091Y013293D01*
X067127Y013258D01*
X067159Y013220D01*
X067189Y013180D01*
X067216Y013137D01*
X067239Y013093D01*
X067258Y013047D01*
X067274Y012999D01*
X067286Y012950D01*
X067294Y012901D01*
X067298Y012851D01*
X067298Y012801D01*
X067294Y012751D01*
X067286Y012702D01*
X067274Y012653D01*
X067258Y012605D01*
X067239Y012559D01*
X067216Y012515D01*
X067189Y012472D01*
X067159Y012432D01*
X067127Y012394D01*
X067091Y012359D01*
X067052Y012327D01*
X067011Y012298D01*
X066968Y012272D01*
X066923Y012250D01*
X066877Y012232D01*
X066829Y012217D01*
X066780Y012206D01*
X066731Y012199D01*
X066681Y012196D01*
X066630Y012197D01*
X066581Y012202D01*
X066531Y012211D01*
X066483Y012224D01*
X066436Y012240D01*
X066390Y012261D01*
X066346Y012285D01*
X066304Y012312D01*
X066264Y012342D01*
X066227Y012376D01*
X066193Y012413D01*
X066161Y012452D01*
X066133Y012493D01*
X066108Y012537D01*
X066087Y012582D01*
X066070Y012629D01*
X066056Y012677D01*
X066046Y012726D01*
X066040Y012776D01*
X066038Y012826D01*
X062038Y012826D02*
X062040Y012876D01*
X062046Y012926D01*
X062056Y012975D01*
X062070Y013023D01*
X062087Y013070D01*
X062108Y013115D01*
X062133Y013159D01*
X062161Y013200D01*
X062193Y013239D01*
X062227Y013276D01*
X062264Y013310D01*
X062304Y013340D01*
X062346Y013367D01*
X062390Y013391D01*
X062436Y013412D01*
X062483Y013428D01*
X062531Y013441D01*
X062581Y013450D01*
X062630Y013455D01*
X062681Y013456D01*
X062731Y013453D01*
X062780Y013446D01*
X062829Y013435D01*
X062877Y013420D01*
X062923Y013402D01*
X062968Y013380D01*
X063011Y013354D01*
X063052Y013325D01*
X063091Y013293D01*
X063127Y013258D01*
X063159Y013220D01*
X063189Y013180D01*
X063216Y013137D01*
X063239Y013093D01*
X063258Y013047D01*
X063274Y012999D01*
X063286Y012950D01*
X063294Y012901D01*
X063298Y012851D01*
X063298Y012801D01*
X063294Y012751D01*
X063286Y012702D01*
X063274Y012653D01*
X063258Y012605D01*
X063239Y012559D01*
X063216Y012515D01*
X063189Y012472D01*
X063159Y012432D01*
X063127Y012394D01*
X063091Y012359D01*
X063052Y012327D01*
X063011Y012298D01*
X062968Y012272D01*
X062923Y012250D01*
X062877Y012232D01*
X062829Y012217D01*
X062780Y012206D01*
X062731Y012199D01*
X062681Y012196D01*
X062630Y012197D01*
X062581Y012202D01*
X062531Y012211D01*
X062483Y012224D01*
X062436Y012240D01*
X062390Y012261D01*
X062346Y012285D01*
X062304Y012312D01*
X062264Y012342D01*
X062227Y012376D01*
X062193Y012413D01*
X062161Y012452D01*
X062133Y012493D01*
X062108Y012537D01*
X062087Y012582D01*
X062070Y012629D01*
X062056Y012677D01*
X062046Y012726D01*
X062040Y012776D01*
X062038Y012826D01*
X057538Y012826D02*
X057540Y012876D01*
X057546Y012926D01*
X057556Y012975D01*
X057570Y013023D01*
X057587Y013070D01*
X057608Y013115D01*
X057633Y013159D01*
X057661Y013200D01*
X057693Y013239D01*
X057727Y013276D01*
X057764Y013310D01*
X057804Y013340D01*
X057846Y013367D01*
X057890Y013391D01*
X057936Y013412D01*
X057983Y013428D01*
X058031Y013441D01*
X058081Y013450D01*
X058130Y013455D01*
X058181Y013456D01*
X058231Y013453D01*
X058280Y013446D01*
X058329Y013435D01*
X058377Y013420D01*
X058423Y013402D01*
X058468Y013380D01*
X058511Y013354D01*
X058552Y013325D01*
X058591Y013293D01*
X058627Y013258D01*
X058659Y013220D01*
X058689Y013180D01*
X058716Y013137D01*
X058739Y013093D01*
X058758Y013047D01*
X058774Y012999D01*
X058786Y012950D01*
X058794Y012901D01*
X058798Y012851D01*
X058798Y012801D01*
X058794Y012751D01*
X058786Y012702D01*
X058774Y012653D01*
X058758Y012605D01*
X058739Y012559D01*
X058716Y012515D01*
X058689Y012472D01*
X058659Y012432D01*
X058627Y012394D01*
X058591Y012359D01*
X058552Y012327D01*
X058511Y012298D01*
X058468Y012272D01*
X058423Y012250D01*
X058377Y012232D01*
X058329Y012217D01*
X058280Y012206D01*
X058231Y012199D01*
X058181Y012196D01*
X058130Y012197D01*
X058081Y012202D01*
X058031Y012211D01*
X057983Y012224D01*
X057936Y012240D01*
X057890Y012261D01*
X057846Y012285D01*
X057804Y012312D01*
X057764Y012342D01*
X057727Y012376D01*
X057693Y012413D01*
X057661Y012452D01*
X057633Y012493D01*
X057608Y012537D01*
X057587Y012582D01*
X057570Y012629D01*
X057556Y012677D01*
X057546Y012726D01*
X057540Y012776D01*
X057538Y012826D01*
X053538Y012826D02*
X053540Y012876D01*
X053546Y012926D01*
X053556Y012975D01*
X053570Y013023D01*
X053587Y013070D01*
X053608Y013115D01*
X053633Y013159D01*
X053661Y013200D01*
X053693Y013239D01*
X053727Y013276D01*
X053764Y013310D01*
X053804Y013340D01*
X053846Y013367D01*
X053890Y013391D01*
X053936Y013412D01*
X053983Y013428D01*
X054031Y013441D01*
X054081Y013450D01*
X054130Y013455D01*
X054181Y013456D01*
X054231Y013453D01*
X054280Y013446D01*
X054329Y013435D01*
X054377Y013420D01*
X054423Y013402D01*
X054468Y013380D01*
X054511Y013354D01*
X054552Y013325D01*
X054591Y013293D01*
X054627Y013258D01*
X054659Y013220D01*
X054689Y013180D01*
X054716Y013137D01*
X054739Y013093D01*
X054758Y013047D01*
X054774Y012999D01*
X054786Y012950D01*
X054794Y012901D01*
X054798Y012851D01*
X054798Y012801D01*
X054794Y012751D01*
X054786Y012702D01*
X054774Y012653D01*
X054758Y012605D01*
X054739Y012559D01*
X054716Y012515D01*
X054689Y012472D01*
X054659Y012432D01*
X054627Y012394D01*
X054591Y012359D01*
X054552Y012327D01*
X054511Y012298D01*
X054468Y012272D01*
X054423Y012250D01*
X054377Y012232D01*
X054329Y012217D01*
X054280Y012206D01*
X054231Y012199D01*
X054181Y012196D01*
X054130Y012197D01*
X054081Y012202D01*
X054031Y012211D01*
X053983Y012224D01*
X053936Y012240D01*
X053890Y012261D01*
X053846Y012285D01*
X053804Y012312D01*
X053764Y012342D01*
X053727Y012376D01*
X053693Y012413D01*
X053661Y012452D01*
X053633Y012493D01*
X053608Y012537D01*
X053587Y012582D01*
X053570Y012629D01*
X053556Y012677D01*
X053546Y012726D01*
X053540Y012776D01*
X053538Y012826D01*
X049038Y012826D02*
X049040Y012876D01*
X049046Y012926D01*
X049056Y012975D01*
X049070Y013023D01*
X049087Y013070D01*
X049108Y013115D01*
X049133Y013159D01*
X049161Y013200D01*
X049193Y013239D01*
X049227Y013276D01*
X049264Y013310D01*
X049304Y013340D01*
X049346Y013367D01*
X049390Y013391D01*
X049436Y013412D01*
X049483Y013428D01*
X049531Y013441D01*
X049581Y013450D01*
X049630Y013455D01*
X049681Y013456D01*
X049731Y013453D01*
X049780Y013446D01*
X049829Y013435D01*
X049877Y013420D01*
X049923Y013402D01*
X049968Y013380D01*
X050011Y013354D01*
X050052Y013325D01*
X050091Y013293D01*
X050127Y013258D01*
X050159Y013220D01*
X050189Y013180D01*
X050216Y013137D01*
X050239Y013093D01*
X050258Y013047D01*
X050274Y012999D01*
X050286Y012950D01*
X050294Y012901D01*
X050298Y012851D01*
X050298Y012801D01*
X050294Y012751D01*
X050286Y012702D01*
X050274Y012653D01*
X050258Y012605D01*
X050239Y012559D01*
X050216Y012515D01*
X050189Y012472D01*
X050159Y012432D01*
X050127Y012394D01*
X050091Y012359D01*
X050052Y012327D01*
X050011Y012298D01*
X049968Y012272D01*
X049923Y012250D01*
X049877Y012232D01*
X049829Y012217D01*
X049780Y012206D01*
X049731Y012199D01*
X049681Y012196D01*
X049630Y012197D01*
X049581Y012202D01*
X049531Y012211D01*
X049483Y012224D01*
X049436Y012240D01*
X049390Y012261D01*
X049346Y012285D01*
X049304Y012312D01*
X049264Y012342D01*
X049227Y012376D01*
X049193Y012413D01*
X049161Y012452D01*
X049133Y012493D01*
X049108Y012537D01*
X049087Y012582D01*
X049070Y012629D01*
X049056Y012677D01*
X049046Y012726D01*
X049040Y012776D01*
X049038Y012826D01*
X045038Y012826D02*
X045040Y012876D01*
X045046Y012926D01*
X045056Y012975D01*
X045070Y013023D01*
X045087Y013070D01*
X045108Y013115D01*
X045133Y013159D01*
X045161Y013200D01*
X045193Y013239D01*
X045227Y013276D01*
X045264Y013310D01*
X045304Y013340D01*
X045346Y013367D01*
X045390Y013391D01*
X045436Y013412D01*
X045483Y013428D01*
X045531Y013441D01*
X045581Y013450D01*
X045630Y013455D01*
X045681Y013456D01*
X045731Y013453D01*
X045780Y013446D01*
X045829Y013435D01*
X045877Y013420D01*
X045923Y013402D01*
X045968Y013380D01*
X046011Y013354D01*
X046052Y013325D01*
X046091Y013293D01*
X046127Y013258D01*
X046159Y013220D01*
X046189Y013180D01*
X046216Y013137D01*
X046239Y013093D01*
X046258Y013047D01*
X046274Y012999D01*
X046286Y012950D01*
X046294Y012901D01*
X046298Y012851D01*
X046298Y012801D01*
X046294Y012751D01*
X046286Y012702D01*
X046274Y012653D01*
X046258Y012605D01*
X046239Y012559D01*
X046216Y012515D01*
X046189Y012472D01*
X046159Y012432D01*
X046127Y012394D01*
X046091Y012359D01*
X046052Y012327D01*
X046011Y012298D01*
X045968Y012272D01*
X045923Y012250D01*
X045877Y012232D01*
X045829Y012217D01*
X045780Y012206D01*
X045731Y012199D01*
X045681Y012196D01*
X045630Y012197D01*
X045581Y012202D01*
X045531Y012211D01*
X045483Y012224D01*
X045436Y012240D01*
X045390Y012261D01*
X045346Y012285D01*
X045304Y012312D01*
X045264Y012342D01*
X045227Y012376D01*
X045193Y012413D01*
X045161Y012452D01*
X045133Y012493D01*
X045108Y012537D01*
X045087Y012582D01*
X045070Y012629D01*
X045056Y012677D01*
X045046Y012726D01*
X045040Y012776D01*
X045038Y012826D01*
X045538Y019826D02*
X045540Y019876D01*
X045546Y019926D01*
X045556Y019975D01*
X045570Y020023D01*
X045587Y020070D01*
X045608Y020115D01*
X045633Y020159D01*
X045661Y020200D01*
X045693Y020239D01*
X045727Y020276D01*
X045764Y020310D01*
X045804Y020340D01*
X045846Y020367D01*
X045890Y020391D01*
X045936Y020412D01*
X045983Y020428D01*
X046031Y020441D01*
X046081Y020450D01*
X046130Y020455D01*
X046181Y020456D01*
X046231Y020453D01*
X046280Y020446D01*
X046329Y020435D01*
X046377Y020420D01*
X046423Y020402D01*
X046468Y020380D01*
X046511Y020354D01*
X046552Y020325D01*
X046591Y020293D01*
X046627Y020258D01*
X046659Y020220D01*
X046689Y020180D01*
X046716Y020137D01*
X046739Y020093D01*
X046758Y020047D01*
X046774Y019999D01*
X046786Y019950D01*
X046794Y019901D01*
X046798Y019851D01*
X046798Y019801D01*
X046794Y019751D01*
X046786Y019702D01*
X046774Y019653D01*
X046758Y019605D01*
X046739Y019559D01*
X046716Y019515D01*
X046689Y019472D01*
X046659Y019432D01*
X046627Y019394D01*
X046591Y019359D01*
X046552Y019327D01*
X046511Y019298D01*
X046468Y019272D01*
X046423Y019250D01*
X046377Y019232D01*
X046329Y019217D01*
X046280Y019206D01*
X046231Y019199D01*
X046181Y019196D01*
X046130Y019197D01*
X046081Y019202D01*
X046031Y019211D01*
X045983Y019224D01*
X045936Y019240D01*
X045890Y019261D01*
X045846Y019285D01*
X045804Y019312D01*
X045764Y019342D01*
X045727Y019376D01*
X045693Y019413D01*
X045661Y019452D01*
X045633Y019493D01*
X045608Y019537D01*
X045587Y019582D01*
X045570Y019629D01*
X045556Y019677D01*
X045546Y019726D01*
X045540Y019776D01*
X045538Y019826D01*
X050038Y019826D02*
X050040Y019876D01*
X050046Y019926D01*
X050056Y019975D01*
X050070Y020023D01*
X050087Y020070D01*
X050108Y020115D01*
X050133Y020159D01*
X050161Y020200D01*
X050193Y020239D01*
X050227Y020276D01*
X050264Y020310D01*
X050304Y020340D01*
X050346Y020367D01*
X050390Y020391D01*
X050436Y020412D01*
X050483Y020428D01*
X050531Y020441D01*
X050581Y020450D01*
X050630Y020455D01*
X050681Y020456D01*
X050731Y020453D01*
X050780Y020446D01*
X050829Y020435D01*
X050877Y020420D01*
X050923Y020402D01*
X050968Y020380D01*
X051011Y020354D01*
X051052Y020325D01*
X051091Y020293D01*
X051127Y020258D01*
X051159Y020220D01*
X051189Y020180D01*
X051216Y020137D01*
X051239Y020093D01*
X051258Y020047D01*
X051274Y019999D01*
X051286Y019950D01*
X051294Y019901D01*
X051298Y019851D01*
X051298Y019801D01*
X051294Y019751D01*
X051286Y019702D01*
X051274Y019653D01*
X051258Y019605D01*
X051239Y019559D01*
X051216Y019515D01*
X051189Y019472D01*
X051159Y019432D01*
X051127Y019394D01*
X051091Y019359D01*
X051052Y019327D01*
X051011Y019298D01*
X050968Y019272D01*
X050923Y019250D01*
X050877Y019232D01*
X050829Y019217D01*
X050780Y019206D01*
X050731Y019199D01*
X050681Y019196D01*
X050630Y019197D01*
X050581Y019202D01*
X050531Y019211D01*
X050483Y019224D01*
X050436Y019240D01*
X050390Y019261D01*
X050346Y019285D01*
X050304Y019312D01*
X050264Y019342D01*
X050227Y019376D01*
X050193Y019413D01*
X050161Y019452D01*
X050133Y019493D01*
X050108Y019537D01*
X050087Y019582D01*
X050070Y019629D01*
X050056Y019677D01*
X050046Y019726D01*
X050040Y019776D01*
X050038Y019826D01*
X054038Y019826D02*
X054040Y019876D01*
X054046Y019926D01*
X054056Y019975D01*
X054070Y020023D01*
X054087Y020070D01*
X054108Y020115D01*
X054133Y020159D01*
X054161Y020200D01*
X054193Y020239D01*
X054227Y020276D01*
X054264Y020310D01*
X054304Y020340D01*
X054346Y020367D01*
X054390Y020391D01*
X054436Y020412D01*
X054483Y020428D01*
X054531Y020441D01*
X054581Y020450D01*
X054630Y020455D01*
X054681Y020456D01*
X054731Y020453D01*
X054780Y020446D01*
X054829Y020435D01*
X054877Y020420D01*
X054923Y020402D01*
X054968Y020380D01*
X055011Y020354D01*
X055052Y020325D01*
X055091Y020293D01*
X055127Y020258D01*
X055159Y020220D01*
X055189Y020180D01*
X055216Y020137D01*
X055239Y020093D01*
X055258Y020047D01*
X055274Y019999D01*
X055286Y019950D01*
X055294Y019901D01*
X055298Y019851D01*
X055298Y019801D01*
X055294Y019751D01*
X055286Y019702D01*
X055274Y019653D01*
X055258Y019605D01*
X055239Y019559D01*
X055216Y019515D01*
X055189Y019472D01*
X055159Y019432D01*
X055127Y019394D01*
X055091Y019359D01*
X055052Y019327D01*
X055011Y019298D01*
X054968Y019272D01*
X054923Y019250D01*
X054877Y019232D01*
X054829Y019217D01*
X054780Y019206D01*
X054731Y019199D01*
X054681Y019196D01*
X054630Y019197D01*
X054581Y019202D01*
X054531Y019211D01*
X054483Y019224D01*
X054436Y019240D01*
X054390Y019261D01*
X054346Y019285D01*
X054304Y019312D01*
X054264Y019342D01*
X054227Y019376D01*
X054193Y019413D01*
X054161Y019452D01*
X054133Y019493D01*
X054108Y019537D01*
X054087Y019582D01*
X054070Y019629D01*
X054056Y019677D01*
X054046Y019726D01*
X054040Y019776D01*
X054038Y019826D01*
X058538Y019826D02*
X058540Y019876D01*
X058546Y019926D01*
X058556Y019975D01*
X058570Y020023D01*
X058587Y020070D01*
X058608Y020115D01*
X058633Y020159D01*
X058661Y020200D01*
X058693Y020239D01*
X058727Y020276D01*
X058764Y020310D01*
X058804Y020340D01*
X058846Y020367D01*
X058890Y020391D01*
X058936Y020412D01*
X058983Y020428D01*
X059031Y020441D01*
X059081Y020450D01*
X059130Y020455D01*
X059181Y020456D01*
X059231Y020453D01*
X059280Y020446D01*
X059329Y020435D01*
X059377Y020420D01*
X059423Y020402D01*
X059468Y020380D01*
X059511Y020354D01*
X059552Y020325D01*
X059591Y020293D01*
X059627Y020258D01*
X059659Y020220D01*
X059689Y020180D01*
X059716Y020137D01*
X059739Y020093D01*
X059758Y020047D01*
X059774Y019999D01*
X059786Y019950D01*
X059794Y019901D01*
X059798Y019851D01*
X059798Y019801D01*
X059794Y019751D01*
X059786Y019702D01*
X059774Y019653D01*
X059758Y019605D01*
X059739Y019559D01*
X059716Y019515D01*
X059689Y019472D01*
X059659Y019432D01*
X059627Y019394D01*
X059591Y019359D01*
X059552Y019327D01*
X059511Y019298D01*
X059468Y019272D01*
X059423Y019250D01*
X059377Y019232D01*
X059329Y019217D01*
X059280Y019206D01*
X059231Y019199D01*
X059181Y019196D01*
X059130Y019197D01*
X059081Y019202D01*
X059031Y019211D01*
X058983Y019224D01*
X058936Y019240D01*
X058890Y019261D01*
X058846Y019285D01*
X058804Y019312D01*
X058764Y019342D01*
X058727Y019376D01*
X058693Y019413D01*
X058661Y019452D01*
X058633Y019493D01*
X058608Y019537D01*
X058587Y019582D01*
X058570Y019629D01*
X058556Y019677D01*
X058546Y019726D01*
X058540Y019776D01*
X058538Y019826D01*
X062538Y019826D02*
X062540Y019876D01*
X062546Y019926D01*
X062556Y019975D01*
X062570Y020023D01*
X062587Y020070D01*
X062608Y020115D01*
X062633Y020159D01*
X062661Y020200D01*
X062693Y020239D01*
X062727Y020276D01*
X062764Y020310D01*
X062804Y020340D01*
X062846Y020367D01*
X062890Y020391D01*
X062936Y020412D01*
X062983Y020428D01*
X063031Y020441D01*
X063081Y020450D01*
X063130Y020455D01*
X063181Y020456D01*
X063231Y020453D01*
X063280Y020446D01*
X063329Y020435D01*
X063377Y020420D01*
X063423Y020402D01*
X063468Y020380D01*
X063511Y020354D01*
X063552Y020325D01*
X063591Y020293D01*
X063627Y020258D01*
X063659Y020220D01*
X063689Y020180D01*
X063716Y020137D01*
X063739Y020093D01*
X063758Y020047D01*
X063774Y019999D01*
X063786Y019950D01*
X063794Y019901D01*
X063798Y019851D01*
X063798Y019801D01*
X063794Y019751D01*
X063786Y019702D01*
X063774Y019653D01*
X063758Y019605D01*
X063739Y019559D01*
X063716Y019515D01*
X063689Y019472D01*
X063659Y019432D01*
X063627Y019394D01*
X063591Y019359D01*
X063552Y019327D01*
X063511Y019298D01*
X063468Y019272D01*
X063423Y019250D01*
X063377Y019232D01*
X063329Y019217D01*
X063280Y019206D01*
X063231Y019199D01*
X063181Y019196D01*
X063130Y019197D01*
X063081Y019202D01*
X063031Y019211D01*
X062983Y019224D01*
X062936Y019240D01*
X062890Y019261D01*
X062846Y019285D01*
X062804Y019312D01*
X062764Y019342D01*
X062727Y019376D01*
X062693Y019413D01*
X062661Y019452D01*
X062633Y019493D01*
X062608Y019537D01*
X062587Y019582D01*
X062570Y019629D01*
X062556Y019677D01*
X062546Y019726D01*
X062540Y019776D01*
X062538Y019826D01*
X067038Y019826D02*
X067040Y019876D01*
X067046Y019926D01*
X067056Y019975D01*
X067070Y020023D01*
X067087Y020070D01*
X067108Y020115D01*
X067133Y020159D01*
X067161Y020200D01*
X067193Y020239D01*
X067227Y020276D01*
X067264Y020310D01*
X067304Y020340D01*
X067346Y020367D01*
X067390Y020391D01*
X067436Y020412D01*
X067483Y020428D01*
X067531Y020441D01*
X067581Y020450D01*
X067630Y020455D01*
X067681Y020456D01*
X067731Y020453D01*
X067780Y020446D01*
X067829Y020435D01*
X067877Y020420D01*
X067923Y020402D01*
X067968Y020380D01*
X068011Y020354D01*
X068052Y020325D01*
X068091Y020293D01*
X068127Y020258D01*
X068159Y020220D01*
X068189Y020180D01*
X068216Y020137D01*
X068239Y020093D01*
X068258Y020047D01*
X068274Y019999D01*
X068286Y019950D01*
X068294Y019901D01*
X068298Y019851D01*
X068298Y019801D01*
X068294Y019751D01*
X068286Y019702D01*
X068274Y019653D01*
X068258Y019605D01*
X068239Y019559D01*
X068216Y019515D01*
X068189Y019472D01*
X068159Y019432D01*
X068127Y019394D01*
X068091Y019359D01*
X068052Y019327D01*
X068011Y019298D01*
X067968Y019272D01*
X067923Y019250D01*
X067877Y019232D01*
X067829Y019217D01*
X067780Y019206D01*
X067731Y019199D01*
X067681Y019196D01*
X067630Y019197D01*
X067581Y019202D01*
X067531Y019211D01*
X067483Y019224D01*
X067436Y019240D01*
X067390Y019261D01*
X067346Y019285D01*
X067304Y019312D01*
X067264Y019342D01*
X067227Y019376D01*
X067193Y019413D01*
X067161Y019452D01*
X067133Y019493D01*
X067108Y019537D01*
X067087Y019582D01*
X067070Y019629D01*
X067056Y019677D01*
X067046Y019726D01*
X067040Y019776D01*
X067038Y019826D01*
X071038Y019826D02*
X071040Y019876D01*
X071046Y019926D01*
X071056Y019975D01*
X071070Y020023D01*
X071087Y020070D01*
X071108Y020115D01*
X071133Y020159D01*
X071161Y020200D01*
X071193Y020239D01*
X071227Y020276D01*
X071264Y020310D01*
X071304Y020340D01*
X071346Y020367D01*
X071390Y020391D01*
X071436Y020412D01*
X071483Y020428D01*
X071531Y020441D01*
X071581Y020450D01*
X071630Y020455D01*
X071681Y020456D01*
X071731Y020453D01*
X071780Y020446D01*
X071829Y020435D01*
X071877Y020420D01*
X071923Y020402D01*
X071968Y020380D01*
X072011Y020354D01*
X072052Y020325D01*
X072091Y020293D01*
X072127Y020258D01*
X072159Y020220D01*
X072189Y020180D01*
X072216Y020137D01*
X072239Y020093D01*
X072258Y020047D01*
X072274Y019999D01*
X072286Y019950D01*
X072294Y019901D01*
X072298Y019851D01*
X072298Y019801D01*
X072294Y019751D01*
X072286Y019702D01*
X072274Y019653D01*
X072258Y019605D01*
X072239Y019559D01*
X072216Y019515D01*
X072189Y019472D01*
X072159Y019432D01*
X072127Y019394D01*
X072091Y019359D01*
X072052Y019327D01*
X072011Y019298D01*
X071968Y019272D01*
X071923Y019250D01*
X071877Y019232D01*
X071829Y019217D01*
X071780Y019206D01*
X071731Y019199D01*
X071681Y019196D01*
X071630Y019197D01*
X071581Y019202D01*
X071531Y019211D01*
X071483Y019224D01*
X071436Y019240D01*
X071390Y019261D01*
X071346Y019285D01*
X071304Y019312D01*
X071264Y019342D01*
X071227Y019376D01*
X071193Y019413D01*
X071161Y019452D01*
X071133Y019493D01*
X071108Y019537D01*
X071087Y019582D01*
X071070Y019629D01*
X071056Y019677D01*
X071046Y019726D01*
X071040Y019776D01*
X071038Y019826D01*
X075538Y019826D02*
X075540Y019876D01*
X075546Y019926D01*
X075556Y019975D01*
X075570Y020023D01*
X075587Y020070D01*
X075608Y020115D01*
X075633Y020159D01*
X075661Y020200D01*
X075693Y020239D01*
X075727Y020276D01*
X075764Y020310D01*
X075804Y020340D01*
X075846Y020367D01*
X075890Y020391D01*
X075936Y020412D01*
X075983Y020428D01*
X076031Y020441D01*
X076081Y020450D01*
X076130Y020455D01*
X076181Y020456D01*
X076231Y020453D01*
X076280Y020446D01*
X076329Y020435D01*
X076377Y020420D01*
X076423Y020402D01*
X076468Y020380D01*
X076511Y020354D01*
X076552Y020325D01*
X076591Y020293D01*
X076627Y020258D01*
X076659Y020220D01*
X076689Y020180D01*
X076716Y020137D01*
X076739Y020093D01*
X076758Y020047D01*
X076774Y019999D01*
X076786Y019950D01*
X076794Y019901D01*
X076798Y019851D01*
X076798Y019801D01*
X076794Y019751D01*
X076786Y019702D01*
X076774Y019653D01*
X076758Y019605D01*
X076739Y019559D01*
X076716Y019515D01*
X076689Y019472D01*
X076659Y019432D01*
X076627Y019394D01*
X076591Y019359D01*
X076552Y019327D01*
X076511Y019298D01*
X076468Y019272D01*
X076423Y019250D01*
X076377Y019232D01*
X076329Y019217D01*
X076280Y019206D01*
X076231Y019199D01*
X076181Y019196D01*
X076130Y019197D01*
X076081Y019202D01*
X076031Y019211D01*
X075983Y019224D01*
X075936Y019240D01*
X075890Y019261D01*
X075846Y019285D01*
X075804Y019312D01*
X075764Y019342D01*
X075727Y019376D01*
X075693Y019413D01*
X075661Y019452D01*
X075633Y019493D01*
X075608Y019537D01*
X075587Y019582D01*
X075570Y019629D01*
X075556Y019677D01*
X075546Y019726D01*
X075540Y019776D01*
X075538Y019826D01*
X071038Y027826D02*
X071040Y027876D01*
X071046Y027926D01*
X071056Y027975D01*
X071070Y028023D01*
X071087Y028070D01*
X071108Y028115D01*
X071133Y028159D01*
X071161Y028200D01*
X071193Y028239D01*
X071227Y028276D01*
X071264Y028310D01*
X071304Y028340D01*
X071346Y028367D01*
X071390Y028391D01*
X071436Y028412D01*
X071483Y028428D01*
X071531Y028441D01*
X071581Y028450D01*
X071630Y028455D01*
X071681Y028456D01*
X071731Y028453D01*
X071780Y028446D01*
X071829Y028435D01*
X071877Y028420D01*
X071923Y028402D01*
X071968Y028380D01*
X072011Y028354D01*
X072052Y028325D01*
X072091Y028293D01*
X072127Y028258D01*
X072159Y028220D01*
X072189Y028180D01*
X072216Y028137D01*
X072239Y028093D01*
X072258Y028047D01*
X072274Y027999D01*
X072286Y027950D01*
X072294Y027901D01*
X072298Y027851D01*
X072298Y027801D01*
X072294Y027751D01*
X072286Y027702D01*
X072274Y027653D01*
X072258Y027605D01*
X072239Y027559D01*
X072216Y027515D01*
X072189Y027472D01*
X072159Y027432D01*
X072127Y027394D01*
X072091Y027359D01*
X072052Y027327D01*
X072011Y027298D01*
X071968Y027272D01*
X071923Y027250D01*
X071877Y027232D01*
X071829Y027217D01*
X071780Y027206D01*
X071731Y027199D01*
X071681Y027196D01*
X071630Y027197D01*
X071581Y027202D01*
X071531Y027211D01*
X071483Y027224D01*
X071436Y027240D01*
X071390Y027261D01*
X071346Y027285D01*
X071304Y027312D01*
X071264Y027342D01*
X071227Y027376D01*
X071193Y027413D01*
X071161Y027452D01*
X071133Y027493D01*
X071108Y027537D01*
X071087Y027582D01*
X071070Y027629D01*
X071056Y027677D01*
X071046Y027726D01*
X071040Y027776D01*
X071038Y027826D01*
X066538Y027826D02*
X066540Y027876D01*
X066546Y027926D01*
X066556Y027975D01*
X066570Y028023D01*
X066587Y028070D01*
X066608Y028115D01*
X066633Y028159D01*
X066661Y028200D01*
X066693Y028239D01*
X066727Y028276D01*
X066764Y028310D01*
X066804Y028340D01*
X066846Y028367D01*
X066890Y028391D01*
X066936Y028412D01*
X066983Y028428D01*
X067031Y028441D01*
X067081Y028450D01*
X067130Y028455D01*
X067181Y028456D01*
X067231Y028453D01*
X067280Y028446D01*
X067329Y028435D01*
X067377Y028420D01*
X067423Y028402D01*
X067468Y028380D01*
X067511Y028354D01*
X067552Y028325D01*
X067591Y028293D01*
X067627Y028258D01*
X067659Y028220D01*
X067689Y028180D01*
X067716Y028137D01*
X067739Y028093D01*
X067758Y028047D01*
X067774Y027999D01*
X067786Y027950D01*
X067794Y027901D01*
X067798Y027851D01*
X067798Y027801D01*
X067794Y027751D01*
X067786Y027702D01*
X067774Y027653D01*
X067758Y027605D01*
X067739Y027559D01*
X067716Y027515D01*
X067689Y027472D01*
X067659Y027432D01*
X067627Y027394D01*
X067591Y027359D01*
X067552Y027327D01*
X067511Y027298D01*
X067468Y027272D01*
X067423Y027250D01*
X067377Y027232D01*
X067329Y027217D01*
X067280Y027206D01*
X067231Y027199D01*
X067181Y027196D01*
X067130Y027197D01*
X067081Y027202D01*
X067031Y027211D01*
X066983Y027224D01*
X066936Y027240D01*
X066890Y027261D01*
X066846Y027285D01*
X066804Y027312D01*
X066764Y027342D01*
X066727Y027376D01*
X066693Y027413D01*
X066661Y027452D01*
X066633Y027493D01*
X066608Y027537D01*
X066587Y027582D01*
X066570Y027629D01*
X066556Y027677D01*
X066546Y027726D01*
X066540Y027776D01*
X066538Y027826D01*
X062538Y027826D02*
X062540Y027876D01*
X062546Y027926D01*
X062556Y027975D01*
X062570Y028023D01*
X062587Y028070D01*
X062608Y028115D01*
X062633Y028159D01*
X062661Y028200D01*
X062693Y028239D01*
X062727Y028276D01*
X062764Y028310D01*
X062804Y028340D01*
X062846Y028367D01*
X062890Y028391D01*
X062936Y028412D01*
X062983Y028428D01*
X063031Y028441D01*
X063081Y028450D01*
X063130Y028455D01*
X063181Y028456D01*
X063231Y028453D01*
X063280Y028446D01*
X063329Y028435D01*
X063377Y028420D01*
X063423Y028402D01*
X063468Y028380D01*
X063511Y028354D01*
X063552Y028325D01*
X063591Y028293D01*
X063627Y028258D01*
X063659Y028220D01*
X063689Y028180D01*
X063716Y028137D01*
X063739Y028093D01*
X063758Y028047D01*
X063774Y027999D01*
X063786Y027950D01*
X063794Y027901D01*
X063798Y027851D01*
X063798Y027801D01*
X063794Y027751D01*
X063786Y027702D01*
X063774Y027653D01*
X063758Y027605D01*
X063739Y027559D01*
X063716Y027515D01*
X063689Y027472D01*
X063659Y027432D01*
X063627Y027394D01*
X063591Y027359D01*
X063552Y027327D01*
X063511Y027298D01*
X063468Y027272D01*
X063423Y027250D01*
X063377Y027232D01*
X063329Y027217D01*
X063280Y027206D01*
X063231Y027199D01*
X063181Y027196D01*
X063130Y027197D01*
X063081Y027202D01*
X063031Y027211D01*
X062983Y027224D01*
X062936Y027240D01*
X062890Y027261D01*
X062846Y027285D01*
X062804Y027312D01*
X062764Y027342D01*
X062727Y027376D01*
X062693Y027413D01*
X062661Y027452D01*
X062633Y027493D01*
X062608Y027537D01*
X062587Y027582D01*
X062570Y027629D01*
X062556Y027677D01*
X062546Y027726D01*
X062540Y027776D01*
X062538Y027826D01*
X058038Y027826D02*
X058040Y027876D01*
X058046Y027926D01*
X058056Y027975D01*
X058070Y028023D01*
X058087Y028070D01*
X058108Y028115D01*
X058133Y028159D01*
X058161Y028200D01*
X058193Y028239D01*
X058227Y028276D01*
X058264Y028310D01*
X058304Y028340D01*
X058346Y028367D01*
X058390Y028391D01*
X058436Y028412D01*
X058483Y028428D01*
X058531Y028441D01*
X058581Y028450D01*
X058630Y028455D01*
X058681Y028456D01*
X058731Y028453D01*
X058780Y028446D01*
X058829Y028435D01*
X058877Y028420D01*
X058923Y028402D01*
X058968Y028380D01*
X059011Y028354D01*
X059052Y028325D01*
X059091Y028293D01*
X059127Y028258D01*
X059159Y028220D01*
X059189Y028180D01*
X059216Y028137D01*
X059239Y028093D01*
X059258Y028047D01*
X059274Y027999D01*
X059286Y027950D01*
X059294Y027901D01*
X059298Y027851D01*
X059298Y027801D01*
X059294Y027751D01*
X059286Y027702D01*
X059274Y027653D01*
X059258Y027605D01*
X059239Y027559D01*
X059216Y027515D01*
X059189Y027472D01*
X059159Y027432D01*
X059127Y027394D01*
X059091Y027359D01*
X059052Y027327D01*
X059011Y027298D01*
X058968Y027272D01*
X058923Y027250D01*
X058877Y027232D01*
X058829Y027217D01*
X058780Y027206D01*
X058731Y027199D01*
X058681Y027196D01*
X058630Y027197D01*
X058581Y027202D01*
X058531Y027211D01*
X058483Y027224D01*
X058436Y027240D01*
X058390Y027261D01*
X058346Y027285D01*
X058304Y027312D01*
X058264Y027342D01*
X058227Y027376D01*
X058193Y027413D01*
X058161Y027452D01*
X058133Y027493D01*
X058108Y027537D01*
X058087Y027582D01*
X058070Y027629D01*
X058056Y027677D01*
X058046Y027726D01*
X058040Y027776D01*
X058038Y027826D01*
X054038Y027826D02*
X054040Y027876D01*
X054046Y027926D01*
X054056Y027975D01*
X054070Y028023D01*
X054087Y028070D01*
X054108Y028115D01*
X054133Y028159D01*
X054161Y028200D01*
X054193Y028239D01*
X054227Y028276D01*
X054264Y028310D01*
X054304Y028340D01*
X054346Y028367D01*
X054390Y028391D01*
X054436Y028412D01*
X054483Y028428D01*
X054531Y028441D01*
X054581Y028450D01*
X054630Y028455D01*
X054681Y028456D01*
X054731Y028453D01*
X054780Y028446D01*
X054829Y028435D01*
X054877Y028420D01*
X054923Y028402D01*
X054968Y028380D01*
X055011Y028354D01*
X055052Y028325D01*
X055091Y028293D01*
X055127Y028258D01*
X055159Y028220D01*
X055189Y028180D01*
X055216Y028137D01*
X055239Y028093D01*
X055258Y028047D01*
X055274Y027999D01*
X055286Y027950D01*
X055294Y027901D01*
X055298Y027851D01*
X055298Y027801D01*
X055294Y027751D01*
X055286Y027702D01*
X055274Y027653D01*
X055258Y027605D01*
X055239Y027559D01*
X055216Y027515D01*
X055189Y027472D01*
X055159Y027432D01*
X055127Y027394D01*
X055091Y027359D01*
X055052Y027327D01*
X055011Y027298D01*
X054968Y027272D01*
X054923Y027250D01*
X054877Y027232D01*
X054829Y027217D01*
X054780Y027206D01*
X054731Y027199D01*
X054681Y027196D01*
X054630Y027197D01*
X054581Y027202D01*
X054531Y027211D01*
X054483Y027224D01*
X054436Y027240D01*
X054390Y027261D01*
X054346Y027285D01*
X054304Y027312D01*
X054264Y027342D01*
X054227Y027376D01*
X054193Y027413D01*
X054161Y027452D01*
X054133Y027493D01*
X054108Y027537D01*
X054087Y027582D01*
X054070Y027629D01*
X054056Y027677D01*
X054046Y027726D01*
X054040Y027776D01*
X054038Y027826D01*
X049538Y027826D02*
X049540Y027876D01*
X049546Y027926D01*
X049556Y027975D01*
X049570Y028023D01*
X049587Y028070D01*
X049608Y028115D01*
X049633Y028159D01*
X049661Y028200D01*
X049693Y028239D01*
X049727Y028276D01*
X049764Y028310D01*
X049804Y028340D01*
X049846Y028367D01*
X049890Y028391D01*
X049936Y028412D01*
X049983Y028428D01*
X050031Y028441D01*
X050081Y028450D01*
X050130Y028455D01*
X050181Y028456D01*
X050231Y028453D01*
X050280Y028446D01*
X050329Y028435D01*
X050377Y028420D01*
X050423Y028402D01*
X050468Y028380D01*
X050511Y028354D01*
X050552Y028325D01*
X050591Y028293D01*
X050627Y028258D01*
X050659Y028220D01*
X050689Y028180D01*
X050716Y028137D01*
X050739Y028093D01*
X050758Y028047D01*
X050774Y027999D01*
X050786Y027950D01*
X050794Y027901D01*
X050798Y027851D01*
X050798Y027801D01*
X050794Y027751D01*
X050786Y027702D01*
X050774Y027653D01*
X050758Y027605D01*
X050739Y027559D01*
X050716Y027515D01*
X050689Y027472D01*
X050659Y027432D01*
X050627Y027394D01*
X050591Y027359D01*
X050552Y027327D01*
X050511Y027298D01*
X050468Y027272D01*
X050423Y027250D01*
X050377Y027232D01*
X050329Y027217D01*
X050280Y027206D01*
X050231Y027199D01*
X050181Y027196D01*
X050130Y027197D01*
X050081Y027202D01*
X050031Y027211D01*
X049983Y027224D01*
X049936Y027240D01*
X049890Y027261D01*
X049846Y027285D01*
X049804Y027312D01*
X049764Y027342D01*
X049727Y027376D01*
X049693Y027413D01*
X049661Y027452D01*
X049633Y027493D01*
X049608Y027537D01*
X049587Y027582D01*
X049570Y027629D01*
X049556Y027677D01*
X049546Y027726D01*
X049540Y027776D01*
X049538Y027826D01*
X045538Y027826D02*
X045540Y027876D01*
X045546Y027926D01*
X045556Y027975D01*
X045570Y028023D01*
X045587Y028070D01*
X045608Y028115D01*
X045633Y028159D01*
X045661Y028200D01*
X045693Y028239D01*
X045727Y028276D01*
X045764Y028310D01*
X045804Y028340D01*
X045846Y028367D01*
X045890Y028391D01*
X045936Y028412D01*
X045983Y028428D01*
X046031Y028441D01*
X046081Y028450D01*
X046130Y028455D01*
X046181Y028456D01*
X046231Y028453D01*
X046280Y028446D01*
X046329Y028435D01*
X046377Y028420D01*
X046423Y028402D01*
X046468Y028380D01*
X046511Y028354D01*
X046552Y028325D01*
X046591Y028293D01*
X046627Y028258D01*
X046659Y028220D01*
X046689Y028180D01*
X046716Y028137D01*
X046739Y028093D01*
X046758Y028047D01*
X046774Y027999D01*
X046786Y027950D01*
X046794Y027901D01*
X046798Y027851D01*
X046798Y027801D01*
X046794Y027751D01*
X046786Y027702D01*
X046774Y027653D01*
X046758Y027605D01*
X046739Y027559D01*
X046716Y027515D01*
X046689Y027472D01*
X046659Y027432D01*
X046627Y027394D01*
X046591Y027359D01*
X046552Y027327D01*
X046511Y027298D01*
X046468Y027272D01*
X046423Y027250D01*
X046377Y027232D01*
X046329Y027217D01*
X046280Y027206D01*
X046231Y027199D01*
X046181Y027196D01*
X046130Y027197D01*
X046081Y027202D01*
X046031Y027211D01*
X045983Y027224D01*
X045936Y027240D01*
X045890Y027261D01*
X045846Y027285D01*
X045804Y027312D01*
X045764Y027342D01*
X045727Y027376D01*
X045693Y027413D01*
X045661Y027452D01*
X045633Y027493D01*
X045608Y027537D01*
X045587Y027582D01*
X045570Y027629D01*
X045556Y027677D01*
X045546Y027726D01*
X045540Y027776D01*
X045538Y027826D01*
X041038Y027826D02*
X041040Y027876D01*
X041046Y027926D01*
X041056Y027975D01*
X041070Y028023D01*
X041087Y028070D01*
X041108Y028115D01*
X041133Y028159D01*
X041161Y028200D01*
X041193Y028239D01*
X041227Y028276D01*
X041264Y028310D01*
X041304Y028340D01*
X041346Y028367D01*
X041390Y028391D01*
X041436Y028412D01*
X041483Y028428D01*
X041531Y028441D01*
X041581Y028450D01*
X041630Y028455D01*
X041681Y028456D01*
X041731Y028453D01*
X041780Y028446D01*
X041829Y028435D01*
X041877Y028420D01*
X041923Y028402D01*
X041968Y028380D01*
X042011Y028354D01*
X042052Y028325D01*
X042091Y028293D01*
X042127Y028258D01*
X042159Y028220D01*
X042189Y028180D01*
X042216Y028137D01*
X042239Y028093D01*
X042258Y028047D01*
X042274Y027999D01*
X042286Y027950D01*
X042294Y027901D01*
X042298Y027851D01*
X042298Y027801D01*
X042294Y027751D01*
X042286Y027702D01*
X042274Y027653D01*
X042258Y027605D01*
X042239Y027559D01*
X042216Y027515D01*
X042189Y027472D01*
X042159Y027432D01*
X042127Y027394D01*
X042091Y027359D01*
X042052Y027327D01*
X042011Y027298D01*
X041968Y027272D01*
X041923Y027250D01*
X041877Y027232D01*
X041829Y027217D01*
X041780Y027206D01*
X041731Y027199D01*
X041681Y027196D01*
X041630Y027197D01*
X041581Y027202D01*
X041531Y027211D01*
X041483Y027224D01*
X041436Y027240D01*
X041390Y027261D01*
X041346Y027285D01*
X041304Y027312D01*
X041264Y027342D01*
X041227Y027376D01*
X041193Y027413D01*
X041161Y027452D01*
X041133Y027493D01*
X041108Y027537D01*
X041087Y027582D01*
X041070Y027629D01*
X041056Y027677D01*
X041046Y027726D01*
X041040Y027776D01*
X041038Y027826D01*
X041038Y044161D02*
X041040Y044211D01*
X041046Y044261D01*
X041056Y044310D01*
X041070Y044358D01*
X041087Y044405D01*
X041108Y044450D01*
X041133Y044494D01*
X041161Y044535D01*
X041193Y044574D01*
X041227Y044611D01*
X041264Y044645D01*
X041304Y044675D01*
X041346Y044702D01*
X041390Y044726D01*
X041436Y044747D01*
X041483Y044763D01*
X041531Y044776D01*
X041581Y044785D01*
X041630Y044790D01*
X041681Y044791D01*
X041731Y044788D01*
X041780Y044781D01*
X041829Y044770D01*
X041877Y044755D01*
X041923Y044737D01*
X041968Y044715D01*
X042011Y044689D01*
X042052Y044660D01*
X042091Y044628D01*
X042127Y044593D01*
X042159Y044555D01*
X042189Y044515D01*
X042216Y044472D01*
X042239Y044428D01*
X042258Y044382D01*
X042274Y044334D01*
X042286Y044285D01*
X042294Y044236D01*
X042298Y044186D01*
X042298Y044136D01*
X042294Y044086D01*
X042286Y044037D01*
X042274Y043988D01*
X042258Y043940D01*
X042239Y043894D01*
X042216Y043850D01*
X042189Y043807D01*
X042159Y043767D01*
X042127Y043729D01*
X042091Y043694D01*
X042052Y043662D01*
X042011Y043633D01*
X041968Y043607D01*
X041923Y043585D01*
X041877Y043567D01*
X041829Y043552D01*
X041780Y043541D01*
X041731Y043534D01*
X041681Y043531D01*
X041630Y043532D01*
X041581Y043537D01*
X041531Y043546D01*
X041483Y043559D01*
X041436Y043575D01*
X041390Y043596D01*
X041346Y043620D01*
X041304Y043647D01*
X041264Y043677D01*
X041227Y043711D01*
X041193Y043748D01*
X041161Y043787D01*
X041133Y043828D01*
X041108Y043872D01*
X041087Y043917D01*
X041070Y043964D01*
X041056Y044012D01*
X041046Y044061D01*
X041040Y044111D01*
X041038Y044161D01*
X045538Y044161D02*
X045540Y044211D01*
X045546Y044261D01*
X045556Y044310D01*
X045570Y044358D01*
X045587Y044405D01*
X045608Y044450D01*
X045633Y044494D01*
X045661Y044535D01*
X045693Y044574D01*
X045727Y044611D01*
X045764Y044645D01*
X045804Y044675D01*
X045846Y044702D01*
X045890Y044726D01*
X045936Y044747D01*
X045983Y044763D01*
X046031Y044776D01*
X046081Y044785D01*
X046130Y044790D01*
X046181Y044791D01*
X046231Y044788D01*
X046280Y044781D01*
X046329Y044770D01*
X046377Y044755D01*
X046423Y044737D01*
X046468Y044715D01*
X046511Y044689D01*
X046552Y044660D01*
X046591Y044628D01*
X046627Y044593D01*
X046659Y044555D01*
X046689Y044515D01*
X046716Y044472D01*
X046739Y044428D01*
X046758Y044382D01*
X046774Y044334D01*
X046786Y044285D01*
X046794Y044236D01*
X046798Y044186D01*
X046798Y044136D01*
X046794Y044086D01*
X046786Y044037D01*
X046774Y043988D01*
X046758Y043940D01*
X046739Y043894D01*
X046716Y043850D01*
X046689Y043807D01*
X046659Y043767D01*
X046627Y043729D01*
X046591Y043694D01*
X046552Y043662D01*
X046511Y043633D01*
X046468Y043607D01*
X046423Y043585D01*
X046377Y043567D01*
X046329Y043552D01*
X046280Y043541D01*
X046231Y043534D01*
X046181Y043531D01*
X046130Y043532D01*
X046081Y043537D01*
X046031Y043546D01*
X045983Y043559D01*
X045936Y043575D01*
X045890Y043596D01*
X045846Y043620D01*
X045804Y043647D01*
X045764Y043677D01*
X045727Y043711D01*
X045693Y043748D01*
X045661Y043787D01*
X045633Y043828D01*
X045608Y043872D01*
X045587Y043917D01*
X045570Y043964D01*
X045556Y044012D01*
X045546Y044061D01*
X045540Y044111D01*
X045538Y044161D01*
X049538Y044161D02*
X049540Y044211D01*
X049546Y044261D01*
X049556Y044310D01*
X049570Y044358D01*
X049587Y044405D01*
X049608Y044450D01*
X049633Y044494D01*
X049661Y044535D01*
X049693Y044574D01*
X049727Y044611D01*
X049764Y044645D01*
X049804Y044675D01*
X049846Y044702D01*
X049890Y044726D01*
X049936Y044747D01*
X049983Y044763D01*
X050031Y044776D01*
X050081Y044785D01*
X050130Y044790D01*
X050181Y044791D01*
X050231Y044788D01*
X050280Y044781D01*
X050329Y044770D01*
X050377Y044755D01*
X050423Y044737D01*
X050468Y044715D01*
X050511Y044689D01*
X050552Y044660D01*
X050591Y044628D01*
X050627Y044593D01*
X050659Y044555D01*
X050689Y044515D01*
X050716Y044472D01*
X050739Y044428D01*
X050758Y044382D01*
X050774Y044334D01*
X050786Y044285D01*
X050794Y044236D01*
X050798Y044186D01*
X050798Y044136D01*
X050794Y044086D01*
X050786Y044037D01*
X050774Y043988D01*
X050758Y043940D01*
X050739Y043894D01*
X050716Y043850D01*
X050689Y043807D01*
X050659Y043767D01*
X050627Y043729D01*
X050591Y043694D01*
X050552Y043662D01*
X050511Y043633D01*
X050468Y043607D01*
X050423Y043585D01*
X050377Y043567D01*
X050329Y043552D01*
X050280Y043541D01*
X050231Y043534D01*
X050181Y043531D01*
X050130Y043532D01*
X050081Y043537D01*
X050031Y043546D01*
X049983Y043559D01*
X049936Y043575D01*
X049890Y043596D01*
X049846Y043620D01*
X049804Y043647D01*
X049764Y043677D01*
X049727Y043711D01*
X049693Y043748D01*
X049661Y043787D01*
X049633Y043828D01*
X049608Y043872D01*
X049587Y043917D01*
X049570Y043964D01*
X049556Y044012D01*
X049546Y044061D01*
X049540Y044111D01*
X049538Y044161D01*
X054038Y044161D02*
X054040Y044211D01*
X054046Y044261D01*
X054056Y044310D01*
X054070Y044358D01*
X054087Y044405D01*
X054108Y044450D01*
X054133Y044494D01*
X054161Y044535D01*
X054193Y044574D01*
X054227Y044611D01*
X054264Y044645D01*
X054304Y044675D01*
X054346Y044702D01*
X054390Y044726D01*
X054436Y044747D01*
X054483Y044763D01*
X054531Y044776D01*
X054581Y044785D01*
X054630Y044790D01*
X054681Y044791D01*
X054731Y044788D01*
X054780Y044781D01*
X054829Y044770D01*
X054877Y044755D01*
X054923Y044737D01*
X054968Y044715D01*
X055011Y044689D01*
X055052Y044660D01*
X055091Y044628D01*
X055127Y044593D01*
X055159Y044555D01*
X055189Y044515D01*
X055216Y044472D01*
X055239Y044428D01*
X055258Y044382D01*
X055274Y044334D01*
X055286Y044285D01*
X055294Y044236D01*
X055298Y044186D01*
X055298Y044136D01*
X055294Y044086D01*
X055286Y044037D01*
X055274Y043988D01*
X055258Y043940D01*
X055239Y043894D01*
X055216Y043850D01*
X055189Y043807D01*
X055159Y043767D01*
X055127Y043729D01*
X055091Y043694D01*
X055052Y043662D01*
X055011Y043633D01*
X054968Y043607D01*
X054923Y043585D01*
X054877Y043567D01*
X054829Y043552D01*
X054780Y043541D01*
X054731Y043534D01*
X054681Y043531D01*
X054630Y043532D01*
X054581Y043537D01*
X054531Y043546D01*
X054483Y043559D01*
X054436Y043575D01*
X054390Y043596D01*
X054346Y043620D01*
X054304Y043647D01*
X054264Y043677D01*
X054227Y043711D01*
X054193Y043748D01*
X054161Y043787D01*
X054133Y043828D01*
X054108Y043872D01*
X054087Y043917D01*
X054070Y043964D01*
X054056Y044012D01*
X054046Y044061D01*
X054040Y044111D01*
X054038Y044161D01*
X058038Y044161D02*
X058040Y044211D01*
X058046Y044261D01*
X058056Y044310D01*
X058070Y044358D01*
X058087Y044405D01*
X058108Y044450D01*
X058133Y044494D01*
X058161Y044535D01*
X058193Y044574D01*
X058227Y044611D01*
X058264Y044645D01*
X058304Y044675D01*
X058346Y044702D01*
X058390Y044726D01*
X058436Y044747D01*
X058483Y044763D01*
X058531Y044776D01*
X058581Y044785D01*
X058630Y044790D01*
X058681Y044791D01*
X058731Y044788D01*
X058780Y044781D01*
X058829Y044770D01*
X058877Y044755D01*
X058923Y044737D01*
X058968Y044715D01*
X059011Y044689D01*
X059052Y044660D01*
X059091Y044628D01*
X059127Y044593D01*
X059159Y044555D01*
X059189Y044515D01*
X059216Y044472D01*
X059239Y044428D01*
X059258Y044382D01*
X059274Y044334D01*
X059286Y044285D01*
X059294Y044236D01*
X059298Y044186D01*
X059298Y044136D01*
X059294Y044086D01*
X059286Y044037D01*
X059274Y043988D01*
X059258Y043940D01*
X059239Y043894D01*
X059216Y043850D01*
X059189Y043807D01*
X059159Y043767D01*
X059127Y043729D01*
X059091Y043694D01*
X059052Y043662D01*
X059011Y043633D01*
X058968Y043607D01*
X058923Y043585D01*
X058877Y043567D01*
X058829Y043552D01*
X058780Y043541D01*
X058731Y043534D01*
X058681Y043531D01*
X058630Y043532D01*
X058581Y043537D01*
X058531Y043546D01*
X058483Y043559D01*
X058436Y043575D01*
X058390Y043596D01*
X058346Y043620D01*
X058304Y043647D01*
X058264Y043677D01*
X058227Y043711D01*
X058193Y043748D01*
X058161Y043787D01*
X058133Y043828D01*
X058108Y043872D01*
X058087Y043917D01*
X058070Y043964D01*
X058056Y044012D01*
X058046Y044061D01*
X058040Y044111D01*
X058038Y044161D01*
X062538Y044161D02*
X062540Y044211D01*
X062546Y044261D01*
X062556Y044310D01*
X062570Y044358D01*
X062587Y044405D01*
X062608Y044450D01*
X062633Y044494D01*
X062661Y044535D01*
X062693Y044574D01*
X062727Y044611D01*
X062764Y044645D01*
X062804Y044675D01*
X062846Y044702D01*
X062890Y044726D01*
X062936Y044747D01*
X062983Y044763D01*
X063031Y044776D01*
X063081Y044785D01*
X063130Y044790D01*
X063181Y044791D01*
X063231Y044788D01*
X063280Y044781D01*
X063329Y044770D01*
X063377Y044755D01*
X063423Y044737D01*
X063468Y044715D01*
X063511Y044689D01*
X063552Y044660D01*
X063591Y044628D01*
X063627Y044593D01*
X063659Y044555D01*
X063689Y044515D01*
X063716Y044472D01*
X063739Y044428D01*
X063758Y044382D01*
X063774Y044334D01*
X063786Y044285D01*
X063794Y044236D01*
X063798Y044186D01*
X063798Y044136D01*
X063794Y044086D01*
X063786Y044037D01*
X063774Y043988D01*
X063758Y043940D01*
X063739Y043894D01*
X063716Y043850D01*
X063689Y043807D01*
X063659Y043767D01*
X063627Y043729D01*
X063591Y043694D01*
X063552Y043662D01*
X063511Y043633D01*
X063468Y043607D01*
X063423Y043585D01*
X063377Y043567D01*
X063329Y043552D01*
X063280Y043541D01*
X063231Y043534D01*
X063181Y043531D01*
X063130Y043532D01*
X063081Y043537D01*
X063031Y043546D01*
X062983Y043559D01*
X062936Y043575D01*
X062890Y043596D01*
X062846Y043620D01*
X062804Y043647D01*
X062764Y043677D01*
X062727Y043711D01*
X062693Y043748D01*
X062661Y043787D01*
X062633Y043828D01*
X062608Y043872D01*
X062587Y043917D01*
X062570Y043964D01*
X062556Y044012D01*
X062546Y044061D01*
X062540Y044111D01*
X062538Y044161D01*
X066538Y044161D02*
X066540Y044211D01*
X066546Y044261D01*
X066556Y044310D01*
X066570Y044358D01*
X066587Y044405D01*
X066608Y044450D01*
X066633Y044494D01*
X066661Y044535D01*
X066693Y044574D01*
X066727Y044611D01*
X066764Y044645D01*
X066804Y044675D01*
X066846Y044702D01*
X066890Y044726D01*
X066936Y044747D01*
X066983Y044763D01*
X067031Y044776D01*
X067081Y044785D01*
X067130Y044790D01*
X067181Y044791D01*
X067231Y044788D01*
X067280Y044781D01*
X067329Y044770D01*
X067377Y044755D01*
X067423Y044737D01*
X067468Y044715D01*
X067511Y044689D01*
X067552Y044660D01*
X067591Y044628D01*
X067627Y044593D01*
X067659Y044555D01*
X067689Y044515D01*
X067716Y044472D01*
X067739Y044428D01*
X067758Y044382D01*
X067774Y044334D01*
X067786Y044285D01*
X067794Y044236D01*
X067798Y044186D01*
X067798Y044136D01*
X067794Y044086D01*
X067786Y044037D01*
X067774Y043988D01*
X067758Y043940D01*
X067739Y043894D01*
X067716Y043850D01*
X067689Y043807D01*
X067659Y043767D01*
X067627Y043729D01*
X067591Y043694D01*
X067552Y043662D01*
X067511Y043633D01*
X067468Y043607D01*
X067423Y043585D01*
X067377Y043567D01*
X067329Y043552D01*
X067280Y043541D01*
X067231Y043534D01*
X067181Y043531D01*
X067130Y043532D01*
X067081Y043537D01*
X067031Y043546D01*
X066983Y043559D01*
X066936Y043575D01*
X066890Y043596D01*
X066846Y043620D01*
X066804Y043647D01*
X066764Y043677D01*
X066727Y043711D01*
X066693Y043748D01*
X066661Y043787D01*
X066633Y043828D01*
X066608Y043872D01*
X066587Y043917D01*
X066570Y043964D01*
X066556Y044012D01*
X066546Y044061D01*
X066540Y044111D01*
X066538Y044161D01*
X071038Y044161D02*
X071040Y044211D01*
X071046Y044261D01*
X071056Y044310D01*
X071070Y044358D01*
X071087Y044405D01*
X071108Y044450D01*
X071133Y044494D01*
X071161Y044535D01*
X071193Y044574D01*
X071227Y044611D01*
X071264Y044645D01*
X071304Y044675D01*
X071346Y044702D01*
X071390Y044726D01*
X071436Y044747D01*
X071483Y044763D01*
X071531Y044776D01*
X071581Y044785D01*
X071630Y044790D01*
X071681Y044791D01*
X071731Y044788D01*
X071780Y044781D01*
X071829Y044770D01*
X071877Y044755D01*
X071923Y044737D01*
X071968Y044715D01*
X072011Y044689D01*
X072052Y044660D01*
X072091Y044628D01*
X072127Y044593D01*
X072159Y044555D01*
X072189Y044515D01*
X072216Y044472D01*
X072239Y044428D01*
X072258Y044382D01*
X072274Y044334D01*
X072286Y044285D01*
X072294Y044236D01*
X072298Y044186D01*
X072298Y044136D01*
X072294Y044086D01*
X072286Y044037D01*
X072274Y043988D01*
X072258Y043940D01*
X072239Y043894D01*
X072216Y043850D01*
X072189Y043807D01*
X072159Y043767D01*
X072127Y043729D01*
X072091Y043694D01*
X072052Y043662D01*
X072011Y043633D01*
X071968Y043607D01*
X071923Y043585D01*
X071877Y043567D01*
X071829Y043552D01*
X071780Y043541D01*
X071731Y043534D01*
X071681Y043531D01*
X071630Y043532D01*
X071581Y043537D01*
X071531Y043546D01*
X071483Y043559D01*
X071436Y043575D01*
X071390Y043596D01*
X071346Y043620D01*
X071304Y043647D01*
X071264Y043677D01*
X071227Y043711D01*
X071193Y043748D01*
X071161Y043787D01*
X071133Y043828D01*
X071108Y043872D01*
X071087Y043917D01*
X071070Y043964D01*
X071056Y044012D01*
X071046Y044061D01*
X071040Y044111D01*
X071038Y044161D01*
X075038Y041661D02*
X075040Y041711D01*
X075046Y041761D01*
X075056Y041810D01*
X075070Y041858D01*
X075087Y041905D01*
X075108Y041950D01*
X075133Y041994D01*
X075161Y042035D01*
X075193Y042074D01*
X075227Y042111D01*
X075264Y042145D01*
X075304Y042175D01*
X075346Y042202D01*
X075390Y042226D01*
X075436Y042247D01*
X075483Y042263D01*
X075531Y042276D01*
X075581Y042285D01*
X075630Y042290D01*
X075681Y042291D01*
X075731Y042288D01*
X075780Y042281D01*
X075829Y042270D01*
X075877Y042255D01*
X075923Y042237D01*
X075968Y042215D01*
X076011Y042189D01*
X076052Y042160D01*
X076091Y042128D01*
X076127Y042093D01*
X076159Y042055D01*
X076189Y042015D01*
X076216Y041972D01*
X076239Y041928D01*
X076258Y041882D01*
X076274Y041834D01*
X076286Y041785D01*
X076294Y041736D01*
X076298Y041686D01*
X076298Y041636D01*
X076294Y041586D01*
X076286Y041537D01*
X076274Y041488D01*
X076258Y041440D01*
X076239Y041394D01*
X076216Y041350D01*
X076189Y041307D01*
X076159Y041267D01*
X076127Y041229D01*
X076091Y041194D01*
X076052Y041162D01*
X076011Y041133D01*
X075968Y041107D01*
X075923Y041085D01*
X075877Y041067D01*
X075829Y041052D01*
X075780Y041041D01*
X075731Y041034D01*
X075681Y041031D01*
X075630Y041032D01*
X075581Y041037D01*
X075531Y041046D01*
X075483Y041059D01*
X075436Y041075D01*
X075390Y041096D01*
X075346Y041120D01*
X075304Y041147D01*
X075264Y041177D01*
X075227Y041211D01*
X075193Y041248D01*
X075161Y041287D01*
X075133Y041328D01*
X075108Y041372D01*
X075087Y041417D01*
X075070Y041464D01*
X075056Y041512D01*
X075046Y041561D01*
X075040Y041611D01*
X075038Y041661D01*
X079538Y041661D02*
X079540Y041711D01*
X079546Y041761D01*
X079556Y041810D01*
X079570Y041858D01*
X079587Y041905D01*
X079608Y041950D01*
X079633Y041994D01*
X079661Y042035D01*
X079693Y042074D01*
X079727Y042111D01*
X079764Y042145D01*
X079804Y042175D01*
X079846Y042202D01*
X079890Y042226D01*
X079936Y042247D01*
X079983Y042263D01*
X080031Y042276D01*
X080081Y042285D01*
X080130Y042290D01*
X080181Y042291D01*
X080231Y042288D01*
X080280Y042281D01*
X080329Y042270D01*
X080377Y042255D01*
X080423Y042237D01*
X080468Y042215D01*
X080511Y042189D01*
X080552Y042160D01*
X080591Y042128D01*
X080627Y042093D01*
X080659Y042055D01*
X080689Y042015D01*
X080716Y041972D01*
X080739Y041928D01*
X080758Y041882D01*
X080774Y041834D01*
X080786Y041785D01*
X080794Y041736D01*
X080798Y041686D01*
X080798Y041636D01*
X080794Y041586D01*
X080786Y041537D01*
X080774Y041488D01*
X080758Y041440D01*
X080739Y041394D01*
X080716Y041350D01*
X080689Y041307D01*
X080659Y041267D01*
X080627Y041229D01*
X080591Y041194D01*
X080552Y041162D01*
X080511Y041133D01*
X080468Y041107D01*
X080423Y041085D01*
X080377Y041067D01*
X080329Y041052D01*
X080280Y041041D01*
X080231Y041034D01*
X080181Y041031D01*
X080130Y041032D01*
X080081Y041037D01*
X080031Y041046D01*
X079983Y041059D01*
X079936Y041075D01*
X079890Y041096D01*
X079846Y041120D01*
X079804Y041147D01*
X079764Y041177D01*
X079727Y041211D01*
X079693Y041248D01*
X079661Y041287D01*
X079633Y041328D01*
X079608Y041372D01*
X079587Y041417D01*
X079570Y041464D01*
X079556Y041512D01*
X079546Y041561D01*
X079540Y041611D01*
X079538Y041661D01*
X075538Y052161D02*
X075540Y052211D01*
X075546Y052261D01*
X075556Y052310D01*
X075570Y052358D01*
X075587Y052405D01*
X075608Y052450D01*
X075633Y052494D01*
X075661Y052535D01*
X075693Y052574D01*
X075727Y052611D01*
X075764Y052645D01*
X075804Y052675D01*
X075846Y052702D01*
X075890Y052726D01*
X075936Y052747D01*
X075983Y052763D01*
X076031Y052776D01*
X076081Y052785D01*
X076130Y052790D01*
X076181Y052791D01*
X076231Y052788D01*
X076280Y052781D01*
X076329Y052770D01*
X076377Y052755D01*
X076423Y052737D01*
X076468Y052715D01*
X076511Y052689D01*
X076552Y052660D01*
X076591Y052628D01*
X076627Y052593D01*
X076659Y052555D01*
X076689Y052515D01*
X076716Y052472D01*
X076739Y052428D01*
X076758Y052382D01*
X076774Y052334D01*
X076786Y052285D01*
X076794Y052236D01*
X076798Y052186D01*
X076798Y052136D01*
X076794Y052086D01*
X076786Y052037D01*
X076774Y051988D01*
X076758Y051940D01*
X076739Y051894D01*
X076716Y051850D01*
X076689Y051807D01*
X076659Y051767D01*
X076627Y051729D01*
X076591Y051694D01*
X076552Y051662D01*
X076511Y051633D01*
X076468Y051607D01*
X076423Y051585D01*
X076377Y051567D01*
X076329Y051552D01*
X076280Y051541D01*
X076231Y051534D01*
X076181Y051531D01*
X076130Y051532D01*
X076081Y051537D01*
X076031Y051546D01*
X075983Y051559D01*
X075936Y051575D01*
X075890Y051596D01*
X075846Y051620D01*
X075804Y051647D01*
X075764Y051677D01*
X075727Y051711D01*
X075693Y051748D01*
X075661Y051787D01*
X075633Y051828D01*
X075608Y051872D01*
X075587Y051917D01*
X075570Y051964D01*
X075556Y052012D01*
X075546Y052061D01*
X075540Y052111D01*
X075538Y052161D01*
X071038Y052161D02*
X071040Y052211D01*
X071046Y052261D01*
X071056Y052310D01*
X071070Y052358D01*
X071087Y052405D01*
X071108Y052450D01*
X071133Y052494D01*
X071161Y052535D01*
X071193Y052574D01*
X071227Y052611D01*
X071264Y052645D01*
X071304Y052675D01*
X071346Y052702D01*
X071390Y052726D01*
X071436Y052747D01*
X071483Y052763D01*
X071531Y052776D01*
X071581Y052785D01*
X071630Y052790D01*
X071681Y052791D01*
X071731Y052788D01*
X071780Y052781D01*
X071829Y052770D01*
X071877Y052755D01*
X071923Y052737D01*
X071968Y052715D01*
X072011Y052689D01*
X072052Y052660D01*
X072091Y052628D01*
X072127Y052593D01*
X072159Y052555D01*
X072189Y052515D01*
X072216Y052472D01*
X072239Y052428D01*
X072258Y052382D01*
X072274Y052334D01*
X072286Y052285D01*
X072294Y052236D01*
X072298Y052186D01*
X072298Y052136D01*
X072294Y052086D01*
X072286Y052037D01*
X072274Y051988D01*
X072258Y051940D01*
X072239Y051894D01*
X072216Y051850D01*
X072189Y051807D01*
X072159Y051767D01*
X072127Y051729D01*
X072091Y051694D01*
X072052Y051662D01*
X072011Y051633D01*
X071968Y051607D01*
X071923Y051585D01*
X071877Y051567D01*
X071829Y051552D01*
X071780Y051541D01*
X071731Y051534D01*
X071681Y051531D01*
X071630Y051532D01*
X071581Y051537D01*
X071531Y051546D01*
X071483Y051559D01*
X071436Y051575D01*
X071390Y051596D01*
X071346Y051620D01*
X071304Y051647D01*
X071264Y051677D01*
X071227Y051711D01*
X071193Y051748D01*
X071161Y051787D01*
X071133Y051828D01*
X071108Y051872D01*
X071087Y051917D01*
X071070Y051964D01*
X071056Y052012D01*
X071046Y052061D01*
X071040Y052111D01*
X071038Y052161D01*
X067038Y052161D02*
X067040Y052211D01*
X067046Y052261D01*
X067056Y052310D01*
X067070Y052358D01*
X067087Y052405D01*
X067108Y052450D01*
X067133Y052494D01*
X067161Y052535D01*
X067193Y052574D01*
X067227Y052611D01*
X067264Y052645D01*
X067304Y052675D01*
X067346Y052702D01*
X067390Y052726D01*
X067436Y052747D01*
X067483Y052763D01*
X067531Y052776D01*
X067581Y052785D01*
X067630Y052790D01*
X067681Y052791D01*
X067731Y052788D01*
X067780Y052781D01*
X067829Y052770D01*
X067877Y052755D01*
X067923Y052737D01*
X067968Y052715D01*
X068011Y052689D01*
X068052Y052660D01*
X068091Y052628D01*
X068127Y052593D01*
X068159Y052555D01*
X068189Y052515D01*
X068216Y052472D01*
X068239Y052428D01*
X068258Y052382D01*
X068274Y052334D01*
X068286Y052285D01*
X068294Y052236D01*
X068298Y052186D01*
X068298Y052136D01*
X068294Y052086D01*
X068286Y052037D01*
X068274Y051988D01*
X068258Y051940D01*
X068239Y051894D01*
X068216Y051850D01*
X068189Y051807D01*
X068159Y051767D01*
X068127Y051729D01*
X068091Y051694D01*
X068052Y051662D01*
X068011Y051633D01*
X067968Y051607D01*
X067923Y051585D01*
X067877Y051567D01*
X067829Y051552D01*
X067780Y051541D01*
X067731Y051534D01*
X067681Y051531D01*
X067630Y051532D01*
X067581Y051537D01*
X067531Y051546D01*
X067483Y051559D01*
X067436Y051575D01*
X067390Y051596D01*
X067346Y051620D01*
X067304Y051647D01*
X067264Y051677D01*
X067227Y051711D01*
X067193Y051748D01*
X067161Y051787D01*
X067133Y051828D01*
X067108Y051872D01*
X067087Y051917D01*
X067070Y051964D01*
X067056Y052012D01*
X067046Y052061D01*
X067040Y052111D01*
X067038Y052161D01*
X062538Y052161D02*
X062540Y052211D01*
X062546Y052261D01*
X062556Y052310D01*
X062570Y052358D01*
X062587Y052405D01*
X062608Y052450D01*
X062633Y052494D01*
X062661Y052535D01*
X062693Y052574D01*
X062727Y052611D01*
X062764Y052645D01*
X062804Y052675D01*
X062846Y052702D01*
X062890Y052726D01*
X062936Y052747D01*
X062983Y052763D01*
X063031Y052776D01*
X063081Y052785D01*
X063130Y052790D01*
X063181Y052791D01*
X063231Y052788D01*
X063280Y052781D01*
X063329Y052770D01*
X063377Y052755D01*
X063423Y052737D01*
X063468Y052715D01*
X063511Y052689D01*
X063552Y052660D01*
X063591Y052628D01*
X063627Y052593D01*
X063659Y052555D01*
X063689Y052515D01*
X063716Y052472D01*
X063739Y052428D01*
X063758Y052382D01*
X063774Y052334D01*
X063786Y052285D01*
X063794Y052236D01*
X063798Y052186D01*
X063798Y052136D01*
X063794Y052086D01*
X063786Y052037D01*
X063774Y051988D01*
X063758Y051940D01*
X063739Y051894D01*
X063716Y051850D01*
X063689Y051807D01*
X063659Y051767D01*
X063627Y051729D01*
X063591Y051694D01*
X063552Y051662D01*
X063511Y051633D01*
X063468Y051607D01*
X063423Y051585D01*
X063377Y051567D01*
X063329Y051552D01*
X063280Y051541D01*
X063231Y051534D01*
X063181Y051531D01*
X063130Y051532D01*
X063081Y051537D01*
X063031Y051546D01*
X062983Y051559D01*
X062936Y051575D01*
X062890Y051596D01*
X062846Y051620D01*
X062804Y051647D01*
X062764Y051677D01*
X062727Y051711D01*
X062693Y051748D01*
X062661Y051787D01*
X062633Y051828D01*
X062608Y051872D01*
X062587Y051917D01*
X062570Y051964D01*
X062556Y052012D01*
X062546Y052061D01*
X062540Y052111D01*
X062538Y052161D01*
X058538Y052161D02*
X058540Y052211D01*
X058546Y052261D01*
X058556Y052310D01*
X058570Y052358D01*
X058587Y052405D01*
X058608Y052450D01*
X058633Y052494D01*
X058661Y052535D01*
X058693Y052574D01*
X058727Y052611D01*
X058764Y052645D01*
X058804Y052675D01*
X058846Y052702D01*
X058890Y052726D01*
X058936Y052747D01*
X058983Y052763D01*
X059031Y052776D01*
X059081Y052785D01*
X059130Y052790D01*
X059181Y052791D01*
X059231Y052788D01*
X059280Y052781D01*
X059329Y052770D01*
X059377Y052755D01*
X059423Y052737D01*
X059468Y052715D01*
X059511Y052689D01*
X059552Y052660D01*
X059591Y052628D01*
X059627Y052593D01*
X059659Y052555D01*
X059689Y052515D01*
X059716Y052472D01*
X059739Y052428D01*
X059758Y052382D01*
X059774Y052334D01*
X059786Y052285D01*
X059794Y052236D01*
X059798Y052186D01*
X059798Y052136D01*
X059794Y052086D01*
X059786Y052037D01*
X059774Y051988D01*
X059758Y051940D01*
X059739Y051894D01*
X059716Y051850D01*
X059689Y051807D01*
X059659Y051767D01*
X059627Y051729D01*
X059591Y051694D01*
X059552Y051662D01*
X059511Y051633D01*
X059468Y051607D01*
X059423Y051585D01*
X059377Y051567D01*
X059329Y051552D01*
X059280Y051541D01*
X059231Y051534D01*
X059181Y051531D01*
X059130Y051532D01*
X059081Y051537D01*
X059031Y051546D01*
X058983Y051559D01*
X058936Y051575D01*
X058890Y051596D01*
X058846Y051620D01*
X058804Y051647D01*
X058764Y051677D01*
X058727Y051711D01*
X058693Y051748D01*
X058661Y051787D01*
X058633Y051828D01*
X058608Y051872D01*
X058587Y051917D01*
X058570Y051964D01*
X058556Y052012D01*
X058546Y052061D01*
X058540Y052111D01*
X058538Y052161D01*
X054038Y052161D02*
X054040Y052211D01*
X054046Y052261D01*
X054056Y052310D01*
X054070Y052358D01*
X054087Y052405D01*
X054108Y052450D01*
X054133Y052494D01*
X054161Y052535D01*
X054193Y052574D01*
X054227Y052611D01*
X054264Y052645D01*
X054304Y052675D01*
X054346Y052702D01*
X054390Y052726D01*
X054436Y052747D01*
X054483Y052763D01*
X054531Y052776D01*
X054581Y052785D01*
X054630Y052790D01*
X054681Y052791D01*
X054731Y052788D01*
X054780Y052781D01*
X054829Y052770D01*
X054877Y052755D01*
X054923Y052737D01*
X054968Y052715D01*
X055011Y052689D01*
X055052Y052660D01*
X055091Y052628D01*
X055127Y052593D01*
X055159Y052555D01*
X055189Y052515D01*
X055216Y052472D01*
X055239Y052428D01*
X055258Y052382D01*
X055274Y052334D01*
X055286Y052285D01*
X055294Y052236D01*
X055298Y052186D01*
X055298Y052136D01*
X055294Y052086D01*
X055286Y052037D01*
X055274Y051988D01*
X055258Y051940D01*
X055239Y051894D01*
X055216Y051850D01*
X055189Y051807D01*
X055159Y051767D01*
X055127Y051729D01*
X055091Y051694D01*
X055052Y051662D01*
X055011Y051633D01*
X054968Y051607D01*
X054923Y051585D01*
X054877Y051567D01*
X054829Y051552D01*
X054780Y051541D01*
X054731Y051534D01*
X054681Y051531D01*
X054630Y051532D01*
X054581Y051537D01*
X054531Y051546D01*
X054483Y051559D01*
X054436Y051575D01*
X054390Y051596D01*
X054346Y051620D01*
X054304Y051647D01*
X054264Y051677D01*
X054227Y051711D01*
X054193Y051748D01*
X054161Y051787D01*
X054133Y051828D01*
X054108Y051872D01*
X054087Y051917D01*
X054070Y051964D01*
X054056Y052012D01*
X054046Y052061D01*
X054040Y052111D01*
X054038Y052161D01*
X042988Y051493D02*
X042990Y051543D01*
X042996Y051593D01*
X043006Y051642D01*
X043020Y051690D01*
X043037Y051737D01*
X043058Y051782D01*
X043083Y051826D01*
X043111Y051867D01*
X043143Y051906D01*
X043177Y051943D01*
X043214Y051977D01*
X043254Y052007D01*
X043296Y052034D01*
X043340Y052058D01*
X043386Y052079D01*
X043433Y052095D01*
X043481Y052108D01*
X043531Y052117D01*
X043580Y052122D01*
X043631Y052123D01*
X043681Y052120D01*
X043730Y052113D01*
X043779Y052102D01*
X043827Y052087D01*
X043873Y052069D01*
X043918Y052047D01*
X043961Y052021D01*
X044002Y051992D01*
X044041Y051960D01*
X044077Y051925D01*
X044109Y051887D01*
X044139Y051847D01*
X044166Y051804D01*
X044189Y051760D01*
X044208Y051714D01*
X044224Y051666D01*
X044236Y051617D01*
X044244Y051568D01*
X044248Y051518D01*
X044248Y051468D01*
X044244Y051418D01*
X044236Y051369D01*
X044224Y051320D01*
X044208Y051272D01*
X044189Y051226D01*
X044166Y051182D01*
X044139Y051139D01*
X044109Y051099D01*
X044077Y051061D01*
X044041Y051026D01*
X044002Y050994D01*
X043961Y050965D01*
X043918Y050939D01*
X043873Y050917D01*
X043827Y050899D01*
X043779Y050884D01*
X043730Y050873D01*
X043681Y050866D01*
X043631Y050863D01*
X043580Y050864D01*
X043531Y050869D01*
X043481Y050878D01*
X043433Y050891D01*
X043386Y050907D01*
X043340Y050928D01*
X043296Y050952D01*
X043254Y050979D01*
X043214Y051009D01*
X043177Y051043D01*
X043143Y051080D01*
X043111Y051119D01*
X043083Y051160D01*
X043058Y051204D01*
X043037Y051249D01*
X043020Y051296D01*
X043006Y051344D01*
X042996Y051393D01*
X042990Y051443D01*
X042988Y051493D01*
X075038Y029826D02*
X075040Y029876D01*
X075046Y029926D01*
X075056Y029975D01*
X075070Y030023D01*
X075087Y030070D01*
X075108Y030115D01*
X075133Y030159D01*
X075161Y030200D01*
X075193Y030239D01*
X075227Y030276D01*
X075264Y030310D01*
X075304Y030340D01*
X075346Y030367D01*
X075390Y030391D01*
X075436Y030412D01*
X075483Y030428D01*
X075531Y030441D01*
X075581Y030450D01*
X075630Y030455D01*
X075681Y030456D01*
X075731Y030453D01*
X075780Y030446D01*
X075829Y030435D01*
X075877Y030420D01*
X075923Y030402D01*
X075968Y030380D01*
X076011Y030354D01*
X076052Y030325D01*
X076091Y030293D01*
X076127Y030258D01*
X076159Y030220D01*
X076189Y030180D01*
X076216Y030137D01*
X076239Y030093D01*
X076258Y030047D01*
X076274Y029999D01*
X076286Y029950D01*
X076294Y029901D01*
X076298Y029851D01*
X076298Y029801D01*
X076294Y029751D01*
X076286Y029702D01*
X076274Y029653D01*
X076258Y029605D01*
X076239Y029559D01*
X076216Y029515D01*
X076189Y029472D01*
X076159Y029432D01*
X076127Y029394D01*
X076091Y029359D01*
X076052Y029327D01*
X076011Y029298D01*
X075968Y029272D01*
X075923Y029250D01*
X075877Y029232D01*
X075829Y029217D01*
X075780Y029206D01*
X075731Y029199D01*
X075681Y029196D01*
X075630Y029197D01*
X075581Y029202D01*
X075531Y029211D01*
X075483Y029224D01*
X075436Y029240D01*
X075390Y029261D01*
X075346Y029285D01*
X075304Y029312D01*
X075264Y029342D01*
X075227Y029376D01*
X075193Y029413D01*
X075161Y029452D01*
X075133Y029493D01*
X075108Y029537D01*
X075087Y029582D01*
X075070Y029629D01*
X075056Y029677D01*
X075046Y029726D01*
X075040Y029776D01*
X075038Y029826D01*
X079538Y029826D02*
X079540Y029876D01*
X079546Y029926D01*
X079556Y029975D01*
X079570Y030023D01*
X079587Y030070D01*
X079608Y030115D01*
X079633Y030159D01*
X079661Y030200D01*
X079693Y030239D01*
X079727Y030276D01*
X079764Y030310D01*
X079804Y030340D01*
X079846Y030367D01*
X079890Y030391D01*
X079936Y030412D01*
X079983Y030428D01*
X080031Y030441D01*
X080081Y030450D01*
X080130Y030455D01*
X080181Y030456D01*
X080231Y030453D01*
X080280Y030446D01*
X080329Y030435D01*
X080377Y030420D01*
X080423Y030402D01*
X080468Y030380D01*
X080511Y030354D01*
X080552Y030325D01*
X080591Y030293D01*
X080627Y030258D01*
X080659Y030220D01*
X080689Y030180D01*
X080716Y030137D01*
X080739Y030093D01*
X080758Y030047D01*
X080774Y029999D01*
X080786Y029950D01*
X080794Y029901D01*
X080798Y029851D01*
X080798Y029801D01*
X080794Y029751D01*
X080786Y029702D01*
X080774Y029653D01*
X080758Y029605D01*
X080739Y029559D01*
X080716Y029515D01*
X080689Y029472D01*
X080659Y029432D01*
X080627Y029394D01*
X080591Y029359D01*
X080552Y029327D01*
X080511Y029298D01*
X080468Y029272D01*
X080423Y029250D01*
X080377Y029232D01*
X080329Y029217D01*
X080280Y029206D01*
X080231Y029199D01*
X080181Y029196D01*
X080130Y029197D01*
X080081Y029202D01*
X080031Y029211D01*
X079983Y029224D01*
X079936Y029240D01*
X079890Y029261D01*
X079846Y029285D01*
X079804Y029312D01*
X079764Y029342D01*
X079727Y029376D01*
X079693Y029413D01*
X079661Y029452D01*
X079633Y029493D01*
X079608Y029537D01*
X079587Y029582D01*
X079570Y029629D01*
X079556Y029677D01*
X079546Y029726D01*
X079540Y029776D01*
X079538Y029826D01*
D11*
X078168Y026764D02*
X077955Y026764D01*
X077848Y026657D01*
X077848Y026550D01*
X077955Y026444D01*
X078275Y026444D01*
X078275Y026657D02*
X078168Y026764D01*
X078275Y026657D02*
X078275Y026230D01*
X078168Y026123D01*
X077955Y026123D01*
X077848Y026230D01*
X074819Y024957D02*
X074392Y024530D01*
X074499Y024423D01*
X074713Y024423D01*
X074819Y024530D01*
X074819Y024957D01*
X074713Y025064D01*
X074499Y025064D01*
X074392Y024957D01*
X074392Y024530D01*
X074175Y024423D02*
X073748Y024423D01*
X073961Y024423D02*
X073961Y025064D01*
X073748Y024850D01*
X070619Y024223D02*
X070192Y024223D01*
X070406Y024223D02*
X070406Y024864D01*
X070192Y024650D01*
X069975Y024223D02*
X069548Y024223D01*
X069761Y024223D02*
X069761Y024864D01*
X069548Y024650D01*
X066419Y024557D02*
X066313Y024664D01*
X066099Y024664D01*
X065992Y024557D01*
X066419Y024557D02*
X066419Y024450D01*
X065992Y024023D01*
X066419Y024023D01*
X065775Y024023D02*
X065348Y024023D01*
X065561Y024023D02*
X065561Y024664D01*
X065348Y024450D01*
X062019Y024430D02*
X061913Y024323D01*
X061699Y024323D01*
X061592Y024430D01*
X061375Y024323D02*
X060948Y024323D01*
X061161Y024323D02*
X061161Y024964D01*
X060948Y024750D01*
X061592Y024857D02*
X061699Y024964D01*
X061913Y024964D01*
X062019Y024857D01*
X062019Y024750D01*
X061913Y024644D01*
X062019Y024537D01*
X062019Y024430D01*
X061913Y024644D02*
X061806Y024644D01*
X057894Y024444D02*
X057467Y024444D01*
X057788Y024764D01*
X057788Y024123D01*
X057250Y024123D02*
X056823Y024123D01*
X057036Y024123D02*
X057036Y024764D01*
X056823Y024550D01*
X053519Y024544D02*
X053519Y024330D01*
X053413Y024223D01*
X053199Y024223D01*
X053092Y024330D01*
X053092Y024544D02*
X053306Y024650D01*
X053413Y024650D01*
X053519Y024544D01*
X053519Y024864D02*
X053092Y024864D01*
X053092Y024544D01*
X052875Y024223D02*
X052448Y024223D01*
X052661Y024223D02*
X052661Y024864D01*
X052448Y024650D01*
X049544Y024789D02*
X049331Y024682D01*
X049117Y024469D01*
X049438Y024469D01*
X049544Y024362D01*
X049544Y024255D01*
X049438Y024148D01*
X049224Y024148D01*
X049117Y024255D01*
X049117Y024469D01*
X048900Y024148D02*
X048473Y024148D01*
X048686Y024148D02*
X048686Y024789D01*
X048473Y024575D01*
X045019Y024757D02*
X044592Y024330D01*
X044592Y024223D01*
X044375Y024223D02*
X043948Y024223D01*
X044161Y024223D02*
X044161Y024864D01*
X043948Y024650D01*
X044592Y024864D02*
X045019Y024864D01*
X045019Y024757D01*
X077548Y045130D02*
X077548Y045237D01*
X077655Y045344D01*
X077868Y045344D01*
X077975Y045237D01*
X077975Y045130D01*
X077868Y045023D01*
X077655Y045023D01*
X077548Y045130D01*
X077655Y045344D02*
X077548Y045450D01*
X077548Y045557D01*
X077655Y045664D01*
X077868Y045664D01*
X077975Y045557D01*
X077975Y045450D01*
X077868Y045344D01*
X073875Y047757D02*
X073448Y047330D01*
X073448Y047223D01*
X073448Y047864D02*
X073875Y047864D01*
X073875Y047757D01*
X069275Y047964D02*
X069061Y047857D01*
X068848Y047644D01*
X069168Y047644D01*
X069275Y047537D01*
X069275Y047430D01*
X069168Y047323D01*
X068955Y047323D01*
X068848Y047430D01*
X068848Y047644D01*
X065775Y047630D02*
X065668Y047523D01*
X065455Y047523D01*
X065348Y047630D01*
X065348Y047844D02*
X065561Y047950D01*
X065668Y047950D01*
X065775Y047844D01*
X065775Y047630D01*
X065348Y047844D02*
X065348Y048164D01*
X065775Y048164D01*
X061375Y047644D02*
X060948Y047644D01*
X061268Y047964D01*
X061268Y047323D01*
X056275Y047430D02*
X056168Y047323D01*
X055955Y047323D01*
X055848Y047430D01*
X056061Y047644D02*
X056168Y047644D01*
X056275Y047537D01*
X056275Y047430D01*
X056168Y047644D02*
X056275Y047750D01*
X056275Y047857D01*
X056168Y047964D01*
X055955Y047964D01*
X055848Y047857D01*
X052275Y047923D02*
X051848Y047923D01*
X052275Y048350D01*
X052275Y048457D01*
X052168Y048564D01*
X051955Y048564D01*
X051848Y048457D01*
X044175Y047723D02*
X043748Y047723D01*
X043961Y047723D02*
X043961Y048364D01*
X043748Y048150D01*
X043722Y053523D02*
X043615Y053630D01*
X043722Y053523D02*
X043935Y053523D01*
X044042Y053630D01*
X044042Y053737D01*
X043935Y053844D01*
X043722Y053844D01*
X043615Y053950D01*
X043615Y054057D01*
X043722Y054164D01*
X043935Y054164D01*
X044042Y054057D01*
X044260Y054057D02*
X044260Y053950D01*
X044366Y053844D01*
X044580Y053844D01*
X044687Y053737D01*
X044687Y053630D01*
X044580Y053523D01*
X044366Y053523D01*
X044260Y053630D01*
X044260Y054057D02*
X044366Y054164D01*
X044580Y054164D01*
X044687Y054057D01*
X044904Y054164D02*
X045331Y054164D01*
X045118Y054164D02*
X045118Y053523D01*
X045549Y053523D02*
X045549Y054164D01*
X045549Y053844D02*
X045976Y053844D01*
X046193Y053737D02*
X046514Y053737D01*
X046620Y053844D01*
X046620Y054057D01*
X046514Y054164D01*
X046193Y054164D01*
X046193Y053523D01*
X045976Y053523D02*
X045976Y054164D01*
X046407Y053737D02*
X046620Y053523D01*
X046838Y053630D02*
X046945Y053523D01*
X047158Y053523D01*
X047265Y053630D01*
X047265Y054164D01*
X046838Y054164D02*
X046838Y053630D01*
X043398Y053523D02*
X043398Y053950D01*
X043184Y054164D01*
X042971Y053950D01*
X042971Y053523D01*
X042971Y053844D02*
X043398Y053844D01*
X042753Y053844D02*
X042646Y053737D01*
X042326Y053737D01*
X042326Y053523D02*
X042326Y054164D01*
X042646Y054164D01*
X042753Y054057D01*
X042753Y053844D01*
X041464Y053737D02*
X041464Y053630D01*
X041357Y053523D01*
X041144Y053523D01*
X041037Y053630D01*
X041144Y053844D02*
X041357Y053844D01*
X041464Y053737D01*
X041464Y054057D02*
X041357Y054164D01*
X041144Y054164D01*
X041037Y054057D01*
X041037Y053950D01*
X041144Y053844D01*
X040819Y053844D02*
X040713Y053737D01*
X040392Y053737D01*
X040392Y053523D02*
X040392Y054164D01*
X040713Y054164D01*
X040819Y054057D01*
X040819Y053844D01*
X040175Y053844D02*
X039961Y053844D01*
X040175Y053844D02*
X040175Y053630D01*
X040068Y053523D01*
X039855Y053523D01*
X039748Y053630D01*
X039748Y054057D01*
X039855Y054164D01*
X040068Y054164D01*
X040175Y054057D01*
D12*
X047937Y049505D02*
X047937Y049045D01*
X047937Y049198D02*
X048167Y049198D01*
X048243Y049275D01*
X048243Y049428D01*
X048167Y049505D01*
X047937Y049505D01*
X048090Y049198D02*
X048243Y049045D01*
X048397Y049122D02*
X048474Y049045D01*
X048627Y049045D01*
X048704Y049122D01*
X048704Y049198D01*
X048627Y049275D01*
X048474Y049275D01*
X048397Y049352D01*
X048397Y049428D01*
X048474Y049505D01*
X048627Y049505D01*
X048704Y049428D01*
X048857Y049275D02*
X049164Y049275D01*
X049318Y049275D02*
X049625Y049275D01*
X049778Y049352D02*
X049778Y049428D01*
X049855Y049505D01*
X050008Y049505D01*
X050085Y049428D01*
X050085Y049352D01*
X050008Y049275D01*
X049855Y049275D01*
X049778Y049352D01*
X049855Y049275D02*
X049778Y049198D01*
X049778Y049122D01*
X049855Y049045D01*
X050008Y049045D01*
X050085Y049122D01*
X050085Y049198D01*
X050008Y049275D01*
X050238Y049275D02*
X050392Y049352D01*
X050469Y049352D01*
X050545Y049275D01*
X050545Y049122D01*
X050469Y049045D01*
X050315Y049045D01*
X050238Y049122D01*
X050238Y049275D02*
X050238Y049505D01*
X050545Y049505D01*
X050699Y048968D02*
X051006Y048968D01*
X051159Y049122D02*
X051236Y049045D01*
X051389Y049045D01*
X051466Y049122D01*
X051466Y049428D01*
X051389Y049505D01*
X051236Y049505D01*
X051159Y049428D01*
X051159Y049122D01*
X051620Y049122D02*
X051620Y049505D01*
X051927Y049505D02*
X051927Y049122D01*
X051850Y049045D01*
X051696Y049045D01*
X051620Y049122D01*
X052080Y049505D02*
X052387Y049505D01*
X052234Y049505D02*
X052234Y049045D01*
X052540Y049122D02*
X052617Y049045D01*
X052771Y049045D01*
X052847Y049122D01*
X052847Y049198D01*
X052771Y049275D01*
X052694Y049275D01*
X052771Y049275D02*
X052847Y049352D01*
X052847Y049428D01*
X052771Y049505D01*
X052617Y049505D01*
X052540Y049428D01*
X052617Y049832D02*
X052540Y049909D01*
X052617Y049832D02*
X052771Y049832D01*
X052847Y049909D01*
X052847Y050062D01*
X052771Y050139D01*
X052694Y050139D01*
X052540Y050062D01*
X052540Y050293D01*
X052847Y050293D01*
X052387Y050062D02*
X052080Y050062D01*
X052310Y050293D01*
X052310Y049832D01*
X051850Y049909D02*
X051850Y050293D01*
X051773Y050293D02*
X051927Y050293D01*
X051850Y049909D02*
X051773Y049832D01*
X051696Y049832D01*
X051620Y049909D01*
X051466Y049832D02*
X051313Y049986D01*
X051389Y049986D02*
X051159Y049986D01*
X051159Y049832D02*
X051159Y050293D01*
X051389Y050293D01*
X051466Y050216D01*
X051466Y050062D01*
X051389Y049986D01*
X049548Y049505D02*
X049548Y049045D01*
X049318Y049275D02*
X049548Y049505D01*
X056437Y049505D02*
X056437Y049045D01*
X056437Y049198D02*
X056667Y049198D01*
X056743Y049275D01*
X056743Y049428D01*
X056667Y049505D01*
X056437Y049505D01*
X056590Y049198D02*
X056743Y049045D01*
X056897Y049122D02*
X056974Y049045D01*
X057127Y049045D01*
X057204Y049122D01*
X057204Y049198D01*
X057127Y049275D01*
X056974Y049275D01*
X056897Y049352D01*
X056897Y049428D01*
X056974Y049505D01*
X057127Y049505D01*
X057204Y049428D01*
X057357Y049275D02*
X057664Y049275D01*
X057818Y049275D02*
X058125Y049275D01*
X058278Y049352D02*
X058278Y049428D01*
X058355Y049505D01*
X058508Y049505D01*
X058585Y049428D01*
X058585Y049352D01*
X058508Y049275D01*
X058355Y049275D01*
X058278Y049352D01*
X058355Y049275D02*
X058278Y049198D01*
X058278Y049122D01*
X058355Y049045D01*
X058508Y049045D01*
X058585Y049122D01*
X058585Y049198D01*
X058508Y049275D01*
X058738Y049275D02*
X058892Y049352D01*
X058969Y049352D01*
X059045Y049275D01*
X059045Y049122D01*
X058969Y049045D01*
X058815Y049045D01*
X058738Y049122D01*
X058738Y049275D02*
X058738Y049505D01*
X059045Y049505D01*
X059199Y048968D02*
X059506Y048968D01*
X059659Y049122D02*
X059736Y049045D01*
X059889Y049045D01*
X059966Y049122D01*
X059966Y049428D01*
X059889Y049505D01*
X059736Y049505D01*
X059659Y049428D01*
X059659Y049122D01*
X060120Y049122D02*
X060120Y049505D01*
X060427Y049505D02*
X060427Y049122D01*
X060350Y049045D01*
X060196Y049045D01*
X060120Y049122D01*
X060580Y049505D02*
X060887Y049505D01*
X061040Y049505D02*
X061040Y049275D01*
X061194Y049352D01*
X061271Y049352D01*
X061347Y049275D01*
X061347Y049122D01*
X061271Y049045D01*
X061117Y049045D01*
X061040Y049122D01*
X060734Y049045D02*
X060734Y049505D01*
X061040Y049505D02*
X061347Y049505D01*
X061271Y049832D02*
X061117Y049832D01*
X061040Y049909D01*
X061040Y050062D02*
X061194Y050139D01*
X061271Y050139D01*
X061347Y050062D01*
X061347Y049909D01*
X061271Y049832D01*
X061040Y050062D02*
X061040Y050293D01*
X061347Y050293D01*
X060887Y050062D02*
X060580Y050062D01*
X060810Y050293D01*
X060810Y049832D01*
X060350Y049909D02*
X060273Y049832D01*
X060196Y049832D01*
X060120Y049909D01*
X059966Y049832D02*
X059813Y049986D01*
X059889Y049986D02*
X059659Y049986D01*
X059659Y049832D02*
X059659Y050293D01*
X059889Y050293D01*
X059966Y050216D01*
X059966Y050062D01*
X059889Y049986D01*
X060350Y049909D02*
X060350Y050293D01*
X060273Y050293D02*
X060427Y050293D01*
X058048Y049505D02*
X058048Y049045D01*
X057818Y049275D02*
X058048Y049505D01*
X064937Y049505D02*
X064937Y049045D01*
X064937Y049198D02*
X065167Y049198D01*
X065243Y049275D01*
X065243Y049428D01*
X065167Y049505D01*
X064937Y049505D01*
X065090Y049198D02*
X065243Y049045D01*
X065397Y049122D02*
X065474Y049045D01*
X065627Y049045D01*
X065704Y049122D01*
X065704Y049198D01*
X065627Y049275D01*
X065474Y049275D01*
X065397Y049352D01*
X065397Y049428D01*
X065474Y049505D01*
X065627Y049505D01*
X065704Y049428D01*
X065857Y049275D02*
X066164Y049275D01*
X066318Y049275D02*
X066625Y049275D01*
X066778Y049352D02*
X066778Y049428D01*
X066855Y049505D01*
X067008Y049505D01*
X067085Y049428D01*
X067085Y049352D01*
X067008Y049275D01*
X066855Y049275D01*
X066778Y049352D01*
X066855Y049275D02*
X066778Y049198D01*
X066778Y049122D01*
X066855Y049045D01*
X067008Y049045D01*
X067085Y049122D01*
X067085Y049198D01*
X067008Y049275D01*
X067238Y049275D02*
X067392Y049352D01*
X067469Y049352D01*
X067545Y049275D01*
X067545Y049122D01*
X067469Y049045D01*
X067315Y049045D01*
X067238Y049122D01*
X067238Y049275D02*
X067238Y049505D01*
X067545Y049505D01*
X067699Y048968D02*
X068006Y048968D01*
X068159Y049122D02*
X068236Y049045D01*
X068389Y049045D01*
X068466Y049122D01*
X068466Y049428D01*
X068389Y049505D01*
X068236Y049505D01*
X068159Y049428D01*
X068159Y049122D01*
X068620Y049122D02*
X068620Y049505D01*
X068927Y049505D02*
X068927Y049122D01*
X068850Y049045D01*
X068696Y049045D01*
X068620Y049122D01*
X069080Y049505D02*
X069387Y049505D01*
X069540Y049505D02*
X069847Y049505D01*
X069847Y049428D01*
X069540Y049122D01*
X069540Y049045D01*
X069234Y049045D02*
X069234Y049505D01*
X069310Y049832D02*
X069310Y050293D01*
X069080Y050062D01*
X069387Y050062D01*
X069540Y050062D02*
X069694Y050139D01*
X069771Y050139D01*
X069847Y050062D01*
X069847Y049909D01*
X069771Y049832D01*
X069617Y049832D01*
X069540Y049909D01*
X069540Y050062D02*
X069540Y050293D01*
X069847Y050293D01*
X068927Y050293D02*
X068773Y050293D01*
X068850Y050293D02*
X068850Y049909D01*
X068773Y049832D01*
X068696Y049832D01*
X068620Y049909D01*
X068466Y049832D02*
X068313Y049986D01*
X068389Y049986D02*
X068159Y049986D01*
X068159Y049832D02*
X068159Y050293D01*
X068389Y050293D01*
X068466Y050216D01*
X068466Y050062D01*
X068389Y049986D01*
X066548Y049505D02*
X066318Y049275D01*
X066548Y049045D02*
X066548Y049505D01*
X065347Y042293D02*
X065040Y042293D01*
X065040Y042062D01*
X065194Y042139D01*
X065271Y042139D01*
X065347Y042062D01*
X065347Y041909D01*
X065271Y041832D01*
X065117Y041832D01*
X065040Y041909D01*
X064887Y042062D02*
X064580Y042062D01*
X064810Y042293D01*
X064810Y041832D01*
X064734Y041505D02*
X064734Y041045D01*
X065040Y041122D02*
X065117Y041045D01*
X065271Y041045D01*
X065347Y041122D01*
X065347Y041198D01*
X065271Y041275D01*
X065040Y041275D01*
X065040Y041122D01*
X065040Y041275D02*
X065194Y041428D01*
X065347Y041505D01*
X064887Y041505D02*
X064580Y041505D01*
X064427Y041505D02*
X064427Y041122D01*
X064350Y041045D01*
X064196Y041045D01*
X064120Y041122D01*
X064120Y041505D01*
X063966Y041428D02*
X063889Y041505D01*
X063736Y041505D01*
X063659Y041428D01*
X063659Y041122D01*
X063736Y041045D01*
X063889Y041045D01*
X063966Y041122D01*
X063966Y041428D01*
X063966Y041832D02*
X063813Y041986D01*
X063889Y041986D02*
X063659Y041986D01*
X063659Y041832D02*
X063659Y042293D01*
X063889Y042293D01*
X063966Y042216D01*
X063966Y042062D01*
X063889Y041986D01*
X064120Y041909D02*
X064196Y041832D01*
X064273Y041832D01*
X064350Y041909D01*
X064350Y042293D01*
X064273Y042293D02*
X064427Y042293D01*
X063045Y041505D02*
X062738Y041505D01*
X062738Y041275D01*
X062892Y041352D01*
X062969Y041352D01*
X063045Y041275D01*
X063045Y041122D01*
X062969Y041045D01*
X062815Y041045D01*
X062738Y041122D01*
X062585Y041122D02*
X062508Y041045D01*
X062355Y041045D01*
X062278Y041122D01*
X062278Y041198D01*
X062355Y041275D01*
X062508Y041275D01*
X062585Y041198D01*
X062585Y041122D01*
X062508Y041275D02*
X062585Y041352D01*
X062585Y041428D01*
X062508Y041505D01*
X062355Y041505D01*
X062278Y041428D01*
X062278Y041352D01*
X062355Y041275D01*
X062125Y041275D02*
X061818Y041275D01*
X062048Y041505D01*
X062048Y041045D01*
X061664Y041275D02*
X061357Y041275D01*
X061204Y041198D02*
X061204Y041122D01*
X061127Y041045D01*
X060974Y041045D01*
X060897Y041122D01*
X060974Y041275D02*
X061127Y041275D01*
X061204Y041198D01*
X061204Y041428D02*
X061127Y041505D01*
X060974Y041505D01*
X060897Y041428D01*
X060897Y041352D01*
X060974Y041275D01*
X060743Y041275D02*
X060743Y041428D01*
X060667Y041505D01*
X060437Y041505D01*
X060437Y041045D01*
X060437Y041198D02*
X060667Y041198D01*
X060743Y041275D01*
X060590Y041198D02*
X060743Y041045D01*
X063199Y040968D02*
X063506Y040968D01*
X068937Y039005D02*
X068937Y038545D01*
X068937Y038698D02*
X069167Y038698D01*
X069243Y038775D01*
X069243Y038928D01*
X069167Y039005D01*
X068937Y039005D01*
X069090Y038698D02*
X069243Y038545D01*
X069397Y038622D02*
X069474Y038545D01*
X069627Y038545D01*
X069704Y038622D01*
X069704Y038698D01*
X069627Y038775D01*
X069474Y038775D01*
X069397Y038852D01*
X069397Y038928D01*
X069474Y039005D01*
X069627Y039005D01*
X069704Y038928D01*
X069857Y038775D02*
X070164Y038775D01*
X070318Y038775D02*
X070625Y038775D01*
X070778Y038852D02*
X070778Y038928D01*
X070855Y039005D01*
X071008Y039005D01*
X071085Y038928D01*
X071085Y038852D01*
X071008Y038775D01*
X070855Y038775D01*
X070778Y038852D01*
X070855Y038775D02*
X070778Y038698D01*
X070778Y038622D01*
X070855Y038545D01*
X071008Y038545D01*
X071085Y038622D01*
X071085Y038698D01*
X071008Y038775D01*
X071238Y038775D02*
X071392Y038852D01*
X071469Y038852D01*
X071545Y038775D01*
X071545Y038622D01*
X071469Y038545D01*
X071315Y038545D01*
X071238Y038622D01*
X071238Y038775D02*
X071238Y039005D01*
X071545Y039005D01*
X071699Y038468D02*
X072006Y038468D01*
X072159Y038622D02*
X072236Y038545D01*
X072389Y038545D01*
X072466Y038622D01*
X072466Y038928D01*
X072389Y039005D01*
X072236Y039005D01*
X072159Y038928D01*
X072159Y038622D01*
X072620Y038622D02*
X072620Y039005D01*
X072927Y039005D02*
X072927Y038622D01*
X072850Y038545D01*
X072696Y038545D01*
X072620Y038622D01*
X073080Y039005D02*
X073387Y039005D01*
X073234Y039005D02*
X073234Y038545D01*
X073540Y038622D02*
X073540Y038698D01*
X073617Y038775D01*
X073771Y038775D01*
X073847Y038698D01*
X073847Y038622D01*
X073771Y038545D01*
X073617Y038545D01*
X073540Y038622D01*
X073617Y038775D02*
X073540Y038852D01*
X073540Y038928D01*
X073617Y039005D01*
X073771Y039005D01*
X073847Y038928D01*
X073847Y038852D01*
X073771Y038775D01*
X073771Y039332D02*
X073617Y039332D01*
X073540Y039409D01*
X073540Y039562D02*
X073694Y039639D01*
X073771Y039639D01*
X073847Y039562D01*
X073847Y039409D01*
X073771Y039332D01*
X073540Y039562D02*
X073540Y039793D01*
X073847Y039793D01*
X073387Y039562D02*
X073080Y039562D01*
X073310Y039793D01*
X073310Y039332D01*
X072850Y039409D02*
X072850Y039793D01*
X072773Y039793D02*
X072927Y039793D01*
X072850Y039409D02*
X072773Y039332D01*
X072696Y039332D01*
X072620Y039409D01*
X072466Y039332D02*
X072313Y039486D01*
X072389Y039486D02*
X072159Y039486D01*
X072159Y039332D02*
X072159Y039793D01*
X072389Y039793D01*
X072466Y039716D01*
X072466Y039562D01*
X072389Y039486D01*
X070548Y039005D02*
X070548Y038545D01*
X070318Y038775D02*
X070548Y039005D01*
X081875Y032942D02*
X081875Y032482D01*
X081875Y032635D02*
X082105Y032635D01*
X082182Y032712D01*
X082182Y032865D01*
X082105Y032942D01*
X081875Y032942D01*
X082028Y032635D02*
X082182Y032482D01*
X082335Y032559D02*
X082412Y032482D01*
X082565Y032482D01*
X082642Y032559D01*
X082642Y032635D01*
X082565Y032712D01*
X082412Y032712D01*
X082335Y032789D01*
X082335Y032865D01*
X082412Y032942D01*
X082565Y032942D01*
X082642Y032865D01*
X082796Y032712D02*
X083103Y032712D01*
X083256Y032712D02*
X083563Y032712D01*
X083716Y032635D02*
X083793Y032712D01*
X083947Y032712D01*
X084023Y032635D01*
X084023Y032559D01*
X083947Y032482D01*
X083793Y032482D01*
X083716Y032559D01*
X083716Y032635D01*
X083793Y032712D02*
X083716Y032789D01*
X083716Y032865D01*
X083793Y032942D01*
X083947Y032942D01*
X084023Y032865D01*
X084023Y032789D01*
X083947Y032712D01*
X084177Y032712D02*
X084330Y032789D01*
X084407Y032789D01*
X084484Y032712D01*
X084484Y032559D01*
X084407Y032482D01*
X084254Y032482D01*
X084177Y032559D01*
X084177Y032712D02*
X084177Y032942D01*
X084484Y032942D01*
X084637Y032405D02*
X084944Y032405D01*
X085098Y032559D02*
X085174Y032482D01*
X085328Y032482D01*
X085405Y032559D01*
X085405Y032865D01*
X085328Y032942D01*
X085174Y032942D01*
X085098Y032865D01*
X085098Y032559D01*
X085558Y032559D02*
X085558Y032942D01*
X085865Y032942D02*
X085865Y032559D01*
X085788Y032482D01*
X085635Y032482D01*
X085558Y032559D01*
X086018Y032942D02*
X086325Y032942D01*
X086172Y032942D02*
X086172Y032482D01*
X086479Y032559D02*
X086556Y032482D01*
X086709Y032482D01*
X086786Y032559D01*
X086786Y032865D01*
X086709Y032942D01*
X086556Y032942D01*
X086479Y032865D01*
X086479Y032789D01*
X086556Y032712D01*
X086786Y032712D01*
X083563Y032155D02*
X083256Y032155D01*
X083256Y031925D01*
X083409Y032001D01*
X083486Y032001D01*
X083563Y031925D01*
X083563Y031771D01*
X083486Y031694D01*
X083333Y031694D01*
X083256Y031771D01*
X083103Y031925D02*
X082796Y031925D01*
X083026Y032155D01*
X083026Y031694D01*
X082565Y031771D02*
X082565Y032155D01*
X082489Y032155D02*
X082642Y032155D01*
X082565Y031771D02*
X082489Y031694D01*
X082412Y031694D01*
X082335Y031771D01*
X082182Y031694D02*
X082028Y031848D01*
X082105Y031848D02*
X081875Y031848D01*
X081875Y031694D02*
X081875Y032155D01*
X082105Y032155D01*
X082182Y032078D01*
X082182Y031925D01*
X082105Y031848D01*
X083256Y032712D02*
X083486Y032942D01*
X083486Y032482D01*
X078746Y030865D02*
X078439Y030559D01*
X078516Y030482D01*
X078669Y030482D01*
X078746Y030559D01*
X078746Y030865D01*
X078669Y030942D01*
X078516Y030942D01*
X078439Y030865D01*
X078439Y030559D01*
X078286Y030482D02*
X077979Y030482D01*
X078132Y030482D02*
X078132Y030942D01*
X077979Y030789D01*
X077825Y030942D02*
X077518Y030942D01*
X077365Y030942D02*
X077365Y030559D01*
X077288Y030482D01*
X077135Y030482D01*
X077058Y030559D01*
X077058Y030942D01*
X076905Y030865D02*
X076828Y030942D01*
X076674Y030942D01*
X076598Y030865D01*
X076598Y030559D01*
X076674Y030482D01*
X076828Y030482D01*
X076905Y030559D01*
X076905Y030865D01*
X076444Y030405D02*
X076137Y030405D01*
X075984Y030559D02*
X075907Y030482D01*
X075754Y030482D01*
X075677Y030559D01*
X075677Y030712D02*
X075830Y030789D01*
X075907Y030789D01*
X075984Y030712D01*
X075984Y030559D01*
X075677Y030712D02*
X075677Y030942D01*
X075984Y030942D01*
X075523Y030865D02*
X075523Y030789D01*
X075447Y030712D01*
X075293Y030712D01*
X075216Y030789D01*
X075216Y030865D01*
X075293Y030942D01*
X075447Y030942D01*
X075523Y030865D01*
X075447Y030712D02*
X075523Y030635D01*
X075523Y030559D01*
X075447Y030482D01*
X075293Y030482D01*
X075216Y030559D01*
X075216Y030635D01*
X075293Y030712D01*
X075063Y030712D02*
X074756Y030712D01*
X074986Y030942D01*
X074986Y030482D01*
X075063Y030155D02*
X074756Y030155D01*
X074756Y029925D01*
X074909Y030001D01*
X074986Y030001D01*
X075063Y029925D01*
X075063Y029771D01*
X074986Y029694D01*
X074833Y029694D01*
X074756Y029771D01*
X074603Y029925D02*
X074296Y029925D01*
X074526Y030155D01*
X074526Y029694D01*
X074065Y029771D02*
X074065Y030155D01*
X073989Y030155D02*
X074142Y030155D01*
X074065Y030482D02*
X073912Y030482D01*
X073835Y030559D01*
X073912Y030712D02*
X074065Y030712D01*
X074142Y030635D01*
X074142Y030559D01*
X074065Y030482D01*
X073912Y030712D02*
X073835Y030789D01*
X073835Y030865D01*
X073912Y030942D01*
X074065Y030942D01*
X074142Y030865D01*
X074296Y030712D02*
X074603Y030712D01*
X073682Y030712D02*
X073605Y030635D01*
X073375Y030635D01*
X073375Y030482D02*
X073375Y030942D01*
X073605Y030942D01*
X073682Y030865D01*
X073682Y030712D01*
X073528Y030635D02*
X073682Y030482D01*
X073605Y030155D02*
X073682Y030078D01*
X073682Y029925D01*
X073605Y029848D01*
X073375Y029848D01*
X073528Y029848D02*
X073682Y029694D01*
X073835Y029771D02*
X073912Y029694D01*
X073989Y029694D01*
X074065Y029771D01*
X073605Y030155D02*
X073375Y030155D01*
X073375Y029694D01*
X070246Y030559D02*
X070169Y030482D01*
X070016Y030482D01*
X069939Y030559D01*
X069786Y030482D02*
X069479Y030482D01*
X069632Y030482D02*
X069632Y030942D01*
X069479Y030789D01*
X069325Y030942D02*
X069018Y030942D01*
X068865Y030942D02*
X068865Y030559D01*
X068788Y030482D01*
X068635Y030482D01*
X068558Y030559D01*
X068558Y030942D01*
X068405Y030865D02*
X068328Y030942D01*
X068174Y030942D01*
X068098Y030865D01*
X068098Y030559D01*
X068174Y030482D01*
X068328Y030482D01*
X068405Y030559D01*
X068405Y030865D01*
X067944Y030405D02*
X067637Y030405D01*
X067484Y030559D02*
X067407Y030482D01*
X067254Y030482D01*
X067177Y030559D01*
X067177Y030712D02*
X067330Y030789D01*
X067407Y030789D01*
X067484Y030712D01*
X067484Y030559D01*
X067177Y030712D02*
X067177Y030942D01*
X067484Y030942D01*
X067023Y030865D02*
X067023Y030789D01*
X066947Y030712D01*
X066793Y030712D01*
X066716Y030789D01*
X066716Y030865D01*
X066793Y030942D01*
X066947Y030942D01*
X067023Y030865D01*
X066947Y030712D02*
X067023Y030635D01*
X067023Y030559D01*
X066947Y030482D01*
X066793Y030482D01*
X066716Y030559D01*
X066716Y030635D01*
X066793Y030712D01*
X066563Y030712D02*
X066256Y030712D01*
X066486Y030942D01*
X066486Y030482D01*
X066563Y030155D02*
X066256Y030155D01*
X066256Y029925D01*
X066409Y030001D01*
X066486Y030001D01*
X066563Y029925D01*
X066563Y029771D01*
X066486Y029694D01*
X066333Y029694D01*
X066256Y029771D01*
X066103Y029925D02*
X065796Y029925D01*
X066026Y030155D01*
X066026Y029694D01*
X065565Y029771D02*
X065565Y030155D01*
X065489Y030155D02*
X065642Y030155D01*
X065565Y030482D02*
X065412Y030482D01*
X065335Y030559D01*
X065412Y030712D02*
X065565Y030712D01*
X065642Y030635D01*
X065642Y030559D01*
X065565Y030482D01*
X065412Y030712D02*
X065335Y030789D01*
X065335Y030865D01*
X065412Y030942D01*
X065565Y030942D01*
X065642Y030865D01*
X065796Y030712D02*
X066103Y030712D01*
X065182Y030712D02*
X065105Y030635D01*
X064875Y030635D01*
X064875Y030482D02*
X064875Y030942D01*
X065105Y030942D01*
X065182Y030865D01*
X065182Y030712D01*
X065028Y030635D02*
X065182Y030482D01*
X065105Y030155D02*
X065182Y030078D01*
X065182Y029925D01*
X065105Y029848D01*
X064875Y029848D01*
X065028Y029848D02*
X065182Y029694D01*
X065335Y029771D02*
X065412Y029694D01*
X065489Y029694D01*
X065565Y029771D01*
X065105Y030155D02*
X064875Y030155D01*
X064875Y029694D01*
X061746Y030559D02*
X061669Y030482D01*
X061516Y030482D01*
X061439Y030559D01*
X061439Y030712D02*
X061593Y030789D01*
X061669Y030789D01*
X061746Y030712D01*
X061746Y030559D01*
X061439Y030712D02*
X061439Y030942D01*
X061746Y030942D01*
X061132Y030942D02*
X061132Y030482D01*
X060979Y030482D02*
X061286Y030482D01*
X060979Y030789D02*
X061132Y030942D01*
X060825Y030942D02*
X060518Y030942D01*
X060365Y030942D02*
X060365Y030559D01*
X060288Y030482D01*
X060135Y030482D01*
X060058Y030559D01*
X060058Y030942D01*
X059905Y030865D02*
X059828Y030942D01*
X059674Y030942D01*
X059598Y030865D01*
X059598Y030559D01*
X059674Y030482D01*
X059828Y030482D01*
X059905Y030559D01*
X059905Y030865D01*
X059444Y030405D02*
X059137Y030405D01*
X058984Y030559D02*
X058907Y030482D01*
X058754Y030482D01*
X058677Y030559D01*
X058677Y030712D02*
X058830Y030789D01*
X058907Y030789D01*
X058984Y030712D01*
X058984Y030559D01*
X058677Y030712D02*
X058677Y030942D01*
X058984Y030942D01*
X058523Y030865D02*
X058523Y030789D01*
X058447Y030712D01*
X058293Y030712D01*
X058216Y030789D01*
X058216Y030865D01*
X058293Y030942D01*
X058447Y030942D01*
X058523Y030865D01*
X058447Y030712D02*
X058523Y030635D01*
X058523Y030559D01*
X058447Y030482D01*
X058293Y030482D01*
X058216Y030559D01*
X058216Y030635D01*
X058293Y030712D01*
X058063Y030712D02*
X057756Y030712D01*
X057986Y030942D01*
X057986Y030482D01*
X058063Y030155D02*
X057756Y030155D01*
X057756Y029925D01*
X057909Y030001D01*
X057986Y030001D01*
X058063Y029925D01*
X058063Y029771D01*
X057986Y029694D01*
X057833Y029694D01*
X057756Y029771D01*
X057603Y029925D02*
X057296Y029925D01*
X057526Y030155D01*
X057526Y029694D01*
X057065Y029771D02*
X057065Y030155D01*
X056989Y030155D02*
X057142Y030155D01*
X057065Y030482D02*
X056912Y030482D01*
X056835Y030559D01*
X056912Y030712D02*
X057065Y030712D01*
X057142Y030635D01*
X057142Y030559D01*
X057065Y030482D01*
X056912Y030712D02*
X056835Y030789D01*
X056835Y030865D01*
X056912Y030942D01*
X057065Y030942D01*
X057142Y030865D01*
X057296Y030712D02*
X057603Y030712D01*
X056682Y030712D02*
X056605Y030635D01*
X056375Y030635D01*
X056375Y030482D02*
X056375Y030942D01*
X056605Y030942D01*
X056682Y030865D01*
X056682Y030712D01*
X056528Y030635D02*
X056682Y030482D01*
X056605Y030155D02*
X056682Y030078D01*
X056682Y029925D01*
X056605Y029848D01*
X056375Y029848D01*
X056528Y029848D02*
X056682Y029694D01*
X056835Y029771D02*
X056912Y029694D01*
X056989Y029694D01*
X057065Y029771D01*
X056605Y030155D02*
X056375Y030155D01*
X056375Y029694D01*
X053246Y030865D02*
X052939Y030559D01*
X052939Y030482D01*
X052786Y030482D02*
X052479Y030482D01*
X052632Y030482D02*
X052632Y030942D01*
X052479Y030789D01*
X052325Y030942D02*
X052018Y030942D01*
X051865Y030942D02*
X051865Y030559D01*
X051788Y030482D01*
X051635Y030482D01*
X051558Y030559D01*
X051558Y030942D01*
X051405Y030865D02*
X051328Y030942D01*
X051174Y030942D01*
X051098Y030865D01*
X051098Y030559D01*
X051174Y030482D01*
X051328Y030482D01*
X051405Y030559D01*
X051405Y030865D01*
X050944Y030405D02*
X050637Y030405D01*
X050484Y030559D02*
X050407Y030482D01*
X050254Y030482D01*
X050177Y030559D01*
X050177Y030712D02*
X050330Y030789D01*
X050407Y030789D01*
X050484Y030712D01*
X050484Y030559D01*
X050177Y030712D02*
X050177Y030942D01*
X050484Y030942D01*
X050023Y030865D02*
X050023Y030789D01*
X049947Y030712D01*
X049793Y030712D01*
X049716Y030789D01*
X049716Y030865D01*
X049793Y030942D01*
X049947Y030942D01*
X050023Y030865D01*
X049947Y030712D02*
X050023Y030635D01*
X050023Y030559D01*
X049947Y030482D01*
X049793Y030482D01*
X049716Y030559D01*
X049716Y030635D01*
X049793Y030712D01*
X049563Y030712D02*
X049256Y030712D01*
X049486Y030942D01*
X049486Y030482D01*
X049563Y030155D02*
X049256Y030155D01*
X049256Y029925D01*
X049409Y030001D01*
X049486Y030001D01*
X049563Y029925D01*
X049563Y029771D01*
X049486Y029694D01*
X049333Y029694D01*
X049256Y029771D01*
X049103Y029925D02*
X048796Y029925D01*
X049026Y030155D01*
X049026Y029694D01*
X048565Y029771D02*
X048565Y030155D01*
X048489Y030155D02*
X048642Y030155D01*
X048565Y030482D02*
X048412Y030482D01*
X048335Y030559D01*
X048412Y030712D02*
X048565Y030712D01*
X048642Y030635D01*
X048642Y030559D01*
X048565Y030482D01*
X048412Y030712D02*
X048335Y030789D01*
X048335Y030865D01*
X048412Y030942D01*
X048565Y030942D01*
X048642Y030865D01*
X048796Y030712D02*
X049103Y030712D01*
X048182Y030712D02*
X048105Y030635D01*
X047875Y030635D01*
X047875Y030482D02*
X047875Y030942D01*
X048105Y030942D01*
X048182Y030865D01*
X048182Y030712D01*
X048028Y030635D02*
X048182Y030482D01*
X048105Y030155D02*
X048182Y030078D01*
X048182Y029925D01*
X048105Y029848D01*
X047875Y029848D01*
X048028Y029848D02*
X048182Y029694D01*
X048335Y029771D02*
X048412Y029694D01*
X048489Y029694D01*
X048565Y029771D01*
X048105Y030155D02*
X047875Y030155D01*
X047875Y029694D01*
X052172Y030482D02*
X052172Y030942D01*
X052939Y030942D02*
X053246Y030942D01*
X053246Y030865D01*
X060672Y030942D02*
X060672Y030482D01*
X069172Y030482D02*
X069172Y030942D01*
X069939Y030865D02*
X070016Y030942D01*
X070169Y030942D01*
X070246Y030865D01*
X070246Y030789D01*
X070169Y030712D01*
X070246Y030635D01*
X070246Y030559D01*
X070169Y030712D02*
X070093Y030712D01*
X077672Y030482D02*
X077672Y030942D01*
X084038Y025474D02*
X084038Y025013D01*
X084345Y025013D01*
X084498Y025013D02*
X084805Y025474D01*
X084959Y025474D02*
X085266Y025474D01*
X085112Y025474D02*
X085112Y025013D01*
X084805Y025013D02*
X084498Y025474D01*
X084345Y025474D02*
X084038Y025474D01*
X084038Y025244D02*
X084191Y025244D01*
X085419Y024937D02*
X085726Y024937D01*
X085879Y025013D02*
X085879Y025474D01*
X086033Y025320D01*
X086186Y025474D01*
X086186Y025013D01*
X086340Y025090D02*
X086417Y025013D01*
X086570Y025013D01*
X086647Y025090D01*
X086647Y025397D01*
X086570Y025474D01*
X086417Y025474D01*
X086340Y025397D01*
X086340Y025090D01*
X086800Y025474D02*
X087107Y025474D01*
X086954Y025474D02*
X086954Y025013D01*
X087261Y025090D02*
X087337Y025013D01*
X087491Y025013D01*
X087568Y025090D01*
X087568Y025397D01*
X087491Y025474D01*
X087337Y025474D01*
X087261Y025397D01*
X087261Y025090D01*
X087721Y025013D02*
X087721Y025474D01*
X087951Y025474D01*
X088028Y025397D01*
X088028Y025244D01*
X087951Y025167D01*
X087721Y025167D01*
X087874Y025167D02*
X088028Y025013D01*
X088181Y024937D02*
X088488Y024937D01*
X088642Y025244D02*
X088949Y025244D01*
X088872Y025474D02*
X088642Y025244D01*
X088872Y025013D02*
X088872Y025474D01*
X083093Y022942D02*
X083093Y022482D01*
X083246Y022482D02*
X082939Y022482D01*
X082786Y022482D02*
X082479Y022482D01*
X082632Y022482D02*
X082632Y022942D01*
X082479Y022789D01*
X082325Y022942D02*
X082018Y022942D01*
X081865Y022942D02*
X081865Y022559D01*
X081788Y022482D01*
X081635Y022482D01*
X081558Y022559D01*
X081558Y022942D01*
X081405Y022865D02*
X081328Y022942D01*
X081174Y022942D01*
X081098Y022865D01*
X081098Y022559D01*
X081174Y022482D01*
X081328Y022482D01*
X081405Y022559D01*
X081405Y022865D01*
X080944Y022405D02*
X080637Y022405D01*
X080484Y022559D02*
X080407Y022482D01*
X080254Y022482D01*
X080177Y022559D01*
X080177Y022712D02*
X080330Y022789D01*
X080407Y022789D01*
X080484Y022712D01*
X080484Y022559D01*
X080177Y022712D02*
X080177Y022942D01*
X080484Y022942D01*
X080023Y022865D02*
X080023Y022789D01*
X079947Y022712D01*
X079793Y022712D01*
X079716Y022789D01*
X079716Y022865D01*
X079793Y022942D01*
X079947Y022942D01*
X080023Y022865D01*
X079947Y022712D02*
X080023Y022635D01*
X080023Y022559D01*
X079947Y022482D01*
X079793Y022482D01*
X079716Y022559D01*
X079716Y022635D01*
X079793Y022712D01*
X079563Y022712D02*
X079256Y022712D01*
X079486Y022942D01*
X079486Y022482D01*
X079563Y022155D02*
X079256Y022155D01*
X079256Y021925D01*
X079409Y022001D01*
X079486Y022001D01*
X079563Y021925D01*
X079563Y021771D01*
X079486Y021694D01*
X079333Y021694D01*
X079256Y021771D01*
X079103Y021925D02*
X078796Y021925D01*
X079026Y022155D01*
X079026Y021694D01*
X078565Y021771D02*
X078565Y022155D01*
X078489Y022155D02*
X078642Y022155D01*
X078565Y022482D02*
X078412Y022482D01*
X078335Y022559D01*
X078412Y022712D02*
X078565Y022712D01*
X078642Y022635D01*
X078642Y022559D01*
X078565Y022482D01*
X078412Y022712D02*
X078335Y022789D01*
X078335Y022865D01*
X078412Y022942D01*
X078565Y022942D01*
X078642Y022865D01*
X078796Y022712D02*
X079103Y022712D01*
X078182Y022712D02*
X078105Y022635D01*
X077875Y022635D01*
X077875Y022482D02*
X077875Y022942D01*
X078105Y022942D01*
X078182Y022865D01*
X078182Y022712D01*
X078028Y022635D02*
X078182Y022482D01*
X078105Y022155D02*
X078182Y022078D01*
X078182Y021925D01*
X078105Y021848D01*
X077875Y021848D01*
X078028Y021848D02*
X078182Y021694D01*
X078335Y021771D02*
X078412Y021694D01*
X078489Y021694D01*
X078565Y021771D01*
X078105Y022155D02*
X077875Y022155D01*
X077875Y021694D01*
X074746Y022482D02*
X074439Y022482D01*
X074746Y022789D01*
X074746Y022865D01*
X074669Y022942D01*
X074516Y022942D01*
X074439Y022865D01*
X074132Y022942D02*
X074132Y022482D01*
X073979Y022482D02*
X074286Y022482D01*
X073979Y022789D02*
X074132Y022942D01*
X073825Y022942D02*
X073518Y022942D01*
X073365Y022942D02*
X073365Y022559D01*
X073288Y022482D01*
X073135Y022482D01*
X073058Y022559D01*
X073058Y022942D01*
X072905Y022865D02*
X072828Y022942D01*
X072674Y022942D01*
X072598Y022865D01*
X072598Y022559D01*
X072674Y022482D01*
X072828Y022482D01*
X072905Y022559D01*
X072905Y022865D01*
X072444Y022405D02*
X072137Y022405D01*
X071984Y022559D02*
X071907Y022482D01*
X071754Y022482D01*
X071677Y022559D01*
X071677Y022712D02*
X071830Y022789D01*
X071907Y022789D01*
X071984Y022712D01*
X071984Y022559D01*
X071677Y022712D02*
X071677Y022942D01*
X071984Y022942D01*
X071523Y022865D02*
X071523Y022789D01*
X071447Y022712D01*
X071293Y022712D01*
X071216Y022789D01*
X071216Y022865D01*
X071293Y022942D01*
X071447Y022942D01*
X071523Y022865D01*
X071447Y022712D02*
X071523Y022635D01*
X071523Y022559D01*
X071447Y022482D01*
X071293Y022482D01*
X071216Y022559D01*
X071216Y022635D01*
X071293Y022712D01*
X071063Y022712D02*
X070756Y022712D01*
X070986Y022942D01*
X070986Y022482D01*
X071063Y022155D02*
X070756Y022155D01*
X070756Y021925D01*
X070909Y022001D01*
X070986Y022001D01*
X071063Y021925D01*
X071063Y021771D01*
X070986Y021694D01*
X070833Y021694D01*
X070756Y021771D01*
X070603Y021925D02*
X070296Y021925D01*
X070526Y022155D01*
X070526Y021694D01*
X070065Y021771D02*
X070065Y022155D01*
X069989Y022155D02*
X070142Y022155D01*
X070065Y022482D02*
X069912Y022482D01*
X069835Y022559D01*
X069912Y022712D02*
X070065Y022712D01*
X070142Y022635D01*
X070142Y022559D01*
X070065Y022482D01*
X069912Y022712D02*
X069835Y022789D01*
X069835Y022865D01*
X069912Y022942D01*
X070065Y022942D01*
X070142Y022865D01*
X070296Y022712D02*
X070603Y022712D01*
X069682Y022712D02*
X069605Y022635D01*
X069375Y022635D01*
X069375Y022482D02*
X069375Y022942D01*
X069605Y022942D01*
X069682Y022865D01*
X069682Y022712D01*
X069528Y022635D02*
X069682Y022482D01*
X069605Y022155D02*
X069682Y022078D01*
X069682Y021925D01*
X069605Y021848D01*
X069375Y021848D01*
X069528Y021848D02*
X069682Y021694D01*
X069835Y021771D02*
X069912Y021694D01*
X069989Y021694D01*
X070065Y021771D01*
X069605Y022155D02*
X069375Y022155D01*
X069375Y021694D01*
X066246Y022712D02*
X065939Y022712D01*
X066169Y022942D01*
X066169Y022482D01*
X065786Y022482D02*
X065479Y022482D01*
X065632Y022482D02*
X065632Y022942D01*
X065479Y022789D01*
X065325Y022942D02*
X065018Y022942D01*
X064865Y022942D02*
X064865Y022559D01*
X064788Y022482D01*
X064635Y022482D01*
X064558Y022559D01*
X064558Y022942D01*
X064405Y022865D02*
X064328Y022942D01*
X064174Y022942D01*
X064098Y022865D01*
X064098Y022559D01*
X064174Y022482D01*
X064328Y022482D01*
X064405Y022559D01*
X064405Y022865D01*
X063944Y022405D02*
X063637Y022405D01*
X063484Y022559D02*
X063407Y022482D01*
X063254Y022482D01*
X063177Y022559D01*
X063177Y022712D02*
X063330Y022789D01*
X063407Y022789D01*
X063484Y022712D01*
X063484Y022559D01*
X063177Y022712D02*
X063177Y022942D01*
X063484Y022942D01*
X063023Y022865D02*
X063023Y022789D01*
X062947Y022712D01*
X062793Y022712D01*
X062716Y022789D01*
X062716Y022865D01*
X062793Y022942D01*
X062947Y022942D01*
X063023Y022865D01*
X062947Y022712D02*
X063023Y022635D01*
X063023Y022559D01*
X062947Y022482D01*
X062793Y022482D01*
X062716Y022559D01*
X062716Y022635D01*
X062793Y022712D01*
X062563Y022712D02*
X062256Y022712D01*
X062486Y022942D01*
X062486Y022482D01*
X062563Y022155D02*
X062256Y022155D01*
X062256Y021925D01*
X062409Y022001D01*
X062486Y022001D01*
X062563Y021925D01*
X062563Y021771D01*
X062486Y021694D01*
X062333Y021694D01*
X062256Y021771D01*
X062103Y021925D02*
X061796Y021925D01*
X062026Y022155D01*
X062026Y021694D01*
X061565Y021771D02*
X061565Y022155D01*
X061489Y022155D02*
X061642Y022155D01*
X061565Y022482D02*
X061412Y022482D01*
X061335Y022559D01*
X061412Y022712D02*
X061565Y022712D01*
X061642Y022635D01*
X061642Y022559D01*
X061565Y022482D01*
X061412Y022712D02*
X061335Y022789D01*
X061335Y022865D01*
X061412Y022942D01*
X061565Y022942D01*
X061642Y022865D01*
X061796Y022712D02*
X062103Y022712D01*
X061182Y022712D02*
X061105Y022635D01*
X060875Y022635D01*
X060875Y022482D02*
X060875Y022942D01*
X061105Y022942D01*
X061182Y022865D01*
X061182Y022712D01*
X061028Y022635D02*
X061182Y022482D01*
X061105Y022155D02*
X061182Y022078D01*
X061182Y021925D01*
X061105Y021848D01*
X060875Y021848D01*
X061028Y021848D02*
X061182Y021694D01*
X061335Y021771D02*
X061412Y021694D01*
X061489Y021694D01*
X061565Y021771D01*
X061105Y022155D02*
X060875Y022155D01*
X060875Y021694D01*
X057746Y022559D02*
X057669Y022482D01*
X057516Y022482D01*
X057439Y022559D01*
X057439Y022712D01*
X057669Y022712D01*
X057746Y022635D01*
X057746Y022559D01*
X057593Y022865D02*
X057439Y022712D01*
X057593Y022865D02*
X057746Y022942D01*
X057132Y022942D02*
X057132Y022482D01*
X056979Y022482D02*
X057286Y022482D01*
X056979Y022789D02*
X057132Y022942D01*
X056825Y022942D02*
X056518Y022942D01*
X056365Y022942D02*
X056365Y022559D01*
X056288Y022482D01*
X056135Y022482D01*
X056058Y022559D01*
X056058Y022942D01*
X055905Y022865D02*
X055828Y022942D01*
X055674Y022942D01*
X055598Y022865D01*
X055598Y022559D01*
X055674Y022482D01*
X055828Y022482D01*
X055905Y022559D01*
X055905Y022865D01*
X055444Y022405D02*
X055137Y022405D01*
X054984Y022559D02*
X054907Y022482D01*
X054754Y022482D01*
X054677Y022559D01*
X054677Y022712D02*
X054830Y022789D01*
X054907Y022789D01*
X054984Y022712D01*
X054984Y022559D01*
X054677Y022712D02*
X054677Y022942D01*
X054984Y022942D01*
X054523Y022865D02*
X054523Y022789D01*
X054447Y022712D01*
X054293Y022712D01*
X054216Y022789D01*
X054216Y022865D01*
X054293Y022942D01*
X054447Y022942D01*
X054523Y022865D01*
X054447Y022712D02*
X054523Y022635D01*
X054523Y022559D01*
X054447Y022482D01*
X054293Y022482D01*
X054216Y022559D01*
X054216Y022635D01*
X054293Y022712D01*
X054063Y022712D02*
X053756Y022712D01*
X053986Y022942D01*
X053986Y022482D01*
X054063Y022155D02*
X053756Y022155D01*
X053756Y021925D01*
X053909Y022001D01*
X053986Y022001D01*
X054063Y021925D01*
X054063Y021771D01*
X053986Y021694D01*
X053833Y021694D01*
X053756Y021771D01*
X053603Y021925D02*
X053296Y021925D01*
X053526Y022155D01*
X053526Y021694D01*
X053065Y021771D02*
X053065Y022155D01*
X052989Y022155D02*
X053142Y022155D01*
X053065Y022482D02*
X052912Y022482D01*
X052835Y022559D01*
X052912Y022712D02*
X053065Y022712D01*
X053142Y022635D01*
X053142Y022559D01*
X053065Y022482D01*
X052912Y022712D02*
X052835Y022789D01*
X052835Y022865D01*
X052912Y022942D01*
X053065Y022942D01*
X053142Y022865D01*
X053296Y022712D02*
X053603Y022712D01*
X052682Y022712D02*
X052605Y022635D01*
X052375Y022635D01*
X052375Y022482D02*
X052375Y022942D01*
X052605Y022942D01*
X052682Y022865D01*
X052682Y022712D01*
X052528Y022635D02*
X052682Y022482D01*
X052605Y022155D02*
X052682Y022078D01*
X052682Y021925D01*
X052605Y021848D01*
X052375Y021848D01*
X052528Y021848D02*
X052682Y021694D01*
X052835Y021771D02*
X052912Y021694D01*
X052989Y021694D01*
X053065Y021771D01*
X052605Y022155D02*
X052375Y022155D01*
X052375Y021694D01*
X056672Y022482D02*
X056672Y022942D01*
X065172Y022942D02*
X065172Y022482D01*
X073672Y022482D02*
X073672Y022942D01*
X082172Y022942D02*
X082172Y022482D01*
X082939Y022789D02*
X083093Y022942D01*
X085419Y036437D02*
X085726Y036437D01*
X085879Y036513D02*
X085879Y036974D01*
X086033Y036820D01*
X086186Y036974D01*
X086186Y036513D01*
X086340Y036590D02*
X086417Y036513D01*
X086570Y036513D01*
X086647Y036590D01*
X086647Y036897D01*
X086570Y036974D01*
X086417Y036974D01*
X086340Y036897D01*
X086340Y036590D01*
X086800Y036974D02*
X087107Y036974D01*
X086954Y036974D02*
X086954Y036513D01*
X087261Y036590D02*
X087337Y036513D01*
X087491Y036513D01*
X087568Y036590D01*
X087568Y036897D01*
X087491Y036974D01*
X087337Y036974D01*
X087261Y036897D01*
X087261Y036590D01*
X087721Y036513D02*
X087721Y036974D01*
X087951Y036974D01*
X088028Y036897D01*
X088028Y036744D01*
X087951Y036667D01*
X087721Y036667D01*
X087874Y036667D02*
X088028Y036513D01*
X088181Y036437D02*
X088488Y036437D01*
X088642Y036590D02*
X088719Y036513D01*
X088872Y036513D01*
X088949Y036590D01*
X088949Y036744D01*
X088872Y036820D01*
X088795Y036820D01*
X088642Y036744D01*
X088642Y036974D01*
X088949Y036974D01*
X085266Y036974D02*
X084959Y036974D01*
X085112Y036974D02*
X085112Y036513D01*
X084805Y036513D02*
X084498Y036974D01*
X084345Y036974D02*
X084038Y036974D01*
X084038Y036513D01*
X084345Y036513D01*
X084498Y036513D02*
X084805Y036974D01*
X084191Y036744D02*
X084038Y036744D01*
X084038Y048013D02*
X084345Y048013D01*
X084498Y048013D02*
X084805Y048474D01*
X084959Y048474D02*
X085266Y048474D01*
X085112Y048474D02*
X085112Y048013D01*
X084805Y048013D02*
X084498Y048474D01*
X084345Y048474D02*
X084038Y048474D01*
X084038Y048013D01*
X084038Y048244D02*
X084191Y048244D01*
X085419Y047937D02*
X085726Y047937D01*
X085879Y048013D02*
X085879Y048474D01*
X086033Y048320D01*
X086186Y048474D01*
X086186Y048013D01*
X086340Y048090D02*
X086417Y048013D01*
X086570Y048013D01*
X086647Y048090D01*
X086647Y048397D01*
X086570Y048474D01*
X086417Y048474D01*
X086340Y048397D01*
X086340Y048090D01*
X086800Y048474D02*
X087107Y048474D01*
X086954Y048474D02*
X086954Y048013D01*
X087261Y048090D02*
X087337Y048013D01*
X087491Y048013D01*
X087568Y048090D01*
X087568Y048397D01*
X087491Y048474D01*
X087337Y048474D01*
X087261Y048397D01*
X087261Y048090D01*
X087721Y048013D02*
X087721Y048474D01*
X087951Y048474D01*
X088028Y048397D01*
X088028Y048244D01*
X087951Y048167D01*
X087721Y048167D01*
X087874Y048167D02*
X088028Y048013D01*
X088181Y047937D02*
X088488Y047937D01*
X088642Y048090D02*
X088719Y048013D01*
X088872Y048013D01*
X088949Y048090D01*
X088949Y048167D01*
X088872Y048244D01*
X088642Y048244D01*
X088642Y048090D01*
X088642Y048244D02*
X088795Y048397D01*
X088949Y048474D01*
X056847Y042293D02*
X056540Y042293D01*
X056540Y042062D01*
X056694Y042139D01*
X056771Y042139D01*
X056847Y042062D01*
X056847Y041909D01*
X056771Y041832D01*
X056617Y041832D01*
X056540Y041909D01*
X056387Y042062D02*
X056080Y042062D01*
X056310Y042293D01*
X056310Y041832D01*
X056234Y041505D02*
X056234Y041045D01*
X055927Y041122D02*
X055927Y041505D01*
X056080Y041505D02*
X056387Y041505D01*
X056540Y041275D02*
X056771Y041505D01*
X056771Y041045D01*
X056847Y041275D02*
X056540Y041275D01*
X055927Y041122D02*
X055850Y041045D01*
X055696Y041045D01*
X055620Y041122D01*
X055620Y041505D01*
X055466Y041428D02*
X055389Y041505D01*
X055236Y041505D01*
X055159Y041428D01*
X055159Y041122D01*
X055236Y041045D01*
X055389Y041045D01*
X055466Y041122D01*
X055466Y041428D01*
X055466Y041832D02*
X055313Y041986D01*
X055389Y041986D02*
X055159Y041986D01*
X055159Y041832D02*
X055159Y042293D01*
X055389Y042293D01*
X055466Y042216D01*
X055466Y042062D01*
X055389Y041986D01*
X055620Y041909D02*
X055696Y041832D01*
X055773Y041832D01*
X055850Y041909D01*
X055850Y042293D01*
X055773Y042293D02*
X055927Y042293D01*
X054545Y041505D02*
X054238Y041505D01*
X054238Y041275D01*
X054392Y041352D01*
X054469Y041352D01*
X054545Y041275D01*
X054545Y041122D01*
X054469Y041045D01*
X054315Y041045D01*
X054238Y041122D01*
X054085Y041122D02*
X054008Y041045D01*
X053855Y041045D01*
X053778Y041122D01*
X053778Y041198D01*
X053855Y041275D01*
X054008Y041275D01*
X054085Y041198D01*
X054085Y041122D01*
X054008Y041275D02*
X054085Y041352D01*
X054085Y041428D01*
X054008Y041505D01*
X053855Y041505D01*
X053778Y041428D01*
X053778Y041352D01*
X053855Y041275D01*
X053625Y041275D02*
X053318Y041275D01*
X053548Y041505D01*
X053548Y041045D01*
X053164Y041275D02*
X052857Y041275D01*
X052704Y041198D02*
X052704Y041122D01*
X052627Y041045D01*
X052474Y041045D01*
X052397Y041122D01*
X052474Y041275D02*
X052627Y041275D01*
X052704Y041198D01*
X052704Y041428D02*
X052627Y041505D01*
X052474Y041505D01*
X052397Y041428D01*
X052397Y041352D01*
X052474Y041275D01*
X052243Y041275D02*
X052243Y041428D01*
X052167Y041505D01*
X051937Y041505D01*
X051937Y041045D01*
X051937Y041198D02*
X052167Y041198D01*
X052243Y041275D01*
X052090Y041198D02*
X052243Y041045D01*
X054699Y040968D02*
X055006Y040968D01*
X048347Y041045D02*
X048040Y041045D01*
X048347Y041352D01*
X048347Y041428D01*
X048271Y041505D01*
X048117Y041505D01*
X048040Y041428D01*
X047887Y041505D02*
X047580Y041505D01*
X047427Y041505D02*
X047427Y041122D01*
X047350Y041045D01*
X047196Y041045D01*
X047120Y041122D01*
X047120Y041505D01*
X046966Y041428D02*
X046889Y041505D01*
X046736Y041505D01*
X046659Y041428D01*
X046659Y041122D01*
X046736Y041045D01*
X046889Y041045D01*
X046966Y041122D01*
X046966Y041428D01*
X046966Y041832D02*
X046813Y041986D01*
X046889Y041986D02*
X046659Y041986D01*
X046659Y041832D02*
X046659Y042293D01*
X046889Y042293D01*
X046966Y042216D01*
X046966Y042062D01*
X046889Y041986D01*
X047120Y041909D02*
X047196Y041832D01*
X047273Y041832D01*
X047350Y041909D01*
X047350Y042293D01*
X047273Y042293D02*
X047427Y042293D01*
X047580Y042062D02*
X047887Y042062D01*
X048040Y042062D02*
X048194Y042139D01*
X048271Y042139D01*
X048347Y042062D01*
X048347Y041909D01*
X048271Y041832D01*
X048117Y041832D01*
X048040Y041909D01*
X048040Y042062D02*
X048040Y042293D01*
X048347Y042293D01*
X047810Y042293D02*
X047580Y042062D01*
X047810Y041832D02*
X047810Y042293D01*
X047734Y041505D02*
X047734Y041045D01*
X046506Y040968D02*
X046199Y040968D01*
X046045Y041122D02*
X045969Y041045D01*
X045815Y041045D01*
X045738Y041122D01*
X045585Y041122D02*
X045508Y041045D01*
X045355Y041045D01*
X045278Y041122D01*
X045278Y041198D01*
X045355Y041275D01*
X045508Y041275D01*
X045585Y041198D01*
X045585Y041122D01*
X045508Y041275D02*
X045585Y041352D01*
X045585Y041428D01*
X045508Y041505D01*
X045355Y041505D01*
X045278Y041428D01*
X045278Y041352D01*
X045355Y041275D01*
X045125Y041275D02*
X044818Y041275D01*
X045048Y041505D01*
X045048Y041045D01*
X044664Y041275D02*
X044357Y041275D01*
X044204Y041198D02*
X044204Y041122D01*
X044127Y041045D01*
X043974Y041045D01*
X043897Y041122D01*
X043974Y041275D02*
X044127Y041275D01*
X044204Y041198D01*
X044204Y041428D02*
X044127Y041505D01*
X043974Y041505D01*
X043897Y041428D01*
X043897Y041352D01*
X043974Y041275D01*
X043743Y041275D02*
X043667Y041198D01*
X043437Y041198D01*
X043590Y041198D02*
X043743Y041045D01*
X043743Y041275D02*
X043743Y041428D01*
X043667Y041505D01*
X043437Y041505D01*
X043437Y041045D01*
X045738Y041275D02*
X045892Y041352D01*
X045969Y041352D01*
X046045Y041275D01*
X046045Y041122D01*
X045738Y041275D02*
X045738Y041505D01*
X046045Y041505D01*
X039847Y041909D02*
X039771Y041832D01*
X039617Y041832D01*
X039540Y041909D01*
X039540Y042062D02*
X039694Y042139D01*
X039771Y042139D01*
X039847Y042062D01*
X039847Y041909D01*
X039540Y042062D02*
X039540Y042293D01*
X039847Y042293D01*
X039387Y042062D02*
X039080Y042062D01*
X039310Y042293D01*
X039310Y041832D01*
X039234Y041505D02*
X039234Y041045D01*
X039540Y041045D02*
X039847Y041045D01*
X039694Y041045D02*
X039694Y041505D01*
X039540Y041352D01*
X039387Y041505D02*
X039080Y041505D01*
X038927Y041505D02*
X038927Y041122D01*
X038850Y041045D01*
X038696Y041045D01*
X038620Y041122D01*
X038620Y041505D01*
X038466Y041428D02*
X038389Y041505D01*
X038236Y041505D01*
X038159Y041428D01*
X038159Y041122D01*
X038236Y041045D01*
X038389Y041045D01*
X038466Y041122D01*
X038466Y041428D01*
X038466Y041832D02*
X038313Y041986D01*
X038389Y041986D02*
X038159Y041986D01*
X038159Y041832D02*
X038159Y042293D01*
X038389Y042293D01*
X038466Y042216D01*
X038466Y042062D01*
X038389Y041986D01*
X038620Y041909D02*
X038696Y041832D01*
X038773Y041832D01*
X038850Y041909D01*
X038850Y042293D01*
X038773Y042293D02*
X038927Y042293D01*
X037545Y041505D02*
X037238Y041505D01*
X037238Y041275D01*
X037392Y041352D01*
X037469Y041352D01*
X037545Y041275D01*
X037545Y041122D01*
X037469Y041045D01*
X037315Y041045D01*
X037238Y041122D01*
X037085Y041122D02*
X037008Y041045D01*
X036855Y041045D01*
X036778Y041122D01*
X036778Y041198D01*
X036855Y041275D01*
X037008Y041275D01*
X037085Y041198D01*
X037085Y041122D01*
X037008Y041275D02*
X037085Y041352D01*
X037085Y041428D01*
X037008Y041505D01*
X036855Y041505D01*
X036778Y041428D01*
X036778Y041352D01*
X036855Y041275D01*
X036625Y041275D02*
X036318Y041275D01*
X036548Y041505D01*
X036548Y041045D01*
X036164Y041275D02*
X035857Y041275D01*
X035704Y041198D02*
X035704Y041122D01*
X035627Y041045D01*
X035474Y041045D01*
X035397Y041122D01*
X035474Y041275D02*
X035627Y041275D01*
X035704Y041198D01*
X035704Y041428D02*
X035627Y041505D01*
X035474Y041505D01*
X035397Y041428D01*
X035397Y041352D01*
X035474Y041275D01*
X035243Y041275D02*
X035167Y041198D01*
X034937Y041198D01*
X035090Y041198D02*
X035243Y041045D01*
X035243Y041275D02*
X035243Y041428D01*
X035167Y041505D01*
X034937Y041505D01*
X034937Y041045D01*
X037699Y040968D02*
X038006Y040968D01*
X023449Y036897D02*
X023372Y036974D01*
X023219Y036974D01*
X023142Y036897D01*
X023449Y036897D02*
X023449Y036820D01*
X023142Y036513D01*
X023449Y036513D01*
X022988Y036437D02*
X022681Y036437D01*
X022528Y036513D02*
X022374Y036667D01*
X022451Y036667D02*
X022221Y036667D01*
X022221Y036513D02*
X022221Y036974D01*
X022451Y036974D01*
X022528Y036897D01*
X022528Y036744D01*
X022451Y036667D01*
X022068Y036590D02*
X022068Y036897D01*
X021991Y036974D01*
X021837Y036974D01*
X021761Y036897D01*
X021761Y036590D01*
X021837Y036513D01*
X021991Y036513D01*
X022068Y036590D01*
X021607Y036974D02*
X021300Y036974D01*
X021454Y036974D02*
X021454Y036513D01*
X021147Y036590D02*
X021147Y036897D01*
X021070Y036974D01*
X020917Y036974D01*
X020840Y036897D01*
X020840Y036590D01*
X020917Y036513D01*
X021070Y036513D01*
X021147Y036590D01*
X020686Y036513D02*
X020686Y036974D01*
X020533Y036820D01*
X020379Y036974D01*
X020379Y036513D01*
X020226Y036437D02*
X019919Y036437D01*
X019612Y036513D02*
X019612Y036974D01*
X019459Y036974D02*
X019766Y036974D01*
X019305Y036974D02*
X018998Y036513D01*
X018845Y036513D02*
X018538Y036513D01*
X018538Y036974D01*
X018845Y036974D01*
X018998Y036974D02*
X019305Y036513D01*
X018691Y036744D02*
X018538Y036744D01*
X018538Y048013D02*
X018845Y048013D01*
X018998Y048013D02*
X019305Y048474D01*
X019459Y048474D02*
X019766Y048474D01*
X019612Y048474D02*
X019612Y048013D01*
X019305Y048013D02*
X018998Y048474D01*
X018845Y048474D02*
X018538Y048474D01*
X018538Y048013D01*
X018538Y048244D02*
X018691Y048244D01*
X019919Y047937D02*
X020226Y047937D01*
X020379Y048013D02*
X020379Y048474D01*
X020533Y048320D01*
X020686Y048474D01*
X020686Y048013D01*
X020840Y048090D02*
X020917Y048013D01*
X021070Y048013D01*
X021147Y048090D01*
X021147Y048397D01*
X021070Y048474D01*
X020917Y048474D01*
X020840Y048397D01*
X020840Y048090D01*
X021300Y048474D02*
X021607Y048474D01*
X021454Y048474D02*
X021454Y048013D01*
X021761Y048090D02*
X021837Y048013D01*
X021991Y048013D01*
X022068Y048090D01*
X022068Y048397D01*
X021991Y048474D01*
X021837Y048474D01*
X021761Y048397D01*
X021761Y048090D01*
X022221Y048013D02*
X022221Y048474D01*
X022451Y048474D01*
X022528Y048397D01*
X022528Y048244D01*
X022451Y048167D01*
X022221Y048167D01*
X022374Y048167D02*
X022528Y048013D01*
X022681Y047937D02*
X022988Y047937D01*
X023142Y048013D02*
X023449Y048013D01*
X023295Y048013D02*
X023295Y048474D01*
X023142Y048320D01*
X023219Y025474D02*
X023372Y025474D01*
X023449Y025397D01*
X023449Y025320D01*
X023372Y025244D01*
X023449Y025167D01*
X023449Y025090D01*
X023372Y025013D01*
X023219Y025013D01*
X023142Y025090D01*
X023295Y025244D02*
X023372Y025244D01*
X023142Y025397D02*
X023219Y025474D01*
X022988Y024937D02*
X022681Y024937D01*
X022528Y025013D02*
X022374Y025167D01*
X022451Y025167D02*
X022221Y025167D01*
X022221Y025013D02*
X022221Y025474D01*
X022451Y025474D01*
X022528Y025397D01*
X022528Y025244D01*
X022451Y025167D01*
X022068Y025090D02*
X022068Y025397D01*
X021991Y025474D01*
X021837Y025474D01*
X021761Y025397D01*
X021761Y025090D01*
X021837Y025013D01*
X021991Y025013D01*
X022068Y025090D01*
X021607Y025474D02*
X021300Y025474D01*
X021454Y025474D02*
X021454Y025013D01*
X021147Y025090D02*
X021147Y025397D01*
X021070Y025474D01*
X020917Y025474D01*
X020840Y025397D01*
X020840Y025090D01*
X020917Y025013D01*
X021070Y025013D01*
X021147Y025090D01*
X020686Y025013D02*
X020686Y025474D01*
X020533Y025320D01*
X020379Y025474D01*
X020379Y025013D01*
X020226Y024937D02*
X019919Y024937D01*
X019612Y025013D02*
X019612Y025474D01*
X019459Y025474D02*
X019766Y025474D01*
X019305Y025474D02*
X018998Y025013D01*
X018845Y025013D02*
X018538Y025013D01*
X018538Y025474D01*
X018845Y025474D01*
X018998Y025474D02*
X019305Y025013D01*
X018691Y025244D02*
X018538Y025244D01*
X036538Y024497D02*
X036538Y024190D01*
X036615Y024113D01*
X036768Y024113D01*
X036845Y024190D01*
X036998Y024190D02*
X037075Y024113D01*
X037305Y024113D01*
X037305Y024420D01*
X037459Y024420D02*
X037612Y024420D01*
X037535Y024497D02*
X037535Y024190D01*
X037612Y024113D01*
X036998Y024190D02*
X036998Y024420D01*
X036845Y024497D02*
X036768Y024574D01*
X036615Y024574D01*
X036538Y024497D01*
X038226Y024420D02*
X038379Y024420D01*
X038303Y024497D02*
X038303Y024190D01*
X038379Y024113D01*
X038533Y024190D02*
X038610Y024113D01*
X038763Y024113D01*
X038840Y024190D01*
X038840Y024344D01*
X038763Y024420D01*
X038610Y024420D01*
X038533Y024344D01*
X038533Y024190D01*
X039454Y024190D02*
X039454Y024344D01*
X039530Y024420D01*
X039761Y024420D01*
X039914Y024420D02*
X039991Y024420D01*
X039991Y024113D01*
X039914Y024113D02*
X040068Y024113D01*
X040221Y024113D02*
X040451Y024113D01*
X040528Y024190D01*
X040451Y024267D01*
X040298Y024267D01*
X040221Y024344D01*
X040298Y024420D01*
X040528Y024420D01*
X040758Y024420D02*
X040912Y024420D01*
X040988Y024344D01*
X040988Y024113D01*
X040758Y024113D01*
X040681Y024190D01*
X040758Y024267D01*
X040988Y024267D01*
X041142Y024420D02*
X041372Y024420D01*
X041449Y024344D01*
X041449Y024190D01*
X041372Y024113D01*
X041142Y024113D01*
X041142Y024574D01*
X041602Y024574D02*
X041679Y024574D01*
X041679Y024113D01*
X041602Y024113D02*
X041756Y024113D01*
X041909Y024190D02*
X041909Y024344D01*
X041986Y024420D01*
X042139Y024420D01*
X042216Y024344D01*
X042216Y024267D01*
X041909Y024267D01*
X041909Y024190D02*
X041986Y024113D01*
X042139Y024113D01*
X042830Y024113D02*
X042830Y024574D01*
X043060Y024574D01*
X043137Y024497D01*
X043137Y024344D01*
X043060Y024267D01*
X042830Y024267D01*
X043290Y024344D02*
X043290Y024190D01*
X043367Y024113D01*
X043520Y024113D01*
X043597Y024190D01*
X043597Y024344D01*
X043520Y024420D01*
X043367Y024420D01*
X043290Y024344D01*
X043751Y024267D02*
X043981Y024267D01*
X044058Y024344D01*
X044058Y024497D01*
X043981Y024574D01*
X043751Y024574D01*
X043751Y024113D01*
X043904Y024267D02*
X044058Y024113D01*
X044211Y024190D02*
X044288Y024113D01*
X044441Y024113D01*
X044518Y024190D01*
X044211Y024190D02*
X044211Y024497D01*
X044288Y024574D01*
X044441Y024574D01*
X044518Y024497D01*
X039991Y024574D02*
X039991Y024650D01*
X039761Y024574D02*
X039761Y024113D01*
X039530Y024113D01*
X039454Y024190D01*
X038658Y011285D02*
X038351Y011285D01*
X038198Y011285D02*
X037891Y010824D01*
X037738Y010824D02*
X037431Y010824D01*
X037431Y011285D01*
X037738Y011285D01*
X037891Y011285D02*
X038198Y010824D01*
X038505Y010824D02*
X038505Y011285D01*
X037584Y011055D02*
X037431Y011055D01*
X037277Y010748D02*
X036970Y010748D01*
X036817Y010824D02*
X036663Y010978D01*
X036740Y010978D02*
X036510Y010978D01*
X036510Y010824D02*
X036510Y011285D01*
X036740Y011285D01*
X036817Y011208D01*
X036817Y011055D01*
X036740Y010978D01*
X036356Y010824D02*
X036049Y010824D01*
X036049Y011285D01*
X036356Y011285D01*
X036203Y011055D02*
X036049Y011055D01*
X035896Y011285D02*
X035896Y010824D01*
X035743Y010978D01*
X035589Y010824D01*
X035589Y011285D01*
X035436Y011208D02*
X035359Y011285D01*
X035205Y011285D01*
X035129Y011208D01*
X035129Y010901D01*
X035205Y010824D01*
X035359Y010824D01*
X035436Y010901D01*
X035436Y011208D01*
X034975Y011208D02*
X034975Y011055D01*
X034898Y010978D01*
X034668Y010978D01*
X034668Y010824D02*
X034668Y011285D01*
X034898Y011285D01*
X034975Y011208D01*
X034515Y010748D02*
X034208Y010748D01*
X034054Y010824D02*
X034054Y011285D01*
X033747Y011285D02*
X033747Y010824D01*
X033901Y010978D01*
X034054Y010824D01*
X033594Y010901D02*
X033594Y011208D01*
X033517Y011285D01*
X033364Y011285D01*
X033287Y011208D01*
X033287Y010901D01*
X033364Y010824D01*
X033517Y010824D01*
X033594Y010901D01*
X033134Y010824D02*
X032827Y010824D01*
X032827Y011285D01*
X032673Y011055D02*
X032366Y011055D01*
X032213Y010978D02*
X032059Y010824D01*
X031906Y010978D01*
X031906Y011285D01*
X031752Y011208D02*
X031676Y011285D01*
X031522Y011285D01*
X031446Y011208D01*
X031446Y011131D01*
X031522Y011055D01*
X031752Y011055D01*
X031752Y011208D02*
X031752Y010901D01*
X031676Y010824D01*
X031522Y010824D01*
X031446Y010901D01*
X031292Y010824D02*
X030985Y010824D01*
X031292Y011131D01*
X031292Y011208D01*
X031215Y011285D01*
X031062Y011285D01*
X030985Y011208D01*
X032213Y011285D02*
X032213Y010978D01*
X034003Y008450D02*
X034003Y007990D01*
X034310Y007990D01*
X035412Y007990D02*
X035412Y008450D01*
X035643Y008450D01*
X035719Y008373D01*
X035719Y008220D01*
X035643Y008143D01*
X035412Y008143D01*
X035566Y008143D02*
X035719Y007990D01*
X037659Y007293D02*
X037889Y007293D01*
X037966Y007216D01*
X037966Y007062D01*
X037889Y006986D01*
X037659Y006986D01*
X037813Y006986D02*
X037966Y006832D01*
X038120Y006909D02*
X038196Y006832D01*
X038273Y006832D01*
X038350Y006909D01*
X038350Y007293D01*
X038273Y007293D02*
X038427Y007293D01*
X038580Y007062D02*
X038887Y007062D01*
X039040Y007062D02*
X039194Y007139D01*
X039271Y007139D01*
X039347Y007062D01*
X039347Y006909D01*
X039271Y006832D01*
X039117Y006832D01*
X039040Y006909D01*
X039040Y007062D02*
X039040Y007293D01*
X039347Y007293D01*
X038810Y007293D02*
X038580Y007062D01*
X038810Y006832D02*
X038810Y007293D01*
X038734Y006505D02*
X038734Y006045D01*
X039040Y006045D02*
X039347Y006045D01*
X039194Y006045D02*
X039194Y006505D01*
X039040Y006352D01*
X038887Y006505D02*
X038580Y006505D01*
X038427Y006505D02*
X038120Y006045D01*
X037966Y006045D02*
X037659Y006045D01*
X037659Y006505D01*
X037966Y006505D01*
X038120Y006505D02*
X038427Y006045D01*
X037813Y006275D02*
X037659Y006275D01*
X037506Y005968D02*
X037199Y005968D01*
X037045Y006045D02*
X037045Y006505D01*
X037045Y006275D02*
X036738Y006275D01*
X036738Y006045D02*
X036738Y006505D01*
X036585Y006505D02*
X036278Y006505D01*
X036125Y006505D02*
X035818Y006505D01*
X035818Y006045D01*
X036125Y006045D01*
X035971Y006275D02*
X035818Y006275D01*
X036432Y006045D02*
X036432Y006505D01*
X037659Y006832D02*
X037659Y007293D01*
X044318Y006505D02*
X044318Y006045D01*
X044625Y006045D01*
X044471Y006275D02*
X044318Y006275D01*
X044318Y006505D02*
X044625Y006505D01*
X044778Y006505D02*
X045085Y006505D01*
X044932Y006505D02*
X044932Y006045D01*
X045238Y006045D02*
X045238Y006505D01*
X045238Y006275D02*
X045545Y006275D01*
X045545Y006505D02*
X045545Y006045D01*
X045699Y005968D02*
X046006Y005968D01*
X046159Y006045D02*
X046466Y006045D01*
X046620Y006045D02*
X046927Y006505D01*
X047080Y006505D02*
X047387Y006505D01*
X047234Y006505D02*
X047234Y006045D01*
X047540Y006045D02*
X047847Y006352D01*
X047847Y006428D01*
X047771Y006505D01*
X047617Y006505D01*
X047540Y006428D01*
X047540Y006045D02*
X047847Y006045D01*
X046927Y006045D02*
X046620Y006505D01*
X046466Y006505D02*
X046159Y006505D01*
X046159Y006045D01*
X046159Y006275D02*
X046313Y006275D01*
X046466Y006832D02*
X046313Y006986D01*
X046389Y006986D02*
X046159Y006986D01*
X046159Y006832D02*
X046159Y007293D01*
X046389Y007293D01*
X046466Y007216D01*
X046466Y007062D01*
X046389Y006986D01*
X046620Y006909D02*
X046696Y006832D01*
X046773Y006832D01*
X046850Y006909D01*
X046850Y007293D01*
X046773Y007293D02*
X046927Y007293D01*
X047080Y007062D02*
X047387Y007062D01*
X047540Y007062D02*
X047694Y007139D01*
X047771Y007139D01*
X047847Y007062D01*
X047847Y006909D01*
X047771Y006832D01*
X047617Y006832D01*
X047540Y006909D01*
X047540Y007062D02*
X047540Y007293D01*
X047847Y007293D01*
X047310Y007293D02*
X047080Y007062D01*
X047310Y006832D02*
X047310Y007293D01*
X052818Y006505D02*
X052818Y006045D01*
X053125Y006045D01*
X052971Y006275D02*
X052818Y006275D01*
X052818Y006505D02*
X053125Y006505D01*
X053278Y006505D02*
X053585Y006505D01*
X053432Y006505D02*
X053432Y006045D01*
X053738Y006045D02*
X053738Y006505D01*
X053738Y006275D02*
X054045Y006275D01*
X054045Y006505D02*
X054045Y006045D01*
X054199Y005968D02*
X054506Y005968D01*
X054659Y006045D02*
X054966Y006045D01*
X055120Y006045D02*
X055427Y006505D01*
X055580Y006505D02*
X055887Y006505D01*
X055734Y006505D02*
X055734Y006045D01*
X055427Y006045D02*
X055120Y006505D01*
X054966Y006505D02*
X054659Y006505D01*
X054659Y006045D01*
X054659Y006275D02*
X054813Y006275D01*
X054966Y006832D02*
X054813Y006986D01*
X054889Y006986D02*
X054659Y006986D01*
X054659Y006832D02*
X054659Y007293D01*
X054889Y007293D01*
X054966Y007216D01*
X054966Y007062D01*
X054889Y006986D01*
X055120Y006909D02*
X055196Y006832D01*
X055273Y006832D01*
X055350Y006909D01*
X055350Y007293D01*
X055273Y007293D02*
X055427Y007293D01*
X055580Y007062D02*
X055887Y007062D01*
X056040Y007062D02*
X056194Y007139D01*
X056271Y007139D01*
X056347Y007062D01*
X056347Y006909D01*
X056271Y006832D01*
X056117Y006832D01*
X056040Y006909D01*
X056040Y007062D02*
X056040Y007293D01*
X056347Y007293D01*
X055810Y007293D02*
X055580Y007062D01*
X055810Y006832D02*
X055810Y007293D01*
X056117Y006505D02*
X056040Y006428D01*
X056117Y006505D02*
X056271Y006505D01*
X056347Y006428D01*
X056347Y006352D01*
X056271Y006275D01*
X056347Y006198D01*
X056347Y006122D01*
X056271Y006045D01*
X056117Y006045D01*
X056040Y006122D01*
X056194Y006275D02*
X056271Y006275D01*
X061318Y006275D02*
X061471Y006275D01*
X061318Y006505D02*
X061318Y006045D01*
X061625Y006045D01*
X061932Y006045D02*
X061932Y006505D01*
X062085Y006505D02*
X061778Y006505D01*
X061625Y006505D02*
X061318Y006505D01*
X062238Y006505D02*
X062238Y006045D01*
X062238Y006275D02*
X062545Y006275D01*
X062545Y006505D02*
X062545Y006045D01*
X062699Y005968D02*
X063006Y005968D01*
X063159Y006045D02*
X063466Y006045D01*
X063620Y006045D02*
X063927Y006505D01*
X064080Y006505D02*
X064387Y006505D01*
X064234Y006505D02*
X064234Y006045D01*
X063927Y006045D02*
X063620Y006505D01*
X063466Y006505D02*
X063159Y006505D01*
X063159Y006045D01*
X063159Y006275D02*
X063313Y006275D01*
X063466Y006832D02*
X063313Y006986D01*
X063389Y006986D02*
X063159Y006986D01*
X063159Y006832D02*
X063159Y007293D01*
X063389Y007293D01*
X063466Y007216D01*
X063466Y007062D01*
X063389Y006986D01*
X063620Y006909D02*
X063696Y006832D01*
X063773Y006832D01*
X063850Y006909D01*
X063850Y007293D01*
X063773Y007293D02*
X063927Y007293D01*
X064080Y007062D02*
X064387Y007062D01*
X064540Y007062D02*
X064694Y007139D01*
X064771Y007139D01*
X064847Y007062D01*
X064847Y006909D01*
X064771Y006832D01*
X064617Y006832D01*
X064540Y006909D01*
X064540Y007062D02*
X064540Y007293D01*
X064847Y007293D01*
X064310Y007293D02*
X064080Y007062D01*
X064310Y006832D02*
X064310Y007293D01*
X064771Y006505D02*
X064540Y006275D01*
X064847Y006275D01*
X064771Y006045D02*
X064771Y006505D01*
X069818Y006505D02*
X069818Y006045D01*
X070125Y006045D01*
X069971Y006275D02*
X069818Y006275D01*
X069818Y006505D02*
X070125Y006505D01*
X070278Y006505D02*
X070585Y006505D01*
X070432Y006505D02*
X070432Y006045D01*
X070738Y006045D02*
X070738Y006505D01*
X070738Y006275D02*
X071045Y006275D01*
X071045Y006505D02*
X071045Y006045D01*
X071199Y005968D02*
X071506Y005968D01*
X071659Y006045D02*
X071966Y006045D01*
X072120Y006045D02*
X072427Y006505D01*
X072580Y006505D02*
X072887Y006505D01*
X073040Y006505D02*
X073040Y006275D01*
X073194Y006352D01*
X073271Y006352D01*
X073347Y006275D01*
X073347Y006122D01*
X073271Y006045D01*
X073117Y006045D01*
X073040Y006122D01*
X072734Y006045D02*
X072734Y006505D01*
X073040Y006505D02*
X073347Y006505D01*
X073271Y006832D02*
X073117Y006832D01*
X073040Y006909D01*
X073040Y007062D02*
X073194Y007139D01*
X073271Y007139D01*
X073347Y007062D01*
X073347Y006909D01*
X073271Y006832D01*
X073040Y007062D02*
X073040Y007293D01*
X073347Y007293D01*
X072887Y007062D02*
X072580Y007062D01*
X072810Y007293D01*
X072810Y006832D01*
X072350Y006909D02*
X072350Y007293D01*
X072273Y007293D02*
X072427Y007293D01*
X072350Y006909D02*
X072273Y006832D01*
X072196Y006832D01*
X072120Y006909D01*
X071966Y006832D02*
X071813Y006986D01*
X071889Y006986D02*
X071659Y006986D01*
X071659Y006832D02*
X071659Y007293D01*
X071889Y007293D01*
X071966Y007216D01*
X071966Y007062D01*
X071889Y006986D01*
X071966Y006505D02*
X071659Y006505D01*
X071659Y006045D01*
X071659Y006275D02*
X071813Y006275D01*
X072120Y006505D02*
X072427Y006045D01*
X078318Y006045D02*
X078625Y006045D01*
X078471Y006275D02*
X078318Y006275D01*
X078318Y006505D02*
X078318Y006045D01*
X078318Y006505D02*
X078625Y006505D01*
X078778Y006505D02*
X079085Y006505D01*
X078932Y006505D02*
X078932Y006045D01*
X079238Y006045D02*
X079238Y006505D01*
X079238Y006275D02*
X079545Y006275D01*
X079545Y006505D02*
X079545Y006045D01*
X079699Y005968D02*
X080006Y005968D01*
X080159Y006045D02*
X080466Y006045D01*
X080620Y006045D02*
X080927Y006505D01*
X081080Y006505D02*
X081387Y006505D01*
X081234Y006505D02*
X081234Y006045D01*
X080927Y006045D02*
X080620Y006505D01*
X080466Y006505D02*
X080159Y006505D01*
X080159Y006045D01*
X080159Y006275D02*
X080313Y006275D01*
X080466Y006832D02*
X080313Y006986D01*
X080389Y006986D02*
X080159Y006986D01*
X080159Y006832D02*
X080159Y007293D01*
X080389Y007293D01*
X080466Y007216D01*
X080466Y007062D01*
X080389Y006986D01*
X080620Y006909D02*
X080696Y006832D01*
X080773Y006832D01*
X080850Y006909D01*
X080850Y007293D01*
X080773Y007293D02*
X080927Y007293D01*
X081080Y007062D02*
X081387Y007062D01*
X081540Y007062D02*
X081694Y007139D01*
X081771Y007139D01*
X081847Y007062D01*
X081847Y006909D01*
X081771Y006832D01*
X081617Y006832D01*
X081540Y006909D01*
X081540Y007062D02*
X081540Y007293D01*
X081847Y007293D01*
X081310Y007293D02*
X081080Y007062D01*
X081310Y006832D02*
X081310Y007293D01*
X081694Y006428D02*
X081540Y006275D01*
X081771Y006275D01*
X081847Y006198D01*
X081847Y006122D01*
X081771Y006045D01*
X081617Y006045D01*
X081540Y006122D01*
X081540Y006275D01*
X081694Y006428D02*
X081847Y006505D01*
X017347Y006505D02*
X017347Y006428D01*
X017040Y006122D01*
X017040Y006045D01*
X016734Y006045D02*
X016734Y006505D01*
X016887Y006505D02*
X016580Y006505D01*
X016427Y006505D02*
X016120Y006045D01*
X015966Y006045D02*
X015659Y006045D01*
X015659Y006505D01*
X015966Y006505D01*
X016120Y006505D02*
X016427Y006045D01*
X015813Y006275D02*
X015659Y006275D01*
X015506Y005968D02*
X015199Y005968D01*
X015045Y006045D02*
X015045Y006505D01*
X015045Y006275D02*
X014738Y006275D01*
X014738Y006045D02*
X014738Y006505D01*
X014585Y006505D02*
X014278Y006505D01*
X014125Y006505D02*
X013818Y006505D01*
X013818Y006045D01*
X014125Y006045D01*
X013971Y006275D02*
X013818Y006275D01*
X014432Y006045D02*
X014432Y006505D01*
X015659Y006832D02*
X015659Y007293D01*
X015889Y007293D01*
X015966Y007216D01*
X015966Y007062D01*
X015889Y006986D01*
X015659Y006986D01*
X015813Y006986D02*
X015966Y006832D01*
X016120Y006909D02*
X016196Y006832D01*
X016273Y006832D01*
X016350Y006909D01*
X016350Y007293D01*
X016273Y007293D02*
X016427Y007293D01*
X016580Y007062D02*
X016887Y007062D01*
X017040Y007062D02*
X017194Y007139D01*
X017271Y007139D01*
X017347Y007062D01*
X017347Y006909D01*
X017271Y006832D01*
X017117Y006832D01*
X017040Y006909D01*
X017040Y007062D02*
X017040Y007293D01*
X017347Y007293D01*
X016810Y007293D02*
X016580Y007062D01*
X016810Y006832D02*
X016810Y007293D01*
X017040Y006505D02*
X017347Y006505D01*
D13*
X036618Y023493D02*
X037048Y023493D01*
X037442Y023493D02*
X037873Y023493D01*
X038266Y023493D02*
X038697Y023493D01*
X039090Y023493D02*
X039521Y023493D01*
X039915Y023493D02*
X040345Y023493D01*
X040739Y023493D02*
X041169Y023493D01*
X041563Y023493D02*
X041994Y023493D01*
X042387Y023493D02*
X042818Y023493D01*
X042818Y023893D02*
X042387Y023893D01*
X041994Y023893D02*
X041563Y023893D01*
X041169Y023893D02*
X040739Y023893D01*
X040345Y023893D02*
X039915Y023893D01*
X039521Y023893D02*
X039090Y023893D01*
X038697Y023893D02*
X038266Y023893D01*
X037873Y023893D02*
X037442Y023893D01*
X037048Y023893D02*
X036618Y023893D01*
X048143Y034693D02*
X068743Y034593D01*
X067643Y037693D01*
X048918Y037693D01*
X049018Y037693D02*
X048143Y034693D01*
D14*
X047430Y031720D02*
X047430Y025267D01*
X040406Y025267D01*
X040406Y031720D01*
X047430Y031720D01*
X048906Y031720D02*
X048906Y025267D01*
X055930Y025267D01*
X055930Y031720D01*
X048906Y031720D01*
X057406Y031720D02*
X057406Y025267D01*
X064430Y025267D01*
X064430Y031720D01*
X057406Y031720D01*
X065906Y031720D02*
X065906Y025267D01*
X072930Y025267D01*
X072930Y031720D01*
X065906Y031720D01*
X074406Y033720D02*
X074406Y027267D01*
X081430Y027267D01*
X081430Y033720D01*
X074406Y033720D01*
X074406Y037767D02*
X074406Y044220D01*
X081430Y044220D01*
X081430Y037767D01*
X074406Y037767D01*
X072930Y040267D02*
X072930Y046720D01*
X065906Y046720D01*
X065906Y040267D01*
X072930Y040267D01*
X064430Y040267D02*
X064430Y046720D01*
X057406Y046720D01*
X057406Y040267D01*
X064430Y040267D01*
X055930Y040267D02*
X055930Y046720D01*
X048906Y046720D01*
X048906Y040267D01*
X055930Y040267D01*
X047430Y040267D02*
X047430Y046720D01*
X040406Y046720D01*
X040406Y040267D01*
X047430Y040267D01*
X035668Y041493D02*
X035668Y037493D01*
X028668Y037493D01*
X028668Y041493D01*
X035668Y041493D01*
X035668Y043993D02*
X035668Y047993D01*
X028668Y047993D01*
X028668Y043993D01*
X035668Y043993D01*
X042468Y050343D02*
X044768Y050343D01*
X042043Y051493D02*
X042045Y051572D01*
X042051Y051651D01*
X042061Y051730D01*
X042075Y051808D01*
X042092Y051885D01*
X042114Y051961D01*
X042139Y052036D01*
X042169Y052109D01*
X042201Y052181D01*
X042238Y052252D01*
X042278Y052320D01*
X042321Y052386D01*
X042367Y052450D01*
X042417Y052512D01*
X042470Y052571D01*
X042525Y052627D01*
X042584Y052681D01*
X042645Y052731D01*
X042708Y052779D01*
X042774Y052823D01*
X042842Y052864D01*
X042912Y052901D01*
X042983Y052935D01*
X043057Y052965D01*
X043131Y052991D01*
X043207Y053013D01*
X043284Y053032D01*
X043362Y053047D01*
X043440Y053058D01*
X043519Y053065D01*
X043598Y053068D01*
X043677Y053067D01*
X043756Y053062D01*
X043835Y053053D01*
X043913Y053040D01*
X043990Y053023D01*
X044067Y053003D01*
X044142Y052978D01*
X044216Y052950D01*
X044289Y052918D01*
X044359Y052883D01*
X044428Y052844D01*
X044495Y052801D01*
X044560Y052755D01*
X044622Y052707D01*
X044682Y052655D01*
X044739Y052600D01*
X044793Y052542D01*
X044844Y052482D01*
X044892Y052419D01*
X044937Y052354D01*
X044979Y052286D01*
X045017Y052217D01*
X045051Y052146D01*
X045082Y052073D01*
X045110Y051998D01*
X045133Y051923D01*
X045153Y051846D01*
X045169Y051769D01*
X045181Y051690D01*
X045189Y051612D01*
X045193Y051533D01*
X045193Y051453D01*
X045189Y051374D01*
X045181Y051296D01*
X045169Y051217D01*
X045153Y051140D01*
X045133Y051063D01*
X045110Y050988D01*
X045082Y050913D01*
X045051Y050840D01*
X045017Y050769D01*
X044979Y050700D01*
X044937Y050632D01*
X044892Y050567D01*
X044844Y050504D01*
X044793Y050444D01*
X044739Y050386D01*
X044682Y050331D01*
X044622Y050279D01*
X044560Y050231D01*
X044495Y050185D01*
X044428Y050142D01*
X044359Y050103D01*
X044289Y050068D01*
X044216Y050036D01*
X044142Y050008D01*
X044067Y049983D01*
X043990Y049963D01*
X043913Y049946D01*
X043835Y049933D01*
X043756Y049924D01*
X043677Y049919D01*
X043598Y049918D01*
X043519Y049921D01*
X043440Y049928D01*
X043362Y049939D01*
X043284Y049954D01*
X043207Y049973D01*
X043131Y049995D01*
X043057Y050021D01*
X042983Y050051D01*
X042912Y050085D01*
X042842Y050122D01*
X042774Y050163D01*
X042708Y050207D01*
X042645Y050255D01*
X042584Y050305D01*
X042525Y050359D01*
X042470Y050415D01*
X042417Y050474D01*
X042367Y050536D01*
X042321Y050600D01*
X042278Y050666D01*
X042238Y050734D01*
X042201Y050805D01*
X042169Y050877D01*
X042139Y050950D01*
X042114Y051025D01*
X042092Y051101D01*
X042075Y051178D01*
X042061Y051256D01*
X042051Y051335D01*
X042045Y051414D01*
X042043Y051493D01*
X042318Y051493D02*
X042320Y051565D01*
X042326Y051636D01*
X042336Y051707D01*
X042349Y051777D01*
X042367Y051847D01*
X042388Y051915D01*
X042414Y051982D01*
X042442Y052048D01*
X042475Y052112D01*
X042511Y052174D01*
X042550Y052234D01*
X042592Y052291D01*
X042638Y052347D01*
X042686Y052399D01*
X042738Y052449D01*
X042792Y052496D01*
X042848Y052540D01*
X042907Y052581D01*
X042968Y052619D01*
X043031Y052653D01*
X043096Y052684D01*
X043162Y052710D01*
X043230Y052734D01*
X043299Y052753D01*
X043369Y052769D01*
X043439Y052781D01*
X043511Y052789D01*
X043582Y052793D01*
X043654Y052793D01*
X043725Y052789D01*
X043797Y052781D01*
X043867Y052769D01*
X043937Y052753D01*
X044006Y052734D01*
X044074Y052710D01*
X044140Y052684D01*
X044205Y052653D01*
X044268Y052619D01*
X044329Y052581D01*
X044388Y052540D01*
X044444Y052496D01*
X044498Y052449D01*
X044550Y052399D01*
X044598Y052347D01*
X044644Y052291D01*
X044686Y052234D01*
X044725Y052174D01*
X044761Y052112D01*
X044794Y052048D01*
X044822Y051982D01*
X044848Y051915D01*
X044869Y051847D01*
X044887Y051777D01*
X044900Y051707D01*
X044910Y051636D01*
X044916Y051565D01*
X044918Y051493D01*
X044916Y051421D01*
X044910Y051350D01*
X044900Y051279D01*
X044887Y051209D01*
X044869Y051139D01*
X044848Y051071D01*
X044822Y051004D01*
X044794Y050938D01*
X044761Y050874D01*
X044725Y050812D01*
X044686Y050752D01*
X044644Y050695D01*
X044598Y050639D01*
X044550Y050587D01*
X044498Y050537D01*
X044444Y050490D01*
X044388Y050446D01*
X044329Y050405D01*
X044268Y050367D01*
X044205Y050333D01*
X044140Y050302D01*
X044074Y050276D01*
X044006Y050252D01*
X043937Y050233D01*
X043867Y050217D01*
X043797Y050205D01*
X043725Y050197D01*
X043654Y050193D01*
X043582Y050193D01*
X043511Y050197D01*
X043439Y050205D01*
X043369Y050217D01*
X043299Y050233D01*
X043230Y050252D01*
X043162Y050276D01*
X043096Y050302D01*
X043031Y050333D01*
X042968Y050367D01*
X042907Y050405D01*
X042848Y050446D01*
X042792Y050490D01*
X042738Y050537D01*
X042686Y050587D01*
X042638Y050639D01*
X042592Y050695D01*
X042550Y050752D01*
X042511Y050812D01*
X042475Y050874D01*
X042442Y050938D01*
X042414Y051004D01*
X042388Y051071D01*
X042367Y051139D01*
X042349Y051209D01*
X042336Y051279D01*
X042326Y051350D01*
X042320Y051421D01*
X042318Y051493D01*
X035668Y050493D02*
X035668Y054493D01*
X028668Y054493D01*
X028668Y050493D01*
X035668Y050493D01*
X024118Y046593D02*
X024118Y045593D01*
X023018Y044493D01*
X017918Y044493D01*
X017918Y047693D01*
X023018Y047693D01*
X024118Y046593D01*
X023018Y036193D02*
X017918Y036193D01*
X017918Y032993D01*
X023018Y032993D01*
X024118Y034093D01*
X024118Y035093D01*
X023018Y036193D01*
X028668Y034993D02*
X028668Y030993D01*
X035668Y030993D01*
X035668Y034993D01*
X028668Y034993D01*
X028668Y028493D02*
X028668Y024493D01*
X035668Y024493D01*
X035668Y028493D01*
X028668Y028493D01*
X024118Y023593D02*
X023018Y024693D01*
X017918Y024693D01*
X017918Y021493D01*
X023018Y021493D01*
X024118Y022593D01*
X024118Y023593D01*
X028668Y021993D02*
X028668Y017993D01*
X035668Y017993D01*
X035668Y021993D01*
X028668Y021993D01*
X024930Y011720D02*
X017906Y011720D01*
X017906Y005267D01*
X024930Y005267D01*
X024930Y011720D01*
X033304Y010726D02*
X033304Y007891D01*
X036532Y007891D01*
X036532Y010726D01*
X033304Y010726D01*
X039906Y011720D02*
X046930Y011720D01*
X046930Y005267D01*
X039906Y005267D01*
X039906Y011720D01*
X044906Y017267D02*
X051930Y017267D01*
X051930Y023720D01*
X044906Y023720D01*
X044906Y017267D01*
X048406Y011720D02*
X055430Y011720D01*
X055430Y005267D01*
X048406Y005267D01*
X048406Y011720D01*
X053406Y017267D02*
X060430Y017267D01*
X060430Y023720D01*
X053406Y023720D01*
X053406Y017267D01*
X056906Y011720D02*
X063930Y011720D01*
X063930Y005267D01*
X056906Y005267D01*
X056906Y011720D01*
X061906Y017267D02*
X068930Y017267D01*
X068930Y023720D01*
X061906Y023720D01*
X061906Y017267D01*
X065406Y011720D02*
X072430Y011720D01*
X072430Y005267D01*
X065406Y005267D01*
X065406Y011720D01*
X070406Y017267D02*
X077430Y017267D01*
X077430Y023720D01*
X070406Y023720D01*
X070406Y017267D01*
X073906Y011720D02*
X080930Y011720D01*
X080930Y005267D01*
X073906Y005267D01*
X073906Y011720D01*
X082406Y011720D02*
X089430Y011720D01*
X089430Y005267D01*
X082406Y005267D01*
X082406Y011720D01*
X083418Y021493D02*
X088518Y021493D01*
X089618Y022593D01*
X089618Y023593D01*
X088518Y024693D01*
X083418Y024693D01*
X083418Y021493D01*
X083418Y032993D02*
X088518Y032993D01*
X089618Y034093D01*
X089618Y035093D01*
X088518Y036193D01*
X083418Y036193D01*
X083418Y032993D01*
X083418Y044493D02*
X088518Y044493D01*
X089618Y045593D01*
X089618Y046593D01*
X088518Y047693D01*
X083418Y047693D01*
X083418Y044493D01*
X077430Y048267D02*
X077430Y054720D01*
X070406Y054720D01*
X070406Y048267D01*
X077430Y048267D01*
X068930Y048267D02*
X068930Y054720D01*
X061906Y054720D01*
X061906Y048267D01*
X068930Y048267D01*
X060430Y048267D02*
X060430Y054720D01*
X053406Y054720D01*
X053406Y048267D01*
X060430Y048267D01*
D15*
X081918Y046093D02*
X083118Y046093D01*
X082518Y045493D02*
X082518Y046693D01*
X089818Y046093D02*
X091018Y046093D01*
X082518Y035193D02*
X082518Y033993D01*
X083118Y034593D02*
X081918Y034593D01*
X089818Y034593D02*
X091018Y034593D01*
X082518Y023693D02*
X082518Y022493D01*
X083118Y023093D02*
X081918Y023093D01*
X089818Y023093D02*
X091018Y023093D01*
X025518Y023093D02*
X024318Y023093D01*
X017618Y023093D02*
X016418Y023093D01*
X017018Y022493D02*
X017018Y023693D01*
X017018Y033993D02*
X017018Y035193D01*
X017618Y034593D02*
X016418Y034593D01*
X024318Y034593D02*
X025518Y034593D01*
X017018Y045493D02*
X017018Y046693D01*
X017618Y046093D02*
X016418Y046093D01*
X024318Y046093D02*
X025518Y046093D01*
M02*
