G75*
G70*
%OFA0B0*%
%FSLAX24Y24*%
%IPPOS*%
%LPD*%
%AMOC8*
5,1,8,0,0,1.08239X$1,22.5*
%
%ADD10R,0.0540X0.0540*%
%ADD11C,0.0540*%
%ADD12R,0.0397X0.0397*%
%ADD13R,0.0827X0.0827*%
%ADD14C,0.0675*%
%ADD15R,0.0675X0.0675*%
%ADD16R,0.1181X0.1181*%
%ADD17R,0.0476X0.0476*%
%ADD18C,0.0476*%
%ADD19C,0.0520*%
%ADD20R,0.0520X0.0520*%
%ADD21R,0.0447X0.0447*%
%ADD22R,0.0825X0.0825*%
%ADD23C,0.0825*%
%ADD24R,0.0945X0.0945*%
%ADD25R,0.0886X0.0886*%
%ADD26C,0.0594*%
%ADD27C,0.1800*%
%ADD28R,0.0520X0.0520*%
%ADD29C,0.0417*%
%ADD30R,0.0396X0.0396*%
%ADD31C,0.0120*%
%ADD32C,0.0100*%
%ADD33C,0.0340*%
%ADD34C,0.0160*%
D10*
X044312Y026745D03*
X047312Y024745D03*
X034812Y035745D03*
D11*
X033812Y035745D03*
X032812Y035745D03*
X031812Y035745D03*
X030812Y035745D03*
X029812Y035745D03*
X028812Y035745D03*
X027812Y035745D03*
X026812Y035745D03*
X025812Y035745D03*
X024812Y035745D03*
X023812Y035745D03*
X023812Y031245D03*
X024812Y031245D03*
X025812Y031245D03*
X026812Y031245D03*
X027812Y031245D03*
X028812Y031245D03*
X029812Y031245D03*
X030812Y031245D03*
X031812Y031245D03*
X032812Y031245D03*
X033812Y031245D03*
X034812Y031245D03*
X044312Y029745D03*
X045312Y029745D03*
X046312Y029745D03*
X047312Y029745D03*
X047312Y026745D03*
X046312Y026745D03*
X045312Y026745D03*
X045312Y024745D03*
X046312Y024745D03*
X044312Y024745D03*
X043312Y024745D03*
X042312Y024745D03*
X041312Y024745D03*
X040312Y024745D03*
X039312Y024745D03*
X038312Y024745D03*
X037312Y024745D03*
X036312Y024745D03*
X035312Y024745D03*
X034312Y024745D03*
X034312Y021745D03*
X035312Y021745D03*
X036312Y021745D03*
X037312Y021745D03*
X038312Y021745D03*
X039312Y021745D03*
X040312Y021745D03*
X041312Y021745D03*
X042312Y021745D03*
X043312Y021745D03*
X044312Y021745D03*
X045312Y021745D03*
X046312Y021745D03*
X047312Y021745D03*
D12*
X039773Y027245D03*
X037851Y027245D03*
D13*
X048812Y025965D03*
X048812Y028525D03*
X046312Y010981D03*
X045312Y010981D03*
X044312Y010981D03*
X041312Y010981D03*
X040312Y010981D03*
X039312Y010981D03*
X017548Y018745D03*
X017548Y019745D03*
X017548Y020745D03*
X017548Y024745D03*
X017548Y025745D03*
X017548Y026745D03*
D14*
X017812Y038245D03*
X016812Y038245D03*
X018812Y038245D03*
X019812Y038245D03*
X022312Y038245D03*
X023312Y038245D03*
X024312Y038245D03*
X025312Y038245D03*
X027812Y038245D03*
X028812Y038245D03*
X029812Y038245D03*
X030812Y038245D03*
X033312Y038245D03*
X034312Y038245D03*
X035312Y038245D03*
X036312Y038245D03*
X038562Y038245D03*
X039562Y038245D03*
X040562Y038245D03*
X041562Y038245D03*
X014312Y038245D03*
X013312Y038245D03*
X012312Y038245D03*
X011312Y038245D03*
X008812Y038245D03*
X007812Y038245D03*
X006812Y038245D03*
X005812Y038245D03*
X051062Y022245D03*
D15*
X051062Y023245D03*
X037562Y038245D03*
X032312Y038245D03*
X026812Y038245D03*
X021312Y038245D03*
X015812Y038245D03*
X010312Y038245D03*
X004812Y038245D03*
D16*
X019262Y007245D03*
X032362Y007245D03*
D17*
X050312Y008261D03*
X050312Y005729D03*
X013312Y005229D03*
X008562Y005229D03*
X003812Y005479D03*
X013312Y010229D03*
X009312Y030761D03*
X014501Y034995D03*
X006623Y035245D03*
D18*
X008001Y035245D03*
X009312Y032729D03*
X013123Y034995D03*
X050312Y010229D03*
X050312Y003761D03*
X013312Y003261D03*
X008562Y003261D03*
X003812Y003511D03*
X013312Y008261D03*
D19*
X027312Y014245D03*
X028812Y014495D03*
X030062Y015745D03*
X033562Y019495D03*
X037562Y020495D03*
X037562Y018245D03*
X039562Y014995D03*
X046812Y020495D03*
X048898Y018331D03*
X029312Y021245D03*
X050062Y035495D03*
X051062Y035495D03*
D20*
X051062Y031495D03*
X050062Y031495D03*
X033562Y020495D03*
X033562Y018245D03*
X030062Y019745D03*
X028812Y018495D03*
X027312Y018245D03*
X035562Y014995D03*
X037562Y019495D03*
X046812Y016495D03*
X029312Y025245D03*
D21*
X022560Y022448D03*
X021560Y022448D03*
X020560Y022448D03*
X019560Y022448D03*
X019560Y028948D03*
X020560Y028948D03*
X021560Y028948D03*
X022560Y028948D03*
X042064Y015792D03*
X043064Y015792D03*
X044064Y015792D03*
X045064Y015792D03*
D22*
X012812Y031995D03*
X003562Y032245D03*
D23*
X004562Y032245D03*
X005562Y032245D03*
X013812Y031995D03*
X014812Y031995D03*
X010062Y013245D03*
X010062Y007245D03*
D24*
X006861Y010495D03*
X002861Y010495D03*
X002861Y014495D03*
X006861Y014495D03*
X006861Y022745D03*
X002861Y022745D03*
X002861Y026745D03*
X006861Y026745D03*
D25*
X050562Y014745D03*
X050562Y012745D03*
D26*
X047062Y031912D03*
X046062Y031912D03*
X045062Y031912D03*
X044062Y031912D03*
X044562Y032912D03*
X045562Y032912D03*
X046562Y032912D03*
X047562Y032912D03*
D27*
X052062Y017745D03*
X006562Y018745D03*
X002812Y035745D03*
D28*
G36*
X051359Y021159D02*
X051726Y021526D01*
X052093Y021159D01*
X051726Y020792D01*
X051359Y021159D01*
G37*
D29*
X026812Y029495D03*
X026312Y029495D03*
X025812Y029495D03*
D30*
X027562Y027745D03*
X027562Y026745D03*
X024062Y025995D03*
X023562Y025995D03*
X019312Y031245D03*
X018312Y031995D03*
X016312Y031995D03*
X034062Y036995D03*
X035812Y034445D03*
X038312Y029495D03*
X038812Y029495D03*
X039312Y029495D03*
X041812Y028745D03*
X042312Y028745D03*
X042812Y028745D03*
X040312Y018495D03*
X039812Y018495D03*
X039312Y018495D03*
X037812Y013245D03*
X040312Y012745D03*
X040312Y012245D03*
X024062Y019995D03*
X023562Y019995D03*
X018312Y016495D03*
D31*
X001392Y000825D02*
X001392Y039665D01*
X053232Y039665D01*
X053232Y000825D01*
X001392Y000825D01*
X001392Y000838D02*
X053232Y000838D01*
X053232Y000956D02*
X001392Y000956D01*
X001392Y001075D02*
X053232Y001075D01*
X053232Y001193D02*
X001392Y001193D01*
X001392Y001312D02*
X053232Y001312D01*
X053232Y001430D02*
X001392Y001430D01*
X001392Y001549D02*
X053232Y001549D01*
X053232Y001667D02*
X001392Y001667D01*
X001392Y001786D02*
X053232Y001786D01*
X053232Y001904D02*
X001392Y001904D01*
X001392Y002023D02*
X053232Y002023D01*
X053232Y002141D02*
X001392Y002141D01*
X001392Y002260D02*
X053232Y002260D01*
X053232Y002378D02*
X001392Y002378D01*
X001392Y002497D02*
X053232Y002497D01*
X053232Y002615D02*
X001392Y002615D01*
X001392Y002734D02*
X053232Y002734D01*
X053232Y002852D02*
X001392Y002852D01*
X001392Y002971D02*
X008290Y002971D01*
X008308Y002952D02*
X008374Y002908D01*
X008446Y002878D01*
X008523Y002863D01*
X008553Y002863D01*
X008553Y003252D01*
X008164Y003252D01*
X008164Y003222D01*
X008179Y003145D01*
X008209Y003072D01*
X008253Y003007D01*
X008308Y002952D01*
X008203Y003089D02*
X001392Y003089D01*
X001392Y003208D02*
X003553Y003208D01*
X003558Y003202D02*
X003624Y003158D01*
X003696Y003128D01*
X003773Y003113D01*
X003803Y003113D01*
X003803Y003502D01*
X003414Y003502D01*
X003414Y003472D01*
X003429Y003395D01*
X003459Y003322D01*
X003503Y003257D01*
X003558Y003202D01*
X003458Y003326D02*
X001392Y003326D01*
X001392Y003445D02*
X003420Y003445D01*
X003414Y003520D02*
X003803Y003520D01*
X003803Y003909D01*
X003773Y003909D01*
X003696Y003893D01*
X003624Y003863D01*
X003558Y003820D01*
X003503Y003764D01*
X003459Y003699D01*
X003429Y003627D01*
X003414Y003550D01*
X003414Y003520D01*
X003417Y003563D02*
X001392Y003563D01*
X001392Y003682D02*
X003452Y003682D01*
X003539Y003800D02*
X001392Y003800D01*
X001392Y003919D02*
X049947Y003919D01*
X049959Y003949D02*
X049929Y003877D01*
X049914Y003800D01*
X049914Y003770D01*
X050303Y003770D01*
X050303Y004159D01*
X050273Y004159D01*
X050196Y004143D01*
X050124Y004113D01*
X050058Y004070D01*
X050003Y004014D01*
X049959Y003949D01*
X050026Y004037D02*
X001392Y004037D01*
X001392Y004156D02*
X050258Y004156D01*
X050303Y004156D02*
X050321Y004156D01*
X050321Y004159D02*
X050321Y003770D01*
X050303Y003770D01*
X050303Y003752D01*
X049914Y003752D01*
X049914Y003722D01*
X049929Y003645D01*
X049959Y003572D01*
X050003Y003507D01*
X050058Y003452D01*
X050124Y003408D01*
X050196Y003378D01*
X050273Y003363D01*
X050303Y003363D01*
X050303Y003752D01*
X050321Y003752D01*
X050321Y003770D01*
X050710Y003770D01*
X050710Y003800D01*
X050695Y003877D01*
X050665Y003949D01*
X050621Y004014D01*
X050566Y004070D01*
X050500Y004113D01*
X050428Y004143D01*
X050351Y004159D01*
X050321Y004159D01*
X050366Y004156D02*
X053232Y004156D01*
X053232Y004274D02*
X001392Y004274D01*
X001392Y004393D02*
X053232Y004393D01*
X053232Y004511D02*
X001392Y004511D01*
X001392Y004630D02*
X053232Y004630D01*
X053232Y004748D02*
X001392Y004748D01*
X001392Y004867D02*
X008251Y004867D01*
X008266Y004851D02*
X008184Y004933D01*
X008184Y005525D01*
X008266Y005607D01*
X008858Y005607D01*
X008940Y005525D01*
X008940Y004933D01*
X008858Y004851D01*
X008266Y004851D01*
X008184Y004985D02*
X001392Y004985D01*
X001392Y005104D02*
X003514Y005104D01*
X003516Y005101D02*
X003434Y005183D01*
X003434Y005775D01*
X003516Y005857D01*
X004108Y005857D01*
X004190Y005775D01*
X004190Y005183D01*
X004108Y005101D01*
X003516Y005101D01*
X003434Y005222D02*
X001392Y005222D01*
X001392Y005341D02*
X003434Y005341D01*
X003434Y005459D02*
X001392Y005459D01*
X001392Y005578D02*
X003434Y005578D01*
X003434Y005696D02*
X001392Y005696D01*
X001392Y005815D02*
X003474Y005815D01*
X004150Y005815D02*
X049934Y005815D01*
X049934Y005933D02*
X001392Y005933D01*
X001392Y006052D02*
X049961Y006052D01*
X049934Y006025D02*
X049934Y005433D01*
X050016Y005351D01*
X050608Y005351D01*
X050690Y005433D01*
X050690Y006025D01*
X050608Y006107D01*
X050016Y006107D01*
X049934Y006025D01*
X049934Y005696D02*
X004190Y005696D01*
X004190Y005578D02*
X008237Y005578D01*
X008184Y005459D02*
X004190Y005459D01*
X004190Y005341D02*
X008184Y005341D01*
X008184Y005222D02*
X004190Y005222D01*
X004110Y005104D02*
X008184Y005104D01*
X008873Y004867D02*
X013001Y004867D01*
X013016Y004851D02*
X012934Y004933D01*
X012934Y005525D01*
X013016Y005607D01*
X013608Y005607D01*
X013690Y005525D01*
X013690Y004933D01*
X013608Y004851D01*
X013016Y004851D01*
X012934Y004985D02*
X008940Y004985D01*
X008940Y005104D02*
X012934Y005104D01*
X012934Y005222D02*
X008940Y005222D01*
X008940Y005341D02*
X012934Y005341D01*
X012934Y005459D02*
X008940Y005459D01*
X008887Y005578D02*
X012987Y005578D01*
X013637Y005578D02*
X049934Y005578D01*
X049934Y005459D02*
X013690Y005459D01*
X013690Y005341D02*
X053232Y005341D01*
X053232Y005459D02*
X050690Y005459D01*
X050690Y005578D02*
X053232Y005578D01*
X053232Y005696D02*
X050690Y005696D01*
X050690Y005815D02*
X053232Y005815D01*
X053232Y005933D02*
X050690Y005933D01*
X050663Y006052D02*
X053232Y006052D01*
X053232Y006170D02*
X001392Y006170D01*
X001392Y006289D02*
X053232Y006289D01*
X053232Y006407D02*
X001392Y006407D01*
X001392Y006526D02*
X018602Y006526D01*
X018613Y006514D02*
X019911Y006514D01*
X019993Y006596D01*
X019993Y007894D01*
X019911Y007976D01*
X018613Y007976D01*
X018531Y007894D01*
X018531Y006596D01*
X018613Y006514D01*
X018531Y006644D02*
X001392Y006644D01*
X001392Y006763D02*
X009783Y006763D01*
X009749Y006777D02*
X009952Y006693D01*
X010172Y006693D01*
X010375Y006777D01*
X010530Y006932D01*
X010615Y007135D01*
X010615Y007355D01*
X010530Y007558D01*
X010375Y007713D01*
X010172Y007797D01*
X009952Y007797D01*
X009749Y007713D01*
X009594Y007558D01*
X009510Y007355D01*
X001392Y007355D01*
X001392Y007237D02*
X009510Y007237D01*
X009510Y007135D02*
X009594Y006932D01*
X009749Y006777D01*
X009645Y006881D02*
X001392Y006881D01*
X001392Y007000D02*
X009566Y007000D01*
X009517Y007118D02*
X001392Y007118D01*
X001392Y007474D02*
X009559Y007474D01*
X009510Y007355D02*
X009510Y007135D01*
X009628Y007592D02*
X001392Y007592D01*
X001392Y007711D02*
X009746Y007711D01*
X010378Y007711D02*
X018531Y007711D01*
X018531Y007829D02*
X001392Y007829D01*
X001392Y007948D02*
X013065Y007948D01*
X013058Y007952D02*
X013124Y007908D01*
X013196Y007878D01*
X013273Y007863D01*
X013303Y007863D01*
X013303Y008252D01*
X012914Y008252D01*
X012914Y008222D01*
X012929Y008145D01*
X012959Y008072D01*
X013003Y008007D01*
X013058Y007952D01*
X012964Y008066D02*
X001392Y008066D01*
X001392Y008185D02*
X012922Y008185D01*
X012914Y008270D02*
X013303Y008270D01*
X013303Y008659D01*
X013273Y008659D01*
X013196Y008643D01*
X013124Y008613D01*
X013058Y008570D01*
X013003Y008514D01*
X012959Y008449D01*
X012929Y008377D01*
X012914Y008300D01*
X012914Y008270D01*
X012915Y008303D02*
X001392Y008303D01*
X001392Y008422D02*
X012948Y008422D01*
X013029Y008540D02*
X001392Y008540D01*
X001392Y008659D02*
X013273Y008659D01*
X013303Y008659D02*
X013321Y008659D01*
X013321Y008270D01*
X013303Y008270D01*
X013303Y008252D01*
X013321Y008252D01*
X013321Y008270D01*
X013710Y008270D01*
X013710Y008300D01*
X013695Y008377D01*
X013665Y008449D01*
X013621Y008514D01*
X013566Y008570D01*
X013500Y008613D01*
X013428Y008643D01*
X013351Y008659D01*
X013321Y008659D01*
X013351Y008659D02*
X053232Y008659D01*
X053232Y008777D02*
X001392Y008777D01*
X001392Y008896D02*
X053232Y008896D01*
X053232Y009014D02*
X001392Y009014D01*
X001392Y009133D02*
X053232Y009133D01*
X053232Y009251D02*
X001392Y009251D01*
X001392Y009370D02*
X053232Y009370D01*
X053232Y009488D02*
X001392Y009488D01*
X001392Y009607D02*
X053232Y009607D01*
X053232Y009725D02*
X001392Y009725D01*
X001392Y009844D02*
X050212Y009844D01*
X050196Y009847D02*
X050273Y009831D01*
X050303Y009831D01*
X050303Y010220D01*
X050321Y010220D01*
X050321Y009831D01*
X050351Y009831D01*
X050428Y009847D01*
X050500Y009877D01*
X050566Y009920D01*
X050621Y009976D01*
X050665Y010041D01*
X050695Y010113D01*
X050710Y010190D01*
X050710Y010220D01*
X050321Y010220D01*
X050321Y010238D01*
X050710Y010238D01*
X050710Y010268D01*
X050695Y010345D01*
X050665Y010418D01*
X050621Y010483D01*
X050566Y010538D01*
X050500Y010582D01*
X050428Y010612D01*
X050351Y010627D01*
X050321Y010627D01*
X050321Y010238D01*
X050303Y010238D01*
X050303Y010220D01*
X049914Y010220D01*
X049914Y010190D01*
X049929Y010113D01*
X049959Y010041D01*
X050003Y009976D01*
X050058Y009920D01*
X050124Y009877D01*
X050196Y009847D01*
X050303Y009844D02*
X050321Y009844D01*
X050412Y009844D02*
X053232Y009844D01*
X053232Y009962D02*
X050607Y009962D01*
X050681Y010081D02*
X053232Y010081D01*
X053232Y010199D02*
X050710Y010199D01*
X050700Y010318D02*
X053232Y010318D01*
X053232Y010436D02*
X050652Y010436D01*
X050541Y010555D02*
X053232Y010555D01*
X053232Y010673D02*
X046865Y010673D01*
X046865Y010555D02*
X050083Y010555D01*
X050058Y010538D02*
X050003Y010483D01*
X049959Y010418D01*
X049929Y010345D01*
X049914Y010268D01*
X049914Y010238D01*
X050303Y010238D01*
X050303Y010627D01*
X050273Y010627D01*
X050196Y010612D01*
X050124Y010582D01*
X050058Y010538D01*
X049972Y010436D02*
X046792Y010436D01*
X046783Y010428D02*
X046865Y010510D01*
X046865Y011453D01*
X046783Y011535D01*
X045841Y011535D01*
X045812Y011506D01*
X045783Y011535D01*
X044841Y011535D01*
X044812Y011506D01*
X044783Y011535D01*
X043841Y011535D01*
X043759Y011453D01*
X043759Y010510D01*
X043841Y010428D01*
X044783Y010428D01*
X044812Y010456D01*
X044841Y010428D01*
X045783Y010428D01*
X045812Y010456D01*
X045841Y010428D01*
X046783Y010428D01*
X046865Y010792D02*
X053232Y010792D01*
X053232Y010910D02*
X046865Y010910D01*
X046865Y011029D02*
X053232Y011029D01*
X053232Y011147D02*
X046865Y011147D01*
X046865Y011266D02*
X053232Y011266D01*
X053232Y011384D02*
X046865Y011384D01*
X046815Y011503D02*
X053232Y011503D01*
X053232Y011621D02*
X001392Y011621D01*
X001392Y011503D02*
X038780Y011503D01*
X038771Y011493D02*
X038750Y011456D01*
X038739Y011416D01*
X038739Y011041D01*
X039252Y011041D01*
X039252Y010921D01*
X039372Y010921D01*
X039372Y010408D01*
X039746Y010408D01*
X039787Y010419D01*
X039824Y010440D01*
X039826Y010442D01*
X039841Y010428D01*
X040783Y010428D01*
X040798Y010442D01*
X040800Y010440D01*
X040837Y010419D01*
X040878Y010408D01*
X041252Y010408D01*
X041252Y010921D01*
X041372Y010921D01*
X041372Y010408D01*
X041746Y010408D01*
X041787Y010419D01*
X041824Y010440D01*
X041853Y010470D01*
X041874Y010506D01*
X041885Y010547D01*
X041885Y010921D01*
X041372Y010921D01*
X041372Y011041D01*
X041885Y011041D01*
X041885Y011416D01*
X041874Y011456D01*
X041853Y011493D01*
X041824Y011523D01*
X041787Y011544D01*
X041746Y011555D01*
X041372Y011555D01*
X041372Y011041D01*
X041252Y011041D01*
X041252Y011555D01*
X040878Y011555D01*
X040837Y011544D01*
X040800Y011523D01*
X040798Y011520D01*
X040783Y011535D01*
X039841Y011535D01*
X039826Y011520D01*
X039824Y011523D01*
X039787Y011544D01*
X039746Y011555D01*
X039372Y011555D01*
X039372Y011041D01*
X039252Y011041D01*
X039252Y011555D01*
X038878Y011555D01*
X038837Y011544D01*
X038800Y011523D01*
X038771Y011493D01*
X038739Y011384D02*
X001392Y011384D01*
X001392Y011266D02*
X038739Y011266D01*
X038739Y011147D02*
X001392Y011147D01*
X001392Y011029D02*
X002240Y011029D01*
X002229Y010989D01*
X002229Y010555D01*
X002801Y010555D01*
X002801Y010435D01*
X002229Y010435D01*
X002229Y010001D01*
X002240Y009961D01*
X002261Y009924D01*
X002291Y009895D01*
X002327Y009873D01*
X002368Y009863D01*
X002801Y009863D01*
X002801Y010435D01*
X002921Y010435D01*
X002921Y009863D01*
X003355Y009863D01*
X003395Y009873D01*
X003432Y009895D01*
X003462Y009924D01*
X003483Y009961D01*
X003494Y010001D01*
X003494Y010435D01*
X002921Y010435D01*
X002921Y010555D01*
X002801Y010555D01*
X002801Y011127D01*
X002368Y011127D01*
X002327Y011117D01*
X002291Y011095D01*
X002261Y011066D01*
X002240Y011029D01*
X002229Y010910D02*
X001392Y010910D01*
X001392Y010792D02*
X002229Y010792D01*
X002229Y010673D02*
X001392Y010673D01*
X001392Y010555D02*
X002801Y010555D01*
X002801Y010673D02*
X002921Y010673D01*
X002921Y010555D02*
X002921Y011127D01*
X003355Y011127D01*
X003395Y011117D01*
X003432Y011095D01*
X003462Y011066D01*
X003483Y011029D01*
X003494Y010989D01*
X003494Y010555D01*
X002921Y010555D01*
X006801Y010555D01*
X006801Y010435D01*
X006229Y010435D01*
X006229Y010001D01*
X006240Y009961D01*
X006261Y009924D01*
X006291Y009895D01*
X006327Y009873D01*
X006368Y009863D01*
X006801Y009863D01*
X006801Y010435D01*
X006921Y010435D01*
X006921Y009863D01*
X007355Y009863D01*
X007395Y009873D01*
X007432Y009895D01*
X007462Y009924D01*
X007483Y009961D01*
X007494Y010001D01*
X007494Y010435D01*
X006921Y010435D01*
X006921Y010555D01*
X006801Y010555D01*
X006229Y010555D01*
X006229Y010989D01*
X006240Y011029D01*
X006261Y011066D01*
X006291Y011095D01*
X006327Y011117D01*
X006368Y011127D01*
X006801Y011127D01*
X006801Y010555D01*
X006801Y010673D02*
X006921Y010673D01*
X006921Y010555D02*
X006921Y011127D01*
X007355Y011127D01*
X007395Y011117D01*
X007432Y011095D01*
X007462Y011066D01*
X007483Y011029D01*
X007494Y010989D01*
X007494Y010555D01*
X006921Y010555D01*
X012964Y010555D01*
X012934Y010525D02*
X012934Y009933D01*
X013016Y009851D01*
X013608Y009851D01*
X013690Y009933D01*
X013690Y010525D01*
X013608Y010607D01*
X013016Y010607D01*
X012934Y010525D01*
X012934Y010436D02*
X006921Y010436D01*
X006921Y010318D02*
X006801Y010318D01*
X006801Y010436D02*
X002921Y010436D01*
X002921Y010318D02*
X002801Y010318D01*
X002801Y010436D02*
X001392Y010436D01*
X001392Y010318D02*
X002229Y010318D01*
X002229Y010199D02*
X001392Y010199D01*
X001392Y010081D02*
X002229Y010081D01*
X002239Y009962D02*
X001392Y009962D01*
X002801Y009962D02*
X002921Y009962D01*
X002921Y010081D02*
X002801Y010081D01*
X002801Y010199D02*
X002921Y010199D01*
X003494Y010199D02*
X006229Y010199D01*
X006229Y010081D02*
X003494Y010081D01*
X003483Y009962D02*
X006239Y009962D01*
X006229Y010318D02*
X003494Y010318D01*
X003494Y010673D02*
X006229Y010673D01*
X006229Y010792D02*
X003494Y010792D01*
X003494Y010910D02*
X006229Y010910D01*
X006240Y011029D02*
X003483Y011029D01*
X002921Y011029D02*
X002801Y011029D01*
X002801Y010910D02*
X002921Y010910D01*
X002921Y010792D02*
X002801Y010792D01*
X001392Y011740D02*
X053232Y011740D01*
X053232Y011858D02*
X001392Y011858D01*
X001392Y011977D02*
X053232Y011977D01*
X053232Y012095D02*
X001392Y012095D01*
X001392Y012214D02*
X049985Y012214D01*
X049991Y012204D02*
X050021Y012174D01*
X050057Y012153D01*
X050098Y012142D01*
X050502Y012142D01*
X050502Y012685D01*
X049959Y012685D01*
X049959Y012281D01*
X049970Y012240D01*
X049991Y012204D01*
X049959Y012332D02*
X001392Y012332D01*
X001392Y012451D02*
X049959Y012451D01*
X049959Y012569D02*
X001392Y012569D01*
X001392Y012688D02*
X009925Y012688D01*
X009928Y012687D02*
X009842Y012714D01*
X009762Y012755D01*
X009689Y012808D01*
X009625Y012872D01*
X009572Y012945D01*
X009531Y013025D01*
X009504Y013111D01*
X009492Y013185D01*
X010002Y013185D01*
X010002Y013305D01*
X009492Y013305D01*
X009504Y013379D01*
X009531Y013465D01*
X009572Y013545D01*
X009625Y013618D01*
X009689Y013682D01*
X009762Y013735D01*
X009842Y013776D01*
X009928Y013803D01*
X010002Y013815D01*
X010002Y013305D01*
X010122Y013305D01*
X010122Y013815D01*
X010196Y013803D01*
X010282Y013776D01*
X010362Y013735D01*
X010435Y013682D01*
X010499Y013618D01*
X010552Y013545D01*
X010593Y013465D01*
X010620Y013379D01*
X010632Y013305D01*
X010122Y013305D01*
X010122Y013185D01*
X010122Y012675D01*
X010196Y012687D01*
X010282Y012714D01*
X010362Y012755D01*
X010435Y012808D01*
X010499Y012872D01*
X010552Y012945D01*
X010593Y013025D01*
X010620Y013111D01*
X010632Y013185D01*
X010122Y013185D01*
X010002Y013185D01*
X010002Y012675D01*
X009928Y012687D01*
X010002Y012688D02*
X010122Y012688D01*
X010199Y012688D02*
X050502Y012688D01*
X050502Y012685D02*
X050502Y012805D01*
X049959Y012805D01*
X049959Y013209D01*
X049970Y013250D01*
X049991Y013286D01*
X050021Y013316D01*
X050057Y013337D01*
X050098Y013348D01*
X050502Y013348D01*
X050502Y012805D01*
X050622Y012805D01*
X050622Y013348D01*
X051026Y013348D01*
X051067Y013337D01*
X051103Y013316D01*
X051133Y013286D01*
X051154Y013250D01*
X051165Y013209D01*
X051165Y012805D01*
X050622Y012805D01*
X050622Y012685D01*
X050622Y012142D01*
X051026Y012142D01*
X051067Y012153D01*
X051103Y012174D01*
X051133Y012204D01*
X051154Y012240D01*
X051165Y012281D01*
X051165Y012685D01*
X050622Y012685D01*
X050502Y012685D01*
X050502Y012569D02*
X050622Y012569D01*
X050622Y012451D02*
X050502Y012451D01*
X050502Y012332D02*
X050622Y012332D01*
X050622Y012214D02*
X050502Y012214D01*
X050622Y012688D02*
X053232Y012688D01*
X053232Y012806D02*
X051165Y012806D01*
X051165Y012925D02*
X053232Y012925D01*
X053232Y013043D02*
X051165Y013043D01*
X051165Y013162D02*
X053232Y013162D01*
X053232Y013280D02*
X051136Y013280D01*
X050622Y013280D02*
X050502Y013280D01*
X050502Y013162D02*
X050622Y013162D01*
X050622Y013043D02*
X050502Y013043D01*
X050502Y012925D02*
X050622Y012925D01*
X050622Y012806D02*
X050502Y012806D01*
X049959Y012806D02*
X010432Y012806D01*
X010537Y012925D02*
X049959Y012925D01*
X049959Y013043D02*
X010598Y013043D01*
X010628Y013162D02*
X049959Y013162D01*
X049988Y013280D02*
X010122Y013280D01*
X010122Y013162D02*
X010002Y013162D01*
X010002Y013280D02*
X001392Y013280D01*
X001392Y013162D02*
X009496Y013162D01*
X009526Y013043D02*
X001392Y013043D01*
X001392Y012925D02*
X009587Y012925D01*
X009692Y012806D02*
X001392Y012806D01*
X001392Y013399D02*
X009510Y013399D01*
X009558Y013517D02*
X001392Y013517D01*
X001392Y013636D02*
X009643Y013636D01*
X009800Y013754D02*
X001392Y013754D01*
X001392Y013873D02*
X027166Y013873D01*
X027232Y013845D02*
X027392Y013845D01*
X027539Y013906D01*
X027651Y014018D01*
X027712Y014165D01*
X027712Y014325D01*
X027651Y014472D01*
X027539Y014584D01*
X027392Y014645D01*
X027232Y014645D01*
X027085Y014584D01*
X026973Y014472D01*
X026912Y014325D01*
X026912Y014165D01*
X026973Y014018D01*
X027085Y013906D01*
X027232Y013845D01*
X027458Y013873D02*
X053232Y013873D01*
X053232Y013991D02*
X027624Y013991D01*
X027689Y014110D02*
X028697Y014110D01*
X028732Y014095D02*
X028892Y014095D01*
X029039Y014156D01*
X029151Y014268D01*
X029212Y014415D01*
X029212Y014575D01*
X029151Y014722D01*
X029039Y014834D01*
X028892Y014895D01*
X028732Y014895D01*
X028585Y014834D01*
X028473Y014722D01*
X028412Y014575D01*
X028412Y014415D01*
X028473Y014268D01*
X028585Y014156D01*
X028732Y014095D01*
X028927Y014110D02*
X053232Y014110D01*
X053232Y014228D02*
X051129Y014228D01*
X051145Y014244D02*
X051145Y015246D01*
X051063Y015328D01*
X050061Y015328D01*
X049979Y015246D01*
X049979Y014244D01*
X050061Y014162D01*
X051063Y014162D01*
X051145Y014244D01*
X051145Y014347D02*
X053232Y014347D01*
X053232Y014465D02*
X051145Y014465D01*
X051145Y014584D02*
X053232Y014584D01*
X053232Y014702D02*
X051145Y014702D01*
X051145Y014821D02*
X053232Y014821D01*
X053232Y014939D02*
X051145Y014939D01*
X051145Y015058D02*
X053232Y015058D01*
X053232Y015176D02*
X051145Y015176D01*
X051096Y015295D02*
X053232Y015295D01*
X053232Y015413D02*
X042324Y015413D01*
X042308Y015409D02*
X042349Y015420D01*
X042386Y015441D01*
X042415Y015471D01*
X042436Y015507D01*
X042447Y015548D01*
X042447Y015791D01*
X042066Y015791D01*
X042066Y015794D01*
X042447Y015794D01*
X042447Y016037D01*
X042436Y016077D01*
X042415Y016114D01*
X042386Y016144D01*
X042349Y016165D01*
X042308Y016176D01*
X042066Y016176D01*
X042066Y015794D01*
X042062Y015794D01*
X042062Y015791D01*
X041681Y015791D01*
X041681Y015548D01*
X041691Y015507D01*
X041713Y015471D01*
X041742Y015441D01*
X041779Y015420D01*
X041819Y015409D01*
X042062Y015409D01*
X042062Y015791D01*
X042066Y015791D01*
X042066Y015409D01*
X042308Y015409D01*
X042443Y015532D02*
X042701Y015532D01*
X042701Y015511D02*
X042783Y015429D01*
X043345Y015429D01*
X043427Y015511D01*
X043427Y016074D01*
X043345Y016156D01*
X042783Y016156D01*
X042701Y016074D01*
X042701Y015511D01*
X042701Y015650D02*
X042447Y015650D01*
X042447Y015769D02*
X042701Y015769D01*
X042701Y015887D02*
X042447Y015887D01*
X042447Y016006D02*
X042701Y016006D01*
X042751Y016124D02*
X042405Y016124D01*
X042066Y016124D02*
X042062Y016124D01*
X042062Y016176D02*
X041819Y016176D01*
X041779Y016165D01*
X041742Y016144D01*
X041713Y016114D01*
X041691Y016077D01*
X041681Y016037D01*
X041681Y015794D01*
X042062Y015794D01*
X042062Y016176D01*
X042062Y016006D02*
X042066Y016006D01*
X042062Y015887D02*
X042066Y015887D01*
X042062Y015769D02*
X042066Y015769D01*
X042062Y015650D02*
X042066Y015650D01*
X042062Y015532D02*
X042066Y015532D01*
X042062Y015413D02*
X042066Y015413D01*
X041804Y015413D02*
X030296Y015413D01*
X030289Y015406D02*
X030401Y015518D01*
X030462Y015665D01*
X030462Y015825D01*
X030401Y015972D01*
X030289Y016084D01*
X030142Y016145D01*
X029982Y016145D01*
X029835Y016084D01*
X029723Y015972D01*
X029662Y015825D01*
X029662Y015665D01*
X029723Y015518D01*
X029835Y015406D01*
X029982Y015345D01*
X030142Y015345D01*
X030289Y015406D01*
X030407Y015532D02*
X041685Y015532D01*
X041681Y015650D02*
X030456Y015650D01*
X030462Y015769D02*
X041681Y015769D01*
X041681Y015887D02*
X030436Y015887D01*
X030367Y016006D02*
X041681Y016006D01*
X041723Y016124D02*
X030192Y016124D01*
X029932Y016124D02*
X001392Y016124D01*
X001392Y016006D02*
X029757Y016006D01*
X029688Y015887D02*
X001392Y015887D01*
X001392Y015769D02*
X029662Y015769D01*
X029668Y015650D02*
X001392Y015650D01*
X001392Y015532D02*
X029717Y015532D01*
X029828Y015413D02*
X001392Y015413D01*
X001392Y015295D02*
X035162Y015295D01*
X035162Y015313D02*
X035162Y014677D01*
X035244Y014595D01*
X035880Y014595D01*
X035962Y014677D01*
X035962Y015313D01*
X035880Y015395D01*
X035244Y015395D01*
X035162Y015313D01*
X035162Y015176D02*
X001392Y015176D01*
X001392Y015058D02*
X002281Y015058D01*
X002249Y015025D02*
X002249Y013965D01*
X002331Y013883D01*
X003392Y013883D01*
X003474Y013965D01*
X003474Y015025D01*
X003392Y015107D01*
X002331Y015107D01*
X002249Y015025D01*
X002249Y014939D02*
X001392Y014939D01*
X001392Y014821D02*
X002249Y014821D01*
X002249Y014702D02*
X001392Y014702D01*
X001392Y014584D02*
X002249Y014584D01*
X002249Y014465D02*
X001392Y014465D01*
X001392Y014347D02*
X002249Y014347D01*
X002249Y014228D02*
X001392Y014228D01*
X001392Y014110D02*
X002249Y014110D01*
X002249Y013991D02*
X001392Y013991D01*
X003474Y013991D02*
X006249Y013991D01*
X006249Y013965D02*
X006331Y013883D01*
X007392Y013883D01*
X007474Y013965D01*
X007474Y015025D01*
X007392Y015107D01*
X006331Y015107D01*
X006249Y015025D01*
X006249Y013965D01*
X006249Y014110D02*
X003474Y014110D01*
X003474Y014228D02*
X006249Y014228D01*
X006249Y014347D02*
X003474Y014347D01*
X003474Y014465D02*
X006249Y014465D01*
X006249Y014584D02*
X003474Y014584D01*
X003474Y014702D02*
X006249Y014702D01*
X006249Y014821D02*
X003474Y014821D01*
X003474Y014939D02*
X006249Y014939D01*
X006281Y015058D02*
X003442Y015058D01*
X001392Y016243D02*
X046412Y016243D01*
X046412Y016177D02*
X046494Y016095D01*
X047130Y016095D01*
X047212Y016177D01*
X047212Y016813D01*
X047130Y016895D01*
X046494Y016895D01*
X046412Y016813D01*
X046412Y016177D01*
X046465Y016124D02*
X045377Y016124D01*
X045345Y016156D02*
X044783Y016156D01*
X044701Y016074D01*
X044701Y015511D01*
X044783Y015429D01*
X045345Y015429D01*
X045427Y015511D01*
X045427Y016074D01*
X045345Y016156D01*
X045427Y016006D02*
X053232Y016006D01*
X053232Y016124D02*
X047159Y016124D01*
X047212Y016243D02*
X053232Y016243D01*
X053232Y016361D02*
X047212Y016361D01*
X047212Y016480D02*
X053232Y016480D01*
X053232Y016598D02*
X047212Y016598D01*
X047212Y016717D02*
X051882Y016717D01*
X051925Y016705D02*
X052199Y016705D01*
X052463Y016776D01*
X052701Y016913D01*
X052894Y017106D01*
X053031Y017344D01*
X053102Y017608D01*
X053102Y017882D01*
X053031Y018146D01*
X052894Y018384D01*
X052701Y018577D01*
X052463Y018714D01*
X052199Y018785D01*
X051925Y018785D01*
X051661Y018714D01*
X051423Y018577D01*
X051230Y018384D01*
X051093Y018146D01*
X051022Y017882D01*
X051022Y017608D01*
X051093Y017344D01*
X051230Y017106D01*
X051423Y016913D01*
X051661Y016776D01*
X051925Y016705D01*
X052242Y016717D02*
X053232Y016717D01*
X053232Y016835D02*
X052566Y016835D01*
X052741Y016954D02*
X053232Y016954D01*
X053232Y017072D02*
X052860Y017072D01*
X052943Y017191D02*
X053232Y017191D01*
X053232Y017309D02*
X053011Y017309D01*
X053054Y017428D02*
X053232Y017428D01*
X053232Y017546D02*
X053085Y017546D01*
X053102Y017665D02*
X053232Y017665D01*
X053232Y017783D02*
X053102Y017783D01*
X053097Y017902D02*
X053232Y017902D01*
X053232Y018020D02*
X053065Y018020D01*
X053033Y018139D02*
X053232Y018139D01*
X053232Y018257D02*
X052967Y018257D01*
X052899Y018376D02*
X053232Y018376D01*
X053232Y018494D02*
X052784Y018494D01*
X052639Y018613D02*
X053232Y018613D01*
X053232Y018731D02*
X052400Y018731D01*
X051724Y018731D02*
X029212Y018731D01*
X029212Y018813D02*
X029130Y018895D01*
X028494Y018895D01*
X028412Y018813D01*
X028412Y018177D01*
X028494Y018095D01*
X029130Y018095D01*
X029212Y018177D01*
X029212Y018813D01*
X029175Y018850D02*
X053232Y018850D01*
X053232Y018968D02*
X018102Y018968D01*
X018102Y018850D02*
X028449Y018850D01*
X028412Y018731D02*
X018102Y018731D01*
X018102Y018613D02*
X026962Y018613D01*
X026994Y018645D02*
X026912Y018563D01*
X026912Y017927D01*
X026994Y017845D01*
X027630Y017845D01*
X027712Y017927D01*
X027712Y018563D01*
X027630Y018645D01*
X026994Y018645D01*
X026912Y018494D02*
X018102Y018494D01*
X018102Y018376D02*
X026912Y018376D01*
X026912Y018257D02*
X018085Y018257D01*
X018102Y018274D02*
X018102Y019216D01*
X018073Y019245D01*
X018102Y019274D01*
X018102Y020216D01*
X018073Y020245D01*
X018102Y020274D01*
X018102Y021216D01*
X018020Y021298D01*
X017077Y021298D01*
X016995Y021216D01*
X016995Y020274D01*
X017023Y020245D01*
X016995Y020216D01*
X016995Y019274D01*
X017023Y019245D01*
X016995Y019216D01*
X016995Y018274D01*
X017077Y018192D01*
X018020Y018192D01*
X018102Y018274D01*
X018102Y019087D02*
X053232Y019087D01*
X053232Y019205D02*
X037962Y019205D01*
X037962Y019177D02*
X037962Y019813D01*
X037880Y019895D01*
X037244Y019895D01*
X037162Y019813D01*
X037162Y019177D01*
X037244Y019095D01*
X037880Y019095D01*
X037962Y019177D01*
X037962Y019324D02*
X053232Y019324D01*
X053232Y019442D02*
X037962Y019442D01*
X037962Y019561D02*
X053232Y019561D01*
X053232Y019679D02*
X037962Y019679D01*
X037962Y019798D02*
X053232Y019798D01*
X053232Y019916D02*
X030462Y019916D01*
X030462Y019798D02*
X033299Y019798D01*
X033335Y019834D02*
X033223Y019722D01*
X033162Y019575D01*
X033162Y019415D01*
X033223Y019268D01*
X033335Y019156D01*
X033482Y019095D01*
X033642Y019095D01*
X033789Y019156D01*
X033901Y019268D01*
X033962Y019415D01*
X033962Y019575D01*
X033901Y019722D01*
X033789Y019834D01*
X033642Y019895D01*
X033482Y019895D01*
X033335Y019834D01*
X033205Y019679D02*
X030462Y019679D01*
X030462Y019561D02*
X033162Y019561D01*
X033162Y019442D02*
X030462Y019442D01*
X030462Y019427D02*
X030462Y020063D01*
X030380Y020145D01*
X029744Y020145D01*
X029662Y020063D01*
X029662Y019427D01*
X029744Y019345D01*
X030380Y019345D01*
X030462Y019427D01*
X030462Y020035D02*
X053232Y020035D01*
X053232Y020153D02*
X047032Y020153D01*
X047039Y020156D02*
X047151Y020268D01*
X047212Y020415D01*
X047212Y020575D01*
X047151Y020722D01*
X047039Y020834D01*
X046892Y020895D01*
X046732Y020895D01*
X046585Y020834D01*
X046473Y020722D01*
X046412Y020575D01*
X046412Y020415D01*
X046473Y020268D01*
X046585Y020156D01*
X046732Y020095D01*
X046892Y020095D01*
X047039Y020156D01*
X047152Y020272D02*
X053232Y020272D01*
X053232Y020390D02*
X047201Y020390D01*
X047212Y020509D02*
X053232Y020509D01*
X053232Y020627D02*
X047190Y020627D01*
X047127Y020746D02*
X051574Y020746D01*
X051668Y020652D02*
X051784Y020652D01*
X052234Y021101D01*
X052234Y021217D01*
X051784Y021667D01*
X051668Y021667D01*
X051219Y021217D01*
X051219Y021101D01*
X029685Y021101D01*
X029712Y021165D02*
X029651Y021018D01*
X029539Y020906D01*
X029392Y020845D01*
X029232Y020845D01*
X029085Y020906D01*
X028973Y021018D01*
X028912Y021165D01*
X028912Y021325D01*
X028973Y021472D01*
X029085Y021584D01*
X029232Y021645D01*
X029392Y021645D01*
X029539Y021584D01*
X029651Y021472D01*
X029712Y021325D01*
X029712Y021165D01*
X029712Y021220D02*
X051221Y021220D01*
X051219Y021101D02*
X051668Y020652D01*
X051878Y020746D02*
X053232Y020746D01*
X053232Y020864D02*
X051997Y020864D01*
X052115Y020983D02*
X053232Y020983D01*
X053232Y021101D02*
X052234Y021101D01*
X052232Y021220D02*
X053232Y021220D01*
X053232Y021338D02*
X052113Y021338D01*
X051995Y021457D02*
X053232Y021457D01*
X053232Y021575D02*
X051876Y021575D01*
X051576Y021575D02*
X047685Y021575D01*
X047660Y021513D02*
X047722Y021663D01*
X047722Y021827D01*
X047660Y021977D01*
X047544Y022093D01*
X047394Y022155D01*
X047230Y022155D01*
X047080Y022093D01*
X046964Y021977D01*
X046902Y021827D01*
X046902Y021663D01*
X046964Y021513D01*
X047080Y021397D01*
X047230Y021335D01*
X047394Y021335D01*
X047544Y021397D01*
X047660Y021513D01*
X047603Y021457D02*
X051458Y021457D01*
X051339Y021338D02*
X047401Y021338D01*
X047223Y021338D02*
X046401Y021338D01*
X046394Y021335D02*
X046544Y021397D01*
X046660Y021513D01*
X046722Y021663D01*
X046722Y021827D01*
X046660Y021977D01*
X046544Y022093D01*
X046394Y022155D01*
X046230Y022155D01*
X046080Y022093D01*
X045964Y021977D01*
X045902Y021827D01*
X045902Y021663D01*
X045964Y021513D01*
X046080Y021397D01*
X046230Y021335D01*
X046394Y021335D01*
X046223Y021338D02*
X045401Y021338D01*
X045394Y021335D02*
X045544Y021397D01*
X045660Y021513D01*
X045722Y021663D01*
X045722Y021827D01*
X045660Y021977D01*
X045544Y022093D01*
X045394Y022155D01*
X045230Y022155D01*
X045080Y022093D01*
X044964Y021977D01*
X044902Y021827D01*
X044902Y021663D01*
X044964Y021513D01*
X045080Y021397D01*
X045230Y021335D01*
X045394Y021335D01*
X045223Y021338D02*
X044401Y021338D01*
X044394Y021335D02*
X044544Y021397D01*
X044660Y021513D01*
X044722Y021663D01*
X044722Y021827D01*
X044660Y021977D01*
X044544Y022093D01*
X044394Y022155D01*
X044230Y022155D01*
X044080Y022093D01*
X043964Y021977D01*
X043902Y021827D01*
X043902Y021663D01*
X043964Y021513D01*
X044080Y021397D01*
X044230Y021335D01*
X044394Y021335D01*
X044223Y021338D02*
X043401Y021338D01*
X043394Y021335D02*
X043544Y021397D01*
X043660Y021513D01*
X043722Y021663D01*
X043722Y021827D01*
X043660Y021977D01*
X043544Y022093D01*
X043394Y022155D01*
X043230Y022155D01*
X043080Y022093D01*
X042964Y021977D01*
X042902Y021827D01*
X042902Y021663D01*
X042964Y021513D01*
X043080Y021397D01*
X043230Y021335D01*
X043394Y021335D01*
X043223Y021338D02*
X042401Y021338D01*
X042394Y021335D02*
X042544Y021397D01*
X042660Y021513D01*
X042722Y021663D01*
X042722Y021827D01*
X042660Y021977D01*
X042544Y022093D01*
X042394Y022155D01*
X042230Y022155D01*
X042080Y022093D01*
X041964Y021977D01*
X041902Y021827D01*
X041902Y021663D01*
X041964Y021513D01*
X042080Y021397D01*
X042230Y021335D01*
X042394Y021335D01*
X042223Y021338D02*
X041451Y021338D01*
X041477Y021347D02*
X041537Y021377D01*
X041592Y021417D01*
X041640Y021465D01*
X041680Y021520D01*
X041711Y021580D01*
X041731Y021644D01*
X041742Y021711D01*
X041742Y021720D01*
X041337Y021720D01*
X041337Y021315D01*
X041346Y021315D01*
X041413Y021326D01*
X041477Y021347D01*
X041337Y021338D02*
X041287Y021338D01*
X041287Y021315D02*
X041287Y021720D01*
X040882Y021720D01*
X040882Y021711D01*
X040893Y021644D01*
X040914Y021580D01*
X040944Y021520D01*
X040984Y021465D01*
X041032Y021417D01*
X041087Y021377D01*
X041147Y021347D01*
X041211Y021326D01*
X041278Y021315D01*
X041287Y021315D01*
X041173Y021338D02*
X040401Y021338D01*
X040394Y021335D02*
X040544Y021397D01*
X040660Y021513D01*
X040722Y021663D01*
X040722Y021827D01*
X040660Y021977D01*
X040544Y022093D01*
X040394Y022155D01*
X040230Y022155D01*
X040080Y022093D01*
X039964Y021977D01*
X039902Y021827D01*
X039902Y021663D01*
X039964Y021513D01*
X040080Y021397D01*
X040230Y021335D01*
X040394Y021335D01*
X040223Y021338D02*
X039401Y021338D01*
X039394Y021335D02*
X039544Y021397D01*
X039660Y021513D01*
X039722Y021663D01*
X039722Y021827D01*
X039660Y021977D01*
X039544Y022093D01*
X039394Y022155D01*
X039230Y022155D01*
X039080Y022093D01*
X038964Y021977D01*
X038902Y021827D01*
X038902Y021663D01*
X038964Y021513D01*
X039080Y021397D01*
X039230Y021335D01*
X039394Y021335D01*
X039223Y021338D02*
X038401Y021338D01*
X038394Y021335D02*
X038544Y021397D01*
X038660Y021513D01*
X038722Y021663D01*
X038722Y021827D01*
X038660Y021977D01*
X038544Y022093D01*
X038394Y022155D01*
X038230Y022155D01*
X038080Y022093D01*
X037964Y021977D01*
X037902Y021827D01*
X037902Y021663D01*
X037964Y021513D01*
X038080Y021397D01*
X038230Y021335D01*
X038394Y021335D01*
X038223Y021338D02*
X037401Y021338D01*
X037394Y021335D02*
X037544Y021397D01*
X037660Y021513D01*
X037722Y021663D01*
X037722Y021827D01*
X037660Y021977D01*
X037544Y022093D01*
X037394Y022155D01*
X037230Y022155D01*
X037080Y022093D01*
X036964Y021977D01*
X036902Y021827D01*
X036902Y021663D01*
X036964Y021513D01*
X037080Y021397D01*
X037230Y021335D01*
X037394Y021335D01*
X037223Y021338D02*
X036401Y021338D01*
X036394Y021335D02*
X036544Y021397D01*
X036660Y021513D01*
X036722Y021663D01*
X036722Y021827D01*
X036660Y021977D01*
X036544Y022093D01*
X036394Y022155D01*
X036230Y022155D01*
X036080Y022093D01*
X035964Y021977D01*
X035902Y021827D01*
X035902Y021663D01*
X035964Y021513D01*
X036080Y021397D01*
X036230Y021335D01*
X036394Y021335D01*
X036223Y021338D02*
X035401Y021338D01*
X035394Y021335D02*
X035544Y021397D01*
X035660Y021513D01*
X035722Y021663D01*
X035722Y021827D01*
X035660Y021977D01*
X035544Y022093D01*
X035394Y022155D01*
X035230Y022155D01*
X035080Y022093D01*
X034964Y021977D01*
X034902Y021827D01*
X034902Y021663D01*
X034964Y021513D01*
X035080Y021397D01*
X035230Y021335D01*
X035394Y021335D01*
X035223Y021338D02*
X034401Y021338D01*
X034394Y021335D02*
X034544Y021397D01*
X034660Y021513D01*
X034722Y021663D01*
X034722Y021827D01*
X034660Y021977D01*
X034544Y022093D01*
X034394Y022155D01*
X034230Y022155D01*
X034080Y022093D01*
X033964Y021977D01*
X033902Y021827D01*
X033902Y021663D01*
X033964Y021513D01*
X034080Y021397D01*
X034230Y021335D01*
X034394Y021335D01*
X034223Y021338D02*
X029706Y021338D01*
X029657Y021457D02*
X034021Y021457D01*
X033939Y021575D02*
X029548Y021575D01*
X029076Y021575D02*
X001392Y021575D01*
X001392Y021457D02*
X028967Y021457D01*
X028918Y021338D02*
X001392Y021338D01*
X001392Y021220D02*
X016998Y021220D01*
X016995Y021101D02*
X001392Y021101D01*
X001392Y020983D02*
X016995Y020983D01*
X016995Y020864D02*
X001392Y020864D01*
X001392Y020746D02*
X016995Y020746D01*
X016995Y020627D02*
X001392Y020627D01*
X001392Y020509D02*
X016995Y020509D01*
X016995Y020390D02*
X001392Y020390D01*
X001392Y020272D02*
X016997Y020272D01*
X016995Y020153D02*
X001392Y020153D01*
X001392Y020035D02*
X016995Y020035D01*
X016995Y019916D02*
X001392Y019916D01*
X001392Y019798D02*
X016995Y019798D01*
X016995Y019679D02*
X007024Y019679D01*
X006963Y019714D02*
X006699Y019785D01*
X006425Y019785D01*
X006161Y019714D01*
X005923Y019577D01*
X005730Y019384D01*
X005593Y019146D01*
X005522Y018882D01*
X005522Y018608D01*
X005593Y018344D01*
X005730Y018106D01*
X005923Y017913D01*
X006161Y017776D01*
X006425Y017705D01*
X006699Y017705D01*
X006963Y017776D01*
X007201Y017913D01*
X007394Y018106D01*
X007531Y018344D01*
X007602Y018608D01*
X007602Y018882D01*
X007531Y019146D01*
X007394Y019384D01*
X007201Y019577D01*
X006963Y019714D01*
X007217Y019561D02*
X016995Y019561D01*
X016995Y019442D02*
X007336Y019442D01*
X007429Y019324D02*
X016995Y019324D01*
X016995Y019205D02*
X007497Y019205D01*
X007547Y019087D02*
X016995Y019087D01*
X016995Y018968D02*
X007579Y018968D01*
X007602Y018850D02*
X016995Y018850D01*
X016995Y018731D02*
X007602Y018731D01*
X007602Y018613D02*
X016995Y018613D01*
X016995Y018494D02*
X007571Y018494D01*
X007540Y018376D02*
X016995Y018376D01*
X017011Y018257D02*
X007481Y018257D01*
X007413Y018139D02*
X026912Y018139D01*
X026912Y018020D02*
X007308Y018020D01*
X007181Y017902D02*
X026937Y017902D01*
X027687Y017902D02*
X033187Y017902D01*
X033162Y017927D02*
X033244Y017845D01*
X033880Y017845D01*
X033962Y017927D01*
X033962Y018563D01*
X033880Y018645D01*
X033244Y018645D01*
X033162Y018563D01*
X033162Y017927D01*
X033162Y018020D02*
X027712Y018020D01*
X027712Y018139D02*
X028450Y018139D01*
X028412Y018257D02*
X027712Y018257D01*
X027712Y018376D02*
X028412Y018376D01*
X028412Y018494D02*
X027712Y018494D01*
X027662Y018613D02*
X028412Y018613D01*
X029212Y018613D02*
X033212Y018613D01*
X033162Y018494D02*
X029212Y018494D01*
X029212Y018376D02*
X033162Y018376D01*
X033162Y018257D02*
X029212Y018257D01*
X029174Y018139D02*
X033162Y018139D01*
X033937Y017902D02*
X037346Y017902D01*
X037335Y017906D02*
X037482Y017845D01*
X037642Y017845D01*
X037789Y017906D01*
X037901Y018018D01*
X037962Y018165D01*
X037962Y018325D01*
X037901Y018472D01*
X037789Y018584D01*
X037642Y018645D01*
X037482Y018645D01*
X037335Y018584D01*
X037223Y018472D01*
X037162Y018325D01*
X037162Y018165D01*
X037223Y018018D01*
X037335Y017906D01*
X037222Y018020D02*
X033962Y018020D01*
X033962Y018139D02*
X037173Y018139D01*
X037162Y018257D02*
X033962Y018257D01*
X033962Y018376D02*
X037183Y018376D01*
X037245Y018494D02*
X033962Y018494D01*
X033912Y018613D02*
X037404Y018613D01*
X037720Y018613D02*
X048614Y018613D01*
X048559Y018557D02*
X048498Y018410D01*
X048498Y018251D01*
X048559Y018104D01*
X048671Y017992D01*
X048818Y017931D01*
X048977Y017931D01*
X049124Y017992D01*
X049237Y018104D01*
X049298Y018251D01*
X049298Y018410D01*
X049237Y018557D01*
X049124Y018670D01*
X048977Y018731D01*
X048818Y018731D01*
X048671Y018670D01*
X048559Y018557D01*
X048532Y018494D02*
X037879Y018494D01*
X037941Y018376D02*
X048498Y018376D01*
X048498Y018257D02*
X037962Y018257D01*
X037951Y018139D02*
X048544Y018139D01*
X048643Y018020D02*
X037902Y018020D01*
X037778Y017902D02*
X051027Y017902D01*
X051022Y017783D02*
X006976Y017783D01*
X006148Y017783D02*
X001392Y017783D01*
X001392Y017665D02*
X051022Y017665D01*
X051039Y017546D02*
X001392Y017546D01*
X001392Y017428D02*
X051070Y017428D01*
X051113Y017309D02*
X001392Y017309D01*
X001392Y017191D02*
X051181Y017191D01*
X051264Y017072D02*
X001392Y017072D01*
X001392Y016954D02*
X051383Y016954D01*
X051558Y016835D02*
X047190Y016835D01*
X046434Y016835D02*
X001392Y016835D01*
X001392Y016717D02*
X046412Y016717D01*
X046412Y016598D02*
X001392Y016598D01*
X001392Y016480D02*
X046412Y016480D01*
X046412Y016361D02*
X001392Y016361D01*
X001392Y017902D02*
X005943Y017902D01*
X005816Y018020D02*
X001392Y018020D01*
X001392Y018139D02*
X005711Y018139D01*
X005643Y018257D02*
X001392Y018257D01*
X001392Y018376D02*
X005584Y018376D01*
X005553Y018494D02*
X001392Y018494D01*
X001392Y018613D02*
X005522Y018613D01*
X005522Y018731D02*
X001392Y018731D01*
X001392Y018850D02*
X005522Y018850D01*
X005545Y018968D02*
X001392Y018968D01*
X001392Y019087D02*
X005577Y019087D01*
X005627Y019205D02*
X001392Y019205D01*
X001392Y019324D02*
X005695Y019324D01*
X005788Y019442D02*
X001392Y019442D01*
X001392Y019561D02*
X005907Y019561D01*
X006100Y019679D02*
X001392Y019679D01*
X001392Y021694D02*
X033902Y021694D01*
X033902Y021812D02*
X001392Y021812D01*
X001392Y021931D02*
X033945Y021931D01*
X034036Y022049D02*
X001392Y022049D01*
X001392Y022168D02*
X002268Y022168D01*
X002261Y022174D02*
X002291Y022145D01*
X002327Y022123D01*
X002368Y022113D01*
X002801Y022113D01*
X002801Y022685D01*
X002229Y022685D01*
X002229Y022251D01*
X002240Y022211D01*
X002261Y022174D01*
X002229Y022286D02*
X001392Y022286D01*
X001392Y022405D02*
X002229Y022405D01*
X002229Y022523D02*
X001392Y022523D01*
X001392Y022642D02*
X002229Y022642D01*
X002229Y022805D02*
X002801Y022805D01*
X002801Y022685D01*
X002921Y022685D01*
X002921Y022113D01*
X003355Y022113D01*
X003395Y022123D01*
X003432Y022145D01*
X003462Y022174D01*
X003483Y022211D01*
X003494Y022251D01*
X003494Y022685D01*
X002921Y022685D01*
X002921Y022805D01*
X002801Y022805D01*
X002801Y023377D01*
X002368Y023377D01*
X002327Y023367D01*
X002291Y023345D01*
X002261Y023316D01*
X002240Y023279D01*
X002229Y023239D01*
X002229Y022805D01*
X002229Y022879D02*
X001392Y022879D01*
X001392Y022997D02*
X002229Y022997D01*
X002229Y023116D02*
X001392Y023116D01*
X001392Y023234D02*
X002229Y023234D01*
X002303Y023353D02*
X001392Y023353D01*
X001392Y023471D02*
X050565Y023471D01*
X050565Y023353D02*
X007420Y023353D01*
X007432Y023345D02*
X007395Y023367D01*
X007355Y023377D01*
X006921Y023377D01*
X006921Y022805D01*
X006801Y022805D01*
X006801Y022685D01*
X006229Y022685D01*
X006229Y022251D01*
X006240Y022211D01*
X006261Y022174D01*
X006291Y022145D01*
X006327Y022123D01*
X006368Y022113D01*
X006801Y022113D01*
X006801Y022685D01*
X006921Y022685D01*
X006921Y022113D01*
X007355Y022113D01*
X007395Y022123D01*
X007432Y022145D01*
X007462Y022174D01*
X007483Y022211D01*
X007494Y022251D01*
X007494Y022685D01*
X006921Y022685D01*
X006921Y022805D01*
X007494Y022805D01*
X007494Y023239D01*
X007483Y023279D01*
X007462Y023316D01*
X007432Y023345D01*
X007494Y023234D02*
X051009Y023234D01*
X051009Y023192D02*
X050565Y023192D01*
X050565Y022886D01*
X050575Y022846D01*
X050596Y022809D01*
X050626Y022779D01*
X050663Y022758D01*
X050703Y022748D01*
X051010Y022748D01*
X051010Y023192D01*
X051115Y023192D01*
X051115Y023298D01*
X051010Y023298D01*
X051010Y023742D01*
X050703Y023742D01*
X050663Y023732D01*
X050626Y023711D01*
X050596Y023681D01*
X050575Y023644D01*
X050565Y023604D01*
X050565Y023298D01*
X051009Y023298D01*
X051009Y023192D01*
X051010Y023116D02*
X051115Y023116D01*
X051115Y023192D02*
X051115Y022748D01*
X051421Y022748D01*
X051461Y022758D01*
X051498Y022779D01*
X051528Y022809D01*
X051549Y022846D01*
X051560Y022886D01*
X051560Y023192D01*
X051115Y023192D01*
X051115Y023234D02*
X053232Y023234D01*
X053232Y023116D02*
X051560Y023116D01*
X051560Y022997D02*
X053232Y022997D01*
X053232Y022879D02*
X051557Y022879D01*
X051464Y022760D02*
X053232Y022760D01*
X053232Y022642D02*
X051341Y022642D01*
X051332Y022650D02*
X051157Y022722D01*
X050967Y022722D01*
X050792Y022650D01*
X050657Y022515D01*
X050585Y022340D01*
X050585Y022150D01*
X050657Y021975D01*
X050792Y021840D01*
X050967Y021768D01*
X051157Y021768D01*
X051332Y021840D01*
X051467Y021975D01*
X051540Y022150D01*
X051540Y022340D01*
X051467Y022515D01*
X051332Y022650D01*
X051459Y022523D02*
X053232Y022523D01*
X053232Y022405D02*
X051513Y022405D01*
X051540Y022286D02*
X053232Y022286D01*
X053232Y022168D02*
X051540Y022168D01*
X051498Y022049D02*
X053232Y022049D01*
X053232Y021931D02*
X051423Y021931D01*
X051265Y021812D02*
X053232Y021812D01*
X053232Y021694D02*
X047722Y021694D01*
X047722Y021812D02*
X050859Y021812D01*
X050701Y021931D02*
X047679Y021931D01*
X047588Y022049D02*
X050626Y022049D01*
X050585Y022168D02*
X041393Y022168D01*
X041413Y022164D02*
X041346Y022175D01*
X041337Y022175D01*
X041337Y021770D01*
X041287Y021770D01*
X041287Y021720D01*
X041337Y021720D01*
X041337Y021770D01*
X041742Y021770D01*
X041742Y021779D01*
X041731Y021846D01*
X041711Y021910D01*
X041680Y021970D01*
X041640Y022025D01*
X041592Y022073D01*
X041537Y022113D01*
X041477Y022143D01*
X041413Y022164D01*
X041337Y022168D02*
X041287Y022168D01*
X041287Y022175D02*
X041278Y022175D01*
X041211Y022164D01*
X041147Y022143D01*
X041087Y022113D01*
X041032Y022073D01*
X040984Y022025D01*
X040944Y021970D01*
X040914Y021910D01*
X040893Y021846D01*
X040882Y021779D01*
X040882Y021770D01*
X041287Y021770D01*
X041287Y022175D01*
X041231Y022168D02*
X022934Y022168D01*
X022933Y022163D02*
X022943Y022203D01*
X022943Y022446D01*
X022562Y022446D01*
X022562Y022449D01*
X022943Y022449D01*
X022943Y022692D01*
X022933Y022733D01*
X022911Y022769D01*
X022882Y022799D01*
X022845Y022820D01*
X022805Y022831D01*
X022562Y022831D01*
X022562Y022449D01*
X022558Y022449D01*
X022558Y022446D01*
X022177Y022446D01*
X022177Y022203D01*
X022188Y022163D01*
X022209Y022126D01*
X022238Y022096D01*
X022275Y022075D01*
X022316Y022064D01*
X022558Y022064D01*
X022558Y022446D01*
X022562Y022446D01*
X022562Y022064D01*
X022805Y022064D01*
X022845Y022075D01*
X022882Y022096D01*
X022911Y022126D01*
X022933Y022163D01*
X022943Y022286D02*
X050585Y022286D01*
X050611Y022405D02*
X022943Y022405D01*
X022943Y022523D02*
X050665Y022523D01*
X050783Y022642D02*
X022943Y022642D01*
X022917Y022760D02*
X050660Y022760D01*
X050567Y022879D02*
X007494Y022879D01*
X007494Y022997D02*
X050565Y022997D01*
X050565Y023116D02*
X007494Y023116D01*
X006921Y023116D02*
X006801Y023116D01*
X006801Y023234D02*
X006921Y023234D01*
X006921Y023353D02*
X006801Y023353D01*
X006801Y023377D02*
X006368Y023377D01*
X006327Y023367D01*
X006291Y023345D01*
X006261Y023316D01*
X006240Y023279D01*
X006229Y023239D01*
X006229Y022805D01*
X006801Y022805D01*
X006801Y023377D01*
X006801Y022997D02*
X006921Y022997D01*
X006921Y022879D02*
X006801Y022879D01*
X006801Y022760D02*
X002921Y022760D01*
X002921Y022805D02*
X003494Y022805D01*
X003494Y023239D01*
X003483Y023279D01*
X003462Y023316D01*
X003432Y023345D01*
X003395Y023367D01*
X003355Y023377D01*
X002921Y023377D01*
X002921Y022805D01*
X002921Y022879D02*
X002801Y022879D01*
X002801Y022997D02*
X002921Y022997D01*
X002921Y023116D02*
X002801Y023116D01*
X002801Y023234D02*
X002921Y023234D01*
X002921Y023353D02*
X002801Y023353D01*
X002801Y022760D02*
X001392Y022760D01*
X001392Y023590D02*
X050565Y023590D01*
X050624Y023708D02*
X001392Y023708D01*
X001392Y023827D02*
X053232Y023827D01*
X053232Y023945D02*
X001392Y023945D01*
X001392Y024064D02*
X053232Y024064D01*
X053232Y024182D02*
X001392Y024182D01*
X001392Y024301D02*
X016995Y024301D01*
X016995Y024274D02*
X017077Y024192D01*
X018020Y024192D01*
X018102Y024274D01*
X018102Y025216D01*
X018073Y025245D01*
X018102Y025274D01*
X018102Y026216D01*
X018073Y026245D01*
X018102Y026274D01*
X018102Y027216D01*
X018020Y027298D01*
X017077Y027298D01*
X016995Y027216D01*
X016995Y026274D01*
X017023Y026245D01*
X016995Y026216D01*
X016995Y025274D01*
X017023Y025245D01*
X016995Y025216D01*
X016995Y024274D01*
X016995Y024419D02*
X001392Y024419D01*
X001392Y024538D02*
X016995Y024538D01*
X016995Y024656D02*
X001392Y024656D01*
X001392Y024775D02*
X016995Y024775D01*
X016995Y024893D02*
X001392Y024893D01*
X001392Y025012D02*
X016995Y025012D01*
X016995Y025130D02*
X001392Y025130D01*
X001392Y025249D02*
X017020Y025249D01*
X016995Y025367D02*
X001392Y025367D01*
X001392Y025486D02*
X016995Y025486D01*
X016995Y025604D02*
X001392Y025604D01*
X001392Y025723D02*
X016995Y025723D01*
X016995Y025841D02*
X001392Y025841D01*
X001392Y025960D02*
X016995Y025960D01*
X016995Y026078D02*
X001392Y026078D01*
X001392Y026197D02*
X002267Y026197D01*
X002249Y026215D02*
X002331Y026133D01*
X003392Y026133D01*
X003474Y026215D01*
X003474Y027275D01*
X003392Y027357D01*
X002331Y027357D01*
X002249Y027275D01*
X002249Y026215D01*
X002249Y026315D02*
X001392Y026315D01*
X001392Y026434D02*
X002249Y026434D01*
X002249Y026552D02*
X001392Y026552D01*
X001392Y026671D02*
X002249Y026671D01*
X002249Y026789D02*
X001392Y026789D01*
X001392Y026908D02*
X002249Y026908D01*
X002249Y027026D02*
X001392Y027026D01*
X001392Y027145D02*
X002249Y027145D01*
X002249Y027263D02*
X001392Y027263D01*
X001392Y027382D02*
X023033Y027382D01*
X023049Y027421D02*
X023002Y027307D01*
X023002Y027183D01*
X023049Y027069D01*
X023136Y026982D01*
X023250Y026935D01*
X023374Y026935D01*
X023488Y026982D01*
X023575Y027069D01*
X023622Y027183D01*
X023622Y027286D01*
X024521Y028185D01*
X024624Y028185D01*
X024738Y028232D01*
X024825Y028319D01*
X024872Y028433D01*
X024872Y028557D01*
X024825Y028671D01*
X024738Y028758D01*
X024624Y028805D01*
X024500Y028805D01*
X024386Y028758D01*
X024299Y028671D01*
X024252Y028557D01*
X024252Y028454D01*
X023353Y027555D01*
X023250Y027555D01*
X023136Y027508D01*
X023049Y027421D01*
X023129Y027500D02*
X001392Y027500D01*
X001392Y027619D02*
X023417Y027619D01*
X023535Y027737D02*
X001392Y027737D01*
X001392Y027856D02*
X023654Y027856D01*
X023772Y027974D02*
X001392Y027974D01*
X001392Y028093D02*
X023891Y028093D01*
X024009Y028211D02*
X001392Y028211D01*
X001392Y028330D02*
X024128Y028330D01*
X024246Y028448D02*
X001392Y028448D01*
X001392Y028567D02*
X022307Y028567D01*
X022316Y028564D02*
X022558Y028564D01*
X022558Y028946D01*
X022177Y028946D01*
X022177Y028703D01*
X022188Y028663D01*
X022209Y028626D01*
X022238Y028596D01*
X022275Y028575D01*
X022316Y028564D01*
X022181Y028685D02*
X021923Y028685D01*
X021923Y028666D02*
X021841Y028584D01*
X021279Y028584D01*
X021197Y028666D01*
X021197Y029229D01*
X021279Y029311D01*
X021340Y029311D01*
X021340Y029406D01*
X021221Y029525D01*
X020721Y029525D01*
X019339Y030907D01*
X019056Y030907D01*
X018974Y030989D01*
X018974Y031501D01*
X019056Y031583D01*
X019568Y031583D01*
X019650Y031501D01*
X019650Y031218D01*
X020903Y029965D01*
X021403Y029965D01*
X021532Y029836D01*
X021780Y029588D01*
X021780Y029311D01*
X021841Y029311D01*
X021923Y029229D01*
X021923Y028666D01*
X021923Y028804D02*
X022177Y028804D01*
X022177Y028922D02*
X021923Y028922D01*
X021923Y029041D02*
X022177Y029041D01*
X022177Y028949D02*
X022558Y028949D01*
X022558Y028946D01*
X022562Y028946D01*
X022562Y028949D01*
X022943Y028949D01*
X022943Y029192D01*
X022933Y029233D01*
X022911Y029269D01*
X022882Y029299D01*
X022845Y029320D01*
X022805Y029331D01*
X022562Y029331D01*
X022562Y028949D01*
X022558Y028949D01*
X022558Y029331D01*
X022316Y029331D01*
X022275Y029320D01*
X022238Y029299D01*
X022209Y029269D01*
X022188Y029233D01*
X022177Y029192D01*
X022177Y028949D01*
X022177Y029159D02*
X021923Y029159D01*
X021875Y029278D02*
X022217Y029278D01*
X022558Y029278D02*
X022562Y029278D01*
X022558Y029159D02*
X022562Y029159D01*
X022558Y029041D02*
X022562Y029041D01*
X022562Y028946D02*
X022943Y028946D01*
X022943Y028703D01*
X022933Y028663D01*
X022911Y028626D01*
X022882Y028596D01*
X022845Y028575D01*
X022805Y028564D01*
X022562Y028564D01*
X022562Y028946D01*
X022558Y028922D02*
X022562Y028922D01*
X022558Y028804D02*
X022562Y028804D01*
X022558Y028685D02*
X022562Y028685D01*
X022558Y028567D02*
X022562Y028567D01*
X022813Y028567D02*
X024256Y028567D01*
X024314Y028685D02*
X022939Y028685D01*
X022943Y028804D02*
X024497Y028804D01*
X024627Y028804D02*
X027815Y028804D01*
X027799Y028819D02*
X027886Y028732D01*
X028000Y028685D01*
X024810Y028685D01*
X024868Y028567D02*
X028222Y028567D01*
X028103Y028685D02*
X029622Y027166D01*
X029733Y027055D01*
X029814Y027055D01*
X029886Y026982D01*
X030000Y026935D01*
X030124Y026935D01*
X030238Y026982D01*
X030325Y027069D01*
X030372Y027183D01*
X030372Y027307D01*
X030325Y027421D01*
X030238Y027508D01*
X030124Y027555D01*
X030000Y027555D01*
X029886Y027508D01*
X029852Y027474D01*
X029771Y027555D01*
X030141Y027555D01*
X030252Y027666D01*
X031252Y028666D01*
X031252Y028824D01*
X031141Y028935D01*
X030622Y029454D01*
X030622Y029557D01*
X030575Y029671D01*
X030488Y029758D01*
X030374Y029805D01*
X030250Y029805D01*
X030136Y029758D01*
X030049Y029671D01*
X030002Y029557D01*
X030002Y029433D01*
X030049Y029319D01*
X030136Y029232D01*
X030250Y029185D01*
X030353Y029185D01*
X030488Y029050D01*
X030386Y029008D01*
X030352Y028974D01*
X028205Y031121D01*
X028222Y031163D01*
X028222Y031327D01*
X028160Y031477D01*
X028044Y031593D01*
X027894Y031655D01*
X027730Y031655D01*
X027580Y031593D01*
X027464Y031477D01*
X027402Y031327D01*
X027402Y031163D01*
X027464Y031013D01*
X027580Y030897D01*
X027730Y030835D01*
X027894Y030835D01*
X027936Y030853D01*
X030122Y028666D01*
X030233Y028555D01*
X030314Y028555D01*
X030386Y028482D01*
X030488Y028440D01*
X030367Y028319D01*
X030325Y028421D01*
X030238Y028508D01*
X030124Y028555D01*
X030021Y028555D01*
X029872Y028704D01*
X029872Y028807D01*
X029825Y028921D01*
X029738Y029008D01*
X029624Y029055D01*
X029500Y029055D01*
X029386Y029008D01*
X029299Y028921D01*
X029252Y028807D01*
X029252Y028743D01*
X029238Y028758D01*
X029124Y028805D01*
X029000Y028805D01*
X028886Y028758D01*
X028799Y028671D01*
X028757Y028569D01*
X028372Y028954D01*
X028372Y029057D01*
X028325Y029171D01*
X028238Y029258D01*
X028124Y029305D01*
X028000Y029305D01*
X027886Y029258D01*
X027799Y029171D01*
X027752Y029057D01*
X027752Y028933D01*
X027799Y028819D01*
X027757Y028922D02*
X022943Y028922D01*
X022943Y029041D02*
X027752Y029041D01*
X027794Y029159D02*
X026911Y029159D01*
X026881Y029147D02*
X027009Y029200D01*
X027107Y029298D01*
X027160Y029426D01*
X027160Y029564D01*
X027107Y029692D01*
X027009Y029790D01*
X026881Y029843D01*
X026743Y029843D01*
X026615Y029790D01*
X026562Y029738D01*
X026527Y029772D01*
X026575Y029819D01*
X026622Y029933D01*
X026622Y030057D01*
X026575Y030171D01*
X026502Y030243D01*
X026502Y030824D01*
X026205Y031121D01*
X026222Y031163D01*
X026222Y031327D01*
X026160Y031477D01*
X026044Y031593D01*
X025894Y031655D01*
X025730Y031655D01*
X025580Y031593D01*
X025464Y031477D01*
X025402Y031327D01*
X025402Y031163D01*
X025464Y031013D01*
X025580Y030897D01*
X025730Y030835D01*
X025894Y030835D01*
X025936Y030853D01*
X026122Y030666D01*
X026122Y030243D01*
X026049Y030171D01*
X026002Y030057D01*
X026002Y029933D01*
X026049Y029819D01*
X026097Y029772D01*
X026076Y029752D01*
X026047Y029781D01*
X025986Y029821D01*
X025919Y029849D01*
X025848Y029863D01*
X025812Y029863D01*
X025776Y029863D01*
X025705Y029849D01*
X025638Y029821D01*
X025577Y029781D01*
X025526Y029730D01*
X025486Y029669D01*
X025458Y029602D01*
X025444Y029531D01*
X025444Y029495D01*
X025444Y029459D01*
X025458Y029388D01*
X025486Y029321D01*
X025526Y029260D01*
X025577Y029209D01*
X025638Y029169D01*
X025705Y029141D01*
X025776Y029127D01*
X025812Y029127D01*
X025848Y029127D01*
X025919Y029141D01*
X025986Y029169D01*
X026047Y029209D01*
X026076Y029238D01*
X026115Y029200D01*
X026243Y029147D01*
X026381Y029147D01*
X026509Y029200D01*
X026562Y029252D01*
X026615Y029200D01*
X026743Y029147D01*
X026881Y029147D01*
X026713Y029159D02*
X026411Y029159D01*
X026213Y029159D02*
X025963Y029159D01*
X025812Y029159D02*
X025812Y029159D01*
X025812Y029127D02*
X025812Y029495D01*
X025812Y029495D01*
X025444Y029495D01*
X025812Y029495D01*
X025812Y029863D01*
X025812Y029495D01*
X025812Y029495D01*
X025812Y029495D01*
X025812Y029127D01*
X025812Y029278D02*
X025812Y029278D01*
X025812Y029396D02*
X025812Y029396D01*
X025812Y029515D02*
X025812Y029515D01*
X025812Y029633D02*
X025812Y029633D01*
X025812Y029752D02*
X025812Y029752D01*
X026028Y029870D02*
X021498Y029870D01*
X021617Y029752D02*
X025548Y029752D01*
X025471Y029633D02*
X021735Y029633D01*
X021780Y029515D02*
X025444Y029515D01*
X025456Y029396D02*
X021780Y029396D01*
X021340Y029396D02*
X001392Y029396D01*
X001392Y029278D02*
X019245Y029278D01*
X019279Y029311D02*
X019197Y029229D01*
X019197Y028666D01*
X019279Y028584D01*
X019841Y028584D01*
X019923Y028666D01*
X019923Y029229D01*
X019841Y029311D01*
X019279Y029311D01*
X019197Y029159D02*
X001392Y029159D01*
X001392Y029041D02*
X019197Y029041D01*
X019197Y028922D02*
X001392Y028922D01*
X001392Y028804D02*
X019197Y028804D01*
X019197Y028685D02*
X001392Y028685D01*
X001392Y029515D02*
X021231Y029515D01*
X021245Y029278D02*
X020875Y029278D01*
X020841Y029311D02*
X020279Y029311D01*
X020197Y029229D01*
X020197Y028666D01*
X020279Y028584D01*
X020841Y028584D01*
X020923Y028666D01*
X020923Y029229D01*
X020841Y029311D01*
X020923Y029159D02*
X021197Y029159D01*
X021197Y029041D02*
X020923Y029041D01*
X020923Y028922D02*
X021197Y028922D01*
X021197Y028804D02*
X020923Y028804D01*
X020923Y028685D02*
X021197Y028685D01*
X020197Y028685D02*
X019923Y028685D01*
X019923Y028804D02*
X020197Y028804D01*
X020197Y028922D02*
X019923Y028922D01*
X019923Y029041D02*
X020197Y029041D01*
X020197Y029159D02*
X019923Y029159D01*
X019875Y029278D02*
X020245Y029278D01*
X020613Y029633D02*
X001392Y029633D01*
X001392Y029752D02*
X020494Y029752D01*
X020376Y029870D02*
X001392Y029870D01*
X001392Y029989D02*
X020257Y029989D01*
X020139Y030107D02*
X001392Y030107D01*
X001392Y030226D02*
X020020Y030226D01*
X019902Y030344D02*
X001392Y030344D01*
X001392Y030463D02*
X008937Y030463D01*
X008934Y030465D02*
X009016Y030383D01*
X009608Y030383D01*
X009690Y030465D01*
X009690Y031057D01*
X009608Y031139D01*
X009016Y031139D01*
X008934Y031057D01*
X008934Y030465D01*
X008934Y030581D02*
X001392Y030581D01*
X001392Y030700D02*
X008934Y030700D01*
X008934Y030818D02*
X001392Y030818D01*
X001392Y030937D02*
X008934Y030937D01*
X008934Y031055D02*
X001392Y031055D01*
X001392Y031174D02*
X018974Y031174D01*
X018974Y031292D02*
X001392Y031292D01*
X001392Y031411D02*
X018974Y031411D01*
X019002Y031529D02*
X015127Y031529D01*
X015125Y031527D02*
X015280Y031682D01*
X015365Y031885D01*
X015365Y032105D01*
X015280Y032308D01*
X015125Y032463D01*
X014922Y032547D01*
X014702Y032547D01*
X014499Y032463D01*
X014344Y032308D01*
X014322Y032255D01*
X014302Y032295D01*
X014249Y032368D01*
X014185Y032432D01*
X014112Y032485D01*
X014032Y032526D01*
X013946Y032553D01*
X013872Y032565D01*
X013872Y032055D01*
X013752Y032055D01*
X013752Y032565D01*
X013678Y032553D01*
X013592Y032526D01*
X013512Y032485D01*
X013439Y032432D01*
X013375Y032368D01*
X013365Y032353D01*
X013365Y032465D01*
X013282Y032547D01*
X012342Y032547D01*
X012260Y032465D01*
X012260Y031525D01*
X012342Y031443D01*
X013282Y031443D01*
X013365Y031525D01*
X013365Y031637D01*
X013375Y031622D01*
X013439Y031558D01*
X013512Y031505D01*
X013592Y031464D01*
X013678Y031437D01*
X013752Y031425D01*
X013752Y031935D01*
X013872Y031935D01*
X013872Y031425D01*
X013946Y031437D01*
X014032Y031464D01*
X014112Y031505D01*
X014185Y031558D01*
X014249Y031622D01*
X014302Y031695D01*
X014322Y031735D01*
X014344Y031682D01*
X014499Y031527D01*
X014702Y031443D01*
X014922Y031443D01*
X015125Y031527D01*
X015246Y031648D02*
X023659Y031648D01*
X023647Y031643D02*
X023587Y031613D01*
X023532Y031573D01*
X023484Y031525D01*
X023444Y031470D01*
X023414Y031410D01*
X023393Y031346D01*
X023382Y031279D01*
X023382Y031270D01*
X023787Y031270D01*
X023787Y031220D01*
X023382Y031220D01*
X023382Y031211D01*
X023393Y031144D01*
X023414Y031080D01*
X023444Y031020D01*
X023484Y030965D01*
X023532Y030917D01*
X023587Y030877D01*
X023647Y030847D01*
X023711Y030826D01*
X023778Y030815D01*
X023787Y030815D01*
X023787Y031220D01*
X023837Y031220D01*
X023837Y030815D01*
X023846Y030815D01*
X023913Y030826D01*
X023977Y030847D01*
X024037Y030877D01*
X024092Y030917D01*
X024140Y030965D01*
X024180Y031020D01*
X024211Y031080D01*
X024231Y031144D01*
X024242Y031211D01*
X024242Y031220D01*
X023837Y031220D01*
X023837Y031270D01*
X023787Y031270D01*
X023787Y031675D01*
X023778Y031675D01*
X023711Y031664D01*
X023647Y031643D01*
X023787Y031648D02*
X023837Y031648D01*
X023837Y031675D02*
X023846Y031675D01*
X023913Y031664D01*
X023977Y031643D01*
X024037Y031613D01*
X024092Y031573D01*
X024140Y031525D01*
X024180Y031470D01*
X024211Y031410D01*
X024231Y031346D01*
X024242Y031279D01*
X024242Y031270D01*
X023837Y031270D01*
X023837Y031675D01*
X023965Y031648D02*
X024713Y031648D01*
X024730Y031655D02*
X024580Y031593D01*
X024464Y031477D01*
X024402Y031327D01*
X024402Y031163D01*
X024420Y031121D01*
X024103Y030805D01*
X024000Y030805D01*
X023886Y030758D01*
X023799Y030671D01*
X023752Y030557D01*
X023752Y030433D01*
X023799Y030319D01*
X023886Y030232D01*
X024000Y030185D01*
X024124Y030185D01*
X024238Y030232D01*
X024325Y030319D01*
X024372Y030433D01*
X024372Y030536D01*
X024688Y030853D01*
X024730Y030835D01*
X024894Y030835D01*
X025044Y030897D01*
X025160Y031013D01*
X025222Y031163D01*
X025222Y031327D01*
X025160Y031477D01*
X025044Y031593D01*
X024894Y031655D01*
X024730Y031655D01*
X024912Y031648D02*
X025713Y031648D01*
X025912Y031648D02*
X026713Y031648D01*
X026730Y031655D02*
X026580Y031593D01*
X026464Y031477D01*
X026402Y031327D01*
X026402Y031163D01*
X026464Y031013D01*
X026580Y030897D01*
X026730Y030835D01*
X026894Y030835D01*
X027044Y030897D01*
X027160Y031013D01*
X027222Y031163D01*
X027222Y031327D01*
X027160Y031477D01*
X027044Y031593D01*
X026894Y031655D01*
X026730Y031655D01*
X026912Y031648D02*
X027713Y031648D01*
X027912Y031648D02*
X028713Y031648D01*
X028730Y031655D02*
X028580Y031593D01*
X028464Y031477D01*
X028402Y031327D01*
X028402Y031163D01*
X028464Y031013D01*
X028580Y030897D01*
X028730Y030835D01*
X028894Y030835D01*
X029044Y030897D01*
X029160Y031013D01*
X029222Y031163D01*
X029222Y031327D01*
X029160Y031477D01*
X029044Y031593D01*
X028894Y031655D01*
X028730Y031655D01*
X028912Y031648D02*
X029713Y031648D01*
X029730Y031655D02*
X029580Y031593D01*
X029464Y031477D01*
X029402Y031327D01*
X029402Y031163D01*
X029464Y031013D01*
X029580Y030897D01*
X029730Y030835D01*
X029894Y030835D01*
X030044Y030897D01*
X030160Y031013D01*
X030222Y031163D01*
X030222Y031327D01*
X030160Y031477D01*
X030044Y031593D01*
X029894Y031655D01*
X029730Y031655D01*
X029912Y031648D02*
X030713Y031648D01*
X030730Y031655D02*
X030580Y031593D01*
X030464Y031477D01*
X030402Y031327D01*
X030402Y031163D01*
X030464Y031013D01*
X030580Y030897D01*
X030730Y030835D01*
X030894Y030835D01*
X031044Y030897D01*
X031160Y031013D01*
X031222Y031163D01*
X031222Y031327D01*
X031160Y031477D01*
X031044Y031593D01*
X030894Y031655D01*
X030730Y031655D01*
X030912Y031648D02*
X031713Y031648D01*
X031730Y031655D02*
X031580Y031593D01*
X031464Y031477D01*
X031402Y031327D01*
X031402Y031163D01*
X031464Y031013D01*
X031580Y030897D01*
X031730Y030835D01*
X031894Y030835D01*
X032044Y030897D01*
X032160Y031013D01*
X032222Y031163D01*
X032222Y031327D01*
X032160Y031477D01*
X032044Y031593D01*
X031894Y031655D01*
X031730Y031655D01*
X031912Y031648D02*
X032713Y031648D01*
X032730Y031655D02*
X032580Y031593D01*
X032464Y031477D01*
X032402Y031327D01*
X032402Y031163D01*
X032464Y031013D01*
X032580Y030897D01*
X032730Y030835D01*
X032894Y030835D01*
X033044Y030897D01*
X033160Y031013D01*
X033222Y031163D01*
X033222Y031327D01*
X033160Y031477D01*
X033044Y031593D01*
X032894Y031655D01*
X032730Y031655D01*
X032912Y031648D02*
X033713Y031648D01*
X033730Y031655D02*
X033580Y031593D01*
X033464Y031477D01*
X033402Y031327D01*
X033402Y031163D01*
X033464Y031013D01*
X033580Y030897D01*
X033730Y030835D01*
X033894Y030835D01*
X034044Y030897D01*
X034160Y031013D01*
X034222Y031163D01*
X034222Y031327D01*
X034160Y031477D01*
X034044Y031593D01*
X033894Y031655D01*
X033730Y031655D01*
X033912Y031648D02*
X034713Y031648D01*
X034730Y031655D02*
X034580Y031593D01*
X034464Y031477D01*
X034402Y031327D01*
X034402Y031163D01*
X034464Y031013D01*
X034580Y030897D01*
X034730Y030835D01*
X034894Y030835D01*
X035044Y030897D01*
X035160Y031013D01*
X035222Y031163D01*
X035222Y031327D01*
X035160Y031477D01*
X035044Y031593D01*
X034894Y031655D01*
X034730Y031655D01*
X034750Y031685D02*
X034874Y031685D01*
X034988Y031732D01*
X035075Y031819D01*
X035122Y031933D01*
X035122Y032057D01*
X035075Y032171D01*
X034988Y032258D01*
X034874Y032305D01*
X034750Y032305D01*
X034636Y032258D01*
X034564Y032185D01*
X031141Y032185D01*
X031122Y032204D01*
X031122Y032307D01*
X031075Y032421D01*
X030988Y032508D01*
X030874Y032555D01*
X030750Y032555D01*
X030636Y032508D01*
X030549Y032421D01*
X030502Y032307D01*
X030502Y032183D01*
X030549Y032069D01*
X030636Y031982D01*
X030750Y031935D01*
X030853Y031935D01*
X030872Y031916D01*
X030983Y031805D01*
X034564Y031805D01*
X034636Y031732D01*
X034750Y031685D01*
X034912Y031648D02*
X043690Y031648D01*
X043671Y031673D02*
X043714Y031615D01*
X043764Y031564D01*
X043823Y031522D01*
X043887Y031489D01*
X043955Y031467D01*
X044024Y031456D01*
X044024Y031874D01*
X044100Y031874D01*
X044100Y031456D01*
X044169Y031467D01*
X044237Y031489D01*
X044301Y031522D01*
X044360Y031564D01*
X044410Y031615D01*
X044453Y031673D01*
X044485Y031737D01*
X044508Y031805D01*
X044518Y031874D01*
X044100Y031874D01*
X044100Y031951D01*
X044024Y031951D01*
X044024Y032369D01*
X043955Y032358D01*
X043887Y032336D01*
X043823Y032303D01*
X043764Y032261D01*
X043714Y032210D01*
X043671Y032152D01*
X043639Y032088D01*
X043616Y032019D01*
X043606Y031951D01*
X044024Y031951D01*
X044024Y031874D01*
X043606Y031874D01*
X043616Y031805D01*
X043639Y031737D01*
X043671Y031673D01*
X043629Y031766D02*
X035021Y031766D01*
X035102Y031885D02*
X044024Y031885D01*
X044100Y031885D02*
X044625Y031885D01*
X044625Y031825D02*
X044692Y031665D01*
X044815Y031542D01*
X044975Y031475D01*
X045149Y031475D01*
X045309Y031542D01*
X045432Y031665D01*
X045499Y031825D01*
X045499Y031999D01*
X045432Y032160D01*
X045309Y032283D01*
X045149Y032349D01*
X044975Y032349D01*
X044815Y032283D01*
X044692Y032160D01*
X044625Y031999D01*
X044625Y031825D01*
X044650Y031766D02*
X044495Y031766D01*
X044434Y031648D02*
X044709Y031648D01*
X044846Y031529D02*
X044312Y031529D01*
X044100Y031529D02*
X044024Y031529D01*
X044024Y031648D02*
X044100Y031648D01*
X044100Y031766D02*
X044024Y031766D01*
X044100Y031951D02*
X044518Y031951D01*
X044508Y032019D01*
X044485Y032088D01*
X044453Y032152D01*
X044410Y032210D01*
X044360Y032261D01*
X044301Y032303D01*
X044237Y032336D01*
X044169Y032358D01*
X044100Y032369D01*
X044100Y031951D01*
X044100Y032003D02*
X044024Y032003D01*
X044024Y032122D02*
X044100Y032122D01*
X044100Y032240D02*
X044024Y032240D01*
X044024Y032359D02*
X044100Y032359D01*
X044165Y032359D02*
X053232Y032359D01*
X053232Y032477D02*
X047653Y032477D01*
X047649Y032475D02*
X047809Y032542D01*
X047932Y032665D01*
X047999Y032825D01*
X047999Y032999D01*
X047932Y033160D01*
X047809Y033283D01*
X047649Y033349D01*
X047475Y033349D01*
X047315Y033283D01*
X047192Y033160D01*
X047125Y032999D01*
X047125Y032825D01*
X047192Y032665D01*
X047315Y032542D01*
X047475Y032475D01*
X047649Y032475D01*
X047471Y032477D02*
X046653Y032477D01*
X046649Y032475D02*
X046809Y032542D01*
X046932Y032665D01*
X046999Y032825D01*
X046999Y032999D01*
X046932Y033160D01*
X046809Y033283D01*
X046649Y033349D01*
X046475Y033349D01*
X046315Y033283D01*
X046192Y033160D01*
X046125Y032999D01*
X046125Y032825D01*
X046192Y032665D01*
X046315Y032542D01*
X046475Y032475D01*
X046649Y032475D01*
X046471Y032477D02*
X045653Y032477D01*
X045649Y032475D02*
X045809Y032542D01*
X045932Y032665D01*
X045999Y032825D01*
X045999Y032999D01*
X045932Y033160D01*
X045809Y033283D01*
X045649Y033349D01*
X045475Y033349D01*
X045315Y033283D01*
X045192Y033160D01*
X045125Y032999D01*
X045125Y032825D01*
X045192Y032665D01*
X045315Y032542D01*
X045475Y032475D01*
X045649Y032475D01*
X045471Y032477D02*
X044701Y032477D01*
X044669Y032467D02*
X044737Y032489D01*
X044801Y032522D01*
X044860Y032564D01*
X044910Y032615D01*
X044953Y032673D01*
X044985Y032737D01*
X045008Y032805D01*
X045018Y032874D01*
X044600Y032874D01*
X044600Y032456D01*
X044669Y032467D01*
X044600Y032477D02*
X044524Y032477D01*
X044524Y032456D02*
X044524Y032874D01*
X044600Y032874D01*
X044600Y032951D01*
X044524Y032951D01*
X044524Y033369D01*
X044455Y033358D01*
X044387Y033336D01*
X044323Y033303D01*
X044264Y033261D01*
X044214Y033210D01*
X044171Y033152D01*
X044139Y033088D01*
X044116Y033019D01*
X044106Y032951D01*
X036162Y032951D01*
X036124Y032935D02*
X036238Y032982D01*
X036325Y033069D01*
X036372Y033183D01*
X036372Y033286D01*
X040641Y037555D01*
X040814Y037555D01*
X040886Y037482D01*
X041000Y037435D01*
X041124Y037435D01*
X041238Y037482D01*
X041325Y037569D01*
X041372Y037683D01*
X041372Y037807D01*
X041467Y037768D01*
X041657Y037768D01*
X041832Y037840D01*
X041967Y037975D01*
X042040Y038150D01*
X042040Y038340D01*
X041967Y038515D01*
X041832Y038650D01*
X041657Y038722D01*
X041467Y038722D01*
X041292Y038650D01*
X041157Y038515D01*
X041085Y038340D01*
X041085Y038150D01*
X041124Y038055D01*
X041124Y038055D01*
X041000Y038055D01*
X041040Y038150D01*
X041040Y038340D01*
X040967Y038515D01*
X040832Y038650D01*
X040657Y038722D01*
X040467Y038722D01*
X040292Y038650D01*
X040157Y038515D01*
X040085Y038340D01*
X040085Y038150D01*
X040124Y038055D01*
X040124Y038055D01*
X040000Y038055D01*
X040040Y038150D01*
X040040Y038340D01*
X039967Y038515D01*
X039832Y038650D01*
X039657Y038722D01*
X039467Y038722D01*
X039292Y038650D01*
X039157Y038515D01*
X039085Y038340D01*
X039085Y038150D01*
X039157Y037975D01*
X039292Y037840D01*
X039467Y037768D01*
X039657Y037768D01*
X039752Y037807D01*
X039752Y037807D01*
X039752Y037704D01*
X038853Y036805D01*
X038750Y036805D01*
X038636Y036758D01*
X038549Y036671D01*
X038502Y036557D01*
X038502Y036433D01*
X038549Y036319D01*
X038636Y036232D01*
X038738Y036190D01*
X036103Y033555D01*
X036000Y033555D01*
X035886Y033508D01*
X035799Y033421D01*
X035752Y033307D01*
X035752Y033183D01*
X035799Y033069D01*
X035886Y032982D01*
X036000Y032935D01*
X036124Y032935D01*
X035962Y032951D02*
X023622Y032951D01*
X023622Y032933D02*
X023622Y033036D01*
X023771Y033185D01*
X023874Y033185D01*
X023988Y033232D01*
X024075Y033319D01*
X024122Y033433D01*
X024122Y033557D01*
X024075Y033671D01*
X023988Y033758D01*
X023874Y033805D01*
X023750Y033805D01*
X023636Y033758D01*
X023549Y033671D01*
X023502Y033557D01*
X023502Y033454D01*
X023353Y033305D01*
X023250Y033305D01*
X023136Y033258D01*
X023049Y033171D01*
X023002Y033057D01*
X023002Y032933D01*
X023049Y032819D01*
X023136Y032732D01*
X023250Y032685D01*
X023374Y032685D01*
X023488Y032732D01*
X023575Y032819D01*
X023622Y032933D01*
X023580Y032833D02*
X044112Y032833D01*
X044116Y032805D02*
X044139Y032737D01*
X044171Y032673D01*
X044214Y032615D01*
X044264Y032564D01*
X044323Y032522D01*
X044387Y032489D01*
X044455Y032467D01*
X044524Y032456D01*
X044423Y032477D02*
X031018Y032477D01*
X031101Y032359D02*
X043959Y032359D01*
X043744Y032240D02*
X035005Y032240D01*
X035095Y032122D02*
X043656Y032122D01*
X043614Y032003D02*
X035122Y032003D01*
X034619Y032240D02*
X031122Y032240D01*
X030904Y031885D02*
X018650Y031885D01*
X018650Y032003D02*
X030616Y032003D01*
X030528Y032122D02*
X018650Y032122D01*
X018650Y032240D02*
X030502Y032240D01*
X030524Y032359D02*
X015230Y032359D01*
X015309Y032240D02*
X015974Y032240D01*
X015974Y032251D02*
X015974Y031739D01*
X016056Y031657D01*
X016568Y031657D01*
X016650Y031739D01*
X016650Y031775D01*
X017974Y031775D01*
X017974Y031739D01*
X018056Y031657D01*
X018568Y031657D01*
X018650Y031739D01*
X018650Y032251D01*
X018568Y032333D01*
X018056Y032333D01*
X017974Y032251D01*
X017974Y032215D01*
X016650Y032215D01*
X016650Y032251D01*
X016568Y032333D01*
X016056Y032333D01*
X015974Y032251D01*
X015974Y032122D02*
X015358Y032122D01*
X015365Y032003D02*
X015974Y032003D01*
X015974Y031885D02*
X015364Y031885D01*
X015315Y031766D02*
X015974Y031766D01*
X016650Y031766D02*
X017974Y031766D01*
X017974Y032240D02*
X016650Y032240D01*
X018650Y031766D02*
X034603Y031766D01*
X034516Y031529D02*
X034108Y031529D01*
X034187Y031411D02*
X034437Y031411D01*
X034402Y031292D02*
X034222Y031292D01*
X034222Y031174D02*
X034402Y031174D01*
X034447Y031055D02*
X034177Y031055D01*
X034083Y030937D02*
X034541Y030937D01*
X035083Y030937D02*
X053232Y030937D01*
X053232Y031055D02*
X035177Y031055D01*
X035222Y031174D02*
X049665Y031174D01*
X049662Y031177D02*
X049744Y031095D01*
X050380Y031095D01*
X050462Y031177D01*
X050462Y031813D01*
X050380Y031895D01*
X049744Y031895D01*
X049662Y031813D01*
X049662Y031177D01*
X049662Y031292D02*
X035222Y031292D01*
X035187Y031411D02*
X049662Y031411D01*
X049662Y031529D02*
X047278Y031529D01*
X047309Y031542D02*
X047432Y031665D01*
X047499Y031825D01*
X047499Y031999D01*
X047432Y032160D01*
X047309Y032283D01*
X047149Y032349D01*
X046975Y032349D01*
X046815Y032283D01*
X046692Y032160D01*
X046625Y031999D01*
X046625Y031825D01*
X046692Y031665D01*
X046815Y031542D01*
X046975Y031475D01*
X047149Y031475D01*
X047309Y031542D01*
X047415Y031648D02*
X049662Y031648D01*
X049662Y031766D02*
X047474Y031766D01*
X047499Y031885D02*
X049734Y031885D01*
X050390Y031885D02*
X050734Y031885D01*
X050744Y031895D02*
X050662Y031813D01*
X050662Y031177D01*
X050744Y031095D01*
X051380Y031095D01*
X051462Y031177D01*
X051462Y031813D01*
X051380Y031895D01*
X050744Y031895D01*
X050662Y031766D02*
X050462Y031766D01*
X050462Y031648D02*
X050662Y031648D01*
X050662Y031529D02*
X050462Y031529D01*
X050462Y031411D02*
X050662Y031411D01*
X050662Y031292D02*
X050462Y031292D01*
X050459Y031174D02*
X050665Y031174D01*
X051459Y031174D02*
X053232Y031174D01*
X053232Y031292D02*
X051462Y031292D01*
X051462Y031411D02*
X053232Y031411D01*
X053232Y031529D02*
X051462Y031529D01*
X051462Y031648D02*
X053232Y031648D01*
X053232Y031766D02*
X051462Y031766D01*
X051390Y031885D02*
X053232Y031885D01*
X053232Y032003D02*
X047497Y032003D01*
X047448Y032122D02*
X053232Y032122D01*
X053232Y032240D02*
X047352Y032240D01*
X047261Y032596D02*
X046863Y032596D01*
X046953Y032714D02*
X047171Y032714D01*
X047125Y032833D02*
X046999Y032833D01*
X046999Y032951D02*
X047125Y032951D01*
X047154Y033070D02*
X046970Y033070D01*
X046904Y033188D02*
X047220Y033188D01*
X047372Y033307D02*
X046752Y033307D01*
X046372Y033307D02*
X045752Y033307D01*
X045904Y033188D02*
X046220Y033188D01*
X046154Y033070D02*
X045970Y033070D01*
X045999Y032951D02*
X046125Y032951D01*
X046125Y032833D02*
X045999Y032833D01*
X045953Y032714D02*
X046171Y032714D01*
X046261Y032596D02*
X045863Y032596D01*
X045975Y032349D02*
X045815Y032283D01*
X045692Y032160D01*
X045625Y031999D01*
X045625Y031825D01*
X045692Y031665D01*
X045815Y031542D01*
X045975Y031475D01*
X046149Y031475D01*
X046309Y031542D01*
X046432Y031665D01*
X046499Y031825D01*
X046499Y031999D01*
X046432Y032160D01*
X046309Y032283D01*
X046149Y032349D01*
X045975Y032349D01*
X045772Y032240D02*
X045352Y032240D01*
X045448Y032122D02*
X045676Y032122D01*
X045627Y032003D02*
X045497Y032003D01*
X045499Y031885D02*
X045625Y031885D01*
X045650Y031766D02*
X045474Y031766D01*
X045415Y031648D02*
X045709Y031648D01*
X045846Y031529D02*
X045278Y031529D01*
X046278Y031529D02*
X046846Y031529D01*
X046709Y031648D02*
X046415Y031648D01*
X046474Y031766D02*
X046650Y031766D01*
X046625Y031885D02*
X046499Y031885D01*
X046497Y032003D02*
X046627Y032003D01*
X046676Y032122D02*
X046448Y032122D01*
X046352Y032240D02*
X046772Y032240D01*
X047863Y032596D02*
X053232Y032596D01*
X053232Y032714D02*
X047953Y032714D01*
X047999Y032833D02*
X050586Y032833D01*
X050549Y032869D02*
X050636Y032782D01*
X050750Y032735D01*
X050874Y032735D01*
X050988Y032782D01*
X051075Y032869D01*
X051122Y032983D01*
X051122Y033086D01*
X051571Y033535D01*
X051674Y033535D01*
X051788Y033582D01*
X051875Y033669D01*
X051922Y033783D01*
X051922Y033907D01*
X051875Y034021D01*
X051788Y034108D01*
X051674Y034155D01*
X051550Y034155D01*
X051436Y034108D01*
X051349Y034021D01*
X051302Y033907D01*
X051302Y033804D01*
X050853Y033355D01*
X050750Y033355D01*
X050636Y033308D01*
X050549Y033221D01*
X050502Y033107D01*
X050502Y032983D01*
X050549Y032869D01*
X050515Y032951D02*
X047999Y032951D01*
X047970Y033070D02*
X050502Y033070D01*
X050536Y033188D02*
X047904Y033188D01*
X047752Y033307D02*
X050635Y033307D01*
X050923Y033425D02*
X036511Y033425D01*
X036629Y033544D02*
X051042Y033544D01*
X051160Y033662D02*
X036748Y033662D01*
X036866Y033781D02*
X051279Y033781D01*
X051302Y033899D02*
X036985Y033899D01*
X037103Y034018D02*
X051348Y034018D01*
X051505Y034136D02*
X037222Y034136D01*
X037340Y034255D02*
X053232Y034255D01*
X053232Y034373D02*
X048395Y034373D01*
X048483Y034397D02*
X048205Y034322D01*
X047919Y034322D01*
X047641Y034397D01*
X047393Y034540D01*
X047190Y034743D01*
X047046Y034992D01*
X046972Y035269D01*
X046972Y035556D01*
X047046Y035833D01*
X047190Y036082D01*
X047393Y036284D01*
X047641Y036428D01*
X047919Y036502D01*
X048205Y036502D01*
X048483Y036428D01*
X048731Y036284D01*
X048934Y036082D01*
X049078Y035833D01*
X049152Y035556D01*
X049152Y035269D01*
X049078Y034992D01*
X048934Y034743D01*
X048731Y034540D01*
X048483Y034397D01*
X048647Y034492D02*
X053232Y034492D01*
X053232Y034610D02*
X048801Y034610D01*
X048920Y034729D02*
X053232Y034729D01*
X053232Y034847D02*
X048994Y034847D01*
X049063Y034966D02*
X053232Y034966D01*
X053232Y035084D02*
X049102Y035084D01*
X049134Y035203D02*
X049789Y035203D01*
X049835Y035156D02*
X049982Y035095D01*
X050142Y035095D01*
X050289Y035156D01*
X050401Y035268D01*
X050462Y035415D01*
X050462Y035575D01*
X050401Y035722D01*
X050289Y035834D01*
X050142Y035895D01*
X049982Y035895D01*
X049835Y035834D01*
X049723Y035722D01*
X049662Y035575D01*
X049662Y035415D01*
X049723Y035268D01*
X049835Y035156D01*
X049701Y035321D02*
X049152Y035321D01*
X049152Y035440D02*
X049662Y035440D01*
X049662Y035558D02*
X049151Y035558D01*
X049120Y035677D02*
X049704Y035677D01*
X049796Y035795D02*
X049088Y035795D01*
X049031Y035914D02*
X053232Y035914D01*
X053232Y036032D02*
X048963Y036032D01*
X048865Y036151D02*
X053232Y036151D01*
X053232Y036269D02*
X048747Y036269D01*
X048553Y036388D02*
X053232Y036388D01*
X053232Y036506D02*
X039592Y036506D01*
X039710Y036625D02*
X053232Y036625D01*
X053232Y036743D02*
X039829Y036743D01*
X039947Y036862D02*
X053232Y036862D01*
X053232Y036980D02*
X040066Y036980D01*
X040184Y037099D02*
X053232Y037099D01*
X053232Y037217D02*
X040303Y037217D01*
X040421Y037336D02*
X053232Y037336D01*
X053232Y037454D02*
X041170Y037454D01*
X041326Y037573D02*
X053232Y037573D01*
X053232Y037691D02*
X041372Y037691D01*
X041372Y037807D02*
X041372Y037807D01*
X041759Y037810D02*
X053232Y037810D01*
X053232Y037928D02*
X041920Y037928D01*
X041997Y038047D02*
X053232Y038047D01*
X053232Y038165D02*
X042040Y038165D01*
X042040Y038284D02*
X053232Y038284D01*
X053232Y038402D02*
X042014Y038402D01*
X041962Y038521D02*
X053232Y038521D01*
X053232Y038639D02*
X041843Y038639D01*
X041281Y038639D02*
X040843Y038639D01*
X040962Y038521D02*
X041162Y038521D01*
X041110Y038402D02*
X041014Y038402D01*
X041040Y038284D02*
X041085Y038284D01*
X041085Y038165D02*
X041040Y038165D01*
X041000Y038055D02*
X041000Y038055D01*
X040281Y038639D02*
X039843Y038639D01*
X039962Y038521D02*
X040162Y038521D01*
X040110Y038402D02*
X040014Y038402D01*
X040040Y038284D02*
X040085Y038284D01*
X040085Y038165D02*
X040040Y038165D01*
X040000Y038055D02*
X040000Y038055D01*
X039739Y037691D02*
X036502Y037691D01*
X036502Y037807D02*
X036582Y037840D01*
X036717Y037975D01*
X036790Y038150D01*
X036790Y038340D01*
X036717Y038515D01*
X036582Y038650D01*
X036407Y038722D01*
X036217Y038722D01*
X036122Y038683D01*
X036122Y038707D01*
X036075Y038821D01*
X035988Y038908D01*
X035874Y038955D01*
X035771Y038955D01*
X035602Y039124D01*
X035491Y039235D01*
X034060Y039235D01*
X033988Y039308D01*
X033874Y039355D01*
X033750Y039355D01*
X033636Y039308D01*
X033549Y039221D01*
X033502Y039107D01*
X033502Y038983D01*
X033549Y038869D01*
X033636Y038782D01*
X033750Y038735D01*
X033874Y038735D01*
X033988Y038782D01*
X034060Y038855D01*
X035333Y038855D01*
X035502Y038686D01*
X035502Y038683D01*
X035407Y038722D01*
X035217Y038722D01*
X035042Y038650D01*
X034907Y038515D01*
X034835Y038340D01*
X034835Y038150D01*
X034907Y037975D01*
X035042Y037840D01*
X035122Y037807D01*
X035122Y036155D01*
X034484Y036155D01*
X034402Y036073D01*
X034402Y035417D01*
X034484Y035335D01*
X034883Y035335D01*
X034603Y035055D01*
X034500Y035055D01*
X034386Y035008D01*
X034312Y034933D01*
X034238Y035008D01*
X034124Y035055D01*
X034000Y035055D01*
X033886Y035008D01*
X033799Y034921D01*
X033752Y034807D01*
X033752Y034683D01*
X033799Y034569D01*
X033886Y034482D01*
X034000Y034435D01*
X034103Y034435D01*
X034372Y034166D01*
X034483Y034055D01*
X034641Y034055D01*
X036391Y035805D01*
X036502Y035916D01*
X036502Y037807D01*
X036509Y037810D02*
X037096Y037810D01*
X037096Y037809D02*
X037126Y037779D01*
X037163Y037758D01*
X037203Y037748D01*
X037510Y037748D01*
X037510Y038192D01*
X037615Y038192D01*
X037615Y037747D01*
X037921Y037748D01*
X037961Y037758D01*
X037998Y037779D01*
X038028Y037809D01*
X038049Y037846D01*
X038060Y037886D01*
X038060Y038192D01*
X037615Y038192D01*
X037615Y038298D01*
X037510Y038298D01*
X037510Y038742D01*
X037203Y038742D01*
X037163Y038732D01*
X037126Y038711D01*
X037096Y038681D01*
X037075Y038644D01*
X037065Y038604D01*
X037065Y038298D01*
X037509Y038298D01*
X037509Y038192D01*
X037065Y038192D01*
X037065Y037886D01*
X037075Y037846D01*
X037096Y037809D01*
X037065Y037928D02*
X036670Y037928D01*
X036747Y038047D02*
X037065Y038047D01*
X037065Y038165D02*
X036790Y038165D01*
X036790Y038284D02*
X037509Y038284D01*
X037615Y038284D02*
X038085Y038284D01*
X038060Y038298D02*
X038060Y038604D01*
X038049Y038644D01*
X038028Y038681D01*
X037998Y038711D01*
X037961Y038732D01*
X037921Y038742D01*
X037615Y038742D01*
X037615Y038298D01*
X038060Y038298D01*
X038085Y038340D02*
X038085Y038150D01*
X038157Y037975D01*
X038292Y037840D01*
X038467Y037768D01*
X038657Y037768D01*
X038832Y037840D01*
X038967Y037975D01*
X039040Y038150D01*
X039040Y038340D01*
X038967Y038515D01*
X038832Y038650D01*
X038657Y038722D01*
X038467Y038722D01*
X038292Y038650D01*
X038157Y038515D01*
X038085Y038340D01*
X038060Y038402D02*
X038110Y038402D01*
X038060Y038521D02*
X038162Y038521D01*
X038050Y038639D02*
X038281Y038639D01*
X038085Y038165D02*
X038060Y038165D01*
X038060Y038047D02*
X038127Y038047D01*
X038060Y037928D02*
X038204Y037928D01*
X038365Y037810D02*
X038028Y037810D01*
X037615Y037810D02*
X037510Y037810D01*
X037510Y037928D02*
X037615Y037928D01*
X037615Y038047D02*
X037510Y038047D01*
X037510Y038165D02*
X037615Y038165D01*
X037615Y038402D02*
X037510Y038402D01*
X037510Y038521D02*
X037615Y038521D01*
X037615Y038639D02*
X037510Y038639D01*
X037074Y038639D02*
X036593Y038639D01*
X036712Y038521D02*
X037065Y038521D01*
X037065Y038402D02*
X036764Y038402D01*
X036101Y038758D02*
X053232Y038758D01*
X053232Y038876D02*
X036019Y038876D01*
X035731Y038995D02*
X053232Y038995D01*
X053232Y039113D02*
X035613Y039113D01*
X035494Y039232D02*
X053232Y039232D01*
X053232Y039350D02*
X033886Y039350D01*
X033738Y039350D02*
X001392Y039350D01*
X001392Y039232D02*
X031360Y039232D01*
X031386Y039258D02*
X031299Y039171D01*
X031252Y039057D01*
X031252Y038933D01*
X031299Y038819D01*
X031372Y038747D01*
X031372Y038704D01*
X031252Y038824D01*
X031141Y038935D01*
X030483Y038935D01*
X030140Y038592D01*
X030082Y038650D01*
X029907Y038722D01*
X029717Y038722D01*
X029542Y038650D01*
X029407Y038515D01*
X029335Y038340D01*
X029335Y038150D01*
X029407Y037975D01*
X029542Y037840D01*
X029717Y037768D01*
X029907Y037768D01*
X030002Y037807D01*
X030002Y037807D01*
X030002Y037683D01*
X030049Y037569D01*
X030122Y037497D01*
X030122Y037324D01*
X028936Y036137D01*
X028894Y036155D01*
X028730Y036155D01*
X028580Y036093D01*
X028464Y035977D01*
X028402Y035827D01*
X028402Y035663D01*
X028464Y035513D01*
X028580Y035397D01*
X028730Y035335D01*
X028894Y035335D01*
X029044Y035397D01*
X029160Y035513D01*
X029222Y035663D01*
X029222Y035827D01*
X029205Y035869D01*
X030391Y037055D01*
X030502Y037166D01*
X030502Y037497D01*
X030575Y037569D01*
X030622Y037683D01*
X030622Y037807D01*
X030717Y037768D01*
X030907Y037768D01*
X031082Y037840D01*
X031122Y037880D01*
X031122Y036015D01*
X031044Y036093D01*
X030894Y036155D01*
X030730Y036155D01*
X030580Y036093D01*
X030464Y035977D01*
X030402Y035827D01*
X030402Y035663D01*
X030420Y035621D01*
X029853Y035055D01*
X029750Y035055D01*
X029636Y035008D01*
X029549Y034921D01*
X029502Y034807D01*
X029502Y034683D01*
X029549Y034569D01*
X029636Y034482D01*
X029750Y034435D01*
X029874Y034435D01*
X029988Y034482D01*
X030075Y034569D01*
X030122Y034683D01*
X030122Y034786D01*
X030688Y035353D01*
X030730Y035335D01*
X030894Y035335D01*
X031044Y035397D01*
X031122Y035475D01*
X031122Y035166D01*
X031233Y035055D01*
X031233Y035055D01*
X031502Y034786D01*
X031502Y034743D01*
X031488Y034758D01*
X031374Y034805D01*
X031250Y034805D01*
X031136Y034758D01*
X031049Y034671D01*
X031002Y034557D01*
X031002Y034493D01*
X030988Y034508D01*
X030874Y034555D01*
X030750Y034555D01*
X030636Y034508D01*
X030549Y034421D01*
X030502Y034307D01*
X030502Y034183D01*
X030549Y034069D01*
X030636Y033982D01*
X030750Y033935D01*
X030853Y033935D01*
X030872Y033916D01*
X030983Y033805D01*
X032641Y033805D01*
X032771Y033935D01*
X032874Y033935D01*
X032988Y033982D01*
X033075Y034069D01*
X033122Y034183D01*
X033122Y034307D01*
X033075Y034421D01*
X033000Y034495D01*
X033075Y034569D01*
X033122Y034683D01*
X033122Y034786D01*
X033688Y035353D01*
X033730Y035335D01*
X033894Y035335D01*
X034044Y035397D01*
X034160Y035513D01*
X034222Y035663D01*
X034222Y035827D01*
X034160Y035977D01*
X034044Y036093D01*
X033894Y036155D01*
X033730Y036155D01*
X033580Y036093D01*
X033464Y035977D01*
X033402Y035827D01*
X033402Y035663D01*
X033420Y035621D01*
X032853Y035055D01*
X032750Y035055D01*
X032636Y035008D01*
X032549Y034921D01*
X032502Y034807D01*
X032502Y034683D01*
X032549Y034569D01*
X032624Y034495D01*
X032549Y034421D01*
X032502Y034307D01*
X032502Y034204D01*
X032483Y034185D01*
X032021Y034185D01*
X032502Y034666D01*
X032502Y035166D01*
X032688Y035353D01*
X032730Y035335D01*
X032894Y035335D01*
X033044Y035397D01*
X033160Y035513D01*
X033222Y035663D01*
X033222Y035827D01*
X033160Y035977D01*
X033044Y036093D01*
X032894Y036155D01*
X032730Y036155D01*
X032603Y036102D01*
X032575Y036171D01*
X032502Y036243D01*
X032502Y037074D01*
X031752Y037824D01*
X031752Y038747D01*
X031825Y038819D01*
X031872Y038933D01*
X031872Y039057D01*
X031825Y039171D01*
X031738Y039258D01*
X031624Y039305D01*
X031500Y039305D01*
X031386Y039258D01*
X031275Y039113D02*
X001392Y039113D01*
X001392Y038995D02*
X031252Y038995D01*
X031276Y038876D02*
X031200Y038876D01*
X031318Y038758D02*
X031361Y038758D01*
X031763Y038758D02*
X033696Y038758D01*
X033582Y038650D02*
X033407Y038722D01*
X033217Y038722D01*
X033042Y038650D01*
X032907Y038515D01*
X032835Y038340D01*
X032835Y038150D01*
X032907Y037975D01*
X033042Y037840D01*
X033217Y037768D01*
X033407Y037768D01*
X033582Y037840D01*
X033717Y037975D01*
X033790Y038150D01*
X033790Y038340D01*
X033717Y038515D01*
X033582Y038650D01*
X033593Y038639D02*
X034031Y038639D01*
X034042Y038650D02*
X033907Y038515D01*
X033835Y038340D01*
X033835Y038150D01*
X033907Y037975D01*
X034042Y037840D01*
X034217Y037768D01*
X034407Y037768D01*
X034582Y037840D01*
X034717Y037975D01*
X034790Y038150D01*
X034790Y038340D01*
X034717Y038515D01*
X034582Y038650D01*
X034407Y038722D01*
X034217Y038722D01*
X034042Y038650D01*
X033928Y038758D02*
X035431Y038758D01*
X035031Y038639D02*
X034593Y038639D01*
X034712Y038521D02*
X034912Y038521D01*
X034860Y038402D02*
X034764Y038402D01*
X034790Y038284D02*
X034835Y038284D01*
X034835Y038165D02*
X034790Y038165D01*
X034747Y038047D02*
X034877Y038047D01*
X034954Y037928D02*
X034670Y037928D01*
X034509Y037810D02*
X035115Y037810D01*
X035122Y037691D02*
X031885Y037691D01*
X031913Y037758D02*
X031953Y037748D01*
X032260Y037748D01*
X032260Y038192D01*
X032365Y038192D01*
X032365Y037747D01*
X032671Y037748D01*
X032711Y037758D01*
X032748Y037779D01*
X032778Y037809D01*
X032799Y037846D01*
X032810Y037886D01*
X032810Y038192D01*
X032365Y038192D01*
X032365Y038298D01*
X032260Y038298D01*
X032260Y038742D01*
X031953Y038742D01*
X031913Y038732D01*
X031876Y038711D01*
X031846Y038681D01*
X031825Y038644D01*
X031815Y038604D01*
X031815Y038298D01*
X032259Y038298D01*
X032259Y038192D01*
X031815Y038192D01*
X031815Y037886D01*
X031825Y037846D01*
X031846Y037809D01*
X031876Y037779D01*
X031913Y037758D01*
X031846Y037810D02*
X031766Y037810D01*
X031752Y037928D02*
X031815Y037928D01*
X031815Y038047D02*
X031752Y038047D01*
X031752Y038165D02*
X031815Y038165D01*
X031752Y038284D02*
X032259Y038284D01*
X032365Y038284D02*
X032835Y038284D01*
X032810Y038298D02*
X032810Y038604D01*
X032799Y038644D01*
X032778Y038681D01*
X032748Y038711D01*
X032711Y038732D01*
X032671Y038742D01*
X032365Y038742D01*
X032365Y038298D01*
X032810Y038298D01*
X032810Y038402D02*
X032860Y038402D01*
X032810Y038521D02*
X032912Y038521D01*
X032800Y038639D02*
X033031Y038639D01*
X032835Y038165D02*
X032810Y038165D01*
X032810Y038047D02*
X032877Y038047D01*
X032810Y037928D02*
X032954Y037928D01*
X033115Y037810D02*
X032778Y037810D01*
X032365Y037810D02*
X032260Y037810D01*
X032260Y037928D02*
X032365Y037928D01*
X032365Y038047D02*
X032260Y038047D01*
X032260Y038165D02*
X032365Y038165D01*
X032365Y038402D02*
X032260Y038402D01*
X032260Y038521D02*
X032365Y038521D01*
X032365Y038639D02*
X032260Y038639D01*
X031824Y038639D02*
X031752Y038639D01*
X031752Y038521D02*
X031815Y038521D01*
X031815Y038402D02*
X031752Y038402D01*
X031122Y037810D02*
X031009Y037810D01*
X031122Y037691D02*
X030622Y037691D01*
X030622Y037807D02*
X030622Y037807D01*
X030576Y037573D02*
X031122Y037573D01*
X031122Y037454D02*
X030502Y037454D01*
X030502Y037336D02*
X031122Y037336D01*
X031122Y037217D02*
X030502Y037217D01*
X030434Y037099D02*
X031122Y037099D01*
X031122Y036980D02*
X030316Y036980D01*
X030197Y036862D02*
X031122Y036862D01*
X031122Y036743D02*
X030079Y036743D01*
X029960Y036625D02*
X031122Y036625D01*
X031122Y036506D02*
X029842Y036506D01*
X029723Y036388D02*
X031122Y036388D01*
X031122Y036269D02*
X029605Y036269D01*
X029720Y036151D02*
X029486Y036151D01*
X029580Y036093D02*
X029464Y035977D01*
X029402Y035827D01*
X029402Y035663D01*
X029464Y035513D01*
X029580Y035397D01*
X029730Y035335D01*
X029894Y035335D01*
X030044Y035397D01*
X030160Y035513D01*
X030222Y035663D01*
X030222Y035827D01*
X030160Y035977D01*
X030044Y036093D01*
X029894Y036155D01*
X029730Y036155D01*
X029580Y036093D01*
X029519Y036032D02*
X029368Y036032D01*
X029438Y035914D02*
X029249Y035914D01*
X029222Y035795D02*
X029402Y035795D01*
X029402Y035677D02*
X029222Y035677D01*
X029178Y035558D02*
X029446Y035558D01*
X029538Y035440D02*
X029086Y035440D01*
X028742Y035084D02*
X029882Y035084D01*
X030001Y035203D02*
X028623Y035203D01*
X028505Y035321D02*
X030119Y035321D01*
X030086Y035440D02*
X030238Y035440D01*
X030178Y035558D02*
X030356Y035558D01*
X030402Y035677D02*
X030222Y035677D01*
X030222Y035795D02*
X030402Y035795D01*
X030438Y035914D02*
X030186Y035914D01*
X030105Y036032D02*
X030519Y036032D01*
X030720Y036151D02*
X029904Y036151D01*
X029423Y036625D02*
X026951Y036625D01*
X026833Y036743D02*
X029541Y036743D01*
X029660Y036862D02*
X026714Y036862D01*
X026596Y036980D02*
X029778Y036980D01*
X029897Y037099D02*
X026477Y037099D01*
X026359Y037217D02*
X027173Y037217D01*
X027136Y037232D02*
X027250Y037185D01*
X027374Y037185D01*
X027488Y037232D01*
X027560Y037305D01*
X028141Y037305D01*
X028252Y037416D01*
X028271Y037435D01*
X028374Y037435D01*
X028488Y037482D01*
X028575Y037569D01*
X028622Y037683D01*
X028622Y037807D01*
X028717Y037768D01*
X028907Y037768D01*
X029082Y037840D01*
X029217Y037975D01*
X029290Y038150D01*
X029290Y038340D01*
X029217Y038515D01*
X029082Y038650D01*
X028907Y038722D01*
X028717Y038722D01*
X028542Y038650D01*
X028407Y038515D01*
X028335Y038340D01*
X028335Y038150D01*
X028374Y038055D01*
X028374Y038055D01*
X028250Y038055D01*
X028290Y038150D01*
X028290Y038340D01*
X028217Y038515D01*
X028082Y038650D01*
X027907Y038722D01*
X027717Y038722D01*
X027542Y038650D01*
X027407Y038515D01*
X027335Y038340D01*
X027335Y038150D01*
X027407Y037975D01*
X027542Y037840D01*
X027717Y037768D01*
X027907Y037768D01*
X028002Y037807D01*
X028002Y037807D01*
X028002Y037704D01*
X027983Y037685D01*
X027560Y037685D01*
X027488Y037758D01*
X027374Y037805D01*
X027273Y037805D01*
X027278Y037809D01*
X027299Y037846D01*
X027310Y037886D01*
X027310Y038192D01*
X026865Y038192D01*
X026865Y037747D01*
X027126Y037748D01*
X027049Y037671D01*
X027002Y037557D01*
X027002Y037433D01*
X027049Y037319D01*
X027136Y037232D01*
X027043Y037336D02*
X026240Y037336D01*
X026122Y037454D02*
X027002Y037454D01*
X027009Y037573D02*
X026003Y037573D01*
X025885Y037691D02*
X027070Y037691D01*
X026865Y037810D02*
X026760Y037810D01*
X026760Y037748D02*
X026760Y038192D01*
X026865Y038192D01*
X026865Y038298D01*
X026760Y038298D01*
X026760Y038742D01*
X026453Y038742D01*
X026413Y038732D01*
X026376Y038711D01*
X026346Y038681D01*
X026325Y038644D01*
X026315Y038604D01*
X026315Y038298D01*
X026759Y038298D01*
X026759Y038192D01*
X026315Y038192D01*
X026315Y037886D01*
X026325Y037846D01*
X026346Y037809D01*
X026376Y037779D01*
X026413Y037758D01*
X026453Y037748D01*
X026760Y037748D01*
X026760Y037928D02*
X026865Y037928D01*
X026865Y038047D02*
X026760Y038047D01*
X026760Y038165D02*
X026865Y038165D01*
X026865Y038284D02*
X027335Y038284D01*
X027310Y038298D02*
X027310Y038604D01*
X027299Y038644D01*
X027278Y038681D01*
X027248Y038711D01*
X027211Y038732D01*
X027171Y038742D01*
X026865Y038742D01*
X026865Y038298D01*
X027310Y038298D01*
X027310Y038402D02*
X027360Y038402D01*
X027310Y038521D02*
X027412Y038521D01*
X027300Y038639D02*
X027531Y038639D01*
X027335Y038165D02*
X027310Y038165D01*
X027310Y038047D02*
X027377Y038047D01*
X027310Y037928D02*
X027454Y037928D01*
X027615Y037810D02*
X027278Y037810D01*
X027554Y037691D02*
X027989Y037691D01*
X028171Y037336D02*
X030122Y037336D01*
X030122Y037454D02*
X028420Y037454D01*
X028576Y037573D02*
X030048Y037573D01*
X030002Y037691D02*
X028622Y037691D01*
X028622Y037807D02*
X028622Y037807D01*
X029009Y037810D02*
X029615Y037810D01*
X029454Y037928D02*
X029170Y037928D01*
X029247Y038047D02*
X029377Y038047D01*
X029335Y038165D02*
X029290Y038165D01*
X029290Y038284D02*
X029335Y038284D01*
X029360Y038402D02*
X029264Y038402D01*
X029212Y038521D02*
X029412Y038521D01*
X029531Y038639D02*
X029093Y038639D01*
X028531Y038639D02*
X028093Y038639D01*
X028212Y038521D02*
X028412Y038521D01*
X028360Y038402D02*
X028264Y038402D01*
X028290Y038284D02*
X028335Y038284D01*
X028335Y038165D02*
X028290Y038165D01*
X028250Y038055D02*
X028250Y038055D01*
X026865Y038402D02*
X026760Y038402D01*
X026759Y038284D02*
X025790Y038284D01*
X025790Y038340D02*
X025717Y038515D01*
X025582Y038650D01*
X025407Y038722D01*
X025217Y038722D01*
X025042Y038650D01*
X024907Y038515D01*
X024835Y038340D01*
X024835Y038150D01*
X024907Y037975D01*
X025042Y037840D01*
X025217Y037768D01*
X025271Y037768D01*
X026883Y036155D01*
X026730Y036155D01*
X026580Y036093D01*
X026464Y035977D01*
X026402Y035827D01*
X026402Y035663D01*
X026464Y035513D01*
X026580Y035397D01*
X026730Y035335D01*
X026894Y035335D01*
X026936Y035353D01*
X028002Y034286D01*
X028002Y034183D01*
X028049Y034069D01*
X028136Y033982D01*
X028250Y033935D01*
X028374Y033935D01*
X028488Y033982D01*
X028575Y034069D01*
X028622Y034183D01*
X028622Y034307D01*
X028575Y034421D01*
X028488Y034508D01*
X028374Y034555D01*
X028271Y034555D01*
X027205Y035621D01*
X027222Y035663D01*
X027222Y035697D01*
X027250Y035685D01*
X027374Y035685D01*
X027402Y035697D01*
X027402Y035663D01*
X027464Y035513D01*
X027580Y035397D01*
X027730Y035335D01*
X027894Y035335D01*
X027936Y035353D01*
X029002Y034286D01*
X029002Y034183D01*
X029049Y034069D01*
X029136Y033982D01*
X029250Y033935D01*
X029374Y033935D01*
X029488Y033982D01*
X029575Y034069D01*
X029622Y034183D01*
X029622Y034307D01*
X029575Y034421D01*
X029488Y034508D01*
X029374Y034555D01*
X029271Y034555D01*
X028205Y035621D01*
X028222Y035663D01*
X028222Y035827D01*
X028160Y035977D01*
X028044Y036093D01*
X027894Y036155D01*
X027730Y036155D01*
X027603Y036102D01*
X027575Y036171D01*
X027488Y036258D01*
X027374Y036305D01*
X027271Y036305D01*
X025659Y037917D01*
X025717Y037975D01*
X025790Y038150D01*
X025790Y038340D01*
X025764Y038402D02*
X026315Y038402D01*
X026315Y038521D02*
X025712Y038521D01*
X025593Y038639D02*
X026324Y038639D01*
X026760Y038639D02*
X026865Y038639D01*
X026865Y038521D02*
X026760Y038521D01*
X026315Y038165D02*
X025790Y038165D01*
X025747Y038047D02*
X026315Y038047D01*
X026315Y037928D02*
X025670Y037928D01*
X025766Y037810D02*
X026346Y037810D01*
X025703Y037336D02*
X025082Y037336D01*
X025075Y037319D02*
X025122Y037433D01*
X025122Y037557D01*
X025075Y037671D01*
X024988Y037758D01*
X024874Y037805D01*
X024750Y037805D01*
X024636Y037758D01*
X024549Y037671D01*
X024502Y037557D01*
X024502Y037454D01*
X022541Y037454D01*
X022560Y037435D02*
X022488Y037508D01*
X022374Y037555D01*
X022250Y037555D01*
X022136Y037508D01*
X022049Y037421D01*
X022002Y037307D01*
X022002Y037183D01*
X022049Y037069D01*
X022136Y036982D01*
X022250Y036935D01*
X022374Y036935D01*
X022488Y036982D01*
X022560Y037055D01*
X024641Y037055D01*
X024752Y037166D01*
X024771Y037185D01*
X024874Y037185D01*
X024988Y037232D01*
X025075Y037319D01*
X025122Y037454D02*
X025584Y037454D01*
X025466Y037573D02*
X025115Y037573D01*
X025054Y037691D02*
X025347Y037691D01*
X025115Y037810D02*
X024509Y037810D01*
X024582Y037840D02*
X024717Y037975D01*
X024790Y038150D01*
X024790Y038340D01*
X024717Y038515D01*
X024582Y038650D01*
X024407Y038722D01*
X024217Y038722D01*
X024042Y038650D01*
X023907Y038515D01*
X023835Y038340D01*
X023835Y038150D01*
X023907Y037975D01*
X024042Y037840D01*
X024217Y037768D01*
X024407Y037768D01*
X024582Y037840D01*
X024670Y037928D02*
X024954Y037928D01*
X024877Y038047D02*
X024747Y038047D01*
X024790Y038165D02*
X024835Y038165D01*
X024835Y038284D02*
X024790Y038284D01*
X024764Y038402D02*
X024860Y038402D01*
X024912Y038521D02*
X024712Y038521D01*
X024593Y038639D02*
X025031Y038639D01*
X024031Y038639D02*
X023593Y038639D01*
X023582Y038650D02*
X023407Y038722D01*
X023217Y038722D01*
X023042Y038650D01*
X022907Y038515D01*
X022835Y038340D01*
X022835Y038150D01*
X022907Y037975D01*
X023042Y037840D01*
X023217Y037768D01*
X023407Y037768D01*
X023582Y037840D01*
X023717Y037975D01*
X023790Y038150D01*
X023790Y038340D01*
X023717Y038515D01*
X023582Y038650D01*
X023712Y038521D02*
X023912Y038521D01*
X023860Y038402D02*
X023764Y038402D01*
X023790Y038284D02*
X023835Y038284D01*
X023835Y038165D02*
X023790Y038165D01*
X023747Y038047D02*
X023877Y038047D01*
X023954Y037928D02*
X023670Y037928D01*
X023509Y037810D02*
X024115Y037810D01*
X024509Y037573D02*
X021253Y037573D01*
X021135Y037691D02*
X024570Y037691D01*
X024502Y037454D02*
X024483Y037435D01*
X022560Y037435D01*
X022407Y037768D02*
X022582Y037840D01*
X022717Y037975D01*
X022790Y038150D01*
X022790Y038340D01*
X022717Y038515D01*
X022582Y038650D01*
X022407Y038722D01*
X022217Y038722D01*
X022042Y038650D01*
X021907Y038515D01*
X021835Y038340D01*
X021835Y038150D01*
X021907Y037975D01*
X022042Y037840D01*
X022217Y037768D01*
X022407Y037768D01*
X022509Y037810D02*
X023115Y037810D01*
X022954Y037928D02*
X022670Y037928D01*
X022747Y038047D02*
X022877Y038047D01*
X022835Y038165D02*
X022790Y038165D01*
X022790Y038284D02*
X022835Y038284D01*
X022860Y038402D02*
X022764Y038402D01*
X022712Y038521D02*
X022912Y038521D01*
X023031Y038639D02*
X022593Y038639D01*
X022031Y038639D02*
X021800Y038639D01*
X021799Y038644D02*
X021778Y038681D01*
X021748Y038711D01*
X021711Y038732D01*
X021671Y038742D01*
X021365Y038742D01*
X021365Y038298D01*
X021260Y038298D01*
X021260Y038742D01*
X020953Y038742D01*
X020913Y038732D01*
X020876Y038711D01*
X020846Y038681D01*
X020825Y038644D01*
X020815Y038604D01*
X020815Y038431D01*
X020738Y038508D01*
X020624Y038555D01*
X020500Y038555D01*
X020386Y038508D01*
X020299Y038421D01*
X020278Y038369D01*
X020217Y038515D01*
X020082Y038650D01*
X019907Y038722D01*
X019717Y038722D01*
X019542Y038650D01*
X019407Y038515D01*
X019335Y038340D01*
X019335Y038150D01*
X019407Y037975D01*
X019542Y037840D01*
X019717Y037768D01*
X019907Y037768D01*
X019987Y037801D01*
X022983Y034805D01*
X024483Y034805D01*
X024502Y034786D01*
X024502Y034683D01*
X024549Y034569D01*
X024636Y034482D01*
X024750Y034435D01*
X024874Y034435D01*
X024988Y034482D01*
X025075Y034569D01*
X025122Y034683D01*
X025122Y034807D01*
X025075Y034921D01*
X024988Y035008D01*
X024874Y035055D01*
X024771Y035055D01*
X024752Y035074D01*
X024641Y035185D01*
X023141Y035185D01*
X022386Y035940D01*
X022488Y035982D01*
X022575Y036069D01*
X022622Y036183D01*
X022622Y036307D01*
X022575Y036421D01*
X022488Y036508D01*
X022374Y036555D01*
X022271Y036555D01*
X021078Y037748D01*
X021260Y037748D01*
X021260Y038192D01*
X021365Y038192D01*
X021365Y038298D01*
X021810Y038298D01*
X021810Y038604D01*
X021799Y038644D01*
X021810Y038521D02*
X021912Y038521D01*
X021860Y038402D02*
X021810Y038402D01*
X021835Y038284D02*
X021365Y038284D01*
X021365Y038192D02*
X021810Y038192D01*
X021810Y037886D01*
X021799Y037846D01*
X021778Y037809D01*
X021748Y037779D01*
X021711Y037758D01*
X021671Y037748D01*
X021365Y037747D01*
X021365Y038192D01*
X021365Y038165D02*
X021260Y038165D01*
X021260Y038047D02*
X021365Y038047D01*
X021365Y037928D02*
X021260Y037928D01*
X021260Y037810D02*
X021365Y037810D01*
X021372Y037454D02*
X022083Y037454D01*
X022014Y037336D02*
X021490Y037336D01*
X021609Y037217D02*
X022002Y037217D01*
X022037Y037099D02*
X021727Y037099D01*
X021846Y036980D02*
X022142Y036980D01*
X021964Y036862D02*
X026177Y036862D01*
X026058Y036980D02*
X022482Y036980D01*
X022201Y036625D02*
X026414Y036625D01*
X026295Y036743D02*
X022083Y036743D01*
X022489Y036506D02*
X026532Y036506D01*
X026651Y036388D02*
X022588Y036388D01*
X022622Y036269D02*
X026769Y036269D01*
X026720Y036151D02*
X025904Y036151D01*
X025894Y036155D02*
X025730Y036155D01*
X025580Y036093D01*
X025464Y035977D01*
X025402Y035827D01*
X025402Y035663D01*
X025464Y035513D01*
X025580Y035397D01*
X025730Y035335D01*
X025894Y035335D01*
X026044Y035397D01*
X026160Y035513D01*
X026222Y035663D01*
X026222Y035827D01*
X026160Y035977D01*
X026044Y036093D01*
X025894Y036155D01*
X025720Y036151D02*
X024904Y036151D01*
X024894Y036155D02*
X024730Y036155D01*
X024580Y036093D01*
X024464Y035977D01*
X024402Y035827D01*
X024402Y035663D01*
X024464Y035513D01*
X024580Y035397D01*
X024730Y035335D01*
X024894Y035335D01*
X025044Y035397D01*
X025160Y035513D01*
X025222Y035663D01*
X025222Y035827D01*
X025160Y035977D01*
X025044Y036093D01*
X024894Y036155D01*
X024720Y036151D02*
X023955Y036151D01*
X023977Y036143D02*
X023913Y036164D01*
X023846Y036175D01*
X023837Y036175D01*
X023837Y035770D01*
X023787Y035770D01*
X023787Y035720D01*
X023382Y035720D01*
X023382Y035711D01*
X023393Y035644D01*
X023414Y035580D01*
X023444Y035520D01*
X023484Y035465D01*
X023532Y035417D01*
X023587Y035377D01*
X023647Y035347D01*
X023711Y035326D01*
X023778Y035315D01*
X023787Y035315D01*
X023787Y035720D01*
X023837Y035720D01*
X023837Y035315D01*
X023846Y035315D01*
X023913Y035326D01*
X023977Y035347D01*
X024037Y035377D01*
X024092Y035417D01*
X024140Y035465D01*
X024180Y035520D01*
X024211Y035580D01*
X024231Y035644D01*
X024242Y035711D01*
X024242Y035720D01*
X023837Y035720D01*
X023837Y035770D01*
X024242Y035770D01*
X024242Y035779D01*
X024231Y035846D01*
X024211Y035910D01*
X024180Y035970D01*
X024140Y036025D01*
X024092Y036073D01*
X024037Y036113D01*
X023977Y036143D01*
X023837Y036151D02*
X023787Y036151D01*
X023787Y036175D02*
X023778Y036175D01*
X023711Y036164D01*
X023647Y036143D01*
X023587Y036113D01*
X023532Y036073D01*
X023484Y036025D01*
X023444Y035970D01*
X023414Y035910D01*
X023393Y035846D01*
X023382Y035779D01*
X023382Y035770D01*
X023787Y035770D01*
X023787Y036175D01*
X023669Y036151D02*
X022608Y036151D01*
X022537Y036032D02*
X023491Y036032D01*
X023415Y035914D02*
X022412Y035914D01*
X022531Y035795D02*
X023385Y035795D01*
X023387Y035677D02*
X022649Y035677D01*
X022768Y035558D02*
X023425Y035558D01*
X023509Y035440D02*
X022886Y035440D01*
X023005Y035321D02*
X023740Y035321D01*
X023787Y035321D02*
X023837Y035321D01*
X023884Y035321D02*
X026967Y035321D01*
X027086Y035203D02*
X023123Y035203D01*
X022823Y034966D02*
X021372Y034966D01*
X021372Y034933D02*
X021372Y035057D01*
X021325Y035171D01*
X021238Y035258D01*
X021124Y035305D01*
X021021Y035305D01*
X020872Y035454D01*
X020872Y035557D01*
X020825Y035671D01*
X020738Y035758D01*
X020624Y035805D01*
X020500Y035805D01*
X020386Y035758D01*
X020299Y035671D01*
X020252Y035557D01*
X020252Y035433D01*
X020299Y035319D01*
X020386Y035232D01*
X020500Y035185D01*
X020603Y035185D01*
X020752Y035036D01*
X020752Y034933D01*
X020799Y034819D01*
X020886Y034732D01*
X021000Y034685D01*
X021124Y034685D01*
X021238Y034732D01*
X021325Y034819D01*
X021372Y034933D01*
X021336Y034847D02*
X022941Y034847D01*
X022704Y035084D02*
X021361Y035084D01*
X021293Y035203D02*
X022586Y035203D01*
X022467Y035321D02*
X021005Y035321D01*
X020886Y035440D02*
X022349Y035440D01*
X022230Y035558D02*
X020871Y035558D01*
X020819Y035677D02*
X022112Y035677D01*
X021993Y035795D02*
X020648Y035795D01*
X020476Y035795D02*
X003852Y035795D01*
X003852Y035882D02*
X003781Y036146D01*
X003644Y036384D01*
X003451Y036577D01*
X003213Y036714D01*
X002949Y036785D01*
X002675Y036785D01*
X002411Y036714D01*
X002173Y036577D01*
X001980Y036384D01*
X001843Y036146D01*
X001772Y035882D01*
X001772Y035608D01*
X001843Y035344D01*
X001980Y035106D01*
X002173Y034913D01*
X002411Y034776D01*
X002675Y034705D01*
X002949Y034705D01*
X003213Y034776D01*
X003451Y034913D01*
X003644Y035106D01*
X003781Y035344D01*
X003852Y035608D01*
X003852Y035882D01*
X003844Y035914D02*
X021875Y035914D01*
X021756Y036032D02*
X003812Y036032D01*
X003779Y036151D02*
X021638Y036151D01*
X021519Y036269D02*
X018524Y036269D01*
X018488Y036232D02*
X018575Y036319D01*
X018622Y036433D01*
X018622Y036557D01*
X018575Y036671D01*
X018488Y036758D01*
X018374Y036805D01*
X018271Y036805D01*
X017622Y037454D01*
X017834Y037454D01*
X017733Y037555D02*
X018002Y037286D01*
X018002Y037183D01*
X018049Y037069D01*
X018136Y036982D01*
X018250Y036935D01*
X018374Y036935D01*
X018488Y036982D01*
X018575Y037069D01*
X018622Y037183D01*
X018622Y037307D01*
X018575Y037421D01*
X018488Y037508D01*
X018374Y037555D01*
X018271Y037555D01*
X018014Y037812D01*
X018082Y037840D01*
X018217Y037975D01*
X018290Y038150D01*
X018290Y038340D01*
X018217Y038515D01*
X018082Y038650D01*
X017907Y038722D01*
X017717Y038722D01*
X017542Y038650D01*
X017407Y038515D01*
X017335Y038340D01*
X017335Y038185D01*
X017290Y038185D01*
X017290Y038340D01*
X017217Y038515D01*
X017082Y038650D01*
X016907Y038722D01*
X016717Y038722D01*
X016542Y038650D01*
X016407Y038515D01*
X016335Y038340D01*
X016335Y038150D01*
X016407Y037975D01*
X016542Y037840D01*
X016717Y037768D01*
X016816Y037768D01*
X016733Y037685D01*
X015641Y037685D01*
X015578Y037748D01*
X015760Y037748D01*
X015760Y038192D01*
X015865Y038192D01*
X015865Y037747D01*
X016171Y037748D01*
X016211Y037758D01*
X016248Y037779D01*
X016278Y037809D01*
X016299Y037846D01*
X016310Y037886D01*
X016310Y038192D01*
X015865Y038192D01*
X015865Y038298D01*
X015760Y038298D01*
X015760Y038742D01*
X015453Y038742D01*
X015413Y038732D01*
X015376Y038711D01*
X015346Y038681D01*
X015325Y038644D01*
X015315Y038604D01*
X015315Y038431D01*
X015238Y038508D01*
X015124Y038555D01*
X015000Y038555D01*
X014886Y038508D01*
X014799Y038421D01*
X014778Y038369D01*
X014717Y038515D01*
X014582Y038650D01*
X014407Y038722D01*
X014217Y038722D01*
X014042Y038650D01*
X013907Y038515D01*
X013835Y038340D01*
X013835Y038150D01*
X013907Y037975D01*
X014042Y037840D01*
X014217Y037768D01*
X014407Y037768D01*
X014582Y037840D01*
X014717Y037975D01*
X014778Y038121D01*
X014799Y038069D01*
X014872Y037997D01*
X014872Y037916D01*
X014983Y037805D01*
X015483Y037305D01*
X016891Y037305D01*
X017002Y037416D01*
X017007Y037421D01*
X017049Y037319D01*
X017136Y037232D01*
X017250Y037185D01*
X017353Y037185D01*
X018002Y036536D01*
X018002Y036433D01*
X018049Y036319D01*
X018136Y036232D01*
X018250Y036185D01*
X018374Y036185D01*
X018488Y036232D01*
X018603Y036388D02*
X021401Y036388D01*
X021282Y036506D02*
X018622Y036506D01*
X018594Y036625D02*
X021164Y036625D01*
X021045Y036743D02*
X018502Y036743D01*
X018482Y036980D02*
X020808Y036980D01*
X020690Y037099D02*
X018587Y037099D01*
X018622Y037217D02*
X020571Y037217D01*
X020453Y037336D02*
X018610Y037336D01*
X018541Y037454D02*
X020334Y037454D01*
X020216Y037573D02*
X018253Y037573D01*
X018135Y037691D02*
X020097Y037691D01*
X019615Y037810D02*
X019009Y037810D01*
X019082Y037840D02*
X019217Y037975D01*
X019290Y038150D01*
X019290Y038340D01*
X019217Y038515D01*
X019082Y038650D01*
X018907Y038722D01*
X018717Y038722D01*
X018542Y038650D01*
X018407Y038515D01*
X018335Y038340D01*
X018335Y038150D01*
X018407Y037975D01*
X018542Y037840D01*
X018717Y037768D01*
X018907Y037768D01*
X019082Y037840D01*
X019170Y037928D02*
X019454Y037928D01*
X019377Y038047D02*
X019247Y038047D01*
X019290Y038165D02*
X019335Y038165D01*
X019335Y038284D02*
X019290Y038284D01*
X019264Y038402D02*
X019360Y038402D01*
X019412Y038521D02*
X019212Y038521D01*
X019093Y038639D02*
X019531Y038639D01*
X020093Y038639D02*
X020824Y038639D01*
X020815Y038521D02*
X020707Y038521D01*
X020417Y038521D02*
X020212Y038521D01*
X020264Y038402D02*
X020292Y038402D01*
X021260Y038402D02*
X021365Y038402D01*
X021365Y038521D02*
X021260Y038521D01*
X021260Y038639D02*
X021365Y038639D01*
X021810Y038165D02*
X021835Y038165D01*
X021810Y038047D02*
X021877Y038047D01*
X021810Y037928D02*
X021954Y037928D01*
X022115Y037810D02*
X021778Y037810D01*
X020927Y036862D02*
X018214Y036862D01*
X018142Y036980D02*
X018096Y036980D01*
X018037Y037099D02*
X017977Y037099D01*
X018002Y037217D02*
X017859Y037217D01*
X017953Y037336D02*
X017740Y037336D01*
X017622Y037454D02*
X017622Y037555D01*
X017733Y037555D01*
X018016Y037810D02*
X018615Y037810D01*
X018454Y037928D02*
X018170Y037928D01*
X018247Y038047D02*
X018377Y038047D01*
X018335Y038165D02*
X018290Y038165D01*
X018290Y038284D02*
X018335Y038284D01*
X018360Y038402D02*
X018264Y038402D01*
X018212Y038521D02*
X018412Y038521D01*
X018531Y038639D02*
X018093Y038639D01*
X017531Y038639D02*
X017093Y038639D01*
X017212Y038521D02*
X017412Y038521D01*
X017360Y038402D02*
X017264Y038402D01*
X017290Y038284D02*
X017335Y038284D01*
X016739Y037691D02*
X015635Y037691D01*
X015760Y037810D02*
X015865Y037810D01*
X015865Y037928D02*
X015760Y037928D01*
X015760Y038047D02*
X015865Y038047D01*
X015865Y038165D02*
X015760Y038165D01*
X015865Y038284D02*
X016335Y038284D01*
X016310Y038298D02*
X016310Y038604D01*
X016299Y038644D01*
X016278Y038681D01*
X016248Y038711D01*
X016211Y038732D01*
X016171Y038742D01*
X015865Y038742D01*
X015865Y038298D01*
X016310Y038298D01*
X016310Y038402D02*
X016360Y038402D01*
X016310Y038521D02*
X016412Y038521D01*
X016300Y038639D02*
X016531Y038639D01*
X016335Y038165D02*
X016310Y038165D01*
X016310Y038047D02*
X016377Y038047D01*
X016310Y037928D02*
X016454Y037928D01*
X016615Y037810D02*
X016278Y037810D01*
X015865Y038402D02*
X015760Y038402D01*
X015760Y038521D02*
X015865Y038521D01*
X015865Y038639D02*
X015760Y038639D01*
X015324Y038639D02*
X014593Y038639D01*
X014712Y038521D02*
X014917Y038521D01*
X014792Y038402D02*
X014764Y038402D01*
X014747Y038047D02*
X014822Y038047D01*
X014872Y037928D02*
X014670Y037928D01*
X014509Y037810D02*
X014979Y037810D01*
X015097Y037691D02*
X001392Y037691D01*
X001392Y037573D02*
X015216Y037573D01*
X015334Y037454D02*
X001392Y037454D01*
X001392Y037336D02*
X015453Y037336D01*
X014115Y037810D02*
X013509Y037810D01*
X013582Y037840D02*
X013717Y037975D01*
X013790Y038150D01*
X013790Y038340D01*
X013717Y038515D01*
X013582Y038650D01*
X013407Y038722D01*
X013217Y038722D01*
X013042Y038650D01*
X012907Y038515D01*
X012835Y038340D01*
X012835Y038150D01*
X012907Y037975D01*
X013042Y037840D01*
X013217Y037768D01*
X013407Y037768D01*
X013582Y037840D01*
X013670Y037928D02*
X013954Y037928D01*
X013877Y038047D02*
X013747Y038047D01*
X013790Y038165D02*
X013835Y038165D01*
X013835Y038284D02*
X013790Y038284D01*
X013764Y038402D02*
X013860Y038402D01*
X013912Y038521D02*
X013712Y038521D01*
X013593Y038639D02*
X014031Y038639D01*
X015207Y038521D02*
X015315Y038521D01*
X016921Y037336D02*
X017043Y037336D01*
X017173Y037217D02*
X001392Y037217D01*
X001392Y037099D02*
X017440Y037099D01*
X017558Y036980D02*
X001392Y036980D01*
X001392Y036862D02*
X017677Y036862D01*
X017795Y036743D02*
X003105Y036743D01*
X003369Y036625D02*
X017914Y036625D01*
X018002Y036506D02*
X003522Y036506D01*
X003640Y036388D02*
X018021Y036388D01*
X018100Y036269D02*
X003710Y036269D01*
X003852Y035677D02*
X020305Y035677D01*
X020253Y035558D02*
X008248Y035558D01*
X008255Y035554D02*
X008189Y035598D01*
X008117Y035628D01*
X008040Y035643D01*
X008010Y035643D01*
X008010Y035254D01*
X008399Y035254D01*
X008399Y035284D01*
X008383Y035361D01*
X008354Y035433D01*
X008310Y035499D01*
X008255Y035554D01*
X008349Y035440D02*
X020252Y035440D01*
X020299Y035321D02*
X014848Y035321D01*
X014879Y035291D02*
X014797Y035373D01*
X014205Y035373D01*
X014123Y035291D01*
X014123Y034699D01*
X014205Y034617D01*
X014797Y034617D01*
X014879Y034699D01*
X014879Y035291D01*
X014879Y035203D02*
X020458Y035203D01*
X020704Y035084D02*
X014879Y035084D01*
X014879Y034966D02*
X020752Y034966D01*
X020788Y034847D02*
X014879Y034847D01*
X014879Y034729D02*
X020895Y034729D01*
X021229Y034729D02*
X024502Y034729D01*
X024532Y034610D02*
X013227Y034610D01*
X013239Y034612D02*
X013311Y034642D01*
X013377Y034686D01*
X013432Y034741D01*
X013476Y034807D01*
X013506Y034879D01*
X013521Y034956D01*
X013521Y034986D01*
X013132Y034986D01*
X013132Y034597D01*
X013162Y034597D01*
X013239Y034612D01*
X013132Y034610D02*
X013114Y034610D01*
X013114Y034597D02*
X013114Y034986D01*
X012725Y034986D01*
X012725Y034956D01*
X012741Y034879D01*
X012771Y034807D01*
X012814Y034741D01*
X012869Y034686D01*
X012935Y034642D01*
X013007Y034612D01*
X013084Y034597D01*
X013114Y034597D01*
X013019Y034610D02*
X001392Y034610D01*
X001392Y034492D02*
X024627Y034492D01*
X024997Y034492D02*
X027797Y034492D01*
X027678Y034610D02*
X025092Y034610D01*
X025122Y034729D02*
X027560Y034729D01*
X027441Y034847D02*
X025105Y034847D01*
X025030Y034966D02*
X027323Y034966D01*
X027204Y035084D02*
X024742Y035084D01*
X024538Y035440D02*
X024115Y035440D01*
X024199Y035558D02*
X024446Y035558D01*
X024402Y035677D02*
X024237Y035677D01*
X024239Y035795D02*
X024402Y035795D01*
X024438Y035914D02*
X024209Y035914D01*
X024133Y036032D02*
X024519Y036032D01*
X025105Y036032D02*
X025519Y036032D01*
X025438Y035914D02*
X025186Y035914D01*
X025222Y035795D02*
X025402Y035795D01*
X025402Y035677D02*
X025222Y035677D01*
X025178Y035558D02*
X025446Y035558D01*
X025538Y035440D02*
X025086Y035440D01*
X026086Y035440D02*
X026538Y035440D01*
X026446Y035558D02*
X026178Y035558D01*
X026222Y035677D02*
X026402Y035677D01*
X026402Y035795D02*
X026222Y035795D01*
X026186Y035914D02*
X026438Y035914D01*
X026519Y036032D02*
X026105Y036032D01*
X027070Y036506D02*
X029304Y036506D01*
X029186Y036388D02*
X027188Y036388D01*
X027460Y036269D02*
X029067Y036269D01*
X028949Y036151D02*
X028904Y036151D01*
X028720Y036151D02*
X027904Y036151D01*
X027720Y036151D02*
X027583Y036151D01*
X027402Y035677D02*
X027222Y035677D01*
X027268Y035558D02*
X027446Y035558D01*
X027386Y035440D02*
X027538Y035440D01*
X027505Y035321D02*
X027967Y035321D01*
X028086Y035203D02*
X027623Y035203D01*
X027742Y035084D02*
X028204Y035084D01*
X028323Y034966D02*
X027860Y034966D01*
X027979Y034847D02*
X028441Y034847D01*
X028560Y034729D02*
X028097Y034729D01*
X028216Y034610D02*
X028678Y034610D01*
X028797Y034492D02*
X028504Y034492D01*
X028594Y034373D02*
X028915Y034373D01*
X029002Y034255D02*
X028622Y034255D01*
X028602Y034136D02*
X029022Y034136D01*
X029101Y034018D02*
X028523Y034018D01*
X028101Y034018D02*
X001392Y034018D01*
X001392Y034136D02*
X028022Y034136D01*
X028002Y034255D02*
X001392Y034255D01*
X001392Y034373D02*
X027915Y034373D01*
X029097Y034729D02*
X029502Y034729D01*
X029519Y034847D02*
X028979Y034847D01*
X028860Y034966D02*
X029594Y034966D01*
X029532Y034610D02*
X029216Y034610D01*
X029504Y034492D02*
X029627Y034492D01*
X029594Y034373D02*
X030530Y034373D01*
X030502Y034255D02*
X029622Y034255D01*
X029602Y034136D02*
X030522Y034136D01*
X030601Y034018D02*
X029523Y034018D01*
X029997Y034492D02*
X030620Y034492D01*
X031024Y034610D02*
X030092Y034610D01*
X030122Y034729D02*
X031107Y034729D01*
X031323Y034966D02*
X030301Y034966D01*
X030420Y035084D02*
X031204Y035084D01*
X031122Y035203D02*
X030538Y035203D01*
X030657Y035321D02*
X031122Y035321D01*
X031122Y035440D02*
X031086Y035440D01*
X031441Y034847D02*
X030183Y034847D01*
X028538Y035440D02*
X028386Y035440D01*
X028446Y035558D02*
X028268Y035558D01*
X028222Y035677D02*
X028402Y035677D01*
X028402Y035795D02*
X028222Y035795D01*
X028186Y035914D02*
X028438Y035914D01*
X028519Y036032D02*
X028105Y036032D01*
X027451Y037217D02*
X030015Y037217D01*
X030904Y036151D02*
X031122Y036151D01*
X031122Y036032D02*
X031105Y036032D01*
X032502Y036269D02*
X035122Y036269D01*
X035122Y036388D02*
X032502Y036388D01*
X032502Y036506D02*
X035122Y036506D01*
X035122Y036625D02*
X032502Y036625D01*
X032502Y036743D02*
X033724Y036743D01*
X033724Y036739D02*
X033806Y036657D01*
X034318Y036657D01*
X034400Y036739D01*
X034400Y037251D01*
X034318Y037333D01*
X033806Y037333D01*
X033724Y037251D01*
X033724Y036739D01*
X033724Y036862D02*
X032502Y036862D01*
X032502Y036980D02*
X033724Y036980D01*
X033724Y037099D02*
X032477Y037099D01*
X032359Y037217D02*
X033724Y037217D01*
X034400Y037217D02*
X035122Y037217D01*
X035122Y037099D02*
X034400Y037099D01*
X034400Y036980D02*
X035122Y036980D01*
X035122Y036862D02*
X034400Y036862D01*
X034400Y036743D02*
X035122Y036743D01*
X034480Y036151D02*
X033904Y036151D01*
X033720Y036151D02*
X032904Y036151D01*
X032720Y036151D02*
X032583Y036151D01*
X033105Y036032D02*
X033519Y036032D01*
X033438Y035914D02*
X033186Y035914D01*
X033222Y035795D02*
X033402Y035795D01*
X033402Y035677D02*
X033222Y035677D01*
X033178Y035558D02*
X033356Y035558D01*
X033238Y035440D02*
X033086Y035440D01*
X033119Y035321D02*
X032657Y035321D01*
X032538Y035203D02*
X033001Y035203D01*
X032882Y035084D02*
X032502Y035084D01*
X032502Y034966D02*
X032594Y034966D01*
X032519Y034847D02*
X032502Y034847D01*
X032502Y034729D02*
X032502Y034729D01*
X032532Y034610D02*
X032446Y034610D01*
X032327Y034492D02*
X032620Y034492D01*
X032530Y034373D02*
X032209Y034373D01*
X032090Y034255D02*
X032502Y034255D01*
X032735Y033899D02*
X035389Y033899D01*
X035372Y033916D02*
X035353Y033935D01*
X035250Y033935D01*
X035136Y033982D01*
X035049Y034069D01*
X035002Y034183D01*
X035002Y034307D01*
X035049Y034421D01*
X035136Y034508D01*
X035250Y034555D01*
X035374Y034555D01*
X035488Y034508D01*
X035575Y034421D01*
X035622Y034307D01*
X035622Y034204D01*
X035641Y034185D01*
X035983Y034185D01*
X037502Y035704D01*
X037502Y035807D01*
X037549Y035921D01*
X037636Y036008D01*
X037750Y036055D01*
X037874Y036055D01*
X037988Y036008D01*
X038075Y035921D01*
X038122Y035807D01*
X038122Y035683D01*
X038075Y035569D01*
X037988Y035482D01*
X037874Y035435D01*
X037771Y035435D01*
X036141Y033805D01*
X035483Y033805D01*
X035372Y033916D01*
X035101Y034018D02*
X033023Y034018D01*
X033102Y034136D02*
X034402Y034136D01*
X034284Y034255D02*
X033122Y034255D01*
X033094Y034373D02*
X034165Y034373D01*
X033877Y034492D02*
X033004Y034492D01*
X033092Y034610D02*
X033782Y034610D01*
X033752Y034729D02*
X033122Y034729D01*
X033183Y034847D02*
X033769Y034847D01*
X033844Y034966D02*
X033301Y034966D01*
X033420Y035084D02*
X034632Y035084D01*
X034751Y035203D02*
X033538Y035203D01*
X033657Y035321D02*
X034869Y035321D01*
X034402Y035440D02*
X034086Y035440D01*
X034178Y035558D02*
X034402Y035558D01*
X034402Y035677D02*
X034222Y035677D01*
X034222Y035795D02*
X034402Y035795D01*
X034402Y035914D02*
X034186Y035914D01*
X034105Y036032D02*
X034402Y036032D01*
X035907Y035321D02*
X037119Y035321D01*
X037001Y035203D02*
X035788Y035203D01*
X035670Y035084D02*
X036882Y035084D01*
X036764Y034966D02*
X035551Y034966D01*
X035433Y034847D02*
X036645Y034847D01*
X036527Y034729D02*
X035314Y034729D01*
X035196Y034610D02*
X036408Y034610D01*
X036290Y034492D02*
X035504Y034492D01*
X035594Y034373D02*
X036171Y034373D01*
X036053Y034255D02*
X035622Y034255D01*
X035120Y034492D02*
X035077Y034492D01*
X035030Y034373D02*
X034959Y034373D01*
X035002Y034255D02*
X034840Y034255D01*
X034722Y034136D02*
X035022Y034136D01*
X035804Y033425D02*
X024119Y033425D01*
X024122Y033544D02*
X035973Y033544D01*
X036210Y033662D02*
X024078Y033662D01*
X023933Y033781D02*
X036329Y033781D01*
X036235Y033899D02*
X036447Y033899D01*
X036353Y034018D02*
X036566Y034018D01*
X036472Y034136D02*
X036684Y034136D01*
X036590Y034255D02*
X036803Y034255D01*
X036709Y034373D02*
X036921Y034373D01*
X036827Y034492D02*
X037040Y034492D01*
X036946Y034610D02*
X037158Y034610D01*
X037064Y034729D02*
X037277Y034729D01*
X037183Y034847D02*
X037395Y034847D01*
X037301Y034966D02*
X037514Y034966D01*
X037420Y035084D02*
X037632Y035084D01*
X037538Y035203D02*
X037751Y035203D01*
X037657Y035321D02*
X037869Y035321D01*
X037885Y035440D02*
X037988Y035440D01*
X038063Y035558D02*
X038106Y035558D01*
X038119Y035677D02*
X038225Y035677D01*
X038122Y035795D02*
X038343Y035795D01*
X038462Y035914D02*
X038078Y035914D01*
X037929Y036032D02*
X038580Y036032D01*
X038699Y036151D02*
X036502Y036151D01*
X036502Y036269D02*
X036850Y036269D01*
X036886Y036232D02*
X037000Y036185D01*
X037124Y036185D01*
X037238Y036232D01*
X037325Y036319D01*
X037372Y036433D01*
X037372Y036557D01*
X037325Y036671D01*
X037252Y036743D01*
X038622Y036743D01*
X038530Y036625D02*
X037344Y036625D01*
X037372Y036506D02*
X038502Y036506D01*
X038521Y036388D02*
X037353Y036388D01*
X037274Y036269D02*
X038600Y036269D01*
X038999Y035914D02*
X042593Y035914D01*
X042546Y035833D02*
X042472Y035556D01*
X042472Y035269D01*
X042546Y034992D01*
X042690Y034743D01*
X042893Y034540D01*
X043141Y034397D01*
X043419Y034322D01*
X043705Y034322D01*
X043983Y034397D01*
X044231Y034540D01*
X044434Y034743D01*
X044578Y034992D01*
X044652Y035269D01*
X044652Y035556D01*
X044578Y035833D01*
X044434Y036082D01*
X044231Y036284D01*
X043983Y036428D01*
X043705Y036502D01*
X043419Y036502D01*
X043141Y036428D01*
X042893Y036284D01*
X042690Y036082D01*
X042546Y035833D01*
X042536Y035795D02*
X038881Y035795D01*
X038762Y035677D02*
X042504Y035677D01*
X042473Y035558D02*
X038644Y035558D01*
X038525Y035440D02*
X042472Y035440D01*
X042472Y035321D02*
X038407Y035321D01*
X038288Y035203D02*
X042490Y035203D01*
X042522Y035084D02*
X038170Y035084D01*
X038051Y034966D02*
X042561Y034966D01*
X042630Y034847D02*
X037933Y034847D01*
X037814Y034729D02*
X042704Y034729D01*
X042823Y034610D02*
X037696Y034610D01*
X037577Y034492D02*
X042977Y034492D01*
X043229Y034373D02*
X037459Y034373D01*
X036392Y033307D02*
X044329Y033307D01*
X044198Y033188D02*
X036372Y033188D01*
X036325Y033070D02*
X044133Y033070D01*
X044106Y032951D02*
X044524Y032951D01*
X044600Y032951D01*
X044600Y033369D01*
X044669Y033358D01*
X044737Y033336D01*
X044801Y033303D01*
X044860Y033261D01*
X044910Y033210D01*
X044953Y033152D01*
X044985Y033088D01*
X045008Y033019D01*
X045018Y032951D01*
X045125Y032951D01*
X045018Y032951D02*
X044600Y032951D01*
X044524Y032951D02*
X044524Y032874D01*
X044106Y032874D01*
X044116Y032805D01*
X044150Y032714D02*
X023444Y032714D01*
X023180Y032714D02*
X009710Y032714D01*
X009710Y032720D02*
X009321Y032720D01*
X009321Y032331D01*
X009351Y032331D01*
X009428Y032347D01*
X009500Y032377D01*
X009566Y032420D01*
X009621Y032476D01*
X009665Y032541D01*
X009695Y032613D01*
X009710Y032690D01*
X009710Y032720D01*
X009710Y032738D02*
X009710Y032768D01*
X009695Y032845D01*
X009665Y032918D01*
X009621Y032983D01*
X009566Y033038D01*
X009500Y033082D01*
X009428Y033112D01*
X009351Y033127D01*
X009321Y033127D01*
X009321Y032738D01*
X009710Y032738D01*
X009697Y032833D02*
X023044Y032833D01*
X023002Y032951D02*
X009642Y032951D01*
X009519Y033070D02*
X023007Y033070D01*
X023067Y033188D02*
X001392Y033188D01*
X001392Y033070D02*
X009105Y033070D01*
X009124Y033082D02*
X009058Y033038D01*
X009003Y032983D01*
X008959Y032918D01*
X008929Y032845D01*
X008914Y032768D01*
X008914Y032738D01*
X009303Y032738D01*
X009303Y032720D01*
X009321Y032720D01*
X009321Y032738D01*
X009303Y032738D01*
X009303Y033127D01*
X009273Y033127D01*
X009196Y033112D01*
X009124Y033082D01*
X009303Y033070D02*
X009321Y033070D01*
X009321Y032951D02*
X009303Y032951D01*
X009303Y032833D02*
X009321Y032833D01*
X009303Y032720D02*
X008914Y032720D01*
X008914Y032690D01*
X008929Y032613D01*
X008959Y032541D01*
X009003Y032476D01*
X009058Y032420D01*
X009124Y032377D01*
X009196Y032347D01*
X009273Y032331D01*
X009303Y032331D01*
X009303Y032720D01*
X009303Y032714D02*
X009321Y032714D01*
X009321Y032596D02*
X009303Y032596D01*
X009303Y032477D02*
X009321Y032477D01*
X009321Y032359D02*
X009303Y032359D01*
X009167Y032359D02*
X006113Y032359D01*
X006115Y032355D02*
X006030Y032558D01*
X005875Y032713D01*
X005672Y032797D01*
X005452Y032797D01*
X005249Y032713D01*
X005094Y032558D01*
X005072Y032505D01*
X005052Y032545D01*
X004999Y032618D01*
X004935Y032682D01*
X004862Y032735D01*
X004782Y032776D01*
X004696Y032803D01*
X004622Y032815D01*
X004622Y032305D01*
X004502Y032305D01*
X004502Y032815D01*
X004428Y032803D01*
X004342Y032776D01*
X004262Y032735D01*
X004189Y032682D01*
X004125Y032618D01*
X004115Y032603D01*
X004115Y032715D01*
X004032Y032797D01*
X003092Y032797D01*
X003010Y032715D01*
X003010Y031775D01*
X003092Y031693D01*
X004032Y031693D01*
X004115Y031775D01*
X004115Y031887D01*
X004125Y031872D01*
X004189Y031808D01*
X004262Y031755D01*
X004342Y031714D01*
X004428Y031687D01*
X004502Y031675D01*
X004502Y032185D01*
X004622Y032185D01*
X004622Y031675D01*
X004696Y031687D01*
X004782Y031714D01*
X004862Y031755D01*
X004935Y031808D01*
X004999Y031872D01*
X005052Y031945D01*
X005072Y031985D01*
X005094Y031932D01*
X005249Y031777D01*
X005452Y031693D01*
X005672Y031693D01*
X005875Y031777D01*
X006030Y031932D01*
X006115Y032135D01*
X006115Y032355D01*
X006115Y032240D02*
X012260Y032240D01*
X012260Y032122D02*
X006109Y032122D01*
X006060Y032003D02*
X012260Y032003D01*
X012260Y031885D02*
X005983Y031885D01*
X005850Y031766D02*
X012260Y031766D01*
X012260Y031648D02*
X001392Y031648D01*
X001392Y031766D02*
X003018Y031766D01*
X003010Y031885D02*
X001392Y031885D01*
X001392Y032003D02*
X003010Y032003D01*
X003010Y032122D02*
X001392Y032122D01*
X001392Y032240D02*
X003010Y032240D01*
X003010Y032359D02*
X001392Y032359D01*
X001392Y032477D02*
X003010Y032477D01*
X003010Y032596D02*
X001392Y032596D01*
X001392Y032714D02*
X003010Y032714D01*
X004115Y032714D02*
X004234Y032714D01*
X004502Y032714D02*
X004622Y032714D01*
X004622Y032596D02*
X004502Y032596D01*
X004502Y032477D02*
X004622Y032477D01*
X004622Y032359D02*
X004502Y032359D01*
X004502Y032122D02*
X004622Y032122D01*
X004622Y032003D02*
X004502Y032003D01*
X004502Y031885D02*
X004622Y031885D01*
X004622Y031766D02*
X004502Y031766D01*
X004247Y031766D02*
X004106Y031766D01*
X004115Y031885D02*
X004116Y031885D01*
X004877Y031766D02*
X005275Y031766D01*
X005141Y031885D02*
X005008Y031885D01*
X005015Y032596D02*
X005131Y032596D01*
X005251Y032714D02*
X004890Y032714D01*
X005873Y032714D02*
X008914Y032714D01*
X008927Y032833D02*
X001392Y032833D01*
X001392Y032951D02*
X008982Y032951D01*
X008937Y032596D02*
X005993Y032596D01*
X006064Y032477D02*
X009002Y032477D01*
X009457Y032359D02*
X012260Y032359D01*
X012271Y032477D02*
X009622Y032477D01*
X009687Y032596D02*
X044233Y032596D01*
X044524Y032596D02*
X044600Y032596D01*
X044600Y032714D02*
X044524Y032714D01*
X044524Y032833D02*
X044600Y032833D01*
X044600Y033070D02*
X044524Y033070D01*
X044524Y033188D02*
X044600Y033188D01*
X044600Y033307D02*
X044524Y033307D01*
X044795Y033307D02*
X045372Y033307D01*
X045220Y033188D02*
X044926Y033188D01*
X044991Y033070D02*
X045154Y033070D01*
X045125Y032833D02*
X045012Y032833D01*
X044974Y032714D02*
X045171Y032714D01*
X045261Y032596D02*
X044891Y032596D01*
X044772Y032240D02*
X044380Y032240D01*
X044468Y032122D02*
X044676Y032122D01*
X044627Y032003D02*
X044510Y032003D01*
X043812Y031529D02*
X035108Y031529D01*
X033516Y031529D02*
X033108Y031529D01*
X033187Y031411D02*
X033437Y031411D01*
X033402Y031292D02*
X033222Y031292D01*
X033222Y031174D02*
X033402Y031174D01*
X033447Y031055D02*
X033177Y031055D01*
X033083Y030937D02*
X033541Y030937D01*
X032541Y030937D02*
X032083Y030937D01*
X032177Y031055D02*
X032447Y031055D01*
X032402Y031174D02*
X032222Y031174D01*
X032222Y031292D02*
X032402Y031292D01*
X032437Y031411D02*
X032187Y031411D01*
X032108Y031529D02*
X032516Y031529D01*
X031516Y031529D02*
X031108Y031529D01*
X031187Y031411D02*
X031437Y031411D01*
X031402Y031292D02*
X031222Y031292D01*
X031222Y031174D02*
X031402Y031174D01*
X031447Y031055D02*
X031177Y031055D01*
X031083Y030937D02*
X031541Y030937D01*
X030541Y030937D02*
X030083Y030937D01*
X030177Y031055D02*
X030447Y031055D01*
X030402Y031174D02*
X030222Y031174D01*
X030222Y031292D02*
X030402Y031292D01*
X030437Y031411D02*
X030187Y031411D01*
X030108Y031529D02*
X030516Y031529D01*
X029516Y031529D02*
X029108Y031529D01*
X029187Y031411D02*
X029437Y031411D01*
X029402Y031292D02*
X029222Y031292D01*
X029222Y031174D02*
X029402Y031174D01*
X029447Y031055D02*
X029177Y031055D01*
X029083Y030937D02*
X029541Y030937D01*
X028863Y030463D02*
X053232Y030463D01*
X053232Y030581D02*
X028745Y030581D01*
X028626Y030700D02*
X053232Y030700D01*
X053232Y030818D02*
X028508Y030818D01*
X028541Y030937D02*
X028389Y030937D01*
X028447Y031055D02*
X028271Y031055D01*
X028222Y031174D02*
X028402Y031174D01*
X028402Y031292D02*
X028222Y031292D01*
X028187Y031411D02*
X028437Y031411D01*
X028516Y031529D02*
X028108Y031529D01*
X027516Y031529D02*
X027108Y031529D01*
X027187Y031411D02*
X027437Y031411D01*
X027402Y031292D02*
X027222Y031292D01*
X027222Y031174D02*
X027402Y031174D01*
X027447Y031055D02*
X027177Y031055D01*
X027083Y030937D02*
X027541Y030937D01*
X027970Y030818D02*
X026502Y030818D01*
X026502Y030700D02*
X028089Y030700D01*
X028207Y030581D02*
X026502Y030581D01*
X026502Y030463D02*
X028326Y030463D01*
X028444Y030344D02*
X026502Y030344D01*
X026520Y030226D02*
X028563Y030226D01*
X028681Y030107D02*
X026601Y030107D01*
X026622Y029989D02*
X028800Y029989D01*
X028918Y029870D02*
X026596Y029870D01*
X026576Y029752D02*
X026548Y029752D01*
X027048Y029752D02*
X029037Y029752D01*
X029155Y029633D02*
X027132Y029633D01*
X027160Y029515D02*
X029274Y029515D01*
X029392Y029396D02*
X027148Y029396D01*
X027087Y029278D02*
X027934Y029278D01*
X028190Y029278D02*
X029511Y029278D01*
X029629Y029159D02*
X028330Y029159D01*
X028372Y029041D02*
X029465Y029041D01*
X029659Y029041D02*
X029748Y029041D01*
X029823Y028922D02*
X029866Y028922D01*
X029872Y028804D02*
X029985Y028804D01*
X029891Y028685D02*
X030103Y028685D01*
X030122Y028666D02*
X030122Y028666D01*
X030222Y028567D02*
X030009Y028567D01*
X030297Y028448D02*
X030469Y028448D01*
X030378Y028330D02*
X030363Y028330D01*
X030678Y028093D02*
X048239Y028093D01*
X048239Y028090D02*
X048250Y028049D01*
X048271Y028013D01*
X048300Y027983D01*
X048337Y027962D01*
X048378Y027951D01*
X048752Y027951D01*
X048752Y028465D01*
X048239Y028465D01*
X048239Y028090D01*
X048239Y028211D02*
X030797Y028211D01*
X030915Y028330D02*
X048239Y028330D01*
X048239Y028448D02*
X031034Y028448D01*
X031152Y028567D02*
X048752Y028567D01*
X048752Y028585D02*
X048752Y028465D01*
X048872Y028465D01*
X048872Y028585D01*
X048752Y028585D01*
X048752Y029098D01*
X048378Y029098D01*
X048337Y029087D01*
X048300Y029066D01*
X048271Y029036D01*
X048250Y029000D01*
X048239Y028959D01*
X048239Y028585D01*
X048752Y028585D01*
X048752Y028685D02*
X048872Y028685D01*
X048872Y028585D02*
X048872Y029098D01*
X049246Y029098D01*
X049287Y029087D01*
X049324Y029066D01*
X049353Y029036D01*
X049374Y029000D01*
X049385Y028959D01*
X049385Y028585D01*
X048872Y028585D01*
X048872Y028567D02*
X053232Y028567D01*
X053232Y028685D02*
X049385Y028685D01*
X049385Y028804D02*
X053232Y028804D01*
X053232Y028922D02*
X049385Y028922D01*
X049349Y029041D02*
X053232Y029041D01*
X053232Y029159D02*
X030917Y029159D01*
X031035Y029041D02*
X048275Y029041D01*
X048239Y028922D02*
X031154Y028922D01*
X031252Y028804D02*
X048239Y028804D01*
X048239Y028685D02*
X031252Y028685D01*
X030560Y027974D02*
X048316Y027974D01*
X048752Y027974D02*
X048872Y027974D01*
X048872Y027951D02*
X049246Y027951D01*
X049287Y027962D01*
X049324Y027983D01*
X049353Y028013D01*
X049374Y028049D01*
X049385Y028090D01*
X049385Y028465D01*
X048872Y028465D01*
X048872Y027951D01*
X048872Y028093D02*
X048752Y028093D01*
X048752Y028211D02*
X048872Y028211D01*
X048872Y028330D02*
X048752Y028330D01*
X048752Y028448D02*
X048872Y028448D01*
X048872Y028804D02*
X048752Y028804D01*
X048752Y028922D02*
X048872Y028922D01*
X048872Y029041D02*
X048752Y029041D01*
X049385Y028448D02*
X053232Y028448D01*
X053232Y028330D02*
X049385Y028330D01*
X049385Y028211D02*
X053232Y028211D01*
X053232Y028093D02*
X049385Y028093D01*
X049308Y027974D02*
X053232Y027974D01*
X053232Y027856D02*
X030441Y027856D01*
X030323Y027737D02*
X053232Y027737D01*
X053232Y027619D02*
X030204Y027619D01*
X030245Y027500D02*
X037513Y027500D01*
X037513Y027501D02*
X037513Y026989D01*
X037595Y026907D01*
X038108Y026907D01*
X038190Y026989D01*
X038190Y027501D01*
X038108Y027583D01*
X037595Y027583D01*
X037513Y027501D01*
X037513Y027382D02*
X030341Y027382D01*
X030372Y027263D02*
X037513Y027263D01*
X037513Y027145D02*
X030356Y027145D01*
X030281Y027026D02*
X037513Y027026D01*
X037594Y026908D02*
X018102Y026908D01*
X018102Y027026D02*
X023093Y027026D01*
X023018Y027145D02*
X018102Y027145D01*
X018055Y027263D02*
X023002Y027263D01*
X023531Y027026D02*
X029843Y027026D01*
X029644Y027145D02*
X023606Y027145D01*
X023622Y027263D02*
X029525Y027263D01*
X029407Y027382D02*
X023717Y027382D01*
X023836Y027500D02*
X029288Y027500D01*
X029170Y027619D02*
X023954Y027619D01*
X024073Y027737D02*
X029051Y027737D01*
X028933Y027856D02*
X024191Y027856D01*
X024310Y027974D02*
X028814Y027974D01*
X028696Y028093D02*
X024428Y028093D01*
X024687Y028211D02*
X028577Y028211D01*
X028459Y028330D02*
X024829Y028330D01*
X024872Y028448D02*
X028340Y028448D01*
X028103Y028685D02*
X028000Y028685D01*
X028404Y028922D02*
X029301Y028922D01*
X029252Y028804D02*
X029127Y028804D01*
X028997Y028804D02*
X028522Y028804D01*
X028641Y028685D02*
X028814Y028685D01*
X029811Y029515D02*
X030002Y029515D01*
X030017Y029396D02*
X029930Y029396D01*
X030048Y029278D02*
X030091Y029278D01*
X030167Y029159D02*
X030379Y029159D01*
X030465Y029041D02*
X030285Y029041D01*
X030680Y029396D02*
X044083Y029396D01*
X044080Y029397D02*
X044230Y029335D01*
X044394Y029335D01*
X044544Y029397D01*
X044660Y029513D01*
X044722Y029663D01*
X044722Y029827D01*
X044660Y029977D01*
X044544Y030093D01*
X044394Y030155D01*
X044230Y030155D01*
X044080Y030093D01*
X043964Y029977D01*
X043902Y029827D01*
X043902Y029663D01*
X043964Y029513D01*
X044080Y029397D01*
X043964Y029515D02*
X030622Y029515D01*
X030590Y029633D02*
X043915Y029633D01*
X043902Y029752D02*
X030494Y029752D01*
X030130Y029752D02*
X029574Y029752D01*
X029456Y029870D02*
X043920Y029870D01*
X043976Y029989D02*
X029337Y029989D01*
X029219Y030107D02*
X044115Y030107D01*
X044509Y030107D02*
X045115Y030107D01*
X045080Y030093D02*
X044964Y029977D01*
X044902Y029827D01*
X044902Y029663D01*
X044964Y029513D01*
X045080Y029397D01*
X045230Y029335D01*
X045394Y029335D01*
X045544Y029397D01*
X045660Y029513D01*
X045722Y029663D01*
X045722Y029827D01*
X045660Y029977D01*
X045544Y030093D01*
X045394Y030155D01*
X045230Y030155D01*
X045080Y030093D01*
X044976Y029989D02*
X044648Y029989D01*
X044704Y029870D02*
X044920Y029870D01*
X044902Y029752D02*
X044722Y029752D01*
X044709Y029633D02*
X044915Y029633D01*
X044964Y029515D02*
X044660Y029515D01*
X044541Y029396D02*
X045083Y029396D01*
X045541Y029396D02*
X046083Y029396D01*
X046080Y029397D02*
X046230Y029335D01*
X046394Y029335D01*
X046544Y029397D01*
X046660Y029513D01*
X046722Y029663D01*
X046722Y029827D01*
X046660Y029977D01*
X046544Y030093D01*
X046394Y030155D01*
X046230Y030155D01*
X046080Y030093D01*
X045964Y029977D01*
X045902Y029827D01*
X045902Y029663D01*
X045964Y029513D01*
X046080Y029397D01*
X045964Y029515D02*
X045660Y029515D01*
X045709Y029633D02*
X045915Y029633D01*
X045902Y029752D02*
X045722Y029752D01*
X045704Y029870D02*
X045920Y029870D01*
X045976Y029989D02*
X045648Y029989D01*
X045509Y030107D02*
X046115Y030107D01*
X046509Y030107D02*
X047115Y030107D01*
X047080Y030093D02*
X046964Y029977D01*
X046902Y029827D01*
X046902Y029663D01*
X046964Y029513D01*
X047080Y029397D01*
X047230Y029335D01*
X047394Y029335D01*
X047544Y029397D01*
X047660Y029513D01*
X047722Y029663D01*
X047722Y029827D01*
X047660Y029977D01*
X047544Y030093D01*
X047394Y030155D01*
X047230Y030155D01*
X047080Y030093D01*
X046976Y029989D02*
X046648Y029989D01*
X046704Y029870D02*
X046920Y029870D01*
X046902Y029752D02*
X046722Y029752D01*
X046709Y029633D02*
X046915Y029633D01*
X046964Y029515D02*
X046660Y029515D01*
X046541Y029396D02*
X047083Y029396D01*
X047541Y029396D02*
X053232Y029396D01*
X053232Y029278D02*
X030798Y029278D01*
X030034Y029633D02*
X029693Y029633D01*
X029100Y030226D02*
X053232Y030226D01*
X053232Y030344D02*
X028982Y030344D01*
X026541Y030937D02*
X026389Y030937D01*
X026447Y031055D02*
X026271Y031055D01*
X026222Y031174D02*
X026402Y031174D01*
X026402Y031292D02*
X026222Y031292D01*
X026187Y031411D02*
X026437Y031411D01*
X026516Y031529D02*
X026108Y031529D01*
X025516Y031529D02*
X025108Y031529D01*
X025187Y031411D02*
X025437Y031411D01*
X025402Y031292D02*
X025222Y031292D01*
X025222Y031174D02*
X025402Y031174D01*
X025447Y031055D02*
X025177Y031055D01*
X025083Y030937D02*
X025541Y030937D01*
X025970Y030818D02*
X024654Y030818D01*
X024535Y030700D02*
X026089Y030700D01*
X026122Y030581D02*
X024417Y030581D01*
X024372Y030463D02*
X026122Y030463D01*
X026122Y030344D02*
X024335Y030344D01*
X024222Y030226D02*
X026104Y030226D01*
X026023Y030107D02*
X020761Y030107D01*
X020643Y030226D02*
X023902Y030226D01*
X023789Y030344D02*
X020524Y030344D01*
X020406Y030463D02*
X023752Y030463D01*
X023762Y030581D02*
X020287Y030581D01*
X020169Y030700D02*
X023828Y030700D01*
X023837Y030818D02*
X023787Y030818D01*
X023759Y030818D02*
X020050Y030818D01*
X019932Y030937D02*
X023512Y030937D01*
X023426Y031055D02*
X019813Y031055D01*
X019695Y031174D02*
X023388Y031174D01*
X023384Y031292D02*
X019650Y031292D01*
X019650Y031411D02*
X023414Y031411D01*
X023488Y031529D02*
X019622Y031529D01*
X019428Y030818D02*
X009690Y030818D01*
X009690Y030700D02*
X019546Y030700D01*
X019665Y030581D02*
X009690Y030581D01*
X009687Y030463D02*
X019783Y030463D01*
X019026Y030937D02*
X009690Y030937D01*
X009690Y031055D02*
X018974Y031055D01*
X020880Y029989D02*
X026002Y029989D01*
X025514Y029278D02*
X022903Y029278D01*
X022943Y029159D02*
X025661Y029159D01*
X024116Y030818D02*
X023865Y030818D01*
X023837Y030937D02*
X023787Y030937D01*
X023787Y031055D02*
X023837Y031055D01*
X023837Y031174D02*
X023787Y031174D01*
X023787Y031292D02*
X023837Y031292D01*
X023837Y031411D02*
X023787Y031411D01*
X023787Y031529D02*
X023837Y031529D01*
X024136Y031529D02*
X024516Y031529D01*
X024437Y031411D02*
X024210Y031411D01*
X024240Y031292D02*
X024402Y031292D01*
X024402Y031174D02*
X024236Y031174D01*
X024198Y031055D02*
X024353Y031055D01*
X024235Y030937D02*
X024112Y030937D01*
X023655Y033070D02*
X035799Y033070D01*
X035752Y033188D02*
X023881Y033188D01*
X024062Y033307D02*
X035752Y033307D01*
X034344Y034966D02*
X034280Y034966D01*
X036025Y035440D02*
X037238Y035440D01*
X037356Y035558D02*
X036144Y035558D01*
X036262Y035677D02*
X037475Y035677D01*
X037502Y035795D02*
X036381Y035795D01*
X036499Y035914D02*
X037546Y035914D01*
X037695Y036032D02*
X036502Y036032D01*
X036502Y036388D02*
X036771Y036388D01*
X036752Y036433D02*
X036799Y036319D01*
X036886Y036232D01*
X036752Y036433D02*
X036752Y036557D01*
X036799Y036671D01*
X036872Y036743D01*
X036502Y036743D01*
X036502Y036625D02*
X036780Y036625D01*
X036752Y036506D02*
X036502Y036506D01*
X036502Y036862D02*
X036872Y036862D01*
X036872Y036916D02*
X036872Y036743D01*
X036872Y036916D02*
X036853Y036935D01*
X036750Y036935D01*
X036636Y036982D01*
X036549Y037069D01*
X036502Y037183D01*
X036502Y037307D01*
X036549Y037421D01*
X036636Y037508D01*
X036750Y037555D01*
X036874Y037555D01*
X036988Y037508D01*
X037075Y037421D01*
X037122Y037307D01*
X037122Y037204D01*
X037252Y037074D01*
X037252Y036916D01*
X037252Y036743D01*
X037252Y036862D02*
X038910Y036862D01*
X039028Y036980D02*
X037252Y036980D01*
X037227Y037099D02*
X039147Y037099D01*
X039265Y037217D02*
X037122Y037217D01*
X037110Y037336D02*
X039384Y037336D01*
X039502Y037454D02*
X037041Y037454D01*
X036583Y037454D02*
X036502Y037454D01*
X036502Y037336D02*
X036514Y037336D01*
X036502Y037217D02*
X036502Y037217D01*
X036502Y037099D02*
X036537Y037099D01*
X036502Y036980D02*
X036642Y036980D01*
X036502Y037573D02*
X039621Y037573D01*
X039365Y037810D02*
X038759Y037810D01*
X038920Y037928D02*
X039204Y037928D01*
X039127Y038047D02*
X038997Y038047D01*
X039040Y038165D02*
X039085Y038165D01*
X039085Y038284D02*
X039040Y038284D01*
X039014Y038402D02*
X039110Y038402D01*
X039162Y038521D02*
X038962Y038521D01*
X038843Y038639D02*
X039281Y038639D01*
X040540Y037454D02*
X040954Y037454D01*
X039473Y036388D02*
X043071Y036388D01*
X042877Y036269D02*
X039355Y036269D01*
X039236Y036151D02*
X042759Y036151D01*
X042661Y036032D02*
X039118Y036032D01*
X035122Y037336D02*
X032240Y037336D01*
X032122Y037454D02*
X035122Y037454D01*
X035122Y037573D02*
X032003Y037573D01*
X033509Y037810D02*
X034115Y037810D01*
X033954Y037928D02*
X033670Y037928D01*
X033747Y038047D02*
X033877Y038047D01*
X033835Y038165D02*
X033790Y038165D01*
X033790Y038284D02*
X033835Y038284D01*
X033860Y038402D02*
X033764Y038402D01*
X033712Y038521D02*
X033912Y038521D01*
X033546Y038876D02*
X031848Y038876D01*
X031872Y038995D02*
X033502Y038995D01*
X033505Y039113D02*
X031849Y039113D01*
X031764Y039232D02*
X033560Y039232D01*
X030424Y038876D02*
X001392Y038876D01*
X001392Y038758D02*
X030306Y038758D01*
X030187Y038639D02*
X030093Y038639D01*
X025940Y037099D02*
X024684Y037099D01*
X024951Y037217D02*
X025821Y037217D01*
X023837Y036032D02*
X023787Y036032D01*
X023787Y035914D02*
X023837Y035914D01*
X023837Y035795D02*
X023787Y035795D01*
X023787Y035677D02*
X023837Y035677D01*
X023837Y035558D02*
X023787Y035558D01*
X023787Y035440D02*
X023837Y035440D01*
X023691Y033781D02*
X001392Y033781D01*
X001392Y033899D02*
X030889Y033899D01*
X030606Y032477D02*
X015092Y032477D01*
X014532Y032477D02*
X014122Y032477D01*
X014256Y032359D02*
X014394Y032359D01*
X013872Y032359D02*
X013752Y032359D01*
X013752Y032477D02*
X013872Y032477D01*
X013872Y032240D02*
X013752Y032240D01*
X013752Y032122D02*
X013872Y032122D01*
X013872Y031885D02*
X013752Y031885D01*
X013752Y031766D02*
X013872Y031766D01*
X013872Y031648D02*
X013752Y031648D01*
X013752Y031529D02*
X013872Y031529D01*
X014145Y031529D02*
X014497Y031529D01*
X014378Y031648D02*
X014267Y031648D01*
X013479Y031529D02*
X013365Y031529D01*
X013365Y032359D02*
X013369Y032359D01*
X013353Y032477D02*
X013502Y032477D01*
X012260Y031529D02*
X001392Y031529D01*
X001392Y033307D02*
X023355Y033307D01*
X023473Y033425D02*
X001392Y033425D01*
X001392Y033544D02*
X023502Y033544D01*
X023546Y033662D02*
X001392Y033662D01*
X001392Y034729D02*
X002587Y034729D01*
X002287Y034847D02*
X001392Y034847D01*
X001392Y034966D02*
X002121Y034966D01*
X002002Y035084D02*
X001392Y035084D01*
X001392Y035203D02*
X001924Y035203D01*
X001856Y035321D02*
X001392Y035321D01*
X001392Y035440D02*
X001817Y035440D01*
X001785Y035558D02*
X001392Y035558D01*
X001392Y035677D02*
X001772Y035677D01*
X001772Y035795D02*
X001392Y035795D01*
X001392Y035914D02*
X001780Y035914D01*
X001812Y036032D02*
X001392Y036032D01*
X001392Y036151D02*
X001845Y036151D01*
X001914Y036269D02*
X001392Y036269D01*
X001392Y036388D02*
X001984Y036388D01*
X002102Y036506D02*
X001392Y036506D01*
X001392Y036625D02*
X002255Y036625D01*
X002519Y036743D02*
X001392Y036743D01*
X001392Y037810D02*
X004346Y037810D01*
X004346Y037809D02*
X004376Y037779D01*
X004413Y037758D01*
X004453Y037748D01*
X004760Y037748D01*
X004760Y038192D01*
X004865Y038192D01*
X004865Y037747D01*
X005171Y037748D01*
X005211Y037758D01*
X005248Y037779D01*
X005278Y037809D01*
X005299Y037846D01*
X005310Y037886D01*
X005310Y038192D01*
X004865Y038192D01*
X004865Y038298D01*
X004760Y038298D01*
X004760Y038742D01*
X004453Y038742D01*
X004413Y038732D01*
X004376Y038711D01*
X004346Y038681D01*
X004325Y038644D01*
X004315Y038604D01*
X004315Y038298D01*
X004759Y038298D01*
X004759Y038192D01*
X004315Y038192D01*
X004315Y037886D01*
X004325Y037846D01*
X004346Y037809D01*
X004315Y037928D02*
X001392Y037928D01*
X001392Y038047D02*
X004315Y038047D01*
X004315Y038165D02*
X001392Y038165D01*
X001392Y038284D02*
X004759Y038284D01*
X004865Y038284D02*
X005335Y038284D01*
X005310Y038298D02*
X005310Y038604D01*
X005299Y038644D01*
X005278Y038681D01*
X005248Y038711D01*
X005211Y038732D01*
X005171Y038742D01*
X004865Y038742D01*
X004865Y038298D01*
X005310Y038298D01*
X005335Y038340D02*
X005335Y038150D01*
X005407Y037975D01*
X005542Y037840D01*
X005717Y037768D01*
X005907Y037768D01*
X006082Y037840D01*
X006217Y037975D01*
X006290Y038150D01*
X006290Y038340D01*
X006217Y038515D01*
X006082Y038650D01*
X005907Y038722D01*
X005717Y038722D01*
X005542Y038650D01*
X005407Y038515D01*
X005335Y038340D01*
X005310Y038402D02*
X005360Y038402D01*
X005310Y038521D02*
X005412Y038521D01*
X005300Y038639D02*
X005531Y038639D01*
X005335Y038165D02*
X005310Y038165D01*
X005310Y038047D02*
X005377Y038047D01*
X005310Y037928D02*
X005454Y037928D01*
X005615Y037810D02*
X005278Y037810D01*
X004865Y037810D02*
X004760Y037810D01*
X004760Y037928D02*
X004865Y037928D01*
X004865Y038047D02*
X004760Y038047D01*
X004760Y038165D02*
X004865Y038165D01*
X004865Y038402D02*
X004760Y038402D01*
X004760Y038521D02*
X004865Y038521D01*
X004865Y038639D02*
X004760Y038639D01*
X004324Y038639D02*
X001392Y038639D01*
X001392Y038521D02*
X004315Y038521D01*
X004315Y038402D02*
X001392Y038402D01*
X001392Y039469D02*
X053232Y039469D01*
X053232Y039587D02*
X001392Y039587D01*
X006093Y038639D02*
X006531Y038639D01*
X006542Y038650D02*
X006407Y038515D01*
X006335Y038340D01*
X006335Y038150D01*
X006407Y037975D01*
X006542Y037840D01*
X006717Y037768D01*
X006907Y037768D01*
X007082Y037840D01*
X007217Y037975D01*
X007290Y038150D01*
X007290Y038340D01*
X007217Y038515D01*
X007082Y038650D01*
X006907Y038722D01*
X006717Y038722D01*
X006542Y038650D01*
X006412Y038521D02*
X006212Y038521D01*
X006264Y038402D02*
X006360Y038402D01*
X006335Y038284D02*
X006290Y038284D01*
X006290Y038165D02*
X006335Y038165D01*
X006377Y038047D02*
X006247Y038047D01*
X006170Y037928D02*
X006454Y037928D01*
X006615Y037810D02*
X006009Y037810D01*
X007009Y037810D02*
X007615Y037810D01*
X007542Y037840D02*
X007717Y037768D01*
X007907Y037768D01*
X008082Y037840D01*
X008217Y037975D01*
X008290Y038150D01*
X008290Y038340D01*
X008217Y038515D01*
X008082Y038650D01*
X007907Y038722D01*
X007717Y038722D01*
X007542Y038650D01*
X007407Y038515D01*
X007335Y038340D01*
X007335Y038150D01*
X007407Y037975D01*
X007542Y037840D01*
X007454Y037928D02*
X007170Y037928D01*
X007247Y038047D02*
X007377Y038047D01*
X007335Y038165D02*
X007290Y038165D01*
X007290Y038284D02*
X007335Y038284D01*
X007360Y038402D02*
X007264Y038402D01*
X007212Y038521D02*
X007412Y038521D01*
X007531Y038639D02*
X007093Y038639D01*
X008093Y038639D02*
X008531Y038639D01*
X008542Y038650D02*
X008407Y038515D01*
X008335Y038340D01*
X008335Y038150D01*
X008407Y037975D01*
X008542Y037840D01*
X008717Y037768D01*
X008907Y037768D01*
X009082Y037840D01*
X009217Y037975D01*
X009290Y038150D01*
X009290Y038340D01*
X009217Y038515D01*
X009082Y038650D01*
X008907Y038722D01*
X008717Y038722D01*
X008542Y038650D01*
X008412Y038521D02*
X008212Y038521D01*
X008264Y038402D02*
X008360Y038402D01*
X008335Y038284D02*
X008290Y038284D01*
X008290Y038165D02*
X008335Y038165D01*
X008377Y038047D02*
X008247Y038047D01*
X008170Y037928D02*
X008454Y037928D01*
X008615Y037810D02*
X008009Y037810D01*
X009009Y037810D02*
X009846Y037810D01*
X009846Y037809D02*
X009876Y037779D01*
X009913Y037758D01*
X009953Y037748D01*
X010260Y037748D01*
X010260Y038192D01*
X010365Y038192D01*
X010365Y037747D01*
X010671Y037748D01*
X010711Y037758D01*
X010748Y037779D01*
X010778Y037809D01*
X010799Y037846D01*
X010810Y037886D01*
X010810Y038192D01*
X010365Y038192D01*
X010365Y038298D01*
X010260Y038298D01*
X010260Y038742D01*
X009953Y038742D01*
X009913Y038732D01*
X009876Y038711D01*
X009846Y038681D01*
X009825Y038644D01*
X009815Y038604D01*
X009815Y038298D01*
X010259Y038298D01*
X010259Y038192D01*
X009815Y038192D01*
X009815Y037886D01*
X009825Y037846D01*
X009846Y037809D01*
X009815Y037928D02*
X009170Y037928D01*
X009247Y038047D02*
X009815Y038047D01*
X009815Y038165D02*
X009290Y038165D01*
X009290Y038284D02*
X010259Y038284D01*
X010365Y038284D02*
X010835Y038284D01*
X010810Y038298D02*
X010810Y038604D01*
X010799Y038644D01*
X010778Y038681D01*
X010748Y038711D01*
X010711Y038732D01*
X010671Y038742D01*
X010365Y038742D01*
X010365Y038298D01*
X010810Y038298D01*
X010835Y038340D02*
X010835Y038150D01*
X010907Y037975D01*
X011042Y037840D01*
X011217Y037768D01*
X011407Y037768D01*
X011582Y037840D01*
X011717Y037975D01*
X011790Y038150D01*
X011790Y038340D01*
X011717Y038515D01*
X011582Y038650D01*
X011407Y038722D01*
X011217Y038722D01*
X011042Y038650D01*
X010907Y038515D01*
X010835Y038340D01*
X010810Y038402D02*
X010860Y038402D01*
X010810Y038521D02*
X010912Y038521D01*
X010800Y038639D02*
X011031Y038639D01*
X010835Y038165D02*
X010810Y038165D01*
X010810Y038047D02*
X010877Y038047D01*
X010810Y037928D02*
X010954Y037928D01*
X011115Y037810D02*
X010778Y037810D01*
X010365Y037810D02*
X010260Y037810D01*
X010260Y037928D02*
X010365Y037928D01*
X010365Y038047D02*
X010260Y038047D01*
X010260Y038165D02*
X010365Y038165D01*
X010365Y038402D02*
X010260Y038402D01*
X010260Y038521D02*
X010365Y038521D01*
X010365Y038639D02*
X010260Y038639D01*
X009824Y038639D02*
X009093Y038639D01*
X009212Y038521D02*
X009815Y038521D01*
X009815Y038402D02*
X009264Y038402D01*
X011509Y037810D02*
X012115Y037810D01*
X012042Y037840D02*
X012217Y037768D01*
X012407Y037768D01*
X012582Y037840D01*
X012717Y037975D01*
X012790Y038150D01*
X012790Y038340D01*
X012717Y038515D01*
X012582Y038650D01*
X012407Y038722D01*
X012217Y038722D01*
X012042Y038650D01*
X011907Y038515D01*
X011835Y038340D01*
X011835Y038150D01*
X011907Y037975D01*
X012042Y037840D01*
X011954Y037928D02*
X011670Y037928D01*
X011747Y038047D02*
X011877Y038047D01*
X011835Y038165D02*
X011790Y038165D01*
X011790Y038284D02*
X011835Y038284D01*
X011860Y038402D02*
X011764Y038402D01*
X011712Y038521D02*
X011912Y038521D01*
X012031Y038639D02*
X011593Y038639D01*
X012593Y038639D02*
X013031Y038639D01*
X012912Y038521D02*
X012712Y038521D01*
X012764Y038402D02*
X012860Y038402D01*
X012835Y038284D02*
X012790Y038284D01*
X012790Y038165D02*
X012835Y038165D01*
X012877Y038047D02*
X012747Y038047D01*
X012670Y037928D02*
X012954Y037928D01*
X013115Y037810D02*
X012509Y037810D01*
X013007Y035378D02*
X012935Y035348D01*
X012869Y035304D01*
X012814Y035249D01*
X012771Y035183D01*
X012741Y035111D01*
X012725Y035034D01*
X012725Y035004D01*
X013114Y035004D01*
X013114Y034986D01*
X013132Y034986D01*
X013132Y035004D01*
X013114Y035004D01*
X013114Y035393D01*
X013084Y035393D01*
X013007Y035378D01*
X013114Y035321D02*
X013132Y035321D01*
X013132Y035393D02*
X013162Y035393D01*
X013239Y035378D01*
X013311Y035348D01*
X013377Y035304D01*
X013432Y035249D01*
X013476Y035183D01*
X013506Y035111D01*
X013521Y035034D01*
X013521Y035004D01*
X013132Y035004D01*
X013132Y035393D01*
X013114Y035203D02*
X013132Y035203D01*
X013132Y035084D02*
X013114Y035084D01*
X013114Y034966D02*
X013132Y034966D01*
X013132Y034847D02*
X013114Y034847D01*
X013114Y034729D02*
X013132Y034729D01*
X013419Y034729D02*
X014123Y034729D01*
X014123Y034847D02*
X013492Y034847D01*
X013521Y034966D02*
X014123Y034966D01*
X014123Y035084D02*
X013511Y035084D01*
X013463Y035203D02*
X014123Y035203D01*
X014153Y035321D02*
X013351Y035321D01*
X012895Y035321D02*
X008391Y035321D01*
X008399Y035236D02*
X008010Y035236D01*
X008010Y035254D01*
X007992Y035254D01*
X007992Y035643D01*
X007962Y035643D01*
X007885Y035628D01*
X007813Y035598D01*
X007747Y035554D01*
X007692Y035499D01*
X007648Y035433D01*
X007618Y035361D01*
X007603Y035284D01*
X007603Y035254D01*
X007992Y035254D01*
X007992Y035236D01*
X008010Y035236D01*
X008010Y034847D01*
X008040Y034847D01*
X008117Y034862D01*
X008189Y034892D01*
X008255Y034936D01*
X008310Y034991D01*
X008354Y035057D01*
X008383Y035129D01*
X008399Y035206D01*
X008399Y035236D01*
X008398Y035203D02*
X012783Y035203D01*
X012735Y035084D02*
X008365Y035084D01*
X008284Y034966D02*
X012725Y034966D01*
X012754Y034847D02*
X003337Y034847D01*
X003503Y034966D02*
X006245Y034966D01*
X006245Y034949D02*
X006327Y034867D01*
X006919Y034867D01*
X007001Y034949D01*
X007001Y035541D01*
X006919Y035623D01*
X006327Y035623D01*
X006245Y035541D01*
X006245Y034949D01*
X006245Y035084D02*
X003622Y035084D01*
X003700Y035203D02*
X006245Y035203D01*
X006245Y035321D02*
X003768Y035321D01*
X003807Y035440D02*
X006245Y035440D01*
X006263Y035558D02*
X003839Y035558D01*
X003037Y034729D02*
X012827Y034729D01*
X008010Y034966D02*
X007992Y034966D01*
X007992Y035084D02*
X008010Y035084D01*
X008010Y035203D02*
X007992Y035203D01*
X007992Y035236D02*
X007992Y034847D01*
X007962Y034847D01*
X007885Y034862D01*
X007813Y034892D01*
X007747Y034936D01*
X007692Y034991D01*
X007648Y035057D01*
X007618Y035129D01*
X007603Y035206D01*
X007603Y035236D01*
X007992Y035236D01*
X007992Y035321D02*
X008010Y035321D01*
X008010Y035440D02*
X007992Y035440D01*
X007992Y035558D02*
X008010Y035558D01*
X007754Y035558D02*
X006984Y035558D01*
X007001Y035440D02*
X007653Y035440D01*
X007611Y035321D02*
X007001Y035321D01*
X007001Y035203D02*
X007604Y035203D01*
X007637Y035084D02*
X007001Y035084D01*
X007001Y034966D02*
X007718Y034966D01*
X007392Y027357D02*
X006331Y027357D01*
X006249Y027275D01*
X006249Y026215D01*
X006331Y026133D01*
X007392Y026133D01*
X007474Y026215D01*
X007474Y027275D01*
X007392Y027357D01*
X007474Y027263D02*
X017042Y027263D01*
X016995Y027145D02*
X007474Y027145D01*
X007474Y027026D02*
X016995Y027026D01*
X016995Y026908D02*
X007474Y026908D01*
X007474Y026789D02*
X016995Y026789D01*
X016995Y026671D02*
X007474Y026671D01*
X007474Y026552D02*
X016995Y026552D01*
X016995Y026434D02*
X007474Y026434D01*
X007474Y026315D02*
X016995Y026315D01*
X016995Y026197D02*
X007456Y026197D01*
X006267Y026197D02*
X003456Y026197D01*
X003474Y026315D02*
X006249Y026315D01*
X006249Y026434D02*
X003474Y026434D01*
X003474Y026552D02*
X006249Y026552D01*
X006249Y026671D02*
X003474Y026671D01*
X003474Y026789D02*
X006249Y026789D01*
X006249Y026908D02*
X003474Y026908D01*
X003474Y027026D02*
X006249Y027026D01*
X006249Y027145D02*
X003474Y027145D01*
X003474Y027263D02*
X006249Y027263D01*
X006303Y023353D02*
X003420Y023353D01*
X003494Y023234D02*
X006229Y023234D01*
X006229Y023116D02*
X003494Y023116D01*
X003494Y022997D02*
X006229Y022997D01*
X006229Y022879D02*
X003494Y022879D01*
X003494Y022642D02*
X006229Y022642D01*
X006229Y022523D02*
X003494Y022523D01*
X003494Y022405D02*
X006229Y022405D01*
X006229Y022286D02*
X003494Y022286D01*
X003455Y022168D02*
X006268Y022168D01*
X006801Y022168D02*
X006921Y022168D01*
X006921Y022286D02*
X006801Y022286D01*
X006801Y022405D02*
X006921Y022405D01*
X006921Y022523D02*
X006801Y022523D01*
X006801Y022642D02*
X006921Y022642D01*
X006921Y022760D02*
X019227Y022760D01*
X019197Y022729D02*
X019197Y022166D01*
X019279Y022084D01*
X019841Y022084D01*
X019923Y022166D01*
X019923Y022729D01*
X019841Y022811D01*
X019279Y022811D01*
X019197Y022729D01*
X019197Y022642D02*
X007494Y022642D01*
X007494Y022523D02*
X019197Y022523D01*
X019197Y022405D02*
X007494Y022405D01*
X007494Y022286D02*
X019197Y022286D01*
X019197Y022168D02*
X007455Y022168D01*
X002921Y022168D02*
X002801Y022168D01*
X002801Y022286D02*
X002921Y022286D01*
X002921Y022405D02*
X002801Y022405D01*
X002801Y022523D02*
X002921Y022523D01*
X002921Y022642D02*
X002801Y022642D01*
X007442Y015058D02*
X035162Y015058D01*
X035162Y014939D02*
X007474Y014939D01*
X007474Y014821D02*
X028572Y014821D01*
X028465Y014702D02*
X007474Y014702D01*
X007474Y014584D02*
X027085Y014584D01*
X026970Y014465D02*
X007474Y014465D01*
X007474Y014347D02*
X026921Y014347D01*
X026912Y014228D02*
X007474Y014228D01*
X007474Y014110D02*
X026935Y014110D01*
X027000Y013991D02*
X007474Y013991D01*
X010002Y013754D02*
X010122Y013754D01*
X010122Y013636D02*
X010002Y013636D01*
X010002Y013517D02*
X010122Y013517D01*
X010122Y013399D02*
X010002Y013399D01*
X010002Y013043D02*
X010122Y013043D01*
X010122Y012925D02*
X010002Y012925D01*
X010002Y012806D02*
X010122Y012806D01*
X010614Y013399D02*
X053232Y013399D01*
X053232Y013517D02*
X010566Y013517D01*
X010481Y013636D02*
X053232Y013636D01*
X053232Y013754D02*
X010324Y013754D01*
X007483Y011029D02*
X039252Y011029D01*
X039252Y010921D02*
X038739Y010921D01*
X038739Y010547D01*
X038750Y010506D01*
X038771Y010470D01*
X038800Y010440D01*
X038837Y010419D01*
X038878Y010408D01*
X039252Y010408D01*
X039252Y010921D01*
X039252Y010910D02*
X039372Y010910D01*
X039372Y010792D02*
X039252Y010792D01*
X039252Y010673D02*
X039372Y010673D01*
X039372Y010555D02*
X039252Y010555D01*
X039252Y010436D02*
X039372Y010436D01*
X039817Y010436D02*
X039832Y010436D01*
X040792Y010436D02*
X040807Y010436D01*
X041252Y010436D02*
X041372Y010436D01*
X041372Y010555D02*
X041252Y010555D01*
X041252Y010673D02*
X041372Y010673D01*
X041372Y010792D02*
X041252Y010792D01*
X041252Y010910D02*
X041372Y010910D01*
X041372Y011029D02*
X043759Y011029D01*
X043759Y011147D02*
X041885Y011147D01*
X041885Y011266D02*
X043759Y011266D01*
X043759Y011384D02*
X041885Y011384D01*
X041844Y011503D02*
X043809Y011503D01*
X043759Y010910D02*
X041885Y010910D01*
X041885Y010792D02*
X043759Y010792D01*
X043759Y010673D02*
X041885Y010673D01*
X041885Y010555D02*
X043759Y010555D01*
X043832Y010436D02*
X041817Y010436D01*
X041372Y011147D02*
X041252Y011147D01*
X041252Y011266D02*
X041372Y011266D01*
X041372Y011384D02*
X041252Y011384D01*
X041252Y011503D02*
X041372Y011503D01*
X039372Y011503D02*
X039252Y011503D01*
X039252Y011384D02*
X039372Y011384D01*
X039372Y011266D02*
X039252Y011266D01*
X039252Y011147D02*
X039372Y011147D01*
X038739Y010910D02*
X007494Y010910D01*
X007494Y010792D02*
X038739Y010792D01*
X038739Y010673D02*
X007494Y010673D01*
X007494Y010318D02*
X012934Y010318D01*
X012934Y010199D02*
X007494Y010199D01*
X007494Y010081D02*
X012934Y010081D01*
X012934Y009962D02*
X007483Y009962D01*
X006921Y009962D02*
X006801Y009962D01*
X006801Y010081D02*
X006921Y010081D01*
X006921Y010199D02*
X006801Y010199D01*
X006801Y010792D02*
X006921Y010792D01*
X006921Y010910D02*
X006801Y010910D01*
X006801Y011029D02*
X006921Y011029D01*
X010496Y007592D02*
X018531Y007592D01*
X018531Y007474D02*
X010565Y007474D01*
X010614Y007355D02*
X018531Y007355D01*
X018531Y007237D02*
X010615Y007237D01*
X010607Y007118D02*
X018531Y007118D01*
X018531Y007000D02*
X010558Y007000D01*
X010479Y006881D02*
X018531Y006881D01*
X018531Y006763D02*
X010341Y006763D01*
X013321Y007863D02*
X013351Y007863D01*
X013428Y007878D01*
X013500Y007908D01*
X013566Y007952D01*
X013621Y008007D01*
X013665Y008072D01*
X013695Y008145D01*
X013710Y008222D01*
X013710Y008252D01*
X013321Y008252D01*
X013321Y007863D01*
X013321Y007948D02*
X013303Y007948D01*
X013303Y008066D02*
X013321Y008066D01*
X013321Y008185D02*
X013303Y008185D01*
X013303Y008303D02*
X013321Y008303D01*
X013321Y008422D02*
X013303Y008422D01*
X013303Y008540D02*
X013321Y008540D01*
X013595Y008540D02*
X049934Y008540D01*
X049934Y008557D02*
X049934Y007965D01*
X050016Y007883D01*
X050608Y007883D01*
X050690Y007965D01*
X050690Y008557D01*
X050608Y008639D01*
X050016Y008639D01*
X049934Y008557D01*
X049934Y008422D02*
X013676Y008422D01*
X013709Y008303D02*
X049934Y008303D01*
X049934Y008185D02*
X013702Y008185D01*
X013660Y008066D02*
X049934Y008066D01*
X049952Y007948D02*
X033039Y007948D01*
X033011Y007976D02*
X031713Y007976D01*
X031631Y007894D01*
X031631Y006596D01*
X031713Y006514D01*
X033011Y006514D01*
X033093Y006596D01*
X033093Y007894D01*
X033011Y007976D01*
X033093Y007829D02*
X053232Y007829D01*
X053232Y007711D02*
X033093Y007711D01*
X033093Y007592D02*
X053232Y007592D01*
X053232Y007474D02*
X033093Y007474D01*
X033093Y007355D02*
X053232Y007355D01*
X053232Y007237D02*
X033093Y007237D01*
X033093Y007118D02*
X053232Y007118D01*
X053232Y007000D02*
X033093Y007000D01*
X033093Y006881D02*
X053232Y006881D01*
X053232Y006763D02*
X033093Y006763D01*
X033093Y006644D02*
X053232Y006644D01*
X053232Y006526D02*
X033022Y006526D01*
X031702Y006526D02*
X019922Y006526D01*
X019993Y006644D02*
X031631Y006644D01*
X031631Y006763D02*
X019993Y006763D01*
X019993Y006881D02*
X031631Y006881D01*
X031631Y007000D02*
X019993Y007000D01*
X019993Y007118D02*
X031631Y007118D01*
X031631Y007237D02*
X019993Y007237D01*
X019993Y007355D02*
X031631Y007355D01*
X031631Y007474D02*
X019993Y007474D01*
X019993Y007592D02*
X031631Y007592D01*
X031631Y007711D02*
X019993Y007711D01*
X019993Y007829D02*
X031631Y007829D01*
X031685Y007948D02*
X019939Y007948D01*
X018585Y007948D02*
X013559Y007948D01*
X013690Y009962D02*
X050017Y009962D01*
X049943Y010081D02*
X013690Y010081D01*
X013690Y010199D02*
X049914Y010199D01*
X049924Y010318D02*
X013690Y010318D01*
X013690Y010436D02*
X038807Y010436D01*
X038739Y010555D02*
X013660Y010555D01*
X013690Y005222D02*
X053232Y005222D01*
X053232Y005104D02*
X013690Y005104D01*
X013690Y004985D02*
X053232Y004985D01*
X053232Y004867D02*
X013623Y004867D01*
X013351Y003659D02*
X013321Y003659D01*
X013321Y003270D01*
X013303Y003270D01*
X013303Y003659D01*
X013273Y003659D01*
X013196Y003643D01*
X013124Y003613D01*
X013058Y003570D01*
X013003Y003514D01*
X012959Y003449D01*
X012929Y003377D01*
X012914Y003300D01*
X012914Y003270D01*
X013303Y003270D01*
X013303Y003252D01*
X012914Y003252D01*
X012914Y003222D01*
X012929Y003145D01*
X012959Y003072D01*
X013003Y003007D01*
X013058Y002952D01*
X013124Y002908D01*
X013196Y002878D01*
X013273Y002863D01*
X013303Y002863D01*
X013303Y003252D01*
X013321Y003252D01*
X013321Y003270D01*
X013710Y003270D01*
X013710Y003300D01*
X013695Y003377D01*
X013665Y003449D01*
X013621Y003514D01*
X013566Y003570D01*
X013500Y003613D01*
X013428Y003643D01*
X013351Y003659D01*
X013321Y003563D02*
X013303Y003563D01*
X013303Y003445D02*
X013321Y003445D01*
X013321Y003326D02*
X013303Y003326D01*
X013321Y003252D02*
X013710Y003252D01*
X013710Y003222D01*
X013695Y003145D01*
X013665Y003072D01*
X013621Y003007D01*
X013566Y002952D01*
X013500Y002908D01*
X013428Y002878D01*
X013351Y002863D01*
X013321Y002863D01*
X013321Y003252D01*
X013321Y003208D02*
X013303Y003208D01*
X013303Y003089D02*
X013321Y003089D01*
X013321Y002971D02*
X013303Y002971D01*
X013040Y002971D02*
X008834Y002971D01*
X008816Y002952D02*
X008871Y003007D01*
X008915Y003072D01*
X008945Y003145D01*
X008960Y003222D01*
X008960Y003252D01*
X008571Y003252D01*
X008571Y003270D01*
X008553Y003270D01*
X008553Y003659D01*
X008523Y003659D01*
X008446Y003643D01*
X008374Y003613D01*
X008308Y003570D01*
X008253Y003514D01*
X008209Y003449D01*
X008179Y003377D01*
X008164Y003300D01*
X008164Y003270D01*
X008553Y003270D01*
X008553Y003252D01*
X008571Y003252D01*
X008571Y002863D01*
X008601Y002863D01*
X008678Y002878D01*
X008750Y002908D01*
X008816Y002952D01*
X008921Y003089D02*
X012953Y003089D01*
X012917Y003208D02*
X008957Y003208D01*
X008960Y003270D02*
X008960Y003300D01*
X008945Y003377D01*
X008915Y003449D01*
X008871Y003514D01*
X008816Y003570D01*
X008750Y003613D01*
X008678Y003643D01*
X008601Y003659D01*
X008571Y003659D01*
X008571Y003270D01*
X008960Y003270D01*
X008955Y003326D02*
X012919Y003326D01*
X012958Y003445D02*
X008916Y003445D01*
X008822Y003563D02*
X013052Y003563D01*
X013572Y003563D02*
X049966Y003563D01*
X049922Y003682D02*
X004172Y003682D01*
X004165Y003699D02*
X004121Y003764D01*
X004066Y003820D01*
X004000Y003863D01*
X003928Y003893D01*
X003851Y003909D01*
X003821Y003909D01*
X003821Y003520D01*
X003803Y003520D01*
X003803Y003502D01*
X003821Y003502D01*
X003821Y003520D01*
X004210Y003520D01*
X004210Y003550D01*
X004195Y003627D01*
X004165Y003699D01*
X004085Y003800D02*
X049914Y003800D01*
X050069Y003445D02*
X013666Y003445D01*
X013705Y003326D02*
X053232Y003326D01*
X053232Y003208D02*
X013707Y003208D01*
X013671Y003089D02*
X053232Y003089D01*
X053232Y002971D02*
X013584Y002971D01*
X008571Y002971D02*
X008553Y002971D01*
X008553Y003089D02*
X008571Y003089D01*
X008571Y003208D02*
X008553Y003208D01*
X008553Y003326D02*
X008571Y003326D01*
X008571Y003445D02*
X008553Y003445D01*
X008553Y003563D02*
X008571Y003563D01*
X008302Y003563D02*
X004207Y003563D01*
X004210Y003502D02*
X003821Y003502D01*
X003821Y003113D01*
X003851Y003113D01*
X003928Y003128D01*
X004000Y003158D01*
X004066Y003202D01*
X004121Y003257D01*
X004165Y003322D01*
X004195Y003395D01*
X004210Y003472D01*
X004210Y003502D01*
X004204Y003445D02*
X008208Y003445D01*
X008169Y003326D02*
X004166Y003326D01*
X004071Y003208D02*
X008167Y003208D01*
X003821Y003208D02*
X003803Y003208D01*
X003803Y003326D02*
X003821Y003326D01*
X003821Y003445D02*
X003803Y003445D01*
X003803Y003563D02*
X003821Y003563D01*
X003821Y003682D02*
X003803Y003682D01*
X003803Y003800D02*
X003821Y003800D01*
X027539Y014584D02*
X028416Y014584D01*
X028412Y014465D02*
X027654Y014465D01*
X027703Y014347D02*
X028441Y014347D01*
X028513Y014228D02*
X027712Y014228D01*
X029052Y014821D02*
X035162Y014821D01*
X035162Y014702D02*
X029159Y014702D01*
X029208Y014584D02*
X049979Y014584D01*
X049979Y014702D02*
X039835Y014702D01*
X039789Y014656D02*
X039901Y014768D01*
X039962Y014915D01*
X039962Y015075D01*
X039901Y015222D01*
X039789Y015334D01*
X039642Y015395D01*
X039482Y015395D01*
X039335Y015334D01*
X039223Y015222D01*
X039162Y015075D01*
X039162Y014915D01*
X039223Y014768D01*
X039335Y014656D01*
X039482Y014595D01*
X039642Y014595D01*
X039789Y014656D01*
X039923Y014821D02*
X049979Y014821D01*
X049979Y014939D02*
X039962Y014939D01*
X039962Y015058D02*
X049979Y015058D01*
X049979Y015176D02*
X039920Y015176D01*
X039828Y015295D02*
X050028Y015295D01*
X049979Y014465D02*
X029212Y014465D01*
X029183Y014347D02*
X049979Y014347D01*
X049995Y014228D02*
X029111Y014228D01*
X035962Y014702D02*
X039289Y014702D01*
X039201Y014821D02*
X035962Y014821D01*
X035962Y014939D02*
X039162Y014939D01*
X039162Y015058D02*
X035962Y015058D01*
X035962Y015176D02*
X039204Y015176D01*
X039296Y015295D02*
X035962Y015295D01*
X037162Y019205D02*
X033838Y019205D01*
X033924Y019324D02*
X037162Y019324D01*
X037162Y019442D02*
X033962Y019442D01*
X033962Y019561D02*
X037162Y019561D01*
X037162Y019679D02*
X033919Y019679D01*
X033825Y019798D02*
X037162Y019798D01*
X037335Y020156D02*
X037482Y020095D01*
X037642Y020095D01*
X037789Y020156D01*
X037901Y020268D01*
X037962Y020415D01*
X037962Y020575D01*
X037901Y020722D01*
X037789Y020834D01*
X037642Y020895D01*
X037482Y020895D01*
X037335Y020834D01*
X037223Y020722D01*
X037162Y020575D01*
X037162Y020415D01*
X037223Y020268D01*
X037335Y020156D01*
X037342Y020153D02*
X033938Y020153D01*
X033962Y020177D02*
X033880Y020095D01*
X033244Y020095D01*
X033162Y020177D01*
X033162Y020813D01*
X033244Y020895D01*
X033880Y020895D01*
X033962Y020813D01*
X033962Y020177D01*
X033962Y020272D02*
X037222Y020272D01*
X037173Y020390D02*
X033962Y020390D01*
X033962Y020509D02*
X037162Y020509D01*
X037184Y020627D02*
X033962Y020627D01*
X033962Y020746D02*
X037247Y020746D01*
X037408Y020864D02*
X033911Y020864D01*
X033213Y020864D02*
X029438Y020864D01*
X029615Y020983D02*
X051337Y020983D01*
X051456Y020864D02*
X046966Y020864D01*
X046658Y020864D02*
X037716Y020864D01*
X037877Y020746D02*
X046497Y020746D01*
X046434Y020627D02*
X037940Y020627D01*
X037962Y020509D02*
X046412Y020509D01*
X046423Y020390D02*
X037951Y020390D01*
X037902Y020272D02*
X046472Y020272D01*
X046592Y020153D02*
X037782Y020153D01*
X037603Y021457D02*
X038021Y021457D01*
X037939Y021575D02*
X037685Y021575D01*
X037722Y021694D02*
X037902Y021694D01*
X037902Y021812D02*
X037722Y021812D01*
X037679Y021931D02*
X037945Y021931D01*
X038036Y022049D02*
X037588Y022049D01*
X037036Y022049D02*
X036588Y022049D01*
X036679Y021931D02*
X036945Y021931D01*
X036902Y021812D02*
X036722Y021812D01*
X036722Y021694D02*
X036902Y021694D01*
X036939Y021575D02*
X036685Y021575D01*
X036603Y021457D02*
X037021Y021457D01*
X036021Y021457D02*
X035603Y021457D01*
X035685Y021575D02*
X035939Y021575D01*
X035902Y021694D02*
X035722Y021694D01*
X035722Y021812D02*
X035902Y021812D01*
X035945Y021931D02*
X035679Y021931D01*
X035588Y022049D02*
X036036Y022049D01*
X035036Y022049D02*
X034588Y022049D01*
X034679Y021931D02*
X034945Y021931D01*
X034902Y021812D02*
X034722Y021812D01*
X034722Y021694D02*
X034902Y021694D01*
X034939Y021575D02*
X034685Y021575D01*
X034603Y021457D02*
X035021Y021457D01*
X033162Y020746D02*
X018102Y020746D01*
X018102Y020864D02*
X029186Y020864D01*
X029009Y020983D02*
X018102Y020983D01*
X018102Y021101D02*
X028939Y021101D01*
X028912Y021220D02*
X018098Y021220D01*
X018102Y020627D02*
X033162Y020627D01*
X033162Y020509D02*
X018102Y020509D01*
X018102Y020390D02*
X033162Y020390D01*
X033162Y020272D02*
X018100Y020272D01*
X018102Y020153D02*
X033186Y020153D01*
X033200Y019324D02*
X018102Y019324D01*
X018102Y019442D02*
X029662Y019442D01*
X029662Y019561D02*
X018102Y019561D01*
X018102Y019679D02*
X029662Y019679D01*
X029662Y019798D02*
X018102Y019798D01*
X018102Y019916D02*
X029662Y019916D01*
X029662Y020035D02*
X018102Y020035D01*
X018102Y019205D02*
X033286Y019205D01*
X038603Y021457D02*
X039021Y021457D01*
X038939Y021575D02*
X038685Y021575D01*
X038722Y021694D02*
X038902Y021694D01*
X038902Y021812D02*
X038722Y021812D01*
X038679Y021931D02*
X038945Y021931D01*
X039036Y022049D02*
X038588Y022049D01*
X039588Y022049D02*
X040036Y022049D01*
X039945Y021931D02*
X039679Y021931D01*
X039722Y021812D02*
X039902Y021812D01*
X039902Y021694D02*
X039722Y021694D01*
X039685Y021575D02*
X039939Y021575D01*
X040021Y021457D02*
X039603Y021457D01*
X040603Y021457D02*
X040992Y021457D01*
X040916Y021575D02*
X040685Y021575D01*
X040722Y021694D02*
X040885Y021694D01*
X040887Y021812D02*
X040722Y021812D01*
X040679Y021931D02*
X040924Y021931D01*
X041008Y022049D02*
X040588Y022049D01*
X041287Y022049D02*
X041337Y022049D01*
X041337Y021931D02*
X041287Y021931D01*
X041287Y021812D02*
X041337Y021812D01*
X041337Y021694D02*
X041287Y021694D01*
X041287Y021575D02*
X041337Y021575D01*
X041337Y021457D02*
X041287Y021457D01*
X041632Y021457D02*
X042021Y021457D01*
X041939Y021575D02*
X041708Y021575D01*
X041739Y021694D02*
X041902Y021694D01*
X041902Y021812D02*
X041737Y021812D01*
X041700Y021931D02*
X041945Y021931D01*
X042036Y022049D02*
X041616Y022049D01*
X042588Y022049D02*
X043036Y022049D01*
X042945Y021931D02*
X042679Y021931D01*
X042722Y021812D02*
X042902Y021812D01*
X042902Y021694D02*
X042722Y021694D01*
X042685Y021575D02*
X042939Y021575D01*
X043021Y021457D02*
X042603Y021457D01*
X043603Y021457D02*
X044021Y021457D01*
X043939Y021575D02*
X043685Y021575D01*
X043722Y021694D02*
X043902Y021694D01*
X043902Y021812D02*
X043722Y021812D01*
X043679Y021931D02*
X043945Y021931D01*
X044036Y022049D02*
X043588Y022049D01*
X044588Y022049D02*
X045036Y022049D01*
X044945Y021931D02*
X044679Y021931D01*
X044722Y021812D02*
X044902Y021812D01*
X044902Y021694D02*
X044722Y021694D01*
X044685Y021575D02*
X044939Y021575D01*
X045021Y021457D02*
X044603Y021457D01*
X045603Y021457D02*
X046021Y021457D01*
X045939Y021575D02*
X045685Y021575D01*
X045722Y021694D02*
X045902Y021694D01*
X045902Y021812D02*
X045722Y021812D01*
X045679Y021931D02*
X045945Y021931D01*
X046036Y022049D02*
X045588Y022049D01*
X046588Y022049D02*
X047036Y022049D01*
X046945Y021931D02*
X046679Y021931D01*
X046722Y021812D02*
X046902Y021812D01*
X046902Y021694D02*
X046722Y021694D01*
X046685Y021575D02*
X046939Y021575D01*
X047021Y021457D02*
X046603Y021457D01*
X051010Y022760D02*
X051115Y022760D01*
X051115Y022879D02*
X051010Y022879D01*
X051010Y022997D02*
X051115Y022997D01*
X051115Y023298D02*
X051560Y023298D01*
X051560Y023604D01*
X051549Y023644D01*
X051528Y023681D01*
X051498Y023711D01*
X051461Y023732D01*
X051421Y023742D01*
X051115Y023742D01*
X051115Y023298D01*
X051115Y023353D02*
X051010Y023353D01*
X051010Y023471D02*
X051115Y023471D01*
X051115Y023590D02*
X051010Y023590D01*
X051010Y023708D02*
X051115Y023708D01*
X051500Y023708D02*
X053232Y023708D01*
X053232Y023590D02*
X051560Y023590D01*
X051560Y023471D02*
X053232Y023471D01*
X053232Y023353D02*
X051560Y023353D01*
X053232Y024301D02*
X018102Y024301D01*
X018102Y024419D02*
X034058Y024419D01*
X034080Y024397D02*
X034230Y024335D01*
X034394Y024335D01*
X034544Y024397D01*
X034660Y024513D01*
X034722Y024663D01*
X034722Y024827D01*
X034660Y024977D01*
X034544Y025093D01*
X034394Y025155D01*
X034230Y025155D01*
X034080Y025093D01*
X033964Y024977D01*
X033902Y024827D01*
X033902Y024663D01*
X033964Y024513D01*
X034080Y024397D01*
X033954Y024538D02*
X018102Y024538D01*
X018102Y024656D02*
X033905Y024656D01*
X033902Y024775D02*
X018102Y024775D01*
X018102Y024893D02*
X028946Y024893D01*
X028912Y024927D02*
X028994Y024845D01*
X029630Y024845D01*
X029712Y024927D01*
X029712Y025563D01*
X029630Y025645D01*
X028994Y025645D01*
X028912Y025563D01*
X028912Y024927D01*
X028912Y025012D02*
X018102Y025012D01*
X018102Y025130D02*
X028912Y025130D01*
X028912Y025249D02*
X018077Y025249D01*
X018102Y025367D02*
X028912Y025367D01*
X028912Y025486D02*
X018102Y025486D01*
X018102Y025604D02*
X028953Y025604D01*
X029671Y025604D02*
X048259Y025604D01*
X048259Y025494D02*
X048341Y025412D01*
X049283Y025412D01*
X049365Y025494D01*
X049365Y026437D01*
X049283Y026519D01*
X048341Y026519D01*
X048259Y026437D01*
X048259Y025494D01*
X048267Y025486D02*
X029712Y025486D01*
X029712Y025367D02*
X053232Y025367D01*
X053232Y025249D02*
X029712Y025249D01*
X029712Y025130D02*
X034170Y025130D01*
X033999Y025012D02*
X029712Y025012D01*
X029678Y024893D02*
X033930Y024893D01*
X034454Y025130D02*
X035170Y025130D01*
X035230Y025155D02*
X035080Y025093D01*
X034964Y024977D01*
X034902Y024827D01*
X034902Y024663D01*
X034964Y024513D01*
X035080Y024397D01*
X035230Y024335D01*
X035394Y024335D01*
X035544Y024397D01*
X035660Y024513D01*
X035722Y024663D01*
X035722Y024827D01*
X035660Y024977D01*
X035544Y025093D01*
X035394Y025155D01*
X035230Y025155D01*
X035454Y025130D02*
X036170Y025130D01*
X036230Y025155D02*
X036080Y025093D01*
X035964Y024977D01*
X035902Y024827D01*
X035902Y024663D01*
X035964Y024513D01*
X036080Y024397D01*
X036230Y024335D01*
X036394Y024335D01*
X036544Y024397D01*
X036660Y024513D01*
X036722Y024663D01*
X036722Y024827D01*
X036660Y024977D01*
X036544Y025093D01*
X036394Y025155D01*
X036230Y025155D01*
X036454Y025130D02*
X037170Y025130D01*
X037230Y025155D02*
X037080Y025093D01*
X036964Y024977D01*
X036902Y024827D01*
X036902Y024663D01*
X036964Y024513D01*
X037080Y024397D01*
X037230Y024335D01*
X037394Y024335D01*
X037544Y024397D01*
X037660Y024513D01*
X037722Y024663D01*
X037722Y024827D01*
X037660Y024977D01*
X037544Y025093D01*
X037394Y025155D01*
X037230Y025155D01*
X037454Y025130D02*
X038170Y025130D01*
X038230Y025155D02*
X038080Y025093D01*
X037964Y024977D01*
X037902Y024827D01*
X037902Y024663D01*
X037964Y024513D01*
X038080Y024397D01*
X038230Y024335D01*
X038394Y024335D01*
X038544Y024397D01*
X038660Y024513D01*
X038722Y024663D01*
X038722Y024827D01*
X038660Y024977D01*
X038544Y025093D01*
X038394Y025155D01*
X038230Y025155D01*
X038454Y025130D02*
X039170Y025130D01*
X039230Y025155D02*
X039080Y025093D01*
X038964Y024977D01*
X038902Y024827D01*
X038902Y024663D01*
X038964Y024513D01*
X039080Y024397D01*
X039230Y024335D01*
X039394Y024335D01*
X039544Y024397D01*
X039660Y024513D01*
X039722Y024663D01*
X039722Y024827D01*
X039660Y024977D01*
X039544Y025093D01*
X039394Y025155D01*
X039230Y025155D01*
X039454Y025130D02*
X040121Y025130D01*
X040147Y025143D02*
X040087Y025113D01*
X040032Y025073D01*
X039984Y025025D01*
X039944Y024970D01*
X039914Y024910D01*
X039893Y024846D01*
X039882Y024779D01*
X039882Y024770D01*
X040287Y024770D01*
X040287Y024720D01*
X039882Y024720D01*
X039882Y024711D01*
X039893Y024644D01*
X039914Y024580D01*
X039944Y024520D01*
X039984Y024465D01*
X040032Y024417D01*
X040087Y024377D01*
X040147Y024347D01*
X040211Y024326D01*
X040278Y024315D01*
X040287Y024315D01*
X040287Y024720D01*
X040337Y024720D01*
X040337Y024315D01*
X040346Y024315D01*
X040413Y024326D01*
X040477Y024347D01*
X040537Y024377D01*
X040592Y024417D01*
X040640Y024465D01*
X040680Y024520D01*
X040711Y024580D01*
X040731Y024644D01*
X040742Y024711D01*
X040742Y024720D01*
X040337Y024720D01*
X040337Y024770D01*
X040287Y024770D01*
X040287Y025175D01*
X040278Y025175D01*
X040211Y025164D01*
X040147Y025143D01*
X040287Y025130D02*
X040337Y025130D01*
X040346Y025175D02*
X040337Y025175D01*
X040337Y024770D01*
X040742Y024770D01*
X040742Y024779D01*
X040731Y024846D01*
X040711Y024910D01*
X040680Y024970D01*
X040640Y025025D01*
X040592Y025073D01*
X040537Y025113D01*
X040477Y025143D01*
X040413Y025164D01*
X040346Y025175D01*
X040337Y025012D02*
X040287Y025012D01*
X040287Y024893D02*
X040337Y024893D01*
X040337Y024775D02*
X040287Y024775D01*
X040287Y024656D02*
X040337Y024656D01*
X040337Y024538D02*
X040287Y024538D01*
X040287Y024419D02*
X040337Y024419D01*
X040594Y024419D02*
X041058Y024419D01*
X041080Y024397D02*
X041230Y024335D01*
X041394Y024335D01*
X041544Y024397D01*
X041660Y024513D01*
X041722Y024663D01*
X041722Y024827D01*
X041660Y024977D01*
X041544Y025093D01*
X041394Y025155D01*
X041230Y025155D01*
X041080Y025093D01*
X040964Y024977D01*
X040902Y024827D01*
X040902Y024663D01*
X040964Y024513D01*
X041080Y024397D01*
X040954Y024538D02*
X040689Y024538D01*
X040733Y024656D02*
X040905Y024656D01*
X040902Y024775D02*
X040742Y024775D01*
X040716Y024893D02*
X040930Y024893D01*
X040999Y025012D02*
X040650Y025012D01*
X040503Y025130D02*
X041170Y025130D01*
X041454Y025130D02*
X042170Y025130D01*
X042230Y025155D02*
X042080Y025093D01*
X041964Y024977D01*
X041902Y024827D01*
X041902Y024663D01*
X041964Y024513D01*
X042080Y024397D01*
X042230Y024335D01*
X042394Y024335D01*
X042544Y024397D01*
X042660Y024513D01*
X042722Y024663D01*
X042722Y024827D01*
X042660Y024977D01*
X042544Y025093D01*
X042394Y025155D01*
X042230Y025155D01*
X042454Y025130D02*
X043170Y025130D01*
X043230Y025155D02*
X043080Y025093D01*
X042964Y024977D01*
X042902Y024827D01*
X042902Y024663D01*
X042964Y024513D01*
X043080Y024397D01*
X043230Y024335D01*
X043394Y024335D01*
X043544Y024397D01*
X043660Y024513D01*
X043722Y024663D01*
X043722Y024827D01*
X043660Y024977D01*
X043544Y025093D01*
X043394Y025155D01*
X043230Y025155D01*
X043454Y025130D02*
X044170Y025130D01*
X044230Y025155D02*
X044080Y025093D01*
X043964Y024977D01*
X043902Y024827D01*
X043902Y024663D01*
X043964Y024513D01*
X044080Y024397D01*
X044230Y024335D01*
X044394Y024335D01*
X044544Y024397D01*
X044660Y024513D01*
X044722Y024663D01*
X044722Y024827D01*
X044660Y024977D01*
X044544Y025093D01*
X044394Y025155D01*
X044230Y025155D01*
X044454Y025130D02*
X045170Y025130D01*
X045230Y025155D02*
X045080Y025093D01*
X044964Y024977D01*
X044902Y024827D01*
X044902Y024663D01*
X044964Y024513D01*
X045080Y024397D01*
X045230Y024335D01*
X045394Y024335D01*
X045544Y024397D01*
X045660Y024513D01*
X045722Y024663D01*
X045722Y024827D01*
X045660Y024977D01*
X045544Y025093D01*
X045394Y025155D01*
X045230Y025155D01*
X045454Y025130D02*
X046170Y025130D01*
X046230Y025155D02*
X046080Y025093D01*
X045964Y024977D01*
X045902Y024827D01*
X045902Y024663D01*
X045964Y024513D01*
X046080Y024397D01*
X046230Y024335D01*
X046394Y024335D01*
X046544Y024397D01*
X046660Y024513D01*
X046722Y024663D01*
X046722Y024827D01*
X046660Y024977D01*
X046544Y025093D01*
X046394Y025155D01*
X046230Y025155D01*
X046454Y025130D02*
X046959Y025130D01*
X046984Y025155D02*
X046902Y025073D01*
X046902Y024417D01*
X046984Y024335D01*
X047640Y024335D01*
X047722Y024417D01*
X047722Y025073D01*
X047640Y025155D01*
X046984Y025155D01*
X046902Y025012D02*
X046625Y025012D01*
X046694Y024893D02*
X046902Y024893D01*
X046902Y024775D02*
X046722Y024775D01*
X046719Y024656D02*
X046902Y024656D01*
X046902Y024538D02*
X046670Y024538D01*
X046566Y024419D02*
X046902Y024419D01*
X047722Y024419D02*
X053232Y024419D01*
X053232Y024538D02*
X047722Y024538D01*
X047722Y024656D02*
X053232Y024656D01*
X053232Y024775D02*
X047722Y024775D01*
X047722Y024893D02*
X053232Y024893D01*
X053232Y025012D02*
X047722Y025012D01*
X047665Y025130D02*
X053232Y025130D01*
X053232Y025486D02*
X049357Y025486D01*
X049365Y025604D02*
X053232Y025604D01*
X053232Y025723D02*
X049365Y025723D01*
X049365Y025841D02*
X053232Y025841D01*
X053232Y025960D02*
X049365Y025960D01*
X049365Y026078D02*
X053232Y026078D01*
X053232Y026197D02*
X049365Y026197D01*
X049365Y026315D02*
X053232Y026315D01*
X053232Y026434D02*
X049365Y026434D01*
X048259Y026434D02*
X047609Y026434D01*
X047592Y026417D02*
X047640Y026465D01*
X047680Y026520D01*
X047711Y026580D01*
X047731Y026644D01*
X047742Y026711D01*
X047742Y026720D01*
X047337Y026720D01*
X047337Y026315D01*
X047346Y026315D01*
X047413Y026326D01*
X047477Y026347D01*
X047537Y026377D01*
X047592Y026417D01*
X047696Y026552D02*
X053232Y026552D01*
X053232Y026671D02*
X047736Y026671D01*
X047742Y026770D02*
X047742Y026779D01*
X047731Y026846D01*
X047711Y026910D01*
X047680Y026970D01*
X047640Y027025D01*
X047592Y027073D01*
X047537Y027113D01*
X047477Y027143D01*
X047413Y027164D01*
X047346Y027175D01*
X047337Y027175D01*
X047337Y026770D01*
X047287Y026770D01*
X047287Y026720D01*
X046882Y026720D01*
X046882Y026711D01*
X046893Y026644D01*
X046914Y026580D01*
X046944Y026520D01*
X046984Y026465D01*
X047032Y026417D01*
X047087Y026377D01*
X047147Y026347D01*
X047211Y026326D01*
X047278Y026315D01*
X047287Y026315D01*
X047287Y026720D01*
X047337Y026720D01*
X047337Y026770D01*
X047742Y026770D01*
X047740Y026789D02*
X053232Y026789D01*
X053232Y026908D02*
X047711Y026908D01*
X047639Y027026D02*
X053232Y027026D01*
X053232Y027145D02*
X047474Y027145D01*
X047337Y027145D02*
X047287Y027145D01*
X047287Y027175D02*
X047278Y027175D01*
X047211Y027164D01*
X047147Y027143D01*
X047087Y027113D01*
X047032Y027073D01*
X046984Y027025D01*
X046944Y026970D01*
X046914Y026910D01*
X046893Y026846D01*
X046882Y026779D01*
X046882Y026770D01*
X047287Y026770D01*
X047287Y027175D01*
X047150Y027145D02*
X046419Y027145D01*
X046394Y027155D02*
X046230Y027155D01*
X046080Y027093D01*
X045964Y026977D01*
X045902Y026827D01*
X045902Y026663D01*
X045964Y026513D01*
X046080Y026397D01*
X046230Y026335D01*
X046394Y026335D01*
X046544Y026397D01*
X046660Y026513D01*
X046722Y026663D01*
X046722Y026827D01*
X046660Y026977D01*
X046544Y027093D01*
X046394Y027155D01*
X046205Y027145D02*
X045419Y027145D01*
X045394Y027155D02*
X045230Y027155D01*
X045080Y027093D01*
X044964Y026977D01*
X044902Y026827D01*
X044902Y026663D01*
X044964Y026513D01*
X045080Y026397D01*
X045230Y026335D01*
X045394Y026335D01*
X045544Y026397D01*
X045660Y026513D01*
X045722Y026663D01*
X045722Y026827D01*
X045660Y026977D01*
X045544Y027093D01*
X045394Y027155D01*
X045205Y027145D02*
X044650Y027145D01*
X044640Y027155D02*
X043984Y027155D01*
X043902Y027073D01*
X043902Y026417D01*
X043984Y026335D01*
X044640Y026335D01*
X044722Y026417D01*
X044722Y027073D01*
X044640Y027155D01*
X044722Y027026D02*
X045013Y027026D01*
X044936Y026908D02*
X044722Y026908D01*
X044722Y026789D02*
X044902Y026789D01*
X044902Y026671D02*
X044722Y026671D01*
X044722Y026552D02*
X044948Y026552D01*
X045044Y026434D02*
X044722Y026434D01*
X043902Y026434D02*
X018102Y026434D01*
X018102Y026552D02*
X043902Y026552D01*
X043902Y026671D02*
X018102Y026671D01*
X018102Y026789D02*
X043902Y026789D01*
X043902Y026908D02*
X040030Y026908D01*
X040029Y026907D02*
X040111Y026989D01*
X040111Y027501D01*
X040029Y027583D01*
X039516Y027583D01*
X039434Y027501D01*
X039434Y026989D01*
X039516Y026907D01*
X040029Y026907D01*
X040111Y027026D02*
X043902Y027026D01*
X043974Y027145D02*
X040111Y027145D01*
X040111Y027263D02*
X053232Y027263D01*
X053232Y027382D02*
X040111Y027382D01*
X040111Y027500D02*
X053232Y027500D01*
X053232Y029515D02*
X047660Y029515D01*
X047709Y029633D02*
X053232Y029633D01*
X053232Y029752D02*
X047722Y029752D01*
X047704Y029870D02*
X053232Y029870D01*
X053232Y029989D02*
X047648Y029989D01*
X047509Y030107D02*
X053232Y030107D01*
X053232Y032833D02*
X051038Y032833D01*
X051109Y032951D02*
X053232Y032951D01*
X053232Y033070D02*
X051122Y033070D01*
X051224Y033188D02*
X053232Y033188D01*
X053232Y033307D02*
X051342Y033307D01*
X051461Y033425D02*
X053232Y033425D01*
X053232Y033544D02*
X051694Y033544D01*
X051867Y033662D02*
X053232Y033662D01*
X053232Y033781D02*
X051921Y033781D01*
X051922Y033899D02*
X053232Y033899D01*
X053232Y034018D02*
X051876Y034018D01*
X051719Y034136D02*
X053232Y034136D01*
X053232Y035203D02*
X051335Y035203D01*
X051289Y035156D02*
X051401Y035268D01*
X051462Y035415D01*
X051462Y035575D01*
X051401Y035722D01*
X051289Y035834D01*
X051142Y035895D01*
X050982Y035895D01*
X050835Y035834D01*
X050723Y035722D01*
X050662Y035575D01*
X050662Y035415D01*
X050723Y035268D01*
X050835Y035156D01*
X050982Y035095D01*
X051142Y035095D01*
X051289Y035156D01*
X051423Y035321D02*
X053232Y035321D01*
X053232Y035440D02*
X051462Y035440D01*
X051462Y035558D02*
X053232Y035558D01*
X053232Y035677D02*
X051420Y035677D01*
X051328Y035795D02*
X053232Y035795D01*
X050796Y035795D02*
X050328Y035795D01*
X050420Y035677D02*
X050704Y035677D01*
X050662Y035558D02*
X050462Y035558D01*
X050462Y035440D02*
X050662Y035440D01*
X050701Y035321D02*
X050423Y035321D01*
X050335Y035203D02*
X050789Y035203D01*
X047729Y034373D02*
X043895Y034373D01*
X044147Y034492D02*
X047477Y034492D01*
X047323Y034610D02*
X044301Y034610D01*
X044420Y034729D02*
X047204Y034729D01*
X047130Y034847D02*
X044494Y034847D01*
X044563Y034966D02*
X047061Y034966D01*
X047022Y035084D02*
X044602Y035084D01*
X044634Y035203D02*
X046990Y035203D01*
X046972Y035321D02*
X044652Y035321D01*
X044652Y035440D02*
X046972Y035440D01*
X046973Y035558D02*
X044651Y035558D01*
X044620Y035677D02*
X047004Y035677D01*
X047036Y035795D02*
X044588Y035795D01*
X044531Y035914D02*
X047093Y035914D01*
X047161Y036032D02*
X044463Y036032D01*
X044365Y036151D02*
X047259Y036151D01*
X047377Y036269D02*
X044247Y036269D01*
X044053Y036388D02*
X047571Y036388D01*
X039434Y027500D02*
X038190Y027500D01*
X038190Y027382D02*
X039434Y027382D01*
X039434Y027263D02*
X038190Y027263D01*
X038190Y027145D02*
X039434Y027145D01*
X039434Y027026D02*
X038190Y027026D01*
X038109Y026908D02*
X039515Y026908D01*
X039625Y025012D02*
X039974Y025012D01*
X039908Y024893D02*
X039694Y024893D01*
X039722Y024775D02*
X039882Y024775D01*
X039891Y024656D02*
X039719Y024656D01*
X039670Y024538D02*
X039935Y024538D01*
X040030Y024419D02*
X039566Y024419D01*
X039058Y024419D02*
X038566Y024419D01*
X038670Y024538D02*
X038954Y024538D01*
X038905Y024656D02*
X038719Y024656D01*
X038722Y024775D02*
X038902Y024775D01*
X038930Y024893D02*
X038694Y024893D01*
X038625Y025012D02*
X038999Y025012D01*
X037999Y025012D02*
X037625Y025012D01*
X037694Y024893D02*
X037930Y024893D01*
X037902Y024775D02*
X037722Y024775D01*
X037719Y024656D02*
X037905Y024656D01*
X037954Y024538D02*
X037670Y024538D01*
X037566Y024419D02*
X038058Y024419D01*
X037058Y024419D02*
X036566Y024419D01*
X036670Y024538D02*
X036954Y024538D01*
X036905Y024656D02*
X036719Y024656D01*
X036722Y024775D02*
X036902Y024775D01*
X036930Y024893D02*
X036694Y024893D01*
X036625Y025012D02*
X036999Y025012D01*
X036058Y024419D02*
X035566Y024419D01*
X035670Y024538D02*
X035954Y024538D01*
X035905Y024656D02*
X035719Y024656D01*
X035722Y024775D02*
X035902Y024775D01*
X035930Y024893D02*
X035694Y024893D01*
X035625Y025012D02*
X035999Y025012D01*
X034999Y025012D02*
X034625Y025012D01*
X034694Y024893D02*
X034930Y024893D01*
X034902Y024775D02*
X034722Y024775D01*
X034719Y024656D02*
X034905Y024656D01*
X034954Y024538D02*
X034670Y024538D01*
X034566Y024419D02*
X035058Y024419D01*
X029879Y027500D02*
X029826Y027500D01*
X022558Y022831D02*
X022316Y022831D01*
X022275Y022820D01*
X022238Y022799D01*
X022209Y022769D01*
X022188Y022733D01*
X022177Y022692D01*
X022177Y022449D01*
X022558Y022449D01*
X022558Y022831D01*
X022558Y022760D02*
X022562Y022760D01*
X022558Y022642D02*
X022562Y022642D01*
X022558Y022523D02*
X022562Y022523D01*
X022558Y022405D02*
X022562Y022405D01*
X022558Y022286D02*
X022562Y022286D01*
X022558Y022168D02*
X022562Y022168D01*
X022186Y022168D02*
X021923Y022168D01*
X021923Y022166D02*
X021841Y022084D01*
X021279Y022084D01*
X021197Y022166D01*
X021197Y022729D01*
X021279Y022811D01*
X021841Y022811D01*
X021923Y022729D01*
X021923Y022166D01*
X021923Y022286D02*
X022177Y022286D01*
X022177Y022405D02*
X021923Y022405D01*
X021923Y022523D02*
X022177Y022523D01*
X022177Y022642D02*
X021923Y022642D01*
X021893Y022760D02*
X022203Y022760D01*
X021227Y022760D02*
X020893Y022760D01*
X020923Y022729D02*
X020841Y022811D01*
X020279Y022811D01*
X020197Y022729D01*
X020197Y022166D01*
X020279Y022084D01*
X020841Y022084D01*
X020923Y022166D01*
X020923Y022729D01*
X020923Y022642D02*
X021197Y022642D01*
X021197Y022523D02*
X020923Y022523D01*
X020923Y022405D02*
X021197Y022405D01*
X021197Y022286D02*
X020923Y022286D01*
X020923Y022168D02*
X021197Y022168D01*
X020197Y022168D02*
X019923Y022168D01*
X019923Y022286D02*
X020197Y022286D01*
X020197Y022405D02*
X019923Y022405D01*
X019923Y022523D02*
X020197Y022523D01*
X020197Y022642D02*
X019923Y022642D01*
X019893Y022760D02*
X020227Y022760D01*
X018102Y025723D02*
X048259Y025723D01*
X048259Y025841D02*
X018102Y025841D01*
X018102Y025960D02*
X048259Y025960D01*
X048259Y026078D02*
X018102Y026078D01*
X018102Y026197D02*
X048259Y026197D01*
X048259Y026315D02*
X047346Y026315D01*
X047337Y026315D02*
X047287Y026315D01*
X047278Y026315D02*
X018102Y026315D01*
X041566Y024419D02*
X042058Y024419D01*
X041954Y024538D02*
X041670Y024538D01*
X041719Y024656D02*
X041905Y024656D01*
X041902Y024775D02*
X041722Y024775D01*
X041694Y024893D02*
X041930Y024893D01*
X041999Y025012D02*
X041625Y025012D01*
X042625Y025012D02*
X042999Y025012D01*
X042930Y024893D02*
X042694Y024893D01*
X042722Y024775D02*
X042902Y024775D01*
X042905Y024656D02*
X042719Y024656D01*
X042670Y024538D02*
X042954Y024538D01*
X043058Y024419D02*
X042566Y024419D01*
X043566Y024419D02*
X044058Y024419D01*
X043954Y024538D02*
X043670Y024538D01*
X043719Y024656D02*
X043905Y024656D01*
X043902Y024775D02*
X043722Y024775D01*
X043694Y024893D02*
X043930Y024893D01*
X043999Y025012D02*
X043625Y025012D01*
X044625Y025012D02*
X044999Y025012D01*
X044930Y024893D02*
X044694Y024893D01*
X044722Y024775D02*
X044902Y024775D01*
X044905Y024656D02*
X044719Y024656D01*
X044670Y024538D02*
X044954Y024538D01*
X045058Y024419D02*
X044566Y024419D01*
X045566Y024419D02*
X046058Y024419D01*
X045954Y024538D02*
X045670Y024538D01*
X045719Y024656D02*
X045905Y024656D01*
X045902Y024775D02*
X045722Y024775D01*
X045694Y024893D02*
X045930Y024893D01*
X045999Y025012D02*
X045625Y025012D01*
X045580Y026434D02*
X046044Y026434D01*
X045948Y026552D02*
X045676Y026552D01*
X045722Y026671D02*
X045902Y026671D01*
X045902Y026789D02*
X045722Y026789D01*
X045688Y026908D02*
X045936Y026908D01*
X046013Y027026D02*
X045611Y027026D01*
X046611Y027026D02*
X046985Y027026D01*
X046913Y026908D02*
X046688Y026908D01*
X046722Y026789D02*
X046884Y026789D01*
X046888Y026671D02*
X046722Y026671D01*
X046676Y026552D02*
X046928Y026552D01*
X047015Y026434D02*
X046580Y026434D01*
X047287Y026434D02*
X047337Y026434D01*
X047337Y026552D02*
X047287Y026552D01*
X047287Y026671D02*
X047337Y026671D01*
X047337Y026789D02*
X047287Y026789D01*
X047287Y026908D02*
X047337Y026908D01*
X047337Y027026D02*
X047287Y027026D01*
X049182Y018613D02*
X051485Y018613D01*
X051340Y018494D02*
X049263Y018494D01*
X049298Y018376D02*
X051225Y018376D01*
X051157Y018257D02*
X049298Y018257D01*
X049251Y018139D02*
X051091Y018139D01*
X051059Y018020D02*
X049153Y018020D01*
X045427Y015887D02*
X053232Y015887D01*
X053232Y015769D02*
X045427Y015769D01*
X045427Y015650D02*
X053232Y015650D01*
X053232Y015532D02*
X045427Y015532D01*
X044701Y015532D02*
X044427Y015532D01*
X044427Y015511D02*
X044427Y016074D01*
X044345Y016156D01*
X043783Y016156D01*
X043701Y016074D01*
X043701Y015511D01*
X043783Y015429D01*
X044345Y015429D01*
X044427Y015511D01*
X044427Y015650D02*
X044701Y015650D01*
X044701Y015769D02*
X044427Y015769D01*
X044427Y015887D02*
X044701Y015887D01*
X044701Y016006D02*
X044427Y016006D01*
X044377Y016124D02*
X044751Y016124D01*
X043751Y016124D02*
X043377Y016124D01*
X043427Y016006D02*
X043701Y016006D01*
X043701Y015887D02*
X043427Y015887D01*
X043427Y015769D02*
X043701Y015769D01*
X043701Y015650D02*
X043427Y015650D01*
X043427Y015532D02*
X043701Y015532D01*
X051165Y012569D02*
X053232Y012569D01*
X053232Y012451D02*
X051165Y012451D01*
X051165Y012332D02*
X053232Y012332D01*
X053232Y012214D02*
X051139Y012214D01*
X050321Y010555D02*
X050303Y010555D01*
X050303Y010436D02*
X050321Y010436D01*
X050321Y010318D02*
X050303Y010318D01*
X050303Y010199D02*
X050321Y010199D01*
X050321Y010081D02*
X050303Y010081D01*
X050303Y009962D02*
X050321Y009962D01*
X050690Y008540D02*
X053232Y008540D01*
X053232Y008422D02*
X050690Y008422D01*
X050690Y008303D02*
X053232Y008303D01*
X053232Y008185D02*
X050690Y008185D01*
X050690Y008066D02*
X053232Y008066D01*
X053232Y007948D02*
X050672Y007948D01*
X045832Y010436D02*
X045792Y010436D01*
X044832Y010436D02*
X044792Y010436D01*
X050303Y004037D02*
X050321Y004037D01*
X050321Y003919D02*
X050303Y003919D01*
X050303Y003800D02*
X050321Y003800D01*
X050321Y003752D02*
X050710Y003752D01*
X050710Y003722D01*
X050695Y003645D01*
X050665Y003572D01*
X050621Y003507D01*
X050566Y003452D01*
X050500Y003408D01*
X050428Y003378D01*
X050351Y003363D01*
X050321Y003363D01*
X050321Y003752D01*
X050321Y003682D02*
X050303Y003682D01*
X050303Y003563D02*
X050321Y003563D01*
X050321Y003445D02*
X050303Y003445D01*
X050555Y003445D02*
X053232Y003445D01*
X053232Y003563D02*
X050658Y003563D01*
X050702Y003682D02*
X053232Y003682D01*
X053232Y003800D02*
X050710Y003800D01*
X050677Y003919D02*
X053232Y003919D01*
X053232Y004037D02*
X050598Y004037D01*
D32*
X030062Y027245D02*
X029812Y027245D01*
X028062Y028995D01*
X029062Y028495D02*
X029812Y027745D01*
X030062Y027745D01*
X031062Y028745D01*
X030312Y029495D01*
X030312Y028745D02*
X030562Y028745D01*
X030312Y028745D02*
X027812Y031245D01*
X026312Y030745D02*
X026312Y029995D01*
X026312Y030745D02*
X025812Y031245D01*
X024812Y031245D02*
X024062Y030495D01*
X024562Y028495D02*
X023312Y027245D01*
X029562Y028745D02*
X030062Y028245D01*
X031062Y031995D02*
X034812Y031995D01*
X036062Y033245D02*
X040562Y037745D01*
X041062Y037745D01*
X040062Y037745D02*
X038812Y036495D01*
X037812Y035745D02*
X036062Y033995D01*
X035562Y033995D01*
X035312Y034245D01*
X034562Y034245D02*
X034062Y034745D01*
X034562Y034745D02*
X035312Y035495D01*
X035312Y038245D01*
X035812Y038645D02*
X035412Y039045D01*
X033812Y039045D01*
X031562Y038995D02*
X031562Y037745D01*
X032312Y036995D01*
X032312Y035995D01*
X032812Y035745D02*
X032312Y035245D01*
X032312Y034745D01*
X031812Y034245D01*
X031562Y034245D01*
X031312Y034495D01*
X031062Y033995D02*
X030812Y034245D01*
X031062Y033995D02*
X032562Y033995D01*
X032812Y034245D01*
X032812Y034745D02*
X033812Y035745D01*
X031812Y034745D02*
X031312Y035245D01*
X031312Y038495D01*
X031062Y038745D01*
X030562Y038745D01*
X030062Y038245D01*
X029812Y038245D01*
X030312Y037745D02*
X030312Y037245D01*
X028812Y035745D01*
X027812Y035745D02*
X029312Y034245D01*
X029812Y034745D02*
X030812Y035745D01*
X028312Y034245D02*
X026812Y035745D01*
X027312Y035995D02*
X025312Y037995D01*
X025312Y038245D01*
X024812Y037495D02*
X024562Y037245D01*
X022312Y037245D01*
X022312Y036245D02*
X020562Y037995D01*
X020562Y038245D01*
X019812Y038245D02*
X023062Y034995D01*
X024562Y034995D01*
X024812Y034745D01*
X023812Y033495D02*
X023312Y032995D01*
X021062Y034995D02*
X020562Y035495D01*
X018312Y036495D02*
X017312Y037495D01*
X017562Y037745D02*
X017312Y037995D01*
X016812Y037495D01*
X015562Y037495D01*
X015062Y037995D01*
X015062Y038245D01*
X017562Y037745D02*
X017812Y037745D01*
X018312Y037245D01*
X027312Y037495D02*
X028062Y037495D01*
X028312Y037745D01*
X034562Y034245D02*
X036312Y035995D01*
X036312Y038245D01*
X036812Y037245D02*
X037062Y036995D01*
X037062Y036495D01*
X031062Y031995D02*
X030812Y032245D01*
X050812Y033045D02*
X051612Y033845D01*
D33*
X051612Y033845D03*
X050812Y033045D03*
X041062Y037745D03*
X040062Y037745D03*
X038812Y036495D03*
X037812Y035745D03*
X037062Y036495D03*
X036812Y037245D03*
X035812Y038645D03*
X033812Y039045D03*
X031562Y038995D03*
X030312Y037745D03*
X028312Y037745D03*
X027312Y037495D03*
X027312Y035995D03*
X028312Y034245D03*
X029312Y034245D03*
X029812Y034745D03*
X030812Y034245D03*
X031312Y034495D03*
X031812Y034745D03*
X032812Y034745D03*
X032812Y034245D03*
X034062Y034745D03*
X034562Y034745D03*
X035312Y034245D03*
X036062Y033245D03*
X034812Y031995D03*
X030812Y032245D03*
X030312Y029495D03*
X030562Y028745D03*
X030062Y028245D03*
X029562Y028745D03*
X029062Y028495D03*
X028062Y028995D03*
X026312Y029995D03*
X024062Y030495D03*
X024562Y028495D03*
X023312Y027245D03*
X030062Y027245D03*
X023312Y032995D03*
X023812Y033495D03*
X024812Y034745D03*
X022312Y036245D03*
X022312Y037245D03*
X020562Y038245D03*
X018312Y037245D03*
X018312Y036495D03*
X017312Y037495D03*
X015062Y038245D03*
X020562Y035495D03*
X021062Y034995D03*
X024812Y037495D03*
X032312Y035995D03*
D34*
X021560Y029497D02*
X021312Y029745D01*
X020812Y029745D01*
X019312Y031245D01*
X018312Y031995D02*
X016312Y031995D01*
X021560Y029497D02*
X021560Y028948D01*
M02*
