%
M48
M72
T01C0.0180
T02C0.0197
T03C0.0217
T04C0.0236
T05C0.0247
T06C0.0276
T07C0.0320
T08C0.0340
T09C0.0394
T10C0.0450
T11C0.0550
T12C0.0551
T13C0.0591
T14C0.0630
T15C0.0787
T16C0.1260
T17C0.1400
%
T01
X23312Y27245
X24562Y28495
X26312Y29995
X28062Y28995
X29062Y28495
X29562Y28745
X30312Y29495
X30562Y28745
X30062Y28245
X30062Y27245
X24062Y30495
X23312Y32995
X23812Y33495
X24812Y34745
X27312Y35995
X27312Y37495
X28312Y37745
X30312Y37745
X31562Y38995
X33812Y39045
X35812Y38645
X36812Y37245
X37062Y36495
X37812Y35745
X38812Y36495
X40062Y37745
X41062Y37745
X35312Y34245
X34562Y34745
X34062Y34745
X32812Y34745
X32812Y34245
X31812Y34745
X31312Y34495
X30812Y34245
X29812Y34745
X29312Y34245
X28312Y34245
X30812Y32245
X34812Y31995
X36062Y33245
X32312Y35995
X24812Y37495
X22312Y37245
X22312Y36245
X21062Y34995
X20562Y35495
X18312Y36495
X18312Y37245
X17312Y37495
X15062Y38245
X20562Y38245
X50812Y33045
X51612Y33845
T02
X39773Y27245
X37851Y27245
T03
X26812Y29495
X26312Y29495
X25812Y29495
T04
X27562Y27745
X27562Y26745
X24062Y25995
X23562Y25995
X19312Y31245
X18312Y31995
X16312Y31995
X34062Y36995
X35812Y34445
X38312Y29495
X38812Y29495
X39312Y29495
X41812Y28745
X42312Y28745
X42812Y28745
X40312Y18495
X39812Y18495
X39312Y18495
X37812Y13245
X40312Y12745
X40312Y12245
X24062Y19995
X23562Y19995
X18312Y16495
T05
X19560Y22448
X20560Y22448
X21560Y22448
X22560Y22448
X22560Y28948
X21560Y28948
X20560Y28948
X19560Y28948
X42064Y15792
X43064Y15792
X44064Y15792
X45064Y15792
T06
X3812Y3511
X3812Y5479
X8562Y5229
X8562Y3261
X13312Y3261
X13312Y5229
X13312Y8261
X13312Y10229
X9312Y30761
X9312Y32729
X13123Y34995
X14501Y34995
X8001Y35245
X6623Y35245
X50312Y10229
X50312Y8261
X50312Y5729
X50312Y3761
T07
X39562Y14995
X35562Y14995
X33562Y18245
X33562Y19495
X33562Y20495
X30062Y19745
X28812Y18495
X27312Y18245
X29312Y21245
X29312Y25245
X37562Y20495
X37562Y19495
X37562Y18245
X30062Y15745
X28812Y14495
X27312Y14245
X46812Y16495
X48898Y18331
X46812Y20495
X51726Y21159
X51062Y31495
X50062Y31495
X50062Y35495
X51062Y35495
T08
X47312Y29745
X46312Y29745
X45312Y29745
X44312Y29745
X44312Y26745
X45312Y26745
X46312Y26745
X47312Y26745
X47312Y24745
X46312Y24745
X45312Y24745
X44312Y24745
X43312Y24745
X42312Y24745
X41312Y24745
X40312Y24745
X39312Y24745
X38312Y24745
X37312Y24745
X36312Y24745
X35312Y24745
X34312Y24745
X34312Y21745
X35312Y21745
X36312Y21745
X37312Y21745
X38312Y21745
X39312Y21745
X40312Y21745
X41312Y21745
X42312Y21745
X43312Y21745
X44312Y21745
X45312Y21745
X46312Y21745
X47312Y21745
X34812Y31245
X33812Y31245
X32812Y31245
X31812Y31245
X30812Y31245
X29812Y31245
X28812Y31245
X27812Y31245
X26812Y31245
X25812Y31245
X24812Y31245
X23812Y31245
X23812Y35745
X24812Y35745
X25812Y35745
X26812Y35745
X27812Y35745
X28812Y35745
X29812Y35745
X30812Y35745
X31812Y35745
X32812Y35745
X33812Y35745
X34812Y35745
T09
X44062Y31912
X45062Y31912
X46062Y31912
X47062Y31912
X46562Y32912
X47562Y32912
X45562Y32912
X44562Y32912
T10
X41562Y38245
X40562Y38245
X39562Y38245
X38562Y38245
X37562Y38245
X36312Y38245
X35312Y38245
X34312Y38245
X33312Y38245
X32312Y38245
X30812Y38245
X29812Y38245
X28812Y38245
X27812Y38245
X26812Y38245
X25312Y38245
X24312Y38245
X23312Y38245
X22312Y38245
X21312Y38245
X19812Y38245
X18812Y38245
X17812Y38245
X16812Y38245
X15812Y38245
X14312Y38245
X13312Y38245
X12312Y38245
X11312Y38245
X10312Y38245
X8812Y38245
X7812Y38245
X6812Y38245
X5812Y38245
X4812Y38245
X51062Y23245
X51062Y22245
T11
X14812Y31995
X13812Y31995
X12812Y31995
X5562Y32245
X4562Y32245
X3562Y32245
X10062Y13245
X10062Y7245
T12
X17548Y18745
X17548Y19745
X17548Y20745
X17548Y24745
X17548Y25745
X17548Y26745
X39312Y10981
X40312Y10981
X41312Y10981
X44312Y10981
X45312Y10981
X46312Y10981
X48812Y25965
X48812Y28525
T13
X50562Y14745
X50562Y12745
T14
X6861Y14495
X2861Y14495
X2861Y10495
X6861Y10495
X6861Y22745
X2861Y22745
X2861Y26745
X6861Y26745
T15
X19262Y7245
X32362Y7245
T16
X43562Y35412
X48062Y35412
T17
X52062Y17745
X6562Y18745
X2812Y35745
M30
