G75*
G70*
%OFA0B0*%
%FSLAX24Y24*%
%IPPOS*%
%LPD*%
%AMOC8*
5,1,8,0,0,1.08239X$1,22.5*
%
%ADD10R,0.0620X0.0620*%
%ADD11C,0.0620*%
%ADD12R,0.0477X0.0477*%
%ADD13R,0.0907X0.0907*%
%ADD14C,0.0755*%
%ADD15R,0.0755X0.0755*%
%ADD16R,0.1261X0.1261*%
%ADD17R,0.0556X0.0556*%
%ADD18C,0.0556*%
%ADD19C,0.0600*%
%ADD20R,0.0600X0.0600*%
%ADD21R,0.0527X0.0527*%
%ADD22R,0.0905X0.0905*%
%ADD23C,0.0905*%
%ADD24R,0.1025X0.1025*%
%ADD25R,0.0966X0.0966*%
%ADD26C,0.0674*%
%ADD27C,0.1340*%
%ADD28C,0.1880*%
%ADD29R,0.0600X0.0600*%
%ADD30C,0.0497*%
%ADD31R,0.0476X0.0476*%
%ADD32C,0.0420*%
D10*
X044312Y026745D03*
X047312Y024745D03*
X034812Y035745D03*
D11*
X033812Y035745D03*
X032812Y035745D03*
X031812Y035745D03*
X030812Y035745D03*
X029812Y035745D03*
X028812Y035745D03*
X027812Y035745D03*
X026812Y035745D03*
X025812Y035745D03*
X024812Y035745D03*
X023812Y035745D03*
X023812Y031245D03*
X024812Y031245D03*
X025812Y031245D03*
X026812Y031245D03*
X027812Y031245D03*
X028812Y031245D03*
X029812Y031245D03*
X030812Y031245D03*
X031812Y031245D03*
X032812Y031245D03*
X033812Y031245D03*
X034812Y031245D03*
X044312Y029745D03*
X045312Y029745D03*
X046312Y029745D03*
X047312Y029745D03*
X047312Y026745D03*
X046312Y026745D03*
X045312Y026745D03*
X045312Y024745D03*
X046312Y024745D03*
X044312Y024745D03*
X043312Y024745D03*
X042312Y024745D03*
X041312Y024745D03*
X040312Y024745D03*
X039312Y024745D03*
X038312Y024745D03*
X037312Y024745D03*
X036312Y024745D03*
X035312Y024745D03*
X034312Y024745D03*
X034312Y021745D03*
X035312Y021745D03*
X036312Y021745D03*
X037312Y021745D03*
X038312Y021745D03*
X039312Y021745D03*
X040312Y021745D03*
X041312Y021745D03*
X042312Y021745D03*
X043312Y021745D03*
X044312Y021745D03*
X045312Y021745D03*
X046312Y021745D03*
X047312Y021745D03*
D12*
X039773Y027245D03*
X037851Y027245D03*
D13*
X048812Y025965D03*
X048812Y028525D03*
X046312Y010981D03*
X045312Y010981D03*
X044312Y010981D03*
X041312Y010981D03*
X040312Y010981D03*
X039312Y010981D03*
X017548Y018745D03*
X017548Y019745D03*
X017548Y020745D03*
X017548Y024745D03*
X017548Y025745D03*
X017548Y026745D03*
D14*
X017812Y038245D03*
X016812Y038245D03*
X018812Y038245D03*
X019812Y038245D03*
X022312Y038245D03*
X023312Y038245D03*
X024312Y038245D03*
X025312Y038245D03*
X027812Y038245D03*
X028812Y038245D03*
X029812Y038245D03*
X030812Y038245D03*
X033312Y038245D03*
X034312Y038245D03*
X035312Y038245D03*
X036312Y038245D03*
X038562Y038245D03*
X039562Y038245D03*
X040562Y038245D03*
X041562Y038245D03*
X014312Y038245D03*
X013312Y038245D03*
X012312Y038245D03*
X011312Y038245D03*
X008812Y038245D03*
X007812Y038245D03*
X006812Y038245D03*
X005812Y038245D03*
X051062Y022245D03*
D15*
X051062Y023245D03*
X037562Y038245D03*
X032312Y038245D03*
X026812Y038245D03*
X021312Y038245D03*
X015812Y038245D03*
X010312Y038245D03*
X004812Y038245D03*
D16*
X019262Y007245D03*
X032362Y007245D03*
D17*
X050312Y008261D03*
X050312Y005729D03*
X013312Y005229D03*
X008562Y005229D03*
X003812Y005479D03*
X013312Y010229D03*
X009312Y030761D03*
X014501Y034995D03*
X006623Y035245D03*
D18*
X003812Y003511D03*
X008562Y003261D03*
X013312Y003261D03*
X013312Y008261D03*
X050312Y010229D03*
X050312Y003761D03*
X009312Y032729D03*
X013123Y034995D03*
X008001Y035245D03*
D19*
X029312Y021245D03*
X033562Y019495D03*
X037562Y020495D03*
X037562Y018245D03*
X039562Y014995D03*
X046812Y020495D03*
X048898Y018331D03*
X030062Y015745D03*
X028812Y014495D03*
X027312Y014245D03*
X050062Y035495D03*
X051062Y035495D03*
D20*
X051062Y031495D03*
X050062Y031495D03*
X033562Y020495D03*
X033562Y018245D03*
X030062Y019745D03*
X028812Y018495D03*
X027312Y018245D03*
X035562Y014995D03*
X037562Y019495D03*
X046812Y016495D03*
X029312Y025245D03*
D21*
X022560Y022448D03*
X021560Y022448D03*
X020560Y022448D03*
X019560Y022448D03*
X019560Y028948D03*
X020560Y028948D03*
X021560Y028948D03*
X022560Y028948D03*
X042064Y015792D03*
X043064Y015792D03*
X044064Y015792D03*
X045064Y015792D03*
D22*
X012812Y031995D03*
X003562Y032245D03*
D23*
X004562Y032245D03*
X005562Y032245D03*
X013812Y031995D03*
X014812Y031995D03*
X010062Y013245D03*
X010062Y007245D03*
D24*
X006861Y010495D03*
X002861Y010495D03*
X002861Y014495D03*
X006861Y014495D03*
X006861Y022745D03*
X002861Y022745D03*
X002861Y026745D03*
X006861Y026745D03*
D25*
X050562Y014745D03*
X050562Y012745D03*
D26*
X047062Y031912D03*
X046062Y031912D03*
X045062Y031912D03*
X044062Y031912D03*
X044562Y032912D03*
X045562Y032912D03*
X046562Y032912D03*
X047562Y032912D03*
D27*
X048062Y035412D03*
X043562Y035412D03*
D28*
X052062Y017745D03*
X006562Y018745D03*
X002812Y035745D03*
D29*
G36*
X051302Y021159D02*
X051726Y021583D01*
X052150Y021159D01*
X051726Y020735D01*
X051302Y021159D01*
G37*
D30*
X026812Y029495D03*
X026312Y029495D03*
X025812Y029495D03*
D31*
X027562Y027745D03*
X027562Y026745D03*
X024062Y025995D03*
X023562Y025995D03*
X019312Y031245D03*
X018312Y031995D03*
X016312Y031995D03*
X034062Y036995D03*
X035812Y034445D03*
X038312Y029495D03*
X038812Y029495D03*
X039312Y029495D03*
X041812Y028745D03*
X042312Y028745D03*
X042812Y028745D03*
X040312Y018495D03*
X039812Y018495D03*
X039312Y018495D03*
X037812Y013245D03*
X040312Y012745D03*
X040312Y012245D03*
X024062Y019995D03*
X023562Y019995D03*
X018312Y016495D03*
D32*
X023312Y027245D03*
X024562Y028495D03*
X026312Y029995D03*
X028062Y028995D03*
X029062Y028495D03*
X029562Y028745D03*
X030312Y029495D03*
X030562Y028745D03*
X030062Y028245D03*
X030062Y027245D03*
X024062Y030495D03*
X023312Y032995D03*
X023812Y033495D03*
X024812Y034745D03*
X027312Y035995D03*
X027312Y037495D03*
X028312Y037745D03*
X030312Y037745D03*
X031562Y038995D03*
X033812Y039045D03*
X035812Y038645D03*
X036812Y037245D03*
X037062Y036495D03*
X037812Y035745D03*
X038812Y036495D03*
X040062Y037745D03*
X041062Y037745D03*
X035312Y034245D03*
X034562Y034745D03*
X034062Y034745D03*
X032812Y034745D03*
X032812Y034245D03*
X031812Y034745D03*
X031312Y034495D03*
X030812Y034245D03*
X029812Y034745D03*
X029312Y034245D03*
X028312Y034245D03*
X030812Y032245D03*
X034812Y031995D03*
X036062Y033245D03*
X032312Y035995D03*
X024812Y037495D03*
X022312Y037245D03*
X022312Y036245D03*
X021062Y034995D03*
X020562Y035495D03*
X018312Y036495D03*
X018312Y037245D03*
X017312Y037495D03*
X015062Y038245D03*
X020562Y038245D03*
X050812Y033045D03*
X051612Y033845D03*
M02*
