G75*
G70*
%OFA0B0*%
%FSLAX24Y24*%
%IPPOS*%
%LPD*%
%AMOC8*
5,1,8,0,0,1.08239X$1,22.5*
%
%ADD10C,0.0240*%
%ADD11R,0.0620X0.0620*%
%ADD12C,0.0620*%
%ADD13R,0.0477X0.0477*%
%ADD14R,0.0710X0.0789*%
%ADD15R,0.0789X0.0710*%
%ADD16R,0.0907X0.0907*%
%ADD17C,0.0755*%
%ADD18R,0.0755X0.0755*%
%ADD19R,0.1261X0.1261*%
%ADD20R,0.4411X0.5198*%
%ADD21R,0.0556X0.0556*%
%ADD22C,0.0556*%
%ADD23C,0.0600*%
%ADD24R,0.0600X0.0600*%
%ADD25R,0.0527X0.0527*%
%ADD26R,0.0946X0.0316*%
%ADD27R,0.5198X0.4411*%
%ADD28R,0.0905X0.0905*%
%ADD29C,0.0905*%
%ADD30R,0.0316X0.0946*%
%ADD31R,0.1025X0.1025*%
%ADD32R,0.0966X0.0966*%
%ADD33C,0.0674*%
%ADD34C,0.0000*%
%ADD35C,0.1340*%
%ADD36R,0.3505X0.0710*%
%ADD37R,0.0710X0.0710*%
%ADD38C,0.1880*%
%ADD39R,0.0600X0.0600*%
%ADD40R,0.0671X0.0592*%
%ADD41C,0.0497*%
%ADD42R,0.0476X0.0476*%
%ADD43C,0.0420*%
D10*
X000812Y000245D02*
X053812Y000245D01*
X053812Y040245D01*
X000812Y040245D01*
X000812Y000245D01*
D11*
X044312Y026745D03*
X047312Y024745D03*
X034812Y035745D03*
D12*
X033812Y035745D03*
X032812Y035745D03*
X031812Y035745D03*
X030812Y035745D03*
X029812Y035745D03*
X028812Y035745D03*
X027812Y035745D03*
X026812Y035745D03*
X025812Y035745D03*
X024812Y035745D03*
X023812Y035745D03*
X023812Y031245D03*
X024812Y031245D03*
X025812Y031245D03*
X026812Y031245D03*
X027812Y031245D03*
X028812Y031245D03*
X029812Y031245D03*
X030812Y031245D03*
X031812Y031245D03*
X032812Y031245D03*
X033812Y031245D03*
X034812Y031245D03*
X044312Y029745D03*
X045312Y029745D03*
X046312Y029745D03*
X047312Y029745D03*
X047312Y026745D03*
X046312Y026745D03*
X045312Y026745D03*
X045312Y024745D03*
X046312Y024745D03*
X044312Y024745D03*
X043312Y024745D03*
X042312Y024745D03*
X041312Y024745D03*
X040312Y024745D03*
X039312Y024745D03*
X038312Y024745D03*
X037312Y024745D03*
X036312Y024745D03*
X035312Y024745D03*
X034312Y024745D03*
X034312Y021745D03*
X035312Y021745D03*
X036312Y021745D03*
X037312Y021745D03*
X038312Y021745D03*
X039312Y021745D03*
X040312Y021745D03*
X041312Y021745D03*
X042312Y021745D03*
X043312Y021745D03*
X044312Y021745D03*
X045312Y021745D03*
X046312Y021745D03*
X047312Y021745D03*
D13*
X039773Y027245D03*
X037851Y027245D03*
D14*
X038113Y028745D03*
X037011Y028745D03*
X039261Y028745D03*
X040363Y028745D03*
X044261Y030745D03*
X045363Y030745D03*
X046261Y030745D03*
X047363Y030745D03*
X029363Y027745D03*
X029363Y026745D03*
X028261Y026745D03*
X028261Y027745D03*
X015363Y030495D03*
X014261Y030495D03*
X013363Y030495D03*
X012261Y030495D03*
X006113Y030745D03*
X005011Y030745D03*
X004113Y030745D03*
X003011Y030745D03*
X019011Y016495D03*
X020113Y016495D03*
X035761Y013495D03*
X036863Y013495D03*
X043261Y019245D03*
X044363Y019245D03*
D15*
X042312Y019194D03*
X041312Y019194D03*
X040312Y019194D03*
X039312Y019194D03*
X039312Y020296D03*
X040312Y020296D03*
X041312Y020296D03*
X042312Y020296D03*
X040562Y016046D03*
X040562Y014944D03*
X045062Y014046D03*
X046312Y013296D03*
X045062Y012944D03*
X046312Y012194D03*
X023812Y018194D03*
X023812Y019296D03*
X019062Y019296D03*
X019062Y018194D03*
X019062Y024194D03*
X019062Y025296D03*
X023812Y025296D03*
X023812Y024194D03*
X036812Y033444D03*
X036812Y034546D03*
X041812Y027796D03*
X042812Y027796D03*
X042812Y026694D03*
X041812Y026694D03*
X050312Y026694D03*
X050312Y027796D03*
D16*
X048812Y028525D03*
X048812Y025965D03*
X046312Y010981D03*
X045312Y010981D03*
X044312Y010981D03*
X041312Y010981D03*
X040312Y010981D03*
X039312Y010981D03*
X017548Y018745D03*
X017548Y019745D03*
X017548Y020745D03*
X017548Y024745D03*
X017548Y025745D03*
X017548Y026745D03*
D17*
X017812Y038245D03*
X016812Y038245D03*
X018812Y038245D03*
X019812Y038245D03*
X022312Y038245D03*
X023312Y038245D03*
X024312Y038245D03*
X025312Y038245D03*
X027812Y038245D03*
X028812Y038245D03*
X029812Y038245D03*
X030812Y038245D03*
X033312Y038245D03*
X034312Y038245D03*
X035312Y038245D03*
X036312Y038245D03*
X038562Y038245D03*
X039562Y038245D03*
X040562Y038245D03*
X041562Y038245D03*
X014312Y038245D03*
X013312Y038245D03*
X012312Y038245D03*
X011312Y038245D03*
X008812Y038245D03*
X007812Y038245D03*
X006812Y038245D03*
X005812Y038245D03*
X051062Y022245D03*
D18*
X051062Y023245D03*
X037562Y038245D03*
X032312Y038245D03*
X026812Y038245D03*
X021312Y038245D03*
X015812Y038245D03*
X010312Y038245D03*
X004812Y038245D03*
D19*
X019262Y007245D03*
X032362Y007245D03*
D20*
X040312Y005245D03*
X045312Y005245D03*
D21*
X050312Y005729D03*
X050312Y008261D03*
X013312Y010229D03*
X013312Y005229D03*
X008562Y005229D03*
X003812Y005479D03*
X009312Y030761D03*
X014501Y034995D03*
X006623Y035245D03*
D22*
X008001Y035245D03*
X009312Y032729D03*
X013123Y034995D03*
X050312Y010229D03*
X050312Y003761D03*
X013312Y003261D03*
X008562Y003261D03*
X003812Y003511D03*
X013312Y008261D03*
D23*
X027312Y014245D03*
X028812Y014495D03*
X030062Y015745D03*
X033562Y019495D03*
X037562Y020495D03*
X037562Y018245D03*
X039562Y014995D03*
X046812Y020495D03*
X048898Y018331D03*
X029312Y021245D03*
X050062Y035495D03*
X051062Y035495D03*
D24*
X051062Y031495D03*
X050062Y031495D03*
X033562Y020495D03*
X033562Y018245D03*
X030062Y019745D03*
X028812Y018495D03*
X027312Y018245D03*
X035562Y014995D03*
X037562Y019495D03*
X046812Y016495D03*
X029312Y025245D03*
D25*
X022560Y022448D03*
X021560Y022448D03*
X020560Y022448D03*
X019560Y022448D03*
X019560Y028948D03*
X020560Y028948D03*
X021560Y028948D03*
X022560Y028948D03*
X042064Y015792D03*
X043064Y015792D03*
X044064Y015792D03*
X045064Y015792D03*
D26*
X043586Y013995D03*
X043586Y013495D03*
X043586Y012995D03*
X043586Y012495D03*
X041538Y012495D03*
X041538Y012995D03*
X041538Y013495D03*
X041538Y013995D03*
X022336Y018245D03*
X022336Y018745D03*
X022336Y019245D03*
X022336Y019745D03*
X020288Y019745D03*
X020288Y019245D03*
X020288Y018745D03*
X020288Y018245D03*
X020288Y024245D03*
X020288Y024745D03*
X020288Y025245D03*
X020288Y025745D03*
X022336Y025745D03*
X022336Y025245D03*
X022336Y024745D03*
X022336Y024245D03*
D27*
X011812Y025745D03*
X011812Y019745D03*
D28*
X012812Y031995D03*
X003562Y032245D03*
D29*
X004562Y032245D03*
X005562Y032245D03*
X013812Y031995D03*
X014812Y031995D03*
X010062Y013245D03*
X010062Y007245D03*
D30*
X018062Y013221D03*
X018562Y013221D03*
X019062Y013221D03*
X019562Y013221D03*
X019562Y015269D03*
X019062Y015269D03*
X018562Y015269D03*
X018062Y015269D03*
X035562Y012269D03*
X036062Y012269D03*
X036562Y012269D03*
X037062Y012269D03*
X037062Y010221D03*
X036562Y010221D03*
X036062Y010221D03*
X035562Y010221D03*
D31*
X006861Y010495D03*
X002861Y010495D03*
X002861Y014495D03*
X006861Y014495D03*
X006861Y022745D03*
X002861Y022745D03*
X002861Y026745D03*
X006861Y026745D03*
D32*
X050562Y014745D03*
X050562Y012745D03*
D33*
X047062Y031912D03*
X046062Y031912D03*
X045062Y031912D03*
X044062Y031912D03*
X044562Y032912D03*
X045562Y032912D03*
X046562Y032912D03*
X047562Y032912D03*
D34*
X047432Y035412D02*
X047434Y035462D01*
X047440Y035512D01*
X047450Y035561D01*
X047464Y035609D01*
X047481Y035656D01*
X047502Y035701D01*
X047527Y035745D01*
X047555Y035786D01*
X047587Y035825D01*
X047621Y035862D01*
X047658Y035896D01*
X047698Y035926D01*
X047740Y035953D01*
X047784Y035977D01*
X047830Y035998D01*
X047877Y036014D01*
X047925Y036027D01*
X047975Y036036D01*
X048024Y036041D01*
X048075Y036042D01*
X048125Y036039D01*
X048174Y036032D01*
X048223Y036021D01*
X048271Y036006D01*
X048317Y035988D01*
X048362Y035966D01*
X048405Y035940D01*
X048446Y035911D01*
X048485Y035879D01*
X048521Y035844D01*
X048553Y035806D01*
X048583Y035766D01*
X048610Y035723D01*
X048633Y035679D01*
X048652Y035633D01*
X048668Y035585D01*
X048680Y035536D01*
X048688Y035487D01*
X048692Y035437D01*
X048692Y035387D01*
X048688Y035337D01*
X048680Y035288D01*
X048668Y035239D01*
X048652Y035191D01*
X048633Y035145D01*
X048610Y035101D01*
X048583Y035058D01*
X048553Y035018D01*
X048521Y034980D01*
X048485Y034945D01*
X048446Y034913D01*
X048405Y034884D01*
X048362Y034858D01*
X048317Y034836D01*
X048271Y034818D01*
X048223Y034803D01*
X048174Y034792D01*
X048125Y034785D01*
X048075Y034782D01*
X048024Y034783D01*
X047975Y034788D01*
X047925Y034797D01*
X047877Y034810D01*
X047830Y034826D01*
X047784Y034847D01*
X047740Y034871D01*
X047698Y034898D01*
X047658Y034928D01*
X047621Y034962D01*
X047587Y034999D01*
X047555Y035038D01*
X047527Y035079D01*
X047502Y035123D01*
X047481Y035168D01*
X047464Y035215D01*
X047450Y035263D01*
X047440Y035312D01*
X047434Y035362D01*
X047432Y035412D01*
X042932Y035412D02*
X042934Y035462D01*
X042940Y035512D01*
X042950Y035561D01*
X042964Y035609D01*
X042981Y035656D01*
X043002Y035701D01*
X043027Y035745D01*
X043055Y035786D01*
X043087Y035825D01*
X043121Y035862D01*
X043158Y035896D01*
X043198Y035926D01*
X043240Y035953D01*
X043284Y035977D01*
X043330Y035998D01*
X043377Y036014D01*
X043425Y036027D01*
X043475Y036036D01*
X043524Y036041D01*
X043575Y036042D01*
X043625Y036039D01*
X043674Y036032D01*
X043723Y036021D01*
X043771Y036006D01*
X043817Y035988D01*
X043862Y035966D01*
X043905Y035940D01*
X043946Y035911D01*
X043985Y035879D01*
X044021Y035844D01*
X044053Y035806D01*
X044083Y035766D01*
X044110Y035723D01*
X044133Y035679D01*
X044152Y035633D01*
X044168Y035585D01*
X044180Y035536D01*
X044188Y035487D01*
X044192Y035437D01*
X044192Y035387D01*
X044188Y035337D01*
X044180Y035288D01*
X044168Y035239D01*
X044152Y035191D01*
X044133Y035145D01*
X044110Y035101D01*
X044083Y035058D01*
X044053Y035018D01*
X044021Y034980D01*
X043985Y034945D01*
X043946Y034913D01*
X043905Y034884D01*
X043862Y034858D01*
X043817Y034836D01*
X043771Y034818D01*
X043723Y034803D01*
X043674Y034792D01*
X043625Y034785D01*
X043575Y034782D01*
X043524Y034783D01*
X043475Y034788D01*
X043425Y034797D01*
X043377Y034810D01*
X043330Y034826D01*
X043284Y034847D01*
X043240Y034871D01*
X043198Y034898D01*
X043158Y034928D01*
X043121Y034962D01*
X043087Y034999D01*
X043055Y035038D01*
X043027Y035079D01*
X043002Y035123D01*
X042981Y035168D01*
X042964Y035215D01*
X042950Y035263D01*
X042940Y035312D01*
X042934Y035362D01*
X042932Y035412D01*
D35*
X043562Y035412D03*
X048062Y035412D03*
D36*
X014781Y015190D03*
X014781Y013300D03*
D37*
X017241Y013300D03*
X017241Y015190D03*
D38*
X006562Y018745D03*
X002812Y035745D03*
X052062Y017745D03*
D39*
G36*
X051302Y021159D02*
X051726Y021583D01*
X052150Y021159D01*
X051726Y020735D01*
X051302Y021159D01*
G37*
D40*
X049312Y022371D03*
X049312Y023119D03*
D41*
X026812Y029495D03*
X026312Y029495D03*
X025812Y029495D03*
D42*
X027562Y027745D03*
X027562Y026745D03*
X024062Y025995D03*
X023562Y025995D03*
X019312Y031245D03*
X018312Y031995D03*
X016312Y031995D03*
X034062Y036995D03*
X035812Y034445D03*
X038312Y029495D03*
X038812Y029495D03*
X039312Y029495D03*
X041812Y028745D03*
X042312Y028745D03*
X042812Y028745D03*
X040312Y018495D03*
X039812Y018495D03*
X039312Y018495D03*
X037812Y013245D03*
X040312Y012745D03*
X040312Y012245D03*
X024062Y019995D03*
X023562Y019995D03*
X018312Y016495D03*
D43*
X023312Y027245D03*
X024562Y028495D03*
X026312Y029995D03*
X028062Y028995D03*
X029062Y028495D03*
X029562Y028745D03*
X030312Y029495D03*
X030562Y028745D03*
X030062Y028245D03*
X030062Y027245D03*
X024062Y030495D03*
X023312Y032995D03*
X023812Y033495D03*
X024812Y034745D03*
X027312Y035995D03*
X027312Y037495D03*
X028312Y037745D03*
X030312Y037745D03*
X031562Y038995D03*
X033812Y039045D03*
X035812Y038645D03*
X036812Y037245D03*
X037062Y036495D03*
X037812Y035745D03*
X038812Y036495D03*
X040062Y037745D03*
X041062Y037745D03*
X035312Y034245D03*
X034562Y034745D03*
X034062Y034745D03*
X032812Y034745D03*
X032812Y034245D03*
X031812Y034745D03*
X031312Y034495D03*
X030812Y034245D03*
X029812Y034745D03*
X029312Y034245D03*
X028312Y034245D03*
X030812Y032245D03*
X034812Y031995D03*
X036062Y033245D03*
X032312Y035995D03*
X024812Y037495D03*
X022312Y037245D03*
X022312Y036245D03*
X021062Y034995D03*
X020562Y035495D03*
X018312Y036495D03*
X018312Y037245D03*
X017312Y037495D03*
X015062Y038245D03*
X020562Y038245D03*
X050812Y033045D03*
X051612Y033845D03*
M02*
