M48
;DRILL file {KiCad 4.0.7} date 04/15/18 20:15:53
;FORMAT={-:-/ absolute / inch / decimal}
FMAT,2
INCH,TZ
T1C0.016
T2C0.026
T3C0.030
T4C0.035
T5C0.160
%
G90
G05
M72
T1
X5.334Y-2.558
X5.436Y-2.566
X5.514Y-4.021
X5.621Y-4.054
X5.712Y-4.356
X5.758Y-4.004
X5.825Y-2.812
X6.468Y-3.409
X6.468Y-4.18
X6.613Y-4.233
X6.749Y-4.18
X6.837Y-2.785
X7.284Y-4.063
X7.82Y-3.273
X7.846Y-3.579
X8.209Y-4.21
T2
X5.327Y-3.306
X5.327Y-3.356
X5.452Y-3.306
X5.452Y-3.356
X5.578Y-3.307
X5.578Y-3.357
X5.703Y-3.307
X5.703Y-3.357
X6.588Y-3.308
X6.588Y-3.358
X6.713Y-3.308
X6.713Y-3.358
X6.838Y-3.308
X6.838Y-3.358
X6.963Y-3.31
X6.963Y-3.36
T3
X5.825Y-1.963
X5.831Y-4.814
X5.925Y-1.963
X5.931Y-4.814
X6.025Y-1.963
X6.031Y-4.814
X6.428Y-1.965
X6.438Y-4.814
X6.528Y-1.965
X6.538Y-4.814
X6.628Y-1.965
X6.638Y-4.814
T4
X8.154Y-3.253
X8.154Y-3.353
X8.154Y-3.453
T5
X7.366Y-2.237
X7.378Y-4.546
X7.681Y-2.237
X7.693Y-4.546
X8.164Y-2.236
X8.165Y-4.548
X8.479Y-2.236
X8.48Y-4.548
X8.817Y-4.534
X8.817Y-4.849
X8.817Y-5.164
X8.82Y-1.5901
X8.82Y-1.905
X8.82Y-2.22
T0
M30
