G04 #@! TF.FileFunction,Copper,L2,Bot,Signal*
%FSLAX46Y46*%
G04 Gerber Fmt 4.6, Leading zero omitted, Abs format (unit mm)*
G04 Created by KiCad (PCBNEW 4.0.7) date 04/15/18 20:15:51*
%MOMM*%
%LPD*%
G01*
G04 APERTURE LIST*
%ADD10C,0.100000*%
%ADD11C,0.248000*%
%ADD12C,5.080000*%
%ADD13R,1.000000X1.000000*%
%ADD14O,1.000000X1.000000*%
%ADD15C,1.524000*%
%ADD16R,0.990600X1.778000*%
%ADD17C,0.600000*%
%ADD18C,0.406400*%
%ADD19C,0.254000*%
G04 APERTURE END LIST*
D10*
D11*
X152655695Y-77428571D02*
X152891886Y-76767238D01*
X153128076Y-77428571D02*
X152891886Y-76767238D01*
X152797410Y-76531048D01*
X152750171Y-76483810D01*
X152655695Y-76436571D01*
X153883886Y-76814476D02*
X153789410Y-76767238D01*
X153600458Y-76767238D01*
X153505981Y-76814476D01*
X153458743Y-76908952D01*
X153458743Y-77286857D01*
X153505981Y-77381333D01*
X153600458Y-77428571D01*
X153789410Y-77428571D01*
X153883886Y-77381333D01*
X153931124Y-77286857D01*
X153931124Y-77192381D01*
X153458743Y-77097905D01*
X154734172Y-76814476D02*
X154639696Y-76767238D01*
X154450744Y-76767238D01*
X154356267Y-76814476D01*
X154309029Y-76908952D01*
X154309029Y-77286857D01*
X154356267Y-77381333D01*
X154450744Y-77428571D01*
X154639696Y-77428571D01*
X154734172Y-77381333D01*
X154781410Y-77286857D01*
X154781410Y-77192381D01*
X154309029Y-77097905D01*
X155064839Y-77428571D02*
X155442744Y-77428571D01*
X155206553Y-77759238D02*
X155206553Y-76908952D01*
X155253792Y-76814476D01*
X155348268Y-76767238D01*
X155442744Y-76767238D01*
D12*
X224028000Y-40388000D03*
X224028000Y-48387000D03*
X224028000Y-56388000D03*
X207364600Y-56794400D03*
X215365600Y-56794400D03*
X195403200Y-115468400D03*
X187402200Y-115468400D03*
X187096400Y-56819800D03*
X195097400Y-56819800D03*
X215393000Y-115519200D03*
X207392000Y-115519200D03*
D13*
X144856200Y-83997800D03*
D14*
X144856200Y-85267800D03*
D13*
X141681200Y-83997800D03*
D14*
X141681200Y-85267800D03*
D13*
X176860200Y-85344000D03*
D14*
X176860200Y-84074000D03*
D13*
X173685200Y-84023200D03*
D14*
X173685200Y-85293200D03*
D13*
X138480800Y-83972400D03*
D14*
X138480800Y-85242400D03*
D13*
X135305800Y-83972400D03*
D14*
X135305800Y-85242400D03*
D13*
X170510200Y-84023200D03*
D14*
X170510200Y-85293200D03*
D13*
X167335200Y-84023200D03*
D14*
X167335200Y-85293200D03*
D15*
X153187400Y-122275600D03*
X150647400Y-122275600D03*
X148107400Y-122275600D03*
X163271200Y-49911000D03*
X165811200Y-49911000D03*
X168351200Y-49911000D03*
X147955000Y-49860200D03*
X150495000Y-49860200D03*
X153035000Y-49860200D03*
X168605200Y-122275600D03*
X166065200Y-122275600D03*
X163525200Y-122275600D03*
X207111600Y-82626200D03*
X207111600Y-85166200D03*
X207111600Y-87706200D03*
D12*
X223951800Y-115164600D03*
X223951800Y-123163600D03*
X223951800Y-131164600D03*
D16*
X205333600Y-110744000D03*
X182473600Y-61722000D03*
X182473600Y-67564000D03*
X182473600Y-104902000D03*
X182473600Y-110744000D03*
X118973600Y-61752480D03*
X118973600Y-67564000D03*
X118973600Y-104927400D03*
X118973600Y-110744000D03*
X121513600Y-61752480D03*
X124053600Y-61752480D03*
X126593600Y-61752480D03*
X129133600Y-61752480D03*
X131673600Y-61752480D03*
X134213600Y-61752480D03*
X136753600Y-61752480D03*
X139293600Y-61752480D03*
X141833600Y-61752480D03*
X121513600Y-67564000D03*
X124053600Y-67564000D03*
X126593600Y-67564000D03*
X129133600Y-67564000D03*
X131673600Y-67564000D03*
X134213600Y-67564000D03*
X136753600Y-67564000D03*
X139293600Y-67564000D03*
X141833600Y-67564000D03*
X121513600Y-104927400D03*
X124053600Y-104927400D03*
X126593600Y-104927400D03*
X129133600Y-104927400D03*
X131673600Y-104927400D03*
X134213600Y-104927400D03*
X136753600Y-104927400D03*
X139293600Y-104927400D03*
X141833600Y-104927400D03*
X121513600Y-110744000D03*
X124053600Y-110744000D03*
X126593600Y-110744000D03*
X129133600Y-110744000D03*
X131673600Y-110744000D03*
X134213600Y-110744000D03*
X136753600Y-110744000D03*
X139293600Y-110744000D03*
X141833600Y-110744000D03*
X185013600Y-61722000D03*
X187553600Y-61722000D03*
X190093600Y-61722000D03*
X192633600Y-61722000D03*
X195173600Y-61722000D03*
X197713600Y-61722000D03*
X200253600Y-61722000D03*
X202793600Y-61722000D03*
X205333600Y-61722000D03*
X185013600Y-67564000D03*
X187553600Y-67564000D03*
X190093600Y-67564000D03*
X192633600Y-67564000D03*
X195173600Y-67564000D03*
X197713600Y-67564000D03*
X200253600Y-67564000D03*
X202793600Y-67564000D03*
X205333600Y-67564000D03*
X185013600Y-104902000D03*
X187553600Y-104902000D03*
X190093600Y-104902000D03*
X192633600Y-104902000D03*
X195173600Y-104902000D03*
X197713600Y-104902000D03*
X200253600Y-104902000D03*
X205333600Y-104902000D03*
X185013600Y-110744000D03*
X187553600Y-110744000D03*
X190093600Y-110744000D03*
X192633600Y-110744000D03*
X195173600Y-110744000D03*
X197713600Y-110744000D03*
X200253600Y-110744000D03*
X202793600Y-110744000D03*
X202793600Y-104902000D03*
D17*
X185013600Y-103200200D03*
X145084800Y-110642400D03*
X208508600Y-106934000D03*
X138074400Y-65176400D03*
X146253200Y-101701600D03*
X135483600Y-64973200D03*
X142773400Y-102971600D03*
X164287200Y-86588600D03*
X164287200Y-106172000D03*
X198628000Y-83134200D03*
X173659800Y-70739000D03*
X140055600Y-102133400D03*
X147955000Y-71424800D03*
X199288400Y-90906600D03*
X171424600Y-106172000D03*
X167970200Y-107518200D03*
D18*
X185013600Y-104902000D02*
X185013600Y-103200200D01*
X207111600Y-82626200D02*
X221411800Y-82626200D01*
X221411800Y-82626200D02*
X225856800Y-82626200D01*
X223951800Y-115164600D02*
X221411801Y-112624601D01*
X221411801Y-112624601D02*
X221411800Y-109905800D01*
X221411800Y-109905800D02*
X221411800Y-82626200D01*
X225856800Y-82626200D02*
X228041200Y-80441800D01*
X228041200Y-44475400D02*
X228041200Y-80441800D01*
X226567999Y-43002199D02*
X228041200Y-44475400D01*
X224028000Y-40388000D02*
X226567999Y-42927999D01*
X226567999Y-42927999D02*
X226567999Y-43002199D01*
X182984790Y-108124610D02*
X207317990Y-108124610D01*
X207317990Y-108124610D02*
X208508600Y-106934000D01*
X182473600Y-108635800D02*
X182984790Y-108124610D01*
X182473600Y-110350300D02*
X182473600Y-108635800D01*
X182473600Y-110744000D02*
X182473600Y-110350300D01*
X177393600Y-124460000D02*
X166090600Y-124460000D01*
X166090600Y-124460000D02*
X165582600Y-124460000D01*
X166065200Y-122275600D02*
X166065200Y-124434600D01*
X166065200Y-124434600D02*
X166090600Y-124460000D01*
X182473600Y-119380000D02*
X177393600Y-124460000D01*
X182473600Y-110744000D02*
X182473600Y-119380000D01*
X165582600Y-124460000D02*
X150647400Y-124460000D01*
X150647400Y-124460000D02*
X131394200Y-124460000D01*
X150647400Y-122275600D02*
X150647400Y-123353230D01*
X150647400Y-123353230D02*
X150647400Y-124460000D01*
X131394200Y-124460000D02*
X118973600Y-112039400D01*
X118973600Y-112039400D02*
X118973600Y-110744000D01*
X138074400Y-65176400D02*
X138074400Y-78333600D01*
X138074400Y-78333600D02*
X143738600Y-83997800D01*
X143738600Y-83997800D02*
X144856200Y-83997800D01*
X146253200Y-101701600D02*
X204317600Y-101701600D01*
X204317600Y-101701600D02*
X205333600Y-102717600D01*
X205333600Y-102717600D02*
X205333600Y-104902000D01*
X135483600Y-64973200D02*
X135483600Y-76893800D01*
X141681200Y-83091400D02*
X141681200Y-83997800D01*
X135483600Y-76893800D02*
X141681200Y-83091400D01*
X147447000Y-102308010D02*
X200199610Y-102308010D01*
X200199610Y-102308010D02*
X200863200Y-102971600D01*
X146783410Y-102971600D02*
X147447000Y-102308010D01*
X142773400Y-102971600D02*
X146783410Y-102971600D01*
X200863200Y-102971600D02*
X202793600Y-104902000D01*
X163245800Y-86588600D02*
X164287200Y-86588600D01*
X164287200Y-86588600D02*
X176522000Y-86588600D01*
X168605200Y-120192800D02*
X164287200Y-115874800D01*
X164287200Y-115874800D02*
X164287200Y-106172000D01*
X168605200Y-122275600D02*
X168605200Y-120192800D01*
X135915400Y-86588600D02*
X163245800Y-86588600D01*
X163271200Y-49911000D02*
X163271200Y-86563200D01*
X163271200Y-86563200D02*
X163245800Y-86588600D01*
X135305800Y-85242400D02*
X135305800Y-85949506D01*
X135305800Y-85949506D02*
X135614694Y-86258400D01*
X135614694Y-86287894D02*
X135915400Y-86588600D01*
X135614694Y-86258400D02*
X135614694Y-86287894D01*
X176522000Y-86588600D02*
X176860200Y-86250400D01*
X176860200Y-86250400D02*
X176860200Y-85344000D01*
X197688200Y-84074000D02*
X198628000Y-83134200D01*
X176860200Y-84074000D02*
X197688200Y-84074000D01*
X173659800Y-70739000D02*
X173659800Y-83997800D01*
X173659800Y-83997800D02*
X173685200Y-84023200D01*
X143154400Y-118948200D02*
X149860000Y-118948200D01*
X149860000Y-118948200D02*
X153187400Y-122275600D01*
X140741400Y-116535200D02*
X143154400Y-118948200D01*
X140055600Y-102133400D02*
X140741400Y-102819200D01*
X140741400Y-102819200D02*
X140741400Y-116535200D01*
X147955000Y-71424800D02*
X147955000Y-49860200D01*
X136855200Y-89763600D02*
X198145400Y-89763600D01*
X198145400Y-89763600D02*
X199288400Y-90906600D01*
X133908800Y-86817200D02*
X136855200Y-89763600D01*
X133908800Y-84463000D02*
X133908800Y-86817200D01*
X135305800Y-83972400D02*
X134399400Y-83972400D01*
X134399400Y-83972400D02*
X133908800Y-84463000D01*
X171424600Y-106172000D02*
X171724599Y-106471999D01*
X171724599Y-106471999D02*
X191457301Y-106471999D01*
X191457301Y-106471999D02*
X192633600Y-105295700D01*
X192633600Y-105295700D02*
X192633600Y-104902000D01*
X194640200Y-107518200D02*
X195173600Y-106984800D01*
X195173600Y-106984800D02*
X195173600Y-104902000D01*
X167970200Y-107518200D02*
X194640200Y-107518200D01*
D19*
G36*
X222231857Y-37694796D02*
X221337935Y-38587159D01*
X220853552Y-39753683D01*
X220852450Y-41016776D01*
X221334796Y-42184143D01*
X222227159Y-43078065D01*
X223393683Y-43562448D01*
X224656776Y-43563550D01*
X225620113Y-43165507D01*
X225825886Y-43371280D01*
X225975302Y-43594896D01*
X227203000Y-44822594D01*
X227203000Y-47756893D01*
X226721204Y-46590857D01*
X225828841Y-45696935D01*
X224662317Y-45212552D01*
X223399224Y-45211450D01*
X222231857Y-45693796D01*
X221337935Y-46586159D01*
X220853552Y-47752683D01*
X220852450Y-49015776D01*
X221334796Y-50183143D01*
X222227159Y-51077065D01*
X223393683Y-51561448D01*
X224656776Y-51562550D01*
X225824143Y-51080204D01*
X226718065Y-50187841D01*
X227202448Y-49021317D01*
X227203000Y-48388624D01*
X227203000Y-80094606D01*
X225509606Y-81788000D01*
X208248797Y-81788000D01*
X207903970Y-81442571D01*
X207390700Y-81229443D01*
X206834939Y-81228958D01*
X206321297Y-81441190D01*
X205927971Y-81833830D01*
X205714843Y-82347100D01*
X205714358Y-82902861D01*
X205926590Y-83416503D01*
X206319230Y-83809829D01*
X206832500Y-84022957D01*
X207388261Y-84023442D01*
X207901903Y-83811210D01*
X208249319Y-83464400D01*
X220573600Y-83464400D01*
X220573600Y-109905800D01*
X220573601Y-112624601D01*
X220637405Y-112945367D01*
X220819104Y-113217298D01*
X221174837Y-113573031D01*
X220777352Y-114530283D01*
X220776250Y-115793376D01*
X221258596Y-116960743D01*
X222150959Y-117854665D01*
X223317483Y-118339048D01*
X224580576Y-118340150D01*
X225747943Y-117857804D01*
X226641865Y-116965441D01*
X227126248Y-115798917D01*
X227127350Y-114535824D01*
X226645004Y-113368457D01*
X225752641Y-112474535D01*
X224586117Y-111990152D01*
X223323024Y-111989050D01*
X222359687Y-112387093D01*
X222250001Y-112277407D01*
X222250000Y-109905800D01*
X222250000Y-83464400D01*
X225856800Y-83464400D01*
X226177566Y-83400596D01*
X226449497Y-83218897D01*
X228633897Y-81034497D01*
X228815596Y-80762566D01*
X228879400Y-80441800D01*
X228879400Y-44475400D01*
X228815596Y-44154635D01*
X228633897Y-43882703D01*
X227310112Y-42558918D01*
X227160696Y-42335302D01*
X226804963Y-41979569D01*
X227202448Y-41022317D01*
X227203550Y-39759224D01*
X226721204Y-38591857D01*
X225828841Y-37697935D01*
X225020301Y-37362200D01*
X239604469Y-37362200D01*
X240349949Y-37510485D01*
X240922649Y-37893151D01*
X241305315Y-38465851D01*
X241453600Y-39211331D01*
X241453600Y-46762917D01*
X241257193Y-46801985D01*
X241151179Y-46845898D01*
X241001251Y-46908000D01*
X240350264Y-47342977D01*
X240219673Y-47473569D01*
X240154377Y-47538864D01*
X239719400Y-48189851D01*
X239662270Y-48327776D01*
X239613385Y-48445793D01*
X239460642Y-49213686D01*
X239460643Y-49352200D01*
X239460642Y-49490714D01*
X239613385Y-50258607D01*
X239657298Y-50364621D01*
X239719400Y-50514549D01*
X240154377Y-51165536D01*
X240209128Y-51220286D01*
X240350264Y-51361423D01*
X241001251Y-51796400D01*
X241151179Y-51858502D01*
X241257193Y-51902415D01*
X241453600Y-51941483D01*
X241453600Y-87864869D01*
X241336252Y-88454822D01*
X241041679Y-88895682D01*
X240600823Y-89190251D01*
X240010874Y-89307600D01*
X224383600Y-89307600D01*
X224111895Y-89361646D01*
X223881554Y-89515554D01*
X223727646Y-89745895D01*
X223673600Y-90017600D01*
X223673600Y-110871000D01*
X223727646Y-111142705D01*
X223881554Y-111373046D01*
X224111895Y-111526954D01*
X224383600Y-111581000D01*
X240087069Y-111581000D01*
X240647865Y-111692549D01*
X241063998Y-111970602D01*
X241342051Y-112386735D01*
X241453600Y-112947531D01*
X241453600Y-120499117D01*
X241257193Y-120538185D01*
X241185214Y-120568000D01*
X241001251Y-120644200D01*
X240350264Y-121079177D01*
X240230578Y-121198864D01*
X240154377Y-121275064D01*
X239719400Y-121926051D01*
X239689209Y-121998939D01*
X239613385Y-122181993D01*
X239460642Y-122949886D01*
X239460643Y-123088400D01*
X239460642Y-123226914D01*
X239613385Y-123994807D01*
X239657298Y-124100821D01*
X239719400Y-124250749D01*
X240154377Y-124901736D01*
X240209128Y-124956486D01*
X240350264Y-125097623D01*
X241001251Y-125532600D01*
X241151179Y-125594702D01*
X241257193Y-125638615D01*
X241451776Y-125677320D01*
X241428418Y-133151973D01*
X241279915Y-133898549D01*
X240897249Y-134471249D01*
X240324549Y-134853915D01*
X239579069Y-135002200D01*
X120262731Y-135002200D01*
X119517251Y-134853915D01*
X118944551Y-134471249D01*
X118561885Y-133898549D01*
X118413600Y-133153069D01*
X118413600Y-131378973D01*
X144476991Y-131378973D01*
X144835523Y-132246686D01*
X145498822Y-132911144D01*
X146365908Y-133271189D01*
X147304773Y-133272009D01*
X148172486Y-132913477D01*
X148836944Y-132250178D01*
X149196989Y-131383092D01*
X149196992Y-131378973D01*
X152096991Y-131378973D01*
X152455523Y-132246686D01*
X153118822Y-132911144D01*
X153985908Y-133271189D01*
X154924773Y-133272009D01*
X155792486Y-132913477D01*
X156456944Y-132250178D01*
X156816989Y-131383092D01*
X156816992Y-131378973D01*
X159894791Y-131378973D01*
X160253323Y-132246686D01*
X160916622Y-132911144D01*
X161783708Y-133271189D01*
X162722573Y-133272009D01*
X163590286Y-132913477D01*
X164254744Y-132250178D01*
X164614789Y-131383092D01*
X164614792Y-131378973D01*
X167514791Y-131378973D01*
X167873323Y-132246686D01*
X168536622Y-132911144D01*
X169403708Y-133271189D01*
X170342573Y-133272009D01*
X171210286Y-132913477D01*
X171874744Y-132250178D01*
X172234789Y-131383092D01*
X172235609Y-130444227D01*
X171877077Y-129576514D01*
X171213778Y-128912056D01*
X170346692Y-128552011D01*
X169407827Y-128551191D01*
X168540114Y-128909723D01*
X167875656Y-129573022D01*
X167515611Y-130440108D01*
X167514791Y-131378973D01*
X164614792Y-131378973D01*
X164615609Y-130444227D01*
X164257077Y-129576514D01*
X163593778Y-128912056D01*
X162726692Y-128552011D01*
X161787827Y-128551191D01*
X160920114Y-128909723D01*
X160255656Y-129573022D01*
X159895611Y-130440108D01*
X159894791Y-131378973D01*
X156816992Y-131378973D01*
X156817809Y-130444227D01*
X156459277Y-129576514D01*
X155795978Y-128912056D01*
X154928892Y-128552011D01*
X153990027Y-128551191D01*
X153122314Y-128909723D01*
X152457856Y-129573022D01*
X152097811Y-130440108D01*
X152096991Y-131378973D01*
X149196992Y-131378973D01*
X149197809Y-130444227D01*
X148839277Y-129576514D01*
X148175978Y-128912056D01*
X147308892Y-128552011D01*
X146370027Y-128551191D01*
X145502314Y-128909723D01*
X144837856Y-129573022D01*
X144477811Y-130440108D01*
X144476991Y-131378973D01*
X118413600Y-131378973D01*
X118413600Y-125601483D01*
X118610007Y-125562415D01*
X118716021Y-125518502D01*
X118865949Y-125456400D01*
X119516936Y-125021423D01*
X119582231Y-124956127D01*
X119712823Y-124825536D01*
X120147800Y-124174549D01*
X120222251Y-123994808D01*
X120253815Y-123918607D01*
X120406558Y-123150714D01*
X120406558Y-122873686D01*
X120253815Y-122105793D01*
X120204930Y-121987776D01*
X120147800Y-121849851D01*
X119712823Y-121198864D01*
X119582231Y-121068273D01*
X119516936Y-121002977D01*
X118865949Y-120568000D01*
X118716021Y-120505898D01*
X118610007Y-120461985D01*
X118413600Y-120422917D01*
X118413600Y-112664794D01*
X130801503Y-125052697D01*
X131073434Y-125234396D01*
X131394200Y-125298200D01*
X177393600Y-125298200D01*
X177714366Y-125234396D01*
X177986297Y-125052697D01*
X179246618Y-123792376D01*
X220776250Y-123792376D01*
X221258596Y-124959743D01*
X222150959Y-125853665D01*
X223317483Y-126338048D01*
X224580576Y-126339150D01*
X225747943Y-125856804D01*
X226641865Y-124964441D01*
X227126248Y-123797917D01*
X227127350Y-122534824D01*
X226645004Y-121367457D01*
X225752641Y-120473535D01*
X224586117Y-119989152D01*
X223323024Y-119988050D01*
X222155657Y-120470396D01*
X221261735Y-121362759D01*
X220777352Y-122529283D01*
X220776250Y-123792376D01*
X179246618Y-123792376D01*
X183066297Y-119972697D01*
X183247996Y-119700765D01*
X183311800Y-119380000D01*
X183311800Y-116097176D01*
X192227650Y-116097176D01*
X192709996Y-117264543D01*
X193602359Y-118158465D01*
X194768883Y-118642848D01*
X196031976Y-118643950D01*
X197199343Y-118161604D01*
X198093265Y-117269241D01*
X198558854Y-116147976D01*
X212217450Y-116147976D01*
X212699796Y-117315343D01*
X213592159Y-118209265D01*
X214758683Y-118693648D01*
X216021776Y-118694750D01*
X217189143Y-118212404D01*
X218083065Y-117320041D01*
X218567448Y-116153517D01*
X218568550Y-114890424D01*
X218086204Y-113723057D01*
X217193841Y-112829135D01*
X216027317Y-112344752D01*
X214764224Y-112343650D01*
X213596857Y-112825996D01*
X212702935Y-113718359D01*
X212218552Y-114884883D01*
X212217450Y-116147976D01*
X198558854Y-116147976D01*
X198577648Y-116102717D01*
X198578750Y-114839624D01*
X198096404Y-113672257D01*
X197204041Y-112778335D01*
X196037517Y-112293952D01*
X194774424Y-112292850D01*
X193607057Y-112775196D01*
X192713135Y-113667559D01*
X192228752Y-114834083D01*
X192227650Y-116097176D01*
X183311800Y-116097176D01*
X183311800Y-112166934D01*
X183420341Y-112097090D01*
X183565331Y-111884890D01*
X183616340Y-111633000D01*
X183616340Y-109855000D01*
X183870860Y-109855000D01*
X183870860Y-111633000D01*
X183915138Y-111868317D01*
X184054210Y-112084441D01*
X184266410Y-112229431D01*
X184518300Y-112280440D01*
X185508900Y-112280440D01*
X185744217Y-112236162D01*
X185960341Y-112097090D01*
X186105331Y-111884890D01*
X186156340Y-111633000D01*
X186156340Y-109855000D01*
X186410860Y-109855000D01*
X186410860Y-111633000D01*
X186455138Y-111868317D01*
X186594210Y-112084441D01*
X186806410Y-112229431D01*
X187058300Y-112280440D01*
X188048900Y-112280440D01*
X188284217Y-112236162D01*
X188500341Y-112097090D01*
X188645331Y-111884890D01*
X188696340Y-111633000D01*
X188696340Y-109855000D01*
X188950860Y-109855000D01*
X188950860Y-111633000D01*
X188995138Y-111868317D01*
X189134210Y-112084441D01*
X189346410Y-112229431D01*
X189598300Y-112280440D01*
X190588900Y-112280440D01*
X190824217Y-112236162D01*
X191040341Y-112097090D01*
X191185331Y-111884890D01*
X191236340Y-111633000D01*
X191236340Y-109855000D01*
X191490860Y-109855000D01*
X191490860Y-111633000D01*
X191535138Y-111868317D01*
X191674210Y-112084441D01*
X191886410Y-112229431D01*
X192138300Y-112280440D01*
X193128900Y-112280440D01*
X193364217Y-112236162D01*
X193580341Y-112097090D01*
X193725331Y-111884890D01*
X193776340Y-111633000D01*
X193776340Y-109855000D01*
X194030860Y-109855000D01*
X194030860Y-111633000D01*
X194075138Y-111868317D01*
X194214210Y-112084441D01*
X194426410Y-112229431D01*
X194678300Y-112280440D01*
X195668900Y-112280440D01*
X195904217Y-112236162D01*
X196120341Y-112097090D01*
X196265331Y-111884890D01*
X196316340Y-111633000D01*
X196316340Y-109855000D01*
X196570860Y-109855000D01*
X196570860Y-111633000D01*
X196615138Y-111868317D01*
X196754210Y-112084441D01*
X196966410Y-112229431D01*
X197218300Y-112280440D01*
X198208900Y-112280440D01*
X198444217Y-112236162D01*
X198660341Y-112097090D01*
X198805331Y-111884890D01*
X198856340Y-111633000D01*
X198856340Y-109855000D01*
X199110860Y-109855000D01*
X199110860Y-111633000D01*
X199155138Y-111868317D01*
X199294210Y-112084441D01*
X199506410Y-112229431D01*
X199758300Y-112280440D01*
X200748900Y-112280440D01*
X200984217Y-112236162D01*
X201200341Y-112097090D01*
X201345331Y-111884890D01*
X201396340Y-111633000D01*
X201396340Y-109855000D01*
X201650860Y-109855000D01*
X201650860Y-111633000D01*
X201695138Y-111868317D01*
X201834210Y-112084441D01*
X202046410Y-112229431D01*
X202298300Y-112280440D01*
X203288900Y-112280440D01*
X203524217Y-112236162D01*
X203740341Y-112097090D01*
X203885331Y-111884890D01*
X203936340Y-111633000D01*
X203936340Y-109855000D01*
X204190860Y-109855000D01*
X204190860Y-111633000D01*
X204235138Y-111868317D01*
X204374210Y-112084441D01*
X204586410Y-112229431D01*
X204838300Y-112280440D01*
X205828900Y-112280440D01*
X206064217Y-112236162D01*
X206280341Y-112097090D01*
X206425331Y-111884890D01*
X206476340Y-111633000D01*
X206476340Y-109855000D01*
X206432062Y-109619683D01*
X206292990Y-109403559D01*
X206080790Y-109258569D01*
X205828900Y-109207560D01*
X204838300Y-109207560D01*
X204602983Y-109251838D01*
X204386859Y-109390910D01*
X204241869Y-109603110D01*
X204190860Y-109855000D01*
X203936340Y-109855000D01*
X203892062Y-109619683D01*
X203752990Y-109403559D01*
X203540790Y-109258569D01*
X203288900Y-109207560D01*
X202298300Y-109207560D01*
X202062983Y-109251838D01*
X201846859Y-109390910D01*
X201701869Y-109603110D01*
X201650860Y-109855000D01*
X201396340Y-109855000D01*
X201352062Y-109619683D01*
X201212990Y-109403559D01*
X201000790Y-109258569D01*
X200748900Y-109207560D01*
X199758300Y-109207560D01*
X199522983Y-109251838D01*
X199306859Y-109390910D01*
X199161869Y-109603110D01*
X199110860Y-109855000D01*
X198856340Y-109855000D01*
X198812062Y-109619683D01*
X198672990Y-109403559D01*
X198460790Y-109258569D01*
X198208900Y-109207560D01*
X197218300Y-109207560D01*
X196982983Y-109251838D01*
X196766859Y-109390910D01*
X196621869Y-109603110D01*
X196570860Y-109855000D01*
X196316340Y-109855000D01*
X196272062Y-109619683D01*
X196132990Y-109403559D01*
X195920790Y-109258569D01*
X195668900Y-109207560D01*
X194678300Y-109207560D01*
X194442983Y-109251838D01*
X194226859Y-109390910D01*
X194081869Y-109603110D01*
X194030860Y-109855000D01*
X193776340Y-109855000D01*
X193732062Y-109619683D01*
X193592990Y-109403559D01*
X193380790Y-109258569D01*
X193128900Y-109207560D01*
X192138300Y-109207560D01*
X191902983Y-109251838D01*
X191686859Y-109390910D01*
X191541869Y-109603110D01*
X191490860Y-109855000D01*
X191236340Y-109855000D01*
X191192062Y-109619683D01*
X191052990Y-109403559D01*
X190840790Y-109258569D01*
X190588900Y-109207560D01*
X189598300Y-109207560D01*
X189362983Y-109251838D01*
X189146859Y-109390910D01*
X189001869Y-109603110D01*
X188950860Y-109855000D01*
X188696340Y-109855000D01*
X188652062Y-109619683D01*
X188512990Y-109403559D01*
X188300790Y-109258569D01*
X188048900Y-109207560D01*
X187058300Y-109207560D01*
X186822983Y-109251838D01*
X186606859Y-109390910D01*
X186461869Y-109603110D01*
X186410860Y-109855000D01*
X186156340Y-109855000D01*
X186112062Y-109619683D01*
X185972990Y-109403559D01*
X185760790Y-109258569D01*
X185508900Y-109207560D01*
X184518300Y-109207560D01*
X184282983Y-109251838D01*
X184066859Y-109390910D01*
X183921869Y-109603110D01*
X183870860Y-109855000D01*
X183616340Y-109855000D01*
X183572062Y-109619683D01*
X183432990Y-109403559D01*
X183311800Y-109320753D01*
X183311800Y-108982994D01*
X183331984Y-108962810D01*
X207317990Y-108962810D01*
X207638756Y-108899006D01*
X207910687Y-108717307D01*
X208804646Y-107823348D01*
X209037543Y-107727117D01*
X209300792Y-107464327D01*
X209443438Y-107120799D01*
X209443762Y-106748833D01*
X209301717Y-106405057D01*
X209038927Y-106141808D01*
X208695399Y-105999162D01*
X208323433Y-105998838D01*
X207979657Y-106140883D01*
X207716408Y-106403673D01*
X207619036Y-106638170D01*
X206970796Y-107286410D01*
X195951806Y-107286410D01*
X196011800Y-106984800D01*
X196011800Y-106324934D01*
X196120341Y-106255090D01*
X196265331Y-106042890D01*
X196316340Y-105791000D01*
X196316340Y-104013000D01*
X196570860Y-104013000D01*
X196570860Y-105791000D01*
X196615138Y-106026317D01*
X196754210Y-106242441D01*
X196966410Y-106387431D01*
X197218300Y-106438440D01*
X198208900Y-106438440D01*
X198444217Y-106394162D01*
X198660341Y-106255090D01*
X198805331Y-106042890D01*
X198856340Y-105791000D01*
X198856340Y-104013000D01*
X198812062Y-103777683D01*
X198672990Y-103561559D01*
X198460790Y-103416569D01*
X198208900Y-103365560D01*
X197218300Y-103365560D01*
X196982983Y-103409838D01*
X196766859Y-103548910D01*
X196621869Y-103761110D01*
X196570860Y-104013000D01*
X196316340Y-104013000D01*
X196272062Y-103777683D01*
X196132990Y-103561559D01*
X195920790Y-103416569D01*
X195668900Y-103365560D01*
X194678300Y-103365560D01*
X194442983Y-103409838D01*
X194226859Y-103548910D01*
X194081869Y-103761110D01*
X194030860Y-104013000D01*
X194030860Y-105791000D01*
X194075138Y-106026317D01*
X194214210Y-106242441D01*
X194335400Y-106325247D01*
X194335400Y-106637606D01*
X194293006Y-106680000D01*
X192434694Y-106680000D01*
X192676254Y-106438440D01*
X193128900Y-106438440D01*
X193364217Y-106394162D01*
X193580341Y-106255090D01*
X193725331Y-106042890D01*
X193776340Y-105791000D01*
X193776340Y-104013000D01*
X193732062Y-103777683D01*
X193592990Y-103561559D01*
X193380790Y-103416569D01*
X193128900Y-103365560D01*
X192138300Y-103365560D01*
X191902983Y-103409838D01*
X191686859Y-103548910D01*
X191541869Y-103761110D01*
X191490860Y-104013000D01*
X191490860Y-105253046D01*
X191236340Y-105507566D01*
X191236340Y-104013000D01*
X191192062Y-103777683D01*
X191052990Y-103561559D01*
X190840790Y-103416569D01*
X190588900Y-103365560D01*
X189598300Y-103365560D01*
X189362983Y-103409838D01*
X189146859Y-103548910D01*
X189001869Y-103761110D01*
X188950860Y-104013000D01*
X188950860Y-105633799D01*
X188696340Y-105633799D01*
X188696340Y-104013000D01*
X188652062Y-103777683D01*
X188512990Y-103561559D01*
X188300790Y-103416569D01*
X188048900Y-103365560D01*
X187058300Y-103365560D01*
X186822983Y-103409838D01*
X186606859Y-103548910D01*
X186461869Y-103761110D01*
X186410860Y-104013000D01*
X186410860Y-105633799D01*
X183616340Y-105633799D01*
X183616340Y-104013000D01*
X183572062Y-103777683D01*
X183432990Y-103561559D01*
X183220790Y-103416569D01*
X182968900Y-103365560D01*
X181978300Y-103365560D01*
X181742983Y-103409838D01*
X181526859Y-103548910D01*
X181381869Y-103761110D01*
X181330860Y-104013000D01*
X181330860Y-105633799D01*
X172208475Y-105633799D01*
X171954927Y-105379808D01*
X171611399Y-105237162D01*
X171239433Y-105236838D01*
X170895657Y-105378883D01*
X170632408Y-105641673D01*
X170489762Y-105985201D01*
X170489438Y-106357167D01*
X170622830Y-106680000D01*
X168389728Y-106680000D01*
X168156999Y-106583362D01*
X167785033Y-106583038D01*
X167441257Y-106725083D01*
X167178008Y-106987873D01*
X167035362Y-107331401D01*
X167035038Y-107703367D01*
X167177083Y-108047143D01*
X167439873Y-108310392D01*
X167783401Y-108453038D01*
X168155367Y-108453362D01*
X168390034Y-108356400D01*
X181690976Y-108356400D01*
X181671689Y-108453362D01*
X181635400Y-108635800D01*
X181635400Y-109321066D01*
X181526859Y-109390910D01*
X181381869Y-109603110D01*
X181330860Y-109855000D01*
X181330860Y-111633000D01*
X181375138Y-111868317D01*
X181514210Y-112084441D01*
X181635400Y-112167247D01*
X181635400Y-119032806D01*
X177046406Y-123621800D01*
X169005392Y-123621800D01*
X169395503Y-123460610D01*
X169788829Y-123067970D01*
X170001957Y-122554700D01*
X170002442Y-121998939D01*
X169790210Y-121485297D01*
X169443400Y-121137881D01*
X169443400Y-120192800D01*
X169379596Y-119872035D01*
X169379596Y-119872034D01*
X169197897Y-119600103D01*
X165125400Y-115527606D01*
X165125400Y-106591528D01*
X165222038Y-106358799D01*
X165222362Y-105986833D01*
X165080317Y-105643057D01*
X164817527Y-105379808D01*
X164473999Y-105237162D01*
X164102033Y-105236838D01*
X163758257Y-105378883D01*
X163495008Y-105641673D01*
X163352362Y-105985201D01*
X163352038Y-106357167D01*
X163449000Y-106591834D01*
X163449000Y-115874800D01*
X163512804Y-116195566D01*
X163694503Y-116467497D01*
X167767000Y-120539994D01*
X167767000Y-121138403D01*
X167421571Y-121483230D01*
X167335251Y-121691112D01*
X167250210Y-121485297D01*
X166857570Y-121091971D01*
X166344300Y-120878843D01*
X165788539Y-120878358D01*
X165274897Y-121090590D01*
X164881571Y-121483230D01*
X164668443Y-121996500D01*
X164667958Y-122552261D01*
X164880190Y-123065903D01*
X165227000Y-123413319D01*
X165227000Y-123621800D01*
X153587592Y-123621800D01*
X153977703Y-123460610D01*
X154371029Y-123067970D01*
X154584157Y-122554700D01*
X154584642Y-121998939D01*
X154372410Y-121485297D01*
X153979770Y-121091971D01*
X153466500Y-120878843D01*
X152975609Y-120878415D01*
X150452697Y-118355503D01*
X150180766Y-118173804D01*
X149860000Y-118110000D01*
X143501594Y-118110000D01*
X141579600Y-116188006D01*
X141579600Y-112280440D01*
X142328900Y-112280440D01*
X142564217Y-112236162D01*
X142780341Y-112097090D01*
X142925331Y-111884890D01*
X142976340Y-111633000D01*
X142976340Y-109855000D01*
X142932062Y-109619683D01*
X142792990Y-109403559D01*
X142580790Y-109258569D01*
X142328900Y-109207560D01*
X141579600Y-109207560D01*
X141579600Y-106463840D01*
X142328900Y-106463840D01*
X142564217Y-106419562D01*
X142780341Y-106280490D01*
X142925331Y-106068290D01*
X142976340Y-105816400D01*
X142976340Y-104038400D01*
X142951569Y-103906756D01*
X142958567Y-103906762D01*
X143193234Y-103809800D01*
X146783410Y-103809800D01*
X147104176Y-103745996D01*
X147376107Y-103564297D01*
X147794194Y-103146210D01*
X199852416Y-103146210D01*
X200071766Y-103365560D01*
X199758300Y-103365560D01*
X199522983Y-103409838D01*
X199306859Y-103548910D01*
X199161869Y-103761110D01*
X199110860Y-104013000D01*
X199110860Y-105791000D01*
X199155138Y-106026317D01*
X199294210Y-106242441D01*
X199506410Y-106387431D01*
X199758300Y-106438440D01*
X200748900Y-106438440D01*
X200984217Y-106394162D01*
X201200341Y-106255090D01*
X201345331Y-106042890D01*
X201396340Y-105791000D01*
X201396340Y-104690134D01*
X201650860Y-104944654D01*
X201650860Y-105791000D01*
X201695138Y-106026317D01*
X201834210Y-106242441D01*
X202046410Y-106387431D01*
X202298300Y-106438440D01*
X203288900Y-106438440D01*
X203524217Y-106394162D01*
X203740341Y-106255090D01*
X203885331Y-106042890D01*
X203936340Y-105791000D01*
X203936340Y-104013000D01*
X203892062Y-103777683D01*
X203752990Y-103561559D01*
X203540790Y-103416569D01*
X203288900Y-103365560D01*
X202442554Y-103365560D01*
X201616794Y-102539800D01*
X203970406Y-102539800D01*
X204495400Y-103064794D01*
X204495400Y-103479066D01*
X204386859Y-103548910D01*
X204241869Y-103761110D01*
X204190860Y-104013000D01*
X204190860Y-105791000D01*
X204235138Y-106026317D01*
X204374210Y-106242441D01*
X204586410Y-106387431D01*
X204838300Y-106438440D01*
X205828900Y-106438440D01*
X206064217Y-106394162D01*
X206280341Y-106255090D01*
X206425331Y-106042890D01*
X206476340Y-105791000D01*
X206476340Y-104013000D01*
X206432062Y-103777683D01*
X206292990Y-103561559D01*
X206171800Y-103478753D01*
X206171800Y-102717600D01*
X206154132Y-102628775D01*
X206107996Y-102396834D01*
X205926297Y-102124903D01*
X204910297Y-101108903D01*
X204638366Y-100927204D01*
X204317600Y-100863400D01*
X146672728Y-100863400D01*
X146439999Y-100766762D01*
X146068033Y-100766438D01*
X145724257Y-100908483D01*
X145461008Y-101171273D01*
X145318362Y-101514801D01*
X145318038Y-101886767D01*
X145419944Y-102133400D01*
X143192928Y-102133400D01*
X142960199Y-102036762D01*
X142588233Y-102036438D01*
X142244457Y-102178483D01*
X141981208Y-102441273D01*
X141838562Y-102784801D01*
X141838238Y-103156767D01*
X141935004Y-103390960D01*
X141579600Y-103390960D01*
X141579600Y-102819200D01*
X141515796Y-102498435D01*
X141334097Y-102226503D01*
X140944948Y-101837354D01*
X140848717Y-101604457D01*
X140585927Y-101341208D01*
X140242399Y-101198562D01*
X139870433Y-101198238D01*
X139526657Y-101340283D01*
X139263408Y-101603073D01*
X139120762Y-101946601D01*
X139120438Y-102318567D01*
X139262483Y-102662343D01*
X139525273Y-102925592D01*
X139759770Y-103022964D01*
X139903200Y-103166394D01*
X139903200Y-103414106D01*
X139788900Y-103390960D01*
X138798300Y-103390960D01*
X138562983Y-103435238D01*
X138346859Y-103574310D01*
X138201869Y-103786510D01*
X138150860Y-104038400D01*
X138150860Y-105816400D01*
X138195138Y-106051717D01*
X138334210Y-106267841D01*
X138546410Y-106412831D01*
X138798300Y-106463840D01*
X139788900Y-106463840D01*
X139903200Y-106442333D01*
X139903200Y-109230706D01*
X139788900Y-109207560D01*
X138798300Y-109207560D01*
X138562983Y-109251838D01*
X138346859Y-109390910D01*
X138201869Y-109603110D01*
X138150860Y-109855000D01*
X138150860Y-111633000D01*
X138195138Y-111868317D01*
X138334210Y-112084441D01*
X138546410Y-112229431D01*
X138798300Y-112280440D01*
X139788900Y-112280440D01*
X139903200Y-112258933D01*
X139903200Y-116535200D01*
X139967004Y-116855966D01*
X140148703Y-117127897D01*
X142561703Y-119540897D01*
X142833634Y-119722596D01*
X143154400Y-119786400D01*
X149512806Y-119786400D01*
X150604968Y-120878562D01*
X150370739Y-120878358D01*
X149857097Y-121090590D01*
X149463771Y-121483230D01*
X149250643Y-121996500D01*
X149250158Y-122552261D01*
X149462390Y-123065903D01*
X149809200Y-123413319D01*
X149809200Y-123621800D01*
X131741394Y-123621800D01*
X120040632Y-111921038D01*
X120065331Y-111884890D01*
X120116340Y-111633000D01*
X120116340Y-109855000D01*
X120370860Y-109855000D01*
X120370860Y-111633000D01*
X120415138Y-111868317D01*
X120554210Y-112084441D01*
X120766410Y-112229431D01*
X121018300Y-112280440D01*
X122008900Y-112280440D01*
X122244217Y-112236162D01*
X122460341Y-112097090D01*
X122605331Y-111884890D01*
X122656340Y-111633000D01*
X122656340Y-109855000D01*
X122910860Y-109855000D01*
X122910860Y-111633000D01*
X122955138Y-111868317D01*
X123094210Y-112084441D01*
X123306410Y-112229431D01*
X123558300Y-112280440D01*
X124548900Y-112280440D01*
X124784217Y-112236162D01*
X125000341Y-112097090D01*
X125145331Y-111884890D01*
X125196340Y-111633000D01*
X125196340Y-109855000D01*
X125450860Y-109855000D01*
X125450860Y-111633000D01*
X125495138Y-111868317D01*
X125634210Y-112084441D01*
X125846410Y-112229431D01*
X126098300Y-112280440D01*
X127088900Y-112280440D01*
X127324217Y-112236162D01*
X127540341Y-112097090D01*
X127685331Y-111884890D01*
X127736340Y-111633000D01*
X127736340Y-109855000D01*
X127990860Y-109855000D01*
X127990860Y-111633000D01*
X128035138Y-111868317D01*
X128174210Y-112084441D01*
X128386410Y-112229431D01*
X128638300Y-112280440D01*
X129628900Y-112280440D01*
X129864217Y-112236162D01*
X130080341Y-112097090D01*
X130225331Y-111884890D01*
X130276340Y-111633000D01*
X130276340Y-109855000D01*
X130530860Y-109855000D01*
X130530860Y-111633000D01*
X130575138Y-111868317D01*
X130714210Y-112084441D01*
X130926410Y-112229431D01*
X131178300Y-112280440D01*
X132168900Y-112280440D01*
X132404217Y-112236162D01*
X132620341Y-112097090D01*
X132765331Y-111884890D01*
X132816340Y-111633000D01*
X132816340Y-109855000D01*
X133070860Y-109855000D01*
X133070860Y-111633000D01*
X133115138Y-111868317D01*
X133254210Y-112084441D01*
X133466410Y-112229431D01*
X133718300Y-112280440D01*
X134708900Y-112280440D01*
X134944217Y-112236162D01*
X135160341Y-112097090D01*
X135305331Y-111884890D01*
X135356340Y-111633000D01*
X135356340Y-109855000D01*
X135610860Y-109855000D01*
X135610860Y-111633000D01*
X135655138Y-111868317D01*
X135794210Y-112084441D01*
X136006410Y-112229431D01*
X136258300Y-112280440D01*
X137248900Y-112280440D01*
X137484217Y-112236162D01*
X137700341Y-112097090D01*
X137845331Y-111884890D01*
X137896340Y-111633000D01*
X137896340Y-109855000D01*
X137852062Y-109619683D01*
X137712990Y-109403559D01*
X137500790Y-109258569D01*
X137248900Y-109207560D01*
X136258300Y-109207560D01*
X136022983Y-109251838D01*
X135806859Y-109390910D01*
X135661869Y-109603110D01*
X135610860Y-109855000D01*
X135356340Y-109855000D01*
X135312062Y-109619683D01*
X135172990Y-109403559D01*
X134960790Y-109258569D01*
X134708900Y-109207560D01*
X133718300Y-109207560D01*
X133482983Y-109251838D01*
X133266859Y-109390910D01*
X133121869Y-109603110D01*
X133070860Y-109855000D01*
X132816340Y-109855000D01*
X132772062Y-109619683D01*
X132632990Y-109403559D01*
X132420790Y-109258569D01*
X132168900Y-109207560D01*
X131178300Y-109207560D01*
X130942983Y-109251838D01*
X130726859Y-109390910D01*
X130581869Y-109603110D01*
X130530860Y-109855000D01*
X130276340Y-109855000D01*
X130232062Y-109619683D01*
X130092990Y-109403559D01*
X129880790Y-109258569D01*
X129628900Y-109207560D01*
X128638300Y-109207560D01*
X128402983Y-109251838D01*
X128186859Y-109390910D01*
X128041869Y-109603110D01*
X127990860Y-109855000D01*
X127736340Y-109855000D01*
X127692062Y-109619683D01*
X127552990Y-109403559D01*
X127340790Y-109258569D01*
X127088900Y-109207560D01*
X126098300Y-109207560D01*
X125862983Y-109251838D01*
X125646859Y-109390910D01*
X125501869Y-109603110D01*
X125450860Y-109855000D01*
X125196340Y-109855000D01*
X125152062Y-109619683D01*
X125012990Y-109403559D01*
X124800790Y-109258569D01*
X124548900Y-109207560D01*
X123558300Y-109207560D01*
X123322983Y-109251838D01*
X123106859Y-109390910D01*
X122961869Y-109603110D01*
X122910860Y-109855000D01*
X122656340Y-109855000D01*
X122612062Y-109619683D01*
X122472990Y-109403559D01*
X122260790Y-109258569D01*
X122008900Y-109207560D01*
X121018300Y-109207560D01*
X120782983Y-109251838D01*
X120566859Y-109390910D01*
X120421869Y-109603110D01*
X120370860Y-109855000D01*
X120116340Y-109855000D01*
X120072062Y-109619683D01*
X119932990Y-109403559D01*
X119720790Y-109258569D01*
X119468900Y-109207560D01*
X118478300Y-109207560D01*
X118413600Y-109219734D01*
X118413600Y-106450738D01*
X118478300Y-106463840D01*
X119468900Y-106463840D01*
X119704217Y-106419562D01*
X119920341Y-106280490D01*
X120065331Y-106068290D01*
X120116340Y-105816400D01*
X120116340Y-104038400D01*
X122910860Y-104038400D01*
X122910860Y-105816400D01*
X122955138Y-106051717D01*
X123094210Y-106267841D01*
X123306410Y-106412831D01*
X123558300Y-106463840D01*
X124548900Y-106463840D01*
X124784217Y-106419562D01*
X125000341Y-106280490D01*
X125145331Y-106068290D01*
X125196340Y-105816400D01*
X125196340Y-104038400D01*
X125450860Y-104038400D01*
X125450860Y-105816400D01*
X125495138Y-106051717D01*
X125634210Y-106267841D01*
X125846410Y-106412831D01*
X126098300Y-106463840D01*
X127088900Y-106463840D01*
X127324217Y-106419562D01*
X127540341Y-106280490D01*
X127685331Y-106068290D01*
X127736340Y-105816400D01*
X127736340Y-104038400D01*
X127990860Y-104038400D01*
X127990860Y-105816400D01*
X128035138Y-106051717D01*
X128174210Y-106267841D01*
X128386410Y-106412831D01*
X128638300Y-106463840D01*
X129628900Y-106463840D01*
X129864217Y-106419562D01*
X130080341Y-106280490D01*
X130225331Y-106068290D01*
X130276340Y-105816400D01*
X130276340Y-104038400D01*
X130530860Y-104038400D01*
X130530860Y-105816400D01*
X130575138Y-106051717D01*
X130714210Y-106267841D01*
X130926410Y-106412831D01*
X131178300Y-106463840D01*
X132168900Y-106463840D01*
X132404217Y-106419562D01*
X132620341Y-106280490D01*
X132765331Y-106068290D01*
X132816340Y-105816400D01*
X132816340Y-104038400D01*
X133070860Y-104038400D01*
X133070860Y-105816400D01*
X133115138Y-106051717D01*
X133254210Y-106267841D01*
X133466410Y-106412831D01*
X133718300Y-106463840D01*
X134708900Y-106463840D01*
X134944217Y-106419562D01*
X135160341Y-106280490D01*
X135305331Y-106068290D01*
X135356340Y-105816400D01*
X135356340Y-104038400D01*
X135610860Y-104038400D01*
X135610860Y-105816400D01*
X135655138Y-106051717D01*
X135794210Y-106267841D01*
X136006410Y-106412831D01*
X136258300Y-106463840D01*
X137248900Y-106463840D01*
X137484217Y-106419562D01*
X137700341Y-106280490D01*
X137845331Y-106068290D01*
X137896340Y-105816400D01*
X137896340Y-104038400D01*
X137852062Y-103803083D01*
X137712990Y-103586959D01*
X137500790Y-103441969D01*
X137248900Y-103390960D01*
X136258300Y-103390960D01*
X136022983Y-103435238D01*
X135806859Y-103574310D01*
X135661869Y-103786510D01*
X135610860Y-104038400D01*
X135356340Y-104038400D01*
X135312062Y-103803083D01*
X135172990Y-103586959D01*
X134960790Y-103441969D01*
X134708900Y-103390960D01*
X133718300Y-103390960D01*
X133482983Y-103435238D01*
X133266859Y-103574310D01*
X133121869Y-103786510D01*
X133070860Y-104038400D01*
X132816340Y-104038400D01*
X132772062Y-103803083D01*
X132632990Y-103586959D01*
X132420790Y-103441969D01*
X132168900Y-103390960D01*
X131178300Y-103390960D01*
X130942983Y-103435238D01*
X130726859Y-103574310D01*
X130581869Y-103786510D01*
X130530860Y-104038400D01*
X130276340Y-104038400D01*
X130232062Y-103803083D01*
X130092990Y-103586959D01*
X129880790Y-103441969D01*
X129628900Y-103390960D01*
X128638300Y-103390960D01*
X128402983Y-103435238D01*
X128186859Y-103574310D01*
X128041869Y-103786510D01*
X127990860Y-104038400D01*
X127736340Y-104038400D01*
X127692062Y-103803083D01*
X127552990Y-103586959D01*
X127340790Y-103441969D01*
X127088900Y-103390960D01*
X126098300Y-103390960D01*
X125862983Y-103435238D01*
X125646859Y-103574310D01*
X125501869Y-103786510D01*
X125450860Y-104038400D01*
X125196340Y-104038400D01*
X125152062Y-103803083D01*
X125012990Y-103586959D01*
X124800790Y-103441969D01*
X124548900Y-103390960D01*
X123558300Y-103390960D01*
X123322983Y-103435238D01*
X123106859Y-103574310D01*
X122961869Y-103786510D01*
X122910860Y-104038400D01*
X120116340Y-104038400D01*
X120072062Y-103803083D01*
X119932990Y-103586959D01*
X119720790Y-103441969D01*
X119468900Y-103390960D01*
X118478300Y-103390960D01*
X118413600Y-103403134D01*
X118413600Y-84463000D01*
X133070600Y-84463000D01*
X133070600Y-86817200D01*
X133134404Y-87137966D01*
X133316103Y-87409897D01*
X136262503Y-90356297D01*
X136534435Y-90537996D01*
X136855200Y-90601800D01*
X197798206Y-90601800D01*
X198399052Y-91202646D01*
X198495283Y-91435543D01*
X198758073Y-91698792D01*
X199101601Y-91841438D01*
X199473567Y-91841762D01*
X199817343Y-91699717D01*
X200080592Y-91436927D01*
X200223238Y-91093399D01*
X200223562Y-90721433D01*
X200081517Y-90377657D01*
X199818727Y-90114408D01*
X199584230Y-90017036D01*
X198738097Y-89170903D01*
X198466166Y-88989204D01*
X198145400Y-88925400D01*
X137202394Y-88925400D01*
X136259855Y-87982861D01*
X205714358Y-87982861D01*
X205926590Y-88496503D01*
X206319230Y-88889829D01*
X206832500Y-89102957D01*
X207388261Y-89103442D01*
X207901903Y-88891210D01*
X208295229Y-88498570D01*
X208508357Y-87985300D01*
X208508842Y-87429539D01*
X208296610Y-86915897D01*
X207903970Y-86522571D01*
X207390700Y-86309443D01*
X206834939Y-86308958D01*
X206321297Y-86521190D01*
X205927971Y-86913830D01*
X205714843Y-87427100D01*
X205714358Y-87982861D01*
X136259855Y-87982861D01*
X135651252Y-87374258D01*
X135915400Y-87426800D01*
X163867672Y-87426800D01*
X164100401Y-87523438D01*
X164472367Y-87523762D01*
X164707034Y-87426800D01*
X176522000Y-87426800D01*
X176842766Y-87362996D01*
X177114697Y-87181297D01*
X177452897Y-86843097D01*
X177634596Y-86571166D01*
X177668619Y-86400122D01*
X177811641Y-86308090D01*
X177956631Y-86095890D01*
X178007640Y-85844000D01*
X178007640Y-84912200D01*
X197688200Y-84912200D01*
X198008966Y-84848396D01*
X198280897Y-84666697D01*
X198924046Y-84023548D01*
X199156943Y-83927317D01*
X199420192Y-83664527D01*
X199562838Y-83320999D01*
X199563162Y-82949033D01*
X199421117Y-82605257D01*
X199158327Y-82342008D01*
X198814799Y-82199362D01*
X198442833Y-82199038D01*
X198099057Y-82341083D01*
X197835808Y-82603873D01*
X197738436Y-82838370D01*
X197341006Y-83235800D01*
X177631672Y-83235800D01*
X177316782Y-83025397D01*
X176882436Y-82939000D01*
X176837964Y-82939000D01*
X176403618Y-83025397D01*
X176035398Y-83271434D01*
X175789361Y-83639654D01*
X175702964Y-84074000D01*
X175789361Y-84508346D01*
X175805005Y-84531759D01*
X175763769Y-84592110D01*
X175712760Y-84844000D01*
X175712760Y-85750400D01*
X174740768Y-85750400D01*
X174756039Y-85727546D01*
X174842436Y-85293200D01*
X174756039Y-84858854D01*
X174740395Y-84835441D01*
X174781631Y-84775090D01*
X174832640Y-84523200D01*
X174832640Y-83523200D01*
X174788362Y-83287883D01*
X174649290Y-83071759D01*
X174498000Y-82968387D01*
X174498000Y-71158528D01*
X174594638Y-70925799D01*
X174594962Y-70553833D01*
X174452917Y-70210057D01*
X174190127Y-69946808D01*
X173846599Y-69804162D01*
X173474633Y-69803838D01*
X173130857Y-69945883D01*
X172867608Y-70208673D01*
X172724962Y-70552201D01*
X172724638Y-70924167D01*
X172821600Y-71158834D01*
X172821600Y-83002586D01*
X172733759Y-83059110D01*
X172588769Y-83271310D01*
X172537760Y-83523200D01*
X172537760Y-84523200D01*
X172582038Y-84758517D01*
X172630786Y-84834273D01*
X172614361Y-84858854D01*
X172527964Y-85293200D01*
X172614361Y-85727546D01*
X172629632Y-85750400D01*
X171565768Y-85750400D01*
X171581039Y-85727546D01*
X171667436Y-85293200D01*
X171581039Y-84858854D01*
X171565395Y-84835441D01*
X171606631Y-84775090D01*
X171657640Y-84523200D01*
X171657640Y-83523200D01*
X171613362Y-83287883D01*
X171474290Y-83071759D01*
X171262090Y-82926769D01*
X171010200Y-82875760D01*
X170010200Y-82875760D01*
X169774883Y-82920038D01*
X169558759Y-83059110D01*
X169413769Y-83271310D01*
X169362760Y-83523200D01*
X169362760Y-84523200D01*
X169407038Y-84758517D01*
X169455786Y-84834273D01*
X169439361Y-84858854D01*
X169352964Y-85293200D01*
X169439361Y-85727546D01*
X169454632Y-85750400D01*
X168390768Y-85750400D01*
X168406039Y-85727546D01*
X168492436Y-85293200D01*
X168406039Y-84858854D01*
X168390395Y-84835441D01*
X168431631Y-84775090D01*
X168482640Y-84523200D01*
X168482640Y-83523200D01*
X168438362Y-83287883D01*
X168299290Y-83071759D01*
X168087090Y-82926769D01*
X167835200Y-82875760D01*
X166835200Y-82875760D01*
X166599883Y-82920038D01*
X166383759Y-83059110D01*
X166238769Y-83271310D01*
X166187760Y-83523200D01*
X166187760Y-84523200D01*
X166232038Y-84758517D01*
X166280786Y-84834273D01*
X166264361Y-84858854D01*
X166177964Y-85293200D01*
X166264361Y-85727546D01*
X166279632Y-85750400D01*
X164706728Y-85750400D01*
X164473999Y-85653762D01*
X164109400Y-85653444D01*
X164109400Y-66675000D01*
X181330860Y-66675000D01*
X181330860Y-68453000D01*
X181375138Y-68688317D01*
X181514210Y-68904441D01*
X181726410Y-69049431D01*
X181978300Y-69100440D01*
X182968900Y-69100440D01*
X183204217Y-69056162D01*
X183420341Y-68917090D01*
X183565331Y-68704890D01*
X183616340Y-68453000D01*
X183616340Y-66675000D01*
X183870860Y-66675000D01*
X183870860Y-68453000D01*
X183915138Y-68688317D01*
X184054210Y-68904441D01*
X184266410Y-69049431D01*
X184518300Y-69100440D01*
X185508900Y-69100440D01*
X185744217Y-69056162D01*
X185960341Y-68917090D01*
X186105331Y-68704890D01*
X186156340Y-68453000D01*
X186156340Y-66675000D01*
X186410860Y-66675000D01*
X186410860Y-68453000D01*
X186455138Y-68688317D01*
X186594210Y-68904441D01*
X186806410Y-69049431D01*
X187058300Y-69100440D01*
X188048900Y-69100440D01*
X188284217Y-69056162D01*
X188500341Y-68917090D01*
X188645331Y-68704890D01*
X188696340Y-68453000D01*
X188696340Y-66675000D01*
X188950860Y-66675000D01*
X188950860Y-68453000D01*
X188995138Y-68688317D01*
X189134210Y-68904441D01*
X189346410Y-69049431D01*
X189598300Y-69100440D01*
X190588900Y-69100440D01*
X190824217Y-69056162D01*
X191040341Y-68917090D01*
X191185331Y-68704890D01*
X191236340Y-68453000D01*
X191236340Y-66675000D01*
X191490860Y-66675000D01*
X191490860Y-68453000D01*
X191535138Y-68688317D01*
X191674210Y-68904441D01*
X191886410Y-69049431D01*
X192138300Y-69100440D01*
X193128900Y-69100440D01*
X193364217Y-69056162D01*
X193580341Y-68917090D01*
X193725331Y-68704890D01*
X193776340Y-68453000D01*
X193776340Y-66675000D01*
X194030860Y-66675000D01*
X194030860Y-68453000D01*
X194075138Y-68688317D01*
X194214210Y-68904441D01*
X194426410Y-69049431D01*
X194678300Y-69100440D01*
X195668900Y-69100440D01*
X195904217Y-69056162D01*
X196120341Y-68917090D01*
X196265331Y-68704890D01*
X196316340Y-68453000D01*
X196316340Y-66675000D01*
X196570860Y-66675000D01*
X196570860Y-68453000D01*
X196615138Y-68688317D01*
X196754210Y-68904441D01*
X196966410Y-69049431D01*
X197218300Y-69100440D01*
X198208900Y-69100440D01*
X198444217Y-69056162D01*
X198660341Y-68917090D01*
X198805331Y-68704890D01*
X198856340Y-68453000D01*
X198856340Y-66675000D01*
X199110860Y-66675000D01*
X199110860Y-68453000D01*
X199155138Y-68688317D01*
X199294210Y-68904441D01*
X199506410Y-69049431D01*
X199758300Y-69100440D01*
X200748900Y-69100440D01*
X200984217Y-69056162D01*
X201200341Y-68917090D01*
X201345331Y-68704890D01*
X201396340Y-68453000D01*
X201396340Y-66675000D01*
X201650860Y-66675000D01*
X201650860Y-68453000D01*
X201695138Y-68688317D01*
X201834210Y-68904441D01*
X202046410Y-69049431D01*
X202298300Y-69100440D01*
X203288900Y-69100440D01*
X203524217Y-69056162D01*
X203740341Y-68917090D01*
X203885331Y-68704890D01*
X203936340Y-68453000D01*
X203936340Y-66675000D01*
X204190860Y-66675000D01*
X204190860Y-68453000D01*
X204235138Y-68688317D01*
X204374210Y-68904441D01*
X204586410Y-69049431D01*
X204838300Y-69100440D01*
X205828900Y-69100440D01*
X206064217Y-69056162D01*
X206280341Y-68917090D01*
X206425331Y-68704890D01*
X206476340Y-68453000D01*
X206476340Y-66675000D01*
X206432062Y-66439683D01*
X206292990Y-66223559D01*
X206080790Y-66078569D01*
X205828900Y-66027560D01*
X204838300Y-66027560D01*
X204602983Y-66071838D01*
X204386859Y-66210910D01*
X204241869Y-66423110D01*
X204190860Y-66675000D01*
X203936340Y-66675000D01*
X203892062Y-66439683D01*
X203752990Y-66223559D01*
X203540790Y-66078569D01*
X203288900Y-66027560D01*
X202298300Y-66027560D01*
X202062983Y-66071838D01*
X201846859Y-66210910D01*
X201701869Y-66423110D01*
X201650860Y-66675000D01*
X201396340Y-66675000D01*
X201352062Y-66439683D01*
X201212990Y-66223559D01*
X201000790Y-66078569D01*
X200748900Y-66027560D01*
X199758300Y-66027560D01*
X199522983Y-66071838D01*
X199306859Y-66210910D01*
X199161869Y-66423110D01*
X199110860Y-66675000D01*
X198856340Y-66675000D01*
X198812062Y-66439683D01*
X198672990Y-66223559D01*
X198460790Y-66078569D01*
X198208900Y-66027560D01*
X197218300Y-66027560D01*
X196982983Y-66071838D01*
X196766859Y-66210910D01*
X196621869Y-66423110D01*
X196570860Y-66675000D01*
X196316340Y-66675000D01*
X196272062Y-66439683D01*
X196132990Y-66223559D01*
X195920790Y-66078569D01*
X195668900Y-66027560D01*
X194678300Y-66027560D01*
X194442983Y-66071838D01*
X194226859Y-66210910D01*
X194081869Y-66423110D01*
X194030860Y-66675000D01*
X193776340Y-66675000D01*
X193732062Y-66439683D01*
X193592990Y-66223559D01*
X193380790Y-66078569D01*
X193128900Y-66027560D01*
X192138300Y-66027560D01*
X191902983Y-66071838D01*
X191686859Y-66210910D01*
X191541869Y-66423110D01*
X191490860Y-66675000D01*
X191236340Y-66675000D01*
X191192062Y-66439683D01*
X191052990Y-66223559D01*
X190840790Y-66078569D01*
X190588900Y-66027560D01*
X189598300Y-66027560D01*
X189362983Y-66071838D01*
X189146859Y-66210910D01*
X189001869Y-66423110D01*
X188950860Y-66675000D01*
X188696340Y-66675000D01*
X188652062Y-66439683D01*
X188512990Y-66223559D01*
X188300790Y-66078569D01*
X188048900Y-66027560D01*
X187058300Y-66027560D01*
X186822983Y-66071838D01*
X186606859Y-66210910D01*
X186461869Y-66423110D01*
X186410860Y-66675000D01*
X186156340Y-66675000D01*
X186112062Y-66439683D01*
X185972990Y-66223559D01*
X185760790Y-66078569D01*
X185508900Y-66027560D01*
X184518300Y-66027560D01*
X184282983Y-66071838D01*
X184066859Y-66210910D01*
X183921869Y-66423110D01*
X183870860Y-66675000D01*
X183616340Y-66675000D01*
X183572062Y-66439683D01*
X183432990Y-66223559D01*
X183220790Y-66078569D01*
X182968900Y-66027560D01*
X181978300Y-66027560D01*
X181742983Y-66071838D01*
X181526859Y-66210910D01*
X181381869Y-66423110D01*
X181330860Y-66675000D01*
X164109400Y-66675000D01*
X164109400Y-60833000D01*
X183870860Y-60833000D01*
X183870860Y-62611000D01*
X183915138Y-62846317D01*
X184054210Y-63062441D01*
X184266410Y-63207431D01*
X184518300Y-63258440D01*
X185508900Y-63258440D01*
X185744217Y-63214162D01*
X185960341Y-63075090D01*
X186105331Y-62862890D01*
X186156340Y-62611000D01*
X186156340Y-60833000D01*
X186410860Y-60833000D01*
X186410860Y-62611000D01*
X186455138Y-62846317D01*
X186594210Y-63062441D01*
X186806410Y-63207431D01*
X187058300Y-63258440D01*
X188048900Y-63258440D01*
X188284217Y-63214162D01*
X188500341Y-63075090D01*
X188645331Y-62862890D01*
X188696340Y-62611000D01*
X188696340Y-60833000D01*
X188950860Y-60833000D01*
X188950860Y-62611000D01*
X188995138Y-62846317D01*
X189134210Y-63062441D01*
X189346410Y-63207431D01*
X189598300Y-63258440D01*
X190588900Y-63258440D01*
X190824217Y-63214162D01*
X191040341Y-63075090D01*
X191185331Y-62862890D01*
X191236340Y-62611000D01*
X191236340Y-60833000D01*
X191490860Y-60833000D01*
X191490860Y-62611000D01*
X191535138Y-62846317D01*
X191674210Y-63062441D01*
X191886410Y-63207431D01*
X192138300Y-63258440D01*
X193128900Y-63258440D01*
X193364217Y-63214162D01*
X193580341Y-63075090D01*
X193725331Y-62862890D01*
X193776340Y-62611000D01*
X193776340Y-60833000D01*
X194030860Y-60833000D01*
X194030860Y-62611000D01*
X194075138Y-62846317D01*
X194214210Y-63062441D01*
X194426410Y-63207431D01*
X194678300Y-63258440D01*
X195668900Y-63258440D01*
X195904217Y-63214162D01*
X196120341Y-63075090D01*
X196265331Y-62862890D01*
X196316340Y-62611000D01*
X196316340Y-60833000D01*
X196570860Y-60833000D01*
X196570860Y-62611000D01*
X196615138Y-62846317D01*
X196754210Y-63062441D01*
X196966410Y-63207431D01*
X197218300Y-63258440D01*
X198208900Y-63258440D01*
X198444217Y-63214162D01*
X198660341Y-63075090D01*
X198805331Y-62862890D01*
X198856340Y-62611000D01*
X198856340Y-60833000D01*
X199110860Y-60833000D01*
X199110860Y-62611000D01*
X199155138Y-62846317D01*
X199294210Y-63062441D01*
X199506410Y-63207431D01*
X199758300Y-63258440D01*
X200748900Y-63258440D01*
X200984217Y-63214162D01*
X201200341Y-63075090D01*
X201345331Y-62862890D01*
X201396340Y-62611000D01*
X201396340Y-60833000D01*
X201650860Y-60833000D01*
X201650860Y-62611000D01*
X201695138Y-62846317D01*
X201834210Y-63062441D01*
X202046410Y-63207431D01*
X202298300Y-63258440D01*
X203288900Y-63258440D01*
X203524217Y-63214162D01*
X203740341Y-63075090D01*
X203885331Y-62862890D01*
X203936340Y-62611000D01*
X203936340Y-60833000D01*
X204190860Y-60833000D01*
X204190860Y-62611000D01*
X204235138Y-62846317D01*
X204374210Y-63062441D01*
X204586410Y-63207431D01*
X204838300Y-63258440D01*
X205828900Y-63258440D01*
X206064217Y-63214162D01*
X206280341Y-63075090D01*
X206425331Y-62862890D01*
X206476340Y-62611000D01*
X206476340Y-60833000D01*
X206432062Y-60597683D01*
X206292990Y-60381559D01*
X206080790Y-60236569D01*
X205828900Y-60185560D01*
X204838300Y-60185560D01*
X204602983Y-60229838D01*
X204386859Y-60368910D01*
X204241869Y-60581110D01*
X204190860Y-60833000D01*
X203936340Y-60833000D01*
X203892062Y-60597683D01*
X203752990Y-60381559D01*
X203540790Y-60236569D01*
X203288900Y-60185560D01*
X202298300Y-60185560D01*
X202062983Y-60229838D01*
X201846859Y-60368910D01*
X201701869Y-60581110D01*
X201650860Y-60833000D01*
X201396340Y-60833000D01*
X201352062Y-60597683D01*
X201212990Y-60381559D01*
X201000790Y-60236569D01*
X200748900Y-60185560D01*
X199758300Y-60185560D01*
X199522983Y-60229838D01*
X199306859Y-60368910D01*
X199161869Y-60581110D01*
X199110860Y-60833000D01*
X198856340Y-60833000D01*
X198812062Y-60597683D01*
X198672990Y-60381559D01*
X198460790Y-60236569D01*
X198208900Y-60185560D01*
X197218300Y-60185560D01*
X196982983Y-60229838D01*
X196766859Y-60368910D01*
X196621869Y-60581110D01*
X196570860Y-60833000D01*
X196316340Y-60833000D01*
X196272062Y-60597683D01*
X196132990Y-60381559D01*
X195920790Y-60236569D01*
X195668900Y-60185560D01*
X194678300Y-60185560D01*
X194442983Y-60229838D01*
X194226859Y-60368910D01*
X194081869Y-60581110D01*
X194030860Y-60833000D01*
X193776340Y-60833000D01*
X193732062Y-60597683D01*
X193592990Y-60381559D01*
X193380790Y-60236569D01*
X193128900Y-60185560D01*
X192138300Y-60185560D01*
X191902983Y-60229838D01*
X191686859Y-60368910D01*
X191541869Y-60581110D01*
X191490860Y-60833000D01*
X191236340Y-60833000D01*
X191192062Y-60597683D01*
X191052990Y-60381559D01*
X190840790Y-60236569D01*
X190588900Y-60185560D01*
X189598300Y-60185560D01*
X189362983Y-60229838D01*
X189146859Y-60368910D01*
X189001869Y-60581110D01*
X188950860Y-60833000D01*
X188696340Y-60833000D01*
X188652062Y-60597683D01*
X188512990Y-60381559D01*
X188300790Y-60236569D01*
X188048900Y-60185560D01*
X187058300Y-60185560D01*
X186822983Y-60229838D01*
X186606859Y-60368910D01*
X186461869Y-60581110D01*
X186410860Y-60833000D01*
X186156340Y-60833000D01*
X186112062Y-60597683D01*
X185972990Y-60381559D01*
X185760790Y-60236569D01*
X185508900Y-60185560D01*
X184518300Y-60185560D01*
X184282983Y-60229838D01*
X184066859Y-60368910D01*
X183921869Y-60581110D01*
X183870860Y-60833000D01*
X164109400Y-60833000D01*
X164109400Y-57448576D01*
X183920850Y-57448576D01*
X184403196Y-58615943D01*
X185295559Y-59509865D01*
X186462083Y-59994248D01*
X187725176Y-59995350D01*
X188892543Y-59513004D01*
X189786465Y-58620641D01*
X190270848Y-57454117D01*
X190270874Y-57423176D01*
X204189050Y-57423176D01*
X204671396Y-58590543D01*
X205563759Y-59484465D01*
X206730283Y-59968848D01*
X207993376Y-59969950D01*
X209160743Y-59487604D01*
X210054665Y-58595241D01*
X210539048Y-57428717D01*
X210540150Y-56165624D01*
X210057804Y-54998257D01*
X209165441Y-54104335D01*
X207998917Y-53619952D01*
X206735824Y-53618850D01*
X205568457Y-54101196D01*
X204674535Y-54993559D01*
X204190152Y-56160083D01*
X204189050Y-57423176D01*
X190270874Y-57423176D01*
X190271950Y-56191024D01*
X189789604Y-55023657D01*
X188897241Y-54129735D01*
X187730717Y-53645352D01*
X186467624Y-53644250D01*
X185300257Y-54126596D01*
X184406335Y-55018959D01*
X183921952Y-56185483D01*
X183920850Y-57448576D01*
X164109400Y-57448576D01*
X164109400Y-51048197D01*
X164454829Y-50703370D01*
X164541149Y-50495488D01*
X164626190Y-50701303D01*
X165018830Y-51094629D01*
X165532100Y-51307757D01*
X166087861Y-51308242D01*
X166601503Y-51096010D01*
X166994829Y-50703370D01*
X167207957Y-50190100D01*
X167208442Y-49634339D01*
X166996210Y-49120697D01*
X166603570Y-48727371D01*
X166090300Y-48514243D01*
X165534539Y-48513758D01*
X165020897Y-48725990D01*
X164627571Y-49118630D01*
X164541251Y-49326512D01*
X164456210Y-49120697D01*
X164063570Y-48727371D01*
X163550300Y-48514243D01*
X162994539Y-48513758D01*
X162480897Y-48725990D01*
X162087571Y-49118630D01*
X161874443Y-49631900D01*
X161873958Y-50187661D01*
X162086190Y-50701303D01*
X162433000Y-51048719D01*
X162433000Y-85750400D01*
X145894797Y-85750400D01*
X145927039Y-85702146D01*
X146013436Y-85267800D01*
X145927039Y-84833454D01*
X145911395Y-84810041D01*
X145952631Y-84749690D01*
X146003640Y-84497800D01*
X146003640Y-83497800D01*
X145959362Y-83262483D01*
X145820290Y-83046359D01*
X145608090Y-82901369D01*
X145356200Y-82850360D01*
X144356200Y-82850360D01*
X144120883Y-82894638D01*
X143938313Y-83012119D01*
X138912600Y-77986406D01*
X138912600Y-75663400D01*
X151878980Y-75663400D01*
X151878980Y-78669400D01*
X156172219Y-78669400D01*
X156172219Y-75663400D01*
X151878980Y-75663400D01*
X138912600Y-75663400D01*
X138912600Y-69100440D01*
X139788900Y-69100440D01*
X140024217Y-69056162D01*
X140240341Y-68917090D01*
X140385331Y-68704890D01*
X140436340Y-68453000D01*
X140436340Y-66675000D01*
X140690860Y-66675000D01*
X140690860Y-68453000D01*
X140735138Y-68688317D01*
X140874210Y-68904441D01*
X141086410Y-69049431D01*
X141338300Y-69100440D01*
X142328900Y-69100440D01*
X142564217Y-69056162D01*
X142780341Y-68917090D01*
X142925331Y-68704890D01*
X142976340Y-68453000D01*
X142976340Y-66675000D01*
X142932062Y-66439683D01*
X142792990Y-66223559D01*
X142580790Y-66078569D01*
X142328900Y-66027560D01*
X141338300Y-66027560D01*
X141102983Y-66071838D01*
X140886859Y-66210910D01*
X140741869Y-66423110D01*
X140690860Y-66675000D01*
X140436340Y-66675000D01*
X140392062Y-66439683D01*
X140252990Y-66223559D01*
X140040790Y-66078569D01*
X139788900Y-66027560D01*
X138912600Y-66027560D01*
X138912600Y-65595928D01*
X139009238Y-65363199D01*
X139009562Y-64991233D01*
X138867517Y-64647457D01*
X138604727Y-64384208D01*
X138261199Y-64241562D01*
X137889233Y-64241238D01*
X137545457Y-64383283D01*
X137282208Y-64646073D01*
X137139562Y-64989601D01*
X137139238Y-65361567D01*
X137236200Y-65596234D01*
X137236200Y-66027560D01*
X136321800Y-66027560D01*
X136321800Y-65392728D01*
X136418438Y-65159999D01*
X136418762Y-64788033D01*
X136276717Y-64444257D01*
X136013927Y-64181008D01*
X135670399Y-64038362D01*
X135298433Y-64038038D01*
X134954657Y-64180083D01*
X134691408Y-64442873D01*
X134548762Y-64786401D01*
X134548438Y-65158367D01*
X134645400Y-65393034D01*
X134645400Y-66027560D01*
X133718300Y-66027560D01*
X133482983Y-66071838D01*
X133266859Y-66210910D01*
X133121869Y-66423110D01*
X133070860Y-66675000D01*
X133070860Y-68453000D01*
X133115138Y-68688317D01*
X133254210Y-68904441D01*
X133466410Y-69049431D01*
X133718300Y-69100440D01*
X134645400Y-69100440D01*
X134645400Y-76893800D01*
X134709204Y-77214566D01*
X134890903Y-77486497D01*
X140611376Y-83206970D01*
X140584769Y-83245910D01*
X140533760Y-83497800D01*
X140533760Y-84497800D01*
X140578038Y-84733117D01*
X140626786Y-84808873D01*
X140610361Y-84833454D01*
X140523964Y-85267800D01*
X140610361Y-85702146D01*
X140642603Y-85750400D01*
X139502425Y-85750400D01*
X139551639Y-85676746D01*
X139638036Y-85242400D01*
X139551639Y-84808054D01*
X139535995Y-84784641D01*
X139577231Y-84724290D01*
X139628240Y-84472400D01*
X139628240Y-83472400D01*
X139583962Y-83237083D01*
X139444890Y-83020959D01*
X139232690Y-82875969D01*
X138980800Y-82824960D01*
X137980800Y-82824960D01*
X137745483Y-82869238D01*
X137529359Y-83008310D01*
X137384369Y-83220510D01*
X137333360Y-83472400D01*
X137333360Y-84472400D01*
X137377638Y-84707717D01*
X137426386Y-84783473D01*
X137409961Y-84808054D01*
X137323564Y-85242400D01*
X137409961Y-85676746D01*
X137459175Y-85750400D01*
X136327425Y-85750400D01*
X136376639Y-85676746D01*
X136463036Y-85242400D01*
X136376639Y-84808054D01*
X136360995Y-84784641D01*
X136402231Y-84724290D01*
X136453240Y-84472400D01*
X136453240Y-83472400D01*
X136408962Y-83237083D01*
X136269890Y-83020959D01*
X136057690Y-82875969D01*
X135805800Y-82824960D01*
X134805800Y-82824960D01*
X134570483Y-82869238D01*
X134354359Y-83008310D01*
X134247728Y-83164369D01*
X134078634Y-83198004D01*
X133806703Y-83379703D01*
X133316103Y-83870303D01*
X133134404Y-84142234D01*
X133134404Y-84142235D01*
X133070600Y-84463000D01*
X118413600Y-84463000D01*
X118413600Y-69087338D01*
X118478300Y-69100440D01*
X119468900Y-69100440D01*
X119704217Y-69056162D01*
X119920341Y-68917090D01*
X120065331Y-68704890D01*
X120116340Y-68453000D01*
X120116340Y-66675000D01*
X120370860Y-66675000D01*
X120370860Y-68453000D01*
X120415138Y-68688317D01*
X120554210Y-68904441D01*
X120766410Y-69049431D01*
X121018300Y-69100440D01*
X122008900Y-69100440D01*
X122244217Y-69056162D01*
X122460341Y-68917090D01*
X122605331Y-68704890D01*
X122656340Y-68453000D01*
X122656340Y-66675000D01*
X122910860Y-66675000D01*
X122910860Y-68453000D01*
X122955138Y-68688317D01*
X123094210Y-68904441D01*
X123306410Y-69049431D01*
X123558300Y-69100440D01*
X124548900Y-69100440D01*
X124784217Y-69056162D01*
X125000341Y-68917090D01*
X125145331Y-68704890D01*
X125196340Y-68453000D01*
X125196340Y-66675000D01*
X125450860Y-66675000D01*
X125450860Y-68453000D01*
X125495138Y-68688317D01*
X125634210Y-68904441D01*
X125846410Y-69049431D01*
X126098300Y-69100440D01*
X127088900Y-69100440D01*
X127324217Y-69056162D01*
X127540341Y-68917090D01*
X127685331Y-68704890D01*
X127736340Y-68453000D01*
X127736340Y-66675000D01*
X127990860Y-66675000D01*
X127990860Y-68453000D01*
X128035138Y-68688317D01*
X128174210Y-68904441D01*
X128386410Y-69049431D01*
X128638300Y-69100440D01*
X129628900Y-69100440D01*
X129864217Y-69056162D01*
X130080341Y-68917090D01*
X130225331Y-68704890D01*
X130276340Y-68453000D01*
X130276340Y-66675000D01*
X130530860Y-66675000D01*
X130530860Y-68453000D01*
X130575138Y-68688317D01*
X130714210Y-68904441D01*
X130926410Y-69049431D01*
X131178300Y-69100440D01*
X132168900Y-69100440D01*
X132404217Y-69056162D01*
X132620341Y-68917090D01*
X132765331Y-68704890D01*
X132816340Y-68453000D01*
X132816340Y-66675000D01*
X132772062Y-66439683D01*
X132632990Y-66223559D01*
X132420790Y-66078569D01*
X132168900Y-66027560D01*
X131178300Y-66027560D01*
X130942983Y-66071838D01*
X130726859Y-66210910D01*
X130581869Y-66423110D01*
X130530860Y-66675000D01*
X130276340Y-66675000D01*
X130232062Y-66439683D01*
X130092990Y-66223559D01*
X129880790Y-66078569D01*
X129628900Y-66027560D01*
X128638300Y-66027560D01*
X128402983Y-66071838D01*
X128186859Y-66210910D01*
X128041869Y-66423110D01*
X127990860Y-66675000D01*
X127736340Y-66675000D01*
X127692062Y-66439683D01*
X127552990Y-66223559D01*
X127340790Y-66078569D01*
X127088900Y-66027560D01*
X126098300Y-66027560D01*
X125862983Y-66071838D01*
X125646859Y-66210910D01*
X125501869Y-66423110D01*
X125450860Y-66675000D01*
X125196340Y-66675000D01*
X125152062Y-66439683D01*
X125012990Y-66223559D01*
X124800790Y-66078569D01*
X124548900Y-66027560D01*
X123558300Y-66027560D01*
X123322983Y-66071838D01*
X123106859Y-66210910D01*
X122961869Y-66423110D01*
X122910860Y-66675000D01*
X122656340Y-66675000D01*
X122612062Y-66439683D01*
X122472990Y-66223559D01*
X122260790Y-66078569D01*
X122008900Y-66027560D01*
X121018300Y-66027560D01*
X120782983Y-66071838D01*
X120566859Y-66210910D01*
X120421869Y-66423110D01*
X120370860Y-66675000D01*
X120116340Y-66675000D01*
X120072062Y-66439683D01*
X119932990Y-66223559D01*
X119720790Y-66078569D01*
X119468900Y-66027560D01*
X118478300Y-66027560D01*
X118413600Y-66039734D01*
X118413600Y-60863480D01*
X120370860Y-60863480D01*
X120370860Y-62641480D01*
X120415138Y-62876797D01*
X120554210Y-63092921D01*
X120766410Y-63237911D01*
X121018300Y-63288920D01*
X122008900Y-63288920D01*
X122244217Y-63244642D01*
X122460341Y-63105570D01*
X122605331Y-62893370D01*
X122656340Y-62641480D01*
X122656340Y-60863480D01*
X122910860Y-60863480D01*
X122910860Y-62641480D01*
X122955138Y-62876797D01*
X123094210Y-63092921D01*
X123306410Y-63237911D01*
X123558300Y-63288920D01*
X124548900Y-63288920D01*
X124784217Y-63244642D01*
X125000341Y-63105570D01*
X125145331Y-62893370D01*
X125196340Y-62641480D01*
X125196340Y-60863480D01*
X125450860Y-60863480D01*
X125450860Y-62641480D01*
X125495138Y-62876797D01*
X125634210Y-63092921D01*
X125846410Y-63237911D01*
X126098300Y-63288920D01*
X127088900Y-63288920D01*
X127324217Y-63244642D01*
X127540341Y-63105570D01*
X127685331Y-62893370D01*
X127736340Y-62641480D01*
X127736340Y-60863480D01*
X127990860Y-60863480D01*
X127990860Y-62641480D01*
X128035138Y-62876797D01*
X128174210Y-63092921D01*
X128386410Y-63237911D01*
X128638300Y-63288920D01*
X129628900Y-63288920D01*
X129864217Y-63244642D01*
X130080341Y-63105570D01*
X130225331Y-62893370D01*
X130276340Y-62641480D01*
X130276340Y-60863480D01*
X130530860Y-60863480D01*
X130530860Y-62641480D01*
X130575138Y-62876797D01*
X130714210Y-63092921D01*
X130926410Y-63237911D01*
X131178300Y-63288920D01*
X132168900Y-63288920D01*
X132404217Y-63244642D01*
X132620341Y-63105570D01*
X132765331Y-62893370D01*
X132816340Y-62641480D01*
X132816340Y-60863480D01*
X133070860Y-60863480D01*
X133070860Y-62641480D01*
X133115138Y-62876797D01*
X133254210Y-63092921D01*
X133466410Y-63237911D01*
X133718300Y-63288920D01*
X134708900Y-63288920D01*
X134944217Y-63244642D01*
X135160341Y-63105570D01*
X135305331Y-62893370D01*
X135356340Y-62641480D01*
X135356340Y-60863480D01*
X135610860Y-60863480D01*
X135610860Y-62641480D01*
X135655138Y-62876797D01*
X135794210Y-63092921D01*
X136006410Y-63237911D01*
X136258300Y-63288920D01*
X137248900Y-63288920D01*
X137484217Y-63244642D01*
X137700341Y-63105570D01*
X137845331Y-62893370D01*
X137896340Y-62641480D01*
X137896340Y-60863480D01*
X138150860Y-60863480D01*
X138150860Y-62641480D01*
X138195138Y-62876797D01*
X138334210Y-63092921D01*
X138546410Y-63237911D01*
X138798300Y-63288920D01*
X139788900Y-63288920D01*
X140024217Y-63244642D01*
X140240341Y-63105570D01*
X140385331Y-62893370D01*
X140436340Y-62641480D01*
X140436340Y-60863480D01*
X140690860Y-60863480D01*
X140690860Y-62641480D01*
X140735138Y-62876797D01*
X140874210Y-63092921D01*
X141086410Y-63237911D01*
X141338300Y-63288920D01*
X142328900Y-63288920D01*
X142564217Y-63244642D01*
X142780341Y-63105570D01*
X142925331Y-62893370D01*
X142976340Y-62641480D01*
X142976340Y-60863480D01*
X142932062Y-60628163D01*
X142792990Y-60412039D01*
X142580790Y-60267049D01*
X142328900Y-60216040D01*
X141338300Y-60216040D01*
X141102983Y-60260318D01*
X140886859Y-60399390D01*
X140741869Y-60611590D01*
X140690860Y-60863480D01*
X140436340Y-60863480D01*
X140392062Y-60628163D01*
X140252990Y-60412039D01*
X140040790Y-60267049D01*
X139788900Y-60216040D01*
X138798300Y-60216040D01*
X138562983Y-60260318D01*
X138346859Y-60399390D01*
X138201869Y-60611590D01*
X138150860Y-60863480D01*
X137896340Y-60863480D01*
X137852062Y-60628163D01*
X137712990Y-60412039D01*
X137500790Y-60267049D01*
X137248900Y-60216040D01*
X136258300Y-60216040D01*
X136022983Y-60260318D01*
X135806859Y-60399390D01*
X135661869Y-60611590D01*
X135610860Y-60863480D01*
X135356340Y-60863480D01*
X135312062Y-60628163D01*
X135172990Y-60412039D01*
X134960790Y-60267049D01*
X134708900Y-60216040D01*
X133718300Y-60216040D01*
X133482983Y-60260318D01*
X133266859Y-60399390D01*
X133121869Y-60611590D01*
X133070860Y-60863480D01*
X132816340Y-60863480D01*
X132772062Y-60628163D01*
X132632990Y-60412039D01*
X132420790Y-60267049D01*
X132168900Y-60216040D01*
X131178300Y-60216040D01*
X130942983Y-60260318D01*
X130726859Y-60399390D01*
X130581869Y-60611590D01*
X130530860Y-60863480D01*
X130276340Y-60863480D01*
X130232062Y-60628163D01*
X130092990Y-60412039D01*
X129880790Y-60267049D01*
X129628900Y-60216040D01*
X128638300Y-60216040D01*
X128402983Y-60260318D01*
X128186859Y-60399390D01*
X128041869Y-60611590D01*
X127990860Y-60863480D01*
X127736340Y-60863480D01*
X127692062Y-60628163D01*
X127552990Y-60412039D01*
X127340790Y-60267049D01*
X127088900Y-60216040D01*
X126098300Y-60216040D01*
X125862983Y-60260318D01*
X125646859Y-60399390D01*
X125501869Y-60611590D01*
X125450860Y-60863480D01*
X125196340Y-60863480D01*
X125152062Y-60628163D01*
X125012990Y-60412039D01*
X124800790Y-60267049D01*
X124548900Y-60216040D01*
X123558300Y-60216040D01*
X123322983Y-60260318D01*
X123106859Y-60399390D01*
X122961869Y-60611590D01*
X122910860Y-60863480D01*
X122656340Y-60863480D01*
X122612062Y-60628163D01*
X122472990Y-60412039D01*
X122260790Y-60267049D01*
X122008900Y-60216040D01*
X121018300Y-60216040D01*
X120782983Y-60260318D01*
X120566859Y-60399390D01*
X120421869Y-60611590D01*
X120370860Y-60863480D01*
X118413600Y-60863480D01*
X118413600Y-52135000D01*
X119287285Y-52135000D01*
X119287285Y-58505000D01*
X147116800Y-58505000D01*
X147116800Y-71005272D01*
X147020162Y-71238001D01*
X147019838Y-71609967D01*
X147161883Y-71953743D01*
X147424673Y-72216992D01*
X147768201Y-72359638D01*
X148140167Y-72359962D01*
X148483943Y-72217917D01*
X148747192Y-71955127D01*
X148889838Y-71611599D01*
X148890162Y-71239633D01*
X148793200Y-71004966D01*
X148793200Y-58505000D01*
X161128715Y-58505000D01*
X161128715Y-52135000D01*
X148793200Y-52135000D01*
X148793200Y-50997397D01*
X149138629Y-50652570D01*
X149224949Y-50444688D01*
X149309990Y-50650503D01*
X149702630Y-51043829D01*
X150215900Y-51256957D01*
X150771661Y-51257442D01*
X151285303Y-51045210D01*
X151678629Y-50652570D01*
X151891757Y-50139300D01*
X151892242Y-49583539D01*
X151680010Y-49069897D01*
X151287370Y-48676571D01*
X150774100Y-48463443D01*
X150218339Y-48462958D01*
X149704697Y-48675190D01*
X149311371Y-49067830D01*
X149225051Y-49275712D01*
X149140010Y-49069897D01*
X148747370Y-48676571D01*
X148234100Y-48463443D01*
X147678339Y-48462958D01*
X147164697Y-48675190D01*
X146771371Y-49067830D01*
X146558243Y-49581100D01*
X146557758Y-50136861D01*
X146769990Y-50650503D01*
X147116800Y-50997919D01*
X147116800Y-52135000D01*
X119287285Y-52135000D01*
X118413600Y-52135000D01*
X118413600Y-51941483D01*
X118610007Y-51902415D01*
X118716021Y-51858502D01*
X118865949Y-51796400D01*
X119516936Y-51361423D01*
X119582231Y-51296127D01*
X119712823Y-51165536D01*
X120147800Y-50514549D01*
X120209902Y-50364621D01*
X120253815Y-50258607D01*
X120406558Y-49490714D01*
X120406558Y-49213686D01*
X120253815Y-48445793D01*
X120204930Y-48327776D01*
X120147800Y-48189851D01*
X119712823Y-47538864D01*
X119582231Y-47408273D01*
X119516936Y-47342977D01*
X118865949Y-46908000D01*
X118716021Y-46845898D01*
X118610007Y-46801985D01*
X118413600Y-46762917D01*
X118413600Y-41691573D01*
X144324591Y-41691573D01*
X144683123Y-42559286D01*
X145346422Y-43223744D01*
X146213508Y-43583789D01*
X147152373Y-43584609D01*
X148020086Y-43226077D01*
X148684544Y-42562778D01*
X149044589Y-41695692D01*
X149044592Y-41691573D01*
X151944591Y-41691573D01*
X152303123Y-42559286D01*
X152966422Y-43223744D01*
X153833508Y-43583789D01*
X154772373Y-43584609D01*
X155640086Y-43226077D01*
X156304544Y-42562778D01*
X156645205Y-41742373D01*
X159640791Y-41742373D01*
X159999323Y-42610086D01*
X160662622Y-43274544D01*
X161529708Y-43634589D01*
X162468573Y-43635409D01*
X163336286Y-43276877D01*
X164000744Y-42613578D01*
X164360789Y-41746492D01*
X164360792Y-41742373D01*
X167260791Y-41742373D01*
X167619323Y-42610086D01*
X168282622Y-43274544D01*
X169149708Y-43634589D01*
X170088573Y-43635409D01*
X170956286Y-43276877D01*
X171620744Y-42613578D01*
X171980789Y-41746492D01*
X171981609Y-40807627D01*
X171623077Y-39939914D01*
X170959778Y-39275456D01*
X170092692Y-38915411D01*
X169153827Y-38914591D01*
X168286114Y-39273123D01*
X167621656Y-39936422D01*
X167261611Y-40803508D01*
X167260791Y-41742373D01*
X164360792Y-41742373D01*
X164361609Y-40807627D01*
X164003077Y-39939914D01*
X163339778Y-39275456D01*
X162472692Y-38915411D01*
X161533827Y-38914591D01*
X160666114Y-39273123D01*
X160001656Y-39936422D01*
X159641611Y-40803508D01*
X159640791Y-41742373D01*
X156645205Y-41742373D01*
X156664589Y-41695692D01*
X156665409Y-40756827D01*
X156306877Y-39889114D01*
X155643578Y-39224656D01*
X154776492Y-38864611D01*
X153837627Y-38863791D01*
X152969914Y-39222323D01*
X152305456Y-39885622D01*
X151945411Y-40752708D01*
X151944591Y-41691573D01*
X149044592Y-41691573D01*
X149045409Y-40756827D01*
X148686877Y-39889114D01*
X148023578Y-39224656D01*
X147156492Y-38864611D01*
X146217627Y-38863791D01*
X145349914Y-39222323D01*
X144685456Y-39885622D01*
X144325411Y-40752708D01*
X144324591Y-41691573D01*
X118413600Y-41691573D01*
X118413600Y-39211331D01*
X118561885Y-38465851D01*
X118944551Y-37893151D01*
X119517251Y-37510485D01*
X120262731Y-37362200D01*
X223036801Y-37362200D01*
X222231857Y-37694796D01*
X222231857Y-37694796D01*
G37*
X222231857Y-37694796D02*
X221337935Y-38587159D01*
X220853552Y-39753683D01*
X220852450Y-41016776D01*
X221334796Y-42184143D01*
X222227159Y-43078065D01*
X223393683Y-43562448D01*
X224656776Y-43563550D01*
X225620113Y-43165507D01*
X225825886Y-43371280D01*
X225975302Y-43594896D01*
X227203000Y-44822594D01*
X227203000Y-47756893D01*
X226721204Y-46590857D01*
X225828841Y-45696935D01*
X224662317Y-45212552D01*
X223399224Y-45211450D01*
X222231857Y-45693796D01*
X221337935Y-46586159D01*
X220853552Y-47752683D01*
X220852450Y-49015776D01*
X221334796Y-50183143D01*
X222227159Y-51077065D01*
X223393683Y-51561448D01*
X224656776Y-51562550D01*
X225824143Y-51080204D01*
X226718065Y-50187841D01*
X227202448Y-49021317D01*
X227203000Y-48388624D01*
X227203000Y-80094606D01*
X225509606Y-81788000D01*
X208248797Y-81788000D01*
X207903970Y-81442571D01*
X207390700Y-81229443D01*
X206834939Y-81228958D01*
X206321297Y-81441190D01*
X205927971Y-81833830D01*
X205714843Y-82347100D01*
X205714358Y-82902861D01*
X205926590Y-83416503D01*
X206319230Y-83809829D01*
X206832500Y-84022957D01*
X207388261Y-84023442D01*
X207901903Y-83811210D01*
X208249319Y-83464400D01*
X220573600Y-83464400D01*
X220573600Y-109905800D01*
X220573601Y-112624601D01*
X220637405Y-112945367D01*
X220819104Y-113217298D01*
X221174837Y-113573031D01*
X220777352Y-114530283D01*
X220776250Y-115793376D01*
X221258596Y-116960743D01*
X222150959Y-117854665D01*
X223317483Y-118339048D01*
X224580576Y-118340150D01*
X225747943Y-117857804D01*
X226641865Y-116965441D01*
X227126248Y-115798917D01*
X227127350Y-114535824D01*
X226645004Y-113368457D01*
X225752641Y-112474535D01*
X224586117Y-111990152D01*
X223323024Y-111989050D01*
X222359687Y-112387093D01*
X222250001Y-112277407D01*
X222250000Y-109905800D01*
X222250000Y-83464400D01*
X225856800Y-83464400D01*
X226177566Y-83400596D01*
X226449497Y-83218897D01*
X228633897Y-81034497D01*
X228815596Y-80762566D01*
X228879400Y-80441800D01*
X228879400Y-44475400D01*
X228815596Y-44154635D01*
X228633897Y-43882703D01*
X227310112Y-42558918D01*
X227160696Y-42335302D01*
X226804963Y-41979569D01*
X227202448Y-41022317D01*
X227203550Y-39759224D01*
X226721204Y-38591857D01*
X225828841Y-37697935D01*
X225020301Y-37362200D01*
X239604469Y-37362200D01*
X240349949Y-37510485D01*
X240922649Y-37893151D01*
X241305315Y-38465851D01*
X241453600Y-39211331D01*
X241453600Y-46762917D01*
X241257193Y-46801985D01*
X241151179Y-46845898D01*
X241001251Y-46908000D01*
X240350264Y-47342977D01*
X240219673Y-47473569D01*
X240154377Y-47538864D01*
X239719400Y-48189851D01*
X239662270Y-48327776D01*
X239613385Y-48445793D01*
X239460642Y-49213686D01*
X239460643Y-49352200D01*
X239460642Y-49490714D01*
X239613385Y-50258607D01*
X239657298Y-50364621D01*
X239719400Y-50514549D01*
X240154377Y-51165536D01*
X240209128Y-51220286D01*
X240350264Y-51361423D01*
X241001251Y-51796400D01*
X241151179Y-51858502D01*
X241257193Y-51902415D01*
X241453600Y-51941483D01*
X241453600Y-87864869D01*
X241336252Y-88454822D01*
X241041679Y-88895682D01*
X240600823Y-89190251D01*
X240010874Y-89307600D01*
X224383600Y-89307600D01*
X224111895Y-89361646D01*
X223881554Y-89515554D01*
X223727646Y-89745895D01*
X223673600Y-90017600D01*
X223673600Y-110871000D01*
X223727646Y-111142705D01*
X223881554Y-111373046D01*
X224111895Y-111526954D01*
X224383600Y-111581000D01*
X240087069Y-111581000D01*
X240647865Y-111692549D01*
X241063998Y-111970602D01*
X241342051Y-112386735D01*
X241453600Y-112947531D01*
X241453600Y-120499117D01*
X241257193Y-120538185D01*
X241185214Y-120568000D01*
X241001251Y-120644200D01*
X240350264Y-121079177D01*
X240230578Y-121198864D01*
X240154377Y-121275064D01*
X239719400Y-121926051D01*
X239689209Y-121998939D01*
X239613385Y-122181993D01*
X239460642Y-122949886D01*
X239460643Y-123088400D01*
X239460642Y-123226914D01*
X239613385Y-123994807D01*
X239657298Y-124100821D01*
X239719400Y-124250749D01*
X240154377Y-124901736D01*
X240209128Y-124956486D01*
X240350264Y-125097623D01*
X241001251Y-125532600D01*
X241151179Y-125594702D01*
X241257193Y-125638615D01*
X241451776Y-125677320D01*
X241428418Y-133151973D01*
X241279915Y-133898549D01*
X240897249Y-134471249D01*
X240324549Y-134853915D01*
X239579069Y-135002200D01*
X120262731Y-135002200D01*
X119517251Y-134853915D01*
X118944551Y-134471249D01*
X118561885Y-133898549D01*
X118413600Y-133153069D01*
X118413600Y-131378973D01*
X144476991Y-131378973D01*
X144835523Y-132246686D01*
X145498822Y-132911144D01*
X146365908Y-133271189D01*
X147304773Y-133272009D01*
X148172486Y-132913477D01*
X148836944Y-132250178D01*
X149196989Y-131383092D01*
X149196992Y-131378973D01*
X152096991Y-131378973D01*
X152455523Y-132246686D01*
X153118822Y-132911144D01*
X153985908Y-133271189D01*
X154924773Y-133272009D01*
X155792486Y-132913477D01*
X156456944Y-132250178D01*
X156816989Y-131383092D01*
X156816992Y-131378973D01*
X159894791Y-131378973D01*
X160253323Y-132246686D01*
X160916622Y-132911144D01*
X161783708Y-133271189D01*
X162722573Y-133272009D01*
X163590286Y-132913477D01*
X164254744Y-132250178D01*
X164614789Y-131383092D01*
X164614792Y-131378973D01*
X167514791Y-131378973D01*
X167873323Y-132246686D01*
X168536622Y-132911144D01*
X169403708Y-133271189D01*
X170342573Y-133272009D01*
X171210286Y-132913477D01*
X171874744Y-132250178D01*
X172234789Y-131383092D01*
X172235609Y-130444227D01*
X171877077Y-129576514D01*
X171213778Y-128912056D01*
X170346692Y-128552011D01*
X169407827Y-128551191D01*
X168540114Y-128909723D01*
X167875656Y-129573022D01*
X167515611Y-130440108D01*
X167514791Y-131378973D01*
X164614792Y-131378973D01*
X164615609Y-130444227D01*
X164257077Y-129576514D01*
X163593778Y-128912056D01*
X162726692Y-128552011D01*
X161787827Y-128551191D01*
X160920114Y-128909723D01*
X160255656Y-129573022D01*
X159895611Y-130440108D01*
X159894791Y-131378973D01*
X156816992Y-131378973D01*
X156817809Y-130444227D01*
X156459277Y-129576514D01*
X155795978Y-128912056D01*
X154928892Y-128552011D01*
X153990027Y-128551191D01*
X153122314Y-128909723D01*
X152457856Y-129573022D01*
X152097811Y-130440108D01*
X152096991Y-131378973D01*
X149196992Y-131378973D01*
X149197809Y-130444227D01*
X148839277Y-129576514D01*
X148175978Y-128912056D01*
X147308892Y-128552011D01*
X146370027Y-128551191D01*
X145502314Y-128909723D01*
X144837856Y-129573022D01*
X144477811Y-130440108D01*
X144476991Y-131378973D01*
X118413600Y-131378973D01*
X118413600Y-125601483D01*
X118610007Y-125562415D01*
X118716021Y-125518502D01*
X118865949Y-125456400D01*
X119516936Y-125021423D01*
X119582231Y-124956127D01*
X119712823Y-124825536D01*
X120147800Y-124174549D01*
X120222251Y-123994808D01*
X120253815Y-123918607D01*
X120406558Y-123150714D01*
X120406558Y-122873686D01*
X120253815Y-122105793D01*
X120204930Y-121987776D01*
X120147800Y-121849851D01*
X119712823Y-121198864D01*
X119582231Y-121068273D01*
X119516936Y-121002977D01*
X118865949Y-120568000D01*
X118716021Y-120505898D01*
X118610007Y-120461985D01*
X118413600Y-120422917D01*
X118413600Y-112664794D01*
X130801503Y-125052697D01*
X131073434Y-125234396D01*
X131394200Y-125298200D01*
X177393600Y-125298200D01*
X177714366Y-125234396D01*
X177986297Y-125052697D01*
X179246618Y-123792376D01*
X220776250Y-123792376D01*
X221258596Y-124959743D01*
X222150959Y-125853665D01*
X223317483Y-126338048D01*
X224580576Y-126339150D01*
X225747943Y-125856804D01*
X226641865Y-124964441D01*
X227126248Y-123797917D01*
X227127350Y-122534824D01*
X226645004Y-121367457D01*
X225752641Y-120473535D01*
X224586117Y-119989152D01*
X223323024Y-119988050D01*
X222155657Y-120470396D01*
X221261735Y-121362759D01*
X220777352Y-122529283D01*
X220776250Y-123792376D01*
X179246618Y-123792376D01*
X183066297Y-119972697D01*
X183247996Y-119700765D01*
X183311800Y-119380000D01*
X183311800Y-116097176D01*
X192227650Y-116097176D01*
X192709996Y-117264543D01*
X193602359Y-118158465D01*
X194768883Y-118642848D01*
X196031976Y-118643950D01*
X197199343Y-118161604D01*
X198093265Y-117269241D01*
X198558854Y-116147976D01*
X212217450Y-116147976D01*
X212699796Y-117315343D01*
X213592159Y-118209265D01*
X214758683Y-118693648D01*
X216021776Y-118694750D01*
X217189143Y-118212404D01*
X218083065Y-117320041D01*
X218567448Y-116153517D01*
X218568550Y-114890424D01*
X218086204Y-113723057D01*
X217193841Y-112829135D01*
X216027317Y-112344752D01*
X214764224Y-112343650D01*
X213596857Y-112825996D01*
X212702935Y-113718359D01*
X212218552Y-114884883D01*
X212217450Y-116147976D01*
X198558854Y-116147976D01*
X198577648Y-116102717D01*
X198578750Y-114839624D01*
X198096404Y-113672257D01*
X197204041Y-112778335D01*
X196037517Y-112293952D01*
X194774424Y-112292850D01*
X193607057Y-112775196D01*
X192713135Y-113667559D01*
X192228752Y-114834083D01*
X192227650Y-116097176D01*
X183311800Y-116097176D01*
X183311800Y-112166934D01*
X183420341Y-112097090D01*
X183565331Y-111884890D01*
X183616340Y-111633000D01*
X183616340Y-109855000D01*
X183870860Y-109855000D01*
X183870860Y-111633000D01*
X183915138Y-111868317D01*
X184054210Y-112084441D01*
X184266410Y-112229431D01*
X184518300Y-112280440D01*
X185508900Y-112280440D01*
X185744217Y-112236162D01*
X185960341Y-112097090D01*
X186105331Y-111884890D01*
X186156340Y-111633000D01*
X186156340Y-109855000D01*
X186410860Y-109855000D01*
X186410860Y-111633000D01*
X186455138Y-111868317D01*
X186594210Y-112084441D01*
X186806410Y-112229431D01*
X187058300Y-112280440D01*
X188048900Y-112280440D01*
X188284217Y-112236162D01*
X188500341Y-112097090D01*
X188645331Y-111884890D01*
X188696340Y-111633000D01*
X188696340Y-109855000D01*
X188950860Y-109855000D01*
X188950860Y-111633000D01*
X188995138Y-111868317D01*
X189134210Y-112084441D01*
X189346410Y-112229431D01*
X189598300Y-112280440D01*
X190588900Y-112280440D01*
X190824217Y-112236162D01*
X191040341Y-112097090D01*
X191185331Y-111884890D01*
X191236340Y-111633000D01*
X191236340Y-109855000D01*
X191490860Y-109855000D01*
X191490860Y-111633000D01*
X191535138Y-111868317D01*
X191674210Y-112084441D01*
X191886410Y-112229431D01*
X192138300Y-112280440D01*
X193128900Y-112280440D01*
X193364217Y-112236162D01*
X193580341Y-112097090D01*
X193725331Y-111884890D01*
X193776340Y-111633000D01*
X193776340Y-109855000D01*
X194030860Y-109855000D01*
X194030860Y-111633000D01*
X194075138Y-111868317D01*
X194214210Y-112084441D01*
X194426410Y-112229431D01*
X194678300Y-112280440D01*
X195668900Y-112280440D01*
X195904217Y-112236162D01*
X196120341Y-112097090D01*
X196265331Y-111884890D01*
X196316340Y-111633000D01*
X196316340Y-109855000D01*
X196570860Y-109855000D01*
X196570860Y-111633000D01*
X196615138Y-111868317D01*
X196754210Y-112084441D01*
X196966410Y-112229431D01*
X197218300Y-112280440D01*
X198208900Y-112280440D01*
X198444217Y-112236162D01*
X198660341Y-112097090D01*
X198805331Y-111884890D01*
X198856340Y-111633000D01*
X198856340Y-109855000D01*
X199110860Y-109855000D01*
X199110860Y-111633000D01*
X199155138Y-111868317D01*
X199294210Y-112084441D01*
X199506410Y-112229431D01*
X199758300Y-112280440D01*
X200748900Y-112280440D01*
X200984217Y-112236162D01*
X201200341Y-112097090D01*
X201345331Y-111884890D01*
X201396340Y-111633000D01*
X201396340Y-109855000D01*
X201650860Y-109855000D01*
X201650860Y-111633000D01*
X201695138Y-111868317D01*
X201834210Y-112084441D01*
X202046410Y-112229431D01*
X202298300Y-112280440D01*
X203288900Y-112280440D01*
X203524217Y-112236162D01*
X203740341Y-112097090D01*
X203885331Y-111884890D01*
X203936340Y-111633000D01*
X203936340Y-109855000D01*
X204190860Y-109855000D01*
X204190860Y-111633000D01*
X204235138Y-111868317D01*
X204374210Y-112084441D01*
X204586410Y-112229431D01*
X204838300Y-112280440D01*
X205828900Y-112280440D01*
X206064217Y-112236162D01*
X206280341Y-112097090D01*
X206425331Y-111884890D01*
X206476340Y-111633000D01*
X206476340Y-109855000D01*
X206432062Y-109619683D01*
X206292990Y-109403559D01*
X206080790Y-109258569D01*
X205828900Y-109207560D01*
X204838300Y-109207560D01*
X204602983Y-109251838D01*
X204386859Y-109390910D01*
X204241869Y-109603110D01*
X204190860Y-109855000D01*
X203936340Y-109855000D01*
X203892062Y-109619683D01*
X203752990Y-109403559D01*
X203540790Y-109258569D01*
X203288900Y-109207560D01*
X202298300Y-109207560D01*
X202062983Y-109251838D01*
X201846859Y-109390910D01*
X201701869Y-109603110D01*
X201650860Y-109855000D01*
X201396340Y-109855000D01*
X201352062Y-109619683D01*
X201212990Y-109403559D01*
X201000790Y-109258569D01*
X200748900Y-109207560D01*
X199758300Y-109207560D01*
X199522983Y-109251838D01*
X199306859Y-109390910D01*
X199161869Y-109603110D01*
X199110860Y-109855000D01*
X198856340Y-109855000D01*
X198812062Y-109619683D01*
X198672990Y-109403559D01*
X198460790Y-109258569D01*
X198208900Y-109207560D01*
X197218300Y-109207560D01*
X196982983Y-109251838D01*
X196766859Y-109390910D01*
X196621869Y-109603110D01*
X196570860Y-109855000D01*
X196316340Y-109855000D01*
X196272062Y-109619683D01*
X196132990Y-109403559D01*
X195920790Y-109258569D01*
X195668900Y-109207560D01*
X194678300Y-109207560D01*
X194442983Y-109251838D01*
X194226859Y-109390910D01*
X194081869Y-109603110D01*
X194030860Y-109855000D01*
X193776340Y-109855000D01*
X193732062Y-109619683D01*
X193592990Y-109403559D01*
X193380790Y-109258569D01*
X193128900Y-109207560D01*
X192138300Y-109207560D01*
X191902983Y-109251838D01*
X191686859Y-109390910D01*
X191541869Y-109603110D01*
X191490860Y-109855000D01*
X191236340Y-109855000D01*
X191192062Y-109619683D01*
X191052990Y-109403559D01*
X190840790Y-109258569D01*
X190588900Y-109207560D01*
X189598300Y-109207560D01*
X189362983Y-109251838D01*
X189146859Y-109390910D01*
X189001869Y-109603110D01*
X188950860Y-109855000D01*
X188696340Y-109855000D01*
X188652062Y-109619683D01*
X188512990Y-109403559D01*
X188300790Y-109258569D01*
X188048900Y-109207560D01*
X187058300Y-109207560D01*
X186822983Y-109251838D01*
X186606859Y-109390910D01*
X186461869Y-109603110D01*
X186410860Y-109855000D01*
X186156340Y-109855000D01*
X186112062Y-109619683D01*
X185972990Y-109403559D01*
X185760790Y-109258569D01*
X185508900Y-109207560D01*
X184518300Y-109207560D01*
X184282983Y-109251838D01*
X184066859Y-109390910D01*
X183921869Y-109603110D01*
X183870860Y-109855000D01*
X183616340Y-109855000D01*
X183572062Y-109619683D01*
X183432990Y-109403559D01*
X183311800Y-109320753D01*
X183311800Y-108982994D01*
X183331984Y-108962810D01*
X207317990Y-108962810D01*
X207638756Y-108899006D01*
X207910687Y-108717307D01*
X208804646Y-107823348D01*
X209037543Y-107727117D01*
X209300792Y-107464327D01*
X209443438Y-107120799D01*
X209443762Y-106748833D01*
X209301717Y-106405057D01*
X209038927Y-106141808D01*
X208695399Y-105999162D01*
X208323433Y-105998838D01*
X207979657Y-106140883D01*
X207716408Y-106403673D01*
X207619036Y-106638170D01*
X206970796Y-107286410D01*
X195951806Y-107286410D01*
X196011800Y-106984800D01*
X196011800Y-106324934D01*
X196120341Y-106255090D01*
X196265331Y-106042890D01*
X196316340Y-105791000D01*
X196316340Y-104013000D01*
X196570860Y-104013000D01*
X196570860Y-105791000D01*
X196615138Y-106026317D01*
X196754210Y-106242441D01*
X196966410Y-106387431D01*
X197218300Y-106438440D01*
X198208900Y-106438440D01*
X198444217Y-106394162D01*
X198660341Y-106255090D01*
X198805331Y-106042890D01*
X198856340Y-105791000D01*
X198856340Y-104013000D01*
X198812062Y-103777683D01*
X198672990Y-103561559D01*
X198460790Y-103416569D01*
X198208900Y-103365560D01*
X197218300Y-103365560D01*
X196982983Y-103409838D01*
X196766859Y-103548910D01*
X196621869Y-103761110D01*
X196570860Y-104013000D01*
X196316340Y-104013000D01*
X196272062Y-103777683D01*
X196132990Y-103561559D01*
X195920790Y-103416569D01*
X195668900Y-103365560D01*
X194678300Y-103365560D01*
X194442983Y-103409838D01*
X194226859Y-103548910D01*
X194081869Y-103761110D01*
X194030860Y-104013000D01*
X194030860Y-105791000D01*
X194075138Y-106026317D01*
X194214210Y-106242441D01*
X194335400Y-106325247D01*
X194335400Y-106637606D01*
X194293006Y-106680000D01*
X192434694Y-106680000D01*
X192676254Y-106438440D01*
X193128900Y-106438440D01*
X193364217Y-106394162D01*
X193580341Y-106255090D01*
X193725331Y-106042890D01*
X193776340Y-105791000D01*
X193776340Y-104013000D01*
X193732062Y-103777683D01*
X193592990Y-103561559D01*
X193380790Y-103416569D01*
X193128900Y-103365560D01*
X192138300Y-103365560D01*
X191902983Y-103409838D01*
X191686859Y-103548910D01*
X191541869Y-103761110D01*
X191490860Y-104013000D01*
X191490860Y-105253046D01*
X191236340Y-105507566D01*
X191236340Y-104013000D01*
X191192062Y-103777683D01*
X191052990Y-103561559D01*
X190840790Y-103416569D01*
X190588900Y-103365560D01*
X189598300Y-103365560D01*
X189362983Y-103409838D01*
X189146859Y-103548910D01*
X189001869Y-103761110D01*
X188950860Y-104013000D01*
X188950860Y-105633799D01*
X188696340Y-105633799D01*
X188696340Y-104013000D01*
X188652062Y-103777683D01*
X188512990Y-103561559D01*
X188300790Y-103416569D01*
X188048900Y-103365560D01*
X187058300Y-103365560D01*
X186822983Y-103409838D01*
X186606859Y-103548910D01*
X186461869Y-103761110D01*
X186410860Y-104013000D01*
X186410860Y-105633799D01*
X183616340Y-105633799D01*
X183616340Y-104013000D01*
X183572062Y-103777683D01*
X183432990Y-103561559D01*
X183220790Y-103416569D01*
X182968900Y-103365560D01*
X181978300Y-103365560D01*
X181742983Y-103409838D01*
X181526859Y-103548910D01*
X181381869Y-103761110D01*
X181330860Y-104013000D01*
X181330860Y-105633799D01*
X172208475Y-105633799D01*
X171954927Y-105379808D01*
X171611399Y-105237162D01*
X171239433Y-105236838D01*
X170895657Y-105378883D01*
X170632408Y-105641673D01*
X170489762Y-105985201D01*
X170489438Y-106357167D01*
X170622830Y-106680000D01*
X168389728Y-106680000D01*
X168156999Y-106583362D01*
X167785033Y-106583038D01*
X167441257Y-106725083D01*
X167178008Y-106987873D01*
X167035362Y-107331401D01*
X167035038Y-107703367D01*
X167177083Y-108047143D01*
X167439873Y-108310392D01*
X167783401Y-108453038D01*
X168155367Y-108453362D01*
X168390034Y-108356400D01*
X181690976Y-108356400D01*
X181671689Y-108453362D01*
X181635400Y-108635800D01*
X181635400Y-109321066D01*
X181526859Y-109390910D01*
X181381869Y-109603110D01*
X181330860Y-109855000D01*
X181330860Y-111633000D01*
X181375138Y-111868317D01*
X181514210Y-112084441D01*
X181635400Y-112167247D01*
X181635400Y-119032806D01*
X177046406Y-123621800D01*
X169005392Y-123621800D01*
X169395503Y-123460610D01*
X169788829Y-123067970D01*
X170001957Y-122554700D01*
X170002442Y-121998939D01*
X169790210Y-121485297D01*
X169443400Y-121137881D01*
X169443400Y-120192800D01*
X169379596Y-119872035D01*
X169379596Y-119872034D01*
X169197897Y-119600103D01*
X165125400Y-115527606D01*
X165125400Y-106591528D01*
X165222038Y-106358799D01*
X165222362Y-105986833D01*
X165080317Y-105643057D01*
X164817527Y-105379808D01*
X164473999Y-105237162D01*
X164102033Y-105236838D01*
X163758257Y-105378883D01*
X163495008Y-105641673D01*
X163352362Y-105985201D01*
X163352038Y-106357167D01*
X163449000Y-106591834D01*
X163449000Y-115874800D01*
X163512804Y-116195566D01*
X163694503Y-116467497D01*
X167767000Y-120539994D01*
X167767000Y-121138403D01*
X167421571Y-121483230D01*
X167335251Y-121691112D01*
X167250210Y-121485297D01*
X166857570Y-121091971D01*
X166344300Y-120878843D01*
X165788539Y-120878358D01*
X165274897Y-121090590D01*
X164881571Y-121483230D01*
X164668443Y-121996500D01*
X164667958Y-122552261D01*
X164880190Y-123065903D01*
X165227000Y-123413319D01*
X165227000Y-123621800D01*
X153587592Y-123621800D01*
X153977703Y-123460610D01*
X154371029Y-123067970D01*
X154584157Y-122554700D01*
X154584642Y-121998939D01*
X154372410Y-121485297D01*
X153979770Y-121091971D01*
X153466500Y-120878843D01*
X152975609Y-120878415D01*
X150452697Y-118355503D01*
X150180766Y-118173804D01*
X149860000Y-118110000D01*
X143501594Y-118110000D01*
X141579600Y-116188006D01*
X141579600Y-112280440D01*
X142328900Y-112280440D01*
X142564217Y-112236162D01*
X142780341Y-112097090D01*
X142925331Y-111884890D01*
X142976340Y-111633000D01*
X142976340Y-109855000D01*
X142932062Y-109619683D01*
X142792990Y-109403559D01*
X142580790Y-109258569D01*
X142328900Y-109207560D01*
X141579600Y-109207560D01*
X141579600Y-106463840D01*
X142328900Y-106463840D01*
X142564217Y-106419562D01*
X142780341Y-106280490D01*
X142925331Y-106068290D01*
X142976340Y-105816400D01*
X142976340Y-104038400D01*
X142951569Y-103906756D01*
X142958567Y-103906762D01*
X143193234Y-103809800D01*
X146783410Y-103809800D01*
X147104176Y-103745996D01*
X147376107Y-103564297D01*
X147794194Y-103146210D01*
X199852416Y-103146210D01*
X200071766Y-103365560D01*
X199758300Y-103365560D01*
X199522983Y-103409838D01*
X199306859Y-103548910D01*
X199161869Y-103761110D01*
X199110860Y-104013000D01*
X199110860Y-105791000D01*
X199155138Y-106026317D01*
X199294210Y-106242441D01*
X199506410Y-106387431D01*
X199758300Y-106438440D01*
X200748900Y-106438440D01*
X200984217Y-106394162D01*
X201200341Y-106255090D01*
X201345331Y-106042890D01*
X201396340Y-105791000D01*
X201396340Y-104690134D01*
X201650860Y-104944654D01*
X201650860Y-105791000D01*
X201695138Y-106026317D01*
X201834210Y-106242441D01*
X202046410Y-106387431D01*
X202298300Y-106438440D01*
X203288900Y-106438440D01*
X203524217Y-106394162D01*
X203740341Y-106255090D01*
X203885331Y-106042890D01*
X203936340Y-105791000D01*
X203936340Y-104013000D01*
X203892062Y-103777683D01*
X203752990Y-103561559D01*
X203540790Y-103416569D01*
X203288900Y-103365560D01*
X202442554Y-103365560D01*
X201616794Y-102539800D01*
X203970406Y-102539800D01*
X204495400Y-103064794D01*
X204495400Y-103479066D01*
X204386859Y-103548910D01*
X204241869Y-103761110D01*
X204190860Y-104013000D01*
X204190860Y-105791000D01*
X204235138Y-106026317D01*
X204374210Y-106242441D01*
X204586410Y-106387431D01*
X204838300Y-106438440D01*
X205828900Y-106438440D01*
X206064217Y-106394162D01*
X206280341Y-106255090D01*
X206425331Y-106042890D01*
X206476340Y-105791000D01*
X206476340Y-104013000D01*
X206432062Y-103777683D01*
X206292990Y-103561559D01*
X206171800Y-103478753D01*
X206171800Y-102717600D01*
X206154132Y-102628775D01*
X206107996Y-102396834D01*
X205926297Y-102124903D01*
X204910297Y-101108903D01*
X204638366Y-100927204D01*
X204317600Y-100863400D01*
X146672728Y-100863400D01*
X146439999Y-100766762D01*
X146068033Y-100766438D01*
X145724257Y-100908483D01*
X145461008Y-101171273D01*
X145318362Y-101514801D01*
X145318038Y-101886767D01*
X145419944Y-102133400D01*
X143192928Y-102133400D01*
X142960199Y-102036762D01*
X142588233Y-102036438D01*
X142244457Y-102178483D01*
X141981208Y-102441273D01*
X141838562Y-102784801D01*
X141838238Y-103156767D01*
X141935004Y-103390960D01*
X141579600Y-103390960D01*
X141579600Y-102819200D01*
X141515796Y-102498435D01*
X141334097Y-102226503D01*
X140944948Y-101837354D01*
X140848717Y-101604457D01*
X140585927Y-101341208D01*
X140242399Y-101198562D01*
X139870433Y-101198238D01*
X139526657Y-101340283D01*
X139263408Y-101603073D01*
X139120762Y-101946601D01*
X139120438Y-102318567D01*
X139262483Y-102662343D01*
X139525273Y-102925592D01*
X139759770Y-103022964D01*
X139903200Y-103166394D01*
X139903200Y-103414106D01*
X139788900Y-103390960D01*
X138798300Y-103390960D01*
X138562983Y-103435238D01*
X138346859Y-103574310D01*
X138201869Y-103786510D01*
X138150860Y-104038400D01*
X138150860Y-105816400D01*
X138195138Y-106051717D01*
X138334210Y-106267841D01*
X138546410Y-106412831D01*
X138798300Y-106463840D01*
X139788900Y-106463840D01*
X139903200Y-106442333D01*
X139903200Y-109230706D01*
X139788900Y-109207560D01*
X138798300Y-109207560D01*
X138562983Y-109251838D01*
X138346859Y-109390910D01*
X138201869Y-109603110D01*
X138150860Y-109855000D01*
X138150860Y-111633000D01*
X138195138Y-111868317D01*
X138334210Y-112084441D01*
X138546410Y-112229431D01*
X138798300Y-112280440D01*
X139788900Y-112280440D01*
X139903200Y-112258933D01*
X139903200Y-116535200D01*
X139967004Y-116855966D01*
X140148703Y-117127897D01*
X142561703Y-119540897D01*
X142833634Y-119722596D01*
X143154400Y-119786400D01*
X149512806Y-119786400D01*
X150604968Y-120878562D01*
X150370739Y-120878358D01*
X149857097Y-121090590D01*
X149463771Y-121483230D01*
X149250643Y-121996500D01*
X149250158Y-122552261D01*
X149462390Y-123065903D01*
X149809200Y-123413319D01*
X149809200Y-123621800D01*
X131741394Y-123621800D01*
X120040632Y-111921038D01*
X120065331Y-111884890D01*
X120116340Y-111633000D01*
X120116340Y-109855000D01*
X120370860Y-109855000D01*
X120370860Y-111633000D01*
X120415138Y-111868317D01*
X120554210Y-112084441D01*
X120766410Y-112229431D01*
X121018300Y-112280440D01*
X122008900Y-112280440D01*
X122244217Y-112236162D01*
X122460341Y-112097090D01*
X122605331Y-111884890D01*
X122656340Y-111633000D01*
X122656340Y-109855000D01*
X122910860Y-109855000D01*
X122910860Y-111633000D01*
X122955138Y-111868317D01*
X123094210Y-112084441D01*
X123306410Y-112229431D01*
X123558300Y-112280440D01*
X124548900Y-112280440D01*
X124784217Y-112236162D01*
X125000341Y-112097090D01*
X125145331Y-111884890D01*
X125196340Y-111633000D01*
X125196340Y-109855000D01*
X125450860Y-109855000D01*
X125450860Y-111633000D01*
X125495138Y-111868317D01*
X125634210Y-112084441D01*
X125846410Y-112229431D01*
X126098300Y-112280440D01*
X127088900Y-112280440D01*
X127324217Y-112236162D01*
X127540341Y-112097090D01*
X127685331Y-111884890D01*
X127736340Y-111633000D01*
X127736340Y-109855000D01*
X127990860Y-109855000D01*
X127990860Y-111633000D01*
X128035138Y-111868317D01*
X128174210Y-112084441D01*
X128386410Y-112229431D01*
X128638300Y-112280440D01*
X129628900Y-112280440D01*
X129864217Y-112236162D01*
X130080341Y-112097090D01*
X130225331Y-111884890D01*
X130276340Y-111633000D01*
X130276340Y-109855000D01*
X130530860Y-109855000D01*
X130530860Y-111633000D01*
X130575138Y-111868317D01*
X130714210Y-112084441D01*
X130926410Y-112229431D01*
X131178300Y-112280440D01*
X132168900Y-112280440D01*
X132404217Y-112236162D01*
X132620341Y-112097090D01*
X132765331Y-111884890D01*
X132816340Y-111633000D01*
X132816340Y-109855000D01*
X133070860Y-109855000D01*
X133070860Y-111633000D01*
X133115138Y-111868317D01*
X133254210Y-112084441D01*
X133466410Y-112229431D01*
X133718300Y-112280440D01*
X134708900Y-112280440D01*
X134944217Y-112236162D01*
X135160341Y-112097090D01*
X135305331Y-111884890D01*
X135356340Y-111633000D01*
X135356340Y-109855000D01*
X135610860Y-109855000D01*
X135610860Y-111633000D01*
X135655138Y-111868317D01*
X135794210Y-112084441D01*
X136006410Y-112229431D01*
X136258300Y-112280440D01*
X137248900Y-112280440D01*
X137484217Y-112236162D01*
X137700341Y-112097090D01*
X137845331Y-111884890D01*
X137896340Y-111633000D01*
X137896340Y-109855000D01*
X137852062Y-109619683D01*
X137712990Y-109403559D01*
X137500790Y-109258569D01*
X137248900Y-109207560D01*
X136258300Y-109207560D01*
X136022983Y-109251838D01*
X135806859Y-109390910D01*
X135661869Y-109603110D01*
X135610860Y-109855000D01*
X135356340Y-109855000D01*
X135312062Y-109619683D01*
X135172990Y-109403559D01*
X134960790Y-109258569D01*
X134708900Y-109207560D01*
X133718300Y-109207560D01*
X133482983Y-109251838D01*
X133266859Y-109390910D01*
X133121869Y-109603110D01*
X133070860Y-109855000D01*
X132816340Y-109855000D01*
X132772062Y-109619683D01*
X132632990Y-109403559D01*
X132420790Y-109258569D01*
X132168900Y-109207560D01*
X131178300Y-109207560D01*
X130942983Y-109251838D01*
X130726859Y-109390910D01*
X130581869Y-109603110D01*
X130530860Y-109855000D01*
X130276340Y-109855000D01*
X130232062Y-109619683D01*
X130092990Y-109403559D01*
X129880790Y-109258569D01*
X129628900Y-109207560D01*
X128638300Y-109207560D01*
X128402983Y-109251838D01*
X128186859Y-109390910D01*
X128041869Y-109603110D01*
X127990860Y-109855000D01*
X127736340Y-109855000D01*
X127692062Y-109619683D01*
X127552990Y-109403559D01*
X127340790Y-109258569D01*
X127088900Y-109207560D01*
X126098300Y-109207560D01*
X125862983Y-109251838D01*
X125646859Y-109390910D01*
X125501869Y-109603110D01*
X125450860Y-109855000D01*
X125196340Y-109855000D01*
X125152062Y-109619683D01*
X125012990Y-109403559D01*
X124800790Y-109258569D01*
X124548900Y-109207560D01*
X123558300Y-109207560D01*
X123322983Y-109251838D01*
X123106859Y-109390910D01*
X122961869Y-109603110D01*
X122910860Y-109855000D01*
X122656340Y-109855000D01*
X122612062Y-109619683D01*
X122472990Y-109403559D01*
X122260790Y-109258569D01*
X122008900Y-109207560D01*
X121018300Y-109207560D01*
X120782983Y-109251838D01*
X120566859Y-109390910D01*
X120421869Y-109603110D01*
X120370860Y-109855000D01*
X120116340Y-109855000D01*
X120072062Y-109619683D01*
X119932990Y-109403559D01*
X119720790Y-109258569D01*
X119468900Y-109207560D01*
X118478300Y-109207560D01*
X118413600Y-109219734D01*
X118413600Y-106450738D01*
X118478300Y-106463840D01*
X119468900Y-106463840D01*
X119704217Y-106419562D01*
X119920341Y-106280490D01*
X120065331Y-106068290D01*
X120116340Y-105816400D01*
X120116340Y-104038400D01*
X122910860Y-104038400D01*
X122910860Y-105816400D01*
X122955138Y-106051717D01*
X123094210Y-106267841D01*
X123306410Y-106412831D01*
X123558300Y-106463840D01*
X124548900Y-106463840D01*
X124784217Y-106419562D01*
X125000341Y-106280490D01*
X125145331Y-106068290D01*
X125196340Y-105816400D01*
X125196340Y-104038400D01*
X125450860Y-104038400D01*
X125450860Y-105816400D01*
X125495138Y-106051717D01*
X125634210Y-106267841D01*
X125846410Y-106412831D01*
X126098300Y-106463840D01*
X127088900Y-106463840D01*
X127324217Y-106419562D01*
X127540341Y-106280490D01*
X127685331Y-106068290D01*
X127736340Y-105816400D01*
X127736340Y-104038400D01*
X127990860Y-104038400D01*
X127990860Y-105816400D01*
X128035138Y-106051717D01*
X128174210Y-106267841D01*
X128386410Y-106412831D01*
X128638300Y-106463840D01*
X129628900Y-106463840D01*
X129864217Y-106419562D01*
X130080341Y-106280490D01*
X130225331Y-106068290D01*
X130276340Y-105816400D01*
X130276340Y-104038400D01*
X130530860Y-104038400D01*
X130530860Y-105816400D01*
X130575138Y-106051717D01*
X130714210Y-106267841D01*
X130926410Y-106412831D01*
X131178300Y-106463840D01*
X132168900Y-106463840D01*
X132404217Y-106419562D01*
X132620341Y-106280490D01*
X132765331Y-106068290D01*
X132816340Y-105816400D01*
X132816340Y-104038400D01*
X133070860Y-104038400D01*
X133070860Y-105816400D01*
X133115138Y-106051717D01*
X133254210Y-106267841D01*
X133466410Y-106412831D01*
X133718300Y-106463840D01*
X134708900Y-106463840D01*
X134944217Y-106419562D01*
X135160341Y-106280490D01*
X135305331Y-106068290D01*
X135356340Y-105816400D01*
X135356340Y-104038400D01*
X135610860Y-104038400D01*
X135610860Y-105816400D01*
X135655138Y-106051717D01*
X135794210Y-106267841D01*
X136006410Y-106412831D01*
X136258300Y-106463840D01*
X137248900Y-106463840D01*
X137484217Y-106419562D01*
X137700341Y-106280490D01*
X137845331Y-106068290D01*
X137896340Y-105816400D01*
X137896340Y-104038400D01*
X137852062Y-103803083D01*
X137712990Y-103586959D01*
X137500790Y-103441969D01*
X137248900Y-103390960D01*
X136258300Y-103390960D01*
X136022983Y-103435238D01*
X135806859Y-103574310D01*
X135661869Y-103786510D01*
X135610860Y-104038400D01*
X135356340Y-104038400D01*
X135312062Y-103803083D01*
X135172990Y-103586959D01*
X134960790Y-103441969D01*
X134708900Y-103390960D01*
X133718300Y-103390960D01*
X133482983Y-103435238D01*
X133266859Y-103574310D01*
X133121869Y-103786510D01*
X133070860Y-104038400D01*
X132816340Y-104038400D01*
X132772062Y-103803083D01*
X132632990Y-103586959D01*
X132420790Y-103441969D01*
X132168900Y-103390960D01*
X131178300Y-103390960D01*
X130942983Y-103435238D01*
X130726859Y-103574310D01*
X130581869Y-103786510D01*
X130530860Y-104038400D01*
X130276340Y-104038400D01*
X130232062Y-103803083D01*
X130092990Y-103586959D01*
X129880790Y-103441969D01*
X129628900Y-103390960D01*
X128638300Y-103390960D01*
X128402983Y-103435238D01*
X128186859Y-103574310D01*
X128041869Y-103786510D01*
X127990860Y-104038400D01*
X127736340Y-104038400D01*
X127692062Y-103803083D01*
X127552990Y-103586959D01*
X127340790Y-103441969D01*
X127088900Y-103390960D01*
X126098300Y-103390960D01*
X125862983Y-103435238D01*
X125646859Y-103574310D01*
X125501869Y-103786510D01*
X125450860Y-104038400D01*
X125196340Y-104038400D01*
X125152062Y-103803083D01*
X125012990Y-103586959D01*
X124800790Y-103441969D01*
X124548900Y-103390960D01*
X123558300Y-103390960D01*
X123322983Y-103435238D01*
X123106859Y-103574310D01*
X122961869Y-103786510D01*
X122910860Y-104038400D01*
X120116340Y-104038400D01*
X120072062Y-103803083D01*
X119932990Y-103586959D01*
X119720790Y-103441969D01*
X119468900Y-103390960D01*
X118478300Y-103390960D01*
X118413600Y-103403134D01*
X118413600Y-84463000D01*
X133070600Y-84463000D01*
X133070600Y-86817200D01*
X133134404Y-87137966D01*
X133316103Y-87409897D01*
X136262503Y-90356297D01*
X136534435Y-90537996D01*
X136855200Y-90601800D01*
X197798206Y-90601800D01*
X198399052Y-91202646D01*
X198495283Y-91435543D01*
X198758073Y-91698792D01*
X199101601Y-91841438D01*
X199473567Y-91841762D01*
X199817343Y-91699717D01*
X200080592Y-91436927D01*
X200223238Y-91093399D01*
X200223562Y-90721433D01*
X200081517Y-90377657D01*
X199818727Y-90114408D01*
X199584230Y-90017036D01*
X198738097Y-89170903D01*
X198466166Y-88989204D01*
X198145400Y-88925400D01*
X137202394Y-88925400D01*
X136259855Y-87982861D01*
X205714358Y-87982861D01*
X205926590Y-88496503D01*
X206319230Y-88889829D01*
X206832500Y-89102957D01*
X207388261Y-89103442D01*
X207901903Y-88891210D01*
X208295229Y-88498570D01*
X208508357Y-87985300D01*
X208508842Y-87429539D01*
X208296610Y-86915897D01*
X207903970Y-86522571D01*
X207390700Y-86309443D01*
X206834939Y-86308958D01*
X206321297Y-86521190D01*
X205927971Y-86913830D01*
X205714843Y-87427100D01*
X205714358Y-87982861D01*
X136259855Y-87982861D01*
X135651252Y-87374258D01*
X135915400Y-87426800D01*
X163867672Y-87426800D01*
X164100401Y-87523438D01*
X164472367Y-87523762D01*
X164707034Y-87426800D01*
X176522000Y-87426800D01*
X176842766Y-87362996D01*
X177114697Y-87181297D01*
X177452897Y-86843097D01*
X177634596Y-86571166D01*
X177668619Y-86400122D01*
X177811641Y-86308090D01*
X177956631Y-86095890D01*
X178007640Y-85844000D01*
X178007640Y-84912200D01*
X197688200Y-84912200D01*
X198008966Y-84848396D01*
X198280897Y-84666697D01*
X198924046Y-84023548D01*
X199156943Y-83927317D01*
X199420192Y-83664527D01*
X199562838Y-83320999D01*
X199563162Y-82949033D01*
X199421117Y-82605257D01*
X199158327Y-82342008D01*
X198814799Y-82199362D01*
X198442833Y-82199038D01*
X198099057Y-82341083D01*
X197835808Y-82603873D01*
X197738436Y-82838370D01*
X197341006Y-83235800D01*
X177631672Y-83235800D01*
X177316782Y-83025397D01*
X176882436Y-82939000D01*
X176837964Y-82939000D01*
X176403618Y-83025397D01*
X176035398Y-83271434D01*
X175789361Y-83639654D01*
X175702964Y-84074000D01*
X175789361Y-84508346D01*
X175805005Y-84531759D01*
X175763769Y-84592110D01*
X175712760Y-84844000D01*
X175712760Y-85750400D01*
X174740768Y-85750400D01*
X174756039Y-85727546D01*
X174842436Y-85293200D01*
X174756039Y-84858854D01*
X174740395Y-84835441D01*
X174781631Y-84775090D01*
X174832640Y-84523200D01*
X174832640Y-83523200D01*
X174788362Y-83287883D01*
X174649290Y-83071759D01*
X174498000Y-82968387D01*
X174498000Y-71158528D01*
X174594638Y-70925799D01*
X174594962Y-70553833D01*
X174452917Y-70210057D01*
X174190127Y-69946808D01*
X173846599Y-69804162D01*
X173474633Y-69803838D01*
X173130857Y-69945883D01*
X172867608Y-70208673D01*
X172724962Y-70552201D01*
X172724638Y-70924167D01*
X172821600Y-71158834D01*
X172821600Y-83002586D01*
X172733759Y-83059110D01*
X172588769Y-83271310D01*
X172537760Y-83523200D01*
X172537760Y-84523200D01*
X172582038Y-84758517D01*
X172630786Y-84834273D01*
X172614361Y-84858854D01*
X172527964Y-85293200D01*
X172614361Y-85727546D01*
X172629632Y-85750400D01*
X171565768Y-85750400D01*
X171581039Y-85727546D01*
X171667436Y-85293200D01*
X171581039Y-84858854D01*
X171565395Y-84835441D01*
X171606631Y-84775090D01*
X171657640Y-84523200D01*
X171657640Y-83523200D01*
X171613362Y-83287883D01*
X171474290Y-83071759D01*
X171262090Y-82926769D01*
X171010200Y-82875760D01*
X170010200Y-82875760D01*
X169774883Y-82920038D01*
X169558759Y-83059110D01*
X169413769Y-83271310D01*
X169362760Y-83523200D01*
X169362760Y-84523200D01*
X169407038Y-84758517D01*
X169455786Y-84834273D01*
X169439361Y-84858854D01*
X169352964Y-85293200D01*
X169439361Y-85727546D01*
X169454632Y-85750400D01*
X168390768Y-85750400D01*
X168406039Y-85727546D01*
X168492436Y-85293200D01*
X168406039Y-84858854D01*
X168390395Y-84835441D01*
X168431631Y-84775090D01*
X168482640Y-84523200D01*
X168482640Y-83523200D01*
X168438362Y-83287883D01*
X168299290Y-83071759D01*
X168087090Y-82926769D01*
X167835200Y-82875760D01*
X166835200Y-82875760D01*
X166599883Y-82920038D01*
X166383759Y-83059110D01*
X166238769Y-83271310D01*
X166187760Y-83523200D01*
X166187760Y-84523200D01*
X166232038Y-84758517D01*
X166280786Y-84834273D01*
X166264361Y-84858854D01*
X166177964Y-85293200D01*
X166264361Y-85727546D01*
X166279632Y-85750400D01*
X164706728Y-85750400D01*
X164473999Y-85653762D01*
X164109400Y-85653444D01*
X164109400Y-66675000D01*
X181330860Y-66675000D01*
X181330860Y-68453000D01*
X181375138Y-68688317D01*
X181514210Y-68904441D01*
X181726410Y-69049431D01*
X181978300Y-69100440D01*
X182968900Y-69100440D01*
X183204217Y-69056162D01*
X183420341Y-68917090D01*
X183565331Y-68704890D01*
X183616340Y-68453000D01*
X183616340Y-66675000D01*
X183870860Y-66675000D01*
X183870860Y-68453000D01*
X183915138Y-68688317D01*
X184054210Y-68904441D01*
X184266410Y-69049431D01*
X184518300Y-69100440D01*
X185508900Y-69100440D01*
X185744217Y-69056162D01*
X185960341Y-68917090D01*
X186105331Y-68704890D01*
X186156340Y-68453000D01*
X186156340Y-66675000D01*
X186410860Y-66675000D01*
X186410860Y-68453000D01*
X186455138Y-68688317D01*
X186594210Y-68904441D01*
X186806410Y-69049431D01*
X187058300Y-69100440D01*
X188048900Y-69100440D01*
X188284217Y-69056162D01*
X188500341Y-68917090D01*
X188645331Y-68704890D01*
X188696340Y-68453000D01*
X188696340Y-66675000D01*
X188950860Y-66675000D01*
X188950860Y-68453000D01*
X188995138Y-68688317D01*
X189134210Y-68904441D01*
X189346410Y-69049431D01*
X189598300Y-69100440D01*
X190588900Y-69100440D01*
X190824217Y-69056162D01*
X191040341Y-68917090D01*
X191185331Y-68704890D01*
X191236340Y-68453000D01*
X191236340Y-66675000D01*
X191490860Y-66675000D01*
X191490860Y-68453000D01*
X191535138Y-68688317D01*
X191674210Y-68904441D01*
X191886410Y-69049431D01*
X192138300Y-69100440D01*
X193128900Y-69100440D01*
X193364217Y-69056162D01*
X193580341Y-68917090D01*
X193725331Y-68704890D01*
X193776340Y-68453000D01*
X193776340Y-66675000D01*
X194030860Y-66675000D01*
X194030860Y-68453000D01*
X194075138Y-68688317D01*
X194214210Y-68904441D01*
X194426410Y-69049431D01*
X194678300Y-69100440D01*
X195668900Y-69100440D01*
X195904217Y-69056162D01*
X196120341Y-68917090D01*
X196265331Y-68704890D01*
X196316340Y-68453000D01*
X196316340Y-66675000D01*
X196570860Y-66675000D01*
X196570860Y-68453000D01*
X196615138Y-68688317D01*
X196754210Y-68904441D01*
X196966410Y-69049431D01*
X197218300Y-69100440D01*
X198208900Y-69100440D01*
X198444217Y-69056162D01*
X198660341Y-68917090D01*
X198805331Y-68704890D01*
X198856340Y-68453000D01*
X198856340Y-66675000D01*
X199110860Y-66675000D01*
X199110860Y-68453000D01*
X199155138Y-68688317D01*
X199294210Y-68904441D01*
X199506410Y-69049431D01*
X199758300Y-69100440D01*
X200748900Y-69100440D01*
X200984217Y-69056162D01*
X201200341Y-68917090D01*
X201345331Y-68704890D01*
X201396340Y-68453000D01*
X201396340Y-66675000D01*
X201650860Y-66675000D01*
X201650860Y-68453000D01*
X201695138Y-68688317D01*
X201834210Y-68904441D01*
X202046410Y-69049431D01*
X202298300Y-69100440D01*
X203288900Y-69100440D01*
X203524217Y-69056162D01*
X203740341Y-68917090D01*
X203885331Y-68704890D01*
X203936340Y-68453000D01*
X203936340Y-66675000D01*
X204190860Y-66675000D01*
X204190860Y-68453000D01*
X204235138Y-68688317D01*
X204374210Y-68904441D01*
X204586410Y-69049431D01*
X204838300Y-69100440D01*
X205828900Y-69100440D01*
X206064217Y-69056162D01*
X206280341Y-68917090D01*
X206425331Y-68704890D01*
X206476340Y-68453000D01*
X206476340Y-66675000D01*
X206432062Y-66439683D01*
X206292990Y-66223559D01*
X206080790Y-66078569D01*
X205828900Y-66027560D01*
X204838300Y-66027560D01*
X204602983Y-66071838D01*
X204386859Y-66210910D01*
X204241869Y-66423110D01*
X204190860Y-66675000D01*
X203936340Y-66675000D01*
X203892062Y-66439683D01*
X203752990Y-66223559D01*
X203540790Y-66078569D01*
X203288900Y-66027560D01*
X202298300Y-66027560D01*
X202062983Y-66071838D01*
X201846859Y-66210910D01*
X201701869Y-66423110D01*
X201650860Y-66675000D01*
X201396340Y-66675000D01*
X201352062Y-66439683D01*
X201212990Y-66223559D01*
X201000790Y-66078569D01*
X200748900Y-66027560D01*
X199758300Y-66027560D01*
X199522983Y-66071838D01*
X199306859Y-66210910D01*
X199161869Y-66423110D01*
X199110860Y-66675000D01*
X198856340Y-66675000D01*
X198812062Y-66439683D01*
X198672990Y-66223559D01*
X198460790Y-66078569D01*
X198208900Y-66027560D01*
X197218300Y-66027560D01*
X196982983Y-66071838D01*
X196766859Y-66210910D01*
X196621869Y-66423110D01*
X196570860Y-66675000D01*
X196316340Y-66675000D01*
X196272062Y-66439683D01*
X196132990Y-66223559D01*
X195920790Y-66078569D01*
X195668900Y-66027560D01*
X194678300Y-66027560D01*
X194442983Y-66071838D01*
X194226859Y-66210910D01*
X194081869Y-66423110D01*
X194030860Y-66675000D01*
X193776340Y-66675000D01*
X193732062Y-66439683D01*
X193592990Y-66223559D01*
X193380790Y-66078569D01*
X193128900Y-66027560D01*
X192138300Y-66027560D01*
X191902983Y-66071838D01*
X191686859Y-66210910D01*
X191541869Y-66423110D01*
X191490860Y-66675000D01*
X191236340Y-66675000D01*
X191192062Y-66439683D01*
X191052990Y-66223559D01*
X190840790Y-66078569D01*
X190588900Y-66027560D01*
X189598300Y-66027560D01*
X189362983Y-66071838D01*
X189146859Y-66210910D01*
X189001869Y-66423110D01*
X188950860Y-66675000D01*
X188696340Y-66675000D01*
X188652062Y-66439683D01*
X188512990Y-66223559D01*
X188300790Y-66078569D01*
X188048900Y-66027560D01*
X187058300Y-66027560D01*
X186822983Y-66071838D01*
X186606859Y-66210910D01*
X186461869Y-66423110D01*
X186410860Y-66675000D01*
X186156340Y-66675000D01*
X186112062Y-66439683D01*
X185972990Y-66223559D01*
X185760790Y-66078569D01*
X185508900Y-66027560D01*
X184518300Y-66027560D01*
X184282983Y-66071838D01*
X184066859Y-66210910D01*
X183921869Y-66423110D01*
X183870860Y-66675000D01*
X183616340Y-66675000D01*
X183572062Y-66439683D01*
X183432990Y-66223559D01*
X183220790Y-66078569D01*
X182968900Y-66027560D01*
X181978300Y-66027560D01*
X181742983Y-66071838D01*
X181526859Y-66210910D01*
X181381869Y-66423110D01*
X181330860Y-66675000D01*
X164109400Y-66675000D01*
X164109400Y-60833000D01*
X183870860Y-60833000D01*
X183870860Y-62611000D01*
X183915138Y-62846317D01*
X184054210Y-63062441D01*
X184266410Y-63207431D01*
X184518300Y-63258440D01*
X185508900Y-63258440D01*
X185744217Y-63214162D01*
X185960341Y-63075090D01*
X186105331Y-62862890D01*
X186156340Y-62611000D01*
X186156340Y-60833000D01*
X186410860Y-60833000D01*
X186410860Y-62611000D01*
X186455138Y-62846317D01*
X186594210Y-63062441D01*
X186806410Y-63207431D01*
X187058300Y-63258440D01*
X188048900Y-63258440D01*
X188284217Y-63214162D01*
X188500341Y-63075090D01*
X188645331Y-62862890D01*
X188696340Y-62611000D01*
X188696340Y-60833000D01*
X188950860Y-60833000D01*
X188950860Y-62611000D01*
X188995138Y-62846317D01*
X189134210Y-63062441D01*
X189346410Y-63207431D01*
X189598300Y-63258440D01*
X190588900Y-63258440D01*
X190824217Y-63214162D01*
X191040341Y-63075090D01*
X191185331Y-62862890D01*
X191236340Y-62611000D01*
X191236340Y-60833000D01*
X191490860Y-60833000D01*
X191490860Y-62611000D01*
X191535138Y-62846317D01*
X191674210Y-63062441D01*
X191886410Y-63207431D01*
X192138300Y-63258440D01*
X193128900Y-63258440D01*
X193364217Y-63214162D01*
X193580341Y-63075090D01*
X193725331Y-62862890D01*
X193776340Y-62611000D01*
X193776340Y-60833000D01*
X194030860Y-60833000D01*
X194030860Y-62611000D01*
X194075138Y-62846317D01*
X194214210Y-63062441D01*
X194426410Y-63207431D01*
X194678300Y-63258440D01*
X195668900Y-63258440D01*
X195904217Y-63214162D01*
X196120341Y-63075090D01*
X196265331Y-62862890D01*
X196316340Y-62611000D01*
X196316340Y-60833000D01*
X196570860Y-60833000D01*
X196570860Y-62611000D01*
X196615138Y-62846317D01*
X196754210Y-63062441D01*
X196966410Y-63207431D01*
X197218300Y-63258440D01*
X198208900Y-63258440D01*
X198444217Y-63214162D01*
X198660341Y-63075090D01*
X198805331Y-62862890D01*
X198856340Y-62611000D01*
X198856340Y-60833000D01*
X199110860Y-60833000D01*
X199110860Y-62611000D01*
X199155138Y-62846317D01*
X199294210Y-63062441D01*
X199506410Y-63207431D01*
X199758300Y-63258440D01*
X200748900Y-63258440D01*
X200984217Y-63214162D01*
X201200341Y-63075090D01*
X201345331Y-62862890D01*
X201396340Y-62611000D01*
X201396340Y-60833000D01*
X201650860Y-60833000D01*
X201650860Y-62611000D01*
X201695138Y-62846317D01*
X201834210Y-63062441D01*
X202046410Y-63207431D01*
X202298300Y-63258440D01*
X203288900Y-63258440D01*
X203524217Y-63214162D01*
X203740341Y-63075090D01*
X203885331Y-62862890D01*
X203936340Y-62611000D01*
X203936340Y-60833000D01*
X204190860Y-60833000D01*
X204190860Y-62611000D01*
X204235138Y-62846317D01*
X204374210Y-63062441D01*
X204586410Y-63207431D01*
X204838300Y-63258440D01*
X205828900Y-63258440D01*
X206064217Y-63214162D01*
X206280341Y-63075090D01*
X206425331Y-62862890D01*
X206476340Y-62611000D01*
X206476340Y-60833000D01*
X206432062Y-60597683D01*
X206292990Y-60381559D01*
X206080790Y-60236569D01*
X205828900Y-60185560D01*
X204838300Y-60185560D01*
X204602983Y-60229838D01*
X204386859Y-60368910D01*
X204241869Y-60581110D01*
X204190860Y-60833000D01*
X203936340Y-60833000D01*
X203892062Y-60597683D01*
X203752990Y-60381559D01*
X203540790Y-60236569D01*
X203288900Y-60185560D01*
X202298300Y-60185560D01*
X202062983Y-60229838D01*
X201846859Y-60368910D01*
X201701869Y-60581110D01*
X201650860Y-60833000D01*
X201396340Y-60833000D01*
X201352062Y-60597683D01*
X201212990Y-60381559D01*
X201000790Y-60236569D01*
X200748900Y-60185560D01*
X199758300Y-60185560D01*
X199522983Y-60229838D01*
X199306859Y-60368910D01*
X199161869Y-60581110D01*
X199110860Y-60833000D01*
X198856340Y-60833000D01*
X198812062Y-60597683D01*
X198672990Y-60381559D01*
X198460790Y-60236569D01*
X198208900Y-60185560D01*
X197218300Y-60185560D01*
X196982983Y-60229838D01*
X196766859Y-60368910D01*
X196621869Y-60581110D01*
X196570860Y-60833000D01*
X196316340Y-60833000D01*
X196272062Y-60597683D01*
X196132990Y-60381559D01*
X195920790Y-60236569D01*
X195668900Y-60185560D01*
X194678300Y-60185560D01*
X194442983Y-60229838D01*
X194226859Y-60368910D01*
X194081869Y-60581110D01*
X194030860Y-60833000D01*
X193776340Y-60833000D01*
X193732062Y-60597683D01*
X193592990Y-60381559D01*
X193380790Y-60236569D01*
X193128900Y-60185560D01*
X192138300Y-60185560D01*
X191902983Y-60229838D01*
X191686859Y-60368910D01*
X191541869Y-60581110D01*
X191490860Y-60833000D01*
X191236340Y-60833000D01*
X191192062Y-60597683D01*
X191052990Y-60381559D01*
X190840790Y-60236569D01*
X190588900Y-60185560D01*
X189598300Y-60185560D01*
X189362983Y-60229838D01*
X189146859Y-60368910D01*
X189001869Y-60581110D01*
X188950860Y-60833000D01*
X188696340Y-60833000D01*
X188652062Y-60597683D01*
X188512990Y-60381559D01*
X188300790Y-60236569D01*
X188048900Y-60185560D01*
X187058300Y-60185560D01*
X186822983Y-60229838D01*
X186606859Y-60368910D01*
X186461869Y-60581110D01*
X186410860Y-60833000D01*
X186156340Y-60833000D01*
X186112062Y-60597683D01*
X185972990Y-60381559D01*
X185760790Y-60236569D01*
X185508900Y-60185560D01*
X184518300Y-60185560D01*
X184282983Y-60229838D01*
X184066859Y-60368910D01*
X183921869Y-60581110D01*
X183870860Y-60833000D01*
X164109400Y-60833000D01*
X164109400Y-57448576D01*
X183920850Y-57448576D01*
X184403196Y-58615943D01*
X185295559Y-59509865D01*
X186462083Y-59994248D01*
X187725176Y-59995350D01*
X188892543Y-59513004D01*
X189786465Y-58620641D01*
X190270848Y-57454117D01*
X190270874Y-57423176D01*
X204189050Y-57423176D01*
X204671396Y-58590543D01*
X205563759Y-59484465D01*
X206730283Y-59968848D01*
X207993376Y-59969950D01*
X209160743Y-59487604D01*
X210054665Y-58595241D01*
X210539048Y-57428717D01*
X210540150Y-56165624D01*
X210057804Y-54998257D01*
X209165441Y-54104335D01*
X207998917Y-53619952D01*
X206735824Y-53618850D01*
X205568457Y-54101196D01*
X204674535Y-54993559D01*
X204190152Y-56160083D01*
X204189050Y-57423176D01*
X190270874Y-57423176D01*
X190271950Y-56191024D01*
X189789604Y-55023657D01*
X188897241Y-54129735D01*
X187730717Y-53645352D01*
X186467624Y-53644250D01*
X185300257Y-54126596D01*
X184406335Y-55018959D01*
X183921952Y-56185483D01*
X183920850Y-57448576D01*
X164109400Y-57448576D01*
X164109400Y-51048197D01*
X164454829Y-50703370D01*
X164541149Y-50495488D01*
X164626190Y-50701303D01*
X165018830Y-51094629D01*
X165532100Y-51307757D01*
X166087861Y-51308242D01*
X166601503Y-51096010D01*
X166994829Y-50703370D01*
X167207957Y-50190100D01*
X167208442Y-49634339D01*
X166996210Y-49120697D01*
X166603570Y-48727371D01*
X166090300Y-48514243D01*
X165534539Y-48513758D01*
X165020897Y-48725990D01*
X164627571Y-49118630D01*
X164541251Y-49326512D01*
X164456210Y-49120697D01*
X164063570Y-48727371D01*
X163550300Y-48514243D01*
X162994539Y-48513758D01*
X162480897Y-48725990D01*
X162087571Y-49118630D01*
X161874443Y-49631900D01*
X161873958Y-50187661D01*
X162086190Y-50701303D01*
X162433000Y-51048719D01*
X162433000Y-85750400D01*
X145894797Y-85750400D01*
X145927039Y-85702146D01*
X146013436Y-85267800D01*
X145927039Y-84833454D01*
X145911395Y-84810041D01*
X145952631Y-84749690D01*
X146003640Y-84497800D01*
X146003640Y-83497800D01*
X145959362Y-83262483D01*
X145820290Y-83046359D01*
X145608090Y-82901369D01*
X145356200Y-82850360D01*
X144356200Y-82850360D01*
X144120883Y-82894638D01*
X143938313Y-83012119D01*
X138912600Y-77986406D01*
X138912600Y-75663400D01*
X151878980Y-75663400D01*
X151878980Y-78669400D01*
X156172219Y-78669400D01*
X156172219Y-75663400D01*
X151878980Y-75663400D01*
X138912600Y-75663400D01*
X138912600Y-69100440D01*
X139788900Y-69100440D01*
X140024217Y-69056162D01*
X140240341Y-68917090D01*
X140385331Y-68704890D01*
X140436340Y-68453000D01*
X140436340Y-66675000D01*
X140690860Y-66675000D01*
X140690860Y-68453000D01*
X140735138Y-68688317D01*
X140874210Y-68904441D01*
X141086410Y-69049431D01*
X141338300Y-69100440D01*
X142328900Y-69100440D01*
X142564217Y-69056162D01*
X142780341Y-68917090D01*
X142925331Y-68704890D01*
X142976340Y-68453000D01*
X142976340Y-66675000D01*
X142932062Y-66439683D01*
X142792990Y-66223559D01*
X142580790Y-66078569D01*
X142328900Y-66027560D01*
X141338300Y-66027560D01*
X141102983Y-66071838D01*
X140886859Y-66210910D01*
X140741869Y-66423110D01*
X140690860Y-66675000D01*
X140436340Y-66675000D01*
X140392062Y-66439683D01*
X140252990Y-66223559D01*
X140040790Y-66078569D01*
X139788900Y-66027560D01*
X138912600Y-66027560D01*
X138912600Y-65595928D01*
X139009238Y-65363199D01*
X139009562Y-64991233D01*
X138867517Y-64647457D01*
X138604727Y-64384208D01*
X138261199Y-64241562D01*
X137889233Y-64241238D01*
X137545457Y-64383283D01*
X137282208Y-64646073D01*
X137139562Y-64989601D01*
X137139238Y-65361567D01*
X137236200Y-65596234D01*
X137236200Y-66027560D01*
X136321800Y-66027560D01*
X136321800Y-65392728D01*
X136418438Y-65159999D01*
X136418762Y-64788033D01*
X136276717Y-64444257D01*
X136013927Y-64181008D01*
X135670399Y-64038362D01*
X135298433Y-64038038D01*
X134954657Y-64180083D01*
X134691408Y-64442873D01*
X134548762Y-64786401D01*
X134548438Y-65158367D01*
X134645400Y-65393034D01*
X134645400Y-66027560D01*
X133718300Y-66027560D01*
X133482983Y-66071838D01*
X133266859Y-66210910D01*
X133121869Y-66423110D01*
X133070860Y-66675000D01*
X133070860Y-68453000D01*
X133115138Y-68688317D01*
X133254210Y-68904441D01*
X133466410Y-69049431D01*
X133718300Y-69100440D01*
X134645400Y-69100440D01*
X134645400Y-76893800D01*
X134709204Y-77214566D01*
X134890903Y-77486497D01*
X140611376Y-83206970D01*
X140584769Y-83245910D01*
X140533760Y-83497800D01*
X140533760Y-84497800D01*
X140578038Y-84733117D01*
X140626786Y-84808873D01*
X140610361Y-84833454D01*
X140523964Y-85267800D01*
X140610361Y-85702146D01*
X140642603Y-85750400D01*
X139502425Y-85750400D01*
X139551639Y-85676746D01*
X139638036Y-85242400D01*
X139551639Y-84808054D01*
X139535995Y-84784641D01*
X139577231Y-84724290D01*
X139628240Y-84472400D01*
X139628240Y-83472400D01*
X139583962Y-83237083D01*
X139444890Y-83020959D01*
X139232690Y-82875969D01*
X138980800Y-82824960D01*
X137980800Y-82824960D01*
X137745483Y-82869238D01*
X137529359Y-83008310D01*
X137384369Y-83220510D01*
X137333360Y-83472400D01*
X137333360Y-84472400D01*
X137377638Y-84707717D01*
X137426386Y-84783473D01*
X137409961Y-84808054D01*
X137323564Y-85242400D01*
X137409961Y-85676746D01*
X137459175Y-85750400D01*
X136327425Y-85750400D01*
X136376639Y-85676746D01*
X136463036Y-85242400D01*
X136376639Y-84808054D01*
X136360995Y-84784641D01*
X136402231Y-84724290D01*
X136453240Y-84472400D01*
X136453240Y-83472400D01*
X136408962Y-83237083D01*
X136269890Y-83020959D01*
X136057690Y-82875969D01*
X135805800Y-82824960D01*
X134805800Y-82824960D01*
X134570483Y-82869238D01*
X134354359Y-83008310D01*
X134247728Y-83164369D01*
X134078634Y-83198004D01*
X133806703Y-83379703D01*
X133316103Y-83870303D01*
X133134404Y-84142234D01*
X133134404Y-84142235D01*
X133070600Y-84463000D01*
X118413600Y-84463000D01*
X118413600Y-69087338D01*
X118478300Y-69100440D01*
X119468900Y-69100440D01*
X119704217Y-69056162D01*
X119920341Y-68917090D01*
X120065331Y-68704890D01*
X120116340Y-68453000D01*
X120116340Y-66675000D01*
X120370860Y-66675000D01*
X120370860Y-68453000D01*
X120415138Y-68688317D01*
X120554210Y-68904441D01*
X120766410Y-69049431D01*
X121018300Y-69100440D01*
X122008900Y-69100440D01*
X122244217Y-69056162D01*
X122460341Y-68917090D01*
X122605331Y-68704890D01*
X122656340Y-68453000D01*
X122656340Y-66675000D01*
X122910860Y-66675000D01*
X122910860Y-68453000D01*
X122955138Y-68688317D01*
X123094210Y-68904441D01*
X123306410Y-69049431D01*
X123558300Y-69100440D01*
X124548900Y-69100440D01*
X124784217Y-69056162D01*
X125000341Y-68917090D01*
X125145331Y-68704890D01*
X125196340Y-68453000D01*
X125196340Y-66675000D01*
X125450860Y-66675000D01*
X125450860Y-68453000D01*
X125495138Y-68688317D01*
X125634210Y-68904441D01*
X125846410Y-69049431D01*
X126098300Y-69100440D01*
X127088900Y-69100440D01*
X127324217Y-69056162D01*
X127540341Y-68917090D01*
X127685331Y-68704890D01*
X127736340Y-68453000D01*
X127736340Y-66675000D01*
X127990860Y-66675000D01*
X127990860Y-68453000D01*
X128035138Y-68688317D01*
X128174210Y-68904441D01*
X128386410Y-69049431D01*
X128638300Y-69100440D01*
X129628900Y-69100440D01*
X129864217Y-69056162D01*
X130080341Y-68917090D01*
X130225331Y-68704890D01*
X130276340Y-68453000D01*
X130276340Y-66675000D01*
X130530860Y-66675000D01*
X130530860Y-68453000D01*
X130575138Y-68688317D01*
X130714210Y-68904441D01*
X130926410Y-69049431D01*
X131178300Y-69100440D01*
X132168900Y-69100440D01*
X132404217Y-69056162D01*
X132620341Y-68917090D01*
X132765331Y-68704890D01*
X132816340Y-68453000D01*
X132816340Y-66675000D01*
X132772062Y-66439683D01*
X132632990Y-66223559D01*
X132420790Y-66078569D01*
X132168900Y-66027560D01*
X131178300Y-66027560D01*
X130942983Y-66071838D01*
X130726859Y-66210910D01*
X130581869Y-66423110D01*
X130530860Y-66675000D01*
X130276340Y-66675000D01*
X130232062Y-66439683D01*
X130092990Y-66223559D01*
X129880790Y-66078569D01*
X129628900Y-66027560D01*
X128638300Y-66027560D01*
X128402983Y-66071838D01*
X128186859Y-66210910D01*
X128041869Y-66423110D01*
X127990860Y-66675000D01*
X127736340Y-66675000D01*
X127692062Y-66439683D01*
X127552990Y-66223559D01*
X127340790Y-66078569D01*
X127088900Y-66027560D01*
X126098300Y-66027560D01*
X125862983Y-66071838D01*
X125646859Y-66210910D01*
X125501869Y-66423110D01*
X125450860Y-66675000D01*
X125196340Y-66675000D01*
X125152062Y-66439683D01*
X125012990Y-66223559D01*
X124800790Y-66078569D01*
X124548900Y-66027560D01*
X123558300Y-66027560D01*
X123322983Y-66071838D01*
X123106859Y-66210910D01*
X122961869Y-66423110D01*
X122910860Y-66675000D01*
X122656340Y-66675000D01*
X122612062Y-66439683D01*
X122472990Y-66223559D01*
X122260790Y-66078569D01*
X122008900Y-66027560D01*
X121018300Y-66027560D01*
X120782983Y-66071838D01*
X120566859Y-66210910D01*
X120421869Y-66423110D01*
X120370860Y-66675000D01*
X120116340Y-66675000D01*
X120072062Y-66439683D01*
X119932990Y-66223559D01*
X119720790Y-66078569D01*
X119468900Y-66027560D01*
X118478300Y-66027560D01*
X118413600Y-66039734D01*
X118413600Y-60863480D01*
X120370860Y-60863480D01*
X120370860Y-62641480D01*
X120415138Y-62876797D01*
X120554210Y-63092921D01*
X120766410Y-63237911D01*
X121018300Y-63288920D01*
X122008900Y-63288920D01*
X122244217Y-63244642D01*
X122460341Y-63105570D01*
X122605331Y-62893370D01*
X122656340Y-62641480D01*
X122656340Y-60863480D01*
X122910860Y-60863480D01*
X122910860Y-62641480D01*
X122955138Y-62876797D01*
X123094210Y-63092921D01*
X123306410Y-63237911D01*
X123558300Y-63288920D01*
X124548900Y-63288920D01*
X124784217Y-63244642D01*
X125000341Y-63105570D01*
X125145331Y-62893370D01*
X125196340Y-62641480D01*
X125196340Y-60863480D01*
X125450860Y-60863480D01*
X125450860Y-62641480D01*
X125495138Y-62876797D01*
X125634210Y-63092921D01*
X125846410Y-63237911D01*
X126098300Y-63288920D01*
X127088900Y-63288920D01*
X127324217Y-63244642D01*
X127540341Y-63105570D01*
X127685331Y-62893370D01*
X127736340Y-62641480D01*
X127736340Y-60863480D01*
X127990860Y-60863480D01*
X127990860Y-62641480D01*
X128035138Y-62876797D01*
X128174210Y-63092921D01*
X128386410Y-63237911D01*
X128638300Y-63288920D01*
X129628900Y-63288920D01*
X129864217Y-63244642D01*
X130080341Y-63105570D01*
X130225331Y-62893370D01*
X130276340Y-62641480D01*
X130276340Y-60863480D01*
X130530860Y-60863480D01*
X130530860Y-62641480D01*
X130575138Y-62876797D01*
X130714210Y-63092921D01*
X130926410Y-63237911D01*
X131178300Y-63288920D01*
X132168900Y-63288920D01*
X132404217Y-63244642D01*
X132620341Y-63105570D01*
X132765331Y-62893370D01*
X132816340Y-62641480D01*
X132816340Y-60863480D01*
X133070860Y-60863480D01*
X133070860Y-62641480D01*
X133115138Y-62876797D01*
X133254210Y-63092921D01*
X133466410Y-63237911D01*
X133718300Y-63288920D01*
X134708900Y-63288920D01*
X134944217Y-63244642D01*
X135160341Y-63105570D01*
X135305331Y-62893370D01*
X135356340Y-62641480D01*
X135356340Y-60863480D01*
X135610860Y-60863480D01*
X135610860Y-62641480D01*
X135655138Y-62876797D01*
X135794210Y-63092921D01*
X136006410Y-63237911D01*
X136258300Y-63288920D01*
X137248900Y-63288920D01*
X137484217Y-63244642D01*
X137700341Y-63105570D01*
X137845331Y-62893370D01*
X137896340Y-62641480D01*
X137896340Y-60863480D01*
X138150860Y-60863480D01*
X138150860Y-62641480D01*
X138195138Y-62876797D01*
X138334210Y-63092921D01*
X138546410Y-63237911D01*
X138798300Y-63288920D01*
X139788900Y-63288920D01*
X140024217Y-63244642D01*
X140240341Y-63105570D01*
X140385331Y-62893370D01*
X140436340Y-62641480D01*
X140436340Y-60863480D01*
X140690860Y-60863480D01*
X140690860Y-62641480D01*
X140735138Y-62876797D01*
X140874210Y-63092921D01*
X141086410Y-63237911D01*
X141338300Y-63288920D01*
X142328900Y-63288920D01*
X142564217Y-63244642D01*
X142780341Y-63105570D01*
X142925331Y-62893370D01*
X142976340Y-62641480D01*
X142976340Y-60863480D01*
X142932062Y-60628163D01*
X142792990Y-60412039D01*
X142580790Y-60267049D01*
X142328900Y-60216040D01*
X141338300Y-60216040D01*
X141102983Y-60260318D01*
X140886859Y-60399390D01*
X140741869Y-60611590D01*
X140690860Y-60863480D01*
X140436340Y-60863480D01*
X140392062Y-60628163D01*
X140252990Y-60412039D01*
X140040790Y-60267049D01*
X139788900Y-60216040D01*
X138798300Y-60216040D01*
X138562983Y-60260318D01*
X138346859Y-60399390D01*
X138201869Y-60611590D01*
X138150860Y-60863480D01*
X137896340Y-60863480D01*
X137852062Y-60628163D01*
X137712990Y-60412039D01*
X137500790Y-60267049D01*
X137248900Y-60216040D01*
X136258300Y-60216040D01*
X136022983Y-60260318D01*
X135806859Y-60399390D01*
X135661869Y-60611590D01*
X135610860Y-60863480D01*
X135356340Y-60863480D01*
X135312062Y-60628163D01*
X135172990Y-60412039D01*
X134960790Y-60267049D01*
X134708900Y-60216040D01*
X133718300Y-60216040D01*
X133482983Y-60260318D01*
X133266859Y-60399390D01*
X133121869Y-60611590D01*
X133070860Y-60863480D01*
X132816340Y-60863480D01*
X132772062Y-60628163D01*
X132632990Y-60412039D01*
X132420790Y-60267049D01*
X132168900Y-60216040D01*
X131178300Y-60216040D01*
X130942983Y-60260318D01*
X130726859Y-60399390D01*
X130581869Y-60611590D01*
X130530860Y-60863480D01*
X130276340Y-60863480D01*
X130232062Y-60628163D01*
X130092990Y-60412039D01*
X129880790Y-60267049D01*
X129628900Y-60216040D01*
X128638300Y-60216040D01*
X128402983Y-60260318D01*
X128186859Y-60399390D01*
X128041869Y-60611590D01*
X127990860Y-60863480D01*
X127736340Y-60863480D01*
X127692062Y-60628163D01*
X127552990Y-60412039D01*
X127340790Y-60267049D01*
X127088900Y-60216040D01*
X126098300Y-60216040D01*
X125862983Y-60260318D01*
X125646859Y-60399390D01*
X125501869Y-60611590D01*
X125450860Y-60863480D01*
X125196340Y-60863480D01*
X125152062Y-60628163D01*
X125012990Y-60412039D01*
X124800790Y-60267049D01*
X124548900Y-60216040D01*
X123558300Y-60216040D01*
X123322983Y-60260318D01*
X123106859Y-60399390D01*
X122961869Y-60611590D01*
X122910860Y-60863480D01*
X122656340Y-60863480D01*
X122612062Y-60628163D01*
X122472990Y-60412039D01*
X122260790Y-60267049D01*
X122008900Y-60216040D01*
X121018300Y-60216040D01*
X120782983Y-60260318D01*
X120566859Y-60399390D01*
X120421869Y-60611590D01*
X120370860Y-60863480D01*
X118413600Y-60863480D01*
X118413600Y-52135000D01*
X119287285Y-52135000D01*
X119287285Y-58505000D01*
X147116800Y-58505000D01*
X147116800Y-71005272D01*
X147020162Y-71238001D01*
X147019838Y-71609967D01*
X147161883Y-71953743D01*
X147424673Y-72216992D01*
X147768201Y-72359638D01*
X148140167Y-72359962D01*
X148483943Y-72217917D01*
X148747192Y-71955127D01*
X148889838Y-71611599D01*
X148890162Y-71239633D01*
X148793200Y-71004966D01*
X148793200Y-58505000D01*
X161128715Y-58505000D01*
X161128715Y-52135000D01*
X148793200Y-52135000D01*
X148793200Y-50997397D01*
X149138629Y-50652570D01*
X149224949Y-50444688D01*
X149309990Y-50650503D01*
X149702630Y-51043829D01*
X150215900Y-51256957D01*
X150771661Y-51257442D01*
X151285303Y-51045210D01*
X151678629Y-50652570D01*
X151891757Y-50139300D01*
X151892242Y-49583539D01*
X151680010Y-49069897D01*
X151287370Y-48676571D01*
X150774100Y-48463443D01*
X150218339Y-48462958D01*
X149704697Y-48675190D01*
X149311371Y-49067830D01*
X149225051Y-49275712D01*
X149140010Y-49069897D01*
X148747370Y-48676571D01*
X148234100Y-48463443D01*
X147678339Y-48462958D01*
X147164697Y-48675190D01*
X146771371Y-49067830D01*
X146558243Y-49581100D01*
X146557758Y-50136861D01*
X146769990Y-50650503D01*
X147116800Y-50997919D01*
X147116800Y-52135000D01*
X119287285Y-52135000D01*
X118413600Y-52135000D01*
X118413600Y-51941483D01*
X118610007Y-51902415D01*
X118716021Y-51858502D01*
X118865949Y-51796400D01*
X119516936Y-51361423D01*
X119582231Y-51296127D01*
X119712823Y-51165536D01*
X120147800Y-50514549D01*
X120209902Y-50364621D01*
X120253815Y-50258607D01*
X120406558Y-49490714D01*
X120406558Y-49213686D01*
X120253815Y-48445793D01*
X120204930Y-48327776D01*
X120147800Y-48189851D01*
X119712823Y-47538864D01*
X119582231Y-47408273D01*
X119516936Y-47342977D01*
X118865949Y-46908000D01*
X118716021Y-46845898D01*
X118610007Y-46801985D01*
X118413600Y-46762917D01*
X118413600Y-41691573D01*
X144324591Y-41691573D01*
X144683123Y-42559286D01*
X145346422Y-43223744D01*
X146213508Y-43583789D01*
X147152373Y-43584609D01*
X148020086Y-43226077D01*
X148684544Y-42562778D01*
X149044589Y-41695692D01*
X149044592Y-41691573D01*
X151944591Y-41691573D01*
X152303123Y-42559286D01*
X152966422Y-43223744D01*
X153833508Y-43583789D01*
X154772373Y-43584609D01*
X155640086Y-43226077D01*
X156304544Y-42562778D01*
X156645205Y-41742373D01*
X159640791Y-41742373D01*
X159999323Y-42610086D01*
X160662622Y-43274544D01*
X161529708Y-43634589D01*
X162468573Y-43635409D01*
X163336286Y-43276877D01*
X164000744Y-42613578D01*
X164360789Y-41746492D01*
X164360792Y-41742373D01*
X167260791Y-41742373D01*
X167619323Y-42610086D01*
X168282622Y-43274544D01*
X169149708Y-43634589D01*
X170088573Y-43635409D01*
X170956286Y-43276877D01*
X171620744Y-42613578D01*
X171980789Y-41746492D01*
X171981609Y-40807627D01*
X171623077Y-39939914D01*
X170959778Y-39275456D01*
X170092692Y-38915411D01*
X169153827Y-38914591D01*
X168286114Y-39273123D01*
X167621656Y-39936422D01*
X167261611Y-40803508D01*
X167260791Y-41742373D01*
X164360792Y-41742373D01*
X164361609Y-40807627D01*
X164003077Y-39939914D01*
X163339778Y-39275456D01*
X162472692Y-38915411D01*
X161533827Y-38914591D01*
X160666114Y-39273123D01*
X160001656Y-39936422D01*
X159641611Y-40803508D01*
X159640791Y-41742373D01*
X156645205Y-41742373D01*
X156664589Y-41695692D01*
X156665409Y-40756827D01*
X156306877Y-39889114D01*
X155643578Y-39224656D01*
X154776492Y-38864611D01*
X153837627Y-38863791D01*
X152969914Y-39222323D01*
X152305456Y-39885622D01*
X151945411Y-40752708D01*
X151944591Y-41691573D01*
X149044592Y-41691573D01*
X149045409Y-40756827D01*
X148686877Y-39889114D01*
X148023578Y-39224656D01*
X147156492Y-38864611D01*
X146217627Y-38863791D01*
X145349914Y-39222323D01*
X144685456Y-39885622D01*
X144325411Y-40752708D01*
X144324591Y-41691573D01*
X118413600Y-41691573D01*
X118413600Y-39211331D01*
X118561885Y-38465851D01*
X118944551Y-37893151D01*
X119517251Y-37510485D01*
X120262731Y-37362200D01*
X223036801Y-37362200D01*
X222231857Y-37694796D01*
M02*
