G04 #@! TF.FileFunction,Copper,L1,Top,Signal*
%FSLAX46Y46*%
G04 Gerber Fmt 4.6, Leading zero omitted, Abs format (unit mm)*
G04 Created by KiCad (PCBNEW 4.0.7) date 04/15/18 20:15:51*
%MOMM*%
%LPD*%
G01*
G04 APERTURE LIST*
%ADD10C,0.100000*%
%ADD11C,0.300000*%
%ADD12C,0.150000*%
%ADD13C,5.080000*%
%ADD14R,1.200000X0.750000*%
%ADD15R,0.750000X1.200000*%
%ADD16R,2.000000X1.700000*%
%ADD17R,1.000000X1.000000*%
%ADD18O,1.000000X1.000000*%
%ADD19R,1.200000X0.900000*%
%ADD20C,1.524000*%
%ADD21R,0.990600X1.778000*%
%ADD22C,0.600000*%
%ADD23C,5.080000*%
%ADD24C,0.406400*%
%ADD25C,0.250000*%
%ADD26C,0.254000*%
G04 APERTURE END LIST*
D10*
D11*
X177369200Y-94958371D02*
X177369200Y-93458371D01*
X177940628Y-93458371D01*
X178083486Y-93529800D01*
X178154914Y-93601229D01*
X178226343Y-93744086D01*
X178226343Y-93958371D01*
X178154914Y-94101229D01*
X178083486Y-94172657D01*
X177940628Y-94244086D01*
X177369200Y-94244086D01*
X179083486Y-94958371D02*
X178940628Y-94886943D01*
X178869200Y-94744086D01*
X178869200Y-93458371D01*
X180226342Y-94886943D02*
X180083485Y-94958371D01*
X179797771Y-94958371D01*
X179654914Y-94886943D01*
X179583485Y-94744086D01*
X179583485Y-94172657D01*
X179654914Y-94029800D01*
X179797771Y-93958371D01*
X180083485Y-93958371D01*
X180226342Y-94029800D01*
X180297771Y-94172657D01*
X180297771Y-94315514D01*
X179583485Y-94458371D01*
X181583485Y-94958371D02*
X181583485Y-94172657D01*
X181512056Y-94029800D01*
X181369199Y-93958371D01*
X181083485Y-93958371D01*
X180940628Y-94029800D01*
X181583485Y-94886943D02*
X181440628Y-94958371D01*
X181083485Y-94958371D01*
X180940628Y-94886943D01*
X180869199Y-94744086D01*
X180869199Y-94601229D01*
X180940628Y-94458371D01*
X181083485Y-94386943D01*
X181440628Y-94386943D01*
X181583485Y-94315514D01*
X182226342Y-94886943D02*
X182369199Y-94958371D01*
X182654914Y-94958371D01*
X182797771Y-94886943D01*
X182869199Y-94744086D01*
X182869199Y-94672657D01*
X182797771Y-94529800D01*
X182654914Y-94458371D01*
X182440628Y-94458371D01*
X182297771Y-94386943D01*
X182226342Y-94244086D01*
X182226342Y-94172657D01*
X182297771Y-94029800D01*
X182440628Y-93958371D01*
X182654914Y-93958371D01*
X182797771Y-94029800D01*
X184083485Y-94886943D02*
X183940628Y-94958371D01*
X183654914Y-94958371D01*
X183512057Y-94886943D01*
X183440628Y-94744086D01*
X183440628Y-94172657D01*
X183512057Y-94029800D01*
X183654914Y-93958371D01*
X183940628Y-93958371D01*
X184083485Y-94029800D01*
X184154914Y-94172657D01*
X184154914Y-94315514D01*
X183440628Y-94458371D01*
X186583485Y-94958371D02*
X186583485Y-93458371D01*
X186583485Y-94886943D02*
X186440628Y-94958371D01*
X186154914Y-94958371D01*
X186012056Y-94886943D01*
X185940628Y-94815514D01*
X185869199Y-94672657D01*
X185869199Y-94244086D01*
X185940628Y-94101229D01*
X186012056Y-94029800D01*
X186154914Y-93958371D01*
X186440628Y-93958371D01*
X186583485Y-94029800D01*
X187512057Y-94958371D02*
X187369199Y-94886943D01*
X187297771Y-94815514D01*
X187226342Y-94672657D01*
X187226342Y-94244086D01*
X187297771Y-94101229D01*
X187369199Y-94029800D01*
X187512057Y-93958371D01*
X187726342Y-93958371D01*
X187869199Y-94029800D01*
X187940628Y-94101229D01*
X188012057Y-94244086D01*
X188012057Y-94672657D01*
X187940628Y-94815514D01*
X187869199Y-94886943D01*
X187726342Y-94958371D01*
X187512057Y-94958371D01*
X189797771Y-94958371D02*
X189797771Y-93458371D01*
X190654914Y-94958371D01*
X190654914Y-93458371D01*
X191654914Y-93458371D02*
X191940628Y-93458371D01*
X192083486Y-93529800D01*
X192226343Y-93672657D01*
X192297771Y-93958371D01*
X192297771Y-94458371D01*
X192226343Y-94744086D01*
X192083486Y-94886943D01*
X191940628Y-94958371D01*
X191654914Y-94958371D01*
X191512057Y-94886943D01*
X191369200Y-94744086D01*
X191297771Y-94458371D01*
X191297771Y-93958371D01*
X191369200Y-93672657D01*
X191512057Y-93529800D01*
X191654914Y-93458371D01*
X192726343Y-93458371D02*
X193583486Y-93458371D01*
X193154915Y-94958371D02*
X193154915Y-93458371D01*
X178262058Y-97508371D02*
X178262058Y-96008371D01*
X178833486Y-96008371D01*
X178976344Y-96079800D01*
X179047772Y-96151229D01*
X179119201Y-96294086D01*
X179119201Y-96508371D01*
X179047772Y-96651229D01*
X178976344Y-96722657D01*
X178833486Y-96794086D01*
X178262058Y-96794086D01*
X180404915Y-96508371D02*
X180404915Y-97508371D01*
X179762058Y-96508371D02*
X179762058Y-97294086D01*
X179833486Y-97436943D01*
X179976344Y-97508371D01*
X180190629Y-97508371D01*
X180333486Y-97436943D01*
X180404915Y-97365514D01*
X180904915Y-96508371D02*
X181476344Y-96508371D01*
X181119201Y-96008371D02*
X181119201Y-97294086D01*
X181190629Y-97436943D01*
X181333487Y-97508371D01*
X181476344Y-97508371D01*
X183333487Y-97508371D02*
X183190629Y-97436943D01*
X183119201Y-97365514D01*
X183047772Y-97222657D01*
X183047772Y-96794086D01*
X183119201Y-96651229D01*
X183190629Y-96579800D01*
X183333487Y-96508371D01*
X183547772Y-96508371D01*
X183690629Y-96579800D01*
X183762058Y-96651229D01*
X183833487Y-96794086D01*
X183833487Y-97222657D01*
X183762058Y-97365514D01*
X183690629Y-97436943D01*
X183547772Y-97508371D01*
X183333487Y-97508371D01*
X184476344Y-96508371D02*
X184476344Y-97508371D01*
X184476344Y-96651229D02*
X184547772Y-96579800D01*
X184690630Y-96508371D01*
X184904915Y-96508371D01*
X185047772Y-96579800D01*
X185119201Y-96722657D01*
X185119201Y-97508371D01*
X187833487Y-97508371D02*
X187333487Y-96794086D01*
X186976344Y-97508371D02*
X186976344Y-96008371D01*
X187547772Y-96008371D01*
X187690630Y-96079800D01*
X187762058Y-96151229D01*
X187833487Y-96294086D01*
X187833487Y-96508371D01*
X187762058Y-96651229D01*
X187690630Y-96722657D01*
X187547772Y-96794086D01*
X186976344Y-96794086D01*
X188690630Y-97508371D02*
X188547772Y-97436943D01*
X188476344Y-97365514D01*
X188404915Y-97222657D01*
X188404915Y-96794086D01*
X188476344Y-96651229D01*
X188547772Y-96579800D01*
X188690630Y-96508371D01*
X188904915Y-96508371D01*
X189047772Y-96579800D01*
X189119201Y-96651229D01*
X189190630Y-96794086D01*
X189190630Y-97222657D01*
X189119201Y-97365514D01*
X189047772Y-97436943D01*
X188904915Y-97508371D01*
X188690630Y-97508371D01*
X189690630Y-96508371D02*
X190047773Y-97508371D01*
X190404915Y-96508371D01*
X191547772Y-97436943D02*
X191404915Y-97508371D01*
X191119201Y-97508371D01*
X190976344Y-97436943D01*
X190904915Y-97294086D01*
X190904915Y-96722657D01*
X190976344Y-96579800D01*
X191119201Y-96508371D01*
X191404915Y-96508371D01*
X191547772Y-96579800D01*
X191619201Y-96722657D01*
X191619201Y-96865514D01*
X190904915Y-97008371D01*
X192262058Y-97508371D02*
X192262058Y-96508371D01*
X192262058Y-96794086D02*
X192333486Y-96651229D01*
X192404915Y-96579800D01*
X192547772Y-96508371D01*
X192690629Y-96508371D01*
D12*
X237047720Y-87044967D02*
G75*
G03X238445040Y-87030560I691200J730687D01*
G01*
X238454317Y-87039787D02*
G75*
G03X236992160Y-87040720I-730637J-691813D01*
G01*
X237979021Y-87040720D02*
G75*
G03X237979021Y-87040720I-260421J0D01*
G01*
X238841280Y-87680800D02*
X236601000Y-87701120D01*
X237744000Y-85745320D02*
X238841280Y-87680800D01*
X236590840Y-87711280D02*
X237744000Y-85745320D01*
D13*
X224028000Y-40388000D03*
X224028000Y-48387000D03*
X224028000Y-56388000D03*
X207364600Y-56794400D03*
X215365600Y-56794400D03*
D14*
X222986600Y-86715600D03*
X224886600Y-86715600D03*
D15*
X214680800Y-82402600D03*
X214680800Y-84302600D03*
X213156800Y-88163400D03*
X213156800Y-86263400D03*
D14*
X222986600Y-82143600D03*
X224886600Y-82143600D03*
D15*
X216204800Y-82402600D03*
X216204800Y-84302600D03*
X217728800Y-88163400D03*
X217728800Y-86263400D03*
D14*
X222986600Y-85191600D03*
X224886600Y-85191600D03*
D15*
X213156800Y-82402600D03*
X213156800Y-84302600D03*
X216204800Y-88163400D03*
X216204800Y-86263400D03*
D14*
X222986600Y-83667600D03*
X224886600Y-83667600D03*
D15*
X217728800Y-82402600D03*
X217728800Y-84302600D03*
X214680800Y-88163400D03*
X214680800Y-86263400D03*
D14*
X222986600Y-88239600D03*
X224886600Y-88239600D03*
D15*
X211632800Y-82402600D03*
X211632800Y-84302600D03*
X211632800Y-88163400D03*
X211632800Y-86263400D03*
D13*
X195403200Y-115468400D03*
X187402200Y-115468400D03*
X187096400Y-56819800D03*
X195097400Y-56819800D03*
X215393000Y-115519200D03*
X207392000Y-115519200D03*
D16*
X217614000Y-95199200D03*
X213614000Y-95199200D03*
D17*
X144856200Y-83997800D03*
D18*
X144856200Y-85267800D03*
D17*
X141681200Y-83997800D03*
D18*
X141681200Y-85267800D03*
D17*
X176860200Y-85344000D03*
D18*
X176860200Y-84074000D03*
D17*
X173685200Y-84023200D03*
D18*
X173685200Y-85293200D03*
D17*
X138480800Y-83972400D03*
D18*
X138480800Y-85242400D03*
D17*
X135305800Y-83972400D03*
D18*
X135305800Y-85242400D03*
D17*
X170510200Y-84023200D03*
D18*
X170510200Y-85293200D03*
D17*
X167335200Y-84023200D03*
D18*
X167335200Y-85293200D03*
D19*
X210708600Y-95224600D03*
X208508600Y-95224600D03*
D20*
X153187400Y-122275600D03*
X150647400Y-122275600D03*
X148107400Y-122275600D03*
X163271200Y-49911000D03*
X165811200Y-49911000D03*
X168351200Y-49911000D03*
X147955000Y-49860200D03*
X150495000Y-49860200D03*
X153035000Y-49860200D03*
X168605200Y-122275600D03*
X166065200Y-122275600D03*
X163525200Y-122275600D03*
X207111600Y-82626200D03*
X207111600Y-85166200D03*
X207111600Y-87706200D03*
D21*
X141833600Y-61709300D03*
X118973600Y-110705900D03*
X121513600Y-110705900D03*
X129133600Y-110705900D03*
X131673600Y-67525900D03*
X126593600Y-110705900D03*
X124053600Y-110705900D03*
X126593600Y-61709300D03*
X121513600Y-67525900D03*
X131673600Y-110705900D03*
X134213600Y-110705900D03*
X121513600Y-61709300D03*
X126593600Y-67525900D03*
X129133600Y-67525900D03*
X141833600Y-67525900D03*
X139293600Y-67525900D03*
X136753600Y-67525900D03*
X134213600Y-67525900D03*
X124053600Y-67525900D03*
X118973600Y-67525900D03*
X139293600Y-61709300D03*
X136753600Y-61709300D03*
X134213600Y-61709300D03*
X131673600Y-61709300D03*
X129133600Y-61709300D03*
X124053600Y-61709300D03*
X118973600Y-61709300D03*
X141833600Y-104889300D03*
X139293600Y-104889300D03*
X136753600Y-104889300D03*
X134213600Y-104889300D03*
X131673600Y-104889300D03*
X129133600Y-104889300D03*
X126593600Y-104889300D03*
X124053600Y-104889300D03*
X121513600Y-104889300D03*
X118973600Y-104889300D03*
X141833600Y-110705900D03*
X139293600Y-110705900D03*
X136753600Y-110705900D03*
X205333600Y-67525900D03*
X202793600Y-67525900D03*
X200253600Y-67525900D03*
X197713600Y-67525900D03*
X195173600Y-67525900D03*
X192633600Y-67525900D03*
X190093600Y-67525900D03*
X187553600Y-67525900D03*
X185013600Y-67525900D03*
X182473600Y-67525900D03*
X205333600Y-61709300D03*
X202793600Y-61709300D03*
X200253600Y-61709300D03*
X197713600Y-61709300D03*
X195173600Y-61709300D03*
X192633600Y-61709300D03*
X190093600Y-61709300D03*
X187553600Y-61709300D03*
X185013600Y-61709300D03*
X182473600Y-61709300D03*
X205333600Y-104889300D03*
X202793600Y-104889300D03*
X200253600Y-104889300D03*
X197713600Y-104889300D03*
X195173600Y-104889300D03*
X192633600Y-104889300D03*
X190093600Y-104889300D03*
X187553600Y-104889300D03*
X185013600Y-104889300D03*
X182473600Y-104889300D03*
X205333600Y-110705900D03*
X202793600Y-110705900D03*
X200253600Y-110705900D03*
X197713600Y-110705900D03*
X195173600Y-110705900D03*
X192633600Y-110705900D03*
X190093600Y-110705900D03*
X187553600Y-110705900D03*
X185013600Y-110705900D03*
X182473600Y-110705900D03*
D13*
X223951800Y-115164600D03*
X223951800Y-123163600D03*
X223951800Y-131164600D03*
D22*
X185013600Y-103200200D03*
X145084800Y-110642400D03*
X208508600Y-106934000D03*
X138074400Y-65176400D03*
X146253200Y-101701600D03*
X135483600Y-64973200D03*
X142773400Y-102971600D03*
X164287200Y-86588600D03*
X164287200Y-106172000D03*
X198628000Y-83134200D03*
X173659800Y-70739000D03*
X140055600Y-102133400D03*
X147955000Y-71424800D03*
X199288400Y-90906600D03*
X171424600Y-106172000D03*
X167970200Y-107518200D03*
D23*
X220132098Y-122936000D02*
X215392000Y-122936000D01*
X215392000Y-122936000D02*
X196088000Y-122936000D01*
X215393000Y-115519200D02*
X215393000Y-119111302D01*
X215392000Y-119112302D02*
X215392000Y-122936000D01*
X215393000Y-119111302D02*
X215392000Y-119112302D01*
X196088000Y-122936000D02*
X195403200Y-122251200D01*
X195403200Y-122251200D02*
X195403200Y-115468400D01*
X223951800Y-123163600D02*
X220359698Y-123163600D01*
X220359698Y-123163600D02*
X220132098Y-122936000D01*
X220308898Y-48260000D02*
X207264000Y-48260000D01*
X207264000Y-48260000D02*
X188722000Y-48260000D01*
X207364600Y-56794400D02*
X207364600Y-53202298D01*
X207264000Y-53101698D02*
X207264000Y-48260000D01*
X207364600Y-53202298D02*
X207264000Y-53101698D01*
X188722000Y-48260000D02*
X187096400Y-49885600D01*
X187096400Y-49885600D02*
X187096400Y-56819800D01*
X224028000Y-48387000D02*
X220435898Y-48387000D01*
X220435898Y-48387000D02*
X220308898Y-48260000D01*
D24*
X222986600Y-82143600D02*
X222986600Y-66675000D01*
X222986600Y-66675000D02*
X229158800Y-60502800D01*
X229158800Y-60502800D02*
X229158800Y-53517800D01*
X229158800Y-53517800D02*
X224028000Y-48387000D01*
X226567999Y-50926999D02*
X224028000Y-48387000D01*
X222986600Y-88239600D02*
X222986600Y-107925600D01*
X222986600Y-107925600D02*
X215393000Y-115519200D01*
X222986600Y-86715600D02*
X222986600Y-88239600D01*
X222986600Y-85191600D02*
X222986600Y-86715600D01*
X222986600Y-83667600D02*
X222986600Y-85191600D01*
X222986600Y-82143600D02*
X222986600Y-83667600D01*
D25*
X222986600Y-82143600D02*
X223211600Y-82143600D01*
D24*
X141833600Y-110705900D02*
X145021300Y-110705900D01*
X145021300Y-110705900D02*
X145084800Y-110642400D01*
X211632800Y-82402600D02*
X207335200Y-82402600D01*
X207335200Y-82402600D02*
X207111600Y-82626200D01*
X213156800Y-82402600D02*
X211632800Y-82402600D01*
X214680800Y-82402600D02*
X213156800Y-82402600D01*
X216204800Y-82402600D02*
X214680800Y-82402600D01*
X217728800Y-82402600D02*
X216204800Y-82402600D01*
X206908400Y-73075800D02*
X206908400Y-64579500D01*
X206908400Y-64579500D02*
X205333600Y-63004700D01*
X205333600Y-63004700D02*
X205333600Y-61709300D01*
X205257400Y-74726800D02*
X206908400Y-73075800D01*
X205257400Y-85852000D02*
X205257400Y-74726800D01*
X207111600Y-87706200D02*
X205257400Y-85852000D01*
X208508600Y-106934000D02*
X208508600Y-106509736D01*
X208508600Y-106509736D02*
X208508600Y-95224600D01*
X144297400Y-47421800D02*
X150469600Y-47421800D01*
X150469600Y-47421800D02*
X165277800Y-47421800D01*
X150495000Y-49860200D02*
X150495000Y-47447200D01*
X150495000Y-47447200D02*
X150469600Y-47421800D01*
X141833600Y-61709300D02*
X141833600Y-49885600D01*
X141833600Y-49885600D02*
X144297400Y-47421800D01*
X165277800Y-47421800D02*
X165811200Y-47955200D01*
X165811200Y-47955200D02*
X165811200Y-49911000D01*
X208508600Y-95224600D02*
X207502200Y-95224600D01*
X207111600Y-88783830D02*
X207111600Y-87706200D01*
X207502200Y-95224600D02*
X207111600Y-94834000D01*
X207111600Y-94834000D02*
X207111600Y-88783830D01*
X211632800Y-88163400D02*
X207568800Y-88163400D01*
X207568800Y-88163400D02*
X207111600Y-87706200D01*
X213156800Y-88163400D02*
X211632800Y-88163400D01*
X214680800Y-88163400D02*
X213156800Y-88163400D01*
X216204800Y-88163400D02*
X214680800Y-88163400D01*
X217728800Y-88163400D02*
X216204800Y-88163400D01*
X213614000Y-95199200D02*
X210734000Y-95199200D01*
X210734000Y-95199200D02*
X210708600Y-95224600D01*
X138049000Y-64300100D02*
X138049000Y-65151000D01*
X138049000Y-65151000D02*
X138074400Y-65176400D01*
X136753600Y-61709300D02*
X136753600Y-63004700D01*
X136753600Y-63004700D02*
X138049000Y-64300100D01*
X144856200Y-85267800D02*
X144856200Y-100304600D01*
X144856200Y-100304600D02*
X146253200Y-101701600D01*
X134213600Y-61709300D02*
X134213600Y-63703200D01*
X134213600Y-63703200D02*
X135483600Y-64973200D01*
X141681200Y-85267800D02*
X141681200Y-101879400D01*
X141681200Y-101879400D02*
X142773400Y-102971600D01*
X164287200Y-106172000D02*
X164287200Y-86588600D01*
X198983600Y-64287400D02*
X198983600Y-82778600D01*
X198983600Y-82778600D02*
X198628000Y-83134200D01*
X199355099Y-63915901D02*
X198983600Y-64287400D01*
X199355099Y-63903201D02*
X199355099Y-63915901D01*
X200253600Y-63004700D02*
X200253600Y-61709300D01*
X199355099Y-63903201D02*
X200253600Y-63004700D01*
X129311400Y-69850000D02*
X172770800Y-69850000D01*
X172770800Y-69850000D02*
X173659800Y-70739000D01*
X129209800Y-69748400D02*
X129311400Y-69850000D01*
X129209800Y-67995800D02*
X129209800Y-69748400D01*
X129133600Y-67525900D02*
X129133600Y-67919600D01*
X129133600Y-67919600D02*
X129209800Y-67995800D01*
X140055600Y-84640800D02*
X140055600Y-102133400D01*
X138480800Y-83972400D02*
X139387200Y-83972400D01*
X139387200Y-83972400D02*
X140055600Y-84640800D01*
X172643800Y-72136000D02*
X172643800Y-84958906D01*
X172643800Y-84958906D02*
X172978094Y-85293200D01*
X172978094Y-85293200D02*
X173685200Y-85293200D01*
X171932600Y-71424800D02*
X172643800Y-72136000D01*
X147955000Y-71424800D02*
X171932600Y-71424800D01*
X138480800Y-83972400D02*
X138480800Y-80899000D01*
X138480800Y-80899000D02*
X147955000Y-71424800D01*
X131724400Y-88620600D02*
X129133600Y-91211400D01*
X129133600Y-91211400D02*
X129133600Y-104889300D01*
X136753600Y-88620600D02*
X131724400Y-88620600D01*
X138480800Y-86893400D02*
X136753600Y-88620600D01*
X138480800Y-85242400D02*
X138480800Y-86893400D01*
X199288400Y-90906600D02*
X199288400Y-110642400D01*
X199288400Y-110642400D02*
X199351900Y-110705900D01*
X199351900Y-110705900D02*
X200253600Y-110705900D01*
X170510200Y-85293200D02*
X170510200Y-105257600D01*
X170510200Y-105257600D02*
X171424600Y-106172000D01*
X162941000Y-114198400D02*
X139852400Y-114198400D01*
X139852400Y-114198400D02*
X136753600Y-111099600D01*
X136753600Y-111099600D02*
X136753600Y-110705900D01*
X166039800Y-111099600D02*
X162941000Y-114198400D01*
X166039800Y-84404200D02*
X166039800Y-111099600D01*
X166116000Y-84328000D02*
X166039800Y-84404200D01*
X166124000Y-84328000D02*
X166116000Y-84328000D01*
X167335200Y-84023200D02*
X166428800Y-84023200D01*
X166428800Y-84023200D02*
X166124000Y-84328000D01*
X167309800Y-86025706D02*
X167309800Y-106857800D01*
X167309800Y-106857800D02*
X167970200Y-107518200D01*
X167335200Y-85293200D02*
X167335200Y-86000306D01*
X167335200Y-86000306D02*
X167309800Y-86025706D01*
X134213600Y-110705900D02*
X134213600Y-111099600D01*
X134213600Y-111099600D02*
X138176000Y-115062000D01*
X138176000Y-115062000D02*
X167538400Y-115062000D01*
X167538400Y-115062000D02*
X169138600Y-113461800D01*
X169138600Y-113461800D02*
X169138600Y-84488400D01*
X169603800Y-84023200D02*
X170510200Y-84023200D01*
X169138600Y-84488400D02*
X169603800Y-84023200D01*
D26*
G36*
X222231857Y-37694796D02*
X221337935Y-38587159D01*
X220853552Y-39753683D01*
X220852450Y-41016776D01*
X221334796Y-42184143D01*
X222227159Y-43078065D01*
X223393683Y-43562448D01*
X224656776Y-43563550D01*
X225824143Y-43081204D01*
X226718065Y-42188841D01*
X227202448Y-41022317D01*
X227203550Y-39759224D01*
X226721204Y-38591857D01*
X225828841Y-37697935D01*
X225020301Y-37362200D01*
X239604469Y-37362200D01*
X240349949Y-37510485D01*
X240922649Y-37893151D01*
X241305315Y-38465851D01*
X241453600Y-39211331D01*
X241453600Y-46762917D01*
X241257193Y-46801985D01*
X241151179Y-46845898D01*
X241001251Y-46908000D01*
X240350264Y-47342977D01*
X240246042Y-47447200D01*
X240154377Y-47538864D01*
X239719400Y-48189851D01*
X239662270Y-48327776D01*
X239613385Y-48445793D01*
X239460642Y-49213686D01*
X239460643Y-49352200D01*
X239460642Y-49490714D01*
X239613385Y-50258607D01*
X239617682Y-50268980D01*
X239719400Y-50514549D01*
X240154377Y-51165536D01*
X240209128Y-51220286D01*
X240350264Y-51361423D01*
X241001251Y-51796400D01*
X241151179Y-51858502D01*
X241257193Y-51902415D01*
X241453600Y-51941483D01*
X241453600Y-87864869D01*
X241336252Y-88454822D01*
X241041679Y-88895682D01*
X240600823Y-89190251D01*
X240010874Y-89307600D01*
X224383600Y-89307600D01*
X224111895Y-89361646D01*
X223881554Y-89515554D01*
X223824800Y-89600493D01*
X223824800Y-89215907D01*
X224038041Y-89078690D01*
X224183031Y-88866490D01*
X224234040Y-88614600D01*
X224234040Y-87864600D01*
X224189762Y-87629283D01*
X224179776Y-87613764D01*
X235887569Y-87613764D01*
X235892587Y-87699341D01*
X235891029Y-87707560D01*
X235893867Y-87721181D01*
X235903784Y-87890317D01*
X236024598Y-88139614D01*
X236231617Y-88323700D01*
X236493324Y-88414551D01*
X236594419Y-88408624D01*
X236607440Y-88411091D01*
X238847719Y-88390771D01*
X238887700Y-88382441D01*
X238928424Y-88385431D01*
X239022210Y-88354414D01*
X239118923Y-88334263D01*
X239152671Y-88311268D01*
X239191441Y-88298446D01*
X239266215Y-88233902D01*
X239347859Y-88178272D01*
X239370240Y-88144109D01*
X239401149Y-88117429D01*
X239445535Y-88029178D01*
X239499671Y-87946544D01*
X239507274Y-87906425D01*
X239525624Y-87869940D01*
X239532858Y-87771417D01*
X239551251Y-87674360D01*
X239542921Y-87634380D01*
X239545911Y-87593655D01*
X239514894Y-87499868D01*
X239494743Y-87403157D01*
X239471749Y-87369410D01*
X239458926Y-87330638D01*
X238361646Y-85395158D01*
X238330817Y-85359442D01*
X238310242Y-85316987D01*
X238241094Y-85255499D01*
X238180629Y-85185450D01*
X238138479Y-85164251D01*
X238103223Y-85132900D01*
X238015811Y-85102555D01*
X237933140Y-85060976D01*
X237886084Y-85057521D01*
X237841516Y-85042049D01*
X237749140Y-85047465D01*
X237656856Y-85040689D01*
X237612065Y-85055502D01*
X237564962Y-85058264D01*
X237481690Y-85098620D01*
X237393838Y-85127674D01*
X237358121Y-85158504D01*
X237315666Y-85179079D01*
X237254179Y-85248226D01*
X237184130Y-85308691D01*
X237162931Y-85350841D01*
X237131580Y-85386097D01*
X235978420Y-87352057D01*
X235957259Y-87413014D01*
X235942609Y-87435376D01*
X235934330Y-87479063D01*
X235887569Y-87613764D01*
X224179776Y-87613764D01*
X224091457Y-87476513D01*
X224183031Y-87342490D01*
X224234040Y-87090600D01*
X224234040Y-86340600D01*
X224189762Y-86105283D01*
X224091457Y-85952513D01*
X224183031Y-85818490D01*
X224234040Y-85566600D01*
X224234040Y-84816600D01*
X224189762Y-84581283D01*
X224091457Y-84428513D01*
X224183031Y-84294490D01*
X224234040Y-84042600D01*
X224234040Y-83292600D01*
X224189762Y-83057283D01*
X224091457Y-82904513D01*
X224183031Y-82770490D01*
X224234040Y-82518600D01*
X224234040Y-81768600D01*
X224189762Y-81533283D01*
X224050690Y-81317159D01*
X223838490Y-81172169D01*
X223824800Y-81169397D01*
X223824800Y-67022194D01*
X229751497Y-61095497D01*
X229933196Y-60823566D01*
X229997000Y-60502800D01*
X229997000Y-53517800D01*
X229933196Y-53197035D01*
X229933196Y-53197034D01*
X229751497Y-52925103D01*
X226804963Y-49978569D01*
X227202448Y-49021317D01*
X227203550Y-47758224D01*
X226721204Y-46590857D01*
X225828841Y-45696935D01*
X224662317Y-45212552D01*
X223399224Y-45211450D01*
X223397893Y-45212000D01*
X220947371Y-45212000D01*
X220308898Y-45085000D01*
X188722000Y-45085000D01*
X187506980Y-45326682D01*
X186476936Y-46014936D01*
X184851336Y-47640536D01*
X184163082Y-48670580D01*
X183921400Y-49885600D01*
X183921400Y-56818176D01*
X183920850Y-57448576D01*
X184403196Y-58615943D01*
X185295559Y-59509865D01*
X186462083Y-59994248D01*
X187725176Y-59995350D01*
X188892543Y-59513004D01*
X189786465Y-58620641D01*
X190270848Y-57454117D01*
X190271950Y-56191024D01*
X190271400Y-56189693D01*
X190271400Y-51435000D01*
X204089000Y-51435000D01*
X204089000Y-53101698D01*
X204189600Y-53607449D01*
X204189600Y-56792776D01*
X204189050Y-57423176D01*
X204671396Y-58590543D01*
X205563759Y-59484465D01*
X206730283Y-59968848D01*
X207993376Y-59969950D01*
X209160743Y-59487604D01*
X210054665Y-58595241D01*
X210539048Y-57428717D01*
X210540150Y-56165624D01*
X210539600Y-56164293D01*
X210539600Y-53202298D01*
X210439000Y-52696547D01*
X210439000Y-51435000D01*
X219797425Y-51435000D01*
X220435898Y-51562000D01*
X224026376Y-51562000D01*
X224656776Y-51562550D01*
X225620113Y-51164507D01*
X228320600Y-53864994D01*
X228320600Y-60155606D01*
X222393903Y-66082303D01*
X222212204Y-66354234D01*
X222212204Y-66354235D01*
X222148400Y-66675000D01*
X222148400Y-81167293D01*
X221935159Y-81304510D01*
X221790169Y-81516710D01*
X221739160Y-81768600D01*
X221739160Y-82518600D01*
X221783438Y-82753917D01*
X221881743Y-82906687D01*
X221790169Y-83040710D01*
X221739160Y-83292600D01*
X221739160Y-84042600D01*
X221783438Y-84277917D01*
X221881743Y-84430687D01*
X221790169Y-84564710D01*
X221739160Y-84816600D01*
X221739160Y-85566600D01*
X221783438Y-85801917D01*
X221881743Y-85954687D01*
X221790169Y-86088710D01*
X221739160Y-86340600D01*
X221739160Y-87090600D01*
X221783438Y-87325917D01*
X221881743Y-87478687D01*
X221790169Y-87612710D01*
X221739160Y-87864600D01*
X221739160Y-88614600D01*
X221783438Y-88849917D01*
X221922510Y-89066041D01*
X222134710Y-89211031D01*
X222148400Y-89213803D01*
X222148400Y-107578406D01*
X216984569Y-112742237D01*
X216027317Y-112344752D01*
X214764224Y-112343650D01*
X213596857Y-112825996D01*
X212702935Y-113718359D01*
X212218552Y-114884883D01*
X212217450Y-116147976D01*
X212218000Y-116149307D01*
X212218000Y-119107275D01*
X212217000Y-119112302D01*
X212217000Y-119761000D01*
X198578200Y-119761000D01*
X198578200Y-115470024D01*
X198578750Y-114839624D01*
X198096404Y-113672257D01*
X197204041Y-112778335D01*
X196037517Y-112293952D01*
X194774424Y-112292850D01*
X193607057Y-112775196D01*
X192713135Y-113667559D01*
X192228752Y-114834083D01*
X192227650Y-116097176D01*
X192228200Y-116098507D01*
X192228200Y-122251200D01*
X192469882Y-123466220D01*
X193158136Y-124496264D01*
X193842936Y-125181064D01*
X194872980Y-125869318D01*
X196088000Y-126111000D01*
X219215473Y-126111000D01*
X220359698Y-126338600D01*
X223950176Y-126338600D01*
X224580576Y-126339150D01*
X225747943Y-125856804D01*
X226641865Y-124964441D01*
X227126248Y-123797917D01*
X227127350Y-122534824D01*
X226645004Y-121367457D01*
X225752641Y-120473535D01*
X224586117Y-119989152D01*
X223323024Y-119988050D01*
X223321693Y-119988600D01*
X221276323Y-119988600D01*
X220132098Y-119761000D01*
X218567000Y-119761000D01*
X218567000Y-119116329D01*
X218568000Y-119111302D01*
X218568000Y-115793376D01*
X220776250Y-115793376D01*
X221258596Y-116960743D01*
X222150959Y-117854665D01*
X223317483Y-118339048D01*
X224580576Y-118340150D01*
X225747943Y-117857804D01*
X226641865Y-116965441D01*
X227126248Y-115798917D01*
X227127350Y-114535824D01*
X226645004Y-113368457D01*
X225752641Y-112474535D01*
X224586117Y-111990152D01*
X223323024Y-111989050D01*
X222155657Y-112471396D01*
X221261735Y-113363759D01*
X220777352Y-114530283D01*
X220776250Y-115793376D01*
X218568000Y-115793376D01*
X218568000Y-115520824D01*
X218568550Y-114890424D01*
X218170507Y-113927087D01*
X223579297Y-108518297D01*
X223673600Y-108377163D01*
X223673600Y-110871000D01*
X223727646Y-111142705D01*
X223881554Y-111373046D01*
X224111895Y-111526954D01*
X224383600Y-111581000D01*
X240087069Y-111581000D01*
X240647865Y-111692549D01*
X241063998Y-111970602D01*
X241342051Y-112386735D01*
X241453600Y-112947531D01*
X241453600Y-120499117D01*
X241257193Y-120538185D01*
X241185214Y-120568000D01*
X241001251Y-120644200D01*
X240350264Y-121079177D01*
X240230578Y-121198864D01*
X240154377Y-121275064D01*
X239719400Y-121926051D01*
X239689209Y-121998939D01*
X239613385Y-122181993D01*
X239460642Y-122949886D01*
X239460643Y-123088400D01*
X239460642Y-123226914D01*
X239613385Y-123994807D01*
X239657298Y-124100821D01*
X239719400Y-124250749D01*
X240154377Y-124901736D01*
X240209128Y-124956486D01*
X240350264Y-125097623D01*
X241001251Y-125532600D01*
X241151179Y-125594702D01*
X241257193Y-125638615D01*
X241451776Y-125677320D01*
X241428418Y-133151973D01*
X241279915Y-133898549D01*
X240897249Y-134471249D01*
X240324549Y-134853915D01*
X239579069Y-135002200D01*
X120262731Y-135002200D01*
X119517251Y-134853915D01*
X118944551Y-134471249D01*
X118561885Y-133898549D01*
X118413600Y-133153069D01*
X118413600Y-131378973D01*
X144476991Y-131378973D01*
X144835523Y-132246686D01*
X145498822Y-132911144D01*
X146365908Y-133271189D01*
X147304773Y-133272009D01*
X148172486Y-132913477D01*
X148836944Y-132250178D01*
X149196989Y-131383092D01*
X149196992Y-131378973D01*
X152096991Y-131378973D01*
X152455523Y-132246686D01*
X153118822Y-132911144D01*
X153985908Y-133271189D01*
X154924773Y-133272009D01*
X155792486Y-132913477D01*
X156456944Y-132250178D01*
X156816989Y-131383092D01*
X156816992Y-131378973D01*
X159894791Y-131378973D01*
X160253323Y-132246686D01*
X160916622Y-132911144D01*
X161783708Y-133271189D01*
X162722573Y-133272009D01*
X163590286Y-132913477D01*
X164254744Y-132250178D01*
X164614789Y-131383092D01*
X164614792Y-131378973D01*
X167514791Y-131378973D01*
X167873323Y-132246686D01*
X168536622Y-132911144D01*
X169403708Y-133271189D01*
X170342573Y-133272009D01*
X171210286Y-132913477D01*
X171874744Y-132250178D01*
X172234789Y-131383092D01*
X172235609Y-130444227D01*
X171877077Y-129576514D01*
X171213778Y-128912056D01*
X170346692Y-128552011D01*
X169407827Y-128551191D01*
X168540114Y-128909723D01*
X167875656Y-129573022D01*
X167515611Y-130440108D01*
X167514791Y-131378973D01*
X164614792Y-131378973D01*
X164615609Y-130444227D01*
X164257077Y-129576514D01*
X163593778Y-128912056D01*
X162726692Y-128552011D01*
X161787827Y-128551191D01*
X160920114Y-128909723D01*
X160255656Y-129573022D01*
X159895611Y-130440108D01*
X159894791Y-131378973D01*
X156816992Y-131378973D01*
X156817809Y-130444227D01*
X156459277Y-129576514D01*
X155795978Y-128912056D01*
X154928892Y-128552011D01*
X153990027Y-128551191D01*
X153122314Y-128909723D01*
X152457856Y-129573022D01*
X152097811Y-130440108D01*
X152096991Y-131378973D01*
X149196992Y-131378973D01*
X149197809Y-130444227D01*
X148839277Y-129576514D01*
X148175978Y-128912056D01*
X147308892Y-128552011D01*
X146370027Y-128551191D01*
X145502314Y-128909723D01*
X144837856Y-129573022D01*
X144477811Y-130440108D01*
X144476991Y-131378973D01*
X118413600Y-131378973D01*
X118413600Y-125601483D01*
X118610007Y-125562415D01*
X118716021Y-125518502D01*
X118865949Y-125456400D01*
X119516936Y-125021423D01*
X119582231Y-124956127D01*
X119712823Y-124825536D01*
X120147800Y-124174549D01*
X120222251Y-123994808D01*
X120253815Y-123918607D01*
X120406558Y-123150714D01*
X120406558Y-122873686D01*
X120342623Y-122552261D01*
X149250158Y-122552261D01*
X149462390Y-123065903D01*
X149855030Y-123459229D01*
X150368300Y-123672357D01*
X150924061Y-123672842D01*
X151437703Y-123460610D01*
X151831029Y-123067970D01*
X151917349Y-122860088D01*
X152002390Y-123065903D01*
X152395030Y-123459229D01*
X152908300Y-123672357D01*
X153464061Y-123672842D01*
X153977703Y-123460610D01*
X154371029Y-123067970D01*
X154584157Y-122554700D01*
X154584159Y-122552261D01*
X164667958Y-122552261D01*
X164880190Y-123065903D01*
X165272830Y-123459229D01*
X165786100Y-123672357D01*
X166341861Y-123672842D01*
X166855503Y-123460610D01*
X167248829Y-123067970D01*
X167335149Y-122860088D01*
X167420190Y-123065903D01*
X167812830Y-123459229D01*
X168326100Y-123672357D01*
X168881861Y-123672842D01*
X169395503Y-123460610D01*
X169788829Y-123067970D01*
X170001957Y-122554700D01*
X170002442Y-121998939D01*
X169790210Y-121485297D01*
X169397570Y-121091971D01*
X168884300Y-120878843D01*
X168328539Y-120878358D01*
X167814897Y-121090590D01*
X167421571Y-121483230D01*
X167335251Y-121691112D01*
X167250210Y-121485297D01*
X166857570Y-121091971D01*
X166344300Y-120878843D01*
X165788539Y-120878358D01*
X165274897Y-121090590D01*
X164881571Y-121483230D01*
X164668443Y-121996500D01*
X164667958Y-122552261D01*
X154584159Y-122552261D01*
X154584642Y-121998939D01*
X154372410Y-121485297D01*
X153979770Y-121091971D01*
X153466500Y-120878843D01*
X152910739Y-120878358D01*
X152397097Y-121090590D01*
X152003771Y-121483230D01*
X151917451Y-121691112D01*
X151832410Y-121485297D01*
X151439770Y-121091971D01*
X150926500Y-120878843D01*
X150370739Y-120878358D01*
X149857097Y-121090590D01*
X149463771Y-121483230D01*
X149250643Y-121996500D01*
X149250158Y-122552261D01*
X120342623Y-122552261D01*
X120253815Y-122105793D01*
X120181372Y-121930901D01*
X120147800Y-121849851D01*
X119712823Y-121198864D01*
X119582231Y-121068273D01*
X119516936Y-121002977D01*
X118865949Y-120568000D01*
X118716021Y-120505898D01*
X118610007Y-120461985D01*
X118413600Y-120422917D01*
X118413600Y-112229238D01*
X118478300Y-112242340D01*
X119468900Y-112242340D01*
X119704217Y-112198062D01*
X119920341Y-112058990D01*
X120065331Y-111846790D01*
X120116340Y-111594900D01*
X120116340Y-109816900D01*
X120370860Y-109816900D01*
X120370860Y-111594900D01*
X120415138Y-111830217D01*
X120554210Y-112046341D01*
X120766410Y-112191331D01*
X121018300Y-112242340D01*
X122008900Y-112242340D01*
X122244217Y-112198062D01*
X122460341Y-112058990D01*
X122605331Y-111846790D01*
X122656340Y-111594900D01*
X122656340Y-109816900D01*
X122910860Y-109816900D01*
X122910860Y-111594900D01*
X122955138Y-111830217D01*
X123094210Y-112046341D01*
X123306410Y-112191331D01*
X123558300Y-112242340D01*
X124548900Y-112242340D01*
X124784217Y-112198062D01*
X125000341Y-112058990D01*
X125145331Y-111846790D01*
X125196340Y-111594900D01*
X125196340Y-109816900D01*
X125450860Y-109816900D01*
X125450860Y-111594900D01*
X125495138Y-111830217D01*
X125634210Y-112046341D01*
X125846410Y-112191331D01*
X126098300Y-112242340D01*
X127088900Y-112242340D01*
X127324217Y-112198062D01*
X127540341Y-112058990D01*
X127685331Y-111846790D01*
X127736340Y-111594900D01*
X127736340Y-109816900D01*
X127990860Y-109816900D01*
X127990860Y-111594900D01*
X128035138Y-111830217D01*
X128174210Y-112046341D01*
X128386410Y-112191331D01*
X128638300Y-112242340D01*
X129628900Y-112242340D01*
X129864217Y-112198062D01*
X130080341Y-112058990D01*
X130225331Y-111846790D01*
X130276340Y-111594900D01*
X130276340Y-109816900D01*
X130530860Y-109816900D01*
X130530860Y-111594900D01*
X130575138Y-111830217D01*
X130714210Y-112046341D01*
X130926410Y-112191331D01*
X131178300Y-112242340D01*
X132168900Y-112242340D01*
X132404217Y-112198062D01*
X132620341Y-112058990D01*
X132765331Y-111846790D01*
X132816340Y-111594900D01*
X132816340Y-109816900D01*
X133070860Y-109816900D01*
X133070860Y-111594900D01*
X133115138Y-111830217D01*
X133254210Y-112046341D01*
X133466410Y-112191331D01*
X133718300Y-112242340D01*
X134170946Y-112242340D01*
X137583303Y-115654697D01*
X137855235Y-115836396D01*
X138176000Y-115900200D01*
X167538400Y-115900200D01*
X167859166Y-115836396D01*
X168131097Y-115654697D01*
X169731297Y-114054497D01*
X169912996Y-113782565D01*
X169976800Y-113461800D01*
X169976800Y-109816900D01*
X181330860Y-109816900D01*
X181330860Y-111594900D01*
X181375138Y-111830217D01*
X181514210Y-112046341D01*
X181726410Y-112191331D01*
X181978300Y-112242340D01*
X182968900Y-112242340D01*
X183204217Y-112198062D01*
X183420341Y-112058990D01*
X183565331Y-111846790D01*
X183616340Y-111594900D01*
X183616340Y-109816900D01*
X183870860Y-109816900D01*
X183870860Y-111594900D01*
X183915138Y-111830217D01*
X184054210Y-112046341D01*
X184266410Y-112191331D01*
X184518300Y-112242340D01*
X185508900Y-112242340D01*
X185744217Y-112198062D01*
X185960341Y-112058990D01*
X186105331Y-111846790D01*
X186156340Y-111594900D01*
X186156340Y-109816900D01*
X186410860Y-109816900D01*
X186410860Y-111594900D01*
X186455138Y-111830217D01*
X186594210Y-112046341D01*
X186806410Y-112191331D01*
X187058300Y-112242340D01*
X188048900Y-112242340D01*
X188284217Y-112198062D01*
X188500341Y-112058990D01*
X188645331Y-111846790D01*
X188696340Y-111594900D01*
X188696340Y-109816900D01*
X188950860Y-109816900D01*
X188950860Y-111594900D01*
X188995138Y-111830217D01*
X189134210Y-112046341D01*
X189346410Y-112191331D01*
X189598300Y-112242340D01*
X190588900Y-112242340D01*
X190824217Y-112198062D01*
X191040341Y-112058990D01*
X191185331Y-111846790D01*
X191236340Y-111594900D01*
X191236340Y-109816900D01*
X191490860Y-109816900D01*
X191490860Y-111594900D01*
X191535138Y-111830217D01*
X191674210Y-112046341D01*
X191886410Y-112191331D01*
X192138300Y-112242340D01*
X193128900Y-112242340D01*
X193364217Y-112198062D01*
X193580341Y-112058990D01*
X193725331Y-111846790D01*
X193776340Y-111594900D01*
X193776340Y-109816900D01*
X194030860Y-109816900D01*
X194030860Y-111594900D01*
X194075138Y-111830217D01*
X194214210Y-112046341D01*
X194426410Y-112191331D01*
X194678300Y-112242340D01*
X195668900Y-112242340D01*
X195904217Y-112198062D01*
X196120341Y-112058990D01*
X196265331Y-111846790D01*
X196316340Y-111594900D01*
X196316340Y-109816900D01*
X196272062Y-109581583D01*
X196132990Y-109365459D01*
X195920790Y-109220469D01*
X195668900Y-109169460D01*
X194678300Y-109169460D01*
X194442983Y-109213738D01*
X194226859Y-109352810D01*
X194081869Y-109565010D01*
X194030860Y-109816900D01*
X193776340Y-109816900D01*
X193732062Y-109581583D01*
X193592990Y-109365459D01*
X193380790Y-109220469D01*
X193128900Y-109169460D01*
X192138300Y-109169460D01*
X191902983Y-109213738D01*
X191686859Y-109352810D01*
X191541869Y-109565010D01*
X191490860Y-109816900D01*
X191236340Y-109816900D01*
X191192062Y-109581583D01*
X191052990Y-109365459D01*
X190840790Y-109220469D01*
X190588900Y-109169460D01*
X189598300Y-109169460D01*
X189362983Y-109213738D01*
X189146859Y-109352810D01*
X189001869Y-109565010D01*
X188950860Y-109816900D01*
X188696340Y-109816900D01*
X188652062Y-109581583D01*
X188512990Y-109365459D01*
X188300790Y-109220469D01*
X188048900Y-109169460D01*
X187058300Y-109169460D01*
X186822983Y-109213738D01*
X186606859Y-109352810D01*
X186461869Y-109565010D01*
X186410860Y-109816900D01*
X186156340Y-109816900D01*
X186112062Y-109581583D01*
X185972990Y-109365459D01*
X185760790Y-109220469D01*
X185508900Y-109169460D01*
X184518300Y-109169460D01*
X184282983Y-109213738D01*
X184066859Y-109352810D01*
X183921869Y-109565010D01*
X183870860Y-109816900D01*
X183616340Y-109816900D01*
X183572062Y-109581583D01*
X183432990Y-109365459D01*
X183220790Y-109220469D01*
X182968900Y-109169460D01*
X181978300Y-109169460D01*
X181742983Y-109213738D01*
X181526859Y-109352810D01*
X181381869Y-109565010D01*
X181330860Y-109816900D01*
X169976800Y-109816900D01*
X169976800Y-105909594D01*
X170535252Y-106468046D01*
X170631483Y-106700943D01*
X170894273Y-106964192D01*
X171237801Y-107106838D01*
X171609767Y-107107162D01*
X171953543Y-106965117D01*
X172216792Y-106702327D01*
X172359438Y-106358799D01*
X172359762Y-105986833D01*
X172217717Y-105643057D01*
X171954927Y-105379808D01*
X171720430Y-105282436D01*
X171348400Y-104910406D01*
X171348400Y-104000300D01*
X181330860Y-104000300D01*
X181330860Y-105778300D01*
X181375138Y-106013617D01*
X181514210Y-106229741D01*
X181726410Y-106374731D01*
X181978300Y-106425740D01*
X182968900Y-106425740D01*
X183204217Y-106381462D01*
X183420341Y-106242390D01*
X183565331Y-106030190D01*
X183616340Y-105778300D01*
X183616340Y-104000300D01*
X183870860Y-104000300D01*
X183870860Y-105778300D01*
X183915138Y-106013617D01*
X184054210Y-106229741D01*
X184266410Y-106374731D01*
X184518300Y-106425740D01*
X185508900Y-106425740D01*
X185744217Y-106381462D01*
X185960341Y-106242390D01*
X186105331Y-106030190D01*
X186156340Y-105778300D01*
X186156340Y-104000300D01*
X186410860Y-104000300D01*
X186410860Y-105778300D01*
X186455138Y-106013617D01*
X186594210Y-106229741D01*
X186806410Y-106374731D01*
X187058300Y-106425740D01*
X188048900Y-106425740D01*
X188284217Y-106381462D01*
X188500341Y-106242390D01*
X188645331Y-106030190D01*
X188696340Y-105778300D01*
X188696340Y-104000300D01*
X188950860Y-104000300D01*
X188950860Y-105778300D01*
X188995138Y-106013617D01*
X189134210Y-106229741D01*
X189346410Y-106374731D01*
X189598300Y-106425740D01*
X190588900Y-106425740D01*
X190824217Y-106381462D01*
X191040341Y-106242390D01*
X191185331Y-106030190D01*
X191236340Y-105778300D01*
X191236340Y-104000300D01*
X191490860Y-104000300D01*
X191490860Y-105778300D01*
X191535138Y-106013617D01*
X191674210Y-106229741D01*
X191886410Y-106374731D01*
X192138300Y-106425740D01*
X193128900Y-106425740D01*
X193364217Y-106381462D01*
X193580341Y-106242390D01*
X193725331Y-106030190D01*
X193776340Y-105778300D01*
X193776340Y-104000300D01*
X194030860Y-104000300D01*
X194030860Y-105778300D01*
X194075138Y-106013617D01*
X194214210Y-106229741D01*
X194426410Y-106374731D01*
X194678300Y-106425740D01*
X195668900Y-106425740D01*
X195904217Y-106381462D01*
X196120341Y-106242390D01*
X196265331Y-106030190D01*
X196316340Y-105778300D01*
X196316340Y-104000300D01*
X196570860Y-104000300D01*
X196570860Y-105778300D01*
X196615138Y-106013617D01*
X196754210Y-106229741D01*
X196966410Y-106374731D01*
X197218300Y-106425740D01*
X198208900Y-106425740D01*
X198444217Y-106381462D01*
X198450200Y-106377612D01*
X198450200Y-109218324D01*
X198208900Y-109169460D01*
X197218300Y-109169460D01*
X196982983Y-109213738D01*
X196766859Y-109352810D01*
X196621869Y-109565010D01*
X196570860Y-109816900D01*
X196570860Y-111594900D01*
X196615138Y-111830217D01*
X196754210Y-112046341D01*
X196966410Y-112191331D01*
X197218300Y-112242340D01*
X198208900Y-112242340D01*
X198444217Y-112198062D01*
X198660341Y-112058990D01*
X198805331Y-111846790D01*
X198856340Y-111594900D01*
X198856340Y-111363502D01*
X199031135Y-111480296D01*
X199110860Y-111496154D01*
X199110860Y-111594900D01*
X199155138Y-111830217D01*
X199294210Y-112046341D01*
X199506410Y-112191331D01*
X199758300Y-112242340D01*
X200748900Y-112242340D01*
X200984217Y-112198062D01*
X201200341Y-112058990D01*
X201345331Y-111846790D01*
X201396340Y-111594900D01*
X201396340Y-109816900D01*
X201650860Y-109816900D01*
X201650860Y-111594900D01*
X201695138Y-111830217D01*
X201834210Y-112046341D01*
X202046410Y-112191331D01*
X202298300Y-112242340D01*
X203288900Y-112242340D01*
X203524217Y-112198062D01*
X203740341Y-112058990D01*
X203885331Y-111846790D01*
X203936340Y-111594900D01*
X203936340Y-109816900D01*
X203892062Y-109581583D01*
X203752990Y-109365459D01*
X203540790Y-109220469D01*
X203288900Y-109169460D01*
X202298300Y-109169460D01*
X202062983Y-109213738D01*
X201846859Y-109352810D01*
X201701869Y-109565010D01*
X201650860Y-109816900D01*
X201396340Y-109816900D01*
X201352062Y-109581583D01*
X201212990Y-109365459D01*
X201000790Y-109220469D01*
X200748900Y-109169460D01*
X200126600Y-109169460D01*
X200126600Y-106425740D01*
X200748900Y-106425740D01*
X200984217Y-106381462D01*
X201200341Y-106242390D01*
X201345331Y-106030190D01*
X201396340Y-105778300D01*
X201396340Y-104000300D01*
X201650860Y-104000300D01*
X201650860Y-105778300D01*
X201695138Y-106013617D01*
X201834210Y-106229741D01*
X202046410Y-106374731D01*
X202298300Y-106425740D01*
X203288900Y-106425740D01*
X203524217Y-106381462D01*
X203740341Y-106242390D01*
X203885331Y-106030190D01*
X203936340Y-105778300D01*
X203936340Y-104000300D01*
X204190860Y-104000300D01*
X204190860Y-105778300D01*
X204235138Y-106013617D01*
X204374210Y-106229741D01*
X204586410Y-106374731D01*
X204838300Y-106425740D01*
X205828900Y-106425740D01*
X206064217Y-106381462D01*
X206280341Y-106242390D01*
X206425331Y-106030190D01*
X206476340Y-105778300D01*
X206476340Y-104000300D01*
X206432062Y-103764983D01*
X206292990Y-103548859D01*
X206080790Y-103403869D01*
X205828900Y-103352860D01*
X204838300Y-103352860D01*
X204602983Y-103397138D01*
X204386859Y-103536210D01*
X204241869Y-103748410D01*
X204190860Y-104000300D01*
X203936340Y-104000300D01*
X203892062Y-103764983D01*
X203752990Y-103548859D01*
X203540790Y-103403869D01*
X203288900Y-103352860D01*
X202298300Y-103352860D01*
X202062983Y-103397138D01*
X201846859Y-103536210D01*
X201701869Y-103748410D01*
X201650860Y-104000300D01*
X201396340Y-104000300D01*
X201352062Y-103764983D01*
X201212990Y-103548859D01*
X201000790Y-103403869D01*
X200748900Y-103352860D01*
X200126600Y-103352860D01*
X200126600Y-91326128D01*
X200223238Y-91093399D01*
X200223562Y-90721433D01*
X200081517Y-90377657D01*
X199818727Y-90114408D01*
X199475199Y-89971762D01*
X199103233Y-89971438D01*
X198759457Y-90113483D01*
X198496208Y-90376273D01*
X198353562Y-90719801D01*
X198353238Y-91091767D01*
X198450200Y-91326434D01*
X198450200Y-103401724D01*
X198208900Y-103352860D01*
X197218300Y-103352860D01*
X196982983Y-103397138D01*
X196766859Y-103536210D01*
X196621869Y-103748410D01*
X196570860Y-104000300D01*
X196316340Y-104000300D01*
X196272062Y-103764983D01*
X196132990Y-103548859D01*
X195920790Y-103403869D01*
X195668900Y-103352860D01*
X194678300Y-103352860D01*
X194442983Y-103397138D01*
X194226859Y-103536210D01*
X194081869Y-103748410D01*
X194030860Y-104000300D01*
X193776340Y-104000300D01*
X193732062Y-103764983D01*
X193592990Y-103548859D01*
X193380790Y-103403869D01*
X193128900Y-103352860D01*
X192138300Y-103352860D01*
X191902983Y-103397138D01*
X191686859Y-103536210D01*
X191541869Y-103748410D01*
X191490860Y-104000300D01*
X191236340Y-104000300D01*
X191192062Y-103764983D01*
X191052990Y-103548859D01*
X190840790Y-103403869D01*
X190588900Y-103352860D01*
X189598300Y-103352860D01*
X189362983Y-103397138D01*
X189146859Y-103536210D01*
X189001869Y-103748410D01*
X188950860Y-104000300D01*
X188696340Y-104000300D01*
X188652062Y-103764983D01*
X188512990Y-103548859D01*
X188300790Y-103403869D01*
X188048900Y-103352860D01*
X187058300Y-103352860D01*
X186822983Y-103397138D01*
X186606859Y-103536210D01*
X186461869Y-103748410D01*
X186410860Y-104000300D01*
X186156340Y-104000300D01*
X186112062Y-103764983D01*
X185972990Y-103548859D01*
X185760790Y-103403869D01*
X185508900Y-103352860D01*
X184518300Y-103352860D01*
X184282983Y-103397138D01*
X184066859Y-103536210D01*
X183921869Y-103748410D01*
X183870860Y-104000300D01*
X183616340Y-104000300D01*
X183572062Y-103764983D01*
X183432990Y-103548859D01*
X183220790Y-103403869D01*
X182968900Y-103352860D01*
X181978300Y-103352860D01*
X181742983Y-103397138D01*
X181526859Y-103536210D01*
X181381869Y-103748410D01*
X181330860Y-104000300D01*
X171348400Y-104000300D01*
X171348400Y-92444800D01*
X176377057Y-92444800D01*
X176377057Y-98814800D01*
X194361343Y-98814800D01*
X194361343Y-92444800D01*
X176377057Y-92444800D01*
X171348400Y-92444800D01*
X171348400Y-86075714D01*
X171581039Y-85727546D01*
X171667436Y-85293200D01*
X171581039Y-84858854D01*
X171565395Y-84835441D01*
X171606631Y-84775090D01*
X171657640Y-84523200D01*
X171657640Y-83523200D01*
X171613362Y-83287883D01*
X171474290Y-83071759D01*
X171262090Y-82926769D01*
X171010200Y-82875760D01*
X170010200Y-82875760D01*
X169774883Y-82920038D01*
X169558759Y-83059110D01*
X169452128Y-83215169D01*
X169283034Y-83248804D01*
X169011103Y-83430503D01*
X168545903Y-83895703D01*
X168482640Y-83990383D01*
X168482640Y-83523200D01*
X168438362Y-83287883D01*
X168299290Y-83071759D01*
X168087090Y-82926769D01*
X167835200Y-82875760D01*
X166835200Y-82875760D01*
X166599883Y-82920038D01*
X166383759Y-83059110D01*
X166277128Y-83215169D01*
X166108034Y-83248804D01*
X165836103Y-83430503D01*
X165547412Y-83719194D01*
X165523303Y-83735303D01*
X165447103Y-83811503D01*
X165265404Y-84083434D01*
X165248352Y-84169160D01*
X165201600Y-84404200D01*
X165201600Y-86353185D01*
X165080317Y-86059657D01*
X164817527Y-85796408D01*
X164473999Y-85653762D01*
X164102033Y-85653438D01*
X163758257Y-85795483D01*
X163495008Y-86058273D01*
X163352362Y-86401801D01*
X163352038Y-86773767D01*
X163449000Y-87008434D01*
X163449000Y-105752472D01*
X163352362Y-105985201D01*
X163352038Y-106357167D01*
X163494083Y-106700943D01*
X163756873Y-106964192D01*
X164100401Y-107106838D01*
X164472367Y-107107162D01*
X164816143Y-106965117D01*
X165079392Y-106702327D01*
X165201600Y-106408019D01*
X165201600Y-110752406D01*
X162593806Y-113360200D01*
X140199594Y-113360200D01*
X139081734Y-112242340D01*
X139788900Y-112242340D01*
X140024217Y-112198062D01*
X140240341Y-112058990D01*
X140385331Y-111846790D01*
X140436340Y-111594900D01*
X140436340Y-109816900D01*
X140392062Y-109581583D01*
X140252990Y-109365459D01*
X140040790Y-109220469D01*
X139788900Y-109169460D01*
X138798300Y-109169460D01*
X138562983Y-109213738D01*
X138346859Y-109352810D01*
X138201869Y-109565010D01*
X138150860Y-109816900D01*
X138150860Y-111311466D01*
X137896340Y-111056946D01*
X137896340Y-109816900D01*
X137852062Y-109581583D01*
X137712990Y-109365459D01*
X137500790Y-109220469D01*
X137248900Y-109169460D01*
X136258300Y-109169460D01*
X136022983Y-109213738D01*
X135806859Y-109352810D01*
X135661869Y-109565010D01*
X135610860Y-109816900D01*
X135610860Y-111311466D01*
X135356340Y-111056946D01*
X135356340Y-109816900D01*
X135312062Y-109581583D01*
X135172990Y-109365459D01*
X134960790Y-109220469D01*
X134708900Y-109169460D01*
X133718300Y-109169460D01*
X133482983Y-109213738D01*
X133266859Y-109352810D01*
X133121869Y-109565010D01*
X133070860Y-109816900D01*
X132816340Y-109816900D01*
X132772062Y-109581583D01*
X132632990Y-109365459D01*
X132420790Y-109220469D01*
X132168900Y-109169460D01*
X131178300Y-109169460D01*
X130942983Y-109213738D01*
X130726859Y-109352810D01*
X130581869Y-109565010D01*
X130530860Y-109816900D01*
X130276340Y-109816900D01*
X130232062Y-109581583D01*
X130092990Y-109365459D01*
X129880790Y-109220469D01*
X129628900Y-109169460D01*
X128638300Y-109169460D01*
X128402983Y-109213738D01*
X128186859Y-109352810D01*
X128041869Y-109565010D01*
X127990860Y-109816900D01*
X127736340Y-109816900D01*
X127692062Y-109581583D01*
X127552990Y-109365459D01*
X127340790Y-109220469D01*
X127088900Y-109169460D01*
X126098300Y-109169460D01*
X125862983Y-109213738D01*
X125646859Y-109352810D01*
X125501869Y-109565010D01*
X125450860Y-109816900D01*
X125196340Y-109816900D01*
X125152062Y-109581583D01*
X125012990Y-109365459D01*
X124800790Y-109220469D01*
X124548900Y-109169460D01*
X123558300Y-109169460D01*
X123322983Y-109213738D01*
X123106859Y-109352810D01*
X122961869Y-109565010D01*
X122910860Y-109816900D01*
X122656340Y-109816900D01*
X122612062Y-109581583D01*
X122472990Y-109365459D01*
X122260790Y-109220469D01*
X122008900Y-109169460D01*
X121018300Y-109169460D01*
X120782983Y-109213738D01*
X120566859Y-109352810D01*
X120421869Y-109565010D01*
X120370860Y-109816900D01*
X120116340Y-109816900D01*
X120072062Y-109581583D01*
X119932990Y-109365459D01*
X119720790Y-109220469D01*
X119468900Y-109169460D01*
X118478300Y-109169460D01*
X118413600Y-109181634D01*
X118413600Y-106412638D01*
X118478300Y-106425740D01*
X119468900Y-106425740D01*
X119704217Y-106381462D01*
X119920341Y-106242390D01*
X120065331Y-106030190D01*
X120116340Y-105778300D01*
X120116340Y-104000300D01*
X120370860Y-104000300D01*
X120370860Y-105778300D01*
X120415138Y-106013617D01*
X120554210Y-106229741D01*
X120766410Y-106374731D01*
X121018300Y-106425740D01*
X122008900Y-106425740D01*
X122244217Y-106381462D01*
X122460341Y-106242390D01*
X122605331Y-106030190D01*
X122656340Y-105778300D01*
X122656340Y-104000300D01*
X122910860Y-104000300D01*
X122910860Y-105778300D01*
X122955138Y-106013617D01*
X123094210Y-106229741D01*
X123306410Y-106374731D01*
X123558300Y-106425740D01*
X124548900Y-106425740D01*
X124784217Y-106381462D01*
X125000341Y-106242390D01*
X125145331Y-106030190D01*
X125196340Y-105778300D01*
X125196340Y-104000300D01*
X125450860Y-104000300D01*
X125450860Y-105778300D01*
X125495138Y-106013617D01*
X125634210Y-106229741D01*
X125846410Y-106374731D01*
X126098300Y-106425740D01*
X127088900Y-106425740D01*
X127324217Y-106381462D01*
X127540341Y-106242390D01*
X127685331Y-106030190D01*
X127736340Y-105778300D01*
X127736340Y-104000300D01*
X127692062Y-103764983D01*
X127552990Y-103548859D01*
X127340790Y-103403869D01*
X127088900Y-103352860D01*
X126098300Y-103352860D01*
X125862983Y-103397138D01*
X125646859Y-103536210D01*
X125501869Y-103748410D01*
X125450860Y-104000300D01*
X125196340Y-104000300D01*
X125152062Y-103764983D01*
X125012990Y-103548859D01*
X124800790Y-103403869D01*
X124548900Y-103352860D01*
X123558300Y-103352860D01*
X123322983Y-103397138D01*
X123106859Y-103536210D01*
X122961869Y-103748410D01*
X122910860Y-104000300D01*
X122656340Y-104000300D01*
X122612062Y-103764983D01*
X122472990Y-103548859D01*
X122260790Y-103403869D01*
X122008900Y-103352860D01*
X121018300Y-103352860D01*
X120782983Y-103397138D01*
X120566859Y-103536210D01*
X120421869Y-103748410D01*
X120370860Y-104000300D01*
X120116340Y-104000300D01*
X120072062Y-103764983D01*
X119932990Y-103548859D01*
X119720790Y-103403869D01*
X119468900Y-103352860D01*
X118478300Y-103352860D01*
X118413600Y-103365034D01*
X118413600Y-85242400D01*
X134148564Y-85242400D01*
X134234961Y-85676746D01*
X134480998Y-86044966D01*
X134849218Y-86291003D01*
X135283564Y-86377400D01*
X135328036Y-86377400D01*
X135762382Y-86291003D01*
X136130602Y-86044966D01*
X136376639Y-85676746D01*
X136463036Y-85242400D01*
X136376639Y-84808054D01*
X136360995Y-84784641D01*
X136402231Y-84724290D01*
X136453240Y-84472400D01*
X136453240Y-83472400D01*
X136408962Y-83237083D01*
X136269890Y-83020959D01*
X136057690Y-82875969D01*
X135805800Y-82824960D01*
X134805800Y-82824960D01*
X134570483Y-82869238D01*
X134354359Y-83008310D01*
X134209369Y-83220510D01*
X134158360Y-83472400D01*
X134158360Y-84472400D01*
X134202638Y-84707717D01*
X134251386Y-84783473D01*
X134234961Y-84808054D01*
X134148564Y-85242400D01*
X118413600Y-85242400D01*
X118413600Y-69049238D01*
X118478300Y-69062340D01*
X119468900Y-69062340D01*
X119704217Y-69018062D01*
X119920341Y-68878990D01*
X120065331Y-68666790D01*
X120116340Y-68414900D01*
X120116340Y-66636900D01*
X120370860Y-66636900D01*
X120370860Y-68414900D01*
X120415138Y-68650217D01*
X120554210Y-68866341D01*
X120766410Y-69011331D01*
X121018300Y-69062340D01*
X122008900Y-69062340D01*
X122244217Y-69018062D01*
X122460341Y-68878990D01*
X122605331Y-68666790D01*
X122656340Y-68414900D01*
X122656340Y-66636900D01*
X122910860Y-66636900D01*
X122910860Y-68414900D01*
X122955138Y-68650217D01*
X123094210Y-68866341D01*
X123306410Y-69011331D01*
X123558300Y-69062340D01*
X124548900Y-69062340D01*
X124784217Y-69018062D01*
X125000341Y-68878990D01*
X125145331Y-68666790D01*
X125196340Y-68414900D01*
X125196340Y-66636900D01*
X125450860Y-66636900D01*
X125450860Y-68414900D01*
X125495138Y-68650217D01*
X125634210Y-68866341D01*
X125846410Y-69011331D01*
X126098300Y-69062340D01*
X127088900Y-69062340D01*
X127324217Y-69018062D01*
X127540341Y-68878990D01*
X127685331Y-68666790D01*
X127736340Y-68414900D01*
X127736340Y-66636900D01*
X127990860Y-66636900D01*
X127990860Y-68414900D01*
X128035138Y-68650217D01*
X128174210Y-68866341D01*
X128371600Y-69001212D01*
X128371600Y-69748400D01*
X128435404Y-70069166D01*
X128617103Y-70341097D01*
X128718703Y-70442697D01*
X128990634Y-70624396D01*
X129311400Y-70688200D01*
X147369441Y-70688200D01*
X147162808Y-70894473D01*
X147065436Y-71128970D01*
X137888103Y-80306303D01*
X137706404Y-80578234D01*
X137706404Y-80578235D01*
X137642600Y-80899000D01*
X137642600Y-82935441D01*
X137529359Y-83008310D01*
X137384369Y-83220510D01*
X137333360Y-83472400D01*
X137333360Y-84472400D01*
X137377638Y-84707717D01*
X137426386Y-84783473D01*
X137409961Y-84808054D01*
X137323564Y-85242400D01*
X137409961Y-85676746D01*
X137642600Y-86024914D01*
X137642600Y-86546206D01*
X136406406Y-87782400D01*
X131724400Y-87782400D01*
X131403635Y-87846204D01*
X131205246Y-87978763D01*
X131131703Y-88027903D01*
X128540903Y-90618703D01*
X128359204Y-90890634D01*
X128359204Y-90890635D01*
X128295400Y-91211400D01*
X128295400Y-103466366D01*
X128186859Y-103536210D01*
X128041869Y-103748410D01*
X127990860Y-104000300D01*
X127990860Y-105778300D01*
X128035138Y-106013617D01*
X128174210Y-106229741D01*
X128386410Y-106374731D01*
X128638300Y-106425740D01*
X129628900Y-106425740D01*
X129864217Y-106381462D01*
X130080341Y-106242390D01*
X130225331Y-106030190D01*
X130276340Y-105778300D01*
X130276340Y-104000300D01*
X130530860Y-104000300D01*
X130530860Y-105778300D01*
X130575138Y-106013617D01*
X130714210Y-106229741D01*
X130926410Y-106374731D01*
X131178300Y-106425740D01*
X132168900Y-106425740D01*
X132404217Y-106381462D01*
X132620341Y-106242390D01*
X132765331Y-106030190D01*
X132816340Y-105778300D01*
X132816340Y-104000300D01*
X133070860Y-104000300D01*
X133070860Y-105778300D01*
X133115138Y-106013617D01*
X133254210Y-106229741D01*
X133466410Y-106374731D01*
X133718300Y-106425740D01*
X134708900Y-106425740D01*
X134944217Y-106381462D01*
X135160341Y-106242390D01*
X135305331Y-106030190D01*
X135356340Y-105778300D01*
X135356340Y-104000300D01*
X135610860Y-104000300D01*
X135610860Y-105778300D01*
X135655138Y-106013617D01*
X135794210Y-106229741D01*
X136006410Y-106374731D01*
X136258300Y-106425740D01*
X137248900Y-106425740D01*
X137484217Y-106381462D01*
X137700341Y-106242390D01*
X137845331Y-106030190D01*
X137896340Y-105778300D01*
X137896340Y-104000300D01*
X138150860Y-104000300D01*
X138150860Y-105778300D01*
X138195138Y-106013617D01*
X138334210Y-106229741D01*
X138546410Y-106374731D01*
X138798300Y-106425740D01*
X139788900Y-106425740D01*
X140024217Y-106381462D01*
X140240341Y-106242390D01*
X140385331Y-106030190D01*
X140436340Y-105778300D01*
X140436340Y-104000300D01*
X140392062Y-103764983D01*
X140252990Y-103548859D01*
X140040790Y-103403869D01*
X139788900Y-103352860D01*
X138798300Y-103352860D01*
X138562983Y-103397138D01*
X138346859Y-103536210D01*
X138201869Y-103748410D01*
X138150860Y-104000300D01*
X137896340Y-104000300D01*
X137852062Y-103764983D01*
X137712990Y-103548859D01*
X137500790Y-103403869D01*
X137248900Y-103352860D01*
X136258300Y-103352860D01*
X136022983Y-103397138D01*
X135806859Y-103536210D01*
X135661869Y-103748410D01*
X135610860Y-104000300D01*
X135356340Y-104000300D01*
X135312062Y-103764983D01*
X135172990Y-103548859D01*
X134960790Y-103403869D01*
X134708900Y-103352860D01*
X133718300Y-103352860D01*
X133482983Y-103397138D01*
X133266859Y-103536210D01*
X133121869Y-103748410D01*
X133070860Y-104000300D01*
X132816340Y-104000300D01*
X132772062Y-103764983D01*
X132632990Y-103548859D01*
X132420790Y-103403869D01*
X132168900Y-103352860D01*
X131178300Y-103352860D01*
X130942983Y-103397138D01*
X130726859Y-103536210D01*
X130581869Y-103748410D01*
X130530860Y-104000300D01*
X130276340Y-104000300D01*
X130232062Y-103764983D01*
X130092990Y-103548859D01*
X129971800Y-103466053D01*
X129971800Y-91558594D01*
X132071594Y-89458800D01*
X136753600Y-89458800D01*
X137074366Y-89394996D01*
X137346297Y-89213297D01*
X139073497Y-87486097D01*
X139217400Y-87270731D01*
X139217400Y-101713872D01*
X139120762Y-101946601D01*
X139120438Y-102318567D01*
X139262483Y-102662343D01*
X139525273Y-102925592D01*
X139868801Y-103068238D01*
X140240767Y-103068562D01*
X140584543Y-102926517D01*
X140847792Y-102663727D01*
X140989123Y-102323365D01*
X141088503Y-102472097D01*
X141884052Y-103267646D01*
X141919262Y-103352860D01*
X141338300Y-103352860D01*
X141102983Y-103397138D01*
X140886859Y-103536210D01*
X140741869Y-103748410D01*
X140690860Y-104000300D01*
X140690860Y-105778300D01*
X140735138Y-106013617D01*
X140874210Y-106229741D01*
X141086410Y-106374731D01*
X141338300Y-106425740D01*
X142328900Y-106425740D01*
X142564217Y-106381462D01*
X142780341Y-106242390D01*
X142925331Y-106030190D01*
X142976340Y-105778300D01*
X142976340Y-104000300D01*
X142958727Y-103906696D01*
X143302343Y-103764717D01*
X143565592Y-103501927D01*
X143708238Y-103158399D01*
X143708562Y-102786433D01*
X143566517Y-102442657D01*
X143303727Y-102179408D01*
X143069230Y-102082036D01*
X142519400Y-101532206D01*
X142519400Y-86050314D01*
X142752039Y-85702146D01*
X142838436Y-85267800D01*
X143698964Y-85267800D01*
X143785361Y-85702146D01*
X144018000Y-86050314D01*
X144018000Y-100304600D01*
X144081804Y-100625366D01*
X144263503Y-100897297D01*
X145363852Y-101997646D01*
X145460083Y-102230543D01*
X145722873Y-102493792D01*
X146066401Y-102636438D01*
X146438367Y-102636762D01*
X146782143Y-102494717D01*
X147045392Y-102231927D01*
X147188038Y-101888399D01*
X147188362Y-101516433D01*
X147046317Y-101172657D01*
X146783527Y-100909408D01*
X146549030Y-100812036D01*
X145694400Y-99957406D01*
X145694400Y-86050314D01*
X145927039Y-85702146D01*
X146013436Y-85267800D01*
X145927039Y-84833454D01*
X145911395Y-84810041D01*
X145952631Y-84749690D01*
X146003640Y-84497800D01*
X146003640Y-83497800D01*
X145959362Y-83262483D01*
X145820290Y-83046359D01*
X145608090Y-82901369D01*
X145356200Y-82850360D01*
X144356200Y-82850360D01*
X144120883Y-82894638D01*
X143904759Y-83033710D01*
X143759769Y-83245910D01*
X143708760Y-83497800D01*
X143708760Y-84497800D01*
X143753038Y-84733117D01*
X143801786Y-84808873D01*
X143785361Y-84833454D01*
X143698964Y-85267800D01*
X142838436Y-85267800D01*
X142752039Y-84833454D01*
X142736395Y-84810041D01*
X142777631Y-84749690D01*
X142828640Y-84497800D01*
X142828640Y-83497800D01*
X142784362Y-83262483D01*
X142645290Y-83046359D01*
X142433090Y-82901369D01*
X142181200Y-82850360D01*
X141181200Y-82850360D01*
X140945883Y-82894638D01*
X140729759Y-83033710D01*
X140584769Y-83245910D01*
X140533760Y-83497800D01*
X140533760Y-83933566D01*
X139979897Y-83379703D01*
X139707966Y-83198004D01*
X139536922Y-83163981D01*
X139444890Y-83020959D01*
X139319000Y-82934942D01*
X139319000Y-81246194D01*
X148251046Y-72314148D01*
X148374834Y-72263000D01*
X171585406Y-72263000D01*
X171805600Y-72483194D01*
X171805600Y-84958906D01*
X171869404Y-85279672D01*
X172051103Y-85551603D01*
X172385397Y-85885897D01*
X172657328Y-86067596D01*
X172886445Y-86113170D01*
X173228618Y-86341803D01*
X173662964Y-86428200D01*
X173707436Y-86428200D01*
X174141782Y-86341803D01*
X174510002Y-86095766D01*
X174756039Y-85727546D01*
X174842436Y-85293200D01*
X174756039Y-84858854D01*
X174740395Y-84835441D01*
X174781631Y-84775090D01*
X174832640Y-84523200D01*
X174832640Y-84074000D01*
X175702964Y-84074000D01*
X175789361Y-84508346D01*
X175805005Y-84531759D01*
X175763769Y-84592110D01*
X175712760Y-84844000D01*
X175712760Y-85844000D01*
X175757038Y-86079317D01*
X175896110Y-86295441D01*
X176108310Y-86440431D01*
X176360200Y-86491440D01*
X177360200Y-86491440D01*
X177595517Y-86447162D01*
X177811641Y-86308090D01*
X177956631Y-86095890D01*
X178007640Y-85844000D01*
X178007640Y-84844000D01*
X177963362Y-84608683D01*
X177914614Y-84532927D01*
X177931039Y-84508346D01*
X178017436Y-84074000D01*
X177931039Y-83639654D01*
X177685002Y-83271434D01*
X177316782Y-83025397D01*
X176882436Y-82939000D01*
X176837964Y-82939000D01*
X176403618Y-83025397D01*
X176035398Y-83271434D01*
X175789361Y-83639654D01*
X175702964Y-84074000D01*
X174832640Y-84074000D01*
X174832640Y-83523200D01*
X174788362Y-83287883D01*
X174649290Y-83071759D01*
X174437090Y-82926769D01*
X174185200Y-82875760D01*
X173482000Y-82875760D01*
X173482000Y-72136000D01*
X173418196Y-71815235D01*
X173266394Y-71588047D01*
X173473001Y-71673838D01*
X173844967Y-71674162D01*
X174188743Y-71532117D01*
X174451992Y-71269327D01*
X174594638Y-70925799D01*
X174594962Y-70553833D01*
X174452917Y-70210057D01*
X174190127Y-69946808D01*
X173955630Y-69849436D01*
X173363497Y-69257303D01*
X173091566Y-69075604D01*
X172770800Y-69011800D01*
X142573948Y-69011800D01*
X142780341Y-68878990D01*
X142925331Y-68666790D01*
X142976340Y-68414900D01*
X142976340Y-66636900D01*
X181330860Y-66636900D01*
X181330860Y-68414900D01*
X181375138Y-68650217D01*
X181514210Y-68866341D01*
X181726410Y-69011331D01*
X181978300Y-69062340D01*
X182968900Y-69062340D01*
X183204217Y-69018062D01*
X183420341Y-68878990D01*
X183565331Y-68666790D01*
X183616340Y-68414900D01*
X183616340Y-66636900D01*
X183870860Y-66636900D01*
X183870860Y-68414900D01*
X183915138Y-68650217D01*
X184054210Y-68866341D01*
X184266410Y-69011331D01*
X184518300Y-69062340D01*
X185508900Y-69062340D01*
X185744217Y-69018062D01*
X185960341Y-68878990D01*
X186105331Y-68666790D01*
X186156340Y-68414900D01*
X186156340Y-66636900D01*
X186410860Y-66636900D01*
X186410860Y-68414900D01*
X186455138Y-68650217D01*
X186594210Y-68866341D01*
X186806410Y-69011331D01*
X187058300Y-69062340D01*
X188048900Y-69062340D01*
X188284217Y-69018062D01*
X188500341Y-68878990D01*
X188645331Y-68666790D01*
X188696340Y-68414900D01*
X188696340Y-66636900D01*
X188950860Y-66636900D01*
X188950860Y-68414900D01*
X188995138Y-68650217D01*
X189134210Y-68866341D01*
X189346410Y-69011331D01*
X189598300Y-69062340D01*
X190588900Y-69062340D01*
X190824217Y-69018062D01*
X191040341Y-68878990D01*
X191185331Y-68666790D01*
X191236340Y-68414900D01*
X191236340Y-66636900D01*
X191490860Y-66636900D01*
X191490860Y-68414900D01*
X191535138Y-68650217D01*
X191674210Y-68866341D01*
X191886410Y-69011331D01*
X192138300Y-69062340D01*
X193128900Y-69062340D01*
X193364217Y-69018062D01*
X193580341Y-68878990D01*
X193725331Y-68666790D01*
X193776340Y-68414900D01*
X193776340Y-66636900D01*
X194030860Y-66636900D01*
X194030860Y-68414900D01*
X194075138Y-68650217D01*
X194214210Y-68866341D01*
X194426410Y-69011331D01*
X194678300Y-69062340D01*
X195668900Y-69062340D01*
X195904217Y-69018062D01*
X196120341Y-68878990D01*
X196265331Y-68666790D01*
X196316340Y-68414900D01*
X196316340Y-66636900D01*
X196570860Y-66636900D01*
X196570860Y-68414900D01*
X196615138Y-68650217D01*
X196754210Y-68866341D01*
X196966410Y-69011331D01*
X197218300Y-69062340D01*
X198145400Y-69062340D01*
X198145400Y-82321935D01*
X198099057Y-82341083D01*
X197835808Y-82603873D01*
X197693162Y-82947401D01*
X197692838Y-83319367D01*
X197834883Y-83663143D01*
X198097673Y-83926392D01*
X198441201Y-84069038D01*
X198813167Y-84069362D01*
X199156943Y-83927317D01*
X199420192Y-83664527D01*
X199517564Y-83430030D01*
X199576297Y-83371297D01*
X199757996Y-83099366D01*
X199821800Y-82778600D01*
X199821800Y-69062340D01*
X200748900Y-69062340D01*
X200984217Y-69018062D01*
X201200341Y-68878990D01*
X201345331Y-68666790D01*
X201396340Y-68414900D01*
X201396340Y-66636900D01*
X201352062Y-66401583D01*
X201212990Y-66185459D01*
X201000790Y-66040469D01*
X200748900Y-65989460D01*
X199821800Y-65989460D01*
X199821800Y-64634594D01*
X199947796Y-64508598D01*
X199973370Y-64470324D01*
X200846297Y-63597397D01*
X201027996Y-63325466D01*
X201062708Y-63150954D01*
X201200341Y-63062390D01*
X201345331Y-62850190D01*
X201396340Y-62598300D01*
X201396340Y-60820300D01*
X201650860Y-60820300D01*
X201650860Y-62598300D01*
X201695138Y-62833617D01*
X201834210Y-63049741D01*
X202046410Y-63194731D01*
X202298300Y-63245740D01*
X203288900Y-63245740D01*
X203524217Y-63201462D01*
X203740341Y-63062390D01*
X203885331Y-62850190D01*
X203936340Y-62598300D01*
X203936340Y-60820300D01*
X204190860Y-60820300D01*
X204190860Y-62598300D01*
X204235138Y-62833617D01*
X204374210Y-63049741D01*
X204524830Y-63152655D01*
X204559204Y-63325466D01*
X204740903Y-63597397D01*
X206070200Y-64926694D01*
X206070200Y-66038324D01*
X205828900Y-65989460D01*
X204838300Y-65989460D01*
X204602983Y-66033738D01*
X204386859Y-66172810D01*
X204241869Y-66385010D01*
X204190860Y-66636900D01*
X204190860Y-68414900D01*
X204235138Y-68650217D01*
X204374210Y-68866341D01*
X204586410Y-69011331D01*
X204838300Y-69062340D01*
X205828900Y-69062340D01*
X206064217Y-69018062D01*
X206070200Y-69014212D01*
X206070200Y-72728606D01*
X204664703Y-74134103D01*
X204483004Y-74406034D01*
X204483004Y-74406035D01*
X204419200Y-74726800D01*
X204419200Y-85852000D01*
X204483004Y-86172766D01*
X204664703Y-86444697D01*
X205714784Y-87494778D01*
X205714358Y-87982861D01*
X205926590Y-88496503D01*
X206273400Y-88843919D01*
X206273400Y-94834000D01*
X206337204Y-95154766D01*
X206518903Y-95426697D01*
X206909503Y-95817297D01*
X207181435Y-95998996D01*
X207389374Y-96040358D01*
X207444510Y-96126041D01*
X207656710Y-96271031D01*
X207670400Y-96273803D01*
X207670400Y-106514472D01*
X207573762Y-106747201D01*
X207573438Y-107119167D01*
X207715483Y-107462943D01*
X207978273Y-107726192D01*
X208321801Y-107868838D01*
X208693767Y-107869162D01*
X209037543Y-107727117D01*
X209300792Y-107464327D01*
X209443438Y-107120799D01*
X209443762Y-106748833D01*
X209346800Y-106514166D01*
X209346800Y-96275907D01*
X209560041Y-96138690D01*
X209607734Y-96068889D01*
X209644510Y-96126041D01*
X209856710Y-96271031D01*
X210108600Y-96322040D01*
X211308600Y-96322040D01*
X211543917Y-96277762D01*
X211760041Y-96138690D01*
X211829249Y-96037400D01*
X211966560Y-96037400D01*
X211966560Y-96049200D01*
X212010838Y-96284517D01*
X212149910Y-96500641D01*
X212362110Y-96645631D01*
X212614000Y-96696640D01*
X214614000Y-96696640D01*
X214849317Y-96652362D01*
X215065441Y-96513290D01*
X215210431Y-96301090D01*
X215261440Y-96049200D01*
X215261440Y-94349200D01*
X215217162Y-94113883D01*
X215078090Y-93897759D01*
X214865890Y-93752769D01*
X214614000Y-93701760D01*
X212614000Y-93701760D01*
X212378683Y-93746038D01*
X212162559Y-93885110D01*
X212017569Y-94097310D01*
X211966560Y-94349200D01*
X211966560Y-94361000D01*
X211797040Y-94361000D01*
X211772690Y-94323159D01*
X211560490Y-94178169D01*
X211308600Y-94127160D01*
X210108600Y-94127160D01*
X209873283Y-94171438D01*
X209657159Y-94310510D01*
X209609466Y-94380311D01*
X209572690Y-94323159D01*
X209360490Y-94178169D01*
X209108600Y-94127160D01*
X207949800Y-94127160D01*
X207949800Y-89001600D01*
X210656493Y-89001600D01*
X210793710Y-89214841D01*
X211005910Y-89359831D01*
X211257800Y-89410840D01*
X212007800Y-89410840D01*
X212243117Y-89366562D01*
X212395887Y-89268257D01*
X212529910Y-89359831D01*
X212781800Y-89410840D01*
X213531800Y-89410840D01*
X213767117Y-89366562D01*
X213919887Y-89268257D01*
X214053910Y-89359831D01*
X214305800Y-89410840D01*
X215055800Y-89410840D01*
X215291117Y-89366562D01*
X215443887Y-89268257D01*
X215577910Y-89359831D01*
X215829800Y-89410840D01*
X216579800Y-89410840D01*
X216815117Y-89366562D01*
X216967887Y-89268257D01*
X217101910Y-89359831D01*
X217353800Y-89410840D01*
X218103800Y-89410840D01*
X218339117Y-89366562D01*
X218555241Y-89227490D01*
X218700231Y-89015290D01*
X218751240Y-88763400D01*
X218751240Y-87563400D01*
X218706962Y-87328083D01*
X218567890Y-87111959D01*
X218355690Y-86966969D01*
X218103800Y-86915960D01*
X217353800Y-86915960D01*
X217118483Y-86960238D01*
X216965713Y-87058543D01*
X216831690Y-86966969D01*
X216579800Y-86915960D01*
X215829800Y-86915960D01*
X215594483Y-86960238D01*
X215441713Y-87058543D01*
X215307690Y-86966969D01*
X215055800Y-86915960D01*
X214305800Y-86915960D01*
X214070483Y-86960238D01*
X213917713Y-87058543D01*
X213783690Y-86966969D01*
X213531800Y-86915960D01*
X212781800Y-86915960D01*
X212546483Y-86960238D01*
X212393713Y-87058543D01*
X212259690Y-86966969D01*
X212007800Y-86915960D01*
X211257800Y-86915960D01*
X211022483Y-86960238D01*
X210806359Y-87099310D01*
X210661369Y-87311510D01*
X210658597Y-87325200D01*
X208465730Y-87325200D01*
X208296610Y-86915897D01*
X207903970Y-86522571D01*
X207390700Y-86309443D01*
X206899809Y-86309015D01*
X206095600Y-85504806D01*
X206095600Y-83585808D01*
X206319230Y-83809829D01*
X206832500Y-84022957D01*
X207388261Y-84023442D01*
X207901903Y-83811210D01*
X208295229Y-83418570D01*
X208369045Y-83240800D01*
X210656493Y-83240800D01*
X210793710Y-83454041D01*
X211005910Y-83599031D01*
X211257800Y-83650040D01*
X212007800Y-83650040D01*
X212243117Y-83605762D01*
X212395887Y-83507457D01*
X212529910Y-83599031D01*
X212781800Y-83650040D01*
X213531800Y-83650040D01*
X213767117Y-83605762D01*
X213919887Y-83507457D01*
X214053910Y-83599031D01*
X214305800Y-83650040D01*
X215055800Y-83650040D01*
X215291117Y-83605762D01*
X215443887Y-83507457D01*
X215577910Y-83599031D01*
X215829800Y-83650040D01*
X216579800Y-83650040D01*
X216815117Y-83605762D01*
X216967887Y-83507457D01*
X217101910Y-83599031D01*
X217353800Y-83650040D01*
X218103800Y-83650040D01*
X218339117Y-83605762D01*
X218555241Y-83466690D01*
X218700231Y-83254490D01*
X218751240Y-83002600D01*
X218751240Y-81802600D01*
X218706962Y-81567283D01*
X218567890Y-81351159D01*
X218355690Y-81206169D01*
X218103800Y-81155160D01*
X217353800Y-81155160D01*
X217118483Y-81199438D01*
X216965713Y-81297743D01*
X216831690Y-81206169D01*
X216579800Y-81155160D01*
X215829800Y-81155160D01*
X215594483Y-81199438D01*
X215441713Y-81297743D01*
X215307690Y-81206169D01*
X215055800Y-81155160D01*
X214305800Y-81155160D01*
X214070483Y-81199438D01*
X213917713Y-81297743D01*
X213783690Y-81206169D01*
X213531800Y-81155160D01*
X212781800Y-81155160D01*
X212546483Y-81199438D01*
X212393713Y-81297743D01*
X212259690Y-81206169D01*
X212007800Y-81155160D01*
X211257800Y-81155160D01*
X211022483Y-81199438D01*
X210806359Y-81338510D01*
X210661369Y-81550710D01*
X210658597Y-81564400D01*
X208025587Y-81564400D01*
X207903970Y-81442571D01*
X207390700Y-81229443D01*
X206834939Y-81228958D01*
X206321297Y-81441190D01*
X206095600Y-81666493D01*
X206095600Y-75073994D01*
X207501097Y-73668497D01*
X207682796Y-73396565D01*
X207746600Y-73075800D01*
X207746600Y-64579500D01*
X207682796Y-64258735D01*
X207501097Y-63986803D01*
X206400632Y-62886338D01*
X206425331Y-62850190D01*
X206476340Y-62598300D01*
X206476340Y-60820300D01*
X206432062Y-60584983D01*
X206292990Y-60368859D01*
X206080790Y-60223869D01*
X205828900Y-60172860D01*
X204838300Y-60172860D01*
X204602983Y-60217138D01*
X204386859Y-60356210D01*
X204241869Y-60568410D01*
X204190860Y-60820300D01*
X203936340Y-60820300D01*
X203892062Y-60584983D01*
X203752990Y-60368859D01*
X203540790Y-60223869D01*
X203288900Y-60172860D01*
X202298300Y-60172860D01*
X202062983Y-60217138D01*
X201846859Y-60356210D01*
X201701869Y-60568410D01*
X201650860Y-60820300D01*
X201396340Y-60820300D01*
X201352062Y-60584983D01*
X201212990Y-60368859D01*
X201000790Y-60223869D01*
X200748900Y-60172860D01*
X199758300Y-60172860D01*
X199522983Y-60217138D01*
X199306859Y-60356210D01*
X199161869Y-60568410D01*
X199110860Y-60820300D01*
X199110860Y-62598300D01*
X199155138Y-62833617D01*
X199188086Y-62884820D01*
X198762402Y-63310504D01*
X198736828Y-63348778D01*
X198390903Y-63694703D01*
X198209204Y-63966634D01*
X198166747Y-64180083D01*
X198145400Y-64287400D01*
X198145400Y-65989460D01*
X197218300Y-65989460D01*
X196982983Y-66033738D01*
X196766859Y-66172810D01*
X196621869Y-66385010D01*
X196570860Y-66636900D01*
X196316340Y-66636900D01*
X196272062Y-66401583D01*
X196132990Y-66185459D01*
X195920790Y-66040469D01*
X195668900Y-65989460D01*
X194678300Y-65989460D01*
X194442983Y-66033738D01*
X194226859Y-66172810D01*
X194081869Y-66385010D01*
X194030860Y-66636900D01*
X193776340Y-66636900D01*
X193732062Y-66401583D01*
X193592990Y-66185459D01*
X193380790Y-66040469D01*
X193128900Y-65989460D01*
X192138300Y-65989460D01*
X191902983Y-66033738D01*
X191686859Y-66172810D01*
X191541869Y-66385010D01*
X191490860Y-66636900D01*
X191236340Y-66636900D01*
X191192062Y-66401583D01*
X191052990Y-66185459D01*
X190840790Y-66040469D01*
X190588900Y-65989460D01*
X189598300Y-65989460D01*
X189362983Y-66033738D01*
X189146859Y-66172810D01*
X189001869Y-66385010D01*
X188950860Y-66636900D01*
X188696340Y-66636900D01*
X188652062Y-66401583D01*
X188512990Y-66185459D01*
X188300790Y-66040469D01*
X188048900Y-65989460D01*
X187058300Y-65989460D01*
X186822983Y-66033738D01*
X186606859Y-66172810D01*
X186461869Y-66385010D01*
X186410860Y-66636900D01*
X186156340Y-66636900D01*
X186112062Y-66401583D01*
X185972990Y-66185459D01*
X185760790Y-66040469D01*
X185508900Y-65989460D01*
X184518300Y-65989460D01*
X184282983Y-66033738D01*
X184066859Y-66172810D01*
X183921869Y-66385010D01*
X183870860Y-66636900D01*
X183616340Y-66636900D01*
X183572062Y-66401583D01*
X183432990Y-66185459D01*
X183220790Y-66040469D01*
X182968900Y-65989460D01*
X181978300Y-65989460D01*
X181742983Y-66033738D01*
X181526859Y-66172810D01*
X181381869Y-66385010D01*
X181330860Y-66636900D01*
X142976340Y-66636900D01*
X142932062Y-66401583D01*
X142792990Y-66185459D01*
X142580790Y-66040469D01*
X142328900Y-65989460D01*
X141338300Y-65989460D01*
X141102983Y-66033738D01*
X140886859Y-66172810D01*
X140741869Y-66385010D01*
X140690860Y-66636900D01*
X140690860Y-68414900D01*
X140735138Y-68650217D01*
X140874210Y-68866341D01*
X141086410Y-69011331D01*
X141088726Y-69011800D01*
X137493948Y-69011800D01*
X137700341Y-68878990D01*
X137845331Y-68666790D01*
X137896340Y-68414900D01*
X137896340Y-66636900D01*
X137852062Y-66401583D01*
X137712990Y-66185459D01*
X137500790Y-66040469D01*
X137248900Y-65989460D01*
X136258300Y-65989460D01*
X136022983Y-66033738D01*
X135806859Y-66172810D01*
X135661869Y-66385010D01*
X135610860Y-66636900D01*
X135610860Y-68414900D01*
X135655138Y-68650217D01*
X135794210Y-68866341D01*
X136006410Y-69011331D01*
X136008726Y-69011800D01*
X134953948Y-69011800D01*
X135160341Y-68878990D01*
X135305331Y-68666790D01*
X135356340Y-68414900D01*
X135356340Y-66636900D01*
X135312062Y-66401583D01*
X135172990Y-66185459D01*
X134960790Y-66040469D01*
X134708900Y-65989460D01*
X133718300Y-65989460D01*
X133482983Y-66033738D01*
X133266859Y-66172810D01*
X133121869Y-66385010D01*
X133070860Y-66636900D01*
X133070860Y-68414900D01*
X133115138Y-68650217D01*
X133254210Y-68866341D01*
X133466410Y-69011331D01*
X133468726Y-69011800D01*
X132413948Y-69011800D01*
X132620341Y-68878990D01*
X132765331Y-68666790D01*
X132816340Y-68414900D01*
X132816340Y-66636900D01*
X132772062Y-66401583D01*
X132632990Y-66185459D01*
X132420790Y-66040469D01*
X132168900Y-65989460D01*
X131178300Y-65989460D01*
X130942983Y-66033738D01*
X130726859Y-66172810D01*
X130581869Y-66385010D01*
X130530860Y-66636900D01*
X130530860Y-68414900D01*
X130575138Y-68650217D01*
X130714210Y-68866341D01*
X130926410Y-69011331D01*
X130928726Y-69011800D01*
X130048000Y-69011800D01*
X130048000Y-68899801D01*
X130080341Y-68878990D01*
X130225331Y-68666790D01*
X130276340Y-68414900D01*
X130276340Y-66636900D01*
X130232062Y-66401583D01*
X130092990Y-66185459D01*
X129880790Y-66040469D01*
X129628900Y-65989460D01*
X128638300Y-65989460D01*
X128402983Y-66033738D01*
X128186859Y-66172810D01*
X128041869Y-66385010D01*
X127990860Y-66636900D01*
X127736340Y-66636900D01*
X127692062Y-66401583D01*
X127552990Y-66185459D01*
X127340790Y-66040469D01*
X127088900Y-65989460D01*
X126098300Y-65989460D01*
X125862983Y-66033738D01*
X125646859Y-66172810D01*
X125501869Y-66385010D01*
X125450860Y-66636900D01*
X125196340Y-66636900D01*
X125152062Y-66401583D01*
X125012990Y-66185459D01*
X124800790Y-66040469D01*
X124548900Y-65989460D01*
X123558300Y-65989460D01*
X123322983Y-66033738D01*
X123106859Y-66172810D01*
X122961869Y-66385010D01*
X122910860Y-66636900D01*
X122656340Y-66636900D01*
X122612062Y-66401583D01*
X122472990Y-66185459D01*
X122260790Y-66040469D01*
X122008900Y-65989460D01*
X121018300Y-65989460D01*
X120782983Y-66033738D01*
X120566859Y-66172810D01*
X120421869Y-66385010D01*
X120370860Y-66636900D01*
X120116340Y-66636900D01*
X120072062Y-66401583D01*
X119932990Y-66185459D01*
X119720790Y-66040469D01*
X119468900Y-65989460D01*
X118478300Y-65989460D01*
X118413600Y-66001634D01*
X118413600Y-63232638D01*
X118478300Y-63245740D01*
X119468900Y-63245740D01*
X119704217Y-63201462D01*
X119920341Y-63062390D01*
X120065331Y-62850190D01*
X120116340Y-62598300D01*
X120116340Y-60820300D01*
X120370860Y-60820300D01*
X120370860Y-62598300D01*
X120415138Y-62833617D01*
X120554210Y-63049741D01*
X120766410Y-63194731D01*
X121018300Y-63245740D01*
X122008900Y-63245740D01*
X122244217Y-63201462D01*
X122460341Y-63062390D01*
X122605331Y-62850190D01*
X122656340Y-62598300D01*
X122656340Y-60820300D01*
X122910860Y-60820300D01*
X122910860Y-62598300D01*
X122955138Y-62833617D01*
X123094210Y-63049741D01*
X123306410Y-63194731D01*
X123558300Y-63245740D01*
X124548900Y-63245740D01*
X124784217Y-63201462D01*
X125000341Y-63062390D01*
X125145331Y-62850190D01*
X125196340Y-62598300D01*
X125196340Y-60820300D01*
X125450860Y-60820300D01*
X125450860Y-62598300D01*
X125495138Y-62833617D01*
X125634210Y-63049741D01*
X125846410Y-63194731D01*
X126098300Y-63245740D01*
X127088900Y-63245740D01*
X127324217Y-63201462D01*
X127540341Y-63062390D01*
X127685331Y-62850190D01*
X127736340Y-62598300D01*
X127736340Y-60820300D01*
X127990860Y-60820300D01*
X127990860Y-62598300D01*
X128035138Y-62833617D01*
X128174210Y-63049741D01*
X128386410Y-63194731D01*
X128638300Y-63245740D01*
X129628900Y-63245740D01*
X129864217Y-63201462D01*
X130080341Y-63062390D01*
X130225331Y-62850190D01*
X130276340Y-62598300D01*
X130276340Y-60820300D01*
X130530860Y-60820300D01*
X130530860Y-62598300D01*
X130575138Y-62833617D01*
X130714210Y-63049741D01*
X130926410Y-63194731D01*
X131178300Y-63245740D01*
X132168900Y-63245740D01*
X132404217Y-63201462D01*
X132620341Y-63062390D01*
X132765331Y-62850190D01*
X132816340Y-62598300D01*
X132816340Y-60820300D01*
X133070860Y-60820300D01*
X133070860Y-62598300D01*
X133115138Y-62833617D01*
X133254210Y-63049741D01*
X133375400Y-63132547D01*
X133375400Y-63703200D01*
X133439204Y-64023966D01*
X133620903Y-64295897D01*
X134594252Y-65269246D01*
X134690483Y-65502143D01*
X134953273Y-65765392D01*
X135296801Y-65908038D01*
X135668767Y-65908362D01*
X136012543Y-65766317D01*
X136275792Y-65503527D01*
X136418438Y-65159999D01*
X136418762Y-64788033D01*
X136276717Y-64444257D01*
X136013927Y-64181008D01*
X135779430Y-64083636D01*
X135051800Y-63356006D01*
X135051800Y-63132234D01*
X135160341Y-63062390D01*
X135305331Y-62850190D01*
X135356340Y-62598300D01*
X135356340Y-60820300D01*
X135610860Y-60820300D01*
X135610860Y-62598300D01*
X135655138Y-62833617D01*
X135794210Y-63049741D01*
X135944830Y-63152655D01*
X135979204Y-63325466D01*
X136160903Y-63597397D01*
X137210800Y-64647294D01*
X137210800Y-64818042D01*
X137139562Y-64989601D01*
X137139238Y-65361567D01*
X137281283Y-65705343D01*
X137544073Y-65968592D01*
X137887601Y-66111238D01*
X138259567Y-66111562D01*
X138603343Y-65969517D01*
X138866592Y-65706727D01*
X139009238Y-65363199D01*
X139009562Y-64991233D01*
X138887200Y-64695094D01*
X138887200Y-64300100D01*
X138832274Y-64023966D01*
X138823396Y-63979334D01*
X138641697Y-63707403D01*
X137820632Y-62886338D01*
X137845331Y-62850190D01*
X137896340Y-62598300D01*
X137896340Y-60820300D01*
X138150860Y-60820300D01*
X138150860Y-62598300D01*
X138195138Y-62833617D01*
X138334210Y-63049741D01*
X138546410Y-63194731D01*
X138798300Y-63245740D01*
X139788900Y-63245740D01*
X140024217Y-63201462D01*
X140240341Y-63062390D01*
X140385331Y-62850190D01*
X140436340Y-62598300D01*
X140436340Y-60820300D01*
X140690860Y-60820300D01*
X140690860Y-62598300D01*
X140735138Y-62833617D01*
X140874210Y-63049741D01*
X141086410Y-63194731D01*
X141338300Y-63245740D01*
X142328900Y-63245740D01*
X142564217Y-63201462D01*
X142780341Y-63062390D01*
X142925331Y-62850190D01*
X142976340Y-62598300D01*
X142976340Y-60820300D01*
X181330860Y-60820300D01*
X181330860Y-62598300D01*
X181375138Y-62833617D01*
X181514210Y-63049741D01*
X181726410Y-63194731D01*
X181978300Y-63245740D01*
X182968900Y-63245740D01*
X183204217Y-63201462D01*
X183420341Y-63062390D01*
X183565331Y-62850190D01*
X183616340Y-62598300D01*
X183616340Y-60820300D01*
X183870860Y-60820300D01*
X183870860Y-62598300D01*
X183915138Y-62833617D01*
X184054210Y-63049741D01*
X184266410Y-63194731D01*
X184518300Y-63245740D01*
X185508900Y-63245740D01*
X185744217Y-63201462D01*
X185960341Y-63062390D01*
X186105331Y-62850190D01*
X186156340Y-62598300D01*
X186156340Y-60820300D01*
X186410860Y-60820300D01*
X186410860Y-62598300D01*
X186455138Y-62833617D01*
X186594210Y-63049741D01*
X186806410Y-63194731D01*
X187058300Y-63245740D01*
X188048900Y-63245740D01*
X188284217Y-63201462D01*
X188500341Y-63062390D01*
X188645331Y-62850190D01*
X188696340Y-62598300D01*
X188696340Y-60820300D01*
X188950860Y-60820300D01*
X188950860Y-62598300D01*
X188995138Y-62833617D01*
X189134210Y-63049741D01*
X189346410Y-63194731D01*
X189598300Y-63245740D01*
X190588900Y-63245740D01*
X190824217Y-63201462D01*
X191040341Y-63062390D01*
X191185331Y-62850190D01*
X191236340Y-62598300D01*
X191236340Y-60820300D01*
X191490860Y-60820300D01*
X191490860Y-62598300D01*
X191535138Y-62833617D01*
X191674210Y-63049741D01*
X191886410Y-63194731D01*
X192138300Y-63245740D01*
X193128900Y-63245740D01*
X193364217Y-63201462D01*
X193580341Y-63062390D01*
X193725331Y-62850190D01*
X193776340Y-62598300D01*
X193776340Y-60820300D01*
X194030860Y-60820300D01*
X194030860Y-62598300D01*
X194075138Y-62833617D01*
X194214210Y-63049741D01*
X194426410Y-63194731D01*
X194678300Y-63245740D01*
X195668900Y-63245740D01*
X195904217Y-63201462D01*
X196120341Y-63062390D01*
X196265331Y-62850190D01*
X196316340Y-62598300D01*
X196316340Y-60820300D01*
X196570860Y-60820300D01*
X196570860Y-62598300D01*
X196615138Y-62833617D01*
X196754210Y-63049741D01*
X196966410Y-63194731D01*
X197218300Y-63245740D01*
X198208900Y-63245740D01*
X198444217Y-63201462D01*
X198660341Y-63062390D01*
X198805331Y-62850190D01*
X198856340Y-62598300D01*
X198856340Y-60820300D01*
X198812062Y-60584983D01*
X198672990Y-60368859D01*
X198460790Y-60223869D01*
X198208900Y-60172860D01*
X197218300Y-60172860D01*
X196982983Y-60217138D01*
X196766859Y-60356210D01*
X196621869Y-60568410D01*
X196570860Y-60820300D01*
X196316340Y-60820300D01*
X196272062Y-60584983D01*
X196132990Y-60368859D01*
X195920790Y-60223869D01*
X195668900Y-60172860D01*
X194678300Y-60172860D01*
X194442983Y-60217138D01*
X194226859Y-60356210D01*
X194081869Y-60568410D01*
X194030860Y-60820300D01*
X193776340Y-60820300D01*
X193732062Y-60584983D01*
X193592990Y-60368859D01*
X193380790Y-60223869D01*
X193128900Y-60172860D01*
X192138300Y-60172860D01*
X191902983Y-60217138D01*
X191686859Y-60356210D01*
X191541869Y-60568410D01*
X191490860Y-60820300D01*
X191236340Y-60820300D01*
X191192062Y-60584983D01*
X191052990Y-60368859D01*
X190840790Y-60223869D01*
X190588900Y-60172860D01*
X189598300Y-60172860D01*
X189362983Y-60217138D01*
X189146859Y-60356210D01*
X189001869Y-60568410D01*
X188950860Y-60820300D01*
X188696340Y-60820300D01*
X188652062Y-60584983D01*
X188512990Y-60368859D01*
X188300790Y-60223869D01*
X188048900Y-60172860D01*
X187058300Y-60172860D01*
X186822983Y-60217138D01*
X186606859Y-60356210D01*
X186461869Y-60568410D01*
X186410860Y-60820300D01*
X186156340Y-60820300D01*
X186112062Y-60584983D01*
X185972990Y-60368859D01*
X185760790Y-60223869D01*
X185508900Y-60172860D01*
X184518300Y-60172860D01*
X184282983Y-60217138D01*
X184066859Y-60356210D01*
X183921869Y-60568410D01*
X183870860Y-60820300D01*
X183616340Y-60820300D01*
X183572062Y-60584983D01*
X183432990Y-60368859D01*
X183220790Y-60223869D01*
X182968900Y-60172860D01*
X181978300Y-60172860D01*
X181742983Y-60217138D01*
X181526859Y-60356210D01*
X181381869Y-60568410D01*
X181330860Y-60820300D01*
X142976340Y-60820300D01*
X142932062Y-60584983D01*
X142792990Y-60368859D01*
X142671800Y-60286053D01*
X142671800Y-50232794D01*
X144644594Y-48260000D01*
X149656800Y-48260000D01*
X149656800Y-48723003D01*
X149311371Y-49067830D01*
X149225051Y-49275712D01*
X149140010Y-49069897D01*
X148747370Y-48676571D01*
X148234100Y-48463443D01*
X147678339Y-48462958D01*
X147164697Y-48675190D01*
X146771371Y-49067830D01*
X146558243Y-49581100D01*
X146557758Y-50136861D01*
X146769990Y-50650503D01*
X147162630Y-51043829D01*
X147675900Y-51256957D01*
X148231661Y-51257442D01*
X148745303Y-51045210D01*
X149138629Y-50652570D01*
X149224949Y-50444688D01*
X149309990Y-50650503D01*
X149702630Y-51043829D01*
X150215900Y-51256957D01*
X150771661Y-51257442D01*
X151285303Y-51045210D01*
X151678629Y-50652570D01*
X151891757Y-50139300D01*
X151892242Y-49583539D01*
X151680010Y-49069897D01*
X151333200Y-48722481D01*
X151333200Y-48260000D01*
X164930606Y-48260000D01*
X164973000Y-48302394D01*
X164973000Y-48773803D01*
X164627571Y-49118630D01*
X164541251Y-49326512D01*
X164456210Y-49120697D01*
X164063570Y-48727371D01*
X163550300Y-48514243D01*
X162994539Y-48513758D01*
X162480897Y-48725990D01*
X162087571Y-49118630D01*
X161874443Y-49631900D01*
X161873958Y-50187661D01*
X162086190Y-50701303D01*
X162478830Y-51094629D01*
X162992100Y-51307757D01*
X163547861Y-51308242D01*
X164061503Y-51096010D01*
X164454829Y-50703370D01*
X164541149Y-50495488D01*
X164626190Y-50701303D01*
X165018830Y-51094629D01*
X165532100Y-51307757D01*
X166087861Y-51308242D01*
X166601503Y-51096010D01*
X166994829Y-50703370D01*
X167207957Y-50190100D01*
X167208442Y-49634339D01*
X166996210Y-49120697D01*
X166649400Y-48773281D01*
X166649400Y-47955200D01*
X166585596Y-47634435D01*
X166403897Y-47362503D01*
X165870497Y-46829103D01*
X165598566Y-46647404D01*
X165277800Y-46583600D01*
X144297400Y-46583600D01*
X143976634Y-46647404D01*
X143704703Y-46829103D01*
X141240903Y-49292903D01*
X141059204Y-49564834D01*
X141027218Y-49725639D01*
X140995400Y-49885600D01*
X140995400Y-60286366D01*
X140886859Y-60356210D01*
X140741869Y-60568410D01*
X140690860Y-60820300D01*
X140436340Y-60820300D01*
X140392062Y-60584983D01*
X140252990Y-60368859D01*
X140040790Y-60223869D01*
X139788900Y-60172860D01*
X138798300Y-60172860D01*
X138562983Y-60217138D01*
X138346859Y-60356210D01*
X138201869Y-60568410D01*
X138150860Y-60820300D01*
X137896340Y-60820300D01*
X137852062Y-60584983D01*
X137712990Y-60368859D01*
X137500790Y-60223869D01*
X137248900Y-60172860D01*
X136258300Y-60172860D01*
X136022983Y-60217138D01*
X135806859Y-60356210D01*
X135661869Y-60568410D01*
X135610860Y-60820300D01*
X135356340Y-60820300D01*
X135312062Y-60584983D01*
X135172990Y-60368859D01*
X134960790Y-60223869D01*
X134708900Y-60172860D01*
X133718300Y-60172860D01*
X133482983Y-60217138D01*
X133266859Y-60356210D01*
X133121869Y-60568410D01*
X133070860Y-60820300D01*
X132816340Y-60820300D01*
X132772062Y-60584983D01*
X132632990Y-60368859D01*
X132420790Y-60223869D01*
X132168900Y-60172860D01*
X131178300Y-60172860D01*
X130942983Y-60217138D01*
X130726859Y-60356210D01*
X130581869Y-60568410D01*
X130530860Y-60820300D01*
X130276340Y-60820300D01*
X130232062Y-60584983D01*
X130092990Y-60368859D01*
X129880790Y-60223869D01*
X129628900Y-60172860D01*
X128638300Y-60172860D01*
X128402983Y-60217138D01*
X128186859Y-60356210D01*
X128041869Y-60568410D01*
X127990860Y-60820300D01*
X127736340Y-60820300D01*
X127692062Y-60584983D01*
X127552990Y-60368859D01*
X127340790Y-60223869D01*
X127088900Y-60172860D01*
X126098300Y-60172860D01*
X125862983Y-60217138D01*
X125646859Y-60356210D01*
X125501869Y-60568410D01*
X125450860Y-60820300D01*
X125196340Y-60820300D01*
X125152062Y-60584983D01*
X125012990Y-60368859D01*
X124800790Y-60223869D01*
X124548900Y-60172860D01*
X123558300Y-60172860D01*
X123322983Y-60217138D01*
X123106859Y-60356210D01*
X122961869Y-60568410D01*
X122910860Y-60820300D01*
X122656340Y-60820300D01*
X122612062Y-60584983D01*
X122472990Y-60368859D01*
X122260790Y-60223869D01*
X122008900Y-60172860D01*
X121018300Y-60172860D01*
X120782983Y-60217138D01*
X120566859Y-60356210D01*
X120421869Y-60568410D01*
X120370860Y-60820300D01*
X120116340Y-60820300D01*
X120072062Y-60584983D01*
X119932990Y-60368859D01*
X119720790Y-60223869D01*
X119468900Y-60172860D01*
X118478300Y-60172860D01*
X118413600Y-60185034D01*
X118413600Y-51941483D01*
X118610007Y-51902415D01*
X118716021Y-51858502D01*
X118865949Y-51796400D01*
X119516936Y-51361423D01*
X119582231Y-51296127D01*
X119712823Y-51165536D01*
X120147800Y-50514549D01*
X120249518Y-50268980D01*
X120253815Y-50258607D01*
X120406558Y-49490714D01*
X120406558Y-49213686D01*
X120253815Y-48445793D01*
X120204930Y-48327776D01*
X120147800Y-48189851D01*
X119712823Y-47538864D01*
X119582231Y-47408273D01*
X119516936Y-47342977D01*
X118865949Y-46908000D01*
X118716021Y-46845898D01*
X118610007Y-46801985D01*
X118413600Y-46762917D01*
X118413600Y-41691573D01*
X144324591Y-41691573D01*
X144683123Y-42559286D01*
X145346422Y-43223744D01*
X146213508Y-43583789D01*
X147152373Y-43584609D01*
X148020086Y-43226077D01*
X148684544Y-42562778D01*
X149044589Y-41695692D01*
X149044592Y-41691573D01*
X151944591Y-41691573D01*
X152303123Y-42559286D01*
X152966422Y-43223744D01*
X153833508Y-43583789D01*
X154772373Y-43584609D01*
X155640086Y-43226077D01*
X156304544Y-42562778D01*
X156645205Y-41742373D01*
X159640791Y-41742373D01*
X159999323Y-42610086D01*
X160662622Y-43274544D01*
X161529708Y-43634589D01*
X162468573Y-43635409D01*
X163336286Y-43276877D01*
X164000744Y-42613578D01*
X164360789Y-41746492D01*
X164360792Y-41742373D01*
X167260791Y-41742373D01*
X167619323Y-42610086D01*
X168282622Y-43274544D01*
X169149708Y-43634589D01*
X170088573Y-43635409D01*
X170956286Y-43276877D01*
X171620744Y-42613578D01*
X171980789Y-41746492D01*
X171981609Y-40807627D01*
X171623077Y-39939914D01*
X170959778Y-39275456D01*
X170092692Y-38915411D01*
X169153827Y-38914591D01*
X168286114Y-39273123D01*
X167621656Y-39936422D01*
X167261611Y-40803508D01*
X167260791Y-41742373D01*
X164360792Y-41742373D01*
X164361609Y-40807627D01*
X164003077Y-39939914D01*
X163339778Y-39275456D01*
X162472692Y-38915411D01*
X161533827Y-38914591D01*
X160666114Y-39273123D01*
X160001656Y-39936422D01*
X159641611Y-40803508D01*
X159640791Y-41742373D01*
X156645205Y-41742373D01*
X156664589Y-41695692D01*
X156665409Y-40756827D01*
X156306877Y-39889114D01*
X155643578Y-39224656D01*
X154776492Y-38864611D01*
X153837627Y-38863791D01*
X152969914Y-39222323D01*
X152305456Y-39885622D01*
X151945411Y-40752708D01*
X151944591Y-41691573D01*
X149044592Y-41691573D01*
X149045409Y-40756827D01*
X148686877Y-39889114D01*
X148023578Y-39224656D01*
X147156492Y-38864611D01*
X146217627Y-38863791D01*
X145349914Y-39222323D01*
X144685456Y-39885622D01*
X144325411Y-40752708D01*
X144324591Y-41691573D01*
X118413600Y-41691573D01*
X118413600Y-39211331D01*
X118561885Y-38465851D01*
X118944551Y-37893151D01*
X119517251Y-37510485D01*
X120262731Y-37362200D01*
X223036801Y-37362200D01*
X222231857Y-37694796D01*
X222231857Y-37694796D01*
G37*
X222231857Y-37694796D02*
X221337935Y-38587159D01*
X220853552Y-39753683D01*
X220852450Y-41016776D01*
X221334796Y-42184143D01*
X222227159Y-43078065D01*
X223393683Y-43562448D01*
X224656776Y-43563550D01*
X225824143Y-43081204D01*
X226718065Y-42188841D01*
X227202448Y-41022317D01*
X227203550Y-39759224D01*
X226721204Y-38591857D01*
X225828841Y-37697935D01*
X225020301Y-37362200D01*
X239604469Y-37362200D01*
X240349949Y-37510485D01*
X240922649Y-37893151D01*
X241305315Y-38465851D01*
X241453600Y-39211331D01*
X241453600Y-46762917D01*
X241257193Y-46801985D01*
X241151179Y-46845898D01*
X241001251Y-46908000D01*
X240350264Y-47342977D01*
X240246042Y-47447200D01*
X240154377Y-47538864D01*
X239719400Y-48189851D01*
X239662270Y-48327776D01*
X239613385Y-48445793D01*
X239460642Y-49213686D01*
X239460643Y-49352200D01*
X239460642Y-49490714D01*
X239613385Y-50258607D01*
X239617682Y-50268980D01*
X239719400Y-50514549D01*
X240154377Y-51165536D01*
X240209128Y-51220286D01*
X240350264Y-51361423D01*
X241001251Y-51796400D01*
X241151179Y-51858502D01*
X241257193Y-51902415D01*
X241453600Y-51941483D01*
X241453600Y-87864869D01*
X241336252Y-88454822D01*
X241041679Y-88895682D01*
X240600823Y-89190251D01*
X240010874Y-89307600D01*
X224383600Y-89307600D01*
X224111895Y-89361646D01*
X223881554Y-89515554D01*
X223824800Y-89600493D01*
X223824800Y-89215907D01*
X224038041Y-89078690D01*
X224183031Y-88866490D01*
X224234040Y-88614600D01*
X224234040Y-87864600D01*
X224189762Y-87629283D01*
X224179776Y-87613764D01*
X235887569Y-87613764D01*
X235892587Y-87699341D01*
X235891029Y-87707560D01*
X235893867Y-87721181D01*
X235903784Y-87890317D01*
X236024598Y-88139614D01*
X236231617Y-88323700D01*
X236493324Y-88414551D01*
X236594419Y-88408624D01*
X236607440Y-88411091D01*
X238847719Y-88390771D01*
X238887700Y-88382441D01*
X238928424Y-88385431D01*
X239022210Y-88354414D01*
X239118923Y-88334263D01*
X239152671Y-88311268D01*
X239191441Y-88298446D01*
X239266215Y-88233902D01*
X239347859Y-88178272D01*
X239370240Y-88144109D01*
X239401149Y-88117429D01*
X239445535Y-88029178D01*
X239499671Y-87946544D01*
X239507274Y-87906425D01*
X239525624Y-87869940D01*
X239532858Y-87771417D01*
X239551251Y-87674360D01*
X239542921Y-87634380D01*
X239545911Y-87593655D01*
X239514894Y-87499868D01*
X239494743Y-87403157D01*
X239471749Y-87369410D01*
X239458926Y-87330638D01*
X238361646Y-85395158D01*
X238330817Y-85359442D01*
X238310242Y-85316987D01*
X238241094Y-85255499D01*
X238180629Y-85185450D01*
X238138479Y-85164251D01*
X238103223Y-85132900D01*
X238015811Y-85102555D01*
X237933140Y-85060976D01*
X237886084Y-85057521D01*
X237841516Y-85042049D01*
X237749140Y-85047465D01*
X237656856Y-85040689D01*
X237612065Y-85055502D01*
X237564962Y-85058264D01*
X237481690Y-85098620D01*
X237393838Y-85127674D01*
X237358121Y-85158504D01*
X237315666Y-85179079D01*
X237254179Y-85248226D01*
X237184130Y-85308691D01*
X237162931Y-85350841D01*
X237131580Y-85386097D01*
X235978420Y-87352057D01*
X235957259Y-87413014D01*
X235942609Y-87435376D01*
X235934330Y-87479063D01*
X235887569Y-87613764D01*
X224179776Y-87613764D01*
X224091457Y-87476513D01*
X224183031Y-87342490D01*
X224234040Y-87090600D01*
X224234040Y-86340600D01*
X224189762Y-86105283D01*
X224091457Y-85952513D01*
X224183031Y-85818490D01*
X224234040Y-85566600D01*
X224234040Y-84816600D01*
X224189762Y-84581283D01*
X224091457Y-84428513D01*
X224183031Y-84294490D01*
X224234040Y-84042600D01*
X224234040Y-83292600D01*
X224189762Y-83057283D01*
X224091457Y-82904513D01*
X224183031Y-82770490D01*
X224234040Y-82518600D01*
X224234040Y-81768600D01*
X224189762Y-81533283D01*
X224050690Y-81317159D01*
X223838490Y-81172169D01*
X223824800Y-81169397D01*
X223824800Y-67022194D01*
X229751497Y-61095497D01*
X229933196Y-60823566D01*
X229997000Y-60502800D01*
X229997000Y-53517800D01*
X229933196Y-53197035D01*
X229933196Y-53197034D01*
X229751497Y-52925103D01*
X226804963Y-49978569D01*
X227202448Y-49021317D01*
X227203550Y-47758224D01*
X226721204Y-46590857D01*
X225828841Y-45696935D01*
X224662317Y-45212552D01*
X223399224Y-45211450D01*
X223397893Y-45212000D01*
X220947371Y-45212000D01*
X220308898Y-45085000D01*
X188722000Y-45085000D01*
X187506980Y-45326682D01*
X186476936Y-46014936D01*
X184851336Y-47640536D01*
X184163082Y-48670580D01*
X183921400Y-49885600D01*
X183921400Y-56818176D01*
X183920850Y-57448576D01*
X184403196Y-58615943D01*
X185295559Y-59509865D01*
X186462083Y-59994248D01*
X187725176Y-59995350D01*
X188892543Y-59513004D01*
X189786465Y-58620641D01*
X190270848Y-57454117D01*
X190271950Y-56191024D01*
X190271400Y-56189693D01*
X190271400Y-51435000D01*
X204089000Y-51435000D01*
X204089000Y-53101698D01*
X204189600Y-53607449D01*
X204189600Y-56792776D01*
X204189050Y-57423176D01*
X204671396Y-58590543D01*
X205563759Y-59484465D01*
X206730283Y-59968848D01*
X207993376Y-59969950D01*
X209160743Y-59487604D01*
X210054665Y-58595241D01*
X210539048Y-57428717D01*
X210540150Y-56165624D01*
X210539600Y-56164293D01*
X210539600Y-53202298D01*
X210439000Y-52696547D01*
X210439000Y-51435000D01*
X219797425Y-51435000D01*
X220435898Y-51562000D01*
X224026376Y-51562000D01*
X224656776Y-51562550D01*
X225620113Y-51164507D01*
X228320600Y-53864994D01*
X228320600Y-60155606D01*
X222393903Y-66082303D01*
X222212204Y-66354234D01*
X222212204Y-66354235D01*
X222148400Y-66675000D01*
X222148400Y-81167293D01*
X221935159Y-81304510D01*
X221790169Y-81516710D01*
X221739160Y-81768600D01*
X221739160Y-82518600D01*
X221783438Y-82753917D01*
X221881743Y-82906687D01*
X221790169Y-83040710D01*
X221739160Y-83292600D01*
X221739160Y-84042600D01*
X221783438Y-84277917D01*
X221881743Y-84430687D01*
X221790169Y-84564710D01*
X221739160Y-84816600D01*
X221739160Y-85566600D01*
X221783438Y-85801917D01*
X221881743Y-85954687D01*
X221790169Y-86088710D01*
X221739160Y-86340600D01*
X221739160Y-87090600D01*
X221783438Y-87325917D01*
X221881743Y-87478687D01*
X221790169Y-87612710D01*
X221739160Y-87864600D01*
X221739160Y-88614600D01*
X221783438Y-88849917D01*
X221922510Y-89066041D01*
X222134710Y-89211031D01*
X222148400Y-89213803D01*
X222148400Y-107578406D01*
X216984569Y-112742237D01*
X216027317Y-112344752D01*
X214764224Y-112343650D01*
X213596857Y-112825996D01*
X212702935Y-113718359D01*
X212218552Y-114884883D01*
X212217450Y-116147976D01*
X212218000Y-116149307D01*
X212218000Y-119107275D01*
X212217000Y-119112302D01*
X212217000Y-119761000D01*
X198578200Y-119761000D01*
X198578200Y-115470024D01*
X198578750Y-114839624D01*
X198096404Y-113672257D01*
X197204041Y-112778335D01*
X196037517Y-112293952D01*
X194774424Y-112292850D01*
X193607057Y-112775196D01*
X192713135Y-113667559D01*
X192228752Y-114834083D01*
X192227650Y-116097176D01*
X192228200Y-116098507D01*
X192228200Y-122251200D01*
X192469882Y-123466220D01*
X193158136Y-124496264D01*
X193842936Y-125181064D01*
X194872980Y-125869318D01*
X196088000Y-126111000D01*
X219215473Y-126111000D01*
X220359698Y-126338600D01*
X223950176Y-126338600D01*
X224580576Y-126339150D01*
X225747943Y-125856804D01*
X226641865Y-124964441D01*
X227126248Y-123797917D01*
X227127350Y-122534824D01*
X226645004Y-121367457D01*
X225752641Y-120473535D01*
X224586117Y-119989152D01*
X223323024Y-119988050D01*
X223321693Y-119988600D01*
X221276323Y-119988600D01*
X220132098Y-119761000D01*
X218567000Y-119761000D01*
X218567000Y-119116329D01*
X218568000Y-119111302D01*
X218568000Y-115793376D01*
X220776250Y-115793376D01*
X221258596Y-116960743D01*
X222150959Y-117854665D01*
X223317483Y-118339048D01*
X224580576Y-118340150D01*
X225747943Y-117857804D01*
X226641865Y-116965441D01*
X227126248Y-115798917D01*
X227127350Y-114535824D01*
X226645004Y-113368457D01*
X225752641Y-112474535D01*
X224586117Y-111990152D01*
X223323024Y-111989050D01*
X222155657Y-112471396D01*
X221261735Y-113363759D01*
X220777352Y-114530283D01*
X220776250Y-115793376D01*
X218568000Y-115793376D01*
X218568000Y-115520824D01*
X218568550Y-114890424D01*
X218170507Y-113927087D01*
X223579297Y-108518297D01*
X223673600Y-108377163D01*
X223673600Y-110871000D01*
X223727646Y-111142705D01*
X223881554Y-111373046D01*
X224111895Y-111526954D01*
X224383600Y-111581000D01*
X240087069Y-111581000D01*
X240647865Y-111692549D01*
X241063998Y-111970602D01*
X241342051Y-112386735D01*
X241453600Y-112947531D01*
X241453600Y-120499117D01*
X241257193Y-120538185D01*
X241185214Y-120568000D01*
X241001251Y-120644200D01*
X240350264Y-121079177D01*
X240230578Y-121198864D01*
X240154377Y-121275064D01*
X239719400Y-121926051D01*
X239689209Y-121998939D01*
X239613385Y-122181993D01*
X239460642Y-122949886D01*
X239460643Y-123088400D01*
X239460642Y-123226914D01*
X239613385Y-123994807D01*
X239657298Y-124100821D01*
X239719400Y-124250749D01*
X240154377Y-124901736D01*
X240209128Y-124956486D01*
X240350264Y-125097623D01*
X241001251Y-125532600D01*
X241151179Y-125594702D01*
X241257193Y-125638615D01*
X241451776Y-125677320D01*
X241428418Y-133151973D01*
X241279915Y-133898549D01*
X240897249Y-134471249D01*
X240324549Y-134853915D01*
X239579069Y-135002200D01*
X120262731Y-135002200D01*
X119517251Y-134853915D01*
X118944551Y-134471249D01*
X118561885Y-133898549D01*
X118413600Y-133153069D01*
X118413600Y-131378973D01*
X144476991Y-131378973D01*
X144835523Y-132246686D01*
X145498822Y-132911144D01*
X146365908Y-133271189D01*
X147304773Y-133272009D01*
X148172486Y-132913477D01*
X148836944Y-132250178D01*
X149196989Y-131383092D01*
X149196992Y-131378973D01*
X152096991Y-131378973D01*
X152455523Y-132246686D01*
X153118822Y-132911144D01*
X153985908Y-133271189D01*
X154924773Y-133272009D01*
X155792486Y-132913477D01*
X156456944Y-132250178D01*
X156816989Y-131383092D01*
X156816992Y-131378973D01*
X159894791Y-131378973D01*
X160253323Y-132246686D01*
X160916622Y-132911144D01*
X161783708Y-133271189D01*
X162722573Y-133272009D01*
X163590286Y-132913477D01*
X164254744Y-132250178D01*
X164614789Y-131383092D01*
X164614792Y-131378973D01*
X167514791Y-131378973D01*
X167873323Y-132246686D01*
X168536622Y-132911144D01*
X169403708Y-133271189D01*
X170342573Y-133272009D01*
X171210286Y-132913477D01*
X171874744Y-132250178D01*
X172234789Y-131383092D01*
X172235609Y-130444227D01*
X171877077Y-129576514D01*
X171213778Y-128912056D01*
X170346692Y-128552011D01*
X169407827Y-128551191D01*
X168540114Y-128909723D01*
X167875656Y-129573022D01*
X167515611Y-130440108D01*
X167514791Y-131378973D01*
X164614792Y-131378973D01*
X164615609Y-130444227D01*
X164257077Y-129576514D01*
X163593778Y-128912056D01*
X162726692Y-128552011D01*
X161787827Y-128551191D01*
X160920114Y-128909723D01*
X160255656Y-129573022D01*
X159895611Y-130440108D01*
X159894791Y-131378973D01*
X156816992Y-131378973D01*
X156817809Y-130444227D01*
X156459277Y-129576514D01*
X155795978Y-128912056D01*
X154928892Y-128552011D01*
X153990027Y-128551191D01*
X153122314Y-128909723D01*
X152457856Y-129573022D01*
X152097811Y-130440108D01*
X152096991Y-131378973D01*
X149196992Y-131378973D01*
X149197809Y-130444227D01*
X148839277Y-129576514D01*
X148175978Y-128912056D01*
X147308892Y-128552011D01*
X146370027Y-128551191D01*
X145502314Y-128909723D01*
X144837856Y-129573022D01*
X144477811Y-130440108D01*
X144476991Y-131378973D01*
X118413600Y-131378973D01*
X118413600Y-125601483D01*
X118610007Y-125562415D01*
X118716021Y-125518502D01*
X118865949Y-125456400D01*
X119516936Y-125021423D01*
X119582231Y-124956127D01*
X119712823Y-124825536D01*
X120147800Y-124174549D01*
X120222251Y-123994808D01*
X120253815Y-123918607D01*
X120406558Y-123150714D01*
X120406558Y-122873686D01*
X120342623Y-122552261D01*
X149250158Y-122552261D01*
X149462390Y-123065903D01*
X149855030Y-123459229D01*
X150368300Y-123672357D01*
X150924061Y-123672842D01*
X151437703Y-123460610D01*
X151831029Y-123067970D01*
X151917349Y-122860088D01*
X152002390Y-123065903D01*
X152395030Y-123459229D01*
X152908300Y-123672357D01*
X153464061Y-123672842D01*
X153977703Y-123460610D01*
X154371029Y-123067970D01*
X154584157Y-122554700D01*
X154584159Y-122552261D01*
X164667958Y-122552261D01*
X164880190Y-123065903D01*
X165272830Y-123459229D01*
X165786100Y-123672357D01*
X166341861Y-123672842D01*
X166855503Y-123460610D01*
X167248829Y-123067970D01*
X167335149Y-122860088D01*
X167420190Y-123065903D01*
X167812830Y-123459229D01*
X168326100Y-123672357D01*
X168881861Y-123672842D01*
X169395503Y-123460610D01*
X169788829Y-123067970D01*
X170001957Y-122554700D01*
X170002442Y-121998939D01*
X169790210Y-121485297D01*
X169397570Y-121091971D01*
X168884300Y-120878843D01*
X168328539Y-120878358D01*
X167814897Y-121090590D01*
X167421571Y-121483230D01*
X167335251Y-121691112D01*
X167250210Y-121485297D01*
X166857570Y-121091971D01*
X166344300Y-120878843D01*
X165788539Y-120878358D01*
X165274897Y-121090590D01*
X164881571Y-121483230D01*
X164668443Y-121996500D01*
X164667958Y-122552261D01*
X154584159Y-122552261D01*
X154584642Y-121998939D01*
X154372410Y-121485297D01*
X153979770Y-121091971D01*
X153466500Y-120878843D01*
X152910739Y-120878358D01*
X152397097Y-121090590D01*
X152003771Y-121483230D01*
X151917451Y-121691112D01*
X151832410Y-121485297D01*
X151439770Y-121091971D01*
X150926500Y-120878843D01*
X150370739Y-120878358D01*
X149857097Y-121090590D01*
X149463771Y-121483230D01*
X149250643Y-121996500D01*
X149250158Y-122552261D01*
X120342623Y-122552261D01*
X120253815Y-122105793D01*
X120181372Y-121930901D01*
X120147800Y-121849851D01*
X119712823Y-121198864D01*
X119582231Y-121068273D01*
X119516936Y-121002977D01*
X118865949Y-120568000D01*
X118716021Y-120505898D01*
X118610007Y-120461985D01*
X118413600Y-120422917D01*
X118413600Y-112229238D01*
X118478300Y-112242340D01*
X119468900Y-112242340D01*
X119704217Y-112198062D01*
X119920341Y-112058990D01*
X120065331Y-111846790D01*
X120116340Y-111594900D01*
X120116340Y-109816900D01*
X120370860Y-109816900D01*
X120370860Y-111594900D01*
X120415138Y-111830217D01*
X120554210Y-112046341D01*
X120766410Y-112191331D01*
X121018300Y-112242340D01*
X122008900Y-112242340D01*
X122244217Y-112198062D01*
X122460341Y-112058990D01*
X122605331Y-111846790D01*
X122656340Y-111594900D01*
X122656340Y-109816900D01*
X122910860Y-109816900D01*
X122910860Y-111594900D01*
X122955138Y-111830217D01*
X123094210Y-112046341D01*
X123306410Y-112191331D01*
X123558300Y-112242340D01*
X124548900Y-112242340D01*
X124784217Y-112198062D01*
X125000341Y-112058990D01*
X125145331Y-111846790D01*
X125196340Y-111594900D01*
X125196340Y-109816900D01*
X125450860Y-109816900D01*
X125450860Y-111594900D01*
X125495138Y-111830217D01*
X125634210Y-112046341D01*
X125846410Y-112191331D01*
X126098300Y-112242340D01*
X127088900Y-112242340D01*
X127324217Y-112198062D01*
X127540341Y-112058990D01*
X127685331Y-111846790D01*
X127736340Y-111594900D01*
X127736340Y-109816900D01*
X127990860Y-109816900D01*
X127990860Y-111594900D01*
X128035138Y-111830217D01*
X128174210Y-112046341D01*
X128386410Y-112191331D01*
X128638300Y-112242340D01*
X129628900Y-112242340D01*
X129864217Y-112198062D01*
X130080341Y-112058990D01*
X130225331Y-111846790D01*
X130276340Y-111594900D01*
X130276340Y-109816900D01*
X130530860Y-109816900D01*
X130530860Y-111594900D01*
X130575138Y-111830217D01*
X130714210Y-112046341D01*
X130926410Y-112191331D01*
X131178300Y-112242340D01*
X132168900Y-112242340D01*
X132404217Y-112198062D01*
X132620341Y-112058990D01*
X132765331Y-111846790D01*
X132816340Y-111594900D01*
X132816340Y-109816900D01*
X133070860Y-109816900D01*
X133070860Y-111594900D01*
X133115138Y-111830217D01*
X133254210Y-112046341D01*
X133466410Y-112191331D01*
X133718300Y-112242340D01*
X134170946Y-112242340D01*
X137583303Y-115654697D01*
X137855235Y-115836396D01*
X138176000Y-115900200D01*
X167538400Y-115900200D01*
X167859166Y-115836396D01*
X168131097Y-115654697D01*
X169731297Y-114054497D01*
X169912996Y-113782565D01*
X169976800Y-113461800D01*
X169976800Y-109816900D01*
X181330860Y-109816900D01*
X181330860Y-111594900D01*
X181375138Y-111830217D01*
X181514210Y-112046341D01*
X181726410Y-112191331D01*
X181978300Y-112242340D01*
X182968900Y-112242340D01*
X183204217Y-112198062D01*
X183420341Y-112058990D01*
X183565331Y-111846790D01*
X183616340Y-111594900D01*
X183616340Y-109816900D01*
X183870860Y-109816900D01*
X183870860Y-111594900D01*
X183915138Y-111830217D01*
X184054210Y-112046341D01*
X184266410Y-112191331D01*
X184518300Y-112242340D01*
X185508900Y-112242340D01*
X185744217Y-112198062D01*
X185960341Y-112058990D01*
X186105331Y-111846790D01*
X186156340Y-111594900D01*
X186156340Y-109816900D01*
X186410860Y-109816900D01*
X186410860Y-111594900D01*
X186455138Y-111830217D01*
X186594210Y-112046341D01*
X186806410Y-112191331D01*
X187058300Y-112242340D01*
X188048900Y-112242340D01*
X188284217Y-112198062D01*
X188500341Y-112058990D01*
X188645331Y-111846790D01*
X188696340Y-111594900D01*
X188696340Y-109816900D01*
X188950860Y-109816900D01*
X188950860Y-111594900D01*
X188995138Y-111830217D01*
X189134210Y-112046341D01*
X189346410Y-112191331D01*
X189598300Y-112242340D01*
X190588900Y-112242340D01*
X190824217Y-112198062D01*
X191040341Y-112058990D01*
X191185331Y-111846790D01*
X191236340Y-111594900D01*
X191236340Y-109816900D01*
X191490860Y-109816900D01*
X191490860Y-111594900D01*
X191535138Y-111830217D01*
X191674210Y-112046341D01*
X191886410Y-112191331D01*
X192138300Y-112242340D01*
X193128900Y-112242340D01*
X193364217Y-112198062D01*
X193580341Y-112058990D01*
X193725331Y-111846790D01*
X193776340Y-111594900D01*
X193776340Y-109816900D01*
X194030860Y-109816900D01*
X194030860Y-111594900D01*
X194075138Y-111830217D01*
X194214210Y-112046341D01*
X194426410Y-112191331D01*
X194678300Y-112242340D01*
X195668900Y-112242340D01*
X195904217Y-112198062D01*
X196120341Y-112058990D01*
X196265331Y-111846790D01*
X196316340Y-111594900D01*
X196316340Y-109816900D01*
X196272062Y-109581583D01*
X196132990Y-109365459D01*
X195920790Y-109220469D01*
X195668900Y-109169460D01*
X194678300Y-109169460D01*
X194442983Y-109213738D01*
X194226859Y-109352810D01*
X194081869Y-109565010D01*
X194030860Y-109816900D01*
X193776340Y-109816900D01*
X193732062Y-109581583D01*
X193592990Y-109365459D01*
X193380790Y-109220469D01*
X193128900Y-109169460D01*
X192138300Y-109169460D01*
X191902983Y-109213738D01*
X191686859Y-109352810D01*
X191541869Y-109565010D01*
X191490860Y-109816900D01*
X191236340Y-109816900D01*
X191192062Y-109581583D01*
X191052990Y-109365459D01*
X190840790Y-109220469D01*
X190588900Y-109169460D01*
X189598300Y-109169460D01*
X189362983Y-109213738D01*
X189146859Y-109352810D01*
X189001869Y-109565010D01*
X188950860Y-109816900D01*
X188696340Y-109816900D01*
X188652062Y-109581583D01*
X188512990Y-109365459D01*
X188300790Y-109220469D01*
X188048900Y-109169460D01*
X187058300Y-109169460D01*
X186822983Y-109213738D01*
X186606859Y-109352810D01*
X186461869Y-109565010D01*
X186410860Y-109816900D01*
X186156340Y-109816900D01*
X186112062Y-109581583D01*
X185972990Y-109365459D01*
X185760790Y-109220469D01*
X185508900Y-109169460D01*
X184518300Y-109169460D01*
X184282983Y-109213738D01*
X184066859Y-109352810D01*
X183921869Y-109565010D01*
X183870860Y-109816900D01*
X183616340Y-109816900D01*
X183572062Y-109581583D01*
X183432990Y-109365459D01*
X183220790Y-109220469D01*
X182968900Y-109169460D01*
X181978300Y-109169460D01*
X181742983Y-109213738D01*
X181526859Y-109352810D01*
X181381869Y-109565010D01*
X181330860Y-109816900D01*
X169976800Y-109816900D01*
X169976800Y-105909594D01*
X170535252Y-106468046D01*
X170631483Y-106700943D01*
X170894273Y-106964192D01*
X171237801Y-107106838D01*
X171609767Y-107107162D01*
X171953543Y-106965117D01*
X172216792Y-106702327D01*
X172359438Y-106358799D01*
X172359762Y-105986833D01*
X172217717Y-105643057D01*
X171954927Y-105379808D01*
X171720430Y-105282436D01*
X171348400Y-104910406D01*
X171348400Y-104000300D01*
X181330860Y-104000300D01*
X181330860Y-105778300D01*
X181375138Y-106013617D01*
X181514210Y-106229741D01*
X181726410Y-106374731D01*
X181978300Y-106425740D01*
X182968900Y-106425740D01*
X183204217Y-106381462D01*
X183420341Y-106242390D01*
X183565331Y-106030190D01*
X183616340Y-105778300D01*
X183616340Y-104000300D01*
X183870860Y-104000300D01*
X183870860Y-105778300D01*
X183915138Y-106013617D01*
X184054210Y-106229741D01*
X184266410Y-106374731D01*
X184518300Y-106425740D01*
X185508900Y-106425740D01*
X185744217Y-106381462D01*
X185960341Y-106242390D01*
X186105331Y-106030190D01*
X186156340Y-105778300D01*
X186156340Y-104000300D01*
X186410860Y-104000300D01*
X186410860Y-105778300D01*
X186455138Y-106013617D01*
X186594210Y-106229741D01*
X186806410Y-106374731D01*
X187058300Y-106425740D01*
X188048900Y-106425740D01*
X188284217Y-106381462D01*
X188500341Y-106242390D01*
X188645331Y-106030190D01*
X188696340Y-105778300D01*
X188696340Y-104000300D01*
X188950860Y-104000300D01*
X188950860Y-105778300D01*
X188995138Y-106013617D01*
X189134210Y-106229741D01*
X189346410Y-106374731D01*
X189598300Y-106425740D01*
X190588900Y-106425740D01*
X190824217Y-106381462D01*
X191040341Y-106242390D01*
X191185331Y-106030190D01*
X191236340Y-105778300D01*
X191236340Y-104000300D01*
X191490860Y-104000300D01*
X191490860Y-105778300D01*
X191535138Y-106013617D01*
X191674210Y-106229741D01*
X191886410Y-106374731D01*
X192138300Y-106425740D01*
X193128900Y-106425740D01*
X193364217Y-106381462D01*
X193580341Y-106242390D01*
X193725331Y-106030190D01*
X193776340Y-105778300D01*
X193776340Y-104000300D01*
X194030860Y-104000300D01*
X194030860Y-105778300D01*
X194075138Y-106013617D01*
X194214210Y-106229741D01*
X194426410Y-106374731D01*
X194678300Y-106425740D01*
X195668900Y-106425740D01*
X195904217Y-106381462D01*
X196120341Y-106242390D01*
X196265331Y-106030190D01*
X196316340Y-105778300D01*
X196316340Y-104000300D01*
X196570860Y-104000300D01*
X196570860Y-105778300D01*
X196615138Y-106013617D01*
X196754210Y-106229741D01*
X196966410Y-106374731D01*
X197218300Y-106425740D01*
X198208900Y-106425740D01*
X198444217Y-106381462D01*
X198450200Y-106377612D01*
X198450200Y-109218324D01*
X198208900Y-109169460D01*
X197218300Y-109169460D01*
X196982983Y-109213738D01*
X196766859Y-109352810D01*
X196621869Y-109565010D01*
X196570860Y-109816900D01*
X196570860Y-111594900D01*
X196615138Y-111830217D01*
X196754210Y-112046341D01*
X196966410Y-112191331D01*
X197218300Y-112242340D01*
X198208900Y-112242340D01*
X198444217Y-112198062D01*
X198660341Y-112058990D01*
X198805331Y-111846790D01*
X198856340Y-111594900D01*
X198856340Y-111363502D01*
X199031135Y-111480296D01*
X199110860Y-111496154D01*
X199110860Y-111594900D01*
X199155138Y-111830217D01*
X199294210Y-112046341D01*
X199506410Y-112191331D01*
X199758300Y-112242340D01*
X200748900Y-112242340D01*
X200984217Y-112198062D01*
X201200341Y-112058990D01*
X201345331Y-111846790D01*
X201396340Y-111594900D01*
X201396340Y-109816900D01*
X201650860Y-109816900D01*
X201650860Y-111594900D01*
X201695138Y-111830217D01*
X201834210Y-112046341D01*
X202046410Y-112191331D01*
X202298300Y-112242340D01*
X203288900Y-112242340D01*
X203524217Y-112198062D01*
X203740341Y-112058990D01*
X203885331Y-111846790D01*
X203936340Y-111594900D01*
X203936340Y-109816900D01*
X203892062Y-109581583D01*
X203752990Y-109365459D01*
X203540790Y-109220469D01*
X203288900Y-109169460D01*
X202298300Y-109169460D01*
X202062983Y-109213738D01*
X201846859Y-109352810D01*
X201701869Y-109565010D01*
X201650860Y-109816900D01*
X201396340Y-109816900D01*
X201352062Y-109581583D01*
X201212990Y-109365459D01*
X201000790Y-109220469D01*
X200748900Y-109169460D01*
X200126600Y-109169460D01*
X200126600Y-106425740D01*
X200748900Y-106425740D01*
X200984217Y-106381462D01*
X201200341Y-106242390D01*
X201345331Y-106030190D01*
X201396340Y-105778300D01*
X201396340Y-104000300D01*
X201650860Y-104000300D01*
X201650860Y-105778300D01*
X201695138Y-106013617D01*
X201834210Y-106229741D01*
X202046410Y-106374731D01*
X202298300Y-106425740D01*
X203288900Y-106425740D01*
X203524217Y-106381462D01*
X203740341Y-106242390D01*
X203885331Y-106030190D01*
X203936340Y-105778300D01*
X203936340Y-104000300D01*
X204190860Y-104000300D01*
X204190860Y-105778300D01*
X204235138Y-106013617D01*
X204374210Y-106229741D01*
X204586410Y-106374731D01*
X204838300Y-106425740D01*
X205828900Y-106425740D01*
X206064217Y-106381462D01*
X206280341Y-106242390D01*
X206425331Y-106030190D01*
X206476340Y-105778300D01*
X206476340Y-104000300D01*
X206432062Y-103764983D01*
X206292990Y-103548859D01*
X206080790Y-103403869D01*
X205828900Y-103352860D01*
X204838300Y-103352860D01*
X204602983Y-103397138D01*
X204386859Y-103536210D01*
X204241869Y-103748410D01*
X204190860Y-104000300D01*
X203936340Y-104000300D01*
X203892062Y-103764983D01*
X203752990Y-103548859D01*
X203540790Y-103403869D01*
X203288900Y-103352860D01*
X202298300Y-103352860D01*
X202062983Y-103397138D01*
X201846859Y-103536210D01*
X201701869Y-103748410D01*
X201650860Y-104000300D01*
X201396340Y-104000300D01*
X201352062Y-103764983D01*
X201212990Y-103548859D01*
X201000790Y-103403869D01*
X200748900Y-103352860D01*
X200126600Y-103352860D01*
X200126600Y-91326128D01*
X200223238Y-91093399D01*
X200223562Y-90721433D01*
X200081517Y-90377657D01*
X199818727Y-90114408D01*
X199475199Y-89971762D01*
X199103233Y-89971438D01*
X198759457Y-90113483D01*
X198496208Y-90376273D01*
X198353562Y-90719801D01*
X198353238Y-91091767D01*
X198450200Y-91326434D01*
X198450200Y-103401724D01*
X198208900Y-103352860D01*
X197218300Y-103352860D01*
X196982983Y-103397138D01*
X196766859Y-103536210D01*
X196621869Y-103748410D01*
X196570860Y-104000300D01*
X196316340Y-104000300D01*
X196272062Y-103764983D01*
X196132990Y-103548859D01*
X195920790Y-103403869D01*
X195668900Y-103352860D01*
X194678300Y-103352860D01*
X194442983Y-103397138D01*
X194226859Y-103536210D01*
X194081869Y-103748410D01*
X194030860Y-104000300D01*
X193776340Y-104000300D01*
X193732062Y-103764983D01*
X193592990Y-103548859D01*
X193380790Y-103403869D01*
X193128900Y-103352860D01*
X192138300Y-103352860D01*
X191902983Y-103397138D01*
X191686859Y-103536210D01*
X191541869Y-103748410D01*
X191490860Y-104000300D01*
X191236340Y-104000300D01*
X191192062Y-103764983D01*
X191052990Y-103548859D01*
X190840790Y-103403869D01*
X190588900Y-103352860D01*
X189598300Y-103352860D01*
X189362983Y-103397138D01*
X189146859Y-103536210D01*
X189001869Y-103748410D01*
X188950860Y-104000300D01*
X188696340Y-104000300D01*
X188652062Y-103764983D01*
X188512990Y-103548859D01*
X188300790Y-103403869D01*
X188048900Y-103352860D01*
X187058300Y-103352860D01*
X186822983Y-103397138D01*
X186606859Y-103536210D01*
X186461869Y-103748410D01*
X186410860Y-104000300D01*
X186156340Y-104000300D01*
X186112062Y-103764983D01*
X185972990Y-103548859D01*
X185760790Y-103403869D01*
X185508900Y-103352860D01*
X184518300Y-103352860D01*
X184282983Y-103397138D01*
X184066859Y-103536210D01*
X183921869Y-103748410D01*
X183870860Y-104000300D01*
X183616340Y-104000300D01*
X183572062Y-103764983D01*
X183432990Y-103548859D01*
X183220790Y-103403869D01*
X182968900Y-103352860D01*
X181978300Y-103352860D01*
X181742983Y-103397138D01*
X181526859Y-103536210D01*
X181381869Y-103748410D01*
X181330860Y-104000300D01*
X171348400Y-104000300D01*
X171348400Y-92444800D01*
X176377057Y-92444800D01*
X176377057Y-98814800D01*
X194361343Y-98814800D01*
X194361343Y-92444800D01*
X176377057Y-92444800D01*
X171348400Y-92444800D01*
X171348400Y-86075714D01*
X171581039Y-85727546D01*
X171667436Y-85293200D01*
X171581039Y-84858854D01*
X171565395Y-84835441D01*
X171606631Y-84775090D01*
X171657640Y-84523200D01*
X171657640Y-83523200D01*
X171613362Y-83287883D01*
X171474290Y-83071759D01*
X171262090Y-82926769D01*
X171010200Y-82875760D01*
X170010200Y-82875760D01*
X169774883Y-82920038D01*
X169558759Y-83059110D01*
X169452128Y-83215169D01*
X169283034Y-83248804D01*
X169011103Y-83430503D01*
X168545903Y-83895703D01*
X168482640Y-83990383D01*
X168482640Y-83523200D01*
X168438362Y-83287883D01*
X168299290Y-83071759D01*
X168087090Y-82926769D01*
X167835200Y-82875760D01*
X166835200Y-82875760D01*
X166599883Y-82920038D01*
X166383759Y-83059110D01*
X166277128Y-83215169D01*
X166108034Y-83248804D01*
X165836103Y-83430503D01*
X165547412Y-83719194D01*
X165523303Y-83735303D01*
X165447103Y-83811503D01*
X165265404Y-84083434D01*
X165248352Y-84169160D01*
X165201600Y-84404200D01*
X165201600Y-86353185D01*
X165080317Y-86059657D01*
X164817527Y-85796408D01*
X164473999Y-85653762D01*
X164102033Y-85653438D01*
X163758257Y-85795483D01*
X163495008Y-86058273D01*
X163352362Y-86401801D01*
X163352038Y-86773767D01*
X163449000Y-87008434D01*
X163449000Y-105752472D01*
X163352362Y-105985201D01*
X163352038Y-106357167D01*
X163494083Y-106700943D01*
X163756873Y-106964192D01*
X164100401Y-107106838D01*
X164472367Y-107107162D01*
X164816143Y-106965117D01*
X165079392Y-106702327D01*
X165201600Y-106408019D01*
X165201600Y-110752406D01*
X162593806Y-113360200D01*
X140199594Y-113360200D01*
X139081734Y-112242340D01*
X139788900Y-112242340D01*
X140024217Y-112198062D01*
X140240341Y-112058990D01*
X140385331Y-111846790D01*
X140436340Y-111594900D01*
X140436340Y-109816900D01*
X140392062Y-109581583D01*
X140252990Y-109365459D01*
X140040790Y-109220469D01*
X139788900Y-109169460D01*
X138798300Y-109169460D01*
X138562983Y-109213738D01*
X138346859Y-109352810D01*
X138201869Y-109565010D01*
X138150860Y-109816900D01*
X138150860Y-111311466D01*
X137896340Y-111056946D01*
X137896340Y-109816900D01*
X137852062Y-109581583D01*
X137712990Y-109365459D01*
X137500790Y-109220469D01*
X137248900Y-109169460D01*
X136258300Y-109169460D01*
X136022983Y-109213738D01*
X135806859Y-109352810D01*
X135661869Y-109565010D01*
X135610860Y-109816900D01*
X135610860Y-111311466D01*
X135356340Y-111056946D01*
X135356340Y-109816900D01*
X135312062Y-109581583D01*
X135172990Y-109365459D01*
X134960790Y-109220469D01*
X134708900Y-109169460D01*
X133718300Y-109169460D01*
X133482983Y-109213738D01*
X133266859Y-109352810D01*
X133121869Y-109565010D01*
X133070860Y-109816900D01*
X132816340Y-109816900D01*
X132772062Y-109581583D01*
X132632990Y-109365459D01*
X132420790Y-109220469D01*
X132168900Y-109169460D01*
X131178300Y-109169460D01*
X130942983Y-109213738D01*
X130726859Y-109352810D01*
X130581869Y-109565010D01*
X130530860Y-109816900D01*
X130276340Y-109816900D01*
X130232062Y-109581583D01*
X130092990Y-109365459D01*
X129880790Y-109220469D01*
X129628900Y-109169460D01*
X128638300Y-109169460D01*
X128402983Y-109213738D01*
X128186859Y-109352810D01*
X128041869Y-109565010D01*
X127990860Y-109816900D01*
X127736340Y-109816900D01*
X127692062Y-109581583D01*
X127552990Y-109365459D01*
X127340790Y-109220469D01*
X127088900Y-109169460D01*
X126098300Y-109169460D01*
X125862983Y-109213738D01*
X125646859Y-109352810D01*
X125501869Y-109565010D01*
X125450860Y-109816900D01*
X125196340Y-109816900D01*
X125152062Y-109581583D01*
X125012990Y-109365459D01*
X124800790Y-109220469D01*
X124548900Y-109169460D01*
X123558300Y-109169460D01*
X123322983Y-109213738D01*
X123106859Y-109352810D01*
X122961869Y-109565010D01*
X122910860Y-109816900D01*
X122656340Y-109816900D01*
X122612062Y-109581583D01*
X122472990Y-109365459D01*
X122260790Y-109220469D01*
X122008900Y-109169460D01*
X121018300Y-109169460D01*
X120782983Y-109213738D01*
X120566859Y-109352810D01*
X120421869Y-109565010D01*
X120370860Y-109816900D01*
X120116340Y-109816900D01*
X120072062Y-109581583D01*
X119932990Y-109365459D01*
X119720790Y-109220469D01*
X119468900Y-109169460D01*
X118478300Y-109169460D01*
X118413600Y-109181634D01*
X118413600Y-106412638D01*
X118478300Y-106425740D01*
X119468900Y-106425740D01*
X119704217Y-106381462D01*
X119920341Y-106242390D01*
X120065331Y-106030190D01*
X120116340Y-105778300D01*
X120116340Y-104000300D01*
X120370860Y-104000300D01*
X120370860Y-105778300D01*
X120415138Y-106013617D01*
X120554210Y-106229741D01*
X120766410Y-106374731D01*
X121018300Y-106425740D01*
X122008900Y-106425740D01*
X122244217Y-106381462D01*
X122460341Y-106242390D01*
X122605331Y-106030190D01*
X122656340Y-105778300D01*
X122656340Y-104000300D01*
X122910860Y-104000300D01*
X122910860Y-105778300D01*
X122955138Y-106013617D01*
X123094210Y-106229741D01*
X123306410Y-106374731D01*
X123558300Y-106425740D01*
X124548900Y-106425740D01*
X124784217Y-106381462D01*
X125000341Y-106242390D01*
X125145331Y-106030190D01*
X125196340Y-105778300D01*
X125196340Y-104000300D01*
X125450860Y-104000300D01*
X125450860Y-105778300D01*
X125495138Y-106013617D01*
X125634210Y-106229741D01*
X125846410Y-106374731D01*
X126098300Y-106425740D01*
X127088900Y-106425740D01*
X127324217Y-106381462D01*
X127540341Y-106242390D01*
X127685331Y-106030190D01*
X127736340Y-105778300D01*
X127736340Y-104000300D01*
X127692062Y-103764983D01*
X127552990Y-103548859D01*
X127340790Y-103403869D01*
X127088900Y-103352860D01*
X126098300Y-103352860D01*
X125862983Y-103397138D01*
X125646859Y-103536210D01*
X125501869Y-103748410D01*
X125450860Y-104000300D01*
X125196340Y-104000300D01*
X125152062Y-103764983D01*
X125012990Y-103548859D01*
X124800790Y-103403869D01*
X124548900Y-103352860D01*
X123558300Y-103352860D01*
X123322983Y-103397138D01*
X123106859Y-103536210D01*
X122961869Y-103748410D01*
X122910860Y-104000300D01*
X122656340Y-104000300D01*
X122612062Y-103764983D01*
X122472990Y-103548859D01*
X122260790Y-103403869D01*
X122008900Y-103352860D01*
X121018300Y-103352860D01*
X120782983Y-103397138D01*
X120566859Y-103536210D01*
X120421869Y-103748410D01*
X120370860Y-104000300D01*
X120116340Y-104000300D01*
X120072062Y-103764983D01*
X119932990Y-103548859D01*
X119720790Y-103403869D01*
X119468900Y-103352860D01*
X118478300Y-103352860D01*
X118413600Y-103365034D01*
X118413600Y-85242400D01*
X134148564Y-85242400D01*
X134234961Y-85676746D01*
X134480998Y-86044966D01*
X134849218Y-86291003D01*
X135283564Y-86377400D01*
X135328036Y-86377400D01*
X135762382Y-86291003D01*
X136130602Y-86044966D01*
X136376639Y-85676746D01*
X136463036Y-85242400D01*
X136376639Y-84808054D01*
X136360995Y-84784641D01*
X136402231Y-84724290D01*
X136453240Y-84472400D01*
X136453240Y-83472400D01*
X136408962Y-83237083D01*
X136269890Y-83020959D01*
X136057690Y-82875969D01*
X135805800Y-82824960D01*
X134805800Y-82824960D01*
X134570483Y-82869238D01*
X134354359Y-83008310D01*
X134209369Y-83220510D01*
X134158360Y-83472400D01*
X134158360Y-84472400D01*
X134202638Y-84707717D01*
X134251386Y-84783473D01*
X134234961Y-84808054D01*
X134148564Y-85242400D01*
X118413600Y-85242400D01*
X118413600Y-69049238D01*
X118478300Y-69062340D01*
X119468900Y-69062340D01*
X119704217Y-69018062D01*
X119920341Y-68878990D01*
X120065331Y-68666790D01*
X120116340Y-68414900D01*
X120116340Y-66636900D01*
X120370860Y-66636900D01*
X120370860Y-68414900D01*
X120415138Y-68650217D01*
X120554210Y-68866341D01*
X120766410Y-69011331D01*
X121018300Y-69062340D01*
X122008900Y-69062340D01*
X122244217Y-69018062D01*
X122460341Y-68878990D01*
X122605331Y-68666790D01*
X122656340Y-68414900D01*
X122656340Y-66636900D01*
X122910860Y-66636900D01*
X122910860Y-68414900D01*
X122955138Y-68650217D01*
X123094210Y-68866341D01*
X123306410Y-69011331D01*
X123558300Y-69062340D01*
X124548900Y-69062340D01*
X124784217Y-69018062D01*
X125000341Y-68878990D01*
X125145331Y-68666790D01*
X125196340Y-68414900D01*
X125196340Y-66636900D01*
X125450860Y-66636900D01*
X125450860Y-68414900D01*
X125495138Y-68650217D01*
X125634210Y-68866341D01*
X125846410Y-69011331D01*
X126098300Y-69062340D01*
X127088900Y-69062340D01*
X127324217Y-69018062D01*
X127540341Y-68878990D01*
X127685331Y-68666790D01*
X127736340Y-68414900D01*
X127736340Y-66636900D01*
X127990860Y-66636900D01*
X127990860Y-68414900D01*
X128035138Y-68650217D01*
X128174210Y-68866341D01*
X128371600Y-69001212D01*
X128371600Y-69748400D01*
X128435404Y-70069166D01*
X128617103Y-70341097D01*
X128718703Y-70442697D01*
X128990634Y-70624396D01*
X129311400Y-70688200D01*
X147369441Y-70688200D01*
X147162808Y-70894473D01*
X147065436Y-71128970D01*
X137888103Y-80306303D01*
X137706404Y-80578234D01*
X137706404Y-80578235D01*
X137642600Y-80899000D01*
X137642600Y-82935441D01*
X137529359Y-83008310D01*
X137384369Y-83220510D01*
X137333360Y-83472400D01*
X137333360Y-84472400D01*
X137377638Y-84707717D01*
X137426386Y-84783473D01*
X137409961Y-84808054D01*
X137323564Y-85242400D01*
X137409961Y-85676746D01*
X137642600Y-86024914D01*
X137642600Y-86546206D01*
X136406406Y-87782400D01*
X131724400Y-87782400D01*
X131403635Y-87846204D01*
X131205246Y-87978763D01*
X131131703Y-88027903D01*
X128540903Y-90618703D01*
X128359204Y-90890634D01*
X128359204Y-90890635D01*
X128295400Y-91211400D01*
X128295400Y-103466366D01*
X128186859Y-103536210D01*
X128041869Y-103748410D01*
X127990860Y-104000300D01*
X127990860Y-105778300D01*
X128035138Y-106013617D01*
X128174210Y-106229741D01*
X128386410Y-106374731D01*
X128638300Y-106425740D01*
X129628900Y-106425740D01*
X129864217Y-106381462D01*
X130080341Y-106242390D01*
X130225331Y-106030190D01*
X130276340Y-105778300D01*
X130276340Y-104000300D01*
X130530860Y-104000300D01*
X130530860Y-105778300D01*
X130575138Y-106013617D01*
X130714210Y-106229741D01*
X130926410Y-106374731D01*
X131178300Y-106425740D01*
X132168900Y-106425740D01*
X132404217Y-106381462D01*
X132620341Y-106242390D01*
X132765331Y-106030190D01*
X132816340Y-105778300D01*
X132816340Y-104000300D01*
X133070860Y-104000300D01*
X133070860Y-105778300D01*
X133115138Y-106013617D01*
X133254210Y-106229741D01*
X133466410Y-106374731D01*
X133718300Y-106425740D01*
X134708900Y-106425740D01*
X134944217Y-106381462D01*
X135160341Y-106242390D01*
X135305331Y-106030190D01*
X135356340Y-105778300D01*
X135356340Y-104000300D01*
X135610860Y-104000300D01*
X135610860Y-105778300D01*
X135655138Y-106013617D01*
X135794210Y-106229741D01*
X136006410Y-106374731D01*
X136258300Y-106425740D01*
X137248900Y-106425740D01*
X137484217Y-106381462D01*
X137700341Y-106242390D01*
X137845331Y-106030190D01*
X137896340Y-105778300D01*
X137896340Y-104000300D01*
X138150860Y-104000300D01*
X138150860Y-105778300D01*
X138195138Y-106013617D01*
X138334210Y-106229741D01*
X138546410Y-106374731D01*
X138798300Y-106425740D01*
X139788900Y-106425740D01*
X140024217Y-106381462D01*
X140240341Y-106242390D01*
X140385331Y-106030190D01*
X140436340Y-105778300D01*
X140436340Y-104000300D01*
X140392062Y-103764983D01*
X140252990Y-103548859D01*
X140040790Y-103403869D01*
X139788900Y-103352860D01*
X138798300Y-103352860D01*
X138562983Y-103397138D01*
X138346859Y-103536210D01*
X138201869Y-103748410D01*
X138150860Y-104000300D01*
X137896340Y-104000300D01*
X137852062Y-103764983D01*
X137712990Y-103548859D01*
X137500790Y-103403869D01*
X137248900Y-103352860D01*
X136258300Y-103352860D01*
X136022983Y-103397138D01*
X135806859Y-103536210D01*
X135661869Y-103748410D01*
X135610860Y-104000300D01*
X135356340Y-104000300D01*
X135312062Y-103764983D01*
X135172990Y-103548859D01*
X134960790Y-103403869D01*
X134708900Y-103352860D01*
X133718300Y-103352860D01*
X133482983Y-103397138D01*
X133266859Y-103536210D01*
X133121869Y-103748410D01*
X133070860Y-104000300D01*
X132816340Y-104000300D01*
X132772062Y-103764983D01*
X132632990Y-103548859D01*
X132420790Y-103403869D01*
X132168900Y-103352860D01*
X131178300Y-103352860D01*
X130942983Y-103397138D01*
X130726859Y-103536210D01*
X130581869Y-103748410D01*
X130530860Y-104000300D01*
X130276340Y-104000300D01*
X130232062Y-103764983D01*
X130092990Y-103548859D01*
X129971800Y-103466053D01*
X129971800Y-91558594D01*
X132071594Y-89458800D01*
X136753600Y-89458800D01*
X137074366Y-89394996D01*
X137346297Y-89213297D01*
X139073497Y-87486097D01*
X139217400Y-87270731D01*
X139217400Y-101713872D01*
X139120762Y-101946601D01*
X139120438Y-102318567D01*
X139262483Y-102662343D01*
X139525273Y-102925592D01*
X139868801Y-103068238D01*
X140240767Y-103068562D01*
X140584543Y-102926517D01*
X140847792Y-102663727D01*
X140989123Y-102323365D01*
X141088503Y-102472097D01*
X141884052Y-103267646D01*
X141919262Y-103352860D01*
X141338300Y-103352860D01*
X141102983Y-103397138D01*
X140886859Y-103536210D01*
X140741869Y-103748410D01*
X140690860Y-104000300D01*
X140690860Y-105778300D01*
X140735138Y-106013617D01*
X140874210Y-106229741D01*
X141086410Y-106374731D01*
X141338300Y-106425740D01*
X142328900Y-106425740D01*
X142564217Y-106381462D01*
X142780341Y-106242390D01*
X142925331Y-106030190D01*
X142976340Y-105778300D01*
X142976340Y-104000300D01*
X142958727Y-103906696D01*
X143302343Y-103764717D01*
X143565592Y-103501927D01*
X143708238Y-103158399D01*
X143708562Y-102786433D01*
X143566517Y-102442657D01*
X143303727Y-102179408D01*
X143069230Y-102082036D01*
X142519400Y-101532206D01*
X142519400Y-86050314D01*
X142752039Y-85702146D01*
X142838436Y-85267800D01*
X143698964Y-85267800D01*
X143785361Y-85702146D01*
X144018000Y-86050314D01*
X144018000Y-100304600D01*
X144081804Y-100625366D01*
X144263503Y-100897297D01*
X145363852Y-101997646D01*
X145460083Y-102230543D01*
X145722873Y-102493792D01*
X146066401Y-102636438D01*
X146438367Y-102636762D01*
X146782143Y-102494717D01*
X147045392Y-102231927D01*
X147188038Y-101888399D01*
X147188362Y-101516433D01*
X147046317Y-101172657D01*
X146783527Y-100909408D01*
X146549030Y-100812036D01*
X145694400Y-99957406D01*
X145694400Y-86050314D01*
X145927039Y-85702146D01*
X146013436Y-85267800D01*
X145927039Y-84833454D01*
X145911395Y-84810041D01*
X145952631Y-84749690D01*
X146003640Y-84497800D01*
X146003640Y-83497800D01*
X145959362Y-83262483D01*
X145820290Y-83046359D01*
X145608090Y-82901369D01*
X145356200Y-82850360D01*
X144356200Y-82850360D01*
X144120883Y-82894638D01*
X143904759Y-83033710D01*
X143759769Y-83245910D01*
X143708760Y-83497800D01*
X143708760Y-84497800D01*
X143753038Y-84733117D01*
X143801786Y-84808873D01*
X143785361Y-84833454D01*
X143698964Y-85267800D01*
X142838436Y-85267800D01*
X142752039Y-84833454D01*
X142736395Y-84810041D01*
X142777631Y-84749690D01*
X142828640Y-84497800D01*
X142828640Y-83497800D01*
X142784362Y-83262483D01*
X142645290Y-83046359D01*
X142433090Y-82901369D01*
X142181200Y-82850360D01*
X141181200Y-82850360D01*
X140945883Y-82894638D01*
X140729759Y-83033710D01*
X140584769Y-83245910D01*
X140533760Y-83497800D01*
X140533760Y-83933566D01*
X139979897Y-83379703D01*
X139707966Y-83198004D01*
X139536922Y-83163981D01*
X139444890Y-83020959D01*
X139319000Y-82934942D01*
X139319000Y-81246194D01*
X148251046Y-72314148D01*
X148374834Y-72263000D01*
X171585406Y-72263000D01*
X171805600Y-72483194D01*
X171805600Y-84958906D01*
X171869404Y-85279672D01*
X172051103Y-85551603D01*
X172385397Y-85885897D01*
X172657328Y-86067596D01*
X172886445Y-86113170D01*
X173228618Y-86341803D01*
X173662964Y-86428200D01*
X173707436Y-86428200D01*
X174141782Y-86341803D01*
X174510002Y-86095766D01*
X174756039Y-85727546D01*
X174842436Y-85293200D01*
X174756039Y-84858854D01*
X174740395Y-84835441D01*
X174781631Y-84775090D01*
X174832640Y-84523200D01*
X174832640Y-84074000D01*
X175702964Y-84074000D01*
X175789361Y-84508346D01*
X175805005Y-84531759D01*
X175763769Y-84592110D01*
X175712760Y-84844000D01*
X175712760Y-85844000D01*
X175757038Y-86079317D01*
X175896110Y-86295441D01*
X176108310Y-86440431D01*
X176360200Y-86491440D01*
X177360200Y-86491440D01*
X177595517Y-86447162D01*
X177811641Y-86308090D01*
X177956631Y-86095890D01*
X178007640Y-85844000D01*
X178007640Y-84844000D01*
X177963362Y-84608683D01*
X177914614Y-84532927D01*
X177931039Y-84508346D01*
X178017436Y-84074000D01*
X177931039Y-83639654D01*
X177685002Y-83271434D01*
X177316782Y-83025397D01*
X176882436Y-82939000D01*
X176837964Y-82939000D01*
X176403618Y-83025397D01*
X176035398Y-83271434D01*
X175789361Y-83639654D01*
X175702964Y-84074000D01*
X174832640Y-84074000D01*
X174832640Y-83523200D01*
X174788362Y-83287883D01*
X174649290Y-83071759D01*
X174437090Y-82926769D01*
X174185200Y-82875760D01*
X173482000Y-82875760D01*
X173482000Y-72136000D01*
X173418196Y-71815235D01*
X173266394Y-71588047D01*
X173473001Y-71673838D01*
X173844967Y-71674162D01*
X174188743Y-71532117D01*
X174451992Y-71269327D01*
X174594638Y-70925799D01*
X174594962Y-70553833D01*
X174452917Y-70210057D01*
X174190127Y-69946808D01*
X173955630Y-69849436D01*
X173363497Y-69257303D01*
X173091566Y-69075604D01*
X172770800Y-69011800D01*
X142573948Y-69011800D01*
X142780341Y-68878990D01*
X142925331Y-68666790D01*
X142976340Y-68414900D01*
X142976340Y-66636900D01*
X181330860Y-66636900D01*
X181330860Y-68414900D01*
X181375138Y-68650217D01*
X181514210Y-68866341D01*
X181726410Y-69011331D01*
X181978300Y-69062340D01*
X182968900Y-69062340D01*
X183204217Y-69018062D01*
X183420341Y-68878990D01*
X183565331Y-68666790D01*
X183616340Y-68414900D01*
X183616340Y-66636900D01*
X183870860Y-66636900D01*
X183870860Y-68414900D01*
X183915138Y-68650217D01*
X184054210Y-68866341D01*
X184266410Y-69011331D01*
X184518300Y-69062340D01*
X185508900Y-69062340D01*
X185744217Y-69018062D01*
X185960341Y-68878990D01*
X186105331Y-68666790D01*
X186156340Y-68414900D01*
X186156340Y-66636900D01*
X186410860Y-66636900D01*
X186410860Y-68414900D01*
X186455138Y-68650217D01*
X186594210Y-68866341D01*
X186806410Y-69011331D01*
X187058300Y-69062340D01*
X188048900Y-69062340D01*
X188284217Y-69018062D01*
X188500341Y-68878990D01*
X188645331Y-68666790D01*
X188696340Y-68414900D01*
X188696340Y-66636900D01*
X188950860Y-66636900D01*
X188950860Y-68414900D01*
X188995138Y-68650217D01*
X189134210Y-68866341D01*
X189346410Y-69011331D01*
X189598300Y-69062340D01*
X190588900Y-69062340D01*
X190824217Y-69018062D01*
X191040341Y-68878990D01*
X191185331Y-68666790D01*
X191236340Y-68414900D01*
X191236340Y-66636900D01*
X191490860Y-66636900D01*
X191490860Y-68414900D01*
X191535138Y-68650217D01*
X191674210Y-68866341D01*
X191886410Y-69011331D01*
X192138300Y-69062340D01*
X193128900Y-69062340D01*
X193364217Y-69018062D01*
X193580341Y-68878990D01*
X193725331Y-68666790D01*
X193776340Y-68414900D01*
X193776340Y-66636900D01*
X194030860Y-66636900D01*
X194030860Y-68414900D01*
X194075138Y-68650217D01*
X194214210Y-68866341D01*
X194426410Y-69011331D01*
X194678300Y-69062340D01*
X195668900Y-69062340D01*
X195904217Y-69018062D01*
X196120341Y-68878990D01*
X196265331Y-68666790D01*
X196316340Y-68414900D01*
X196316340Y-66636900D01*
X196570860Y-66636900D01*
X196570860Y-68414900D01*
X196615138Y-68650217D01*
X196754210Y-68866341D01*
X196966410Y-69011331D01*
X197218300Y-69062340D01*
X198145400Y-69062340D01*
X198145400Y-82321935D01*
X198099057Y-82341083D01*
X197835808Y-82603873D01*
X197693162Y-82947401D01*
X197692838Y-83319367D01*
X197834883Y-83663143D01*
X198097673Y-83926392D01*
X198441201Y-84069038D01*
X198813167Y-84069362D01*
X199156943Y-83927317D01*
X199420192Y-83664527D01*
X199517564Y-83430030D01*
X199576297Y-83371297D01*
X199757996Y-83099366D01*
X199821800Y-82778600D01*
X199821800Y-69062340D01*
X200748900Y-69062340D01*
X200984217Y-69018062D01*
X201200341Y-68878990D01*
X201345331Y-68666790D01*
X201396340Y-68414900D01*
X201396340Y-66636900D01*
X201352062Y-66401583D01*
X201212990Y-66185459D01*
X201000790Y-66040469D01*
X200748900Y-65989460D01*
X199821800Y-65989460D01*
X199821800Y-64634594D01*
X199947796Y-64508598D01*
X199973370Y-64470324D01*
X200846297Y-63597397D01*
X201027996Y-63325466D01*
X201062708Y-63150954D01*
X201200341Y-63062390D01*
X201345331Y-62850190D01*
X201396340Y-62598300D01*
X201396340Y-60820300D01*
X201650860Y-60820300D01*
X201650860Y-62598300D01*
X201695138Y-62833617D01*
X201834210Y-63049741D01*
X202046410Y-63194731D01*
X202298300Y-63245740D01*
X203288900Y-63245740D01*
X203524217Y-63201462D01*
X203740341Y-63062390D01*
X203885331Y-62850190D01*
X203936340Y-62598300D01*
X203936340Y-60820300D01*
X204190860Y-60820300D01*
X204190860Y-62598300D01*
X204235138Y-62833617D01*
X204374210Y-63049741D01*
X204524830Y-63152655D01*
X204559204Y-63325466D01*
X204740903Y-63597397D01*
X206070200Y-64926694D01*
X206070200Y-66038324D01*
X205828900Y-65989460D01*
X204838300Y-65989460D01*
X204602983Y-66033738D01*
X204386859Y-66172810D01*
X204241869Y-66385010D01*
X204190860Y-66636900D01*
X204190860Y-68414900D01*
X204235138Y-68650217D01*
X204374210Y-68866341D01*
X204586410Y-69011331D01*
X204838300Y-69062340D01*
X205828900Y-69062340D01*
X206064217Y-69018062D01*
X206070200Y-69014212D01*
X206070200Y-72728606D01*
X204664703Y-74134103D01*
X204483004Y-74406034D01*
X204483004Y-74406035D01*
X204419200Y-74726800D01*
X204419200Y-85852000D01*
X204483004Y-86172766D01*
X204664703Y-86444697D01*
X205714784Y-87494778D01*
X205714358Y-87982861D01*
X205926590Y-88496503D01*
X206273400Y-88843919D01*
X206273400Y-94834000D01*
X206337204Y-95154766D01*
X206518903Y-95426697D01*
X206909503Y-95817297D01*
X207181435Y-95998996D01*
X207389374Y-96040358D01*
X207444510Y-96126041D01*
X207656710Y-96271031D01*
X207670400Y-96273803D01*
X207670400Y-106514472D01*
X207573762Y-106747201D01*
X207573438Y-107119167D01*
X207715483Y-107462943D01*
X207978273Y-107726192D01*
X208321801Y-107868838D01*
X208693767Y-107869162D01*
X209037543Y-107727117D01*
X209300792Y-107464327D01*
X209443438Y-107120799D01*
X209443762Y-106748833D01*
X209346800Y-106514166D01*
X209346800Y-96275907D01*
X209560041Y-96138690D01*
X209607734Y-96068889D01*
X209644510Y-96126041D01*
X209856710Y-96271031D01*
X210108600Y-96322040D01*
X211308600Y-96322040D01*
X211543917Y-96277762D01*
X211760041Y-96138690D01*
X211829249Y-96037400D01*
X211966560Y-96037400D01*
X211966560Y-96049200D01*
X212010838Y-96284517D01*
X212149910Y-96500641D01*
X212362110Y-96645631D01*
X212614000Y-96696640D01*
X214614000Y-96696640D01*
X214849317Y-96652362D01*
X215065441Y-96513290D01*
X215210431Y-96301090D01*
X215261440Y-96049200D01*
X215261440Y-94349200D01*
X215217162Y-94113883D01*
X215078090Y-93897759D01*
X214865890Y-93752769D01*
X214614000Y-93701760D01*
X212614000Y-93701760D01*
X212378683Y-93746038D01*
X212162559Y-93885110D01*
X212017569Y-94097310D01*
X211966560Y-94349200D01*
X211966560Y-94361000D01*
X211797040Y-94361000D01*
X211772690Y-94323159D01*
X211560490Y-94178169D01*
X211308600Y-94127160D01*
X210108600Y-94127160D01*
X209873283Y-94171438D01*
X209657159Y-94310510D01*
X209609466Y-94380311D01*
X209572690Y-94323159D01*
X209360490Y-94178169D01*
X209108600Y-94127160D01*
X207949800Y-94127160D01*
X207949800Y-89001600D01*
X210656493Y-89001600D01*
X210793710Y-89214841D01*
X211005910Y-89359831D01*
X211257800Y-89410840D01*
X212007800Y-89410840D01*
X212243117Y-89366562D01*
X212395887Y-89268257D01*
X212529910Y-89359831D01*
X212781800Y-89410840D01*
X213531800Y-89410840D01*
X213767117Y-89366562D01*
X213919887Y-89268257D01*
X214053910Y-89359831D01*
X214305800Y-89410840D01*
X215055800Y-89410840D01*
X215291117Y-89366562D01*
X215443887Y-89268257D01*
X215577910Y-89359831D01*
X215829800Y-89410840D01*
X216579800Y-89410840D01*
X216815117Y-89366562D01*
X216967887Y-89268257D01*
X217101910Y-89359831D01*
X217353800Y-89410840D01*
X218103800Y-89410840D01*
X218339117Y-89366562D01*
X218555241Y-89227490D01*
X218700231Y-89015290D01*
X218751240Y-88763400D01*
X218751240Y-87563400D01*
X218706962Y-87328083D01*
X218567890Y-87111959D01*
X218355690Y-86966969D01*
X218103800Y-86915960D01*
X217353800Y-86915960D01*
X217118483Y-86960238D01*
X216965713Y-87058543D01*
X216831690Y-86966969D01*
X216579800Y-86915960D01*
X215829800Y-86915960D01*
X215594483Y-86960238D01*
X215441713Y-87058543D01*
X215307690Y-86966969D01*
X215055800Y-86915960D01*
X214305800Y-86915960D01*
X214070483Y-86960238D01*
X213917713Y-87058543D01*
X213783690Y-86966969D01*
X213531800Y-86915960D01*
X212781800Y-86915960D01*
X212546483Y-86960238D01*
X212393713Y-87058543D01*
X212259690Y-86966969D01*
X212007800Y-86915960D01*
X211257800Y-86915960D01*
X211022483Y-86960238D01*
X210806359Y-87099310D01*
X210661369Y-87311510D01*
X210658597Y-87325200D01*
X208465730Y-87325200D01*
X208296610Y-86915897D01*
X207903970Y-86522571D01*
X207390700Y-86309443D01*
X206899809Y-86309015D01*
X206095600Y-85504806D01*
X206095600Y-83585808D01*
X206319230Y-83809829D01*
X206832500Y-84022957D01*
X207388261Y-84023442D01*
X207901903Y-83811210D01*
X208295229Y-83418570D01*
X208369045Y-83240800D01*
X210656493Y-83240800D01*
X210793710Y-83454041D01*
X211005910Y-83599031D01*
X211257800Y-83650040D01*
X212007800Y-83650040D01*
X212243117Y-83605762D01*
X212395887Y-83507457D01*
X212529910Y-83599031D01*
X212781800Y-83650040D01*
X213531800Y-83650040D01*
X213767117Y-83605762D01*
X213919887Y-83507457D01*
X214053910Y-83599031D01*
X214305800Y-83650040D01*
X215055800Y-83650040D01*
X215291117Y-83605762D01*
X215443887Y-83507457D01*
X215577910Y-83599031D01*
X215829800Y-83650040D01*
X216579800Y-83650040D01*
X216815117Y-83605762D01*
X216967887Y-83507457D01*
X217101910Y-83599031D01*
X217353800Y-83650040D01*
X218103800Y-83650040D01*
X218339117Y-83605762D01*
X218555241Y-83466690D01*
X218700231Y-83254490D01*
X218751240Y-83002600D01*
X218751240Y-81802600D01*
X218706962Y-81567283D01*
X218567890Y-81351159D01*
X218355690Y-81206169D01*
X218103800Y-81155160D01*
X217353800Y-81155160D01*
X217118483Y-81199438D01*
X216965713Y-81297743D01*
X216831690Y-81206169D01*
X216579800Y-81155160D01*
X215829800Y-81155160D01*
X215594483Y-81199438D01*
X215441713Y-81297743D01*
X215307690Y-81206169D01*
X215055800Y-81155160D01*
X214305800Y-81155160D01*
X214070483Y-81199438D01*
X213917713Y-81297743D01*
X213783690Y-81206169D01*
X213531800Y-81155160D01*
X212781800Y-81155160D01*
X212546483Y-81199438D01*
X212393713Y-81297743D01*
X212259690Y-81206169D01*
X212007800Y-81155160D01*
X211257800Y-81155160D01*
X211022483Y-81199438D01*
X210806359Y-81338510D01*
X210661369Y-81550710D01*
X210658597Y-81564400D01*
X208025587Y-81564400D01*
X207903970Y-81442571D01*
X207390700Y-81229443D01*
X206834939Y-81228958D01*
X206321297Y-81441190D01*
X206095600Y-81666493D01*
X206095600Y-75073994D01*
X207501097Y-73668497D01*
X207682796Y-73396565D01*
X207746600Y-73075800D01*
X207746600Y-64579500D01*
X207682796Y-64258735D01*
X207501097Y-63986803D01*
X206400632Y-62886338D01*
X206425331Y-62850190D01*
X206476340Y-62598300D01*
X206476340Y-60820300D01*
X206432062Y-60584983D01*
X206292990Y-60368859D01*
X206080790Y-60223869D01*
X205828900Y-60172860D01*
X204838300Y-60172860D01*
X204602983Y-60217138D01*
X204386859Y-60356210D01*
X204241869Y-60568410D01*
X204190860Y-60820300D01*
X203936340Y-60820300D01*
X203892062Y-60584983D01*
X203752990Y-60368859D01*
X203540790Y-60223869D01*
X203288900Y-60172860D01*
X202298300Y-60172860D01*
X202062983Y-60217138D01*
X201846859Y-60356210D01*
X201701869Y-60568410D01*
X201650860Y-60820300D01*
X201396340Y-60820300D01*
X201352062Y-60584983D01*
X201212990Y-60368859D01*
X201000790Y-60223869D01*
X200748900Y-60172860D01*
X199758300Y-60172860D01*
X199522983Y-60217138D01*
X199306859Y-60356210D01*
X199161869Y-60568410D01*
X199110860Y-60820300D01*
X199110860Y-62598300D01*
X199155138Y-62833617D01*
X199188086Y-62884820D01*
X198762402Y-63310504D01*
X198736828Y-63348778D01*
X198390903Y-63694703D01*
X198209204Y-63966634D01*
X198166747Y-64180083D01*
X198145400Y-64287400D01*
X198145400Y-65989460D01*
X197218300Y-65989460D01*
X196982983Y-66033738D01*
X196766859Y-66172810D01*
X196621869Y-66385010D01*
X196570860Y-66636900D01*
X196316340Y-66636900D01*
X196272062Y-66401583D01*
X196132990Y-66185459D01*
X195920790Y-66040469D01*
X195668900Y-65989460D01*
X194678300Y-65989460D01*
X194442983Y-66033738D01*
X194226859Y-66172810D01*
X194081869Y-66385010D01*
X194030860Y-66636900D01*
X193776340Y-66636900D01*
X193732062Y-66401583D01*
X193592990Y-66185459D01*
X193380790Y-66040469D01*
X193128900Y-65989460D01*
X192138300Y-65989460D01*
X191902983Y-66033738D01*
X191686859Y-66172810D01*
X191541869Y-66385010D01*
X191490860Y-66636900D01*
X191236340Y-66636900D01*
X191192062Y-66401583D01*
X191052990Y-66185459D01*
X190840790Y-66040469D01*
X190588900Y-65989460D01*
X189598300Y-65989460D01*
X189362983Y-66033738D01*
X189146859Y-66172810D01*
X189001869Y-66385010D01*
X188950860Y-66636900D01*
X188696340Y-66636900D01*
X188652062Y-66401583D01*
X188512990Y-66185459D01*
X188300790Y-66040469D01*
X188048900Y-65989460D01*
X187058300Y-65989460D01*
X186822983Y-66033738D01*
X186606859Y-66172810D01*
X186461869Y-66385010D01*
X186410860Y-66636900D01*
X186156340Y-66636900D01*
X186112062Y-66401583D01*
X185972990Y-66185459D01*
X185760790Y-66040469D01*
X185508900Y-65989460D01*
X184518300Y-65989460D01*
X184282983Y-66033738D01*
X184066859Y-66172810D01*
X183921869Y-66385010D01*
X183870860Y-66636900D01*
X183616340Y-66636900D01*
X183572062Y-66401583D01*
X183432990Y-66185459D01*
X183220790Y-66040469D01*
X182968900Y-65989460D01*
X181978300Y-65989460D01*
X181742983Y-66033738D01*
X181526859Y-66172810D01*
X181381869Y-66385010D01*
X181330860Y-66636900D01*
X142976340Y-66636900D01*
X142932062Y-66401583D01*
X142792990Y-66185459D01*
X142580790Y-66040469D01*
X142328900Y-65989460D01*
X141338300Y-65989460D01*
X141102983Y-66033738D01*
X140886859Y-66172810D01*
X140741869Y-66385010D01*
X140690860Y-66636900D01*
X140690860Y-68414900D01*
X140735138Y-68650217D01*
X140874210Y-68866341D01*
X141086410Y-69011331D01*
X141088726Y-69011800D01*
X137493948Y-69011800D01*
X137700341Y-68878990D01*
X137845331Y-68666790D01*
X137896340Y-68414900D01*
X137896340Y-66636900D01*
X137852062Y-66401583D01*
X137712990Y-66185459D01*
X137500790Y-66040469D01*
X137248900Y-65989460D01*
X136258300Y-65989460D01*
X136022983Y-66033738D01*
X135806859Y-66172810D01*
X135661869Y-66385010D01*
X135610860Y-66636900D01*
X135610860Y-68414900D01*
X135655138Y-68650217D01*
X135794210Y-68866341D01*
X136006410Y-69011331D01*
X136008726Y-69011800D01*
X134953948Y-69011800D01*
X135160341Y-68878990D01*
X135305331Y-68666790D01*
X135356340Y-68414900D01*
X135356340Y-66636900D01*
X135312062Y-66401583D01*
X135172990Y-66185459D01*
X134960790Y-66040469D01*
X134708900Y-65989460D01*
X133718300Y-65989460D01*
X133482983Y-66033738D01*
X133266859Y-66172810D01*
X133121869Y-66385010D01*
X133070860Y-66636900D01*
X133070860Y-68414900D01*
X133115138Y-68650217D01*
X133254210Y-68866341D01*
X133466410Y-69011331D01*
X133468726Y-69011800D01*
X132413948Y-69011800D01*
X132620341Y-68878990D01*
X132765331Y-68666790D01*
X132816340Y-68414900D01*
X132816340Y-66636900D01*
X132772062Y-66401583D01*
X132632990Y-66185459D01*
X132420790Y-66040469D01*
X132168900Y-65989460D01*
X131178300Y-65989460D01*
X130942983Y-66033738D01*
X130726859Y-66172810D01*
X130581869Y-66385010D01*
X130530860Y-66636900D01*
X130530860Y-68414900D01*
X130575138Y-68650217D01*
X130714210Y-68866341D01*
X130926410Y-69011331D01*
X130928726Y-69011800D01*
X130048000Y-69011800D01*
X130048000Y-68899801D01*
X130080341Y-68878990D01*
X130225331Y-68666790D01*
X130276340Y-68414900D01*
X130276340Y-66636900D01*
X130232062Y-66401583D01*
X130092990Y-66185459D01*
X129880790Y-66040469D01*
X129628900Y-65989460D01*
X128638300Y-65989460D01*
X128402983Y-66033738D01*
X128186859Y-66172810D01*
X128041869Y-66385010D01*
X127990860Y-66636900D01*
X127736340Y-66636900D01*
X127692062Y-66401583D01*
X127552990Y-66185459D01*
X127340790Y-66040469D01*
X127088900Y-65989460D01*
X126098300Y-65989460D01*
X125862983Y-66033738D01*
X125646859Y-66172810D01*
X125501869Y-66385010D01*
X125450860Y-66636900D01*
X125196340Y-66636900D01*
X125152062Y-66401583D01*
X125012990Y-66185459D01*
X124800790Y-66040469D01*
X124548900Y-65989460D01*
X123558300Y-65989460D01*
X123322983Y-66033738D01*
X123106859Y-66172810D01*
X122961869Y-66385010D01*
X122910860Y-66636900D01*
X122656340Y-66636900D01*
X122612062Y-66401583D01*
X122472990Y-66185459D01*
X122260790Y-66040469D01*
X122008900Y-65989460D01*
X121018300Y-65989460D01*
X120782983Y-66033738D01*
X120566859Y-66172810D01*
X120421869Y-66385010D01*
X120370860Y-66636900D01*
X120116340Y-66636900D01*
X120072062Y-66401583D01*
X119932990Y-66185459D01*
X119720790Y-66040469D01*
X119468900Y-65989460D01*
X118478300Y-65989460D01*
X118413600Y-66001634D01*
X118413600Y-63232638D01*
X118478300Y-63245740D01*
X119468900Y-63245740D01*
X119704217Y-63201462D01*
X119920341Y-63062390D01*
X120065331Y-62850190D01*
X120116340Y-62598300D01*
X120116340Y-60820300D01*
X120370860Y-60820300D01*
X120370860Y-62598300D01*
X120415138Y-62833617D01*
X120554210Y-63049741D01*
X120766410Y-63194731D01*
X121018300Y-63245740D01*
X122008900Y-63245740D01*
X122244217Y-63201462D01*
X122460341Y-63062390D01*
X122605331Y-62850190D01*
X122656340Y-62598300D01*
X122656340Y-60820300D01*
X122910860Y-60820300D01*
X122910860Y-62598300D01*
X122955138Y-62833617D01*
X123094210Y-63049741D01*
X123306410Y-63194731D01*
X123558300Y-63245740D01*
X124548900Y-63245740D01*
X124784217Y-63201462D01*
X125000341Y-63062390D01*
X125145331Y-62850190D01*
X125196340Y-62598300D01*
X125196340Y-60820300D01*
X125450860Y-60820300D01*
X125450860Y-62598300D01*
X125495138Y-62833617D01*
X125634210Y-63049741D01*
X125846410Y-63194731D01*
X126098300Y-63245740D01*
X127088900Y-63245740D01*
X127324217Y-63201462D01*
X127540341Y-63062390D01*
X127685331Y-62850190D01*
X127736340Y-62598300D01*
X127736340Y-60820300D01*
X127990860Y-60820300D01*
X127990860Y-62598300D01*
X128035138Y-62833617D01*
X128174210Y-63049741D01*
X128386410Y-63194731D01*
X128638300Y-63245740D01*
X129628900Y-63245740D01*
X129864217Y-63201462D01*
X130080341Y-63062390D01*
X130225331Y-62850190D01*
X130276340Y-62598300D01*
X130276340Y-60820300D01*
X130530860Y-60820300D01*
X130530860Y-62598300D01*
X130575138Y-62833617D01*
X130714210Y-63049741D01*
X130926410Y-63194731D01*
X131178300Y-63245740D01*
X132168900Y-63245740D01*
X132404217Y-63201462D01*
X132620341Y-63062390D01*
X132765331Y-62850190D01*
X132816340Y-62598300D01*
X132816340Y-60820300D01*
X133070860Y-60820300D01*
X133070860Y-62598300D01*
X133115138Y-62833617D01*
X133254210Y-63049741D01*
X133375400Y-63132547D01*
X133375400Y-63703200D01*
X133439204Y-64023966D01*
X133620903Y-64295897D01*
X134594252Y-65269246D01*
X134690483Y-65502143D01*
X134953273Y-65765392D01*
X135296801Y-65908038D01*
X135668767Y-65908362D01*
X136012543Y-65766317D01*
X136275792Y-65503527D01*
X136418438Y-65159999D01*
X136418762Y-64788033D01*
X136276717Y-64444257D01*
X136013927Y-64181008D01*
X135779430Y-64083636D01*
X135051800Y-63356006D01*
X135051800Y-63132234D01*
X135160341Y-63062390D01*
X135305331Y-62850190D01*
X135356340Y-62598300D01*
X135356340Y-60820300D01*
X135610860Y-60820300D01*
X135610860Y-62598300D01*
X135655138Y-62833617D01*
X135794210Y-63049741D01*
X135944830Y-63152655D01*
X135979204Y-63325466D01*
X136160903Y-63597397D01*
X137210800Y-64647294D01*
X137210800Y-64818042D01*
X137139562Y-64989601D01*
X137139238Y-65361567D01*
X137281283Y-65705343D01*
X137544073Y-65968592D01*
X137887601Y-66111238D01*
X138259567Y-66111562D01*
X138603343Y-65969517D01*
X138866592Y-65706727D01*
X139009238Y-65363199D01*
X139009562Y-64991233D01*
X138887200Y-64695094D01*
X138887200Y-64300100D01*
X138832274Y-64023966D01*
X138823396Y-63979334D01*
X138641697Y-63707403D01*
X137820632Y-62886338D01*
X137845331Y-62850190D01*
X137896340Y-62598300D01*
X137896340Y-60820300D01*
X138150860Y-60820300D01*
X138150860Y-62598300D01*
X138195138Y-62833617D01*
X138334210Y-63049741D01*
X138546410Y-63194731D01*
X138798300Y-63245740D01*
X139788900Y-63245740D01*
X140024217Y-63201462D01*
X140240341Y-63062390D01*
X140385331Y-62850190D01*
X140436340Y-62598300D01*
X140436340Y-60820300D01*
X140690860Y-60820300D01*
X140690860Y-62598300D01*
X140735138Y-62833617D01*
X140874210Y-63049741D01*
X141086410Y-63194731D01*
X141338300Y-63245740D01*
X142328900Y-63245740D01*
X142564217Y-63201462D01*
X142780341Y-63062390D01*
X142925331Y-62850190D01*
X142976340Y-62598300D01*
X142976340Y-60820300D01*
X181330860Y-60820300D01*
X181330860Y-62598300D01*
X181375138Y-62833617D01*
X181514210Y-63049741D01*
X181726410Y-63194731D01*
X181978300Y-63245740D01*
X182968900Y-63245740D01*
X183204217Y-63201462D01*
X183420341Y-63062390D01*
X183565331Y-62850190D01*
X183616340Y-62598300D01*
X183616340Y-60820300D01*
X183870860Y-60820300D01*
X183870860Y-62598300D01*
X183915138Y-62833617D01*
X184054210Y-63049741D01*
X184266410Y-63194731D01*
X184518300Y-63245740D01*
X185508900Y-63245740D01*
X185744217Y-63201462D01*
X185960341Y-63062390D01*
X186105331Y-62850190D01*
X186156340Y-62598300D01*
X186156340Y-60820300D01*
X186410860Y-60820300D01*
X186410860Y-62598300D01*
X186455138Y-62833617D01*
X186594210Y-63049741D01*
X186806410Y-63194731D01*
X187058300Y-63245740D01*
X188048900Y-63245740D01*
X188284217Y-63201462D01*
X188500341Y-63062390D01*
X188645331Y-62850190D01*
X188696340Y-62598300D01*
X188696340Y-60820300D01*
X188950860Y-60820300D01*
X188950860Y-62598300D01*
X188995138Y-62833617D01*
X189134210Y-63049741D01*
X189346410Y-63194731D01*
X189598300Y-63245740D01*
X190588900Y-63245740D01*
X190824217Y-63201462D01*
X191040341Y-63062390D01*
X191185331Y-62850190D01*
X191236340Y-62598300D01*
X191236340Y-60820300D01*
X191490860Y-60820300D01*
X191490860Y-62598300D01*
X191535138Y-62833617D01*
X191674210Y-63049741D01*
X191886410Y-63194731D01*
X192138300Y-63245740D01*
X193128900Y-63245740D01*
X193364217Y-63201462D01*
X193580341Y-63062390D01*
X193725331Y-62850190D01*
X193776340Y-62598300D01*
X193776340Y-60820300D01*
X194030860Y-60820300D01*
X194030860Y-62598300D01*
X194075138Y-62833617D01*
X194214210Y-63049741D01*
X194426410Y-63194731D01*
X194678300Y-63245740D01*
X195668900Y-63245740D01*
X195904217Y-63201462D01*
X196120341Y-63062390D01*
X196265331Y-62850190D01*
X196316340Y-62598300D01*
X196316340Y-60820300D01*
X196570860Y-60820300D01*
X196570860Y-62598300D01*
X196615138Y-62833617D01*
X196754210Y-63049741D01*
X196966410Y-63194731D01*
X197218300Y-63245740D01*
X198208900Y-63245740D01*
X198444217Y-63201462D01*
X198660341Y-63062390D01*
X198805331Y-62850190D01*
X198856340Y-62598300D01*
X198856340Y-60820300D01*
X198812062Y-60584983D01*
X198672990Y-60368859D01*
X198460790Y-60223869D01*
X198208900Y-60172860D01*
X197218300Y-60172860D01*
X196982983Y-60217138D01*
X196766859Y-60356210D01*
X196621869Y-60568410D01*
X196570860Y-60820300D01*
X196316340Y-60820300D01*
X196272062Y-60584983D01*
X196132990Y-60368859D01*
X195920790Y-60223869D01*
X195668900Y-60172860D01*
X194678300Y-60172860D01*
X194442983Y-60217138D01*
X194226859Y-60356210D01*
X194081869Y-60568410D01*
X194030860Y-60820300D01*
X193776340Y-60820300D01*
X193732062Y-60584983D01*
X193592990Y-60368859D01*
X193380790Y-60223869D01*
X193128900Y-60172860D01*
X192138300Y-60172860D01*
X191902983Y-60217138D01*
X191686859Y-60356210D01*
X191541869Y-60568410D01*
X191490860Y-60820300D01*
X191236340Y-60820300D01*
X191192062Y-60584983D01*
X191052990Y-60368859D01*
X190840790Y-60223869D01*
X190588900Y-60172860D01*
X189598300Y-60172860D01*
X189362983Y-60217138D01*
X189146859Y-60356210D01*
X189001869Y-60568410D01*
X188950860Y-60820300D01*
X188696340Y-60820300D01*
X188652062Y-60584983D01*
X188512990Y-60368859D01*
X188300790Y-60223869D01*
X188048900Y-60172860D01*
X187058300Y-60172860D01*
X186822983Y-60217138D01*
X186606859Y-60356210D01*
X186461869Y-60568410D01*
X186410860Y-60820300D01*
X186156340Y-60820300D01*
X186112062Y-60584983D01*
X185972990Y-60368859D01*
X185760790Y-60223869D01*
X185508900Y-60172860D01*
X184518300Y-60172860D01*
X184282983Y-60217138D01*
X184066859Y-60356210D01*
X183921869Y-60568410D01*
X183870860Y-60820300D01*
X183616340Y-60820300D01*
X183572062Y-60584983D01*
X183432990Y-60368859D01*
X183220790Y-60223869D01*
X182968900Y-60172860D01*
X181978300Y-60172860D01*
X181742983Y-60217138D01*
X181526859Y-60356210D01*
X181381869Y-60568410D01*
X181330860Y-60820300D01*
X142976340Y-60820300D01*
X142932062Y-60584983D01*
X142792990Y-60368859D01*
X142671800Y-60286053D01*
X142671800Y-50232794D01*
X144644594Y-48260000D01*
X149656800Y-48260000D01*
X149656800Y-48723003D01*
X149311371Y-49067830D01*
X149225051Y-49275712D01*
X149140010Y-49069897D01*
X148747370Y-48676571D01*
X148234100Y-48463443D01*
X147678339Y-48462958D01*
X147164697Y-48675190D01*
X146771371Y-49067830D01*
X146558243Y-49581100D01*
X146557758Y-50136861D01*
X146769990Y-50650503D01*
X147162630Y-51043829D01*
X147675900Y-51256957D01*
X148231661Y-51257442D01*
X148745303Y-51045210D01*
X149138629Y-50652570D01*
X149224949Y-50444688D01*
X149309990Y-50650503D01*
X149702630Y-51043829D01*
X150215900Y-51256957D01*
X150771661Y-51257442D01*
X151285303Y-51045210D01*
X151678629Y-50652570D01*
X151891757Y-50139300D01*
X151892242Y-49583539D01*
X151680010Y-49069897D01*
X151333200Y-48722481D01*
X151333200Y-48260000D01*
X164930606Y-48260000D01*
X164973000Y-48302394D01*
X164973000Y-48773803D01*
X164627571Y-49118630D01*
X164541251Y-49326512D01*
X164456210Y-49120697D01*
X164063570Y-48727371D01*
X163550300Y-48514243D01*
X162994539Y-48513758D01*
X162480897Y-48725990D01*
X162087571Y-49118630D01*
X161874443Y-49631900D01*
X161873958Y-50187661D01*
X162086190Y-50701303D01*
X162478830Y-51094629D01*
X162992100Y-51307757D01*
X163547861Y-51308242D01*
X164061503Y-51096010D01*
X164454829Y-50703370D01*
X164541149Y-50495488D01*
X164626190Y-50701303D01*
X165018830Y-51094629D01*
X165532100Y-51307757D01*
X166087861Y-51308242D01*
X166601503Y-51096010D01*
X166994829Y-50703370D01*
X167207957Y-50190100D01*
X167208442Y-49634339D01*
X166996210Y-49120697D01*
X166649400Y-48773281D01*
X166649400Y-47955200D01*
X166585596Y-47634435D01*
X166403897Y-47362503D01*
X165870497Y-46829103D01*
X165598566Y-46647404D01*
X165277800Y-46583600D01*
X144297400Y-46583600D01*
X143976634Y-46647404D01*
X143704703Y-46829103D01*
X141240903Y-49292903D01*
X141059204Y-49564834D01*
X141027218Y-49725639D01*
X140995400Y-49885600D01*
X140995400Y-60286366D01*
X140886859Y-60356210D01*
X140741869Y-60568410D01*
X140690860Y-60820300D01*
X140436340Y-60820300D01*
X140392062Y-60584983D01*
X140252990Y-60368859D01*
X140040790Y-60223869D01*
X139788900Y-60172860D01*
X138798300Y-60172860D01*
X138562983Y-60217138D01*
X138346859Y-60356210D01*
X138201869Y-60568410D01*
X138150860Y-60820300D01*
X137896340Y-60820300D01*
X137852062Y-60584983D01*
X137712990Y-60368859D01*
X137500790Y-60223869D01*
X137248900Y-60172860D01*
X136258300Y-60172860D01*
X136022983Y-60217138D01*
X135806859Y-60356210D01*
X135661869Y-60568410D01*
X135610860Y-60820300D01*
X135356340Y-60820300D01*
X135312062Y-60584983D01*
X135172990Y-60368859D01*
X134960790Y-60223869D01*
X134708900Y-60172860D01*
X133718300Y-60172860D01*
X133482983Y-60217138D01*
X133266859Y-60356210D01*
X133121869Y-60568410D01*
X133070860Y-60820300D01*
X132816340Y-60820300D01*
X132772062Y-60584983D01*
X132632990Y-60368859D01*
X132420790Y-60223869D01*
X132168900Y-60172860D01*
X131178300Y-60172860D01*
X130942983Y-60217138D01*
X130726859Y-60356210D01*
X130581869Y-60568410D01*
X130530860Y-60820300D01*
X130276340Y-60820300D01*
X130232062Y-60584983D01*
X130092990Y-60368859D01*
X129880790Y-60223869D01*
X129628900Y-60172860D01*
X128638300Y-60172860D01*
X128402983Y-60217138D01*
X128186859Y-60356210D01*
X128041869Y-60568410D01*
X127990860Y-60820300D01*
X127736340Y-60820300D01*
X127692062Y-60584983D01*
X127552990Y-60368859D01*
X127340790Y-60223869D01*
X127088900Y-60172860D01*
X126098300Y-60172860D01*
X125862983Y-60217138D01*
X125646859Y-60356210D01*
X125501869Y-60568410D01*
X125450860Y-60820300D01*
X125196340Y-60820300D01*
X125152062Y-60584983D01*
X125012990Y-60368859D01*
X124800790Y-60223869D01*
X124548900Y-60172860D01*
X123558300Y-60172860D01*
X123322983Y-60217138D01*
X123106859Y-60356210D01*
X122961869Y-60568410D01*
X122910860Y-60820300D01*
X122656340Y-60820300D01*
X122612062Y-60584983D01*
X122472990Y-60368859D01*
X122260790Y-60223869D01*
X122008900Y-60172860D01*
X121018300Y-60172860D01*
X120782983Y-60217138D01*
X120566859Y-60356210D01*
X120421869Y-60568410D01*
X120370860Y-60820300D01*
X120116340Y-60820300D01*
X120072062Y-60584983D01*
X119932990Y-60368859D01*
X119720790Y-60223869D01*
X119468900Y-60172860D01*
X118478300Y-60172860D01*
X118413600Y-60185034D01*
X118413600Y-51941483D01*
X118610007Y-51902415D01*
X118716021Y-51858502D01*
X118865949Y-51796400D01*
X119516936Y-51361423D01*
X119582231Y-51296127D01*
X119712823Y-51165536D01*
X120147800Y-50514549D01*
X120249518Y-50268980D01*
X120253815Y-50258607D01*
X120406558Y-49490714D01*
X120406558Y-49213686D01*
X120253815Y-48445793D01*
X120204930Y-48327776D01*
X120147800Y-48189851D01*
X119712823Y-47538864D01*
X119582231Y-47408273D01*
X119516936Y-47342977D01*
X118865949Y-46908000D01*
X118716021Y-46845898D01*
X118610007Y-46801985D01*
X118413600Y-46762917D01*
X118413600Y-41691573D01*
X144324591Y-41691573D01*
X144683123Y-42559286D01*
X145346422Y-43223744D01*
X146213508Y-43583789D01*
X147152373Y-43584609D01*
X148020086Y-43226077D01*
X148684544Y-42562778D01*
X149044589Y-41695692D01*
X149044592Y-41691573D01*
X151944591Y-41691573D01*
X152303123Y-42559286D01*
X152966422Y-43223744D01*
X153833508Y-43583789D01*
X154772373Y-43584609D01*
X155640086Y-43226077D01*
X156304544Y-42562778D01*
X156645205Y-41742373D01*
X159640791Y-41742373D01*
X159999323Y-42610086D01*
X160662622Y-43274544D01*
X161529708Y-43634589D01*
X162468573Y-43635409D01*
X163336286Y-43276877D01*
X164000744Y-42613578D01*
X164360789Y-41746492D01*
X164360792Y-41742373D01*
X167260791Y-41742373D01*
X167619323Y-42610086D01*
X168282622Y-43274544D01*
X169149708Y-43634589D01*
X170088573Y-43635409D01*
X170956286Y-43276877D01*
X171620744Y-42613578D01*
X171980789Y-41746492D01*
X171981609Y-40807627D01*
X171623077Y-39939914D01*
X170959778Y-39275456D01*
X170092692Y-38915411D01*
X169153827Y-38914591D01*
X168286114Y-39273123D01*
X167621656Y-39936422D01*
X167261611Y-40803508D01*
X167260791Y-41742373D01*
X164360792Y-41742373D01*
X164361609Y-40807627D01*
X164003077Y-39939914D01*
X163339778Y-39275456D01*
X162472692Y-38915411D01*
X161533827Y-38914591D01*
X160666114Y-39273123D01*
X160001656Y-39936422D01*
X159641611Y-40803508D01*
X159640791Y-41742373D01*
X156645205Y-41742373D01*
X156664589Y-41695692D01*
X156665409Y-40756827D01*
X156306877Y-39889114D01*
X155643578Y-39224656D01*
X154776492Y-38864611D01*
X153837627Y-38863791D01*
X152969914Y-39222323D01*
X152305456Y-39885622D01*
X151945411Y-40752708D01*
X151944591Y-41691573D01*
X149044592Y-41691573D01*
X149045409Y-40756827D01*
X148686877Y-39889114D01*
X148023578Y-39224656D01*
X147156492Y-38864611D01*
X146217627Y-38863791D01*
X145349914Y-39222323D01*
X144685456Y-39885622D01*
X144325411Y-40752708D01*
X144324591Y-41691573D01*
X118413600Y-41691573D01*
X118413600Y-39211331D01*
X118561885Y-38465851D01*
X118944551Y-37893151D01*
X119517251Y-37510485D01*
X120262731Y-37362200D01*
X223036801Y-37362200D01*
X222231857Y-37694796D01*
M02*
