G04 #@! TF.FileFunction,Soldermask,Top*
%FSLAX46Y46*%
G04 Gerber Fmt 4.6, Leading zero omitted, Abs format (unit mm)*
G04 Created by KiCad (PCBNEW 4.0.7) date 04/15/18 20:15:51*
%MOMM*%
%LPD*%
G01*
G04 APERTURE LIST*
%ADD10C,0.100000*%
%ADD11C,5.480000*%
%ADD12R,1.600000X1.150000*%
%ADD13R,1.150000X1.600000*%
%ADD14R,2.400000X2.100000*%
%ADD15R,1.400000X1.400000*%
%ADD16O,1.400000X1.400000*%
%ADD17R,1.600000X1.300000*%
%ADD18C,1.924000*%
%ADD19C,3.850000*%
%ADD20R,1.390600X2.178000*%
G04 APERTURE END LIST*
D10*
D11*
X224028000Y-40388000D03*
X224028000Y-48387000D03*
X224028000Y-56388000D03*
X207364600Y-56794400D03*
X215365600Y-56794400D03*
D12*
X222986600Y-86715600D03*
X224886600Y-86715600D03*
D13*
X214680800Y-82402600D03*
X214680800Y-84302600D03*
X213156800Y-88163400D03*
X213156800Y-86263400D03*
D12*
X222986600Y-82143600D03*
X224886600Y-82143600D03*
D13*
X216204800Y-82402600D03*
X216204800Y-84302600D03*
X217728800Y-88163400D03*
X217728800Y-86263400D03*
D12*
X222986600Y-85191600D03*
X224886600Y-85191600D03*
D13*
X213156800Y-82402600D03*
X213156800Y-84302600D03*
X216204800Y-88163400D03*
X216204800Y-86263400D03*
D12*
X222986600Y-83667600D03*
X224886600Y-83667600D03*
D13*
X217728800Y-82402600D03*
X217728800Y-84302600D03*
X214680800Y-88163400D03*
X214680800Y-86263400D03*
D12*
X222986600Y-88239600D03*
X224886600Y-88239600D03*
D13*
X211632800Y-82402600D03*
X211632800Y-84302600D03*
X211632800Y-88163400D03*
X211632800Y-86263400D03*
D11*
X195403200Y-115468400D03*
X187402200Y-115468400D03*
X187096400Y-56819800D03*
X195097400Y-56819800D03*
X215393000Y-115519200D03*
X207392000Y-115519200D03*
D14*
X217614000Y-95199200D03*
X213614000Y-95199200D03*
D15*
X144856200Y-83997800D03*
D16*
X144856200Y-85267800D03*
D15*
X141681200Y-83997800D03*
D16*
X141681200Y-85267800D03*
D15*
X176860200Y-85344000D03*
D16*
X176860200Y-84074000D03*
D15*
X173685200Y-84023200D03*
D16*
X173685200Y-85293200D03*
D15*
X138480800Y-83972400D03*
D16*
X138480800Y-85242400D03*
D15*
X135305800Y-83972400D03*
D16*
X135305800Y-85242400D03*
D15*
X170510200Y-84023200D03*
D16*
X170510200Y-85293200D03*
D15*
X167335200Y-84023200D03*
D16*
X167335200Y-85293200D03*
D17*
X210708600Y-95224600D03*
X208508600Y-95224600D03*
D18*
X153187400Y-122275600D03*
X150647400Y-122275600D03*
X148107400Y-122275600D03*
D19*
X154457400Y-130911600D03*
X146837400Y-130911600D03*
D18*
X163271200Y-49911000D03*
X165811200Y-49911000D03*
X168351200Y-49911000D03*
D19*
X162001200Y-41275000D03*
X169621200Y-41275000D03*
D18*
X147955000Y-49860200D03*
X150495000Y-49860200D03*
X153035000Y-49860200D03*
D19*
X146685000Y-41224200D03*
X154305000Y-41224200D03*
D18*
X168605200Y-122275600D03*
X166065200Y-122275600D03*
X163525200Y-122275600D03*
D19*
X169875200Y-130911600D03*
X162255200Y-130911600D03*
D18*
X207111600Y-82626200D03*
X207111600Y-85166200D03*
X207111600Y-87706200D03*
D20*
X141833600Y-61709300D03*
X118973600Y-110705900D03*
X121513600Y-110705900D03*
X129133600Y-110705900D03*
X131673600Y-67525900D03*
X126593600Y-110705900D03*
X124053600Y-110705900D03*
X126593600Y-61709300D03*
X121513600Y-67525900D03*
X131673600Y-110705900D03*
X134213600Y-110705900D03*
X121513600Y-61709300D03*
X126593600Y-67525900D03*
X129133600Y-67525900D03*
X141833600Y-67525900D03*
X139293600Y-67525900D03*
X136753600Y-67525900D03*
X134213600Y-67525900D03*
X124053600Y-67525900D03*
X118973600Y-67525900D03*
X139293600Y-61709300D03*
X136753600Y-61709300D03*
X134213600Y-61709300D03*
X131673600Y-61709300D03*
X129133600Y-61709300D03*
X124053600Y-61709300D03*
X118973600Y-61709300D03*
X141833600Y-104889300D03*
X139293600Y-104889300D03*
X136753600Y-104889300D03*
X134213600Y-104889300D03*
X131673600Y-104889300D03*
X129133600Y-104889300D03*
X126593600Y-104889300D03*
X124053600Y-104889300D03*
X121513600Y-104889300D03*
X118973600Y-104889300D03*
X141833600Y-110705900D03*
X139293600Y-110705900D03*
X136753600Y-110705900D03*
X205333600Y-67525900D03*
X202793600Y-67525900D03*
X200253600Y-67525900D03*
X197713600Y-67525900D03*
X195173600Y-67525900D03*
X192633600Y-67525900D03*
X190093600Y-67525900D03*
X187553600Y-67525900D03*
X185013600Y-67525900D03*
X182473600Y-67525900D03*
X205333600Y-61709300D03*
X202793600Y-61709300D03*
X200253600Y-61709300D03*
X197713600Y-61709300D03*
X195173600Y-61709300D03*
X192633600Y-61709300D03*
X190093600Y-61709300D03*
X187553600Y-61709300D03*
X185013600Y-61709300D03*
X182473600Y-61709300D03*
X205333600Y-104889300D03*
X202793600Y-104889300D03*
X200253600Y-104889300D03*
X197713600Y-104889300D03*
X195173600Y-104889300D03*
X192633600Y-104889300D03*
X190093600Y-104889300D03*
X187553600Y-104889300D03*
X185013600Y-104889300D03*
X182473600Y-104889300D03*
X205333600Y-110705900D03*
X202793600Y-110705900D03*
X200253600Y-110705900D03*
X197713600Y-110705900D03*
X195173600Y-110705900D03*
X192633600Y-110705900D03*
X190093600Y-110705900D03*
X187553600Y-110705900D03*
X185013600Y-110705900D03*
X182473600Y-110705900D03*
D11*
X223951800Y-115164600D03*
X223951800Y-123163600D03*
X223951800Y-131164600D03*
D20*
X205333600Y-110744000D03*
X182473600Y-61722000D03*
X182473600Y-67564000D03*
X182473600Y-104902000D03*
X182473600Y-110744000D03*
X118973600Y-61752480D03*
X118973600Y-67564000D03*
X118973600Y-104927400D03*
X118973600Y-110744000D03*
X121513600Y-61752480D03*
X124053600Y-61752480D03*
X126593600Y-61752480D03*
X129133600Y-61752480D03*
X131673600Y-61752480D03*
X134213600Y-61752480D03*
X136753600Y-61752480D03*
X139293600Y-61752480D03*
X141833600Y-61752480D03*
X121513600Y-67564000D03*
X124053600Y-67564000D03*
X126593600Y-67564000D03*
X129133600Y-67564000D03*
X131673600Y-67564000D03*
X134213600Y-67564000D03*
X136753600Y-67564000D03*
X139293600Y-67564000D03*
X141833600Y-67564000D03*
X121513600Y-104927400D03*
X124053600Y-104927400D03*
X126593600Y-104927400D03*
X129133600Y-104927400D03*
X131673600Y-104927400D03*
X134213600Y-104927400D03*
X136753600Y-104927400D03*
X139293600Y-104927400D03*
X141833600Y-104927400D03*
X121513600Y-110744000D03*
X124053600Y-110744000D03*
X126593600Y-110744000D03*
X129133600Y-110744000D03*
X131673600Y-110744000D03*
X134213600Y-110744000D03*
X136753600Y-110744000D03*
X139293600Y-110744000D03*
X141833600Y-110744000D03*
X185013600Y-61722000D03*
X187553600Y-61722000D03*
X190093600Y-61722000D03*
X192633600Y-61722000D03*
X195173600Y-61722000D03*
X197713600Y-61722000D03*
X200253600Y-61722000D03*
X202793600Y-61722000D03*
X205333600Y-61722000D03*
X185013600Y-67564000D03*
X187553600Y-67564000D03*
X190093600Y-67564000D03*
X192633600Y-67564000D03*
X195173600Y-67564000D03*
X197713600Y-67564000D03*
X200253600Y-67564000D03*
X202793600Y-67564000D03*
X205333600Y-67564000D03*
X185013600Y-104902000D03*
X187553600Y-104902000D03*
X190093600Y-104902000D03*
X192633600Y-104902000D03*
X195173600Y-104902000D03*
X197713600Y-104902000D03*
X200253600Y-104902000D03*
X205333600Y-104902000D03*
X185013600Y-110744000D03*
X187553600Y-110744000D03*
X190093600Y-110744000D03*
X192633600Y-110744000D03*
X195173600Y-110744000D03*
X197713600Y-110744000D03*
X200253600Y-110744000D03*
X202793600Y-110744000D03*
X202793600Y-104902000D03*
M02*
