G04 #@! TF.FileFunction,Profile,NP*
%FSLAX46Y46*%
G04 Gerber Fmt 4.6, Leading zero omitted, Abs format (unit mm)*
G04 Created by KiCad (PCBNEW 4.0.7) date 04/15/18 20:15:51*
%MOMM*%
%LPD*%
G01*
G04 APERTURE LIST*
%ADD10C,0.100000*%
%ADD11C,0.150000*%
G04 APERTURE END LIST*
D10*
D11*
X242163600Y-112877600D02*
X242163600Y-121081800D01*
X242163600Y-87934800D02*
X242163600Y-62026800D01*
X117703600Y-59461400D02*
X117703600Y-51358800D01*
X242163600Y-112877600D02*
G75*
G03X240157000Y-110871000I-2006600J0D01*
G01*
X224383600Y-110871000D02*
X240157000Y-110871000D01*
X224383600Y-90017600D02*
X224383600Y-110871000D01*
X242163600Y-121081800D02*
G75*
G03X242163600Y-125095000I0J-2006600D01*
G01*
X242138200Y-133223000D02*
X242163600Y-125095000D01*
X239649000Y-135712200D02*
G75*
G03X242138200Y-133223000I0J2489200D01*
G01*
X224383600Y-90017600D02*
X240080800Y-90017600D01*
X117703600Y-59436000D02*
X117703600Y-110337600D01*
X120192800Y-36652200D02*
G75*
G03X117703600Y-39141400I0J-2489200D01*
G01*
X117703600Y-47345600D02*
X117703600Y-39141400D01*
X242163600Y-51358800D02*
X242163600Y-62026800D01*
X120218200Y-36652200D02*
X239674400Y-36652200D01*
X242163600Y-39141400D02*
X242163600Y-47345600D01*
X242163600Y-39141400D02*
G75*
G03X239674400Y-36652200I-2489200J0D01*
G01*
X242163600Y-47345600D02*
G75*
G03X242163600Y-51358800I0J-2006600D01*
G01*
X117703600Y-51358800D02*
G75*
G03X117703600Y-47345600I0J2006600D01*
G01*
X117703600Y-121005600D02*
X117703600Y-110337600D01*
X117703600Y-133223000D02*
X117703600Y-125018800D01*
X239649000Y-135712200D02*
X120192800Y-135712200D01*
X117703600Y-125018800D02*
G75*
G03X117703600Y-121005600I0J2006600D01*
G01*
X117703600Y-133223000D02*
G75*
G03X120192800Y-135712200I2489200J0D01*
G01*
X240080800Y-90017600D02*
G75*
G03X242163600Y-87934800I0J2082800D01*
G01*
M02*
