G75*
%MOIN*%
%OFA0B0*%
%FSLAX24Y24*%
%IPPOS*%
%LPD*%
%AMOC8*
5,1,8,0,0,1.08239X$1,22.5*
%
%ADD10C,0.0000*%
%ADD11C,0.0310*%
%ADD12C,0.0170*%
%ADD13C,0.0594*%
%ADD14C,0.1181*%
%ADD15C,0.0160*%
D10*
X000100Y000100D02*
X000100Y016096D01*
X072220Y016096D01*
X072220Y000100D01*
X000100Y000100D01*
X001100Y002350D02*
X001102Y002420D01*
X001108Y002490D01*
X001118Y002559D01*
X001131Y002628D01*
X001149Y002696D01*
X001170Y002763D01*
X001195Y002828D01*
X001224Y002892D01*
X001256Y002955D01*
X001292Y003015D01*
X001331Y003073D01*
X001373Y003129D01*
X001418Y003183D01*
X001466Y003234D01*
X001517Y003282D01*
X001571Y003327D01*
X001627Y003369D01*
X001685Y003408D01*
X001745Y003444D01*
X001808Y003476D01*
X001872Y003505D01*
X001937Y003530D01*
X002004Y003551D01*
X002072Y003569D01*
X002141Y003582D01*
X002210Y003592D01*
X002280Y003598D01*
X002350Y003600D01*
X002420Y003598D01*
X002490Y003592D01*
X002559Y003582D01*
X002628Y003569D01*
X002696Y003551D01*
X002763Y003530D01*
X002828Y003505D01*
X002892Y003476D01*
X002955Y003444D01*
X003015Y003408D01*
X003073Y003369D01*
X003129Y003327D01*
X003183Y003282D01*
X003234Y003234D01*
X003282Y003183D01*
X003327Y003129D01*
X003369Y003073D01*
X003408Y003015D01*
X003444Y002955D01*
X003476Y002892D01*
X003505Y002828D01*
X003530Y002763D01*
X003551Y002696D01*
X003569Y002628D01*
X003582Y002559D01*
X003592Y002490D01*
X003598Y002420D01*
X003600Y002350D01*
X003598Y002280D01*
X003592Y002210D01*
X003582Y002141D01*
X003569Y002072D01*
X003551Y002004D01*
X003530Y001937D01*
X003505Y001872D01*
X003476Y001808D01*
X003444Y001745D01*
X003408Y001685D01*
X003369Y001627D01*
X003327Y001571D01*
X003282Y001517D01*
X003234Y001466D01*
X003183Y001418D01*
X003129Y001373D01*
X003073Y001331D01*
X003015Y001292D01*
X002955Y001256D01*
X002892Y001224D01*
X002828Y001195D01*
X002763Y001170D01*
X002696Y001149D01*
X002628Y001131D01*
X002559Y001118D01*
X002490Y001108D01*
X002420Y001102D01*
X002350Y001100D01*
X002280Y001102D01*
X002210Y001108D01*
X002141Y001118D01*
X002072Y001131D01*
X002004Y001149D01*
X001937Y001170D01*
X001872Y001195D01*
X001808Y001224D01*
X001745Y001256D01*
X001685Y001292D01*
X001627Y001331D01*
X001571Y001373D01*
X001517Y001418D01*
X001466Y001466D01*
X001418Y001517D01*
X001373Y001571D01*
X001331Y001627D01*
X001292Y001685D01*
X001256Y001745D01*
X001224Y001808D01*
X001195Y001872D01*
X001170Y001937D01*
X001149Y002004D01*
X001131Y002072D01*
X001118Y002141D01*
X001108Y002210D01*
X001102Y002280D01*
X001100Y002350D01*
X005220Y003183D02*
X005222Y003233D01*
X005228Y003283D01*
X005238Y003332D01*
X005252Y003380D01*
X005269Y003427D01*
X005290Y003472D01*
X005315Y003516D01*
X005343Y003557D01*
X005375Y003596D01*
X005409Y003633D01*
X005446Y003667D01*
X005486Y003697D01*
X005528Y003724D01*
X005572Y003748D01*
X005618Y003769D01*
X005665Y003785D01*
X005713Y003798D01*
X005763Y003807D01*
X005812Y003812D01*
X005863Y003813D01*
X005913Y003810D01*
X005962Y003803D01*
X006011Y003792D01*
X006059Y003777D01*
X006105Y003759D01*
X006150Y003737D01*
X006193Y003711D01*
X006234Y003682D01*
X006273Y003650D01*
X006309Y003615D01*
X006341Y003577D01*
X006371Y003537D01*
X006398Y003494D01*
X006421Y003450D01*
X006440Y003404D01*
X006456Y003356D01*
X006468Y003307D01*
X006476Y003258D01*
X006480Y003208D01*
X006480Y003158D01*
X006476Y003108D01*
X006468Y003059D01*
X006456Y003010D01*
X006440Y002962D01*
X006421Y002916D01*
X006398Y002872D01*
X006371Y002829D01*
X006341Y002789D01*
X006309Y002751D01*
X006273Y002716D01*
X006234Y002684D01*
X006193Y002655D01*
X006150Y002629D01*
X006105Y002607D01*
X006059Y002589D01*
X006011Y002574D01*
X005962Y002563D01*
X005913Y002556D01*
X005863Y002553D01*
X005812Y002554D01*
X005763Y002559D01*
X005713Y002568D01*
X005665Y002581D01*
X005618Y002597D01*
X005572Y002618D01*
X005528Y002642D01*
X005486Y002669D01*
X005446Y002699D01*
X005409Y002733D01*
X005375Y002770D01*
X005343Y002809D01*
X005315Y002850D01*
X005290Y002894D01*
X005269Y002939D01*
X005252Y002986D01*
X005238Y003034D01*
X005228Y003083D01*
X005222Y003133D01*
X005220Y003183D01*
X009720Y003183D02*
X009722Y003233D01*
X009728Y003283D01*
X009738Y003332D01*
X009752Y003380D01*
X009769Y003427D01*
X009790Y003472D01*
X009815Y003516D01*
X009843Y003557D01*
X009875Y003596D01*
X009909Y003633D01*
X009946Y003667D01*
X009986Y003697D01*
X010028Y003724D01*
X010072Y003748D01*
X010118Y003769D01*
X010165Y003785D01*
X010213Y003798D01*
X010263Y003807D01*
X010312Y003812D01*
X010363Y003813D01*
X010413Y003810D01*
X010462Y003803D01*
X010511Y003792D01*
X010559Y003777D01*
X010605Y003759D01*
X010650Y003737D01*
X010693Y003711D01*
X010734Y003682D01*
X010773Y003650D01*
X010809Y003615D01*
X010841Y003577D01*
X010871Y003537D01*
X010898Y003494D01*
X010921Y003450D01*
X010940Y003404D01*
X010956Y003356D01*
X010968Y003307D01*
X010976Y003258D01*
X010980Y003208D01*
X010980Y003158D01*
X010976Y003108D01*
X010968Y003059D01*
X010956Y003010D01*
X010940Y002962D01*
X010921Y002916D01*
X010898Y002872D01*
X010871Y002829D01*
X010841Y002789D01*
X010809Y002751D01*
X010773Y002716D01*
X010734Y002684D01*
X010693Y002655D01*
X010650Y002629D01*
X010605Y002607D01*
X010559Y002589D01*
X010511Y002574D01*
X010462Y002563D01*
X010413Y002556D01*
X010363Y002553D01*
X010312Y002554D01*
X010263Y002559D01*
X010213Y002568D01*
X010165Y002581D01*
X010118Y002597D01*
X010072Y002618D01*
X010028Y002642D01*
X009986Y002669D01*
X009946Y002699D01*
X009909Y002733D01*
X009875Y002770D01*
X009843Y002809D01*
X009815Y002850D01*
X009790Y002894D01*
X009769Y002939D01*
X009752Y002986D01*
X009738Y003034D01*
X009728Y003083D01*
X009722Y003133D01*
X009720Y003183D01*
X013220Y003183D02*
X013222Y003233D01*
X013228Y003283D01*
X013238Y003332D01*
X013252Y003380D01*
X013269Y003427D01*
X013290Y003472D01*
X013315Y003516D01*
X013343Y003557D01*
X013375Y003596D01*
X013409Y003633D01*
X013446Y003667D01*
X013486Y003697D01*
X013528Y003724D01*
X013572Y003748D01*
X013618Y003769D01*
X013665Y003785D01*
X013713Y003798D01*
X013763Y003807D01*
X013812Y003812D01*
X013863Y003813D01*
X013913Y003810D01*
X013962Y003803D01*
X014011Y003792D01*
X014059Y003777D01*
X014105Y003759D01*
X014150Y003737D01*
X014193Y003711D01*
X014234Y003682D01*
X014273Y003650D01*
X014309Y003615D01*
X014341Y003577D01*
X014371Y003537D01*
X014398Y003494D01*
X014421Y003450D01*
X014440Y003404D01*
X014456Y003356D01*
X014468Y003307D01*
X014476Y003258D01*
X014480Y003208D01*
X014480Y003158D01*
X014476Y003108D01*
X014468Y003059D01*
X014456Y003010D01*
X014440Y002962D01*
X014421Y002916D01*
X014398Y002872D01*
X014371Y002829D01*
X014341Y002789D01*
X014309Y002751D01*
X014273Y002716D01*
X014234Y002684D01*
X014193Y002655D01*
X014150Y002629D01*
X014105Y002607D01*
X014059Y002589D01*
X014011Y002574D01*
X013962Y002563D01*
X013913Y002556D01*
X013863Y002553D01*
X013812Y002554D01*
X013763Y002559D01*
X013713Y002568D01*
X013665Y002581D01*
X013618Y002597D01*
X013572Y002618D01*
X013528Y002642D01*
X013486Y002669D01*
X013446Y002699D01*
X013409Y002733D01*
X013375Y002770D01*
X013343Y002809D01*
X013315Y002850D01*
X013290Y002894D01*
X013269Y002939D01*
X013252Y002986D01*
X013238Y003034D01*
X013228Y003083D01*
X013222Y003133D01*
X013220Y003183D01*
X017720Y003183D02*
X017722Y003233D01*
X017728Y003283D01*
X017738Y003332D01*
X017752Y003380D01*
X017769Y003427D01*
X017790Y003472D01*
X017815Y003516D01*
X017843Y003557D01*
X017875Y003596D01*
X017909Y003633D01*
X017946Y003667D01*
X017986Y003697D01*
X018028Y003724D01*
X018072Y003748D01*
X018118Y003769D01*
X018165Y003785D01*
X018213Y003798D01*
X018263Y003807D01*
X018312Y003812D01*
X018363Y003813D01*
X018413Y003810D01*
X018462Y003803D01*
X018511Y003792D01*
X018559Y003777D01*
X018605Y003759D01*
X018650Y003737D01*
X018693Y003711D01*
X018734Y003682D01*
X018773Y003650D01*
X018809Y003615D01*
X018841Y003577D01*
X018871Y003537D01*
X018898Y003494D01*
X018921Y003450D01*
X018940Y003404D01*
X018956Y003356D01*
X018968Y003307D01*
X018976Y003258D01*
X018980Y003208D01*
X018980Y003158D01*
X018976Y003108D01*
X018968Y003059D01*
X018956Y003010D01*
X018940Y002962D01*
X018921Y002916D01*
X018898Y002872D01*
X018871Y002829D01*
X018841Y002789D01*
X018809Y002751D01*
X018773Y002716D01*
X018734Y002684D01*
X018693Y002655D01*
X018650Y002629D01*
X018605Y002607D01*
X018559Y002589D01*
X018511Y002574D01*
X018462Y002563D01*
X018413Y002556D01*
X018363Y002553D01*
X018312Y002554D01*
X018263Y002559D01*
X018213Y002568D01*
X018165Y002581D01*
X018118Y002597D01*
X018072Y002618D01*
X018028Y002642D01*
X017986Y002669D01*
X017946Y002699D01*
X017909Y002733D01*
X017875Y002770D01*
X017843Y002809D01*
X017815Y002850D01*
X017790Y002894D01*
X017769Y002939D01*
X017752Y002986D01*
X017738Y003034D01*
X017728Y003083D01*
X017722Y003133D01*
X017720Y003183D01*
X021220Y003183D02*
X021222Y003233D01*
X021228Y003283D01*
X021238Y003332D01*
X021252Y003380D01*
X021269Y003427D01*
X021290Y003472D01*
X021315Y003516D01*
X021343Y003557D01*
X021375Y003596D01*
X021409Y003633D01*
X021446Y003667D01*
X021486Y003697D01*
X021528Y003724D01*
X021572Y003748D01*
X021618Y003769D01*
X021665Y003785D01*
X021713Y003798D01*
X021763Y003807D01*
X021812Y003812D01*
X021863Y003813D01*
X021913Y003810D01*
X021962Y003803D01*
X022011Y003792D01*
X022059Y003777D01*
X022105Y003759D01*
X022150Y003737D01*
X022193Y003711D01*
X022234Y003682D01*
X022273Y003650D01*
X022309Y003615D01*
X022341Y003577D01*
X022371Y003537D01*
X022398Y003494D01*
X022421Y003450D01*
X022440Y003404D01*
X022456Y003356D01*
X022468Y003307D01*
X022476Y003258D01*
X022480Y003208D01*
X022480Y003158D01*
X022476Y003108D01*
X022468Y003059D01*
X022456Y003010D01*
X022440Y002962D01*
X022421Y002916D01*
X022398Y002872D01*
X022371Y002829D01*
X022341Y002789D01*
X022309Y002751D01*
X022273Y002716D01*
X022234Y002684D01*
X022193Y002655D01*
X022150Y002629D01*
X022105Y002607D01*
X022059Y002589D01*
X022011Y002574D01*
X021962Y002563D01*
X021913Y002556D01*
X021863Y002553D01*
X021812Y002554D01*
X021763Y002559D01*
X021713Y002568D01*
X021665Y002581D01*
X021618Y002597D01*
X021572Y002618D01*
X021528Y002642D01*
X021486Y002669D01*
X021446Y002699D01*
X021409Y002733D01*
X021375Y002770D01*
X021343Y002809D01*
X021315Y002850D01*
X021290Y002894D01*
X021269Y002939D01*
X021252Y002986D01*
X021238Y003034D01*
X021228Y003083D01*
X021222Y003133D01*
X021220Y003183D01*
X025720Y003183D02*
X025722Y003233D01*
X025728Y003283D01*
X025738Y003332D01*
X025752Y003380D01*
X025769Y003427D01*
X025790Y003472D01*
X025815Y003516D01*
X025843Y003557D01*
X025875Y003596D01*
X025909Y003633D01*
X025946Y003667D01*
X025986Y003697D01*
X026028Y003724D01*
X026072Y003748D01*
X026118Y003769D01*
X026165Y003785D01*
X026213Y003798D01*
X026263Y003807D01*
X026312Y003812D01*
X026363Y003813D01*
X026413Y003810D01*
X026462Y003803D01*
X026511Y003792D01*
X026559Y003777D01*
X026605Y003759D01*
X026650Y003737D01*
X026693Y003711D01*
X026734Y003682D01*
X026773Y003650D01*
X026809Y003615D01*
X026841Y003577D01*
X026871Y003537D01*
X026898Y003494D01*
X026921Y003450D01*
X026940Y003404D01*
X026956Y003356D01*
X026968Y003307D01*
X026976Y003258D01*
X026980Y003208D01*
X026980Y003158D01*
X026976Y003108D01*
X026968Y003059D01*
X026956Y003010D01*
X026940Y002962D01*
X026921Y002916D01*
X026898Y002872D01*
X026871Y002829D01*
X026841Y002789D01*
X026809Y002751D01*
X026773Y002716D01*
X026734Y002684D01*
X026693Y002655D01*
X026650Y002629D01*
X026605Y002607D01*
X026559Y002589D01*
X026511Y002574D01*
X026462Y002563D01*
X026413Y002556D01*
X026363Y002553D01*
X026312Y002554D01*
X026263Y002559D01*
X026213Y002568D01*
X026165Y002581D01*
X026118Y002597D01*
X026072Y002618D01*
X026028Y002642D01*
X025986Y002669D01*
X025946Y002699D01*
X025909Y002733D01*
X025875Y002770D01*
X025843Y002809D01*
X025815Y002850D01*
X025790Y002894D01*
X025769Y002939D01*
X025752Y002986D01*
X025738Y003034D01*
X025728Y003083D01*
X025722Y003133D01*
X025720Y003183D01*
X029220Y003183D02*
X029222Y003233D01*
X029228Y003283D01*
X029238Y003332D01*
X029252Y003380D01*
X029269Y003427D01*
X029290Y003472D01*
X029315Y003516D01*
X029343Y003557D01*
X029375Y003596D01*
X029409Y003633D01*
X029446Y003667D01*
X029486Y003697D01*
X029528Y003724D01*
X029572Y003748D01*
X029618Y003769D01*
X029665Y003785D01*
X029713Y003798D01*
X029763Y003807D01*
X029812Y003812D01*
X029863Y003813D01*
X029913Y003810D01*
X029962Y003803D01*
X030011Y003792D01*
X030059Y003777D01*
X030105Y003759D01*
X030150Y003737D01*
X030193Y003711D01*
X030234Y003682D01*
X030273Y003650D01*
X030309Y003615D01*
X030341Y003577D01*
X030371Y003537D01*
X030398Y003494D01*
X030421Y003450D01*
X030440Y003404D01*
X030456Y003356D01*
X030468Y003307D01*
X030476Y003258D01*
X030480Y003208D01*
X030480Y003158D01*
X030476Y003108D01*
X030468Y003059D01*
X030456Y003010D01*
X030440Y002962D01*
X030421Y002916D01*
X030398Y002872D01*
X030371Y002829D01*
X030341Y002789D01*
X030309Y002751D01*
X030273Y002716D01*
X030234Y002684D01*
X030193Y002655D01*
X030150Y002629D01*
X030105Y002607D01*
X030059Y002589D01*
X030011Y002574D01*
X029962Y002563D01*
X029913Y002556D01*
X029863Y002553D01*
X029812Y002554D01*
X029763Y002559D01*
X029713Y002568D01*
X029665Y002581D01*
X029618Y002597D01*
X029572Y002618D01*
X029528Y002642D01*
X029486Y002669D01*
X029446Y002699D01*
X029409Y002733D01*
X029375Y002770D01*
X029343Y002809D01*
X029315Y002850D01*
X029290Y002894D01*
X029269Y002939D01*
X029252Y002986D01*
X029238Y003034D01*
X029228Y003083D01*
X029222Y003133D01*
X029220Y003183D01*
X033720Y003183D02*
X033722Y003233D01*
X033728Y003283D01*
X033738Y003332D01*
X033752Y003380D01*
X033769Y003427D01*
X033790Y003472D01*
X033815Y003516D01*
X033843Y003557D01*
X033875Y003596D01*
X033909Y003633D01*
X033946Y003667D01*
X033986Y003697D01*
X034028Y003724D01*
X034072Y003748D01*
X034118Y003769D01*
X034165Y003785D01*
X034213Y003798D01*
X034263Y003807D01*
X034312Y003812D01*
X034363Y003813D01*
X034413Y003810D01*
X034462Y003803D01*
X034511Y003792D01*
X034559Y003777D01*
X034605Y003759D01*
X034650Y003737D01*
X034693Y003711D01*
X034734Y003682D01*
X034773Y003650D01*
X034809Y003615D01*
X034841Y003577D01*
X034871Y003537D01*
X034898Y003494D01*
X034921Y003450D01*
X034940Y003404D01*
X034956Y003356D01*
X034968Y003307D01*
X034976Y003258D01*
X034980Y003208D01*
X034980Y003158D01*
X034976Y003108D01*
X034968Y003059D01*
X034956Y003010D01*
X034940Y002962D01*
X034921Y002916D01*
X034898Y002872D01*
X034871Y002829D01*
X034841Y002789D01*
X034809Y002751D01*
X034773Y002716D01*
X034734Y002684D01*
X034693Y002655D01*
X034650Y002629D01*
X034605Y002607D01*
X034559Y002589D01*
X034511Y002574D01*
X034462Y002563D01*
X034413Y002556D01*
X034363Y002553D01*
X034312Y002554D01*
X034263Y002559D01*
X034213Y002568D01*
X034165Y002581D01*
X034118Y002597D01*
X034072Y002618D01*
X034028Y002642D01*
X033986Y002669D01*
X033946Y002699D01*
X033909Y002733D01*
X033875Y002770D01*
X033843Y002809D01*
X033815Y002850D01*
X033790Y002894D01*
X033769Y002939D01*
X033752Y002986D01*
X033738Y003034D01*
X033728Y003083D01*
X033722Y003133D01*
X033720Y003183D01*
X037220Y003183D02*
X037222Y003233D01*
X037228Y003283D01*
X037238Y003332D01*
X037252Y003380D01*
X037269Y003427D01*
X037290Y003472D01*
X037315Y003516D01*
X037343Y003557D01*
X037375Y003596D01*
X037409Y003633D01*
X037446Y003667D01*
X037486Y003697D01*
X037528Y003724D01*
X037572Y003748D01*
X037618Y003769D01*
X037665Y003785D01*
X037713Y003798D01*
X037763Y003807D01*
X037812Y003812D01*
X037863Y003813D01*
X037913Y003810D01*
X037962Y003803D01*
X038011Y003792D01*
X038059Y003777D01*
X038105Y003759D01*
X038150Y003737D01*
X038193Y003711D01*
X038234Y003682D01*
X038273Y003650D01*
X038309Y003615D01*
X038341Y003577D01*
X038371Y003537D01*
X038398Y003494D01*
X038421Y003450D01*
X038440Y003404D01*
X038456Y003356D01*
X038468Y003307D01*
X038476Y003258D01*
X038480Y003208D01*
X038480Y003158D01*
X038476Y003108D01*
X038468Y003059D01*
X038456Y003010D01*
X038440Y002962D01*
X038421Y002916D01*
X038398Y002872D01*
X038371Y002829D01*
X038341Y002789D01*
X038309Y002751D01*
X038273Y002716D01*
X038234Y002684D01*
X038193Y002655D01*
X038150Y002629D01*
X038105Y002607D01*
X038059Y002589D01*
X038011Y002574D01*
X037962Y002563D01*
X037913Y002556D01*
X037863Y002553D01*
X037812Y002554D01*
X037763Y002559D01*
X037713Y002568D01*
X037665Y002581D01*
X037618Y002597D01*
X037572Y002618D01*
X037528Y002642D01*
X037486Y002669D01*
X037446Y002699D01*
X037409Y002733D01*
X037375Y002770D01*
X037343Y002809D01*
X037315Y002850D01*
X037290Y002894D01*
X037269Y002939D01*
X037252Y002986D01*
X037238Y003034D01*
X037228Y003083D01*
X037222Y003133D01*
X037220Y003183D01*
X041720Y003183D02*
X041722Y003233D01*
X041728Y003283D01*
X041738Y003332D01*
X041752Y003380D01*
X041769Y003427D01*
X041790Y003472D01*
X041815Y003516D01*
X041843Y003557D01*
X041875Y003596D01*
X041909Y003633D01*
X041946Y003667D01*
X041986Y003697D01*
X042028Y003724D01*
X042072Y003748D01*
X042118Y003769D01*
X042165Y003785D01*
X042213Y003798D01*
X042263Y003807D01*
X042312Y003812D01*
X042363Y003813D01*
X042413Y003810D01*
X042462Y003803D01*
X042511Y003792D01*
X042559Y003777D01*
X042605Y003759D01*
X042650Y003737D01*
X042693Y003711D01*
X042734Y003682D01*
X042773Y003650D01*
X042809Y003615D01*
X042841Y003577D01*
X042871Y003537D01*
X042898Y003494D01*
X042921Y003450D01*
X042940Y003404D01*
X042956Y003356D01*
X042968Y003307D01*
X042976Y003258D01*
X042980Y003208D01*
X042980Y003158D01*
X042976Y003108D01*
X042968Y003059D01*
X042956Y003010D01*
X042940Y002962D01*
X042921Y002916D01*
X042898Y002872D01*
X042871Y002829D01*
X042841Y002789D01*
X042809Y002751D01*
X042773Y002716D01*
X042734Y002684D01*
X042693Y002655D01*
X042650Y002629D01*
X042605Y002607D01*
X042559Y002589D01*
X042511Y002574D01*
X042462Y002563D01*
X042413Y002556D01*
X042363Y002553D01*
X042312Y002554D01*
X042263Y002559D01*
X042213Y002568D01*
X042165Y002581D01*
X042118Y002597D01*
X042072Y002618D01*
X042028Y002642D01*
X041986Y002669D01*
X041946Y002699D01*
X041909Y002733D01*
X041875Y002770D01*
X041843Y002809D01*
X041815Y002850D01*
X041790Y002894D01*
X041769Y002939D01*
X041752Y002986D01*
X041738Y003034D01*
X041728Y003083D01*
X041722Y003133D01*
X041720Y003183D01*
X045220Y003183D02*
X045222Y003233D01*
X045228Y003283D01*
X045238Y003332D01*
X045252Y003380D01*
X045269Y003427D01*
X045290Y003472D01*
X045315Y003516D01*
X045343Y003557D01*
X045375Y003596D01*
X045409Y003633D01*
X045446Y003667D01*
X045486Y003697D01*
X045528Y003724D01*
X045572Y003748D01*
X045618Y003769D01*
X045665Y003785D01*
X045713Y003798D01*
X045763Y003807D01*
X045812Y003812D01*
X045863Y003813D01*
X045913Y003810D01*
X045962Y003803D01*
X046011Y003792D01*
X046059Y003777D01*
X046105Y003759D01*
X046150Y003737D01*
X046193Y003711D01*
X046234Y003682D01*
X046273Y003650D01*
X046309Y003615D01*
X046341Y003577D01*
X046371Y003537D01*
X046398Y003494D01*
X046421Y003450D01*
X046440Y003404D01*
X046456Y003356D01*
X046468Y003307D01*
X046476Y003258D01*
X046480Y003208D01*
X046480Y003158D01*
X046476Y003108D01*
X046468Y003059D01*
X046456Y003010D01*
X046440Y002962D01*
X046421Y002916D01*
X046398Y002872D01*
X046371Y002829D01*
X046341Y002789D01*
X046309Y002751D01*
X046273Y002716D01*
X046234Y002684D01*
X046193Y002655D01*
X046150Y002629D01*
X046105Y002607D01*
X046059Y002589D01*
X046011Y002574D01*
X045962Y002563D01*
X045913Y002556D01*
X045863Y002553D01*
X045812Y002554D01*
X045763Y002559D01*
X045713Y002568D01*
X045665Y002581D01*
X045618Y002597D01*
X045572Y002618D01*
X045528Y002642D01*
X045486Y002669D01*
X045446Y002699D01*
X045409Y002733D01*
X045375Y002770D01*
X045343Y002809D01*
X045315Y002850D01*
X045290Y002894D01*
X045269Y002939D01*
X045252Y002986D01*
X045238Y003034D01*
X045228Y003083D01*
X045222Y003133D01*
X045220Y003183D01*
X049720Y003183D02*
X049722Y003233D01*
X049728Y003283D01*
X049738Y003332D01*
X049752Y003380D01*
X049769Y003427D01*
X049790Y003472D01*
X049815Y003516D01*
X049843Y003557D01*
X049875Y003596D01*
X049909Y003633D01*
X049946Y003667D01*
X049986Y003697D01*
X050028Y003724D01*
X050072Y003748D01*
X050118Y003769D01*
X050165Y003785D01*
X050213Y003798D01*
X050263Y003807D01*
X050312Y003812D01*
X050363Y003813D01*
X050413Y003810D01*
X050462Y003803D01*
X050511Y003792D01*
X050559Y003777D01*
X050605Y003759D01*
X050650Y003737D01*
X050693Y003711D01*
X050734Y003682D01*
X050773Y003650D01*
X050809Y003615D01*
X050841Y003577D01*
X050871Y003537D01*
X050898Y003494D01*
X050921Y003450D01*
X050940Y003404D01*
X050956Y003356D01*
X050968Y003307D01*
X050976Y003258D01*
X050980Y003208D01*
X050980Y003158D01*
X050976Y003108D01*
X050968Y003059D01*
X050956Y003010D01*
X050940Y002962D01*
X050921Y002916D01*
X050898Y002872D01*
X050871Y002829D01*
X050841Y002789D01*
X050809Y002751D01*
X050773Y002716D01*
X050734Y002684D01*
X050693Y002655D01*
X050650Y002629D01*
X050605Y002607D01*
X050559Y002589D01*
X050511Y002574D01*
X050462Y002563D01*
X050413Y002556D01*
X050363Y002553D01*
X050312Y002554D01*
X050263Y002559D01*
X050213Y002568D01*
X050165Y002581D01*
X050118Y002597D01*
X050072Y002618D01*
X050028Y002642D01*
X049986Y002669D01*
X049946Y002699D01*
X049909Y002733D01*
X049875Y002770D01*
X049843Y002809D01*
X049815Y002850D01*
X049790Y002894D01*
X049769Y002939D01*
X049752Y002986D01*
X049738Y003034D01*
X049728Y003083D01*
X049722Y003133D01*
X049720Y003183D01*
X053220Y003183D02*
X053222Y003233D01*
X053228Y003283D01*
X053238Y003332D01*
X053252Y003380D01*
X053269Y003427D01*
X053290Y003472D01*
X053315Y003516D01*
X053343Y003557D01*
X053375Y003596D01*
X053409Y003633D01*
X053446Y003667D01*
X053486Y003697D01*
X053528Y003724D01*
X053572Y003748D01*
X053618Y003769D01*
X053665Y003785D01*
X053713Y003798D01*
X053763Y003807D01*
X053812Y003812D01*
X053863Y003813D01*
X053913Y003810D01*
X053962Y003803D01*
X054011Y003792D01*
X054059Y003777D01*
X054105Y003759D01*
X054150Y003737D01*
X054193Y003711D01*
X054234Y003682D01*
X054273Y003650D01*
X054309Y003615D01*
X054341Y003577D01*
X054371Y003537D01*
X054398Y003494D01*
X054421Y003450D01*
X054440Y003404D01*
X054456Y003356D01*
X054468Y003307D01*
X054476Y003258D01*
X054480Y003208D01*
X054480Y003158D01*
X054476Y003108D01*
X054468Y003059D01*
X054456Y003010D01*
X054440Y002962D01*
X054421Y002916D01*
X054398Y002872D01*
X054371Y002829D01*
X054341Y002789D01*
X054309Y002751D01*
X054273Y002716D01*
X054234Y002684D01*
X054193Y002655D01*
X054150Y002629D01*
X054105Y002607D01*
X054059Y002589D01*
X054011Y002574D01*
X053962Y002563D01*
X053913Y002556D01*
X053863Y002553D01*
X053812Y002554D01*
X053763Y002559D01*
X053713Y002568D01*
X053665Y002581D01*
X053618Y002597D01*
X053572Y002618D01*
X053528Y002642D01*
X053486Y002669D01*
X053446Y002699D01*
X053409Y002733D01*
X053375Y002770D01*
X053343Y002809D01*
X053315Y002850D01*
X053290Y002894D01*
X053269Y002939D01*
X053252Y002986D01*
X053238Y003034D01*
X053228Y003083D01*
X053222Y003133D01*
X053220Y003183D01*
X057720Y003183D02*
X057722Y003233D01*
X057728Y003283D01*
X057738Y003332D01*
X057752Y003380D01*
X057769Y003427D01*
X057790Y003472D01*
X057815Y003516D01*
X057843Y003557D01*
X057875Y003596D01*
X057909Y003633D01*
X057946Y003667D01*
X057986Y003697D01*
X058028Y003724D01*
X058072Y003748D01*
X058118Y003769D01*
X058165Y003785D01*
X058213Y003798D01*
X058263Y003807D01*
X058312Y003812D01*
X058363Y003813D01*
X058413Y003810D01*
X058462Y003803D01*
X058511Y003792D01*
X058559Y003777D01*
X058605Y003759D01*
X058650Y003737D01*
X058693Y003711D01*
X058734Y003682D01*
X058773Y003650D01*
X058809Y003615D01*
X058841Y003577D01*
X058871Y003537D01*
X058898Y003494D01*
X058921Y003450D01*
X058940Y003404D01*
X058956Y003356D01*
X058968Y003307D01*
X058976Y003258D01*
X058980Y003208D01*
X058980Y003158D01*
X058976Y003108D01*
X058968Y003059D01*
X058956Y003010D01*
X058940Y002962D01*
X058921Y002916D01*
X058898Y002872D01*
X058871Y002829D01*
X058841Y002789D01*
X058809Y002751D01*
X058773Y002716D01*
X058734Y002684D01*
X058693Y002655D01*
X058650Y002629D01*
X058605Y002607D01*
X058559Y002589D01*
X058511Y002574D01*
X058462Y002563D01*
X058413Y002556D01*
X058363Y002553D01*
X058312Y002554D01*
X058263Y002559D01*
X058213Y002568D01*
X058165Y002581D01*
X058118Y002597D01*
X058072Y002618D01*
X058028Y002642D01*
X057986Y002669D01*
X057946Y002699D01*
X057909Y002733D01*
X057875Y002770D01*
X057843Y002809D01*
X057815Y002850D01*
X057790Y002894D01*
X057769Y002939D01*
X057752Y002986D01*
X057738Y003034D01*
X057728Y003083D01*
X057722Y003133D01*
X057720Y003183D01*
X061220Y003183D02*
X061222Y003233D01*
X061228Y003283D01*
X061238Y003332D01*
X061252Y003380D01*
X061269Y003427D01*
X061290Y003472D01*
X061315Y003516D01*
X061343Y003557D01*
X061375Y003596D01*
X061409Y003633D01*
X061446Y003667D01*
X061486Y003697D01*
X061528Y003724D01*
X061572Y003748D01*
X061618Y003769D01*
X061665Y003785D01*
X061713Y003798D01*
X061763Y003807D01*
X061812Y003812D01*
X061863Y003813D01*
X061913Y003810D01*
X061962Y003803D01*
X062011Y003792D01*
X062059Y003777D01*
X062105Y003759D01*
X062150Y003737D01*
X062193Y003711D01*
X062234Y003682D01*
X062273Y003650D01*
X062309Y003615D01*
X062341Y003577D01*
X062371Y003537D01*
X062398Y003494D01*
X062421Y003450D01*
X062440Y003404D01*
X062456Y003356D01*
X062468Y003307D01*
X062476Y003258D01*
X062480Y003208D01*
X062480Y003158D01*
X062476Y003108D01*
X062468Y003059D01*
X062456Y003010D01*
X062440Y002962D01*
X062421Y002916D01*
X062398Y002872D01*
X062371Y002829D01*
X062341Y002789D01*
X062309Y002751D01*
X062273Y002716D01*
X062234Y002684D01*
X062193Y002655D01*
X062150Y002629D01*
X062105Y002607D01*
X062059Y002589D01*
X062011Y002574D01*
X061962Y002563D01*
X061913Y002556D01*
X061863Y002553D01*
X061812Y002554D01*
X061763Y002559D01*
X061713Y002568D01*
X061665Y002581D01*
X061618Y002597D01*
X061572Y002618D01*
X061528Y002642D01*
X061486Y002669D01*
X061446Y002699D01*
X061409Y002733D01*
X061375Y002770D01*
X061343Y002809D01*
X061315Y002850D01*
X061290Y002894D01*
X061269Y002939D01*
X061252Y002986D01*
X061238Y003034D01*
X061228Y003083D01*
X061222Y003133D01*
X061220Y003183D01*
X065720Y003183D02*
X065722Y003233D01*
X065728Y003283D01*
X065738Y003332D01*
X065752Y003380D01*
X065769Y003427D01*
X065790Y003472D01*
X065815Y003516D01*
X065843Y003557D01*
X065875Y003596D01*
X065909Y003633D01*
X065946Y003667D01*
X065986Y003697D01*
X066028Y003724D01*
X066072Y003748D01*
X066118Y003769D01*
X066165Y003785D01*
X066213Y003798D01*
X066263Y003807D01*
X066312Y003812D01*
X066363Y003813D01*
X066413Y003810D01*
X066462Y003803D01*
X066511Y003792D01*
X066559Y003777D01*
X066605Y003759D01*
X066650Y003737D01*
X066693Y003711D01*
X066734Y003682D01*
X066773Y003650D01*
X066809Y003615D01*
X066841Y003577D01*
X066871Y003537D01*
X066898Y003494D01*
X066921Y003450D01*
X066940Y003404D01*
X066956Y003356D01*
X066968Y003307D01*
X066976Y003258D01*
X066980Y003208D01*
X066980Y003158D01*
X066976Y003108D01*
X066968Y003059D01*
X066956Y003010D01*
X066940Y002962D01*
X066921Y002916D01*
X066898Y002872D01*
X066871Y002829D01*
X066841Y002789D01*
X066809Y002751D01*
X066773Y002716D01*
X066734Y002684D01*
X066693Y002655D01*
X066650Y002629D01*
X066605Y002607D01*
X066559Y002589D01*
X066511Y002574D01*
X066462Y002563D01*
X066413Y002556D01*
X066363Y002553D01*
X066312Y002554D01*
X066263Y002559D01*
X066213Y002568D01*
X066165Y002581D01*
X066118Y002597D01*
X066072Y002618D01*
X066028Y002642D01*
X065986Y002669D01*
X065946Y002699D01*
X065909Y002733D01*
X065875Y002770D01*
X065843Y002809D01*
X065815Y002850D01*
X065790Y002894D01*
X065769Y002939D01*
X065752Y002986D01*
X065738Y003034D01*
X065728Y003083D01*
X065722Y003133D01*
X065720Y003183D01*
X068600Y002350D02*
X068602Y002420D01*
X068608Y002490D01*
X068618Y002559D01*
X068631Y002628D01*
X068649Y002696D01*
X068670Y002763D01*
X068695Y002828D01*
X068724Y002892D01*
X068756Y002955D01*
X068792Y003015D01*
X068831Y003073D01*
X068873Y003129D01*
X068918Y003183D01*
X068966Y003234D01*
X069017Y003282D01*
X069071Y003327D01*
X069127Y003369D01*
X069185Y003408D01*
X069245Y003444D01*
X069308Y003476D01*
X069372Y003505D01*
X069437Y003530D01*
X069504Y003551D01*
X069572Y003569D01*
X069641Y003582D01*
X069710Y003592D01*
X069780Y003598D01*
X069850Y003600D01*
X069920Y003598D01*
X069990Y003592D01*
X070059Y003582D01*
X070128Y003569D01*
X070196Y003551D01*
X070263Y003530D01*
X070328Y003505D01*
X070392Y003476D01*
X070455Y003444D01*
X070515Y003408D01*
X070573Y003369D01*
X070629Y003327D01*
X070683Y003282D01*
X070734Y003234D01*
X070782Y003183D01*
X070827Y003129D01*
X070869Y003073D01*
X070908Y003015D01*
X070944Y002955D01*
X070976Y002892D01*
X071005Y002828D01*
X071030Y002763D01*
X071051Y002696D01*
X071069Y002628D01*
X071082Y002559D01*
X071092Y002490D01*
X071098Y002420D01*
X071100Y002350D01*
X071098Y002280D01*
X071092Y002210D01*
X071082Y002141D01*
X071069Y002072D01*
X071051Y002004D01*
X071030Y001937D01*
X071005Y001872D01*
X070976Y001808D01*
X070944Y001745D01*
X070908Y001685D01*
X070869Y001627D01*
X070827Y001571D01*
X070782Y001517D01*
X070734Y001466D01*
X070683Y001418D01*
X070629Y001373D01*
X070573Y001331D01*
X070515Y001292D01*
X070455Y001256D01*
X070392Y001224D01*
X070328Y001195D01*
X070263Y001170D01*
X070196Y001149D01*
X070128Y001131D01*
X070059Y001118D01*
X069990Y001108D01*
X069920Y001102D01*
X069850Y001100D01*
X069780Y001102D01*
X069710Y001108D01*
X069641Y001118D01*
X069572Y001131D01*
X069504Y001149D01*
X069437Y001170D01*
X069372Y001195D01*
X069308Y001224D01*
X069245Y001256D01*
X069185Y001292D01*
X069127Y001331D01*
X069071Y001373D01*
X069017Y001418D01*
X068966Y001466D01*
X068918Y001517D01*
X068873Y001571D01*
X068831Y001627D01*
X068792Y001685D01*
X068756Y001745D01*
X068724Y001808D01*
X068695Y001872D01*
X068670Y001937D01*
X068649Y002004D01*
X068631Y002072D01*
X068618Y002141D01*
X068608Y002210D01*
X068602Y002280D01*
X068600Y002350D01*
X065720Y011683D02*
X065722Y011733D01*
X065728Y011783D01*
X065738Y011832D01*
X065752Y011880D01*
X065769Y011927D01*
X065790Y011972D01*
X065815Y012016D01*
X065843Y012057D01*
X065875Y012096D01*
X065909Y012133D01*
X065946Y012167D01*
X065986Y012197D01*
X066028Y012224D01*
X066072Y012248D01*
X066118Y012269D01*
X066165Y012285D01*
X066213Y012298D01*
X066263Y012307D01*
X066312Y012312D01*
X066363Y012313D01*
X066413Y012310D01*
X066462Y012303D01*
X066511Y012292D01*
X066559Y012277D01*
X066605Y012259D01*
X066650Y012237D01*
X066693Y012211D01*
X066734Y012182D01*
X066773Y012150D01*
X066809Y012115D01*
X066841Y012077D01*
X066871Y012037D01*
X066898Y011994D01*
X066921Y011950D01*
X066940Y011904D01*
X066956Y011856D01*
X066968Y011807D01*
X066976Y011758D01*
X066980Y011708D01*
X066980Y011658D01*
X066976Y011608D01*
X066968Y011559D01*
X066956Y011510D01*
X066940Y011462D01*
X066921Y011416D01*
X066898Y011372D01*
X066871Y011329D01*
X066841Y011289D01*
X066809Y011251D01*
X066773Y011216D01*
X066734Y011184D01*
X066693Y011155D01*
X066650Y011129D01*
X066605Y011107D01*
X066559Y011089D01*
X066511Y011074D01*
X066462Y011063D01*
X066413Y011056D01*
X066363Y011053D01*
X066312Y011054D01*
X066263Y011059D01*
X066213Y011068D01*
X066165Y011081D01*
X066118Y011097D01*
X066072Y011118D01*
X066028Y011142D01*
X065986Y011169D01*
X065946Y011199D01*
X065909Y011233D01*
X065875Y011270D01*
X065843Y011309D01*
X065815Y011350D01*
X065790Y011394D01*
X065769Y011439D01*
X065752Y011486D01*
X065738Y011534D01*
X065728Y011583D01*
X065722Y011633D01*
X065720Y011683D01*
X061220Y011683D02*
X061222Y011733D01*
X061228Y011783D01*
X061238Y011832D01*
X061252Y011880D01*
X061269Y011927D01*
X061290Y011972D01*
X061315Y012016D01*
X061343Y012057D01*
X061375Y012096D01*
X061409Y012133D01*
X061446Y012167D01*
X061486Y012197D01*
X061528Y012224D01*
X061572Y012248D01*
X061618Y012269D01*
X061665Y012285D01*
X061713Y012298D01*
X061763Y012307D01*
X061812Y012312D01*
X061863Y012313D01*
X061913Y012310D01*
X061962Y012303D01*
X062011Y012292D01*
X062059Y012277D01*
X062105Y012259D01*
X062150Y012237D01*
X062193Y012211D01*
X062234Y012182D01*
X062273Y012150D01*
X062309Y012115D01*
X062341Y012077D01*
X062371Y012037D01*
X062398Y011994D01*
X062421Y011950D01*
X062440Y011904D01*
X062456Y011856D01*
X062468Y011807D01*
X062476Y011758D01*
X062480Y011708D01*
X062480Y011658D01*
X062476Y011608D01*
X062468Y011559D01*
X062456Y011510D01*
X062440Y011462D01*
X062421Y011416D01*
X062398Y011372D01*
X062371Y011329D01*
X062341Y011289D01*
X062309Y011251D01*
X062273Y011216D01*
X062234Y011184D01*
X062193Y011155D01*
X062150Y011129D01*
X062105Y011107D01*
X062059Y011089D01*
X062011Y011074D01*
X061962Y011063D01*
X061913Y011056D01*
X061863Y011053D01*
X061812Y011054D01*
X061763Y011059D01*
X061713Y011068D01*
X061665Y011081D01*
X061618Y011097D01*
X061572Y011118D01*
X061528Y011142D01*
X061486Y011169D01*
X061446Y011199D01*
X061409Y011233D01*
X061375Y011270D01*
X061343Y011309D01*
X061315Y011350D01*
X061290Y011394D01*
X061269Y011439D01*
X061252Y011486D01*
X061238Y011534D01*
X061228Y011583D01*
X061222Y011633D01*
X061220Y011683D01*
X057720Y011683D02*
X057722Y011733D01*
X057728Y011783D01*
X057738Y011832D01*
X057752Y011880D01*
X057769Y011927D01*
X057790Y011972D01*
X057815Y012016D01*
X057843Y012057D01*
X057875Y012096D01*
X057909Y012133D01*
X057946Y012167D01*
X057986Y012197D01*
X058028Y012224D01*
X058072Y012248D01*
X058118Y012269D01*
X058165Y012285D01*
X058213Y012298D01*
X058263Y012307D01*
X058312Y012312D01*
X058363Y012313D01*
X058413Y012310D01*
X058462Y012303D01*
X058511Y012292D01*
X058559Y012277D01*
X058605Y012259D01*
X058650Y012237D01*
X058693Y012211D01*
X058734Y012182D01*
X058773Y012150D01*
X058809Y012115D01*
X058841Y012077D01*
X058871Y012037D01*
X058898Y011994D01*
X058921Y011950D01*
X058940Y011904D01*
X058956Y011856D01*
X058968Y011807D01*
X058976Y011758D01*
X058980Y011708D01*
X058980Y011658D01*
X058976Y011608D01*
X058968Y011559D01*
X058956Y011510D01*
X058940Y011462D01*
X058921Y011416D01*
X058898Y011372D01*
X058871Y011329D01*
X058841Y011289D01*
X058809Y011251D01*
X058773Y011216D01*
X058734Y011184D01*
X058693Y011155D01*
X058650Y011129D01*
X058605Y011107D01*
X058559Y011089D01*
X058511Y011074D01*
X058462Y011063D01*
X058413Y011056D01*
X058363Y011053D01*
X058312Y011054D01*
X058263Y011059D01*
X058213Y011068D01*
X058165Y011081D01*
X058118Y011097D01*
X058072Y011118D01*
X058028Y011142D01*
X057986Y011169D01*
X057946Y011199D01*
X057909Y011233D01*
X057875Y011270D01*
X057843Y011309D01*
X057815Y011350D01*
X057790Y011394D01*
X057769Y011439D01*
X057752Y011486D01*
X057738Y011534D01*
X057728Y011583D01*
X057722Y011633D01*
X057720Y011683D01*
X053220Y011683D02*
X053222Y011733D01*
X053228Y011783D01*
X053238Y011832D01*
X053252Y011880D01*
X053269Y011927D01*
X053290Y011972D01*
X053315Y012016D01*
X053343Y012057D01*
X053375Y012096D01*
X053409Y012133D01*
X053446Y012167D01*
X053486Y012197D01*
X053528Y012224D01*
X053572Y012248D01*
X053618Y012269D01*
X053665Y012285D01*
X053713Y012298D01*
X053763Y012307D01*
X053812Y012312D01*
X053863Y012313D01*
X053913Y012310D01*
X053962Y012303D01*
X054011Y012292D01*
X054059Y012277D01*
X054105Y012259D01*
X054150Y012237D01*
X054193Y012211D01*
X054234Y012182D01*
X054273Y012150D01*
X054309Y012115D01*
X054341Y012077D01*
X054371Y012037D01*
X054398Y011994D01*
X054421Y011950D01*
X054440Y011904D01*
X054456Y011856D01*
X054468Y011807D01*
X054476Y011758D01*
X054480Y011708D01*
X054480Y011658D01*
X054476Y011608D01*
X054468Y011559D01*
X054456Y011510D01*
X054440Y011462D01*
X054421Y011416D01*
X054398Y011372D01*
X054371Y011329D01*
X054341Y011289D01*
X054309Y011251D01*
X054273Y011216D01*
X054234Y011184D01*
X054193Y011155D01*
X054150Y011129D01*
X054105Y011107D01*
X054059Y011089D01*
X054011Y011074D01*
X053962Y011063D01*
X053913Y011056D01*
X053863Y011053D01*
X053812Y011054D01*
X053763Y011059D01*
X053713Y011068D01*
X053665Y011081D01*
X053618Y011097D01*
X053572Y011118D01*
X053528Y011142D01*
X053486Y011169D01*
X053446Y011199D01*
X053409Y011233D01*
X053375Y011270D01*
X053343Y011309D01*
X053315Y011350D01*
X053290Y011394D01*
X053269Y011439D01*
X053252Y011486D01*
X053238Y011534D01*
X053228Y011583D01*
X053222Y011633D01*
X053220Y011683D01*
X049720Y011683D02*
X049722Y011733D01*
X049728Y011783D01*
X049738Y011832D01*
X049752Y011880D01*
X049769Y011927D01*
X049790Y011972D01*
X049815Y012016D01*
X049843Y012057D01*
X049875Y012096D01*
X049909Y012133D01*
X049946Y012167D01*
X049986Y012197D01*
X050028Y012224D01*
X050072Y012248D01*
X050118Y012269D01*
X050165Y012285D01*
X050213Y012298D01*
X050263Y012307D01*
X050312Y012312D01*
X050363Y012313D01*
X050413Y012310D01*
X050462Y012303D01*
X050511Y012292D01*
X050559Y012277D01*
X050605Y012259D01*
X050650Y012237D01*
X050693Y012211D01*
X050734Y012182D01*
X050773Y012150D01*
X050809Y012115D01*
X050841Y012077D01*
X050871Y012037D01*
X050898Y011994D01*
X050921Y011950D01*
X050940Y011904D01*
X050956Y011856D01*
X050968Y011807D01*
X050976Y011758D01*
X050980Y011708D01*
X050980Y011658D01*
X050976Y011608D01*
X050968Y011559D01*
X050956Y011510D01*
X050940Y011462D01*
X050921Y011416D01*
X050898Y011372D01*
X050871Y011329D01*
X050841Y011289D01*
X050809Y011251D01*
X050773Y011216D01*
X050734Y011184D01*
X050693Y011155D01*
X050650Y011129D01*
X050605Y011107D01*
X050559Y011089D01*
X050511Y011074D01*
X050462Y011063D01*
X050413Y011056D01*
X050363Y011053D01*
X050312Y011054D01*
X050263Y011059D01*
X050213Y011068D01*
X050165Y011081D01*
X050118Y011097D01*
X050072Y011118D01*
X050028Y011142D01*
X049986Y011169D01*
X049946Y011199D01*
X049909Y011233D01*
X049875Y011270D01*
X049843Y011309D01*
X049815Y011350D01*
X049790Y011394D01*
X049769Y011439D01*
X049752Y011486D01*
X049738Y011534D01*
X049728Y011583D01*
X049722Y011633D01*
X049720Y011683D01*
X045220Y011683D02*
X045222Y011733D01*
X045228Y011783D01*
X045238Y011832D01*
X045252Y011880D01*
X045269Y011927D01*
X045290Y011972D01*
X045315Y012016D01*
X045343Y012057D01*
X045375Y012096D01*
X045409Y012133D01*
X045446Y012167D01*
X045486Y012197D01*
X045528Y012224D01*
X045572Y012248D01*
X045618Y012269D01*
X045665Y012285D01*
X045713Y012298D01*
X045763Y012307D01*
X045812Y012312D01*
X045863Y012313D01*
X045913Y012310D01*
X045962Y012303D01*
X046011Y012292D01*
X046059Y012277D01*
X046105Y012259D01*
X046150Y012237D01*
X046193Y012211D01*
X046234Y012182D01*
X046273Y012150D01*
X046309Y012115D01*
X046341Y012077D01*
X046371Y012037D01*
X046398Y011994D01*
X046421Y011950D01*
X046440Y011904D01*
X046456Y011856D01*
X046468Y011807D01*
X046476Y011758D01*
X046480Y011708D01*
X046480Y011658D01*
X046476Y011608D01*
X046468Y011559D01*
X046456Y011510D01*
X046440Y011462D01*
X046421Y011416D01*
X046398Y011372D01*
X046371Y011329D01*
X046341Y011289D01*
X046309Y011251D01*
X046273Y011216D01*
X046234Y011184D01*
X046193Y011155D01*
X046150Y011129D01*
X046105Y011107D01*
X046059Y011089D01*
X046011Y011074D01*
X045962Y011063D01*
X045913Y011056D01*
X045863Y011053D01*
X045812Y011054D01*
X045763Y011059D01*
X045713Y011068D01*
X045665Y011081D01*
X045618Y011097D01*
X045572Y011118D01*
X045528Y011142D01*
X045486Y011169D01*
X045446Y011199D01*
X045409Y011233D01*
X045375Y011270D01*
X045343Y011309D01*
X045315Y011350D01*
X045290Y011394D01*
X045269Y011439D01*
X045252Y011486D01*
X045238Y011534D01*
X045228Y011583D01*
X045222Y011633D01*
X045220Y011683D01*
X041720Y011683D02*
X041722Y011733D01*
X041728Y011783D01*
X041738Y011832D01*
X041752Y011880D01*
X041769Y011927D01*
X041790Y011972D01*
X041815Y012016D01*
X041843Y012057D01*
X041875Y012096D01*
X041909Y012133D01*
X041946Y012167D01*
X041986Y012197D01*
X042028Y012224D01*
X042072Y012248D01*
X042118Y012269D01*
X042165Y012285D01*
X042213Y012298D01*
X042263Y012307D01*
X042312Y012312D01*
X042363Y012313D01*
X042413Y012310D01*
X042462Y012303D01*
X042511Y012292D01*
X042559Y012277D01*
X042605Y012259D01*
X042650Y012237D01*
X042693Y012211D01*
X042734Y012182D01*
X042773Y012150D01*
X042809Y012115D01*
X042841Y012077D01*
X042871Y012037D01*
X042898Y011994D01*
X042921Y011950D01*
X042940Y011904D01*
X042956Y011856D01*
X042968Y011807D01*
X042976Y011758D01*
X042980Y011708D01*
X042980Y011658D01*
X042976Y011608D01*
X042968Y011559D01*
X042956Y011510D01*
X042940Y011462D01*
X042921Y011416D01*
X042898Y011372D01*
X042871Y011329D01*
X042841Y011289D01*
X042809Y011251D01*
X042773Y011216D01*
X042734Y011184D01*
X042693Y011155D01*
X042650Y011129D01*
X042605Y011107D01*
X042559Y011089D01*
X042511Y011074D01*
X042462Y011063D01*
X042413Y011056D01*
X042363Y011053D01*
X042312Y011054D01*
X042263Y011059D01*
X042213Y011068D01*
X042165Y011081D01*
X042118Y011097D01*
X042072Y011118D01*
X042028Y011142D01*
X041986Y011169D01*
X041946Y011199D01*
X041909Y011233D01*
X041875Y011270D01*
X041843Y011309D01*
X041815Y011350D01*
X041790Y011394D01*
X041769Y011439D01*
X041752Y011486D01*
X041738Y011534D01*
X041728Y011583D01*
X041722Y011633D01*
X041720Y011683D01*
X037220Y011683D02*
X037222Y011733D01*
X037228Y011783D01*
X037238Y011832D01*
X037252Y011880D01*
X037269Y011927D01*
X037290Y011972D01*
X037315Y012016D01*
X037343Y012057D01*
X037375Y012096D01*
X037409Y012133D01*
X037446Y012167D01*
X037486Y012197D01*
X037528Y012224D01*
X037572Y012248D01*
X037618Y012269D01*
X037665Y012285D01*
X037713Y012298D01*
X037763Y012307D01*
X037812Y012312D01*
X037863Y012313D01*
X037913Y012310D01*
X037962Y012303D01*
X038011Y012292D01*
X038059Y012277D01*
X038105Y012259D01*
X038150Y012237D01*
X038193Y012211D01*
X038234Y012182D01*
X038273Y012150D01*
X038309Y012115D01*
X038341Y012077D01*
X038371Y012037D01*
X038398Y011994D01*
X038421Y011950D01*
X038440Y011904D01*
X038456Y011856D01*
X038468Y011807D01*
X038476Y011758D01*
X038480Y011708D01*
X038480Y011658D01*
X038476Y011608D01*
X038468Y011559D01*
X038456Y011510D01*
X038440Y011462D01*
X038421Y011416D01*
X038398Y011372D01*
X038371Y011329D01*
X038341Y011289D01*
X038309Y011251D01*
X038273Y011216D01*
X038234Y011184D01*
X038193Y011155D01*
X038150Y011129D01*
X038105Y011107D01*
X038059Y011089D01*
X038011Y011074D01*
X037962Y011063D01*
X037913Y011056D01*
X037863Y011053D01*
X037812Y011054D01*
X037763Y011059D01*
X037713Y011068D01*
X037665Y011081D01*
X037618Y011097D01*
X037572Y011118D01*
X037528Y011142D01*
X037486Y011169D01*
X037446Y011199D01*
X037409Y011233D01*
X037375Y011270D01*
X037343Y011309D01*
X037315Y011350D01*
X037290Y011394D01*
X037269Y011439D01*
X037252Y011486D01*
X037238Y011534D01*
X037228Y011583D01*
X037222Y011633D01*
X037220Y011683D01*
X033720Y011683D02*
X033722Y011733D01*
X033728Y011783D01*
X033738Y011832D01*
X033752Y011880D01*
X033769Y011927D01*
X033790Y011972D01*
X033815Y012016D01*
X033843Y012057D01*
X033875Y012096D01*
X033909Y012133D01*
X033946Y012167D01*
X033986Y012197D01*
X034028Y012224D01*
X034072Y012248D01*
X034118Y012269D01*
X034165Y012285D01*
X034213Y012298D01*
X034263Y012307D01*
X034312Y012312D01*
X034363Y012313D01*
X034413Y012310D01*
X034462Y012303D01*
X034511Y012292D01*
X034559Y012277D01*
X034605Y012259D01*
X034650Y012237D01*
X034693Y012211D01*
X034734Y012182D01*
X034773Y012150D01*
X034809Y012115D01*
X034841Y012077D01*
X034871Y012037D01*
X034898Y011994D01*
X034921Y011950D01*
X034940Y011904D01*
X034956Y011856D01*
X034968Y011807D01*
X034976Y011758D01*
X034980Y011708D01*
X034980Y011658D01*
X034976Y011608D01*
X034968Y011559D01*
X034956Y011510D01*
X034940Y011462D01*
X034921Y011416D01*
X034898Y011372D01*
X034871Y011329D01*
X034841Y011289D01*
X034809Y011251D01*
X034773Y011216D01*
X034734Y011184D01*
X034693Y011155D01*
X034650Y011129D01*
X034605Y011107D01*
X034559Y011089D01*
X034511Y011074D01*
X034462Y011063D01*
X034413Y011056D01*
X034363Y011053D01*
X034312Y011054D01*
X034263Y011059D01*
X034213Y011068D01*
X034165Y011081D01*
X034118Y011097D01*
X034072Y011118D01*
X034028Y011142D01*
X033986Y011169D01*
X033946Y011199D01*
X033909Y011233D01*
X033875Y011270D01*
X033843Y011309D01*
X033815Y011350D01*
X033790Y011394D01*
X033769Y011439D01*
X033752Y011486D01*
X033738Y011534D01*
X033728Y011583D01*
X033722Y011633D01*
X033720Y011683D01*
X029220Y011683D02*
X029222Y011733D01*
X029228Y011783D01*
X029238Y011832D01*
X029252Y011880D01*
X029269Y011927D01*
X029290Y011972D01*
X029315Y012016D01*
X029343Y012057D01*
X029375Y012096D01*
X029409Y012133D01*
X029446Y012167D01*
X029486Y012197D01*
X029528Y012224D01*
X029572Y012248D01*
X029618Y012269D01*
X029665Y012285D01*
X029713Y012298D01*
X029763Y012307D01*
X029812Y012312D01*
X029863Y012313D01*
X029913Y012310D01*
X029962Y012303D01*
X030011Y012292D01*
X030059Y012277D01*
X030105Y012259D01*
X030150Y012237D01*
X030193Y012211D01*
X030234Y012182D01*
X030273Y012150D01*
X030309Y012115D01*
X030341Y012077D01*
X030371Y012037D01*
X030398Y011994D01*
X030421Y011950D01*
X030440Y011904D01*
X030456Y011856D01*
X030468Y011807D01*
X030476Y011758D01*
X030480Y011708D01*
X030480Y011658D01*
X030476Y011608D01*
X030468Y011559D01*
X030456Y011510D01*
X030440Y011462D01*
X030421Y011416D01*
X030398Y011372D01*
X030371Y011329D01*
X030341Y011289D01*
X030309Y011251D01*
X030273Y011216D01*
X030234Y011184D01*
X030193Y011155D01*
X030150Y011129D01*
X030105Y011107D01*
X030059Y011089D01*
X030011Y011074D01*
X029962Y011063D01*
X029913Y011056D01*
X029863Y011053D01*
X029812Y011054D01*
X029763Y011059D01*
X029713Y011068D01*
X029665Y011081D01*
X029618Y011097D01*
X029572Y011118D01*
X029528Y011142D01*
X029486Y011169D01*
X029446Y011199D01*
X029409Y011233D01*
X029375Y011270D01*
X029343Y011309D01*
X029315Y011350D01*
X029290Y011394D01*
X029269Y011439D01*
X029252Y011486D01*
X029238Y011534D01*
X029228Y011583D01*
X029222Y011633D01*
X029220Y011683D01*
X025720Y011683D02*
X025722Y011733D01*
X025728Y011783D01*
X025738Y011832D01*
X025752Y011880D01*
X025769Y011927D01*
X025790Y011972D01*
X025815Y012016D01*
X025843Y012057D01*
X025875Y012096D01*
X025909Y012133D01*
X025946Y012167D01*
X025986Y012197D01*
X026028Y012224D01*
X026072Y012248D01*
X026118Y012269D01*
X026165Y012285D01*
X026213Y012298D01*
X026263Y012307D01*
X026312Y012312D01*
X026363Y012313D01*
X026413Y012310D01*
X026462Y012303D01*
X026511Y012292D01*
X026559Y012277D01*
X026605Y012259D01*
X026650Y012237D01*
X026693Y012211D01*
X026734Y012182D01*
X026773Y012150D01*
X026809Y012115D01*
X026841Y012077D01*
X026871Y012037D01*
X026898Y011994D01*
X026921Y011950D01*
X026940Y011904D01*
X026956Y011856D01*
X026968Y011807D01*
X026976Y011758D01*
X026980Y011708D01*
X026980Y011658D01*
X026976Y011608D01*
X026968Y011559D01*
X026956Y011510D01*
X026940Y011462D01*
X026921Y011416D01*
X026898Y011372D01*
X026871Y011329D01*
X026841Y011289D01*
X026809Y011251D01*
X026773Y011216D01*
X026734Y011184D01*
X026693Y011155D01*
X026650Y011129D01*
X026605Y011107D01*
X026559Y011089D01*
X026511Y011074D01*
X026462Y011063D01*
X026413Y011056D01*
X026363Y011053D01*
X026312Y011054D01*
X026263Y011059D01*
X026213Y011068D01*
X026165Y011081D01*
X026118Y011097D01*
X026072Y011118D01*
X026028Y011142D01*
X025986Y011169D01*
X025946Y011199D01*
X025909Y011233D01*
X025875Y011270D01*
X025843Y011309D01*
X025815Y011350D01*
X025790Y011394D01*
X025769Y011439D01*
X025752Y011486D01*
X025738Y011534D01*
X025728Y011583D01*
X025722Y011633D01*
X025720Y011683D01*
X021220Y011683D02*
X021222Y011733D01*
X021228Y011783D01*
X021238Y011832D01*
X021252Y011880D01*
X021269Y011927D01*
X021290Y011972D01*
X021315Y012016D01*
X021343Y012057D01*
X021375Y012096D01*
X021409Y012133D01*
X021446Y012167D01*
X021486Y012197D01*
X021528Y012224D01*
X021572Y012248D01*
X021618Y012269D01*
X021665Y012285D01*
X021713Y012298D01*
X021763Y012307D01*
X021812Y012312D01*
X021863Y012313D01*
X021913Y012310D01*
X021962Y012303D01*
X022011Y012292D01*
X022059Y012277D01*
X022105Y012259D01*
X022150Y012237D01*
X022193Y012211D01*
X022234Y012182D01*
X022273Y012150D01*
X022309Y012115D01*
X022341Y012077D01*
X022371Y012037D01*
X022398Y011994D01*
X022421Y011950D01*
X022440Y011904D01*
X022456Y011856D01*
X022468Y011807D01*
X022476Y011758D01*
X022480Y011708D01*
X022480Y011658D01*
X022476Y011608D01*
X022468Y011559D01*
X022456Y011510D01*
X022440Y011462D01*
X022421Y011416D01*
X022398Y011372D01*
X022371Y011329D01*
X022341Y011289D01*
X022309Y011251D01*
X022273Y011216D01*
X022234Y011184D01*
X022193Y011155D01*
X022150Y011129D01*
X022105Y011107D01*
X022059Y011089D01*
X022011Y011074D01*
X021962Y011063D01*
X021913Y011056D01*
X021863Y011053D01*
X021812Y011054D01*
X021763Y011059D01*
X021713Y011068D01*
X021665Y011081D01*
X021618Y011097D01*
X021572Y011118D01*
X021528Y011142D01*
X021486Y011169D01*
X021446Y011199D01*
X021409Y011233D01*
X021375Y011270D01*
X021343Y011309D01*
X021315Y011350D01*
X021290Y011394D01*
X021269Y011439D01*
X021252Y011486D01*
X021238Y011534D01*
X021228Y011583D01*
X021222Y011633D01*
X021220Y011683D01*
X017720Y011683D02*
X017722Y011733D01*
X017728Y011783D01*
X017738Y011832D01*
X017752Y011880D01*
X017769Y011927D01*
X017790Y011972D01*
X017815Y012016D01*
X017843Y012057D01*
X017875Y012096D01*
X017909Y012133D01*
X017946Y012167D01*
X017986Y012197D01*
X018028Y012224D01*
X018072Y012248D01*
X018118Y012269D01*
X018165Y012285D01*
X018213Y012298D01*
X018263Y012307D01*
X018312Y012312D01*
X018363Y012313D01*
X018413Y012310D01*
X018462Y012303D01*
X018511Y012292D01*
X018559Y012277D01*
X018605Y012259D01*
X018650Y012237D01*
X018693Y012211D01*
X018734Y012182D01*
X018773Y012150D01*
X018809Y012115D01*
X018841Y012077D01*
X018871Y012037D01*
X018898Y011994D01*
X018921Y011950D01*
X018940Y011904D01*
X018956Y011856D01*
X018968Y011807D01*
X018976Y011758D01*
X018980Y011708D01*
X018980Y011658D01*
X018976Y011608D01*
X018968Y011559D01*
X018956Y011510D01*
X018940Y011462D01*
X018921Y011416D01*
X018898Y011372D01*
X018871Y011329D01*
X018841Y011289D01*
X018809Y011251D01*
X018773Y011216D01*
X018734Y011184D01*
X018693Y011155D01*
X018650Y011129D01*
X018605Y011107D01*
X018559Y011089D01*
X018511Y011074D01*
X018462Y011063D01*
X018413Y011056D01*
X018363Y011053D01*
X018312Y011054D01*
X018263Y011059D01*
X018213Y011068D01*
X018165Y011081D01*
X018118Y011097D01*
X018072Y011118D01*
X018028Y011142D01*
X017986Y011169D01*
X017946Y011199D01*
X017909Y011233D01*
X017875Y011270D01*
X017843Y011309D01*
X017815Y011350D01*
X017790Y011394D01*
X017769Y011439D01*
X017752Y011486D01*
X017738Y011534D01*
X017728Y011583D01*
X017722Y011633D01*
X017720Y011683D01*
X013220Y011683D02*
X013222Y011733D01*
X013228Y011783D01*
X013238Y011832D01*
X013252Y011880D01*
X013269Y011927D01*
X013290Y011972D01*
X013315Y012016D01*
X013343Y012057D01*
X013375Y012096D01*
X013409Y012133D01*
X013446Y012167D01*
X013486Y012197D01*
X013528Y012224D01*
X013572Y012248D01*
X013618Y012269D01*
X013665Y012285D01*
X013713Y012298D01*
X013763Y012307D01*
X013812Y012312D01*
X013863Y012313D01*
X013913Y012310D01*
X013962Y012303D01*
X014011Y012292D01*
X014059Y012277D01*
X014105Y012259D01*
X014150Y012237D01*
X014193Y012211D01*
X014234Y012182D01*
X014273Y012150D01*
X014309Y012115D01*
X014341Y012077D01*
X014371Y012037D01*
X014398Y011994D01*
X014421Y011950D01*
X014440Y011904D01*
X014456Y011856D01*
X014468Y011807D01*
X014476Y011758D01*
X014480Y011708D01*
X014480Y011658D01*
X014476Y011608D01*
X014468Y011559D01*
X014456Y011510D01*
X014440Y011462D01*
X014421Y011416D01*
X014398Y011372D01*
X014371Y011329D01*
X014341Y011289D01*
X014309Y011251D01*
X014273Y011216D01*
X014234Y011184D01*
X014193Y011155D01*
X014150Y011129D01*
X014105Y011107D01*
X014059Y011089D01*
X014011Y011074D01*
X013962Y011063D01*
X013913Y011056D01*
X013863Y011053D01*
X013812Y011054D01*
X013763Y011059D01*
X013713Y011068D01*
X013665Y011081D01*
X013618Y011097D01*
X013572Y011118D01*
X013528Y011142D01*
X013486Y011169D01*
X013446Y011199D01*
X013409Y011233D01*
X013375Y011270D01*
X013343Y011309D01*
X013315Y011350D01*
X013290Y011394D01*
X013269Y011439D01*
X013252Y011486D01*
X013238Y011534D01*
X013228Y011583D01*
X013222Y011633D01*
X013220Y011683D01*
X009720Y011683D02*
X009722Y011733D01*
X009728Y011783D01*
X009738Y011832D01*
X009752Y011880D01*
X009769Y011927D01*
X009790Y011972D01*
X009815Y012016D01*
X009843Y012057D01*
X009875Y012096D01*
X009909Y012133D01*
X009946Y012167D01*
X009986Y012197D01*
X010028Y012224D01*
X010072Y012248D01*
X010118Y012269D01*
X010165Y012285D01*
X010213Y012298D01*
X010263Y012307D01*
X010312Y012312D01*
X010363Y012313D01*
X010413Y012310D01*
X010462Y012303D01*
X010511Y012292D01*
X010559Y012277D01*
X010605Y012259D01*
X010650Y012237D01*
X010693Y012211D01*
X010734Y012182D01*
X010773Y012150D01*
X010809Y012115D01*
X010841Y012077D01*
X010871Y012037D01*
X010898Y011994D01*
X010921Y011950D01*
X010940Y011904D01*
X010956Y011856D01*
X010968Y011807D01*
X010976Y011758D01*
X010980Y011708D01*
X010980Y011658D01*
X010976Y011608D01*
X010968Y011559D01*
X010956Y011510D01*
X010940Y011462D01*
X010921Y011416D01*
X010898Y011372D01*
X010871Y011329D01*
X010841Y011289D01*
X010809Y011251D01*
X010773Y011216D01*
X010734Y011184D01*
X010693Y011155D01*
X010650Y011129D01*
X010605Y011107D01*
X010559Y011089D01*
X010511Y011074D01*
X010462Y011063D01*
X010413Y011056D01*
X010363Y011053D01*
X010312Y011054D01*
X010263Y011059D01*
X010213Y011068D01*
X010165Y011081D01*
X010118Y011097D01*
X010072Y011118D01*
X010028Y011142D01*
X009986Y011169D01*
X009946Y011199D01*
X009909Y011233D01*
X009875Y011270D01*
X009843Y011309D01*
X009815Y011350D01*
X009790Y011394D01*
X009769Y011439D01*
X009752Y011486D01*
X009738Y011534D01*
X009728Y011583D01*
X009722Y011633D01*
X009720Y011683D01*
X005220Y011683D02*
X005222Y011733D01*
X005228Y011783D01*
X005238Y011832D01*
X005252Y011880D01*
X005269Y011927D01*
X005290Y011972D01*
X005315Y012016D01*
X005343Y012057D01*
X005375Y012096D01*
X005409Y012133D01*
X005446Y012167D01*
X005486Y012197D01*
X005528Y012224D01*
X005572Y012248D01*
X005618Y012269D01*
X005665Y012285D01*
X005713Y012298D01*
X005763Y012307D01*
X005812Y012312D01*
X005863Y012313D01*
X005913Y012310D01*
X005962Y012303D01*
X006011Y012292D01*
X006059Y012277D01*
X006105Y012259D01*
X006150Y012237D01*
X006193Y012211D01*
X006234Y012182D01*
X006273Y012150D01*
X006309Y012115D01*
X006341Y012077D01*
X006371Y012037D01*
X006398Y011994D01*
X006421Y011950D01*
X006440Y011904D01*
X006456Y011856D01*
X006468Y011807D01*
X006476Y011758D01*
X006480Y011708D01*
X006480Y011658D01*
X006476Y011608D01*
X006468Y011559D01*
X006456Y011510D01*
X006440Y011462D01*
X006421Y011416D01*
X006398Y011372D01*
X006371Y011329D01*
X006341Y011289D01*
X006309Y011251D01*
X006273Y011216D01*
X006234Y011184D01*
X006193Y011155D01*
X006150Y011129D01*
X006105Y011107D01*
X006059Y011089D01*
X006011Y011074D01*
X005962Y011063D01*
X005913Y011056D01*
X005863Y011053D01*
X005812Y011054D01*
X005763Y011059D01*
X005713Y011068D01*
X005665Y011081D01*
X005618Y011097D01*
X005572Y011118D01*
X005528Y011142D01*
X005486Y011169D01*
X005446Y011199D01*
X005409Y011233D01*
X005375Y011270D01*
X005343Y011309D01*
X005315Y011350D01*
X005290Y011394D01*
X005269Y011439D01*
X005252Y011486D01*
X005238Y011534D01*
X005228Y011583D01*
X005222Y011633D01*
X005220Y011683D01*
X001100Y013850D02*
X001102Y013920D01*
X001108Y013990D01*
X001118Y014059D01*
X001131Y014128D01*
X001149Y014196D01*
X001170Y014263D01*
X001195Y014328D01*
X001224Y014392D01*
X001256Y014455D01*
X001292Y014515D01*
X001331Y014573D01*
X001373Y014629D01*
X001418Y014683D01*
X001466Y014734D01*
X001517Y014782D01*
X001571Y014827D01*
X001627Y014869D01*
X001685Y014908D01*
X001745Y014944D01*
X001808Y014976D01*
X001872Y015005D01*
X001937Y015030D01*
X002004Y015051D01*
X002072Y015069D01*
X002141Y015082D01*
X002210Y015092D01*
X002280Y015098D01*
X002350Y015100D01*
X002420Y015098D01*
X002490Y015092D01*
X002559Y015082D01*
X002628Y015069D01*
X002696Y015051D01*
X002763Y015030D01*
X002828Y015005D01*
X002892Y014976D01*
X002955Y014944D01*
X003015Y014908D01*
X003073Y014869D01*
X003129Y014827D01*
X003183Y014782D01*
X003234Y014734D01*
X003282Y014683D01*
X003327Y014629D01*
X003369Y014573D01*
X003408Y014515D01*
X003444Y014455D01*
X003476Y014392D01*
X003505Y014328D01*
X003530Y014263D01*
X003551Y014196D01*
X003569Y014128D01*
X003582Y014059D01*
X003592Y013990D01*
X003598Y013920D01*
X003600Y013850D01*
X003598Y013780D01*
X003592Y013710D01*
X003582Y013641D01*
X003569Y013572D01*
X003551Y013504D01*
X003530Y013437D01*
X003505Y013372D01*
X003476Y013308D01*
X003444Y013245D01*
X003408Y013185D01*
X003369Y013127D01*
X003327Y013071D01*
X003282Y013017D01*
X003234Y012966D01*
X003183Y012918D01*
X003129Y012873D01*
X003073Y012831D01*
X003015Y012792D01*
X002955Y012756D01*
X002892Y012724D01*
X002828Y012695D01*
X002763Y012670D01*
X002696Y012649D01*
X002628Y012631D01*
X002559Y012618D01*
X002490Y012608D01*
X002420Y012602D01*
X002350Y012600D01*
X002280Y012602D01*
X002210Y012608D01*
X002141Y012618D01*
X002072Y012631D01*
X002004Y012649D01*
X001937Y012670D01*
X001872Y012695D01*
X001808Y012724D01*
X001745Y012756D01*
X001685Y012792D01*
X001627Y012831D01*
X001571Y012873D01*
X001517Y012918D01*
X001466Y012966D01*
X001418Y013017D01*
X001373Y013071D01*
X001331Y013127D01*
X001292Y013185D01*
X001256Y013245D01*
X001224Y013308D01*
X001195Y013372D01*
X001170Y013437D01*
X001149Y013504D01*
X001131Y013572D01*
X001118Y013641D01*
X001108Y013710D01*
X001102Y013780D01*
X001100Y013850D01*
X068600Y013850D02*
X068602Y013920D01*
X068608Y013990D01*
X068618Y014059D01*
X068631Y014128D01*
X068649Y014196D01*
X068670Y014263D01*
X068695Y014328D01*
X068724Y014392D01*
X068756Y014455D01*
X068792Y014515D01*
X068831Y014573D01*
X068873Y014629D01*
X068918Y014683D01*
X068966Y014734D01*
X069017Y014782D01*
X069071Y014827D01*
X069127Y014869D01*
X069185Y014908D01*
X069245Y014944D01*
X069308Y014976D01*
X069372Y015005D01*
X069437Y015030D01*
X069504Y015051D01*
X069572Y015069D01*
X069641Y015082D01*
X069710Y015092D01*
X069780Y015098D01*
X069850Y015100D01*
X069920Y015098D01*
X069990Y015092D01*
X070059Y015082D01*
X070128Y015069D01*
X070196Y015051D01*
X070263Y015030D01*
X070328Y015005D01*
X070392Y014976D01*
X070455Y014944D01*
X070515Y014908D01*
X070573Y014869D01*
X070629Y014827D01*
X070683Y014782D01*
X070734Y014734D01*
X070782Y014683D01*
X070827Y014629D01*
X070869Y014573D01*
X070908Y014515D01*
X070944Y014455D01*
X070976Y014392D01*
X071005Y014328D01*
X071030Y014263D01*
X071051Y014196D01*
X071069Y014128D01*
X071082Y014059D01*
X071092Y013990D01*
X071098Y013920D01*
X071100Y013850D01*
X071098Y013780D01*
X071092Y013710D01*
X071082Y013641D01*
X071069Y013572D01*
X071051Y013504D01*
X071030Y013437D01*
X071005Y013372D01*
X070976Y013308D01*
X070944Y013245D01*
X070908Y013185D01*
X070869Y013127D01*
X070827Y013071D01*
X070782Y013017D01*
X070734Y012966D01*
X070683Y012918D01*
X070629Y012873D01*
X070573Y012831D01*
X070515Y012792D01*
X070455Y012756D01*
X070392Y012724D01*
X070328Y012695D01*
X070263Y012670D01*
X070196Y012649D01*
X070128Y012631D01*
X070059Y012618D01*
X069990Y012608D01*
X069920Y012602D01*
X069850Y012600D01*
X069780Y012602D01*
X069710Y012608D01*
X069641Y012618D01*
X069572Y012631D01*
X069504Y012649D01*
X069437Y012670D01*
X069372Y012695D01*
X069308Y012724D01*
X069245Y012756D01*
X069185Y012792D01*
X069127Y012831D01*
X069071Y012873D01*
X069017Y012918D01*
X068966Y012966D01*
X068918Y013017D01*
X068873Y013071D01*
X068831Y013127D01*
X068792Y013185D01*
X068756Y013245D01*
X068724Y013308D01*
X068695Y013372D01*
X068670Y013437D01*
X068649Y013504D01*
X068631Y013572D01*
X068618Y013641D01*
X068608Y013710D01*
X068602Y013780D01*
X068600Y013850D01*
D11*
X002946Y009945D02*
X002715Y009715D01*
X002946Y009485D01*
X002255Y009485D01*
X002255Y009945D02*
X002946Y009945D01*
X002946Y009024D02*
X002255Y009024D01*
X002485Y009024D02*
X002485Y008679D01*
X002600Y008564D01*
X002830Y008564D01*
X002946Y008679D01*
X002946Y009024D01*
X002485Y008794D02*
X002255Y008564D01*
X002255Y008103D02*
X002255Y007758D01*
X002370Y007643D01*
X002830Y007643D01*
X002946Y007758D01*
X002946Y008103D01*
X002255Y008103D01*
X002946Y007183D02*
X002946Y006722D01*
X002946Y006952D02*
X002255Y006952D01*
D12*
X001445Y006851D02*
X001185Y006851D01*
X001315Y006851D02*
X001445Y006721D01*
X001445Y006656D01*
X001445Y006421D02*
X001185Y006421D01*
X001315Y006421D02*
X001445Y006291D01*
X001445Y006226D01*
X001380Y005991D02*
X001250Y005991D01*
X001185Y005926D01*
X001185Y005796D01*
X001250Y005731D01*
X001380Y005731D01*
X001445Y005796D01*
X001445Y005926D01*
X001380Y005991D01*
X001445Y005476D02*
X001250Y005476D01*
X001185Y005411D01*
X001250Y005346D01*
X001185Y005281D01*
X001250Y005216D01*
X001445Y005216D01*
X001250Y004960D02*
X001250Y004895D01*
X001185Y004895D01*
X001185Y004960D01*
X001250Y004960D01*
X001185Y004187D02*
X001575Y004187D01*
X001575Y003926D01*
X001380Y004057D02*
X001380Y004187D01*
X001380Y003671D02*
X001250Y003671D01*
X001185Y003606D01*
X001185Y003476D01*
X001250Y003411D01*
X001380Y003411D01*
X001445Y003476D01*
X001445Y003606D01*
X001380Y003671D01*
X001315Y003155D02*
X001445Y003025D01*
X001445Y002960D01*
X001445Y003155D02*
X001185Y003155D01*
X001250Y002726D02*
X001380Y002726D01*
X001445Y002661D01*
X001445Y002530D01*
X001380Y002465D01*
X001315Y002465D01*
X001315Y002726D01*
X001250Y002726D02*
X001185Y002661D01*
X001185Y002530D01*
X001445Y002210D02*
X001185Y002080D01*
X001445Y001950D01*
X001380Y001694D02*
X001445Y001629D01*
X001445Y001499D01*
X001380Y001434D01*
X001315Y001434D01*
X001315Y001694D01*
X001250Y001694D02*
X001380Y001694D01*
X001250Y001694D02*
X001185Y001629D01*
X001185Y001499D01*
X001185Y001179D02*
X001445Y001179D01*
X001315Y001179D02*
X001445Y001049D01*
X001445Y000984D01*
X001250Y000749D02*
X001250Y000684D01*
X001185Y000684D01*
X001185Y000749D01*
X001250Y000749D01*
X001250Y007106D02*
X001380Y007106D01*
X001445Y007171D01*
X001445Y007301D01*
X001380Y007366D01*
X001250Y007366D01*
X001185Y007301D01*
X001185Y007171D01*
X001250Y007106D01*
X001185Y007622D02*
X001380Y007622D01*
X001445Y007687D01*
X001380Y007752D01*
X001185Y007752D01*
X001185Y007882D02*
X001445Y007882D01*
X001445Y007817D01*
X001380Y007752D01*
X001380Y008137D02*
X001445Y008203D01*
X001445Y008333D01*
X001380Y008398D01*
X001250Y008398D01*
X001185Y008333D01*
X001185Y008203D01*
X001250Y008137D01*
X001380Y008137D01*
X001575Y008653D02*
X001575Y008913D01*
X001575Y008783D02*
X001185Y008783D01*
X001185Y009622D02*
X001185Y009687D01*
X001250Y009687D01*
X001250Y009622D01*
X001185Y009622D01*
X001185Y009942D02*
X001185Y010137D01*
X001250Y010202D01*
X001445Y010202D01*
X001445Y009942D02*
X001120Y009942D01*
X001055Y010007D01*
X001055Y010072D01*
X001185Y010458D02*
X001185Y010653D01*
X001250Y010718D01*
X001315Y010653D01*
X001315Y010458D01*
X001380Y010458D02*
X001185Y010458D01*
X001380Y010458D02*
X001445Y010523D01*
X001445Y010653D01*
X001445Y010973D02*
X001445Y011169D01*
X001380Y011234D01*
X001250Y011234D01*
X001185Y011169D01*
X001185Y010973D01*
X001575Y010973D01*
X001380Y011489D02*
X001445Y011554D01*
X001445Y011684D01*
X001380Y011749D01*
X001250Y011749D01*
X001185Y011684D01*
X001185Y011554D01*
X001250Y011489D01*
X001380Y011489D01*
X001575Y012005D02*
X001575Y012265D01*
X001575Y012135D02*
X001185Y012135D01*
D13*
X006350Y014183D03*
X007350Y014183D03*
X008350Y014183D03*
X009350Y014183D03*
X008850Y015183D03*
X009850Y015183D03*
X007850Y015183D03*
X006850Y015183D03*
X014350Y014183D03*
X015350Y014183D03*
X016350Y014183D03*
X017350Y014183D03*
X016850Y015183D03*
X017850Y015183D03*
X015850Y015183D03*
X014850Y015183D03*
X022350Y014183D03*
X023350Y014183D03*
X024350Y014183D03*
X025350Y014183D03*
X024850Y015183D03*
X025850Y015183D03*
X023850Y015183D03*
X022850Y015183D03*
X030350Y014183D03*
X031350Y014183D03*
X032350Y014183D03*
X033350Y014183D03*
X032850Y015183D03*
X033850Y015183D03*
X031850Y015183D03*
X030850Y015183D03*
X038350Y014183D03*
X039350Y014183D03*
X040350Y014183D03*
X041350Y014183D03*
X040850Y015183D03*
X041850Y015183D03*
X039850Y015183D03*
X038850Y015183D03*
X046350Y014183D03*
X047350Y014183D03*
X048350Y014183D03*
X049350Y014183D03*
X048850Y015183D03*
X049850Y015183D03*
X047850Y015183D03*
X046850Y015183D03*
X054350Y014183D03*
X055350Y014183D03*
X056350Y014183D03*
X057350Y014183D03*
X056850Y015183D03*
X057850Y015183D03*
X055850Y015183D03*
X054850Y015183D03*
X062350Y014183D03*
X063350Y014183D03*
X064350Y014183D03*
X065350Y014183D03*
X064850Y015183D03*
X063850Y015183D03*
X062850Y015183D03*
X065850Y015183D03*
X065850Y006683D03*
X064850Y006683D03*
X063850Y006683D03*
X062850Y006683D03*
X062350Y005683D03*
X063350Y005683D03*
X064350Y005683D03*
X065350Y005683D03*
X057850Y006683D03*
X056850Y006683D03*
X055850Y006683D03*
X054850Y006683D03*
X054350Y005683D03*
X055350Y005683D03*
X056350Y005683D03*
X057350Y005683D03*
X049850Y006683D03*
X048850Y006683D03*
X047850Y006683D03*
X046850Y006683D03*
X046350Y005683D03*
X047350Y005683D03*
X048350Y005683D03*
X049350Y005683D03*
X041850Y006683D03*
X040850Y006683D03*
X039850Y006683D03*
X038850Y006683D03*
X038350Y005683D03*
X039350Y005683D03*
X040350Y005683D03*
X041350Y005683D03*
X033850Y006683D03*
X032850Y006683D03*
X031850Y006683D03*
X030850Y006683D03*
X030350Y005683D03*
X031350Y005683D03*
X032350Y005683D03*
X033350Y005683D03*
X025850Y006683D03*
X024850Y006683D03*
X023850Y006683D03*
X022850Y006683D03*
X022350Y005683D03*
X023350Y005683D03*
X024350Y005683D03*
X025350Y005683D03*
X017850Y006683D03*
X016850Y006683D03*
X015850Y006683D03*
X014850Y006683D03*
X014350Y005683D03*
X015350Y005683D03*
X016350Y005683D03*
X017350Y005683D03*
X009850Y006683D03*
X008850Y006683D03*
X007850Y006683D03*
X006850Y006683D03*
X006350Y005683D03*
X007350Y005683D03*
X008350Y005683D03*
X009350Y005683D03*
D14*
X070100Y005600D03*
X070100Y008100D03*
X070100Y010600D03*
D15*
X064350Y010350D02*
X064350Y012850D01*
X063350Y013850D01*
X063350Y014183D01*
X062350Y014183D02*
X062350Y013350D01*
X063350Y012350D01*
X063350Y010850D01*
X062350Y009850D01*
X062350Y005683D01*
X062764Y005489D02*
X062936Y005489D01*
X062963Y005424D02*
X063091Y005295D01*
X063259Y005226D01*
X063441Y005226D01*
X063609Y005295D01*
X063737Y005424D01*
X063807Y005592D01*
X063807Y005774D01*
X063737Y005941D01*
X063609Y006070D01*
X063590Y006078D01*
X063590Y006282D01*
X063600Y006275D01*
X063667Y006241D01*
X063738Y006218D01*
X063812Y006206D01*
X063832Y006206D01*
X063832Y006664D01*
X063868Y006664D01*
X063868Y006206D01*
X063888Y006206D01*
X063962Y006218D01*
X064033Y006241D01*
X064100Y006275D01*
X064161Y006319D01*
X064214Y006372D01*
X064258Y006433D01*
X064292Y006500D01*
X064315Y006571D01*
X064327Y006645D01*
X064327Y006664D01*
X063868Y006664D01*
X063868Y006701D01*
X063832Y006701D01*
X063832Y007160D01*
X063812Y007160D01*
X063738Y007148D01*
X063667Y007125D01*
X063600Y007091D01*
X063590Y007083D01*
X063590Y007350D01*
X064610Y007350D01*
X064610Y007078D01*
X064591Y007070D01*
X064463Y006941D01*
X064393Y006774D01*
X064393Y006592D01*
X064463Y006424D01*
X064591Y006295D01*
X064759Y006226D01*
X064941Y006226D01*
X065109Y006295D01*
X065237Y006424D01*
X065307Y006592D01*
X065307Y006774D01*
X065237Y006941D01*
X065109Y007070D01*
X065090Y007078D01*
X065090Y007350D01*
X069949Y007350D01*
X069951Y007349D01*
X070249Y007349D01*
X070251Y007350D01*
X071740Y007350D01*
X071740Y004600D01*
X004600Y004600D01*
X004600Y007350D01*
X006110Y007350D01*
X006110Y006078D01*
X006091Y006070D01*
X005963Y005941D01*
X005893Y005774D01*
X005893Y005592D01*
X005963Y005424D01*
X006091Y005295D01*
X006259Y005226D01*
X006441Y005226D01*
X006609Y005295D01*
X006737Y005424D01*
X006807Y005592D01*
X006807Y005774D01*
X006737Y005941D01*
X006609Y006070D01*
X006590Y006078D01*
X006590Y006297D01*
X006591Y006295D01*
X006759Y006226D01*
X006941Y006226D01*
X007109Y006295D01*
X007110Y006297D01*
X007110Y006078D01*
X007091Y006070D01*
X006963Y005941D01*
X006893Y005774D01*
X006893Y005592D01*
X006963Y005424D01*
X007091Y005295D01*
X007259Y005226D01*
X007441Y005226D01*
X007609Y005295D01*
X007737Y005424D01*
X007807Y005592D01*
X007807Y005774D01*
X007737Y005941D01*
X007609Y006070D01*
X007590Y006078D01*
X007590Y006282D01*
X007600Y006275D01*
X007667Y006241D01*
X007738Y006218D01*
X007812Y006206D01*
X007832Y006206D01*
X007832Y006664D01*
X007868Y006664D01*
X007868Y006206D01*
X007888Y006206D01*
X007962Y006218D01*
X008033Y006241D01*
X008100Y006275D01*
X008161Y006319D01*
X008214Y006372D01*
X008258Y006433D01*
X008292Y006500D01*
X008315Y006571D01*
X008327Y006645D01*
X008327Y006664D01*
X007868Y006664D01*
X007868Y006701D01*
X007832Y006701D01*
X007832Y007160D01*
X007812Y007160D01*
X007738Y007148D01*
X007667Y007125D01*
X007600Y007091D01*
X007590Y007083D01*
X007590Y007350D01*
X008610Y007350D01*
X008610Y007078D01*
X008591Y007070D01*
X008463Y006941D01*
X008393Y006774D01*
X008393Y006592D01*
X008463Y006424D01*
X008591Y006295D01*
X008759Y006226D01*
X008941Y006226D01*
X009109Y006295D01*
X009237Y006424D01*
X009307Y006592D01*
X009307Y006774D01*
X009237Y006941D01*
X009109Y007070D01*
X009090Y007078D01*
X009090Y007350D01*
X014110Y007350D01*
X014110Y006078D01*
X014091Y006070D01*
X013963Y005941D01*
X013893Y005774D01*
X013893Y005592D01*
X013963Y005424D01*
X014091Y005295D01*
X014259Y005226D01*
X014441Y005226D01*
X014609Y005295D01*
X014737Y005424D01*
X014807Y005592D01*
X014807Y005774D01*
X014737Y005941D01*
X014609Y006070D01*
X014590Y006078D01*
X014590Y006297D01*
X014591Y006295D01*
X014759Y006226D01*
X014941Y006226D01*
X015109Y006295D01*
X015110Y006297D01*
X015110Y006078D01*
X015091Y006070D01*
X014963Y005941D01*
X014893Y005774D01*
X014893Y005592D01*
X014963Y005424D01*
X015091Y005295D01*
X015259Y005226D01*
X015441Y005226D01*
X015609Y005295D01*
X015737Y005424D01*
X015807Y005592D01*
X015807Y005774D01*
X015737Y005941D01*
X015609Y006070D01*
X015590Y006078D01*
X015590Y006282D01*
X015600Y006275D01*
X015667Y006241D01*
X015738Y006218D01*
X015812Y006206D01*
X015832Y006206D01*
X015832Y006664D01*
X015868Y006664D01*
X015868Y006206D01*
X015888Y006206D01*
X015962Y006218D01*
X016033Y006241D01*
X016100Y006275D01*
X016161Y006319D01*
X016214Y006372D01*
X016258Y006433D01*
X016292Y006500D01*
X016315Y006571D01*
X016327Y006645D01*
X016327Y006664D01*
X015868Y006664D01*
X015868Y006701D01*
X015832Y006701D01*
X015832Y007160D01*
X015812Y007160D01*
X015738Y007148D01*
X015667Y007125D01*
X015600Y007091D01*
X015590Y007083D01*
X015590Y007350D01*
X016610Y007350D01*
X016610Y007078D01*
X016591Y007070D01*
X016463Y006941D01*
X016393Y006774D01*
X016393Y006592D01*
X016463Y006424D01*
X016591Y006295D01*
X016759Y006226D01*
X016941Y006226D01*
X017109Y006295D01*
X017237Y006424D01*
X017307Y006592D01*
X017307Y006774D01*
X017237Y006941D01*
X017109Y007070D01*
X017090Y007078D01*
X017090Y007350D01*
X022110Y007350D01*
X022110Y006078D01*
X022091Y006070D01*
X021963Y005941D01*
X021893Y005774D01*
X021893Y005592D01*
X021963Y005424D01*
X022091Y005295D01*
X022259Y005226D01*
X022441Y005226D01*
X022609Y005295D01*
X022737Y005424D01*
X022807Y005592D01*
X022807Y005774D01*
X022737Y005941D01*
X022609Y006070D01*
X022590Y006078D01*
X022590Y006297D01*
X022591Y006295D01*
X022759Y006226D01*
X022941Y006226D01*
X023109Y006295D01*
X023110Y006297D01*
X023110Y006078D01*
X023091Y006070D01*
X022963Y005941D01*
X022893Y005774D01*
X022893Y005592D01*
X022963Y005424D01*
X023091Y005295D01*
X023259Y005226D01*
X023441Y005226D01*
X023609Y005295D01*
X023737Y005424D01*
X023807Y005592D01*
X023807Y005774D01*
X023737Y005941D01*
X023609Y006070D01*
X023590Y006078D01*
X023590Y006282D01*
X023600Y006275D01*
X023667Y006241D01*
X023738Y006218D01*
X023812Y006206D01*
X023832Y006206D01*
X023832Y006664D01*
X023868Y006664D01*
X023868Y006206D01*
X023888Y006206D01*
X023962Y006218D01*
X024033Y006241D01*
X024100Y006275D01*
X024161Y006319D01*
X024214Y006372D01*
X024258Y006433D01*
X024292Y006500D01*
X024315Y006571D01*
X024327Y006645D01*
X024327Y006664D01*
X023868Y006664D01*
X023868Y006701D01*
X023832Y006701D01*
X023832Y007160D01*
X023812Y007160D01*
X023738Y007148D01*
X023667Y007125D01*
X023600Y007091D01*
X023590Y007083D01*
X023590Y007350D01*
X024610Y007350D01*
X024610Y007078D01*
X024591Y007070D01*
X024463Y006941D01*
X024393Y006774D01*
X024393Y006592D01*
X024463Y006424D01*
X024591Y006295D01*
X024759Y006226D01*
X024941Y006226D01*
X025109Y006295D01*
X025237Y006424D01*
X025307Y006592D01*
X025307Y006774D01*
X025237Y006941D01*
X025109Y007070D01*
X025090Y007078D01*
X025090Y007350D01*
X030110Y007350D01*
X030110Y006078D01*
X030091Y006070D01*
X029963Y005941D01*
X029893Y005774D01*
X029893Y005592D01*
X029963Y005424D01*
X030091Y005295D01*
X030259Y005226D01*
X030441Y005226D01*
X030609Y005295D01*
X030737Y005424D01*
X030807Y005592D01*
X030807Y005774D01*
X030737Y005941D01*
X030609Y006070D01*
X030590Y006078D01*
X030590Y006297D01*
X030591Y006295D01*
X030759Y006226D01*
X030941Y006226D01*
X031109Y006295D01*
X031110Y006297D01*
X031110Y006078D01*
X031091Y006070D01*
X030963Y005941D01*
X030893Y005774D01*
X030893Y005592D01*
X030963Y005424D01*
X031091Y005295D01*
X031259Y005226D01*
X031441Y005226D01*
X031609Y005295D01*
X031737Y005424D01*
X031807Y005592D01*
X031807Y005774D01*
X031737Y005941D01*
X031609Y006070D01*
X031590Y006078D01*
X031590Y006282D01*
X031600Y006275D01*
X031667Y006241D01*
X031738Y006218D01*
X031812Y006206D01*
X031832Y006206D01*
X031832Y006664D01*
X031868Y006664D01*
X031868Y006206D01*
X031888Y006206D01*
X031962Y006218D01*
X032033Y006241D01*
X032100Y006275D01*
X032161Y006319D01*
X032214Y006372D01*
X032258Y006433D01*
X032292Y006500D01*
X032315Y006571D01*
X032327Y006645D01*
X032327Y006664D01*
X031868Y006664D01*
X031868Y006701D01*
X031832Y006701D01*
X031832Y007160D01*
X031812Y007160D01*
X031738Y007148D01*
X031667Y007125D01*
X031600Y007091D01*
X031590Y007083D01*
X031590Y007350D01*
X032610Y007350D01*
X032610Y007078D01*
X032591Y007070D01*
X032463Y006941D01*
X032393Y006774D01*
X032393Y006592D01*
X032463Y006424D01*
X032591Y006295D01*
X032759Y006226D01*
X032941Y006226D01*
X033109Y006295D01*
X033237Y006424D01*
X033307Y006592D01*
X033307Y006774D01*
X033237Y006941D01*
X033109Y007070D01*
X033090Y007078D01*
X033090Y007350D01*
X038110Y007350D01*
X038110Y006078D01*
X038091Y006070D01*
X037963Y005941D01*
X037893Y005774D01*
X037893Y005592D01*
X037963Y005424D01*
X038091Y005295D01*
X038259Y005226D01*
X038441Y005226D01*
X038609Y005295D01*
X038737Y005424D01*
X038807Y005592D01*
X038807Y005774D01*
X038737Y005941D01*
X038609Y006070D01*
X038590Y006078D01*
X038590Y006297D01*
X038591Y006295D01*
X038759Y006226D01*
X038941Y006226D01*
X039109Y006295D01*
X039110Y006297D01*
X039110Y006078D01*
X039091Y006070D01*
X038963Y005941D01*
X038893Y005774D01*
X038893Y005592D01*
X038963Y005424D01*
X039091Y005295D01*
X039259Y005226D01*
X039441Y005226D01*
X039609Y005295D01*
X039737Y005424D01*
X039807Y005592D01*
X039807Y005774D01*
X039737Y005941D01*
X039609Y006070D01*
X039590Y006078D01*
X039590Y006282D01*
X039600Y006275D01*
X039667Y006241D01*
X039738Y006218D01*
X039812Y006206D01*
X039832Y006206D01*
X039832Y006664D01*
X039868Y006664D01*
X039868Y006206D01*
X039888Y006206D01*
X039962Y006218D01*
X040033Y006241D01*
X040100Y006275D01*
X040161Y006319D01*
X040214Y006372D01*
X040258Y006433D01*
X040292Y006500D01*
X040315Y006571D01*
X040327Y006645D01*
X040327Y006664D01*
X039868Y006664D01*
X039868Y006701D01*
X039832Y006701D01*
X039832Y007160D01*
X039812Y007160D01*
X039738Y007148D01*
X039667Y007125D01*
X039600Y007091D01*
X039590Y007083D01*
X039590Y007350D01*
X040610Y007350D01*
X040610Y007078D01*
X040591Y007070D01*
X040463Y006941D01*
X040393Y006774D01*
X040393Y006592D01*
X040463Y006424D01*
X040591Y006295D01*
X040759Y006226D01*
X040941Y006226D01*
X041109Y006295D01*
X041237Y006424D01*
X041307Y006592D01*
X041307Y006774D01*
X041237Y006941D01*
X041109Y007070D01*
X041090Y007078D01*
X041090Y007350D01*
X046110Y007350D01*
X046110Y006078D01*
X046091Y006070D01*
X045963Y005941D01*
X045893Y005774D01*
X045893Y005592D01*
X045963Y005424D01*
X046091Y005295D01*
X046259Y005226D01*
X046441Y005226D01*
X046609Y005295D01*
X046737Y005424D01*
X046807Y005592D01*
X046807Y005774D01*
X046737Y005941D01*
X046609Y006070D01*
X046590Y006078D01*
X046590Y006297D01*
X046591Y006295D01*
X046759Y006226D01*
X046941Y006226D01*
X047109Y006295D01*
X047110Y006297D01*
X047110Y006078D01*
X047091Y006070D01*
X046963Y005941D01*
X046893Y005774D01*
X046893Y005592D01*
X046963Y005424D01*
X047091Y005295D01*
X047259Y005226D01*
X047441Y005226D01*
X047609Y005295D01*
X047737Y005424D01*
X047807Y005592D01*
X047807Y005774D01*
X047737Y005941D01*
X047609Y006070D01*
X047590Y006078D01*
X047590Y006282D01*
X047600Y006275D01*
X047667Y006241D01*
X047738Y006218D01*
X047812Y006206D01*
X047832Y006206D01*
X047832Y006664D01*
X047868Y006664D01*
X047868Y006206D01*
X047888Y006206D01*
X047962Y006218D01*
X048033Y006241D01*
X048100Y006275D01*
X048161Y006319D01*
X048214Y006372D01*
X048258Y006433D01*
X048292Y006500D01*
X048315Y006571D01*
X048327Y006645D01*
X048327Y006664D01*
X047868Y006664D01*
X047868Y006701D01*
X047832Y006701D01*
X047832Y007160D01*
X047812Y007160D01*
X047738Y007148D01*
X047667Y007125D01*
X047600Y007091D01*
X047590Y007083D01*
X047590Y007350D01*
X048610Y007350D01*
X048610Y007078D01*
X048591Y007070D01*
X048463Y006941D01*
X048393Y006774D01*
X048393Y006592D01*
X048463Y006424D01*
X048591Y006295D01*
X048759Y006226D01*
X048941Y006226D01*
X049109Y006295D01*
X049237Y006424D01*
X049307Y006592D01*
X049307Y006774D01*
X049237Y006941D01*
X049109Y007070D01*
X049090Y007078D01*
X049090Y007350D01*
X054110Y007350D01*
X054110Y006078D01*
X054091Y006070D01*
X053963Y005941D01*
X053893Y005774D01*
X053893Y005592D01*
X053963Y005424D01*
X054091Y005295D01*
X054259Y005226D01*
X054441Y005226D01*
X054609Y005295D01*
X054737Y005424D01*
X054807Y005592D01*
X054807Y005774D01*
X054737Y005941D01*
X054609Y006070D01*
X054590Y006078D01*
X054590Y006297D01*
X054591Y006295D01*
X054759Y006226D01*
X054941Y006226D01*
X055109Y006295D01*
X055110Y006297D01*
X055110Y006078D01*
X055091Y006070D01*
X054963Y005941D01*
X054893Y005774D01*
X054893Y005592D01*
X054963Y005424D01*
X055091Y005295D01*
X055259Y005226D01*
X055441Y005226D01*
X055609Y005295D01*
X055737Y005424D01*
X055807Y005592D01*
X055807Y005774D01*
X055737Y005941D01*
X055609Y006070D01*
X055590Y006078D01*
X055590Y006282D01*
X055600Y006275D01*
X055667Y006241D01*
X055738Y006218D01*
X055812Y006206D01*
X055832Y006206D01*
X055832Y006664D01*
X055868Y006664D01*
X055868Y006206D01*
X055888Y006206D01*
X055962Y006218D01*
X056033Y006241D01*
X056100Y006275D01*
X056161Y006319D01*
X056214Y006372D01*
X056258Y006433D01*
X056292Y006500D01*
X056315Y006571D01*
X056327Y006645D01*
X056327Y006664D01*
X055868Y006664D01*
X055868Y006701D01*
X055832Y006701D01*
X055832Y007160D01*
X055812Y007160D01*
X055738Y007148D01*
X055667Y007125D01*
X055600Y007091D01*
X055590Y007083D01*
X055590Y007350D01*
X056610Y007350D01*
X056610Y007078D01*
X056591Y007070D01*
X056463Y006941D01*
X056393Y006774D01*
X056393Y006592D01*
X056463Y006424D01*
X056591Y006295D01*
X056759Y006226D01*
X056941Y006226D01*
X057109Y006295D01*
X057237Y006424D01*
X057307Y006592D01*
X057307Y006774D01*
X057237Y006941D01*
X057109Y007070D01*
X057090Y007078D01*
X057090Y007350D01*
X062110Y007350D01*
X062110Y006078D01*
X062091Y006070D01*
X061963Y005941D01*
X061893Y005774D01*
X061893Y005592D01*
X061963Y005424D01*
X062091Y005295D01*
X062259Y005226D01*
X062441Y005226D01*
X062609Y005295D01*
X062737Y005424D01*
X062807Y005592D01*
X062807Y005774D01*
X062737Y005941D01*
X062609Y006070D01*
X062590Y006078D01*
X062590Y006297D01*
X062591Y006295D01*
X062759Y006226D01*
X062941Y006226D01*
X063109Y006295D01*
X063110Y006297D01*
X063110Y006078D01*
X063091Y006070D01*
X062963Y005941D01*
X062893Y005774D01*
X062893Y005592D01*
X062963Y005424D01*
X063056Y005331D02*
X062644Y005331D01*
X062056Y005331D02*
X057644Y005331D01*
X057609Y005295D02*
X057737Y005424D01*
X057807Y005592D01*
X057807Y005774D01*
X057737Y005941D01*
X057609Y006070D01*
X057441Y006140D01*
X057259Y006140D01*
X057091Y006070D01*
X056963Y005941D01*
X056893Y005774D01*
X056893Y005592D01*
X056963Y005424D01*
X057091Y005295D01*
X057259Y005226D01*
X057441Y005226D01*
X057609Y005295D01*
X057764Y005489D02*
X061936Y005489D01*
X061893Y005648D02*
X057807Y005648D01*
X057793Y005806D02*
X061907Y005806D01*
X061986Y005965D02*
X057714Y005965D01*
X057481Y006123D02*
X062110Y006123D01*
X062110Y006282D02*
X058075Y006282D01*
X058109Y006295D02*
X058237Y006424D01*
X058307Y006592D01*
X058307Y006774D01*
X058237Y006941D01*
X058109Y007070D01*
X057941Y007140D01*
X057759Y007140D01*
X057591Y007070D01*
X057463Y006941D01*
X057393Y006774D01*
X057393Y006592D01*
X057463Y006424D01*
X057591Y006295D01*
X057759Y006226D01*
X057941Y006226D01*
X058109Y006295D01*
X058244Y006440D02*
X062110Y006440D01*
X062110Y006599D02*
X058307Y006599D01*
X058307Y006757D02*
X062110Y006757D01*
X062110Y006916D02*
X058248Y006916D01*
X058099Y007074D02*
X062110Y007074D01*
X062110Y007233D02*
X057090Y007233D01*
X057099Y007074D02*
X057601Y007074D01*
X057452Y006916D02*
X057248Y006916D01*
X057307Y006757D02*
X057393Y006757D01*
X057393Y006599D02*
X057307Y006599D01*
X057244Y006440D02*
X057456Y006440D01*
X057625Y006282D02*
X057075Y006282D01*
X057219Y006123D02*
X056536Y006123D01*
X056533Y006125D02*
X056462Y006148D01*
X056388Y006160D01*
X056368Y006160D01*
X056368Y005701D01*
X056332Y005701D01*
X056332Y006160D01*
X056312Y006160D01*
X056238Y006148D01*
X056167Y006125D01*
X056100Y006091D01*
X056039Y006046D01*
X055986Y005993D01*
X055942Y005933D01*
X055908Y005866D01*
X055885Y005794D01*
X055873Y005720D01*
X055873Y005701D01*
X056332Y005701D01*
X056332Y005664D01*
X056368Y005664D01*
X056368Y005206D01*
X056388Y005206D01*
X056462Y005218D01*
X056533Y005241D01*
X056600Y005275D01*
X056661Y005319D01*
X056714Y005372D01*
X056758Y005433D01*
X056792Y005500D01*
X056815Y005571D01*
X056827Y005645D01*
X056827Y005664D01*
X056368Y005664D01*
X056368Y005701D01*
X056827Y005701D01*
X056827Y005720D01*
X056815Y005794D01*
X056792Y005866D01*
X056758Y005933D01*
X056714Y005993D01*
X056661Y006046D01*
X056600Y006091D01*
X056533Y006125D01*
X056368Y006123D02*
X056332Y006123D01*
X056332Y005965D02*
X056368Y005965D01*
X056368Y005806D02*
X056332Y005806D01*
X056332Y005664D02*
X055873Y005664D01*
X055873Y005645D01*
X055885Y005571D01*
X055908Y005500D01*
X055942Y005433D01*
X055986Y005372D01*
X056039Y005319D01*
X056100Y005275D01*
X056167Y005241D01*
X056238Y005218D01*
X056312Y005206D01*
X056332Y005206D01*
X056332Y005664D01*
X056332Y005648D02*
X056368Y005648D01*
X056368Y005489D02*
X056332Y005489D01*
X056332Y005331D02*
X056368Y005331D01*
X056672Y005331D02*
X057056Y005331D01*
X056936Y005489D02*
X056787Y005489D01*
X056827Y005648D02*
X056893Y005648D01*
X056907Y005806D02*
X056811Y005806D01*
X056735Y005965D02*
X056986Y005965D01*
X056164Y006123D02*
X055590Y006123D01*
X055590Y006282D02*
X055591Y006282D01*
X055832Y006282D02*
X055868Y006282D01*
X055868Y006440D02*
X055832Y006440D01*
X055832Y006599D02*
X055868Y006599D01*
X055868Y006701D02*
X056327Y006701D01*
X056327Y006720D01*
X056315Y006794D01*
X056292Y006866D01*
X056258Y006933D01*
X056214Y006993D01*
X056161Y007046D01*
X056100Y007091D01*
X056033Y007125D01*
X055962Y007148D01*
X055888Y007160D01*
X055868Y007160D01*
X055868Y006701D01*
X055868Y006757D02*
X055832Y006757D01*
X055832Y006916D02*
X055868Y006916D01*
X055868Y007074D02*
X055832Y007074D01*
X055590Y007233D02*
X056610Y007233D01*
X056601Y007074D02*
X056123Y007074D01*
X056267Y006916D02*
X056452Y006916D01*
X056393Y006757D02*
X056321Y006757D01*
X056319Y006599D02*
X056393Y006599D01*
X056456Y006440D02*
X056262Y006440D01*
X056109Y006282D02*
X056625Y006282D01*
X055965Y005965D02*
X055714Y005965D01*
X055793Y005806D02*
X055889Y005806D01*
X055873Y005648D02*
X055807Y005648D01*
X055764Y005489D02*
X055913Y005489D01*
X056028Y005331D02*
X055644Y005331D01*
X055056Y005331D02*
X054644Y005331D01*
X054764Y005489D02*
X054936Y005489D01*
X054893Y005648D02*
X054807Y005648D01*
X054793Y005806D02*
X054907Y005806D01*
X054986Y005965D02*
X054714Y005965D01*
X054590Y006123D02*
X055110Y006123D01*
X055110Y006282D02*
X055075Y006282D01*
X054625Y006282D02*
X054590Y006282D01*
X054110Y006282D02*
X050075Y006282D01*
X050109Y006295D02*
X050237Y006424D01*
X050307Y006592D01*
X050307Y006774D01*
X050237Y006941D01*
X050109Y007070D01*
X049941Y007140D01*
X049759Y007140D01*
X049591Y007070D01*
X049463Y006941D01*
X049393Y006774D01*
X049393Y006592D01*
X049463Y006424D01*
X049591Y006295D01*
X049759Y006226D01*
X049941Y006226D01*
X050109Y006295D01*
X050244Y006440D02*
X054110Y006440D01*
X054110Y006599D02*
X050307Y006599D01*
X050307Y006757D02*
X054110Y006757D01*
X054110Y006916D02*
X050248Y006916D01*
X050099Y007074D02*
X054110Y007074D01*
X054110Y007233D02*
X049090Y007233D01*
X049099Y007074D02*
X049601Y007074D01*
X049452Y006916D02*
X049248Y006916D01*
X049307Y006757D02*
X049393Y006757D01*
X049393Y006599D02*
X049307Y006599D01*
X049244Y006440D02*
X049456Y006440D01*
X049625Y006282D02*
X049075Y006282D01*
X049091Y006070D02*
X048963Y005941D01*
X048893Y005774D01*
X048893Y005592D01*
X048963Y005424D01*
X049091Y005295D01*
X049259Y005226D01*
X049441Y005226D01*
X049609Y005295D01*
X049737Y005424D01*
X049807Y005592D01*
X049807Y005774D01*
X049737Y005941D01*
X049609Y006070D01*
X049441Y006140D01*
X049259Y006140D01*
X049091Y006070D01*
X049219Y006123D02*
X048536Y006123D01*
X048533Y006125D02*
X048462Y006148D01*
X048388Y006160D01*
X048368Y006160D01*
X048368Y005701D01*
X048332Y005701D01*
X048332Y006160D01*
X048312Y006160D01*
X048238Y006148D01*
X048167Y006125D01*
X048100Y006091D01*
X048039Y006046D01*
X047986Y005993D01*
X047942Y005933D01*
X047908Y005866D01*
X047885Y005794D01*
X047873Y005720D01*
X047873Y005701D01*
X048332Y005701D01*
X048332Y005664D01*
X048368Y005664D01*
X048368Y005206D01*
X048388Y005206D01*
X048462Y005218D01*
X048533Y005241D01*
X048600Y005275D01*
X048661Y005319D01*
X048714Y005372D01*
X048758Y005433D01*
X048792Y005500D01*
X048815Y005571D01*
X048827Y005645D01*
X048827Y005664D01*
X048368Y005664D01*
X048368Y005701D01*
X048827Y005701D01*
X048827Y005720D01*
X048815Y005794D01*
X048792Y005866D01*
X048758Y005933D01*
X048714Y005993D01*
X048661Y006046D01*
X048600Y006091D01*
X048533Y006125D01*
X048368Y006123D02*
X048332Y006123D01*
X048332Y005965D02*
X048368Y005965D01*
X048368Y005806D02*
X048332Y005806D01*
X048332Y005664D02*
X047873Y005664D01*
X047873Y005645D01*
X047885Y005571D01*
X047908Y005500D01*
X047942Y005433D01*
X047986Y005372D01*
X048039Y005319D01*
X048100Y005275D01*
X048167Y005241D01*
X048238Y005218D01*
X048312Y005206D01*
X048332Y005206D01*
X048332Y005664D01*
X048332Y005648D02*
X048368Y005648D01*
X048368Y005489D02*
X048332Y005489D01*
X048332Y005331D02*
X048368Y005331D01*
X048672Y005331D02*
X049056Y005331D01*
X048936Y005489D02*
X048787Y005489D01*
X048827Y005648D02*
X048893Y005648D01*
X048907Y005806D02*
X048811Y005806D01*
X048735Y005965D02*
X048986Y005965D01*
X049481Y006123D02*
X054110Y006123D01*
X053986Y005965D02*
X049714Y005965D01*
X049793Y005806D02*
X053907Y005806D01*
X053893Y005648D02*
X049807Y005648D01*
X049764Y005489D02*
X053936Y005489D01*
X054056Y005331D02*
X049644Y005331D01*
X048028Y005331D02*
X047644Y005331D01*
X047764Y005489D02*
X047913Y005489D01*
X047873Y005648D02*
X047807Y005648D01*
X047793Y005806D02*
X047889Y005806D01*
X047965Y005965D02*
X047714Y005965D01*
X047590Y006123D02*
X048164Y006123D01*
X048109Y006282D02*
X048625Y006282D01*
X048456Y006440D02*
X048262Y006440D01*
X048319Y006599D02*
X048393Y006599D01*
X048327Y006701D02*
X047868Y006701D01*
X047868Y007160D01*
X047888Y007160D01*
X047962Y007148D01*
X048033Y007125D01*
X048100Y007091D01*
X048161Y007046D01*
X048214Y006993D01*
X048258Y006933D01*
X048292Y006866D01*
X048315Y006794D01*
X048327Y006720D01*
X048327Y006701D01*
X048321Y006757D02*
X048393Y006757D01*
X048452Y006916D02*
X048267Y006916D01*
X048123Y007074D02*
X048601Y007074D01*
X048610Y007233D02*
X047590Y007233D01*
X047832Y007074D02*
X047868Y007074D01*
X047868Y006916D02*
X047832Y006916D01*
X047832Y006757D02*
X047868Y006757D01*
X047868Y006599D02*
X047832Y006599D01*
X047832Y006440D02*
X047868Y006440D01*
X047868Y006282D02*
X047832Y006282D01*
X047591Y006282D02*
X047590Y006282D01*
X047110Y006282D02*
X047075Y006282D01*
X047110Y006123D02*
X046590Y006123D01*
X046590Y006282D02*
X046625Y006282D01*
X046110Y006282D02*
X042075Y006282D01*
X042109Y006295D02*
X042237Y006424D01*
X042307Y006592D01*
X042307Y006774D01*
X042237Y006941D01*
X042109Y007070D01*
X041941Y007140D01*
X041759Y007140D01*
X041591Y007070D01*
X041463Y006941D01*
X041393Y006774D01*
X041393Y006592D01*
X041463Y006424D01*
X041591Y006295D01*
X041759Y006226D01*
X041941Y006226D01*
X042109Y006295D01*
X042244Y006440D02*
X046110Y006440D01*
X046110Y006599D02*
X042307Y006599D01*
X042307Y006757D02*
X046110Y006757D01*
X046110Y006916D02*
X042248Y006916D01*
X042099Y007074D02*
X046110Y007074D01*
X046110Y007233D02*
X041090Y007233D01*
X041099Y007074D02*
X041601Y007074D01*
X041452Y006916D02*
X041248Y006916D01*
X041307Y006757D02*
X041393Y006757D01*
X041393Y006599D02*
X041307Y006599D01*
X041244Y006440D02*
X041456Y006440D01*
X041625Y006282D02*
X041075Y006282D01*
X041091Y006070D02*
X040963Y005941D01*
X040893Y005774D01*
X040893Y005592D01*
X040963Y005424D01*
X041091Y005295D01*
X041259Y005226D01*
X041441Y005226D01*
X041609Y005295D01*
X041737Y005424D01*
X041807Y005592D01*
X041807Y005774D01*
X041737Y005941D01*
X041609Y006070D01*
X041441Y006140D01*
X041259Y006140D01*
X041091Y006070D01*
X041219Y006123D02*
X040536Y006123D01*
X040533Y006125D02*
X040462Y006148D01*
X040388Y006160D01*
X040368Y006160D01*
X040368Y005701D01*
X040332Y005701D01*
X040332Y006160D01*
X040312Y006160D01*
X040238Y006148D01*
X040167Y006125D01*
X040100Y006091D01*
X040039Y006046D01*
X039986Y005993D01*
X039942Y005933D01*
X039908Y005866D01*
X039885Y005794D01*
X039873Y005720D01*
X039873Y005701D01*
X040332Y005701D01*
X040332Y005664D01*
X040368Y005664D01*
X040368Y005206D01*
X040388Y005206D01*
X040462Y005218D01*
X040533Y005241D01*
X040600Y005275D01*
X040661Y005319D01*
X040714Y005372D01*
X040758Y005433D01*
X040792Y005500D01*
X040815Y005571D01*
X040827Y005645D01*
X040827Y005664D01*
X040368Y005664D01*
X040368Y005701D01*
X040827Y005701D01*
X040827Y005720D01*
X040815Y005794D01*
X040792Y005866D01*
X040758Y005933D01*
X040714Y005993D01*
X040661Y006046D01*
X040600Y006091D01*
X040533Y006125D01*
X040368Y006123D02*
X040332Y006123D01*
X040332Y005965D02*
X040368Y005965D01*
X040368Y005806D02*
X040332Y005806D01*
X040332Y005664D02*
X039873Y005664D01*
X039873Y005645D01*
X039885Y005571D01*
X039908Y005500D01*
X039942Y005433D01*
X039986Y005372D01*
X040039Y005319D01*
X040100Y005275D01*
X040167Y005241D01*
X040238Y005218D01*
X040312Y005206D01*
X040332Y005206D01*
X040332Y005664D01*
X040332Y005648D02*
X040368Y005648D01*
X040368Y005489D02*
X040332Y005489D01*
X040332Y005331D02*
X040368Y005331D01*
X040672Y005331D02*
X041056Y005331D01*
X040936Y005489D02*
X040787Y005489D01*
X040827Y005648D02*
X040893Y005648D01*
X040907Y005806D02*
X040811Y005806D01*
X040735Y005965D02*
X040986Y005965D01*
X041481Y006123D02*
X046110Y006123D01*
X045986Y005965D02*
X041714Y005965D01*
X041793Y005806D02*
X045907Y005806D01*
X045893Y005648D02*
X041807Y005648D01*
X041764Y005489D02*
X045936Y005489D01*
X046056Y005331D02*
X041644Y005331D01*
X040028Y005331D02*
X039644Y005331D01*
X039764Y005489D02*
X039913Y005489D01*
X039873Y005648D02*
X039807Y005648D01*
X039793Y005806D02*
X039889Y005806D01*
X039965Y005965D02*
X039714Y005965D01*
X039590Y006123D02*
X040164Y006123D01*
X040109Y006282D02*
X040625Y006282D01*
X040456Y006440D02*
X040262Y006440D01*
X040319Y006599D02*
X040393Y006599D01*
X040327Y006701D02*
X039868Y006701D01*
X039868Y007160D01*
X039888Y007160D01*
X039962Y007148D01*
X040033Y007125D01*
X040100Y007091D01*
X040161Y007046D01*
X040214Y006993D01*
X040258Y006933D01*
X040292Y006866D01*
X040315Y006794D01*
X040327Y006720D01*
X040327Y006701D01*
X040321Y006757D02*
X040393Y006757D01*
X040452Y006916D02*
X040267Y006916D01*
X040123Y007074D02*
X040601Y007074D01*
X040610Y007233D02*
X039590Y007233D01*
X039832Y007074D02*
X039868Y007074D01*
X039868Y006916D02*
X039832Y006916D01*
X039832Y006757D02*
X039868Y006757D01*
X039868Y006599D02*
X039832Y006599D01*
X039832Y006440D02*
X039868Y006440D01*
X039868Y006282D02*
X039832Y006282D01*
X039591Y006282D02*
X039590Y006282D01*
X039110Y006282D02*
X039075Y006282D01*
X039110Y006123D02*
X038590Y006123D01*
X038590Y006282D02*
X038625Y006282D01*
X038110Y006282D02*
X034075Y006282D01*
X034109Y006295D02*
X034237Y006424D01*
X034307Y006592D01*
X034307Y006774D01*
X034237Y006941D01*
X034109Y007070D01*
X033941Y007140D01*
X033759Y007140D01*
X033591Y007070D01*
X033463Y006941D01*
X033393Y006774D01*
X033393Y006592D01*
X033463Y006424D01*
X033591Y006295D01*
X033759Y006226D01*
X033941Y006226D01*
X034109Y006295D01*
X034244Y006440D02*
X038110Y006440D01*
X038110Y006599D02*
X034307Y006599D01*
X034307Y006757D02*
X038110Y006757D01*
X038110Y006916D02*
X034248Y006916D01*
X034099Y007074D02*
X038110Y007074D01*
X038110Y007233D02*
X033090Y007233D01*
X033099Y007074D02*
X033601Y007074D01*
X033452Y006916D02*
X033248Y006916D01*
X033307Y006757D02*
X033393Y006757D01*
X033393Y006599D02*
X033307Y006599D01*
X033244Y006440D02*
X033456Y006440D01*
X033625Y006282D02*
X033075Y006282D01*
X033091Y006070D02*
X032963Y005941D01*
X032893Y005774D01*
X032893Y005592D01*
X032963Y005424D01*
X033091Y005295D01*
X033259Y005226D01*
X033441Y005226D01*
X033609Y005295D01*
X033737Y005424D01*
X033807Y005592D01*
X033807Y005774D01*
X033737Y005941D01*
X033609Y006070D01*
X033441Y006140D01*
X033259Y006140D01*
X033091Y006070D01*
X033219Y006123D02*
X032536Y006123D01*
X032533Y006125D02*
X032462Y006148D01*
X032388Y006160D01*
X032368Y006160D01*
X032368Y005701D01*
X032332Y005701D01*
X032332Y006160D01*
X032312Y006160D01*
X032238Y006148D01*
X032167Y006125D01*
X032100Y006091D01*
X032039Y006046D01*
X031986Y005993D01*
X031942Y005933D01*
X031908Y005866D01*
X031885Y005794D01*
X031873Y005720D01*
X031873Y005701D01*
X032332Y005701D01*
X032332Y005664D01*
X032368Y005664D01*
X032368Y005206D01*
X032388Y005206D01*
X032462Y005218D01*
X032533Y005241D01*
X032600Y005275D01*
X032661Y005319D01*
X032714Y005372D01*
X032758Y005433D01*
X032792Y005500D01*
X032815Y005571D01*
X032827Y005645D01*
X032827Y005664D01*
X032368Y005664D01*
X032368Y005701D01*
X032827Y005701D01*
X032827Y005720D01*
X032815Y005794D01*
X032792Y005866D01*
X032758Y005933D01*
X032714Y005993D01*
X032661Y006046D01*
X032600Y006091D01*
X032533Y006125D01*
X032368Y006123D02*
X032332Y006123D01*
X032332Y005965D02*
X032368Y005965D01*
X032368Y005806D02*
X032332Y005806D01*
X032332Y005664D02*
X031873Y005664D01*
X031873Y005645D01*
X031885Y005571D01*
X031908Y005500D01*
X031942Y005433D01*
X031986Y005372D01*
X032039Y005319D01*
X032100Y005275D01*
X032167Y005241D01*
X032238Y005218D01*
X032312Y005206D01*
X032332Y005206D01*
X032332Y005664D01*
X032332Y005648D02*
X032368Y005648D01*
X032368Y005489D02*
X032332Y005489D01*
X032332Y005331D02*
X032368Y005331D01*
X032672Y005331D02*
X033056Y005331D01*
X032936Y005489D02*
X032787Y005489D01*
X032827Y005648D02*
X032893Y005648D01*
X032907Y005806D02*
X032811Y005806D01*
X032735Y005965D02*
X032986Y005965D01*
X033481Y006123D02*
X038110Y006123D01*
X037986Y005965D02*
X033714Y005965D01*
X033793Y005806D02*
X037907Y005806D01*
X037893Y005648D02*
X033807Y005648D01*
X033764Y005489D02*
X037936Y005489D01*
X038056Y005331D02*
X033644Y005331D01*
X032028Y005331D02*
X031644Y005331D01*
X031764Y005489D02*
X031913Y005489D01*
X031873Y005648D02*
X031807Y005648D01*
X031793Y005806D02*
X031889Y005806D01*
X031965Y005965D02*
X031714Y005965D01*
X031590Y006123D02*
X032164Y006123D01*
X032109Y006282D02*
X032625Y006282D01*
X032456Y006440D02*
X032262Y006440D01*
X032319Y006599D02*
X032393Y006599D01*
X032327Y006701D02*
X031868Y006701D01*
X031868Y007160D01*
X031888Y007160D01*
X031962Y007148D01*
X032033Y007125D01*
X032100Y007091D01*
X032161Y007046D01*
X032214Y006993D01*
X032258Y006933D01*
X032292Y006866D01*
X032315Y006794D01*
X032327Y006720D01*
X032327Y006701D01*
X032321Y006757D02*
X032393Y006757D01*
X032452Y006916D02*
X032267Y006916D01*
X032123Y007074D02*
X032601Y007074D01*
X032610Y007233D02*
X031590Y007233D01*
X031832Y007074D02*
X031868Y007074D01*
X031868Y006916D02*
X031832Y006916D01*
X031832Y006757D02*
X031868Y006757D01*
X031868Y006599D02*
X031832Y006599D01*
X031832Y006440D02*
X031868Y006440D01*
X031868Y006282D02*
X031832Y006282D01*
X031591Y006282D02*
X031590Y006282D01*
X031110Y006282D02*
X031075Y006282D01*
X031110Y006123D02*
X030590Y006123D01*
X030590Y006282D02*
X030625Y006282D01*
X030110Y006282D02*
X026075Y006282D01*
X026109Y006295D02*
X026237Y006424D01*
X026307Y006592D01*
X026307Y006774D01*
X026237Y006941D01*
X026109Y007070D01*
X025941Y007140D01*
X025759Y007140D01*
X025591Y007070D01*
X025463Y006941D01*
X025393Y006774D01*
X025393Y006592D01*
X025463Y006424D01*
X025591Y006295D01*
X025759Y006226D01*
X025941Y006226D01*
X026109Y006295D01*
X026244Y006440D02*
X030110Y006440D01*
X030110Y006599D02*
X026307Y006599D01*
X026307Y006757D02*
X030110Y006757D01*
X030110Y006916D02*
X026248Y006916D01*
X026099Y007074D02*
X030110Y007074D01*
X030110Y007233D02*
X025090Y007233D01*
X025099Y007074D02*
X025601Y007074D01*
X025452Y006916D02*
X025248Y006916D01*
X025307Y006757D02*
X025393Y006757D01*
X025393Y006599D02*
X025307Y006599D01*
X025244Y006440D02*
X025456Y006440D01*
X025625Y006282D02*
X025075Y006282D01*
X025091Y006070D02*
X024963Y005941D01*
X024893Y005774D01*
X024893Y005592D01*
X024963Y005424D01*
X025091Y005295D01*
X025259Y005226D01*
X025441Y005226D01*
X025609Y005295D01*
X025737Y005424D01*
X025807Y005592D01*
X025807Y005774D01*
X025737Y005941D01*
X025609Y006070D01*
X025441Y006140D01*
X025259Y006140D01*
X025091Y006070D01*
X025219Y006123D02*
X024536Y006123D01*
X024533Y006125D02*
X024462Y006148D01*
X024388Y006160D01*
X024368Y006160D01*
X024368Y005701D01*
X024332Y005701D01*
X024332Y006160D01*
X024312Y006160D01*
X024238Y006148D01*
X024167Y006125D01*
X024100Y006091D01*
X024039Y006046D01*
X023986Y005993D01*
X023942Y005933D01*
X023908Y005866D01*
X023885Y005794D01*
X023873Y005720D01*
X023873Y005701D01*
X024332Y005701D01*
X024332Y005664D01*
X024368Y005664D01*
X024368Y005206D01*
X024388Y005206D01*
X024462Y005218D01*
X024533Y005241D01*
X024600Y005275D01*
X024661Y005319D01*
X024714Y005372D01*
X024758Y005433D01*
X024792Y005500D01*
X024815Y005571D01*
X024827Y005645D01*
X024827Y005664D01*
X024368Y005664D01*
X024368Y005701D01*
X024827Y005701D01*
X024827Y005720D01*
X024815Y005794D01*
X024792Y005866D01*
X024758Y005933D01*
X024714Y005993D01*
X024661Y006046D01*
X024600Y006091D01*
X024533Y006125D01*
X024368Y006123D02*
X024332Y006123D01*
X024332Y005965D02*
X024368Y005965D01*
X024368Y005806D02*
X024332Y005806D01*
X024332Y005664D02*
X023873Y005664D01*
X023873Y005645D01*
X023885Y005571D01*
X023908Y005500D01*
X023942Y005433D01*
X023986Y005372D01*
X024039Y005319D01*
X024100Y005275D01*
X024167Y005241D01*
X024238Y005218D01*
X024312Y005206D01*
X024332Y005206D01*
X024332Y005664D01*
X024332Y005648D02*
X024368Y005648D01*
X024368Y005489D02*
X024332Y005489D01*
X024332Y005331D02*
X024368Y005331D01*
X024672Y005331D02*
X025056Y005331D01*
X024936Y005489D02*
X024787Y005489D01*
X024827Y005648D02*
X024893Y005648D01*
X024907Y005806D02*
X024811Y005806D01*
X024735Y005965D02*
X024986Y005965D01*
X025481Y006123D02*
X030110Y006123D01*
X029986Y005965D02*
X025714Y005965D01*
X025793Y005806D02*
X029907Y005806D01*
X029893Y005648D02*
X025807Y005648D01*
X025764Y005489D02*
X029936Y005489D01*
X030056Y005331D02*
X025644Y005331D01*
X024028Y005331D02*
X023644Y005331D01*
X023764Y005489D02*
X023913Y005489D01*
X023873Y005648D02*
X023807Y005648D01*
X023793Y005806D02*
X023889Y005806D01*
X023965Y005965D02*
X023714Y005965D01*
X023590Y006123D02*
X024164Y006123D01*
X024109Y006282D02*
X024625Y006282D01*
X024456Y006440D02*
X024262Y006440D01*
X024319Y006599D02*
X024393Y006599D01*
X024327Y006701D02*
X023868Y006701D01*
X023868Y007160D01*
X023888Y007160D01*
X023962Y007148D01*
X024033Y007125D01*
X024100Y007091D01*
X024161Y007046D01*
X024214Y006993D01*
X024258Y006933D01*
X024292Y006866D01*
X024315Y006794D01*
X024327Y006720D01*
X024327Y006701D01*
X024321Y006757D02*
X024393Y006757D01*
X024452Y006916D02*
X024267Y006916D01*
X024123Y007074D02*
X024601Y007074D01*
X024610Y007233D02*
X023590Y007233D01*
X023832Y007074D02*
X023868Y007074D01*
X023868Y006916D02*
X023832Y006916D01*
X023832Y006757D02*
X023868Y006757D01*
X023868Y006599D02*
X023832Y006599D01*
X023832Y006440D02*
X023868Y006440D01*
X023868Y006282D02*
X023832Y006282D01*
X023591Y006282D02*
X023590Y006282D01*
X023110Y006282D02*
X023075Y006282D01*
X023110Y006123D02*
X022590Y006123D01*
X022590Y006282D02*
X022625Y006282D01*
X022110Y006282D02*
X018075Y006282D01*
X018109Y006295D02*
X018237Y006424D01*
X018307Y006592D01*
X018307Y006774D01*
X018237Y006941D01*
X018109Y007070D01*
X017941Y007140D01*
X017759Y007140D01*
X017591Y007070D01*
X017463Y006941D01*
X017393Y006774D01*
X017393Y006592D01*
X017463Y006424D01*
X017591Y006295D01*
X017759Y006226D01*
X017941Y006226D01*
X018109Y006295D01*
X018244Y006440D02*
X022110Y006440D01*
X022110Y006599D02*
X018307Y006599D01*
X018307Y006757D02*
X022110Y006757D01*
X022110Y006916D02*
X018248Y006916D01*
X018099Y007074D02*
X022110Y007074D01*
X022110Y007233D02*
X017090Y007233D01*
X017099Y007074D02*
X017601Y007074D01*
X017452Y006916D02*
X017248Y006916D01*
X017307Y006757D02*
X017393Y006757D01*
X017393Y006599D02*
X017307Y006599D01*
X017244Y006440D02*
X017456Y006440D01*
X017625Y006282D02*
X017075Y006282D01*
X017091Y006070D02*
X016963Y005941D01*
X016893Y005774D01*
X016893Y005592D01*
X016963Y005424D01*
X017091Y005295D01*
X017259Y005226D01*
X017441Y005226D01*
X017609Y005295D01*
X017737Y005424D01*
X017807Y005592D01*
X017807Y005774D01*
X017737Y005941D01*
X017609Y006070D01*
X017441Y006140D01*
X017259Y006140D01*
X017091Y006070D01*
X017219Y006123D02*
X016536Y006123D01*
X016533Y006125D02*
X016462Y006148D01*
X016388Y006160D01*
X016368Y006160D01*
X016368Y005701D01*
X016332Y005701D01*
X016332Y006160D01*
X016312Y006160D01*
X016238Y006148D01*
X016167Y006125D01*
X016100Y006091D01*
X016039Y006046D01*
X015986Y005993D01*
X015942Y005933D01*
X015908Y005866D01*
X015885Y005794D01*
X015873Y005720D01*
X015873Y005701D01*
X016332Y005701D01*
X016332Y005664D01*
X016368Y005664D01*
X016368Y005206D01*
X016388Y005206D01*
X016462Y005218D01*
X016533Y005241D01*
X016600Y005275D01*
X016661Y005319D01*
X016714Y005372D01*
X016758Y005433D01*
X016792Y005500D01*
X016815Y005571D01*
X016827Y005645D01*
X016827Y005664D01*
X016368Y005664D01*
X016368Y005701D01*
X016827Y005701D01*
X016827Y005720D01*
X016815Y005794D01*
X016792Y005866D01*
X016758Y005933D01*
X016714Y005993D01*
X016661Y006046D01*
X016600Y006091D01*
X016533Y006125D01*
X016368Y006123D02*
X016332Y006123D01*
X016332Y005965D02*
X016368Y005965D01*
X016368Y005806D02*
X016332Y005806D01*
X016332Y005664D02*
X015873Y005664D01*
X015873Y005645D01*
X015885Y005571D01*
X015908Y005500D01*
X015942Y005433D01*
X015986Y005372D01*
X016039Y005319D01*
X016100Y005275D01*
X016167Y005241D01*
X016238Y005218D01*
X016312Y005206D01*
X016332Y005206D01*
X016332Y005664D01*
X016332Y005648D02*
X016368Y005648D01*
X016368Y005489D02*
X016332Y005489D01*
X016332Y005331D02*
X016368Y005331D01*
X016672Y005331D02*
X017056Y005331D01*
X016936Y005489D02*
X016787Y005489D01*
X016827Y005648D02*
X016893Y005648D01*
X016907Y005806D02*
X016811Y005806D01*
X016735Y005965D02*
X016986Y005965D01*
X017481Y006123D02*
X022110Y006123D01*
X021986Y005965D02*
X017714Y005965D01*
X017793Y005806D02*
X021907Y005806D01*
X021893Y005648D02*
X017807Y005648D01*
X017764Y005489D02*
X021936Y005489D01*
X022056Y005331D02*
X017644Y005331D01*
X016028Y005331D02*
X015644Y005331D01*
X015764Y005489D02*
X015913Y005489D01*
X015873Y005648D02*
X015807Y005648D01*
X015793Y005806D02*
X015889Y005806D01*
X015965Y005965D02*
X015714Y005965D01*
X015590Y006123D02*
X016164Y006123D01*
X016109Y006282D02*
X016625Y006282D01*
X016456Y006440D02*
X016262Y006440D01*
X016319Y006599D02*
X016393Y006599D01*
X016327Y006701D02*
X015868Y006701D01*
X015868Y007160D01*
X015888Y007160D01*
X015962Y007148D01*
X016033Y007125D01*
X016100Y007091D01*
X016161Y007046D01*
X016214Y006993D01*
X016258Y006933D01*
X016292Y006866D01*
X016315Y006794D01*
X016327Y006720D01*
X016327Y006701D01*
X016321Y006757D02*
X016393Y006757D01*
X016452Y006916D02*
X016267Y006916D01*
X016123Y007074D02*
X016601Y007074D01*
X016610Y007233D02*
X015590Y007233D01*
X015832Y007074D02*
X015868Y007074D01*
X015868Y006916D02*
X015832Y006916D01*
X015832Y006757D02*
X015868Y006757D01*
X015868Y006599D02*
X015832Y006599D01*
X015832Y006440D02*
X015868Y006440D01*
X015868Y006282D02*
X015832Y006282D01*
X015591Y006282D02*
X015590Y006282D01*
X015110Y006282D02*
X015075Y006282D01*
X015110Y006123D02*
X014590Y006123D01*
X014590Y006282D02*
X014625Y006282D01*
X014110Y006282D02*
X010075Y006282D01*
X010109Y006295D02*
X010237Y006424D01*
X010307Y006592D01*
X010307Y006774D01*
X010237Y006941D01*
X010109Y007070D01*
X009941Y007140D01*
X009759Y007140D01*
X009591Y007070D01*
X009463Y006941D01*
X009393Y006774D01*
X009393Y006592D01*
X009463Y006424D01*
X009591Y006295D01*
X009759Y006226D01*
X009941Y006226D01*
X010109Y006295D01*
X010244Y006440D02*
X014110Y006440D01*
X014110Y006599D02*
X010307Y006599D01*
X010307Y006757D02*
X014110Y006757D01*
X014110Y006916D02*
X010248Y006916D01*
X010099Y007074D02*
X014110Y007074D01*
X014110Y007233D02*
X009090Y007233D01*
X009099Y007074D02*
X009601Y007074D01*
X009452Y006916D02*
X009248Y006916D01*
X009307Y006757D02*
X009393Y006757D01*
X009393Y006599D02*
X009307Y006599D01*
X009244Y006440D02*
X009456Y006440D01*
X009625Y006282D02*
X009075Y006282D01*
X009091Y006070D02*
X008963Y005941D01*
X008893Y005774D01*
X008893Y005592D01*
X008963Y005424D01*
X009091Y005295D01*
X009259Y005226D01*
X009441Y005226D01*
X009609Y005295D01*
X009737Y005424D01*
X009807Y005592D01*
X009807Y005774D01*
X009737Y005941D01*
X009609Y006070D01*
X009441Y006140D01*
X009259Y006140D01*
X009091Y006070D01*
X009219Y006123D02*
X008536Y006123D01*
X008533Y006125D02*
X008462Y006148D01*
X008388Y006160D01*
X008368Y006160D01*
X008368Y005701D01*
X008332Y005701D01*
X008332Y006160D01*
X008312Y006160D01*
X008238Y006148D01*
X008167Y006125D01*
X008100Y006091D01*
X008039Y006046D01*
X007986Y005993D01*
X007942Y005933D01*
X007908Y005866D01*
X007885Y005794D01*
X007873Y005720D01*
X007873Y005701D01*
X008332Y005701D01*
X008332Y005664D01*
X008368Y005664D01*
X008368Y005206D01*
X008388Y005206D01*
X008462Y005218D01*
X008533Y005241D01*
X008600Y005275D01*
X008661Y005319D01*
X008714Y005372D01*
X008758Y005433D01*
X008792Y005500D01*
X008815Y005571D01*
X008827Y005645D01*
X008827Y005664D01*
X008368Y005664D01*
X008368Y005701D01*
X008827Y005701D01*
X008827Y005720D01*
X008815Y005794D01*
X008792Y005866D01*
X008758Y005933D01*
X008714Y005993D01*
X008661Y006046D01*
X008600Y006091D01*
X008533Y006125D01*
X008368Y006123D02*
X008332Y006123D01*
X008332Y005965D02*
X008368Y005965D01*
X008368Y005806D02*
X008332Y005806D01*
X008332Y005664D02*
X007873Y005664D01*
X007873Y005645D01*
X007885Y005571D01*
X007908Y005500D01*
X007942Y005433D01*
X007986Y005372D01*
X008039Y005319D01*
X008100Y005275D01*
X008167Y005241D01*
X008238Y005218D01*
X008312Y005206D01*
X008332Y005206D01*
X008332Y005664D01*
X008332Y005648D02*
X008368Y005648D01*
X008368Y005489D02*
X008332Y005489D01*
X008332Y005331D02*
X008368Y005331D01*
X008672Y005331D02*
X009056Y005331D01*
X008936Y005489D02*
X008787Y005489D01*
X008827Y005648D02*
X008893Y005648D01*
X008907Y005806D02*
X008811Y005806D01*
X008735Y005965D02*
X008986Y005965D01*
X009481Y006123D02*
X014110Y006123D01*
X013986Y005965D02*
X009714Y005965D01*
X009793Y005806D02*
X013907Y005806D01*
X013893Y005648D02*
X009807Y005648D01*
X009764Y005489D02*
X013936Y005489D01*
X014056Y005331D02*
X009644Y005331D01*
X008028Y005331D02*
X007644Y005331D01*
X007764Y005489D02*
X007913Y005489D01*
X007873Y005648D02*
X007807Y005648D01*
X007793Y005806D02*
X007889Y005806D01*
X007965Y005965D02*
X007714Y005965D01*
X007590Y006123D02*
X008164Y006123D01*
X008109Y006282D02*
X008625Y006282D01*
X008456Y006440D02*
X008262Y006440D01*
X008319Y006599D02*
X008393Y006599D01*
X008327Y006701D02*
X007868Y006701D01*
X007868Y007160D01*
X007888Y007160D01*
X007962Y007148D01*
X008033Y007125D01*
X008100Y007091D01*
X008161Y007046D01*
X008214Y006993D01*
X008258Y006933D01*
X008292Y006866D01*
X008315Y006794D01*
X008327Y006720D01*
X008327Y006701D01*
X008321Y006757D02*
X008393Y006757D01*
X008452Y006916D02*
X008267Y006916D01*
X008123Y007074D02*
X008601Y007074D01*
X008610Y007233D02*
X007590Y007233D01*
X007832Y007074D02*
X007868Y007074D01*
X007868Y006916D02*
X007832Y006916D01*
X007832Y006757D02*
X007868Y006757D01*
X007868Y006599D02*
X007832Y006599D01*
X007832Y006440D02*
X007868Y006440D01*
X007868Y006282D02*
X007832Y006282D01*
X007591Y006282D02*
X007590Y006282D01*
X007110Y006282D02*
X007075Y006282D01*
X007110Y006123D02*
X006590Y006123D01*
X006590Y006282D02*
X006625Y006282D01*
X006110Y006282D02*
X004600Y006282D01*
X004600Y006440D02*
X006110Y006440D01*
X006110Y006599D02*
X004600Y006599D01*
X004600Y006757D02*
X006110Y006757D01*
X006110Y006916D02*
X004600Y006916D01*
X004600Y007074D02*
X006110Y007074D01*
X006110Y007233D02*
X004600Y007233D01*
X006850Y006683D02*
X006850Y009850D01*
X007850Y010850D01*
X007850Y012350D01*
X006850Y013350D01*
X006850Y015183D01*
X008850Y015183D02*
X008850Y006683D01*
X006110Y006123D02*
X004600Y006123D01*
X004600Y005965D02*
X005986Y005965D01*
X005907Y005806D02*
X004600Y005806D01*
X004600Y005648D02*
X005893Y005648D01*
X005936Y005489D02*
X004600Y005489D01*
X004600Y005331D02*
X006056Y005331D01*
X006644Y005331D02*
X007056Y005331D01*
X006936Y005489D02*
X006764Y005489D01*
X006807Y005648D02*
X006893Y005648D01*
X006907Y005806D02*
X006793Y005806D01*
X006714Y005965D02*
X006986Y005965D01*
X007350Y005683D02*
X007350Y009600D01*
X008350Y010600D01*
X008350Y012600D01*
X007350Y013600D01*
X007350Y014183D01*
X006350Y014183D02*
X006350Y014350D01*
X006350Y014183D02*
X006350Y013100D01*
X007350Y012100D01*
X007350Y011100D01*
X006350Y010100D01*
X006350Y005683D01*
X004600Y005172D02*
X069457Y005172D01*
X069458Y005171D02*
X069519Y005091D01*
X069591Y005019D01*
X069671Y004958D01*
X069758Y004907D01*
X069852Y004869D01*
X069949Y004843D01*
X070020Y004833D01*
X070020Y005520D01*
X069333Y005520D01*
X069343Y005449D01*
X069369Y005352D01*
X069407Y005258D01*
X069458Y005171D01*
X069378Y005331D02*
X065644Y005331D01*
X065609Y005295D02*
X065737Y005424D01*
X065807Y005592D01*
X065807Y005774D01*
X065737Y005941D01*
X065609Y006070D01*
X065441Y006140D01*
X065259Y006140D01*
X065091Y006070D01*
X064963Y005941D01*
X064893Y005774D01*
X064893Y005592D01*
X064963Y005424D01*
X065091Y005295D01*
X065259Y005226D01*
X065441Y005226D01*
X065609Y005295D01*
X065764Y005489D02*
X069337Y005489D01*
X069333Y005680D02*
X070020Y005680D01*
X070020Y006367D01*
X069949Y006357D01*
X069852Y006331D01*
X069758Y006293D01*
X069671Y006242D01*
X069591Y006181D01*
X069519Y006109D01*
X069458Y006029D01*
X069407Y005942D01*
X069369Y005848D01*
X069343Y005751D01*
X069333Y005680D01*
X069357Y005806D02*
X065793Y005806D01*
X065807Y005648D02*
X070020Y005648D01*
X070020Y005680D02*
X070020Y005520D01*
X070180Y005520D01*
X070180Y005680D01*
X070020Y005680D01*
X070020Y005806D02*
X070180Y005806D01*
X070180Y005680D02*
X070180Y006367D01*
X070251Y006357D01*
X070348Y006331D01*
X070442Y006293D01*
X070529Y006242D01*
X070609Y006181D01*
X070681Y006109D01*
X070742Y006029D01*
X070793Y005942D01*
X070831Y005848D01*
X070857Y005751D01*
X070867Y005680D01*
X070180Y005680D01*
X070180Y005648D02*
X071740Y005648D01*
X071740Y005806D02*
X070843Y005806D01*
X070779Y005965D02*
X071740Y005965D01*
X071740Y006123D02*
X070667Y006123D01*
X070461Y006282D02*
X071740Y006282D01*
X071740Y006440D02*
X066244Y006440D01*
X066237Y006424D02*
X066307Y006592D01*
X066307Y006774D01*
X066237Y006941D01*
X066109Y007070D01*
X065941Y007140D01*
X065759Y007140D01*
X065591Y007070D01*
X065463Y006941D01*
X065393Y006774D01*
X065393Y006592D01*
X065463Y006424D01*
X065591Y006295D01*
X065759Y006226D01*
X065941Y006226D01*
X066109Y006295D01*
X066237Y006424D01*
X066307Y006599D02*
X071740Y006599D01*
X071740Y006757D02*
X066307Y006757D01*
X066248Y006916D02*
X071740Y006916D01*
X071740Y007074D02*
X066099Y007074D01*
X065601Y007074D02*
X065099Y007074D01*
X065090Y007233D02*
X071740Y007233D01*
X070180Y006282D02*
X070020Y006282D01*
X070020Y006123D02*
X070180Y006123D01*
X070180Y005965D02*
X070020Y005965D01*
X069533Y006123D02*
X065481Y006123D01*
X065625Y006282D02*
X065075Y006282D01*
X065219Y006123D02*
X064536Y006123D01*
X064533Y006125D02*
X064462Y006148D01*
X064388Y006160D01*
X064368Y006160D01*
X064368Y005701D01*
X064332Y005701D01*
X064332Y006160D01*
X064312Y006160D01*
X064238Y006148D01*
X064167Y006125D01*
X064100Y006091D01*
X064039Y006046D01*
X063986Y005993D01*
X063942Y005933D01*
X063908Y005866D01*
X063885Y005794D01*
X063873Y005720D01*
X063873Y005701D01*
X064332Y005701D01*
X064332Y005664D01*
X064368Y005664D01*
X064368Y005206D01*
X064388Y005206D01*
X064462Y005218D01*
X064533Y005241D01*
X064600Y005275D01*
X064661Y005319D01*
X064714Y005372D01*
X064758Y005433D01*
X064792Y005500D01*
X064815Y005571D01*
X064827Y005645D01*
X064827Y005664D01*
X064368Y005664D01*
X064368Y005701D01*
X064827Y005701D01*
X064827Y005720D01*
X064815Y005794D01*
X064792Y005866D01*
X064758Y005933D01*
X064714Y005993D01*
X064661Y006046D01*
X064600Y006091D01*
X064533Y006125D01*
X064368Y006123D02*
X064332Y006123D01*
X064332Y005965D02*
X064368Y005965D01*
X064368Y005806D02*
X064332Y005806D01*
X064332Y005664D02*
X063873Y005664D01*
X063873Y005645D01*
X063885Y005571D01*
X063908Y005500D01*
X063942Y005433D01*
X063986Y005372D01*
X064039Y005319D01*
X064100Y005275D01*
X064167Y005241D01*
X064238Y005218D01*
X064312Y005206D01*
X064332Y005206D01*
X064332Y005664D01*
X064332Y005648D02*
X064368Y005648D01*
X064368Y005489D02*
X064332Y005489D01*
X064332Y005331D02*
X064368Y005331D01*
X064672Y005331D02*
X065056Y005331D01*
X064936Y005489D02*
X064787Y005489D01*
X064827Y005648D02*
X064893Y005648D01*
X064907Y005806D02*
X064811Y005806D01*
X064735Y005965D02*
X064986Y005965D01*
X065714Y005965D02*
X069421Y005965D01*
X069739Y006282D02*
X066075Y006282D01*
X065456Y006440D02*
X065244Y006440D01*
X065307Y006599D02*
X065393Y006599D01*
X065393Y006757D02*
X065307Y006757D01*
X065248Y006916D02*
X065452Y006916D01*
X064850Y006683D02*
X064850Y015183D01*
X062850Y015183D02*
X062850Y013600D01*
X063850Y012600D01*
X063850Y010600D01*
X062850Y009600D01*
X062850Y006683D01*
X063832Y006757D02*
X063868Y006757D01*
X063868Y006701D02*
X063868Y007160D01*
X063888Y007160D01*
X063962Y007148D01*
X064033Y007125D01*
X064100Y007091D01*
X064161Y007046D01*
X064214Y006993D01*
X064258Y006933D01*
X064292Y006866D01*
X064315Y006794D01*
X064327Y006720D01*
X064327Y006701D01*
X063868Y006701D01*
X063868Y006599D02*
X063832Y006599D01*
X063832Y006440D02*
X063868Y006440D01*
X063868Y006282D02*
X063832Y006282D01*
X063591Y006282D02*
X063590Y006282D01*
X063590Y006123D02*
X064164Y006123D01*
X064109Y006282D02*
X064625Y006282D01*
X064456Y006440D02*
X064262Y006440D01*
X064319Y006599D02*
X064393Y006599D01*
X064393Y006757D02*
X064321Y006757D01*
X064267Y006916D02*
X064452Y006916D01*
X064601Y007074D02*
X064123Y007074D01*
X063868Y007074D02*
X063832Y007074D01*
X063832Y006916D02*
X063868Y006916D01*
X063590Y007233D02*
X064610Y007233D01*
X063110Y006282D02*
X063075Y006282D01*
X063110Y006123D02*
X062590Y006123D01*
X062590Y006282D02*
X062625Y006282D01*
X062714Y005965D02*
X062986Y005965D01*
X062907Y005806D02*
X062793Y005806D01*
X062807Y005648D02*
X062893Y005648D01*
X063350Y005683D02*
X063350Y009350D01*
X064350Y010350D01*
X056350Y010350D02*
X056350Y012850D01*
X055350Y013850D01*
X055350Y014183D01*
X054350Y014183D02*
X054350Y013350D01*
X055350Y012350D01*
X055350Y010850D01*
X054350Y009850D01*
X054350Y005683D01*
X055350Y005683D02*
X055350Y009350D01*
X056350Y010350D01*
X055850Y010600D02*
X054850Y009600D01*
X054850Y006683D01*
X056850Y006683D02*
X056850Y015183D01*
X054850Y015183D02*
X054850Y013600D01*
X055850Y012600D01*
X055850Y010600D01*
X048350Y010350D02*
X048350Y012850D01*
X047350Y013850D01*
X047350Y014183D01*
X046350Y014183D02*
X046350Y013350D01*
X047350Y012350D01*
X047350Y010850D01*
X046350Y009850D01*
X046350Y005683D01*
X046764Y005489D02*
X046936Y005489D01*
X046893Y005648D02*
X046807Y005648D01*
X046793Y005806D02*
X046907Y005806D01*
X046986Y005965D02*
X046714Y005965D01*
X047350Y005683D02*
X047350Y009350D01*
X048350Y010350D01*
X047850Y010600D02*
X046850Y009600D01*
X046850Y006683D01*
X048850Y006683D02*
X048850Y015183D01*
X046850Y015183D02*
X046850Y013600D01*
X047850Y012600D01*
X047850Y010600D01*
X040350Y010350D02*
X040350Y012850D01*
X039350Y013850D01*
X039350Y014183D01*
X038350Y014183D02*
X038350Y013350D01*
X039350Y012350D01*
X039350Y010850D01*
X038350Y009850D01*
X038350Y005683D01*
X038764Y005489D02*
X038936Y005489D01*
X038893Y005648D02*
X038807Y005648D01*
X038793Y005806D02*
X038907Y005806D01*
X038986Y005965D02*
X038714Y005965D01*
X039350Y005683D02*
X039350Y009350D01*
X040350Y010350D01*
X039850Y010600D02*
X038850Y009600D01*
X038850Y006683D01*
X040850Y006683D02*
X040850Y015183D01*
X038850Y015183D02*
X038850Y013600D01*
X039850Y012600D01*
X039850Y010600D01*
X032350Y010350D02*
X031350Y009350D01*
X031350Y005683D01*
X030936Y005489D02*
X030764Y005489D01*
X030807Y005648D02*
X030893Y005648D01*
X030907Y005806D02*
X030793Y005806D01*
X030714Y005965D02*
X030986Y005965D01*
X030350Y005683D02*
X030350Y010100D01*
X031350Y011100D01*
X031350Y012100D01*
X030350Y013100D01*
X030350Y014183D01*
X031350Y014183D02*
X031350Y013600D01*
X032350Y012600D01*
X032350Y010350D01*
X031850Y010850D02*
X030850Y009850D01*
X030850Y006683D01*
X032850Y006683D02*
X032850Y015183D01*
X030850Y015183D02*
X030850Y013350D01*
X031850Y012350D01*
X031850Y010850D01*
X024350Y010850D02*
X024350Y012350D01*
X023350Y013350D01*
X023350Y014183D01*
X022350Y014183D02*
X022350Y013100D01*
X023350Y012100D01*
X023350Y011100D01*
X022350Y010100D01*
X022350Y005683D01*
X022764Y005489D02*
X022936Y005489D01*
X022893Y005648D02*
X022807Y005648D01*
X022793Y005806D02*
X022907Y005806D01*
X022986Y005965D02*
X022714Y005965D01*
X023350Y005683D02*
X023350Y009850D01*
X024350Y010850D01*
X023850Y011100D02*
X022850Y010100D01*
X022850Y006683D01*
X024850Y006683D02*
X024850Y015183D01*
X022850Y015183D02*
X022850Y013100D01*
X023850Y012100D01*
X023850Y011100D01*
X016350Y010850D02*
X016350Y012350D01*
X015350Y013350D01*
X015350Y014183D01*
X014350Y014183D02*
X014350Y013100D01*
X015350Y012100D01*
X015350Y011100D01*
X014350Y010100D01*
X014350Y005683D01*
X014764Y005489D02*
X014936Y005489D01*
X014893Y005648D02*
X014807Y005648D01*
X014793Y005806D02*
X014907Y005806D01*
X014986Y005965D02*
X014714Y005965D01*
X015350Y005683D02*
X015350Y009850D01*
X016350Y010850D01*
X015850Y011100D02*
X014850Y010100D01*
X014850Y006683D01*
X016850Y006683D02*
X016850Y015183D01*
X014850Y015183D02*
X014850Y013100D01*
X015850Y012100D01*
X015850Y011100D01*
X015056Y005331D02*
X014644Y005331D01*
X022644Y005331D02*
X023056Y005331D01*
X030644Y005331D02*
X031056Y005331D01*
X038644Y005331D02*
X039056Y005331D01*
X046644Y005331D02*
X047056Y005331D01*
X063644Y005331D02*
X064028Y005331D01*
X063913Y005489D02*
X063764Y005489D01*
X063807Y005648D02*
X063873Y005648D01*
X063889Y005806D02*
X063793Y005806D01*
X063714Y005965D02*
X063965Y005965D01*
X069599Y005014D02*
X004600Y005014D01*
X004600Y004855D02*
X069903Y004855D01*
X070020Y004855D02*
X070180Y004855D01*
X070180Y004833D02*
X070251Y004843D01*
X070348Y004869D01*
X070442Y004907D01*
X070529Y004958D01*
X070609Y005019D01*
X070681Y005091D01*
X070742Y005171D01*
X070793Y005258D01*
X070831Y005352D01*
X070857Y005449D01*
X070867Y005520D01*
X070180Y005520D01*
X070180Y004833D01*
X070297Y004855D02*
X071740Y004855D01*
X071740Y004697D02*
X004600Y004697D01*
X070020Y005014D02*
X070180Y005014D01*
X070180Y005172D02*
X070020Y005172D01*
X070020Y005331D02*
X070180Y005331D01*
X070180Y005489D02*
X070020Y005489D01*
X070822Y005331D02*
X071740Y005331D01*
X071740Y005489D02*
X070863Y005489D01*
X070743Y005172D02*
X071740Y005172D01*
X071740Y005014D02*
X070601Y005014D01*
M02*
