G75*
%MOIN*%
%OFA0B0*%
%FSLAX24Y24*%
%IPPOS*%
%LPD*%
%AMOC8*
5,1,8,0,0,1.08239X$1,22.5*
%
%ADD10C,0.2580*%
%ADD11C,0.0674*%
%ADD12C,0.1340*%
%ADD13C,0.1261*%
D10*
X002350Y002350D03*
X002350Y013850D03*
X069850Y013850D03*
X069850Y002350D03*
D11*
X065350Y005683D03*
X064350Y005683D03*
X063350Y005683D03*
X062350Y005683D03*
X062850Y006683D03*
X063850Y006683D03*
X064850Y006683D03*
X065850Y006683D03*
X057850Y006683D03*
X056850Y006683D03*
X055850Y006683D03*
X054850Y006683D03*
X054350Y005683D03*
X055350Y005683D03*
X056350Y005683D03*
X057350Y005683D03*
X049850Y006683D03*
X048850Y006683D03*
X047850Y006683D03*
X046850Y006683D03*
X046350Y005683D03*
X047350Y005683D03*
X048350Y005683D03*
X049350Y005683D03*
X041850Y006683D03*
X040850Y006683D03*
X039850Y006683D03*
X038850Y006683D03*
X038350Y005683D03*
X039350Y005683D03*
X040350Y005683D03*
X041350Y005683D03*
X033850Y006683D03*
X032850Y006683D03*
X031850Y006683D03*
X030850Y006683D03*
X030350Y005683D03*
X031350Y005683D03*
X032350Y005683D03*
X033350Y005683D03*
X025850Y006683D03*
X024850Y006683D03*
X023850Y006683D03*
X022850Y006683D03*
X022350Y005683D03*
X023350Y005683D03*
X024350Y005683D03*
X025350Y005683D03*
X017850Y006683D03*
X016850Y006683D03*
X015850Y006683D03*
X014850Y006683D03*
X014350Y005683D03*
X015350Y005683D03*
X016350Y005683D03*
X017350Y005683D03*
X009850Y006683D03*
X008850Y006683D03*
X007850Y006683D03*
X006850Y006683D03*
X006350Y005683D03*
X007350Y005683D03*
X008350Y005683D03*
X009350Y005683D03*
X009350Y014183D03*
X008350Y014183D03*
X007350Y014183D03*
X006350Y014183D03*
X006850Y015183D03*
X007850Y015183D03*
X008850Y015183D03*
X009850Y015183D03*
X014350Y014183D03*
X015350Y014183D03*
X016350Y014183D03*
X017350Y014183D03*
X016850Y015183D03*
X017850Y015183D03*
X015850Y015183D03*
X014850Y015183D03*
X022350Y014183D03*
X023350Y014183D03*
X024350Y014183D03*
X025350Y014183D03*
X024850Y015183D03*
X025850Y015183D03*
X023850Y015183D03*
X022850Y015183D03*
X030350Y014183D03*
X031350Y014183D03*
X032350Y014183D03*
X033350Y014183D03*
X032850Y015183D03*
X033850Y015183D03*
X031850Y015183D03*
X030850Y015183D03*
X038350Y014183D03*
X039350Y014183D03*
X040350Y014183D03*
X041350Y014183D03*
X040850Y015183D03*
X041850Y015183D03*
X039850Y015183D03*
X038850Y015183D03*
X046350Y014183D03*
X047350Y014183D03*
X048350Y014183D03*
X049350Y014183D03*
X048850Y015183D03*
X049850Y015183D03*
X047850Y015183D03*
X046850Y015183D03*
X054350Y014183D03*
X055350Y014183D03*
X056350Y014183D03*
X057350Y014183D03*
X056850Y015183D03*
X057850Y015183D03*
X055850Y015183D03*
X054850Y015183D03*
X062350Y014183D03*
X063350Y014183D03*
X064350Y014183D03*
X065350Y014183D03*
X064850Y015183D03*
X063850Y015183D03*
X062850Y015183D03*
X065850Y015183D03*
D12*
X066350Y011683D03*
X061850Y011683D03*
X058350Y011683D03*
X053850Y011683D03*
X050350Y011683D03*
X045850Y011683D03*
X042350Y011683D03*
X037850Y011683D03*
X034350Y011683D03*
X029850Y011683D03*
X026350Y011683D03*
X021850Y011683D03*
X018350Y011683D03*
X013850Y011683D03*
X010350Y011683D03*
X005850Y011683D03*
X005850Y003183D03*
X010350Y003183D03*
X013850Y003183D03*
X018350Y003183D03*
X021850Y003183D03*
X026350Y003183D03*
X029850Y003183D03*
X034350Y003183D03*
X037850Y003183D03*
X042350Y003183D03*
X045850Y003183D03*
X050350Y003183D03*
X053850Y003183D03*
X058350Y003183D03*
X061850Y003183D03*
X066350Y003183D03*
D13*
X070100Y005600D03*
X070100Y008100D03*
X070100Y010600D03*
M02*
