%
M48
M72
T01C0.0394
T02C0.0787
T03C0.1260
T04C0.2500
%
T01
X6350Y5683
X7350Y5683
X8350Y5683
X9350Y5683
X8850Y6683
X9850Y6683
X7850Y6683
X6850Y6683
X14350Y5683
X15350Y5683
X16350Y5683
X17350Y5683
X16850Y6683
X17850Y6683
X15850Y6683
X14850Y6683
X22350Y5683
X23350Y5683
X24350Y5683
X25350Y5683
X24850Y6683
X25850Y6683
X23850Y6683
X22850Y6683
X30350Y5683
X31350Y5683
X32350Y5683
X33350Y5683
X32850Y6683
X33850Y6683
X31850Y6683
X30850Y6683
X38350Y5683
X39350Y5683
X40350Y5683
X41350Y5683
X40850Y6683
X41850Y6683
X39850Y6683
X38850Y6683
X46350Y5683
X47350Y5683
X48350Y5683
X49350Y5683
X48850Y6683
X49850Y6683
X47850Y6683
X46850Y6683
X54350Y5683
X55350Y5683
X56350Y5683
X57350Y5683
X56850Y6683
X57850Y6683
X55850Y6683
X54850Y6683
X62350Y5683
X63350Y5683
X64350Y5683
X65350Y5683
X64850Y6683
X63850Y6683
X62850Y6683
X65850Y6683
X65350Y14183
X64350Y14183
X63350Y14183
X62350Y14183
X62850Y15183
X63850Y15183
X64850Y15183
X65850Y15183
X57850Y15183
X56850Y15183
X55850Y15183
X54850Y15183
X54350Y14183
X55350Y14183
X56350Y14183
X57350Y14183
X49850Y15183
X48850Y15183
X47850Y15183
X46850Y15183
X46350Y14183
X47350Y14183
X48350Y14183
X49350Y14183
X41850Y15183
X40850Y15183
X39850Y15183
X38850Y15183
X38350Y14183
X39350Y14183
X40350Y14183
X41350Y14183
X33850Y15183
X32850Y15183
X31850Y15183
X30850Y15183
X30350Y14183
X31350Y14183
X32350Y14183
X33350Y14183
X25850Y15183
X24850Y15183
X23850Y15183
X22850Y15183
X22350Y14183
X23350Y14183
X24350Y14183
X25350Y14183
X17850Y15183
X16850Y15183
X15850Y15183
X14850Y15183
X14350Y14183
X15350Y14183
X16350Y14183
X17350Y14183
X9850Y15183
X8850Y15183
X7850Y15183
X6850Y15183
X6350Y14183
X7350Y14183
X8350Y14183
X9350Y14183
T02
X70100Y10600
X70100Y8100
X70100Y5600
T03
X66350Y3183
X61850Y3183
X58350Y3183
X53850Y3183
X50350Y3183
X45850Y3183
X42350Y3183
X37850Y3183
X34350Y3183
X29850Y3183
X26350Y3183
X21850Y3183
X18350Y3183
X13850Y3183
X10350Y3183
X5850Y3183
X5850Y11683
X10350Y11683
X13850Y11683
X18350Y11683
X21850Y11683
X26350Y11683
X29850Y11683
X34350Y11683
X37850Y11683
X42350Y11683
X45850Y11683
X50350Y11683
X53850Y11683
X58350Y11683
X61850Y11683
X66350Y11683
T04
X2350Y2350
X2350Y13850
X69850Y13850
X69850Y2350
M30
