G75*
%MOIN*%
%OFA0B0*%
%FSLAX24Y24*%
%IPPOS*%
%LPD*%
%AMOC8*
5,1,8,0,0,1.08239X$1,22.5*
%
%ADD10OC8,0.0600*%
%ADD11C,0.0740*%
%ADD12R,0.0394X0.0433*%
%ADD13C,0.0480*%
%ADD14C,0.0472*%
%ADD15R,0.0433X0.0394*%
%ADD16C,0.0600*%
%ADD17C,0.0160*%
%ADD18C,0.0337*%
%ADD19C,0.0120*%
D10*
X062560Y023393D03*
X063560Y023393D03*
X063560Y024393D03*
X062560Y024393D03*
X062560Y025393D03*
X063560Y025393D03*
X063560Y026393D03*
X062560Y026393D03*
X062560Y027393D03*
X063560Y027393D03*
X063560Y028393D03*
X062560Y028393D03*
X062560Y029393D03*
X063560Y029393D03*
X063560Y030393D03*
X062560Y030393D03*
X062560Y031393D03*
X063560Y031393D03*
X063560Y032393D03*
X062560Y032393D03*
X079560Y032393D03*
X080560Y032393D03*
X080560Y031393D03*
X079560Y031393D03*
X079560Y030393D03*
X080560Y030393D03*
X080560Y029393D03*
X079560Y029393D03*
X079560Y028393D03*
X080560Y028393D03*
X080560Y027393D03*
X079560Y027393D03*
X079560Y026393D03*
X080560Y026393D03*
X080560Y025393D03*
X079560Y025393D03*
X079560Y024393D03*
X080560Y024393D03*
X080560Y023393D03*
X079560Y023393D03*
D11*
X066760Y023593D03*
X066760Y024593D03*
X066760Y025593D03*
D12*
X065960Y025959D03*
X065960Y026628D03*
X068160Y024328D03*
X068160Y023659D03*
X065260Y023728D03*
X065260Y023059D03*
D13*
X068660Y026053D02*
X068660Y026533D01*
X069660Y026533D02*
X069660Y026053D01*
X070660Y026053D02*
X070660Y026533D01*
X071660Y026533D02*
X071660Y026053D01*
X072660Y026053D02*
X072660Y026533D01*
X073660Y026533D02*
X073660Y026053D01*
X074660Y026053D02*
X074660Y026533D01*
X074660Y029053D02*
X074660Y029533D01*
X073660Y029533D02*
X073660Y029053D01*
X072660Y029053D02*
X072660Y029533D01*
X071660Y029533D02*
X071660Y029053D01*
X070660Y029053D02*
X070660Y029533D01*
X069660Y029533D02*
X069660Y029053D01*
X068660Y029053D02*
X068660Y029533D01*
D14*
X068660Y022593D03*
X069660Y022593D03*
X070660Y022593D03*
X071660Y022593D03*
X072660Y022593D03*
X073660Y022593D03*
X074660Y022593D03*
X075660Y022593D03*
X076660Y022593D03*
X076660Y018593D03*
X075660Y018593D03*
X074660Y018593D03*
X073660Y018593D03*
X072660Y018593D03*
X071660Y018593D03*
X070660Y018593D03*
X069660Y018593D03*
X068660Y018593D03*
X067660Y018593D03*
X066660Y018593D03*
X066660Y022593D03*
X067660Y022593D03*
D15*
X073625Y023893D03*
X074294Y023893D03*
X074294Y024793D03*
X073625Y024793D03*
D16*
X070150Y034093D03*
X068970Y034093D03*
X067790Y034093D03*
X066610Y034093D03*
D17*
X061760Y036793D02*
X061760Y018123D01*
X081360Y018123D01*
X081360Y036793D01*
X061760Y036793D01*
X061760Y036766D02*
X081360Y036766D01*
X081360Y036608D02*
X068556Y036608D01*
X068543Y036613D02*
X068216Y036613D01*
X067915Y036488D01*
X067684Y036258D01*
X067560Y035956D01*
X067560Y035630D01*
X067684Y035329D01*
X067915Y035098D01*
X068216Y034973D01*
X068543Y034973D01*
X068844Y035098D01*
X069075Y035329D01*
X069200Y035630D01*
X069200Y035956D01*
X069075Y036258D01*
X068844Y036488D01*
X068543Y036613D01*
X068203Y036608D02*
X061760Y036608D01*
X061760Y036449D02*
X067876Y036449D01*
X067717Y036291D02*
X061760Y036291D01*
X061760Y036132D02*
X067632Y036132D01*
X067567Y035974D02*
X061760Y035974D01*
X061760Y035815D02*
X067560Y035815D01*
X067560Y035657D02*
X061760Y035657D01*
X061760Y035498D02*
X067614Y035498D01*
X067680Y035340D02*
X061760Y035340D01*
X061760Y035181D02*
X067832Y035181D01*
X068097Y035023D02*
X061760Y035023D01*
X061760Y034864D02*
X081360Y034864D01*
X081360Y034706D02*
X061760Y034706D01*
X061760Y034547D02*
X081360Y034547D01*
X081360Y034389D02*
X070476Y034389D01*
X070523Y034343D02*
X070399Y034466D01*
X070237Y034533D01*
X070062Y034533D01*
X069900Y034466D01*
X069776Y034343D01*
X069710Y034181D01*
X069710Y034006D01*
X069725Y033969D01*
X069468Y033713D01*
X069202Y033713D01*
X069219Y033720D01*
X069343Y033844D01*
X069410Y034006D01*
X069410Y034181D01*
X069343Y034343D01*
X069219Y034466D01*
X069057Y034533D01*
X068882Y034533D01*
X068720Y034466D01*
X068596Y034343D01*
X068530Y034181D01*
X068530Y034006D01*
X068596Y033844D01*
X068720Y033720D01*
X068737Y033713D01*
X068022Y033713D01*
X068039Y033720D01*
X068163Y033844D01*
X068230Y034006D01*
X068230Y034181D01*
X068163Y034343D01*
X068039Y034466D01*
X067877Y034533D01*
X067702Y034533D01*
X067540Y034466D01*
X067416Y034343D01*
X067350Y034181D01*
X067350Y034006D01*
X067416Y033844D01*
X067540Y033720D01*
X067557Y033713D01*
X066842Y033713D01*
X066859Y033720D01*
X066983Y033844D01*
X067050Y034006D01*
X067050Y034181D01*
X066983Y034343D01*
X066859Y034466D01*
X066697Y034533D01*
X066522Y034533D01*
X066360Y034466D01*
X066236Y034343D01*
X066170Y034181D01*
X066170Y034006D01*
X066236Y033844D01*
X066360Y033720D01*
X066377Y033713D01*
X064568Y033713D01*
X063688Y032833D01*
X063377Y032833D01*
X063120Y032576D01*
X063120Y032211D01*
X063377Y031953D01*
X063742Y031953D01*
X064000Y032211D01*
X064000Y032522D01*
X064751Y033273D01*
X069651Y033273D01*
X069780Y033402D01*
X070040Y033662D01*
X070062Y033653D01*
X070237Y033653D01*
X070399Y033720D01*
X070523Y033844D01*
X070590Y034006D01*
X070590Y034181D01*
X070523Y034343D01*
X070569Y034230D02*
X081360Y034230D01*
X081360Y034072D02*
X070590Y034072D01*
X070551Y033913D02*
X081360Y033913D01*
X081360Y033755D02*
X070433Y033755D01*
X070150Y034083D02*
X069560Y033493D01*
X064660Y033493D01*
X063560Y032393D01*
X064000Y032328D02*
X079120Y032328D01*
X079120Y032211D02*
X079377Y031953D01*
X079742Y031953D01*
X080000Y032211D01*
X080000Y032576D01*
X079742Y032833D01*
X079377Y032833D01*
X079120Y032576D01*
X079120Y032211D01*
X079161Y032170D02*
X063958Y032170D01*
X063800Y032011D02*
X079319Y032011D01*
X079377Y031833D02*
X079120Y031576D01*
X079120Y031211D01*
X079377Y030953D01*
X079742Y030953D01*
X080000Y031211D01*
X080000Y031576D01*
X079742Y031833D01*
X079377Y031833D01*
X079238Y031694D02*
X063881Y031694D01*
X064000Y031576D02*
X063742Y031833D01*
X063377Y031833D01*
X063120Y031576D01*
X063120Y031211D01*
X063377Y030953D01*
X063742Y030953D01*
X064000Y031211D01*
X064000Y031576D01*
X064000Y031536D02*
X079120Y031536D01*
X079120Y031377D02*
X064000Y031377D01*
X064000Y031219D02*
X079120Y031219D01*
X079270Y031060D02*
X063849Y031060D01*
X063742Y030833D02*
X063377Y030833D01*
X063120Y030576D01*
X063120Y030211D01*
X063377Y029953D01*
X063742Y029953D01*
X064000Y030211D01*
X064000Y030576D01*
X063742Y030833D01*
X063832Y030743D02*
X079287Y030743D01*
X079377Y030833D02*
X079157Y030613D01*
X076968Y030613D01*
X074968Y028613D01*
X070668Y028613D01*
X068893Y026838D01*
X068875Y026855D01*
X068735Y026913D01*
X068584Y026913D01*
X068444Y026855D01*
X068337Y026749D01*
X068280Y026609D01*
X068280Y025978D01*
X068337Y025838D01*
X068444Y025731D01*
X068584Y025673D01*
X068735Y025673D01*
X068875Y025731D01*
X068982Y025838D01*
X069040Y025978D01*
X069040Y026362D01*
X069280Y026602D01*
X069280Y025978D01*
X069337Y025838D01*
X069444Y025731D01*
X069460Y025725D01*
X069460Y023876D01*
X069077Y023493D01*
X068960Y023376D01*
X068960Y022825D01*
X068873Y022912D01*
X068734Y022970D01*
X068585Y022970D01*
X068446Y022912D01*
X068341Y022806D01*
X068283Y022668D01*
X068283Y022518D01*
X068341Y022380D01*
X068446Y022274D01*
X068585Y022217D01*
X068734Y022217D01*
X068873Y022274D01*
X068960Y022361D01*
X068960Y019176D01*
X068747Y018964D01*
X068734Y018970D01*
X068585Y018970D01*
X068446Y018912D01*
X068341Y018806D01*
X068283Y018668D01*
X068283Y018518D01*
X068341Y018380D01*
X068446Y018274D01*
X068585Y018217D01*
X068734Y018217D01*
X068873Y018274D01*
X068978Y018380D01*
X069036Y018518D01*
X069036Y018668D01*
X069030Y018681D01*
X069360Y019010D01*
X069360Y022361D01*
X069446Y022274D01*
X069585Y022217D01*
X069734Y022217D01*
X069873Y022274D01*
X069960Y022361D01*
X069960Y022276D01*
X069460Y021776D01*
X069460Y018918D01*
X069446Y018912D01*
X069341Y018806D01*
X069283Y018668D01*
X069283Y018518D01*
X069341Y018380D01*
X069446Y018274D01*
X069585Y018217D01*
X069734Y018217D01*
X069873Y018274D01*
X069978Y018380D01*
X070036Y018518D01*
X070036Y018668D01*
X069978Y018806D01*
X069873Y018912D01*
X069860Y018918D01*
X069860Y021610D01*
X070360Y022110D01*
X070360Y022361D01*
X070446Y022274D01*
X070585Y022217D01*
X070734Y022217D01*
X070873Y022274D01*
X070978Y022380D01*
X071036Y022518D01*
X071036Y022668D01*
X070978Y022806D01*
X070873Y022912D01*
X070734Y022970D01*
X070585Y022970D01*
X070446Y022912D01*
X070360Y022825D01*
X070360Y024710D01*
X071412Y025763D01*
X071444Y025731D01*
X071584Y025673D01*
X071735Y025673D01*
X071875Y025731D01*
X071982Y025838D01*
X072040Y025978D01*
X072040Y026609D01*
X071982Y026749D01*
X071875Y026855D01*
X071735Y026913D01*
X071584Y026913D01*
X071444Y026855D01*
X071337Y026749D01*
X071280Y026609D01*
X071280Y026196D01*
X071024Y025941D01*
X071040Y025978D01*
X071040Y026609D01*
X070982Y026749D01*
X070875Y026855D01*
X070735Y026913D01*
X070584Y026913D01*
X070444Y026855D01*
X070337Y026749D01*
X070280Y026609D01*
X070280Y025978D01*
X070337Y025838D01*
X070444Y025731D01*
X070584Y025673D01*
X070735Y025673D01*
X070772Y025689D01*
X069960Y024876D01*
X069960Y022825D01*
X069873Y022912D01*
X069734Y022970D01*
X069585Y022970D01*
X069446Y022912D01*
X069360Y022825D01*
X069360Y023210D01*
X069860Y023710D01*
X069860Y025725D01*
X069875Y025731D01*
X069982Y025838D01*
X070040Y025978D01*
X070040Y026609D01*
X069982Y026749D01*
X069875Y026855D01*
X069735Y026913D01*
X069591Y026913D01*
X070851Y028173D01*
X074228Y028173D01*
X072893Y026838D01*
X072875Y026855D01*
X072735Y026913D01*
X072584Y026913D01*
X072444Y026855D01*
X072337Y026749D01*
X072280Y026609D01*
X072280Y025978D01*
X072337Y025838D01*
X072444Y025731D01*
X072584Y025673D01*
X072735Y025673D01*
X072875Y025731D01*
X072982Y025838D01*
X073040Y025978D01*
X073040Y026362D01*
X073280Y026602D01*
X073280Y025978D01*
X073333Y025849D01*
X072177Y024693D01*
X072060Y024576D01*
X072060Y020276D01*
X070747Y018964D01*
X070734Y018970D01*
X070585Y018970D01*
X070446Y018912D01*
X070341Y018806D01*
X070283Y018668D01*
X070283Y018518D01*
X070341Y018380D01*
X070446Y018274D01*
X070585Y018217D01*
X070734Y018217D01*
X070873Y018274D01*
X070978Y018380D01*
X071036Y018518D01*
X071036Y018668D01*
X071030Y018681D01*
X072460Y020110D01*
X072460Y022269D01*
X072585Y022217D01*
X072734Y022217D01*
X072873Y022274D01*
X072978Y022380D01*
X073036Y022518D01*
X073036Y022668D01*
X072978Y022806D01*
X072873Y022912D01*
X072734Y022970D01*
X072585Y022970D01*
X072460Y022918D01*
X072460Y024410D01*
X073722Y025673D01*
X073735Y025673D01*
X073875Y025731D01*
X073982Y025838D01*
X074040Y025978D01*
X074040Y026609D01*
X073982Y026749D01*
X073875Y026855D01*
X073735Y026913D01*
X073591Y026913D01*
X074551Y027873D01*
X075351Y027873D01*
X075480Y028002D01*
X076651Y029173D01*
X079157Y029173D01*
X079377Y028953D01*
X079742Y028953D01*
X080000Y029211D01*
X080000Y029576D01*
X079742Y029833D01*
X079377Y029833D01*
X079157Y029613D01*
X076591Y029613D01*
X077151Y030173D01*
X079157Y030173D01*
X079377Y029953D01*
X079742Y029953D01*
X080000Y030211D01*
X080000Y030576D01*
X079742Y030833D01*
X079377Y030833D01*
X079832Y030743D02*
X080287Y030743D01*
X080377Y030833D02*
X080120Y030576D01*
X080120Y030211D01*
X080377Y029953D01*
X080742Y029953D01*
X081000Y030211D01*
X081000Y030576D01*
X080742Y030833D01*
X080377Y030833D01*
X080377Y030953D02*
X080742Y030953D01*
X081000Y031211D01*
X081000Y031576D01*
X080742Y031833D01*
X080377Y031833D01*
X080120Y031576D01*
X080120Y031211D01*
X080377Y030953D01*
X080270Y031060D02*
X079849Y031060D01*
X080000Y031219D02*
X080120Y031219D01*
X080120Y031377D02*
X080000Y031377D01*
X080000Y031536D02*
X080120Y031536D01*
X080238Y031694D02*
X079881Y031694D01*
X079800Y032011D02*
X080319Y032011D01*
X080377Y031953D02*
X080120Y032211D01*
X080120Y032576D01*
X080377Y032833D01*
X080742Y032833D01*
X081000Y032576D01*
X081000Y032211D01*
X080742Y031953D01*
X080377Y031953D01*
X080161Y032170D02*
X079958Y032170D01*
X080000Y032328D02*
X080120Y032328D01*
X080120Y032487D02*
X080000Y032487D01*
X079930Y032645D02*
X080189Y032645D01*
X080348Y032804D02*
X079771Y032804D01*
X079348Y032804D02*
X064281Y032804D01*
X064123Y032645D02*
X079189Y032645D01*
X079120Y032487D02*
X064000Y032487D01*
X063817Y032962D02*
X061760Y032962D01*
X061760Y032804D02*
X062291Y032804D01*
X062361Y032873D02*
X062080Y032592D01*
X062080Y032413D01*
X062540Y032413D01*
X062540Y032873D01*
X062361Y032873D01*
X062540Y032804D02*
X062580Y032804D01*
X062580Y032873D02*
X062580Y032413D01*
X062580Y032373D01*
X063040Y032373D01*
X063040Y032194D01*
X062758Y031913D01*
X062580Y031913D01*
X062580Y032373D01*
X062540Y032373D01*
X062540Y031913D01*
X062361Y031913D01*
X062080Y032194D01*
X062080Y032373D01*
X062540Y032373D01*
X062540Y032413D01*
X062580Y032413D01*
X063040Y032413D01*
X063040Y032592D01*
X062758Y032873D01*
X062580Y032873D01*
X062580Y032645D02*
X062540Y032645D01*
X062540Y032487D02*
X062580Y032487D01*
X062580Y032328D02*
X062540Y032328D01*
X062540Y032170D02*
X062580Y032170D01*
X062580Y032011D02*
X062540Y032011D01*
X062377Y031833D02*
X062120Y031576D01*
X062120Y031211D01*
X062377Y030953D01*
X062742Y030953D01*
X063000Y031211D01*
X063000Y031576D01*
X062742Y031833D01*
X062377Y031833D01*
X062238Y031694D02*
X061760Y031694D01*
X061760Y031536D02*
X062120Y031536D01*
X062120Y031377D02*
X061760Y031377D01*
X061760Y031219D02*
X062120Y031219D01*
X062270Y031060D02*
X061760Y031060D01*
X061760Y030902D02*
X081360Y030902D01*
X081360Y031060D02*
X080849Y031060D01*
X081000Y031219D02*
X081360Y031219D01*
X081360Y031377D02*
X081000Y031377D01*
X081000Y031536D02*
X081360Y031536D01*
X081360Y031694D02*
X080881Y031694D01*
X080800Y032011D02*
X081360Y032011D01*
X081360Y031853D02*
X061760Y031853D01*
X061760Y032011D02*
X062263Y032011D01*
X062104Y032170D02*
X061760Y032170D01*
X061760Y032328D02*
X062080Y032328D01*
X062080Y032487D02*
X061760Y032487D01*
X061760Y032645D02*
X062133Y032645D01*
X061760Y033121D02*
X063976Y033121D01*
X064134Y033279D02*
X061760Y033279D01*
X061760Y033438D02*
X064293Y033438D01*
X064451Y033596D02*
X061760Y033596D01*
X061760Y033755D02*
X066326Y033755D01*
X066208Y033913D02*
X061760Y033913D01*
X061760Y034072D02*
X066170Y034072D01*
X066190Y034230D02*
X061760Y034230D01*
X061760Y034389D02*
X066283Y034389D01*
X066936Y034389D02*
X067463Y034389D01*
X067370Y034230D02*
X067029Y034230D01*
X067050Y034072D02*
X067350Y034072D01*
X067388Y033913D02*
X067011Y033913D01*
X066893Y033755D02*
X067506Y033755D01*
X068073Y033755D02*
X068686Y033755D01*
X068568Y033913D02*
X068191Y033913D01*
X068230Y034072D02*
X068530Y034072D01*
X068550Y034230D02*
X068209Y034230D01*
X068116Y034389D02*
X068643Y034389D01*
X068662Y035023D02*
X081360Y035023D01*
X081360Y035181D02*
X068927Y035181D01*
X069079Y035340D02*
X081360Y035340D01*
X081360Y035498D02*
X069145Y035498D01*
X069200Y035657D02*
X081360Y035657D01*
X081360Y035815D02*
X069200Y035815D01*
X069192Y035974D02*
X081360Y035974D01*
X081360Y036132D02*
X069127Y036132D01*
X069042Y036291D02*
X081360Y036291D01*
X081360Y036449D02*
X068883Y036449D01*
X069296Y034389D02*
X069823Y034389D01*
X069730Y034230D02*
X069389Y034230D01*
X069410Y034072D02*
X069710Y034072D01*
X069668Y033913D02*
X069371Y033913D01*
X069253Y033755D02*
X069510Y033755D01*
X069815Y033438D02*
X081360Y033438D01*
X081360Y033596D02*
X069974Y033596D01*
X069657Y033279D02*
X081360Y033279D01*
X081360Y033121D02*
X064598Y033121D01*
X064440Y032962D02*
X081360Y032962D01*
X081360Y032804D02*
X080771Y032804D01*
X080930Y032645D02*
X081360Y032645D01*
X081360Y032487D02*
X081000Y032487D01*
X081000Y032328D02*
X081360Y032328D01*
X081360Y032170D02*
X080958Y032170D01*
X080832Y030743D02*
X081360Y030743D01*
X081360Y030585D02*
X080990Y030585D01*
X081000Y030426D02*
X081360Y030426D01*
X081360Y030268D02*
X081000Y030268D01*
X080898Y030109D02*
X081360Y030109D01*
X081360Y029951D02*
X076928Y029951D01*
X077087Y030109D02*
X079221Y030109D01*
X079336Y029792D02*
X076770Y029792D01*
X076611Y029634D02*
X079178Y029634D01*
X079560Y029393D02*
X076560Y029393D01*
X075260Y028093D01*
X074460Y028093D01*
X072660Y026293D01*
X073040Y026305D02*
X073280Y026305D01*
X073280Y026147D02*
X073040Y026147D01*
X073040Y025988D02*
X073280Y025988D01*
X073313Y025830D02*
X072973Y025830D01*
X073155Y025671D02*
X071320Y025671D01*
X071162Y025513D02*
X072996Y025513D01*
X072838Y025354D02*
X071003Y025354D01*
X070845Y025196D02*
X072679Y025196D01*
X072521Y025037D02*
X070686Y025037D01*
X070528Y024879D02*
X072362Y024879D01*
X072204Y024720D02*
X070369Y024720D01*
X070360Y024562D02*
X072060Y024562D01*
X072060Y024403D02*
X070360Y024403D01*
X070360Y024245D02*
X072060Y024245D01*
X072060Y024086D02*
X070360Y024086D01*
X070360Y023928D02*
X072060Y023928D01*
X072060Y023769D02*
X070360Y023769D01*
X070360Y023611D02*
X072060Y023611D01*
X072060Y023452D02*
X070360Y023452D01*
X070360Y023294D02*
X072060Y023294D01*
X072060Y023135D02*
X070360Y023135D01*
X070360Y022977D02*
X072060Y022977D01*
X072060Y022818D02*
X071967Y022818D01*
X071978Y022806D02*
X071873Y022912D01*
X071734Y022970D01*
X071585Y022970D01*
X071446Y022912D01*
X071341Y022806D01*
X071283Y022668D01*
X071283Y022518D01*
X071341Y022380D01*
X071446Y022274D01*
X071585Y022217D01*
X071734Y022217D01*
X071873Y022274D01*
X071978Y022380D01*
X072036Y022518D01*
X072036Y022668D01*
X071978Y022806D01*
X072036Y022660D02*
X072060Y022660D01*
X072060Y022501D02*
X072029Y022501D01*
X072060Y022343D02*
X071941Y022343D01*
X072060Y022184D02*
X070360Y022184D01*
X070360Y022343D02*
X070378Y022343D01*
X070275Y022026D02*
X072060Y022026D01*
X072060Y021867D02*
X070116Y021867D01*
X069958Y021709D02*
X072060Y021709D01*
X072060Y021550D02*
X069860Y021550D01*
X069860Y021392D02*
X072060Y021392D01*
X072060Y021233D02*
X069860Y021233D01*
X069860Y021075D02*
X072060Y021075D01*
X072060Y020916D02*
X069860Y020916D01*
X069860Y020758D02*
X072060Y020758D01*
X072060Y020599D02*
X069860Y020599D01*
X069860Y020441D02*
X072060Y020441D01*
X072060Y020282D02*
X069860Y020282D01*
X069860Y020124D02*
X071907Y020124D01*
X071749Y019965D02*
X069860Y019965D01*
X069860Y019807D02*
X071590Y019807D01*
X071432Y019648D02*
X069860Y019648D01*
X069860Y019490D02*
X071273Y019490D01*
X071115Y019331D02*
X069860Y019331D01*
X069860Y019173D02*
X070956Y019173D01*
X070798Y019014D02*
X069860Y019014D01*
X069929Y018856D02*
X070390Y018856D01*
X070295Y018697D02*
X070024Y018697D01*
X070036Y018539D02*
X070283Y018539D01*
X070341Y018380D02*
X069979Y018380D01*
X069746Y018222D02*
X070573Y018222D01*
X070746Y018222D02*
X071573Y018222D01*
X071585Y018217D02*
X071734Y018217D01*
X071873Y018274D01*
X071978Y018380D01*
X072036Y018518D01*
X072036Y018668D01*
X071978Y018806D01*
X071873Y018912D01*
X071734Y018970D01*
X071585Y018970D01*
X071446Y018912D01*
X071341Y018806D01*
X071283Y018668D01*
X071283Y018518D01*
X071341Y018380D01*
X071446Y018274D01*
X071585Y018217D01*
X071746Y018222D02*
X072573Y018222D01*
X072585Y018217D02*
X072734Y018217D01*
X072873Y018274D01*
X072978Y018380D01*
X073036Y018518D01*
X073036Y018668D01*
X072978Y018806D01*
X072873Y018912D01*
X072734Y018970D01*
X072585Y018970D01*
X072446Y018912D01*
X072341Y018806D01*
X072283Y018668D01*
X072283Y018518D01*
X072341Y018380D01*
X072446Y018274D01*
X072585Y018217D01*
X072746Y018222D02*
X073573Y018222D01*
X073585Y018217D02*
X073734Y018217D01*
X073873Y018274D01*
X073978Y018380D01*
X074036Y018518D01*
X074036Y018668D01*
X073978Y018806D01*
X073873Y018912D01*
X073734Y018970D01*
X073585Y018970D01*
X073446Y018912D01*
X073341Y018806D01*
X073283Y018668D01*
X073283Y018518D01*
X073341Y018380D01*
X073446Y018274D01*
X073585Y018217D01*
X073746Y018222D02*
X074573Y018222D01*
X074585Y018217D02*
X074734Y018217D01*
X074873Y018274D01*
X074978Y018380D01*
X075036Y018518D01*
X075036Y018668D01*
X074978Y018806D01*
X074873Y018912D01*
X074734Y018970D01*
X074585Y018970D01*
X074446Y018912D01*
X074341Y018806D01*
X074283Y018668D01*
X074283Y018518D01*
X074341Y018380D01*
X074446Y018274D01*
X074585Y018217D01*
X074746Y018222D02*
X075573Y018222D01*
X075585Y018217D02*
X075734Y018217D01*
X075873Y018274D01*
X075978Y018380D01*
X076036Y018518D01*
X076036Y018668D01*
X075978Y018806D01*
X075873Y018912D01*
X075734Y018970D01*
X075585Y018970D01*
X075446Y018912D01*
X075341Y018806D01*
X075283Y018668D01*
X075283Y018518D01*
X075341Y018380D01*
X075446Y018274D01*
X075585Y018217D01*
X075746Y018222D02*
X076573Y018222D01*
X076585Y018217D02*
X076734Y018217D01*
X076873Y018274D01*
X076978Y018380D01*
X077036Y018518D01*
X077036Y018668D01*
X076978Y018806D01*
X076873Y018912D01*
X076734Y018970D01*
X076585Y018970D01*
X076446Y018912D01*
X076341Y018806D01*
X076283Y018668D01*
X076283Y018518D01*
X076341Y018380D01*
X076446Y018274D01*
X076585Y018217D01*
X076746Y018222D02*
X081360Y018222D01*
X081360Y018380D02*
X076979Y018380D01*
X077036Y018539D02*
X081360Y018539D01*
X081360Y018697D02*
X077024Y018697D01*
X076929Y018856D02*
X081360Y018856D01*
X081360Y019014D02*
X071363Y019014D01*
X071390Y018856D02*
X071205Y018856D01*
X071295Y018697D02*
X071046Y018697D01*
X071036Y018539D02*
X071283Y018539D01*
X071341Y018380D02*
X070979Y018380D01*
X069573Y018222D02*
X068746Y018222D01*
X068573Y018222D02*
X067847Y018222D01*
X067819Y018208D02*
X067878Y018237D01*
X067931Y018276D01*
X067977Y018322D01*
X068015Y018375D01*
X068045Y018434D01*
X068065Y018496D01*
X068076Y018561D01*
X068076Y018593D01*
X067660Y018593D01*
X067660Y018593D01*
X067660Y018177D01*
X067692Y018177D01*
X067757Y018187D01*
X067819Y018208D01*
X067660Y018222D02*
X067660Y018222D01*
X067660Y018177D02*
X067660Y018593D01*
X067660Y018593D01*
X068076Y018593D01*
X068076Y018626D01*
X068065Y018691D01*
X068045Y018753D01*
X068015Y018811D01*
X067977Y018864D01*
X067931Y018911D01*
X067878Y018949D01*
X067819Y018979D01*
X067757Y018999D01*
X067692Y019010D01*
X067660Y019010D01*
X067660Y018593D01*
X067660Y018593D01*
X067243Y018593D01*
X067243Y018561D01*
X067254Y018496D01*
X067274Y018434D01*
X067304Y018375D01*
X067342Y018322D01*
X067388Y018276D01*
X067441Y018237D01*
X067500Y018208D01*
X067562Y018187D01*
X067627Y018177D01*
X067660Y018177D01*
X067472Y018222D02*
X066847Y018222D01*
X066819Y018208D02*
X066878Y018237D01*
X066931Y018276D01*
X066977Y018322D01*
X067015Y018375D01*
X067045Y018434D01*
X067065Y018496D01*
X067076Y018561D01*
X067076Y018593D01*
X066660Y018593D01*
X066660Y018593D01*
X066660Y018177D01*
X066692Y018177D01*
X066757Y018187D01*
X066819Y018208D01*
X066660Y018222D02*
X066660Y018222D01*
X066660Y018177D02*
X066660Y018593D01*
X066660Y018593D01*
X067076Y018593D01*
X067076Y018626D01*
X067065Y018691D01*
X067045Y018753D01*
X067015Y018811D01*
X066977Y018864D01*
X066931Y018911D01*
X066878Y018949D01*
X066819Y018979D01*
X066757Y018999D01*
X066692Y019010D01*
X066660Y019010D01*
X066660Y018593D01*
X066660Y018593D01*
X066243Y018593D01*
X066243Y018561D01*
X066254Y018496D01*
X066274Y018434D01*
X066304Y018375D01*
X066342Y018322D01*
X066388Y018276D01*
X066441Y018237D01*
X066500Y018208D01*
X066562Y018187D01*
X066627Y018177D01*
X066660Y018177D01*
X066472Y018222D02*
X061760Y018222D01*
X061760Y018380D02*
X066301Y018380D01*
X066247Y018539D02*
X061760Y018539D01*
X061760Y018697D02*
X066256Y018697D01*
X066254Y018691D02*
X066243Y018626D01*
X066243Y018593D01*
X066660Y018593D01*
X066660Y018593D01*
X066660Y019010D01*
X066627Y019010D01*
X066562Y018999D01*
X066500Y018979D01*
X066441Y018949D01*
X066388Y018911D01*
X066342Y018864D01*
X066304Y018811D01*
X066274Y018753D01*
X066254Y018691D01*
X066336Y018856D02*
X061760Y018856D01*
X061760Y019014D02*
X068798Y019014D01*
X068956Y019173D02*
X061760Y019173D01*
X061760Y019331D02*
X068960Y019331D01*
X068960Y019490D02*
X061760Y019490D01*
X061760Y019648D02*
X068960Y019648D01*
X068960Y019807D02*
X061760Y019807D01*
X061760Y019965D02*
X068960Y019965D01*
X068960Y020124D02*
X061760Y020124D01*
X061760Y020282D02*
X068960Y020282D01*
X068960Y020441D02*
X061760Y020441D01*
X061760Y020599D02*
X068960Y020599D01*
X068960Y020758D02*
X061760Y020758D01*
X061760Y020916D02*
X068960Y020916D01*
X068960Y021075D02*
X061760Y021075D01*
X061760Y021233D02*
X068960Y021233D01*
X068960Y021392D02*
X061760Y021392D01*
X061760Y021550D02*
X068960Y021550D01*
X068960Y021709D02*
X061760Y021709D01*
X061760Y021867D02*
X068960Y021867D01*
X068960Y022026D02*
X061760Y022026D01*
X061760Y022184D02*
X068960Y022184D01*
X068960Y022343D02*
X068941Y022343D01*
X069360Y022343D02*
X069378Y022343D01*
X069360Y022184D02*
X069868Y022184D01*
X069941Y022343D02*
X069960Y022343D01*
X069709Y022026D02*
X069360Y022026D01*
X069360Y021867D02*
X069551Y021867D01*
X069460Y021709D02*
X069360Y021709D01*
X069360Y021550D02*
X069460Y021550D01*
X069460Y021392D02*
X069360Y021392D01*
X069360Y021233D02*
X069460Y021233D01*
X069460Y021075D02*
X069360Y021075D01*
X069360Y020916D02*
X069460Y020916D01*
X069460Y020758D02*
X069360Y020758D01*
X069360Y020599D02*
X069460Y020599D01*
X069460Y020441D02*
X069360Y020441D01*
X069360Y020282D02*
X069460Y020282D01*
X069460Y020124D02*
X069360Y020124D01*
X069360Y019965D02*
X069460Y019965D01*
X069460Y019807D02*
X069360Y019807D01*
X069360Y019648D02*
X069460Y019648D01*
X069460Y019490D02*
X069360Y019490D01*
X069360Y019331D02*
X069460Y019331D01*
X069460Y019173D02*
X069360Y019173D01*
X069360Y019014D02*
X069460Y019014D01*
X069390Y018856D02*
X069205Y018856D01*
X069295Y018697D02*
X069046Y018697D01*
X069036Y018539D02*
X069283Y018539D01*
X069341Y018380D02*
X068979Y018380D01*
X068341Y018380D02*
X068018Y018380D01*
X068072Y018539D02*
X068283Y018539D01*
X068295Y018697D02*
X068063Y018697D01*
X067983Y018856D02*
X068390Y018856D01*
X067660Y018856D02*
X067660Y018856D01*
X067660Y019010D02*
X067660Y018593D01*
X067660Y018593D01*
X067243Y018593D01*
X067243Y018626D01*
X067254Y018691D01*
X067274Y018753D01*
X067304Y018811D01*
X067342Y018864D01*
X067388Y018911D01*
X067441Y018949D01*
X067500Y018979D01*
X067562Y018999D01*
X067627Y019010D01*
X067660Y019010D01*
X067660Y018697D02*
X067660Y018697D01*
X067660Y018539D02*
X067660Y018539D01*
X067660Y018380D02*
X067660Y018380D01*
X067301Y018380D02*
X067018Y018380D01*
X067072Y018539D02*
X067247Y018539D01*
X067256Y018697D02*
X067063Y018697D01*
X066983Y018856D02*
X067336Y018856D01*
X066660Y018856D02*
X066660Y018856D01*
X066660Y018697D02*
X066660Y018697D01*
X066660Y018539D02*
X066660Y018539D01*
X066660Y018380D02*
X066660Y018380D01*
X071522Y019173D02*
X081360Y019173D01*
X081360Y019331D02*
X071680Y019331D01*
X071839Y019490D02*
X081360Y019490D01*
X081360Y019648D02*
X071997Y019648D01*
X072156Y019807D02*
X081360Y019807D01*
X081360Y019965D02*
X072314Y019965D01*
X072460Y020124D02*
X081360Y020124D01*
X081360Y020282D02*
X072460Y020282D01*
X072460Y020441D02*
X081360Y020441D01*
X081360Y020599D02*
X072460Y020599D01*
X072460Y020758D02*
X081360Y020758D01*
X081360Y020916D02*
X072460Y020916D01*
X072460Y021075D02*
X081360Y021075D01*
X081360Y021233D02*
X072460Y021233D01*
X072460Y021392D02*
X081360Y021392D01*
X081360Y021550D02*
X072460Y021550D01*
X072460Y021709D02*
X081360Y021709D01*
X081360Y021867D02*
X072460Y021867D01*
X072460Y022026D02*
X081360Y022026D01*
X081360Y022184D02*
X072460Y022184D01*
X072941Y022343D02*
X073378Y022343D01*
X073341Y022380D02*
X073446Y022274D01*
X073585Y022217D01*
X073734Y022217D01*
X073873Y022274D01*
X073978Y022380D01*
X074036Y022518D01*
X074036Y022668D01*
X073978Y022806D01*
X073873Y022912D01*
X073734Y022970D01*
X073585Y022970D01*
X073446Y022912D01*
X073341Y022806D01*
X073283Y022668D01*
X073283Y022518D01*
X073341Y022380D01*
X073290Y022501D02*
X073029Y022501D01*
X073036Y022660D02*
X073283Y022660D01*
X073352Y022818D02*
X072967Y022818D01*
X073398Y023119D02*
X073485Y023032D01*
X073598Y022985D01*
X073721Y022985D01*
X073834Y023032D01*
X073921Y023119D01*
X073968Y023232D01*
X073968Y023355D01*
X073921Y023468D01*
X073880Y023509D01*
X073880Y023556D01*
X073899Y023556D01*
X073932Y023589D01*
X073934Y023586D01*
X073967Y023552D01*
X074008Y023529D01*
X074054Y023516D01*
X074276Y023516D01*
X074276Y023875D01*
X074313Y023875D01*
X074313Y023912D01*
X074691Y023912D01*
X074691Y024114D01*
X074678Y024160D01*
X074655Y024201D01*
X074621Y024234D01*
X074580Y024258D01*
X074534Y024270D01*
X074313Y024270D01*
X074313Y023912D01*
X074276Y023912D01*
X074276Y024270D01*
X074054Y024270D01*
X074008Y024258D01*
X073967Y024234D01*
X073934Y024201D01*
X073932Y024198D01*
X073899Y024230D01*
X073845Y024230D01*
X073845Y024456D01*
X073899Y024456D01*
X073932Y024489D01*
X073934Y024486D01*
X073967Y024452D01*
X074008Y024429D01*
X074054Y024416D01*
X074276Y024416D01*
X074276Y024775D01*
X074313Y024775D01*
X074313Y024812D01*
X074691Y024812D01*
X074691Y025014D01*
X074678Y025060D01*
X074655Y025101D01*
X074621Y025134D01*
X074580Y025158D01*
X074534Y025170D01*
X074313Y025170D01*
X074313Y024812D01*
X074276Y024812D01*
X074276Y025170D01*
X074054Y025170D01*
X074008Y025158D01*
X073967Y025134D01*
X073934Y025101D01*
X073932Y025098D01*
X073899Y025130D01*
X073350Y025130D01*
X073268Y025048D01*
X073268Y024538D01*
X073350Y024456D01*
X073405Y024456D01*
X073405Y024230D01*
X073350Y024230D01*
X073268Y024148D01*
X073268Y023638D01*
X073350Y023556D01*
X073440Y023556D01*
X073440Y023509D01*
X073398Y023468D01*
X073351Y023355D01*
X073351Y023232D01*
X073398Y023119D01*
X073391Y023135D02*
X072460Y023135D01*
X072460Y022977D02*
X079354Y022977D01*
X079377Y022953D02*
X079120Y023211D01*
X079120Y023576D01*
X079377Y023833D01*
X079742Y023833D01*
X080000Y023576D01*
X080000Y023211D01*
X079742Y022953D01*
X079377Y022953D01*
X079195Y023135D02*
X073928Y023135D01*
X073968Y023294D02*
X079120Y023294D01*
X079120Y023452D02*
X073927Y023452D01*
X073660Y023293D02*
X073660Y023793D01*
X073625Y023828D01*
X073625Y024793D01*
X073625Y023893D01*
X073268Y023928D02*
X072460Y023928D01*
X072460Y024086D02*
X073268Y024086D01*
X073405Y024245D02*
X072460Y024245D01*
X072460Y024403D02*
X073405Y024403D01*
X073268Y024562D02*
X072611Y024562D01*
X072769Y024720D02*
X073268Y024720D01*
X073268Y024879D02*
X072928Y024879D01*
X073086Y025037D02*
X073268Y025037D01*
X073245Y025196D02*
X079135Y025196D01*
X079120Y025211D02*
X079377Y024953D01*
X079742Y024953D01*
X080000Y025211D01*
X080000Y025576D01*
X079742Y025833D01*
X079377Y025833D01*
X079120Y025576D01*
X079120Y025211D01*
X079120Y025354D02*
X073403Y025354D01*
X073562Y025513D02*
X079120Y025513D01*
X079215Y025671D02*
X073720Y025671D01*
X073973Y025830D02*
X074346Y025830D01*
X074337Y025838D02*
X074444Y025731D01*
X074584Y025673D01*
X074735Y025673D01*
X074875Y025731D01*
X074982Y025838D01*
X075040Y025978D01*
X075040Y026609D01*
X074982Y026749D01*
X074875Y026855D01*
X074735Y026913D01*
X074584Y026913D01*
X074444Y026855D01*
X074337Y026749D01*
X074280Y026609D01*
X074280Y025978D01*
X074337Y025838D01*
X074280Y025988D02*
X074040Y025988D01*
X074040Y026147D02*
X074280Y026147D01*
X074280Y026305D02*
X074040Y026305D01*
X074040Y026464D02*
X074280Y026464D01*
X074285Y026622D02*
X074034Y026622D01*
X073949Y026781D02*
X074370Y026781D01*
X074949Y026781D02*
X079325Y026781D01*
X079377Y026833D02*
X079120Y026576D01*
X079120Y026211D01*
X079377Y025953D01*
X079742Y025953D01*
X080000Y026211D01*
X080000Y026576D01*
X079742Y026833D01*
X079377Y026833D01*
X079377Y026953D02*
X079742Y026953D01*
X080000Y027211D01*
X080000Y027576D01*
X079742Y027833D01*
X079377Y027833D01*
X079120Y027576D01*
X079120Y027211D01*
X079377Y026953D01*
X079233Y027098D02*
X073775Y027098D01*
X073934Y027256D02*
X079120Y027256D01*
X079120Y027415D02*
X074092Y027415D01*
X074251Y027573D02*
X079120Y027573D01*
X079276Y027732D02*
X074409Y027732D01*
X074104Y028049D02*
X070726Y028049D01*
X070568Y027890D02*
X073945Y027890D01*
X073787Y027732D02*
X070409Y027732D01*
X070251Y027573D02*
X073628Y027573D01*
X073470Y027415D02*
X070092Y027415D01*
X069934Y027256D02*
X073311Y027256D01*
X073153Y027098D02*
X069775Y027098D01*
X069617Y026939D02*
X072994Y026939D01*
X073141Y026464D02*
X073280Y026464D01*
X073617Y026939D02*
X081360Y026939D01*
X081360Y026781D02*
X080794Y026781D01*
X080742Y026833D02*
X080377Y026833D01*
X080120Y026576D01*
X080120Y026211D01*
X080377Y025953D01*
X080742Y025953D01*
X081000Y026211D01*
X081000Y026576D01*
X080742Y026833D01*
X080742Y026953D02*
X081000Y027211D01*
X081000Y027576D01*
X080742Y027833D01*
X080377Y027833D01*
X080120Y027576D01*
X080120Y027211D01*
X080377Y026953D01*
X080742Y026953D01*
X080886Y027098D02*
X081360Y027098D01*
X081360Y027256D02*
X081000Y027256D01*
X081000Y027415D02*
X081360Y027415D01*
X081360Y027573D02*
X081000Y027573D01*
X080843Y027732D02*
X081360Y027732D01*
X081360Y027890D02*
X075368Y027890D01*
X075526Y028049D02*
X079282Y028049D01*
X079377Y027953D02*
X079742Y027953D01*
X080000Y028211D01*
X080000Y028576D01*
X079742Y028833D01*
X079377Y028833D01*
X079120Y028576D01*
X079120Y028211D01*
X079377Y027953D01*
X079123Y028207D02*
X075685Y028207D01*
X075843Y028366D02*
X079120Y028366D01*
X079120Y028524D02*
X076002Y028524D01*
X076160Y028683D02*
X079227Y028683D01*
X079331Y029000D02*
X076477Y029000D01*
X076636Y029158D02*
X079172Y029158D01*
X079788Y029000D02*
X080331Y029000D01*
X080377Y028953D02*
X080742Y028953D01*
X081000Y029211D01*
X081000Y029576D01*
X080742Y029833D01*
X080377Y029833D01*
X080120Y029576D01*
X080120Y029211D01*
X080377Y028953D01*
X080377Y028833D02*
X080120Y028576D01*
X080120Y028211D01*
X080377Y027953D01*
X080742Y027953D01*
X081000Y028211D01*
X081000Y028576D01*
X080742Y028833D01*
X080377Y028833D01*
X080227Y028683D02*
X079892Y028683D01*
X080000Y028524D02*
X080120Y028524D01*
X080120Y028366D02*
X080000Y028366D01*
X079996Y028207D02*
X080123Y028207D01*
X080282Y028049D02*
X079837Y028049D01*
X079843Y027732D02*
X080276Y027732D01*
X080120Y027573D02*
X080000Y027573D01*
X080000Y027415D02*
X080120Y027415D01*
X080120Y027256D02*
X080000Y027256D01*
X079886Y027098D02*
X080233Y027098D01*
X080325Y026781D02*
X079794Y026781D01*
X079953Y026622D02*
X080166Y026622D01*
X080120Y026464D02*
X080000Y026464D01*
X080000Y026305D02*
X080120Y026305D01*
X080184Y026147D02*
X079935Y026147D01*
X079777Y025988D02*
X080342Y025988D01*
X080377Y025833D02*
X080120Y025576D01*
X080120Y025211D01*
X080377Y024953D01*
X080742Y024953D01*
X081000Y025211D01*
X081000Y025576D01*
X080742Y025833D01*
X080377Y025833D01*
X080374Y025830D02*
X079745Y025830D01*
X079904Y025671D02*
X080215Y025671D01*
X080120Y025513D02*
X080000Y025513D01*
X080000Y025354D02*
X080120Y025354D01*
X080135Y025196D02*
X079984Y025196D01*
X079826Y025037D02*
X080293Y025037D01*
X080377Y024833D02*
X080120Y024576D01*
X080120Y024211D01*
X080377Y023953D01*
X080742Y023953D01*
X081000Y024211D01*
X081000Y024576D01*
X080742Y024833D01*
X080377Y024833D01*
X080264Y024720D02*
X079855Y024720D01*
X079742Y024833D02*
X080000Y024576D01*
X080000Y024211D01*
X079742Y023953D01*
X079377Y023953D01*
X079120Y024211D01*
X079120Y024576D01*
X079377Y024833D01*
X079742Y024833D01*
X080000Y024562D02*
X080120Y024562D01*
X080120Y024403D02*
X080000Y024403D01*
X080000Y024245D02*
X080120Y024245D01*
X080244Y024086D02*
X079875Y024086D01*
X079806Y023769D02*
X080313Y023769D01*
X080377Y023833D02*
X080120Y023576D01*
X080120Y023211D01*
X080377Y022953D01*
X080742Y022953D01*
X081000Y023211D01*
X081000Y023576D01*
X080742Y023833D01*
X080377Y023833D01*
X080155Y023611D02*
X079964Y023611D01*
X080000Y023452D02*
X080120Y023452D01*
X080120Y023294D02*
X080000Y023294D01*
X079924Y023135D02*
X080195Y023135D01*
X080354Y022977D02*
X079765Y022977D01*
X079155Y023611D02*
X074669Y023611D01*
X074678Y023627D02*
X074691Y023673D01*
X074691Y023875D01*
X074313Y023875D01*
X074313Y023516D01*
X074534Y023516D01*
X074580Y023529D01*
X074621Y023552D01*
X074655Y023586D01*
X074678Y023627D01*
X074691Y023769D02*
X079313Y023769D01*
X079244Y024086D02*
X074691Y024086D01*
X074691Y023928D02*
X081360Y023928D01*
X081360Y024086D02*
X080875Y024086D01*
X081000Y024245D02*
X081360Y024245D01*
X081360Y024403D02*
X081000Y024403D01*
X081000Y024562D02*
X081360Y024562D01*
X081360Y024720D02*
X080855Y024720D01*
X080826Y025037D02*
X081360Y025037D01*
X081360Y024879D02*
X074691Y024879D01*
X074691Y024775D02*
X074313Y024775D01*
X074313Y024416D01*
X074534Y024416D01*
X074580Y024429D01*
X074621Y024452D01*
X074655Y024486D01*
X074678Y024527D01*
X074691Y024573D01*
X074691Y024775D01*
X074691Y024720D02*
X079264Y024720D01*
X079120Y024562D02*
X074688Y024562D01*
X074603Y024245D02*
X079120Y024245D01*
X079120Y024403D02*
X073845Y024403D01*
X073845Y024245D02*
X073986Y024245D01*
X074276Y024245D02*
X074313Y024245D01*
X074313Y024086D02*
X074276Y024086D01*
X074276Y023928D02*
X074313Y023928D01*
X074313Y023769D02*
X074276Y023769D01*
X074276Y023611D02*
X074313Y023611D01*
X074585Y022970D02*
X074446Y022912D01*
X074341Y022806D01*
X074283Y022668D01*
X074283Y022518D01*
X074341Y022380D01*
X074446Y022274D01*
X074585Y022217D01*
X074734Y022217D01*
X074873Y022274D01*
X074978Y022380D01*
X075036Y022518D01*
X075036Y022668D01*
X074978Y022806D01*
X074873Y022912D01*
X074734Y022970D01*
X074585Y022970D01*
X074352Y022818D02*
X073967Y022818D01*
X074036Y022660D02*
X074283Y022660D01*
X074290Y022501D02*
X074029Y022501D01*
X073941Y022343D02*
X074378Y022343D01*
X074941Y022343D02*
X075378Y022343D01*
X075341Y022380D02*
X075446Y022274D01*
X075585Y022217D01*
X075734Y022217D01*
X075873Y022274D01*
X075978Y022380D01*
X076036Y022518D01*
X076036Y022668D01*
X075978Y022806D01*
X075873Y022912D01*
X075734Y022970D01*
X075585Y022970D01*
X075446Y022912D01*
X075341Y022806D01*
X075283Y022668D01*
X075283Y022518D01*
X075341Y022380D01*
X075290Y022501D02*
X075029Y022501D01*
X075036Y022660D02*
X075283Y022660D01*
X075352Y022818D02*
X074967Y022818D01*
X075967Y022818D02*
X076352Y022818D01*
X076341Y022806D02*
X076283Y022668D01*
X076283Y022518D01*
X076341Y022380D01*
X076446Y022274D01*
X076585Y022217D01*
X076734Y022217D01*
X076873Y022274D01*
X076978Y022380D01*
X077036Y022518D01*
X077036Y022668D01*
X076978Y022806D01*
X076873Y022912D01*
X076734Y022970D01*
X076585Y022970D01*
X076446Y022912D01*
X076341Y022806D01*
X076283Y022660D02*
X076036Y022660D01*
X076029Y022501D02*
X076290Y022501D01*
X076378Y022343D02*
X075941Y022343D01*
X076941Y022343D02*
X081360Y022343D01*
X081360Y022501D02*
X077029Y022501D01*
X077036Y022660D02*
X081360Y022660D01*
X081360Y022818D02*
X076967Y022818D01*
X074313Y024562D02*
X074276Y024562D01*
X074276Y024720D02*
X074313Y024720D01*
X074313Y024879D02*
X074276Y024879D01*
X074276Y025037D02*
X074313Y025037D01*
X074684Y025037D02*
X079293Y025037D01*
X079374Y025830D02*
X074973Y025830D01*
X075040Y025988D02*
X079342Y025988D01*
X079184Y026147D02*
X075040Y026147D01*
X075040Y026305D02*
X079120Y026305D01*
X079120Y026464D02*
X075040Y026464D01*
X075034Y026622D02*
X079166Y026622D01*
X080777Y025988D02*
X081360Y025988D01*
X081360Y025830D02*
X080745Y025830D01*
X080904Y025671D02*
X081360Y025671D01*
X081360Y025513D02*
X081000Y025513D01*
X081000Y025354D02*
X081360Y025354D01*
X081360Y025196D02*
X080984Y025196D01*
X080935Y026147D02*
X081360Y026147D01*
X081360Y026305D02*
X081000Y026305D01*
X081000Y026464D02*
X081360Y026464D01*
X081360Y026622D02*
X080953Y026622D01*
X080837Y028049D02*
X081360Y028049D01*
X081360Y028207D02*
X080996Y028207D01*
X081000Y028366D02*
X081360Y028366D01*
X081360Y028524D02*
X081000Y028524D01*
X080892Y028683D02*
X081360Y028683D01*
X081360Y028841D02*
X076319Y028841D01*
X075830Y029475D02*
X075040Y029475D01*
X075040Y029609D02*
X074982Y029749D01*
X074875Y029855D01*
X074735Y029913D01*
X074584Y029913D01*
X074444Y029855D01*
X074337Y029749D01*
X074280Y029609D01*
X074280Y028978D01*
X074337Y028838D01*
X074444Y028731D01*
X074584Y028673D01*
X074735Y028673D01*
X074875Y028731D01*
X074982Y028838D01*
X075040Y028978D01*
X075040Y029609D01*
X075029Y029634D02*
X075989Y029634D01*
X076147Y029792D02*
X074938Y029792D01*
X075040Y029317D02*
X075672Y029317D01*
X075513Y029158D02*
X075040Y029158D01*
X075040Y029000D02*
X075355Y029000D01*
X075196Y028841D02*
X074983Y028841D01*
X075038Y028683D02*
X074758Y028683D01*
X074561Y028683D02*
X073758Y028683D01*
X073735Y028673D02*
X073875Y028731D01*
X073982Y028838D01*
X074040Y028978D01*
X074040Y029609D01*
X073982Y029749D01*
X073875Y029855D01*
X073735Y029913D01*
X073584Y029913D01*
X073444Y029855D01*
X073337Y029749D01*
X073280Y029609D01*
X073280Y028978D01*
X073337Y028838D01*
X073444Y028731D01*
X073584Y028673D01*
X073735Y028673D01*
X073561Y028683D02*
X072758Y028683D01*
X072735Y028673D02*
X072875Y028731D01*
X072982Y028838D01*
X073040Y028978D01*
X073040Y029609D01*
X072982Y029749D01*
X072875Y029855D01*
X072735Y029913D01*
X072584Y029913D01*
X072444Y029855D01*
X072337Y029749D01*
X072280Y029609D01*
X072280Y028978D01*
X072337Y028838D01*
X072444Y028731D01*
X072584Y028673D01*
X072735Y028673D01*
X072561Y028683D02*
X071758Y028683D01*
X071735Y028673D02*
X071875Y028731D01*
X071982Y028838D01*
X072040Y028978D01*
X072040Y029609D01*
X071982Y029749D01*
X071875Y029855D01*
X071735Y029913D01*
X071584Y029913D01*
X071444Y029855D01*
X071337Y029749D01*
X071280Y029609D01*
X071280Y028978D01*
X071337Y028838D01*
X071444Y028731D01*
X071584Y028673D01*
X071735Y028673D01*
X071561Y028683D02*
X070758Y028683D01*
X070735Y028673D02*
X070875Y028731D01*
X070982Y028838D01*
X071040Y028978D01*
X071040Y029609D01*
X070982Y029749D01*
X070875Y029855D01*
X070735Y029913D01*
X070584Y029913D01*
X070444Y029855D01*
X070337Y029749D01*
X070280Y029609D01*
X070280Y028978D01*
X070337Y028838D01*
X070444Y028731D01*
X070584Y028673D01*
X070735Y028673D01*
X070561Y028683D02*
X069758Y028683D01*
X069735Y028673D02*
X069875Y028731D01*
X069982Y028838D01*
X070040Y028978D01*
X070040Y029609D01*
X069982Y029749D01*
X069875Y029855D01*
X069735Y029913D01*
X069584Y029913D01*
X069444Y029855D01*
X069337Y029749D01*
X069280Y029609D01*
X069280Y028978D01*
X069337Y028838D01*
X069444Y028731D01*
X069584Y028673D01*
X069735Y028673D01*
X069561Y028683D02*
X068858Y028683D01*
X068880Y028694D02*
X068933Y028733D01*
X068980Y028780D01*
X069019Y028833D01*
X069049Y028892D01*
X069069Y028955D01*
X069080Y029020D01*
X069080Y029293D01*
X068660Y029293D01*
X068660Y029293D01*
X068660Y028633D01*
X068693Y028633D01*
X068758Y028644D01*
X068821Y028664D01*
X068880Y028694D01*
X069023Y028841D02*
X069336Y028841D01*
X069280Y029000D02*
X069076Y029000D01*
X069080Y029158D02*
X069280Y029158D01*
X069280Y029317D02*
X069080Y029317D01*
X069080Y029293D02*
X069080Y029566D01*
X069069Y029632D01*
X069049Y029695D01*
X069019Y029753D01*
X068980Y029807D01*
X068933Y029854D01*
X068880Y029893D01*
X068821Y029923D01*
X068758Y029943D01*
X068693Y029953D01*
X068660Y029953D01*
X068660Y029293D01*
X068660Y029293D01*
X069080Y029293D01*
X069080Y029475D02*
X069280Y029475D01*
X069290Y029634D02*
X069068Y029634D01*
X068990Y029792D02*
X069381Y029792D01*
X069938Y029792D02*
X070381Y029792D01*
X070290Y029634D02*
X070029Y029634D01*
X070040Y029475D02*
X070280Y029475D01*
X070280Y029317D02*
X070040Y029317D01*
X070040Y029158D02*
X070280Y029158D01*
X070280Y029000D02*
X070040Y029000D01*
X069983Y028841D02*
X070336Y028841D01*
X070579Y028524D02*
X064000Y028524D01*
X064000Y028576D02*
X063742Y028833D01*
X063377Y028833D01*
X063120Y028576D01*
X063120Y028211D01*
X063377Y027953D01*
X063742Y027953D01*
X064000Y028211D01*
X064000Y028576D01*
X063892Y028683D02*
X068461Y028683D01*
X068439Y028694D02*
X068498Y028664D01*
X068561Y028644D01*
X068626Y028633D01*
X068660Y028633D01*
X068660Y029293D01*
X068660Y029293D01*
X068240Y029293D01*
X068240Y029020D01*
X068250Y028955D01*
X068270Y028892D01*
X068300Y028833D01*
X068339Y028780D01*
X068386Y028733D01*
X068439Y028694D01*
X068296Y028841D02*
X061760Y028841D01*
X061760Y028683D02*
X062227Y028683D01*
X062120Y028576D02*
X062120Y028211D01*
X062377Y027953D01*
X062742Y027953D01*
X063000Y028211D01*
X063000Y028576D01*
X062742Y028833D01*
X062377Y028833D01*
X062120Y028576D01*
X062120Y028524D02*
X061760Y028524D01*
X061760Y028366D02*
X062120Y028366D01*
X062123Y028207D02*
X061760Y028207D01*
X061760Y028049D02*
X062282Y028049D01*
X062377Y027833D02*
X062120Y027576D01*
X062120Y027211D01*
X062377Y026953D01*
X062742Y026953D01*
X063000Y027211D01*
X063000Y027576D01*
X062742Y027833D01*
X062377Y027833D01*
X062276Y027732D02*
X061760Y027732D01*
X061760Y027890D02*
X069945Y027890D01*
X069787Y027732D02*
X063843Y027732D01*
X063742Y027833D02*
X063377Y027833D01*
X063120Y027576D01*
X063120Y027211D01*
X063377Y026953D01*
X063742Y026953D01*
X064000Y027211D01*
X064000Y027576D01*
X063742Y027833D01*
X063837Y028049D02*
X070104Y028049D01*
X070262Y028207D02*
X063996Y028207D01*
X064000Y028366D02*
X070421Y028366D01*
X070760Y028393D02*
X068660Y026293D01*
X069040Y026305D02*
X069280Y026305D01*
X069280Y026147D02*
X069040Y026147D01*
X069040Y025988D02*
X069280Y025988D01*
X069346Y025830D02*
X068973Y025830D01*
X069460Y025671D02*
X067270Y025671D01*
X067270Y025695D02*
X067192Y025882D01*
X067048Y026026D01*
X066861Y026103D01*
X066658Y026103D01*
X066589Y026075D01*
X066485Y026179D01*
X066296Y026179D01*
X066296Y026233D01*
X066264Y026266D01*
X066267Y026267D01*
X066300Y026301D01*
X066324Y026342D01*
X066336Y026388D01*
X066336Y026610D01*
X065978Y026610D01*
X065978Y026646D01*
X066336Y026646D01*
X066336Y026868D01*
X066324Y026914D01*
X066300Y026955D01*
X066267Y026989D01*
X066226Y027012D01*
X066180Y027024D01*
X065978Y027024D01*
X065978Y026646D01*
X065941Y026646D01*
X065941Y026610D01*
X065583Y026610D01*
X065583Y026388D01*
X065595Y026342D01*
X065619Y026301D01*
X065652Y026267D01*
X065655Y026266D01*
X065623Y026233D01*
X065623Y026159D01*
X064042Y026159D01*
X063717Y025833D01*
X063377Y025833D01*
X063120Y025576D01*
X063120Y025211D01*
X063377Y024953D01*
X063742Y024953D01*
X064000Y025211D01*
X064000Y025550D01*
X064208Y025759D01*
X065623Y025759D01*
X065623Y025684D01*
X065705Y025602D01*
X066214Y025602D01*
X066250Y025637D01*
X066250Y025492D01*
X066327Y025304D01*
X066471Y025161D01*
X066634Y025093D01*
X066471Y025026D01*
X066327Y024882D01*
X066250Y024695D01*
X066250Y024492D01*
X066327Y024304D01*
X066471Y024161D01*
X066634Y024093D01*
X066471Y024026D01*
X066327Y023882D01*
X066299Y023813D01*
X066251Y023813D01*
X066180Y023884D01*
X066051Y024013D01*
X065586Y024013D01*
X065514Y024084D01*
X065005Y024084D01*
X064923Y024002D01*
X064923Y023453D01*
X064983Y023393D01*
X064923Y023333D01*
X064923Y022784D01*
X065005Y022702D01*
X065333Y022702D01*
X065642Y022393D01*
X066335Y022393D01*
X066341Y022380D01*
X066446Y022274D01*
X066585Y022217D01*
X066734Y022217D01*
X066873Y022274D01*
X066978Y022380D01*
X067036Y022518D01*
X067036Y022668D01*
X066978Y022806D01*
X066873Y022912D01*
X066734Y022970D01*
X066585Y022970D01*
X066446Y022912D01*
X066341Y022806D01*
X066335Y022793D01*
X065808Y022793D01*
X065596Y023005D01*
X065596Y023333D01*
X065536Y023393D01*
X065596Y023453D01*
X065596Y023573D01*
X065868Y023573D01*
X066068Y023373D01*
X066299Y023373D01*
X066327Y023304D01*
X066471Y023161D01*
X066658Y023083D01*
X066861Y023083D01*
X067048Y023161D01*
X067192Y023304D01*
X067270Y023492D01*
X067270Y023695D01*
X067192Y023882D01*
X067048Y024026D01*
X066885Y024093D01*
X067048Y024161D01*
X067192Y024304D01*
X067220Y024373D01*
X067803Y024373D01*
X067823Y024354D01*
X067823Y024053D01*
X067883Y023993D01*
X067823Y023933D01*
X067823Y023605D01*
X067460Y023242D01*
X067460Y022918D01*
X067446Y022912D01*
X067341Y022806D01*
X067283Y022668D01*
X067283Y022518D01*
X067341Y022380D01*
X067446Y022274D01*
X067585Y022217D01*
X067734Y022217D01*
X067873Y022274D01*
X067978Y022380D01*
X068036Y022518D01*
X068036Y022668D01*
X067978Y022806D01*
X067873Y022912D01*
X067860Y022918D01*
X067860Y023076D01*
X068086Y023302D01*
X068414Y023302D01*
X068496Y023384D01*
X068496Y023933D01*
X068436Y023993D01*
X068496Y024053D01*
X068496Y024602D01*
X068414Y024684D01*
X068114Y024684D01*
X067985Y024813D01*
X067220Y024813D01*
X067192Y024882D01*
X067048Y025026D01*
X066885Y025093D01*
X067048Y025161D01*
X067192Y025304D01*
X067270Y025492D01*
X067270Y025695D01*
X067214Y025830D02*
X068346Y025830D01*
X068280Y025988D02*
X067086Y025988D01*
X067270Y025513D02*
X069460Y025513D01*
X069460Y025354D02*
X067213Y025354D01*
X067083Y025196D02*
X069460Y025196D01*
X069460Y025037D02*
X067020Y025037D01*
X067193Y024879D02*
X069460Y024879D01*
X069460Y024720D02*
X068078Y024720D01*
X067894Y024593D02*
X068160Y024328D01*
X068496Y024403D02*
X069460Y024403D01*
X069460Y024245D02*
X068496Y024245D01*
X068496Y024086D02*
X069460Y024086D01*
X069460Y023928D02*
X068496Y023928D01*
X068496Y023769D02*
X069353Y023769D01*
X069194Y023611D02*
X068496Y023611D01*
X068496Y023452D02*
X069036Y023452D01*
X068960Y023294D02*
X068078Y023294D01*
X067919Y023135D02*
X068960Y023135D01*
X068960Y022977D02*
X067860Y022977D01*
X067967Y022818D02*
X068352Y022818D01*
X068283Y022660D02*
X068036Y022660D01*
X068029Y022501D02*
X068290Y022501D01*
X068378Y022343D02*
X067941Y022343D01*
X067378Y022343D02*
X066941Y022343D01*
X067029Y022501D02*
X067290Y022501D01*
X067283Y022660D02*
X067036Y022660D01*
X066967Y022818D02*
X067352Y022818D01*
X067460Y022977D02*
X065624Y022977D01*
X065596Y023135D02*
X066532Y023135D01*
X066338Y023294D02*
X065596Y023294D01*
X065595Y023452D02*
X065989Y023452D01*
X066160Y023593D02*
X065960Y023793D01*
X065325Y023793D01*
X065260Y023728D01*
X064923Y023769D02*
X063806Y023769D01*
X063742Y023833D02*
X063377Y023833D01*
X063120Y023576D01*
X063120Y023211D01*
X063377Y022953D01*
X063742Y022953D01*
X064000Y023211D01*
X064000Y023576D01*
X063742Y023833D01*
X063742Y023953D02*
X064000Y024211D01*
X064000Y024576D01*
X063742Y024833D01*
X063377Y024833D01*
X063120Y024576D01*
X063120Y024211D01*
X063377Y023953D01*
X063742Y023953D01*
X063875Y024086D02*
X066617Y024086D01*
X066387Y024245D02*
X064000Y024245D01*
X064000Y024403D02*
X066286Y024403D01*
X066250Y024562D02*
X064000Y024562D01*
X063855Y024720D02*
X066260Y024720D01*
X066326Y024879D02*
X061760Y024879D01*
X061760Y025037D02*
X062293Y025037D01*
X062377Y024953D02*
X062742Y024953D01*
X063000Y025211D01*
X063000Y025576D01*
X062742Y025833D01*
X062377Y025833D01*
X062120Y025576D01*
X062120Y025211D01*
X062377Y024953D01*
X062377Y024833D02*
X062120Y024576D01*
X062120Y024211D01*
X062377Y023953D01*
X062742Y023953D01*
X063000Y024211D01*
X063000Y024576D01*
X062742Y024833D01*
X062377Y024833D01*
X062264Y024720D02*
X061760Y024720D01*
X061760Y024562D02*
X062120Y024562D01*
X062120Y024403D02*
X061760Y024403D01*
X061760Y024245D02*
X062120Y024245D01*
X062244Y024086D02*
X061760Y024086D01*
X061760Y023928D02*
X064923Y023928D01*
X064923Y023611D02*
X063964Y023611D01*
X064000Y023452D02*
X064924Y023452D01*
X064923Y023294D02*
X064000Y023294D01*
X063924Y023135D02*
X064923Y023135D01*
X064923Y022977D02*
X063765Y022977D01*
X063354Y022977D02*
X062765Y022977D01*
X062742Y022953D02*
X063000Y023211D01*
X063000Y023576D01*
X062742Y023833D01*
X062377Y023833D01*
X062120Y023576D01*
X062120Y023211D01*
X062377Y022953D01*
X062742Y022953D01*
X062924Y023135D02*
X063195Y023135D01*
X063120Y023294D02*
X063000Y023294D01*
X063000Y023452D02*
X063120Y023452D01*
X063155Y023611D02*
X062964Y023611D01*
X062806Y023769D02*
X063313Y023769D01*
X063244Y024086D02*
X062875Y024086D01*
X063000Y024245D02*
X063120Y024245D01*
X063120Y024403D02*
X063000Y024403D01*
X063000Y024562D02*
X063120Y024562D01*
X063264Y024720D02*
X062855Y024720D01*
X062826Y025037D02*
X063293Y025037D01*
X063135Y025196D02*
X062984Y025196D01*
X063000Y025354D02*
X063120Y025354D01*
X063120Y025513D02*
X063000Y025513D01*
X062904Y025671D02*
X063215Y025671D01*
X063374Y025830D02*
X062745Y025830D01*
X062742Y025953D02*
X063000Y026211D01*
X063000Y026576D01*
X062742Y026833D01*
X062377Y026833D01*
X062120Y026576D01*
X062120Y026211D01*
X062377Y025953D01*
X062742Y025953D01*
X062777Y025988D02*
X063342Y025988D01*
X063377Y025953D02*
X063742Y025953D01*
X064000Y026211D01*
X064000Y026576D01*
X063742Y026833D01*
X063377Y026833D01*
X063120Y026576D01*
X063120Y026211D01*
X063377Y025953D01*
X063184Y026147D02*
X062935Y026147D01*
X063000Y026305D02*
X063120Y026305D01*
X063120Y026464D02*
X063000Y026464D01*
X062953Y026622D02*
X063166Y026622D01*
X063325Y026781D02*
X062794Y026781D01*
X062886Y027098D02*
X063233Y027098D01*
X063120Y027256D02*
X063000Y027256D01*
X063000Y027415D02*
X063120Y027415D01*
X063120Y027573D02*
X063000Y027573D01*
X062843Y027732D02*
X063276Y027732D01*
X063282Y028049D02*
X062837Y028049D01*
X062996Y028207D02*
X063123Y028207D01*
X063120Y028366D02*
X063000Y028366D01*
X063000Y028524D02*
X063120Y028524D01*
X063227Y028683D02*
X062892Y028683D01*
X062742Y028953D02*
X063000Y029211D01*
X063000Y029576D01*
X062742Y029833D01*
X062377Y029833D01*
X062120Y029576D01*
X062120Y029211D01*
X062377Y028953D01*
X062742Y028953D01*
X062788Y029000D02*
X063331Y029000D01*
X063377Y028953D02*
X063742Y028953D01*
X064000Y029211D01*
X064000Y029576D01*
X063742Y029833D01*
X063377Y029833D01*
X063120Y029576D01*
X063120Y029211D01*
X063377Y028953D01*
X063172Y029158D02*
X062947Y029158D01*
X063000Y029317D02*
X063120Y029317D01*
X063120Y029475D02*
X063000Y029475D01*
X062941Y029634D02*
X063178Y029634D01*
X063336Y029792D02*
X062783Y029792D01*
X062742Y029953D02*
X063000Y030211D01*
X063000Y030576D01*
X062742Y030833D01*
X062377Y030833D01*
X062120Y030576D01*
X062120Y030211D01*
X062377Y029953D01*
X062742Y029953D01*
X062898Y030109D02*
X063221Y030109D01*
X063120Y030268D02*
X063000Y030268D01*
X063000Y030426D02*
X063120Y030426D01*
X063129Y030585D02*
X062990Y030585D01*
X062832Y030743D02*
X063287Y030743D01*
X063270Y031060D02*
X062849Y031060D01*
X063000Y031219D02*
X063120Y031219D01*
X063120Y031377D02*
X063000Y031377D01*
X063000Y031536D02*
X063120Y031536D01*
X063238Y031694D02*
X062881Y031694D01*
X062856Y032011D02*
X063319Y032011D01*
X063161Y032170D02*
X063015Y032170D01*
X063040Y032328D02*
X063120Y032328D01*
X063120Y032487D02*
X063040Y032487D01*
X062986Y032645D02*
X063189Y032645D01*
X063348Y032804D02*
X062828Y032804D01*
X062287Y030743D02*
X061760Y030743D01*
X061760Y030585D02*
X062129Y030585D01*
X062120Y030426D02*
X061760Y030426D01*
X061760Y030268D02*
X062120Y030268D01*
X062221Y030109D02*
X061760Y030109D01*
X061760Y029951D02*
X068611Y029951D01*
X068626Y029953D02*
X068561Y029943D01*
X068498Y029923D01*
X068439Y029893D01*
X068386Y029854D01*
X068339Y029807D01*
X068300Y029753D01*
X068270Y029695D01*
X068250Y029632D01*
X068240Y029566D01*
X068240Y029293D01*
X068660Y029293D01*
X068660Y029293D01*
X068660Y029953D01*
X068626Y029953D01*
X068660Y029951D02*
X068660Y029951D01*
X068708Y029951D02*
X076306Y029951D01*
X076464Y030109D02*
X063898Y030109D01*
X064000Y030268D02*
X076623Y030268D01*
X076781Y030426D02*
X064000Y030426D01*
X063990Y030585D02*
X076940Y030585D01*
X077060Y030393D02*
X075060Y028393D01*
X070760Y028393D01*
X070983Y028841D02*
X071336Y028841D01*
X071280Y029000D02*
X071040Y029000D01*
X071040Y029158D02*
X071280Y029158D01*
X071280Y029317D02*
X071040Y029317D01*
X071040Y029475D02*
X071280Y029475D01*
X071290Y029634D02*
X071029Y029634D01*
X070938Y029792D02*
X071381Y029792D01*
X071938Y029792D02*
X072381Y029792D01*
X072290Y029634D02*
X072029Y029634D01*
X072040Y029475D02*
X072280Y029475D01*
X072280Y029317D02*
X072040Y029317D01*
X072040Y029158D02*
X072280Y029158D01*
X072280Y029000D02*
X072040Y029000D01*
X071983Y028841D02*
X072336Y028841D01*
X072983Y028841D02*
X073336Y028841D01*
X073280Y029000D02*
X073040Y029000D01*
X073040Y029158D02*
X073280Y029158D01*
X073280Y029317D02*
X073040Y029317D01*
X073040Y029475D02*
X073280Y029475D01*
X073290Y029634D02*
X073029Y029634D01*
X072938Y029792D02*
X073381Y029792D01*
X073938Y029792D02*
X074381Y029792D01*
X074290Y029634D02*
X074029Y029634D01*
X074040Y029475D02*
X074280Y029475D01*
X074280Y029317D02*
X074040Y029317D01*
X074040Y029158D02*
X074280Y029158D01*
X074280Y029000D02*
X074040Y029000D01*
X073983Y028841D02*
X074336Y028841D01*
X077060Y030393D02*
X079560Y030393D01*
X080000Y030426D02*
X080120Y030426D01*
X080120Y030268D02*
X080000Y030268D01*
X079898Y030109D02*
X080221Y030109D01*
X080336Y029792D02*
X079783Y029792D01*
X079941Y029634D02*
X080178Y029634D01*
X080120Y029475D02*
X080000Y029475D01*
X080000Y029317D02*
X080120Y029317D01*
X080172Y029158D02*
X079947Y029158D01*
X080788Y029000D02*
X081360Y029000D01*
X081360Y029158D02*
X080947Y029158D01*
X081000Y029317D02*
X081360Y029317D01*
X081360Y029475D02*
X081000Y029475D01*
X080941Y029634D02*
X081360Y029634D01*
X081360Y029792D02*
X080783Y029792D01*
X080129Y030585D02*
X079990Y030585D01*
X072370Y026781D02*
X071949Y026781D01*
X072034Y026622D02*
X072285Y026622D01*
X072280Y026464D02*
X072040Y026464D01*
X072040Y026305D02*
X072280Y026305D01*
X072280Y026147D02*
X072040Y026147D01*
X072040Y025988D02*
X072280Y025988D01*
X072346Y025830D02*
X071973Y025830D01*
X071230Y026147D02*
X071040Y026147D01*
X071040Y026305D02*
X071280Y026305D01*
X071280Y026464D02*
X071040Y026464D01*
X071034Y026622D02*
X071285Y026622D01*
X071370Y026781D02*
X070949Y026781D01*
X070370Y026781D02*
X069949Y026781D01*
X070034Y026622D02*
X070285Y026622D01*
X070280Y026464D02*
X070040Y026464D01*
X070040Y026305D02*
X070280Y026305D01*
X070280Y026147D02*
X070040Y026147D01*
X070040Y025988D02*
X070280Y025988D01*
X070346Y025830D02*
X069973Y025830D01*
X069860Y025671D02*
X070755Y025671D01*
X070596Y025513D02*
X069860Y025513D01*
X069860Y025354D02*
X070438Y025354D01*
X070279Y025196D02*
X069860Y025196D01*
X069860Y025037D02*
X070121Y025037D01*
X069962Y024879D02*
X069860Y024879D01*
X069860Y024720D02*
X069960Y024720D01*
X069960Y024562D02*
X069860Y024562D01*
X069860Y024403D02*
X069960Y024403D01*
X069960Y024245D02*
X069860Y024245D01*
X069860Y024086D02*
X069960Y024086D01*
X069960Y023928D02*
X069860Y023928D01*
X069860Y023769D02*
X069960Y023769D01*
X069960Y023611D02*
X069760Y023611D01*
X069601Y023452D02*
X069960Y023452D01*
X069960Y023294D02*
X069443Y023294D01*
X069360Y023135D02*
X069960Y023135D01*
X069960Y022977D02*
X069360Y022977D01*
X070967Y022818D02*
X071352Y022818D01*
X071283Y022660D02*
X071036Y022660D01*
X071029Y022501D02*
X071290Y022501D01*
X071378Y022343D02*
X070941Y022343D01*
X072460Y023294D02*
X073351Y023294D01*
X073392Y023452D02*
X072460Y023452D01*
X072460Y023611D02*
X073296Y023611D01*
X073268Y023769D02*
X072460Y023769D01*
X069460Y024562D02*
X068496Y024562D01*
X067894Y024593D02*
X066760Y024593D01*
X067132Y024245D02*
X067823Y024245D01*
X067823Y024086D02*
X066902Y024086D01*
X067146Y023928D02*
X067823Y023928D01*
X067823Y023769D02*
X067239Y023769D01*
X067270Y023611D02*
X067823Y023611D01*
X067670Y023452D02*
X067253Y023452D01*
X067181Y023294D02*
X067512Y023294D01*
X067460Y023135D02*
X066987Y023135D01*
X066760Y023593D02*
X066160Y023593D01*
X066136Y023928D02*
X066373Y023928D01*
X066499Y025037D02*
X063826Y025037D01*
X063984Y025196D02*
X066436Y025196D01*
X066306Y025354D02*
X064000Y025354D01*
X064000Y025513D02*
X066250Y025513D01*
X066394Y025959D02*
X066760Y025593D01*
X066394Y025959D02*
X065960Y025959D01*
X065635Y025671D02*
X064120Y025671D01*
X063872Y025988D02*
X063777Y025988D01*
X063935Y026147D02*
X064030Y026147D01*
X064000Y026305D02*
X065616Y026305D01*
X065583Y026464D02*
X064000Y026464D01*
X063953Y026622D02*
X065941Y026622D01*
X065941Y026646D02*
X065583Y026646D01*
X065583Y026868D01*
X065595Y026914D01*
X065619Y026955D01*
X065652Y026989D01*
X065693Y027012D01*
X065739Y027024D01*
X065941Y027024D01*
X065941Y026646D01*
X065978Y026622D02*
X068285Y026622D01*
X068280Y026464D02*
X066336Y026464D01*
X066303Y026305D02*
X068280Y026305D01*
X068280Y026147D02*
X066517Y026147D01*
X066336Y026781D02*
X068370Y026781D01*
X068994Y026939D02*
X066309Y026939D01*
X065978Y026939D02*
X065941Y026939D01*
X065941Y026781D02*
X065978Y026781D01*
X065583Y026781D02*
X063794Y026781D01*
X063886Y027098D02*
X069153Y027098D01*
X069311Y027256D02*
X064000Y027256D01*
X064000Y027415D02*
X069470Y027415D01*
X069628Y027573D02*
X064000Y027573D01*
X065610Y026939D02*
X061760Y026939D01*
X061760Y026781D02*
X062325Y026781D01*
X062166Y026622D02*
X061760Y026622D01*
X061760Y026464D02*
X062120Y026464D01*
X062120Y026305D02*
X061760Y026305D01*
X061760Y026147D02*
X062184Y026147D01*
X062342Y025988D02*
X061760Y025988D01*
X061760Y025830D02*
X062374Y025830D01*
X062215Y025671D02*
X061760Y025671D01*
X061760Y025513D02*
X062120Y025513D01*
X062120Y025354D02*
X061760Y025354D01*
X061760Y025196D02*
X062135Y025196D01*
X063560Y025393D02*
X063594Y025359D01*
X062313Y023769D02*
X061760Y023769D01*
X061760Y023611D02*
X062155Y023611D01*
X062120Y023452D02*
X061760Y023452D01*
X061760Y023294D02*
X062120Y023294D01*
X062195Y023135D02*
X061760Y023135D01*
X061760Y022977D02*
X062354Y022977D01*
X061760Y022818D02*
X064923Y022818D01*
X065376Y022660D02*
X061760Y022660D01*
X061760Y022501D02*
X065534Y022501D01*
X065783Y022818D02*
X066352Y022818D01*
X066378Y022343D02*
X061760Y022343D01*
X069141Y026464D02*
X069280Y026464D01*
X071040Y025988D02*
X071072Y025988D01*
X068660Y028683D02*
X068660Y028683D01*
X068660Y028841D02*
X068660Y028841D01*
X068660Y029000D02*
X068660Y029000D01*
X068660Y029158D02*
X068660Y029158D01*
X068660Y029317D02*
X068660Y029317D01*
X068660Y029475D02*
X068660Y029475D01*
X068660Y029634D02*
X068660Y029634D01*
X068660Y029792D02*
X068660Y029792D01*
X068329Y029792D02*
X063783Y029792D01*
X063941Y029634D02*
X068251Y029634D01*
X068240Y029475D02*
X064000Y029475D01*
X064000Y029317D02*
X068240Y029317D01*
X068240Y029158D02*
X063947Y029158D01*
X063788Y029000D02*
X068243Y029000D01*
X062331Y029000D02*
X061760Y029000D01*
X061760Y029158D02*
X062172Y029158D01*
X062120Y029317D02*
X061760Y029317D01*
X061760Y029475D02*
X062120Y029475D01*
X062178Y029634D02*
X061760Y029634D01*
X061760Y029792D02*
X062336Y029792D01*
X062120Y027573D02*
X061760Y027573D01*
X061760Y027415D02*
X062120Y027415D01*
X062120Y027256D02*
X061760Y027256D01*
X061760Y027098D02*
X062233Y027098D01*
X070150Y034083D02*
X070150Y034093D01*
X080806Y023769D02*
X081360Y023769D01*
X081360Y023611D02*
X080964Y023611D01*
X081000Y023452D02*
X081360Y023452D01*
X081360Y023294D02*
X081000Y023294D01*
X080924Y023135D02*
X081360Y023135D01*
X081360Y022977D02*
X080765Y022977D01*
X076390Y018856D02*
X075929Y018856D01*
X076024Y018697D02*
X076295Y018697D01*
X076283Y018539D02*
X076036Y018539D01*
X075979Y018380D02*
X076341Y018380D01*
X075341Y018380D02*
X074979Y018380D01*
X075036Y018539D02*
X075283Y018539D01*
X075295Y018697D02*
X075024Y018697D01*
X074929Y018856D02*
X075390Y018856D01*
X074390Y018856D02*
X073929Y018856D01*
X074024Y018697D02*
X074295Y018697D01*
X074283Y018539D02*
X074036Y018539D01*
X073979Y018380D02*
X074341Y018380D01*
X073341Y018380D02*
X072979Y018380D01*
X073036Y018539D02*
X073283Y018539D01*
X073295Y018697D02*
X073024Y018697D01*
X072929Y018856D02*
X073390Y018856D01*
X072390Y018856D02*
X071929Y018856D01*
X072024Y018697D02*
X072295Y018697D01*
X072283Y018539D02*
X072036Y018539D01*
X071979Y018380D02*
X072341Y018380D01*
D18*
X073660Y023293D03*
D19*
X072260Y024493D02*
X072260Y020193D01*
X070660Y018593D01*
X069660Y018593D02*
X069660Y021693D01*
X070160Y022193D01*
X070160Y024793D01*
X071660Y026293D01*
X069660Y026293D02*
X069660Y023793D01*
X069160Y023293D01*
X069160Y019093D01*
X068660Y018593D01*
X067660Y022593D02*
X067660Y023159D01*
X068160Y023659D01*
X066660Y022593D02*
X065725Y022593D01*
X065260Y023059D01*
X063560Y025393D02*
X064125Y025959D01*
X065960Y025959D01*
X072260Y024493D02*
X073660Y025893D01*
X073660Y026293D01*
M02*
