G75*
%MOIN*%
%OFA0B0*%
%FSLAX24Y24*%
%IPPOS*%
%LPD*%
%AMOC8*
5,1,8,0,0,1.08239X$1,22.5*
%
%ADD10OC8,0.0600*%
%ADD11C,0.0740*%
%ADD12C,0.0480*%
%ADD13C,0.0472*%
%ADD14C,0.0600*%
%ADD15C,0.0160*%
%ADD16C,0.0337*%
D10*
X062560Y023393D03*
X063560Y023393D03*
X063560Y024393D03*
X062560Y024393D03*
X062560Y025393D03*
X063560Y025393D03*
X063560Y026393D03*
X062560Y026393D03*
X062560Y027393D03*
X063560Y027393D03*
X063560Y028393D03*
X062560Y028393D03*
X062560Y029393D03*
X063560Y029393D03*
X063560Y030393D03*
X062560Y030393D03*
X062560Y031393D03*
X063560Y031393D03*
X063560Y032393D03*
X062560Y032393D03*
X079560Y032393D03*
X080560Y032393D03*
X080560Y031393D03*
X079560Y031393D03*
X079560Y030393D03*
X080560Y030393D03*
X080560Y029393D03*
X079560Y029393D03*
X079560Y028393D03*
X080560Y028393D03*
X080560Y027393D03*
X079560Y027393D03*
X079560Y026393D03*
X080560Y026393D03*
X080560Y025393D03*
X079560Y025393D03*
X079560Y024393D03*
X080560Y024393D03*
X080560Y023393D03*
X079560Y023393D03*
D11*
X066760Y023593D03*
X066760Y024593D03*
X066760Y025593D03*
D12*
X068660Y026053D02*
X068660Y026533D01*
X069660Y026533D02*
X069660Y026053D01*
X070660Y026053D02*
X070660Y026533D01*
X071660Y026533D02*
X071660Y026053D01*
X072660Y026053D02*
X072660Y026533D01*
X073660Y026533D02*
X073660Y026053D01*
X074660Y026053D02*
X074660Y026533D01*
X074660Y029053D02*
X074660Y029533D01*
X073660Y029533D02*
X073660Y029053D01*
X072660Y029053D02*
X072660Y029533D01*
X071660Y029533D02*
X071660Y029053D01*
X070660Y029053D02*
X070660Y029533D01*
X069660Y029533D02*
X069660Y029053D01*
X068660Y029053D02*
X068660Y029533D01*
D13*
X068660Y022593D03*
X069660Y022593D03*
X070660Y022593D03*
X071660Y022593D03*
X072660Y022593D03*
X073660Y022593D03*
X074660Y022593D03*
X075660Y022593D03*
X076660Y022593D03*
X076660Y018593D03*
X075660Y018593D03*
X074660Y018593D03*
X073660Y018593D03*
X072660Y018593D03*
X071660Y018593D03*
X070660Y018593D03*
X069660Y018593D03*
X068660Y018593D03*
X067660Y018593D03*
X066660Y018593D03*
X066660Y022593D03*
X067660Y022593D03*
D14*
X067790Y034093D03*
X068970Y034093D03*
X070150Y034093D03*
X066610Y034093D03*
D15*
X061760Y036793D02*
X061760Y018123D01*
X081360Y018123D01*
X081360Y036793D01*
X061760Y036793D01*
X061760Y036766D02*
X081360Y036766D01*
X081360Y036608D02*
X068556Y036608D01*
X068543Y036613D02*
X068216Y036613D01*
X067915Y036488D01*
X067684Y036258D01*
X067560Y035956D01*
X067560Y035630D01*
X067684Y035329D01*
X067915Y035098D01*
X068216Y034973D01*
X068543Y034973D01*
X068844Y035098D01*
X069075Y035329D01*
X069200Y035630D01*
X069200Y035956D01*
X069075Y036258D01*
X068844Y036488D01*
X068543Y036613D01*
X068203Y036608D02*
X061760Y036608D01*
X061760Y036449D02*
X067876Y036449D01*
X067717Y036291D02*
X061760Y036291D01*
X061760Y036132D02*
X067632Y036132D01*
X067567Y035974D02*
X061760Y035974D01*
X061760Y035815D02*
X067560Y035815D01*
X067560Y035657D02*
X061760Y035657D01*
X061760Y035498D02*
X067614Y035498D01*
X067680Y035340D02*
X061760Y035340D01*
X061760Y035181D02*
X067832Y035181D01*
X068097Y035023D02*
X061760Y035023D01*
X061760Y034864D02*
X081360Y034864D01*
X081360Y034706D02*
X061760Y034706D01*
X061760Y034547D02*
X067634Y034547D01*
X067605Y034538D02*
X067538Y034504D01*
X067477Y034459D01*
X067423Y034406D01*
X067379Y034345D01*
X067345Y034278D01*
X067321Y034206D01*
X067310Y034131D01*
X067310Y034113D01*
X067770Y034113D01*
X067770Y034573D01*
X067752Y034573D01*
X067677Y034561D01*
X067605Y034538D01*
X067770Y034547D02*
X067810Y034547D01*
X067810Y034573D02*
X067827Y034573D01*
X067902Y034561D01*
X067974Y034538D01*
X068041Y034504D01*
X068102Y034459D01*
X068156Y034406D01*
X068200Y034345D01*
X068234Y034278D01*
X068258Y034206D01*
X068270Y034131D01*
X068270Y034113D01*
X067810Y034113D01*
X067810Y034073D01*
X068270Y034073D01*
X068270Y034056D01*
X068258Y033981D01*
X068234Y033909D01*
X068200Y033842D01*
X068156Y033781D01*
X068102Y033727D01*
X068041Y033683D01*
X067974Y033648D01*
X067902Y033625D01*
X067827Y033613D01*
X067810Y033613D01*
X067810Y034073D01*
X067770Y034073D01*
X067770Y033613D01*
X067752Y033613D01*
X067677Y033625D01*
X067605Y033648D01*
X067538Y033683D01*
X067477Y033727D01*
X067423Y033781D01*
X067379Y033842D01*
X067345Y033909D01*
X067321Y033981D01*
X067310Y034056D01*
X067310Y034073D01*
X067770Y034073D01*
X067770Y034113D01*
X067810Y034113D01*
X067810Y034573D01*
X067945Y034547D02*
X081360Y034547D01*
X081360Y034389D02*
X070476Y034389D01*
X070523Y034343D02*
X070399Y034466D01*
X070237Y034533D01*
X070062Y034533D01*
X069900Y034466D01*
X069776Y034343D01*
X069710Y034181D01*
X069710Y034006D01*
X069776Y033844D01*
X069900Y033720D01*
X070062Y033653D01*
X070237Y033653D01*
X070399Y033720D01*
X070523Y033844D01*
X070590Y034006D01*
X070590Y034181D01*
X070523Y034343D01*
X070569Y034230D02*
X081360Y034230D01*
X081360Y034072D02*
X070590Y034072D01*
X070551Y033913D02*
X081360Y033913D01*
X081360Y033755D02*
X070433Y033755D01*
X069866Y033755D02*
X069253Y033755D01*
X069219Y033720D02*
X069343Y033844D01*
X069410Y034006D01*
X069410Y034181D01*
X069343Y034343D01*
X069219Y034466D01*
X069057Y034533D01*
X068882Y034533D01*
X068720Y034466D01*
X068596Y034343D01*
X068530Y034181D01*
X068530Y034006D01*
X068596Y033844D01*
X068720Y033720D01*
X068750Y033708D01*
X068750Y033594D01*
X065268Y030113D01*
X063902Y030113D01*
X064000Y030211D01*
X064000Y030576D01*
X063902Y030673D01*
X064251Y030673D01*
X064380Y030802D01*
X066830Y033252D01*
X066830Y033708D01*
X066859Y033720D01*
X066983Y033844D01*
X067050Y034006D01*
X067050Y034181D01*
X066983Y034343D01*
X066859Y034466D01*
X066697Y034533D01*
X066522Y034533D01*
X066360Y034466D01*
X066236Y034343D01*
X066170Y034181D01*
X066170Y034006D01*
X066236Y033844D01*
X066360Y033720D01*
X066390Y033708D01*
X066390Y033434D01*
X064068Y031113D01*
X063958Y031113D01*
X064040Y031194D01*
X064040Y031373D01*
X063580Y031373D01*
X063580Y031413D01*
X064040Y031413D01*
X064040Y031592D01*
X063758Y031873D01*
X063580Y031873D01*
X063580Y031413D01*
X063540Y031413D01*
X063540Y031873D01*
X063361Y031873D01*
X063080Y031592D01*
X063080Y031413D01*
X063540Y031413D01*
X063540Y031373D01*
X063080Y031373D01*
X063080Y031194D01*
X063161Y031113D01*
X062968Y031113D01*
X062688Y030833D01*
X062377Y030833D01*
X062120Y030576D01*
X062120Y030211D01*
X062377Y029953D01*
X062742Y029953D01*
X063000Y030211D01*
X063000Y030522D01*
X063151Y030673D01*
X063217Y030673D01*
X063120Y030576D01*
X063120Y030211D01*
X063217Y030113D01*
X062968Y030113D01*
X062840Y029984D01*
X062688Y029833D01*
X062377Y029833D01*
X062120Y029576D01*
X062120Y029211D01*
X062377Y028953D01*
X062742Y028953D01*
X063000Y029211D01*
X063000Y029522D01*
X063151Y029673D01*
X063217Y029673D01*
X063120Y029576D01*
X063120Y029211D01*
X063377Y028953D01*
X063742Y028953D01*
X064000Y029211D01*
X064000Y029576D01*
X063902Y029673D01*
X065451Y029673D01*
X065580Y029802D01*
X069190Y033412D01*
X069190Y033708D01*
X069219Y033720D01*
X069190Y033596D02*
X081360Y033596D01*
X081360Y033438D02*
X069190Y033438D01*
X069057Y033279D02*
X081360Y033279D01*
X081360Y033121D02*
X068898Y033121D01*
X068740Y032962D02*
X081360Y032962D01*
X081360Y032804D02*
X080828Y032804D01*
X080758Y032873D02*
X081040Y032592D01*
X081040Y032413D01*
X080580Y032413D01*
X080580Y032373D01*
X081040Y032373D01*
X081040Y032194D01*
X080758Y031913D01*
X080580Y031913D01*
X080580Y032373D01*
X080540Y032373D01*
X080540Y031913D01*
X080361Y031913D01*
X080080Y032194D01*
X080080Y032373D01*
X080540Y032373D01*
X080540Y032413D01*
X080540Y032873D01*
X080361Y032873D01*
X080080Y032592D01*
X080080Y032413D01*
X080540Y032413D01*
X080580Y032413D01*
X080580Y032873D01*
X080758Y032873D01*
X080580Y032804D02*
X080540Y032804D01*
X080540Y032645D02*
X080580Y032645D01*
X080580Y032487D02*
X080540Y032487D01*
X080540Y032328D02*
X080580Y032328D01*
X080580Y032170D02*
X080540Y032170D01*
X080540Y032011D02*
X080580Y032011D01*
X080742Y031833D02*
X080377Y031833D01*
X080120Y031576D01*
X080120Y031211D01*
X080377Y030953D01*
X080742Y030953D01*
X081000Y031211D01*
X081000Y031576D01*
X080742Y031833D01*
X080881Y031694D02*
X081360Y031694D01*
X081360Y031536D02*
X081000Y031536D01*
X081000Y031377D02*
X081360Y031377D01*
X081360Y031219D02*
X081000Y031219D01*
X080849Y031060D02*
X081360Y031060D01*
X081360Y030902D02*
X066679Y030902D01*
X066838Y031060D02*
X079270Y031060D01*
X079377Y030953D02*
X079742Y030953D01*
X080000Y031211D01*
X080000Y031576D01*
X079742Y031833D01*
X079377Y031833D01*
X079120Y031576D01*
X079120Y031211D01*
X079377Y030953D01*
X079377Y030833D02*
X079120Y030576D01*
X079120Y030211D01*
X079377Y029953D01*
X079742Y029953D01*
X080000Y030211D01*
X080000Y030576D01*
X079742Y030833D01*
X079377Y030833D01*
X079287Y030743D02*
X066521Y030743D01*
X066362Y030585D02*
X079129Y030585D01*
X079120Y030426D02*
X066204Y030426D01*
X066045Y030268D02*
X079120Y030268D01*
X079221Y030109D02*
X065887Y030109D01*
X065728Y029951D02*
X081360Y029951D01*
X081360Y030109D02*
X080898Y030109D01*
X081000Y030211D02*
X080742Y029953D01*
X080377Y029953D01*
X080120Y030211D01*
X080120Y030576D01*
X080377Y030833D01*
X080742Y030833D01*
X081000Y030576D01*
X081000Y030211D01*
X081000Y030268D02*
X081360Y030268D01*
X081360Y030426D02*
X081000Y030426D01*
X080990Y030585D02*
X081360Y030585D01*
X081360Y030743D02*
X080832Y030743D01*
X080287Y030743D02*
X079832Y030743D01*
X079990Y030585D02*
X080129Y030585D01*
X080120Y030426D02*
X080000Y030426D01*
X080000Y030268D02*
X080120Y030268D01*
X080221Y030109D02*
X079898Y030109D01*
X079742Y029833D02*
X080000Y029576D01*
X080000Y029211D01*
X079742Y028953D01*
X079377Y028953D01*
X079120Y029211D01*
X079120Y029576D01*
X079377Y029833D01*
X079742Y029833D01*
X079783Y029792D02*
X080336Y029792D01*
X080377Y029833D02*
X080120Y029576D01*
X080120Y029211D01*
X080377Y028953D01*
X080742Y028953D01*
X081000Y029211D01*
X081000Y029576D01*
X080742Y029833D01*
X080377Y029833D01*
X080178Y029634D02*
X079941Y029634D01*
X080000Y029475D02*
X080120Y029475D01*
X080120Y029317D02*
X080000Y029317D01*
X079947Y029158D02*
X080172Y029158D01*
X080331Y029000D02*
X079788Y029000D01*
X079742Y028833D02*
X080000Y028576D01*
X080000Y028211D01*
X079742Y027953D01*
X079377Y027953D01*
X079120Y028211D01*
X079120Y028576D01*
X079377Y028833D01*
X079742Y028833D01*
X079892Y028683D02*
X080227Y028683D01*
X080120Y028576D02*
X080120Y028211D01*
X080377Y027953D01*
X080742Y027953D01*
X081000Y028211D01*
X081000Y028576D01*
X080742Y028833D01*
X080377Y028833D01*
X080120Y028576D01*
X080120Y028524D02*
X080000Y028524D01*
X080000Y028366D02*
X080120Y028366D01*
X080123Y028207D02*
X079996Y028207D01*
X079837Y028049D02*
X080282Y028049D01*
X080377Y027833D02*
X080120Y027576D01*
X080120Y027211D01*
X080377Y026953D01*
X080742Y026953D01*
X081000Y027211D01*
X081000Y027576D01*
X080742Y027833D01*
X080377Y027833D01*
X080276Y027732D02*
X079843Y027732D01*
X079742Y027833D02*
X080000Y027576D01*
X080000Y027211D01*
X079742Y026953D01*
X079377Y026953D01*
X079120Y027211D01*
X079120Y027576D01*
X079377Y027833D01*
X079742Y027833D01*
X080000Y027573D02*
X080120Y027573D01*
X080120Y027415D02*
X080000Y027415D01*
X080000Y027256D02*
X080120Y027256D01*
X080233Y027098D02*
X079886Y027098D01*
X079742Y026833D02*
X079377Y026833D01*
X079120Y026576D01*
X079120Y026211D01*
X079377Y025953D01*
X079742Y025953D01*
X080000Y026211D01*
X080000Y026576D01*
X079742Y026833D01*
X079794Y026781D02*
X080325Y026781D01*
X080377Y026833D02*
X080120Y026576D01*
X080120Y026211D01*
X080377Y025953D01*
X080742Y025953D01*
X081000Y026211D01*
X081000Y026576D01*
X080742Y026833D01*
X080377Y026833D01*
X080166Y026622D02*
X079953Y026622D01*
X080000Y026464D02*
X080120Y026464D01*
X080120Y026305D02*
X080000Y026305D01*
X079935Y026147D02*
X080184Y026147D01*
X080342Y025988D02*
X079777Y025988D01*
X079742Y025833D02*
X080000Y025576D01*
X080000Y025211D01*
X079742Y024953D01*
X079377Y024953D01*
X079120Y025211D01*
X079120Y025576D01*
X079377Y025833D01*
X079742Y025833D01*
X079745Y025830D02*
X080374Y025830D01*
X080377Y025833D02*
X080120Y025576D01*
X080120Y025211D01*
X080377Y024953D01*
X080742Y024953D01*
X081000Y025211D01*
X081000Y025576D01*
X080742Y025833D01*
X080377Y025833D01*
X080215Y025671D02*
X079904Y025671D01*
X080000Y025513D02*
X080120Y025513D01*
X080120Y025354D02*
X080000Y025354D01*
X079984Y025196D02*
X080135Y025196D01*
X080293Y025037D02*
X079826Y025037D01*
X079742Y024833D02*
X080000Y024576D01*
X080000Y024211D01*
X079742Y023953D01*
X079377Y023953D01*
X079120Y024211D01*
X079120Y024576D01*
X079377Y024833D01*
X079742Y024833D01*
X079855Y024720D02*
X080264Y024720D01*
X080377Y024833D02*
X080120Y024576D01*
X080120Y024211D01*
X080377Y023953D01*
X080742Y023953D01*
X081000Y024211D01*
X081000Y024576D01*
X080742Y024833D01*
X080377Y024833D01*
X080120Y024562D02*
X080000Y024562D01*
X080000Y024403D02*
X080120Y024403D01*
X080120Y024245D02*
X080000Y024245D01*
X079875Y024086D02*
X080244Y024086D01*
X080377Y023833D02*
X080120Y023576D01*
X080120Y023211D01*
X080377Y022953D01*
X080742Y022953D01*
X081000Y023211D01*
X081000Y023576D01*
X080742Y023833D01*
X080377Y023833D01*
X080313Y023769D02*
X079806Y023769D01*
X079742Y023833D02*
X080000Y023576D01*
X080000Y023211D01*
X079742Y022953D01*
X079377Y022953D01*
X079120Y023211D01*
X079120Y023576D01*
X079377Y023833D01*
X079742Y023833D01*
X079964Y023611D02*
X080155Y023611D01*
X080120Y023452D02*
X080000Y023452D01*
X080000Y023294D02*
X080120Y023294D01*
X080195Y023135D02*
X079924Y023135D01*
X079765Y022977D02*
X080354Y022977D01*
X080765Y022977D02*
X081360Y022977D01*
X081360Y023135D02*
X080924Y023135D01*
X081000Y023294D02*
X081360Y023294D01*
X081360Y023452D02*
X081000Y023452D01*
X080964Y023611D02*
X081360Y023611D01*
X081360Y023769D02*
X080806Y023769D01*
X080875Y024086D02*
X081360Y024086D01*
X081360Y023928D02*
X067146Y023928D01*
X067192Y023882D02*
X067048Y024026D01*
X066885Y024093D01*
X067048Y024161D01*
X067192Y024304D01*
X067270Y024492D01*
X067270Y024695D01*
X067192Y024882D01*
X067048Y025026D01*
X066885Y025093D01*
X067048Y025161D01*
X067192Y025304D01*
X067270Y025492D01*
X067270Y025695D01*
X067192Y025882D01*
X067048Y026026D01*
X066861Y026103D01*
X066658Y026103D01*
X066471Y026026D01*
X066327Y025882D01*
X066250Y025695D01*
X066250Y025492D01*
X066327Y025304D01*
X066471Y025161D01*
X066634Y025093D01*
X066471Y025026D01*
X066327Y024882D01*
X066250Y024695D01*
X066250Y024492D01*
X066327Y024304D01*
X066471Y024161D01*
X066634Y024093D01*
X066471Y024026D01*
X066327Y023882D01*
X066250Y023695D01*
X066250Y023492D01*
X066327Y023304D01*
X066471Y023161D01*
X066658Y023083D01*
X066861Y023083D01*
X067048Y023161D01*
X067192Y023304D01*
X067270Y023492D01*
X067270Y023695D01*
X067192Y023882D01*
X067239Y023769D02*
X079313Y023769D01*
X079155Y023611D02*
X067270Y023611D01*
X067253Y023452D02*
X079120Y023452D01*
X079120Y023294D02*
X067181Y023294D01*
X066987Y023135D02*
X079195Y023135D01*
X079354Y022977D02*
X066824Y022977D01*
X066819Y022979D02*
X066757Y022999D01*
X066692Y023010D01*
X066660Y023010D01*
X066660Y022593D01*
X066660Y022593D01*
X067076Y022593D01*
X067076Y022561D01*
X067065Y022496D01*
X067045Y022434D01*
X067015Y022375D01*
X066977Y022322D01*
X066931Y022276D01*
X066878Y022237D01*
X066819Y022208D01*
X066757Y022187D01*
X066692Y022177D01*
X066660Y022177D01*
X066660Y022593D01*
X066660Y022593D01*
X067076Y022593D01*
X067076Y022626D01*
X067065Y022691D01*
X067045Y022753D01*
X067015Y022811D01*
X066977Y022864D01*
X066931Y022911D01*
X066878Y022949D01*
X066819Y022979D01*
X066660Y022977D02*
X066660Y022977D01*
X066660Y023010D02*
X066627Y023010D01*
X066562Y022999D01*
X066500Y022979D01*
X066441Y022949D01*
X066388Y022911D01*
X066342Y022864D01*
X066304Y022811D01*
X066274Y022753D01*
X066254Y022691D01*
X066243Y022626D01*
X066243Y022593D01*
X066243Y022561D01*
X066254Y022496D01*
X066274Y022434D01*
X066304Y022375D01*
X066342Y022322D01*
X066388Y022276D01*
X066441Y022237D01*
X066500Y022208D01*
X066562Y022187D01*
X066627Y022177D01*
X066660Y022177D01*
X066660Y022593D01*
X066660Y022593D01*
X066243Y022593D01*
X066660Y022593D01*
X066660Y022593D01*
X066660Y023010D01*
X066495Y022977D02*
X063765Y022977D01*
X063742Y022953D02*
X064000Y023211D01*
X064000Y023576D01*
X063742Y023833D01*
X063377Y023833D01*
X063120Y023576D01*
X063120Y023211D01*
X063377Y022953D01*
X063742Y022953D01*
X063924Y023135D02*
X066532Y023135D01*
X066338Y023294D02*
X064000Y023294D01*
X064000Y023452D02*
X066266Y023452D01*
X066250Y023611D02*
X063964Y023611D01*
X063806Y023769D02*
X066280Y023769D01*
X066373Y023928D02*
X061760Y023928D01*
X061760Y024086D02*
X062244Y024086D01*
X062120Y024211D02*
X062377Y023953D01*
X062742Y023953D01*
X063000Y024211D01*
X063000Y024576D01*
X062742Y024833D01*
X062377Y024833D01*
X062120Y024576D01*
X062120Y024211D01*
X062120Y024245D02*
X061760Y024245D01*
X061760Y024403D02*
X062120Y024403D01*
X062120Y024562D02*
X061760Y024562D01*
X061760Y024720D02*
X062264Y024720D01*
X062377Y024953D02*
X062742Y024953D01*
X063000Y025211D01*
X063000Y025576D01*
X062742Y025833D01*
X062377Y025833D01*
X062120Y025576D01*
X062120Y025211D01*
X062377Y024953D01*
X062293Y025037D02*
X061760Y025037D01*
X061760Y024879D02*
X066326Y024879D01*
X066260Y024720D02*
X063855Y024720D01*
X063742Y024833D02*
X063377Y024833D01*
X063120Y024576D01*
X063120Y024211D01*
X063377Y023953D01*
X063742Y023953D01*
X064000Y024211D01*
X064000Y024576D01*
X063742Y024833D01*
X063742Y024953D02*
X064000Y025211D01*
X064000Y025576D01*
X063742Y025833D01*
X063377Y025833D01*
X063120Y025576D01*
X063120Y025211D01*
X063377Y024953D01*
X063742Y024953D01*
X063826Y025037D02*
X066499Y025037D01*
X066436Y025196D02*
X063984Y025196D01*
X064000Y025354D02*
X066306Y025354D01*
X066250Y025513D02*
X064000Y025513D01*
X063904Y025671D02*
X066250Y025671D01*
X066305Y025830D02*
X063745Y025830D01*
X063742Y025953D02*
X064000Y026211D01*
X064000Y026576D01*
X063902Y026673D01*
X064751Y026673D01*
X064880Y026802D01*
X064951Y026873D01*
X068487Y026873D01*
X068444Y026855D01*
X068337Y026749D01*
X068280Y026609D01*
X068280Y025978D01*
X068337Y025838D01*
X068444Y025731D01*
X068584Y025673D01*
X068735Y025673D01*
X068875Y025731D01*
X068982Y025838D01*
X069040Y025978D01*
X069040Y026609D01*
X068982Y026749D01*
X068875Y026855D01*
X068832Y026873D01*
X069487Y026873D01*
X069444Y026855D01*
X069337Y026749D01*
X069280Y026609D01*
X069280Y025978D01*
X069337Y025838D01*
X069444Y025731D01*
X069584Y025673D01*
X069735Y025673D01*
X069875Y025731D01*
X069982Y025838D01*
X070040Y025978D01*
X070040Y026609D01*
X069982Y026749D01*
X069875Y026855D01*
X069832Y026873D01*
X069968Y026873D01*
X070280Y026562D01*
X070280Y025978D01*
X070337Y025838D01*
X070444Y025731D01*
X070584Y025673D01*
X070735Y025673D01*
X070875Y025731D01*
X070982Y025838D01*
X071040Y025978D01*
X071040Y026609D01*
X070982Y026749D01*
X070875Y026855D01*
X070735Y026913D01*
X070584Y026913D01*
X070560Y026904D01*
X070280Y027184D01*
X070151Y027313D01*
X064768Y027313D01*
X064568Y027113D01*
X063902Y027113D01*
X064000Y027211D01*
X064000Y027576D01*
X063742Y027833D01*
X063377Y027833D01*
X063120Y027576D01*
X063120Y027211D01*
X063217Y027113D01*
X062968Y027113D01*
X062840Y026984D01*
X062688Y026833D01*
X062377Y026833D01*
X062120Y026576D01*
X062120Y026211D01*
X062377Y025953D01*
X062742Y025953D01*
X063000Y026211D01*
X063000Y026522D01*
X063151Y026673D01*
X063217Y026673D01*
X063120Y026576D01*
X063120Y026211D01*
X063377Y025953D01*
X063742Y025953D01*
X063777Y025988D02*
X066433Y025988D01*
X067086Y025988D02*
X068280Y025988D01*
X068280Y026147D02*
X063935Y026147D01*
X064000Y026305D02*
X068280Y026305D01*
X068280Y026464D02*
X064000Y026464D01*
X063953Y026622D02*
X068285Y026622D01*
X068370Y026781D02*
X064858Y026781D01*
X064660Y026893D02*
X063060Y026893D01*
X062560Y026393D01*
X063000Y026464D02*
X063120Y026464D01*
X063120Y026305D02*
X063000Y026305D01*
X062935Y026147D02*
X063184Y026147D01*
X063342Y025988D02*
X062777Y025988D01*
X062745Y025830D02*
X063374Y025830D01*
X063215Y025671D02*
X062904Y025671D01*
X063000Y025513D02*
X063120Y025513D01*
X063120Y025354D02*
X063000Y025354D01*
X062984Y025196D02*
X063135Y025196D01*
X063293Y025037D02*
X062826Y025037D01*
X062855Y024720D02*
X063264Y024720D01*
X063120Y024562D02*
X063000Y024562D01*
X063000Y024403D02*
X063120Y024403D01*
X063120Y024245D02*
X063000Y024245D01*
X062875Y024086D02*
X063244Y024086D01*
X063313Y023769D02*
X062806Y023769D01*
X062742Y023833D02*
X062377Y023833D01*
X062120Y023576D01*
X062120Y023211D01*
X062377Y022953D01*
X062742Y022953D01*
X063000Y023211D01*
X063000Y023576D01*
X062742Y023833D01*
X062964Y023611D02*
X063155Y023611D01*
X063120Y023452D02*
X063000Y023452D01*
X063000Y023294D02*
X063120Y023294D01*
X063195Y023135D02*
X062924Y023135D01*
X062765Y022977D02*
X063354Y022977D01*
X062354Y022977D02*
X061760Y022977D01*
X061760Y023135D02*
X062195Y023135D01*
X062120Y023294D02*
X061760Y023294D01*
X061760Y023452D02*
X062120Y023452D01*
X062155Y023611D02*
X061760Y023611D01*
X061760Y023769D02*
X062313Y023769D01*
X063875Y024086D02*
X066617Y024086D01*
X066387Y024245D02*
X064000Y024245D01*
X064000Y024403D02*
X066286Y024403D01*
X066250Y024562D02*
X064000Y024562D01*
X062135Y025196D02*
X061760Y025196D01*
X061760Y025354D02*
X062120Y025354D01*
X062120Y025513D02*
X061760Y025513D01*
X061760Y025671D02*
X062215Y025671D01*
X062374Y025830D02*
X061760Y025830D01*
X061760Y025988D02*
X062342Y025988D01*
X062184Y026147D02*
X061760Y026147D01*
X061760Y026305D02*
X062120Y026305D01*
X062120Y026464D02*
X061760Y026464D01*
X061760Y026622D02*
X062166Y026622D01*
X062325Y026781D02*
X061760Y026781D01*
X061760Y026939D02*
X062794Y026939D01*
X062742Y026953D02*
X063000Y027211D01*
X063000Y027576D01*
X062742Y027833D01*
X062377Y027833D01*
X062120Y027576D01*
X062120Y027211D01*
X062377Y026953D01*
X062742Y026953D01*
X062840Y026984D02*
X062840Y026984D01*
X062886Y027098D02*
X062953Y027098D01*
X063000Y027256D02*
X063120Y027256D01*
X063120Y027415D02*
X063000Y027415D01*
X063000Y027573D02*
X063120Y027573D01*
X063276Y027732D02*
X062843Y027732D01*
X062742Y027953D02*
X063000Y028211D01*
X063000Y028576D01*
X062742Y028833D01*
X062377Y028833D01*
X062120Y028576D01*
X062120Y028211D01*
X062377Y027953D01*
X062742Y027953D01*
X062837Y028049D02*
X063282Y028049D01*
X063377Y027953D02*
X063742Y027953D01*
X064000Y028211D01*
X064000Y028576D01*
X063742Y028833D01*
X063377Y028833D01*
X063120Y028576D01*
X063120Y028211D01*
X063377Y027953D01*
X063123Y028207D02*
X062996Y028207D01*
X063000Y028366D02*
X063120Y028366D01*
X063120Y028524D02*
X063000Y028524D01*
X062892Y028683D02*
X063227Y028683D01*
X063331Y029000D02*
X062788Y029000D01*
X062947Y029158D02*
X063172Y029158D01*
X063120Y029317D02*
X063000Y029317D01*
X063000Y029475D02*
X063120Y029475D01*
X063111Y029634D02*
X063178Y029634D01*
X063060Y029893D02*
X065360Y029893D01*
X068970Y033503D01*
X068970Y034093D01*
X068960Y034093D01*
X068530Y034072D02*
X068270Y034072D01*
X068250Y034230D02*
X068550Y034230D01*
X068643Y034389D02*
X068168Y034389D01*
X067810Y034389D02*
X067770Y034389D01*
X067770Y034230D02*
X067810Y034230D01*
X067810Y034072D02*
X067770Y034072D01*
X067770Y033913D02*
X067810Y033913D01*
X067810Y033755D02*
X067770Y033755D01*
X067449Y033755D02*
X066893Y033755D01*
X066830Y033596D02*
X068750Y033596D01*
X068686Y033755D02*
X068130Y033755D01*
X068236Y033913D02*
X068568Y033913D01*
X068593Y033438D02*
X066830Y033438D01*
X066830Y033279D02*
X068434Y033279D01*
X068276Y033121D02*
X066698Y033121D01*
X066540Y032962D02*
X068117Y032962D01*
X067959Y032804D02*
X066381Y032804D01*
X066223Y032645D02*
X067800Y032645D01*
X067642Y032487D02*
X066064Y032487D01*
X065906Y032328D02*
X067483Y032328D01*
X067325Y032170D02*
X065747Y032170D01*
X065589Y032011D02*
X067166Y032011D01*
X067008Y031853D02*
X065430Y031853D01*
X065272Y031694D02*
X066849Y031694D01*
X066691Y031536D02*
X065113Y031536D01*
X064955Y031377D02*
X066532Y031377D01*
X066374Y031219D02*
X064796Y031219D01*
X064638Y031060D02*
X066215Y031060D01*
X066057Y030902D02*
X064479Y030902D01*
X064321Y030743D02*
X065898Y030743D01*
X065740Y030585D02*
X063990Y030585D01*
X064000Y030426D02*
X065581Y030426D01*
X065423Y030268D02*
X064000Y030268D01*
X064160Y030893D02*
X063060Y030893D01*
X062560Y030393D01*
X063000Y030426D02*
X063120Y030426D01*
X063120Y030268D02*
X063000Y030268D01*
X062964Y030109D02*
X062898Y030109D01*
X062840Y029984D02*
X062840Y029984D01*
X062806Y029951D02*
X061760Y029951D01*
X061760Y030109D02*
X062221Y030109D01*
X062120Y030268D02*
X061760Y030268D01*
X061760Y030426D02*
X062120Y030426D01*
X062129Y030585D02*
X061760Y030585D01*
X061760Y030743D02*
X062287Y030743D01*
X062377Y030953D02*
X062742Y030953D01*
X063000Y031211D01*
X063000Y031576D01*
X062742Y031833D01*
X062377Y031833D01*
X062120Y031576D01*
X062120Y031211D01*
X062377Y030953D01*
X062270Y031060D02*
X061760Y031060D01*
X061760Y030902D02*
X062757Y030902D01*
X062849Y031060D02*
X062915Y031060D01*
X063000Y031219D02*
X063080Y031219D01*
X063000Y031377D02*
X063540Y031377D01*
X063580Y031377D02*
X064332Y031377D01*
X064174Y031219D02*
X064040Y031219D01*
X064040Y031536D02*
X064491Y031536D01*
X064649Y031694D02*
X063937Y031694D01*
X063779Y031853D02*
X064808Y031853D01*
X064966Y032011D02*
X063800Y032011D01*
X063742Y031953D02*
X064000Y032211D01*
X064000Y032576D01*
X063742Y032833D01*
X063377Y032833D01*
X063120Y032576D01*
X063120Y032211D01*
X063377Y031953D01*
X063742Y031953D01*
X063580Y031853D02*
X063540Y031853D01*
X063540Y031694D02*
X063580Y031694D01*
X063580Y031536D02*
X063540Y031536D01*
X063340Y031853D02*
X061760Y031853D01*
X061760Y032011D02*
X062319Y032011D01*
X062377Y031953D02*
X062742Y031953D01*
X063000Y032211D01*
X063000Y032576D01*
X062742Y032833D01*
X062377Y032833D01*
X062120Y032576D01*
X062120Y032211D01*
X062377Y031953D01*
X062238Y031694D02*
X061760Y031694D01*
X061760Y031536D02*
X062120Y031536D01*
X062120Y031377D02*
X061760Y031377D01*
X061760Y031219D02*
X062120Y031219D01*
X062881Y031694D02*
X063182Y031694D01*
X063080Y031536D02*
X063000Y031536D01*
X062800Y032011D02*
X063319Y032011D01*
X063161Y032170D02*
X062958Y032170D01*
X063000Y032328D02*
X063120Y032328D01*
X063120Y032487D02*
X063000Y032487D01*
X062930Y032645D02*
X063189Y032645D01*
X063348Y032804D02*
X062771Y032804D01*
X062348Y032804D02*
X061760Y032804D01*
X061760Y032962D02*
X065917Y032962D01*
X065759Y032804D02*
X063771Y032804D01*
X063930Y032645D02*
X065600Y032645D01*
X065442Y032487D02*
X064000Y032487D01*
X064000Y032328D02*
X065283Y032328D01*
X065125Y032170D02*
X063958Y032170D01*
X062161Y032170D02*
X061760Y032170D01*
X061760Y032328D02*
X062120Y032328D01*
X062120Y032487D02*
X061760Y032487D01*
X061760Y032645D02*
X062189Y032645D01*
X061760Y033121D02*
X066076Y033121D01*
X066234Y033279D02*
X061760Y033279D01*
X061760Y033438D02*
X066390Y033438D01*
X066390Y033596D02*
X061760Y033596D01*
X061760Y033755D02*
X066326Y033755D01*
X066208Y033913D02*
X061760Y033913D01*
X061760Y034072D02*
X066170Y034072D01*
X066190Y034230D02*
X061760Y034230D01*
X061760Y034389D02*
X066283Y034389D01*
X066610Y034093D02*
X066610Y033343D01*
X064160Y030893D01*
X063129Y030585D02*
X063062Y030585D01*
X063060Y029893D02*
X062560Y029393D01*
X062120Y029317D02*
X061760Y029317D01*
X061760Y029475D02*
X062120Y029475D01*
X062178Y029634D02*
X061760Y029634D01*
X061760Y029792D02*
X062336Y029792D01*
X063941Y029634D02*
X068290Y029634D01*
X068280Y029609D02*
X068337Y029749D01*
X068444Y029855D01*
X068584Y029913D01*
X068735Y029913D01*
X068875Y029855D01*
X068982Y029749D01*
X069040Y029609D01*
X069040Y028978D01*
X068982Y028838D01*
X068875Y028731D01*
X068735Y028673D01*
X068584Y028673D01*
X068444Y028731D01*
X068337Y028838D01*
X068280Y028978D01*
X068280Y029609D01*
X068280Y029475D02*
X064000Y029475D01*
X064000Y029317D02*
X068280Y029317D01*
X068280Y029158D02*
X063947Y029158D01*
X063788Y029000D02*
X068280Y029000D01*
X068336Y028841D02*
X061760Y028841D01*
X061760Y028683D02*
X062227Y028683D01*
X062120Y028524D02*
X061760Y028524D01*
X061760Y028366D02*
X062120Y028366D01*
X062123Y028207D02*
X061760Y028207D01*
X061760Y028049D02*
X062282Y028049D01*
X062276Y027732D02*
X061760Y027732D01*
X061760Y027890D02*
X081360Y027890D01*
X081360Y027732D02*
X080843Y027732D01*
X081000Y027573D02*
X081360Y027573D01*
X081360Y027415D02*
X081000Y027415D01*
X081000Y027256D02*
X081360Y027256D01*
X081360Y027098D02*
X080886Y027098D01*
X080794Y026781D02*
X081360Y026781D01*
X081360Y026939D02*
X074769Y026939D01*
X074758Y026943D02*
X074693Y026953D01*
X074660Y026953D01*
X074660Y026293D01*
X074660Y026293D01*
X075080Y026293D01*
X075080Y026020D01*
X075069Y025955D01*
X075049Y025892D01*
X075019Y025833D01*
X074980Y025780D01*
X074933Y025733D01*
X074880Y025694D01*
X074821Y025664D01*
X074758Y025644D01*
X074693Y025633D01*
X074660Y025633D01*
X074660Y026293D01*
X074660Y026293D01*
X075080Y026293D01*
X075080Y026566D01*
X075069Y026632D01*
X075049Y026695D01*
X075019Y026753D01*
X074980Y026807D01*
X074933Y026854D01*
X074880Y026893D01*
X074821Y026923D01*
X074758Y026943D01*
X074660Y026939D02*
X074660Y026939D01*
X074660Y026953D02*
X074626Y026953D01*
X074561Y026943D01*
X074498Y026923D01*
X074439Y026893D01*
X074386Y026854D01*
X074339Y026807D01*
X074300Y026753D01*
X074270Y026695D01*
X074250Y026632D01*
X074240Y026566D01*
X074240Y026293D01*
X074240Y026020D01*
X074250Y025955D01*
X074270Y025892D01*
X074300Y025833D01*
X074339Y025780D01*
X074386Y025733D01*
X074439Y025694D01*
X074498Y025664D01*
X074561Y025644D01*
X074626Y025633D01*
X074660Y025633D01*
X074660Y026293D01*
X074660Y026293D01*
X074240Y026293D01*
X074660Y026293D01*
X074660Y026293D01*
X074660Y026953D01*
X074550Y026939D02*
X070525Y026939D01*
X070366Y027098D02*
X079233Y027098D01*
X079120Y027256D02*
X070208Y027256D01*
X070060Y027093D02*
X064860Y027093D01*
X064660Y026893D01*
X064711Y027256D02*
X064000Y027256D01*
X064000Y027415D02*
X079120Y027415D01*
X079120Y027573D02*
X064000Y027573D01*
X063843Y027732D02*
X079276Y027732D01*
X079282Y028049D02*
X063837Y028049D01*
X063996Y028207D02*
X079123Y028207D01*
X079120Y028366D02*
X064000Y028366D01*
X064000Y028524D02*
X079120Y028524D01*
X079227Y028683D02*
X074758Y028683D01*
X074735Y028673D02*
X074875Y028731D01*
X074982Y028838D01*
X075040Y028978D01*
X075040Y029609D01*
X074982Y029749D01*
X074875Y029855D01*
X074735Y029913D01*
X074584Y029913D01*
X074444Y029855D01*
X074337Y029749D01*
X074280Y029609D01*
X074280Y028978D01*
X074337Y028838D01*
X074444Y028731D01*
X074584Y028673D01*
X074735Y028673D01*
X074561Y028683D02*
X073758Y028683D01*
X073735Y028673D02*
X073875Y028731D01*
X073982Y028838D01*
X074040Y028978D01*
X074040Y029609D01*
X073982Y029749D01*
X073875Y029855D01*
X073735Y029913D01*
X073584Y029913D01*
X073444Y029855D01*
X073337Y029749D01*
X073280Y029609D01*
X073280Y028978D01*
X073337Y028838D01*
X073444Y028731D01*
X073584Y028673D01*
X073735Y028673D01*
X073561Y028683D02*
X072758Y028683D01*
X072735Y028673D02*
X072875Y028731D01*
X072982Y028838D01*
X073040Y028978D01*
X073040Y029609D01*
X072982Y029749D01*
X072875Y029855D01*
X072735Y029913D01*
X072584Y029913D01*
X072444Y029855D01*
X072337Y029749D01*
X072280Y029609D01*
X072280Y028978D01*
X072337Y028838D01*
X072444Y028731D01*
X072584Y028673D01*
X072735Y028673D01*
X072561Y028683D02*
X071758Y028683D01*
X071735Y028673D02*
X071875Y028731D01*
X071982Y028838D01*
X072040Y028978D01*
X072040Y029609D01*
X071982Y029749D01*
X071875Y029855D01*
X071735Y029913D01*
X071584Y029913D01*
X071444Y029855D01*
X071337Y029749D01*
X071280Y029609D01*
X071280Y028978D01*
X071337Y028838D01*
X071444Y028731D01*
X071584Y028673D01*
X071735Y028673D01*
X071561Y028683D02*
X070758Y028683D01*
X070735Y028673D02*
X070875Y028731D01*
X070982Y028838D01*
X071040Y028978D01*
X071040Y029609D01*
X070982Y029749D01*
X070875Y029855D01*
X070735Y029913D01*
X070584Y029913D01*
X070444Y029855D01*
X070337Y029749D01*
X070280Y029609D01*
X070280Y028978D01*
X070337Y028838D01*
X070444Y028731D01*
X070584Y028673D01*
X070735Y028673D01*
X070561Y028683D02*
X069758Y028683D01*
X069735Y028673D02*
X069875Y028731D01*
X069982Y028838D01*
X070040Y028978D01*
X070040Y029609D01*
X069982Y029749D01*
X069875Y029855D01*
X069735Y029913D01*
X069584Y029913D01*
X069444Y029855D01*
X069337Y029749D01*
X069280Y029609D01*
X069280Y028978D01*
X069337Y028838D01*
X069444Y028731D01*
X069584Y028673D01*
X069735Y028673D01*
X069561Y028683D02*
X068758Y028683D01*
X068561Y028683D02*
X063892Y028683D01*
X062331Y029000D02*
X061760Y029000D01*
X061760Y029158D02*
X062172Y029158D01*
X062120Y027573D02*
X061760Y027573D01*
X061760Y027415D02*
X062120Y027415D01*
X062120Y027256D02*
X061760Y027256D01*
X061760Y027098D02*
X062233Y027098D01*
X063100Y026622D02*
X063166Y026622D01*
X067214Y025830D02*
X068346Y025830D01*
X068973Y025830D02*
X069346Y025830D01*
X069280Y025988D02*
X069040Y025988D01*
X069040Y026147D02*
X069280Y026147D01*
X069280Y026305D02*
X069040Y026305D01*
X069040Y026464D02*
X069280Y026464D01*
X069285Y026622D02*
X069034Y026622D01*
X068949Y026781D02*
X069370Y026781D01*
X069949Y026781D02*
X070061Y026781D01*
X070034Y026622D02*
X070219Y026622D01*
X070280Y026464D02*
X070040Y026464D01*
X070040Y026305D02*
X070280Y026305D01*
X070280Y026147D02*
X070040Y026147D01*
X070040Y025988D02*
X070280Y025988D01*
X070346Y025830D02*
X069973Y025830D01*
X070660Y026293D02*
X070660Y026493D01*
X070060Y027093D01*
X070949Y026781D02*
X071370Y026781D01*
X071337Y026749D02*
X071280Y026609D01*
X071280Y025978D01*
X071337Y025838D01*
X071444Y025731D01*
X071584Y025673D01*
X071735Y025673D01*
X071875Y025731D01*
X071982Y025838D01*
X072040Y025978D01*
X072040Y026609D01*
X071982Y026749D01*
X071875Y026855D01*
X071735Y026913D01*
X071584Y026913D01*
X071444Y026855D01*
X071337Y026749D01*
X071285Y026622D02*
X071034Y026622D01*
X071040Y026464D02*
X071280Y026464D01*
X071280Y026305D02*
X071040Y026305D01*
X071040Y026147D02*
X071280Y026147D01*
X071280Y025988D02*
X071040Y025988D01*
X070973Y025830D02*
X071346Y025830D01*
X071973Y025830D02*
X072346Y025830D01*
X072337Y025838D02*
X072444Y025731D01*
X072584Y025673D01*
X072735Y025673D01*
X072875Y025731D01*
X072982Y025838D01*
X073040Y025978D01*
X073040Y026609D01*
X072982Y026749D01*
X072875Y026855D01*
X072735Y026913D01*
X072584Y026913D01*
X072444Y026855D01*
X072337Y026749D01*
X072280Y026609D01*
X072280Y025978D01*
X072337Y025838D01*
X072280Y025988D02*
X072040Y025988D01*
X072040Y026147D02*
X072280Y026147D01*
X072280Y026305D02*
X072040Y026305D01*
X072040Y026464D02*
X072280Y026464D01*
X072285Y026622D02*
X072034Y026622D01*
X071949Y026781D02*
X072370Y026781D01*
X072949Y026781D02*
X073370Y026781D01*
X073337Y026749D02*
X073280Y026609D01*
X073280Y025978D01*
X073337Y025838D01*
X073444Y025731D01*
X073584Y025673D01*
X073735Y025673D01*
X073875Y025731D01*
X073982Y025838D01*
X074040Y025978D01*
X074040Y026609D01*
X073982Y026749D01*
X073875Y026855D01*
X073735Y026913D01*
X073584Y026913D01*
X073444Y026855D01*
X073337Y026749D01*
X073285Y026622D02*
X073034Y026622D01*
X073040Y026464D02*
X073280Y026464D01*
X073280Y026305D02*
X073040Y026305D01*
X073040Y026147D02*
X073280Y026147D01*
X073280Y025988D02*
X073040Y025988D01*
X072973Y025830D02*
X073346Y025830D01*
X073973Y025830D02*
X074303Y025830D01*
X074245Y025988D02*
X074040Y025988D01*
X074040Y026147D02*
X074240Y026147D01*
X074240Y026305D02*
X074040Y026305D01*
X074040Y026464D02*
X074240Y026464D01*
X074248Y026622D02*
X074034Y026622D01*
X073949Y026781D02*
X074320Y026781D01*
X074660Y026781D02*
X074660Y026781D01*
X074660Y026622D02*
X074660Y026622D01*
X074660Y026464D02*
X074660Y026464D01*
X074660Y026305D02*
X074660Y026305D01*
X074660Y026147D02*
X074660Y026147D01*
X074660Y025988D02*
X074660Y025988D01*
X074660Y025830D02*
X074660Y025830D01*
X074660Y025671D02*
X074660Y025671D01*
X074835Y025671D02*
X079215Y025671D01*
X079120Y025513D02*
X067270Y025513D01*
X067270Y025671D02*
X074484Y025671D01*
X075016Y025830D02*
X079374Y025830D01*
X079342Y025988D02*
X075074Y025988D01*
X075080Y026147D02*
X079184Y026147D01*
X079120Y026305D02*
X075080Y026305D01*
X075080Y026464D02*
X079120Y026464D01*
X079166Y026622D02*
X075071Y026622D01*
X074999Y026781D02*
X079325Y026781D01*
X080953Y026622D02*
X081360Y026622D01*
X081360Y026464D02*
X081000Y026464D01*
X081000Y026305D02*
X081360Y026305D01*
X081360Y026147D02*
X080935Y026147D01*
X080777Y025988D02*
X081360Y025988D01*
X081360Y025830D02*
X080745Y025830D01*
X080904Y025671D02*
X081360Y025671D01*
X081360Y025513D02*
X081000Y025513D01*
X081000Y025354D02*
X081360Y025354D01*
X081360Y025196D02*
X080984Y025196D01*
X080826Y025037D02*
X081360Y025037D01*
X081360Y024879D02*
X067193Y024879D01*
X067259Y024720D02*
X079264Y024720D01*
X079120Y024562D02*
X067270Y024562D01*
X067233Y024403D02*
X079120Y024403D01*
X079120Y024245D02*
X067132Y024245D01*
X066902Y024086D02*
X079244Y024086D01*
X079293Y025037D02*
X067020Y025037D01*
X067083Y025196D02*
X079135Y025196D01*
X079120Y025354D02*
X067213Y025354D01*
X067585Y022970D02*
X067446Y022912D01*
X067341Y022806D01*
X067283Y022668D01*
X067283Y022518D01*
X067341Y022380D01*
X067446Y022274D01*
X067585Y022217D01*
X067734Y022217D01*
X067873Y022274D01*
X067978Y022380D01*
X068036Y022518D01*
X068036Y022668D01*
X067978Y022806D01*
X067873Y022912D01*
X067734Y022970D01*
X067585Y022970D01*
X067352Y022818D02*
X067011Y022818D01*
X067070Y022660D02*
X067283Y022660D01*
X067290Y022501D02*
X067066Y022501D01*
X066992Y022343D02*
X067378Y022343D01*
X067941Y022343D02*
X068378Y022343D01*
X068341Y022380D02*
X068446Y022274D01*
X068585Y022217D01*
X068734Y022217D01*
X068873Y022274D01*
X068978Y022380D01*
X069036Y022518D01*
X069036Y022668D01*
X068978Y022806D01*
X068873Y022912D01*
X068734Y022970D01*
X068585Y022970D01*
X068446Y022912D01*
X068341Y022806D01*
X068283Y022668D01*
X068283Y022518D01*
X068341Y022380D01*
X068290Y022501D02*
X068029Y022501D01*
X068036Y022660D02*
X068283Y022660D01*
X068352Y022818D02*
X067967Y022818D01*
X068967Y022818D02*
X069352Y022818D01*
X069341Y022806D02*
X069283Y022668D01*
X069283Y022518D01*
X069341Y022380D01*
X069446Y022274D01*
X069585Y022217D01*
X069734Y022217D01*
X069873Y022274D01*
X069978Y022380D01*
X070036Y022518D01*
X070036Y022668D01*
X069978Y022806D01*
X069873Y022912D01*
X069734Y022970D01*
X069585Y022970D01*
X069446Y022912D01*
X069341Y022806D01*
X069283Y022660D02*
X069036Y022660D01*
X069029Y022501D02*
X069290Y022501D01*
X069378Y022343D02*
X068941Y022343D01*
X069941Y022343D02*
X070378Y022343D01*
X070341Y022380D02*
X070446Y022274D01*
X070585Y022217D01*
X070734Y022217D01*
X070873Y022274D01*
X070978Y022380D01*
X071036Y022518D01*
X071036Y022668D01*
X070978Y022806D01*
X070873Y022912D01*
X070734Y022970D01*
X070585Y022970D01*
X070446Y022912D01*
X070341Y022806D01*
X070283Y022668D01*
X070283Y022518D01*
X070341Y022380D01*
X070290Y022501D02*
X070029Y022501D01*
X070036Y022660D02*
X070283Y022660D01*
X070352Y022818D02*
X069967Y022818D01*
X070967Y022818D02*
X071352Y022818D01*
X071341Y022806D02*
X071283Y022668D01*
X071283Y022518D01*
X071341Y022380D01*
X071446Y022274D01*
X071585Y022217D01*
X071734Y022217D01*
X071873Y022274D01*
X071978Y022380D01*
X072036Y022518D01*
X072036Y022668D01*
X071978Y022806D01*
X071873Y022912D01*
X071734Y022970D01*
X071585Y022970D01*
X071446Y022912D01*
X071341Y022806D01*
X071283Y022660D02*
X071036Y022660D01*
X071029Y022501D02*
X071290Y022501D01*
X071378Y022343D02*
X070941Y022343D01*
X071941Y022343D02*
X072378Y022343D01*
X072341Y022380D02*
X072446Y022274D01*
X072585Y022217D01*
X072734Y022217D01*
X072873Y022274D01*
X072978Y022380D01*
X073036Y022518D01*
X073036Y022668D01*
X072978Y022806D01*
X072873Y022912D01*
X072734Y022970D01*
X072585Y022970D01*
X072446Y022912D01*
X072341Y022806D01*
X072283Y022668D01*
X072283Y022518D01*
X072341Y022380D01*
X072290Y022501D02*
X072029Y022501D01*
X072036Y022660D02*
X072283Y022660D01*
X072352Y022818D02*
X071967Y022818D01*
X072967Y022818D02*
X073352Y022818D01*
X073341Y022806D02*
X073283Y022668D01*
X073283Y022518D01*
X073341Y022380D01*
X073446Y022274D01*
X073585Y022217D01*
X073734Y022217D01*
X073873Y022274D01*
X073978Y022380D01*
X074036Y022518D01*
X074036Y022668D01*
X073978Y022806D01*
X073873Y022912D01*
X073734Y022970D01*
X073585Y022970D01*
X073446Y022912D01*
X073341Y022806D01*
X073283Y022660D02*
X073036Y022660D01*
X073029Y022501D02*
X073290Y022501D01*
X073378Y022343D02*
X072941Y022343D01*
X073941Y022343D02*
X074378Y022343D01*
X074341Y022380D02*
X074446Y022274D01*
X074585Y022217D01*
X074734Y022217D01*
X074873Y022274D01*
X074978Y022380D01*
X075036Y022518D01*
X075036Y022668D01*
X074978Y022806D01*
X074873Y022912D01*
X074734Y022970D01*
X074585Y022970D01*
X074446Y022912D01*
X074341Y022806D01*
X074283Y022668D01*
X074283Y022518D01*
X074341Y022380D01*
X074290Y022501D02*
X074029Y022501D01*
X074036Y022660D02*
X074283Y022660D01*
X074352Y022818D02*
X073967Y022818D01*
X073660Y023193D02*
X073660Y023293D01*
X074967Y022818D02*
X075352Y022818D01*
X075341Y022806D02*
X075283Y022668D01*
X075283Y022518D01*
X075341Y022380D01*
X075446Y022274D01*
X075585Y022217D01*
X075734Y022217D01*
X075873Y022274D01*
X075978Y022380D01*
X076036Y022518D01*
X076036Y022668D01*
X075978Y022806D01*
X075873Y022912D01*
X075734Y022970D01*
X075585Y022970D01*
X075446Y022912D01*
X075341Y022806D01*
X075283Y022660D02*
X075036Y022660D01*
X075029Y022501D02*
X075290Y022501D01*
X075378Y022343D02*
X074941Y022343D01*
X075941Y022343D02*
X076378Y022343D01*
X076341Y022380D02*
X076446Y022274D01*
X076585Y022217D01*
X076734Y022217D01*
X076873Y022274D01*
X076978Y022380D01*
X077036Y022518D01*
X077036Y022668D01*
X076978Y022806D01*
X076873Y022912D01*
X076734Y022970D01*
X076585Y022970D01*
X076446Y022912D01*
X076341Y022806D01*
X076283Y022668D01*
X076283Y022518D01*
X076341Y022380D01*
X076290Y022501D02*
X076029Y022501D01*
X076036Y022660D02*
X076283Y022660D01*
X076352Y022818D02*
X075967Y022818D01*
X076967Y022818D02*
X081360Y022818D01*
X081360Y022660D02*
X077036Y022660D01*
X077029Y022501D02*
X081360Y022501D01*
X081360Y022343D02*
X076941Y022343D01*
X081360Y022184D02*
X066738Y022184D01*
X066660Y022184D02*
X066660Y022184D01*
X066581Y022184D02*
X061760Y022184D01*
X061760Y022026D02*
X081360Y022026D01*
X081360Y021867D02*
X061760Y021867D01*
X061760Y021709D02*
X081360Y021709D01*
X081360Y021550D02*
X061760Y021550D01*
X061760Y021392D02*
X081360Y021392D01*
X081360Y021233D02*
X061760Y021233D01*
X061760Y021075D02*
X081360Y021075D01*
X081360Y020916D02*
X061760Y020916D01*
X061760Y020758D02*
X081360Y020758D01*
X081360Y020599D02*
X061760Y020599D01*
X061760Y020441D02*
X081360Y020441D01*
X081360Y020282D02*
X061760Y020282D01*
X061760Y020124D02*
X081360Y020124D01*
X081360Y019965D02*
X061760Y019965D01*
X061760Y019807D02*
X081360Y019807D01*
X081360Y019648D02*
X061760Y019648D01*
X061760Y019490D02*
X081360Y019490D01*
X081360Y019331D02*
X061760Y019331D01*
X061760Y019173D02*
X081360Y019173D01*
X081360Y019014D02*
X061760Y019014D01*
X061760Y018856D02*
X066390Y018856D01*
X066341Y018806D02*
X066283Y018668D01*
X066283Y018518D01*
X066341Y018380D01*
X066446Y018274D01*
X066585Y018217D01*
X066734Y018217D01*
X066873Y018274D01*
X066978Y018380D01*
X067036Y018518D01*
X067036Y018668D01*
X066978Y018806D01*
X066873Y018912D01*
X066734Y018970D01*
X066585Y018970D01*
X066446Y018912D01*
X066341Y018806D01*
X066295Y018697D02*
X061760Y018697D01*
X061760Y018539D02*
X066283Y018539D01*
X066341Y018380D02*
X061760Y018380D01*
X061760Y018222D02*
X066573Y018222D01*
X066746Y018222D02*
X067573Y018222D01*
X067585Y018217D02*
X067734Y018217D01*
X067873Y018274D01*
X067978Y018380D01*
X068036Y018518D01*
X068036Y018668D01*
X067978Y018806D01*
X067873Y018912D01*
X067734Y018970D01*
X067585Y018970D01*
X067446Y018912D01*
X067341Y018806D01*
X067283Y018668D01*
X067283Y018518D01*
X067341Y018380D01*
X067446Y018274D01*
X067585Y018217D01*
X067746Y018222D02*
X068573Y018222D01*
X068585Y018217D02*
X068734Y018217D01*
X068873Y018274D01*
X068978Y018380D01*
X069036Y018518D01*
X069036Y018668D01*
X068978Y018806D01*
X068873Y018912D01*
X068734Y018970D01*
X068585Y018970D01*
X068446Y018912D01*
X068341Y018806D01*
X068283Y018668D01*
X068283Y018518D01*
X068341Y018380D01*
X068446Y018274D01*
X068585Y018217D01*
X068746Y018222D02*
X069573Y018222D01*
X069585Y018217D02*
X069734Y018217D01*
X069873Y018274D01*
X069978Y018380D01*
X070036Y018518D01*
X070036Y018668D01*
X069978Y018806D01*
X069873Y018912D01*
X069734Y018970D01*
X069585Y018970D01*
X069446Y018912D01*
X069341Y018806D01*
X069283Y018668D01*
X069283Y018518D01*
X069341Y018380D01*
X069446Y018274D01*
X069585Y018217D01*
X069746Y018222D02*
X070573Y018222D01*
X070585Y018217D02*
X070734Y018217D01*
X070873Y018274D01*
X070978Y018380D01*
X071036Y018518D01*
X071036Y018668D01*
X070978Y018806D01*
X070873Y018912D01*
X070734Y018970D01*
X070585Y018970D01*
X070446Y018912D01*
X070341Y018806D01*
X070283Y018668D01*
X070283Y018518D01*
X070341Y018380D01*
X070446Y018274D01*
X070585Y018217D01*
X070746Y018222D02*
X071573Y018222D01*
X071585Y018217D02*
X071734Y018217D01*
X071873Y018274D01*
X071978Y018380D01*
X072036Y018518D01*
X072036Y018668D01*
X071978Y018806D01*
X071873Y018912D01*
X071734Y018970D01*
X071585Y018970D01*
X071446Y018912D01*
X071341Y018806D01*
X071283Y018668D01*
X071283Y018518D01*
X071341Y018380D01*
X071446Y018274D01*
X071585Y018217D01*
X071746Y018222D02*
X072573Y018222D01*
X072585Y018217D02*
X072734Y018217D01*
X072873Y018274D01*
X072978Y018380D01*
X073036Y018518D01*
X073036Y018668D01*
X072978Y018806D01*
X072873Y018912D01*
X072734Y018970D01*
X072585Y018970D01*
X072446Y018912D01*
X072341Y018806D01*
X072283Y018668D01*
X072283Y018518D01*
X072341Y018380D01*
X072446Y018274D01*
X072585Y018217D01*
X072746Y018222D02*
X073573Y018222D01*
X073585Y018217D02*
X073734Y018217D01*
X073873Y018274D01*
X073978Y018380D01*
X074036Y018518D01*
X074036Y018668D01*
X073978Y018806D01*
X073873Y018912D01*
X073734Y018970D01*
X073585Y018970D01*
X073446Y018912D01*
X073341Y018806D01*
X073283Y018668D01*
X073283Y018518D01*
X073341Y018380D01*
X073446Y018274D01*
X073585Y018217D01*
X073746Y018222D02*
X074573Y018222D01*
X074585Y018217D02*
X074734Y018217D01*
X074873Y018274D01*
X074978Y018380D01*
X075036Y018518D01*
X075036Y018668D01*
X074978Y018806D01*
X074873Y018912D01*
X074734Y018970D01*
X074585Y018970D01*
X074446Y018912D01*
X074341Y018806D01*
X074283Y018668D01*
X074283Y018518D01*
X074341Y018380D01*
X074446Y018274D01*
X074585Y018217D01*
X074746Y018222D02*
X075573Y018222D01*
X075585Y018217D02*
X075734Y018217D01*
X075873Y018274D01*
X075978Y018380D01*
X076036Y018518D01*
X076036Y018668D01*
X075978Y018806D01*
X075873Y018912D01*
X075734Y018970D01*
X075585Y018970D01*
X075446Y018912D01*
X075341Y018806D01*
X075283Y018668D01*
X075283Y018518D01*
X075341Y018380D01*
X075446Y018274D01*
X075585Y018217D01*
X075746Y018222D02*
X076573Y018222D01*
X076585Y018217D02*
X076734Y018217D01*
X076873Y018274D01*
X076978Y018380D01*
X077036Y018518D01*
X077036Y018668D01*
X076978Y018806D01*
X076873Y018912D01*
X076734Y018970D01*
X076585Y018970D01*
X076446Y018912D01*
X076341Y018806D01*
X076283Y018668D01*
X076283Y018518D01*
X076341Y018380D01*
X076446Y018274D01*
X076585Y018217D01*
X076746Y018222D02*
X081360Y018222D01*
X081360Y018380D02*
X076979Y018380D01*
X077036Y018539D02*
X081360Y018539D01*
X081360Y018697D02*
X077024Y018697D01*
X076929Y018856D02*
X081360Y018856D01*
X076390Y018856D02*
X075929Y018856D01*
X076024Y018697D02*
X076295Y018697D01*
X076283Y018539D02*
X076036Y018539D01*
X075979Y018380D02*
X076341Y018380D01*
X075341Y018380D02*
X074979Y018380D01*
X075036Y018539D02*
X075283Y018539D01*
X075295Y018697D02*
X075024Y018697D01*
X074929Y018856D02*
X075390Y018856D01*
X074390Y018856D02*
X073929Y018856D01*
X074024Y018697D02*
X074295Y018697D01*
X074283Y018539D02*
X074036Y018539D01*
X073979Y018380D02*
X074341Y018380D01*
X073341Y018380D02*
X072979Y018380D01*
X073036Y018539D02*
X073283Y018539D01*
X073295Y018697D02*
X073024Y018697D01*
X072929Y018856D02*
X073390Y018856D01*
X072390Y018856D02*
X071929Y018856D01*
X072024Y018697D02*
X072295Y018697D01*
X072283Y018539D02*
X072036Y018539D01*
X071979Y018380D02*
X072341Y018380D01*
X071341Y018380D02*
X070979Y018380D01*
X071036Y018539D02*
X071283Y018539D01*
X071295Y018697D02*
X071024Y018697D01*
X070929Y018856D02*
X071390Y018856D01*
X070390Y018856D02*
X069929Y018856D01*
X070024Y018697D02*
X070295Y018697D01*
X070283Y018539D02*
X070036Y018539D01*
X069979Y018380D02*
X070341Y018380D01*
X069341Y018380D02*
X068979Y018380D01*
X069036Y018539D02*
X069283Y018539D01*
X069295Y018697D02*
X069024Y018697D01*
X068929Y018856D02*
X069390Y018856D01*
X068390Y018856D02*
X067929Y018856D01*
X068024Y018697D02*
X068295Y018697D01*
X068283Y018539D02*
X068036Y018539D01*
X067979Y018380D02*
X068341Y018380D01*
X067341Y018380D02*
X066979Y018380D01*
X067036Y018539D02*
X067283Y018539D01*
X067295Y018697D02*
X067024Y018697D01*
X066929Y018856D02*
X067390Y018856D01*
X066660Y022343D02*
X066660Y022343D01*
X066660Y022501D02*
X066660Y022501D01*
X066660Y022660D02*
X066660Y022660D01*
X066660Y022818D02*
X066660Y022818D01*
X066309Y022818D02*
X061760Y022818D01*
X061760Y022660D02*
X066249Y022660D01*
X066253Y022501D02*
X061760Y022501D01*
X061760Y022343D02*
X066327Y022343D01*
X068983Y028841D02*
X069336Y028841D01*
X069280Y029000D02*
X069040Y029000D01*
X069040Y029158D02*
X069280Y029158D01*
X069280Y029317D02*
X069040Y029317D01*
X069040Y029475D02*
X069280Y029475D01*
X069290Y029634D02*
X069029Y029634D01*
X068938Y029792D02*
X069381Y029792D01*
X069938Y029792D02*
X070381Y029792D01*
X070290Y029634D02*
X070029Y029634D01*
X070040Y029475D02*
X070280Y029475D01*
X070280Y029317D02*
X070040Y029317D01*
X070040Y029158D02*
X070280Y029158D01*
X070280Y029000D02*
X070040Y029000D01*
X069983Y028841D02*
X070336Y028841D01*
X070983Y028841D02*
X071336Y028841D01*
X071280Y029000D02*
X071040Y029000D01*
X071040Y029158D02*
X071280Y029158D01*
X071280Y029317D02*
X071040Y029317D01*
X071040Y029475D02*
X071280Y029475D01*
X071290Y029634D02*
X071029Y029634D01*
X070938Y029792D02*
X071381Y029792D01*
X071938Y029792D02*
X072381Y029792D01*
X072290Y029634D02*
X072029Y029634D01*
X072040Y029475D02*
X072280Y029475D01*
X072280Y029317D02*
X072040Y029317D01*
X072040Y029158D02*
X072280Y029158D01*
X072280Y029000D02*
X072040Y029000D01*
X071983Y028841D02*
X072336Y028841D01*
X072983Y028841D02*
X073336Y028841D01*
X073280Y029000D02*
X073040Y029000D01*
X073040Y029158D02*
X073280Y029158D01*
X073280Y029317D02*
X073040Y029317D01*
X073040Y029475D02*
X073280Y029475D01*
X073290Y029634D02*
X073029Y029634D01*
X072938Y029792D02*
X073381Y029792D01*
X073938Y029792D02*
X074381Y029792D01*
X074290Y029634D02*
X074029Y029634D01*
X074040Y029475D02*
X074280Y029475D01*
X074280Y029317D02*
X074040Y029317D01*
X074040Y029158D02*
X074280Y029158D01*
X074280Y029000D02*
X074040Y029000D01*
X073983Y028841D02*
X074336Y028841D01*
X074983Y028841D02*
X081360Y028841D01*
X081360Y028683D02*
X080892Y028683D01*
X081000Y028524D02*
X081360Y028524D01*
X081360Y028366D02*
X081000Y028366D01*
X080996Y028207D02*
X081360Y028207D01*
X081360Y028049D02*
X080837Y028049D01*
X080788Y029000D02*
X081360Y029000D01*
X081360Y029158D02*
X080947Y029158D01*
X081000Y029317D02*
X081360Y029317D01*
X081360Y029475D02*
X081000Y029475D01*
X080941Y029634D02*
X081360Y029634D01*
X081360Y029792D02*
X080783Y029792D01*
X080270Y031060D02*
X079849Y031060D01*
X080000Y031219D02*
X080120Y031219D01*
X080120Y031377D02*
X080000Y031377D01*
X080000Y031536D02*
X080120Y031536D01*
X080238Y031694D02*
X079881Y031694D01*
X079742Y031953D02*
X080000Y032211D01*
X080000Y032576D01*
X079742Y032833D01*
X079377Y032833D01*
X079120Y032576D01*
X079120Y032211D01*
X079377Y031953D01*
X079742Y031953D01*
X079800Y032011D02*
X080263Y032011D01*
X080104Y032170D02*
X079958Y032170D01*
X080000Y032328D02*
X080080Y032328D01*
X080080Y032487D02*
X080000Y032487D01*
X079930Y032645D02*
X080133Y032645D01*
X080291Y032804D02*
X079771Y032804D01*
X079348Y032804D02*
X068581Y032804D01*
X068423Y032645D02*
X079189Y032645D01*
X079120Y032487D02*
X068264Y032487D01*
X068106Y032328D02*
X079120Y032328D01*
X079161Y032170D02*
X067947Y032170D01*
X067789Y032011D02*
X079319Y032011D01*
X079238Y031694D02*
X067472Y031694D01*
X067313Y031536D02*
X079120Y031536D01*
X079120Y031377D02*
X067155Y031377D01*
X066996Y031219D02*
X079120Y031219D01*
X080856Y032011D02*
X081360Y032011D01*
X081360Y031853D02*
X067630Y031853D01*
X068381Y029792D02*
X065570Y029792D01*
X067011Y033913D02*
X067343Y033913D01*
X067310Y034072D02*
X067050Y034072D01*
X067029Y034230D02*
X067329Y034230D01*
X067411Y034389D02*
X066936Y034389D01*
X068662Y035023D02*
X081360Y035023D01*
X081360Y035181D02*
X068927Y035181D01*
X069079Y035340D02*
X081360Y035340D01*
X081360Y035498D02*
X069145Y035498D01*
X069200Y035657D02*
X081360Y035657D01*
X081360Y035815D02*
X069200Y035815D01*
X069192Y035974D02*
X081360Y035974D01*
X081360Y036132D02*
X069127Y036132D01*
X069042Y036291D02*
X081360Y036291D01*
X081360Y036449D02*
X068883Y036449D01*
X069296Y034389D02*
X069823Y034389D01*
X069730Y034230D02*
X069389Y034230D01*
X069410Y034072D02*
X069710Y034072D01*
X069748Y033913D02*
X069371Y033913D01*
X074938Y029792D02*
X079336Y029792D01*
X079178Y029634D02*
X075029Y029634D01*
X075040Y029475D02*
X079120Y029475D01*
X079120Y029317D02*
X075040Y029317D01*
X075040Y029158D02*
X079172Y029158D01*
X079331Y029000D02*
X075040Y029000D01*
X081015Y032170D02*
X081360Y032170D01*
X081360Y032328D02*
X081040Y032328D01*
X081040Y032487D02*
X081360Y032487D01*
X081360Y032645D02*
X080986Y032645D01*
X080855Y024720D02*
X081360Y024720D01*
X081360Y024562D02*
X081000Y024562D01*
X081000Y024403D02*
X081360Y024403D01*
X081360Y024245D02*
X081000Y024245D01*
D16*
X073660Y023293D03*
M02*
