%
M48
M72
T01C0.0197
T02C0.0315
T03C0.0320
T04C0.0400
T05C0.1180
T06C0.1400
%
T01
X73660Y23293
T02
X73660Y22593
X74660Y22593
X75660Y22593
X76660Y22593
X72660Y22593
X71660Y22593
X70660Y22593
X69660Y22593
X68660Y22593
X67660Y22593
X66660Y22593
X66660Y18593
X67660Y18593
X68660Y18593
X69660Y18593
X70660Y18593
X71660Y18593
X72660Y18593
X73660Y18593
X74660Y18593
X75660Y18593
X76660Y18593
T03
X66760Y23593
X66760Y24593
X66760Y25593
X68660Y26293
X69660Y26293
X70660Y26293
X71660Y26293
X72660Y26293
X73660Y26293
X74660Y26293
X74660Y29293
X73660Y29293
X72660Y29293
X71660Y29293
X70660Y29293
X69660Y29293
X68660Y29293
T04
X63560Y29393
X62560Y29393
X62560Y28393
X63560Y28393
X63560Y27393
X62560Y27393
X62560Y26393
X63560Y26393
X63560Y25393
X62560Y25393
X62560Y24393
X63560Y24393
X63560Y23393
X62560Y23393
X62560Y30393
X63560Y30393
X63560Y31393
X62560Y31393
X62560Y32393
X63560Y32393
X66610Y34093
X67790Y34093
X68970Y34093
X70150Y34093
X79560Y32393
X80560Y32393
X80560Y31393
X79560Y31393
X79560Y30393
X80560Y30393
X80560Y29393
X79560Y29393
X79560Y28393
X80560Y28393
X80560Y27393
X79560Y27393
X79560Y26393
X80560Y26393
X80560Y25393
X79560Y25393
X79560Y24393
X80560Y24393
X80560Y23393
X79560Y23393
T05
X68380Y35793
T06
X60360Y20493
X82860Y20493
X82860Y32793
X60360Y32793
M30
