G75*
%MOIN*%
%OFA0B0*%
%FSLAX24Y24*%
%IPPOS*%
%LPD*%
%AMOC8*
5,1,8,0,0,1.08239X$1,22.5*
%
%ADD10OC8,0.0660*%
%ADD11C,0.0800*%
%ADD12R,0.0454X0.0493*%
%ADD13C,0.0540*%
%ADD14C,0.0532*%
%ADD15R,0.0493X0.0454*%
%ADD16C,0.1460*%
%ADD17C,0.1240*%
%ADD18C,0.0660*%
%ADD19C,0.0397*%
D10*
X062560Y023393D03*
X063560Y023393D03*
X063560Y024393D03*
X062560Y024393D03*
X062560Y025393D03*
X063560Y025393D03*
X063560Y026393D03*
X062560Y026393D03*
X062560Y027393D03*
X063560Y027393D03*
X063560Y028393D03*
X062560Y028393D03*
X062560Y029393D03*
X063560Y029393D03*
X063560Y030393D03*
X062560Y030393D03*
X062560Y031393D03*
X063560Y031393D03*
X063560Y032393D03*
X062560Y032393D03*
X079560Y032393D03*
X080560Y032393D03*
X080560Y031393D03*
X079560Y031393D03*
X079560Y030393D03*
X080560Y030393D03*
X080560Y029393D03*
X079560Y029393D03*
X079560Y028393D03*
X080560Y028393D03*
X080560Y027393D03*
X079560Y027393D03*
X079560Y026393D03*
X080560Y026393D03*
X080560Y025393D03*
X079560Y025393D03*
X079560Y024393D03*
X080560Y024393D03*
X080560Y023393D03*
X079560Y023393D03*
D11*
X066760Y023593D03*
X066760Y024593D03*
X066760Y025593D03*
D12*
X065960Y025959D03*
X065960Y026628D03*
X068160Y024328D03*
X068160Y023659D03*
X065260Y023728D03*
X065260Y023059D03*
D13*
X068660Y026053D02*
X068660Y026533D01*
X069660Y026533D02*
X069660Y026053D01*
X070660Y026053D02*
X070660Y026533D01*
X071660Y026533D02*
X071660Y026053D01*
X072660Y026053D02*
X072660Y026533D01*
X073660Y026533D02*
X073660Y026053D01*
X074660Y026053D02*
X074660Y026533D01*
X074660Y029053D02*
X074660Y029533D01*
X073660Y029533D02*
X073660Y029053D01*
X072660Y029053D02*
X072660Y029533D01*
X071660Y029533D02*
X071660Y029053D01*
X070660Y029053D02*
X070660Y029533D01*
X069660Y029533D02*
X069660Y029053D01*
X068660Y029053D02*
X068660Y029533D01*
D14*
X068660Y022593D03*
X069660Y022593D03*
X070660Y022593D03*
X071660Y022593D03*
X072660Y022593D03*
X073660Y022593D03*
X074660Y022593D03*
X075660Y022593D03*
X076660Y022593D03*
X076660Y018593D03*
X075660Y018593D03*
X074660Y018593D03*
X073660Y018593D03*
X072660Y018593D03*
X071660Y018593D03*
X070660Y018593D03*
X069660Y018593D03*
X068660Y018593D03*
X067660Y018593D03*
X066660Y018593D03*
X066660Y022593D03*
X067660Y022593D03*
D15*
X073625Y023893D03*
X074294Y023893D03*
X074294Y024793D03*
X073625Y024793D03*
D16*
X060360Y020493D03*
X082860Y020493D03*
X082860Y032793D03*
X060360Y032793D03*
D17*
X068380Y035793D03*
D18*
X068970Y034093D03*
X067790Y034093D03*
X066610Y034093D03*
X070150Y034093D03*
D19*
X073660Y023293D03*
M02*
