%
M48
M72
T01C0.0197
T02C0.0315
T03C0.3600
%
T01
X9467Y1924
X9625Y1452
X9979Y1176
X10530Y1176
X10885Y1452
X11042Y1924
X11042Y2448
X11042Y2975
X11042Y3499
X10885Y3971
X10530Y4247
X9979Y4247
X9625Y3971
X9467Y3499
X9467Y2975
X9467Y2448
X9979Y5113
X9625Y5389
X9467Y5861
X9467Y6385
X9467Y6912
X9467Y7436
X9625Y7908
X9979Y8184
X10530Y8184
X10885Y7908
X11042Y7436
X11042Y6912
X11042Y6385
X11042Y5861
X10885Y5389
X10530Y5113
T02
X18680Y5432
X18680Y4680
X18680Y3928
T03
X4680Y4680
M30
