G75*
%MOIN*%
%OFA0B0*%
%FSLAX24Y24*%
%IPPOS*%
%LPD*%
%AMOC8*
5,1,8,0,0,1.08239X$1,22.5*
%
%ADD10C,0.0591*%
%ADD11R,0.2362X0.3543*%
%ADD12C,0.0337*%
%ADD13C,0.7200*%
%ADD14C,0.0160*%
D10*
X018680Y003928D03*
X018680Y004680D03*
X018680Y005432D03*
D11*
X010255Y006649D03*
X010255Y002711D03*
D12*
X011042Y002448D03*
X011042Y001924D03*
X010885Y001452D03*
X010530Y001176D03*
X009979Y001176D03*
X009625Y001452D03*
X009467Y001924D03*
X009467Y002448D03*
X009467Y002975D03*
X009467Y003499D03*
X009625Y003971D03*
X009979Y004247D03*
X010530Y004247D03*
X010885Y003971D03*
X011042Y003499D03*
X011042Y002975D03*
X010530Y005113D03*
X010885Y005389D03*
X011042Y005861D03*
X011042Y006385D03*
X011042Y006912D03*
X011042Y007436D03*
X010885Y007908D03*
X010530Y008184D03*
X009979Y008184D03*
X009625Y007908D03*
X009467Y007436D03*
X009467Y006912D03*
X009467Y006385D03*
X009467Y005861D03*
X009625Y005389D03*
X009979Y005113D03*
D13*
X004680Y004680D03*
D14*
X000410Y008946D02*
X000410Y000410D01*
X011680Y000410D01*
X011680Y006680D01*
X014680Y006680D01*
X014680Y008946D01*
X000410Y008946D01*
X000410Y008898D02*
X014680Y008898D01*
X014680Y008739D02*
X000410Y008739D01*
X000410Y008581D02*
X014680Y008581D01*
X014680Y008422D02*
X011576Y008422D01*
X011576Y008478D02*
X011494Y008560D01*
X009016Y008560D01*
X008934Y008478D01*
X008934Y004819D01*
X009016Y004737D01*
X011494Y004737D01*
X011576Y004819D01*
X011576Y008478D01*
X011576Y008264D02*
X014680Y008264D01*
X014680Y008105D02*
X011576Y008105D01*
X011576Y007947D02*
X014680Y007947D01*
X014680Y007788D02*
X011576Y007788D01*
X011576Y007630D02*
X014680Y007630D01*
X014680Y007471D02*
X011576Y007471D01*
X011576Y007313D02*
X014680Y007313D01*
X014680Y007154D02*
X011576Y007154D01*
X011576Y006996D02*
X014680Y006996D01*
X014680Y006837D02*
X011576Y006837D01*
X011576Y006679D02*
X011680Y006679D01*
X011680Y006520D02*
X011576Y006520D01*
X011576Y006362D02*
X011680Y006362D01*
X011680Y006203D02*
X011576Y006203D01*
X011576Y006045D02*
X011680Y006045D01*
X011680Y005886D02*
X011576Y005886D01*
X011576Y005728D02*
X011680Y005728D01*
X011680Y005569D02*
X011576Y005569D01*
X011576Y005411D02*
X011680Y005411D01*
X011680Y005252D02*
X011576Y005252D01*
X011576Y005094D02*
X011680Y005094D01*
X011680Y004935D02*
X011576Y004935D01*
X011534Y004777D02*
X011680Y004777D01*
X011546Y004627D02*
X011505Y004651D01*
X011460Y004663D01*
X010335Y004663D01*
X010335Y004535D01*
X010308Y004518D01*
X010260Y004469D01*
X010255Y004462D01*
X010250Y004469D01*
X010201Y004518D01*
X010175Y004535D01*
X010175Y004663D01*
X009050Y004663D01*
X009004Y004651D01*
X008963Y004627D01*
X008930Y004594D01*
X008906Y004553D01*
X008894Y004507D01*
X008894Y002791D01*
X009171Y002791D01*
X009197Y002753D01*
X009238Y002711D01*
X009197Y002670D01*
X009171Y002631D01*
X008894Y002631D01*
X008894Y000916D01*
X008906Y000870D01*
X008930Y000829D01*
X008963Y000796D01*
X009004Y000772D01*
X009050Y000760D01*
X010175Y000760D01*
X010175Y000888D01*
X010201Y000905D01*
X010250Y000954D01*
X010255Y000961D01*
X010260Y000954D01*
X010308Y000905D01*
X010335Y000888D01*
X010335Y000760D01*
X011460Y000760D01*
X011505Y000772D01*
X011546Y000796D01*
X011580Y000829D01*
X011604Y000870D01*
X011616Y000916D01*
X011616Y002631D01*
X011338Y002631D01*
X011313Y002670D01*
X011271Y002711D01*
X011313Y002753D01*
X011338Y002791D01*
X011616Y002791D01*
X011616Y004507D01*
X011604Y004553D01*
X011580Y004594D01*
X011546Y004627D01*
X011556Y004618D02*
X011680Y004618D01*
X011680Y004460D02*
X011616Y004460D01*
X011616Y004301D02*
X011680Y004301D01*
X011680Y004143D02*
X011616Y004143D01*
X011616Y003984D02*
X011680Y003984D01*
X011680Y003826D02*
X011616Y003826D01*
X011616Y003667D02*
X011680Y003667D01*
X011680Y003509D02*
X011616Y003509D01*
X011616Y003350D02*
X011680Y003350D01*
X011680Y003192D02*
X011616Y003192D01*
X011616Y003033D02*
X011680Y003033D01*
X011680Y002875D02*
X011616Y002875D01*
X011680Y002716D02*
X011276Y002716D01*
X011616Y002558D02*
X011680Y002558D01*
X011680Y002399D02*
X011616Y002399D01*
X011616Y002241D02*
X011680Y002241D01*
X011680Y002082D02*
X011616Y002082D01*
X011616Y001924D02*
X011680Y001924D01*
X011680Y001765D02*
X011616Y001765D01*
X011616Y001607D02*
X011680Y001607D01*
X011680Y001448D02*
X011616Y001448D01*
X011616Y001290D02*
X011680Y001290D01*
X011680Y001131D02*
X011616Y001131D01*
X011616Y000973D02*
X011680Y000973D01*
X011680Y000814D02*
X011565Y000814D01*
X011680Y000656D02*
X000410Y000656D01*
X000410Y000814D02*
X008945Y000814D01*
X008894Y000973D02*
X005419Y000973D01*
X005474Y000983D02*
X005249Y000941D01*
X005022Y000914D01*
X004794Y000900D01*
X004760Y000900D01*
X004760Y004600D01*
X004760Y004760D01*
X008460Y004760D01*
X008460Y004794D01*
X008446Y005022D01*
X008419Y005249D01*
X008377Y005474D01*
X008323Y005696D01*
X008255Y005914D01*
X008174Y006127D01*
X008080Y006336D01*
X007974Y006538D01*
X007856Y006733D01*
X007726Y006921D01*
X007585Y007101D01*
X007434Y007272D01*
X007272Y007434D01*
X007101Y007585D01*
X006921Y007726D01*
X006733Y007856D01*
X006538Y007974D01*
X006336Y008080D01*
X006127Y008174D01*
X005914Y008255D01*
X005696Y008323D01*
X005474Y008377D01*
X005249Y008419D01*
X005022Y008446D01*
X004794Y008460D01*
X004760Y008460D01*
X004760Y004760D01*
X004600Y004760D01*
X004600Y008460D01*
X004566Y008460D01*
X004338Y008446D01*
X004111Y008419D01*
X003886Y008377D01*
X003664Y008323D01*
X003446Y008255D01*
X003233Y008174D01*
X003024Y008080D01*
X002822Y007974D01*
X002627Y007856D01*
X002439Y007726D01*
X002259Y007585D01*
X002088Y007434D01*
X001926Y007272D01*
X001775Y007101D01*
X001634Y006921D01*
X001504Y006733D01*
X001386Y006538D01*
X001280Y006336D01*
X001186Y006127D01*
X001105Y005914D01*
X001037Y005696D01*
X000983Y005474D01*
X000941Y005249D01*
X000914Y005022D01*
X000900Y004794D01*
X000900Y004760D01*
X004600Y004760D01*
X004600Y004600D01*
X004760Y004600D01*
X008460Y004600D01*
X008460Y004566D01*
X008446Y004338D01*
X008419Y004111D01*
X008377Y003886D01*
X008323Y003664D01*
X008255Y003446D01*
X008174Y003233D01*
X008080Y003024D01*
X007974Y002822D01*
X007856Y002627D01*
X007726Y002439D01*
X007585Y002259D01*
X007434Y002088D01*
X007272Y001926D01*
X007101Y001775D01*
X006921Y001634D01*
X006733Y001504D01*
X006538Y001386D01*
X006336Y001280D01*
X006127Y001186D01*
X005914Y001105D01*
X005696Y001037D01*
X005474Y000983D01*
X005982Y001131D02*
X008894Y001131D01*
X008894Y001290D02*
X006354Y001290D01*
X006640Y001448D02*
X008894Y001448D01*
X008894Y001607D02*
X006881Y001607D01*
X007088Y001765D02*
X008894Y001765D01*
X008894Y001924D02*
X007269Y001924D01*
X007428Y002082D02*
X008894Y002082D01*
X008894Y002241D02*
X007569Y002241D01*
X007695Y002399D02*
X008894Y002399D01*
X008894Y002558D02*
X007808Y002558D01*
X007910Y002716D02*
X009234Y002716D01*
X008894Y002875D02*
X008001Y002875D01*
X008084Y003033D02*
X008894Y003033D01*
X008894Y003192D02*
X008155Y003192D01*
X008218Y003350D02*
X008894Y003350D01*
X008894Y003509D02*
X008274Y003509D01*
X008323Y003667D02*
X008894Y003667D01*
X008894Y003826D02*
X008363Y003826D01*
X008395Y003984D02*
X008894Y003984D01*
X008894Y004143D02*
X008422Y004143D01*
X008442Y004301D02*
X008894Y004301D01*
X008894Y004460D02*
X008454Y004460D01*
X008460Y004777D02*
X008976Y004777D01*
X008934Y004935D02*
X008451Y004935D01*
X008438Y005094D02*
X008934Y005094D01*
X008934Y005252D02*
X008418Y005252D01*
X008389Y005411D02*
X008934Y005411D01*
X008934Y005569D02*
X008354Y005569D01*
X008313Y005728D02*
X008934Y005728D01*
X008934Y005886D02*
X008263Y005886D01*
X008205Y006045D02*
X008934Y006045D01*
X008934Y006203D02*
X008140Y006203D01*
X008066Y006362D02*
X008934Y006362D01*
X008934Y006520D02*
X007983Y006520D01*
X007889Y006679D02*
X008934Y006679D01*
X008934Y006837D02*
X007784Y006837D01*
X007668Y006996D02*
X008934Y006996D01*
X008934Y007154D02*
X007538Y007154D01*
X007393Y007313D02*
X008934Y007313D01*
X008934Y007471D02*
X007230Y007471D01*
X007044Y007630D02*
X008934Y007630D01*
X008934Y007788D02*
X006831Y007788D01*
X006583Y007947D02*
X008934Y007947D01*
X008934Y008105D02*
X006280Y008105D01*
X005886Y008264D02*
X008934Y008264D01*
X008934Y008422D02*
X005221Y008422D01*
X004760Y008422D02*
X004600Y008422D01*
X004600Y008264D02*
X004760Y008264D01*
X004760Y008105D02*
X004600Y008105D01*
X004600Y007947D02*
X004760Y007947D01*
X004760Y007788D02*
X004600Y007788D01*
X004600Y007630D02*
X004760Y007630D01*
X004760Y007471D02*
X004600Y007471D01*
X004600Y007313D02*
X004760Y007313D01*
X004760Y007154D02*
X004600Y007154D01*
X004600Y006996D02*
X004760Y006996D01*
X004760Y006837D02*
X004600Y006837D01*
X004600Y006679D02*
X004760Y006679D01*
X004760Y006520D02*
X004600Y006520D01*
X004600Y006362D02*
X004760Y006362D01*
X004760Y006203D02*
X004600Y006203D01*
X004600Y006045D02*
X004760Y006045D01*
X004760Y005886D02*
X004600Y005886D01*
X004600Y005728D02*
X004760Y005728D01*
X004760Y005569D02*
X004600Y005569D01*
X004600Y005411D02*
X004760Y005411D01*
X004760Y005252D02*
X004600Y005252D01*
X004600Y005094D02*
X004760Y005094D01*
X004760Y004935D02*
X004600Y004935D01*
X004600Y004777D02*
X004760Y004777D01*
X004760Y004618D02*
X008954Y004618D01*
X010175Y004618D02*
X010335Y004618D01*
X004760Y004460D02*
X004600Y004460D01*
X004600Y004600D02*
X004600Y000900D01*
X004566Y000900D01*
X004338Y000914D01*
X004111Y000941D01*
X003886Y000983D01*
X003664Y001037D01*
X003446Y001105D01*
X003233Y001186D01*
X003024Y001280D01*
X002822Y001386D01*
X002627Y001504D01*
X002439Y001634D01*
X002259Y001775D01*
X002088Y001926D01*
X001926Y002088D01*
X001775Y002259D01*
X001634Y002439D01*
X001504Y002627D01*
X001386Y002822D01*
X001280Y003024D01*
X001186Y003233D01*
X001105Y003446D01*
X001037Y003664D01*
X000983Y003886D01*
X000941Y004111D01*
X000914Y004338D01*
X000900Y004566D01*
X000900Y004600D01*
X004600Y004600D01*
X004600Y004618D02*
X000410Y004618D01*
X000410Y004460D02*
X000906Y004460D01*
X000918Y004301D02*
X000410Y004301D01*
X000410Y004143D02*
X000938Y004143D01*
X000965Y003984D02*
X000410Y003984D01*
X000410Y003826D02*
X000997Y003826D01*
X001037Y003667D02*
X000410Y003667D01*
X000410Y003509D02*
X001086Y003509D01*
X001142Y003350D02*
X000410Y003350D01*
X000410Y003192D02*
X001205Y003192D01*
X001276Y003033D02*
X000410Y003033D01*
X000410Y002875D02*
X001359Y002875D01*
X001450Y002716D02*
X000410Y002716D01*
X000410Y002558D02*
X001552Y002558D01*
X001665Y002399D02*
X000410Y002399D01*
X000410Y002241D02*
X001791Y002241D01*
X001932Y002082D02*
X000410Y002082D01*
X000410Y001924D02*
X002091Y001924D01*
X002272Y001765D02*
X000410Y001765D01*
X000410Y001607D02*
X002479Y001607D01*
X002720Y001448D02*
X000410Y001448D01*
X000410Y001290D02*
X003006Y001290D01*
X003378Y001131D02*
X000410Y001131D01*
X000410Y000973D02*
X003941Y000973D01*
X004600Y000973D02*
X004760Y000973D01*
X004760Y001131D02*
X004600Y001131D01*
X004600Y001290D02*
X004760Y001290D01*
X004760Y001448D02*
X004600Y001448D01*
X004600Y001607D02*
X004760Y001607D01*
X004760Y001765D02*
X004600Y001765D01*
X004600Y001924D02*
X004760Y001924D01*
X004760Y002082D02*
X004600Y002082D01*
X004600Y002241D02*
X004760Y002241D01*
X004760Y002399D02*
X004600Y002399D01*
X004600Y002558D02*
X004760Y002558D01*
X004760Y002716D02*
X004600Y002716D01*
X004600Y002875D02*
X004760Y002875D01*
X004760Y003033D02*
X004600Y003033D01*
X004600Y003192D02*
X004760Y003192D01*
X004760Y003350D02*
X004600Y003350D01*
X004600Y003509D02*
X004760Y003509D01*
X004760Y003667D02*
X004600Y003667D01*
X004600Y003826D02*
X004760Y003826D01*
X004760Y003984D02*
X004600Y003984D01*
X004600Y004143D02*
X004760Y004143D01*
X004760Y004301D02*
X004600Y004301D01*
X001220Y006203D02*
X000410Y006203D01*
X000410Y006362D02*
X001294Y006362D01*
X001377Y006520D02*
X000410Y006520D01*
X000410Y006679D02*
X001471Y006679D01*
X001576Y006837D02*
X000410Y006837D01*
X000410Y006996D02*
X001692Y006996D01*
X001822Y007154D02*
X000410Y007154D01*
X000410Y007313D02*
X001967Y007313D01*
X002130Y007471D02*
X000410Y007471D01*
X000410Y007630D02*
X002316Y007630D01*
X002529Y007788D02*
X000410Y007788D01*
X000410Y007947D02*
X002777Y007947D01*
X003080Y008105D02*
X000410Y008105D01*
X000410Y008264D02*
X003474Y008264D01*
X004139Y008422D02*
X000410Y008422D01*
X000410Y006045D02*
X001155Y006045D01*
X001097Y005886D02*
X000410Y005886D01*
X000410Y005728D02*
X001047Y005728D01*
X001006Y005569D02*
X000410Y005569D01*
X000410Y005411D02*
X000971Y005411D01*
X000942Y005252D02*
X000410Y005252D01*
X000410Y005094D02*
X000922Y005094D01*
X000909Y004935D02*
X000410Y004935D01*
X000410Y004777D02*
X000900Y004777D01*
X000410Y000497D02*
X011680Y000497D01*
X010335Y000814D02*
X010175Y000814D01*
M02*
