G75*
G70*
%OFA0B0*%
%FSLAX24Y24*%
%IPPOS*%
%LPD*%
%AMOC8*
5,1,8,0,0,1.08239X$1,22.5*
%
%ADD10C,0.0240*%
%ADD11C,0.0060*%
%ADD12C,0.0040*%
%ADD13C,0.0050*%
%ADD14C,0.0020*%
D10*
X000220Y000245D02*
X017220Y000245D01*
X017220Y012245D01*
X000220Y012245D01*
X000220Y000245D01*
D11*
X010750Y001275D02*
X010750Y001916D01*
X010964Y001702D01*
X011177Y001916D01*
X011177Y001275D01*
X011395Y001275D02*
X011395Y001916D01*
X011715Y001916D01*
X011822Y001809D01*
X011822Y001595D01*
X011715Y001489D01*
X011395Y001489D01*
X011608Y001489D02*
X011822Y001275D01*
X012039Y001275D02*
X012359Y001275D01*
X012466Y001382D01*
X012466Y001809D01*
X012359Y001916D01*
X012039Y001916D01*
X012039Y001275D01*
X012897Y001275D02*
X012897Y001916D01*
X012684Y001916D02*
X013111Y001916D01*
X013750Y002739D02*
X013964Y002525D01*
X014177Y002739D01*
X014177Y003166D01*
X013750Y003166D02*
X013750Y002739D01*
X013964Y003525D02*
X013964Y004166D01*
X014177Y004166D02*
X013750Y004166D01*
X013857Y004525D02*
X014070Y004525D01*
X014177Y004632D01*
X014177Y004845D01*
X013964Y004845D01*
X014177Y005059D02*
X014070Y005166D01*
X013857Y005166D01*
X013750Y005059D01*
X013750Y004632D01*
X013857Y004525D01*
X014214Y005632D02*
X014214Y006059D01*
X014427Y005845D02*
X014000Y005845D01*
X014250Y006845D02*
X014677Y006845D01*
X002177Y008095D02*
X001750Y008095D01*
X001964Y010382D02*
X001964Y010809D01*
X002177Y010595D02*
X001750Y010595D01*
D12*
X001814Y011265D02*
X001814Y011725D01*
X001661Y011725D02*
X001968Y011725D01*
X002121Y011725D02*
X002428Y011725D01*
X002275Y011725D02*
X002275Y011265D01*
X002582Y011265D02*
X002888Y011265D01*
X003042Y011265D02*
X003042Y011725D01*
X003272Y011725D01*
X003349Y011649D01*
X003349Y011495D01*
X003272Y011418D01*
X003042Y011418D01*
X003195Y011418D02*
X003349Y011265D01*
X003656Y011265D02*
X003656Y011495D01*
X003809Y011649D01*
X003809Y011725D01*
X003656Y011495D02*
X003502Y011649D01*
X003502Y011725D01*
X002888Y011725D02*
X002582Y011725D01*
X002582Y011265D01*
X002582Y011495D02*
X002735Y011495D01*
X001507Y011495D02*
X001200Y011495D01*
X001200Y011572D02*
X001354Y011725D01*
X001507Y011572D01*
X001507Y011265D01*
X001200Y011265D02*
X001200Y011572D01*
X001047Y011572D02*
X000970Y011495D01*
X000740Y011495D01*
X000970Y011495D02*
X001047Y011418D01*
X001047Y011342D01*
X000970Y011265D01*
X000740Y011265D01*
X000740Y011725D01*
X000970Y011725D01*
X001047Y011649D01*
X001047Y011572D01*
X004744Y011649D02*
X004744Y011342D01*
X004821Y011265D01*
X004975Y011265D01*
X005051Y011342D01*
X005051Y011649D01*
X004975Y011725D01*
X004821Y011725D01*
X004744Y011649D01*
X005205Y011572D02*
X005358Y011725D01*
X005358Y011265D01*
X005205Y011265D02*
X005512Y011265D01*
X005051Y011265D02*
X004898Y011418D01*
X011149Y010745D02*
X011149Y010438D01*
X011379Y010438D01*
X011303Y010591D01*
X011303Y010668D01*
X011379Y010745D01*
X011533Y010745D01*
X011609Y010668D01*
X011609Y010515D01*
X011533Y010438D01*
X011533Y010285D02*
X011609Y010208D01*
X011609Y010054D01*
X011533Y009978D01*
X011226Y009978D01*
X011149Y010054D01*
X011149Y010208D01*
X011226Y010285D01*
X010297Y008635D02*
X010374Y008558D01*
X010374Y008481D01*
X010297Y008405D01*
X010374Y008328D01*
X010374Y008251D01*
X010297Y008174D01*
X010144Y008174D01*
X010067Y008251D01*
X009914Y008174D02*
X009760Y008328D01*
X009837Y008328D02*
X009607Y008328D01*
X009837Y008328D02*
X009914Y008405D01*
X009914Y008558D01*
X009837Y008635D01*
X009607Y008635D01*
X009607Y008174D01*
X010220Y008405D02*
X010297Y008405D01*
X010067Y008558D02*
X010144Y008635D01*
X010297Y008635D01*
X010453Y007816D02*
X010683Y007816D01*
X010760Y007739D01*
X010760Y007586D01*
X010683Y007509D01*
X010453Y007509D01*
X010606Y007509D02*
X010760Y007356D01*
X010913Y007356D02*
X011220Y007662D01*
X011220Y007739D01*
X011143Y007816D01*
X010990Y007816D01*
X010913Y007739D01*
X010453Y007816D02*
X010453Y007356D01*
X010913Y007356D02*
X011220Y007356D01*
X013315Y007735D02*
X013392Y007659D01*
X013545Y007659D01*
X013622Y007735D01*
X013622Y008042D01*
X013545Y008119D01*
X013392Y008119D01*
X013315Y008042D01*
X013315Y007735D01*
X013468Y007812D02*
X013622Y007659D01*
X013775Y007735D02*
X013852Y007659D01*
X014005Y007659D01*
X014082Y007735D01*
X014082Y007812D01*
X014005Y007889D01*
X013929Y007889D01*
X014005Y007889D02*
X014082Y007966D01*
X014082Y008042D01*
X014005Y008119D01*
X013852Y008119D01*
X013775Y008042D01*
X014324Y008119D02*
X014324Y007659D01*
X014631Y007659D01*
X014784Y007659D02*
X014784Y008119D01*
X014937Y007966D01*
X015091Y008119D01*
X015091Y007659D01*
X015244Y007735D02*
X015321Y007659D01*
X015475Y007659D01*
X015551Y007735D01*
X015551Y007812D01*
X015475Y007889D01*
X015398Y007889D01*
X015475Y007889D02*
X015551Y007966D01*
X015551Y008042D01*
X015475Y008119D01*
X015321Y008119D01*
X015244Y008042D01*
X015705Y008119D02*
X015705Y007889D01*
X015858Y007966D01*
X015935Y007966D01*
X016012Y007889D01*
X016012Y007735D01*
X015935Y007659D01*
X015782Y007659D01*
X015705Y007735D01*
X015705Y008119D02*
X016012Y008119D01*
X007720Y004739D02*
X007643Y004816D01*
X007490Y004816D01*
X007413Y004739D01*
X007260Y004739D02*
X007183Y004816D01*
X007029Y004816D01*
X006953Y004739D01*
X006953Y004432D01*
X007029Y004356D01*
X007183Y004356D01*
X007260Y004432D01*
X007413Y004356D02*
X007720Y004662D01*
X007720Y004739D01*
X007720Y004356D02*
X007413Y004356D01*
X009744Y003149D02*
X009821Y003225D01*
X009975Y003225D01*
X010051Y003149D01*
X010051Y002842D01*
X009975Y002765D01*
X009821Y002765D01*
X009744Y002842D01*
X009744Y003149D01*
X009898Y002918D02*
X010051Y002765D01*
X010205Y002765D02*
X010512Y003072D01*
X010512Y003149D01*
X010435Y003225D01*
X010282Y003225D01*
X010205Y003149D01*
X010205Y002765D02*
X010512Y002765D01*
X010214Y002399D02*
X010137Y002399D01*
X010060Y002322D01*
X010060Y002092D01*
X010214Y002092D01*
X010291Y002169D01*
X010291Y002322D01*
X010214Y002399D01*
X009907Y002245D02*
X009830Y002399D01*
X009907Y002245D02*
X010060Y002092D01*
X009907Y001939D02*
X009830Y001862D01*
X009830Y001708D01*
X009907Y001632D01*
X010214Y001632D01*
X010291Y001708D01*
X010291Y001862D01*
X010214Y001939D01*
X009291Y001862D02*
X009291Y001708D01*
X009214Y001632D01*
X008907Y001632D01*
X008830Y001708D01*
X008830Y001862D01*
X008907Y001939D01*
X008830Y002092D02*
X008830Y002399D01*
X008907Y002399D01*
X009214Y002092D01*
X009291Y002092D01*
X009214Y001939D02*
X009291Y001862D01*
X010740Y001225D02*
X010970Y001225D01*
X011047Y001149D01*
X011047Y001072D01*
X010970Y000995D01*
X010740Y000995D01*
X010740Y000765D02*
X010970Y000765D01*
X011047Y000842D01*
X011047Y000918D01*
X010970Y000995D01*
X011200Y000842D02*
X011277Y000918D01*
X011507Y000918D01*
X011507Y000995D02*
X011507Y000765D01*
X011277Y000765D01*
X011200Y000842D01*
X011431Y001072D02*
X011507Y000995D01*
X011431Y001072D02*
X011277Y001072D01*
X011661Y001072D02*
X011814Y001072D01*
X011738Y001149D02*
X011738Y000842D01*
X011814Y000765D01*
X012044Y000842D02*
X012121Y000765D01*
X012044Y000842D02*
X012044Y001149D01*
X011968Y001072D02*
X012121Y001072D01*
X012275Y000995D02*
X012351Y001072D01*
X012505Y001072D01*
X012582Y000995D01*
X012582Y000918D01*
X012275Y000918D01*
X012275Y000842D02*
X012275Y000995D01*
X012275Y000842D02*
X012351Y000765D01*
X012505Y000765D01*
X012735Y000765D02*
X012735Y001072D01*
X012888Y001072D02*
X012965Y001072D01*
X012888Y001072D02*
X012735Y000918D01*
X013119Y000842D02*
X013195Y000765D01*
X013426Y000765D01*
X013426Y000688D02*
X013349Y000612D01*
X013272Y000612D01*
X013426Y000688D02*
X013426Y001072D01*
X013119Y001072D02*
X013119Y000842D01*
X014039Y000918D02*
X014270Y000918D01*
X014346Y000995D01*
X014346Y001149D01*
X014270Y001225D01*
X014039Y001225D01*
X014039Y000765D01*
X014500Y000765D02*
X014500Y001072D01*
X014653Y001072D02*
X014500Y000918D01*
X014653Y001072D02*
X014730Y001072D01*
X014884Y000995D02*
X014884Y000842D01*
X014960Y000765D01*
X015114Y000765D01*
X015190Y000842D01*
X015190Y000995D01*
X015114Y001072D01*
X014960Y001072D01*
X014884Y000995D01*
X015344Y001072D02*
X015497Y001072D01*
X015421Y001149D02*
X015421Y000842D01*
X015497Y000765D01*
X015651Y000842D02*
X015651Y000995D01*
X015728Y001072D01*
X015881Y001072D01*
X015958Y000995D01*
X015958Y000918D01*
X015651Y000918D01*
X015651Y000842D02*
X015728Y000765D01*
X015881Y000765D01*
X016111Y000842D02*
X016111Y000995D01*
X016188Y001072D01*
X016418Y001072D01*
X016572Y001072D02*
X016725Y001072D01*
X016648Y001149D02*
X016648Y000842D01*
X016725Y000765D01*
X016879Y000765D02*
X017032Y000765D01*
X016955Y000765D02*
X016955Y001072D01*
X016879Y001072D01*
X016955Y001225D02*
X016955Y001302D01*
X017262Y001072D02*
X017185Y000995D01*
X017185Y000842D01*
X017262Y000765D01*
X017416Y000765D01*
X017492Y000842D01*
X017492Y000995D01*
X017416Y001072D01*
X017262Y001072D01*
X017646Y001072D02*
X017876Y001072D01*
X017953Y000995D01*
X017953Y000765D01*
X017646Y000765D02*
X017646Y001072D01*
X016418Y000765D02*
X016188Y000765D01*
X016111Y000842D01*
X015973Y001765D02*
X016049Y001842D01*
X016049Y002225D01*
X015973Y002225D02*
X016126Y002225D01*
X016280Y002149D02*
X016356Y002225D01*
X016510Y002225D01*
X016587Y002149D01*
X016587Y002072D01*
X016280Y001765D01*
X016587Y001765D01*
X015973Y001765D02*
X015896Y001765D01*
X015819Y001842D01*
X013291Y003132D02*
X012830Y003132D01*
X012830Y003362D01*
X012907Y003439D01*
X013060Y003439D01*
X013137Y003362D01*
X013137Y003132D01*
X013137Y003285D02*
X013291Y003439D01*
X013060Y003592D02*
X013060Y003899D01*
X012830Y003822D02*
X013060Y003592D01*
X013291Y003822D02*
X012830Y003822D01*
X006770Y001832D02*
X006617Y001755D01*
X006463Y001601D01*
X006693Y001601D01*
X006770Y001525D01*
X006770Y001448D01*
X006693Y001371D01*
X006540Y001371D01*
X006463Y001448D01*
X006463Y001601D01*
X006310Y001601D02*
X006003Y001601D01*
X006233Y001832D01*
X006233Y001371D01*
X005849Y001371D02*
X005543Y001371D01*
X005696Y001371D02*
X005696Y001832D01*
X005543Y001678D01*
X005389Y001678D02*
X005389Y001371D01*
X005082Y001371D02*
X005082Y001678D01*
X005236Y001832D01*
X005389Y001678D01*
X005389Y001601D02*
X005082Y001601D01*
X004929Y001371D02*
X004622Y001832D01*
X004622Y001371D01*
X004468Y001371D02*
X004315Y001371D01*
X004392Y001371D02*
X004392Y001832D01*
X004468Y001832D02*
X004315Y001832D01*
X004929Y001832D02*
X004929Y001371D01*
X005392Y002159D02*
X005315Y002235D01*
X005315Y002542D01*
X005392Y002619D01*
X005545Y002619D01*
X005622Y002542D01*
X005622Y002235D01*
X005545Y002159D01*
X005392Y002159D01*
X005468Y002312D02*
X005622Y002159D01*
X005775Y002389D02*
X006082Y002389D01*
X006005Y002159D02*
X006005Y002619D01*
X005775Y002389D01*
X001720Y003432D02*
X001643Y003356D01*
X001490Y003356D01*
X001413Y003432D01*
X001413Y003586D01*
X001643Y003586D01*
X001720Y003509D01*
X001720Y003432D01*
X001609Y003554D02*
X001609Y003708D01*
X001533Y003785D01*
X001566Y003739D02*
X001413Y003586D01*
X001260Y003586D02*
X001183Y003509D01*
X000953Y003509D01*
X001106Y003509D02*
X001260Y003356D01*
X001226Y003478D02*
X001533Y003478D01*
X001609Y003554D01*
X001566Y003739D02*
X001720Y003816D01*
X001533Y003938D02*
X001609Y004015D01*
X001609Y004168D01*
X001533Y004245D01*
X001456Y004245D01*
X001379Y004168D01*
X001379Y004091D01*
X001379Y004168D02*
X001303Y004245D01*
X001226Y004245D01*
X001149Y004168D01*
X001149Y004015D01*
X001226Y003938D01*
X001183Y003816D02*
X001260Y003739D01*
X001260Y003586D01*
X001226Y003478D02*
X001149Y003554D01*
X001149Y003708D01*
X001226Y003785D01*
X001183Y003816D02*
X000953Y003816D01*
X000953Y003356D01*
X000953Y001316D02*
X001183Y001316D01*
X001260Y001239D01*
X001260Y001086D01*
X001183Y001009D01*
X000953Y001009D01*
X001106Y001009D02*
X001260Y000856D01*
X001413Y000932D02*
X001490Y000856D01*
X001643Y000856D01*
X001720Y000932D01*
X001720Y001086D01*
X001643Y001162D01*
X001566Y001162D01*
X001413Y001086D01*
X001413Y001316D01*
X001720Y001316D01*
X000953Y001316D02*
X000953Y000856D01*
X010740Y000765D02*
X010740Y001225D01*
X003768Y007084D02*
X003461Y007084D01*
X003614Y007084D02*
X003614Y007544D01*
X003461Y007391D01*
X003307Y007468D02*
X003307Y007314D01*
X003231Y007237D01*
X003000Y007237D01*
X003000Y007084D02*
X003000Y007544D01*
X003231Y007544D01*
X003307Y007468D01*
X003154Y007237D02*
X003307Y007084D01*
X001507Y007765D02*
X001200Y007765D01*
X001354Y007765D02*
X001354Y008225D01*
X001200Y008072D01*
X001047Y008225D02*
X000893Y008225D01*
X000970Y008225D02*
X000970Y007842D01*
X000893Y007765D01*
X000817Y007765D01*
X000740Y007842D01*
X004453Y008432D02*
X004529Y008356D01*
X004683Y008356D01*
X004760Y008432D01*
X004453Y008432D02*
X004453Y008739D01*
X004529Y008816D01*
X004683Y008816D01*
X004760Y008739D01*
X004913Y008586D02*
X005220Y008586D01*
X005143Y008816D02*
X004913Y008586D01*
X005143Y008356D02*
X005143Y008816D01*
X013953Y011932D02*
X013953Y012239D01*
X014029Y012316D01*
X014183Y012316D01*
X014260Y012239D01*
X014413Y012162D02*
X014566Y012316D01*
X014566Y011856D01*
X014413Y011856D02*
X014720Y011856D01*
X014260Y011932D02*
X014183Y011856D01*
X014029Y011856D01*
X013953Y011932D01*
D13*
X013790Y011665D02*
X013790Y010825D01*
X015650Y010825D01*
X015650Y011665D01*
X013790Y011665D01*
X012640Y011675D02*
X012640Y009815D01*
X011800Y009815D01*
X011800Y011675D01*
X012640Y011675D01*
X011640Y010677D02*
X010800Y010677D01*
X010800Y008813D01*
X011640Y008813D01*
X011640Y010677D01*
X010269Y010631D02*
X009171Y010631D01*
X009171Y008859D01*
X010269Y008859D01*
X010269Y010631D01*
X010212Y010040D02*
X010114Y010040D01*
X009228Y010040D01*
X009326Y010040D02*
X009720Y010040D01*
X010114Y010040D01*
X010114Y009450D01*
X009326Y009450D01*
X009326Y010040D01*
X009425Y009942D02*
X009720Y009942D01*
X009720Y010040D01*
X009720Y009942D02*
X009425Y009647D01*
X009720Y009647D01*
X009720Y009450D01*
X009720Y009647D02*
X010015Y009647D01*
X009720Y009942D01*
X010015Y009942D01*
X007448Y011064D02*
X007448Y008426D01*
X005992Y008426D01*
X005992Y011064D01*
X007448Y011064D01*
X004140Y010175D02*
X003300Y010175D01*
X003300Y008315D01*
X004140Y008315D01*
X004140Y010175D01*
X002850Y010245D02*
X002245Y010245D01*
X002245Y008245D01*
X000350Y008245D01*
X000350Y010245D01*
X002245Y010245D01*
X002850Y010245D02*
X002850Y008245D01*
X002245Y008245D01*
X003931Y007444D02*
X006549Y007444D01*
X006549Y006046D01*
X003931Y006046D01*
X003931Y007444D01*
X008288Y007665D02*
X008288Y006825D01*
X010152Y006825D01*
X010152Y007665D01*
X008288Y007665D01*
X008992Y006064D02*
X010448Y006064D01*
X010448Y003426D01*
X008992Y003426D01*
X008992Y006064D01*
X011800Y005177D02*
X012640Y005177D01*
X012640Y003313D01*
X011800Y003313D01*
X011800Y005177D01*
X014590Y007245D02*
X015195Y007245D01*
X015195Y002245D01*
X014590Y002245D01*
X014590Y007245D01*
X015195Y007245D02*
X017090Y007245D01*
X017090Y002245D01*
X015195Y002245D01*
X009640Y002675D02*
X009640Y000815D01*
X008800Y000815D01*
X008800Y002675D01*
X009640Y002675D01*
X008640Y002675D02*
X007800Y002675D01*
X007800Y000815D01*
X008640Y000815D01*
X008640Y002675D01*
X006640Y002815D02*
X005800Y002815D01*
X005800Y004675D01*
X006640Y004675D01*
X006640Y002815D01*
X005204Y002958D02*
X003236Y002958D01*
X003236Y004532D01*
X005204Y004532D01*
X005204Y002958D01*
X002652Y003165D02*
X002652Y002325D01*
X000788Y002325D01*
X000788Y003165D01*
X002652Y003165D01*
X002640Y003315D02*
X001800Y003315D01*
X001800Y005175D01*
X002640Y005175D01*
X002640Y003315D01*
X004770Y004139D02*
X004772Y004162D01*
X004778Y004184D01*
X004787Y004205D01*
X004799Y004224D01*
X004815Y004241D01*
X004833Y004255D01*
X004853Y004266D01*
X004875Y004274D01*
X004898Y004278D01*
X004920Y004278D01*
X004943Y004274D01*
X004965Y004266D01*
X004985Y004255D01*
X005003Y004241D01*
X005019Y004224D01*
X005031Y004205D01*
X005040Y004184D01*
X005046Y004162D01*
X005048Y004139D01*
X005046Y004116D01*
X005040Y004094D01*
X005031Y004073D01*
X005019Y004054D01*
X005003Y004037D01*
X004985Y004023D01*
X004965Y004012D01*
X004943Y004004D01*
X004920Y004000D01*
X004898Y004000D01*
X004875Y004004D01*
X004853Y004012D01*
X004833Y004023D01*
X004815Y004037D01*
X004799Y004054D01*
X004787Y004073D01*
X004778Y004094D01*
X004772Y004116D01*
X004770Y004139D01*
X003652Y001665D02*
X001788Y001665D01*
X001788Y000825D01*
X003652Y000825D01*
X003652Y001665D01*
X013933Y008261D02*
X015507Y008261D01*
X015507Y010229D01*
X013933Y010229D01*
X013933Y008261D01*
X014187Y009934D02*
X014189Y009957D01*
X014195Y009979D01*
X014204Y010000D01*
X014216Y010019D01*
X014232Y010036D01*
X014250Y010050D01*
X014270Y010061D01*
X014292Y010069D01*
X014315Y010073D01*
X014337Y010073D01*
X014360Y010069D01*
X014382Y010061D01*
X014402Y010050D01*
X014420Y010036D01*
X014436Y010019D01*
X014448Y010000D01*
X014457Y009979D01*
X014463Y009957D01*
X014465Y009934D01*
X014463Y009911D01*
X014457Y009889D01*
X014448Y009868D01*
X014436Y009849D01*
X014420Y009832D01*
X014402Y009818D01*
X014382Y009807D01*
X014360Y009799D01*
X014337Y009795D01*
X014315Y009795D01*
X014292Y009799D01*
X014270Y009807D01*
X014250Y009818D01*
X014232Y009832D01*
X014216Y009849D01*
X014204Y009868D01*
X014195Y009889D01*
X014189Y009911D01*
X014187Y009934D01*
D14*
X010639Y010100D02*
X010639Y010247D01*
X010639Y010321D02*
X010639Y010468D01*
X010639Y010395D02*
X010419Y010395D01*
X010492Y010321D01*
X010455Y010247D02*
X010602Y010100D01*
X010639Y010100D01*
X010419Y010100D02*
X010419Y010247D01*
X010455Y010247D01*
M02*
