G75*
%MOIN*%
%OFA0B0*%
%FSLAX24Y24*%
%IPPOS*%
%LPD*%
%AMOC8*
5,1,8,0,0,1.08239X$1,22.5*
%
%ADD10C,0.0594*%
%ADD11C,0.0515*%
%ADD12R,0.0800X0.0800*%
%ADD13C,0.0800*%
%ADD14C,0.0945*%
%ADD15R,0.1050X0.1050*%
%ADD16C,0.0740*%
%ADD17C,0.0160*%
%ADD18C,0.1000*%
D10*
X012350Y001767D03*
X013350Y001767D03*
X014350Y001767D03*
X015350Y001767D03*
X014850Y002767D03*
X013850Y002767D03*
X012850Y002767D03*
X015850Y002767D03*
X024350Y001767D03*
X025350Y001767D03*
X026350Y001767D03*
X027350Y001767D03*
X026850Y002767D03*
X025850Y002767D03*
X024850Y002767D03*
X027850Y002767D03*
X036350Y001767D03*
X037350Y001767D03*
X038350Y001767D03*
X039350Y001767D03*
X038850Y002767D03*
X037850Y002767D03*
X036850Y002767D03*
X039850Y002767D03*
X048350Y001767D03*
X049350Y001767D03*
X050350Y001767D03*
X051350Y001767D03*
X050850Y002767D03*
X049850Y002767D03*
X048850Y002767D03*
X051850Y002767D03*
X060350Y001767D03*
X061350Y001767D03*
X062350Y001767D03*
X063350Y001767D03*
X062850Y002767D03*
X061850Y002767D03*
X060850Y002767D03*
X063850Y002767D03*
X072350Y001767D03*
X073350Y001767D03*
X074350Y001767D03*
X075350Y001767D03*
X074850Y002767D03*
X073850Y002767D03*
X072850Y002767D03*
X075850Y002767D03*
X075850Y011433D03*
X074850Y011433D03*
X073850Y011433D03*
X072850Y011433D03*
X072350Y012433D03*
X073350Y012433D03*
X074350Y012433D03*
X075350Y012433D03*
X063850Y011433D03*
X062850Y011433D03*
X061850Y011433D03*
X060850Y011433D03*
X060350Y012433D03*
X061350Y012433D03*
X062350Y012433D03*
X063350Y012433D03*
X051850Y011433D03*
X050850Y011433D03*
X049850Y011433D03*
X048850Y011433D03*
X048350Y012433D03*
X049350Y012433D03*
X050350Y012433D03*
X051350Y012433D03*
X039850Y011433D03*
X038850Y011433D03*
X037850Y011433D03*
X036850Y011433D03*
X036350Y012433D03*
X037350Y012433D03*
X038350Y012433D03*
X039350Y012433D03*
X027850Y011433D03*
X026850Y011433D03*
X025850Y011433D03*
X024850Y011433D03*
X024350Y012433D03*
X025350Y012433D03*
X026350Y012433D03*
X027350Y012433D03*
X015850Y011433D03*
X014850Y011433D03*
X013850Y011433D03*
X012850Y011433D03*
X012350Y012433D03*
X013350Y012433D03*
X014350Y012433D03*
X015350Y012433D03*
X026850Y023433D03*
X027850Y023433D03*
X028850Y023433D03*
X029850Y023433D03*
X029350Y024433D03*
X028350Y024433D03*
X027350Y024433D03*
X026350Y024433D03*
X037350Y024433D03*
X038350Y024433D03*
X039350Y024433D03*
X040350Y024433D03*
X039850Y023433D03*
X038850Y023433D03*
X037850Y023433D03*
X040850Y023433D03*
X048350Y024433D03*
X049350Y024433D03*
X050350Y024433D03*
X051350Y024433D03*
X050850Y023433D03*
X049850Y023433D03*
X048850Y023433D03*
X051850Y023433D03*
X059350Y024433D03*
X060350Y024433D03*
X061350Y024433D03*
X062350Y024433D03*
X061850Y023433D03*
X060850Y023433D03*
X059850Y023433D03*
X062850Y023433D03*
X062850Y035767D03*
X061850Y035767D03*
X060850Y035767D03*
X059850Y035767D03*
X059350Y036767D03*
X060350Y036767D03*
X061350Y036767D03*
X062350Y036767D03*
X070350Y036767D03*
X071350Y036767D03*
X072350Y036767D03*
X073350Y036767D03*
X072850Y035767D03*
X071850Y035767D03*
X070850Y035767D03*
X073850Y035767D03*
X081350Y036767D03*
X082350Y036767D03*
X083350Y036767D03*
X084350Y036767D03*
X083850Y035767D03*
X082850Y035767D03*
X081850Y035767D03*
X084850Y035767D03*
X051850Y035767D03*
X050850Y035767D03*
X049850Y035767D03*
X048850Y035767D03*
X048350Y036767D03*
X049350Y036767D03*
X050350Y036767D03*
X051350Y036767D03*
X040850Y035767D03*
X039850Y035767D03*
X038850Y035767D03*
X037850Y035767D03*
X037350Y036767D03*
X038350Y036767D03*
X039350Y036767D03*
X040350Y036767D03*
X029850Y035767D03*
X028850Y035767D03*
X027850Y035767D03*
X026850Y035767D03*
X026350Y036767D03*
X027350Y036767D03*
X028350Y036767D03*
X029350Y036767D03*
X018850Y035767D03*
X017850Y035767D03*
X016850Y035767D03*
X015850Y035767D03*
X015350Y036767D03*
X016350Y036767D03*
X017350Y036767D03*
X018350Y036767D03*
X007850Y035767D03*
X006850Y035767D03*
X005850Y035767D03*
X004850Y035767D03*
X004350Y036767D03*
X005350Y036767D03*
X006350Y036767D03*
X007350Y036767D03*
D11*
X035822Y030148D03*
X036322Y030898D03*
X036822Y030148D03*
X037322Y030898D03*
X037822Y030148D03*
X038322Y030898D03*
X038822Y030148D03*
X039322Y030898D03*
X039822Y030148D03*
X040322Y030898D03*
X040822Y030148D03*
X041322Y030898D03*
X041822Y030148D03*
X042322Y030898D03*
X042822Y030148D03*
X043322Y030898D03*
X043822Y030148D03*
X044322Y030898D03*
X044822Y030148D03*
X045322Y030898D03*
X045822Y030148D03*
X046322Y030898D03*
X046822Y030148D03*
X047322Y030898D03*
X047822Y030148D03*
X048322Y030898D03*
X048822Y030148D03*
X049322Y030898D03*
X049822Y030148D03*
X050322Y030898D03*
X050822Y030148D03*
X051322Y030898D03*
X051822Y030148D03*
X052322Y030898D03*
X052322Y029398D03*
X051322Y029398D03*
X050322Y029398D03*
X049322Y029398D03*
X048322Y029398D03*
X047322Y029398D03*
X046322Y029398D03*
X045322Y029398D03*
X044322Y029398D03*
X043322Y029398D03*
X042822Y028648D03*
X041822Y028648D03*
X040822Y028648D03*
X039822Y028648D03*
X038822Y028648D03*
X037822Y028648D03*
X036822Y028648D03*
X036322Y029398D03*
X037322Y029398D03*
X038322Y029398D03*
X039322Y029398D03*
X040322Y029398D03*
X041322Y029398D03*
X042322Y029398D03*
X043822Y028648D03*
X044822Y028648D03*
X045822Y028648D03*
X046822Y028648D03*
X047822Y028648D03*
X048822Y028648D03*
X049822Y028648D03*
X050822Y028648D03*
X051822Y028648D03*
X035822Y028648D03*
D12*
X021100Y028100D03*
X021100Y017100D03*
X066100Y025100D03*
X074100Y027600D03*
X083600Y029100D03*
X083600Y021100D03*
X083600Y013600D03*
X083600Y006100D03*
D13*
X084978Y006100D03*
X084978Y013600D03*
X084978Y021100D03*
X074100Y026222D03*
X067478Y025100D03*
X084978Y029100D03*
X022478Y028100D03*
X022478Y017100D03*
D14*
X017210Y016950D03*
X015230Y016950D03*
X013250Y016950D03*
X007710Y016950D03*
X005730Y016950D03*
X003750Y016950D03*
X003750Y022450D03*
X005730Y022450D03*
X007710Y022450D03*
X013250Y022450D03*
X015230Y022450D03*
X017210Y022450D03*
X017210Y027950D03*
X015230Y027950D03*
X013250Y027950D03*
X007710Y027950D03*
X005730Y027950D03*
X003750Y027950D03*
D15*
X065600Y027600D03*
X068100Y027600D03*
X076600Y028100D03*
X076600Y025600D03*
X083100Y023600D03*
X085600Y023600D03*
X085600Y016100D03*
X083100Y016100D03*
X083100Y008600D03*
X085600Y008600D03*
X085600Y031600D03*
X083100Y031600D03*
D16*
X052100Y015850D03*
X051100Y015850D03*
X050100Y015850D03*
X049100Y015850D03*
X048100Y015850D03*
X047100Y015850D03*
X046100Y015850D03*
X045100Y015850D03*
X044100Y015850D03*
X043100Y015850D03*
X042100Y015850D03*
X041100Y015850D03*
X040100Y015850D03*
X039100Y015850D03*
X038100Y015850D03*
X037100Y015850D03*
D17*
X040850Y023433D02*
X044933Y023433D01*
X048350Y026850D01*
X048350Y029371D01*
X048322Y029398D01*
X047350Y029371D02*
X047350Y027600D01*
X045350Y025600D01*
X029100Y025600D01*
X028850Y025350D01*
X028850Y023433D01*
X027350Y024433D02*
X027350Y024850D01*
X028600Y026100D01*
X045100Y026100D01*
X046850Y027850D01*
X046850Y028621D01*
X046822Y028648D01*
X047822Y028648D02*
X047822Y027322D01*
X045100Y024600D01*
X040517Y024600D01*
X040350Y024433D01*
X049350Y024433D02*
X049350Y025850D01*
X050850Y027350D01*
X050850Y028621D01*
X050822Y028648D01*
X051350Y029371D02*
X051350Y026600D01*
X050850Y026100D01*
X050850Y023433D01*
X051350Y029371D02*
X051322Y029398D01*
X051322Y030898D02*
X051322Y031322D01*
X052100Y032100D01*
X076683Y032100D01*
X081350Y036767D01*
X071350Y036767D02*
X071350Y033350D01*
X070600Y032600D01*
X052024Y032600D01*
X050322Y030898D01*
X049322Y030898D02*
X052024Y033600D01*
X068600Y033600D01*
X070350Y035350D01*
X070350Y036767D01*
X060350Y036767D02*
X060350Y034850D01*
X059600Y034100D01*
X051524Y034100D01*
X048322Y030898D01*
X047350Y030926D02*
X047350Y031600D01*
X050350Y034600D01*
X058100Y034600D01*
X059350Y035850D01*
X059350Y036767D01*
X050850Y035767D02*
X047183Y032100D01*
X046100Y032100D01*
X045822Y031822D01*
X045822Y030148D01*
X044822Y030148D02*
X044822Y031740D01*
X048850Y035767D01*
X043350Y034600D02*
X042850Y035100D01*
X037600Y035100D01*
X037350Y035350D01*
X037350Y036767D01*
X041850Y034600D02*
X028100Y034600D01*
X027350Y035350D01*
X027350Y036767D01*
X026350Y036767D02*
X026350Y034850D01*
X027100Y034100D01*
X038121Y034100D01*
X041322Y030898D01*
X040322Y030898D02*
X037621Y033600D01*
X017600Y033600D01*
X016350Y034850D01*
X016350Y036767D01*
X015850Y035767D02*
X015850Y034600D01*
X017350Y033100D01*
X037100Y033100D01*
X038822Y031378D01*
X038822Y030148D01*
X038322Y030898D02*
X037121Y032100D01*
X006600Y032100D01*
X005350Y033350D01*
X005350Y036767D01*
X004850Y035767D02*
X004850Y032850D01*
X006100Y031600D01*
X036600Y031600D01*
X036850Y031350D01*
X036850Y030176D01*
X036822Y030148D01*
X042322Y030898D02*
X042350Y030926D01*
X042350Y034100D01*
X041850Y034600D01*
X043350Y034600D02*
X043350Y030926D01*
X043322Y030898D01*
X047322Y030898D02*
X047350Y030926D01*
X047322Y029398D02*
X047350Y029371D01*
D18*
X017210Y027950D02*
X017100Y027840D01*
X017100Y026850D01*
X016350Y026100D01*
X009100Y026100D01*
X007710Y027490D01*
X007710Y027950D01*
M02*
