%
M48
M72
T01C0.0315
T02C0.0394
T03C0.0400
T04C0.0472
T05C0.0630
T06C0.0700
T07C0.1000
T08C0.1260
T09C0.2180
%
T01
X35822Y28648
X36322Y29398
X37322Y29398
X38322Y29398
X39322Y29398
X40322Y29398
X41322Y29398
X42322Y29398
X41822Y28648
X40822Y28648
X39822Y28648
X38822Y28648
X37822Y28648
X36822Y28648
X36822Y30148
X36322Y30898
X35822Y30148
X37322Y30898
X37822Y30148
X38322Y30898
X38822Y30148
X39322Y30898
X39822Y30148
X40322Y30898
X40822Y30148
X41322Y30898
X41822Y30148
X42322Y30898
X42822Y30148
X43322Y30898
X43822Y30148
X44322Y30898
X44822Y30148
X45322Y30898
X45822Y30148
X46322Y30898
X46822Y30148
X47322Y30898
X47822Y30148
X48322Y30898
X48822Y30148
X49322Y30898
X49822Y30148
X50322Y30898
X50822Y30148
X51322Y30898
X51822Y30148
X52322Y30898
X52322Y29398
X51322Y29398
X50322Y29398
X49322Y29398
X48322Y29398
X47322Y29398
X46322Y29398
X45322Y29398
X44322Y29398
X43322Y29398
X42822Y28648
X43822Y28648
X44822Y28648
X45822Y28648
X46822Y28648
X47822Y28648
X48822Y28648
X49822Y28648
X50822Y28648
X51822Y28648
T02
X51350Y24433
X50350Y24433
X49350Y24433
X48350Y24433
X48850Y23433
X49850Y23433
X50850Y23433
X51850Y23433
X59350Y24433
X60350Y24433
X61350Y24433
X62350Y24433
X61850Y23433
X60850Y23433
X59850Y23433
X62850Y23433
X62350Y12433
X61350Y12433
X60350Y12433
X60850Y11433
X61850Y11433
X62850Y11433
X63850Y11433
X63350Y12433
X72350Y12433
X73350Y12433
X74350Y12433
X75350Y12433
X74850Y11433
X73850Y11433
X72850Y11433
X75850Y11433
X75850Y2767
X74850Y2767
X73850Y2767
X72850Y2767
X72350Y1767
X73350Y1767
X74350Y1767
X75350Y1767
X63850Y2767
X62850Y2767
X61850Y2767
X60850Y2767
X60350Y1767
X61350Y1767
X62350Y1767
X63350Y1767
X51850Y2767
X50850Y2767
X49850Y2767
X48850Y2767
X48350Y1767
X49350Y1767
X50350Y1767
X51350Y1767
X39850Y2767
X38850Y2767
X37850Y2767
X36850Y2767
X36350Y1767
X37350Y1767
X38350Y1767
X39350Y1767
X27850Y2767
X26850Y2767
X25850Y2767
X24850Y2767
X24350Y1767
X25350Y1767
X26350Y1767
X27350Y1767
X15850Y2767
X14850Y2767
X13850Y2767
X12850Y2767
X12350Y1767
X13350Y1767
X14350Y1767
X15350Y1767
X14850Y11433
X13850Y11433
X12850Y11433
X12350Y12433
X13350Y12433
X14350Y12433
X15350Y12433
X15850Y11433
X24350Y12433
X25350Y12433
X26350Y12433
X27350Y12433
X26850Y11433
X25850Y11433
X24850Y11433
X27850Y11433
X36350Y12433
X37350Y12433
X38350Y12433
X39350Y12433
X38850Y11433
X37850Y11433
X36850Y11433
X39850Y11433
X48350Y12433
X49350Y12433
X50350Y12433
X51350Y12433
X50850Y11433
X49850Y11433
X48850Y11433
X51850Y11433
X40850Y23433
X39850Y23433
X38850Y23433
X37850Y23433
X37350Y24433
X38350Y24433
X39350Y24433
X40350Y24433
X29850Y23433
X28850Y23433
X27850Y23433
X26850Y23433
X26350Y24433
X27350Y24433
X28350Y24433
X29350Y24433
X28850Y35767
X27850Y35767
X26850Y35767
X26350Y36767
X27350Y36767
X28350Y36767
X29350Y36767
X29850Y35767
X37350Y36767
X38350Y36767
X39350Y36767
X40350Y36767
X39850Y35767
X38850Y35767
X37850Y35767
X40850Y35767
X48350Y36767
X49350Y36767
X50350Y36767
X51350Y36767
X50850Y35767
X49850Y35767
X48850Y35767
X51850Y35767
X59350Y36767
X60350Y36767
X61350Y36767
X62350Y36767
X61850Y35767
X60850Y35767
X59850Y35767
X62850Y35767
X70350Y36767
X71350Y36767
X72350Y36767
X73350Y36767
X72850Y35767
X71850Y35767
X70850Y35767
X73850Y35767
X81350Y36767
X82350Y36767
X83350Y36767
X84350Y36767
X83850Y35767
X82850Y35767
X81850Y35767
X84850Y35767
X18850Y35767
X17850Y35767
X16850Y35767
X15850Y35767
X15350Y36767
X16350Y36767
X17350Y36767
X18350Y36767
X7850Y35767
X6850Y35767
X5850Y35767
X4850Y35767
X4350Y36767
X5350Y36767
X6350Y36767
X7350Y36767
T03
X37100Y15850
X38100Y15850
X39100Y15850
X40100Y15850
X41100Y15850
X42100Y15850
X43100Y15850
X44100Y15850
X45100Y15850
X46100Y15850
X47100Y15850
X48100Y15850
X49100Y15850
X50100Y15850
X51100Y15850
X52100Y15850
T04
X66100Y25100
X67478Y25100
X74100Y26222
X74100Y27600
X83600Y29100
X84978Y29100
X84978Y21100
X83600Y21100
X83600Y13600
X84978Y13600
X84978Y6100
X83600Y6100
X22478Y17100
X21100Y17100
X21100Y28100
X22478Y28100
T05
X17210Y27950
X15230Y27950
X13250Y27950
X7710Y27950
X5730Y27950
X3750Y27950
X3750Y22450
X5730Y22450
X7710Y22450
X13250Y22450
X15230Y22450
X17210Y22450
X17210Y16950
X15230Y16950
X13250Y16950
X7710Y16950
X5730Y16950
X3750Y16950
T06
X65600Y27600
X68100Y27600
X76600Y28100
X76600Y25600
X83100Y23600
X85600Y23600
X85600Y16100
X83100Y16100
X83100Y8600
X85600Y8600
X85600Y31600
X83100Y31600
T07
X18790Y27950
X9290Y27950
X9290Y22450
X18790Y22450
X18790Y16950
X9290Y16950
T08
X11850Y8933
X16350Y8933
X16350Y5267
X11850Y5267
X5100Y8600
X23850Y8933
X28350Y8933
X28350Y5267
X23850Y5267
X35850Y5267
X40350Y5267
X40350Y8933
X35850Y8933
X47850Y8933
X52350Y8933
X52350Y5267
X47850Y5267
X59850Y5267
X64350Y5267
X64350Y8933
X59850Y8933
X71850Y8933
X76350Y8933
X76350Y5267
X71850Y5267
X61100Y15600
X58850Y20933
X63350Y20933
X71600Y18600
X52350Y20933
X47850Y20933
X41350Y20933
X36850Y20933
X30350Y20933
X25850Y20933
X25850Y39267
X30350Y39267
X36850Y39267
X41350Y39267
X47850Y39267
X52350Y39267
X58850Y39267
X63350Y39267
X69850Y39267
X74350Y39267
X80850Y39267
X85350Y39267
X19350Y39267
X14850Y39267
X8350Y39267
X3850Y39267
T09
X2600Y2600
X20100Y2600
X32100Y2600
X44100Y2600
X56100Y2600
X68100Y2600
X68100Y11600
X56100Y11600
X44100Y11600
X32100Y11600
X20100Y11600
X20100Y44600
X32100Y44600
X44100Y44600
X56100Y44600
X68100Y44600
X86600Y44600
X86600Y2600
X2600Y44600
M30
