%
M48
M72
T01C0.0150
T02C0.0197
T03C0.0236
T04C0.0240
T05C0.0276
T06C0.0315
T07C0.0394
T08C0.0400
T09C0.0472
T10C0.0512
T11C0.0630
T12C0.0930
T13C0.1181
T14C0.1260
%
T01
X13500Y48810
T02
X7313Y34560
X11188Y34123
X13000Y27060
X16375Y24560
X19813Y24560
X21325Y27260
X21225Y27873
X21950Y27260
X19900Y28910
X24550Y23848
X25813Y22373
X25350Y21623
X25463Y21135
X24775Y21198
X24400Y20210
X24445Y19590
X24485Y19090
X24050Y18933
X25608Y20018
X27313Y19185
X28650Y18598
X29250Y20010
X29700Y20135
X31000Y20410
X31450Y20410
X31788Y19785
X33310Y20015
X33688Y21060
X34000Y21498
X34500Y21310
X34965Y21050
X34500Y19960
X34948Y19708
X35500Y17810
X34313Y17560
X34188Y16998
X34063Y16435
X31925Y18035
X31588Y18398
X29500Y21435
X28800Y22010
X28313Y22060
X27688Y22310
X27300Y22585
X28500Y24310
X29375Y24310
X29875Y24310
X30500Y24310
X31438Y24435
X32188Y24498
X32188Y23998
X31338Y22723
X30875Y22760
X24375Y17185
X25750Y15060
X27500Y13810
X26688Y12310
X26938Y11310
X26563Y10935
X26125Y10498
X25750Y10123
X25313Y9685
X26313Y9560
X27000Y9873
X27688Y10310
X28500Y10748
X29313Y11248
X32000Y11623
X31500Y14310
X37625Y15610
X38250Y18123
X40000Y21810
X38500Y22373
X42938Y18873
X43625Y13873
X44000Y13310
X40000Y8623
X40875Y7810
X41750Y7185
X41000Y6310
X40500Y6123
X39438Y3685
X39375Y2373
X35000Y6310
X35000Y7123
X30000Y2310
X17875Y5185
X17500Y4310
X15813Y4935
X14688Y4998
X15063Y3623
X14125Y3685
X13000Y5685
X12688Y6123
X12875Y6623
X12250Y6560
X10188Y15248
X9250Y15248
X9938Y17373
X9625Y18623
X12125Y16498
T03
X13400Y18610
X12200Y20310
X11300Y18910
X12500Y22110
X9000Y24210
X7700Y24410
X4500Y23710
X5550Y27760
X8500Y31810
X10400Y31210
X11200Y30760
X12000Y32010
X10700Y33160
X10100Y34510
X11700Y35760
X13000Y37810
X13100Y40010
X12100Y39910
X10563Y39560
X10100Y38210
X7000Y40010
X6000Y39810
X8000Y42310
X8625Y42248
X9550Y44660
X8000Y44760
X9000Y47910
X9000Y50685
X9718Y51748
X15500Y48310
X16938Y48310
X16950Y47160
X19000Y48310
X20313Y48310
X22500Y48310
X23875Y48310
X26000Y48310
X27500Y48310
X29500Y48310
X31000Y48310
X33250Y48310
X34750Y48310
X36650Y49010
X37000Y48310
X38375Y48310
X38500Y46810
X37000Y46810
X35000Y46310
X33500Y46310
X30500Y46060
X30000Y46123
X27000Y45810
X26500Y45810
X24938Y45498
X24250Y45498
X24813Y43373
X26813Y43435
X28813Y43435
X30750Y43435
X32750Y43435
X30313Y39248
X30500Y37310
X26500Y37310
X22813Y37248
X21500Y35310
X22500Y33310
X22500Y32060
X23000Y31160
X23875Y33310
X27000Y33310
X27000Y31810
X28050Y31310
X29150Y31310
X30188Y31310
X30938Y31310
X31625Y31248
X33313Y31310
X33875Y31810
X34813Y31310
X36125Y30623
X37188Y30998
X38000Y31310
X36875Y33310
X35850Y33260
X35200Y33260
X37600Y34510
X37850Y34998
X40750Y34560
X43375Y34373
X43500Y33460
X44500Y33310
X43400Y32510
X41000Y31310
X40500Y29310
X41200Y28110
X39500Y26210
X38100Y26510
X36700Y24760
X35600Y24710
X35900Y23560
X34000Y23510
X32563Y25310
X32125Y26760
X30650Y26760
X30700Y25710
X30000Y25685
X28500Y27310
X25200Y27410
X25450Y30410
X26000Y30410
X28150Y30210
X29150Y30260
X29550Y33310
X28438Y33310
X31000Y33260
X32313Y33510
X35500Y37310
X37500Y40498
X37500Y41123
X41000Y41310
X41500Y40710
X42000Y42623
X42000Y43935
X43813Y43498
X45750Y43110
X45750Y44560
X48000Y43560
X48000Y42060
X44000Y39810
X46200Y36860
X44500Y36310
X44438Y35685
X43813Y35435
X45375Y34935
X46688Y33373
X48850Y32410
X50100Y32410
X47750Y30810
X47750Y29060
X50450Y27760
X53500Y30310
X48000Y35560
X48000Y37060
X49500Y37810
X53500Y36810
X53500Y43310
X48000Y48560
X48000Y50060
X53500Y49810
X32875Y49873
X22750Y43123
X20563Y44935
X19900Y44810
X19375Y45123
X17400Y44210
X16850Y43860
X15000Y44310
X14500Y42810
X14000Y42310
X13500Y42810
X11350Y43410
X12750Y46248
X20500Y38810
X18300Y36210
X16800Y36210
X16300Y38110
X15000Y33810
X15300Y32910
X15250Y32385
X16000Y33010
X16800Y31910
X18400Y30110
X19150Y29560
X17900Y27510
X16300Y27310
X14700Y28510
X14200Y27210
X14800Y30110
X13800Y31710
X8600Y35210
X21600Y24910
X24700Y22890
X27100Y20110
X28600Y20910
X29600Y20910
X31150Y22210
X31900Y21410
X31900Y20910
X30375Y19498
X31488Y18885
X29113Y18160
X27800Y18460
X27200Y17910
X26400Y17310
X25100Y15060
X23500Y15200
X23760Y18430
X19400Y17910
X16600Y14210
X15500Y13310
X15000Y12110
X14000Y12110
X13300Y12110
X11400Y10110
X9400Y8610
X11500Y7310
X13100Y8210
X13700Y7810
X15300Y6610
X16188Y7060
X14125Y4935
X13500Y3810
X16800Y4360
X19700Y5010
X24000Y5810
X24000Y8310
X20938Y11810
X17000Y12110
X16000Y12110
X9200Y14010
X8063Y14560
X8400Y12410
X4500Y12610
X4500Y8310
X9500Y4810
X13500Y1010
X14400Y1010
X15500Y1010
X16500Y1010
X17500Y1010
X24000Y2310
X28500Y5310
X30600Y8610
X29300Y9460
X31300Y11810
X32700Y15610
X32700Y16410
X32200Y16385
X37200Y14310
X39688Y14185
X40000Y13210
X39750Y11560
X39000Y9560
X39100Y8710
X40801Y8711
X42900Y6760
X44850Y7160
X46600Y7160
X47000Y8810
X47750Y11310
X46600Y12410
X46000Y13810
X45000Y12410
X45000Y11810
X43900Y12210
X48000Y16060
X48000Y17810
X46000Y17310
X45500Y18310
X45000Y20310
X46000Y21310
X48000Y22560
X48000Y24060
X45500Y24310
X43200Y23510
X40000Y23560
X39500Y20460
X40000Y19510
X40200Y17610
X39100Y17610
X39250Y16560
X43200Y17810
X42000Y19810
X48950Y20910
X50550Y20910
X53500Y23810
X53500Y17310
X50800Y14310
X49050Y14310
X53500Y10810
X49800Y8910
X47750Y4810
X45950Y5110
X45500Y4310
X44600Y3910
X43500Y3110
X44400Y1810
X43100Y4610
X41300Y4560
X35900Y2810
X32700Y4210
X47750Y3060
X53500Y4310
X35600Y26410
X34563Y26435
X33063Y28373
X36125Y28685
X43400Y30010
X44000Y27160
X17900Y21860
T04
X32500Y17310
X42000Y22810
X35000Y28310
X39500Y31310
X17500Y9310
T05
X21500Y7310
X21500Y5310
X9750Y19935
X7750Y19935
X8500Y36810
X10500Y36810
X43375Y10498
X43375Y8498
T06
X35822Y39858
X35322Y40608
X34822Y39858
X34322Y40608
X33822Y39858
X33322Y40608
X32822Y39858
X32322Y40608
X31822Y39858
X31322Y40608
X30822Y39858
X30322Y40608
X29822Y39858
X29322Y40608
X28822Y39858
X28322Y40608
X27822Y39858
X27322Y40608
X26822Y39858
X26322Y40608
X25822Y39858
X25322Y40608
X24822Y39858
X24322Y40608
X23822Y39858
X23322Y40608
X22822Y39858
X22322Y40608
X21822Y39858
X21322Y40608
X20822Y39858
X20322Y40608
X19822Y39858
X19822Y41358
X20322Y42108
X20822Y41358
X21322Y42108
X21822Y41358
X22322Y42108
X22822Y41358
X23322Y42108
X23822Y41358
X24322Y42108
X24822Y41358
X25322Y42108
X25822Y41358
X26322Y42108
X26822Y41358
X27322Y42108
X27822Y41358
X28322Y42108
X28822Y41358
X29322Y42108
X29822Y41358
X30322Y42108
X30822Y41358
X31322Y42108
X31822Y41358
X32322Y42108
X32822Y41358
X33322Y42108
X33822Y41358
X34322Y42108
X34822Y41358
X35322Y42108
X35822Y41358
X36322Y42108
X36322Y40608
T07
X3295Y5219
X3295Y6204
X3295Y9432
X3295Y10416
X7368Y9560
X7368Y8560
X7368Y7560
X7368Y6560
X8368Y6060
X8368Y7060
X8368Y8060
X8368Y9060
X55000Y9060
X55000Y10060
X55000Y11060
X55000Y12060
X56000Y11560
X56000Y10560
X56000Y9560
X56000Y8560
X55000Y5560
X55000Y4560
X55000Y3560
X55000Y2560
X56000Y2060
X56000Y3060
X56000Y4060
X56000Y5060
X56000Y15060
X56000Y16060
X56000Y17060
X56000Y18060
X55000Y17560
X55000Y16560
X55000Y15560
X55000Y18560
X56000Y21560
X56000Y22560
X56000Y23560
X56000Y24560
X55000Y24060
X55000Y23060
X55000Y22060
X55000Y25060
X56000Y28060
X56000Y29060
X56000Y30060
X56000Y31060
X55000Y30560
X55000Y29560
X55000Y28560
X55000Y31560
X56000Y34560
X56000Y35560
X56000Y36560
X56000Y37560
X55000Y37060
X55000Y36060
X55000Y35060
X55000Y38060
X56000Y41060
X56000Y42060
X56000Y43060
X56000Y44060
X55000Y43560
X55000Y42560
X55000Y41560
X55000Y44560
X56000Y47560
X56000Y48560
X56000Y49560
X56000Y50560
X55000Y50060
X55000Y49060
X55000Y48060
X55000Y51060
T08
X22500Y24060
X21500Y24060
X21500Y23060
X22500Y23060
X22500Y22060
X21500Y22060
X21500Y21060
X22500Y21060
X22500Y20060
X21500Y20060
X21500Y19060
X21500Y18060
X22500Y18060
X22500Y19060
X22500Y17060
X21500Y17060
X21500Y16060
X22500Y16060
X22500Y15060
X21500Y15060
X20390Y18530
X18610Y18530
X16380Y17920
X15250Y16660
X15250Y15660
X14250Y15660
X13250Y15660
X13250Y16660
X14250Y16660
X13820Y17920
X13820Y19700
X16380Y19700
X18610Y21090
X20390Y21090
X13438Y22310
X13438Y23310
X13438Y24310
X11000Y22810
X10000Y22810
X9000Y22810
X8000Y22810
X6500Y22810
X5500Y22810
X4500Y22810
X3500Y22810
X3500Y25810
X4500Y25810
X5500Y25810
X6500Y25810
X8000Y25810
X9000Y25810
X10000Y25810
X11000Y25810
X12000Y27860
X13000Y27860
X13000Y28860
X12000Y28860
X12000Y29860
X13000Y29860
X15220Y29220
X15220Y31000
X17780Y31000
X17780Y29220
X10000Y29060
X9000Y29060
X9000Y28060
X10000Y28060
X8000Y28060
X8000Y29060
X8000Y30060
X9000Y30060
X10000Y30060
X6513Y29798
X5513Y29798
X4513Y29798
X3513Y29798
X3513Y32810
X4513Y32810
X5513Y32810
X6513Y32810
X6513Y35773
X5513Y35773
X4513Y35773
X3513Y35773
X4250Y38310
X4250Y39310
X4250Y40310
X4250Y41310
X38250Y14310
X38250Y13310
X38250Y12310
X36500Y10810
X36500Y9810
X35500Y9810
X35500Y10810
X34500Y10810
X33500Y10810
X33500Y9810
X34500Y9810
X34563Y8810
X33500Y8810
X32500Y8810
X32500Y9810
X32500Y10810
X35563Y8810
X36563Y8810
X47220Y7950
X47220Y6170
X49780Y6170
X49780Y7950
T09
X4000Y14932
X4000Y16310
X4050Y18332
X4050Y19710
T10
X4500Y43841
X4500Y45810
X4500Y49091
X4500Y51060
T11
X6051Y10810
X6051Y4826
T12
X6776Y2826
X22182Y2152
X34216Y13736
X47702Y19864
X26768Y27448
X25202Y38364
X11194Y47778
X41202Y46864
X49892Y51764
X50164Y1578
T13
X28053Y3975
T14
X4868Y5560
X4868Y10060
X58500Y8060
X58500Y6060
X58500Y1560
X58500Y12560
X58500Y14560
X58500Y19060
X58500Y21060
X58500Y25560
X58500Y27560
X58500Y32060
X58500Y34060
X58500Y38560
X58500Y40560
X58500Y45060
X58500Y47060
X58500Y51560
M30
