G75*
G70*
%OFA0B0*%
%FSLAX24Y24*%
%IPPOS*%
%LPD*%
%AMOC8*
5,1,8,0,0,1.08239X$1,22.5*
%
%ADD10R,0.0120X0.0580*%
%ADD11R,0.0580X0.0120*%
%ADD12R,0.0512X0.0193*%
%ADD13R,0.0787X0.0394*%
%ADD14R,0.0315X0.0118*%
%ADD15R,0.0118X0.0315*%
%ADD16R,0.0472X0.0197*%
%ADD17R,0.0866X0.0335*%
%ADD18R,0.0413X0.0394*%
%ADD19R,0.0591X0.0472*%
%ADD20R,0.0787X0.1299*%
%ADD21R,0.0472X0.0591*%
%ADD22R,0.0315X0.0472*%
%ADD23R,0.0500X0.0220*%
%ADD24R,0.0220X0.0500*%
%ADD25R,0.0630X0.0709*%
%ADD26R,0.0709X0.0630*%
%ADD27R,0.0236X0.0866*%
%ADD28R,0.0866X0.0236*%
%ADD29R,0.0276X0.0354*%
%ADD30R,0.0630X0.0551*%
%ADD31R,0.0087X0.0394*%
%ADD32R,0.0394X0.0087*%
%ADD33R,0.0193X0.0512*%
%ADD34R,0.0551X0.0472*%
%ADD35R,0.0433X0.0748*%
%ADD36R,0.0200X0.0098*%
D10*
X027140Y017310D03*
X027330Y017310D03*
X027530Y017310D03*
X027730Y017310D03*
X027930Y017310D03*
X028120Y017310D03*
X028320Y017310D03*
X028520Y017310D03*
X028710Y017310D03*
X028910Y017310D03*
X029110Y017310D03*
X029300Y017310D03*
X029500Y017310D03*
X029700Y017310D03*
X029890Y017310D03*
X030090Y017310D03*
X030290Y017310D03*
X030480Y017310D03*
X030680Y017310D03*
X030880Y017310D03*
X031070Y017310D03*
X031270Y017310D03*
X031470Y017310D03*
X031670Y017310D03*
X031860Y017310D03*
X031860Y023310D03*
X031670Y023310D03*
X031470Y023310D03*
X031270Y023310D03*
X031070Y023310D03*
X030880Y023310D03*
X030680Y023310D03*
X030480Y023310D03*
X030290Y023310D03*
X030090Y023310D03*
X029890Y023310D03*
X029700Y023310D03*
X029500Y023310D03*
X029300Y023310D03*
X029110Y023310D03*
X028910Y023310D03*
X028710Y023310D03*
X028520Y023310D03*
X028320Y023310D03*
X028120Y023310D03*
X027930Y023310D03*
X027730Y023310D03*
X027530Y023310D03*
X027330Y023310D03*
X027140Y023310D03*
D11*
X026500Y022670D03*
X026500Y022480D03*
X026500Y022280D03*
X026500Y022080D03*
X026500Y021880D03*
X026500Y021690D03*
X026500Y021490D03*
X026500Y021290D03*
X026500Y021100D03*
X026500Y020900D03*
X026500Y020700D03*
X026500Y020510D03*
X026500Y020310D03*
X026500Y020110D03*
X026500Y019920D03*
X026500Y019720D03*
X026500Y019520D03*
X026500Y019330D03*
X026500Y019130D03*
X026500Y018930D03*
X026500Y018740D03*
X026500Y018540D03*
X026500Y018340D03*
X026500Y018140D03*
X026500Y017950D03*
X032500Y017950D03*
X032500Y018140D03*
X032500Y018340D03*
X032500Y018540D03*
X032500Y018740D03*
X032500Y018930D03*
X032500Y019130D03*
X032500Y019330D03*
X032500Y019520D03*
X032500Y019720D03*
X032500Y019920D03*
X032500Y020110D03*
X032500Y020310D03*
X032500Y020510D03*
X032500Y020700D03*
X032500Y020900D03*
X032500Y021100D03*
X032500Y021290D03*
X032500Y021490D03*
X032500Y021690D03*
X032500Y021880D03*
X032500Y022080D03*
X032500Y022280D03*
X032500Y022480D03*
X032500Y022670D03*
D12*
X048675Y022560D03*
X048675Y023060D03*
X048675Y023560D03*
X048675Y024060D03*
X050925Y024060D03*
X050925Y023560D03*
X050925Y023060D03*
X050925Y022560D03*
X050975Y017660D03*
X050975Y017160D03*
X050975Y016660D03*
X050975Y016160D03*
X048725Y016160D03*
X048725Y016660D03*
X048725Y017160D03*
X048725Y017660D03*
X048625Y011160D03*
X048625Y010660D03*
X048625Y010160D03*
X048625Y009660D03*
X050875Y009660D03*
X050875Y010160D03*
X050875Y010660D03*
X050875Y011160D03*
X051025Y004710D03*
X051025Y004210D03*
X051025Y003710D03*
X051025Y003210D03*
X048775Y003210D03*
X048775Y003710D03*
X048775Y004210D03*
X048775Y004710D03*
X048625Y029110D03*
X048625Y029610D03*
X048625Y030110D03*
X048625Y030610D03*
X050875Y030610D03*
X050875Y030110D03*
X050875Y029610D03*
X050875Y029110D03*
X050975Y035560D03*
X050975Y036060D03*
X050975Y036560D03*
X050975Y037060D03*
X048725Y037060D03*
X048725Y036560D03*
X048725Y036060D03*
X048725Y035560D03*
X048775Y042060D03*
X048775Y042560D03*
X048775Y043060D03*
X048775Y043560D03*
X051025Y043560D03*
X051025Y043060D03*
X051025Y042560D03*
X051025Y042060D03*
X051075Y048560D03*
X051075Y049060D03*
X051075Y049560D03*
X051075Y050060D03*
X048825Y050060D03*
X048825Y049560D03*
X048825Y049060D03*
X048825Y048560D03*
X042625Y044010D03*
X042625Y043510D03*
X042625Y043010D03*
X042625Y042510D03*
X040375Y042510D03*
X040375Y043010D03*
X040375Y043510D03*
X040375Y044010D03*
D13*
X031203Y006967D03*
X031203Y006377D03*
X031203Y005786D03*
X031203Y005196D03*
X031203Y004605D03*
X031203Y004015D03*
X031203Y003424D03*
X031203Y002834D03*
X031203Y002243D03*
X031203Y001653D03*
X025297Y001653D03*
X025297Y002243D03*
X025297Y002834D03*
X025297Y003424D03*
X025297Y004015D03*
X025297Y004605D03*
X025297Y005196D03*
X025297Y005786D03*
X025297Y006377D03*
X025297Y006967D03*
D14*
X042463Y003302D03*
X042463Y003105D03*
X042463Y002908D03*
X042463Y002712D03*
X042463Y002515D03*
X042463Y002318D03*
X044037Y002318D03*
X044037Y002515D03*
X044037Y002712D03*
X044037Y002908D03*
X044037Y003105D03*
X044037Y003302D03*
D15*
X043742Y003597D03*
X043545Y003597D03*
X043348Y003597D03*
X043152Y003597D03*
X042955Y003597D03*
X042758Y003597D03*
X042758Y002023D03*
X042955Y002023D03*
X043152Y002023D03*
X043348Y002023D03*
X043545Y002023D03*
X043742Y002023D03*
D16*
X040972Y002072D03*
X040972Y002564D03*
X040972Y003056D03*
X040972Y003548D03*
X040028Y003548D03*
X040028Y003056D03*
X040028Y002564D03*
X040028Y002072D03*
D17*
X024000Y006456D03*
X024000Y007539D03*
D18*
X023400Y006998D03*
X024600Y006998D03*
D19*
X020508Y024538D03*
X020508Y025129D03*
X020508Y025719D03*
X020508Y026310D03*
X020508Y026901D03*
X020508Y027491D03*
X020508Y028082D03*
X015492Y028082D03*
X015492Y027491D03*
X015492Y026901D03*
X015492Y026310D03*
X015492Y025719D03*
X015492Y025129D03*
X015492Y024538D03*
X010490Y049954D03*
X010490Y050860D03*
X010490Y051766D03*
D20*
X013010Y050860D03*
D21*
X016406Y028436D03*
X017055Y028436D03*
D22*
X017705Y028318D03*
X018085Y028318D03*
X018465Y028318D03*
X018844Y028318D03*
X019224Y028318D03*
X019604Y028318D03*
D23*
X011940Y032458D03*
X011940Y032773D03*
X011940Y033088D03*
X011940Y033403D03*
X011940Y033717D03*
X011940Y034032D03*
X011940Y034347D03*
X011940Y034662D03*
X008560Y034662D03*
X008560Y034347D03*
X008560Y034032D03*
X008560Y033717D03*
X008560Y033403D03*
X008560Y033088D03*
X008560Y032773D03*
X008560Y032458D03*
X008060Y017412D03*
X008060Y017097D03*
X008060Y016782D03*
X008060Y016467D03*
X008060Y016153D03*
X008060Y015838D03*
X008060Y015523D03*
X008060Y015208D03*
X011440Y015208D03*
X011440Y015523D03*
X011440Y015838D03*
X011440Y016153D03*
X011440Y016467D03*
X011440Y016782D03*
X011440Y017097D03*
X011440Y017412D03*
X038310Y009912D03*
X038310Y009597D03*
X038310Y009282D03*
X038310Y008967D03*
X038310Y008653D03*
X038310Y008338D03*
X038310Y008023D03*
X038310Y007708D03*
X041690Y007708D03*
X041690Y008023D03*
X041690Y008338D03*
X041690Y008653D03*
X041690Y008967D03*
X041690Y009282D03*
X041690Y009597D03*
X041690Y009912D03*
D24*
X041102Y010500D03*
X040787Y010500D03*
X040472Y010500D03*
X040157Y010500D03*
X039843Y010500D03*
X039528Y010500D03*
X039213Y010500D03*
X038898Y010500D03*
X038898Y007120D03*
X039213Y007120D03*
X039528Y007120D03*
X039843Y007120D03*
X040157Y007120D03*
X040472Y007120D03*
X040787Y007120D03*
X041102Y007120D03*
X011352Y031870D03*
X011037Y031870D03*
X010722Y031870D03*
X010407Y031870D03*
X010093Y031870D03*
X009778Y031870D03*
X009463Y031870D03*
X009148Y031870D03*
X009148Y035250D03*
X009463Y035250D03*
X009778Y035250D03*
X010093Y035250D03*
X010407Y035250D03*
X010722Y035250D03*
X011037Y035250D03*
X011352Y035250D03*
X010852Y018000D03*
X010537Y018000D03*
X010222Y018000D03*
X009907Y018000D03*
X009593Y018000D03*
X009278Y018000D03*
X008963Y018000D03*
X008648Y018000D03*
X008648Y014620D03*
X008963Y014620D03*
X009278Y014620D03*
X009593Y014620D03*
X009907Y014620D03*
X010222Y014620D03*
X010537Y014620D03*
X010852Y014620D03*
D25*
X007449Y004123D03*
X008551Y004123D03*
X009449Y007748D03*
X010551Y007748D03*
X008426Y011623D03*
X007324Y011623D03*
X004551Y011810D03*
X003449Y011810D03*
X017949Y022560D03*
X019051Y022560D03*
X019074Y023435D03*
X020176Y023435D03*
X026199Y024310D03*
X027301Y024310D03*
X014101Y032410D03*
X012999Y032410D03*
X013099Y033710D03*
X013099Y034660D03*
X013401Y035560D03*
X012299Y035560D03*
X014201Y034660D03*
X014201Y033710D03*
X013201Y031260D03*
X012099Y031260D03*
X021636Y036310D03*
X022739Y036310D03*
X023699Y036310D03*
X024801Y036310D03*
X025949Y036310D03*
X027051Y036310D03*
X028011Y036310D03*
X029114Y036310D03*
X030199Y036310D03*
X031301Y036310D03*
X032199Y036310D03*
X033301Y036310D03*
X034449Y036310D03*
X035551Y036310D03*
X036449Y036310D03*
X037551Y036310D03*
X039849Y012285D03*
X040951Y012285D03*
X041907Y012264D03*
X043009Y012264D03*
X042801Y005310D03*
X043949Y005060D03*
X045051Y005060D03*
X045199Y002610D03*
X046301Y002610D03*
X046301Y001310D03*
X045199Y001310D03*
X043989Y000998D03*
X042886Y000998D03*
X040576Y004560D03*
X039474Y004560D03*
X041699Y005310D03*
X033801Y006185D03*
X033801Y007185D03*
X032699Y007185D03*
X032699Y006185D03*
X019551Y009810D03*
X019551Y010810D03*
X018449Y010810D03*
X018449Y009810D03*
D26*
X017000Y010259D03*
X016000Y010259D03*
X015000Y010259D03*
X014000Y010259D03*
X013000Y010259D03*
X013000Y011361D03*
X014000Y011361D03*
X015000Y011361D03*
X016000Y011361D03*
X017000Y011361D03*
X020000Y006861D03*
X020000Y005759D03*
X018563Y004299D03*
X018563Y003196D03*
X017500Y002861D03*
X016500Y002861D03*
X015500Y002861D03*
X014500Y002861D03*
X013500Y002861D03*
X013500Y001759D03*
X014500Y001759D03*
X015500Y001759D03*
X016500Y001759D03*
X017500Y001759D03*
X011250Y001946D03*
X011250Y003049D03*
X010000Y003049D03*
X010000Y001946D03*
X010500Y004759D03*
X010500Y005861D03*
X032688Y002861D03*
X032688Y001759D03*
X033813Y001759D03*
X033813Y002861D03*
X038563Y003361D03*
X038563Y002259D03*
X044875Y007946D03*
X044875Y009049D03*
X044875Y009946D03*
X044875Y011049D03*
X052750Y011259D03*
X052750Y012361D03*
X052750Y014909D03*
X052750Y016011D03*
X052750Y017609D03*
X052750Y018711D03*
X052700Y021409D03*
X052700Y022511D03*
X052650Y024209D03*
X052650Y025311D03*
X052750Y027759D03*
X052750Y028861D03*
X052750Y030759D03*
X052750Y031861D03*
X052750Y034409D03*
X052750Y035511D03*
X052750Y037109D03*
X052750Y038211D03*
X052750Y041159D03*
X052750Y042261D03*
X052750Y043609D03*
X052750Y044711D03*
X052750Y047659D03*
X052750Y048761D03*
X052750Y050109D03*
X052750Y051211D03*
X039000Y044861D03*
X039000Y043759D03*
X039188Y042611D03*
X039188Y041509D03*
X038625Y050884D03*
X038625Y051986D03*
X036750Y051986D03*
X036750Y050884D03*
X035000Y050946D03*
X035000Y052049D03*
X033000Y052049D03*
X033000Y050946D03*
X031250Y050946D03*
X031250Y052049D03*
X029313Y052049D03*
X029313Y050946D03*
X027625Y050884D03*
X027625Y051986D03*
X025813Y051986D03*
X025813Y050884D03*
X024125Y050884D03*
X024125Y051986D03*
X022250Y051986D03*
X022250Y050884D03*
X020625Y050759D03*
X020625Y051861D03*
X018750Y051861D03*
X018750Y050759D03*
X017125Y050884D03*
X017125Y051986D03*
X015250Y051986D03*
X015250Y050884D03*
X008350Y049011D03*
X008350Y047909D03*
X007100Y047959D03*
X007100Y049061D03*
X007000Y050709D03*
X007000Y051811D03*
X006750Y046561D03*
X006750Y045459D03*
X039650Y028111D03*
X039650Y027009D03*
X052750Y009361D03*
X052750Y008259D03*
X052750Y005861D03*
X052750Y004759D03*
X052750Y002861D03*
X052750Y001759D03*
D27*
X038100Y027436D03*
X037600Y027436D03*
X037100Y027436D03*
X036600Y027436D03*
X036100Y027436D03*
X035600Y027436D03*
X035100Y027436D03*
X034600Y027436D03*
X033150Y027636D03*
X032650Y027636D03*
X032150Y027636D03*
X031650Y027636D03*
X031150Y027636D03*
X030650Y027636D03*
X030150Y027636D03*
X029650Y027636D03*
X029650Y029684D03*
X030150Y029684D03*
X030650Y029684D03*
X031150Y029684D03*
X031650Y029684D03*
X032150Y029684D03*
X032650Y029684D03*
X033150Y029684D03*
X034600Y029484D03*
X035100Y029484D03*
X035600Y029484D03*
X036100Y029484D03*
X036600Y029484D03*
X037100Y029484D03*
X037600Y029484D03*
X038100Y029484D03*
X039400Y030136D03*
X039900Y030136D03*
X040400Y030136D03*
X040900Y030136D03*
X041400Y030136D03*
X041900Y030136D03*
X042400Y030136D03*
X042900Y030136D03*
X042900Y032184D03*
X042400Y032184D03*
X041900Y032184D03*
X041400Y032184D03*
X040900Y032184D03*
X040400Y032184D03*
X039900Y032184D03*
X039400Y032184D03*
X016288Y038936D03*
X015788Y038936D03*
X015288Y038936D03*
X014788Y038936D03*
X014288Y038936D03*
X013788Y038936D03*
X013288Y038936D03*
X012788Y038936D03*
X012788Y040984D03*
X013288Y040984D03*
X013788Y040984D03*
X014288Y040984D03*
X014788Y040984D03*
X015288Y040984D03*
X015788Y040984D03*
X016288Y040984D03*
X010100Y040984D03*
X009600Y040984D03*
X009100Y040984D03*
X008600Y040984D03*
X008100Y040984D03*
X007600Y040984D03*
X007100Y040984D03*
X006600Y040984D03*
X006600Y038936D03*
X007100Y038936D03*
X007600Y038936D03*
X008100Y038936D03*
X008600Y038936D03*
X009100Y038936D03*
X009600Y038936D03*
X010100Y038936D03*
D28*
X040826Y038910D03*
X040826Y038410D03*
X040826Y037910D03*
X040826Y037410D03*
X040826Y036910D03*
X040826Y036410D03*
X040826Y035910D03*
X040826Y035410D03*
X042874Y035410D03*
X042874Y035910D03*
X042874Y036410D03*
X042874Y036910D03*
X042874Y037410D03*
X042874Y037910D03*
X042874Y038410D03*
X042874Y038910D03*
X042924Y022960D03*
X042924Y022460D03*
X042924Y021960D03*
X042924Y021460D03*
X042924Y020960D03*
X042924Y020460D03*
X042924Y019960D03*
X042924Y019460D03*
X040876Y019460D03*
X040876Y019960D03*
X040876Y020460D03*
X040876Y020960D03*
X040876Y021460D03*
X040876Y021960D03*
X040876Y022460D03*
X040876Y022960D03*
X040826Y016660D03*
X040826Y016160D03*
X040826Y015660D03*
X040826Y015160D03*
X040826Y014660D03*
X040826Y014160D03*
X040826Y013660D03*
X040826Y013160D03*
X042874Y013160D03*
X042874Y013660D03*
X042874Y014160D03*
X042874Y014660D03*
X042874Y015160D03*
X042874Y015660D03*
X042874Y016160D03*
X042874Y016660D03*
D29*
X035443Y001748D03*
X034932Y001748D03*
D30*
X019688Y003196D03*
X019688Y004299D03*
X012438Y002861D03*
X012438Y001759D03*
D31*
X014167Y004338D03*
X014364Y004338D03*
X014561Y004338D03*
X014758Y004338D03*
X014955Y004338D03*
X015152Y004338D03*
X015348Y004338D03*
X015545Y004338D03*
X015742Y004338D03*
X015939Y004338D03*
X016136Y004338D03*
X016333Y004338D03*
X016333Y007782D03*
X016136Y007782D03*
X015939Y007782D03*
X015742Y007782D03*
X015545Y007782D03*
X015348Y007782D03*
X015152Y007782D03*
X014955Y007782D03*
X014758Y007782D03*
X014561Y007782D03*
X014364Y007782D03*
X014167Y007782D03*
D32*
X013528Y007143D03*
X013528Y006946D03*
X013528Y006749D03*
X013528Y006552D03*
X013528Y006355D03*
X013528Y006158D03*
X013528Y005962D03*
X013528Y005765D03*
X013528Y005568D03*
X013528Y005371D03*
X013528Y005174D03*
X013528Y004977D03*
X016972Y004977D03*
X016972Y005174D03*
X016972Y005371D03*
X016972Y005568D03*
X016972Y005765D03*
X016972Y005962D03*
X016972Y006158D03*
X016972Y006355D03*
X016972Y006552D03*
X016972Y006749D03*
X016972Y006946D03*
X016972Y007143D03*
D33*
X022450Y032685D03*
X022950Y032685D03*
X023450Y032685D03*
X023950Y032685D03*
X023950Y034935D03*
X023450Y034935D03*
X022950Y034935D03*
X022450Y034935D03*
X026763Y034935D03*
X027263Y034935D03*
X027763Y034935D03*
X028263Y034935D03*
X028263Y032685D03*
X027763Y032685D03*
X027263Y032685D03*
X026763Y032685D03*
X030950Y032685D03*
X031450Y032685D03*
X031950Y032685D03*
X032450Y032685D03*
X032450Y034935D03*
X031950Y034935D03*
X031450Y034935D03*
X030950Y034935D03*
X035200Y034935D03*
X035700Y034935D03*
X036200Y034935D03*
X036700Y034935D03*
X036700Y032685D03*
X036200Y032685D03*
X035700Y032685D03*
X035200Y032685D03*
X034750Y047685D03*
X034250Y047685D03*
X033750Y047685D03*
X033250Y047685D03*
X031000Y047685D03*
X030500Y047685D03*
X030000Y047685D03*
X029500Y047685D03*
X027513Y047685D03*
X027013Y047685D03*
X026513Y047685D03*
X026013Y047685D03*
X023950Y047685D03*
X023450Y047685D03*
X022950Y047685D03*
X022450Y047685D03*
X020450Y047685D03*
X019950Y047685D03*
X019450Y047685D03*
X018950Y047685D03*
X016950Y047685D03*
X016450Y047685D03*
X015950Y047685D03*
X015450Y047685D03*
X015450Y049935D03*
X015950Y049935D03*
X016450Y049935D03*
X016950Y049935D03*
X018950Y049935D03*
X019450Y049935D03*
X019950Y049935D03*
X020450Y049935D03*
X022450Y049935D03*
X022950Y049935D03*
X023450Y049935D03*
X023950Y049935D03*
X026013Y049935D03*
X026513Y049935D03*
X027013Y049935D03*
X027513Y049935D03*
X029500Y049935D03*
X030000Y049935D03*
X030500Y049935D03*
X031000Y049935D03*
X033250Y049935D03*
X033750Y049935D03*
X034250Y049935D03*
X034750Y049935D03*
X036950Y049935D03*
X037450Y049935D03*
X037950Y049935D03*
X038450Y049935D03*
X038450Y047685D03*
X037950Y047685D03*
X037450Y047685D03*
X036950Y047685D03*
D34*
X008350Y050669D03*
X008350Y051851D03*
X008000Y046601D03*
X008000Y045419D03*
D35*
X024860Y017226D03*
X025765Y017226D03*
X025765Y015769D03*
X024860Y015769D03*
D36*
X016306Y032048D03*
X016306Y032249D03*
X016306Y032444D03*
X015685Y032444D03*
X015685Y032249D03*
X015685Y032048D03*
M02*
