G75*
%MOIN*%
%OFA0B0*%
%FSLAX24Y24*%
%IPPOS*%
%LPD*%
%AMOC8*
5,1,8,0,0,1.08239X$1,22.5*
%
%ADD10C,0.1010*%
%ADD11R,0.0200X0.0660*%
%ADD12R,0.0660X0.0200*%
%ADD13R,0.0592X0.0273*%
%ADD14C,0.0595*%
%ADD15R,0.0867X0.0474*%
%ADD16C,0.1261*%
%ADD17R,0.0395X0.0198*%
%ADD18R,0.0198X0.0395*%
%ADD19R,0.0552X0.0277*%
%ADD20R,0.0946X0.0415*%
%ADD21R,0.0493X0.0474*%
%ADD22OC8,0.0820*%
%ADD23C,0.0680*%
%ADD24R,0.0671X0.0552*%
%ADD25R,0.0867X0.1379*%
%ADD26R,0.0880X0.0880*%
%ADD27C,0.0880*%
%ADD28R,0.0552X0.0671*%
%ADD29R,0.0395X0.0552*%
%ADD30R,0.0580X0.0300*%
%ADD31R,0.0300X0.0580*%
%ADD32C,0.0730*%
%ADD33R,0.0820X0.0820*%
%ADD34R,0.0710X0.0789*%
%ADD35R,0.0789X0.0710*%
%ADD36C,0.0820*%
%ADD37C,0.1025*%
%ADD38C,0.0674*%
%ADD39C,0.1340*%
%ADD40R,0.0316X0.0946*%
%ADD41R,0.0946X0.0316*%
%ADD42R,0.0356X0.0434*%
%ADD43R,0.0710X0.0631*%
%ADD44R,0.0167X0.0474*%
%ADD45R,0.0474X0.0167*%
%ADD46R,0.0273X0.0592*%
%ADD47R,0.0631X0.0552*%
%ADD48R,0.0513X0.0828*%
%ADD49R,0.0280X0.0178*%
%ADD50R,0.0476X0.0476*%
%ADD51C,0.0437*%
%ADD52C,0.0476*%
%ADD53C,0.0480*%
%ADD54C,0.0390*%
D10*
X006776Y002826D03*
X022182Y002152D03*
X034216Y013736D03*
X047702Y019864D03*
X026768Y027448D03*
X025202Y038364D03*
X011194Y047778D03*
X041202Y046864D03*
X049892Y051764D03*
X050164Y001578D03*
D11*
X031860Y017310D03*
X031670Y017310D03*
X031470Y017310D03*
X031270Y017310D03*
X031070Y017310D03*
X030880Y017310D03*
X030680Y017310D03*
X030480Y017310D03*
X030290Y017310D03*
X030090Y017310D03*
X029890Y017310D03*
X029700Y017310D03*
X029500Y017310D03*
X029300Y017310D03*
X029110Y017310D03*
X028910Y017310D03*
X028710Y017310D03*
X028520Y017310D03*
X028320Y017310D03*
X028120Y017310D03*
X027930Y017310D03*
X027730Y017310D03*
X027530Y017310D03*
X027330Y017310D03*
X027140Y017310D03*
X027140Y023310D03*
X027330Y023310D03*
X027530Y023310D03*
X027730Y023310D03*
X027930Y023310D03*
X028120Y023310D03*
X028320Y023310D03*
X028520Y023310D03*
X028710Y023310D03*
X028910Y023310D03*
X029110Y023310D03*
X029300Y023310D03*
X029500Y023310D03*
X029700Y023310D03*
X029890Y023310D03*
X030090Y023310D03*
X030290Y023310D03*
X030480Y023310D03*
X030680Y023310D03*
X030880Y023310D03*
X031070Y023310D03*
X031270Y023310D03*
X031470Y023310D03*
X031670Y023310D03*
X031860Y023310D03*
D12*
X032500Y022670D03*
X032500Y022480D03*
X032500Y022280D03*
X032500Y022080D03*
X032500Y021880D03*
X032500Y021690D03*
X032500Y021490D03*
X032500Y021290D03*
X032500Y021100D03*
X032500Y020900D03*
X032500Y020700D03*
X032500Y020510D03*
X032500Y020310D03*
X032500Y020110D03*
X032500Y019920D03*
X032500Y019720D03*
X032500Y019520D03*
X032500Y019330D03*
X032500Y019130D03*
X032500Y018930D03*
X032500Y018740D03*
X032500Y018540D03*
X032500Y018340D03*
X032500Y018140D03*
X032500Y017950D03*
X026500Y017950D03*
X026500Y018140D03*
X026500Y018340D03*
X026500Y018540D03*
X026500Y018740D03*
X026500Y018930D03*
X026500Y019130D03*
X026500Y019330D03*
X026500Y019520D03*
X026500Y019720D03*
X026500Y019920D03*
X026500Y020110D03*
X026500Y020310D03*
X026500Y020510D03*
X026500Y020700D03*
X026500Y020900D03*
X026500Y021100D03*
X026500Y021290D03*
X026500Y021490D03*
X026500Y021690D03*
X026500Y021880D03*
X026500Y022080D03*
X026500Y022280D03*
X026500Y022480D03*
X026500Y022670D03*
D13*
X048675Y022560D03*
X048675Y023060D03*
X048675Y023560D03*
X048675Y024060D03*
X050925Y024060D03*
X050925Y023560D03*
X050925Y023060D03*
X050925Y022560D03*
X050975Y017660D03*
X050975Y017160D03*
X050975Y016660D03*
X050975Y016160D03*
X048725Y016160D03*
X048725Y016660D03*
X048725Y017160D03*
X048725Y017660D03*
X048625Y011160D03*
X048625Y010660D03*
X048625Y010160D03*
X048625Y009660D03*
X050875Y009660D03*
X050875Y010160D03*
X050875Y010660D03*
X050875Y011160D03*
X051025Y004710D03*
X051025Y004210D03*
X051025Y003710D03*
X051025Y003210D03*
X048775Y003210D03*
X048775Y003710D03*
X048775Y004210D03*
X048775Y004710D03*
X048625Y029110D03*
X048625Y029610D03*
X048625Y030110D03*
X048625Y030610D03*
X050875Y030610D03*
X050875Y030110D03*
X050875Y029610D03*
X050875Y029110D03*
X050975Y035560D03*
X050975Y036060D03*
X050975Y036560D03*
X050975Y037060D03*
X048725Y037060D03*
X048725Y036560D03*
X048725Y036060D03*
X048725Y035560D03*
X048775Y042060D03*
X048775Y042560D03*
X048775Y043060D03*
X048775Y043560D03*
X051025Y043560D03*
X051025Y043060D03*
X051025Y042560D03*
X051025Y042060D03*
X051075Y048560D03*
X051075Y049060D03*
X051075Y049560D03*
X051075Y050060D03*
X048825Y050060D03*
X048825Y049560D03*
X048825Y049060D03*
X048825Y048560D03*
X042625Y044010D03*
X042625Y043510D03*
X042625Y043010D03*
X042625Y042510D03*
X040375Y042510D03*
X040375Y043010D03*
X040375Y043510D03*
X040375Y044010D03*
D14*
X036322Y042108D03*
X035822Y041358D03*
X035322Y042108D03*
X034822Y041358D03*
X034322Y042108D03*
X033822Y041358D03*
X033322Y042108D03*
X032822Y041358D03*
X032322Y042108D03*
X031822Y041358D03*
X031322Y042108D03*
X030822Y041358D03*
X030322Y042108D03*
X029822Y041358D03*
X029322Y042108D03*
X028822Y041358D03*
X028322Y042108D03*
X027822Y041358D03*
X027322Y042108D03*
X026822Y041358D03*
X026322Y042108D03*
X025822Y041358D03*
X025322Y042108D03*
X024822Y041358D03*
X024322Y042108D03*
X023822Y041358D03*
X023322Y042108D03*
X022822Y041358D03*
X022322Y042108D03*
X021822Y041358D03*
X021322Y042108D03*
X020822Y041358D03*
X020322Y042108D03*
X019822Y041358D03*
X020322Y040608D03*
X019822Y039858D03*
X020822Y039858D03*
X021322Y040608D03*
X021822Y039858D03*
X022322Y040608D03*
X022822Y039858D03*
X023322Y040608D03*
X023822Y039858D03*
X024322Y040608D03*
X024822Y039858D03*
X025322Y040608D03*
X025822Y039858D03*
X026322Y040608D03*
X026822Y039858D03*
X027322Y040608D03*
X027822Y039858D03*
X028322Y040608D03*
X028822Y039858D03*
X029322Y040608D03*
X029822Y039858D03*
X030322Y040608D03*
X030822Y039858D03*
X031322Y040608D03*
X031822Y039858D03*
X032322Y040608D03*
X032822Y039858D03*
X033322Y040608D03*
X033822Y039858D03*
X034322Y040608D03*
X034822Y039858D03*
X035322Y040608D03*
X035822Y039858D03*
X036322Y040608D03*
D15*
X031203Y006967D03*
X031203Y006377D03*
X031203Y005786D03*
X031203Y005196D03*
X031203Y004605D03*
X031203Y004015D03*
X031203Y003424D03*
X031203Y002834D03*
X031203Y002243D03*
X031203Y001653D03*
X025297Y001653D03*
X025297Y002243D03*
X025297Y002834D03*
X025297Y003424D03*
X025297Y004015D03*
X025297Y004605D03*
X025297Y005196D03*
X025297Y005786D03*
X025297Y006377D03*
X025297Y006967D03*
D16*
X028053Y003975D03*
D17*
X042463Y003302D03*
X042463Y003105D03*
X042463Y002908D03*
X042463Y002712D03*
X042463Y002515D03*
X042463Y002318D03*
X044037Y002318D03*
X044037Y002515D03*
X044037Y002712D03*
X044037Y002908D03*
X044037Y003105D03*
X044037Y003302D03*
D18*
X043742Y003597D03*
X043545Y003597D03*
X043348Y003597D03*
X043152Y003597D03*
X042955Y003597D03*
X042758Y003597D03*
X042758Y002023D03*
X042955Y002023D03*
X043152Y002023D03*
X043348Y002023D03*
X043545Y002023D03*
X043742Y002023D03*
D19*
X040972Y002072D03*
X040972Y002564D03*
X040972Y003056D03*
X040972Y003548D03*
X040028Y003548D03*
X040028Y003056D03*
X040028Y002564D03*
X040028Y002072D03*
D20*
X024000Y006456D03*
X024000Y007539D03*
D21*
X023400Y006998D03*
X024600Y006998D03*
D22*
X032500Y008810D03*
X032500Y009810D03*
X033500Y009810D03*
X033500Y008810D03*
X033500Y010810D03*
X022500Y015060D03*
X021500Y015060D03*
X021500Y016060D03*
X022500Y016060D03*
X022500Y017060D03*
X021500Y017060D03*
X021500Y018060D03*
X021500Y019060D03*
X022500Y019060D03*
X022500Y018060D03*
X022500Y020060D03*
X021500Y020060D03*
X021500Y021060D03*
X022500Y021060D03*
X022500Y022060D03*
X021500Y022060D03*
X021500Y023060D03*
X022500Y023060D03*
X022500Y024060D03*
X021500Y024060D03*
X013000Y028860D03*
X012000Y028860D03*
X012000Y027860D03*
X012000Y029860D03*
X013000Y029860D03*
X013250Y016660D03*
X014250Y016660D03*
X014250Y015660D03*
X013250Y015660D03*
X015250Y015660D03*
D23*
X016080Y017920D02*
X016680Y017920D01*
X018610Y018230D02*
X018610Y018830D01*
X020390Y018830D02*
X020390Y018230D01*
X020390Y020790D02*
X020390Y021390D01*
X018610Y021390D02*
X018610Y020790D01*
X016680Y019700D02*
X016080Y019700D01*
X014120Y019700D02*
X013520Y019700D01*
X013520Y017920D02*
X014120Y017920D01*
X014920Y029220D02*
X015520Y029220D01*
X015520Y031000D02*
X014920Y031000D01*
X017480Y031000D02*
X018080Y031000D01*
X018080Y029220D02*
X017480Y029220D01*
X046920Y007950D02*
X047520Y007950D01*
X049480Y007950D02*
X050080Y007950D01*
X050080Y006170D02*
X049480Y006170D01*
X047520Y006170D02*
X046920Y006170D01*
D24*
X020508Y024538D03*
X020508Y025129D03*
X020508Y025719D03*
X020508Y026310D03*
X020508Y026901D03*
X020508Y027491D03*
X020508Y028082D03*
X015492Y028082D03*
X015492Y027491D03*
X015492Y026901D03*
X015492Y026310D03*
X015492Y025719D03*
X015492Y025129D03*
X015492Y024538D03*
X010490Y049954D03*
X010490Y050860D03*
X010490Y051766D03*
D25*
X013010Y050860D03*
D26*
X004500Y051060D03*
X004500Y045810D03*
X004050Y019710D03*
X004000Y016310D03*
D27*
X004000Y014932D03*
X004050Y018332D03*
X004500Y043841D03*
X004500Y049091D03*
D28*
X016406Y028436D03*
X017055Y028436D03*
D29*
X017705Y028318D03*
X018085Y028318D03*
X018465Y028318D03*
X018844Y028318D03*
X019224Y028318D03*
X019604Y028318D03*
D30*
X011940Y032458D03*
X011940Y032773D03*
X011940Y033088D03*
X011940Y033403D03*
X011940Y033717D03*
X011940Y034032D03*
X011940Y034347D03*
X011940Y034662D03*
X008560Y034662D03*
X008560Y034347D03*
X008560Y034032D03*
X008560Y033717D03*
X008560Y033403D03*
X008560Y033088D03*
X008560Y032773D03*
X008560Y032458D03*
X008060Y017412D03*
X008060Y017097D03*
X008060Y016782D03*
X008060Y016467D03*
X008060Y016153D03*
X008060Y015838D03*
X008060Y015523D03*
X008060Y015208D03*
X011440Y015208D03*
X011440Y015523D03*
X011440Y015838D03*
X011440Y016153D03*
X011440Y016467D03*
X011440Y016782D03*
X011440Y017097D03*
X011440Y017412D03*
X038310Y009912D03*
X038310Y009597D03*
X038310Y009282D03*
X038310Y008967D03*
X038310Y008653D03*
X038310Y008338D03*
X038310Y008023D03*
X038310Y007708D03*
X041690Y007708D03*
X041690Y008023D03*
X041690Y008338D03*
X041690Y008653D03*
X041690Y008967D03*
X041690Y009282D03*
X041690Y009597D03*
X041690Y009912D03*
D31*
X041102Y010500D03*
X040787Y010500D03*
X040472Y010500D03*
X040157Y010500D03*
X039843Y010500D03*
X039528Y010500D03*
X039213Y010500D03*
X038898Y010500D03*
X038898Y007120D03*
X039213Y007120D03*
X039528Y007120D03*
X039843Y007120D03*
X040157Y007120D03*
X040472Y007120D03*
X040787Y007120D03*
X041102Y007120D03*
X011352Y031870D03*
X011037Y031870D03*
X010722Y031870D03*
X010407Y031870D03*
X010093Y031870D03*
X009778Y031870D03*
X009463Y031870D03*
X009148Y031870D03*
X009148Y035250D03*
X009463Y035250D03*
X009778Y035250D03*
X010093Y035250D03*
X010407Y035250D03*
X010722Y035250D03*
X011037Y035250D03*
X011352Y035250D03*
X010852Y018000D03*
X010537Y018000D03*
X010222Y018000D03*
X009907Y018000D03*
X009593Y018000D03*
X009278Y018000D03*
X008963Y018000D03*
X008648Y018000D03*
X008648Y014620D03*
X008963Y014620D03*
X009278Y014620D03*
X009593Y014620D03*
X009907Y014620D03*
X010222Y014620D03*
X010537Y014620D03*
X010852Y014620D03*
D32*
X009750Y019935D03*
X007750Y019935D03*
X021500Y007310D03*
X021500Y005310D03*
X043375Y008498D03*
X043375Y010498D03*
X010500Y036810D03*
X008500Y036810D03*
D33*
X004250Y038310D03*
X003513Y035773D03*
X003513Y032810D03*
X003513Y029798D03*
X003500Y025810D03*
X003500Y022810D03*
X008000Y022810D03*
X008000Y025810D03*
X013000Y027860D03*
X013438Y024310D03*
X015250Y016660D03*
X007368Y009560D03*
X032500Y010810D03*
X056000Y008560D03*
X056000Y015060D03*
X056000Y021560D03*
X056000Y028060D03*
X056000Y034560D03*
X056000Y041060D03*
X056000Y047560D03*
X056000Y002060D03*
D34*
X046301Y002610D03*
X045199Y002610D03*
X045199Y001310D03*
X046301Y001310D03*
X043989Y000998D03*
X042886Y000998D03*
X040576Y004560D03*
X039474Y004560D03*
X041699Y005310D03*
X042801Y005310D03*
X043949Y005060D03*
X045051Y005060D03*
X043009Y012264D03*
X041907Y012264D03*
X040951Y012285D03*
X039849Y012285D03*
X033801Y007185D03*
X033801Y006185D03*
X032699Y006185D03*
X032699Y007185D03*
X019551Y009810D03*
X019551Y010810D03*
X018449Y010810D03*
X018449Y009810D03*
X010551Y007748D03*
X009449Y007748D03*
X008551Y004123D03*
X007449Y004123D03*
X007324Y011623D03*
X008426Y011623D03*
X004551Y011810D03*
X003449Y011810D03*
X017949Y022560D03*
X019051Y022560D03*
X019074Y023435D03*
X020176Y023435D03*
X026199Y024310D03*
X027301Y024310D03*
X014101Y032410D03*
X012999Y032410D03*
X013099Y033710D03*
X013099Y034660D03*
X013401Y035560D03*
X012299Y035560D03*
X014201Y034660D03*
X014201Y033710D03*
X013201Y031260D03*
X012099Y031260D03*
X021636Y036310D03*
X022739Y036310D03*
X023699Y036310D03*
X024801Y036310D03*
X025949Y036310D03*
X027051Y036310D03*
X028011Y036310D03*
X029114Y036310D03*
X030199Y036310D03*
X031301Y036310D03*
X032199Y036310D03*
X033301Y036310D03*
X034449Y036310D03*
X035551Y036310D03*
X036449Y036310D03*
X037551Y036310D03*
D35*
X039188Y041509D03*
X039188Y042611D03*
X039000Y043759D03*
X039000Y044861D03*
X038625Y050884D03*
X038625Y051986D03*
X036750Y051986D03*
X036750Y050884D03*
X035000Y050946D03*
X035000Y052049D03*
X033000Y052049D03*
X033000Y050946D03*
X031250Y050946D03*
X031250Y052049D03*
X029313Y052049D03*
X029313Y050946D03*
X027625Y050884D03*
X027625Y051986D03*
X025813Y051986D03*
X025813Y050884D03*
X024125Y050884D03*
X024125Y051986D03*
X022250Y051986D03*
X022250Y050884D03*
X020625Y050759D03*
X020625Y051861D03*
X018750Y051861D03*
X018750Y050759D03*
X017125Y050884D03*
X017125Y051986D03*
X015250Y051986D03*
X015250Y050884D03*
X008350Y049011D03*
X008350Y047909D03*
X007100Y047959D03*
X007100Y049061D03*
X007000Y050709D03*
X007000Y051811D03*
X006750Y046561D03*
X006750Y045459D03*
X039650Y028111D03*
X039650Y027009D03*
X052650Y025311D03*
X052650Y024209D03*
X052700Y022511D03*
X052700Y021409D03*
X052750Y018711D03*
X052750Y017609D03*
X052750Y016011D03*
X052750Y014909D03*
X052750Y012361D03*
X052750Y011259D03*
X052750Y009361D03*
X052750Y008259D03*
X052750Y005861D03*
X052750Y004759D03*
X052750Y002861D03*
X052750Y001759D03*
X044875Y007946D03*
X044875Y009049D03*
X044875Y009946D03*
X044875Y011049D03*
X038563Y003361D03*
X038563Y002259D03*
X033813Y001759D03*
X033813Y002861D03*
X032688Y002861D03*
X032688Y001759D03*
X020000Y005759D03*
X020000Y006861D03*
X018563Y004299D03*
X018563Y003196D03*
X017500Y002861D03*
X016500Y002861D03*
X015500Y002861D03*
X014500Y002861D03*
X013500Y002861D03*
X013500Y001759D03*
X014500Y001759D03*
X015500Y001759D03*
X016500Y001759D03*
X017500Y001759D03*
X011250Y001946D03*
X011250Y003049D03*
X010000Y003049D03*
X010000Y001946D03*
X010500Y004759D03*
X010500Y005861D03*
X013000Y010259D03*
X014000Y010259D03*
X015000Y010259D03*
X016000Y010259D03*
X017000Y010259D03*
X017000Y011361D03*
X016000Y011361D03*
X015000Y011361D03*
X014000Y011361D03*
X013000Y011361D03*
X052750Y027759D03*
X052750Y028861D03*
X052750Y030759D03*
X052750Y031861D03*
X052750Y034409D03*
X052750Y035511D03*
X052750Y037109D03*
X052750Y038211D03*
X052750Y041159D03*
X052750Y042261D03*
X052750Y043609D03*
X052750Y044711D03*
X052750Y047659D03*
X052750Y048761D03*
X052750Y050109D03*
X052750Y051211D03*
D36*
X055000Y051060D03*
X055000Y050060D03*
X055000Y049060D03*
X055000Y048060D03*
X056000Y048560D03*
X056000Y049560D03*
X056000Y050560D03*
X055000Y044560D03*
X055000Y043560D03*
X055000Y042560D03*
X055000Y041560D03*
X056000Y042060D03*
X056000Y043060D03*
X056000Y044060D03*
X055000Y038060D03*
X055000Y037060D03*
X055000Y036060D03*
X055000Y035060D03*
X056000Y035560D03*
X056000Y036560D03*
X056000Y037560D03*
X055000Y031560D03*
X055000Y030560D03*
X055000Y029560D03*
X055000Y028560D03*
X056000Y029060D03*
X056000Y030060D03*
X056000Y031060D03*
X055000Y025060D03*
X055000Y024060D03*
X055000Y023060D03*
X055000Y022060D03*
X056000Y022560D03*
X056000Y023560D03*
X056000Y024560D03*
X055000Y018560D03*
X055000Y017560D03*
X055000Y016560D03*
X055000Y015560D03*
X056000Y016060D03*
X056000Y017060D03*
X056000Y018060D03*
X055000Y012060D03*
X055000Y011060D03*
X055000Y010060D03*
X055000Y009060D03*
X056000Y009560D03*
X056000Y010560D03*
X056000Y011560D03*
X055000Y005560D03*
X055000Y004560D03*
X055000Y003560D03*
X055000Y002560D03*
X056000Y003060D03*
X056000Y004060D03*
X056000Y005060D03*
X038250Y012310D03*
X038250Y013310D03*
X038250Y014310D03*
X036500Y010810D03*
X036500Y009810D03*
X035500Y009810D03*
X035500Y010810D03*
X034500Y010810D03*
X034500Y009810D03*
X034563Y008810D03*
X035563Y008810D03*
X036563Y008810D03*
X013438Y022310D03*
X013438Y023310D03*
X011000Y022810D03*
X010000Y022810D03*
X009000Y022810D03*
X006500Y022810D03*
X005500Y022810D03*
X004500Y022810D03*
X004500Y025810D03*
X005500Y025810D03*
X006500Y025810D03*
X009000Y025810D03*
X010000Y025810D03*
X011000Y025810D03*
X010000Y028060D03*
X009000Y028060D03*
X009000Y029060D03*
X010000Y029060D03*
X010000Y030060D03*
X009000Y030060D03*
X008000Y030060D03*
X008000Y029060D03*
X008000Y028060D03*
X006513Y029798D03*
X005513Y029798D03*
X004513Y029798D03*
X004513Y032810D03*
X005513Y032810D03*
X006513Y032810D03*
X006513Y035773D03*
X005513Y035773D03*
X004513Y035773D03*
X004250Y039310D03*
X004250Y040310D03*
X004250Y041310D03*
X008368Y009060D03*
X008368Y008060D03*
X008368Y007060D03*
X008368Y006060D03*
X007368Y006560D03*
X007368Y007560D03*
X007368Y008560D03*
D37*
X006051Y010810D03*
X006051Y004826D03*
D38*
X003295Y005219D03*
X003295Y006204D03*
X003295Y009432D03*
X003295Y010416D03*
D39*
X004868Y010060D03*
X004868Y005560D03*
X058500Y006060D03*
X058500Y008060D03*
X058500Y012560D03*
X058500Y014560D03*
X058500Y019060D03*
X058500Y021060D03*
X058500Y025560D03*
X058500Y027560D03*
X058500Y032060D03*
X058500Y034060D03*
X058500Y038560D03*
X058500Y040560D03*
X058500Y045060D03*
X058500Y047060D03*
X058500Y051560D03*
X058500Y001560D03*
D40*
X038100Y027436D03*
X037600Y027436D03*
X037100Y027436D03*
X036600Y027436D03*
X036100Y027436D03*
X035600Y027436D03*
X035100Y027436D03*
X034600Y027436D03*
X033150Y027636D03*
X032650Y027636D03*
X032150Y027636D03*
X031650Y027636D03*
X031150Y027636D03*
X030650Y027636D03*
X030150Y027636D03*
X029650Y027636D03*
X029650Y029684D03*
X030150Y029684D03*
X030650Y029684D03*
X031150Y029684D03*
X031650Y029684D03*
X032150Y029684D03*
X032650Y029684D03*
X033150Y029684D03*
X034600Y029484D03*
X035100Y029484D03*
X035600Y029484D03*
X036100Y029484D03*
X036600Y029484D03*
X037100Y029484D03*
X037600Y029484D03*
X038100Y029484D03*
X039400Y030136D03*
X039900Y030136D03*
X040400Y030136D03*
X040900Y030136D03*
X041400Y030136D03*
X041900Y030136D03*
X042400Y030136D03*
X042900Y030136D03*
X042900Y032184D03*
X042400Y032184D03*
X041900Y032184D03*
X041400Y032184D03*
X040900Y032184D03*
X040400Y032184D03*
X039900Y032184D03*
X039400Y032184D03*
X016288Y038936D03*
X015788Y038936D03*
X015288Y038936D03*
X014788Y038936D03*
X014288Y038936D03*
X013788Y038936D03*
X013288Y038936D03*
X012788Y038936D03*
X012788Y040984D03*
X013288Y040984D03*
X013788Y040984D03*
X014288Y040984D03*
X014788Y040984D03*
X015288Y040984D03*
X015788Y040984D03*
X016288Y040984D03*
X010100Y040984D03*
X009600Y040984D03*
X009100Y040984D03*
X008600Y040984D03*
X008100Y040984D03*
X007600Y040984D03*
X007100Y040984D03*
X006600Y040984D03*
X006600Y038936D03*
X007100Y038936D03*
X007600Y038936D03*
X008100Y038936D03*
X008600Y038936D03*
X009100Y038936D03*
X009600Y038936D03*
X010100Y038936D03*
D41*
X040826Y038910D03*
X040826Y038410D03*
X040826Y037910D03*
X040826Y037410D03*
X040826Y036910D03*
X040826Y036410D03*
X040826Y035910D03*
X040826Y035410D03*
X042874Y035410D03*
X042874Y035910D03*
X042874Y036410D03*
X042874Y036910D03*
X042874Y037410D03*
X042874Y037910D03*
X042874Y038410D03*
X042874Y038910D03*
X042924Y022960D03*
X042924Y022460D03*
X042924Y021960D03*
X042924Y021460D03*
X042924Y020960D03*
X042924Y020460D03*
X042924Y019960D03*
X042924Y019460D03*
X040876Y019460D03*
X040876Y019960D03*
X040876Y020460D03*
X040876Y020960D03*
X040876Y021460D03*
X040876Y021960D03*
X040876Y022460D03*
X040876Y022960D03*
X040826Y016660D03*
X040826Y016160D03*
X040826Y015660D03*
X040826Y015160D03*
X040826Y014660D03*
X040826Y014160D03*
X040826Y013660D03*
X040826Y013160D03*
X042874Y013160D03*
X042874Y013660D03*
X042874Y014160D03*
X042874Y014660D03*
X042874Y015160D03*
X042874Y015660D03*
X042874Y016160D03*
X042874Y016660D03*
D42*
X035443Y001748D03*
X034932Y001748D03*
D43*
X019688Y003196D03*
X019688Y004299D03*
X012438Y002861D03*
X012438Y001759D03*
D44*
X014167Y004338D03*
X014364Y004338D03*
X014561Y004338D03*
X014758Y004338D03*
X014955Y004338D03*
X015152Y004338D03*
X015348Y004338D03*
X015545Y004338D03*
X015742Y004338D03*
X015939Y004338D03*
X016136Y004338D03*
X016333Y004338D03*
X016333Y007782D03*
X016136Y007782D03*
X015939Y007782D03*
X015742Y007782D03*
X015545Y007782D03*
X015348Y007782D03*
X015152Y007782D03*
X014955Y007782D03*
X014758Y007782D03*
X014561Y007782D03*
X014364Y007782D03*
X014167Y007782D03*
D45*
X013528Y007143D03*
X013528Y006946D03*
X013528Y006749D03*
X013528Y006552D03*
X013528Y006355D03*
X013528Y006158D03*
X013528Y005962D03*
X013528Y005765D03*
X013528Y005568D03*
X013528Y005371D03*
X013528Y005174D03*
X013528Y004977D03*
X016972Y004977D03*
X016972Y005174D03*
X016972Y005371D03*
X016972Y005568D03*
X016972Y005765D03*
X016972Y005962D03*
X016972Y006158D03*
X016972Y006355D03*
X016972Y006552D03*
X016972Y006749D03*
X016972Y006946D03*
X016972Y007143D03*
D46*
X022450Y032685D03*
X022950Y032685D03*
X023450Y032685D03*
X023950Y032685D03*
X023950Y034935D03*
X023450Y034935D03*
X022950Y034935D03*
X022450Y034935D03*
X026763Y034935D03*
X027263Y034935D03*
X027763Y034935D03*
X028263Y034935D03*
X028263Y032685D03*
X027763Y032685D03*
X027263Y032685D03*
X026763Y032685D03*
X030950Y032685D03*
X031450Y032685D03*
X031950Y032685D03*
X032450Y032685D03*
X032450Y034935D03*
X031950Y034935D03*
X031450Y034935D03*
X030950Y034935D03*
X035200Y034935D03*
X035700Y034935D03*
X036200Y034935D03*
X036700Y034935D03*
X036700Y032685D03*
X036200Y032685D03*
X035700Y032685D03*
X035200Y032685D03*
X034750Y047685D03*
X034250Y047685D03*
X033750Y047685D03*
X033250Y047685D03*
X031000Y047685D03*
X030500Y047685D03*
X030000Y047685D03*
X029500Y047685D03*
X027513Y047685D03*
X027013Y047685D03*
X026513Y047685D03*
X026013Y047685D03*
X023950Y047685D03*
X023450Y047685D03*
X022950Y047685D03*
X022450Y047685D03*
X020450Y047685D03*
X019950Y047685D03*
X019450Y047685D03*
X018950Y047685D03*
X016950Y047685D03*
X016450Y047685D03*
X015950Y047685D03*
X015450Y047685D03*
X015450Y049935D03*
X015950Y049935D03*
X016450Y049935D03*
X016950Y049935D03*
X018950Y049935D03*
X019450Y049935D03*
X019950Y049935D03*
X020450Y049935D03*
X022450Y049935D03*
X022950Y049935D03*
X023450Y049935D03*
X023950Y049935D03*
X026013Y049935D03*
X026513Y049935D03*
X027013Y049935D03*
X027513Y049935D03*
X029500Y049935D03*
X030000Y049935D03*
X030500Y049935D03*
X031000Y049935D03*
X033250Y049935D03*
X033750Y049935D03*
X034250Y049935D03*
X034750Y049935D03*
X036950Y049935D03*
X037450Y049935D03*
X037950Y049935D03*
X038450Y049935D03*
X038450Y047685D03*
X037950Y047685D03*
X037450Y047685D03*
X036950Y047685D03*
D47*
X008350Y050669D03*
X008350Y051851D03*
X008000Y046601D03*
X008000Y045419D03*
D48*
X024860Y017226D03*
X025765Y017226D03*
X025765Y015769D03*
X024860Y015769D03*
D49*
X016306Y032048D03*
X016306Y032249D03*
X016306Y032444D03*
X015685Y032444D03*
X015685Y032249D03*
X015685Y032048D03*
D50*
X015250Y032385D03*
X015300Y032910D03*
X016000Y033010D03*
X015000Y033810D03*
X016800Y031910D03*
X018400Y030110D03*
X019150Y029560D03*
X017900Y027510D03*
X016300Y027310D03*
X014700Y028510D03*
X014200Y027210D03*
X014800Y030110D03*
X013800Y031710D03*
X012000Y032010D03*
X011200Y030760D03*
X010400Y031210D03*
X008500Y031810D03*
X010700Y033160D03*
X010100Y034510D03*
X011700Y035760D03*
X013000Y037810D03*
X013100Y040010D03*
X012100Y039910D03*
X010563Y039560D03*
X010100Y038210D03*
X007000Y040010D03*
X006000Y039810D03*
X008000Y042310D03*
X008625Y042248D03*
X009550Y044660D03*
X008000Y044760D03*
X009000Y047910D03*
X009000Y050685D03*
X009718Y051748D03*
X015500Y048310D03*
X016938Y048310D03*
X016950Y047160D03*
X019000Y048310D03*
X020313Y048310D03*
X022500Y048310D03*
X023875Y048310D03*
X026000Y048310D03*
X027500Y048310D03*
X029500Y048310D03*
X031000Y048310D03*
X033250Y048310D03*
X034750Y048310D03*
X036650Y049010D03*
X037000Y048310D03*
X038375Y048310D03*
X038500Y046810D03*
X037000Y046810D03*
X035000Y046310D03*
X033500Y046310D03*
X030500Y046060D03*
X030000Y046123D03*
X027000Y045810D03*
X026500Y045810D03*
X024938Y045498D03*
X024250Y045498D03*
X024813Y043373D03*
X026813Y043435D03*
X028813Y043435D03*
X030750Y043435D03*
X032750Y043435D03*
X030313Y039248D03*
X030500Y037310D03*
X026500Y037310D03*
X022813Y037248D03*
X021500Y035310D03*
X022500Y033310D03*
X022500Y032060D03*
X023000Y031160D03*
X023875Y033310D03*
X027000Y033310D03*
X027000Y031810D03*
X028050Y031310D03*
X029150Y031310D03*
X030188Y031310D03*
X030938Y031310D03*
X031625Y031248D03*
X033313Y031310D03*
X033875Y031810D03*
X034813Y031310D03*
X036125Y030623D03*
X037188Y030998D03*
X038000Y031310D03*
X036875Y033310D03*
X035850Y033260D03*
X035200Y033260D03*
X037600Y034510D03*
X037850Y034998D03*
X040750Y034560D03*
X043375Y034373D03*
X043500Y033460D03*
X044500Y033310D03*
X043400Y032510D03*
X041000Y031310D03*
X040500Y029310D03*
X041200Y028110D03*
X039500Y026210D03*
X038100Y026510D03*
X036700Y024760D03*
X035600Y024710D03*
X035900Y023560D03*
X034000Y023510D03*
X032563Y025310D03*
X032125Y026760D03*
X030650Y026760D03*
X030700Y025710D03*
X030000Y025685D03*
X028500Y027310D03*
X025200Y027410D03*
X025450Y030410D03*
X026000Y030410D03*
X028150Y030210D03*
X029150Y030260D03*
X029550Y033310D03*
X028438Y033310D03*
X031000Y033260D03*
X032313Y033510D03*
X035500Y037310D03*
X037500Y040498D03*
X037500Y041123D03*
X041000Y041310D03*
X041500Y040710D03*
X042000Y042623D03*
X042000Y043935D03*
X043813Y043498D03*
X045750Y043110D03*
X045750Y044560D03*
X048000Y043560D03*
X048000Y042060D03*
X044000Y039810D03*
X046200Y036860D03*
X044500Y036310D03*
X044438Y035685D03*
X043813Y035435D03*
X045375Y034935D03*
X046688Y033373D03*
X048850Y032410D03*
X050100Y032410D03*
X047750Y030810D03*
X047750Y029060D03*
X050450Y027760D03*
X053500Y030310D03*
X048000Y035560D03*
X048000Y037060D03*
X049500Y037810D03*
X053500Y036810D03*
X053500Y043310D03*
X048000Y048560D03*
X048000Y050060D03*
X053500Y049810D03*
X032875Y049873D03*
X022750Y043123D03*
X020563Y044935D03*
X019900Y044810D03*
X019375Y045123D03*
X017400Y044210D03*
X016850Y043860D03*
X015000Y044310D03*
X014500Y042810D03*
X014000Y042310D03*
X013500Y042810D03*
X011350Y043410D03*
X012750Y046248D03*
X020500Y038810D03*
X018300Y036210D03*
X016800Y036210D03*
X016300Y038110D03*
X008600Y035210D03*
X005550Y027760D03*
X007700Y024410D03*
X009000Y024210D03*
X012500Y022110D03*
X012200Y020310D03*
X011300Y018910D03*
X013400Y018610D03*
X017900Y021860D03*
X021600Y024910D03*
X024700Y022890D03*
X027100Y020110D03*
X028600Y020910D03*
X029600Y020910D03*
X031150Y022210D03*
X030375Y019498D03*
X029113Y018160D03*
X027800Y018460D03*
X027200Y017910D03*
X026400Y017310D03*
X025100Y015060D03*
X023500Y015200D03*
X023760Y018430D03*
X019400Y017910D03*
X016600Y014210D03*
X015500Y013310D03*
X015000Y012110D03*
X014000Y012110D03*
X013300Y012110D03*
X011400Y010110D03*
X009400Y008610D03*
X011500Y007310D03*
X013100Y008210D03*
X013700Y007810D03*
X015300Y006610D03*
X016188Y007060D03*
X014125Y004935D03*
X013500Y003810D03*
X016800Y004360D03*
X019700Y005010D03*
X024000Y005810D03*
X024000Y008310D03*
X020938Y011810D03*
X017000Y012110D03*
X016000Y012110D03*
X009200Y014010D03*
X008063Y014560D03*
X008400Y012410D03*
X004500Y012610D03*
X004500Y008310D03*
X009500Y004810D03*
X013500Y001010D03*
X014400Y001010D03*
X015500Y001010D03*
X016500Y001010D03*
X017500Y001010D03*
X024000Y002310D03*
X028500Y005310D03*
X030600Y008610D03*
X029300Y009460D03*
X031300Y011810D03*
X032700Y015610D03*
X032700Y016410D03*
X032200Y016385D03*
X037200Y014310D03*
X039688Y014185D03*
X040000Y013210D03*
X039750Y011560D03*
X039000Y009560D03*
X039100Y008710D03*
X040801Y008711D03*
X042900Y006760D03*
X044850Y007160D03*
X046600Y007160D03*
X047000Y008810D03*
X047750Y011310D03*
X046600Y012410D03*
X046000Y013810D03*
X045000Y012410D03*
X045000Y011810D03*
X043900Y012210D03*
X048000Y016060D03*
X048000Y017810D03*
X046000Y017310D03*
X045500Y018310D03*
X045000Y020310D03*
X046000Y021310D03*
X048000Y022560D03*
X048000Y024060D03*
X045500Y024310D03*
X043200Y023510D03*
X040000Y023560D03*
X039500Y020460D03*
X040000Y019510D03*
X040200Y017610D03*
X039100Y017610D03*
X039250Y016560D03*
X043200Y017810D03*
X042000Y019810D03*
X048950Y020910D03*
X050550Y020910D03*
X053500Y023810D03*
X053500Y017310D03*
X050800Y014310D03*
X049050Y014310D03*
X053500Y010810D03*
X049800Y008910D03*
X047750Y004810D03*
X045950Y005110D03*
X045500Y004310D03*
X044600Y003910D03*
X043500Y003110D03*
X044400Y001810D03*
X043100Y004610D03*
X041300Y004560D03*
X035900Y002810D03*
X032700Y004210D03*
X047750Y003060D03*
X053500Y004310D03*
X035600Y026410D03*
X034563Y026435D03*
X033063Y028373D03*
X036125Y028685D03*
X043400Y030010D03*
X044000Y027160D03*
X004500Y023710D03*
D51*
X009625Y018623D03*
X009938Y017373D03*
X010188Y015248D03*
X009250Y015248D03*
X012125Y016498D03*
X016375Y024560D03*
X019813Y024560D03*
X021325Y027260D03*
X021225Y027873D03*
X021950Y027260D03*
X019900Y028910D03*
X024550Y023848D03*
X025813Y022373D03*
X025350Y021623D03*
X025463Y021135D03*
X024775Y021198D03*
X024400Y020210D03*
X024445Y019590D03*
X024485Y019090D03*
X024050Y018933D03*
X025608Y020018D03*
X027313Y019185D03*
X028650Y018598D03*
X029250Y020010D03*
X029700Y020135D03*
X031000Y020410D03*
X031450Y020410D03*
X031788Y019785D03*
X033310Y020015D03*
X033688Y021060D03*
X034000Y021498D03*
X034500Y021310D03*
X034965Y021050D03*
X034500Y019960D03*
X034948Y019708D03*
X035500Y017810D03*
X034313Y017560D03*
X034188Y016998D03*
X034063Y016435D03*
X031925Y018035D03*
X031588Y018398D03*
X029500Y021435D03*
X028800Y022010D03*
X028313Y022060D03*
X027688Y022310D03*
X027300Y022585D03*
X028500Y024310D03*
X029375Y024310D03*
X029875Y024310D03*
X030500Y024310D03*
X031438Y024435D03*
X032188Y024498D03*
X032188Y023998D03*
X031338Y022723D03*
X030875Y022760D03*
X024375Y017185D03*
X025750Y015060D03*
X027500Y013810D03*
X026688Y012310D03*
X026938Y011310D03*
X026563Y010935D03*
X026125Y010498D03*
X025750Y010123D03*
X025313Y009685D03*
X026313Y009560D03*
X027000Y009873D03*
X027688Y010310D03*
X028500Y010748D03*
X029313Y011248D03*
X032000Y011623D03*
X031500Y014310D03*
X037625Y015610D03*
X038250Y018123D03*
X040000Y021810D03*
X038500Y022373D03*
X042938Y018873D03*
X043625Y013873D03*
X044000Y013310D03*
X040000Y008623D03*
X040875Y007810D03*
X041750Y007185D03*
X041000Y006310D03*
X040500Y006123D03*
X039438Y003685D03*
X039375Y002373D03*
X035000Y006310D03*
X035000Y007123D03*
X030000Y002310D03*
X017875Y005185D03*
X017500Y004310D03*
X015813Y004935D03*
X014688Y004998D03*
X015063Y003623D03*
X014125Y003685D03*
X013000Y005685D03*
X012688Y006123D03*
X012875Y006623D03*
X012250Y006560D03*
X013000Y027060D03*
X011188Y034123D03*
X007313Y034560D03*
D52*
X031900Y021410D03*
X031900Y020910D03*
X031488Y018885D03*
D53*
X032500Y017310D03*
X042000Y022810D03*
X035000Y028310D03*
X039500Y031310D03*
X017500Y009310D03*
D54*
X013500Y048810D03*
M02*
