G75*
%MOIN*%
%OFA0B0*%
%FSLAX24Y24*%
%IPPOS*%
%LPD*%
%AMOC8*
5,1,8,0,0,1.08239X$1,22.5*
%
%ADD10C,0.1010*%
%ADD11C,0.0595*%
%ADD12C,0.1261*%
%ADD13OC8,0.0820*%
%ADD14C,0.0680*%
%ADD15R,0.0880X0.0880*%
%ADD16C,0.0880*%
%ADD17C,0.0730*%
%ADD18R,0.0820X0.0820*%
%ADD19R,0.0710X0.0789*%
%ADD20R,0.0789X0.0710*%
%ADD21C,0.0820*%
%ADD22C,0.1025*%
%ADD23C,0.0674*%
%ADD24C,0.1340*%
%ADD25R,0.0476X0.0476*%
%ADD26C,0.0437*%
%ADD27C,0.0476*%
%ADD28C,0.0480*%
%ADD29C,0.0390*%
D10*
X006776Y002826D03*
X022182Y002152D03*
X034216Y013736D03*
X047702Y019864D03*
X026768Y027448D03*
X025202Y038364D03*
X011194Y047778D03*
X041202Y046864D03*
X049892Y051764D03*
X050164Y001578D03*
D11*
X035822Y039858D03*
X035322Y040608D03*
X034822Y039858D03*
X034322Y040608D03*
X033822Y039858D03*
X033322Y040608D03*
X032822Y039858D03*
X032322Y040608D03*
X031822Y039858D03*
X031322Y040608D03*
X030822Y039858D03*
X030322Y040608D03*
X029822Y039858D03*
X029322Y040608D03*
X028822Y039858D03*
X028322Y040608D03*
X027822Y039858D03*
X027322Y040608D03*
X026822Y039858D03*
X026322Y040608D03*
X025822Y039858D03*
X025322Y040608D03*
X024822Y039858D03*
X024322Y040608D03*
X023822Y039858D03*
X023322Y040608D03*
X022822Y039858D03*
X022322Y040608D03*
X021822Y039858D03*
X021322Y040608D03*
X020822Y039858D03*
X020322Y040608D03*
X019822Y039858D03*
X019822Y041358D03*
X020322Y042108D03*
X020822Y041358D03*
X021322Y042108D03*
X021822Y041358D03*
X022322Y042108D03*
X022822Y041358D03*
X023322Y042108D03*
X023822Y041358D03*
X024322Y042108D03*
X024822Y041358D03*
X025322Y042108D03*
X025822Y041358D03*
X026322Y042108D03*
X026822Y041358D03*
X027322Y042108D03*
X027822Y041358D03*
X028322Y042108D03*
X028822Y041358D03*
X029322Y042108D03*
X029822Y041358D03*
X030322Y042108D03*
X030822Y041358D03*
X031322Y042108D03*
X031822Y041358D03*
X032322Y042108D03*
X032822Y041358D03*
X033322Y042108D03*
X033822Y041358D03*
X034322Y042108D03*
X034822Y041358D03*
X035322Y042108D03*
X035822Y041358D03*
X036322Y042108D03*
X036322Y040608D03*
D12*
X028053Y003975D03*
D13*
X032500Y008810D03*
X032500Y009810D03*
X033500Y009810D03*
X033500Y008810D03*
X033500Y010810D03*
X022500Y015060D03*
X021500Y015060D03*
X021500Y016060D03*
X022500Y016060D03*
X022500Y017060D03*
X021500Y017060D03*
X021500Y018060D03*
X021500Y019060D03*
X022500Y019060D03*
X022500Y018060D03*
X022500Y020060D03*
X021500Y020060D03*
X021500Y021060D03*
X022500Y021060D03*
X022500Y022060D03*
X021500Y022060D03*
X021500Y023060D03*
X022500Y023060D03*
X022500Y024060D03*
X021500Y024060D03*
X013000Y028860D03*
X012000Y028860D03*
X012000Y027860D03*
X012000Y029860D03*
X013000Y029860D03*
X013250Y016660D03*
X014250Y016660D03*
X014250Y015660D03*
X013250Y015660D03*
X015250Y015660D03*
D14*
X016080Y017920D02*
X016680Y017920D01*
X018610Y018230D02*
X018610Y018830D01*
X020390Y018830D02*
X020390Y018230D01*
X020390Y020790D02*
X020390Y021390D01*
X018610Y021390D02*
X018610Y020790D01*
X016680Y019700D02*
X016080Y019700D01*
X014120Y019700D02*
X013520Y019700D01*
X013520Y017920D02*
X014120Y017920D01*
X014920Y029220D02*
X015520Y029220D01*
X015520Y031000D02*
X014920Y031000D01*
X017480Y031000D02*
X018080Y031000D01*
X018080Y029220D02*
X017480Y029220D01*
X046920Y007950D02*
X047520Y007950D01*
X049480Y007950D02*
X050080Y007950D01*
X050080Y006170D02*
X049480Y006170D01*
X047520Y006170D02*
X046920Y006170D01*
D15*
X004000Y016310D03*
X004050Y019710D03*
X004500Y045810D03*
X004500Y051060D03*
D16*
X004500Y049091D03*
X004500Y043841D03*
X004050Y018332D03*
X004000Y014932D03*
D17*
X007750Y019935D03*
X009750Y019935D03*
X021500Y007310D03*
X021500Y005310D03*
X043375Y008498D03*
X043375Y010498D03*
X010500Y036810D03*
X008500Y036810D03*
D18*
X004250Y038310D03*
X003513Y035773D03*
X003513Y032810D03*
X003513Y029798D03*
X003500Y025810D03*
X003500Y022810D03*
X008000Y022810D03*
X008000Y025810D03*
X013000Y027860D03*
X013438Y024310D03*
X015250Y016660D03*
X007368Y009560D03*
X032500Y010810D03*
X056000Y008560D03*
X056000Y015060D03*
X056000Y021560D03*
X056000Y028060D03*
X056000Y034560D03*
X056000Y041060D03*
X056000Y047560D03*
X056000Y002060D03*
D19*
X049051Y007060D03*
X047949Y007060D03*
X040801Y009560D03*
X039699Y009560D03*
X041449Y017560D03*
X042551Y017560D03*
X042551Y023810D03*
X041449Y023810D03*
X032051Y028810D03*
X030949Y028810D03*
X031136Y034248D03*
X032239Y034248D03*
X035386Y034248D03*
X036489Y034248D03*
X041449Y039810D03*
X042551Y039810D03*
X038389Y049060D03*
X037286Y049060D03*
X034551Y049060D03*
X033449Y049060D03*
X030801Y049060D03*
X029699Y049060D03*
X027301Y049060D03*
X026199Y049060D03*
X023739Y049060D03*
X022636Y049060D03*
X020239Y049060D03*
X019136Y049060D03*
X016739Y049060D03*
X015636Y049060D03*
X015114Y039998D03*
X014011Y039998D03*
X008926Y039998D03*
X007824Y039998D03*
X009761Y035185D03*
X010864Y035185D03*
X010864Y031935D03*
X009761Y031935D03*
X015949Y030123D03*
X017051Y030123D03*
X022636Y034248D03*
X023739Y034248D03*
X026949Y034248D03*
X028051Y034248D03*
X019051Y024560D03*
X017949Y024560D03*
X015676Y018810D03*
X014574Y018810D03*
X010926Y020873D03*
X009824Y020873D03*
X007801Y020873D03*
X006699Y020873D03*
X006701Y024060D03*
X005599Y024060D03*
X009199Y016748D03*
X009199Y015935D03*
X010301Y015935D03*
X010301Y016748D03*
X004551Y007310D03*
X003449Y007310D03*
X014699Y005623D03*
X015801Y005623D03*
X015801Y004248D03*
X014699Y004248D03*
X021449Y004310D03*
X022551Y004310D03*
X022551Y008310D03*
X021449Y008310D03*
X024636Y014373D03*
X025739Y014373D03*
X028699Y016498D03*
X029801Y016498D03*
D20*
X023688Y016134D03*
X023688Y017236D03*
X019500Y019259D03*
X019500Y020361D03*
X010500Y012361D03*
X010500Y011259D03*
X009500Y010861D03*
X010500Y010174D03*
X009500Y009759D03*
X010500Y009071D03*
X009500Y006611D03*
X009500Y005509D03*
X011813Y005549D03*
X011813Y004446D03*
X014500Y006946D03*
X014500Y008049D03*
X037125Y003361D03*
X038063Y003361D03*
X038063Y002259D03*
X037125Y002259D03*
X038250Y009134D03*
X038250Y010236D03*
X047000Y009759D03*
X047000Y010861D03*
X047250Y016259D03*
X047250Y017361D03*
X047250Y022759D03*
X047250Y023861D03*
X047000Y029259D03*
X047000Y030361D03*
X043500Y030759D03*
X043500Y031861D03*
X047250Y035759D03*
X047250Y036861D03*
X047250Y042259D03*
X047250Y043361D03*
X041188Y043799D03*
X041188Y042696D03*
X047250Y048759D03*
X047250Y049861D03*
X011750Y037861D03*
X011750Y036759D03*
X007250Y036759D03*
X007250Y037861D03*
X047000Y004611D03*
X047000Y003509D03*
D21*
X055000Y003560D03*
X055000Y002560D03*
X056000Y003060D03*
X056000Y004060D03*
X056000Y005060D03*
X055000Y004560D03*
X055000Y005560D03*
X055000Y009060D03*
X055000Y010060D03*
X055000Y011060D03*
X055000Y012060D03*
X056000Y011560D03*
X056000Y010560D03*
X056000Y009560D03*
X055000Y015560D03*
X055000Y016560D03*
X055000Y017560D03*
X055000Y018560D03*
X056000Y018060D03*
X056000Y017060D03*
X056000Y016060D03*
X055000Y022060D03*
X055000Y023060D03*
X055000Y024060D03*
X055000Y025060D03*
X056000Y024560D03*
X056000Y023560D03*
X056000Y022560D03*
X055000Y028560D03*
X055000Y029560D03*
X055000Y030560D03*
X055000Y031560D03*
X056000Y031060D03*
X056000Y030060D03*
X056000Y029060D03*
X055000Y035060D03*
X055000Y036060D03*
X055000Y037060D03*
X055000Y038060D03*
X056000Y037560D03*
X056000Y036560D03*
X056000Y035560D03*
X055000Y041560D03*
X055000Y042560D03*
X055000Y043560D03*
X055000Y044560D03*
X056000Y044060D03*
X056000Y043060D03*
X056000Y042060D03*
X055000Y048060D03*
X055000Y049060D03*
X055000Y050060D03*
X055000Y051060D03*
X056000Y050560D03*
X056000Y049560D03*
X056000Y048560D03*
X038250Y014310D03*
X038250Y013310D03*
X038250Y012310D03*
X036500Y010810D03*
X036500Y009810D03*
X035500Y009810D03*
X035500Y010810D03*
X034500Y010810D03*
X034500Y009810D03*
X034563Y008810D03*
X035563Y008810D03*
X036563Y008810D03*
X013438Y022310D03*
X013438Y023310D03*
X011000Y022810D03*
X010000Y022810D03*
X009000Y022810D03*
X006500Y022810D03*
X005500Y022810D03*
X004500Y022810D03*
X004500Y025810D03*
X005500Y025810D03*
X006500Y025810D03*
X009000Y025810D03*
X010000Y025810D03*
X011000Y025810D03*
X010000Y028060D03*
X009000Y028060D03*
X009000Y029060D03*
X010000Y029060D03*
X010000Y030060D03*
X009000Y030060D03*
X008000Y030060D03*
X008000Y029060D03*
X008000Y028060D03*
X006513Y029798D03*
X005513Y029798D03*
X004513Y029798D03*
X004513Y032810D03*
X005513Y032810D03*
X006513Y032810D03*
X006513Y035773D03*
X005513Y035773D03*
X004513Y035773D03*
X004250Y039310D03*
X004250Y040310D03*
X004250Y041310D03*
X008368Y009060D03*
X008368Y008060D03*
X008368Y007060D03*
X008368Y006060D03*
X007368Y006560D03*
X007368Y007560D03*
X007368Y008560D03*
D22*
X006051Y010810D03*
X006051Y004826D03*
D23*
X003295Y005219D03*
X003295Y006204D03*
X003295Y009432D03*
X003295Y010416D03*
D24*
X004868Y010060D03*
X004868Y005560D03*
X058500Y006060D03*
X058500Y008060D03*
X058500Y012560D03*
X058500Y014560D03*
X058500Y019060D03*
X058500Y021060D03*
X058500Y025560D03*
X058500Y027560D03*
X058500Y032060D03*
X058500Y034060D03*
X058500Y038560D03*
X058500Y040560D03*
X058500Y045060D03*
X058500Y047060D03*
X058500Y051560D03*
X058500Y001560D03*
D25*
X053500Y004310D03*
X049800Y008910D03*
X047000Y008810D03*
X046600Y007160D03*
X044850Y007160D03*
X042900Y006760D03*
X043100Y004610D03*
X044600Y003910D03*
X045500Y004310D03*
X045950Y005110D03*
X047750Y004810D03*
X047750Y003060D03*
X044400Y001810D03*
X043500Y003110D03*
X041300Y004560D03*
X040801Y008711D03*
X039100Y008710D03*
X039000Y009560D03*
X039750Y011560D03*
X040000Y013210D03*
X039688Y014185D03*
X037200Y014310D03*
X039250Y016560D03*
X039100Y017610D03*
X040200Y017610D03*
X040000Y019510D03*
X039500Y020460D03*
X042000Y019810D03*
X043200Y017810D03*
X045500Y018310D03*
X046000Y017310D03*
X048000Y017810D03*
X048000Y016060D03*
X049050Y014310D03*
X050800Y014310D03*
X053500Y017310D03*
X050550Y020910D03*
X048950Y020910D03*
X048000Y022560D03*
X048000Y024060D03*
X045500Y024310D03*
X043200Y023510D03*
X040000Y023560D03*
X039500Y026210D03*
X038100Y026510D03*
X036700Y024760D03*
X035600Y024710D03*
X035900Y023560D03*
X034000Y023510D03*
X032563Y025310D03*
X032125Y026760D03*
X030650Y026760D03*
X030700Y025710D03*
X030000Y025685D03*
X028500Y027310D03*
X025200Y027410D03*
X025450Y030410D03*
X026000Y030410D03*
X027000Y031810D03*
X028050Y031310D03*
X029150Y031310D03*
X030188Y031310D03*
X030938Y031310D03*
X031625Y031248D03*
X033313Y031310D03*
X033875Y031810D03*
X034813Y031310D03*
X036125Y030623D03*
X037188Y030998D03*
X038000Y031310D03*
X036875Y033310D03*
X035850Y033260D03*
X035200Y033260D03*
X037600Y034510D03*
X037850Y034998D03*
X040750Y034560D03*
X043375Y034373D03*
X043500Y033460D03*
X044500Y033310D03*
X043400Y032510D03*
X041000Y031310D03*
X040500Y029310D03*
X041200Y028110D03*
X043400Y030010D03*
X044000Y027160D03*
X047750Y029060D03*
X047750Y030810D03*
X048850Y032410D03*
X050100Y032410D03*
X046688Y033373D03*
X045375Y034935D03*
X044438Y035685D03*
X044500Y036310D03*
X043813Y035435D03*
X046200Y036860D03*
X048000Y037060D03*
X048000Y035560D03*
X049500Y037810D03*
X053500Y036810D03*
X048000Y042060D03*
X048000Y043560D03*
X045750Y043110D03*
X045750Y044560D03*
X043813Y043498D03*
X042000Y043935D03*
X042000Y042623D03*
X041000Y041310D03*
X041500Y040710D03*
X044000Y039810D03*
X037500Y040498D03*
X037500Y041123D03*
X035500Y037310D03*
X032313Y033510D03*
X031000Y033260D03*
X029550Y033310D03*
X028438Y033310D03*
X027000Y033310D03*
X023875Y033310D03*
X022500Y033310D03*
X022500Y032060D03*
X023000Y031160D03*
X019150Y029560D03*
X018400Y030110D03*
X016800Y031910D03*
X016000Y033010D03*
X015300Y032910D03*
X015250Y032385D03*
X015000Y033810D03*
X013800Y031710D03*
X012000Y032010D03*
X011200Y030760D03*
X010400Y031210D03*
X008500Y031810D03*
X010700Y033160D03*
X010100Y034510D03*
X011700Y035760D03*
X013000Y037810D03*
X013100Y040010D03*
X012100Y039910D03*
X010563Y039560D03*
X010100Y038210D03*
X007000Y040010D03*
X006000Y039810D03*
X008000Y042310D03*
X008625Y042248D03*
X009550Y044660D03*
X008000Y044760D03*
X009000Y047910D03*
X009000Y050685D03*
X009718Y051748D03*
X015500Y048310D03*
X016938Y048310D03*
X016950Y047160D03*
X019000Y048310D03*
X020313Y048310D03*
X022500Y048310D03*
X023875Y048310D03*
X026000Y048310D03*
X027500Y048310D03*
X029500Y048310D03*
X031000Y048310D03*
X033250Y048310D03*
X034750Y048310D03*
X036650Y049010D03*
X037000Y048310D03*
X038375Y048310D03*
X038500Y046810D03*
X037000Y046810D03*
X035000Y046310D03*
X033500Y046310D03*
X030500Y046060D03*
X030000Y046123D03*
X027000Y045810D03*
X026500Y045810D03*
X024938Y045498D03*
X024250Y045498D03*
X024813Y043373D03*
X026813Y043435D03*
X028813Y043435D03*
X030750Y043435D03*
X032750Y043435D03*
X030313Y039248D03*
X030500Y037310D03*
X026500Y037310D03*
X022813Y037248D03*
X021500Y035310D03*
X018300Y036210D03*
X016800Y036210D03*
X016300Y038110D03*
X020500Y038810D03*
X022750Y043123D03*
X020563Y044935D03*
X019900Y044810D03*
X019375Y045123D03*
X017400Y044210D03*
X016850Y043860D03*
X015000Y044310D03*
X014500Y042810D03*
X014000Y042310D03*
X013500Y042810D03*
X011350Y043410D03*
X012750Y046248D03*
X008600Y035210D03*
X014800Y030110D03*
X014700Y028510D03*
X014200Y027210D03*
X016300Y027310D03*
X017900Y027510D03*
X021600Y024910D03*
X024700Y022890D03*
X027100Y020110D03*
X028600Y020910D03*
X029600Y020910D03*
X031150Y022210D03*
X030375Y019498D03*
X029113Y018160D03*
X027800Y018460D03*
X027200Y017910D03*
X026400Y017310D03*
X025100Y015060D03*
X023500Y015200D03*
X023760Y018430D03*
X019400Y017910D03*
X016600Y014210D03*
X015500Y013310D03*
X015000Y012110D03*
X014000Y012110D03*
X013300Y012110D03*
X011400Y010110D03*
X009400Y008610D03*
X011500Y007310D03*
X013100Y008210D03*
X013700Y007810D03*
X015300Y006610D03*
X016188Y007060D03*
X014125Y004935D03*
X013500Y003810D03*
X016800Y004360D03*
X019700Y005010D03*
X024000Y005810D03*
X024000Y008310D03*
X020938Y011810D03*
X017000Y012110D03*
X016000Y012110D03*
X009200Y014010D03*
X008063Y014560D03*
X008400Y012410D03*
X004500Y012610D03*
X004500Y008310D03*
X009500Y004810D03*
X013500Y001010D03*
X014400Y001010D03*
X015500Y001010D03*
X016500Y001010D03*
X017500Y001010D03*
X024000Y002310D03*
X028500Y005310D03*
X030600Y008610D03*
X029300Y009460D03*
X031300Y011810D03*
X032700Y015610D03*
X032700Y016410D03*
X032200Y016385D03*
X043900Y012210D03*
X045000Y012410D03*
X045000Y011810D03*
X046600Y012410D03*
X047750Y011310D03*
X046000Y013810D03*
X045000Y020310D03*
X046000Y021310D03*
X050450Y027760D03*
X053500Y030310D03*
X053500Y023810D03*
X053500Y010810D03*
X035900Y002810D03*
X032700Y004210D03*
X013400Y018610D03*
X012200Y020310D03*
X011300Y018910D03*
X012500Y022110D03*
X009000Y024210D03*
X007700Y024410D03*
X004500Y023710D03*
X005550Y027760D03*
X017900Y021860D03*
X028150Y030210D03*
X029150Y030260D03*
X033063Y028373D03*
X034563Y026435D03*
X035600Y026410D03*
X036125Y028685D03*
X053500Y043310D03*
X048000Y048560D03*
X048000Y050060D03*
X053500Y049810D03*
X032875Y049873D03*
D26*
X011188Y034123D03*
X007313Y034560D03*
X013000Y027060D03*
X016375Y024560D03*
X019813Y024560D03*
X021325Y027260D03*
X021225Y027873D03*
X021950Y027260D03*
X019900Y028910D03*
X024550Y023848D03*
X025813Y022373D03*
X025350Y021623D03*
X025463Y021135D03*
X024775Y021198D03*
X024400Y020210D03*
X024445Y019590D03*
X024485Y019090D03*
X024050Y018933D03*
X025608Y020018D03*
X027313Y019185D03*
X028650Y018598D03*
X029250Y020010D03*
X029700Y020135D03*
X031000Y020410D03*
X031450Y020410D03*
X031788Y019785D03*
X033310Y020015D03*
X033688Y021060D03*
X034000Y021498D03*
X034500Y021310D03*
X034965Y021050D03*
X034500Y019960D03*
X034948Y019708D03*
X035500Y017810D03*
X034313Y017560D03*
X034188Y016998D03*
X034063Y016435D03*
X031925Y018035D03*
X031588Y018398D03*
X029500Y021435D03*
X028800Y022010D03*
X028313Y022060D03*
X027688Y022310D03*
X027300Y022585D03*
X028500Y024310D03*
X029375Y024310D03*
X029875Y024310D03*
X030500Y024310D03*
X031438Y024435D03*
X032188Y024498D03*
X032188Y023998D03*
X031338Y022723D03*
X030875Y022760D03*
X024375Y017185D03*
X025750Y015060D03*
X027500Y013810D03*
X026688Y012310D03*
X026938Y011310D03*
X026563Y010935D03*
X026125Y010498D03*
X025750Y010123D03*
X025313Y009685D03*
X026313Y009560D03*
X027000Y009873D03*
X027688Y010310D03*
X028500Y010748D03*
X029313Y011248D03*
X032000Y011623D03*
X031500Y014310D03*
X037625Y015610D03*
X038250Y018123D03*
X040000Y021810D03*
X038500Y022373D03*
X042938Y018873D03*
X043625Y013873D03*
X044000Y013310D03*
X040000Y008623D03*
X040875Y007810D03*
X041750Y007185D03*
X041000Y006310D03*
X040500Y006123D03*
X039438Y003685D03*
X039375Y002373D03*
X035000Y006310D03*
X035000Y007123D03*
X030000Y002310D03*
X017875Y005185D03*
X017500Y004310D03*
X015813Y004935D03*
X014688Y004998D03*
X015063Y003623D03*
X014125Y003685D03*
X013000Y005685D03*
X012688Y006123D03*
X012875Y006623D03*
X012250Y006560D03*
X010188Y015248D03*
X009250Y015248D03*
X009938Y017373D03*
X009625Y018623D03*
X012125Y016498D03*
D27*
X031488Y018885D03*
X031900Y020910D03*
X031900Y021410D03*
D28*
X032500Y017310D03*
X042000Y022810D03*
X035000Y028310D03*
X039500Y031310D03*
X017500Y009310D03*
D29*
X013500Y048810D03*
M02*
