G75*
%MOIN*%
%OFA0B0*%
%FSLAX24Y24*%
%IPPOS*%
%LPD*%
%AMOC8*
5,1,8,0,0,1.08239X$1,22.5*
%
%ADD10C,0.0050*%
%ADD11C,0.0010*%
D10*
X022325Y033310D02*
X022327Y033332D01*
X022333Y033353D01*
X022342Y033372D01*
X022354Y033390D01*
X022370Y033406D01*
X022387Y033418D01*
X022407Y033427D01*
X022428Y033433D01*
X022450Y033435D01*
X022472Y033433D01*
X022493Y033427D01*
X022512Y033418D01*
X022530Y033406D01*
X022546Y033390D01*
X022558Y033372D01*
X022567Y033353D01*
X022573Y033332D01*
X022575Y033310D01*
X022573Y033288D01*
X022567Y033267D01*
X022558Y033248D01*
X022546Y033230D01*
X022530Y033214D01*
X022513Y033202D01*
X022493Y033193D01*
X022472Y033187D01*
X022450Y033185D01*
X022428Y033187D01*
X022407Y033193D01*
X022387Y033202D01*
X022370Y033214D01*
X022354Y033230D01*
X022342Y033247D01*
X022333Y033267D01*
X022327Y033288D01*
X022325Y033310D01*
X026638Y033310D02*
X026640Y033332D01*
X026646Y033353D01*
X026655Y033372D01*
X026667Y033390D01*
X026683Y033406D01*
X026700Y033418D01*
X026720Y033427D01*
X026741Y033433D01*
X026763Y033435D01*
X026785Y033433D01*
X026806Y033427D01*
X026825Y033418D01*
X026843Y033406D01*
X026859Y033390D01*
X026871Y033372D01*
X026880Y033353D01*
X026886Y033332D01*
X026888Y033310D01*
X026886Y033288D01*
X026880Y033267D01*
X026871Y033248D01*
X026859Y033230D01*
X026843Y033214D01*
X026826Y033202D01*
X026806Y033193D01*
X026785Y033187D01*
X026763Y033185D01*
X026741Y033187D01*
X026720Y033193D01*
X026700Y033202D01*
X026683Y033214D01*
X026667Y033230D01*
X026655Y033247D01*
X026646Y033267D01*
X026640Y033288D01*
X026638Y033310D01*
X030825Y033310D02*
X030827Y033332D01*
X030833Y033353D01*
X030842Y033372D01*
X030854Y033390D01*
X030870Y033406D01*
X030887Y033418D01*
X030907Y033427D01*
X030928Y033433D01*
X030950Y033435D01*
X030972Y033433D01*
X030993Y033427D01*
X031012Y033418D01*
X031030Y033406D01*
X031046Y033390D01*
X031058Y033372D01*
X031067Y033353D01*
X031073Y033332D01*
X031075Y033310D01*
X031073Y033288D01*
X031067Y033267D01*
X031058Y033248D01*
X031046Y033230D01*
X031030Y033214D01*
X031013Y033202D01*
X030993Y033193D01*
X030972Y033187D01*
X030950Y033185D01*
X030928Y033187D01*
X030907Y033193D01*
X030887Y033202D01*
X030870Y033214D01*
X030854Y033230D01*
X030842Y033247D01*
X030833Y033267D01*
X030827Y033288D01*
X030825Y033310D01*
X035075Y033310D02*
X035077Y033332D01*
X035083Y033353D01*
X035092Y033372D01*
X035104Y033390D01*
X035120Y033406D01*
X035137Y033418D01*
X035157Y033427D01*
X035178Y033433D01*
X035200Y033435D01*
X035222Y033433D01*
X035243Y033427D01*
X035262Y033418D01*
X035280Y033406D01*
X035296Y033390D01*
X035308Y033372D01*
X035317Y033353D01*
X035323Y033332D01*
X035325Y033310D01*
X035323Y033288D01*
X035317Y033267D01*
X035308Y033248D01*
X035296Y033230D01*
X035280Y033214D01*
X035263Y033202D01*
X035243Y033193D01*
X035222Y033187D01*
X035200Y033185D01*
X035178Y033187D01*
X035157Y033193D01*
X035137Y033202D01*
X035120Y033214D01*
X035104Y033230D01*
X035092Y033247D01*
X035083Y033267D01*
X035077Y033288D01*
X035075Y033310D01*
X041875Y042510D02*
X041877Y042532D01*
X041883Y042553D01*
X041892Y042572D01*
X041904Y042590D01*
X041920Y042606D01*
X041937Y042618D01*
X041957Y042627D01*
X041978Y042633D01*
X042000Y042635D01*
X042022Y042633D01*
X042043Y042627D01*
X042062Y042618D01*
X042080Y042606D01*
X042096Y042590D01*
X042108Y042572D01*
X042117Y042553D01*
X042123Y042532D01*
X042125Y042510D01*
X042123Y042488D01*
X042117Y042467D01*
X042108Y042448D01*
X042096Y042430D01*
X042080Y042414D01*
X042063Y042402D01*
X042043Y042393D01*
X042022Y042387D01*
X042000Y042385D01*
X041978Y042387D01*
X041957Y042393D01*
X041937Y042402D01*
X041920Y042414D01*
X041904Y042430D01*
X041892Y042447D01*
X041883Y042467D01*
X041877Y042488D01*
X041875Y042510D01*
X036825Y048310D02*
X036827Y048332D01*
X036833Y048353D01*
X036842Y048372D01*
X036854Y048390D01*
X036870Y048406D01*
X036887Y048418D01*
X036907Y048427D01*
X036928Y048433D01*
X036950Y048435D01*
X036972Y048433D01*
X036993Y048427D01*
X037012Y048418D01*
X037030Y048406D01*
X037046Y048390D01*
X037058Y048372D01*
X037067Y048353D01*
X037073Y048332D01*
X037075Y048310D01*
X037073Y048288D01*
X037067Y048267D01*
X037058Y048248D01*
X037046Y048230D01*
X037030Y048214D01*
X037013Y048202D01*
X036993Y048193D01*
X036972Y048187D01*
X036950Y048185D01*
X036928Y048187D01*
X036907Y048193D01*
X036887Y048202D01*
X036870Y048214D01*
X036854Y048230D01*
X036842Y048247D01*
X036833Y048267D01*
X036827Y048288D01*
X036825Y048310D01*
X033125Y048310D02*
X033127Y048332D01*
X033133Y048353D01*
X033142Y048372D01*
X033154Y048390D01*
X033170Y048406D01*
X033187Y048418D01*
X033207Y048427D01*
X033228Y048433D01*
X033250Y048435D01*
X033272Y048433D01*
X033293Y048427D01*
X033312Y048418D01*
X033330Y048406D01*
X033346Y048390D01*
X033358Y048372D01*
X033367Y048353D01*
X033373Y048332D01*
X033375Y048310D01*
X033373Y048288D01*
X033367Y048267D01*
X033358Y048248D01*
X033346Y048230D01*
X033330Y048214D01*
X033313Y048202D01*
X033293Y048193D01*
X033272Y048187D01*
X033250Y048185D01*
X033228Y048187D01*
X033207Y048193D01*
X033187Y048202D01*
X033170Y048214D01*
X033154Y048230D01*
X033142Y048247D01*
X033133Y048267D01*
X033127Y048288D01*
X033125Y048310D01*
X029375Y048310D02*
X029377Y048332D01*
X029383Y048353D01*
X029392Y048372D01*
X029404Y048390D01*
X029420Y048406D01*
X029437Y048418D01*
X029457Y048427D01*
X029478Y048433D01*
X029500Y048435D01*
X029522Y048433D01*
X029543Y048427D01*
X029562Y048418D01*
X029580Y048406D01*
X029596Y048390D01*
X029608Y048372D01*
X029617Y048353D01*
X029623Y048332D01*
X029625Y048310D01*
X029623Y048288D01*
X029617Y048267D01*
X029608Y048248D01*
X029596Y048230D01*
X029580Y048214D01*
X029563Y048202D01*
X029543Y048193D01*
X029522Y048187D01*
X029500Y048185D01*
X029478Y048187D01*
X029457Y048193D01*
X029437Y048202D01*
X029420Y048214D01*
X029404Y048230D01*
X029392Y048247D01*
X029383Y048267D01*
X029377Y048288D01*
X029375Y048310D01*
X025888Y048310D02*
X025890Y048332D01*
X025896Y048353D01*
X025905Y048372D01*
X025917Y048390D01*
X025933Y048406D01*
X025950Y048418D01*
X025970Y048427D01*
X025991Y048433D01*
X026013Y048435D01*
X026035Y048433D01*
X026056Y048427D01*
X026075Y048418D01*
X026093Y048406D01*
X026109Y048390D01*
X026121Y048372D01*
X026130Y048353D01*
X026136Y048332D01*
X026138Y048310D01*
X026136Y048288D01*
X026130Y048267D01*
X026121Y048248D01*
X026109Y048230D01*
X026093Y048214D01*
X026076Y048202D01*
X026056Y048193D01*
X026035Y048187D01*
X026013Y048185D01*
X025991Y048187D01*
X025970Y048193D01*
X025950Y048202D01*
X025933Y048214D01*
X025917Y048230D01*
X025905Y048247D01*
X025896Y048267D01*
X025890Y048288D01*
X025888Y048310D01*
X022325Y048310D02*
X022327Y048332D01*
X022333Y048353D01*
X022342Y048372D01*
X022354Y048390D01*
X022370Y048406D01*
X022387Y048418D01*
X022407Y048427D01*
X022428Y048433D01*
X022450Y048435D01*
X022472Y048433D01*
X022493Y048427D01*
X022512Y048418D01*
X022530Y048406D01*
X022546Y048390D01*
X022558Y048372D01*
X022567Y048353D01*
X022573Y048332D01*
X022575Y048310D01*
X022573Y048288D01*
X022567Y048267D01*
X022558Y048248D01*
X022546Y048230D01*
X022530Y048214D01*
X022513Y048202D01*
X022493Y048193D01*
X022472Y048187D01*
X022450Y048185D01*
X022428Y048187D01*
X022407Y048193D01*
X022387Y048202D01*
X022370Y048214D01*
X022354Y048230D01*
X022342Y048247D01*
X022333Y048267D01*
X022327Y048288D01*
X022325Y048310D01*
X018825Y048310D02*
X018827Y048332D01*
X018833Y048353D01*
X018842Y048372D01*
X018854Y048390D01*
X018870Y048406D01*
X018887Y048418D01*
X018907Y048427D01*
X018928Y048433D01*
X018950Y048435D01*
X018972Y048433D01*
X018993Y048427D01*
X019012Y048418D01*
X019030Y048406D01*
X019046Y048390D01*
X019058Y048372D01*
X019067Y048353D01*
X019073Y048332D01*
X019075Y048310D01*
X019073Y048288D01*
X019067Y048267D01*
X019058Y048248D01*
X019046Y048230D01*
X019030Y048214D01*
X019013Y048202D01*
X018993Y048193D01*
X018972Y048187D01*
X018950Y048185D01*
X018928Y048187D01*
X018907Y048193D01*
X018887Y048202D01*
X018870Y048214D01*
X018854Y048230D01*
X018842Y048247D01*
X018833Y048267D01*
X018827Y048288D01*
X018825Y048310D01*
X015325Y048310D02*
X015327Y048332D01*
X015333Y048353D01*
X015342Y048372D01*
X015354Y048390D01*
X015370Y048406D01*
X015387Y048418D01*
X015407Y048427D01*
X015428Y048433D01*
X015450Y048435D01*
X015472Y048433D01*
X015493Y048427D01*
X015512Y048418D01*
X015530Y048406D01*
X015546Y048390D01*
X015558Y048372D01*
X015567Y048353D01*
X015573Y048332D01*
X015575Y048310D01*
X015573Y048288D01*
X015567Y048267D01*
X015558Y048248D01*
X015546Y048230D01*
X015530Y048214D01*
X015513Y048202D01*
X015493Y048193D01*
X015472Y048187D01*
X015450Y048185D01*
X015428Y048187D01*
X015407Y048193D01*
X015387Y048202D01*
X015370Y048214D01*
X015354Y048230D01*
X015342Y048247D01*
X015333Y048267D01*
X015327Y048288D01*
X015325Y048310D01*
X049325Y050060D02*
X049327Y050082D01*
X049333Y050103D01*
X049342Y050122D01*
X049354Y050140D01*
X049370Y050156D01*
X049387Y050168D01*
X049407Y050177D01*
X049428Y050183D01*
X049450Y050185D01*
X049472Y050183D01*
X049493Y050177D01*
X049512Y050168D01*
X049530Y050156D01*
X049546Y050140D01*
X049558Y050122D01*
X049567Y050103D01*
X049573Y050082D01*
X049575Y050060D01*
X049573Y050038D01*
X049567Y050017D01*
X049558Y049998D01*
X049546Y049980D01*
X049530Y049964D01*
X049513Y049952D01*
X049493Y049943D01*
X049472Y049937D01*
X049450Y049935D01*
X049428Y049937D01*
X049407Y049943D01*
X049387Y049952D01*
X049370Y049964D01*
X049354Y049980D01*
X049342Y049997D01*
X049333Y050017D01*
X049327Y050038D01*
X049325Y050060D01*
X049275Y043560D02*
X049277Y043582D01*
X049283Y043603D01*
X049292Y043622D01*
X049304Y043640D01*
X049320Y043656D01*
X049337Y043668D01*
X049357Y043677D01*
X049378Y043683D01*
X049400Y043685D01*
X049422Y043683D01*
X049443Y043677D01*
X049462Y043668D01*
X049480Y043656D01*
X049496Y043640D01*
X049508Y043622D01*
X049517Y043603D01*
X049523Y043582D01*
X049525Y043560D01*
X049523Y043538D01*
X049517Y043517D01*
X049508Y043498D01*
X049496Y043480D01*
X049480Y043464D01*
X049463Y043452D01*
X049443Y043443D01*
X049422Y043437D01*
X049400Y043435D01*
X049378Y043437D01*
X049357Y043443D01*
X049337Y043452D01*
X049320Y043464D01*
X049304Y043480D01*
X049292Y043497D01*
X049283Y043517D01*
X049277Y043538D01*
X049275Y043560D01*
X049225Y037060D02*
X049227Y037082D01*
X049233Y037103D01*
X049242Y037122D01*
X049254Y037140D01*
X049270Y037156D01*
X049287Y037168D01*
X049307Y037177D01*
X049328Y037183D01*
X049350Y037185D01*
X049372Y037183D01*
X049393Y037177D01*
X049412Y037168D01*
X049430Y037156D01*
X049446Y037140D01*
X049458Y037122D01*
X049467Y037103D01*
X049473Y037082D01*
X049475Y037060D01*
X049473Y037038D01*
X049467Y037017D01*
X049458Y036998D01*
X049446Y036980D01*
X049430Y036964D01*
X049413Y036952D01*
X049393Y036943D01*
X049372Y036937D01*
X049350Y036935D01*
X049328Y036937D01*
X049307Y036943D01*
X049287Y036952D01*
X049270Y036964D01*
X049254Y036980D01*
X049242Y036997D01*
X049233Y037017D01*
X049227Y037038D01*
X049225Y037060D01*
X049125Y030610D02*
X049127Y030632D01*
X049133Y030653D01*
X049142Y030672D01*
X049154Y030690D01*
X049170Y030706D01*
X049187Y030718D01*
X049207Y030727D01*
X049228Y030733D01*
X049250Y030735D01*
X049272Y030733D01*
X049293Y030727D01*
X049312Y030718D01*
X049330Y030706D01*
X049346Y030690D01*
X049358Y030672D01*
X049367Y030653D01*
X049373Y030632D01*
X049375Y030610D01*
X049373Y030588D01*
X049367Y030567D01*
X049358Y030548D01*
X049346Y030530D01*
X049330Y030514D01*
X049313Y030502D01*
X049293Y030493D01*
X049272Y030487D01*
X049250Y030485D01*
X049228Y030487D01*
X049207Y030493D01*
X049187Y030502D01*
X049170Y030514D01*
X049154Y030530D01*
X049142Y030547D01*
X049133Y030567D01*
X049127Y030588D01*
X049125Y030610D01*
X049175Y024060D02*
X049177Y024082D01*
X049183Y024103D01*
X049192Y024122D01*
X049204Y024140D01*
X049220Y024156D01*
X049237Y024168D01*
X049257Y024177D01*
X049278Y024183D01*
X049300Y024185D01*
X049322Y024183D01*
X049343Y024177D01*
X049362Y024168D01*
X049380Y024156D01*
X049396Y024140D01*
X049408Y024122D01*
X049417Y024103D01*
X049423Y024082D01*
X049425Y024060D01*
X049423Y024038D01*
X049417Y024017D01*
X049408Y023998D01*
X049396Y023980D01*
X049380Y023964D01*
X049363Y023952D01*
X049343Y023943D01*
X049322Y023937D01*
X049300Y023935D01*
X049278Y023937D01*
X049257Y023943D01*
X049237Y023952D01*
X049220Y023964D01*
X049204Y023980D01*
X049192Y023997D01*
X049183Y024017D01*
X049177Y024038D01*
X049175Y024060D01*
X049225Y017660D02*
X049227Y017682D01*
X049233Y017703D01*
X049242Y017722D01*
X049254Y017740D01*
X049270Y017756D01*
X049287Y017768D01*
X049307Y017777D01*
X049328Y017783D01*
X049350Y017785D01*
X049372Y017783D01*
X049393Y017777D01*
X049412Y017768D01*
X049430Y017756D01*
X049446Y017740D01*
X049458Y017722D01*
X049467Y017703D01*
X049473Y017682D01*
X049475Y017660D01*
X049473Y017638D01*
X049467Y017617D01*
X049458Y017598D01*
X049446Y017580D01*
X049430Y017564D01*
X049413Y017552D01*
X049393Y017543D01*
X049372Y017537D01*
X049350Y017535D01*
X049328Y017537D01*
X049307Y017543D01*
X049287Y017552D01*
X049270Y017564D01*
X049254Y017580D01*
X049242Y017597D01*
X049233Y017617D01*
X049227Y017638D01*
X049225Y017660D01*
X049125Y011160D02*
X049127Y011182D01*
X049133Y011203D01*
X049142Y011222D01*
X049154Y011240D01*
X049170Y011256D01*
X049187Y011268D01*
X049207Y011277D01*
X049228Y011283D01*
X049250Y011285D01*
X049272Y011283D01*
X049293Y011277D01*
X049312Y011268D01*
X049330Y011256D01*
X049346Y011240D01*
X049358Y011222D01*
X049367Y011203D01*
X049373Y011182D01*
X049375Y011160D01*
X049373Y011138D01*
X049367Y011117D01*
X049358Y011098D01*
X049346Y011080D01*
X049330Y011064D01*
X049313Y011052D01*
X049293Y011043D01*
X049272Y011037D01*
X049250Y011035D01*
X049228Y011037D01*
X049207Y011043D01*
X049187Y011052D01*
X049170Y011064D01*
X049154Y011080D01*
X049142Y011097D01*
X049133Y011117D01*
X049127Y011138D01*
X049125Y011160D01*
X049275Y004710D02*
X049277Y004732D01*
X049283Y004753D01*
X049292Y004772D01*
X049304Y004790D01*
X049320Y004806D01*
X049337Y004818D01*
X049357Y004827D01*
X049378Y004833D01*
X049400Y004835D01*
X049422Y004833D01*
X049443Y004827D01*
X049462Y004818D01*
X049480Y004806D01*
X049496Y004790D01*
X049508Y004772D01*
X049517Y004753D01*
X049523Y004732D01*
X049525Y004710D01*
X049523Y004688D01*
X049517Y004667D01*
X049508Y004648D01*
X049496Y004630D01*
X049480Y004614D01*
X049463Y004602D01*
X049443Y004593D01*
X049422Y004587D01*
X049400Y004585D01*
X049378Y004587D01*
X049357Y004593D01*
X049337Y004602D01*
X049320Y004614D01*
X049304Y004630D01*
X049292Y004647D01*
X049283Y004667D01*
X049277Y004688D01*
X049275Y004710D01*
D11*
X003617Y006705D02*
X003567Y006705D01*
X003542Y006730D01*
X003542Y006780D01*
X003567Y006805D01*
X003592Y006805D01*
X003642Y006780D01*
X003642Y006855D01*
X003542Y006855D01*
X003642Y006730D02*
X003617Y006705D01*
X003690Y006705D02*
X003790Y006705D01*
X003837Y006705D02*
X003887Y006755D01*
X003862Y006755D02*
X003937Y006755D01*
X003937Y006705D02*
X003937Y006855D01*
X003862Y006855D01*
X003837Y006830D01*
X003837Y006780D01*
X003862Y006755D01*
X003790Y006805D02*
X003740Y006855D01*
X003740Y006705D01*
X003715Y007755D02*
X003740Y007780D01*
X003640Y007880D01*
X003640Y007780D01*
X003665Y007755D01*
X003715Y007755D01*
X003740Y007780D02*
X003740Y007880D01*
X003715Y007905D01*
X003665Y007905D01*
X003640Y007880D01*
X003592Y007880D02*
X003567Y007905D01*
X003517Y007905D01*
X003492Y007880D01*
X003592Y007780D01*
X003567Y007755D01*
X003517Y007755D01*
X003492Y007780D01*
X003492Y007880D01*
X003592Y007880D02*
X003592Y007780D01*
X003787Y007755D02*
X003887Y007755D01*
X003787Y007855D01*
X003787Y007880D01*
X003812Y007905D01*
X003862Y007905D01*
X003887Y007880D01*
X008895Y006518D02*
X008895Y006418D01*
X008895Y006370D02*
X008895Y006270D01*
X008895Y006223D02*
X008945Y006173D01*
X008945Y006198D02*
X008945Y006123D01*
X008895Y006123D02*
X009045Y006123D01*
X009045Y006198D01*
X009020Y006223D01*
X008970Y006223D01*
X008945Y006198D01*
X008995Y006270D02*
X009045Y006320D01*
X008895Y006320D01*
X008995Y006418D02*
X009045Y006468D01*
X008895Y006468D01*
X009945Y006468D02*
X009945Y006568D01*
X009945Y006518D02*
X010095Y006518D01*
X010045Y006468D01*
X010020Y006420D02*
X009970Y006420D01*
X009945Y006395D01*
X009945Y006345D01*
X009970Y006320D01*
X010020Y006320D02*
X010045Y006370D01*
X010045Y006395D01*
X010020Y006420D01*
X010095Y006420D02*
X010095Y006320D01*
X010020Y006320D01*
X011218Y004968D02*
X011368Y004968D01*
X011368Y005068D01*
X011293Y005018D02*
X011293Y004968D01*
X011318Y004921D02*
X011218Y004921D01*
X011218Y004846D01*
X011243Y004821D01*
X011318Y004821D01*
X011368Y004724D02*
X011218Y004724D01*
X011218Y004774D02*
X011218Y004673D01*
X011218Y004625D02*
X011218Y004600D01*
X011243Y004600D01*
X011243Y004625D01*
X011218Y004625D01*
X011243Y004553D02*
X011218Y004528D01*
X011218Y004478D01*
X011243Y004453D01*
X011343Y004553D01*
X011243Y004553D01*
X011343Y004553D02*
X011368Y004528D01*
X011368Y004478D01*
X011343Y004453D01*
X011243Y004453D01*
X011318Y004673D02*
X011368Y004724D01*
X012268Y004725D02*
X012268Y004675D01*
X012293Y004650D01*
X012293Y004603D02*
X012268Y004578D01*
X012268Y004528D01*
X012293Y004503D01*
X012393Y004503D01*
X012418Y004528D01*
X012418Y004578D01*
X012393Y004603D01*
X012393Y004650D02*
X012418Y004675D01*
X012418Y004725D01*
X012393Y004750D01*
X012368Y004750D01*
X012343Y004725D01*
X012318Y004750D01*
X012293Y004750D01*
X012268Y004725D01*
X012268Y004797D02*
X012368Y004897D01*
X012393Y004897D01*
X012418Y004872D01*
X012418Y004822D01*
X012393Y004797D01*
X012343Y004725D02*
X012343Y004700D01*
X012268Y004797D02*
X012268Y004897D01*
X013930Y006953D02*
X014030Y007053D01*
X013930Y007053D01*
X013905Y007028D01*
X013905Y006978D01*
X013930Y006953D01*
X014030Y006953D01*
X014055Y006978D01*
X014055Y007028D01*
X014030Y007053D01*
X013930Y007100D02*
X013930Y007125D01*
X013905Y007125D01*
X013905Y007100D01*
X013930Y007100D01*
X013905Y007173D02*
X013905Y007274D01*
X013905Y007224D02*
X014055Y007224D01*
X014005Y007173D01*
X014005Y007321D02*
X013930Y007321D01*
X013905Y007346D01*
X013905Y007421D01*
X014005Y007421D01*
X013980Y007468D02*
X013980Y007518D01*
X013905Y007468D02*
X014055Y007468D01*
X014055Y007568D01*
X014955Y007297D02*
X014980Y007297D01*
X015080Y007397D01*
X015105Y007397D01*
X015105Y007297D01*
X015080Y007250D02*
X015105Y007225D01*
X015105Y007175D01*
X015080Y007150D01*
X015080Y007103D02*
X015105Y007078D01*
X015105Y007028D01*
X015080Y007003D01*
X014980Y007003D01*
X014955Y007028D01*
X014955Y007078D01*
X014980Y007103D01*
X014980Y007150D02*
X014955Y007175D01*
X014955Y007225D01*
X014980Y007250D01*
X015005Y007250D01*
X015030Y007225D01*
X015030Y007200D01*
X015030Y007225D02*
X015055Y007250D01*
X015080Y007250D01*
X015375Y006228D02*
X015350Y006203D01*
X015350Y006178D01*
X015375Y006153D01*
X015350Y006128D01*
X015350Y006103D01*
X015375Y006078D01*
X015425Y006078D01*
X015450Y006103D01*
X015498Y006103D02*
X015523Y006078D01*
X015573Y006078D01*
X015598Y006103D01*
X015645Y006103D02*
X015670Y006078D01*
X015720Y006078D01*
X015745Y006103D01*
X015745Y006203D01*
X015720Y006228D01*
X015670Y006228D01*
X015645Y006203D01*
X015598Y006203D02*
X015573Y006228D01*
X015523Y006228D01*
X015498Y006203D01*
X015498Y006178D01*
X015523Y006153D01*
X015498Y006128D01*
X015498Y006103D01*
X015523Y006153D02*
X015548Y006153D01*
X015450Y006203D02*
X015425Y006228D01*
X015375Y006228D01*
X015375Y006153D02*
X015400Y006153D01*
X015279Y005178D02*
X015179Y005178D01*
X015229Y005103D02*
X015279Y005103D01*
X015327Y005128D02*
X015327Y005028D01*
X015402Y005028D01*
X015427Y005053D01*
X015427Y005128D01*
X015524Y005178D02*
X015524Y005028D01*
X015574Y005028D02*
X015474Y005028D01*
X015574Y005128D02*
X015524Y005178D01*
X015623Y005053D02*
X015623Y005028D01*
X015648Y005028D01*
X015648Y005053D01*
X015623Y005053D01*
X015695Y005053D02*
X015720Y005028D01*
X015770Y005028D01*
X015795Y005053D01*
X015695Y005153D01*
X015695Y005053D01*
X015695Y005153D02*
X015720Y005178D01*
X015770Y005178D01*
X015795Y005153D01*
X015795Y005053D01*
X015720Y004853D02*
X015745Y004828D01*
X015745Y004728D01*
X015720Y004703D01*
X015670Y004703D01*
X015645Y004728D01*
X015598Y004728D02*
X015573Y004703D01*
X015523Y004703D01*
X015498Y004728D01*
X015498Y004753D01*
X015523Y004778D01*
X015548Y004778D01*
X015523Y004778D02*
X015498Y004803D01*
X015498Y004828D01*
X015523Y004853D01*
X015573Y004853D01*
X015598Y004828D01*
X015645Y004828D02*
X015670Y004853D01*
X015720Y004853D01*
X015450Y004778D02*
X015375Y004778D01*
X015350Y004753D01*
X015350Y004728D01*
X015375Y004703D01*
X015425Y004703D01*
X015450Y004728D01*
X015450Y004778D01*
X015400Y004828D01*
X015350Y004853D01*
X015279Y005028D02*
X015279Y005178D01*
X015279Y003803D02*
X015179Y003803D01*
X015229Y003728D02*
X015279Y003728D01*
X015327Y003753D02*
X015327Y003653D01*
X015402Y003653D01*
X015427Y003678D01*
X015427Y003753D01*
X015524Y003803D02*
X015524Y003653D01*
X015574Y003653D02*
X015474Y003653D01*
X015574Y003753D02*
X015524Y003803D01*
X015623Y003678D02*
X015623Y003653D01*
X015648Y003653D01*
X015648Y003678D01*
X015623Y003678D01*
X015695Y003678D02*
X015720Y003653D01*
X015770Y003653D01*
X015795Y003678D01*
X015695Y003778D01*
X015695Y003678D01*
X015695Y003778D02*
X015720Y003803D01*
X015770Y003803D01*
X015795Y003778D01*
X015795Y003678D01*
X015279Y003653D02*
X015279Y003803D01*
X021542Y003805D02*
X021567Y003780D01*
X021542Y003755D01*
X021542Y003730D01*
X021567Y003705D01*
X021617Y003705D01*
X021642Y003730D01*
X021690Y003705D02*
X021790Y003705D01*
X021740Y003705D02*
X021740Y003855D01*
X021790Y003805D01*
X021837Y003830D02*
X021862Y003855D01*
X021912Y003855D01*
X021937Y003830D01*
X021937Y003730D01*
X021912Y003705D01*
X021862Y003705D01*
X021837Y003730D01*
X021642Y003830D02*
X021617Y003855D01*
X021567Y003855D01*
X021542Y003830D01*
X021542Y003805D01*
X021567Y003780D02*
X021592Y003780D01*
X021740Y004705D02*
X021740Y004855D01*
X021665Y004855D01*
X021640Y004830D01*
X021640Y004780D01*
X021665Y004755D01*
X021740Y004755D01*
X021787Y004780D02*
X021812Y004755D01*
X021862Y004755D01*
X021887Y004780D01*
X021887Y004805D01*
X021862Y004830D01*
X021812Y004830D01*
X021787Y004805D01*
X021787Y004780D01*
X021812Y004830D02*
X021787Y004855D01*
X021787Y004880D01*
X021812Y004905D01*
X021862Y004905D01*
X021887Y004880D01*
X021887Y004855D01*
X021862Y004830D01*
X021934Y004755D02*
X022034Y004755D01*
X021984Y004755D02*
X021984Y004905D01*
X022034Y004855D01*
X021592Y004830D02*
X021542Y004830D01*
X021592Y004905D02*
X021492Y004905D01*
X021592Y004905D02*
X021592Y004755D01*
X021567Y007705D02*
X021567Y007855D01*
X021642Y007780D01*
X021542Y007780D01*
X021690Y007705D02*
X021790Y007705D01*
X021740Y007705D02*
X021740Y007855D01*
X021790Y007805D01*
X021837Y007830D02*
X021862Y007855D01*
X021912Y007855D01*
X021937Y007830D01*
X021937Y007730D01*
X021912Y007705D01*
X021862Y007705D01*
X021837Y007730D01*
X021740Y008705D02*
X021740Y008855D01*
X021665Y008855D01*
X021640Y008830D01*
X021640Y008780D01*
X021665Y008755D01*
X021740Y008755D01*
X021787Y008780D02*
X021812Y008755D01*
X021862Y008755D01*
X021887Y008780D01*
X021887Y008805D01*
X021862Y008830D01*
X021812Y008830D01*
X021787Y008805D01*
X021787Y008780D01*
X021812Y008830D02*
X021787Y008855D01*
X021787Y008880D01*
X021812Y008905D01*
X021862Y008905D01*
X021887Y008880D01*
X021887Y008855D01*
X021862Y008830D01*
X021934Y008755D02*
X022034Y008755D01*
X021984Y008755D02*
X021984Y008905D01*
X022034Y008855D01*
X021592Y008830D02*
X021542Y008830D01*
X021592Y008905D02*
X021492Y008905D01*
X021592Y008905D02*
X021592Y008755D01*
X025438Y013727D02*
X025438Y013878D01*
X025363Y013878D01*
X025338Y013853D01*
X025338Y013803D01*
X025363Y013778D01*
X025438Y013778D01*
X025485Y013803D02*
X025510Y013778D01*
X025560Y013778D01*
X025585Y013803D01*
X025485Y013903D01*
X025485Y013803D01*
X025485Y013903D02*
X025510Y013928D01*
X025560Y013928D01*
X025585Y013903D01*
X025585Y013803D01*
X025632Y013778D02*
X025733Y013778D01*
X025632Y013878D01*
X025632Y013903D01*
X025657Y013928D01*
X025707Y013928D01*
X025733Y013903D01*
X025291Y013928D02*
X025190Y013928D01*
X025240Y013853D02*
X025291Y013853D01*
X025291Y013778D02*
X025291Y013928D01*
X025435Y014828D02*
X025535Y014828D01*
X025485Y014828D02*
X025485Y014978D01*
X025535Y014928D01*
X025582Y014953D02*
X025607Y014978D01*
X025657Y014978D01*
X025683Y014953D01*
X025683Y014853D01*
X025657Y014828D01*
X025607Y014828D01*
X025582Y014853D01*
X024258Y016651D02*
X024283Y016676D01*
X024283Y016726D01*
X024258Y016751D01*
X024233Y016751D01*
X024133Y016651D01*
X024133Y016751D01*
X024158Y016798D02*
X024258Y016898D01*
X024158Y016898D01*
X024133Y016873D01*
X024133Y016823D01*
X024158Y016798D01*
X024258Y016798D01*
X024283Y016823D01*
X024283Y016873D01*
X024258Y016898D01*
X024233Y016945D02*
X024233Y017020D01*
X024208Y017045D01*
X024158Y017045D01*
X024133Y017020D01*
X024133Y016945D01*
X024082Y016945D02*
X024233Y016945D01*
X024208Y017093D02*
X024208Y017143D01*
X024283Y017093D02*
X024283Y017193D01*
X024283Y017093D02*
X024133Y017093D01*
X023233Y017118D02*
X023233Y017068D01*
X023208Y017043D01*
X023208Y016995D02*
X023233Y016970D01*
X023233Y016920D01*
X023208Y016895D01*
X023108Y016895D01*
X023083Y016920D01*
X023083Y016970D01*
X023108Y016995D01*
X023083Y017043D02*
X023183Y017143D01*
X023208Y017143D01*
X023233Y017118D01*
X023083Y017143D02*
X023083Y017043D01*
X020095Y019998D02*
X019945Y019998D01*
X019945Y019948D02*
X019945Y020048D01*
X019970Y020095D02*
X020070Y020195D01*
X019970Y020195D01*
X019945Y020170D01*
X019945Y020120D01*
X019970Y020095D01*
X020070Y020095D01*
X020095Y020120D01*
X020095Y020170D01*
X020070Y020195D01*
X020095Y020242D02*
X019945Y020242D01*
X019995Y020242D02*
X020045Y020317D01*
X019995Y020242D02*
X019945Y020317D01*
X020095Y019998D02*
X020045Y019948D01*
X019045Y020020D02*
X019045Y020095D01*
X019020Y020120D01*
X018970Y020120D01*
X018945Y020095D01*
X018945Y020020D01*
X018895Y020020D02*
X019045Y020020D01*
X018945Y020070D02*
X018895Y020120D01*
X018895Y020168D02*
X018895Y020268D01*
X018895Y020218D02*
X019045Y020218D01*
X018995Y020168D01*
X015620Y019415D02*
X015545Y019415D01*
X015520Y019390D01*
X015520Y019340D01*
X015545Y019315D01*
X015620Y019315D01*
X015620Y019265D02*
X015620Y019415D01*
X015570Y019315D02*
X015520Y019265D01*
X015473Y019290D02*
X015448Y019265D01*
X015398Y019265D01*
X015373Y019290D01*
X015373Y019315D01*
X015398Y019340D01*
X015473Y019340D01*
X015473Y019290D01*
X015473Y019340D02*
X015423Y019390D01*
X015373Y019415D01*
X015325Y019390D02*
X015325Y019365D01*
X015300Y019340D01*
X015250Y019340D01*
X015225Y019315D01*
X015225Y019290D01*
X015250Y019265D01*
X015300Y019265D01*
X015325Y019290D01*
X015325Y019315D01*
X015300Y019340D01*
X015250Y019340D02*
X015225Y019365D01*
X015225Y019390D01*
X015250Y019415D01*
X015300Y019415D01*
X015325Y019390D01*
X015375Y018365D02*
X015375Y018215D01*
X015375Y018265D02*
X015300Y018315D01*
X015375Y018265D02*
X015300Y018215D01*
X015423Y018240D02*
X015448Y018215D01*
X015498Y018215D01*
X015523Y018240D01*
X015423Y018340D01*
X015423Y018240D01*
X015523Y018240D02*
X015523Y018340D01*
X015498Y018365D01*
X015448Y018365D01*
X015423Y018340D01*
X015570Y018215D02*
X015670Y018215D01*
X015620Y018215D02*
X015620Y018365D01*
X015670Y018315D01*
X010312Y020293D02*
X010287Y020268D01*
X010237Y020268D01*
X010212Y020293D01*
X010165Y020268D02*
X010065Y020368D01*
X010065Y020393D01*
X010090Y020418D01*
X010140Y020418D01*
X010165Y020393D01*
X010212Y020393D02*
X010237Y020418D01*
X010287Y020418D01*
X010312Y020393D01*
X010312Y020293D01*
X010165Y020268D02*
X010065Y020268D01*
X010017Y020293D02*
X009992Y020268D01*
X009942Y020268D01*
X009917Y020293D01*
X009917Y020318D01*
X009942Y020343D01*
X009967Y020343D01*
X009942Y020343D02*
X009917Y020368D01*
X009917Y020393D01*
X009942Y020418D01*
X009992Y020418D01*
X010017Y020393D01*
X010115Y021267D02*
X010115Y021418D01*
X010040Y021418D01*
X010015Y021393D01*
X010015Y021343D01*
X010040Y021318D01*
X010115Y021318D01*
X010162Y021318D02*
X010262Y021318D01*
X010162Y021418D01*
X010162Y021443D01*
X010187Y021468D01*
X010237Y021468D01*
X010262Y021443D01*
X010309Y021443D02*
X010334Y021468D01*
X010384Y021468D01*
X010409Y021443D01*
X010309Y021443D02*
X010309Y021418D01*
X010409Y021318D01*
X010309Y021318D01*
X009967Y021318D02*
X009967Y021468D01*
X009867Y021468D01*
X009917Y021393D02*
X009967Y021393D01*
X007745Y021353D02*
X007720Y021328D01*
X007670Y021328D01*
X007645Y021353D01*
X007598Y021328D02*
X007498Y021428D01*
X007498Y021453D01*
X007523Y021478D01*
X007573Y021478D01*
X007598Y021453D01*
X007645Y021453D02*
X007670Y021478D01*
X007720Y021478D01*
X007745Y021453D01*
X007745Y021353D01*
X007598Y021328D02*
X007498Y021328D01*
X007450Y021328D02*
X007350Y021428D01*
X007350Y021453D01*
X007375Y021478D01*
X007425Y021478D01*
X007450Y021453D01*
X007450Y021328D02*
X007350Y021328D01*
X007353Y020428D02*
X007253Y020428D01*
X007303Y020353D02*
X007353Y020353D01*
X007400Y020353D02*
X007400Y020303D01*
X007425Y020278D01*
X007500Y020278D01*
X007548Y020278D02*
X007648Y020278D01*
X007548Y020378D01*
X007548Y020403D01*
X007573Y020428D01*
X007623Y020428D01*
X007648Y020403D01*
X007695Y020403D02*
X007720Y020428D01*
X007770Y020428D01*
X007795Y020403D01*
X007695Y020403D02*
X007695Y020378D01*
X007795Y020278D01*
X007695Y020278D01*
X007500Y020227D02*
X007500Y020378D01*
X007425Y020378D01*
X007400Y020353D01*
X007353Y020278D02*
X007353Y020428D01*
X006695Y023465D02*
X006595Y023465D01*
X006645Y023465D02*
X006645Y023615D01*
X006695Y023565D01*
X006548Y023590D02*
X006523Y023615D01*
X006473Y023615D01*
X006448Y023590D01*
X006548Y023490D01*
X006523Y023465D01*
X006473Y023465D01*
X006448Y023490D01*
X006448Y023590D01*
X006400Y023590D02*
X006375Y023615D01*
X006325Y023615D01*
X006300Y023590D01*
X006400Y023490D01*
X006375Y023465D01*
X006325Y023465D01*
X006300Y023490D01*
X006300Y023590D01*
X006400Y023590D02*
X006400Y023490D01*
X006548Y023490D02*
X006548Y023590D01*
X006545Y024515D02*
X006595Y024565D01*
X006570Y024565D02*
X006645Y024565D01*
X006645Y024515D02*
X006645Y024665D01*
X006570Y024665D01*
X006545Y024640D01*
X006545Y024590D01*
X006570Y024565D01*
X006498Y024540D02*
X006473Y024515D01*
X006423Y024515D01*
X006398Y024540D01*
X006398Y024565D01*
X006423Y024590D01*
X006498Y024590D01*
X006498Y024540D01*
X006498Y024590D02*
X006448Y024640D01*
X006398Y024665D01*
X009880Y031330D02*
X009855Y031355D01*
X009855Y031380D01*
X009880Y031405D01*
X009955Y031405D01*
X009955Y031355D01*
X009930Y031330D01*
X009880Y031330D01*
X009955Y031405D02*
X009905Y031455D01*
X009855Y031480D01*
X010002Y031480D02*
X010002Y031455D01*
X010102Y031355D01*
X010102Y031330D01*
X010149Y031355D02*
X010174Y031330D01*
X010224Y031330D01*
X010249Y031355D01*
X010249Y031455D01*
X010224Y031480D01*
X010174Y031480D01*
X010149Y031455D01*
X010102Y031480D02*
X010002Y031480D01*
X010027Y032380D02*
X009952Y032380D01*
X009952Y032480D01*
X009905Y032455D02*
X009855Y032455D01*
X009905Y032380D02*
X009905Y032530D01*
X009805Y032530D01*
X010052Y032480D02*
X010052Y032405D01*
X010027Y032380D01*
X010099Y032380D02*
X010199Y032380D01*
X010248Y032380D02*
X010273Y032380D01*
X010273Y032405D01*
X010248Y032405D01*
X010248Y032380D01*
X010320Y032405D02*
X010345Y032380D01*
X010395Y032380D01*
X010420Y032405D01*
X010320Y032505D01*
X010320Y032405D01*
X010320Y032505D02*
X010345Y032530D01*
X010395Y032530D01*
X010420Y032505D01*
X010420Y032405D01*
X010199Y032480D02*
X010149Y032530D01*
X010149Y032380D01*
X010149Y035630D02*
X010149Y035780D01*
X010199Y035730D01*
X010248Y035655D02*
X010248Y035630D01*
X010273Y035630D01*
X010273Y035655D01*
X010248Y035655D01*
X010199Y035630D02*
X010099Y035630D01*
X010052Y035655D02*
X010027Y035630D01*
X009952Y035630D01*
X009952Y035730D01*
X009905Y035705D02*
X009855Y035705D01*
X009905Y035630D02*
X009905Y035780D01*
X009805Y035780D01*
X010052Y035730D02*
X010052Y035655D01*
X010320Y035655D02*
X010345Y035630D01*
X010395Y035630D01*
X010420Y035655D01*
X010320Y035755D01*
X010320Y035655D01*
X010320Y035755D02*
X010345Y035780D01*
X010395Y035780D01*
X010420Y035755D01*
X010420Y035655D01*
X010705Y035655D02*
X010730Y035630D01*
X010780Y035630D01*
X010805Y035655D01*
X010805Y035705D02*
X010755Y035730D01*
X010730Y035730D01*
X010705Y035705D01*
X010705Y035655D01*
X010805Y035705D02*
X010805Y035780D01*
X010705Y035780D01*
X010852Y035780D02*
X010852Y035755D01*
X010952Y035655D01*
X010952Y035630D01*
X010999Y035655D02*
X011024Y035630D01*
X011074Y035630D01*
X011099Y035655D01*
X011099Y035755D01*
X011074Y035780D01*
X011024Y035780D01*
X010999Y035755D01*
X010952Y035780D02*
X010852Y035780D01*
X011155Y036765D02*
X011255Y036865D01*
X011280Y036865D01*
X011305Y036840D01*
X011305Y036790D01*
X011280Y036765D01*
X011155Y036765D02*
X011155Y036865D01*
X011155Y036912D02*
X011255Y037012D01*
X011280Y037012D01*
X011305Y036987D01*
X011305Y036937D01*
X011280Y036912D01*
X011155Y036912D02*
X011155Y037012D01*
X011155Y037060D02*
X011155Y037135D01*
X011180Y037160D01*
X011230Y037160D01*
X011255Y037135D01*
X011255Y037060D01*
X011105Y037060D01*
X011155Y037207D02*
X011305Y037207D01*
X011305Y037307D01*
X011230Y037257D02*
X011230Y037207D01*
X012205Y037185D02*
X012205Y037135D01*
X012230Y037110D01*
X012280Y037110D02*
X012305Y037160D01*
X012305Y037185D01*
X012280Y037210D01*
X012230Y037210D01*
X012205Y037185D01*
X012280Y037110D02*
X012355Y037110D01*
X012355Y037210D01*
X012330Y037062D02*
X012355Y037037D01*
X012355Y036987D01*
X012330Y036962D01*
X012330Y036915D02*
X012355Y036890D01*
X012355Y036840D01*
X012330Y036815D01*
X012230Y036815D01*
X012205Y036840D01*
X012205Y036890D01*
X012230Y036915D01*
X012205Y036962D02*
X012305Y037062D01*
X012330Y037062D01*
X012205Y037062D02*
X012205Y036962D01*
X014130Y039393D02*
X014105Y039418D01*
X014105Y039518D01*
X014130Y039543D01*
X014180Y039543D01*
X014205Y039518D01*
X014205Y039493D01*
X014180Y039468D01*
X014105Y039468D01*
X014130Y039393D02*
X014180Y039393D01*
X014205Y039418D01*
X014252Y039468D02*
X014352Y039468D01*
X014277Y039543D01*
X014277Y039393D01*
X014399Y039418D02*
X014424Y039393D01*
X014474Y039393D01*
X014499Y039418D01*
X014499Y039518D01*
X014474Y039543D01*
X014424Y039543D01*
X014399Y039518D01*
X014399Y040443D02*
X014399Y040593D01*
X014449Y040543D01*
X014498Y040468D02*
X014498Y040443D01*
X014523Y040443D01*
X014523Y040468D01*
X014498Y040468D01*
X014449Y040443D02*
X014349Y040443D01*
X014302Y040468D02*
X014277Y040443D01*
X014202Y040443D01*
X014202Y040543D01*
X014155Y040518D02*
X014105Y040518D01*
X014155Y040593D02*
X014055Y040593D01*
X014155Y040593D02*
X014155Y040443D01*
X014302Y040468D02*
X014302Y040543D01*
X014570Y040568D02*
X014670Y040468D01*
X014645Y040443D01*
X014595Y040443D01*
X014570Y040468D01*
X014570Y040568D01*
X014595Y040593D01*
X014645Y040593D01*
X014670Y040568D01*
X014670Y040468D01*
X008483Y040468D02*
X008383Y040568D01*
X008383Y040468D01*
X008408Y040443D01*
X008458Y040443D01*
X008483Y040468D01*
X008483Y040568D01*
X008458Y040593D01*
X008408Y040593D01*
X008383Y040568D01*
X008336Y040468D02*
X008311Y040468D01*
X008311Y040443D01*
X008336Y040443D01*
X008336Y040468D01*
X008262Y040443D02*
X008162Y040443D01*
X008212Y040443D02*
X008212Y040593D01*
X008262Y040543D01*
X008115Y040543D02*
X008115Y040468D01*
X008090Y040443D01*
X008015Y040443D01*
X008015Y040543D01*
X007967Y040518D02*
X007917Y040518D01*
X007967Y040593D02*
X007867Y040593D01*
X007967Y040593D02*
X007967Y040443D01*
X007917Y039543D02*
X008017Y039543D01*
X008017Y039468D01*
X007967Y039493D01*
X007942Y039493D01*
X007917Y039468D01*
X007917Y039418D01*
X007942Y039393D01*
X007992Y039393D01*
X008017Y039418D01*
X008065Y039468D02*
X008165Y039468D01*
X008090Y039543D01*
X008090Y039393D01*
X008212Y039418D02*
X008237Y039393D01*
X008287Y039393D01*
X008312Y039418D01*
X008312Y039518D01*
X008287Y039543D01*
X008237Y039543D01*
X008212Y039518D01*
X007780Y037210D02*
X007780Y037110D01*
X007855Y037185D01*
X007705Y037185D01*
X007705Y037062D02*
X007705Y036962D01*
X007805Y037062D01*
X007830Y037062D01*
X007855Y037037D01*
X007855Y036987D01*
X007830Y036962D01*
X007830Y036915D02*
X007855Y036890D01*
X007855Y036840D01*
X007830Y036815D01*
X007730Y036815D01*
X007705Y036840D01*
X007705Y036890D01*
X007730Y036915D01*
X006805Y036937D02*
X006780Y036912D01*
X006805Y036937D02*
X006805Y036987D01*
X006780Y037012D01*
X006755Y037012D01*
X006655Y036912D01*
X006655Y037012D01*
X006655Y037060D02*
X006655Y037135D01*
X006680Y037160D01*
X006730Y037160D01*
X006755Y037135D01*
X006755Y037060D01*
X006605Y037060D01*
X006655Y037207D02*
X006805Y037207D01*
X006805Y037307D01*
X006730Y037257D02*
X006730Y037207D01*
X006755Y036865D02*
X006780Y036865D01*
X006805Y036840D01*
X006805Y036790D01*
X006780Y036765D01*
X006755Y036865D02*
X006655Y036765D01*
X006655Y036865D01*
X016600Y030703D02*
X016625Y030728D01*
X016675Y030728D01*
X016700Y030703D01*
X016700Y030678D01*
X016675Y030653D01*
X016600Y030653D01*
X016600Y030603D02*
X016600Y030703D01*
X016600Y030603D02*
X016625Y030578D01*
X016675Y030578D01*
X016700Y030603D01*
X016748Y030603D02*
X016748Y030628D01*
X016773Y030653D01*
X016848Y030653D01*
X016848Y030603D01*
X016823Y030578D01*
X016773Y030578D01*
X016748Y030603D01*
X016798Y030703D02*
X016848Y030653D01*
X016895Y030653D02*
X016920Y030628D01*
X016995Y030628D01*
X016945Y030628D02*
X016895Y030578D01*
X016895Y030653D02*
X016895Y030703D01*
X016920Y030728D01*
X016995Y030728D01*
X016995Y030578D01*
X016798Y030703D02*
X016748Y030728D01*
X016750Y029678D02*
X016750Y029528D01*
X016750Y029578D02*
X016675Y029628D01*
X016750Y029578D02*
X016675Y029528D01*
X016798Y029553D02*
X016823Y029528D01*
X016873Y029528D01*
X016898Y029553D01*
X016798Y029653D01*
X016798Y029553D01*
X016798Y029653D02*
X016823Y029678D01*
X016873Y029678D01*
X016898Y029653D01*
X016898Y029553D01*
X016945Y029528D02*
X017045Y029528D01*
X016995Y029528D02*
X016995Y029678D01*
X017045Y029628D01*
X017992Y025155D02*
X018092Y025155D01*
X018092Y025005D01*
X018140Y025005D02*
X018140Y025105D01*
X018092Y025080D02*
X018042Y025080D01*
X018140Y025005D02*
X018215Y025005D01*
X018240Y025030D01*
X018240Y025105D01*
X018337Y025155D02*
X018337Y025005D01*
X018387Y025005D02*
X018287Y025005D01*
X018387Y025105D02*
X018337Y025155D01*
X018436Y025030D02*
X018436Y025005D01*
X018461Y025005D01*
X018461Y025030D01*
X018436Y025030D01*
X018508Y025030D02*
X018533Y025005D01*
X018583Y025005D01*
X018608Y025030D01*
X018508Y025130D01*
X018508Y025030D01*
X018608Y025030D02*
X018608Y025130D01*
X018583Y025155D01*
X018533Y025155D01*
X018508Y025130D01*
X018412Y024105D02*
X018437Y024080D01*
X018437Y023980D01*
X018412Y023955D01*
X018362Y023955D01*
X018337Y023980D01*
X018290Y023955D02*
X018190Y024055D01*
X018190Y024080D01*
X018215Y024105D01*
X018265Y024105D01*
X018290Y024080D01*
X018337Y024080D02*
X018362Y024105D01*
X018412Y024105D01*
X018290Y023955D02*
X018190Y023955D01*
X018142Y023980D02*
X018142Y024005D01*
X018117Y024030D01*
X018067Y024030D01*
X018042Y024005D01*
X018042Y023980D01*
X018067Y023955D01*
X018117Y023955D01*
X018142Y023980D01*
X018117Y024030D02*
X018142Y024055D01*
X018142Y024080D01*
X018117Y024105D01*
X018067Y024105D01*
X018042Y024080D01*
X018042Y024055D01*
X018067Y024030D01*
X009858Y017318D02*
X009833Y017343D01*
X009783Y017343D01*
X009758Y017318D01*
X009858Y017218D01*
X009833Y017193D01*
X009783Y017193D01*
X009758Y017218D01*
X009758Y017318D01*
X009858Y017318D02*
X009858Y017218D01*
X009711Y017218D02*
X009686Y017218D01*
X009686Y017193D01*
X009711Y017193D01*
X009711Y017218D01*
X009637Y017193D02*
X009537Y017193D01*
X009587Y017193D02*
X009587Y017343D01*
X009637Y017293D01*
X009490Y017293D02*
X009490Y017218D01*
X009465Y017193D01*
X009390Y017193D01*
X009390Y017293D01*
X009342Y017268D02*
X009292Y017268D01*
X009342Y017343D02*
X009242Y017343D01*
X009342Y017343D02*
X009342Y017193D01*
X009342Y016530D02*
X009242Y016530D01*
X009292Y016455D02*
X009342Y016455D01*
X009390Y016480D02*
X009390Y016380D01*
X009465Y016380D01*
X009490Y016405D01*
X009490Y016480D01*
X009587Y016530D02*
X009587Y016380D01*
X009637Y016380D02*
X009537Y016380D01*
X009540Y016293D02*
X009440Y016293D01*
X009440Y016268D01*
X009540Y016168D01*
X009540Y016143D01*
X009587Y016168D02*
X009612Y016143D01*
X009662Y016143D01*
X009687Y016168D01*
X009687Y016268D01*
X009662Y016293D01*
X009612Y016293D01*
X009587Y016268D01*
X009686Y016380D02*
X009711Y016380D01*
X009711Y016405D01*
X009686Y016405D01*
X009686Y016380D01*
X009758Y016405D02*
X009783Y016380D01*
X009833Y016380D01*
X009858Y016405D01*
X009758Y016505D01*
X009758Y016405D01*
X009858Y016405D02*
X009858Y016505D01*
X009833Y016530D01*
X009783Y016530D01*
X009758Y016505D01*
X009637Y016480D02*
X009587Y016530D01*
X009342Y016530D02*
X009342Y016380D01*
X009317Y016293D02*
X009292Y016268D01*
X009292Y016243D01*
X009317Y016218D01*
X009292Y016193D01*
X009292Y016168D01*
X009317Y016143D01*
X009367Y016143D01*
X009392Y016168D01*
X009342Y016218D02*
X009317Y016218D01*
X009317Y016293D02*
X009367Y016293D01*
X009392Y016268D01*
X009440Y015480D02*
X009440Y015455D01*
X009540Y015355D01*
X009540Y015330D01*
X009587Y015355D02*
X009612Y015330D01*
X009662Y015330D01*
X009687Y015355D01*
X009687Y015455D01*
X009662Y015480D01*
X009612Y015480D01*
X009587Y015455D01*
X009540Y015480D02*
X009440Y015480D01*
X009392Y015405D02*
X009292Y015405D01*
X009317Y015330D02*
X009317Y015480D01*
X009392Y015405D01*
X009920Y012268D02*
X009945Y012268D01*
X009970Y012243D01*
X009970Y012168D01*
X009920Y012168D01*
X009895Y012193D01*
X009895Y012243D01*
X009920Y012268D01*
X010020Y012218D02*
X009970Y012168D01*
X010020Y012218D02*
X010045Y012268D01*
X010045Y012070D02*
X009895Y012070D01*
X009895Y012020D02*
X009895Y012120D01*
X009995Y012020D02*
X010045Y012070D01*
X010020Y011973D02*
X010045Y011948D01*
X010045Y011898D01*
X010020Y011873D01*
X009920Y011873D01*
X009895Y011898D01*
X009895Y011948D01*
X009920Y011973D01*
X010945Y011973D02*
X011095Y011973D01*
X011045Y011923D01*
X010970Y011874D02*
X010945Y011874D01*
X010945Y011849D01*
X010970Y011849D01*
X010970Y011874D01*
X010945Y011923D02*
X010945Y012023D01*
X010970Y012070D02*
X010945Y012095D01*
X010945Y012170D01*
X011045Y012170D01*
X011020Y012218D02*
X011020Y012268D01*
X011095Y012218D02*
X011095Y012318D01*
X011095Y012218D02*
X010945Y012218D01*
X010970Y012070D02*
X011045Y012070D01*
X010080Y010210D02*
X010055Y010210D01*
X010030Y010185D01*
X010005Y010210D01*
X009980Y010210D01*
X009955Y010185D01*
X009955Y010135D01*
X009980Y010110D01*
X009955Y010062D02*
X009955Y009962D01*
X009955Y009915D02*
X010005Y009865D01*
X010005Y009890D02*
X010005Y009815D01*
X009955Y009815D02*
X010105Y009815D01*
X010105Y009890D01*
X010080Y009915D01*
X010030Y009915D01*
X010005Y009890D01*
X010055Y009962D02*
X010105Y010012D01*
X009955Y010012D01*
X010080Y010110D02*
X010105Y010135D01*
X010105Y010185D01*
X010080Y010210D01*
X010030Y010185D02*
X010030Y010160D01*
X009055Y009962D02*
X008905Y009962D01*
X008905Y009912D02*
X008905Y010012D01*
X009005Y009912D02*
X009055Y009962D01*
X009055Y009865D02*
X009055Y009765D01*
X008980Y009765D01*
X009005Y009815D01*
X009005Y009840D01*
X008980Y009865D01*
X008930Y009865D01*
X008905Y009840D01*
X008905Y009790D01*
X008930Y009765D01*
X009905Y009325D02*
X009905Y009225D01*
X009905Y009275D02*
X010055Y009275D01*
X010005Y009225D01*
X009980Y009178D02*
X009930Y009178D01*
X009905Y009153D01*
X009905Y009103D01*
X009930Y009078D01*
X009980Y009078D02*
X010005Y009128D01*
X010005Y009153D01*
X009980Y009178D01*
X010055Y009178D02*
X010055Y009078D01*
X009980Y009078D01*
X010955Y009128D02*
X011105Y009128D01*
X011105Y009203D01*
X011080Y009228D01*
X011030Y009228D01*
X011005Y009203D01*
X011005Y009128D01*
X011005Y009178D02*
X010955Y009228D01*
X010955Y009275D02*
X010955Y009375D01*
X010955Y009422D02*
X011055Y009522D01*
X011080Y009522D01*
X011105Y009497D01*
X011105Y009447D01*
X011080Y009422D01*
X011105Y009325D02*
X010955Y009325D01*
X010955Y009422D02*
X010955Y009522D01*
X011105Y009325D02*
X011055Y009275D01*
X029179Y016053D02*
X029279Y016053D01*
X029279Y015903D01*
X029327Y015903D02*
X029327Y016003D01*
X029279Y015978D02*
X029229Y015978D01*
X029327Y015903D02*
X029402Y015903D01*
X029427Y015928D01*
X029427Y016003D01*
X029524Y016053D02*
X029524Y015903D01*
X029574Y015903D02*
X029474Y015903D01*
X029574Y016003D02*
X029524Y016053D01*
X029623Y015928D02*
X029623Y015903D01*
X029648Y015903D01*
X029648Y015928D01*
X029623Y015928D01*
X029695Y015928D02*
X029720Y015903D01*
X029770Y015903D01*
X029795Y015928D01*
X029695Y016028D01*
X029695Y015928D01*
X029695Y016028D02*
X029720Y016053D01*
X029770Y016053D01*
X029795Y016028D01*
X029795Y015928D01*
X029720Y016953D02*
X029670Y016953D01*
X029645Y016978D01*
X029598Y016953D02*
X029498Y016953D01*
X029450Y016953D02*
X029350Y016953D01*
X029400Y016953D02*
X029400Y017103D01*
X029450Y017053D01*
X029498Y017053D02*
X029498Y017078D01*
X029523Y017103D01*
X029573Y017103D01*
X029598Y017078D01*
X029645Y017078D02*
X029670Y017103D01*
X029720Y017103D01*
X029745Y017078D01*
X029745Y016978D01*
X029720Y016953D01*
X029598Y016953D02*
X029498Y017053D01*
X037645Y010118D02*
X037645Y010068D01*
X037670Y010043D01*
X037770Y010143D01*
X037670Y010143D01*
X037645Y010118D01*
X037670Y010043D02*
X037770Y010043D01*
X037795Y010068D01*
X037795Y010118D01*
X037770Y010143D01*
X037720Y009995D02*
X037720Y009895D01*
X037795Y009970D01*
X037645Y009970D01*
X037670Y009848D02*
X037645Y009823D01*
X037645Y009773D01*
X037670Y009748D01*
X037770Y009748D01*
X037795Y009773D01*
X037795Y009823D01*
X037770Y009848D01*
X037745Y009493D02*
X037745Y009393D01*
X037595Y009393D01*
X037595Y009345D02*
X037695Y009345D01*
X037670Y009393D02*
X037670Y009443D01*
X037595Y009345D02*
X037595Y009270D01*
X037620Y009245D01*
X037695Y009245D01*
X037745Y009148D02*
X037595Y009148D01*
X037595Y009098D02*
X037595Y009198D01*
X037695Y009098D02*
X037745Y009148D01*
X037620Y009049D02*
X037595Y009049D01*
X037595Y009024D01*
X037620Y009024D01*
X037620Y009049D01*
X037620Y008977D02*
X037595Y008952D01*
X037595Y008902D01*
X037620Y008877D01*
X037720Y008977D01*
X037620Y008977D01*
X037620Y008877D02*
X037720Y008877D01*
X037745Y008902D01*
X037745Y008952D01*
X037720Y008977D01*
X040179Y009115D02*
X040279Y009115D01*
X040279Y008965D01*
X040327Y008965D02*
X040327Y009065D01*
X040279Y009040D02*
X040229Y009040D01*
X040327Y008965D02*
X040402Y008965D01*
X040427Y008990D01*
X040427Y009065D01*
X040524Y009115D02*
X040524Y008965D01*
X040574Y008965D02*
X040474Y008965D01*
X040574Y009065D02*
X040524Y009115D01*
X040623Y008990D02*
X040623Y008965D01*
X040648Y008965D01*
X040648Y008990D01*
X040623Y008990D01*
X040695Y008990D02*
X040720Y008965D01*
X040770Y008965D01*
X040795Y008990D01*
X040695Y009090D01*
X040695Y008990D01*
X040795Y008990D02*
X040795Y009090D01*
X040770Y009115D01*
X040720Y009115D01*
X040695Y009090D01*
X040720Y010015D02*
X040670Y010015D01*
X040645Y010040D01*
X040598Y010090D02*
X040498Y010090D01*
X040450Y010115D02*
X040400Y010165D01*
X040400Y010015D01*
X040450Y010015D02*
X040350Y010015D01*
X040523Y010015D02*
X040523Y010165D01*
X040598Y010090D01*
X040645Y010140D02*
X040670Y010165D01*
X040720Y010165D01*
X040745Y010140D01*
X040745Y010040D01*
X040720Y010015D01*
X046395Y010398D02*
X046395Y010448D01*
X046420Y010473D01*
X046420Y010520D02*
X046395Y010520D01*
X046420Y010520D02*
X046520Y010620D01*
X046545Y010620D01*
X046545Y010520D01*
X046520Y010473D02*
X046545Y010448D01*
X046545Y010398D01*
X046520Y010373D01*
X046420Y010373D01*
X046395Y010398D01*
X046420Y010668D02*
X046520Y010768D01*
X046420Y010768D01*
X046395Y010743D01*
X046395Y010693D01*
X046420Y010668D01*
X046520Y010668D01*
X046545Y010693D01*
X046545Y010743D01*
X046520Y010768D01*
X047445Y010718D02*
X047595Y010718D01*
X047595Y010818D01*
X047520Y010768D02*
X047520Y010718D01*
X047545Y010670D02*
X047445Y010670D01*
X047445Y010595D01*
X047470Y010570D01*
X047545Y010570D01*
X047595Y010473D02*
X047445Y010473D01*
X047445Y010423D02*
X047445Y010523D01*
X047545Y010423D02*
X047595Y010473D01*
X047470Y010374D02*
X047445Y010374D01*
X047445Y010349D01*
X047470Y010349D01*
X047470Y010374D01*
X047470Y010302D02*
X047445Y010277D01*
X047445Y010227D01*
X047470Y010202D01*
X047570Y010302D01*
X047470Y010302D01*
X047470Y010202D02*
X047570Y010202D01*
X047595Y010227D01*
X047595Y010277D01*
X047570Y010302D01*
X048068Y007655D02*
X048068Y007505D01*
X048068Y007555D02*
X047993Y007605D01*
X048068Y007555D02*
X047993Y007505D01*
X048115Y007530D02*
X048140Y007505D01*
X048190Y007505D01*
X048215Y007530D01*
X048115Y007630D01*
X048115Y007530D01*
X048215Y007530D02*
X048215Y007630D01*
X048190Y007655D01*
X048140Y007655D01*
X048115Y007630D01*
X048262Y007505D02*
X048362Y007505D01*
X048312Y007505D02*
X048312Y007655D01*
X048362Y007605D01*
X048290Y006605D02*
X048215Y006605D01*
X048190Y006580D01*
X048190Y006530D01*
X048215Y006505D01*
X048290Y006505D01*
X048290Y006455D02*
X048290Y006605D01*
X048240Y006505D02*
X048190Y006455D01*
X048142Y006455D02*
X048042Y006555D01*
X048042Y006580D01*
X048067Y006605D01*
X048117Y006605D01*
X048142Y006580D01*
X048142Y006455D02*
X048042Y006455D01*
X047595Y004568D02*
X047595Y004468D01*
X047445Y004468D01*
X047445Y004420D02*
X047545Y004420D01*
X047520Y004468D02*
X047520Y004518D01*
X047445Y004420D02*
X047445Y004345D01*
X047470Y004320D01*
X047545Y004320D01*
X047595Y004223D02*
X047445Y004223D01*
X047445Y004173D02*
X047445Y004273D01*
X047545Y004173D02*
X047595Y004223D01*
X047470Y004124D02*
X047445Y004124D01*
X047445Y004099D01*
X047470Y004099D01*
X047470Y004124D01*
X047470Y004052D02*
X047445Y004027D01*
X047445Y003977D01*
X047470Y003952D01*
X047570Y004052D01*
X047470Y004052D01*
X047470Y003952D02*
X047570Y003952D01*
X047595Y003977D01*
X047595Y004027D01*
X047570Y004052D01*
X046545Y004148D02*
X046520Y004123D01*
X046420Y004123D01*
X046395Y004148D01*
X046395Y004198D01*
X046420Y004223D01*
X046420Y004270D02*
X046395Y004270D01*
X046420Y004270D02*
X046520Y004370D01*
X046545Y004370D01*
X046545Y004270D01*
X046520Y004223D02*
X046545Y004198D01*
X046545Y004148D01*
X046495Y004418D02*
X046545Y004468D01*
X046395Y004468D01*
X046395Y004418D02*
X046395Y004518D01*
X038658Y003018D02*
X038658Y002918D01*
X038508Y002918D01*
X038508Y002870D02*
X038608Y002870D01*
X038583Y002918D02*
X038583Y002968D01*
X038508Y002870D02*
X038508Y002795D01*
X038533Y002770D01*
X038608Y002770D01*
X038633Y002723D02*
X038533Y002623D01*
X038508Y002648D01*
X038508Y002698D01*
X038533Y002723D01*
X038633Y002723D01*
X038658Y002698D01*
X038658Y002648D01*
X038633Y002623D01*
X038533Y002623D01*
X038508Y002576D02*
X038508Y002476D01*
X038508Y002526D02*
X038658Y002526D01*
X038608Y002476D01*
X038633Y001968D02*
X038533Y001868D01*
X038508Y001868D01*
X038533Y001820D02*
X038508Y001795D01*
X038508Y001745D01*
X038533Y001720D01*
X038633Y001720D01*
X038658Y001745D01*
X038658Y001795D01*
X038633Y001820D01*
X038658Y001868D02*
X038658Y001968D01*
X038633Y001968D01*
X036670Y002128D02*
X036620Y002078D01*
X036670Y002128D02*
X036520Y002128D01*
X036520Y002078D02*
X036520Y002178D01*
X036545Y002226D02*
X036645Y002326D01*
X036545Y002326D01*
X036520Y002301D01*
X036520Y002251D01*
X036545Y002226D01*
X036645Y002226D01*
X036670Y002251D01*
X036670Y002301D01*
X036645Y002326D01*
X036645Y002373D02*
X036670Y002398D01*
X036670Y002448D01*
X036645Y002473D01*
X036545Y002373D01*
X036520Y002398D01*
X036520Y002448D01*
X036545Y002473D01*
X036645Y002473D01*
X036620Y002520D02*
X036620Y002595D01*
X036595Y002620D01*
X036520Y002620D01*
X036520Y002668D02*
X036670Y002668D01*
X036670Y002768D01*
X036595Y002718D02*
X036595Y002668D01*
X036620Y002520D02*
X036520Y002520D01*
X036545Y002373D02*
X036645Y002373D01*
X036645Y003020D02*
X036545Y003020D01*
X036520Y003045D01*
X036520Y003095D01*
X036545Y003120D01*
X036545Y003168D02*
X036520Y003193D01*
X036520Y003243D01*
X036545Y003268D01*
X036595Y003268D01*
X036620Y003243D01*
X036620Y003218D01*
X036595Y003168D01*
X036670Y003168D01*
X036670Y003268D01*
X036645Y003120D02*
X036670Y003095D01*
X036670Y003045D01*
X036645Y003020D01*
X046670Y016873D02*
X046645Y016898D01*
X046645Y016948D01*
X046670Y016973D01*
X046670Y017020D02*
X046645Y017045D01*
X046645Y017095D01*
X046670Y017120D01*
X046695Y017120D01*
X046720Y017095D01*
X046720Y017020D01*
X046670Y017020D01*
X046720Y017020D02*
X046770Y017070D01*
X046795Y017120D01*
X046795Y017168D02*
X046795Y017268D01*
X046770Y017268D01*
X046670Y017168D01*
X046645Y017168D01*
X046770Y016973D02*
X046795Y016948D01*
X046795Y016898D01*
X046770Y016873D01*
X046670Y016873D01*
X047695Y016874D02*
X047695Y016849D01*
X047720Y016849D01*
X047720Y016874D01*
X047695Y016874D01*
X047695Y016923D02*
X047695Y017023D01*
X047695Y016973D02*
X047845Y016973D01*
X047795Y016923D01*
X047820Y016802D02*
X047720Y016702D01*
X047695Y016727D01*
X047695Y016777D01*
X047720Y016802D01*
X047820Y016802D01*
X047845Y016777D01*
X047845Y016727D01*
X047820Y016702D01*
X047720Y016702D01*
X047720Y017070D02*
X047695Y017095D01*
X047695Y017170D01*
X047795Y017170D01*
X047770Y017218D02*
X047770Y017268D01*
X047845Y017218D02*
X047845Y017318D01*
X047845Y017218D02*
X047695Y017218D01*
X047720Y017070D02*
X047795Y017070D01*
X042545Y017090D02*
X042520Y017115D01*
X042470Y017115D01*
X042445Y017090D01*
X042545Y016990D01*
X042520Y016965D01*
X042470Y016965D01*
X042445Y016990D01*
X042445Y017090D01*
X042545Y017090D02*
X042545Y016990D01*
X042398Y016990D02*
X042373Y016990D01*
X042373Y016965D01*
X042398Y016965D01*
X042398Y016990D01*
X042324Y016965D02*
X042224Y016965D01*
X042274Y016965D02*
X042274Y017115D01*
X042324Y017065D01*
X042177Y017065D02*
X042177Y016990D01*
X042152Y016965D01*
X042077Y016965D01*
X042077Y017065D01*
X042029Y017040D02*
X041979Y017040D01*
X042029Y017115D02*
X041929Y017115D01*
X042029Y017115D02*
X042029Y016965D01*
X042200Y018015D02*
X042200Y018040D01*
X042100Y018140D01*
X042100Y018165D01*
X042200Y018165D01*
X042248Y018165D02*
X042348Y018165D01*
X042348Y018090D01*
X042298Y018115D01*
X042273Y018115D01*
X042248Y018090D01*
X042248Y018040D01*
X042273Y018015D01*
X042323Y018015D01*
X042348Y018040D01*
X042395Y018040D02*
X042420Y018015D01*
X042470Y018015D01*
X042495Y018040D01*
X042495Y018140D01*
X042470Y018165D01*
X042420Y018165D01*
X042395Y018140D01*
X042373Y023215D02*
X042398Y023215D01*
X042398Y023240D01*
X042373Y023240D01*
X042373Y023215D01*
X042324Y023215D02*
X042224Y023215D01*
X042274Y023215D02*
X042274Y023365D01*
X042324Y023315D01*
X042445Y023340D02*
X042545Y023240D01*
X042520Y023215D01*
X042470Y023215D01*
X042445Y023240D01*
X042445Y023340D01*
X042470Y023365D01*
X042520Y023365D01*
X042545Y023340D01*
X042545Y023240D01*
X042177Y023240D02*
X042152Y023215D01*
X042077Y023215D01*
X042077Y023315D01*
X042029Y023290D02*
X041979Y023290D01*
X042029Y023365D02*
X041929Y023365D01*
X042029Y023365D02*
X042029Y023215D01*
X042177Y023240D02*
X042177Y023315D01*
X042175Y024265D02*
X042125Y024265D01*
X042100Y024290D01*
X042100Y024390D01*
X042125Y024415D01*
X042175Y024415D01*
X042200Y024390D01*
X042200Y024365D01*
X042175Y024340D01*
X042100Y024340D01*
X042175Y024265D02*
X042200Y024290D01*
X042248Y024290D02*
X042273Y024265D01*
X042323Y024265D01*
X042348Y024290D01*
X042395Y024290D02*
X042420Y024265D01*
X042470Y024265D01*
X042495Y024290D01*
X042495Y024390D01*
X042470Y024415D01*
X042420Y024415D01*
X042395Y024390D01*
X042348Y024415D02*
X042348Y024340D01*
X042298Y024365D01*
X042273Y024365D01*
X042248Y024340D01*
X042248Y024290D01*
X042248Y024415D02*
X042348Y024415D01*
X046645Y023743D02*
X046645Y023693D01*
X046670Y023668D01*
X046695Y023668D01*
X046720Y023693D01*
X046720Y023743D01*
X046695Y023768D01*
X046670Y023768D01*
X046645Y023743D01*
X046720Y023743D02*
X046745Y023768D01*
X046770Y023768D01*
X046795Y023743D01*
X046795Y023693D01*
X046770Y023668D01*
X046745Y023668D01*
X046720Y023693D01*
X046695Y023620D02*
X046720Y023595D01*
X046720Y023520D01*
X046670Y023520D01*
X046645Y023545D01*
X046645Y023595D01*
X046670Y023620D01*
X046695Y023620D01*
X046770Y023570D02*
X046720Y023520D01*
X046670Y023473D02*
X046645Y023448D01*
X046645Y023398D01*
X046670Y023373D01*
X046770Y023373D01*
X046795Y023398D01*
X046795Y023448D01*
X046770Y023473D01*
X046770Y023570D02*
X046795Y023620D01*
X047695Y023595D02*
X047695Y023670D01*
X047795Y023670D01*
X047770Y023718D02*
X047770Y023768D01*
X047845Y023718D02*
X047845Y023818D01*
X047845Y023718D02*
X047695Y023718D01*
X047695Y023595D02*
X047720Y023570D01*
X047795Y023570D01*
X047845Y023473D02*
X047695Y023473D01*
X047695Y023423D02*
X047695Y023523D01*
X047795Y023423D02*
X047845Y023473D01*
X047720Y023374D02*
X047695Y023374D01*
X047695Y023349D01*
X047720Y023349D01*
X047720Y023374D01*
X047720Y023302D02*
X047695Y023277D01*
X047695Y023227D01*
X047720Y023202D01*
X047820Y023302D01*
X047720Y023302D01*
X047720Y023202D02*
X047820Y023202D01*
X047845Y023227D01*
X047845Y023277D01*
X047820Y023302D01*
X047570Y029702D02*
X047595Y029727D01*
X047595Y029777D01*
X047570Y029802D01*
X047470Y029702D01*
X047445Y029727D01*
X047445Y029777D01*
X047470Y029802D01*
X047570Y029802D01*
X047570Y029702D02*
X047470Y029702D01*
X047470Y029849D02*
X047470Y029874D01*
X047445Y029874D01*
X047445Y029849D01*
X047470Y029849D01*
X047445Y029923D02*
X047445Y030023D01*
X047445Y029973D02*
X047595Y029973D01*
X047545Y029923D01*
X047545Y030070D02*
X047470Y030070D01*
X047445Y030095D01*
X047445Y030170D01*
X047545Y030170D01*
X047520Y030218D02*
X047520Y030268D01*
X047595Y030218D02*
X047595Y030318D01*
X047595Y030218D02*
X047445Y030218D01*
X046545Y030243D02*
X046545Y030193D01*
X046520Y030168D01*
X046495Y030168D01*
X046470Y030193D01*
X046470Y030268D01*
X046420Y030268D02*
X046520Y030268D01*
X046545Y030243D01*
X046545Y030120D02*
X046520Y030070D01*
X046470Y030020D01*
X046470Y030095D01*
X046445Y030120D01*
X046420Y030120D01*
X046395Y030095D01*
X046395Y030045D01*
X046420Y030020D01*
X046470Y030020D01*
X046420Y029973D02*
X046395Y029948D01*
X046395Y029898D01*
X046420Y029873D01*
X046520Y029873D01*
X046545Y029898D01*
X046545Y029948D01*
X046520Y029973D01*
X046420Y030168D02*
X046395Y030193D01*
X046395Y030243D01*
X046420Y030268D01*
X044095Y031227D02*
X044095Y031277D01*
X044070Y031302D01*
X043970Y031202D01*
X043945Y031227D01*
X043945Y031277D01*
X043970Y031302D01*
X044070Y031302D01*
X044095Y031227D02*
X044070Y031202D01*
X043970Y031202D01*
X043970Y031349D02*
X043970Y031374D01*
X043945Y031374D01*
X043945Y031349D01*
X043970Y031349D01*
X043945Y031423D02*
X043945Y031523D01*
X043945Y031473D02*
X044095Y031473D01*
X044045Y031423D01*
X044045Y031570D02*
X043970Y031570D01*
X043945Y031595D01*
X043945Y031670D01*
X044045Y031670D01*
X044020Y031718D02*
X044020Y031768D01*
X044095Y031718D02*
X044095Y031818D01*
X044095Y031718D02*
X043945Y031718D01*
X043045Y031743D02*
X043020Y031768D01*
X042995Y031768D01*
X042970Y031743D01*
X042945Y031768D01*
X042920Y031768D01*
X042895Y031743D01*
X042895Y031693D01*
X042920Y031668D01*
X042920Y031620D02*
X042895Y031595D01*
X042895Y031545D01*
X042920Y031520D01*
X042920Y031473D02*
X042895Y031448D01*
X042895Y031398D01*
X042920Y031373D01*
X043020Y031373D01*
X043045Y031398D01*
X043045Y031448D01*
X043020Y031473D01*
X043045Y031520D02*
X042970Y031520D01*
X042995Y031570D01*
X042995Y031595D01*
X042970Y031620D01*
X042920Y031620D01*
X042970Y031718D02*
X042970Y031743D01*
X043045Y031743D02*
X043045Y031693D01*
X043020Y031668D01*
X043045Y031620D02*
X043045Y031520D01*
X046670Y036373D02*
X046645Y036398D01*
X046645Y036448D01*
X046670Y036473D01*
X046670Y036520D02*
X046645Y036545D01*
X046645Y036595D01*
X046670Y036620D01*
X046695Y036620D01*
X046720Y036595D01*
X046720Y036520D01*
X046670Y036520D01*
X046720Y036520D02*
X046770Y036570D01*
X046795Y036620D01*
X046720Y036668D02*
X046720Y036743D01*
X046695Y036768D01*
X046670Y036768D01*
X046645Y036743D01*
X046645Y036693D01*
X046670Y036668D01*
X046720Y036668D01*
X046770Y036718D01*
X046795Y036768D01*
X046770Y036473D02*
X046795Y036448D01*
X046795Y036398D01*
X046770Y036373D01*
X046670Y036373D01*
X047695Y036374D02*
X047695Y036349D01*
X047720Y036349D01*
X047720Y036374D01*
X047695Y036374D01*
X047695Y036423D02*
X047695Y036523D01*
X047695Y036473D02*
X047845Y036473D01*
X047795Y036423D01*
X047820Y036302D02*
X047720Y036202D01*
X047695Y036227D01*
X047695Y036277D01*
X047720Y036302D01*
X047820Y036302D01*
X047845Y036277D01*
X047845Y036227D01*
X047820Y036202D01*
X047720Y036202D01*
X047720Y036570D02*
X047695Y036595D01*
X047695Y036670D01*
X047795Y036670D01*
X047770Y036718D02*
X047770Y036768D01*
X047845Y036718D02*
X047845Y036818D01*
X047845Y036718D02*
X047695Y036718D01*
X047720Y036570D02*
X047795Y036570D01*
X041937Y039230D02*
X041912Y039205D01*
X041862Y039205D01*
X041837Y039230D01*
X041790Y039230D02*
X041765Y039205D01*
X041715Y039205D01*
X041690Y039230D01*
X041690Y039280D01*
X041715Y039305D01*
X041740Y039305D01*
X041790Y039280D01*
X041790Y039355D01*
X041690Y039355D01*
X041642Y039355D02*
X041642Y039280D01*
X041592Y039305D01*
X041567Y039305D01*
X041542Y039280D01*
X041542Y039230D01*
X041567Y039205D01*
X041617Y039205D01*
X041642Y039230D01*
X041642Y039355D02*
X041542Y039355D01*
X041837Y039330D02*
X041862Y039355D01*
X041912Y039355D01*
X041937Y039330D01*
X041937Y039230D01*
X041936Y040255D02*
X041961Y040255D01*
X041961Y040280D01*
X041936Y040280D01*
X041936Y040255D01*
X041887Y040255D02*
X041787Y040255D01*
X041837Y040255D02*
X041837Y040405D01*
X041887Y040355D01*
X042008Y040380D02*
X042108Y040280D01*
X042083Y040255D01*
X042033Y040255D01*
X042008Y040280D01*
X042008Y040380D01*
X042033Y040405D01*
X042083Y040405D01*
X042108Y040380D01*
X042108Y040280D01*
X041740Y040280D02*
X041715Y040255D01*
X041640Y040255D01*
X041640Y040355D01*
X041592Y040330D02*
X041542Y040330D01*
X041592Y040405D02*
X041492Y040405D01*
X041592Y040405D02*
X041592Y040255D01*
X041740Y040280D02*
X041740Y040355D01*
X041768Y042753D02*
X041668Y042753D01*
X041643Y042778D01*
X041643Y042828D01*
X041668Y042853D01*
X041718Y042900D02*
X041718Y043000D01*
X041718Y043047D02*
X041718Y043147D01*
X041793Y043122D02*
X041718Y043047D01*
X041793Y042975D02*
X041718Y042900D01*
X041768Y042853D02*
X041793Y042828D01*
X041793Y042778D01*
X041768Y042753D01*
X041793Y042975D02*
X041643Y042975D01*
X041643Y043122D02*
X041793Y043122D01*
X040743Y043218D02*
X040743Y043318D01*
X040668Y043268D02*
X040668Y043218D01*
X040693Y043171D02*
X040593Y043171D01*
X040593Y043096D01*
X040618Y043071D01*
X040693Y043071D01*
X040743Y042974D02*
X040593Y042974D01*
X040593Y043024D02*
X040593Y042923D01*
X040593Y042875D02*
X040593Y042850D01*
X040618Y042850D01*
X040618Y042875D01*
X040593Y042875D01*
X040618Y042803D02*
X040593Y042778D01*
X040593Y042728D01*
X040618Y042703D01*
X040718Y042803D01*
X040618Y042803D01*
X040718Y042803D02*
X040743Y042778D01*
X040743Y042728D01*
X040718Y042703D01*
X040618Y042703D01*
X040693Y042923D02*
X040743Y042974D01*
X040743Y043218D02*
X040593Y043218D01*
X037749Y048455D02*
X037699Y048455D01*
X037674Y048480D01*
X037627Y048530D02*
X037527Y048530D01*
X037480Y048530D02*
X037405Y048530D01*
X037380Y048505D01*
X037380Y048480D01*
X037405Y048455D01*
X037455Y048455D01*
X037480Y048480D01*
X037480Y048530D01*
X037430Y048580D01*
X037380Y048605D01*
X037552Y048605D02*
X037627Y048530D01*
X037674Y048580D02*
X037699Y048605D01*
X037749Y048605D01*
X037774Y048580D01*
X037774Y048480D01*
X037749Y048455D01*
X037552Y048455D02*
X037552Y048605D01*
X037552Y049505D02*
X037477Y049505D01*
X037477Y049605D01*
X037430Y049580D02*
X037380Y049580D01*
X037430Y049505D02*
X037430Y049655D01*
X037330Y049655D01*
X037577Y049605D02*
X037577Y049530D01*
X037552Y049505D01*
X037624Y049505D02*
X037724Y049505D01*
X037773Y049505D02*
X037798Y049505D01*
X037798Y049530D01*
X037773Y049530D01*
X037773Y049505D01*
X037845Y049530D02*
X037870Y049505D01*
X037920Y049505D01*
X037945Y049530D01*
X037845Y049630D01*
X037845Y049530D01*
X037845Y049630D02*
X037870Y049655D01*
X037920Y049655D01*
X037945Y049630D01*
X037945Y049530D01*
X037724Y049605D02*
X037674Y049655D01*
X037674Y049505D01*
X034108Y049530D02*
X034008Y049630D01*
X034008Y049530D01*
X034033Y049505D01*
X034083Y049505D01*
X034108Y049530D01*
X034108Y049630D01*
X034083Y049655D01*
X034033Y049655D01*
X034008Y049630D01*
X033961Y049530D02*
X033936Y049530D01*
X033936Y049505D01*
X033961Y049505D01*
X033961Y049530D01*
X033887Y049505D02*
X033787Y049505D01*
X033837Y049505D02*
X033837Y049655D01*
X033887Y049605D01*
X033740Y049605D02*
X033740Y049530D01*
X033715Y049505D01*
X033640Y049505D01*
X033640Y049605D01*
X033592Y049580D02*
X033542Y049580D01*
X033592Y049655D02*
X033492Y049655D01*
X033592Y049655D02*
X033592Y049505D01*
X033567Y048605D02*
X033542Y048580D01*
X033542Y048555D01*
X033567Y048530D01*
X033617Y048530D01*
X033642Y048555D01*
X033642Y048580D01*
X033617Y048605D01*
X033567Y048605D01*
X033567Y048530D02*
X033542Y048505D01*
X033542Y048480D01*
X033567Y048455D01*
X033617Y048455D01*
X033642Y048480D01*
X033642Y048505D01*
X033617Y048530D01*
X033690Y048530D02*
X033790Y048530D01*
X033715Y048605D01*
X033715Y048455D01*
X033837Y048480D02*
X033862Y048455D01*
X033912Y048455D01*
X033937Y048480D01*
X033937Y048580D01*
X033912Y048605D01*
X033862Y048605D01*
X033837Y048580D01*
X030358Y049530D02*
X030258Y049630D01*
X030258Y049530D01*
X030283Y049505D01*
X030333Y049505D01*
X030358Y049530D01*
X030358Y049630D01*
X030333Y049655D01*
X030283Y049655D01*
X030258Y049630D01*
X030211Y049530D02*
X030186Y049530D01*
X030186Y049505D01*
X030211Y049505D01*
X030211Y049530D01*
X030137Y049505D02*
X030037Y049505D01*
X030087Y049505D02*
X030087Y049655D01*
X030137Y049605D01*
X029990Y049605D02*
X029990Y049530D01*
X029965Y049505D01*
X029890Y049505D01*
X029890Y049605D01*
X029842Y049580D02*
X029792Y049580D01*
X029842Y049655D02*
X029742Y049655D01*
X029842Y049655D02*
X029842Y049505D01*
X029817Y048605D02*
X029792Y048580D01*
X029892Y048480D01*
X029867Y048455D01*
X029817Y048455D01*
X029792Y048480D01*
X029792Y048580D01*
X029817Y048605D02*
X029867Y048605D01*
X029892Y048580D01*
X029892Y048480D01*
X029940Y048480D02*
X029965Y048455D01*
X030015Y048455D01*
X030040Y048480D01*
X030087Y048480D02*
X030112Y048455D01*
X030162Y048455D01*
X030187Y048480D01*
X030187Y048580D01*
X030162Y048605D01*
X030112Y048605D01*
X030087Y048580D01*
X030040Y048605D02*
X030040Y048530D01*
X029990Y048555D01*
X029965Y048555D01*
X029940Y048530D01*
X029940Y048480D01*
X029940Y048605D02*
X030040Y048605D01*
X026858Y049530D02*
X026758Y049630D01*
X026758Y049530D01*
X026783Y049505D01*
X026833Y049505D01*
X026858Y049530D01*
X026858Y049630D01*
X026833Y049655D01*
X026783Y049655D01*
X026758Y049630D01*
X026711Y049530D02*
X026686Y049530D01*
X026686Y049505D01*
X026711Y049505D01*
X026711Y049530D01*
X026637Y049505D02*
X026537Y049505D01*
X026587Y049505D02*
X026587Y049655D01*
X026637Y049605D01*
X026490Y049605D02*
X026490Y049530D01*
X026465Y049505D01*
X026390Y049505D01*
X026390Y049605D01*
X026342Y049580D02*
X026292Y049580D01*
X026342Y049655D02*
X026242Y049655D01*
X026342Y049655D02*
X026342Y049505D01*
X026317Y048605D02*
X026292Y048580D01*
X026392Y048480D01*
X026367Y048455D01*
X026317Y048455D01*
X026292Y048480D01*
X026292Y048580D01*
X026317Y048605D02*
X026367Y048605D01*
X026392Y048580D01*
X026392Y048480D01*
X026440Y048480D02*
X026440Y048505D01*
X026465Y048530D01*
X026540Y048530D01*
X026540Y048480D01*
X026515Y048455D01*
X026465Y048455D01*
X026440Y048480D01*
X026490Y048580D02*
X026540Y048530D01*
X026587Y048480D02*
X026612Y048455D01*
X026662Y048455D01*
X026687Y048480D01*
X026687Y048580D01*
X026662Y048605D01*
X026612Y048605D01*
X026587Y048580D01*
X026490Y048580D02*
X026440Y048605D01*
X023295Y049530D02*
X023195Y049630D01*
X023195Y049530D01*
X023220Y049505D01*
X023270Y049505D01*
X023295Y049530D01*
X023295Y049630D01*
X023270Y049655D01*
X023220Y049655D01*
X023195Y049630D01*
X023148Y049530D02*
X023123Y049530D01*
X023123Y049505D01*
X023148Y049505D01*
X023148Y049530D01*
X023074Y049505D02*
X022974Y049505D01*
X023024Y049505D02*
X023024Y049655D01*
X023074Y049605D01*
X022927Y049605D02*
X022927Y049530D01*
X022902Y049505D01*
X022827Y049505D01*
X022827Y049605D01*
X022780Y049580D02*
X022730Y049580D01*
X022780Y049505D02*
X022780Y049655D01*
X022680Y049655D01*
X022780Y048605D02*
X022780Y048455D01*
X022830Y048455D02*
X022730Y048455D01*
X022830Y048555D02*
X022780Y048605D01*
X022877Y048605D02*
X022927Y048580D01*
X022977Y048530D01*
X022902Y048530D01*
X022877Y048505D01*
X022877Y048480D01*
X022902Y048455D01*
X022952Y048455D01*
X022977Y048480D01*
X022977Y048530D01*
X023024Y048480D02*
X023049Y048455D01*
X023099Y048455D01*
X023124Y048480D01*
X023124Y048580D01*
X023099Y048605D01*
X023049Y048605D01*
X023024Y048580D01*
X019795Y049530D02*
X019695Y049630D01*
X019695Y049530D01*
X019720Y049505D01*
X019770Y049505D01*
X019795Y049530D01*
X019795Y049630D01*
X019770Y049655D01*
X019720Y049655D01*
X019695Y049630D01*
X019648Y049530D02*
X019623Y049530D01*
X019623Y049505D01*
X019648Y049505D01*
X019648Y049530D01*
X019574Y049505D02*
X019474Y049505D01*
X019524Y049505D02*
X019524Y049655D01*
X019574Y049605D01*
X019427Y049605D02*
X019427Y049530D01*
X019402Y049505D01*
X019327Y049505D01*
X019327Y049605D01*
X019280Y049580D02*
X019230Y049580D01*
X019280Y049505D02*
X019280Y049655D01*
X019180Y049655D01*
X019255Y048605D02*
X019305Y048605D01*
X019330Y048580D01*
X019377Y048605D02*
X019477Y048605D01*
X019477Y048530D01*
X019427Y048555D01*
X019402Y048555D01*
X019377Y048530D01*
X019377Y048480D01*
X019402Y048455D01*
X019452Y048455D01*
X019477Y048480D01*
X019524Y048480D02*
X019549Y048455D01*
X019599Y048455D01*
X019624Y048480D01*
X019624Y048580D01*
X019599Y048605D01*
X019549Y048605D01*
X019524Y048580D01*
X019330Y048455D02*
X019230Y048555D01*
X019230Y048580D01*
X019255Y048605D01*
X019230Y048455D02*
X019330Y048455D01*
X016124Y048480D02*
X016099Y048455D01*
X016049Y048455D01*
X016024Y048480D01*
X015977Y048480D02*
X015952Y048455D01*
X015902Y048455D01*
X015877Y048480D01*
X015877Y048530D01*
X015902Y048555D01*
X015927Y048555D01*
X015977Y048530D01*
X015977Y048605D01*
X015877Y048605D01*
X015830Y048530D02*
X015730Y048530D01*
X015755Y048455D02*
X015755Y048605D01*
X015830Y048530D01*
X016024Y048580D02*
X016049Y048605D01*
X016099Y048605D01*
X016124Y048580D01*
X016124Y048480D01*
X016123Y049505D02*
X016148Y049505D01*
X016148Y049530D01*
X016123Y049530D01*
X016123Y049505D01*
X016074Y049505D02*
X015974Y049505D01*
X016024Y049505D02*
X016024Y049655D01*
X016074Y049605D01*
X016195Y049630D02*
X016295Y049530D01*
X016270Y049505D01*
X016220Y049505D01*
X016195Y049530D01*
X016195Y049630D01*
X016220Y049655D01*
X016270Y049655D01*
X016295Y049630D01*
X016295Y049530D01*
X015927Y049530D02*
X015902Y049505D01*
X015827Y049505D01*
X015827Y049605D01*
X015780Y049580D02*
X015730Y049580D01*
X015780Y049505D02*
X015780Y049655D01*
X015680Y049655D01*
X015927Y049605D02*
X015927Y049530D01*
X022680Y034843D02*
X022780Y034843D01*
X022780Y034693D01*
X022827Y034693D02*
X022827Y034793D01*
X022780Y034768D02*
X022730Y034768D01*
X022827Y034693D02*
X022902Y034693D01*
X022927Y034718D01*
X022927Y034793D01*
X023024Y034843D02*
X023024Y034693D01*
X023074Y034693D02*
X022974Y034693D01*
X023074Y034793D02*
X023024Y034843D01*
X023123Y034718D02*
X023123Y034693D01*
X023148Y034693D01*
X023148Y034718D01*
X023123Y034718D01*
X023195Y034718D02*
X023220Y034693D01*
X023270Y034693D01*
X023295Y034718D01*
X023195Y034818D01*
X023195Y034718D01*
X023195Y034818D02*
X023220Y034843D01*
X023270Y034843D01*
X023295Y034818D01*
X023295Y034718D01*
X023099Y033793D02*
X023124Y033768D01*
X023124Y033668D01*
X023099Y033643D01*
X023049Y033643D01*
X023024Y033668D01*
X022977Y033668D02*
X022952Y033643D01*
X022902Y033643D01*
X022877Y033668D01*
X022877Y033718D01*
X022902Y033743D01*
X022927Y033743D01*
X022977Y033718D01*
X022977Y033793D01*
X022877Y033793D01*
X022830Y033718D02*
X022755Y033718D01*
X022730Y033693D01*
X022730Y033668D01*
X022755Y033643D01*
X022805Y033643D01*
X022830Y033668D01*
X022830Y033718D01*
X022780Y033768D01*
X022730Y033793D01*
X023024Y033768D02*
X023049Y033793D01*
X023099Y033793D01*
X027042Y033768D02*
X027042Y033743D01*
X027067Y033718D01*
X027042Y033693D01*
X027042Y033668D01*
X027067Y033643D01*
X027117Y033643D01*
X027142Y033668D01*
X027190Y033668D02*
X027190Y033693D01*
X027215Y033718D01*
X027290Y033718D01*
X027290Y033668D01*
X027265Y033643D01*
X027215Y033643D01*
X027190Y033668D01*
X027092Y033718D02*
X027067Y033718D01*
X027042Y033768D02*
X027067Y033793D01*
X027117Y033793D01*
X027142Y033768D01*
X027190Y033793D02*
X027240Y033768D01*
X027290Y033718D01*
X027337Y033768D02*
X027362Y033793D01*
X027412Y033793D01*
X027437Y033768D01*
X027437Y033668D01*
X027412Y033643D01*
X027362Y033643D01*
X027337Y033668D01*
X027337Y034693D02*
X027337Y034843D01*
X027387Y034793D01*
X027436Y034718D02*
X027436Y034693D01*
X027461Y034693D01*
X027461Y034718D01*
X027436Y034718D01*
X027387Y034693D02*
X027287Y034693D01*
X027240Y034718D02*
X027215Y034693D01*
X027140Y034693D01*
X027140Y034793D01*
X027092Y034768D02*
X027042Y034768D01*
X027092Y034843D02*
X026992Y034843D01*
X027092Y034843D02*
X027092Y034693D01*
X027240Y034718D02*
X027240Y034793D01*
X027508Y034818D02*
X027608Y034718D01*
X027583Y034693D01*
X027533Y034693D01*
X027508Y034718D01*
X027508Y034818D01*
X027533Y034843D01*
X027583Y034843D01*
X027608Y034818D01*
X027608Y034718D01*
X031180Y034843D02*
X031280Y034843D01*
X031280Y034693D01*
X031327Y034693D02*
X031327Y034793D01*
X031280Y034768D02*
X031230Y034768D01*
X031327Y034693D02*
X031402Y034693D01*
X031427Y034718D01*
X031427Y034793D01*
X031524Y034843D02*
X031524Y034693D01*
X031574Y034693D02*
X031474Y034693D01*
X031574Y034793D02*
X031524Y034843D01*
X031623Y034718D02*
X031623Y034693D01*
X031648Y034693D01*
X031648Y034718D01*
X031623Y034718D01*
X031695Y034718D02*
X031720Y034693D01*
X031770Y034693D01*
X031795Y034718D01*
X031695Y034818D01*
X031695Y034718D01*
X031695Y034818D02*
X031720Y034843D01*
X031770Y034843D01*
X031795Y034818D01*
X031795Y034718D01*
X031599Y033793D02*
X031624Y033768D01*
X031624Y033668D01*
X031599Y033643D01*
X031549Y033643D01*
X031524Y033668D01*
X031477Y033668D02*
X031452Y033643D01*
X031402Y033643D01*
X031377Y033668D01*
X031377Y033693D01*
X031402Y033718D01*
X031477Y033718D01*
X031477Y033668D01*
X031477Y033718D02*
X031427Y033768D01*
X031377Y033793D01*
X031330Y033768D02*
X031305Y033793D01*
X031255Y033793D01*
X031230Y033768D01*
X031230Y033743D01*
X031330Y033643D01*
X031230Y033643D01*
X031524Y033768D02*
X031549Y033793D01*
X031599Y033793D01*
X035480Y033768D02*
X035480Y033743D01*
X035505Y033718D01*
X035555Y033718D01*
X035580Y033743D01*
X035580Y033768D01*
X035555Y033793D01*
X035505Y033793D01*
X035480Y033768D01*
X035505Y033718D02*
X035480Y033693D01*
X035480Y033668D01*
X035505Y033643D01*
X035555Y033643D01*
X035580Y033668D01*
X035580Y033693D01*
X035555Y033718D01*
X035627Y033718D02*
X035627Y033668D01*
X035652Y033643D01*
X035702Y033643D01*
X035727Y033668D01*
X035774Y033668D02*
X035799Y033643D01*
X035849Y033643D01*
X035874Y033668D01*
X035874Y033768D01*
X035849Y033793D01*
X035799Y033793D01*
X035774Y033768D01*
X035727Y033793D02*
X035727Y033718D01*
X035677Y033743D01*
X035652Y033743D01*
X035627Y033718D01*
X035627Y033793D02*
X035727Y033793D01*
X035724Y034693D02*
X035824Y034693D01*
X035873Y034693D02*
X035898Y034693D01*
X035898Y034718D01*
X035873Y034718D01*
X035873Y034693D01*
X035945Y034718D02*
X035970Y034693D01*
X036020Y034693D01*
X036045Y034718D01*
X035945Y034818D01*
X035945Y034718D01*
X035945Y034818D02*
X035970Y034843D01*
X036020Y034843D01*
X036045Y034818D01*
X036045Y034718D01*
X035824Y034793D02*
X035774Y034843D01*
X035774Y034693D01*
X035677Y034718D02*
X035652Y034693D01*
X035577Y034693D01*
X035577Y034793D01*
X035530Y034768D02*
X035480Y034768D01*
X035530Y034843D02*
X035430Y034843D01*
X035530Y034843D02*
X035530Y034693D01*
X035677Y034718D02*
X035677Y034793D01*
X031583Y029405D02*
X031533Y029405D01*
X031508Y029380D01*
X031608Y029280D01*
X031583Y029255D01*
X031533Y029255D01*
X031508Y029280D01*
X031508Y029380D01*
X031583Y029405D02*
X031608Y029380D01*
X031608Y029280D01*
X031461Y029280D02*
X031436Y029280D01*
X031436Y029255D01*
X031461Y029255D01*
X031461Y029280D01*
X031387Y029255D02*
X031287Y029255D01*
X031337Y029255D02*
X031337Y029405D01*
X031387Y029355D01*
X031240Y029355D02*
X031240Y029280D01*
X031215Y029255D01*
X031140Y029255D01*
X031140Y029355D01*
X031092Y029330D02*
X031042Y029330D01*
X031092Y029405D02*
X030992Y029405D01*
X031092Y029405D02*
X031092Y029255D01*
X031092Y028355D02*
X031092Y028205D01*
X031142Y028205D02*
X031042Y028205D01*
X031142Y028305D02*
X031092Y028355D01*
X031190Y028355D02*
X031290Y028355D01*
X031290Y028280D01*
X031240Y028305D01*
X031215Y028305D01*
X031190Y028280D01*
X031190Y028230D01*
X031215Y028205D01*
X031265Y028205D01*
X031290Y028230D01*
X031337Y028230D02*
X031362Y028205D01*
X031412Y028205D01*
X031437Y028230D01*
X031437Y028330D01*
X031412Y028355D01*
X031362Y028355D01*
X031337Y028330D01*
X046645Y042898D02*
X046645Y042948D01*
X046670Y042973D01*
X046670Y043020D02*
X046645Y043045D01*
X046645Y043095D01*
X046670Y043120D01*
X046695Y043120D01*
X046720Y043095D01*
X046720Y043020D01*
X046670Y043020D01*
X046720Y043020D02*
X046770Y043070D01*
X046795Y043120D01*
X046795Y043168D02*
X046720Y043168D01*
X046745Y043218D01*
X046745Y043243D01*
X046720Y043268D01*
X046670Y043268D01*
X046645Y043243D01*
X046645Y043193D01*
X046670Y043168D01*
X046795Y043168D02*
X046795Y043268D01*
X046770Y042973D02*
X046795Y042948D01*
X046795Y042898D01*
X046770Y042873D01*
X046670Y042873D01*
X046645Y042898D01*
X047695Y042874D02*
X047695Y042849D01*
X047720Y042849D01*
X047720Y042874D01*
X047695Y042874D01*
X047695Y042923D02*
X047695Y043023D01*
X047695Y042973D02*
X047845Y042973D01*
X047795Y042923D01*
X047820Y042802D02*
X047720Y042702D01*
X047695Y042727D01*
X047695Y042777D01*
X047720Y042802D01*
X047820Y042802D01*
X047845Y042777D01*
X047845Y042727D01*
X047820Y042702D01*
X047720Y042702D01*
X047720Y043070D02*
X047695Y043095D01*
X047695Y043170D01*
X047795Y043170D01*
X047770Y043218D02*
X047770Y043268D01*
X047845Y043218D02*
X047845Y043318D01*
X047845Y043218D02*
X047695Y043218D01*
X047720Y043070D02*
X047795Y043070D01*
X047720Y049202D02*
X047820Y049202D01*
X047845Y049227D01*
X047845Y049277D01*
X047820Y049302D01*
X047720Y049202D01*
X047695Y049227D01*
X047695Y049277D01*
X047720Y049302D01*
X047820Y049302D01*
X047720Y049349D02*
X047720Y049374D01*
X047695Y049374D01*
X047695Y049349D01*
X047720Y049349D01*
X047695Y049423D02*
X047695Y049523D01*
X047695Y049473D02*
X047845Y049473D01*
X047795Y049423D01*
X047795Y049570D02*
X047720Y049570D01*
X047695Y049595D01*
X047695Y049670D01*
X047795Y049670D01*
X047770Y049718D02*
X047770Y049768D01*
X047845Y049718D02*
X047845Y049818D01*
X047845Y049718D02*
X047695Y049718D01*
X046795Y049743D02*
X046720Y049668D01*
X046720Y049768D01*
X046645Y049743D02*
X046795Y049743D01*
X046795Y049620D02*
X046770Y049570D01*
X046720Y049520D01*
X046720Y049595D01*
X046695Y049620D01*
X046670Y049620D01*
X046645Y049595D01*
X046645Y049545D01*
X046670Y049520D01*
X046720Y049520D01*
X046670Y049473D02*
X046645Y049448D01*
X046645Y049398D01*
X046670Y049373D01*
X046770Y049373D01*
X046795Y049398D01*
X046795Y049448D01*
X046770Y049473D01*
M02*
