<?xml version="1.0" encoding="utf-8"?>
<!-- Generator: Adobe Illustrator 17.0.0, SVG Export Plug-In . SVG Version: 6.00 Build 0)  -->
<!DOCTYPE svg PUBLIC "-//W3C//DTD SVG 1.1//EN" "http://www.w3.org/Graphics/SVG/1.1/DTD/svg11.dtd">
<svg version="1.1" id="Layer_1" xmlns="http://www.w3.org/2000/svg" xmlns:xlink="http://www.w3.org/1999/xlink" x="0px" y="0px"
	 width="4000px" height="4000px" viewBox="0 0 4000 4000" enable-background="new 0 0 4000 4000" xml:space="preserve">
<g>
	<path fill="#121A95" d="M3141.23,1425.548c-15.976,208.062-38.391,456.382-116.114,697.66
		c-40.756,126.519-43.914,260.997-30.13,394.349c7.159,69.263,14.688,138.522,19.799,207.949
		c3.061,41.588-15.954,54.147-56.153,41.848c-29.065-8.893-53.256-25.947-75.006-46.026
		c-85.413-78.851-148.978-172.497-193.157-280.361c-27.733-67.71-44.402-138.417-64.875-208.117
		c-6.69-22.776-16.571-43.606-28.757-63.491c-4.795-7.825-6.541-19.135-21.914-17.178c-15.768,2.007-18.019,13.726-19.881,23.443
		c-6.51,33.98-3.271,68.519-2.135,102.821c3.645,110.098,39.106,208.926,105.798,296.669c6.255,8.229,11.342,17.739,15.139,27.376
		c15.418,39.134,3.595,58.417-37.489,60.294c-86.46,3.951-167.437-20.575-246.58-51.214c-22.598-8.748-33.958-2.407-44.165,15.76
		c-9.955,17.718-17.49,35.782-13.289,56.93c3.441,17.325,11.704,28.931,29.638,34.578c75.79,23.864,140.821,66.988,202.754,115.382
		c3.744,2.925,8.005,5.729,10.528,9.572c7.456,11.358,15.37,25.432,8.26,37.142c-5.484,9.033-20.008,12.889-32.214,12.292
		c-27.091-1.325-52.035-10.349-75.879-23.055c-130.503-69.544-268.445-96.104-413.713-62.9
		c-72.151,16.491-137.726,53.294-196.461,96.987c-87.974,65.444-187.096,81.158-291.742,82.278
		c-27.825,0.298-55.425-0.263-81.086-13.06c-30.198-15.059-31.947-37.18-4.417-55.432c35.167-23.315,37.436-34.552,12.428-68.844
		c-35.492-48.667-77.856-90.911-122.479-131.175c-14.868-13.415-31.6-11.752-48.443-11.066
		c-81.763,3.328-161.951-4.955-239.053-33.496c-24.498-9.069-48.544-20.247-71.188-33.26c-55.25-31.753-74.383-95.766-37.05-149.88
		c27.219-39.455,28.666-75.689-0.686-114.027c-11.403-14.894-12.57-31.373,2.615-46.456c8.842-8.783,15.103-19.759,17.546-32.234
		c1.629-8.321,3.727-17.047-6.403-22.529c-46.811-25.332-61.581-62.739-48.995-115.073c7.974-33.154,4.411-34.01-29.6-31.258
		c-1.903,0.154-3.806,0.316-5.713,0.403c-97.418,4.441-132.557-35.327-112.574-129.781c13.156-62.187,43.158-117.872,69.601-175.141
		c21.821-47.258,48.219-91.537,73.682-136.58c23.85-42.191,28.098-87.536,11.085-132.373c-7.789-20.528-24.243-37.76-44.373-49.952
		c-50.542-30.609-76.226-74.503-72.555-134.875c5.452-89.653,29.013-172.437,71.064-253.231
		c35.852-68.883,79.36-129.65,135.258-181.14c64.763-59.654,135.297-110.685,214.635-152.47
		c78.15-41.159,158.187-73.303,241.638-99.733c37.778-11.965,48.611-26.936,43.099-49.837c-2.809-11.67-8.238-18.835-21.013-23.805
		c-35.655-13.871-69.839-6.546-103.633,3.87c-52.078,16.051-103.223,34.884-149.995,63.606c-11.121,6.83-18.916,7.435-29.294-3.374
		c-84.885-88.41-170.603-176.02-255.871-264.064c-16.815-17.363-14.935-29.485,7.292-41.563
		c65.339-35.504,130.562-73.236,202.518-91.958c46.494-12.097,90.094-31.967,137.155-43.373
		c47.886-11.606,95.801-28.314,144.567-38.305c40.297-8.256,81.962-12.582,122.609-18.219c73.471-10.19,146.39-11.423,218.949-6.087
		c55.3,4.067,111.062,8.515,166.54,17.147c56.079,8.725,112.043,17.68,167.363,30.178
		c235.219,53.142,425.781,185.519,606.03,338.275c164.134,139.099,260.585,320.32,336.796,516
		C3125.996,1160.829,3146.544,1297.552,3141.23,1425.548z M2090.724,1939.414c0.391,0,0.782-0.001,1.173-0.001
		c0,16.229-0.617,32.487,0.106,48.684c3.231,72.316-0.611,145.926,21.973,215.645c58.722,181.28,190.283,286.815,366.625,342.678
		c19.413,6.15,45.855,24.323,61.145,4.621c16.262-20.957-5.726-44.24-15.436-65.481c-16.28-35.614-43.98-65.575-51.305-105.652
		c-20.128-110.117,2.334-215.347,46.228-314.603c44.343-100.271,74.246-203.378,90.371-311.14
		c3.089-20.639,0.821-38.966-18.757-52.964c-17.217-12.31-23.12-32.403-24.641-52.869c-4.365-58.717-6.931-117.588-12.264-176.21
		c-11.33-124.539-26.674-247.569-99.062-355.952c-51.425-76.996-97.96-158.224-173.842-213.922
		c-121.468-89.16-258.352-142.88-407.479-165.755c-38.877-5.964-79.646-9.71-101.976-51c-8.107-14.99-25.117-16.942-40.364-16.811
		c-48.55,0.418-94.441,10.374-133.953,41.029c-13.6,10.551-28.137,19.876-44.936,24.563c-92.24,25.733-178.664,65.608-263.5,109.072
		c-169.002,86.587-285.728,219.286-348.803,398.666c-6.961,19.796-13.554,39.96-13.904,61.179
		c-0.491,29.75,35.034,57.123,60.688,43.736c17.632-9.201,34.368-8.884,51.855-9.056c84.36-0.829,167.644,8.034,251.487,18.667
		c55.52,7.041,110.421,15.985,163.027,31.427c123.774,36.334,244.86,79.463,359.158,142.389
		c66.968,36.869,132.957,73.594,190.474,123.501c58.267,50.559,90.887,114.1,86.202,193.921
		C2089.228,1878.222,2090.724,1908.862,2090.724,1939.414z M1616.64,2045.304c-3.3-36.061-3.047-72.888-10.626-108.025
		c-16.76-77.697-37.918-154.434-56.387-231.776c-11.679-48.908-18.453-98.982-41.117-144.922
		c-36.496-73.979-90.968-120.871-177.032-124.521c-28.492-1.208-56.77-6.832-85.258-8.895
		c-67.095-4.859-133.523,0.846-198.781,17.033c-32.309,8.014-38.136,25.4-18.503,50.703c9.609,12.384,14.967,26.67,19.433,41.121
		c19.37,62.669,11.794,121.507-22.381,178.319c-51.499,85.609-106.911,169.534-133.589,267.577
		c-5.292,19.447-11.33,42.201,7.169,55.91c19.103,14.156,42.032,12.142,65.098,2.053c39.198-17.146,78.976-33.84,121.421-41.304
		c40.453-7.114,50.753,7.036,40.842,47.312c-4.326,17.58-16.989,21.155-29.334,26.747c-24.566,11.127-48.012,23.711-64.852,45.526
		c-23.128,29.961-20.578,55.56,8.264,79.596c31.215,26.014,66.25,44.956,106.407,52.995c15.316,3.066,29.097,8.381,41.031,18.633
		c20.952,18,18.691,31.066-8.102,40.124c-19.12,6.464-39.433,7.578-59.322,6.924c-42.867-1.41-49.133,7.781-30.099,47.473
		c19.386,40.426,14.097,74.664-17.361,106.759c-12.746,13.004-23.219,27.497-33.592,42.365
		c-15.156,21.722-5.425,41.156,8.022,55.903c11.936,13.09,29.955,26.838,46.405,28.379c40.67,3.808,77.72,22.694,120.002,21.399
		c40.668-1.246,81.804,2.535,122.34-2.637c50.756-6.477,96.544-24.448,126.682-69.37c54.133-80.688,71.587-176.986,110.656-264.317
		C1606.874,2209.076,1616.215,2127.046,1616.64,2045.304z M1776.237,2519.499c0-0.316,0-0.631,0.001-0.947
		c45.853,0,91.821-1.969,137.519,0.697c30.116,1.757,44.191-12.77,52.452-37.513c11.692-35.021,24.379-69.867,33.344-105.615
		c40.872-162.971,49.911-329.398,45.162-496.25c-2.292-80.514-30.546-154.659-104.173-199.488
		c-58.093-35.372-116.808-70.029-178.455-99.382c-63.843-30.398-98.309-8.699-99.022,62.878
		c-0.595,59.693,9.423,117.872,20.308,176.234c11.683,62.638,36.354,122.505,37.008,187.547
		c1.555,154.548-47.573,296.218-108.191,435.128c-4.948,11.338-11.116,21.993-13.628,34.412
		c-6.418,31.726,1.997,42.331,34.422,42.307C1680.735,2519.473,1728.486,2519.499,1776.237,2519.499z M1944.548,522.276
		c12.37-0.626,24.819-0.58,37.09-2.04c17.693-2.104,35.611,7.033,53.313-3.089c21.94-12.545,8.751-34.23,14.181-51.103
		c16.002-49.716,27.676-100.834,40.765-151.475c8.169-31.605,2.461-40.048-28.99-43.208c-20.838-2.094-41.938-2.291-62.577-5.528
		c-152.12-23.864-303.995-20.552-455.593,3.914c-80.883,13.053-160.861,29.216-238.493,57.354
		c-59.362,21.516-120.329,38.583-176.452,68.261c-26.668,14.102-28.766,29.897-8.704,51.583
		c34.322,37.1,68.529,74.307,102.563,111.67c37.636,41.318,45.181,42.674,93.908,18.255c33.444-16.76,69.549-25.251,105.263-35.944
		c71.197-21.318,166.145-5.461,219.522,50.083c40.051,41.677,94.771,39.368,130.423-7.227
		c17.726-23.166,39.526-41.403,66.808-52.103C1872.155,518.116,1908.819,524.594,1944.548,522.276z M2112.979,509.397
		c-4.905,42.154,35.771,49.216,55.72,56.781c67.269,25.509,123.696,68.15,183.589,104.723
		c75.017,45.808,144.038,100.289,196.243,173.111c12.925,18.029,29.956,22.074,52.946,14.16
		c18.491-6.365,23.718-23.183,37.058-33.044c43.481-32.14,86.202-65.311,129.091-98.246c27.594-21.19,29.942-44.206,6.474-70.563
		c-12.042-13.525-25.519-25.776-38.396-38.555c-82.239-81.611-173.875-152.171-273.32-210.237
		c-77.59-45.305-166.06-68.336-252.156-94.391c-21.69-6.564-44.207-1.714-51.311,22.455
		C2142.024,393.063,2128.102,451.406,2112.979,509.397z M3053.169,1289.077c-1.447-36.397-7.313-72.12-14.298-107.701
		c-27.635-140.768-85.312-268.905-162.518-389.046c-15.988-24.879-35.108-23.711-58.209-13.216
		c-55.463,25.197-101.401,63.788-146.73,103.289c-44.277,38.584-50.788,65.379-17.897,113.36
		c73.097,106.632,112.017,226.009,138.532,350.677c7.773,36.546,31.088,56.674,67.611,49.653
		c50.816-9.769,102.511-11.965,153.2-22.218c27.779-5.619,38.183-22.51,40.143-47.661
		C3053.962,1313.905,3053.169,1301.46,3053.169,1289.077z M2619.848,2025.325c-0.155,19.539,1.579,38.819,15.263,53.867
		c17.192,18.905,27.112,41.602,35.263,64.961c14.751,42.276,28.491,84.924,41.809,127.679
		c37.497,120.383,90.599,232.563,171.708,330.237c4.698,5.657,7.852,15.284,16.953,12.123c9.181-3.189,6.025-13.152,5.788-20.23
		c-1.498-44.817-3.631-89.613-5.385-134.422c-6.009-153.543,6.173-304.586,62.783-449.351c10.066-25.741-5.293-36.89-24.708-46.306
		c-27.611-13.39-58.987-16.676-87.693-21.172c-51.281-8.031-98.585-25.433-146.648-42.055c-27.138-9.385-47.011-3.953-58.651,23.015
		C2632.412,1955.913,2621.079,1989.493,2619.848,2025.325z M1965.495,590.639c-23.536,3.095-46.369,1.208-68.544,10.078
		c-21.535,8.614-22.275,23.063-16.456,40.672c9.321,28.207,36.79,33.801,59.411,39.284c42.978,10.417,86.526,19.364,130.001,28.017
		c77.119,15.349,145.266,53.934,208.467,100.101c65.286,47.691,117.569,108.616,167.942,171.083
		c118.624,147.104,162.811,322.665,191.414,504.025c4.321,27.397,7.458,54.599,29.949,75.192c8.4,7.691,12.949,9.449,23.796,3.737
		c26.875-14.15,32.355-38.59,30.667-63.932c-9.233-138.637-28.543-273.719-95.408-400.245
		c-76.17-144.135-171.715-270.546-303.206-366.499c-57.431-41.909-119.217-79.482-186.391-105.984
		C2081.624,604.265,2024.118,592.648,1965.495,590.639z M3061.648,1509.144c0-10.492,0.303-20.995-0.051-31.476
		c-1.751-51.8-8.598-56.81-60.476-44.676c-4.637,1.085-9.42,1.819-13.851,3.474c-43.97,16.428-89.505,28.078-135.979,31.409
		c-27.371,1.962-34.483,15.074-34.967,37.186c-0.647,29.555-0.17,59.142,0.234,88.709c0.257,18.798-5.566,33.914-23.932,41.513
		c-63.242,26.164-104.874,67.531-113.564,140.104c-4.885,40.8-3.23,53.667,35.811,60.436c48.665,8.437,95.39,24.133,143.188,35.746
		c30.659,7.449,60.222,19.327,90.763,27.373c20.141,5.306,33.775-5.956,45.344-22.174c13.242-18.563,14.089-40.23,18.414-60.943
		C3033.767,1714.375,3059.931,1613.691,3061.648,1509.144z M1824.051,2600.42c-60.032,1.493-110.372,6.703-160.797,9.668
		c-101.756,5.982-149.079,72.382-92.457,170.353c40.327,69.776,94.939,95.178,171.756,67.617
		c64.601-23.179,116.69-65.886,167.771-110.203c28.965-25.129,50.277-53.495,52.375-93.193c1.255-23.742-7.474-38.42-33.657-39.316
		C1890.902,2604.041,1852.794,2601.806,1824.051,2600.42z M2036.676,2502.74c-2.969,54.764,20.37,99.735,53.083,140.951
		c22.827,28.76,52.654,47.789,88.407,55.271c25.494,5.335,47.05-4.396,61.801-26.445c26.459-39.55,19.184-115.736-18.487-145.071
		c-59.716-46.502-112.808-96.57-133.196-172.809c-1.997-7.468-6.958-14.859-15.563-14.757c-9.487,0.112-11.599,9.289-12.984,16.434
		C2050.334,2404.846,2036.434,2452.694,2036.676,2502.74z"/>
	<path fill="#121A95" d="M3388.307,3743.498c-8.439,3.89-16.056,4.871-23.041,1.922c-43.583-18.4-90.853-24.026-135.315-39.385
		c-10.181-3.517-18.991-6.516-11.871-19.439c28.964-52.568,2.881-97.327-19.282-143.146
		c-26.409-54.596-51.434-109.86-77.515-164.617c-7.25-15.221-16.115-29.673-24.426-44.82c-19.765,13.086-7.271,30.362-7.612,45.134
		c-1.343,58.196-0.987,116.433-2.469,174.624c-0.837,32.891-0.004,64.644,20.017,93.095c2.754,3.914,11.514,10.866,4.112,17.086
		c-6.196,5.206-14.85,11.029-23.329,6.781c-34.324-17.196-73.359-11.385-109.292-25.322c0.117,0.567-0.91-2.12-0.432-2.421
		c32.228-20.333,31.002-51.74,30.721-84.621c-1.01-118.393-0.473-236.8-0.254-355.201c0.036-19.204,1.876-38.117-16.991-51.41
		c-7.99-5.629-7.626-14.426,3.262-16.422c38.937-7.137,76.048-24.217,117.042-20.742c9.824,0.833,13.589,1.707,11.116,12.594
		c-7.566,33.303,1.254,65.021,14.933,94.442c40.513,87.139,82.82,173.445,124.517,260.032c1.492,3.097,3.959,5.726,10.371,14.796
		c0-36.806,0.217-66.741-0.043-96.673c-0.654-75.391,0.771-150.761-2.038-226.194c-1.487-39.928-10.591-71.325-58.164-88.685
		c67.554-22.928,127.685-43.337,188.601-64.012c1.547,11.462-7.407,14.018-11.615,19.385c-22.308,28.45-35.989,58.42-35.457,96.64
		c2.083,149.759-9.561,299.547,0.398,449.334C3357.844,3640.33,3359.366,3694.832,3388.307,3743.498z"/>
	<path fill="#121A95" d="M941.764,3235.947c-32.455-23.105-59.54-44.11-88.318-62.458c-39.784-25.366-84.035-35.421-131.128-30.57
		c-26.569,2.737-48.598,13.366-54.137,42.401c-5.475,28.698,9.665,47.122,34.037,59.461
		c52.702,26.681,106.153,51.697,157.304,81.636c56.86,33.281,81.543,85.03,86.431,145.967
		c10.875,135.571-78.623,234.042-218.278,244.067c-18.016,1.293-36.659,2.45-54.248-0.652c-40.08-7.069-77.801-4.86-110.815,19.57
		c-8.971-4.772-5.637-11.241-5.285-16.081c3.611-49.533,4.993-99.051,2.931-148.727c-0.34-8.201-3.313-20.258,7.758-25.352
		c11.326-5.211,14.363,6.897,19.954,12.068c46.081,42.609,143.678,53.41,199.251,21.504c48.029-27.574,59.097-93.129,23.879-142.385
		c-12.991-18.168-30.09-31.998-49.254-42.981c-45.7-26.19-92.056-51.248-137.542-77.799c-90.24-52.674-105.819-168.6-32.461-233.157
		c48.188-42.406,111.882-49.848,175.846-33.763c26.033,6.547,51.172,15.874,74.017,29.645c26.327,15.87,53.517,24.637,84.217,19.35
		c10.15-1.748,16.204-0.828,16.037,12.042C941.43,3150.516,941.764,3191.309,941.764,3235.947z"/>
	<path fill="#121A95" d="M1197.307,3623.578c-54.235,10.294-106.5,7.879-155.921,24.499c-4.705,1.582-11.748,2.448-15.124-3.828
		c-2.919-5.427,1.759-8.943,4.987-12.084c26.034-25.338,30.754-56.949,30.619-91.658c-0.409-104.86,7.984-209.648,0.228-314.632
		c-2.687-36.37-8.123-71.09-28.877-104.153c76.879,4.404,148.079,16.628,218.568,32.506c35.051,7.895,69.987,17.751,103.5,30.575
		c28.075,10.743,45.52,35.384,53.762,63.551c10.07,34.415,9.069,70.269-4.651,103.563c-21.702,52.667-66.279,74.275-119.884,78.813
		c-37.001,3.132-74.292,3.894-111.443,3.711c-16.892-0.083-23.614,5.582-26.034,21.955
		C1137.738,3519.318,1151.535,3575.188,1197.307,3623.578z M1136.641,3283.447c0,13.355,1.308,26.869-0.288,40.031
		c-2.823,23.29,5.743,32.118,29.585,31.948c31.526-0.226,63.192-5.269,94.109-3.066c19.99,1.425,33.512-4.855,47.101-14.58
		c33.469-23.953,27.798-77.775-8.46-96.641c-40.7-21.177-84.298-28.455-129.248-31.663c-23.064-1.646-36.849,3.888-33.175,31.089
		C1138.163,3254.617,1136.599,3269.138,1136.641,3283.447z"/>
	<path fill="#121A95" d="M2221.889,3585.774c-55.436-2.685-104.58-8.597-153.858-2.98c-12.892,1.47-13.4-7.362-6.125-13.592
		c31.484-26.961,16.009-53.688-1.268-78.207c-9.439-13.396-12.051-34.482-30.645-38.86c-26.229-6.176-53.144-2.387-79.695,0.797
		c-12.071,1.448-11.235,11.538-11.952,19.642c-3.442,38.905,0.744,75.75,36.154,106.717c-50.768,0-96.029,0-144.969,0
		c24.618-31.348,28.603-65.336,28.157-100.814c-0.743-59.152,0.064-118.324-0.79-177.474c-0.739-51.172-1.358-51.163-34.863-94.272
		c70.873,0.848,138.933-3.365,206.841,3.829c26.094,2.764,52.118,7.151,78.095,11.236c76.858,12.085,83.614,126.082,50.266,166.21
		c-11.386,13.701-19.467,31.532-39.032,38.231c-14.126,4.836-3.454,14.491-0.437,20.776c12.374,25.78,27.897,49.72,43.874,73.466
		C2177.125,3543.485,2198.263,3560.924,2221.889,3585.774z M1995.028,3275.28c-0.031,0.585-0.061,1.171-0.091,1.756
		c-13.326,0-26.687,0.61-39.97-0.145c-19.375-1.102-28.067,6.627-26.974,26.692c1.086,19.936,0.695,39.99,0.101,59.967
		c-0.469,15.771,6.237,23.153,22.007,22.082c37.951-2.578,76.105-4.292,112.843-15.147c23.657-6.99,32.478-25.117,30.594-48.588
		c-1.792-22.331-13.189-38.12-36.034-41.537C2036.887,3277.274,2015.87,3276.867,1995.028,3275.28z"/>
	<path fill="#121A95" d="M2698.577,3611.239c-41.206,3.759-79.457-4.486-117.874-9.632c-13.905-1.863-10.767-11.342-5.236-18.912
		c22.632-30.973,35.474-66.848,52.073-100.878c5.168-10.594,2.523-21.414,6.698-32.222c23.597-61.088,45.44-122.856,67.703-184.457
		c7.541-20.865,14.279-41.972,9.607-64.689c-2.396-11.651,3.609-13.158,13.632-18.306c30.735-15.788,64.003-7.802,95.347-15.042
		c13.365-3.087,12.67,7.88,10.255,16.493c-9.696,34.581-3.284,67.81,6.796,101.114c27.051,89.374,48.323,180.267,69.264,271.195
		c6.833,29.667,15.155,58.338,38.236,88.735c-58.099-10.563-107.939-16.528-163.244-20.726c15.34-16.326,38.656-10.375,41.53-26.161
		c3.953-21.718,11.752-44.446,1.885-67.031c-4.196-9.604-7.452-18.118-21.089-19.261c-27.503-2.306-54.83-5.948-82.511-7.261
		c-21.962-1.042-34.187,9.108-42.306,26.8c-8.761,19.091-12.704,38.311,5.047,55.335
		C2690.578,3592.267,2696.427,3598.549,2698.577,3611.239z M2764.838,3465.029c12.034-5.767,40.25,9.836,35.465-17.033
		c-8-44.914-13.592-90.982-31.654-133.746c-1.271-3.009,0.768-9.052-4.733-7.964c-4.012,0.793-9.764,4.361-10.629,7.743
		c-10.596,41.469-33.672,78.542-42.23,120.683c-1.629,8.021-7.43,17.169,6.231,20.068
		C2732.957,3458.104,2746.926,3469.623,2764.838,3465.029z"/>
	<path fill="#121A95" d="M1518.304,3183.715c59.588,5.172,112.408,9.756,171.133,14.852c-25.626,23.238-20.729,46.557-15.755,71.61
		c17.363,87.459,45.701,170.843,85.033,250.862c11.246,22.879,29.857,40.308,42.243,64.627c-52.45,0-103.425,0-158.243,0
		c13.373-18.321,25.163-34.324,29.121-54.084c6.01-30.002-6.214-43.278-36.446-41.061c-23.754,1.742-47.634,1.707-71.422,3.076
		c-48.978,2.819-66.911,37.523-42.069,80.318c3.388,5.837,14.463,10.004,7.344,18.859c-5.139,6.391-13.906,4.716-21.571,4.601
		c-21.93-0.328-43.879-0.942-65.794-0.395c-20.9,0.521-41.767,2.363-62.669,3.623c-5.124-9.487,3.774-11.041,8.571-14.46
		c28.636-20.406,48.252-46.781,59.37-80.625c26.252-79.914,53.984-159.34,80.973-239.012
		C1537.372,3239.205,1547.746,3211.696,1518.304,3183.715z M1594.424,3307.471c-17.259,28.248-23.508,57.993-34.53,85.671
		c-21.059,52.884-18.126,56.277,40.151,53.088c11.482-0.628,21.624-3.713,31.893-8.573c7.536-3.567,9.93-7.954,7.821-15.532
		C1628.962,3383.342,1620.158,3343.756,1594.424,3307.471z"/>
	<path fill="#121A95" d="M2603.968,3286.401c-43.151-28.641-86.957-32.913-132.559-29.485c-14.023,1.054-20.174,6.103-19.941,21.01
		c1.326,84.857-5.02,169.782,2.232,254.592c1.834,21.455,6.444,41.712,27.182,53.183c-4.018,9.899-11.485,7.281-17.271,7.138
		c-27.656-0.68-55.323-1.517-82.936-3.14c-11.989-0.705-29.459,3.948-34.589-5.334c-6.237-11.284,13.672-15.733,17.669-24.478
		c5.646-12.355,9.824-26.353,9.636-41.073c-0.979-76.337-1.842-152.682-1.683-229.022c0.042-20.069-7.103-26.972-26.94-24.741
		c-31.527,3.545-62.575,7.482-88.139,28.825c-4.274,3.568-8.322,8.732-14.769,5.331c-6.761-3.566-3.213-9.743-3.231-15.194
		c-0.046-14.243-0.102-28.535-1.274-42.715c-2.698-32.613-0.468-35.823,33.444-35.821c57.149,0.002,114.389-3.212,171.198-6.377
		c46.012-2.564,92.041-8.595,138.476-8.444c16.361,0.053,24.659,4.565,23.766,22.657
		C2603.116,3236.042,2603.968,3258.868,2603.968,3286.401z"/>
	<path fill="#121A95" d="M1347.128,1750.425c-57.252,0.457-106.795,17.892-142.012,65.824c-6,8.167-9.464,20.37-23.415,13.956
		c-12.098-5.562-20.013-14.845-19.24-29.052c1.267-23.306,14.903-40.559,34.044-49.514c27.393-12.815,18.226-36.018,21.21-56.06
		c3.069-20.617,7.154-38.711-20.262-50.725c-28.189-12.353-34.593-35.663-22.595-52.637c15.995-22.628,44.716-27.589,67.628-9.29
		c42.66,34.071,89.12,62.181,135.673,90.272c11.466,6.919,22.778,14.251,30.689,25.332c11.932,16.713,7.403,37.076-11.723,40.875
		c-9.968,1.98-15.052,10.499-24.232,10.933C1364.323,1750.743,1355.718,1750.425,1347.128,1750.425z M1278.142,1694.425
		c-8.832,0.678-16.177,4.591-16.042,13.266c0.132,8.509,7.605,13.394,15.892,13.142c8.892-0.271,17.96-3.633,16.929-14.685
		C1294.079,1697.122,1285.834,1695.055,1278.142,1694.425z"/>
</g>
</svg>
